<?xml version="1.0" standalone="no"?>
<!DOCTYPE svg PUBLIC "-//W3C//DTD SVG 20010904//EN"
 "http://www.w3.org/TR/2001/REC-SVG-20010904/DTD/svg10.dtd">
<svg version="1.0" xmlns="http://www.w3.org/2000/svg"
 width="16.000000pt" height="16.000000pt" viewBox="0 0 16.000000 16.000000"
 preserveAspectRatio="xMidYMid meet">

<g transform="translate(0.000000,16.000000) scale(0.100000,-0.100000)"
fill="#000000" stroke="none">
<path d="M0 130 c0 -23 10 -26 28 -8 18 18 15 28 -8 28 -13 0 -20 -7 -20 -20z"/>
<path d="M50 139 c0 -5 5 -7 10 -4 6 3 10 8 10 11 0 2 -4 4 -10 4 -5 0 -10 -5
-10 -11z"/>
<path d="M71 109 c-10 -32 -10 -44 0 -55 10 -12 14 -12 20 -2 4 7 3 18 -3 26
-13 15 -6 23 35 40 31 13 34 7 11 -19 -14 -16 -14 -20 1 -43 10 -14 13 -26 7
-26 -5 0 -13 8 -16 17 -6 14 -9 14 -22 -6 -15 -20 -17 -21 -34 -6 -15 14 -18
14 -30 0 -7 -8 -17 -15 -23 -15 -5 0 -3 8 7 19 15 16 15 20 1 31 -8 7 -12 16
-9 21 3 5 0 9 -5 9 -6 0 -11 -20 -11 -45 l0 -45 80 0 80 0 0 70 0 70 -38 0
c-37 0 -40 -2 -51 -41z"/>
<path d="M42 108 c-14 -14 -16 -28 -3 -28 9 0 24 30 18 36 -2 2 -9 -2 -15 -8z"/>
</g>
</svg>
