<?xml version="1.0" encoding="UTF-8" standalone="no"?>
<!-- Created with Inkscape (http://www.inkscape.org/) -->

<svg
   version="1.1"
   id="svg5029"
   width="512"
   height="512"
   viewBox="0 0 512 512"
   xmlns="http://www.w3.org/2000/svg"
   xmlns:svg="http://www.w3.org/2000/svg">
  <defs
     id="defs5033" />
  <g
     id="g5035">
    <g
       id="g5039">
      <path
         style="fill:#b1d8fb"
         d="M 40.316872,510.77243 C 35.039843,509.07584 32.018914,504.8746 28.127311,493.82029 L 24.494114,483.5 18.997057,482.99898 C 7.9434855,481.99152 2,475.62527 2,464.79291 c 0,-7.98869 15.905358,-80.23385 18.728264,-85.06733 2.105835,-3.60569 7.341098,-7.49882 11.212333,-8.33789 1.407672,-0.3051 3.121903,-0.72803 3.809403,-0.93983 C 36.743595,370.14176 37,335.15103 37,199.86431 V 29.665845 L 50.25,16.250691 C 57.5375,8.8723567 64.715153,2.1975415 66.20034,1.4177687 c 4.087495,-2.14607143 374.88882,-2.12774673 379.92754,0.018776 3.25548,1.3868531 23.8884,21.4918233 27.23279,26.5359613 1.47948,2.231412 1.63789,9.154634 1.62459,71 -0.0159,73.792404 0.0917,72.263824 -5.26452,74.832064 C 467.07957,175.07098 467,175.35453 467,183.5 c 0,8.14547 0.0796,8.42902 2.72074,9.69543 5.41225,2.59513 5.24864,-0.25109 5.26452,91.58595 0.0116,67.34273 0.27767,85.36239 1.26474,85.66648 0.6875,0.2118 2.40173,0.63473 3.8094,0.93983 3.87124,0.83907 9.1065,4.7322 11.21234,8.33789 1.03897,1.77897 5.64813,20.07751 10.30406,40.90754 9.24714,41.37051 10.02904,48.03413 6.33717,54.00769 -2.61286,4.2277 -9.51197,8.35436 -14.00083,8.3745 -1.87668,0.008 -3.90748,0.34592 -4.51289,0.75 -0.60542,0.40408 -2.52008,5.00969 -4.25481,10.23469 -5.61124,16.90106 -7.55289,17.96989 -32.64444,17.96989 -25.72768,0 -27.51633,-1.03969 -33.49532,-19.46989 -1.24899,-3.85 -2.71724,-7.56388 -3.26278,-8.25307 -0.78885,-0.99657 -33.46023,-1.20127 -159.60986,-1 L 97.514062,483.5 93.876776,493.82029 c -4.026061,11.4234 -6.919512,15.27672 -12.792507,17.03632 -4.728919,1.41681 -36.301524,1.35162 -40.767397,-0.0842 z m 52.516816,-79.36849 c 3.181892,-2.22869 2.655695,-7.28891 -0.968457,-9.31326 -2.359647,-1.31803 -2.90785,-1.29278 -5.25,0.24186 -3.378782,2.21386 -3.57985,6.87841 -0.392725,9.11076 2.791946,1.95555 3.771367,1.94972 6.611182,-0.0394 z M 181,365 v -5 h -5 -5 v 5 5 h 5 5 z m 160,0 v -5 h -5 -5 v 5 5 h 5 5 z m 18,-28.5 V 332 h -25.04966 c -27.68443,0 -29.85069,-0.40679 -31.7899,-5.96962 -1.05637,-3.0303 -1.05661,-3.03038 -8.9871,-3.03038 -7.89217,0 -7.93682,0.0148 -9.18984,3.03983 C 281.40048,332.2758 284.55659,332 215.77749,332 H 153 v 4.5 4.5 H 256 359 Z M 258.17126,237.34501 c 1.00581,-0.91024 1.82874,-2.71024 1.82874,-4 C 260,231.27583 259.5295,231 256,231 c -3.56863,0 -4,0.2619 -4,2.42857 0,2.20538 2.2612,5.57143 3.74269,5.57143 0.3299,0 1.42276,-0.74474 2.42857,-1.65499 z M 275.8,210.8 c 0.66,-0.66 1.2,-2.685 1.2,-4.5 V 203 h -21 -21 v 3.3 c 0,1.815 0.54,3.84 1.2,4.5 1.69158,1.69158 37.90842,1.69158 39.6,0 z M 124.56811,192.53599 C 130.80515,189.92999 131,188.58079 131,148 c 0,-40.6649 -0.18393,-41.92542 -6.50271,-44.56558 -2.67945,-1.11954 -6.75806,-1.42358 -16.28599,-1.21401 L 95.5,102.5 v 4.5 4.5 l 10.3404,0.5 c 9.80697,0.47421 10.46471,0.64474 12.75,3.30576 L 121,118.11153 V 148 177.88847 l -2.4096,2.80577 c -2.28529,2.66102 -2.94303,2.83155 -12.75,3.30576 l -10.3404,0.5 -0.320459,3.3452 c -0.584168,6.098 -0.46124,6.1548 13.321189,6.1548 8.76807,0 13.62203,-0.44228 16.06738,-1.46401 z M 416.5,148 v -45.5 h -3.5 -3.5 l -0.2608,44.5 c -0.14344,24.475 -0.034,45.09124 0.24312,45.81387 0.31146,0.81205 1.74786,1.19399 3.7608,1 L 416.5,193.5 Z M 182.75,168.34579 191,167.70357 V 162.85178 158 h -21 -21 v 4.83333 c 0,2.65834 0.3,5.13334 0.66667,5.5 0.84782,0.84783 22.24867,0.85589 33.08333,0.0125 z M 390.80226,163.25 391.10452,158 H 356.05226 321 v 4.9501 4.95009 l 5.75,0.36818 c 3.1625,0.2025 18.8,0.33745 34.75,0.2999 l 29,-0.0683 0.30226,-5.25 z m -288.02865,-15 0.27362,-17.25 H 99.023614 95 v 16.83333 c 0,9.25834 0.321327,17.15466 0.71406,17.5474 0.392733,0.39273 2.080233,0.58023 3.75,0.41666 L 102.5,165.5 Z M 182.75,138.34579 191,137.70357 V 132.85178 128 h -21 -21 v 4.83333 c 0,2.65834 0.3,5.13334 0.66667,5.5 0.84782,0.84783 22.24867,0.85589 33.08333,0.0125 z M 390.80226,133.25 391.10452,128 H 356.05226 321 v 4.9501 4.95009 l 5.75,0.36818 c 3.1625,0.2025 18.8,0.33745 34.75,0.2999 l 29,-0.0683 0.30226,-5.25 z"
         id="path5053" />
      <path
         style="fill:#b8f199"
         d="M 39.263804,509.97623 C 34.079047,507.67221 31.962879,504.36511 27.921048,492.25 L 24.835072,483 H 20.885418 C 13.750474,483 6.5156566,478.77827 3.404986,472.79966 2.6322437,471.31447 2,467.82566 2,465.04675 c 0,-5.2678 14.865006,-74.42377 17.568464,-81.73317 2.067822,-5.59083 8.270804,-11.10434 13.419143,-11.92759 L 37,370.74438 V 201.93729 C 37,86.502202 37.331956,32.240145 38.049924,30.3151 39.260074,27.070395 62.164075,3.5692045 66.20034,1.4307006 c 4.042124,-2.14160754 375.51891,-2.15493483 379.59932,-0.013619 1.48519,0.7793951 8.39745,7.1918951 15.36059,14.2500004 9.96379,10.099679 12.79561,13.578371 13.29577,16.332918 0.34953,1.925 0.50241,33.589153 0.33974,70.36478 l -0.29576,66.86479 -3.75,3.24119 c -3.73488,3.22812 -3.75,3.2726 -3.75,11.02924 0,7.75661 0.0151,7.80113 3.75,11.02939 l 3.75,3.24135 0.27145,86.49025 0.27145,86.49025 3.99094,0.63818 c 5.12606,0.81969 11.3342,6.34503 13.3977,11.92416 2.70345,7.3094 17.56846,76.46537 17.56846,81.73317 0,9.79048 -6.1463,16.28171 -16.86884,17.8155 l -4.62549,0.66165 -3.63309,10.30834 c -4.02169,11.41096 -6.91697,15.26527 -12.78831,17.02437 -5.71336,1.71176 -35.96691,1.50916 -40.21215,-0.26929 -6.04592,-2.53282 -8.54785,-6.23666 -12.83857,-19.00613 L 416.31816,483.5 256.74222,483.24695 97.166278,482.99389 94.445009,491.24695 C 87.873458,511.17712 86.522929,511.99939 60.5,511.91431 46.101098,511.86723 42.851837,511.57069 39.263804,509.97623 Z m 55.705,-80.22623 c 1.374949,-2.46938 1.374927,-3.03062 -2.22e-4,-5.5 -2.112776,-3.79396 -8.040994,-4.41241 -10.373564,-1.08219 -2.146092,3.06397 -2.007598,5.41961 0.463943,7.89115 2.950161,2.95016 7.9026,2.29601 9.909843,-1.30896 z m 86.831096,-65 0.29991,-5.75 H 176.0499 170 v 5.33333 c 0,2.93334 0.32021,5.65355 0.71159,6.04492 0.39137,0.39138 2.97887,0.57888 5.75,0.41667 L 181.5,370.5 Z m 160,0 0.29991,-5.75 H 336.0499 330 v 5.33333 c 0,2.93334 0.32021,5.65355 0.71159,6.04492 0.39137,0.39138 2.97887,0.57888 5.75,0.41667 L 341.5,370.5 Z M 107,338.92308 v -31.07693 l 2.92308,-2.92307 C 111.91807,302.92808 113.8475,302 116,302 c 2.1525,0 4.08193,0.92808 6.07692,2.92308 L 125,307.84615 V 338.92308 370 h 13.55226 13.55226 l -0.30226,-5.14987 -0.30226,-5.14988 -4.68413,-1.36118 c -9.77362,-2.84015 -13.71349,-11.14237 -12.44195,-26.21804 0.76068,-9.01875 3.1029,-13.20526 8.97951,-16.05008 3.84886,-1.8632 6.11295,-2.07095 22.56928,-2.07095 17.02375,0 18.24212,-0.12127 17.58208,-1.75 -0.39005,-0.9625 -0.93289,-4.45 -1.20632,-7.75 -0.91944,-11.09678 5.44001,-22.16034 15.91027,-27.67915 3.87224,-2.04104 6.09767,-2.3136 22.79126,-2.79138 15.65192,-0.44796 18.91184,-0.80904 21.17518,-2.34545 3.08894,-2.09686 4.82482,-6.345 4.82482,-11.80756 0,-3.15934 -0.47864,-4.07411 -2.75,-5.25577 -6.28365,-3.26902 -11.19137,-11.94853 -11.22804,-19.85727 -0.0209,-4.51769 -0.19463,-4.80873 -3.75831,-6.29773 -7.8982,-3.30007 -11.36213,-8.68681 -12.19587,-18.96569 L 216.5,202.5 211,201.90685 C 202.37827,200.97703 197.29154,197.57097 193.59129,190.25 L 191.94864,187 h -21.34033 -21.34033 l -2.09696,5.75112 c -2.62814,7.20791 -9.75853,14.52672 -16.72979,17.17187 l -4.94123,1.87488 -0.5,34.18875 -0.5,34.18874 -2.80576,2.41232 c -3.58573,3.08291 -7.80273,3.08292 -11.38848,3e-5 L 107.5,280.17541 107,246.33771 106.5,212.5 H 101 95.5 L 95.243942,291.25 94.987884,370 H 100.99394 107 Z M 311.80226,364.75 311.5,359.5 H 256 200.5 l -0.30226,5.25 -0.30226,5.25 H 256 312.10452 Z m 104.9538,-73.5 -0.25606,-78.75 -6,-0.5776 C 398.56067,210.77304 392.35762,204.72484 391.09315,193 l -0.59315,-5.5 -35.21772,-0.26276 -35.21773,-0.26275 -1.64925,3.26275 c -3.70744,7.33455 -8.78849,10.73924 -17.4153,11.66961 l -5.5,0.59315 -0.56778,7 c -0.83374,10.27888 -4.29767,15.66562 -12.19587,18.96569 -3.56368,1.489 -3.73736,1.78004 -3.75831,6.29773 -0.0367,7.90874 -4.94439,16.58825 -11.22804,19.85727 -2.47342,1.28678 -2.75,1.963 -2.75,6.72349 0,11.90284 -6.07177,22.06409 -16.37665,27.40672 -4.8356,2.50704 -6.13711,2.68692 -23.17331,3.20266 -19.97921,0.60485 -22.02799,1.19909 -24.47137,7.09793 -1.11624,2.69484 -1.10082,3.86394 0.0966,7.32747 2.58472,7.47626 3.3685,7.6177 42.2244,7.61949 35.43584,0.002 38.46713,0.34548 40.07916,4.54635 1.27516,3.32302 0.55094,7.42535 -1.79178,10.14944 L 279.17408,331.5 215.58704,331.77863 152,332.05725 V 336.52863 341 h 104 104 v -4.5 -4.5 h -24.53212 c -26.0596,0 -30.11712,-0.60756 -32.38739,-4.8496 -1.42302,-2.65894 -1.32292,-7.2518 0.20131,-9.23706 2.79606,-3.64176 5.12054,-3.91334 33.49517,-3.91334 27.15803,0 28.02489,0.0616 32.2383,2.28967 5.49772,2.90727 7.91387,7.47485 8.65868,16.36873 1.21475,14.50544 -2.85924,22.88208 -12.48982,25.68067 L 360.5,359.70025 360.19774,364.85013 359.89548,370 h 28.55832 28.55832 z M 259.42857,238.42857 c 0.86429,-0.86428 1.57143,-3.11428 1.57143,-5 V 230 h -5 -5 v 3.42857 c 0,3.77607 2.1269,6.57143 5,6.57143 1.02143,0 2.56429,-0.70714 3.42857,-1.57143 z M 277,207 v -5 h -21 -21 v 5 5 h 21 21 z M 127.6,190.6 131,187.2 V 148 108.8 l -3.4,-3.4 -3.4,-3.4 H 109.6 95 v 4.90629 4.9063 l 9.97927,0.3437 c 9.35483,0.3222 10.15264,0.51721 12.75,3.11644 L 120.5,118.04545 V 148 177.95455 l -2.77073,2.77272 c -2.59736,2.59923 -3.39517,2.79424 -12.75,3.11644 L 95,184.18741 v 4.9063 V 194 h 14.6 14.6 z M 417,148 v -46 h -4 -4 v 46 46 h 4 4 z m -225,15 v -6 H 170.5 149 v 6 6 h 21.5 21.5 z m 199,0 v -6 H 355.5 320 v 6 6 H 355.5 391 Z M 103,148 v -18 h -4 -4 v 18 18 h 4 4 z m 89,-15 v -6 H 170.5 149 v 6 6 h 21.5 21.5 z m 199,0 v -6 H 355.5 320 v 6 6 H 355.5 391 Z M 193.88236,105.25 c 2.42523,-4.72938 5.62356,-7.727786 10.34917,-9.702272 5.54854,-2.318329 97.9884,-2.318329 103.53694,0 4.72561,1.974486 7.92394,4.972892 10.34917,9.702272 l 1.92301,3.75 H 355.52032 391 v -4.53212 c 0,-11.940054 8.59292,-20.395221 20.77903,-20.445918 L 417.05805,84 416.77903,70.75 416.5,57.5 331.40329,57 C 239.54718,56.460284 243.99375,56.743971 241.92058,51.291097 241.10738,49.152231 240.48755,49 232.59214,49 c -7.54185,0 -8.52518,0.213677 -9.08386,1.973915 -0.34457,1.085653 -1.78558,2.885653 -3.20225,4 C 217.8033,56.942567 216.41519,57 171.33692,57 h -46.39336 l 0.27822,13.612868 0.27822,13.612867 5.06766,1.888999 c 7.01509,2.614919 13.89342,9.701881 16.5875,17.090646 L 149.26798,109 h 21.34569 21.34568 z M 107,70.450096 V 56.900192 L 101.25,57.200096 95.5,57.5 95.220975,70.75 94.94195,84 H 100.97097 107 Z"
         id="path5051" />
      <path
         style="fill:#97afc5"
         d="M 39.263804,509.97623 C 34.079047,507.67221 31.962879,504.36511 27.921048,492.25 L 24.835072,483 H 20.885418 C 13.750474,483 6.5156566,478.77827 3.404986,472.79966 2.6322437,471.31447 2,467.82566 2,465.04675 c 0,-5.2678 14.865006,-74.42377 17.568464,-81.73317 2.067822,-5.59083 8.270804,-11.10434 13.419143,-11.92759 L 37,370.74438 V 201.93729 C 37,86.502202 37.331956,32.240145 38.049924,30.3151 39.260074,27.070395 62.164075,3.5692045 66.20034,1.4307006 c 4.042124,-2.14160754 375.51891,-2.15493483 379.59932,-0.013619 1.48519,0.7793951 8.39745,7.1918951 15.36059,14.2500004 9.96379,10.099679 12.79561,13.578371 13.29577,16.332918 0.34953,1.925 0.50241,33.589153 0.33974,70.36478 l -0.29576,66.86479 -3.75,3.24119 c -3.73488,3.22812 -3.75,3.2726 -3.75,11.02924 0,7.75661 0.0151,7.80113 3.75,11.02939 l 3.75,3.24135 0.27145,86.49025 0.27145,86.49025 3.99094,0.63818 c 5.12606,0.81969 11.3342,6.34503 13.3977,11.92416 2.70345,7.3094 17.56846,76.46537 17.56846,81.73317 0,9.79048 -6.1463,16.28171 -16.86884,17.8155 l -4.62549,0.66165 -3.63309,10.30834 c -4.02169,11.41096 -6.91697,15.26527 -12.78831,17.02437 -5.71336,1.71176 -35.96691,1.50916 -40.21215,-0.26929 -6.04592,-2.53282 -8.54785,-6.23666 -12.83857,-19.00613 L 416.31816,483.5 256.74222,483.24695 97.166278,482.99389 94.445009,491.24695 C 87.873458,511.17712 86.522929,511.99939 60.5,511.91431 46.101098,511.86723 42.851837,511.57069 39.263804,509.97623 Z M 342,427 v -11 h -86 -86 v 11 11 h 86 86 z m -247.031196,2.75 c 1.374949,-2.46938 1.374927,-3.03062 -2.22e-4,-5.5 -2.112776,-3.79396 -8.040994,-4.41241 -10.373564,-1.08219 -2.146092,3.06397 -2.007598,5.41961 0.463943,7.89115 2.950161,2.95016 7.9026,2.29601 9.909843,-1.30896 z m 86.831096,-65 0.29991,-5.75 H 176.0499 170 v 5.33333 c 0,2.93334 0.32021,5.65355 0.71159,6.04492 0.39137,0.39138 2.97887,0.57888 5.75,0.41667 L 181.5,370.5 Z m 160,0 0.29991,-5.75 H 336.0499 330 v 5.33333 c 0,2.93334 0.32021,5.65355 0.71159,6.04492 0.39137,0.39138 2.97887,0.57888 5.75,0.41667 L 341.5,370.5 Z M 107,338.92308 v -31.07693 l 2.92308,-2.92307 C 111.91807,302.92808 113.8475,302 116,302 c 2.1525,0 4.08193,0.92808 6.07692,2.92308 L 125,307.84615 V 338.92308 370 h 13.55226 13.55226 l -0.30226,-5.14987 -0.30226,-5.14988 -4.68413,-1.36118 c -9.77362,-2.84015 -13.71349,-11.14237 -12.44195,-26.21804 0.76068,-9.01875 3.1029,-13.20526 8.97951,-16.05008 3.84886,-1.8632 6.11295,-2.07095 22.56928,-2.07095 17.02375,0 18.24212,-0.12127 17.58208,-1.75 -0.39005,-0.9625 -0.93289,-4.45 -1.20632,-7.75 -0.91944,-11.09678 5.44001,-22.16034 15.91027,-27.67915 3.87224,-2.04104 6.09767,-2.3136 22.79126,-2.79138 15.65192,-0.44796 18.91184,-0.80904 21.17518,-2.34545 3.08894,-2.09686 4.82482,-6.345 4.82482,-11.80756 0,-3.15934 -0.47864,-4.07411 -2.75,-5.25577 -6.28365,-3.26902 -11.19137,-11.94853 -11.22804,-19.85727 -0.0209,-4.51769 -0.19463,-4.80873 -3.75831,-6.29773 -7.8982,-3.30007 -11.36213,-8.68681 -12.19587,-18.96569 L 216.5,202.5 211,201.90685 C 202.37827,200.97703 197.29154,197.57097 193.59129,190.25 L 191.94864,187 h -21.34033 -21.34033 l -2.09696,5.75112 c -2.62814,7.20791 -9.75853,14.52672 -16.72979,17.17187 l -4.94123,1.87488 -0.5,34.18875 -0.5,34.18874 -2.80576,2.41232 c -3.58573,3.08291 -7.80273,3.08292 -11.38848,3e-5 L 107.5,280.17541 107,246.33771 106.5,212.5 H 101 95.5 L 95.243942,291.25 94.987884,370 H 100.99394 107 Z M 311.80226,364.75 311.5,359.5 H 256 200.5 l -0.30226,5.25 -0.30226,5.25 H 256 312.10452 Z m 104.9538,-73.5 -0.25606,-78.75 -6,-0.5776 C 398.56067,210.77304 392.35762,204.72484 391.09315,193 l -0.59315,-5.5 -35.21772,-0.26276 -35.21773,-0.26275 -1.64925,3.26275 c -3.70744,7.33455 -8.78849,10.73924 -17.4153,11.66961 l -5.5,0.59315 -0.56778,7 c -0.83374,10.27888 -4.29767,15.66562 -12.19587,18.96569 -3.56368,1.489 -3.73736,1.78004 -3.75831,6.29773 -0.0367,7.90874 -4.94439,16.58825 -11.22804,19.85727 -2.47342,1.28678 -2.75,1.963 -2.75,6.72349 0,11.90284 -6.07177,22.06409 -16.37665,27.40672 -4.8356,2.50704 -6.13711,2.68692 -23.17331,3.20266 -19.97921,0.60485 -22.02799,1.19909 -24.47137,7.09793 -1.11624,2.69484 -1.10082,3.86394 0.0966,7.32747 2.58472,7.47626 3.3685,7.6177 42.2244,7.61949 35.43584,0.002 38.46713,0.34548 40.07916,4.54635 1.27516,3.32302 0.55094,7.42535 -1.79178,10.14944 L 279.17408,331.5 215.58704,331.77863 152,332.05725 V 336.52863 341 h 104 104 v -4.5 -4.5 h -24.53212 c -26.0596,0 -30.11712,-0.60756 -32.38739,-4.8496 -1.42302,-2.65894 -1.32292,-7.2518 0.20131,-9.23706 2.79606,-3.64176 5.12054,-3.91334 33.49517,-3.91334 27.15803,0 28.02489,0.0616 32.2383,2.28967 5.49772,2.90727 7.91387,7.47485 8.65868,16.36873 1.21475,14.50544 -2.85924,22.88208 -12.48982,25.68067 L 360.5,359.70025 360.19774,364.85013 359.89548,370 h 28.55832 28.55832 z M 259.42857,238.42857 c 0.86429,-0.86428 1.57143,-3.11428 1.57143,-5 V 230 h -5 -5 v 3.42857 c 0,3.77607 2.1269,6.57143 5,6.57143 1.02143,0 2.56429,-0.70714 3.42857,-1.57143 z M 277,207 v -5 h -21 -21 v 5 5 h 21 21 z M 127.6,190.6 131,187.2 V 148 108.8 l -3.4,-3.4 -3.4,-3.4 H 109.6 95 v 4.90629 4.9063 l 9.97927,0.3437 c 9.35483,0.3222 10.15264,0.51721 12.75,3.11644 L 120.5,118.04545 V 148 177.95455 l -2.77073,2.77272 c -2.59736,2.59923 -3.39517,2.79424 -12.75,3.11644 L 95,184.18741 v 4.9063 V 194 h 14.6 14.6 z M 417,148 v -46 h -4 -4 v 46 46 h 4 4 z m -225,15 v -6 H 170.5 149 v 6 6 h 21.5 21.5 z m 199,0 v -6 H 355.5 320 v 6 6 H 355.5 391 Z M 103,148 v -18 h -4 -4 v 18 18 h 4 4 z m 89,-15 v -6 H 170.5 149 v 6 6 h 21.5 21.5 z m 199,0 v -6 H 355.5 320 v 6 6 H 355.5 391 Z M 193.88236,105.25 c 2.42523,-4.72938 5.62356,-7.727786 10.34917,-9.702272 5.54854,-2.318329 97.9884,-2.318329 103.53694,0 4.72561,1.974486 7.92394,4.972892 10.34917,9.702272 l 1.92301,3.75 H 355.52032 391 v -4.53212 c 0,-11.940054 8.59292,-20.395221 20.77903,-20.445918 L 417.05805,84 416.77903,70.75 416.5,57.5 331.40329,57 C 239.54718,56.460284 243.99375,56.743971 241.92058,51.291097 241.10738,49.152231 240.48755,49 232.59214,49 c -7.54185,0 -8.52518,0.213677 -9.08386,1.973915 -0.34457,1.085653 -1.78558,2.885653 -3.20225,4 C 217.8033,56.942567 216.41519,57 171.33692,57 h -46.39336 l 0.27822,13.612868 0.27822,13.612867 5.06766,1.888999 c 7.01509,2.614919 13.89342,9.701881 16.5875,17.090646 L 149.26798,109 h 21.34569 21.34568 z M 107,70.450096 V 56.900192 L 101.25,57.200096 95.5,57.5 95.220975,70.75 94.94195,84 H 100.97097 107 Z"
         id="path5049" />
      <path
         style="fill:#748ca3"
         d="m 40.421401,510.10367 c -5.658454,-2.56994 -7.794001,-5.70783 -11.505533,-16.90575 -1.767897,-5.33386 -3.709698,-10.02853 -4.315113,-10.43261 -0.605415,-0.40408 -2.802708,-0.74158 -4.882874,-0.75 C 11.792872,481.98323 5.2418113,476.87684 2.8396541,468.85915 1.7254801,465.14037 2.1810447,462.29647 8.3990348,434.15422 19.923919,381.99328 19.8617,382.22711 23.240324,378.37907 26.849083,374.26892 29.294333,372.8301 34,372.04793 L 37.5,371.46617 38,200.20595 38.5,28.945723 53.068094,14.472862 67.636188,0 H 256 444.36381 l 14.5681,14.472584 14.56809,14.472585 0.27024,69.172045 c 0.29488,75.477576 0.51088,72.430686 -5.32313,75.088836 -2.34003,1.06619 -2.44711,1.5207 -2.44711,10.38708 0,8.17564 0.22091,9.34221 1.86812,9.86501 1.02746,0.32611 2.71496,1.52855 3.75,2.6721 1.80368,1.99277 1.90266,5.67903 2.38188,88.70764 l 0.5,86.62846 3.51439,0.57111 c 4.80894,0.78149 9.13694,3.51013 11.85169,7.47206 3.10474,4.53107 20.67449,82.79548 19.72415,87.86121 -1.45127,7.73596 -7.82636,13.65729 -15.49742,14.39438 -2.7809,0.26721 -5.45425,0.99188 -5.94077,1.61037 -0.48653,0.61849 -2.30614,5.43478 -4.04359,10.70286 -3.30164,10.01083 -6.39584,14.18487 -12.4055,16.73484 C 469.92094,511.5693 462.8683,512 452.26867,512 c -23.93069,0 -26.12852,-1.33503 -32.31162,-19.62706 -1.62797,-4.81618 -3.5218,-9.11346 -4.2085,-9.54951 -1.5729,-0.99876 -316.853728,-1.05632 -318.349305,-0.0581 -0.605415,0.40408 -2.547216,5.09875 -4.315113,10.43261 C 87.330411,510.55725 84.937853,511.95608 61,511.95608 c -13.92726,0 -17.13595,-0.28884 -20.578599,-1.85241 z M 342,427 v -11 h -86 -86 v 11 11 h 86 86 z M 93.777494,432.4433 C 95.425921,431.28869 96,429.88268 96,427 96,424.11732 95.425921,422.71131 93.777494,421.5567 88.959923,418.18235 83,421.19247 83,427 c 0,5.80753 5.959923,8.81765 10.777494,5.4433 z M 108,338.66047 l 0.5,-31.83952 2.36078,-1.91048 c 3.01497,-2.43987 7.26347,-2.43987 10.27844,0 l 2.36078,1.91048 0.5,31.83952 0.5,31.83953 h 14 14 v -5.39101 c 0,-5.71809 -0.57807,-6.48094 -5.73166,-7.56388 -4.02965,-0.84676 -9.58378,-6.19705 -10.862,-10.46337 -0.6151,-2.05302 -0.95816,-7.82905 -0.76235,-12.83562 0.38294,-9.79154 1.51804,-12.40832 7.23725,-16.68433 2.50436,-1.8724 4.56543,-2.10772 22.43821,-2.56179 16.82781,-0.42752 19.62705,-0.71743 19.31147,-2 -0.20299,-0.825 -0.60106,-4.53898 -0.8846,-8.25329 -0.64348,-8.42952 1.39929,-14.32206 7.11452,-20.52235 7.23633,-7.85049 9.63286,-8.58831 30.13916,-9.27898 23.41089,-0.7885 26.07466,-2.09111 27.16615,-13.28451 L 248.1694,256.5 243.3977,253 C 237.23928,248.48285 234,242.41276 234,235.38962 v -5.29581 l -4.66268,-2.32524 c -2.56448,-1.27889 -6.0387,-4.02536 -7.7205,-6.10328 -2.64452,-3.26739 -3.11064,-4.75032 -3.44866,-10.97166 -0.21497,-3.9565 -0.80161,-7.70283 -1.30365,-8.32519 -0.50204,-0.62235 -3.59502,-1.32557 -6.8733,-1.56269 -6.94596,-0.50243 -11.7522,-3.71148 -15.43505,-10.30575 l -2.23397,-4 -21.67363,-0.26954 -21.67363,-0.26953 -0.89628,2.26953 c -0.49295,1.24825 -1.48312,3.84454 -2.20037,5.76954 -1.84544,4.95284 -9.09852,12.37373 -14.11925,14.44592 -2.34247,0.9668 -4.93403,2.09809 -5.75903,2.51398 -1.27431,0.64241 -1.57523,5.90657 -2,34.98754 l -0.5,34.23135 -2.36078,1.91061 c -3.28716,2.66032 -7.70533,2.4354 -10.68467,-0.54395 L 108,279.09091 v -32.84546 c 0,-24.21313 -0.31538,-33.16083 -1.2,-34.04545 -1.55581,-1.55581 -10.044192,-1.55581 -11.6,0 -0.912856,0.91286 -1.2,19.8963 -1.2,79.33333 0,42.97334 0.319032,78.45237 0.70896,78.8423 0.389928,0.38992 3.427428,0.57742 6.75,0.41666 L 107.5,370.5 Z M 182.79772,364.75 182.5,358.5 h -6.5 -6.5 l -0.29772,6.25 -0.29771,6.25 H 176 h 7.09543 z m 130.01024,0.92231 c 0.17233,-2.70147 -0.21191,-5.45412 -0.87244,-6.25 C 310.94126,358.2243 302.13241,358 256.07756,358 c -41.19366,0 -54.97349,0.29593 -55.87756,1.2 -1.26587,1.26587 -1.67701,9.98966 -0.52509,11.14158 0.37121,0.3712 25.90871,0.5587 56.75,0.41667 L 312.5,370.5 Z M 342.79772,364.75 342.5,358.5 h -6.5 -6.5 l -0.29772,6.25 -0.29771,6.25 H 336 h 7.09543 z m 74.95841,-72.64015 c 0.1865,-57.08194 -0.0506,-78.75979 -0.87245,-79.75 C 416.21263,211.55128 413.76474,211 410.84544,211 399.58267,211 392,203.57939 392,192.55735 c 0,-2.4288 -0.59765,-4.80846 -1.36826,-5.44801 -0.97705,-0.81088 -11.31606,-1.06033 -36.16066,-0.87245 l -34.79241,0.26311 -2.2344,4 c -3.68372,6.59456 -8.48967,9.80333 -15.43548,10.30575 -3.27828,0.23712 -6.37126,0.94034 -6.8733,1.56269 -0.50204,0.62236 -1.08868,4.36869 -1.30365,8.32519 -0.33802,6.22134 -0.80414,7.70427 -3.44866,10.97166 -1.6818,2.07792 -5.15602,4.82439 -7.7205,6.10328 L 278,230.09381 v 5.29581 c 0,6.83396 -3.20344,13.00521 -9.07617,17.48472 l -4.42383,3.37434 -0.60774,7.79506 c -0.70991,9.10539 -3.48251,14.73776 -10.0018,20.31803 -6.55138,5.60773 -11.02308,6.63801 -28.8186,6.63978 -18.06366,0.002 -21.33977,0.97669 -24.41179,7.2643 -1.63912,3.35485 -1.69369,4.21824 -0.5,7.91091 0.74273,2.29764 2.59747,5.07615 4.16148,6.23415 2.71875,2.01297 4.10332,2.09865 38,2.35144 23.06368,0.17201 35.91527,0.64032 37.31799,1.35987 4.73537,2.42907 5.06187,9.39429 0.60472,12.90028 C 277.80047,330.94479 275.97803,331 214.97213,331 146.48732,331 151,330.61202 151,336.5 c 0,5.94433 -8.4826,5.5 105,5.5 113.4826,0 105,0.44433 105,-5.5 0,-5.69663 0.97073,-5.5 -27.15244,-5.5 h -25.93847 l -2.45454,-2.45455 c -3.13892,-3.13891 -3.26165,-8.05743 -0.28024,-11.231 L 307.34863,315 h 29.1778 c 28.61226,0 29.24188,0.0436 32.48374,2.25 6.19521,4.21642 7.45255,6.94016 7.84584,16.99612 0.19581,5.00657 -0.14725,10.7826 -0.76235,12.83562 -1.27822,4.26632 -6.83235,9.61661 -10.862,10.46337 -4.79331,1.00723 -5.71935,1.99093 -6.04475,6.42114 -0.55344,7.53489 -2.46755,7.09429 29.53761,6.79913 L 417.5,370.5 Z M 260.05697,238.94303 c 1.49262,-1.49262 1.97275,-3.07018 1.75,-5.75 L 261.5,229.5 h -5.5 -5.5 l -0.30697,3.69303 C 249.84725,237.35303 252.55993,241 256,241 c 1.1,0 2.92564,-0.92564 4.05697,-2.05697 z M 277.5,207 v -5.5 H 256 234.5 l -0.31309,4.3644 c -0.54276,7.56609 -1.68986,7.20667 22.03936,6.90556 L 277.5,212.5 Z M 128.23357,191.23077 131.5,187.96154 V 148 108.03846 L 128.23301,104.76923 124.96602,101.5 H 109.73301 94.5 v 5.5 5.5 l 10,0.54251 c 11.33386,0.61486 12.77576,1.07255 14.36455,4.55955 1.57214,3.45047 1.57214,57.34541 0,60.79588 -1.58879,3.487 -3.03069,3.94469 -14.36455,4.55955 l -10,0.54251 -0.313088,4.3644 c -0.539808,7.52486 -1.007586,7.31877 15.792938,6.9577 L 124.96714,194.5 Z M 417.5,148 v -46.5 h -4.5 -4.5 l -0.26068,45.5 c -0.14338,25.025 -0.035,46.08858 0.24085,46.80794 0.33228,0.86656 1.93886,1.20403 4.76068,1 L 417.5,194.5 Z m -225,15 v -6.5 h -22 -22 l -0.3068,5.3808 c -0.16873,2.95944 -0.067,6.00575 0.22613,6.76957 0.43663,1.13783 4.46724,1.34006 22.30679,1.1192 L 192.5,169.5 Z m 199,0 v -6.5 h -36 -36 l -0.3068,5.3808 c -0.16873,2.95944 -0.0682,6.00264 0.22348,6.76266 0.44016,1.14704 6.6099,1.33723 36.30679,1.1192 L 391.5,169.5 Z m -288,-15 V 129.5 H 99 94.5 l -0.274536,17.46487 c -0.150995,9.60567 -0.04261,18.06925 0.24085,18.80794 0.347648,0.90596 1.901582,1.24286 4.774537,1.03513 L 103.5,166.5 Z m 89,-15 v -6.5 h -22 -22 l -0.3068,5.3808 c -0.16873,2.95944 -0.067,6.00575 0.22613,6.76957 0.43663,1.13783 4.46724,1.34006 22.30679,1.1192 L 192.5,139.5 Z m 199,0 v -6.5 h -36 -36 l -0.3068,5.3808 c -0.16873,2.95944 -0.0682,6.00264 0.22348,6.76266 0.44016,1.14704 6.6099,1.33723 36.30679,1.1192 L 391.5,139.5 Z M 194.55616,105.5 c 1.22868,-2.2 3.89759,-5.35 5.9309,-7 l 3.69693,-3 49.65801,-0.30432 c 32.09155,-0.196667 50.91081,0.06075 53.19953,0.727681 3.92954,1.145071 7.77818,4.768729 10.70226,10.076639 l 1.92812,3.5 H 355.58596 391.5 l 0.25652,-4 c 0.50005,-7.79723 1.37798,-10.583599 4.42995,-14.059594 4.25292,-4.843814 6.24553,-5.731837 14.31353,-6.378952 l 7,-0.561454 0.2807,-12.860543 c 0.18834,-8.628717 -0.0987,-13.31775 -0.87244,-14.25 C 415.94077,56.223707 402.23996,56 331.81181,56 c -55.66105,0 -84.5915,-0.346909 -85.8672,-1.029644 -1.05815,-0.566305 -2.61512,-2.366305 -3.45994,-4 C 240.96526,48.032139 240.85723,48 232.5,48 c -8.33542,0 -8.46899,0.03935 -9.96721,2.936588 -0.83521,1.615123 -2.08427,3.302623 -2.77568,3.75 C 219.0657,55.133965 197.35,55.725 171.5,56 l -47,0.5 v 13.891014 c 0,11.344402 0.27499,14.029815 1.5,14.648134 0.825,0.416417 3.41656,1.548136 5.75903,2.514931 5.02073,2.072187 12.27381,9.493082 14.11925,14.445921 0.71725,1.925 1.70742,4.52129 2.20037,5.76954 l 0.89628,2.26953 21.67363,-0.26953 L 192.32219,109.5 Z M 107.5,70.5 v -14 l -5.33118,-0.305075 C 94.221951,55.740168 94,56.141228 94,70.955778 c 0,6.990989 0.319032,13.029921 0.70896,13.419849 0.389928,0.389928 3.427428,0.577428 6.75,0.416667 L 107.5,84.5 Z"
         id="path5047" />
      <path
         style="fill:#696a81"
         d="m 41.5,510.58264 c -5.400574,-2.41059 -8.569161,-6.95855 -12.375127,-17.76235 L 25.489236,482.5 19.994618,481.90685 c -9.595754,-1.03588 -14.6037218,-5.02774 -16.8710515,-13.44796 -0.9709174,-3.60571 -0.1604429,-8.18166 7.8174455,-44.13741 4.895367,-22.06305 9.565218,-41.39974 10.377448,-42.97042 2.18652,-4.22826 5.06475,-6.4496 10.929208,-8.43484 L 37.5,371.1382 38,200.8191 C 38.371431,74.295576 38.798067,29.985723 39.659169,28.5 40.296711,27.4 46.888736,20.5375 54.308112,13.25 L 67.797886,0 H 256.00492 444.21196 l 13.90576,13.686727 c 10.75367,10.584293 14.13596,14.541648 14.92133,17.458302 0.65328,2.4261 0.91665,27.633455 0.73827,70.660171 -0.29954,72.24713 -0.0241,68.76606 -5.65544,71.46512 -2.54101,1.21787 -2.62188,1.53339 -2.62188,10.22968 0,8.69629 0.0809,9.01181 2.62188,10.22968 5.66751,2.71637 5.33783,-2.38704 5.87812,90.99281 l 0.5,86.41603 5.28436,1.78871 c 6.45313,2.18432 9.68922,5.08601 11.68044,10.47344 2.16677,5.86242 17.64704,76.3903 17.71227,80.69686 0.15316,10.11189 -7.32913,17.82064 -17.35522,17.88051 -4.00365,0.0239 -4.26296,0.46457 -9.24757,15.71538 -4.00297,12.2474 -8.23433,14.25466 -30.11239,14.28462 -14.6705,0.0201 -16.4179,-0.1699 -20.49193,-2.22804 -5.53268,-2.79502 -8.08994,-6.57413 -11.53847,-17.05145 -1.48417,-4.5092 -3.14465,-8.76242 -3.68997,-9.4516 -0.78855,-0.9966 -33.65964,-1.20126 -160.60947,-1 L 96.514062,482.5 92.876776,492.82029 c -3.861632,10.95685 -7.016299,15.41605 -12.594657,17.80287 -4.436648,1.89831 -34.508838,1.8669 -38.782119,-0.0405 z M 342.5,427 V 415.5 H 256 169.5 l -0.287,10.4324 c -0.15785,5.73781 -0.0585,11.02782 0.22075,11.75556 0.4168,1.08614 15.96269,1.27738 86.787,1.0676 L 342.5,438.5 Z M 94.92742,431.36514 C 96.067339,429.91597 97,427.95166 97,427 c 0,-3.35403 -3.906396,-7 -7.5,-7 -3.593604,0 -7.5,3.64597 -7.5,7 0,3.35403 3.906396,7 7.5,7 2.433218,0 3.924207,-0.72383 5.42742,-2.63486 z M 108,339.66218 l 0.5,-31.83781 2.89073,-2.48527 c 3.28266,-2.82223 6.73066,-2.56632 10.10927,0.75031 1.89425,1.8595 2.02644,3.64063 2.5,33.68695 L 124.5,371.5 h 14 14 l 0.29262,-6.61538 0.29262,-6.61537 -3.79262,-0.62232 C 139.27568,356.0033 136,350.75101 136,336.33327 c 0,-12.07472 1.55101,-15.758 8.03588,-19.08327 4.08172,-2.093 5.67272,-2.25 22.80101,-2.25 H 185.25 l -0.65159,-3.25 c -1.69742,-8.4664 -1.7261,-10.79893 -0.19742,-16.0574 2.13833,-7.35561 6.85957,-13.28894 13.59901,-17.09032 5.49341,-3.09856 5.52256,-3.10288 24.32874,-3.60228 l 18.82874,-0.5 3.42126,-3.73531 c 3.09146,-3.37525 3.41537,-4.29102 3.36016,-9.5 -0.0593,-5.59237 -0.18632,-5.85558 -4.25,-8.80536 -5.5075,-3.99782 -8.7489,-10.02948 -9.43074,-17.54888 -0.52222,-5.75919 -0.69039,-6.06421 -4.13761,-7.50455 -7.98058,-3.3345 -12.06338,-10.13633 -12.09859,-20.1559 L 218,201 h -4.53212 c -8.21337,0 -14.88848,-4.04051 -18.58552,-11.25 L 192.95935,186 h -22.51106 c -17.15103,0 -22.5964,0.29763 -22.86946,1.25 -3.19036,11.12704 -9.14923,18.33151 -17.84328,21.57308 L 124.5,210.77516 124,244.86124 c -0.4904,33.43189 -0.54212,34.12816 -2.69444,36.27908 -3.15191,3.14985 -8.00044,2.91572 -10.96382,-0.52942 L 108,277.88847 V 244.44424 211 h -7 -7 v 79.83333 c 0,43.90834 0.319032,80.15237 0.70896,80.5423 0.389928,0.38992 3.427428,0.57742 6.75,0.41666 L 107.5,371.5 Z M 182.79569,364.75 183.09138,358 H 176.04569 169 v 6.33333 c 0,3.48334 0.31903,6.65237 0.70896,7.0423 0.38993,0.38992 3.42743,0.57742 6.75,0.41666 L 182.5,371.5 Z m 130,0 0.29569,-6.75 H 256.04569 199 v 6.33333 c 0,3.48334 0.30371,6.63705 0.67491,7.00825 0.37121,0.3712 25.90871,0.5587 56.75,0.41667 L 312.5,371.5 Z m 30,0 0.29569,-6.75 H 336.04569 329 v 6.33333 c 0,3.48334 0.31903,6.65237 0.70896,7.0423 0.38993,0.38992 3.42743,0.57742 6.75,0.41666 L 342.5,371.5 Z m 74.96026,-73.5 0.25595,-80.25 h -4.63993 c -6.74328,0 -11.97044,-1.87662 -15.61788,-5.60702 -3.88814,-3.97658 -5.57693,-8.33178 -5.67801,-14.64298 L 392,186 h -36.47968 -36.47967 l -1.92301,3.75 C 313.4206,196.95949 306.74549,201 298.53212,201 H 294 l -0.022,6.25 c -0.0352,10.01957 -4.11801,16.8214 -12.09859,20.1559 -3.44722,1.44034 -3.61539,1.74536 -4.13761,7.50455 -0.67605,7.45552 -3.89863,13.51128 -9.33867,17.54888 -4.00311,2.97112 -4.11005,3.20719 -4.67512,10.32027 -0.72677,9.14857 -3.4354,14.87286 -9.70474,20.50953 -6.69725,6.02141 -10.68964,7.02371 -30.52331,7.66295 -11.03497,0.35566 -17.78586,0.99693 -19.23965,1.82756 -4.87887,2.78759 -6.71902,10.94245 -3.64386,16.14827 3.29295,5.57452 3.00017,5.53242 42.22311,6.07209 l 36.3396,0.5 1.9104,2.36078 c 1.05072,1.29844 1.9104,3.57608 1.9104,5.06144 0,2.25245 -0.77652,3.57443 -4.28896,7.30174 -0.11607,0.12317 -28.78604,0.46067 -63.71104,0.75 l -63.5,0.52604 v 5 5 h 104.5 104.5 v -5 -5 l -26.33832,-0.5 -26.33832,-0.5 -2.41168,-2.80576 c -3.75025,-4.36306 -3.0989,-8.77039 1.65984,-11.23123 2.27684,-1.17739 8.06853,-1.46301 29.66693,-1.46301 25.86498,0 26.99682,0.0816 31.22567,2.25 6.48487,3.32527 8.03588,7.00855 8.03588,19.08327 0,14.39838 -3.27835,19.67017 -13.25,21.30685 l -3.75,0.6155 v 6.20552 c 0,3.41304 0.30677,6.51229 0.6817,6.88723 0.37494,0.37494 13.53744,0.56244 29.25,0.41667 L 417.5,371.5 Z M 260.17126,239.34501 c 1.23714,-1.11959 1.82874,-3.06061 1.82874,-6 V 229 h -6 -6 v 4.17126 c 0,2.47808 0.67179,4.91357 1.65499,6 2.06067,2.27701 6.1011,2.35945 8.51627,0.17375 z M 277.7999,206.75 278.09981,201 H 256.0499 234 v 5.33333 c 0,2.93334 0.30871,5.64204 0.68601,6.01935 0.37731,0.37731 10.16481,0.56481 21.75,0.41667 L 277.5,212.5 Z M 126.03273,193.48307 C 131.91702,190.44019 132,189.80767 132,148 132,106.19233 131.917,105.55981 126.03273,102.51693 123.80503,101.36494 119.59899,101 108.54966,101 H 94 v 5.88658 5.88658 l 10.49739,0.38859 C 120.5519,113.75604 119.5,111.31338 119.5,148 c 0,36.68662 1.0519,34.24396 -15.00261,34.83825 L 94,183.22684 V 189.11342 195 h 14.54966 c 11.04933,0 15.25537,-0.36494 17.48307,-1.51693 z M 418,147.94521 v -47.05479 l -4.75,0.30479 -4.75,0.30479 -0.26068,45.5 c -0.14338,25.025 -0.045,46.0625 0.21861,46.75 0.28589,0.74558 2.30787,1.25 5.01069,1.25 H 418 Z M 193,163 v -7 H 170.5 148 v 7 7 h 22.5 22.5 z m 199,0 v -7 H 355.5 319 v 7 7 H 355.5 392 Z M 104,148 v -19 h -5 -5 v 19 19 h 5 5 z m 89,-15 v -7 H 170.5 148 v 7 7 h 22.5 22.5 z m 199,0 v -7 H 355.5 319 v 7 7 H 355.5 392 Z M 194.88236,106.25 c 2.42523,-4.72938 5.62356,-7.727786 10.34917,-9.702272 3.16306,-1.321614 10.46579,-1.546913 49.98635,-1.542151 28.75116,0.0035 47.6908,0.396806 50.00107,1.038429 4.80745,1.335162 9.35965,5.209654 11.84522,10.081784 L 319.04065,110 H 355.52032 392 v -4.13398 c 0,-6.252821 1.9662,-11.55208 5.60702,-15.111925 4.06749,-3.977027 8.34945,-5.579688 15.17044,-5.678017 L 418.05491,85 417.77746,70.75 417.5,56.5 332.40329,56 c -91.9476,-0.540254 -86.96195,-0.213433 -89.67071,-5.878123 -1.19123,-2.491166 -1.68342,-2.636194 -9.87245,-2.909049 l -8.61871,-0.287173 -2.09606,3.552551 c -1.15283,1.953903 -3.26144,3.99563 -4.68581,4.537172 C 215.89788,55.609125 196.82243,56 169.40817,56 h -45.46164 l 0.27674,14.612721 0.27673,14.612721 5.23555,1.951775 c 8.6939,3.241024 14.65284,10.445469 17.84328,21.572783 0.27306,0.95237 5.71843,1.25 22.86946,1.25 h 22.51106 z M 108,70.45431 V 55.90862 L 101.25,56.20431 94.5,56.5 94.222543,70.75 93.945087,85 H 100.97254 108 Z"
         id="path5045" />
      <path
         style="fill:#58596d"
         d="M 43.5,511.32221 C 40.033953,510.4107 35.052274,506.0251 33.128899,502.19207 32.109948,500.16143 30.052147,494.7875 28.556008,490.25 25.911004,482.22821 25.748125,481.99985 22.667878,481.99442 11.599004,481.97494 3,474.43437 3,464.74742 c 0,-4.58725 16.731054,-79.3784 18.672458,-83.4696 1.987925,-4.18925 6.173334,-7.19061 12.155264,-8.71657 L 38.5,371.36938 39,200.15757 39.5,28.945765 54.068094,14.472883 68.636188,0 H 256.03121 443.42623 L 458.21311,14.786885 473,29.57377 v 69.558128 c 0,68.367692 -0.0344,69.589212 -2.00689,71.374332 -1.10378,0.99892 -3.01628,2.31945 -4.25,2.93452 C 464.6696,174.47451 464.5,175.23509 464.5,183.5 c 0,8.26491 0.1696,9.02549 2.24311,10.05925 1.23372,0.61507 3.14374,1.93337 4.24451,2.92955 1.96865,1.7816 2.00557,3.22712 2.25689,88.34592 l 0.25549,86.53469 4.67228,1.19186 c 5.98411,1.52649 10.16746,4.52756 12.15774,8.72177 0.86713,1.82734 5.47064,20.82929 10.23002,42.22657 6.371,28.64281 8.5224,40.06663 8.15666,43.31151 -0.87091,7.72668 -6.26603,12.85521 -15.44044,14.67748 l -5.77626,1.14731 -3.63025,10.24734 C 477.67815,510.37065 474.99008,512 452.34784,512 c -23.07421,0 -25.3359,-1.39635 -31.63389,-19.53055 L 417.25158,482.5 256.70892,482.24697 96.166266,481.99393 l -2.721263,8.25304 c -3.758314,11.39819 -5.831998,15.18334 -10.105112,18.4451 -3.674384,2.80473 -3.698011,2.80813 -20.759231,2.98202 C 53.186297,511.76984 44.6,511.61149 43.5,511.32221 Z M 492,462.97913 C 492,461.45077 479.97164,405.79005 476.49923,391.25 L 475.9619,389 H 266.14798 56.334055 l -8.168971,36.75 c -4.492935,20.2125 -8.168097,37.3125 -8.167028,38 C 39.999605,464.74631 85.867703,465 266,465 H 492 Z M 154.92308,453.07692 152,450.15385 V 427 403.84615 l 2.92308,-2.92307 L 157.84615,398 H 256 354.15385 l 2.92307,2.92308 L 360,403.84615 V 427 450.15385 l -2.92308,2.92307 L 354.15385,456 H 256 157.84615 Z M 343,427 v -12 h -87 -87 v 12 12 h 87 87 z M 81.137077,449.63086 c -1.849607,-0.66935 -5.170239,-2.73433 -7.379182,-4.58885 -10.72704,-9.00589 -11.146706,-25.15093 -0.911356,-35.06089 11.837139,-11.46082 30.664661,-8.33459 38.400961,6.37633 3.01539,5.73388 3.01539,15.55122 0,21.2851 -5.6672,10.77644 -18.900227,16.0451 -30.110423,11.98831 z m 11.898096,-16.14905 c 5.44581,-2.81614 5.212752,-10.44221 -0.400931,-13.11919 -3.030615,-1.44519 -3.581614,-1.4412 -6.459258,0.0469 -5.317861,2.74998 -5.554776,10.23488 -0.412277,13.02517 3.462612,1.8788 3.727097,1.88051 7.272466,0.0471 z M 385.92308,433.07692 C 383.92808,431.08193 383,429.1525 383,427 c 0,-4.44925 4.69084,-9 9.27705,-9 5.08521,0 8.72295,3.75328 8.72295,9 0,8.38556 -9.10031,12.05354 -15.07692,6.07692 z m 30,0 C 413.92808,431.08193 413,429.1525 413,427 c 0,-4.44925 4.69084,-9 9.27705,-9 5.08521,0 8.72295,3.75328 8.72295,9 0,8.38556 -9.10031,12.05354 -15.07692,6.07692 z m 30,0 C 443.92808,431.08193 443,429.1525 443,427 c 0,-4.44925 4.69084,-9 9.27705,-9 5.08521,0 8.72295,3.75328 8.72295,9 0,8.38556 -9.10031,12.05354 -15.07692,6.07692 z M 108.39301,370.41821 c 0.33385,-0.86998 0.60699,-15.26998 0.60699,-32 0,-29.08488 0.0877,-30.50588 2,-32.41821 1.11111,-1.11111 3.33333,-2 5,-2 1.66667,0 3.88889,0.88889 5,2 1.91233,1.91233 2,3.33333 2,32.41821 0,16.73002 0.27314,31.13002 0.60699,32 0.5143,1.34025 2.78852,1.58179 14.89301,1.58179 15.9906,0 15.5,0.23772 15.5,-7.51036 0,-5.20275 -1.5449,-7.00134 -6.72532,-7.82973 -4.24275,-0.67844 -8.48532,-4.40745 -10.21106,-8.97501 -1.53233,-4.05565 -1.3306,-19.12256 0.3075,-22.96702 0.75412,-1.76983 2.58924,-4.34288 4.07805,-5.71788 2.66845,-2.46446 2.9862,-2.50443 22.3506,-2.81156 11.34253,-0.1799 20.16094,-0.74087 20.86774,-1.32746 0.86171,-0.71516 0.94409,-1.75234 0.27829,-3.50354 -0.52019,-1.3682 -0.9414,-5.27084 -0.93603,-8.67254 0.0123,-7.79178 3.09567,-14.75992 8.81103,-19.91217 7.02787,-6.33544 9.66595,-7.02343 28.6792,-7.47937 9.35,-0.22421 18.24918,-0.89137 19.77595,-1.48258 3.64836,-1.41274 6.31413,-5.31649 7.18289,-10.51861 0.95,-5.68861 0.15514,-7.62008 -4.36759,-10.61309 -5.59304,-3.7013 -8.3515,-8.77336 -9.02451,-16.59364 -0.5309,-6.16898 -0.76783,-6.68593 -3.74657,-8.17445 -9.74845,-4.87146 -12.30441,-8.58381 -12.33174,-17.91099 -0.0105,-3.575 -0.42921,-7.14823 -0.93051,-7.94052 -0.55527,-0.87759 -3.47394,-1.70574 -7.46885,-2.11923 -7.74014,-0.80113 -12.94146,-4.13855 -15.30757,-9.82207 -0.82845,-1.99 -2.01821,-3.94879 -2.64389,-4.35287 -2.08295,-1.3452 -42.08747,-0.90237 -43.78638,0.48469 -0.84207,0.6875 -2.34662,3.5 -3.34344,6.25 -2.36286,6.51858 -9.44353,13.61631 -16.00779,16.04635 -2.75,1.01803 -5.33061,2.32407 -5.73469,2.90231 -0.40408,0.57824 -0.74158,16.01384 -0.75,34.30134 -0.0147,31.90584 -0.0962,33.33085 -2.01531,35.25 -1.11111,1.11111 -3.33333,2 -5,2 -1.66667,0 -3.88889,-0.88889 -5,-2 -1.91902,-1.91902 -2,-3.33333 -2,-34.92857 C 109,208.57281 109.31653,210 101,210 c -8.678676,0 -8,-6.87071 -8,80.98964 0,42.81573 0.273145,78.55859 0.606989,79.42857 C 94.077969,371.64557 95.734526,372 101,372 c 5.26547,0 6.92203,-0.35443 7.39301,-1.58179 z m 75,0 c 1.05547,-2.7505 0.6566,-10.9686 -0.59301,-12.21821 -0.66,-0.66 -3.72,-1.2 -6.8,-1.2 -3.08,0 -6.14,0.54 -6.8,1.2 -1.24961,1.24961 -1.64848,9.46771 -0.59301,12.21821 C 169.07797,371.64557 170.73453,372 176,372 c 5.26547,0 6.92203,-0.35443 7.39301,-1.58179 z m 130,0 C 313.72686,369.54823 314,366.88037 314,364.48964 314,356.5251 317.67766,357 256,357 c -61.67766,0 -58,-0.4749 -58,7.48964 0,8.22486 -5.51786,7.51036 58,7.51036 50.85893,0 56.84938,-0.1651 57.39301,-1.58179 z m 30,0 c 1.05547,-2.7505 0.6566,-10.9686 -0.59301,-12.21821 -0.66,-0.66 -3.72,-1.2 -6.8,-1.2 -3.08,0 -6.14,0.54 -6.8,1.2 -1.24961,1.24961 -1.64848,9.46771 -0.59301,12.21821 C 329.07797,371.64557 330.73453,372 336,372 c 5.26547,0 6.92203,-0.35443 7.39301,-1.58179 z m 75,0 C 418.72686,369.54823 419,333.80537 419,290.98964 419,221.55317 418.83023,212.97309 417.42857,211.57143 416.36245,210.50531 413.99829,210 410.07645,210 400.0109,210 393,203.19438 393,193.42355 393,184.58162 394.88738,185 355,185 c -30.35498,0 -35.06011,0.20297 -36.42857,1.57143 -0.86429,0.86428 -1.57143,2.05931 -1.57143,2.65561 0,2.18284 -5.3553,8.02347 -8.5997,9.37907 C 306.56546,199.37275 303.05693,200 300.60355,200 294.43819,200 293,201.72191 293,209.10355 c 0,9.70824 -2.82555,14.28786 -11.35029,18.39645 -4.12808,1.98958 -4.15266,2.03432 -4.71645,8.58544 -0.67467,7.83961 -3.43255,12.89306 -9.07357,16.62611 -4.2249,2.79591 -4.5835,3.70385 -5.11902,12.96102 -0.43206,7.46846 -4.10939,14.10009 -10.53736,19.00287 -6.01603,4.58858 -9.68966,5.31267 -26.98543,5.31898 -16.77989,0.006 -20.35954,0.82763 -24.04998,5.51926 -1.54695,1.96662 -2.1679,4.14504 -2.1679,7.6054 0,6.10341 3.53344,10.53329 9.5,11.91015 2.2,0.50768 18.92984,0.93379 37.17742,0.94691 l 33.17742,0.0239 2.07258,2.63486 c 2.61324,3.32219 2.61463,5.40632 0.006,8.7229 l -2.06677,2.62748 -63.68323,0.25738 L 151.5,330.5 v 6 6 H 256 360.5 v -6 -6 L 333.78388,330 c -28.80914,-0.53917 -28.93386,-0.56407 -30.2746,-6.04328 -0.43659,-1.7842 0.0228,-3.3634 1.53907,-5.29105 l 2.16139,-2.74777 30.31603,0.29105 30.31604,0.29105 2.70797,2.5 c 1.48939,1.375 3.32498,3.94805 4.0791,5.71788 1.6381,3.84446 1.83983,18.91137 0.3075,22.96702 -1.72574,4.56756 -5.96831,8.29657 -10.21106,8.97501 C 359.5449,357.4883 358,359.28689 358,364.48964 358,372.55453 355.74804,372 388.5,372 c 25.78253,0 29.35864,-0.18923 29.89301,-1.58179 z M 258.34268,240.88973 c 4.04285,-1.84205 6.15694,-8.99011 3.45732,-11.68973 -0.66,-0.66 -3.27,-1.2 -5.8,-1.2 -5.09409,0 -7,1.26687 -7,4.65295 0,4.33296 2.57979,7.90435 6.70295,9.27937 0.11162,0.0372 1.2995,-0.43194 2.63973,-1.04259 z m 19.08589,-28.46116 c 1.87104,-1.87104 2.12265,-9.47735 0.37143,-11.22857 -1.69747,-1.69747 -41.90253,-1.69747 -43.6,0 -1.75122,1.75122 -1.49961,9.35753 0.37143,11.22857 2.34145,2.34146 40.51569,2.34146 42.85714,0 z M 126.68066,193.42892 c 6.22182,-4.57055 6.31623,-5.24958 6.31623,-45.42892 0,-40.17931 -0.0944,-40.85834 -6.3162,-45.42892 -2.47214,-1.81605 -4.54149,-2.11129 -16.8053,-2.39763 -9.83113,-0.229538 -14.415175,0.0296 -15.430692,0.87245 -1.774837,1.47298 -1.9533,10.0455 -0.244698,11.7541 0.770068,0.77007 4.711111,1.2 11,1.2 14.79761,0 13.8,-2.45787 13.8,34 0,36.45787 0.99761,34 -13.8,34 -6.288889,0 -10.229932,0.42993 -11,1.2 -1.580977,1.58098 -1.544663,10.05172 0.05,11.66312 0.920866,0.93052 4.983873,1.18067 15.43066,0.95 12.47456,-0.27545 14.51987,-0.5623 17,-2.3842 z M 417.8,194.8 c 1.72737,-1.72737 1.72737,-91.87263 0,-93.6 -1.71162,-1.711625 -7.37339,-1.483752 -9.22857,0.37143 C 407.18957,102.95329 407,108.55411 407,148 c 0,39.44589 0.18957,45.04671 1.57143,46.42857 1.85518,1.85518 7.51695,2.08305 9.22857,0.37143 z M 301.5,148 v -35.5 l -38,-0.27846 c -20.9,-0.15315 -39.0125,-0.0321 -40.25,0.26906 -2.12333,0.51668 -2.25,1.04747 -2.25,9.42845 V 130.8 l 3.4,-3.4 3.4,-3.4 h 28.17692 28.17693 l 2.92307,2.92308 L 290,129.84615 V 148 166.15385 l -2.92308,2.92307 L 284.15385,172 H 255.97692 227.8 l -3.4,-3.4 -3.4,-3.4 v 8.73333 c 0,4.80334 0.30509,9.03843 0.67798,9.41132 0.3729,0.37289 18.4854,0.56039 40.25,0.41667 L 301.5,183.5 Z m -108.7,21.8 c 0.66,-0.66 1.2,-3.72 1.2,-6.8 0,-3.08 -0.54,-6.14 -1.2,-6.8 -1.69877,-1.69877 -42.90123,-1.69877 -44.6,0 -0.66,0.66 -1.2,3.72 -1.2,6.8 0,3.08 0.54,6.14 1.2,6.8 1.69877,1.69877 42.90123,1.69877 44.6,0 z m 199,0 c 0.66,-0.66 1.2,-3.72 1.2,-6.8 0,-3.08 -0.54,-6.14 -1.2,-6.8 -1.72002,-1.72002 -70.87998,-1.72002 -72.6,0 -1.55804,1.55804 -1.55804,12.04196 0,13.6 1.72002,1.72002 70.87998,1.72002 72.6,0 z m -288,-3 c 1.68814,-1.68814 1.68814,-35.91186 0,-37.6 -0.66,-0.66 -2.82,-1.2 -4.8,-1.2 -1.98,0 -4.14,0.54 -4.8,1.2 -1.688136,1.68814 -1.688136,35.91186 0,37.6 0.66,0.66 2.82,1.2 4.8,1.2 1.98,0 4.14,-0.54 4.8,-1.2 z m 89,-27 c 0.66,-0.66 1.2,-3.72 1.2,-6.8 0,-3.08 -0.54,-6.14 -1.2,-6.8 -1.69877,-1.69877 -42.90123,-1.69877 -44.6,0 -0.66,0.66 -1.2,3.72 -1.2,6.8 0,3.08 0.54,6.14 1.2,6.8 1.69877,1.69877 42.90123,1.69877 44.6,0 z m 199,0 c 0.66,-0.66 1.2,-3.72 1.2,-6.8 0,-3.08 -0.54,-6.14 -1.2,-6.8 -1.72002,-1.72002 -70.87998,-1.72002 -72.6,0 -1.55804,1.55804 -1.55804,12.04196 0,13.6 1.72002,1.72002 70.87998,1.72002 72.6,0 z M 193.42857,109.42857 C 194.29286,108.56429 195,107.24881 195,106.5053 c 0,-2.22521 5.17456,-7.68029 8.67119,-9.141274 4.84521,-2.024459 99.87728,-1.997355 104.72911,0.02987 3.2444,1.3556 8.5997,7.196224 8.5997,9.379064 0,0.5963 0.70714,1.79133 1.57143,2.65561 C 319.93989,110.79703 324.64502,111 355,111 c 39.88738,0 38,0.41838 38,-8.42355 C 393,92.805617 400.0109,86 410.07645,86 c 8.79992,0 9.14398,-0.63646 8.75008,-16.186366 C 418.57036,59.700869 418.17677,56.719277 417,55.976905 c -0.91182,-0.575226 -34.3078,-0.952284 -85.16821,-0.961592 -46.01752,-0.0084 -84.39919,-0.295814 -85.2926,-0.638648 -0.89341,-0.342834 -2.51436,-2.367834 -3.60211,-4.5 L 240.95935,46 H 232.5 224.04065 l -1.97773,3.876665 c -1.08775,2.132166 -2.7087,4.157166 -3.60211,4.5 C 217.5674,54.719499 196.18906,55 170.9534,55 c -44.33975,0 -45.91785,0.06506 -46.91822,1.934259 -1.16939,2.185024 -1.40207,25.996891 -0.26987,27.617081 0.40408,0.578237 2.98469,1.884276 5.73469,2.902308 6.55227,2.425607 13.64041,9.525456 16.01989,16.046352 1.00347,2.75 2.25211,5.5625 2.77475,6.25 0.70786,0.93115 6.38494,1.25 22.25638,1.25 18.03587,0 21.54732,-0.2412 22.87755,-1.57143 z m -86,-24.999999 C 108.68246,83.174686 109,80.433417 109,70.86283 c 0,-6.596872 -0.46583,-12.864729 -1.03518,-13.928571 -0.82222,-1.536325 -2.10803,-1.931109 -6.25,-1.918946 -8.140146,0.0239 -8.168334,0.07274 -8.54135,14.798321 -0.276864,10.92982 -0.07588,13.141103 1.321429,14.538408 2.191425,2.191425 10.768031,2.242174 12.933671,0.07653 z"
         id="path5043" />
      <path
         style="fill:#060607"
         d="M 44.597954,511.32301 C 42.331131,510.69349 40.72094,509.50622 36.700673,505.5 34.624308,503.43089 32.574614,499.24189 30.095077,492 L 26.5,481.5 20.038665,480.78747 C 9.9599827,479.67602 4,473.81527 4,465.01584 4,458.2676 20.712998,384.22382 23.117142,380.32095 25.161625,377.00195 32.083997,373 35.780541,373 c 1.182,0 2.614924,-0.87042 3.184275,-1.93426 0.701831,-1.31138 1.037729,-56.61882 1.043087,-171.75 L 40.015805,29.5 54.692046,14.75 69.368286,0 H 256 442.63171 l 14.67624,14.75 14.67624,14.75 0.008,69.595012 c 0.007,65.974798 -0.0865,69.680488 -1.80772,71.238128 -3.14144,2.84296 -7.45669,3.12836 -9.70736,0.64201 -1.92175,-2.12298 -1.98469,-4.04727 -2.25119,-68.82959 L 457.95165,35.5 447.74369,25.25 437.53573,15 H 256.1229 74.710061 L 64.352134,25.192747 53.994207,35.385495 54.247103,203.44275 54.5,371.5 H 66 77.5 L 78,212.5 C 78.464501,64.788761 78.621697,53.277712 80.214083,50.369116 c 2.326012,-4.248613 7.075748,-8.077774 11.566972,-9.32511 5.722511,-1.589297 123.000455,-1.384038 126.120785,0.220736 3.30642,1.700474 4.51068,3.955492 3.74391,7.010554 -1.49006,5.936897 0.33127,5.723459 -48.96718,5.738359 -24.84821,0.0075 -46.20222,0.287908 -47.45334,0.623108 -2.25731,0.604776 -2.27266,0.727865 -2,16.038899 l 0.27477,15.429446 6,2.420231 c 8.99064,3.626572 13.71729,9.500606 17.07883,21.224661 0.2736,0.95423 5.90127,1.25 23.78369,1.25 h 23.42529 l 2.3561,-4.69803 c 2.91814,-5.81875 6.32414,-8.368697 12.54437,-9.391527 6.26777,-1.030648 88.35567,-1.030648 94.62344,0 6.11487,1.005505 9.55563,3.590857 12.56717,9.442857 L 318.27017,111 h 37.22031 37.22031 l 0.60646,-6.49447 C 394.4931,91.91362 398.94233,87.576965 411.923,86.370539 L 419,85.712801 V 70.83165 55.950498 l -2.5651,-0.975249 C 414.84278,54.369925 382.28066,54 330.58989,54 251.3991,54 247.2293,53.91085 245.66686,52.184383 c -2.84309,-3.141586 -3.12837,-7.456713 -0.64176,-9.707362 2.13452,-1.931961 4.1097,-1.9831 86.6607,-2.243726 56.32791,-0.177836 85.76708,0.08084 88.34983,0.7763 4.61577,1.242897 9.38751,5.043761 11.75029,9.359521 C 433.3783,53.277712 433.5355,64.788761 434,212.5 l 0.5,159 h 11.5 11.5 l 0.5,-86.64543 c 0.48785,-84.5404 0.54803,-86.6985 2.47702,-88.8296 2.25066,-2.48647 6.56585,-2.20113 9.70736,0.64189 1.72716,1.56306 1.81562,5.80437 1.81562,87.05387 0,56.96345 0.34478,86.05499 1.03518,87.34501 0.56935,1.06384 2.00228,1.93426 3.18428,1.93426 3.70101,0 10.62066,4.00399 12.65199,7.32095 2.33991,3.82084 19.12855,77.86271 19.12855,84.36141 0,8.33749 -5.58464,14.75556 -13.75475,15.80748 -2.60989,0.33602 -5.36993,0.94308 -6.13343,1.34901 -0.76351,0.40593 -2.80624,4.81761 -4.53941,9.80372 -3.70702,10.66464 -5.26267,13.25709 -10.22565,17.04085 l -3.6944,2.81658 h -17.57618 c -16.10261,0 -17.77913,-0.16768 -19.99688,-2 -5.52338,-4.56344 -7.1266,-7.14166 -10.16023,-16.33906 -1.75258,-5.31352 -3.63257,-10.2248 -4.17775,-10.91397 -0.7884,-0.99662 -33.8607,-1.20125 -161.61628,-1 L 95.5,481.5 91.904923,492 c -3.4559,10.09351 -5.364756,13.08551 -11.483756,18 -1.462591,1.17468 -5.343485,1.53809 -17.894404,1.67562 -8.814719,0.0966 -16.882684,-0.0621 -17.928809,-0.35261 z m 30.137,-15.13804 c 1.522261,-0.9669 5.444504,-12.08558 4.692534,-13.3023 -0.59536,-0.96331 -35.727365,-1.24946 -36.678084,-0.29874 -0.707517,0.70752 2.78604,11.15139 4.367744,13.05722 0.842756,1.01546 4.318783,1.35498 13.755297,1.34354 6.945155,-0.008 13.183284,-0.3683 13.862509,-0.79972 z M 466.74524,495.75 c 1.616,-2.04014 4.45278,-11.62057 3.76865,-12.72753 C 470.12256,482.3893 463.26394,482 452.5,482 c -10.76394,0 -17.62256,0.3893 -18.01389,1.02247 -0.68413,1.10696 2.15265,10.68739 3.76865,12.72753 0.70286,0.88733 4.83589,1.25 14.24524,1.25 9.40935,0 13.54238,-0.36267 14.24524,-1.25 z m 27.05473,-31.82947 c 0.37787,-3.24941 -15.41224,-73.74841 -16.92659,-75.57309 -1.59699,-1.92426 -440.081503,-2.021 -441.6436,-0.0974 -1.581536,1.94749 -17.676068,75.14461 -16.942867,77.0553 0.611232,1.59285 15.457777,1.68312 237.932497,1.44678 L 493.5,466.5 Z M 156,452 c -1.88406,-1.88406 -2,-3.33333 -2,-25 0,-21.66667 0.11594,-23.11594 2,-25 1.97279,-1.97279 3.33333,-2 100,-2 96.66667,0 98.02721,0.0272 100,2 1.88406,1.88406 2,3.33333 2,25 0,21.66667 -0.11594,23.11594 -2,25 -1.97279,1.97279 -3.33333,2 -100,2 -96.66667,0 -98.02721,-0.0272 -100,-2 z M 343.5,427 V 414.5 H 256 168.5 l -0.28452,11.43886 c -0.15648,6.29137 -0.0572,12.03134 0.22073,12.7555 0.41353,1.07765 16.3477,1.27026 87.78451,1.06114 L 343.5,439.5 Z m -263,20.13434 c -13.481116,-6.13977 -17.350637,-23.63844 -7.61514,-34.43703 15.035979,-16.67788 42.34494,-3.77378 38.62393,18.25068 -2.28743,13.53917 -18.378537,21.9386 -31.00879,16.18635 z m 15.045455,-14.58889 c 3.247346,-3.24734 3.247346,-7.84356 0,-11.0909 C 90.37154,416.28063 81,419.85353 81,427 c 0,7.14647 9.37154,10.71937 14.545455,5.54545 z m 291.628855,-0.8599 c -2.8208,-3.00261 -2.76512,-6.78189 0.14014,-9.51124 C 392.13571,417.64498 399,420.47967 399,427 c 0,2.88268 -0.57408,4.28869 -2.22251,5.4433 -3.1827,2.22925 -7.08641,1.92123 -9.60318,-0.75775 z m 30,0 c -2.8208,-3.00261 -2.76512,-6.78189 0.14014,-9.51124 C 422.13571,417.64498 429,420.47967 429,427 c 0,2.88268 -0.57408,4.28869 -2.22251,5.4433 -3.1827,2.22925 -7.08641,1.92123 -9.60318,-0.75775 z m 30,0 c -2.8208,-3.00261 -2.76512,-6.78189 0.14014,-9.51124 C 452.13571,417.64498 459,420.47967 459,427 c 0,2.88268 -0.57408,4.28869 -2.22251,5.4433 -3.1827,2.22925 -7.08641,1.92123 -9.60318,-0.75775 z M 109.00394,341 c 0.27716,-17.325 0.8893,-32.29138 1.3603,-33.25863 1.70114,-3.49347 9.57038,-3.49347 11.27152,0 0.471,0.96725 1.08314,15.93363 1.3603,33.25863 L 123.5,372.5 h 15 15 l 0.29036,-7.65528 0.29036,-7.65529 -4.29036,-0.69081 c -5.38573,-0.86719 -8.34999,-2.72846 -10.83436,-6.80295 -2.83126,-4.6434 -2.83126,-21.74794 0,-26.39134 3.87031,-6.34749 5.3742,-6.74685 27.49584,-7.30159 19.35817,-0.48544 20.0365,-0.57157 19.70934,-2.50274 -0.18634,-1.1 -0.56918,-5.1862 -0.85073,-9.08045 -0.63502,-8.78294 1.93568,-15.60231 7.91954,-21.00836 6.73713,-6.0866 9.29796,-6.72975 29.27001,-7.35115 12.09733,-0.37639 18.75538,-0.99088 20.30351,-1.87386 3.93904,-2.24666 6.18863,-7.10395 6.19275,-13.37133 0.004,-5.46123 -0.1494,-5.79522 -3.88463,-8.48015 -5.9198,-4.25523 -8.2032,-8.32309 -9.42239,-16.78586 -0.9981,-6.92814 -1.29231,-7.56342 -3.9283,-8.48233 -4.40367,-1.53513 -8.631,-4.91455 -10.38111,-8.2989 -0.8745,-1.69109 -1.82794,-6.54617 -2.11875,-10.78906 l -0.52876,-7.71434 -6.53376,-0.61013 c -8.25162,-0.77055 -13.12959,-3.81444 -16.16662,-10.0881 L 193.82159,185 h -23.27681 -23.2768 l -2.24536,6.15812 c -2.91854,8.00436 -7.90166,13.24241 -15.52262,16.31672 l -6,2.42041 -0.50066,33.80238 c -0.27536,18.5913 -0.88749,34.59375 -1.3603,35.561 -1.02852,2.10412 -4.72545,3.18748 -8.03911,2.35581 C 109.41988,280.56531 109,276.9813 109,242.35078 V 210 h -8 -8 v 80.83333 c 0,44.45834 0.31784,81.15118 0.706312,81.53965 0.388472,0.38847 3.875972,0.57597 7.749998,0.41667 L 108.5,372.5 Z m 74.96088,30.06574 c 1.13808,-2.12653 1.34934,-8.29155 0.40489,-11.81574 C 183.81003,357.16156 183.20907,357 176,357 c -8.67802,0 -8.95751,0.25863 -8.98635,8.31574 C 166.98962,372.03116 168.12264,373 176,373 c 5.82767,0 7.09425,-0.30759 7.96482,-1.93426 z M 313.79206,364.75 314.08413,357 H 256.04206 198 v 7.33333 c 0,4.03334 0.30365,7.63699 0.67478,8.00812 0.37113,0.37113 26.35863,0.55863 57.75,0.41666 L 313.5,372.5 Z m 30.17276,6.31574 c 1.13808,-2.12653 1.34934,-8.29155 0.40489,-11.81574 C 343.81003,357.16156 343.20907,357 336,357 c -8.67802,0 -8.95751,0.25863 -8.98635,8.31574 C 326.98962,372.03116 328.12264,373 336,373 c 5.82767,0 7.09425,-0.30759 7.96482,-1.93426 z M 418.75588,291.25 419.01176,210 l -4.25588,-0.0239 c -13.80559,-0.0774 -20.23455,-5.58749 -21.42775,-18.36521 L 392.71079,185 H 355.33064 317.9505 l -1.00016,2.63061 c -2.97779,7.83219 -7.75072,11.14586 -17.34469,12.04175 l -6.33797,0.59185 -0.52876,7.71434 c -0.76206,11.11832 -4.08689,16.33104 -12.10405,18.97694 -3.1176,1.0289 -3.28108,1.35331 -4.32159,8.57586 -1.21474,8.4319 -3.50338,12.54687 -9.29273,16.70833 -3.58623,2.57783 -3.7882,3.02941 -4.46376,9.98016 -1.19624,12.30805 -5.69531,19.67701 -14.7766,24.20241 -4.89076,2.43717 -6.02114,2.57805 -20.72653,2.58333 -18.14973,0.007 -21.78324,0.78347 -25.97139,5.55351 -2.56044,2.91617 -3.08227,4.3536 -3.08227,8.49039 0,4.27505 0.48427,5.50858 3.42148,8.71521 l 3.42148,3.73531 36.47523,0.5 c 34.0707,0.46704 36.61388,0.62558 38.57852,2.40499 2.49437,2.25919 2.69338,5.30753 0.54659,8.3725 L 278.88659,329 h -62.50904 c -41.17671,0 -63.16913,0.35327 -64.44329,1.03518 -1.53634,0.82222 -1.93426,2.11829 -1.93426,6.3 0,2.89565 0.54,5.80482 1.2,6.46482 1.7411,1.7411 207.8589,1.7411 209.6,0 0.66,-0.66 1.2,-3.56917 1.2,-6.46482 0,-4.18171 -0.39792,-5.47778 -1.93426,-6.3 C 358.87741,329.39921 348.29413,329 332.62245,329 c -25.2267,0 -25.52627,-0.0246 -27.06575,-2.22251 -2.05873,-2.93925 -1.96369,-5.05356 0.35587,-7.91671 L 307.82514,316.5 h 28.88257 c 32.04001,0 32.20643,0.0312 36.33629,6.80433 2.83126,4.6434 2.83126,21.74794 0,26.39134 -2.47971,4.06684 -5.44801,5.93575 -10.794,6.79613 l -4.25,0.684 v 7.24543 c 0,3.98499 0.30657,7.55201 0.68127,7.9267 0.3747,0.3747 13.9872,0.5622 30.25,0.41667 L 418.5,372.5 Z M 260.02199,240.98823 c 2.22917,-1.19301 4.1672,-7.38627 3.3412,-10.6773 C 262.82848,228.18048 262.25341,228 256,228 c -6.25341,0 -6.82848,0.18048 -7.36319,2.31093 -0.7921,3.15599 1.0634,9.41308 3.15256,10.631 2.22683,1.29818 5.85533,1.31859 8.23262,0.0463 z M 278.20229,213.2 c 1.43609,-1.43863 1.8021,-11.52748 0.46679,-12.86667 -0.98366,-0.98651 -37.72651,-1.73118 -42.38092,-0.85893 -2.6831,0.50282 -3.31635,1.15895 -3.84663,3.98558 -0.91267,4.86497 0.36367,9.51431 2.90266,10.57348 3.49589,1.45836 41.30429,0.7231 42.8581,-0.83346 z M 126.61706,194.43821 c 1.51765,-1.13398 3.68717,-3.30448 4.82115,-4.82333 C 133.43783,186.9366 133.5,185.68187 133.5,148 c 0,-37.68187 -0.0622,-38.9366 -2.06179,-41.61488 C 126.60642,99.913456 125.25262,99.5 108.89401,99.5 91.95042,99.5 92.040579,99.458984 92.015313,107.17857 91.992237,114.22913 93.271993,115 105,115 c 7.62771,0 10.21256,0.35542 11.42857,1.57143 1.3587,1.3587 1.56936,5.58914 1.55612,31.25 -0.009,16.9088 -0.42245,30.32397 -0.96156,31.17857 -0.71307,1.13038 -3.67656,1.6253 -12.02642,2.00851 -12.563106,0.57657 -12.957356,0.82469 -12.981397,8.17006 -0.02511,7.67161 0.866549,8.06031 17.575287,7.66175 12.53352,-0.29897 14.60238,-0.59084 17.02646,-2.40211 z m 291.81151,0.99036 c 1.38317,-1.38316 1.5696,-7.04392 1.55612,-47.25 -0.009,-27.03919 -0.40224,-46.29065 -0.96353,-47.17857 -1.19351,-1.888041 -9.38708,-2.034079 -11.22116,-0.2 -1.02901,1.02901 -1.3,10.89524 -1.3,47.33061 0,44.41113 0.0683,46.08055 1.94113,47.45 2.58215,1.88811 8.03023,1.80518 9.98744,-0.15204 z m -116,-11 C 303.79703,183.06011 304,178.35498 304,148 c 0,-30.35498 -0.20297,-35.06011 -1.57143,-36.42857 -1.37922,-1.37922 -6.3636,-1.55713 -40.75,-1.45455 -21.54821,0.0643 -42.10357,0.40179 -45.67857,0.75 L 209.5,111.5 v 36.5 36.5 l 5.5,0.587 c 3.025,0.32286 23.58036,0.66036 45.67857,0.75 35.33577,0.14335 40.36798,-0.0264 41.75,-1.40843 z M 226,168 c -1.85185,-1.85185 -2,-3.33333 -2,-20 0,-16.66667 0.14815,-18.14815 2,-20 1.90476,-1.90476 3.33333,-2 30,-2 26.66667,0 28.09524,0.0952 30,2 1.85185,1.85185 2,3.33333 2,20 0,16.66667 -0.14815,18.14815 -2,20 -1.90476,1.90476 -3.33333,2 -30,2 -26.66667,0 -28.09524,-0.0952 -30,-2 z m 47,-20 v -7 h -17 -17 v 7 7 h 17 17 z m -79.33125,22.66667 c 0.98504,-0.98751 1.1293,-14.20195 0.16556,-15.1657 -0.95452,-0.95451 -45.48519,-1.15834 -46.44462,-0.21259 -0.43989,0.43362 -0.97988,3.61661 -1.19999,7.07333 -0.63643,9.99501 -1.14172,9.80306 24.85364,9.44145 11.98679,-0.16674 22.16822,-0.67816 22.62541,-1.13649 z m 198.86507,-0.34334 c 1.31431,-1.31431 1.59018,-3.03499 1.27648,-7.96162 -0.22011,-3.45672 -0.75759,-6.63971 -1.1944,-7.07333 -0.93073,-0.9239 -73.23793,-0.99968 -74.15989,-0.0777 -1.08755,1.08754 -1.72781,8.52699 -1.04644,12.15898 0.39037,2.08088 1.35112,3.67891 2.37317,3.94734 0.94449,0.24806 17.32262,0.50322 36.39583,0.56702 31.21252,0.10441 34.84615,-0.0516 36.35525,-1.56067 z m -288.0448,-2.9552 c 1.41442,-1.41443 1.5905,-4.06865 1.32142,-19.91914 -0.17074,-10.058 -0.68544,-18.66115 -1.14377,-19.11813 C 104.20833,127.87389 101.65833,127.5 99,127.5 c -2.658333,0 -5.208333,0.37389 -5.666667,0.83086 -0.458333,0.45698 -0.973033,9.06013 -1.143777,19.11813 -0.269078,15.85049 -0.093,18.50471 1.321428,19.91914 2.135556,2.13555 8.842476,2.13555 10.978036,0 z m 89.17973,-26.70146 c 1.01399,-1.01654 1.1155,-14.21575 0.117,-15.21425 -0.98504,-0.98504 -45.40714,-1.14209 -46.39753,-0.16404 -0.43908,0.43362 -0.97841,3.61661 -1.19852,7.07333 -0.63643,9.99501 -1.14172,9.80306 24.85364,9.44145 11.98679,-0.16674 22.16822,-0.67816 22.62541,-1.13649 z m 198.86507,-0.34334 c 1.31431,-1.31431 1.59018,-3.03499 1.27648,-7.96162 -0.22011,-3.45672 -0.75714,-6.63971 -1.19341,-7.07333 -0.95505,-0.94924 -73.17652,-1.06209 -74.12279,-0.11581 -1.11987,1.11987 -1.77674,8.50728 -1.08453,12.19707 0.39037,2.08088 1.35112,3.67891 2.37317,3.94734 0.94449,0.24806 17.32262,0.50322 36.39583,0.56702 31.21252,0.10441 34.84615,-0.0516 36.35525,-1.56067 z M 109,70.616631 c 0,-15.107796 -0.0403,-15.39417 -2.25,-15.986345 -3.37275,-0.903862 -8.299936,-0.751898 -11.1849,0.344963 L 93,55.950498 V 70.975249 86 h 8 8 z"
         id="path5041" />
    </g>
  </g>
</svg>
