<?xml version="1.0" encoding="UTF-8" standalone="no"?>
<!-- Created with Inkscape (http://www.inkscape.org/) -->

<svg
   version="1.1"
   id="svg55"
   width="512"
   height="512"
   viewBox="0 0 512 512"
   xmlns="http://www.w3.org/2000/svg"
   xmlns:svg="http://www.w3.org/2000/svg">
  <defs
     id="defs59" />
  <g
     id="g61">
    <g
       id="g225">
      <path
         style="fill:#6fc3fd"
         d="m 160.32118,510.81127 c -4.22786,-2.04401 -4.44654,-4.45028 -4.12587,-45.40042 L 156.5,426.5 l 2.77658,-4.72342 c 1.78352,-3.03408 4.42916,-5.69191 7.39722,-7.4313 4.06057,-2.37966 5.93611,-2.76208 15.47342,-3.15503 C 188.11625,410.94432 193,410.45895 193,410.11166 193,409.76437 196.6,354.36412 201,287 205.4,219.63588 209,164.40283 209,164.25989 209,164.11695 205.4,164 201,164 h -8 v 15.7899 c 0,17.0774 -1.02217,23.05281 -5.7429,33.57201 -8.73006,19.45316 -29.93254,34.08073 -50.57925,34.89457 -7.58255,0.29889 -12.00546,-1.43245 -14.66901,-5.74217 C 120.11538,239.45061 120,237.56206 120,209.63197 V 180 h -7.45078 C 97.801444,180 88.431773,176.00565 83.520243,167.62475 76.361514,155.40931 80.997199,139.39127 93.5,133.14093 c 4.135518,-2.06741 6.85864,-2.57723 15.75,-2.9487 L 120,129.7431 v -4.91701 c 0,-3.88718 0.51408,-5.43108 2.45455,-7.37154 1.35,-1.35 3.10185,-2.45455 3.89301,-2.45455 2.06567,0 2.65244,-2.23774 2.65244,-10.11551 0,-6.894769 -0.029,-6.969049 -3.52584,-9.032236 -1.93921,-1.144163 -3.96421,-2.899403 -4.5,-3.900533 -0.53579,-1.001131 -0.97119,-6.237322 -0.96757,-11.63598 0.005,-7.86408 0.37433,-10.373471 1.85611,-12.620807 3.86233,-5.857774 8.58903,-7.300152 18.65379,-5.692299 20.19997,3.226961 36.34026,14.539761 45.29137,31.744932 5.88371,11.309243 7.15981,17.799163 7.17736,36.502433 L 193,146 h 8.42804 8.42805 l 0.57322,-5.25 c 0.31528,-2.8875 1.70012,-22.77025 3.07744,-44.183888 C 216.1787,55.02422 216.37422,53.948818 221.6174,51.955365 222.99944,51.429914 226.10279,51 228.51373,51 h 4.38352 L 233.19863,27.441372 233.5,3.8827444 236,1.9636081 c 4.72876,-3.6300525 12.14188,-1.8639777 13.95022,3.323451 C 250.55645,7.0260804 251,17.319539 251,29.649223 V 51 h 4.89207 4.89208 l 0.36266,-11.424477 c 0.33163,-10.446913 0.5697,-11.644858 2.78224,-14 C 265.6064,23.790066 267.38898,23 269.74006,23 277.22533,23 279,26.478303 279,41.149223 V 51 h 4.4349 c 2.4392,0 5.56566,0.429914 6.9477,0.955365 5.24318,1.993453 5.4387,3.068855 8.11065,44.610747 1.37732,21.413638 2.76216,41.296388 3.07744,44.183888 l 0.57322,5.25 H 310.57196 319 l 0.0148,-15.75 c 0.0175,-18.65258 1.29619,-25.19808 7.10289,-36.359296 8.94839,-17.199937 25.29017,-28.680966 45.39529,-31.892774 7.26326,-1.160311 11.54584,-0.660731 15.27348,1.781713 C 391.75436,67.034747 392,68.756444 392,100.32189 v 29.42121 l 10.75,0.44913 c 8.89136,0.37147 11.61448,0.88129 15.75,2.9487 12.5028,6.25034 17.13849,22.26838 9.97976,34.48382 C 423.56823,176.00565 414.19856,180 399.45078,180 H 392 v 5.27749 c 0,5.85226 -1.80339,9.31706 -5.60091,10.76088 -2.27111,0.86347 -2.39909,1.3633 -2.39909,9.36949 0,7.54185 0.21368,8.52518 1.97391,9.08386 1.08566,0.34457 2.88566,1.78558 4,3.20225 1.71175,2.17613 2.02609,4.04919 2.02609,12.07285 0,10.92184 -1.71578,15.02654 -7.25884,17.36552 -7.72597,3.2601 -26.37589,-0.76554 -37.31957,-8.05553 -11.3135,-7.53635 -17.53328,-14.67523 -22.80229,-26.17182 C 319.90768,202.6246 319,197.22078 319,179.45078 V 164 h -8.13809 -8.1381 l 0.58898,6.25 c 0.32394,3.4375 3.39792,49.75543 6.83108,102.92873 5.03131,77.92578 6.01027,97.18756 5.04688,99.30196 -1.55811,3.41969 -7.19873,5.84697 -10.59062,4.55738 -3.7637,-1.43096 -5.62234,-5.10571 -6.43655,-12.72584 l -0.73567,-6.88506 -10.46395,-12.5725 C 281.20878,337.9398 272.02125,326.81869 266.54721,320.14109 261.07318,313.46349 256.24766,308 255.82383,308 c -0.68156,0 -39.38426,45.78164 -41.10522,48.62359 C 214.03444,357.75342 211,398.59412 211,406.6726 V 411 h 45 45 v -4.56574 c 0,-9.52214 5.54317,-13.79034 12.94124,-9.96464 3.08219,1.59386 5.05876,5.91179 5.05876,11.05115 v 3.22233 l 10.85278,0.44715 c 9.53731,0.39295 11.41285,0.77537 15.47342,3.15503 2.96806,1.73939 5.6137,4.39722 7.39722,7.4313 L 355.5,426.5 l 0.31927,38 c 0.34367,40.90445 0.0205,44.34069 -4.35712,46.33529 -3.44325,1.56885 -187.89418,1.54567 -191.14097,-0.024 z M 229.06025,311.25 c 6.7404,-8.1125 12.87465,-15.47741 13.63166,-16.36647 1.21142,-1.42274 0.0405,-3.22047 -9.77004,-15 -6.13053,-7.36094 -11.49806,-13.51758 -11.92784,-13.68143 -0.89825,-0.34244 -1.59158,6.55785 -2.99403,29.7979 -0.54764,9.075 -1.26735,19.5375 -1.59935,23.25 -0.332,3.7125 -0.37684,6.75 -0.0997,6.75 0.27719,0 6.01885,-6.6375 12.75925,-14.75 z m 66.4846,10 c -0.28822,-2.6125 -1.25074,-16.225 -2.13894,-30.25 -0.8882,-14.025 -1.7339,-25.62852 -1.87933,-25.78559 -0.24804,-0.26789 -17.75044,20.0961 -21.94653,25.53472 -1.28638,1.6673 -1.61637,2.92735 -1,3.81844 2.69007,3.88904 26.03737,31.31407 26.70439,31.36846 0.43145,0.0352 0.54863,-2.07353 0.26041,-4.68603 z m -21.28337,-64.22396 15.9528,-19.47397 -0.66764,-6.77557 -0.66765,-6.77558 -14.93859,-20.68279 c -8.21622,-11.37553 -15.57527,-21.61324 -16.35344,-22.75046 -1.41456,-2.06723 -1.41528,-2.06724 -3.35046,-0.0677 -1.06457,1.1 -8.57467,11.16824 -16.6891,22.37386 l -14.7535,20.37386 -0.53011,7.73419 -0.53012,7.73419 16.79013,20.13413 c 14.22749,17.0611 17.01867,19.94453 18.2875,18.89195 0.82356,-0.6832 8.67614,-10.00546 17.45018,-20.71614 z M 234.9165,176.50687 C 239.91243,169.63565 244,163.52093 244,162.91861 c 0,-1.20546 -15.05159,-22.20035 -15.55494,-21.697 -0.23821,0.2382 -3.44506,44.14366 -3.44506,47.16671 0,1.51186 1.38535,-0.148 9.9165,-11.88145 z m 50.5232,-9.52128 C 284.65734,155.16851 283.90086,144.375 283.75862,143 c -0.21943,-2.12118 -1.49747,-0.8332 -8.43436,8.5 l -8.17573,11 1.71037,2.72374 c 3.34949,5.33401 17.27164,23.97906 17.63425,23.61644 0.20296,-0.20295 -0.2711,-10.03752 -1.05345,-21.85459 z M 261.55822,139.73221 C 264.34024,135.7545 270.04319,127.775 274.23145,122 l 7.61501,-10.5 -1.38748,-20 C 279.69587,80.5 279.05541,70.9375 279.03575,70.25 279.00822,69.287385 273.72866,69 256.07196,69 h -22.92805 l -0.55922,5.25 c -1.40225,13.164458 -2.62953,37.86944 -1.93736,38.99877 2.60399,4.24857 24.61906,33.74803 25.17484,33.73344 0.3728,-0.01 2.95403,-3.27228 5.73605,-7.25 z M 41.5,249.1544 C 37.130768,246.47733 26.789386,235.07953 21.159119,226.73561 10.167083,210.44568 3.7924498,193.77491 1.4864191,175.28811 -2.3437488,144.58273 1.5566295,119.35855 13.821066,95.518552 22.568231,78.515542 39.754429,59 45.980823,59 50.362212,59 54.4,62.9593 54.4,67.255523 c 0,2.9567 -1.083367,4.683981 -6.823784,10.879592 -9.065052,9.783878 -14.684871,17.799685 -20.052204,28.601385 -15.29454,30.78009 -15.061803,66.51049 0.636526,97.72128 5.052224,10.04463 10.649729,17.94605 19.415678,27.40711 5.740417,6.19561 6.823784,7.92289 6.823784,10.87959 0,2.5959 -0.720407,4.13437 -2.755764,5.88511 -3.307245,2.84477 -6.120305,2.99031 -10.144236,0.52481 z m 418.85576,-0.52481 c -2.03715,-1.75228 -2.75576,-3.28862 -2.75576,-5.89161 0,-2.99826 1.09385,-4.6883 7.36528,-11.3796 22.32612,-23.82083 33.05476,-54.6622 30.03609,-86.34398 C 492.52593,119.03396 482.92502,97.716307 465.22625,78.902407 458.69805,71.962891 457.6,70.287769 457.6,67.268237 c 0,-2.645133 0.71907,-4.145942 2.87488,-6.000292 4.44128,-3.820223 8.54616,-2.663535 15.7914,4.449751 18.61364,18.274658 31.04441,43.317534 34.2473,68.994194 5.33127,42.73931 -5.28364,78.86588 -31.26539,106.4079 -9.70649,10.28939 -13.77897,11.90821 -18.89243,7.5098 z M 72.240654,217.98691 c -5.626324,-2.31438 -17.107062,-17.00474 -22.382941,-28.64044 -9.160497,-20.20305 -9.372757,-46.90893 -0.5353,-67.34984 5.816355,-13.45314 18.058172,-29.050111 23.964482,-30.5325 5.528538,-1.387575 11.695229,4.486641 10.347436,9.85668 -0.370257,1.47522 -3.365965,5.65358 -6.657131,9.28525 -6.603905,7.28715 -13.049887,19.31207 -15.467261,28.85404 -1.938458,7.65157 -1.938458,23.42823 0,31.0798 2.334303,9.21407 8.962393,21.77281 14.883041,28.20003 8.319685,9.03151 9.340747,12.20822 5.35702,16.66666 -2.601974,2.91203 -6.278048,3.90952 -9.509346,2.58032 z m 360.789576,-0.24195 c -3.42533,-1.76675 -5.48957,-5.77868 -4.66456,-9.06577 0.37026,-1.47522 3.28853,-5.56813 6.48505,-9.09537 22.39566,-24.71272 22.91659,-64.03579 1.16374,-87.84503 -8.66516,-9.48431 -9.6772,-12.355244 -6.00227,-17.027153 5.03964,-6.406867 11.63194,-3.90436 21.09953,8.009613 23.9509,30.13967 24.13524,74.21281 0.43485,103.96009 -8.41982,10.56805 -13.54268,13.62898 -18.51634,11.06362 z"
         id="path239" />
      <path
         style="fill:#a0a0a0"
         d="m 160.32118,510.81127 c -4.22786,-2.04401 -4.44654,-4.45028 -4.12587,-45.40042 L 156.5,426.5 l 2.77658,-4.72342 c 1.78352,-3.03408 4.42916,-5.69191 7.39722,-7.4313 4.06057,-2.37966 5.93611,-2.76208 15.47342,-3.15503 C 188.11625,410.94432 193,410.45895 193,410.11166 193,409.76437 196.6,354.36412 201,287 205.4,219.63588 209,164.40283 209,164.25989 209,164.11695 205.4,164 201,164 h -8 v 15.7899 c 0,17.0774 -1.02217,23.05281 -5.7429,33.57201 -8.73006,19.45316 -29.93254,34.08073 -50.57925,34.89457 -7.58255,0.29889 -12.00546,-1.43245 -14.66901,-5.74217 C 120.11538,239.45061 120,237.56206 120,209.63197 V 180 h -7.45078 C 97.801444,180 88.431773,176.00565 83.520243,167.62475 76.361514,155.40931 80.997199,139.39127 93.5,133.14093 c 4.135518,-2.06741 6.85864,-2.57723 15.75,-2.9487 L 120,129.7431 v -4.91701 c 0,-3.88718 0.51408,-5.43108 2.45455,-7.37154 1.35,-1.35 3.10185,-2.45455 3.89301,-2.45455 2.06567,0 2.65244,-2.23774 2.65244,-10.11551 0,-6.894769 -0.029,-6.969049 -3.52584,-9.032236 -1.93921,-1.144163 -3.96421,-2.899403 -4.5,-3.900533 -0.53579,-1.001131 -0.97119,-6.237322 -0.96757,-11.63598 0.005,-7.86408 0.37433,-10.373471 1.85611,-12.620807 3.86233,-5.857774 8.58903,-7.300152 18.65379,-5.692299 20.19997,3.226961 36.34026,14.539761 45.29137,31.744932 5.88371,11.309243 7.15981,17.799163 7.17736,36.502433 L 193,146 h 8.42804 8.42805 l 0.57322,-5.25 c 0.31528,-2.8875 1.70012,-22.77025 3.07744,-44.183888 C 216.1787,55.02422 216.37422,53.948818 221.6174,51.955365 222.99944,51.429914 226.10279,51 228.51373,51 h 4.38352 L 233.19863,27.441372 233.5,3.8827444 236,1.9636081 c 4.72876,-3.6300525 12.14188,-1.8639777 13.95022,3.323451 C 250.55645,7.0260804 251,17.319539 251,29.649223 V 51 h 4.89207 4.89208 l 0.36266,-11.424477 c 0.33163,-10.446913 0.5697,-11.644858 2.78224,-14 C 265.6064,23.790066 267.38898,23 269.74006,23 277.22533,23 279,26.478303 279,41.149223 V 51 h 4.4349 c 2.4392,0 5.56566,0.429914 6.9477,0.955365 5.24318,1.993453 5.4387,3.068855 8.11065,44.610747 1.37732,21.413638 2.76216,41.296388 3.07744,44.183888 l 0.57322,5.25 H 310.57196 319 l 0.0148,-15.75 c 0.0175,-18.65258 1.29619,-25.19808 7.10289,-36.359296 8.94839,-17.199937 25.29017,-28.680966 45.39529,-31.892774 7.26326,-1.160311 11.54584,-0.660731 15.27348,1.781713 C 391.75436,67.034747 392,68.756444 392,100.32189 v 29.42121 l 10.75,0.44913 c 8.89136,0.37147 11.61448,0.88129 15.75,2.9487 12.5028,6.25034 17.13849,22.26838 9.97976,34.48382 C 423.56823,176.00565 414.19856,180 399.45078,180 H 392 v 5.27749 c 0,5.85226 -1.80339,9.31706 -5.60091,10.76088 -2.27111,0.86347 -2.39909,1.3633 -2.39909,9.36949 0,7.54185 0.21368,8.52518 1.97391,9.08386 1.08566,0.34457 2.88566,1.78558 4,3.20225 1.71175,2.17613 2.02609,4.04919 2.02609,12.07285 0,10.92184 -1.71578,15.02654 -7.25884,17.36552 -7.72597,3.2601 -26.37589,-0.76554 -37.31957,-8.05553 -11.3135,-7.53635 -17.53328,-14.67523 -22.80229,-26.17182 C 319.90768,202.6246 319,197.22078 319,179.45078 V 164 h -8.13809 -8.1381 l 0.58898,6.25 c 0.32394,3.4375 3.39792,49.75543 6.83108,102.92873 5.03131,77.92578 6.01027,97.18756 5.04688,99.30196 -1.55811,3.41969 -7.19873,5.84697 -10.59062,4.55738 -3.7637,-1.43096 -5.62234,-5.10571 -6.43655,-12.72584 l -0.73567,-6.88506 -10.46395,-12.5725 C 281.20878,337.9398 272.02125,326.81869 266.54721,320.14109 261.07318,313.46349 256.24766,308 255.82383,308 c -0.68156,0 -39.38426,45.78164 -41.10522,48.62359 C 214.03444,357.75342 211,398.59412 211,406.6726 V 411 h 45 45 v -4.56574 c 0,-9.52214 5.54317,-13.79034 12.94124,-9.96464 3.08219,1.59386 5.05876,5.91179 5.05876,11.05115 v 3.22233 l 10.85278,0.44715 c 9.53731,0.39295 11.41285,0.77537 15.47342,3.15503 2.96806,1.73939 5.6137,4.39722 7.39722,7.4313 L 355.5,426.5 l 0.31927,38 c 0.34367,40.90445 0.0205,44.34069 -4.35712,46.33529 -3.44325,1.56885 -187.89418,1.54567 -191.14097,-0.024 z M 191.05744,483 c 0.30659,-6.875 1.04983,-13.65037 1.65163,-15.05637 6.18006,-14.43855 26.76463,-18.37713 37.49652,-7.17445 6.14312,6.4126 7.12086,9.36812 7.60246,22.98082 L 238.24144,496 H 256 273.75856 l 0.43339,-12.25 c 0.4816,-13.6127 1.45934,-16.56822 7.60246,-22.98082 4.51511,-4.71318 11.65075,-7.23191 18.26797,-6.4482 5.11525,0.60583 11.72654,3.51483 13.87696,6.10593 0.71805,0.8652 1.7116,1.57309 2.20788,1.57309 0.51069,0 0.78306,-7.05299 0.62755,-16.25 L 316.5,429.5 h -71 -71 l -0.26353,33.29066 -0.26353,33.29066 8.26353,-0.29066 L 190.5,495.5 Z m 38.00281,-171.75 c 6.7404,-8.1125 12.87465,-15.47741 13.63166,-16.36647 1.21142,-1.42274 0.0405,-3.22047 -9.77004,-15 -6.13053,-7.36094 -11.49806,-13.51758 -11.92784,-13.68143 -0.89825,-0.34244 -1.59158,6.55785 -2.99403,29.7979 -0.54764,9.075 -1.26735,19.5375 -1.59935,23.25 -0.332,3.7125 -0.37684,6.75 -0.0997,6.75 0.27719,0 6.01885,-6.6375 12.75925,-14.75 z m 66.4846,10 c -0.28822,-2.6125 -1.25074,-16.225 -2.13894,-30.25 -0.8882,-14.025 -1.7339,-25.62852 -1.87933,-25.78559 -0.24804,-0.26789 -17.75044,20.0961 -21.94653,25.53472 -1.28638,1.6673 -1.61637,2.92735 -1,3.81844 2.69007,3.88904 26.03737,31.31407 26.70439,31.36846 0.43145,0.0352 0.54863,-2.07353 0.26041,-4.68603 z m -21.28337,-64.22396 15.9528,-19.47397 -0.66764,-6.77557 -0.66765,-6.77558 -14.93859,-20.68279 c -8.21622,-11.37553 -15.57527,-21.61324 -16.35344,-22.75046 -1.41456,-2.06723 -1.41528,-2.06724 -3.35046,-0.0677 -1.06457,1.1 -8.57467,11.16824 -16.6891,22.37386 l -14.7535,20.37386 -0.53011,7.73419 -0.53012,7.73419 16.79013,20.13413 c 14.22749,17.0611 17.01867,19.94453 18.2875,18.89195 0.82356,-0.6832 8.67614,-10.00546 17.45018,-20.71614 z M 234.9165,176.50687 C 239.91243,169.63565 244,163.52093 244,162.91861 c 0,-1.20546 -15.05159,-22.20035 -15.55494,-21.697 -0.23821,0.2382 -3.44506,44.14366 -3.44506,47.16671 0,1.51186 1.38535,-0.148 9.9165,-11.88145 z m 50.5232,-9.52128 C 284.65734,155.16851 283.90086,144.375 283.75862,143 c -0.21943,-2.12118 -1.49747,-0.8332 -8.43436,8.5 l -8.17573,11 1.71037,2.72374 c 3.34949,5.33401 17.27164,23.97906 17.63425,23.61644 0.20296,-0.20295 -0.2711,-10.03752 -1.05345,-21.85459 z M 261.55822,139.73221 C 264.34024,135.7545 270.04319,127.775 274.23145,122 l 7.61501,-10.5 -1.38748,-20 C 279.69587,80.5 279.05541,70.9375 279.03575,70.25 279.00822,69.287385 273.72866,69 256.07196,69 h -22.92805 l -0.55922,5.25 c -1.40225,13.164458 -2.62953,37.86944 -1.93736,38.99877 2.60399,4.24857 24.61906,33.74803 25.17484,33.73344 0.3728,-0.01 2.95403,-3.27228 5.73605,-7.25 z M 41.5,249.1544 C 37.130768,246.47733 26.789386,235.07953 21.159119,226.73561 10.167083,210.44568 3.7924498,193.77491 1.4864191,175.28811 -2.3437488,144.58273 1.5566295,119.35855 13.821066,95.518552 22.568231,78.515542 39.754429,59 45.980823,59 50.362212,59 54.4,62.9593 54.4,67.255523 c 0,2.9567 -1.083367,4.683981 -6.823784,10.879592 -9.065052,9.783878 -14.684871,17.799685 -20.052204,28.601385 -15.29454,30.78009 -15.061803,66.51049 0.636526,97.72128 5.052224,10.04463 10.649729,17.94605 19.415678,27.40711 5.740417,6.19561 6.823784,7.92289 6.823784,10.87959 0,2.5959 -0.720407,4.13437 -2.755764,5.88511 -3.307245,2.84477 -6.120305,2.99031 -10.144236,0.52481 z m 418.85576,-0.52481 c -2.03715,-1.75228 -2.75576,-3.28862 -2.75576,-5.89161 0,-2.99826 1.09385,-4.6883 7.36528,-11.3796 22.32612,-23.82083 33.05476,-54.6622 30.03609,-86.34398 C 492.52593,119.03396 482.92502,97.716307 465.22625,78.902407 458.69805,71.962891 457.6,70.287769 457.6,67.268237 c 0,-2.645133 0.71907,-4.145942 2.87488,-6.000292 4.44128,-3.820223 8.54616,-2.663535 15.7914,4.449751 18.61364,18.274658 31.04441,43.317534 34.2473,68.994194 5.33127,42.73931 -5.28364,78.86588 -31.26539,106.4079 -9.70649,10.28939 -13.77897,11.90821 -18.89243,7.5098 z M 72.240654,217.98691 c -5.626324,-2.31438 -17.107062,-17.00474 -22.382941,-28.64044 -9.160497,-20.20305 -9.372757,-46.90893 -0.5353,-67.34984 5.816355,-13.45314 18.058172,-29.050111 23.964482,-30.5325 5.528538,-1.387575 11.695229,4.486641 10.347436,9.85668 -0.370257,1.47522 -3.365965,5.65358 -6.657131,9.28525 -6.603905,7.28715 -13.049887,19.31207 -15.467261,28.85404 -1.938458,7.65157 -1.938458,23.42823 0,31.0798 2.334303,9.21407 8.962393,21.77281 14.883041,28.20003 8.319685,9.03151 9.340747,12.20822 5.35702,16.66666 -2.601974,2.91203 -6.278048,3.90952 -9.509346,2.58032 z m 360.789576,-0.24195 c -3.42533,-1.76675 -5.48957,-5.77868 -4.66456,-9.06577 0.37026,-1.47522 3.28853,-5.56813 6.48505,-9.09537 22.39566,-24.71272 22.91659,-64.03579 1.16374,-87.84503 -8.66516,-9.48431 -9.6772,-12.355244 -6.00227,-17.027153 5.03964,-6.406867 11.63194,-3.90436 21.09953,8.009613 23.9509,30.13967 24.13524,74.21281 0.43485,103.96009 -8.41982,10.56805 -13.54268,13.62898 -18.51634,11.06362 z"
         id="path237" />
      <path
         style="fill:#fc8d50"
         d="M 159.92431,509.42072 157.5,506.84145 157.20298,470.3057 c -0.34885,-42.91182 -0.0105,-45.76004 6.16832,-51.92542 C 168.21885,413.54327 173.67579,412 185.93173,412 h 7.83329 l 0.62008,-7.25 c 0.34104,-3.9875 4.03609,-59.84738 8.21122,-124.13306 6.2845,-96.7644 7.35985,-117.02964 6.24741,-117.73468 -1.54306,-0.97797 -12.89709,-1.18275 -15.26194,-0.27527 -1.34964,0.5179 -1.58179,2.91604 -1.58179,16.34004 0,25.08793 -4.18678,37.19447 -17.5,50.60318 C 163.38047,240.74949 149.23603,247 135.01241,247 c -7.30082,0 -10.10634,-1.34718 -12.51812,-6.01104 C 121.2693,238.62009 121,232.87034 121,209.08484 c 0,-27.6623 -0.0901,-29.06272 -1.93426,-30.04966 -1.06384,-0.56935 -6.12634,-1.04506 -11.25,-1.05714 -11.209669,-0.0264 -15.74609,-1.74219 -21.078985,-7.97248 -7.505171,-8.7681 -7.363273,-21.60404 0.335516,-30.35032 5.151468,-5.85238 10.303738,-7.75094 23.151789,-8.53119 L 120.5,130.5 l 0.53907,-5.36999 C 121.58362,119.70548 124.25079,116 127.61078,116 128.70402,116 129,113.86417 129,105.97525 c 0,-9.660489 -0.0872,-10.057895 -2.39909,-10.936883 -4.44218,-1.688916 -5.60219,-4.702188 -5.58617,-14.510873 0.0161,-9.846997 0.96225,-12.703915 5.26546,-15.898895 6.18837,-4.594636 26.44783,-0.562365 38.9848,7.759202 10.89015,7.228465 19.6894,18.864377 23.90564,31.612199 1.74662,5.28092 2.26043,9.87592 2.73959,24.5 l 0.58977,18 9.18323,0.28664 9.18323,0.28664 0.55035,-4.28664 c 0.30268,-2.35765 1.71013,-22.44912 3.12766,-44.647715 1.57056,-24.595169 3.03376,-41.091953 3.74582,-42.232142 C 219.79372,53.49941 224.15324,52 229.64922,52 H 234 V 30.149223 c 0,-22.567597 0.66419,-27.3639508 4.03944,-29.17033187 3.02376,-1.61826451 6.75879,-1.11183501 8.9216,1.20967027 C 248.8862,4.254975 249,5.6178031 249,26.606774 c 0,12.226308 0.27314,22.941455 0.60699,23.811439 0.8711,2.270043 11.91492,2.270043 12.78602,0 C 262.72686,49.548229 263,44.148229 263,38.418213 263,26.463416 264.25493,24 270.34501,24 c 5.95365,0 7.10286,2.464308 7.51032,16.104716 L 278.21065,52 h 4.24545 c 5.39786,0 9.75938,1.514136 11.25361,3.906783 0.71206,1.140189 2.17526,17.636973 3.74582,42.232142 1.41753,22.198595 2.82498,42.290065 3.12766,44.647715 l 0.55035,4.28664 9.18323,-0.28664 L 319.5,146.5 l 0.58977,-18 c 0.47916,-14.62408 0.99297,-19.21908 2.73959,-24.5 7.3362,-22.181043 26.50123,-38.087318 49.34663,-40.955888 8.1567,-1.024192 12.52697,-0.05296 15.89827,3.533159 L 390.5,69.157585 391,99.828792 391.5,130.5 l 10.27594,0.62405 c 12.84805,0.78025 18.00032,2.67881 23.15179,8.53119 7.69879,8.74628 7.84069,21.58222 0.33552,30.35032 -5.3329,6.23029 -9.86932,7.94605 -21.07899,7.97248 -12.09004,0.0285 -13.17533,0.62856 -13.21606,7.30714 -0.0336,5.50211 -1.07825,7.64785 -4.64954,9.54992 -1.96814,1.04823 -2.21249,2.0907 -2.5,10.66558 -0.24407,7.27905 -0.0154,9.50328 0.97679,9.50156 0.7125,-0.001 2.4,1.10231 3.75,2.45231 C 390.79168,219.70077 391,220.681 391,229.00421 391,243.29697 388.11664,247 376.98759,247 362.76397,247 348.61953,240.74949 337.5,229.55021 324.18678,216.1415 320,204.03496 320,178.94703 c 0,-13.424 -0.23215,-15.82214 -1.58179,-16.34004 -2.35982,-0.90555 -13.7174,-0.70365 -15.25535,0.27119 -1.10389,0.69972 -0.1565,18.92386 5.43133,104.47722 l 6.76847,103.62966 -2.35564,2.50747 c -5.12463,5.45492 -12.97816,1.61135 -13.03088,-6.37739 -0.0553,-8.38199 -1.2153,-10.24084 -22.08812,-35.39559 -11.21341,-13.51377 -20.95039,-24.81486 -21.63772,-25.11352 -0.96604,-0.41977 -28.81386,31.74366 -42.10875,48.63438 -1.50954,1.91781 -5.49052,54.66255 -4.22817,56.01981 0.38888,0.41811 21.37995,0.64311 46.64684,0.5 L 302.5,411.5 l -0.31135,-3.89479 c -0.40152,-5.02282 1.30063,-9.05148 4.42599,-10.47549 3.54982,-1.61741 4.93743,-1.42014 7.88012,1.12028 2.051,1.77062 2.73187,3.47509 3.19567,8 l 0.58938,5.75 h 7.81087 c 12.23335,0 17.69269,1.54548 22.53802,6.38028 6.17883,6.16538 6.51717,9.0136 6.16832,51.92542 L 354.5,506.84145 352.07569,509.42072 349.65137,512 H 256 162.34863 Z M 191.07736,483.5 c 0.64983,-13.50617 1.24286,-15.86872 5.2371,-20.8641 7.81967,-9.77964 24.56301,-10.95038 33.51359,-2.34337 6.0187,5.78767 7.37811,9.81214 7.92364,23.45747 l 0.48975,12.25 h 17.79323 17.79322 l 0.43312,-11.25 c 0.59476,-15.44856 1.65357,-18.62976 8.17347,-24.55709 4.58904,-4.17197 9.65665,-5.96236 16.16677,-5.71173 5.14283,0.19799 13.19433,3.36266 15.44027,6.06885 0.66185,0.79748 1.60942,1.44997 2.1057,1.44997 0.51069,0 0.78306,-7.05299 0.62755,-16.25 L 316.5,429.5 h -71 -71 l -0.26353,33.29066 -0.26353,33.29066 8.26353,-0.29066 L 190.5,495.5 Z M 296.99357,325.75 C 296.99003,323.9625 296.09292,309.225 295,293 c -1.09292,-16.225 -1.99003,-29.6125 -1.99357,-29.75 -0.0473,-1.8386 -4.10018,2.29376 -14.51558,14.80028 -11.03424,13.24962 -12.3817,15.26215 -11.26234,16.82114 3.61817,5.03917 28.33475,34.12858 28.99825,34.12858 0.42528,0 0.77034,-1.4625 0.76681,-3.25 z M 231.0162,310.98056 c 7.80057,-9.36069 13.96883,-17.57718 13.70725,-18.25886 -0.38951,-1.01504 -20.73552,-25.93811 -23.80078,-29.15503 -0.48914,-0.51334 -1.14829,-0.67438 -1.46479,-0.35788 -0.55173,0.55173 -4.38248,53.29676 -4.43328,61.04121 -0.0135,2.0625 0.3879,3.75 0.89207,3.75 0.50416,0 7.29895,-7.65875 15.09953,-17.01944 z M 273.92909,259.46936 291,238.93871 l -0.004,-6.71935 c -0.003,-4.77413 -0.53767,-7.58785 -1.84808,-9.71936 -4.64744,-7.55948 -32.44142,-45 -33.40577,-45 -0.59542,0 -7.32549,8.55 -14.9557,19 C 219.71978,225.35233 221,223.05129 221,232.0642 v 7.72132 l 16.73262,20.10724 C 246.93557,270.95174 255.00366,280 255.66171,280 c 0.65805,0 8.87837,-9.23879 18.26738,-20.53064 z m -37.90245,-82.50611 10.14292,-13.99057 -7.2181,-10.0402 C 229.83043,140.24536 228.30159,138.37122 227.62344,139.04597 227.03483,139.63164 224,180.39673 224,187.71755 c 0,2.49793 0.40722,4.14881 0.94186,3.81838 0.51803,-0.32016 5.50618,-6.87786 11.08478,-14.57268 z M 288,188.19196 c 0,-8.22038 -3.17089,-48.73578 -3.86998,-49.44801 C 283.33909,137.93818 266,161.06004 266,162.92052 266,164.37076 286.12782,192 287.18432,192 287.63294,192 288,190.28638 288,188.19196 Z m -18.33265,-57.56532 c 6.41583,-8.86965 12.08051,-16.67116 12.58818,-17.33668 0.85882,-1.12586 -0.57829,-34.052154 -1.83488,-42.03996 L 279.90937,68 H 255.97374 232.0381 l -0.47038,2.25 c -0.25871,1.2375 -1.00615,11.329007 -1.66097,22.425572 l -1.1906,20.175568 7.85423,10.82443 c 18.60696,25.6435 18.49856,25.5121 20.01122,24.2567 0.78133,-0.64844 6.66992,-8.43597 13.08575,-17.30563 z M 39.958389,246.57903 C 30.916996,239.42432 18.570074,222.84425 12.500187,209.70678 -6.3184278,168.97635 -3.0885001,121.80833 21.025729,85.204615 27.773247,74.962356 40.57198,61.396514 44.392133,60.437717 49.675621,59.111646 55.292117,65.667294 52.854818,70.315475 52.22481,71.516964 48.733579,75.65 45.096525,79.5 5.257567,121.67149 5.1619594,187.52962 44.877774,230.1838 c 8.308364,8.92306 9.433331,10.86773 8.185487,14.14981 C 52.004235,247.11906 48.371513,250 45.918224,250 c -0.900219,0 -3.582145,-1.53944 -5.959835,-3.42097 z m 422.201001,1.82006 c -3.14407,-2.20219 -4.45196,-5.9655 -3.02865,-8.71456 0.62206,-1.20149 4.14209,-5.33453 7.8223,-9.18453 19.53249,-20.43366 29.40828,-45.78781 29.40828,-75.5 0,-29.71219 -9.87579,-55.066342 -29.40828,-75.5 -3.68021,-3.85 -7.20024,-7.983036 -7.8223,-9.184525 -2.41266,-4.659949 3.20161,-11.201828 8.47713,-9.877758 3.82015,0.958797 16.61888,14.524639 23.3664,24.766898 24.09498,36.574495 27.32914,83.804245 8.52554,124.502165 -6.06988,13.13747 -18.41681,29.71754 -27.4582,36.87225 -4.83667,3.82739 -6.56254,4.14525 -9.88222,1.82006 z M 71.48027,216.14588 C 63.140476,211.07414 53.017293,196.0385 47.817291,181 c -3.196642,-9.24475 -3.284903,-9.94333 -3.284903,-26 0,-16.05667 0.08826,-16.75525 3.284903,-26 4.184968,-12.103 9.767734,-21.51808 17.537917,-29.576878 C 72.96425,91.531447 75.794389,90.640543 79.974832,94.820986 81.638674,96.484828 83,98.754848 83,99.865474 c 0,1.110626 -2.661188,5.063086 -5.91375,8.783236 -10.871908,12.43486 -16.636549,24.94862 -17.982085,39.03512 -1.941015,20.32061 3.997815,37.85432 18.334314,54.12993 C 80.497315,205.28632 83,208.97373 83,210.00799 c 0,2.31384 -3.792156,6.62901 -6.50335,7.4003 -1.114754,0.31713 -3.339796,-0.24282 -5.01638,-1.26241 z m 362.87673,0.86254 c -2.56453,-1.03492 -5.357,-4.7793 -5.357,-7.18313 0,-0.95133 2.5875,-4.64567 5.75,-8.20965 7.23679,-8.1555 11.65588,-15.42597 15.06225,-24.78104 2.43423,-6.68522 2.67069,-8.61838 2.67069,-21.8346 0,-13.21622 -0.23646,-15.14938 -2.67069,-21.8346 -3.40637,-9.35507 -7.82546,-16.62554 -15.06225,-24.78104 -3.1625,-3.56398 -5.75,-7.11228 -5.75,-7.88511 0,-5.209678 5.52904,-9.389204 10.11454,-7.645801 3.5817,1.361759 13.17353,12.093981 17.80424,19.921011 2.18846,3.69905 5.45723,11.00054 7.26393,16.22554 3.19664,9.24475 3.2849,9.94333 3.2849,26 0,16.05667 -0.0883,16.75525 -3.2849,26 -3.94382,11.40559 -9.35025,20.83382 -16.31928,28.45905 -4.23135,4.62977 -9.64471,8.77773 -11.06377,8.47756 -0.16481,-0.0349 -1.26401,-0.45255 -2.44266,-0.92819 z"
         id="path235" />
      <path
         style="fill:#28b0f7"
         d="M 159.92431,509.42072 157.5,506.84145 157.20298,470.3057 c -0.34885,-42.91182 -0.0105,-45.76004 6.16832,-51.92542 C 168.21885,413.54327 173.67579,412 185.93173,412 h 7.83329 l 0.62008,-7.25 c 0.34104,-3.9875 4.03609,-59.84738 8.21122,-124.13306 6.2845,-96.7644 7.35985,-117.02964 6.24741,-117.73468 -1.54306,-0.97797 -12.89709,-1.18275 -15.26194,-0.27527 -1.34964,0.5179 -1.58179,2.91604 -1.58179,16.34004 0,25.08793 -4.18678,37.19447 -17.5,50.60318 C 163.38047,240.74949 149.23603,247 135.01241,247 c -7.30082,0 -10.10634,-1.34718 -12.51812,-6.01104 C 121.2693,238.62009 121,232.87034 121,209.08484 c 0,-27.6623 -0.0901,-29.06272 -1.93426,-30.04966 -1.06384,-0.56935 -6.12634,-1.04506 -11.25,-1.05714 -11.209669,-0.0264 -15.74609,-1.74219 -21.078985,-7.97248 -7.505171,-8.7681 -7.363273,-21.60404 0.335516,-30.35032 5.151468,-5.85238 10.303738,-7.75094 23.151789,-8.53119 L 120.5,130.5 l 0.51497,-5.11435 c 0.28324,-2.81289 1.10673,-5.82737 1.82999,-6.69884 1.79677,-2.16498 7.66175,-3.97815 10.23063,-3.16282 4.72519,1.49972 4.92167,3.84261 4.96412,59.19389 l 0.0397,51.78212 4.40326,-4.78375 c 4.96345,-5.39234 8.95059,-12.90469 11.06457,-20.84721 2.09547,-7.87297 2.07676,-83.93507 -0.0226,-91.8237 C 151.51803,101.5051 146.73027,92.355169 141.9893,87 c -3.94641,-4.457669 -3.98392,-4.473829 -3.9866,-1.717881 -0.004,4.181401 -2.54814,9.438836 -4.93388,10.196039 -3.31207,1.051209 -7.85381,-0.389355 -10.05663,-3.189795 -1.68512,-2.142278 -2.00979,-4.039698 -1.99745,-11.673222 0.0161,-9.939357 0.95332,-12.784933 5.26546,-15.986542 6.18837,-4.594636 26.44783,-0.562365 38.9848,7.759202 10.89015,7.228465 19.6894,18.864377 23.90564,31.612199 1.74662,5.28092 2.26043,9.87592 2.73959,24.5 l 0.58977,18 9.18323,0.28664 9.18323,0.28664 0.55035,-4.28664 c 0.30268,-2.35765 1.71013,-22.44912 3.12766,-44.647715 1.57056,-24.595169 3.03376,-41.091953 3.74582,-42.232142 C 219.79372,53.49941 224.15324,52 229.64922,52 H 234 V 30.149223 c 0,-22.567597 0.66419,-27.3639508 4.03944,-29.17033187 3.02376,-1.61826451 6.75879,-1.11183501 8.9216,1.20967027 C 248.8862,4.254975 249,5.6178031 249,26.606774 c 0,12.226308 0.27314,22.941455 0.60699,23.811439 0.8711,2.270043 11.91492,2.270043 12.78602,0 C 262.72686,49.548229 263,44.148229 263,38.418213 263,26.463416 264.25493,24 270.34501,24 c 5.95365,0 7.10286,2.464308 7.51032,16.104716 L 278.21065,52 h 4.24545 c 5.39786,0 9.75938,1.514136 11.25361,3.906783 0.71206,1.140189 2.17526,17.636973 3.74582,42.232142 1.41753,22.198595 2.82498,42.290065 3.12766,44.647715 l 0.55035,4.28664 9.18323,-0.28664 L 319.5,146.5 l 0.58977,-18 c 0.47916,-14.62408 0.99297,-19.21908 2.73959,-24.5 7.3362,-22.181043 26.50123,-38.087318 49.34663,-40.955888 8.1567,-1.024192 12.52697,-0.05296 15.89827,3.533159 L 390.5,69.157585 391,99.828792 391.5,130.5 l 10.27594,0.62405 c 12.84805,0.78025 18.00032,2.67881 23.15179,8.53119 7.69879,8.74628 7.84069,21.58222 0.33552,30.35032 -5.3329,6.23029 -9.86932,7.94605 -21.07899,7.97248 -12.09004,0.0285 -13.17533,0.62856 -13.21606,7.30714 -0.0359,5.88054 -1.05416,7.6768 -5.7182,10.08682 l -3.25,1.67936 v 8.4609 8.4609 l 3.41951,1.42876 C 390.13933,217.37399 391,219.54584 391,229.48392 391,243.25068 388.00064,247 376.98759,247 362.76397,247 348.61953,240.74949 337.5,229.55021 324.18678,216.1415 320,204.03496 320,178.94703 c 0,-13.424 -0.23215,-15.82214 -1.58179,-16.34004 -2.35982,-0.90555 -13.7174,-0.70365 -15.25535,0.27119 -1.10389,0.69972 -0.1565,18.92386 5.43133,104.47722 l 6.76847,103.62966 -2.35564,2.50747 c -5.12463,5.45492 -12.97816,1.61135 -13.03088,-6.37739 -0.0553,-8.38199 -1.2153,-10.24084 -22.08812,-35.39559 -11.21341,-13.51377 -20.95039,-24.81486 -21.63772,-25.11352 -0.96604,-0.41977 -28.81386,31.74366 -42.10875,48.63438 -1.50954,1.91781 -5.49052,54.66255 -4.22817,56.01981 0.38888,0.41811 21.37995,0.64311 46.64684,0.5 L 302.5,411.5 l -0.31135,-3.89479 c -0.40152,-5.02282 1.30063,-9.05148 4.42599,-10.47549 3.54982,-1.61741 4.93743,-1.42014 7.88012,1.12028 2.051,1.77062 2.73187,3.47509 3.19567,8 l 0.58938,5.75 h 7.81087 c 12.23335,0 17.69269,1.54548 22.53802,6.38028 6.17883,6.16538 6.51717,9.0136 6.16832,51.92542 L 354.5,506.84145 352.07569,509.42072 349.65137,512 H 256 162.34863 Z M 191.07736,483.5 c 0.64983,-13.50617 1.24286,-15.86872 5.2371,-20.8641 7.81967,-9.77964 24.56301,-10.95038 33.51359,-2.34337 6.0187,5.78767 7.37811,9.81214 7.92364,23.45747 l 0.48975,12.25 h 17.79323 17.79322 l 0.43312,-11.25 c 0.59476,-15.44856 1.65357,-18.62976 8.17347,-24.55709 4.58904,-4.17197 9.65665,-5.96236 16.16677,-5.71173 5.14283,0.19799 13.19433,3.36266 15.44027,6.06885 0.66185,0.79748 1.60942,1.44997 2.1057,1.44997 0.51069,0 0.78306,-7.05299 0.62755,-16.25 L 316.5,429.5 h -71 -71 l -0.26353,33.29066 -0.26353,33.29066 8.26353,-0.29066 L 190.5,495.5 Z M 296.99357,325.75 C 296.99003,323.9625 296.09292,309.225 295,293 c -1.09292,-16.225 -1.99003,-29.6125 -1.99357,-29.75 -0.0473,-1.8386 -4.10018,2.29376 -14.51558,14.80028 -11.03424,13.24962 -12.3817,15.26215 -11.26234,16.82114 3.61817,5.03917 28.33475,34.12858 28.99825,34.12858 0.42528,0 0.77034,-1.4625 0.76681,-3.25 z M 231.0162,310.98056 c 7.80057,-9.36069 13.96883,-17.57718 13.70725,-18.25886 -0.38951,-1.01504 -20.73552,-25.93811 -23.80078,-29.15503 -0.48914,-0.51334 -1.14829,-0.67438 -1.46479,-0.35788 -0.55173,0.55173 -4.38248,53.29676 -4.43328,61.04121 -0.0135,2.0625 0.3879,3.75 0.89207,3.75 0.50416,0 7.29895,-7.65875 15.09953,-17.01944 z M 273.92909,259.46936 291,238.93871 l -0.004,-6.71935 c -0.003,-4.77413 -0.53767,-7.58785 -1.84808,-9.71936 -4.64744,-7.55948 -32.44142,-45 -33.40577,-45 -0.59542,0 -7.32549,8.55 -14.9557,19 C 219.71978,225.35233 221,223.05129 221,232.0642 v 7.72132 l 16.73262,20.10724 C 246.93557,270.95174 255.00366,280 255.66171,280 c 0.65805,0 8.87837,-9.23879 18.26738,-20.53064 z M 354,155 c 0,-37.85154 -0.37924,-66 -0.88922,-66 -3.30546,0 -11.58061,11.54369 -14.08303,19.64558 C 337.135,114.7736 337,117.85458 337,154.92383 c 0,42.409 0.31881,45.69331 5.24924,54.07617 2.26637,3.85337 9.70627,12 10.95897,12 C 353.64369,221 354,191.3 354,155 Z m -117.97336,21.96325 10.14292,-13.99057 -7.2181,-10.0402 C 229.83043,140.24536 228.30159,138.37122 227.62344,139.04597 227.03483,139.63164 224,180.39673 224,187.71755 c 0,2.49793 0.40722,4.14881 0.94186,3.81838 0.51803,-0.32016 5.50618,-6.87786 11.08478,-14.57268 z M 288,188.19196 c 0,-8.22038 -3.17089,-48.73578 -3.86998,-49.44801 C 283.33909,137.93818 266,161.06004 266,162.92052 266,164.37076 286.12782,192 287.18432,192 287.63294,192 288,190.28638 288,188.19196 Z m -18.33265,-57.56532 c 6.41583,-8.86965 12.08051,-16.67116 12.58818,-17.33668 0.85882,-1.12586 -0.57829,-34.052154 -1.83488,-42.03996 L 279.90937,68 H 255.97374 232.0381 l -0.47038,2.25 c -0.25871,1.2375 -1.00615,11.329007 -1.66097,22.425572 l -1.1906,20.175568 7.85423,10.82443 c 18.60696,25.6435 18.49856,25.5121 20.01122,24.2567 0.78133,-0.64844 6.66992,-8.43597 13.08575,-17.30563 z M 39.958389,246.57903 C 30.916996,239.42432 18.570074,222.84425 12.500187,209.70678 -6.3184278,168.97635 -3.0885001,121.80833 21.025729,85.204615 27.773247,74.962356 40.57198,61.396514 44.392133,60.437717 49.675621,59.111646 55.292117,65.667294 52.854818,70.315475 52.22481,71.516964 48.733579,75.65 45.096525,79.5 5.257567,121.67149 5.1619594,187.52962 44.877774,230.1838 c 8.308364,8.92306 9.433331,10.86773 8.185487,14.14981 C 52.004235,247.11906 48.371513,250 45.918224,250 c -0.900219,0 -3.582145,-1.53944 -5.959835,-3.42097 z m 422.201001,1.82006 c -3.14407,-2.20219 -4.45196,-5.9655 -3.02865,-8.71456 0.62206,-1.20149 4.14209,-5.33453 7.8223,-9.18453 19.53249,-20.43366 29.40828,-45.78781 29.40828,-75.5 0,-29.71219 -9.87579,-55.066342 -29.40828,-75.5 -3.68021,-3.85 -7.20024,-7.983036 -7.8223,-9.184525 -2.41266,-4.659949 3.20161,-11.201828 8.47713,-9.877758 3.82015,0.958797 16.61888,14.524639 23.3664,24.766898 24.09498,36.574495 27.32914,83.804245 8.52554,124.502165 -6.06988,13.13747 -18.41681,29.71754 -27.4582,36.87225 -4.83667,3.82739 -6.56254,4.14525 -9.88222,1.82006 z M 71.48027,216.14588 C 63.140476,211.07414 53.017293,196.0385 47.817291,181 c -3.196642,-9.24475 -3.284903,-9.94333 -3.284903,-26 0,-16.05667 0.08826,-16.75525 3.284903,-26 4.184968,-12.103 9.767734,-21.51808 17.537917,-29.576878 C 72.96425,91.531447 75.794389,90.640543 79.974832,94.820986 81.638674,96.484828 83,98.754848 83,99.865474 c 0,1.110626 -2.661188,5.063086 -5.91375,8.783236 -10.871908,12.43486 -16.636549,24.94862 -17.982085,39.03512 -1.941015,20.32061 3.997815,37.85432 18.334314,54.12993 C 80.497315,205.28632 83,208.97373 83,210.00799 c 0,2.31384 -3.792156,6.62901 -6.50335,7.4003 -1.114754,0.31713 -3.339796,-0.24282 -5.01638,-1.26241 z m 362.87673,0.86254 c -2.56453,-1.03492 -5.357,-4.7793 -5.357,-7.18313 0,-0.95133 2.5875,-4.64567 5.75,-8.20965 7.23679,-8.1555 11.65588,-15.42597 15.06225,-24.78104 2.43423,-6.68522 2.67069,-8.61838 2.67069,-21.8346 0,-13.21622 -0.23646,-15.14938 -2.67069,-21.8346 -3.40637,-9.35507 -7.82546,-16.62554 -15.06225,-24.78104 -3.1625,-3.56398 -5.75,-7.11228 -5.75,-7.88511 0,-5.209678 5.52904,-9.389204 10.11454,-7.645801 3.5817,1.361759 13.17353,12.093981 17.80424,19.921011 2.18846,3.69905 5.45723,11.00054 7.26393,16.22554 3.19664,9.24475 3.2849,9.94333 3.2849,26 0,16.05667 -0.0883,16.75525 -3.2849,26 -3.94382,11.40559 -9.35025,20.83382 -16.31928,28.45905 -4.23135,4.62977 -9.64471,8.77773 -11.06377,8.47756 -0.16481,-0.0349 -1.26401,-0.45255 -2.44266,-0.92819 z"
         id="path233" />
      <path
         style="fill:#f2793b"
         d="M 159.92431,509.42072 157.5,506.84145 157.20298,470.3057 c -0.34885,-42.91182 -0.0105,-45.76004 6.16832,-51.92542 C 168.21885,413.54327 173.67579,412 185.93173,412 h 7.83329 l 0.62008,-7.25 c 0.34104,-3.9875 4.03609,-59.84738 8.21122,-124.13306 6.2845,-96.7644 7.35985,-117.02964 6.24741,-117.73468 -1.54306,-0.97797 -12.89709,-1.18275 -15.26194,-0.27527 -1.34964,0.5179 -1.58179,2.91604 -1.58179,16.34004 0,25.08793 -4.18678,37.19447 -17.5,50.60318 C 163.38047,240.74949 149.23603,247 135.01241,247 c -7.30082,0 -10.10634,-1.34718 -12.51812,-6.01104 C 121.2693,238.62009 121,232.87034 121,209.08484 c 0,-27.6623 -0.0901,-29.06272 -1.93426,-30.04966 -1.06384,-0.56935 -6.12634,-1.04506 -11.25,-1.05714 -11.209669,-0.0264 -15.74609,-1.74219 -21.078985,-7.97248 -7.505171,-8.7681 -7.363273,-21.60404 0.335516,-30.35032 5.151468,-5.85238 10.303738,-7.75094 23.151789,-8.53119 L 120.5,130.5 l 0.51497,-5.11435 c 0.28324,-2.81289 1.10673,-5.82737 1.82999,-6.69884 1.79677,-2.16498 7.66175,-3.97815 10.23063,-3.16282 4.72519,1.49972 4.92167,3.84261 4.96412,59.19389 l 0.0397,51.78212 4.40326,-4.78375 c 4.96345,-5.39234 8.95059,-12.90469 11.06457,-20.84721 2.09547,-7.87297 2.07676,-83.93507 -0.0226,-91.8237 C 151.51803,101.5051 146.73027,92.355169 141.9893,87 c -3.94641,-4.457669 -3.98392,-4.473829 -3.9866,-1.717881 -0.004,4.181401 -2.54814,9.438836 -4.93388,10.196039 -3.31207,1.051209 -7.85381,-0.389355 -10.05663,-3.189795 -1.68512,-2.142278 -2.00979,-4.039698 -1.99745,-11.673222 0.0161,-9.939357 0.95332,-12.784933 5.26546,-15.986542 6.18837,-4.594636 26.44783,-0.562365 38.9848,7.759202 10.89015,7.228465 19.6894,18.864377 23.90564,31.612199 1.74662,5.28092 2.26043,9.87592 2.73959,24.5 l 0.58977,18 9.18323,0.28664 9.18323,0.28664 0.55035,-4.28664 c 0.30268,-2.35765 1.71013,-22.44912 3.12766,-44.647715 1.57056,-24.595169 3.03376,-41.091953 3.74582,-42.232142 C 219.79372,53.49941 224.15324,52 229.64922,52 H 234 V 30.149223 c 0,-22.567597 0.66419,-27.3639508 4.03944,-29.17033187 3.02376,-1.61826451 6.75879,-1.11183501 8.9216,1.20967027 C 248.8862,4.254975 249,5.6178031 249,26.606774 c 0,12.226308 0.27314,22.941455 0.60699,23.811439 0.8711,2.270043 11.91492,2.270043 12.78602,0 C 262.72686,49.548229 263,44.148229 263,38.418213 263,26.463416 264.25493,24 270.34501,24 c 5.95365,0 7.10286,2.464308 7.51032,16.104716 L 278.21065,52 h 4.24545 c 5.39786,0 9.75938,1.514136 11.25361,3.906783 0.71206,1.140189 2.17526,17.636973 3.74582,42.232142 1.41753,22.198595 2.82498,42.290065 3.12766,44.647715 l 0.55035,4.28664 9.18323,-0.28664 L 319.5,146.5 l 0.58977,-18 c 0.47916,-14.62408 0.99297,-19.21908 2.73959,-24.5 7.3362,-22.181043 26.50123,-38.087318 49.34663,-40.955888 8.1567,-1.024192 12.52697,-0.05296 15.89827,3.533159 L 390.5,69.157585 391,99.828792 391.5,130.5 l 10.27594,0.62405 c 12.84805,0.78025 18.00032,2.67881 23.15179,8.53119 7.69879,8.74628 7.84069,21.58222 0.33552,30.35032 -5.3329,6.23029 -9.86932,7.94605 -21.07899,7.97248 -12.09004,0.0285 -13.17533,0.62856 -13.21606,7.30714 -0.0359,5.88054 -1.05416,7.6768 -5.7182,10.08682 l -3.25,1.67936 v 8.4609 8.4609 l 3.41951,1.42876 C 390.13933,217.37399 391,219.54584 391,229.48392 391,243.25068 388.00064,247 376.98759,247 362.76397,247 348.61953,240.74949 337.5,229.55021 324.18678,216.1415 320,204.03496 320,178.94703 c 0,-13.424 -0.23215,-15.82214 -1.58179,-16.34004 -2.35982,-0.90555 -13.7174,-0.70365 -15.25535,0.27119 -1.10389,0.69972 -0.1565,18.92386 5.43133,104.47722 l 6.76847,103.62966 -2.35564,2.50747 c -5.12463,5.45492 -12.97816,1.61135 -13.03088,-6.37739 -0.0553,-8.38199 -1.2153,-10.24084 -22.08812,-35.39559 -11.21341,-13.51377 -20.95039,-24.81486 -21.63772,-25.11352 -0.96604,-0.41977 -28.81386,31.74366 -42.10875,48.63438 -1.50954,1.91781 -5.49052,54.66255 -4.22817,56.01981 0.38888,0.41811 21.37995,0.64311 46.64684,0.5 L 302.5,411.5 l -0.31135,-3.89479 c -0.40152,-5.02282 1.30063,-9.05148 4.42599,-10.47549 3.54982,-1.61741 4.93743,-1.42014 7.88012,1.12028 2.051,1.77062 2.73187,3.47509 3.19567,8 l 0.58938,5.75 h 7.81087 c 12.23335,0 17.69269,1.54548 22.53802,6.38028 6.17883,6.16538 6.51717,9.0136 6.16832,51.92542 L 354.5,506.84145 352.07569,509.42072 349.65137,512 H 256 162.34863 Z M 191,485.12573 c 0,-16.05089 2.87127,-22.56074 12.18713,-27.63106 11.19774,-6.09458 26.00537,-1.73995 31.43267,9.24371 1.39505,2.82327 1.98612,6.87978 2.36945,16.26162 L 237.5,495.5 h 18.5 18.5 l 0.51075,-12.5 c 0.56836,-13.91017 1.92175,-18.0783 7.35871,-22.66316 4.60968,-3.88724 9.32641,-5.53684 15.8316,-5.53684 8.31232,0 15.07742,3.96856 19.22256,11.27638 2.89195,5.09848 3.09753,6.158 3.42921,17.67362 L 321.20565,496 H 330.10283 339 v -32.8 c 0,-24.17778 -0.31545,-33.11545 -1.2,-34 -0.91339,-0.91339 -20.3619,-1.2 -81.42857,-1.2 -71.60173,0 -80.39755,0.16897 -81.8,1.57143 -1.36261,1.3626 -1.57143,5.79221 -1.57143,33.33333 0,17.46905 0.3,32.06191 0.66667,32.42857 0.36666,0.36667 4.41666,0.66667 9,0.66667 H 191 Z M 296.99357,325.75 C 296.99003,323.9625 296.09292,309.225 295,293 c -1.09292,-16.225 -1.99003,-29.6125 -1.99357,-29.75 -0.0473,-1.8386 -4.10018,2.29376 -14.51558,14.80028 -11.03424,13.24962 -12.3817,15.26215 -11.26234,16.82114 3.61817,5.03917 28.33475,34.12858 28.99825,34.12858 0.42528,0 0.77034,-1.4625 0.76681,-3.25 z M 231.0162,310.98056 c 7.80057,-9.36069 13.96883,-17.57718 13.70725,-18.25886 -0.38951,-1.01504 -20.73552,-25.93811 -23.80078,-29.15503 -0.48914,-0.51334 -1.14829,-0.67438 -1.46479,-0.35788 -0.55173,0.55173 -4.38248,53.29676 -4.43328,61.04121 -0.0135,2.0625 0.3879,3.75 0.89207,3.75 0.50416,0 7.29895,-7.65875 15.09953,-17.01944 z M 273.92909,259.46936 291,238.93871 l -0.004,-6.71935 c -0.003,-4.77413 -0.53767,-7.58785 -1.84808,-9.71936 -4.64744,-7.55948 -32.44142,-45 -33.40577,-45 -0.59542,0 -7.32549,8.55 -14.9557,19 C 219.71978,225.35233 221,223.05129 221,232.0642 v 7.72132 l 16.73262,20.10724 C 246.93557,270.95174 255.00366,280 255.66171,280 c 0.65805,0 8.87837,-9.23879 18.26738,-20.53064 z M 354,155 c 0,-37.85154 -0.37924,-66 -0.88922,-66 -3.30546,0 -11.58061,11.54369 -14.08303,19.64558 C 337.135,114.7736 337,117.85458 337,154.92383 c 0,42.409 0.31881,45.69331 5.24924,54.07617 2.26637,3.85337 9.70627,12 10.95897,12 C 353.64369,221 354,191.3 354,155 Z m -117.97336,21.96325 10.14292,-13.99057 -7.2181,-10.0402 C 229.83043,140.24536 228.30159,138.37122 227.62344,139.04597 227.03483,139.63164 224,180.39673 224,187.71755 c 0,2.49793 0.40722,4.14881 0.94186,3.81838 0.51803,-0.32016 5.50618,-6.87786 11.08478,-14.57268 z M 288,188.19196 c 0,-8.22038 -3.17089,-48.73578 -3.86998,-49.44801 C 283.33909,137.93818 266,161.06004 266,162.92052 266,164.37076 286.12782,192 287.18432,192 287.63294,192 288,190.28638 288,188.19196 Z m -18.33265,-57.56532 c 6.41583,-8.86965 12.08051,-16.67116 12.58818,-17.33668 0.85882,-1.12586 -0.57829,-34.052154 -1.83488,-42.03996 L 279.90937,68 H 255.97374 232.0381 l -0.47038,2.25 c -0.25871,1.2375 -1.00615,11.329007 -1.66097,22.425572 l -1.1906,20.175568 7.85423,10.82443 c 18.60696,25.6435 18.49856,25.5121 20.01122,24.2567 0.78133,-0.64844 6.66992,-8.43597 13.08575,-17.30563 z M 39.958389,246.57903 C 30.916996,239.42432 18.570074,222.84425 12.500187,209.70678 -6.3184278,168.97635 -3.0885001,121.80833 21.025729,85.204615 27.773247,74.962356 40.57198,61.396514 44.392133,60.437717 49.675621,59.111646 55.292117,65.667294 52.854818,70.315475 52.22481,71.516964 48.733579,75.65 45.096525,79.5 5.257567,121.67149 5.1619594,187.52962 44.877774,230.1838 c 8.308364,8.92306 9.433331,10.86773 8.185487,14.14981 C 52.004235,247.11906 48.371513,250 45.918224,250 c -0.900219,0 -3.582145,-1.53944 -5.959835,-3.42097 z m 422.201001,1.82006 c -3.14407,-2.20219 -4.45196,-5.9655 -3.02865,-8.71456 0.62206,-1.20149 4.14209,-5.33453 7.8223,-9.18453 19.53249,-20.43366 29.40828,-45.78781 29.40828,-75.5 0,-29.71219 -9.87579,-55.066342 -29.40828,-75.5 -3.68021,-3.85 -7.20024,-7.983036 -7.8223,-9.184525 -2.41266,-4.659949 3.20161,-11.201828 8.47713,-9.877758 3.82015,0.958797 16.61888,14.524639 23.3664,24.766898 24.09498,36.574495 27.32914,83.804245 8.52554,124.502165 -6.06988,13.13747 -18.41681,29.71754 -27.4582,36.87225 -4.83667,3.82739 -6.56254,4.14525 -9.88222,1.82006 z M 71.48027,216.14588 C 63.140476,211.07414 53.017293,196.0385 47.817291,181 c -3.196642,-9.24475 -3.284903,-9.94333 -3.284903,-26 0,-16.05667 0.08826,-16.75525 3.284903,-26 4.184968,-12.103 9.767734,-21.51808 17.537917,-29.576878 C 72.96425,91.531447 75.794389,90.640543 79.974832,94.820986 81.638674,96.484828 83,98.754848 83,99.865474 c 0,1.110626 -2.661188,5.063086 -5.91375,8.783236 -10.871908,12.43486 -16.636549,24.94862 -17.982085,39.03512 -1.941015,20.32061 3.997815,37.85432 18.334314,54.12993 C 80.497315,205.28632 83,208.97373 83,210.00799 c 0,2.31384 -3.792156,6.62901 -6.50335,7.4003 -1.114754,0.31713 -3.339796,-0.24282 -5.01638,-1.26241 z m 362.87673,0.86254 c -2.56453,-1.03492 -5.357,-4.7793 -5.357,-7.18313 0,-0.95133 2.5875,-4.64567 5.75,-8.20965 7.23679,-8.1555 11.65588,-15.42597 15.06225,-24.78104 2.43423,-6.68522 2.67069,-8.61838 2.67069,-21.8346 0,-13.21622 -0.23646,-15.14938 -2.67069,-21.8346 -3.40637,-9.35507 -7.82546,-16.62554 -15.06225,-24.78104 -3.1625,-3.56398 -5.75,-7.11228 -5.75,-7.88511 0,-5.209678 5.52904,-9.389204 10.11454,-7.645801 3.5817,1.361759 13.17353,12.093981 17.80424,19.921011 2.18846,3.69905 5.45723,11.00054 7.26393,16.22554 3.19664,9.24475 3.2849,9.94333 3.2849,26 0,16.05667 -0.0883,16.75525 -3.2849,26 -3.94382,11.40559 -9.35025,20.83382 -16.31928,28.45905 -4.23135,4.62977 -9.64471,8.77773 -11.06377,8.47756 -0.16481,-0.0349 -1.26401,-0.45255 -2.44266,-0.92819 z"
         id="path231" />
      <path
         style="fill:#646264"
         d="M 159.92431,509.42072 157.5,506.84145 157.20298,470.3057 c -0.34885,-42.91182 -0.0105,-45.76004 6.16832,-51.92542 C 168.21885,413.54327 173.67579,412 185.93173,412 h 7.83329 l 0.62008,-7.25 c 0.34104,-3.9875 4.03609,-59.84738 8.21122,-124.13306 6.2845,-96.7644 7.35985,-117.02964 6.24741,-117.73468 -1.54306,-0.97797 -12.89709,-1.18275 -15.26194,-0.27527 -1.34964,0.5179 -1.58179,2.91604 -1.58179,16.34004 0,25.08793 -4.18678,37.19447 -17.5,50.60318 C 163.38047,240.74949 149.23603,247 135.01241,247 c -7.30082,0 -10.10634,-1.34718 -12.51812,-6.01104 C 121.2693,238.62009 121,232.87034 121,209.08484 c 0,-27.6623 -0.0901,-29.06272 -1.93426,-30.04966 -1.06384,-0.56935 -6.12634,-1.04506 -11.25,-1.05714 -11.209669,-0.0264 -15.74609,-1.74219 -21.078985,-7.97248 -7.505171,-8.7681 -7.363273,-21.60404 0.335516,-30.35032 5.151468,-5.85238 10.303738,-7.75094 23.151789,-8.53119 L 120.5,130.5 l 0.51781,-5 c 0.63304,-6.11257 1.35585,-7.33319 5.33262,-9.0053 2.58443,-1.08667 3.55813,-1.07622 5.75877,0.0618 1.45664,0.75326 3.04047,2.1737 3.51962,3.15654 0.47915,0.98285 0.95725,26.19969 1.06244,56.03744 0.10519,29.83774 0.44005,54.653 0.74414,55.14502 0.79382,1.28443 8.11785,-0.50857 14.31436,-3.50431 12.97017,-6.2705 22.3349,-19.56245 24.23,-34.39116 1.24731,-9.75996 1.24156,-66.3188 -0.008,-75.94521 -2.41386,-18.600072 -16.21572,-34.131482 -33.69318,-37.915353 -5.21727,-1.129539 -6.11218,-0.247738 -6.11218,6.022647 0,2.561889 -0.51486,5.620006 -1.14414,6.795815 -2.48279,4.639136 -9.13408,4.576333 -12.42162,-0.117287 -1.98765,-2.837775 -2.22748,-19.064035 -0.33617,-22.744213 2.51511,-4.893962 6.16015,-6.551153 13.89656,-6.317966 23.21202,0.699646 45.28378,17.863275 53.00934,41.221567 1.74662,5.28092 2.26043,9.87592 2.73959,24.5 l 0.58977,18 9.18323,0.28664 9.18323,0.28664 0.55035,-4.28664 c 0.30268,-2.35765 1.71013,-22.44912 3.12766,-44.647715 1.57056,-24.595169 3.03376,-41.091953 3.74582,-42.232142 C 219.79372,53.49941 224.15324,52 229.64922,52 H 234 V 30.149223 c 0,-22.567597 0.66419,-27.3639508 4.03944,-29.17033187 3.02376,-1.61826451 6.75879,-1.11183501 8.9216,1.20967027 C 248.8862,4.254975 249,5.6178031 249,26.606774 c 0,12.226308 0.27314,22.941455 0.60699,23.811439 0.8711,2.270043 11.91492,2.270043 12.78602,0 C 262.72686,49.548229 263,44.148229 263,38.418213 263,26.463416 264.25493,24 270.34501,24 c 5.95365,0 7.10286,2.464308 7.51032,16.104716 L 278.21065,52 h 4.24545 c 5.39786,0 9.75938,1.514136 11.25361,3.906783 0.71206,1.140189 2.17526,17.636973 3.74582,42.232142 1.41753,22.198595 2.82498,42.290065 3.12766,44.647715 l 0.55035,4.28664 9.18323,-0.28664 L 319.5,146.5 l 0.58977,-18 c 0.47916,-14.62408 0.99297,-19.21908 2.73959,-24.5 7.3362,-22.181043 26.50123,-38.087318 49.34663,-40.955888 8.1567,-1.024192 12.52697,-0.05296 15.89827,3.533159 L 390.5,69.157585 391,99.828792 391.5,130.5 l 10.27594,0.62405 c 12.84805,0.78025 18.00032,2.67881 23.15179,8.53119 7.69879,8.74628 7.84069,21.58222 0.33552,30.35032 -5.3329,6.23029 -9.86932,7.94605 -21.07899,7.97248 C 392.05751,178.00663 391,178.59766 391,185.34662 c 0,3.91801 -0.52198,5.83653 -2.02768,7.45271 -3.05824,3.28264 -6.66086,3.82368 -9.80937,1.47317 L 376.5,192.28449 376.24153,136.48451 c -0.16717,-36.0903 -0.61888,-56.234268 -1.27884,-57.029471 -1.39718,-1.683499 -7.75837,-0.229322 -15.55215,3.555248 -7.80032,3.787742 -15.53897,11.927711 -19.70909,20.731183 L 336.5,110.5 v 44.55186 44.55187 l 3.72581,7.53867 c 5.72122,11.57609 15.97593,20.13597 27.79843,23.20408 6.89817,1.79017 7.97576,1.00727 7.97576,-5.79461 0,-4.14592 0.47031,-5.64507 2.31445,-7.37756 3.07017,-2.88427 7.17904,-2.77173 10.231,0.28024 C 390.79168,219.70077 391,220.681 391,229.00421 391,243.29697 388.11664,247 376.98759,247 362.76397,247 348.61953,240.74949 337.5,229.55021 324.18678,216.1415 320,204.03496 320,178.94703 c 0,-13.424 -0.23215,-15.82214 -1.58179,-16.34004 -2.35982,-0.90555 -13.7174,-0.70365 -15.25535,0.27119 -1.10389,0.69972 -0.1565,18.92386 5.43133,104.47722 l 6.76847,103.62966 -2.35564,2.50747 c -5.12463,5.45492 -12.97816,1.61135 -13.03088,-6.37739 -0.0553,-8.38199 -1.2153,-10.24084 -22.08812,-35.39559 -11.21341,-13.51377 -20.95039,-24.81486 -21.63772,-25.11352 -0.96604,-0.41977 -28.81386,31.74366 -42.10875,48.63438 -1.50954,1.91781 -5.49052,54.66255 -4.22817,56.01981 0.38888,0.41811 21.37995,0.64311 46.64684,0.5 L 302.5,411.5 l -0.31135,-3.89479 c -0.40152,-5.02282 1.30063,-9.05148 4.42599,-10.47549 3.54982,-1.61741 4.93743,-1.42014 7.88012,1.12028 2.051,1.77062 2.73187,3.47509 3.19567,8 l 0.58938,5.75 h 7.81087 c 12.23335,0 17.69269,1.54548 22.53802,6.38028 6.17883,6.16538 6.51717,9.0136 6.16832,51.92542 L 354.5,506.84145 352.07569,509.42072 349.65137,512 H 256 162.34863 Z M 191,485.12573 c 0,-16.05089 2.87127,-22.56074 12.18713,-27.63106 11.19774,-6.09458 26.00537,-1.73995 31.43267,9.24371 1.39505,2.82327 1.98612,6.87978 2.36945,16.26162 L 237.5,495.5 h 18.5 18.5 l 0.51075,-12.5 c 0.56836,-13.91017 1.92175,-18.0783 7.35871,-22.66316 4.60968,-3.88724 9.32641,-5.53684 15.8316,-5.53684 8.31232,0 15.07742,3.96856 19.22256,11.27638 2.89195,5.09848 3.09753,6.158 3.42921,17.67362 L 321.20565,496 H 330.10283 339 v -32.8 c 0,-24.17778 -0.31545,-33.11545 -1.2,-34 -0.91339,-0.91339 -20.3619,-1.2 -81.42857,-1.2 -71.60173,0 -80.39755,0.16897 -81.8,1.57143 -1.36261,1.3626 -1.57143,5.79221 -1.57143,33.33333 0,17.46905 0.3,32.06191 0.66667,32.42857 0.36666,0.36667 4.41666,0.66667 9,0.66667 H 191 Z M 296.99357,325.75 C 296.99003,323.9625 296.09292,309.225 295,293 c -1.09292,-16.225 -1.99003,-29.6125 -1.99357,-29.75 -0.0473,-1.8386 -4.10018,2.29376 -14.51558,14.80028 -11.03424,13.24962 -12.3817,15.26215 -11.26234,16.82114 3.61817,5.03917 28.33475,34.12858 28.99825,34.12858 0.42528,0 0.77034,-1.4625 0.76681,-3.25 z M 231.0162,310.98056 c 7.80057,-9.36069 13.96883,-17.57718 13.70725,-18.25886 -0.38951,-1.01504 -20.73552,-25.93811 -23.80078,-29.15503 -0.48914,-0.51334 -1.14829,-0.67438 -1.46479,-0.35788 -0.55173,0.55173 -4.38248,53.29676 -4.43328,61.04121 -0.0135,2.0625 0.3879,3.75 0.89207,3.75 0.50416,0 7.29895,-7.65875 15.09953,-17.01944 z M 273.92909,259.46936 291,238.93871 l -0.004,-6.71935 c -0.003,-4.77413 -0.53767,-7.58785 -1.84808,-9.71936 -4.64744,-7.55948 -32.44142,-45 -33.40577,-45 -0.59542,0 -7.32549,8.55 -14.9557,19 C 219.71978,225.35233 221,223.05129 221,232.0642 v 7.72132 l 16.73262,20.10724 C 246.93557,270.95174 255.00366,280 255.66171,280 c 0.65805,0 8.87837,-9.23879 18.26738,-20.53064 z m -37.90245,-82.50611 10.14292,-13.99057 -7.2181,-10.0402 C 229.83043,140.24536 228.30159,138.37122 227.62344,139.04597 227.03483,139.63164 224,180.39673 224,187.71755 c 0,2.49793 0.40722,4.14881 0.94186,3.81838 0.51803,-0.32016 5.50618,-6.87786 11.08478,-14.57268 z M 288,188.19196 c 0,-8.22038 -3.17089,-48.73578 -3.86998,-49.44801 C 283.33909,137.93818 266,161.06004 266,162.92052 266,164.37076 286.12782,192 287.18432,192 287.63294,192 288,190.28638 288,188.19196 Z m -18.33265,-57.56532 c 6.41583,-8.86965 12.08051,-16.67116 12.58818,-17.33668 0.85882,-1.12586 -0.57829,-34.052154 -1.83488,-42.03996 L 279.90937,68 H 255.97374 232.0381 l -0.47038,2.25 c -0.25871,1.2375 -1.00615,11.329007 -1.66097,22.425572 l -1.1906,20.175568 7.85423,10.82443 c 18.60696,25.6435 18.49856,25.5121 20.01122,24.2567 0.78133,-0.64844 6.66992,-8.43597 13.08575,-17.30563 z M 39.958389,246.57903 C 30.916996,239.42432 18.570074,222.84425 12.500187,209.70678 -6.3184278,168.97635 -3.0885001,121.80833 21.025729,85.204615 27.773247,74.962356 40.57198,61.396514 44.392133,60.437717 49.675621,59.111646 55.292117,65.667294 52.854818,70.315475 52.22481,71.516964 48.733579,75.65 45.096525,79.5 5.257567,121.67149 5.1619594,187.52962 44.877774,230.1838 c 8.308364,8.92306 9.433331,10.86773 8.185487,14.14981 C 52.004235,247.11906 48.371513,250 45.918224,250 c -0.900219,0 -3.582145,-1.53944 -5.959835,-3.42097 z m 422.201001,1.82006 c -3.14407,-2.20219 -4.45196,-5.9655 -3.02865,-8.71456 0.62206,-1.20149 4.14209,-5.33453 7.8223,-9.18453 19.53249,-20.43366 29.40828,-45.78781 29.40828,-75.5 0,-29.71219 -9.87579,-55.066342 -29.40828,-75.5 -3.68021,-3.85 -7.20024,-7.983036 -7.8223,-9.184525 -2.41266,-4.659949 3.20161,-11.201828 8.47713,-9.877758 3.82015,0.958797 16.61888,14.524639 23.3664,24.766898 24.09498,36.574495 27.32914,83.804245 8.52554,124.502165 -6.06988,13.13747 -18.41681,29.71754 -27.4582,36.87225 -4.83667,3.82739 -6.56254,4.14525 -9.88222,1.82006 z M 71.48027,216.14588 C 63.140476,211.07414 53.017293,196.0385 47.817291,181 c -3.196642,-9.24475 -3.284903,-9.94333 -3.284903,-26 0,-16.05667 0.08826,-16.75525 3.284903,-26 4.184968,-12.103 9.767734,-21.51808 17.537917,-29.576878 C 72.96425,91.531447 75.794389,90.640543 79.974832,94.820986 81.638674,96.484828 83,98.754848 83,99.865474 c 0,1.110626 -2.661188,5.063086 -5.91375,8.783236 -10.871908,12.43486 -16.636549,24.94862 -17.982085,39.03512 -1.941015,20.32061 3.997815,37.85432 18.334314,54.12993 C 80.497315,205.28632 83,208.97373 83,210.00799 c 0,2.31384 -3.792156,6.62901 -6.50335,7.4003 -1.114754,0.31713 -3.339796,-0.24282 -5.01638,-1.26241 z m 362.87673,0.86254 c -2.56453,-1.03492 -5.357,-4.7793 -5.357,-7.18313 0,-0.95133 2.5875,-4.64567 5.75,-8.20965 7.23679,-8.1555 11.65588,-15.42597 15.06225,-24.78104 2.43423,-6.68522 2.67069,-8.61838 2.67069,-21.8346 0,-13.21622 -0.23646,-15.14938 -2.67069,-21.8346 -3.40637,-9.35507 -7.82546,-16.62554 -15.06225,-24.78104 -3.1625,-3.56398 -5.75,-7.11228 -5.75,-7.88511 0,-5.209678 5.52904,-9.389204 10.11454,-7.645801 3.5817,1.361759 13.17353,12.093981 17.80424,19.921011 2.18846,3.69905 5.45723,11.00054 7.26393,16.22554 3.19664,9.24475 3.2849,9.94333 3.2849,26 0,16.05667 -0.0883,16.75525 -3.2849,26 -3.94382,11.40559 -9.35025,20.83382 -16.31928,28.45905 -4.23135,4.62977 -9.64471,8.77773 -11.06377,8.47756 -0.16481,-0.0349 -1.26401,-0.45255 -2.44266,-0.92819 z"
         id="path229" />
      <path
         style="fill:#050505"
         d="m 161.03896,509.81144 c -1.98305,-2.12855 -2.03851,-3.30075 -2.02251,-42.75 0.0163,-40.22614 0.0351,-40.59434 2.27038,-44.54106 3.69762,-6.52864 8.35997,-8.48445 20.27204,-8.50393 6.56998,-0.0107 10.66596,-0.46036 11.80918,-1.29631 1.57094,-1.14869 2.58141,-14.01853 9.86039,-125.58637 6.93164,-106.24397 7.90386,-124.43705 6.69082,-125.20483 -2.21516,-1.40207 -16.50025,-1.14284 -17.69189,0.32106 -0.56675,0.69624 -1.20895,9.22419 -1.44962,19.25 -0.36936,15.38679 -0.76031,18.94366 -2.69287,24.5 -6.10051,17.5397 -19.30858,30.92779 -36.65272,37.15226 -7.49808,2.69091 -20.56672,3.64887 -24.08575,1.76554 C 122.25575,242.19336 122,240.45537 122,208.58484 122,174.12145 123.16519,177 109.21496,177 99.397791,177 95.14969,175.94861 90.240769,172.30396 85.202826,168.56352 82.579204,162.66446 82.544794,155 c -0.03623,-8.06944 2.950744,-14.00341 9.28996,-18.4556 4.08593,-2.86964 5.004365,-3.0731 15.999996,-3.5444 6.41589,-0.275 12.22775,-0.86406 12.91525,-1.30902 0.72219,-0.46741 1.25,-2.89535 1.25,-5.75 C 122,120.1354 124.40039,117 128.84501,117 135.18941,117 135,115.27044 135,173.20374 c 0,28.90044 0.29142,54.00338 0.64761,55.78431 0.63995,3.19976 0.7047,3.23256 5.47598,2.7741 11.85612,-1.13923 25.90572,-12.26771 32.16135,-25.47455 L 176.5,199.5 V 155 110.5 L 172.89489,103 C 168.8009,94.48295 161.72788,86.802556 154.2104,82.711032 c -5.78826,-3.150367 -16.26241,-6.059018 -17.47004,-4.851394 -0.4705,0.470505 -1.11395,3.507066 -1.42988,6.747913 C 134.64776,91.405774 132.86197,94 128.84501,94 123.50154,94 122,91.137388 122,80.95034 122,66.92405 124.24947,64 135.03991,64 c 22.77748,0 44.48709,16.084474 52.66972,39.02257 2.43163,6.81649 2.70466,9.09266 3.089,25.75118 0.39349,17.05563 0.55569,18.34551 2.43326,19.35035 2.19977,1.17729 17.12563,0.85171 18.37822,-0.40088 0.42305,-0.42305 2.06268,-20.67133 3.64363,-44.9962 2.06677,-31.799723 3.26231,-44.825516 4.25476,-46.356984 1.11838,-1.725784 2.61701,-2.208711 7.89752,-2.544949 3.58447,-0.228242 6.87198,-0.76891 7.3056,-1.201486 0.43361,-0.432576 0.92321,-11.488965 1.088,-24.569755 0.27878,-22.1284978 0.43804,-23.9318196 2.28896,-25.9185496 2.54563,-2.73241414 5.29454,-2.71381506 7.87246,0.053265 C 247.89171,4.2608913 248,5.6113686 248,27.617133 248,54.281546 247.91463,54 256,54 c 7.40754,0 8,-1.067645 8,-14.416441 0,-12.31378 0.95422,-14.600655 6.07874,-14.568246 4.96154,0.03138 5.38745,1.064552 5.92126,14.363735 0.275,6.851323 0.85477,12.811124 1.28838,13.244002 0.43362,0.432879 3.72113,0.973795 7.3056,1.202037 5.28051,0.336238 6.77914,0.819165 7.89752,2.544949 0.99245,1.531468 2.18799,14.557261 4.25476,46.356984 1.58095,24.32487 3.22058,44.57315 3.64363,44.9962 1.25259,1.25259 16.17845,1.57817 18.37822,0.40088 1.87757,-1.00484 2.03977,-2.29472 2.43326,-19.35035 0.38434,-16.65852 0.65737,-18.93469 3.089,-25.75118 C 332.473,80.084474 354.18261,64 376.96009,64 389.85547,64 390,64.414438 390,101.39132 c 0,22.49438 0.29655,29.68257 1.25,30.29966 0.6875,0.44496 6.49936,1.03402 12.91525,1.30902 10.99563,0.4713 11.91407,0.67476 16,3.5444 6.33921,4.45219 9.32618,10.38616 9.28996,18.4556 -0.0344,7.66446 -2.65804,13.56352 -7.69598,17.30396 C 416.85031,175.94861 412.60221,177 402.78504,177 391.05929,177 390,177.61514 390,184.4244 c 0,6.00115 -1.86416,9.10474 -6.06323,10.09449 -1.75069,0.41265 -3.33568,-0.0211 -5,-1.36838 L 376.5,191.17795 376,134.33898 375.5,77.5 l -3,0.291349 C 357.5096,79.24716 342.24965,92.06388 336.83198,107.74864 334.53886,114.3875 334.5,115.17488 334.5,155 c 0,44.27463 0.0986,45.14923 6.29881,55.86451 6.00204,10.37281 19.71677,19.90209 30.07608,20.89749 l 4.82686,0.4638 0.561,-6.18678 c 0.87504,-9.65019 5.86358,-13.00359 11.2827,-7.58447 2.2253,2.22529 2.45455,3.25731 2.45455,11.04966 0,14.2037 -2.77335,17.08088 -15.68172,16.26883 -22.35027,-1.40604 -42.1913,-16.82119 -50.05864,-38.8922 -2.3813,-6.6805 -2.67072,-9.0888 -3.05021,-25.38084 -0.23403,-10.04705 -0.86885,-18.55229 -1.4368,-19.25 -1.19299,-1.46556 -15.47783,-1.7224 -17.69654,-0.31819 -1.21982,0.77202 -0.46337,15.64059 5.27756,103.73469 3.6858,56.55842 6.68906,103.396 6.67391,104.0835 -0.0473,2.14331 -3.90994,5.25 -6.52756,5.25 -4.2549,0 -6.5,-3.25882 -6.5,-9.4349 0,-2.9892 -0.40949,-6.4767 -0.90998,-7.75 -1.54927,-3.94154 -43.11334,-52.96039 -44.62248,-52.62581 -0.77079,0.17089 -10.93745,11.75047 -22.59256,25.73239 l -21.19112,25.42169 -1.82597,27.07831 c -1.00428,14.89308 -1.62058,27.64523 -1.36955,28.33813 0.36009,0.99391 10.43508,1.20497 47.73404,1 L 303.5,412.5 l 0.16908,-5.80004 c 0.23308,-7.99529 3.07998,-10.88646 8.63869,-8.77305 2.67878,1.01848 4.67544,5.82745 4.68665,11.28791 0.008,3.90861 2.50064,4.78288 13.68984,4.80163 11.64736,0.0195 16.35586,2.01867 20.02891,8.50393 2.2353,3.94672 2.25407,4.31492 2.27038,44.54106 0.016,39.44925 -0.0395,40.62145 -2.02251,42.75 L 348.92209,512 H 256 163.07791 Z M 192.14078,485 c 0.89731,-17.50442 3.23373,-22.45084 12.63826,-26.75638 10.74848,-4.92082 22.60643,-1.22192 28.21365,8.80078 2.20892,3.94838 2.53411,5.8786 2.85663,16.9556 0.23022,7.90715 0.78404,12.76994 1.50731,13.23469 0.62885,0.40408 9.01837,0.73468 18.64337,0.73468 9.625,0 18.01452,-0.3306 18.64337,-0.73468 0.72327,-0.46475 1.27709,-5.32754 1.50731,-13.23469 0.32252,-11.077 0.64771,-13.00722 2.85663,-16.9556 3.70865,-6.62907 9.32598,-10.14913 17.12334,-10.73019 8.71658,-0.64956 15.99125,2.94418 20.32251,10.03948 2.78766,4.56664 2.98736,5.60162 3.37664,17.5 0.25688,7.85186 0.84147,12.92484 1.54197,13.381 1.71132,1.11438 14.49357,0.90775 16.69397,-0.26987 1.85169,-0.991 1.93426,-2.42839 1.93426,-33.67126 0,-28.96489 -0.18617,-32.84179 -1.65499,-34.46482 C 336.76771,427.08584 332.89858,427 255.91644,427 c -72.0972,0 -80.94238,0.1688 -82.34501,1.57143 C 172.20569,429.93717 172,434.50758 172,463.4881 c 0,25.73061 0.28545,33.46465 1.25,33.86818 0.6875,0.28762 5.075,0.43762 9.75,0.33333 L 191.5,497.5 Z M 221.5,485.15953 c 0,-10.71227 -0.13078,-11.44625 -2.36078,-13.25 -3.07017,-2.48332 -7.20392,-2.42955 -9.95066,0.12943 -2.00644,1.86928 -2.18856,2.9963 -2.18856,13.5438 v 11.50486 l 7.25,-0.29381 7.25,-0.29381 z m 83.5,0.65492 c 0,-10.10816 -0.20943,-11.40847 -2.17431,-13.5 -2.6535,-2.82451 -6.76746,-2.99142 -9.96491,-0.40428 -2.14953,1.73925 -2.39163,2.81592 -2.70549,12.03201 -0.18959,5.56701 -0.0912,10.78243 0.21862,11.58983 0.42136,1.09806 2.33521,1.46799 7.59471,1.46799 H 305 Z m -7,-160.42613 c 0,-5.85368 -2.54324,-47.2872 -3.5686,-58.13832 -0.37815,-4.00185 -1.03819,-6.25 -1.83496,-6.25 -1.02885,0 -21.78718,23.74125 -26.46705,30.27029 -1.61947,2.25938 -1.16911,2.96796 11.26851,17.72971 14.81809,17.58705 18.76701,22 19.68666,22 C 297.58805,331 298,328.47474 298,325.38832 Z M 231.45744,312.10127 C 239.45585,302.53197 246,294.05308 246,293.25928 c 0,-1.65895 -23.72343,-30.21592 -25.74653,-30.99226 -0.73685,-0.28275 -1.59195,-0.26188 -1.90021,0.0464 -0.65021,0.65021 -4.26272,52.12457 -4.31681,61.50991 -0.029,5.03222 0.26113,6.25731 1.42099,6 0.80159,-0.17782 8.00159,-8.15275 16,-17.72205 z M 274.99936,260.00077 292,239.58033 v -7.66891 -7.66891 l -7.42424,-10.37126 C 264.27017,185.50549 257.31545,176.5 255.71485,176.5 c -1.07089,0 -8.01776,8.67931 -18.70911,23.37485 L 220,223.24969 l -0.15844,6.62516 c -0.0871,3.64383 -0.0821,7.47117 0.0113,8.50519 0.0933,1.03403 5.64087,8.45903 12.32787,16.5 20.5895,24.75846 22.85285,27.20057 24.40463,26.33215 0.77737,-0.43503 9.06369,-9.98017 18.41405,-21.21142 z M 289.24752,193.75 c 0.67889,-1.83883 -3.15285,-56.05533 -4.02321,-56.92569 -1.23821,-1.23821 -2.56294,0.20673 -11.62124,12.67569 -5.73271,7.89121 -8.58638,12.6848 -8.33433,14 0.43942,2.29295 21.50217,31.5 22.71631,31.5 0.44053,0 1.00865,-0.5625 1.26247,-1.25 z m -52.97628,-15.25753 c 6.27454,-8.62486 10.57563,-15.44915 10.25826,-16.27618 C 245.5809,159.74426 228.82403,137 227.95137,137 c -0.45834,0 -1.12343,0.46938 -1.47799,1.04308 -0.81291,1.3153 -4.28269,52.99994 -3.67552,54.74918 0.24671,0.71075 0.94807,1.12576 1.55859,0.92226 0.61052,-0.20351 5.97218,-7.05343 11.91479,-15.22205 z M 119.795,163.14786 c 0.92549,-0.58711 1.21083,-3.07943 1,-8.73469 L 120.5,146.5 h -9.8387 c -9.54093,0 -9.91169,0.0849 -12.250004,2.80576 C 97.085083,150.84893 96,153.37575 96,154.92091 c 0,3.44275 3.257204,7.79404 6.26993,8.37597 4.07913,0.78792 16.21074,0.68476 17.52507,-0.14902 z m 293.8473,-2.5184 c 3.02715,-3.51927 3.00706,-7.76234 -0.0536,-11.3237 -2.33831,-2.72084 -2.70907,-2.80576 -12.25,-2.80576 H 391.5 l -0.295,7.91317 c -0.20996,5.63194 0.0783,8.16844 1,8.79864 0.71225,0.48701 5.29654,0.72193 10.1873,0.52205 8.23791,-0.33667 9.06582,-0.56513 11.25,-3.1044 z M 267.2009,136 c 5.42784,-7.425 11.48586,-15.83773 13.46226,-18.69496 l 3.59346,-5.19495 -1.27184,-21.478263 c -0.69951,-11.813043 -1.64084,-22.075313 -2.09183,-22.805044 -1.20465,-1.949166 -48.58798,-1.938274 -49.79297,0.01145 -1.26556,2.047715 -3.56069,44.528597 -2.50323,46.332477 0.49679,0.84744 6.51431,9.26973 13.37228,18.71619 7.59408,10.46043 13.03476,17.06547 13.91605,16.89424 C 256.68094,149.62651 261.77306,143.425 267.2009,136 Z M 43.482748,248.04562 C 42.37326,247.60068 38.504397,244.09773 34.885276,240.26127 13.580056,217.67661 2.1377675,189.1832 1.248713,156.5 1.0392561,148.8 1.3148713,140.925 1.8611911,139 c 0.5463199,-1.925 1.5057604,-6.2 2.13209,-9.5 4.320354,-22.76304 16.9317259,-46.41071 33.0492459,-61.970863 7.044736,-6.801119 9.021949,-7.573132 12.734967,-4.972433 3.965704,2.777687 2.969105,6.869567 -3.330294,13.67367 C 32.360473,91.44572 22.33298,109.12282 17.364043,127.5 c -2.454526,9.07785 -2.703862,11.61376 -2.703862,27.5 0,15.94723 0.242091,18.3873 2.728404,27.5 5.006712,18.35034 13.529071,33.69895 27.317757,49.19879 C 50.238053,237.91697 52,240.60508 52,242.82634 c 0,4.28869 -4.287004,6.91572 -8.517252,5.21928 z M 463,247.70531 c -1.75805,-0.87967 -2.59367,-2.21767 -2.81562,-4.50838 -0.27351,-2.82289 0.57679,-4.22061 6.37379,-10.47719 9.20142,-9.93092 14.54853,-17.67772 19.86186,-28.77555 20.58509,-42.9956 12.82357,-92.0871 -20.07256,-126.958731 -7.28941,-7.72716 -8.32533,-11.643406 -3.85476,-14.572643 3.85443,-2.525517 6.5253,-1.162901 14.89785,7.600556 15.6535,16.384335 25.29067,35.109368 30.87316,59.986628 3.0332,13.51684 3.04325,36.68019 0.0216,49.77725 -5.97875,25.91423 -15.62017,44.40288 -31.76055,60.9049 -7.66245,7.83412 -9.74389,8.91498 -13.52476,7.02316 z M 66.942503,210.94097 C 57.954221,201.71304 51.586913,190.53734 47.775238,177.29918 44.810847,167.00369 44.533429,144.08795 47.251058,134 51.143837,119.54984 64.335993,98.463212 71.945214,94.528331 c 5.184022,-2.680762 11.112774,1.552911 9.465789,6.759439 -0.384887,1.21673 -3.357577,5.11465 -6.605976,8.66205 C 63.850198,121.913 57.680136,138.14448 57.680136,155 c 0,16.85552 6.170062,33.087 17.124891,45.05018 6.938257,7.5769 8.001263,10.07032 5.754848,13.49878 C 79.355733,215.38672 78.067668,216 75.412023,216 c -2.939735,0 -4.379596,-0.86006 -8.46952,-5.05903 z m 364.497617,2.60799 c -2.2365,-3.41333 -1.18348,-5.92178 5.59204,-13.3211 22.80719,-24.90696 22.74607,-66.16183 -0.13438,-90.69652 -6.55887,-7.03307 -7.68981,-9.67361 -5.54511,-12.94683 3.56884,-5.446736 9.24802,-3.430499 17.11843,6.07743 6.44843,7.79008 13.7062,21.77236 16.26662,31.33806 2.71913,10.15863 2.45182,33.06376 -0.50531,43.29918 -3.82987,13.2562 -10.19339,24.4208 -19.17491,33.64179 -4.08993,4.19897 -5.52979,5.05903 -8.46952,5.05903 -2.65565,0 -3.94371,-0.61328 -5.14786,-2.45104 z"
         id="path227" />
    </g>
  </g>
</svg>
