<?xml version="1.0" encoding="UTF-8" standalone="no"?>
<!-- Created with Inkscape (http://www.inkscape.org/) -->

<svg
   version="1.1"
   id="svg342"
   width="512"
   height="512"
   viewBox="0 0 512 512"
   xmlns="http://www.w3.org/2000/svg"
   xmlns:svg="http://www.w3.org/2000/svg">
  <defs
     id="defs346" />
  <g
     id="g348">
    <g
       id="g352">
      <path
         style="fill:#f6cd6b"
         d="m 13.741781,471.77578 c -2.298649,-1.33231 -4.5317616,-3.77621 -5.7499998,-6.29276 -1.8414929,-3.80401 -1.9910441,-6.1845 -1.9820123,-31.54874 0.00948,-26.62675 0.078405,-27.58167 2.3415409,-32.44156 2.6549042,-5.70118 7.8603282,-10.71658 13.0825092,-12.60495 L 25,387.59822 V 284.91783 182.23743 l -4.25,-1.07627 C 15.252487,179.76896 7.8942254,175.06456 5.119762,171.16819 2.203207,167.07227 0.02410994,159.60196 0.01082429,153.65391 -0.02571141,137.29668 10.178095,126.67407 27.40624,125.13409 L 34.5,124.5 35.04078,113 c 0.348071,-7.40193 1.122693,-12.81481 2.173742,-15.189613 C 40.684261,89.970648 50.737408,81.673558 59.25,79.624005 61.958346,78.971925 62,78.843758 62,71.162449 62,60.412303 64.020143,54.306144 69.647323,48.047365 76.745679,40.152286 80.388787,38.665059 93.806009,38.185061 104.84913,37.789996 105.26102,37.853947 111.52041,40.935433 122.88401,46.529714 127.18885,53.74317 127.97039,68.5 l 0.52961,10 h 17.43176 17.43176 L 167.49576,66 c 2.27274,-6.875 4.87478,-13.908898 5.78233,-15.630884 2.21965,-4.211595 6.97679,-8.068067 11.50296,-9.32511 5.09083,-1.413861 137.34707,-1.413861 142.4379,0 4.54238,1.261544 9.3022,5.130183 11.47324,9.32511 0.8912,1.721986 3.50224,8.755884 5.80232,15.630884 l 4.18196,12.5 H 366.08823 383.5 l 0.51602,-10 c 0.78801,-15.27097 5.38922,-22.591466 17.75906,-28.254568 4.9079,-2.246911 6.3214,-2.422585 16.54564,-2.056348 13.27734,0.4756 16.95106,1.982617 24.03196,9.858281 C 447.97986,54.306144 450,60.412303 450,71.162449 c 0,7.681309 0.0417,7.809476 2.75,8.461556 8.51259,2.049553 18.56574,10.346643 22.03548,18.186382 1.05105,2.374803 1.82567,7.787683 2.17374,15.189613 l 0.54078,11.5 7.09376,0.63409 c 17.22814,1.53998 27.43195,12.16259 27.39542,28.51982 -0.0133,5.94805 -2.19239,13.41836 -5.10894,17.51428 -2.77447,3.89637 -10.13273,8.60077 -15.63024,9.99297 l -4.25,1.07627 v 103.3556 103.35561 l 2.75,1.44036 c 3.97666,2.08285 8.90858,7.53545 10.69932,11.82888 1.27931,3.06724 1.55068,8.77273 1.55068,32.60212 0,28.31068 -0.0447,28.94969 -2.25,32.18051 -1.2375,1.81295 -3.81798,4.12949 -5.7344,5.14788 -3.36337,1.7873 -11.69958,1.85081 -240,1.82864 L 17.5,473.95406 Z m 253.716359,-48.6439 c 0.32611,-1.02746 1.52854,-2.71496 2.67208,-3.75 1.99121,-1.80228 5.617,-1.90303 85.72447,-2.38188 L 439.5,416.5 440.11592,410 c 0.72898,-7.69307 1.75246,-10.50169 5.4115,-14.85022 3.75894,-4.46725 9.86362,-7.36725 16.97258,-8.06276 l 6,-0.58702 v -102 -102 L 369.90345,182 c -104.61804,-0.53054 -100.92668,-0.3471 -102.43211,-5.09031 -0.53151,-1.67462 -1.61334,-1.90969 -8.78873,-1.90966 -8.1508,3e-5 -8.19345,0.0136 -10.97143,3.49522 l -2.78882,3.49519 -100.71118,0.25478 L 43.5,182.5 l -0.254697,102.11343 -0.254696,102.11343 4.673729,0.64061 c 12.194026,1.67138 21.209293,12.83196 21.311218,26.38253 L 69,417 h 86.54966 c 93.89607,0 90.67708,-0.1873 93.23422,5.425 1.1259,2.47109 1.5144,2.575 9.62729,2.575 7.37685,0 8.5296,-0.23803 9.04697,-1.86812 z m -32.71628,-41.66274 c -4.38016,-4.38016 -4.20373,-7.01842 2.26241,-33.83216 3.29765,-13.67466 5.99573,-25.03716 5.99573,-25.25 0,-0.21284 -7.5375,-0.39772 -16.75,-0.41084 -19.69764,-0.0281 -23.75194,-0.75618 -27.5,-4.93883 -3.25755,-3.63527 -3.58014,-7.98615 -0.97149,-13.10287 2.46317,-4.83137 62.85241,-83.49896 65.99663,-85.9722 4.79759,-3.77379 10.41625,-3.77085 14.19452,0.007 3.95258,3.95258 3.64506,7.65093 -2.85591,34.34552 -3.37331,13.85165 -6.1289,25.52232 -6.12352,25.93482 0.005,0.4125 7.4605,0.75 16.56695,0.75 9.10645,0 18.56273,0.505 21.01396,1.12223 7.92668,1.99596 11.36903,8.8059 8.13376,16.09087 -2.02358,4.55654 -60.59089,80.53346 -64.96765,84.27981 -5.26867,4.50979 -11.08329,4.88833 -14.99539,0.97623 z M 394.88122,281.1049 c -1.81857,-1.47258 -2.45638,-3.20046 -2.86079,-7.75 L 391.5,267.5 l -5,-0.58901 c -6.62299,-0.78019 -8.29244,-1.60893 -10.03699,-4.98251 -2.06158,-3.98666 -1.84647,-5.47638 1.28699,-8.91294 2.14654,-2.35418 3.95693,-3.18247 8.25,-3.77456 l 5.5,-0.75855 0.27377,-4.49121 c 0.34164,-5.60447 1.74936,-8.45291 4.88315,-9.88076 3.89533,-1.77483 6.29414,-1.31325 9.42,1.81262 2.4631,2.46309 2.92308,3.72199 2.92308,8 0,4.87044 0.11184,5.07715 2.75,5.0825 8.16211,0.0165 13.25,3.68083 13.25,9.54261 0,4.72615 -3.76632,7.68496 -10.49231,8.24273 L 409,267.24766 v 4.95309 c 0,4.14114 -0.47918,5.43227 -2.92308,7.87617 -3.44893,3.44894 -7.72147,3.84124 -11.1957,1.02798 z M 86.356999,266.00842 c -7.759127,-3.1312 -6.536405,-13.80593 1.839728,-16.06139 2.508447,-0.67546 9.871411,-0.99045 18.390093,-0.78675 12.51711,0.29932 14.47052,0.57758 16.42472,2.33972 3.18124,2.86858 4.09084,5.90787 2.84107,9.49297 -1.80798,5.18637 -4.88168,6.01478 -22.05295,5.94364 -8.414813,-0.0349 -16.264011,-0.45255 -17.442661,-0.92819 z M 330,77.743351 c 0,-2.706305 -5.89488,-19.06156 -7.15912,-19.862852 -0.73748,-0.46743 -30.89624,-0.856764 -67.01945,-0.865186 -57.36384,-0.01337 -65.87046,0.176571 -67.19428,1.500391 C 187.25141,59.891447 182,75.247454 182,77.894614 182,78.691837 202.62997,79 256,79 c 58.74217,0 74,-0.259105 74,-1.256649 z M 97,69.967881 C 97,60.856688 95.072092,56 91.455319,56 c -3.240151,0 -7.665151,2.505094 -9.437219,5.342625 -0.724625,1.160309 -1.535601,5.157891 -1.802168,8.883514 L 79.731265,77 H 88.365633 97 Z"
         id="path366" />
      <path
         style="fill:#9f9fa0"
         d="m 13.741781,471.77578 c -2.298649,-1.33231 -4.5317616,-3.77621 -5.7499998,-6.29276 -1.8414929,-3.80401 -1.9910441,-6.1845 -1.9820123,-31.54874 0.00948,-26.62675 0.078405,-27.58167 2.3415409,-32.44156 2.6549042,-5.70118 7.8603282,-10.71658 13.0825092,-12.60495 L 25,387.59822 V 284.91783 182.23743 l -4.25,-1.07627 C 15.252487,179.76896 7.8942254,175.06456 5.119762,171.16819 2.203207,167.07227 0.02410994,159.60196 0.01082429,153.65391 -0.02571141,137.29668 10.178095,126.67407 27.40624,125.13409 L 34.5,124.5 35.04078,113 c 0.348071,-7.40193 1.122693,-12.81481 2.173742,-15.189613 C 40.684261,89.970648 50.737408,81.673558 59.25,79.624005 61.958346,78.971925 62,78.843758 62,71.162449 62,60.412303 64.020143,54.306144 69.647323,48.047365 76.745679,40.152286 80.388787,38.665059 93.806009,38.185061 104.84913,37.789996 105.26102,37.853947 111.52041,40.935433 122.88401,46.529714 127.18885,53.74317 127.97039,68.5 l 0.52961,10 h 17.43176 17.43176 L 167.49576,66 c 2.27274,-6.875 4.87478,-13.908898 5.78233,-15.630884 2.21965,-4.211595 6.97679,-8.068067 11.50296,-9.32511 5.09083,-1.413861 137.34707,-1.413861 142.4379,0 4.54238,1.261544 9.3022,5.130183 11.47324,9.32511 0.8912,1.721986 3.50224,8.755884 5.80232,15.630884 l 4.18196,12.5 H 366.08823 383.5 l 0.51602,-10 c 0.78801,-15.27097 5.38922,-22.591466 17.75906,-28.254568 4.9079,-2.246911 6.3214,-2.422585 16.54564,-2.056348 13.27734,0.4756 16.95106,1.982617 24.03196,9.858281 C 447.97986,54.306144 450,60.412303 450,71.162449 c 0,7.681309 0.0417,7.809476 2.75,8.461556 8.51259,2.049553 18.56574,10.346643 22.03548,18.186382 1.05105,2.374803 1.82567,7.787683 2.17374,15.189613 l 0.54078,11.5 7.09376,0.63409 c 17.22814,1.53998 27.43195,12.16259 27.39542,28.51982 -0.0133,5.94805 -2.19239,13.41836 -5.10894,17.51428 -2.77447,3.89637 -10.13273,8.60077 -15.63024,9.99297 l -4.25,1.07627 v 103.3556 103.35561 l 2.75,1.44036 c 3.97666,2.08285 8.90858,7.53545 10.69932,11.82888 1.27931,3.06724 1.55068,8.77273 1.55068,32.60212 0,28.31068 -0.0447,28.94969 -2.25,32.18051 -1.2375,1.81295 -3.81798,4.12949 -5.7344,5.14788 -3.36337,1.7873 -11.69958,1.85081 -240,1.82864 L 17.5,473.95406 Z m 253.716359,-48.6439 c 0.32611,-1.02746 1.52854,-2.71496 2.67208,-3.75 1.99121,-1.80228 5.617,-1.90303 85.72447,-2.38188 L 439.5,416.5 440.11592,410 c 0.72898,-7.69307 1.75246,-10.50169 5.4115,-14.85022 3.75894,-4.46725 9.86362,-7.36725 16.97258,-8.06276 l 6,-0.58702 v -102 -102 L 369.90345,182 c -104.61804,-0.53054 -100.92668,-0.3471 -102.43211,-5.09031 -0.53151,-1.67462 -1.61334,-1.90969 -8.78873,-1.90966 -8.1508,3e-5 -8.19345,0.0136 -10.97143,3.49522 l -2.78882,3.49519 -100.71118,0.25478 L 43.5,182.5 l -0.254697,102.11343 -0.254696,102.11343 4.673729,0.64061 c 12.194026,1.67138 21.209293,12.83196 21.311218,26.38253 L 69,417 h 86.54966 c 93.89607,0 90.67708,-0.1873 93.23422,5.425 1.1259,2.47109 1.5144,2.575 9.62729,2.575 7.37685,0 8.5296,-0.23803 9.04697,-1.86812 z m -32.71628,-41.66274 c -4.38016,-4.38016 -4.20373,-7.01842 2.26241,-33.83216 3.29765,-13.67466 5.99573,-25.03716 5.99573,-25.25 0,-0.21284 -7.5375,-0.39772 -16.75,-0.41084 -19.69764,-0.0281 -23.75194,-0.75618 -27.5,-4.93883 -3.25755,-3.63527 -3.58014,-7.98615 -0.97149,-13.10287 2.46317,-4.83137 62.85241,-83.49896 65.99663,-85.9722 4.79759,-3.77379 10.41625,-3.77085 14.19452,0.007 3.95258,3.95258 3.64506,7.65093 -2.85591,34.34552 -3.37331,13.85165 -6.1289,25.52232 -6.12352,25.93482 0.005,0.4125 7.4605,0.75 16.56695,0.75 9.10645,0 18.56273,0.505 21.01396,1.12223 7.92668,1.99596 11.36903,8.8059 8.13376,16.09087 -2.02358,4.55654 -60.59089,80.53346 -64.96765,84.27981 -5.26867,4.50979 -11.08329,4.88833 -14.99539,0.97623 z m 41.17119,-61.33862 c 9.38152,-12.30321 16.81241,-22.76571 16.51311,-23.25 C 292.12685,296.39623 284.46118,296 275.39132,296 c -18.26007,0 -21.16393,-0.7258 -23.87439,-5.96727 -2.07195,-4.00671 -1.96205,-5.38661 1.53106,-19.2228 1.67639,-6.64019 2.90927,-12.79333 2.73974,-13.67364 -0.1819,-0.94453 -7.79347,8.15073 -18.57059,22.19049 -10.0443,13.08507 -18.00062,24.21453 -17.68073,24.73213 0.32375,0.52384 7.58379,0.94109 16.37472,0.94109 14.7837,0 16.00934,0.14573 19.17642,2.28002 4.0751,2.74621 5.87837,6.02465 5.89641,10.71998 0.0111,2.87954 -3.25912,18.3068 -5.61732,26.5 l -0.57565,2 2.03238,-2 c 1.11782,-1.1 9.70817,-12.06627 19.08968,-24.36948 z M 394.88122,281.1049 c -1.81857,-1.47258 -2.45638,-3.20046 -2.86079,-7.75 L 391.5,267.5 l -5,-0.58901 c -6.62299,-0.78019 -8.29244,-1.60893 -10.03699,-4.98251 -2.06158,-3.98666 -1.84647,-5.47638 1.28699,-8.91294 2.14654,-2.35418 3.95693,-3.18247 8.25,-3.77456 l 5.5,-0.75855 0.27377,-4.49121 c 0.34164,-5.60447 1.74936,-8.45291 4.88315,-9.88076 3.89533,-1.77483 6.29414,-1.31325 9.42,1.81262 2.4631,2.46309 2.92308,3.72199 2.92308,8 0,4.87044 0.11184,5.07715 2.75,5.0825 8.16211,0.0165 13.25,3.68083 13.25,9.54261 0,4.72615 -3.76632,7.68496 -10.49231,8.24273 L 409,267.24766 v 4.95309 c 0,4.14114 -0.47918,5.43227 -2.92308,7.87617 -3.44893,3.44894 -7.72147,3.84124 -11.1957,1.02798 z M 86.356999,266.00842 c -7.759127,-3.1312 -6.536405,-13.80593 1.839728,-16.06139 2.508447,-0.67546 9.871411,-0.99045 18.390093,-0.78675 12.51711,0.29932 14.47052,0.57758 16.42472,2.33972 3.18124,2.86858 4.09084,5.90787 2.84107,9.49297 -1.80798,5.18637 -4.88168,6.01478 -22.05295,5.94364 -8.414813,-0.0349 -16.264011,-0.45255 -17.442661,-0.92819 z M 459.5,115 c 0,-8.22572 -0.29916,-9.9194 -2.23031,-12.62671 C 452.35016,95.476484 468.91992,96 255.54921,96 46.173257,96 60.494256,95.608464 55,101.48301 c -2.277069,2.43468 -2.530416,3.60261 -2.841094,13.09743 L 51.817811,125.00483 255.65891,124.75241 459.5,124.5 Z M 330,77.743351 c 0,-2.706305 -5.89488,-19.06156 -7.15912,-19.862852 -0.73748,-0.46743 -30.89624,-0.856764 -67.01945,-0.865186 -57.36384,-0.01337 -65.87046,0.176571 -67.19428,1.500391 C 187.25141,59.891447 182,75.247454 182,77.894614 182,78.691837 202.62997,79 256,79 c 58.74217,0 74,-0.259105 74,-1.256649 z M 97,69.967881 C 97,60.856688 95.072092,56 91.455319,56 c -3.240151,0 -7.665151,2.505094 -9.437219,5.342625 -0.724625,1.160309 -1.535601,5.157891 -1.802168,8.883514 L 79.731265,77 H 88.365633 97 Z"
         id="path364" />
      <path
         style="fill:#cf6c64"
         d="M 13.897883,470.73007 C 7.1416811,466.21663 6.9091112,464.90237 7.2211976,433 7.463108,408.27121 7.7277023,404.08399 9.2208037,401.35612 c 2.5862323,-4.725 7.6568513,-9.37475 12.4760293,-11.44049 L 26,388.07107 V 284.69949 181.3279 l -6.096146,-1.69488 C 14.998646,178.26925 12.786456,176.91689 8.5801468,172.71058 -2.2769521,161.85348 -2.877147,146.95837 7.0863654,135.63922 12.372524,129.63383 18.343033,126.89459 27.826563,126.12373 L 35.5,125.5 l 0.55236,-12 c 0.446656,-9.70358 0.974094,-12.80799 2.75614,-16.222196 4.351565,-8.337116 9.834279,-12.740234 21.318839,-17.120964 2.533243,-0.966294 2.642036,-1.338242 3.037733,-10.38551 0.491937,-11.247733 3.572334,-18.678788 10.036586,-24.211946 6.199462,-5.306509 12.074412,-6.856571 24.137876,-6.368599 11.341136,0.458753 14.685506,1.680427 20.995196,7.6694 6.02546,5.719185 7.95341,10.348764 8.38704,20.139815 0.63942,14.437215 -1.43617,13 18.77423,13 20.59453,0 18.40775,1.466879 23.85232,-16 4.10925,-13.183013 6.95252,-17.930866 12.34062,-20.607081 C 185.31954,41.589632 188.83827,41.5 256,41.5 c 67.16173,0 70.68046,0.08963 74.31106,1.892919 5.3881,2.676215 8.23137,7.424068 12.34062,20.607081 5.44457,17.466879 3.25779,16 23.85232,16 20.2104,0 18.13481,1.437215 18.77423,-13 0.43363,-9.791051 2.36158,-14.42063 8.38704,-20.139815 6.30969,-5.988973 9.65406,-7.210647 20.9952,-7.6694 12.06346,-0.487972 17.93841,1.06209 24.13787,6.368599 6.3863,5.466432 9.46028,12.830474 10.13669,24.283489 l 0.56497,9.566228 6.10954,2.329295 c 7.72059,2.943515 13.14507,7.568478 16.89263,14.402802 2.65961,4.850252 2.98873,6.497592 3.46815,17.358802 l 0.52968,12 7.67344,0.62373 c 9.52135,0.77394 15.45568,3.51197 20.81993,9.60608 4.24193,4.81909 7.00663,12.02952 7.00663,18.27355 0,11.01277 -8.99633,22.5971 -19.90385,25.62966 L 486,181.3279 v 103.74225 103.74224 l 5.0678,3.64085 c 3.61223,2.59513 5.76357,5.13525 7.49023,8.84381 2.38115,5.11428 2.42253,5.68013 2.42846,33.20295 0.006,26.18539 -0.12275,28.21122 -1.98109,31.25914 -1.09292,1.79253 -3.45373,4.15334 -5.24626,5.24626 -3.22781,1.96802 -5.53371,1.98716 -239.86126,1.99086 L 17.295766,473 Z M 268.07981,423.5893 c 1.1068,-1.87588 2.77912,-3.78838 3.71628,-4.25 C 272.73324,418.87769 311.075,418.275 357,418 l 83.5,-0.5 0.64947,-7.27209 c 1.17987,-13.2111 8.87178,-20.80214 22.27814,-21.986 3.33981,-0.29493 6.403,-1.03251 6.80708,-1.63907 0.40408,-0.60656 0.74158,-46.57534 0.75,-102.15284 0.0117,-77.27832 -0.26699,-101.3323 -1.18469,-102.25 -0.9169,-0.9169 -24.17016,-1.2 -98.56574,-1.2 -64.86698,0 -98.00791,-0.34367 -99.28965,-1.02964 -1.05815,-0.56631 -2.61512,-2.36631 -3.45994,-4 C 266.95449,173.01131 266.91447,173 257.97432,173 253.03844,173 249,173.41547 249,173.92327 c 0,0.50781 -1.165,2.30781 -2.58889,4 L 243.82221,181 H 143.61111 C 67.002468,181 43.117367,181.28263 42.2,182.2 c -0.917704,0.9177 -1.196398,24.97168 -1.184687,102.25 0.0084,55.5775 0.345922,101.54418 0.75,102.14818 0.404078,0.604 2.688482,1.40342 5.076453,1.77649 C 58.678724,390.22395 67,399.31022 67,410.38609 c 0,2.44769 0.273145,5.16214 0.606989,6.03212 0.547008,1.42548 9.137626,1.58179 86.934901,1.58179 50.10526,0 87.34288,0.38589 88.74684,0.91968 1.33041,0.50582 3.36953,2.53082 4.53138,4.5 L 249.93255,427 H 258 h 8.06745 z m -32.62526,-43.04385 c -3.64548,-3.64547 -3.2223,-8.39494 3.04545,-34.18003 3.025,-12.44463 5.5,-23.24284 5.5,-23.99601 0,-1.10125 -3.18216,-1.37794 -16.25,-1.41296 -20.15121,-0.054 -24.30888,-0.77914 -27.97164,-4.87848 -3.39631,-3.80113 -3.51934,-7.25066 -0.44863,-12.57797 2.65918,-4.61334 57.3751,-76.33276 62.05204,-81.33532 6.04848,-6.46957 10.78972,-7.64157 15.2819,-3.77755 2.43378,2.09345 2.75946,3.0469 2.6472,7.75 -0.0704,2.94958 -2.64271,15.48787 -5.71624,27.86287 -3.07353,12.375 -5.58967,23.22928 -5.59143,24.12062 -0.003,1.42368 2.36873,1.67499 19.51443,2.06792 17.64147,0.40429 19.78029,0.64236 22.25,2.47653 1.50281,1.11609 3.40612,3.21664 4.22959,4.66789 1.33286,2.34897 1.32798,3.1093 -0.0444,6.92577 -2.06963,5.75539 -61.94413,83.95475 -66.38054,86.69661 -4.52377,2.79584 -9.06563,2.64221 -12.11772,-0.40989 z m 40.4585,-60.41493 c 9.38152,-12.30321 16.81241,-22.76571 16.51311,-23.25 C 292.12685,296.39623 284.46118,296 275.39132,296 c -18.26007,0 -21.16393,-0.7258 -23.87439,-5.96727 -2.07195,-4.00671 -1.96205,-5.38661 1.53106,-19.2228 1.67639,-6.64019 2.90927,-12.79333 2.73974,-13.67364 -0.1819,-0.94453 -7.79347,8.15073 -18.57059,22.19049 -10.0443,13.08507 -18.00062,24.21453 -17.68073,24.73213 0.32375,0.52384 7.58379,0.94109 16.37472,0.94109 14.7837,0 16.00934,0.14573 19.17642,2.28002 4.0751,2.74621 5.87837,6.02465 5.89641,10.71998 0.0111,2.87954 -3.25912,18.3068 -5.61732,26.5 l -0.57565,2 2.03238,-2 c 1.11782,-1.1 9.70817,-12.06627 19.08968,-24.36948 z M 395.88122,280.1049 c -1.81857,-1.47258 -2.45638,-3.20046 -2.86079,-7.75 L 392.5,266.5 386.72137,265.87908 C 379.51288,265.10451 377,263.04244 377,257.90172 377,253.09119 379.73379,251 386.02251,251 391.78791,251 393,249.7685 393,243.91078 c 0,-5.3671 2.04729,-8.48177 6.22483,-9.47023 2.18421,-0.51681 3.32505,-0.0445 5.75,2.38044 2.5553,2.55529 3.02517,3.79709 3.02517,7.9951 0,5.6194 0.67621,6.18391 7.40747,6.18391 6.70494,0 10.53144,5.5086 7.61364,10.96056 C 421.80402,264.2347 416.92242,266 411.85078,266 H 408 v 4.54966 c 0,9.66679 -6.0703,14.45301 -12.11878,9.55524 z M 87.356999,265.04319 C 84.81861,263.97764 82,260.22571 82,257.91235 c 0,-0.90345 0.932661,-2.82832 2.07258,-4.27749 L 86.14516,251 h 17.42742 c 16.09409,0 17.58044,0.15302 19.42742,2 2.69374,2.69374 2.64165,8.1085 -0.10193,10.59501 -1.8534,1.67975 -3.95212,1.93117 -17.75,2.12637 -8.606439,0.12176 -16.612421,-0.18342 -17.791071,-0.67819 z M 459.5,115 c 0,-8.22572 -0.29916,-9.9194 -2.23031,-12.62671 C 452.35016,95.476484 468.91992,96 255.54921,96 46.173257,96 60.494256,95.608464 55,101.48301 c -2.277069,2.43468 -2.530416,3.60261 -2.841094,13.09743 L 51.817811,125.00483 255.65891,124.75241 459.5,124.5 Z M 331,78.051622 C 331,74.888891 325.92746,59.650911 324.24183,57.75 322.79319,56.11634 318.25648,56 256,56 193.73342,56 189.2088,56.116075 187.78468,57.75 185.98549,59.81425 181,74.51306 181,77.753409 V 80 h 75 c 73.67096,0 75,-0.03453 75,-1.948378 z M 111.77059,72 C 112.26769,60.059118 107.68028,54.967298 95.816035,54.291173 84.141029,53.625832 79.422137,57.673587 78.337994,69.283427 77.374033,79.60626 76.458797,79.091942 95.228161,78.774876 L 111.5,78.5 Z"
         id="path362" />
      <path
         style="fill:#5c5c5d"
         d="M 13.897883,470.73007 C 7.1416811,466.21663 6.9091112,464.90237 7.2211976,433 7.463108,408.27121 7.7277023,404.08399 9.2208037,401.35612 c 2.5862323,-4.725 7.6568513,-9.37475 12.4760293,-11.44049 L 26,388.07107 V 284.69949 181.3279 l -6.096146,-1.69488 C 14.998646,178.26925 12.786456,176.91689 8.5801468,172.71058 -2.2769521,161.85348 -2.877147,146.95837 7.0863654,135.63922 12.372524,129.63383 18.343033,126.89459 27.826563,126.12373 L 35.5,125.5 l 0.55236,-12 c 0.446656,-9.70358 0.974094,-12.80799 2.75614,-16.222196 4.351565,-8.337116 9.834279,-12.740234 21.318839,-17.120964 2.533243,-0.966294 2.642036,-1.338242 3.037733,-10.38551 0.491937,-11.247733 3.572334,-18.678788 10.036586,-24.211946 6.199462,-5.306509 12.074412,-6.856571 24.137876,-6.368599 11.341136,0.458753 14.685506,1.680427 20.995196,7.6694 6.02546,5.719185 7.95341,10.348764 8.38704,20.139815 0.63942,14.437215 -1.43617,13 18.77423,13 20.59453,0 18.40775,1.466879 23.85232,-16 4.10925,-13.183013 6.95252,-17.930866 12.34062,-20.607081 C 185.31954,41.589632 188.83827,41.5 256,41.5 c 67.16173,0 70.68046,0.08963 74.31106,1.892919 5.3881,2.676215 8.23137,7.424068 12.34062,20.607081 5.44457,17.466879 3.25779,16 23.85232,16 20.2104,0 18.13481,1.437215 18.77423,-13 0.43363,-9.791051 2.36158,-14.42063 8.38704,-20.139815 6.30969,-5.988973 9.65406,-7.210647 20.9952,-7.6694 12.06346,-0.487972 17.93841,1.06209 24.13787,6.368599 6.3863,5.466432 9.46028,12.830474 10.13669,24.283489 l 0.56497,9.566228 6.10954,2.329295 c 7.72059,2.943515 13.14507,7.568478 16.89263,14.402802 2.65961,4.850252 2.98873,6.497592 3.46815,17.358802 l 0.52968,12 7.67344,0.62373 c 9.52135,0.77394 15.45568,3.51197 20.81993,9.60608 4.24193,4.81909 7.00663,12.02952 7.00663,18.27355 0,11.01277 -8.99633,22.5971 -19.90385,25.62966 L 486,181.3279 v 103.74225 103.74224 l 5.0678,3.64085 c 3.61223,2.59513 5.76357,5.13525 7.49023,8.84381 2.38115,5.11428 2.42253,5.68013 2.42846,33.20295 0.006,26.18539 -0.12275,28.21122 -1.98109,31.25914 -1.09292,1.79253 -3.45373,4.15334 -5.24626,5.24626 -3.22781,1.96802 -5.53371,1.98716 -239.86126,1.99086 L 17.295766,473 Z M 268.07981,423.5893 c 1.1068,-1.87588 2.77912,-3.78838 3.71628,-4.25 C 272.73324,418.87769 311.075,418.275 357,418 l 83.5,-0.5 0.64947,-7.27209 c 1.17987,-13.2111 8.87178,-20.80214 22.27814,-21.986 3.33981,-0.29493 6.403,-1.03251 6.80708,-1.63907 0.40408,-0.60656 0.74158,-46.57534 0.75,-102.15284 0.0117,-77.27832 -0.26699,-101.3323 -1.18469,-102.25 -0.9169,-0.9169 -24.17016,-1.2 -98.56574,-1.2 -64.86698,0 -98.00791,-0.34367 -99.28965,-1.02964 -1.05815,-0.56631 -2.61512,-2.36631 -3.45994,-4 C 266.95449,173.01131 266.91447,173 257.97432,173 253.03844,173 249,173.41547 249,173.92327 c 0,0.50781 -1.165,2.30781 -2.58889,4 L 243.82221,181 H 143.61111 C 67.002468,181 43.117367,181.28263 42.2,182.2 c -0.917704,0.9177 -1.196398,24.97168 -1.184687,102.25 0.0084,55.5775 0.345922,101.54418 0.75,102.14818 0.404078,0.604 2.688482,1.40342 5.076453,1.77649 C 58.678724,390.22395 67,399.31022 67,410.38609 c 0,2.44769 0.273145,5.16214 0.606989,6.03212 0.547008,1.42548 9.137626,1.58179 86.934901,1.58179 50.10526,0 87.34288,0.38589 88.74684,0.91968 1.33041,0.50582 3.36953,2.53082 4.53138,4.5 L 249.93255,427 H 258 h 8.06745 z m -32.62526,-43.04385 c -3.64548,-3.64547 -3.2223,-8.39494 3.04545,-34.18003 3.025,-12.44463 5.5,-23.24284 5.5,-23.99601 0,-1.10125 -3.18216,-1.37794 -16.25,-1.41296 -20.15121,-0.054 -24.30888,-0.77914 -27.97164,-4.87848 -3.39631,-3.80113 -3.51934,-7.25066 -0.44863,-12.57797 2.65918,-4.61334 57.3751,-76.33276 62.05204,-81.33532 6.04848,-6.46957 10.78972,-7.64157 15.2819,-3.77755 2.43378,2.09345 2.75946,3.0469 2.6472,7.75 -0.0704,2.94958 -2.64271,15.48787 -5.71624,27.86287 -3.07353,12.375 -5.58967,23.22928 -5.59143,24.12062 -0.003,1.42368 2.36873,1.67499 19.51443,2.06792 17.64147,0.40429 19.78029,0.64236 22.25,2.47653 1.50281,1.11609 3.40612,3.21664 4.22959,4.66789 1.33286,2.34897 1.32798,3.1093 -0.0444,6.92577 -2.06963,5.75539 -61.94413,83.95475 -66.38054,86.69661 -4.52377,2.79584 -9.06563,2.64221 -12.11772,-0.40989 z m 39.05968,-57.46644 c 10.27387,-13.43154 18.90926,-25.01904 19.18976,-25.75 0.41089,-1.07077 -2.57114,-1.33009 -15.347,-1.33459 -18.64946,-0.007 -22.68844,-0.85008 -25.40527,-5.30579 -2.63459,-4.32083 -2.49706,-6.35451 1.5422,-22.80479 3.29768,-13.43009 3.64043,-16.49833 1.59936,-14.31717 -2.7989,2.991 -38.09328,49.83431 -38.09328,50.55805 0,0.48141 6.4125,0.88602 14.25,0.89914 17.15761,0.0287 21.34056,0.85508 25,4.93883 3.64702,4.06989 3.60133,8.58389 -0.25,24.69932 -1.65,6.90423 -3,12.76724 -3,13.0289 0,1.77774 3.99286,-3.01269 20.51423,-24.6119 z M 395.88122,280.1049 c -1.81857,-1.47258 -2.45638,-3.20046 -2.86079,-7.75 L 392.5,266.5 386.72137,265.87908 C 379.51288,265.10451 377,263.04244 377,257.90172 377,253.09119 379.73379,251 386.02251,251 391.78791,251 393,249.7685 393,243.91078 c 0,-5.3671 2.04729,-8.48177 6.22483,-9.47023 2.18421,-0.51681 3.32505,-0.0445 5.75,2.38044 2.5553,2.55529 3.02517,3.79709 3.02517,7.9951 0,5.6194 0.67621,6.18391 7.40747,6.18391 6.70494,0 10.53144,5.5086 7.61364,10.96056 C 421.80402,264.2347 416.92242,266 411.85078,266 H 408 v 4.54966 c 0,9.66679 -6.0703,14.45301 -12.11878,9.55524 z M 87.356999,265.04319 C 84.81861,263.97764 82,260.22571 82,257.91235 c 0,-0.90345 0.932661,-2.82832 2.07258,-4.27749 L 86.14516,251 h 17.42742 c 16.09409,0 17.58044,0.15302 19.42742,2 2.69374,2.69374 2.64165,8.1085 -0.10193,10.59501 -1.8534,1.67975 -3.95212,1.93117 -17.75,2.12637 -8.606439,0.12176 -16.612421,-0.18342 -17.791071,-0.67819 z M 460.5,115.31967 c 0,-11.05766 -0.85112,-13.25285 -6.88512,-17.757881 L 450.85334,95.5 H 256 61.146661 L 58.32333,97.591948 C 52.411291,101.97248 51,105.41995 51,115.48122 c 0,5.05199 0.301079,9.48653 0.669064,9.85451 0.367986,0.36799 92.505486,0.55549 204.749996,0.41667 L 460.5,125.5 Z M 331,78.051622 C 331,74.888891 325.92746,59.650911 324.24183,57.75 322.79319,56.11634 318.25648,56 256,56 193.73342,56 189.2088,56.116075 187.78468,57.75 185.98549,59.81425 181,74.51306 181,77.753409 V 80 h 75 c 73.67096,0 75,-0.03453 75,-1.948378 z M 111.77059,72 C 112.26769,60.059118 107.68028,54.967298 95.816035,54.291173 84.141029,53.625832 79.422137,57.673587 78.337994,69.283427 77.374033,79.60626 76.458797,79.091942 95.228161,78.774876 L 111.5,78.5 Z M 432.98526,71.25 C 432.96121,58.60954 429.70904,54.972479 417.81604,54.285512 405.23552,53.558832 400,58.490546 400,71.067732 c 0,3.629414 0.3,6.898935 0.66667,7.265601 C 401.03333,78.7 408.45833,79 417.16667,79 H 433 l -0.0147,-7.75 z"
         id="path360" />
      <path
         style="fill:#345a78"
         d="M 14.298549,470.04048 C 8.0708861,466.24326 7.8815535,465.09622 8.2068779,433.13518 L 8.5,404.33781 l 3.005643,-4.85884 c 2.268883,-3.66781 4.475014,-5.63425 9,-8.02215 L 26.5,388.2935 V 284.4621 180.63069 L 22,179.47706 C 13.358934,177.26181 7.9716197,173.01781 2.9881708,164.5 c -3.32511096,-5.68335 -3.32411915,-16.31982 0.00205,-22 5.9852326,-10.22112 12.8595412,-14.61711 23.8654852,-15.26153 5.378257,-0.3149 8.014837,-0.9179 8.894293,-2.03416 0.804232,-1.02077 1.25,-5.03134 1.25,-11.24622 0,-10.71546 0.935425,-14.425837 5.228882,-20.740408 3.429981,-5.044621 8.896926,-8.892025 16.085406,-11.320229 L 63.5,80.145766 64.03918,69.822883 C 64.662505,57.888973 66.8742,52.073662 72.752556,46.912397 79.106803,41.333294 83.283159,40.043924 95,40.043924 c 11.84278,0 16.8977,1.605081 22.87246,7.262654 5.72541,5.421455 8.10648,11.836852 8.11777,21.871993 C 126.00394,81.355661 125.41728,81 145.48964,81 c 8.99073,0 17.05721,-0.272614 17.9255,-0.605808 0.96922,-0.371927 3.12028,-5.427838 5.57174,-13.095974 4.78661,-14.972461 7.27984,-19.677352 11.97503,-22.597626 L 184.5,42.5 h 71.5 71.5 l 3.53809,2.200592 c 4.69519,2.920274 7.18842,7.625165 11.97503,22.597626 2.45146,7.668136 4.60252,12.724047 5.57174,13.095974 C 349.45315,80.727386 357.51963,81 366.51036,81 386.45757,81 386,81.263075 386,69.794591 c 0,-10.346307 1.39646,-14.827352 6.38791,-20.497946 6.29918,-7.156241 11.92678,-9.275084 24.66575,-9.286876 9.35998,-0.0087 11.14112,0.282977 15.74763,2.578497 C 443.36703,47.853399 448,56.731352 448,71.712886 c 0,5.822093 0.37842,8.458384 1.25,8.708285 11.87353,3.404394 18.08795,7.952481 22.49287,16.461638 C 474.79623,102.78112 475,103.8142 475,113.39624 c 0,6.66436 0.43501,10.77364 1.25,11.80807 0.87946,1.11626 3.51604,1.71926 8.89429,2.03416 11.00595,0.64442 17.88026,5.04041 23.86549,15.26153 3.32617,5.68018 3.32716,16.31665 0.002,22 -4.98346,8.51783 -10.37082,12.76185 -19.01183,14.97702 l -4.5,1.1536 -0.2546,104.60723 -0.25459,104.60723 4.21019,2.32746 c 2.3156,1.2801 5.58017,4.27779 7.2546,6.66152 l 3.0444,4.33406 0.29181,30.49177 0.29181,30.49178 -3.92416,3.92416 L 492.23524,472 254.8676,471.996 C 21.207403,471.992 17.449946,471.9618 14.298499,470.04022 Z m 254.717281,-46.0787 c 0.69216,-1.67102 2.06717,-3.47102 3.05558,-4 C 273.18048,419.36822 305.65722,419 356.89907,419 c 81.06643,0 83.05505,-0.0458 84.06575,-1.93426 0.56935,-1.06384 1.03518,-4.00329 1.03518,-6.53212 0,-5.38791 1.66706,-9.81236 5.33684,-14.16416 3.61302,-4.28451 8.94687,-6.62075 16.66316,-7.29852 l 6.5,-0.57094 0.2547,-103.43808 c 0.20213,-82.08967 -0.004,-103.60249 -1,-104.23469 -0.69009,-0.43813 -45.39746,-0.8035 -99.34971,-0.81192 -92.17358,-0.0144 -98.18574,-0.12095 -99.598,-1.76531 -0.82665,-0.9625 -1.78227,-2.5375 -2.12361,-3.5 -0.5351,-1.50887 -1.96837,-1.74469 -10.402,-1.71148 l -9.78138,0.0385 -2.02053,3.21148 -2.02053,3.21148 -101.47947,0.5119 c -55.813708,0.28155 -101.594062,0.61905 -101.73412,0.75 -0.140057,0.13096 -0.140057,46.92005 0,103.97578 L 41.5,388.47536 46,389.14181 c 12.679925,1.87792 19.254903,9.02912 20.750186,22.56872 L 67.5,418.5 155.59661,419 c 94.32919,0.53537 90.51015,0.30492 91.82433,5.54102 C 248.0243,426.945 248.25864,427 257.89773,427 h 9.85963 z m -32.19082,-42.9999 c -0.92125,-0.53752 -2.18574,-2.52487 -2.80998,-4.41634 -1.00011,-3.03037 -0.40557,-6.47176 5.00339,-28.96093 3.3761,-14.03705 5.85153,-25.98602 5.50096,-26.55326 C 244.11977,320.38478 237.17646,320 225.90886,320 c -19.64542,0 -23.40288,-0.77195 -26.45878,-5.43584 -2.13467,-3.25793 -1.46131,-8.31955 1.70598,-12.82366 8.56766,-12.18381 58.82173,-77.05055 62.35823,-80.4905 4.86374,-4.73095 8.72387,-5.50886 12.40534,-2.5 3.97514,3.24888 3.64382,7.18665 -2.82932,33.62716 C 269.74064,266.05938 267,278.09679 267,279.12696 c 0,1.76016 1.0697,1.87338 17.75,1.87862 9.7625,0.003 19.41703,0.46856 21.45451,1.03444 4.24474,1.17891 7.79549,5.11637 7.79549,8.6445 0,4.06694 -2.50532,7.78421 -25.82332,38.31548 -34.49893,45.17092 -38.78081,50.4986 -41.62891,51.79628 -3.15954,1.43958 -7.41507,1.51206 -9.72276,0.1656 z m 38.13394,-57.08175 C 285.98153,309.5142 295,297.17494 295,296.45955 c 0,-1.00806 -4.10604,-1.37483 -18.25,-1.63013 -19.46296,-0.35131 -21.52049,-0.83553 -23.67884,-5.57258 -1.6164,-3.54762 -1.39583,-5.47238 2.52846,-22.06346 3.48535,-14.73533 3.71597,-17.1245 1.52214,-15.76863 C 255.10976,252.66823 217,303.12214 217,304.54236 c 0,1.21277 2.64589,1.46712 15.75,1.51408 17.29764,0.062 21.44038,0.92968 24.56545,5.14516 2.75134,3.71135 2.48389,8.82229 -1.22919,23.48991 C 252.77335,347.77833 252.46462,350 253.95895,350 c 0.52743,0 9.97743,-11.75394 21,-26.11987 z m 120.69604,-44.70887 c -1.0728,-1.18543 -1.65499,-3.57752 -1.65499,-6.8 0,-2.73419 -0.54,-5.51126 -1.2,-6.17126 -0.66,-0.66 -3.38045,-1.2 -6.04545,-1.2 -3.81123,0 -5.36937,-0.52391 -7.3,-2.45455 -5.20387,-5.20386 -1.98802,-10.33583 7.04545,-11.2434 3.3,-0.33154 6.33061,-1.09763 6.73469,-1.70242 0.40408,-0.6048 0.74158,-3.43661 0.75,-6.29293 0.0125,-4.22281 0.43063,-5.4842 2.23782,-6.75 5.39189,-3.77662 10.01112,-0.30335 10.75706,8.0884 L 407.5,250.5 l 5.77863,0.62092 c 6.59398,0.70854 9.72137,2.90993 9.72137,6.84294 0,4.67518 -2.07082,6.25294 -9.08691,6.92335 L 407.5,265.5 l -0.50386,6.33343 c -0.37558,4.72093 -0.9971,6.6941 -2.44113,7.75 -2.68874,1.96606 -6.92532,1.76985 -8.90002,-0.41217 z M 85.454545,262.54545 c -2.949494,-2.94949 -3.110099,-5.51388 -0.543911,-8.68467 1.818916,-2.24745 2.596275,-2.37759 16.193616,-2.71106 16.14495,-0.39594 20.97128,0.52588 22.7078,4.33711 1.39003,3.0508 0.15271,6.92648 -2.69844,8.45237 -1.15435,0.61779 -8.50168,1.0608 -17.59332,1.0608 -15.24152,0 -15.669324,-0.0581 -18.065745,-2.45455 z M 460.8,125.8 c 0.74821,-0.74821 1.2,-4.45394 1.2,-9.84272 0,-10.94094 -2.38798,-16.17916 -8.96002,-19.654541 L 448.68543,94 H 256 63.314567 l -4.354544,2.302739 C 52.387977,99.77812 50,105.01634 50,115.95728 c 0,5.38878 0.451794,9.09451 1.2,9.84272 1.746382,1.74638 407.85362,1.74638 409.6,0 z M 330.41821,80.393011 c 2.24337,-0.860861 1.89626,-3.639405 -1.73325,-13.874397 -2.41543,-6.811361 -3.78899,-9.284338 -5.68496,-10.235258 -3.62998,-1.820611 -130.37002,-1.820611 -134,0 -1.89597,0.95092 -3.26953,3.423897 -5.68496,10.235258 -3.48799,9.835907 -3.96844,13.051065 -2.06504,13.819105 1.80162,0.72697 147.27733,0.780893 149.16821,0.05529 z M 433.5,70.171024 v -9.328977 l -3.64208,-3.335584 c -2.85672,-2.616309 -4.84865,-3.486334 -9.23742,-4.034675 -10.8226,-1.352194 -18.59051,2.158216 -20.57318,9.297264 -1.1677,4.204568 -1.41175,15.533189 -0.35734,16.587599 0.3795,0.379492 8.142,0.566992 17.25,0.416667 L 433.5,79.5 Z M 111.77059,72 C 112.26769,60.059118 107.68028,54.967298 95.816035,54.291173 84.141029,53.625832 79.422137,57.673587 78.337994,69.283427 77.374033,79.60626 76.458797,79.091942 95.228161,78.774876 L 111.5,78.5 Z"
         id="path358" />
      <path
         style="fill:#213a4d"
         d="M 14.298549,470.04048 C 8.0708861,466.24326 7.8815535,465.09622 8.2068779,433.13518 L 8.5,404.33781 l 3.005643,-4.85884 c 2.268883,-3.66781 4.475014,-5.63425 9,-8.02215 L 26.5,388.2935 V 284.4621 180.63069 L 22,179.47706 C 13.358934,177.26181 7.9716197,173.01781 2.9881708,164.5 c -3.32511096,-5.68335 -3.32411915,-16.31982 0.00205,-22 5.9852326,-10.22112 12.8595412,-14.61711 23.8654852,-15.26153 5.378257,-0.3149 8.014837,-0.9179 8.894293,-2.03416 0.804232,-1.02077 1.25,-5.03134 1.25,-11.24622 0,-10.71546 0.935425,-14.425837 5.228882,-20.740408 3.429981,-5.044621 8.896926,-8.892025 16.085406,-11.320229 L 63.5,80.145766 64.03918,69.822883 C 64.662505,57.888973 66.8742,52.073662 72.752556,46.912397 79.106803,41.333294 83.283159,40.043924 95,40.043924 c 11.84278,0 16.8977,1.605081 22.87246,7.262654 5.72541,5.421455 8.10648,11.836852 8.11777,21.871993 C 126.00394,81.355661 125.41728,81 145.48964,81 c 8.99073,0 17.05721,-0.272614 17.9255,-0.605808 0.96922,-0.371927 3.12028,-5.427838 5.57174,-13.095974 4.78661,-14.972461 7.27984,-19.677352 11.97503,-22.597626 L 184.5,42.5 h 71.5 71.5 l 3.53809,2.200592 c 4.69519,2.920274 7.18842,7.625165 11.97503,22.597626 2.45146,7.668136 4.60252,12.724047 5.57174,13.095974 C 349.45315,80.727386 357.51963,81 366.51036,81 386.45757,81 386,81.263075 386,69.794591 c 0,-10.346307 1.39646,-14.827352 6.38791,-20.497946 6.29918,-7.156241 11.92678,-9.275084 24.66575,-9.286876 9.35998,-0.0087 11.14112,0.282977 15.74763,2.578497 C 443.36703,47.853399 448,56.731352 448,71.712886 c 0,5.822093 0.37842,8.458384 1.25,8.708285 11.87353,3.404394 18.08795,7.952481 22.49287,16.461638 C 474.79623,102.78112 475,103.8142 475,113.39624 c 0,6.66436 0.43501,10.77364 1.25,11.80807 0.87946,1.11626 3.51604,1.71926 8.89429,2.03416 11.00595,0.64442 17.88026,5.04041 23.86549,15.26153 3.32617,5.68018 3.32716,16.31665 0.002,22 -4.98346,8.51783 -10.37082,12.76185 -19.01183,14.97702 l -4.5,1.1536 -0.2546,104.60723 -0.25459,104.60723 4.21019,2.32746 c 2.3156,1.2801 5.58017,4.27779 7.2546,6.66152 l 3.0444,4.33406 0.29181,30.49177 0.29181,30.49178 -3.92416,3.92416 L 492.23524,472 254.8676,471.996 C 21.207453,471.993 17.449996,471.962 14.298549,470.04048 Z M 474.84638,456.35026 484,455.70051 v -23.19527 c 0,-27.64269 0.65364,-26.19055 -12.50727,-27.78644 -7.95497,-0.96462 -8.78256,-0.89329 -11.28852,0.97282 -2.57355,1.91645 -2.72837,2.52457 -3.20421,12.58547 -0.44658,9.44224 -0.75901,10.8469 -2.92431,13.14732 L 451.65137,434 h -89.63712 c -88.82573,0 -89.65694,-0.0185 -91.82569,-2.03896 C 268.98485,430.83962 268,429.01727 268,427.91138 c 0,-2.79863 2.6018,-7.5446 4.5448,-8.2902 C 273.43513,419.27953 311.46094,419 357.0466,419 c 80.92057,0 82.90754,-0.0458 83.91822,-1.93426 0.56935,-1.06384 1.03518,-4.00329 1.03518,-6.53212 0,-5.38791 1.66706,-9.81236 5.33684,-14.16416 3.61302,-4.28451 8.94687,-6.62075 16.66316,-7.29852 l 6.5,-0.57094 0.2547,-103.43808 c 0.20213,-82.08967 -0.004,-103.60249 -1,-104.23469 -0.69009,-0.43813 -45.39746,-0.8035 -99.34971,-0.81192 -94.65265,-0.0148 -98.15459,-0.0811 -99.79275,-1.89128 -0.93375,-1.03179 -1.95101,-3.43675 -2.26057,-5.34437 -0.47163,-2.90632 -0.14232,-3.79918 2.0321,-5.50957 2.56758,-2.01966 3.71018,-2.0455 108.35559,-2.45009 98.93799,-0.38253 105.99757,-0.52392 109.43337,-2.19173 4.26769,-2.07163 7.20758,-7.2648 6.25692,-11.05254 -0.81683,-3.25453 -4.76068,-7.15256 -8.20411,-8.10882 -4.70497,-1.3066 -458.148222,-1.781 -462.523363,-0.48391 -6.603551,1.95775 -9.536688,9.56877 -6.18525,16.04973 C 20.776366,165.33579 14.249722,165 133.5,165 c 94.22137,0 108.98055,0.19714 111.47879,1.48903 4.74103,2.45169 4.82295,6.50436 0.23772,11.76097 -1.43459,1.64465 -7.55219,1.75092 -101.6215,1.76531 -55.052254,0.008 -100.659624,0.37379 -101.349707,0.81192 -0.995742,0.6322 -1.202131,22.14258 -1,104.22237 L 41.5,388.47536 46,389.14181 c 12.679924,1.87792 19.254903,9.02912 20.750186,22.56872 L 67.5,418.5 l 88,0.5 c 48.4,0.275 88.56932,0.86827 89.26515,1.31838 0.69583,0.45011 1.92738,2.40332 2.73677,4.34046 1.63213,3.90623 0.85162,6.5464 -2.4591,8.31824 C 243.77942,433.65324 211.65815,434 150.28825,434 47.119744,434 54.060298,434.47894 52.04444,427.22052 51.476133,425.17423 51.001753,420.125 50.990264,416 50.978775,411.875 50.638765,408.00487 50.234687,407.3997 48.608469,404.96422 44.71882,404 36.520287,404 c -7.809418,0 -8.839736,0.22854 -11.065742,2.45455 L 23,408.90909 V 432.95455 457 h 221.34638 c 121.7405,0 225.4655,-0.29238 230.5,-0.64974 z M 236.82501,380.96188 c -0.92125,-0.53752 -2.18574,-2.52487 -2.80998,-4.41634 -1.00011,-3.03037 -0.40557,-6.47176 5.00339,-28.96093 3.3761,-14.03705 5.85153,-25.98602 5.50096,-26.55326 C 244.11977,320.38478 237.17646,320 225.90886,320 c -19.64542,0 -23.40288,-0.77195 -26.45878,-5.43584 -2.13467,-3.25793 -1.46131,-8.31955 1.70598,-12.82366 8.56766,-12.18381 58.82173,-77.05055 62.35823,-80.4905 4.86374,-4.73095 8.72387,-5.50886 12.40534,-2.5 3.97514,3.24888 3.64382,7.18665 -2.82932,33.62716 C 269.74064,266.05938 267,278.09679 267,279.12696 c 0,1.76016 1.0697,1.87338 17.75,1.87862 9.7625,0.003 19.41703,0.46856 21.45451,1.03444 4.24474,1.17891 7.79549,5.11637 7.79549,8.6445 0,4.06694 -2.50532,7.78421 -25.82332,38.31548 -34.49893,45.17092 -38.78081,50.4986 -41.62891,51.79628 -3.15954,1.43958 -7.41507,1.51206 -9.72276,0.1656 z m 38.13394,-57.08175 C 285.98153,309.5142 295,297.17494 295,296.45955 c 0,-1.00806 -4.10604,-1.37483 -18.25,-1.63013 -19.46296,-0.35131 -21.52049,-0.83553 -23.67884,-5.57258 -1.6164,-3.54762 -1.39583,-5.47238 2.52846,-22.06346 3.48535,-14.73533 3.71597,-17.1245 1.52214,-15.76863 C 255.10976,252.66823 217,303.12214 217,304.54236 c 0,1.21277 2.64589,1.46712 15.75,1.51408 17.29764,0.062 21.44038,0.92968 24.56545,5.14516 2.75134,3.71135 2.48389,8.82229 -1.22919,23.48991 C 252.77335,347.77833 252.46462,350 253.95895,350 c 0.52743,0 9.97743,-11.75394 21,-26.11987 z m 120.69604,-44.70887 c -1.0728,-1.18543 -1.65499,-3.57752 -1.65499,-6.8 0,-2.73419 -0.54,-5.51126 -1.2,-6.17126 -0.66,-0.66 -3.38045,-1.2 -6.04545,-1.2 -3.81123,0 -5.36937,-0.52391 -7.3,-2.45455 -5.20387,-5.20386 -1.98802,-10.33583 7.04545,-11.2434 3.3,-0.33154 6.33061,-1.09763 6.73469,-1.70242 0.40408,-0.6048 0.74158,-3.43661 0.75,-6.29293 0.0125,-4.22281 0.43063,-5.4842 2.23782,-6.75 5.39189,-3.77662 10.01112,-0.30335 10.75706,8.0884 L 407.5,250.5 l 5.77863,0.62092 c 6.59398,0.70854 9.72137,2.90993 9.72137,6.84294 0,4.67518 -2.07082,6.25294 -9.08691,6.92335 L 407.5,265.5 l -0.50386,6.33343 c -0.37558,4.72093 -0.9971,6.6941 -2.44113,7.75 -2.68874,1.96606 -6.92532,1.76985 -8.90002,-0.41217 z M 85.454545,262.54545 c -2.949494,-2.94949 -3.110099,-5.51388 -0.543911,-8.68467 1.818916,-2.24745 2.596275,-2.37759 16.193616,-2.71106 16.14495,-0.39594 20.97128,0.52588 22.7078,4.33711 1.39003,3.0508 0.15271,6.92648 -2.69844,8.45237 -1.15435,0.61779 -8.50168,1.0608 -17.59332,1.0608 -15.24152,0 -15.669324,-0.0581 -18.065745,-2.45455 z M 460.8,125.8 c 0.74821,-0.74821 1.2,-4.45394 1.2,-9.84272 0,-10.94094 -2.38798,-16.17916 -8.96002,-19.654541 L 448.68543,94 H 256 63.314567 l -4.354544,2.302739 C 52.387977,99.77812 50,105.01634 50,115.95728 c 0,5.38878 0.451794,9.09451 1.2,9.84272 1.746382,1.74638 407.85362,1.74638 409.6,0 z M 330.41821,80.393011 c 2.24337,-0.860861 1.89626,-3.639405 -1.73325,-13.874397 -2.41543,-6.811361 -3.78899,-9.284338 -5.68496,-10.235258 -3.62998,-1.820611 -130.37002,-1.820611 -134,0 -1.89597,0.95092 -3.26953,3.423897 -5.68496,10.235258 -3.48799,9.835907 -3.96844,13.051065 -2.06504,13.819105 1.80162,0.72697 147.27733,0.780893 149.16821,0.05529 z M 112.46433,71 C 112.41048,58.166213 108.82945,54.078505 96.892016,53.224386 91.422112,52.833017 89.347778,53.137322 85.809433,54.850206 79.48502,57.911802 78,61.064171 78,71.427906 v 8.619322 L 95.25,79.773614 112.5,79.5 Z M 433.5,70.171024 v -9.328977 l -3.64208,-3.335584 c -2.85672,-2.616309 -4.84865,-3.486334 -9.23742,-4.034675 -10.8226,-1.352194 -18.59051,2.158216 -20.57318,9.297264 -1.1677,4.204568 -1.41175,15.533189 -0.35734,16.587599 0.3795,0.379492 8.142,0.566992 17.25,0.416667 L 433.5,79.5 Z"
         id="path356" />
      <path
         style="fill:#050506"
         d="m 16.071085,470.24845 c -1.885903,-0.96165 -4.360903,-3.01794 -5.5,-4.56954 -1.9403868,-2.64306 -2.0916996,-4.3925 -2.3977507,-27.72221 -0.2091905,-15.94622 0.080561,-26.86273 0.8057177,-30.35579 1.569538,-7.56043 5.529794,-12.62428 12.648536,-16.17327 L 27.5,388.5 27.754653,284.73068 28.009305,180.96136 25.754653,180.08115 c -1.240059,-0.48412 -4.223928,-1.4105 -6.630821,-2.05863 C 13.990723,176.64029 5.8581138,169.52395 3.9122976,164.71186 3.1979854,162.94534 2.1661249,161.1963 1.6192741,160.8251 0.35726322,159.96847 0.30731057,147.0785 1.5625,146.1749 2.078125,145.8037 3.3830696,143.76662 4.4623768,141.64805 7.0312634,136.60557 13.877702,130.65282 18.806843,129.17602 20.965701,128.52921 25.071914,128 27.931761,128 36.539435,128 37,127.42336 37,116.64632 c 0,-5.31297 0.637314,-11.42939 1.490143,-14.30117 2.888075,-9.725208 10.161074,-16.931139 20.11111,-19.925659 2.637449,-0.793756 5.149232,-2.000359 5.581741,-2.681341 C 64.615503,79.057167 64.980661,74.45 64.994456,69.5 65.024318,58.784763 67.432574,52.461415 73.518813,47.117625 79.73055,41.663648 83.24323,40.588324 95,40.541668 c 11.97387,-0.04752 16.98881,1.600989 22.92308,7.535255 5.3341,5.334104 7.35893,11.003585 8.00828,22.423077 l 0.56864,10 h 19.4394 19.4394 l 4.5606,-14.018301 c 2.50833,-7.710065 5.56424,-15.417086 6.79091,-17.126713 C 181.46493,42.756268 178.42471,43 256,43 c 77.57529,0 74.53507,-0.243732 79.26969,6.354986 1.22667,1.709627 4.28258,9.416648 6.79091,17.126713 L 346.6212,80.5 H 366.0606 385.5 l 0.56864,-10 c 0.64935,-11.419492 2.67418,-17.088973 8.00828,-22.423077 5.93427,-5.934266 10.94921,-7.582772 22.92308,-7.535255 11.75677,0.04666 15.26945,1.12198 21.48119,6.575957 6.08624,5.34379 8.49449,11.667138 8.52435,22.382375 0.0138,4.95 0.38129,9.560948 0.81666,10.246551 0.43536,0.685603 3.05483,1.918668 5.82104,2.740143 9.72216,2.887173 16.94167,10.160944 19.92542,20.075186 0.79853,2.65332 1.43134,8.8702 1.43134,14.06187 0,10.80238 0.45745,11.37625 9.06824,11.37625 2.85985,0 6.96606,0.52921 9.12492,1.17602 4.92914,1.4768 11.77558,7.42955 14.34446,12.47203 1.07931,2.11857 2.38425,4.15565 2.89988,4.52685 1.25519,0.9036 1.20524,13.79357 -0.0568,14.6502 -0.54685,0.3712 -1.57872,2.12024 -2.29303,3.88676 -1.94581,4.81209 -10.07842,11.92843 -15.21153,13.31066 -2.40689,0.64813 -5.38867,1.57356 -6.62617,2.05651 l -2.25,0.87809 v 103.98201 c 0,81.95518 0.26479,104.20594 1.25,105.03909 0.6875,0.58139 3.15028,2.3931 5.47284,4.02602 2.32256,1.63292 5.24756,4.88748 6.5,7.23236 2.21749,4.15168 2.27716,5.01482 2.27716,32.93923 0,27.42816 -0.0901,28.79871 -2.07108,31.5 -1.1391,1.55329 -3.6141,3.61097 -5.5,4.57262 -3.23561,1.64987 -16.64907,1.74844 -237.92892,1.74844 -221.279854,0 -234.693308,-0.0986 -237.928915,-1.74844 z M 485.37614,457.71423 c 1.61008,-1.17732 1.73164,-3.33576 1.44113,-25.5882 L 486.5,407.8236 483.69424,405.4118 C 481.1228,403.20143 480.03075,403 470.61855,403 c -9.74389,0 -10.3941,0.13205 -12.69424,2.57803 -2.18515,2.3237 -2.45774,3.59881 -2.76319,12.92545 -0.2897,8.84562 -0.63146,10.61223 -2.35473,12.17197 -1.91437,1.73271 -6.45731,1.83793 -90.25609,2.09041 l -88.24025,0.26587 -2.75049,-2.16354 c -2.28842,-1.80007 -2.64819,-2.68471 -2.14155,-5.26586 0.33491,-1.70628 1.36388,-3.66483 2.28659,-4.35233 1.31064,-0.97654 19.87636,-1.25 84.86408,-1.25 65.35475,0 83.39854,-0.26795 84.17592,-1.25 0.54422,-0.6875 1.2244,-3.98258 1.51152,-7.32239 C 443.36434,398.53621 451.58944,390 462.90278,390 c 2.18186,0 5.12341,-0.43966 6.53677,-0.97702 l 2.56976,-0.97702 L 471.75465,284.27298 471.5,180.5 372.16144,180 l -99.33856,-0.5 -1.91144,-2.36078 c -2.38418,-2.94466 -2.44986,-6.3529 -0.16144,-8.37748 1.55055,-1.37178 14.00185,-1.59396 109.25,-1.94948 102.2068,-0.38149 107.65335,-0.4919 110.61446,-2.24229 4.17187,-2.46612 6.38554,-6.48468 6.38554,-11.59191 0,-3.53758 -0.60319,-4.81654 -3.7608,-7.97415 l -3.7608,-3.7608 -38.4892,-0.68831 C 429.82014,140.17624 325.2,140.00904 218.5,140.18325 38.2032,140.47763 24.280925,140.62 21.3985,142.19889 c -4.327083,2.37022 -6.565167,6.2228 -6.565167,11.30111 0,4.79755 1.95104,8.44156 5.98615,11.18052 2.545504,1.72784 8.218261,1.83315 112.625497,2.09094 100.082,0.24712 110.1069,0.41801 111.75,1.90499 2.42895,2.19817 2.2816,6.58223 -0.29976,8.91856 -2.03271,1.83977 -5.56762,1.92211 -103.25,2.40499 L 40.5,180.5 40.24177,284 c -0.240559,96.41705 -0.141936,103.58554 1.441129,104.75 0.934648,0.6875 3.206279,1.25 5.048069,1.25 7.141569,0 16.141082,7.27649 18.208904,14.72267 0.576936,2.07753 1.051484,5.82483 1.054551,8.32733 0.0031,2.5025 0.545577,5.09 1.205577,5.75 0.915105,0.91511 22.039322,1.2 88.97695,1.2 h 87.77694 l 1.59572,2.43536 c 2.23938,3.41774 1.51974,7.72978 -1.54961,9.28515 -1.97462,1.00062 -21.90518,1.21565 -94.83853,1.02317 L 56.82293,432.5 54.911465,430.13922 C 53.348138,428.20841 53,426.15038 53,418.83956 53,409.54612 51.589804,404.82404 48.455198,403.62118 47.564873,403.27953 42.398323,403 36.973976,403 c -8.981504,0 -10.113068,0.21543 -12.668212,2.41178 L 21.5,407.82356 21.184024,431.35424 c -0.21214,15.79803 0.04589,24.20684 0.785183,25.58822 L 23.070368,459 H 253.34405 c 186.0576,0 230.61133,-0.24689 232.03209,-1.28577 z M 236.56629,379.6572 C 234.89251,377.98342 234,375.99034 234,373.92638 c 0,-1.74049 2.70175,-14.20022 6.00389,-27.6883 4.56339,-18.63984 5.73365,-24.8494 4.87756,-25.88093 C 244.00833,319.30511 239.65705,319 225.52678,319 c -18.87238,0 -23.8033,-0.77964 -25.54789,-4.03944 -1.56407,-2.92249 -1.13034,-8.19992 0.95498,-11.61984 3.90846,-6.40986 58.38443,-76.98414 62.59357,-81.09072 5.18137,-5.05512 10.23912,-5.84907 12.91586,-2.02749 2.49687,3.56478 1.90737,8.06898 -4.48925,34.30136 -3.32527,13.63686 -5.81439,25.3977 -5.53138,26.13521 0.40512,1.05572 4.53064,1.34092 19.39672,1.34092 19.53821,0 24.4447,0.75642 26.20172,4.03944 1.32421,2.47432 1.23538,7.60772 -0.17784,10.2763 -2.56312,4.83997 -61.87124,81.47257 -64.27063,83.04471 -4.68182,3.06764 -8.14216,3.16094 -11.00635,0.29675 z m 38.82912,-55.59257 C 286.72793,309.25017 296,296.69832 296,296.17162 296,294.3452 292.74972,294 275.55307,294 c -25.40177,0 -25.71337,-0.4121 -19.65898,-26 3.76901,-15.92916 4.01112,-18 2.10444,-18 -1.44105,0 -41.49853,52.85454 -41.49853,54.75596 0,1.57712 1.75474,1.79189 18.33444,2.24404 l 18.33444,0.5 2.91556,3.26578 c 3.79143,4.24686 3.73692,6.49418 -0.58444,24.09331 -1.925,7.83974 -3.5,14.67861 -3.5,15.19749 0,3.55495 5.28247,-2.3138 23.39541,-25.99195 z M 398.31537,279.92501 C 395.2594,278.78887 394,275.94275 394,270.17273 394,264.49418 393.3654,264 386.0732,264 c -7.0679,0 -10.2761,-4.60509 -6.65663,-9.55501 1.0559,-1.44403 3.02907,-2.06555 7.75,-2.44113 L 393.5,251.5 394,245.40149 C 394.57652,238.36967 396.10169,236 400.05102,236 c 4.27071,0 5.94898,2.36166 5.94898,8.37143 0,2.87571 0.54,5.76857 1.2,6.42857 0.66,0.66 3.4725,1.20689 6.25,1.21531 5.62447,0.0171 6.73292,0.50119 8.4003,3.66895 1.58898,3.01882 1.45555,4.00989 -0.8503,6.31574 -1.51203,1.51203 -3.33333,2 -7.46482,2 -6.37317,0 -7.53518,1.27119 -7.53518,8.24313 0,6.35418 -3.05133,9.40442 -7.68463,7.68188 z M 85.654988,262.17126 c -2.362126,-2.61012 -2.089147,-6.75375 0.567518,-8.61456 C 88.006062,252.30745 91.561109,252 104.22251,252 c 14.44416,0 15.94651,0.16902 17.77749,2 2.40261,2.40261 2.53847,4.78621 0.4433,7.77749 C 120.93976,263.9241 120.31323,264 104.09828,264 89.104035,264 87.133117,263.80457 85.654988,262.17126 Z M 461.78185,115.94515 c 0.25638,-9.60093 0.0756,-10.85791 -2,-13.90805 -1.25502,-1.84426 -3.55231,-4.294581 -5.1051,-5.445152 L 451.85349,94.5 256.58567,94.242556 61.317857,93.985113 57.932725,96.266353 C 51.387583,100.67712 50,104.03817 50,115.48122 c 0,5.60199 0.301074,10.48652 0.669053,10.8545 0.367979,0.36798 92.955477,0.55548 205.749997,0.41667 L 461.5,126.5 Z M 113.08749,78.836528 C 114.77865,75.67656 113.70112,63.88526 111.35392,59.866302 108.25541,54.560917 103.72246,52.526263 95.002084,52.526641 81.677351,52.527218 77,57.517847 77,71.734462 c 0,4.362713 0.3,8.232205 0.666667,8.598871 C 78.033333,80.7 85.892501,81 95.131483,81 111.32927,81 111.97101,80.922677 113.08749,78.836528 Z M 332.62525,79.53421 C 333.32744,77.704326 327.28486,59.125044 325.21509,56.75 323.79076,55.115589 319.21905,55 256,55 c -63.21905,0 -67.79076,0.115589 -69.21509,1.75 -2.06977,2.375044 -8.11235,20.954326 -7.41016,22.78421 0.85006,2.215209 152.40044,2.215209 153.2505,0 z m 100.82152,0.128373 c 1.58342,-1.157824 1.76673,-2.413548 1.36511,-9.351296 C 434.06041,57.33009 429.46334,53 416.43325,53 403.34004,53 399,57.552006 399,71.284701 c 0,5.903233 0.38682,8.704716 1.25,9.053018 0.6875,0.277413 8.02649,0.539913 16.30887,0.583334 11.09741,0.05818 15.54002,-0.272881 16.8879,-1.25847 z"
         id="path354" />
    </g>
  </g>
</svg>
