<?xml version="1.0" encoding="UTF-8" standalone="no"?>
<!-- Created with Inkscape (http://www.inkscape.org/) -->

<svg
   version="1.1"
   id="svg453"
   width="682.66669"
   height="682.66669"
   viewBox="0 0 682.66669 682.66669"
   xmlns="http://www.w3.org/2000/svg"
   xmlns:svg="http://www.w3.org/2000/svg">
  <defs
     id="defs457" />
  <g
     id="g459">
    <g
       id="g497">
      <path
         style="fill:#9ac4fd;stroke-width:1.33333"
         d="M 24.006667,668.34142 C 20.208606,667.00129 15.32267,663.49909 10.667524,658.78002 4.5959916,652.62513 3.0336048,650.05448 1.6608569,643.96098 -3.6790207,620.25781 5.005779,600.77957 24.083442,593.67169 l 7.249892,-2.70115 0.666667,-20.79769 0.666667,-20.79771 4.355201,-4.35423 4.355202,-4.35422 19.311466,-0.4317 19.311466,-0.4317 V 445.41324 351.0232 l -13.104542,-0.63103 c -16.027087,-0.77176 -22.61303,-3.8371 -28.026202,-13.04449 -3.232607,-5.49842 -3.576004,-7.47263 -4.003156,-23.01434 l -0.467232,-17 h -7.265649 c -9.047583,0 -14.139242,-2.54564 -16.953428,-8.4761 -1.7931928,-3.77887 -2.1797937,-9.35406 -2.1797937,-31.4349 0,-34.33159 0.6848561,-36.18601 15.0000007,-40.61648 2.018203,-0.62463 2.333333,-2.52008 2.333333,-14.0346 0,-7.39103 0.700014,-14.84881 1.573762,-16.76648 1.377368,-3.02299 53.602771,-49.67578 62.389582,-55.73242 4.011883,-2.76534 10.894072,-2.93169 15.823712,-0.38247 3.55069,1.83613 3.89099,1.67497 11.96561,-5.66667 8.29222,-7.53948 8.3076,-7.5672 6.80928,-12.27256 -3.96703,-12.458169 10.17622,-23.667934 21.92702,-17.379098 3.05417,1.634548 3.78199,1.384953 9.41061,-3.227283 6.78695,-5.561396 6.56766,-5.066081 4.86751,-10.99416 -2.61671,-9.123898 -0.79204,-11.462334 29.48361,-37.785494 15.53919,-13.510543 30.0563,-25.914624 32.26023,-27.564624 L 225.85142,12 337.25905,12.04725 c 84.86186,0.03599 112.08842,0.433116 114.26474,1.666666 3.35857,1.903649 188.90975,162.974394 193.80957,168.239554 3.05881,3.28691 3.38824,4.86382 4,19.14755 l 0.66666,15.56565 8.66667,0.69152 c 17.78529,1.41912 18.66667,3.3066 18.66667,39.97515 0,36.40204 -0.93388,38.47566 -18,39.96739 l -8,0.69928 -0.66859,18 c -0.69903,18.81984 -1.33423,21.07771 -7.55,26.83708 -6.20399,5.74846 -9.77994,6.90195 -23.435,7.5595 l -13.01308,0.62661 v 94.38246 94.38244 l 17.31148,0.43929 17.31148,0.4393 4.35519,4.35422 4.35518,4.35423 0.66667,20.79771 0.66667,20.79769 7.24989,2.70115 c 19.07767,7.10788 27.76247,26.58612 22.42259,50.28929 -1.373,6.09458 -2.9329,8.66054 -9,14.80451 -13.00092,13.16565 22.1015,11.91563 -331.24335,11.79593 -280.145811,-0.0949 -311.35296,-0.3136 -316.755823,-2.22 z M 241.33334,451.95719 c 0,-95.79503 -0.12,-94.20212 7.48476,-99.35131 3.72655,-2.52324 6.76571,-2.60587 95.84858,-2.60587 98.29802,0 98.66028,0.0231 102.3843,6.5162 1.20273,2.09708 1.7861,25.82103 2.28237,92.81714 l 0.66667,90 h 34.66666 34.66667 v -94 -94 l -13.33333,-0.66667 c -15.12568,-0.75628 -19.68955,-2.66943 -26.52531,-11.1192 -4.08337,-5.04754 -4.15069,-5.37423 -4.80803,-23.33334 l -0.66666,-18.21413 -20.13887,-0.36701 -20.13888,-0.36702 -6.52779,4.68927 c -28.41547,20.41233 -53.94185,29.04836 -85.86114,29.04836 -31.92084,0 -57.44434,-8.63547 -85.86498,-29.05103 l -6.53164,-4.6919 -18.13503,0.36966 -18.13502,0.36967 -0.6671,17.43137 c -0.61611,16.09847 -0.94059,17.84463 -4.24358,22.83579 -6.05961,9.15668 -11.57357,11.60938 -27.41789,12.19588 l -13.67143,0.50608 v 93.62655 c 0,51.49462 0.4,94.02657 0.8889,94.51545 0.48888,0.48889 17.28888,0.88889 37.33333,0.88889 h 36.44444 z"
         id="path511" />
      <path
         style="fill:#a6bec3;stroke-width:1.33333"
         d="M 24.006667,668.34142 C 20.208606,667.00129 15.32267,663.49909 10.667524,658.78002 4.5959916,652.62513 3.0336048,650.05448 1.6608569,643.96098 -3.6790207,620.25781 5.005779,600.77957 24.083442,593.67169 l 7.249892,-2.70115 0.666667,-20.79769 0.666667,-20.79771 4.355201,-4.35423 4.355202,-4.35422 19.311466,-0.4317 19.311466,-0.4317 V 445.41324 351.0232 l -13.104542,-0.63103 c -16.027087,-0.77176 -22.61303,-3.8371 -28.026202,-13.04449 -3.232607,-5.49842 -3.576004,-7.47263 -4.003156,-23.01434 l -0.467232,-17 h -7.265649 c -9.047583,0 -14.139242,-2.54564 -16.953428,-8.4761 -1.7931928,-3.77887 -2.1797937,-9.35406 -2.1797937,-31.4349 0,-34.33159 0.6848561,-36.18601 15.0000007,-40.61648 2.018203,-0.62463 2.333333,-2.52008 2.333333,-14.0346 0,-7.39103 0.700014,-14.84881 1.573762,-16.76648 1.377368,-3.02299 53.602771,-49.67578 62.389582,-55.73242 4.364628,-3.00848 11.702452,-2.87267 16.927482,0.3133 l 4.22415,2.57569 7.77585,-6.80447 c 4.27671,-3.74246 7.75274,-7.15376 7.7245,-7.58067 -0.0282,-0.42691 -0.83691,-3.20505 -1.79705,-6.17364 -1.48461,-4.59017 -1.44374,-6.12016 0.27331,-10.22963 3.73996,-8.950995 14.60771,-12.35583 22.63982,-7.09299 3.35583,2.198825 3.67393,2.183587 7.22285,-0.346008 7.70898,-5.494799 8.47732,-7.076794 6.3857,-13.147814 -3.57834,-10.386171 -2.372,-12.022727 28.91074,-39.221503 15.53919,-13.510543 30.0563,-25.914624 32.26023,-27.564624 L 225.85142,12 337.25905,12.04725 c 84.86186,0.03599 112.08842,0.433116 114.26474,1.666666 3.35857,1.903649 188.90975,162.974394 193.80957,168.239554 3.05881,3.28691 3.38824,4.86382 4,19.14755 l 0.66666,15.56565 8.66667,0.69152 c 17.78529,1.41912 18.66667,3.3066 18.66667,39.97515 0,36.40204 -0.93388,38.47566 -18,39.96739 l -8,0.69928 -0.66859,18 c -0.69903,18.81984 -1.33423,21.07771 -7.55,26.83708 -6.20399,5.74846 -9.77994,6.90195 -23.435,7.5595 l -13.01308,0.62661 v 94.38246 94.38244 l 17.31148,0.43929 17.31148,0.4393 4.35519,4.35422 4.35518,4.35423 0.66667,20.79771 0.66667,20.79769 7.24989,2.70115 c 19.07767,7.10788 27.76247,26.58612 22.42259,50.28929 -1.373,6.09458 -2.9329,8.66054 -9,14.80451 -13.00092,13.16565 22.1015,11.91563 -331.24335,11.79593 -280.145811,-0.0949 -311.35296,-0.3136 -316.755823,-2.22 z M 241.33334,451.95719 c 0,-95.79503 -0.12,-94.20212 7.48476,-99.35131 3.72655,-2.52324 6.76571,-2.60587 95.84858,-2.60587 98.29802,0 98.66028,0.0231 102.3843,6.5162 1.20273,2.09708 1.7861,25.82103 2.28237,92.81714 l 0.66667,90 h 34.66666 34.66667 v -94 -94 l -13.33333,-0.66667 c -15.12568,-0.75628 -19.68955,-2.66943 -26.52531,-11.1192 -4.08337,-5.04754 -4.15069,-5.37423 -4.80803,-23.33334 l -0.66666,-18.21413 -20.13887,-0.36701 -20.13888,-0.36702 -6.52779,4.68927 c -28.41547,20.41233 -53.94185,29.04836 -85.86114,29.04836 -31.92084,0 -57.44434,-8.63547 -85.86498,-29.05103 l -6.53164,-4.6919 -18.13503,0.36966 -18.13502,0.36967 -0.6671,17.43137 c -0.61611,16.09847 -0.94059,17.84463 -4.24358,22.83579 -6.05961,9.15668 -11.57357,11.60938 -27.41789,12.19588 l -13.67143,0.50608 v 93.62655 c 0,51.49462 0.4,94.02657 0.8889,94.51545 0.48888,0.48889 17.28888,0.88889 37.33333,0.88889 h 36.44444 z m 89.0105,8.37616 -0.34383,-79.66667 h -28.66667 -28.66666 l -0.34602,78 c -0.1903,42.9 -0.0591,78.75001 0.2915,79.66667 0.48272,1.26202 7.61018,1.66667 29.35649,1.66667 h 28.71901 z m -35.35532,8.56636 c -6.5347,-3.62916 -9.36986,-11.81043 -6.48527,-18.71421 2.53835,-6.07512 6.90735,-8.85215 13.92677,-8.85215 4.9012,0 6.59036,0.75371 10.53934,4.70268 4.36006,4.36007 4.65132,5.15832 3.99774,10.95675 -1.25245,11.11181 -12.46885,17.18832 -21.97858,11.90693 z m 123.35532,-8.56636 -0.34383,-79.66667 h -28 -28 l -0.34382,79.66667 -0.34383,79.66667 h 28.68765 28.68766 z m -39.14383,5.8 c -9.74024,-9.74024 -3.59633,-24.74071 10.13334,-24.74071 9.25381,0 14.66666,5.65387 14.66666,15.31972 0,7.27567 -7.01958,13.95432 -14.66666,13.95432 -4.59086,0 -6.41694,-0.81693 -10.13334,-4.53333 z"
         id="path509" />
      <path
         style="fill:#f6bb57;stroke-width:1.33333"
         d="M 30.312624,669.22305 C 7.3215891,663.77393 -4.9619935,641.19288 2.1102046,617.37819 4.9367071,607.86033 15.257161,597.34679 24.92632,594.13521 c 3.762525,-1.24971 7.193317,-3.19044 7.623984,-4.31275 0.430666,-1.12229 0.78303,-10.41257 0.78303,-20.64507 0,-19.36866 1.001693,-23.4353 6.413323,-26.03661 1.23934,-0.59573 10.953345,-1.39612 21.586678,-1.77863 l 19.333334,-0.69546 v -95.33334 -95.33334 l -14.100623,-0.66666 c -12.447989,-0.58854 -14.734046,-1.0861 -19.505135,-4.24536 -8.821728,-5.84146 -11.06091,-12.19127 -11.06091,-31.3663 0,-18.23917 0.336119,-17.70208 -11.109049,-17.75133 -7.281827,-0.0313 -11.336097,-2.20695 -14.068232,-7.54936 -0.9636343,-1.8843 -1.4893863,-13.27168 -1.4893863,-32.25898 0,-28.54245 0.082209,-29.43933 3.0000003,-32.72911 1.65,-1.86034 5.4,-4.14441 8.333333,-5.0757 l 5.333334,-1.69327 0.666667,-15.33196 c 0.366666,-8.43259 1.154009,-16.08511 1.74965,-17.00559 0.595643,-0.92049 14.866043,-13.62729 31.712003,-28.23734 19.507766,-16.91858 32.078994,-26.88221 34.622397,-27.44084 2.803604,-0.61577 5.594502,-0.0426 9.367402,1.92401 6.07573,3.16684 5.7355,3.29598 16.5775,-6.29239 6.31759,-5.5871 6.43126,-5.82193 4.88622,-10.09466 -2.691,-7.44183 -1.97688,-11.39013 2.9515,-16.3185 5.0435,-5.043511 10.87154,-5.922342 16.8,-2.533333 4.85251,2.773946 5.66669,2.54973 12.46221,-3.431915 6.08499,-5.356226 6.14335,-5.485356 4.18772,-9.267121 -2.77072,-5.357984 -2.47641,-9.545339 1.01674,-14.465521 5.17449,-7.288402 60.81985,-54.466084 65.2984,-55.361793 2.21921,-0.443842 52.10993,-0.779924 110.86827,-0.746848 80.34549,0.04523 107.72414,0.458455 110.4262,1.666667 5.66734,2.534111 194.80498,167.368734 197.40714,172.041534 1.79859,3.22979 2.33334,7.32695 2.33334,17.87753 v 13.68747 h 6.70949 c 8.05495,0 14.82297,2.59659 17.78292,6.82249 1.85444,2.64759 2.17328,7.52239 2.16763,33.14086 -0.007,29.69821 -0.0427,30.08172 -3.20579,34.03665 -2.85987,3.57576 -4.16725,4.07071 -12.32672,4.66667 l -9.12753,0.66667 -0.72112,17.33333 c -0.80214,19.28041 -1.98455,22.83129 -9.92383,29.80208 -2.62965,2.30886 -5.21029,4.27144 -5.73479,4.36131 -0.52448,0.0899 -7.2536,0.53985 -14.9536,1 l -14,0.83661 v 95.33334 95.33334 l 17.33333,0.70318 c 9.53334,0.38675 18.40553,1.20946 19.71599,1.82824 4.99448,2.35834 6.28402,7.82234 6.28402,26.62664 0,9.87644 0.35236,18.87542 0.78302,19.99771 0.43067,1.12231 3.86147,3.06304 7.62399,4.31275 9.66916,3.21158 19.98961,13.72512 22.81612,23.24298 6.16971,20.77567 -2.43627,41.11227 -20.93812,49.47842 l -6.95168,3.14341 -308.66668,0.2065 C 166.83863,670.32505 33.194296,669.90604 30.312624,669.22305 Z M 650.24742,637.10094 c 3.75234,-3.52513 3.94208,-7.7482 0.53707,-11.95321 l -2.54885,-3.14771 H 341.33334 34.43106 l -2.548863,3.14771 c -3.338705,4.12313 -3.224463,7.96128 0.350223,11.76636 l 2.899085,3.08593 h 306.014985 306.015 z M 242.66667,450.60716 c 0.7467,-100.8696 0.2026,-95.6742 10.32795,-98.61955 3.46315,-1.00738 33.03627,-1.33249 95.98026,-1.05513 l 90.97487,0.40087 4.35847,4.35832 4.35846,4.35832 0.66667,90.30835 0.66667,90.30835 h 34.66666 34.66667 l 0.34216,-95.66667 0.34216,-95.66667 h -12.74171 c -13.34966,0 -18.05806,-1.38096 -24.39837,-7.15596 -5.455,-4.96863 -6.19213,-7.77514 -6.87565,-26.17738 l -0.66859,-18 -22,-0.36015 -22,-0.36014 -9.33334,6.81896 c -12.74962,9.31492 -30.90056,17.9026 -46.76184,22.12426 -11.6026,3.08818 -15.7915,3.5235 -33.90483,3.5235 -18.12698,0 -22.30517,-0.43491 -34,-3.53904 -15.28092,-4.05598 -36.3492,-14.09584 -47.97377,-22.8614 l -7.97376,-6.01266 h -20.25627 -20.25625 l -0.43664,17.77052 c -0.41528,16.90136 -0.6203,18.04772 -4.1915,23.438 -5.3998,8.15035 -11.8852,10.72565 -27.10249,10.76221 -9.86809,0.0237 -12.34488,0.43109 -13,2.13833 -1.06251,2.76885 -1.05487,185.03295 0.008,187.80241 0.72623,1.89252 4.99316,2.09017 38.33333,1.77572 l 37.51602,-0.35384 z m 87.67717,9.72619 -0.34383,-79.66667 h -28.66667 -28.66666 l -0.34383,79.66667 -0.34383,79.66667 h 29.35432 29.35432 z m -37.8105,5.8 c -9.811,-9.811 -3.42492,-24.8 10.56607,-24.8 7.20443,0 14.23393,7.24321 14.23393,14.66667 0,4.51717 -3.74282,10.4652 -7.95636,12.64409 -6.52229,3.37281 -11.73745,2.59543 -16.84364,-2.51076 z m 127.14383,-5.8 -0.34382,-79.66667 -29,-0.35933 -29,-0.35934 v 80.02601 80.026 h 29.34382 29.34383 z m -36.34382,9.07285 c -4.64051,-1.89932 -7.62663,-6.43546 -8.32703,-12.6494 -0.62212,-5.51936 -0.28861,-6.40781 4.02435,-10.72077 3.88844,-3.88844 5.67229,-4.70268 10.30268,-4.70268 4.59085,0 6.41693,0.81693 10.13333,4.53333 3.7164,3.7164 4.53333,5.54248 4.53333,10.13334 0,4.59085 -0.81693,6.41693 -4.53333,10.13333 -4.67484,4.67484 -10.04584,5.76443 -16.13333,3.27285 z M 222.43487,265.66668 c -0.2497,-0.55 -2.40834,-4.75 -4.79697,-9.33334 l -4.34295,-8.33333 H 125.98081 38.666668 v 8.44444 c 0,4.64445 0.4,8.84445 0.888889,9.33333 1.23472,1.23472 183.440093,1.12403 182.879313,-0.11106 z m 423.95941,-8.66667 0.39425,-9 h -88.70839 -88.7084 l -4.34295,8.33333 c -2.38863,4.58334 -4.54863,8.78743 -4.80001,9.34243 -0.25138,0.55501 41.44432,0.85501 92.65709,0.66667 l 93.11415,-0.34243 z"
         id="path507" />
      <path
         style="fill:#5ea1fb;stroke-width:1.33333"
         d="M 30.312624,669.22305 C 7.3215891,663.77393 -4.9619935,641.19288 2.1102046,617.37819 4.9367071,607.86033 15.257161,597.34679 24.92632,594.13521 c 3.762525,-1.24971 7.193317,-3.19044 7.623984,-4.31275 0.430666,-1.12229 0.78303,-10.41257 0.78303,-20.64507 0,-19.36866 1.001693,-23.4353 6.413323,-26.03661 1.23934,-0.59573 10.953345,-1.39612 21.586678,-1.77863 l 19.333334,-0.69546 v -95.33334 -95.33334 l -14.100623,-0.66666 c -12.447989,-0.58854 -14.734046,-1.0861 -19.505135,-4.24536 -8.821728,-5.84146 -11.06091,-12.19127 -11.06091,-31.3663 0,-18.23917 0.336119,-17.70208 -11.109049,-17.75133 -7.281827,-0.0313 -11.336097,-2.20695 -14.068232,-7.54936 -0.9636343,-1.8843 -1.4893863,-13.27168 -1.4893863,-32.25898 0,-28.54245 0.082209,-29.43933 3.0000003,-32.72911 1.65,-1.86034 5.4,-4.14441 8.333333,-5.0757 l 5.333334,-1.69327 0.666667,-15.33196 c 0.366666,-8.43259 1.154009,-16.08511 1.74965,-17.00559 0.595643,-0.92049 14.866043,-13.62729 31.712003,-28.23734 19.507766,-16.91858 32.078994,-26.88221 34.622397,-27.44084 2.803604,-0.61577 5.594502,-0.0426 9.367402,1.92401 6.07573,3.16684 5.7355,3.29598 16.5775,-6.29239 6.31759,-5.5871 6.43126,-5.82193 4.88622,-10.09466 -2.691,-7.44183 -1.97688,-11.39013 2.9515,-16.3185 5.0435,-5.043511 10.87154,-5.922342 16.8,-2.533333 4.85251,2.773946 5.66669,2.54973 12.46221,-3.431915 6.08499,-5.356226 6.14335,-5.485356 4.18772,-9.267121 -2.77072,-5.357984 -2.47641,-9.545339 1.01674,-14.465521 5.17449,-7.288402 60.81985,-54.466084 65.2984,-55.361793 2.21921,-0.443842 52.10993,-0.779924 110.86827,-0.746848 80.34549,0.04523 107.72414,0.458455 110.4262,1.666667 5.66734,2.534111 194.80498,167.368734 197.40714,172.041534 1.79859,3.22979 2.33334,7.32695 2.33334,17.87753 v 13.68747 h 6.70949 c 8.05495,0 14.82297,2.59659 17.78292,6.82249 1.85444,2.64759 2.17328,7.52239 2.16763,33.14086 -0.007,29.69821 -0.0427,30.08172 -3.20579,34.03665 -2.85987,3.57576 -4.16725,4.07071 -12.32672,4.66667 l -9.12753,0.66667 -0.72112,17.33333 c -0.80214,19.28041 -1.98455,22.83129 -9.92383,29.80208 -2.62965,2.30886 -5.21029,4.27144 -5.73479,4.36131 -0.52448,0.0899 -7.2536,0.53985 -14.9536,1 l -14,0.83661 v 95.33334 95.33334 l 17.33333,0.70318 c 9.53334,0.38675 18.40553,1.20946 19.71599,1.82824 4.99448,2.35834 6.28402,7.82234 6.28402,26.62664 0,9.87644 0.35236,18.87542 0.78302,19.99771 0.43067,1.12231 3.86147,3.06304 7.62399,4.31275 9.66916,3.21158 19.98961,13.72512 22.81612,23.24298 6.16971,20.77567 -2.43627,41.11227 -20.93812,49.47842 l -6.95168,3.14341 -308.66668,0.2065 C 166.83863,670.32505 33.194296,669.90604 30.312624,669.22305 Z M 650.24742,637.10094 c 3.75234,-3.52513 3.94208,-7.7482 0.53707,-11.95321 l -2.54885,-3.14771 H 341.33334 34.43106 l -2.548863,3.14771 c -3.338705,4.12313 -3.224463,7.96128 0.350223,11.76636 l 2.899085,3.08593 h 306.014985 306.015 z M 135.73334,539.73335 c 1.21417,-1.21417 1.59508,-23.96211 1.57958,-94.33333 -0.0107,-51.00334 -0.51137,-93.50718 -1.11142,-94.45298 -0.79472,-1.25263 -4.5007,-1.61472 -13.64626,-1.33333 L 110,350.00001 l -0.34239,93.85247 c -0.24888,68.22148 0.0688,94.34793 1.16326,95.66667 1.9589,2.36034 22.58896,2.53771 24.91247,0.2142 z m 106.93333,-89.12619 c 0.7467,-100.8696 0.2026,-95.6742 10.32795,-98.61955 3.46315,-1.00738 33.03627,-1.33249 95.98026,-1.05513 l 90.97487,0.40087 4.35847,4.35832 4.35846,4.35832 0.66667,90.30835 0.66667,90.30835 h 34.66666 34.66667 l 0.34216,-95.66667 0.34216,-95.66667 h -12.74171 c -13.34966,0 -18.05806,-1.38096 -24.39837,-7.15596 -5.455,-4.96863 -6.19213,-7.77514 -6.87565,-26.17738 l -0.66859,-18 -22,-0.36015 -22,-0.36014 -9.33334,6.81896 c -12.74962,9.31492 -30.90056,17.9026 -46.76184,22.12426 -11.6026,3.08818 -15.7915,3.5235 -33.90483,3.5235 -18.12698,0 -22.30517,-0.43491 -34,-3.53904 -15.28092,-4.05598 -36.3492,-14.09584 -47.97377,-22.8614 l -7.97376,-6.01266 h -20.25627 -20.25625 l -0.43664,17.77052 c -0.41528,16.90136 -0.6203,18.04772 -4.1915,23.438 -5.3998,8.15035 -11.8852,10.72565 -27.10249,10.76221 -9.86809,0.0237 -12.34488,0.43109 -13,2.13833 -1.06251,2.76885 -1.05487,185.03295 0.008,187.80241 0.72623,1.89252 4.99316,2.09017 38.33333,1.77572 l 37.51602,-0.35384 z m 332.66668,-5.27381 v -95.33334 h -12.66666 -12.66667 l -0.34235,94.58241 c -0.27064,74.77222 0.008,94.81095 1.33334,95.67355 0.92162,0.60012 6.77568,0.93804 13.00901,0.75093 l 11.33333,-0.34021 z m -244.98951,15 -0.34383,-79.66667 h -28.66667 -28.66666 l -0.34383,79.66667 -0.34383,79.66667 h 29.35432 29.35432 z m -37.8105,5.8 c -9.811,-9.811 -3.42492,-24.8 10.56607,-24.8 7.20443,0 14.23393,7.24321 14.23393,14.66667 0,4.51717 -3.74282,10.4652 -7.95636,12.64409 -6.52229,3.37281 -11.73745,2.59543 -16.84364,-2.51076 z m 127.14383,-5.8 -0.34382,-79.66667 -29,-0.35933 -29,-0.35934 v 80.02601 80.026 h 29.34382 29.34383 z m -36.34382,9.07285 c -4.64051,-1.89932 -7.62663,-6.43546 -8.32703,-12.6494 -0.62212,-5.51936 -0.28861,-6.40781 4.02435,-10.72077 3.88844,-3.88844 5.67229,-4.70268 10.30268,-4.70268 4.59085,0 6.41693,0.81693 10.13333,4.53333 3.7164,3.7164 4.53333,5.54248 4.53333,10.13334 0,4.59085 -0.81693,6.41693 -4.53333,10.13333 -4.67484,4.67484 -10.04584,5.76443 -16.13333,3.27285 z M 182.00001,308.66668 v -12 H 123.33334 64.666669 l -0.393297,10.54881 c -0.216315,5.80184 -0.08272,11.35816 0.296874,12.34737 0.567424,1.47868 11.071371,1.73679 59.059964,1.45119 l 58.3698,-0.34737 z m 440.00001,0 v -12 h -58.66667 -58.66667 l -0.39329,10.54881 c -0.21632,5.80184 -0.0827,11.35816 0.29687,12.34737 0.56742,1.47868 11.07137,1.73679 59.05997,1.45119 l 58.36979,-0.34737 z M 371.16537,298.0113 c 31.4946,-9.12677 55.35052,-29.61989 69.56222,-59.75651 6.37088,-13.50978 8.70481,-23.36265 9.55183,-40.32381 3.12132,-62.50227 -45.67555,-113.932278 -108.27941,-114.12232 -17.94933,-0.05449 -30.69111,2.627172 -45.79136,9.637346 -25.21113,11.704064 -42.56916,28.844304 -54.24238,53.561814 -7.60685,16.10717 -9.2996,24.53949 -9.2996,46.32552 0,16.54685 0.4505,20.77461 3.12563,29.33333 11.38724,36.43189 38.59128,64.1425 73.328,74.69346 14.0249,4.25992 21.8243,5.22883 36.96846,4.59249 8.96368,-0.37664 17.29335,-1.68581 25.07661,-3.94132 z m -34.49869,-19.24305 c -5.85327,-2.45872 -7.93866,-6.57967 -8.44958,-16.69727 l -0.48948,-9.69317 -7.02057,-2.90987 c -18.97343,-7.86404 -27.70081,-24.01263 -18.14293,-33.57049 5.49125,-5.49126 11.66584,-5.33858 17.62821,0.43589 8.11684,7.86104 10.55192,8.98181 19.53495,8.99121 7.14093,0.008 8.88248,-0.47974 11.66667,-3.26394 4.38872,-4.38871 4.39686,-10.59591 0.0176,-13.46526 -1.79028,-1.17304 -9.96754,-4.12749 -18.17166,-6.56545 -18.09035,-5.37575 -24.4644,-9.54665 -29.62603,-19.386 -3.4735,-6.62137 -3.7932,-8.33048 -3.39114,-18.12945 0.39936,-9.73356 0.89661,-11.48216 4.95673,-17.43055 4.77472,-6.99535 11.14971,-12.14066 18.00401,-14.53121 3.93414,-1.3721 4.18926,-1.89183 4.90867,-10 0.41736,-4.70398 1.48111,-9.88894 2.36388,-11.52213 3.44897,-6.38084 12.46936,-7.64051 18.36967,-2.56527 3.15749,2.71596 3.74293,4.41692 4.40769,12.80631 l 0.76658,9.67437 6.25449,2.36823 c 10.56824,4.0016 18.38449,11.82436 18.40339,18.41869 0.0143,4.96801 -3.55886,10.43117 -8.03496,12.28524 -3.8629,1.60006 -4.87254,1.36728 -13.72955,-3.16558 -11.22317,-5.7438 -18.58736,-6.38357 -24.0469,-2.0891 -5.26797,4.14378 -4.92924,11.08124 0.70846,14.50973 2.32189,1.41203 6.67189,2.97117 9.66667,3.46479 2.99478,0.49361 10.10889,2.35998 15.80913,4.14748 17.77861,5.57506 24.88563,14.5875 24.93999,31.62653 0.0161,5.04825 -0.684,11.55936 -1.55579,14.46912 -2.33368,7.78912 -11.88297,17.67946 -21.19815,21.95522 l -7.88338,3.61858 v 9.03486 c 0,8.00405 -0.41834,9.48818 -3.66667,13.00829 -4.01741,4.35353 -8.86308,5.90795 -13,4.1702 z M 222.43487,265.66668 c -0.2497,-0.55 -2.40834,-4.75 -4.79697,-9.33334 l -4.34295,-8.33333 H 125.98081 38.666668 v 8.44444 c 0,4.64445 0.4,8.84445 0.888889,9.33333 1.23472,1.23472 183.440093,1.12403 182.879313,-0.11106 z m 423.95941,-8.66667 0.39425,-9 h -88.70839 -88.7084 l -4.34295,8.33333 c -2.38863,4.58334 -4.54863,8.78743 -4.80001,9.34243 -0.25138,0.55501 41.44432,0.85501 92.65709,0.66667 l 93.11415,-0.34243 z"
         id="path505" />
      <path
         style="fill:#9da7a8;stroke-width:1.33333"
         d="M 30.312624,669.22305 C 7.3215891,663.77393 -4.9619935,641.19288 2.1102046,617.37819 4.9367071,607.86033 15.257161,597.34679 24.92632,594.13521 c 3.762525,-1.24971 7.193317,-3.19044 7.623984,-4.31275 0.430666,-1.12229 0.78303,-10.41257 0.78303,-20.64507 0,-19.36866 1.001693,-23.4353 6.413323,-26.03661 1.23934,-0.59573 10.953345,-1.39612 21.586678,-1.77863 l 19.333334,-0.69546 v -95.33334 -95.33334 l -14.100623,-0.66666 c -12.447989,-0.58854 -14.734046,-1.0861 -19.505135,-4.24536 -8.821728,-5.84146 -11.06091,-12.19127 -11.06091,-31.3663 0,-18.23917 0.336119,-17.70208 -11.109049,-17.75133 -7.281827,-0.0313 -11.336097,-2.20695 -14.068232,-7.54936 -0.9636343,-1.8843 -1.4893863,-13.27168 -1.4893863,-32.25898 0,-28.54245 0.082209,-29.43933 3.0000003,-32.72911 1.65,-1.86034 5.4,-4.14441 8.333333,-5.0757 l 5.333334,-1.69327 0.666667,-15.33196 c 0.366666,-8.43259 1.148485,-16.07616 1.737376,-16.98573 2.242316,-3.46335 61.345144,-53.90369 64.619806,-55.14871 4.78638,-1.81978 10.18853,-0.33651 14.94007,4.10209 4.27623,3.99459 5.16955,8.87885 2.77559,15.17547 -0.69328,1.82345 -13.281843,13.71251 -27.974594,26.42013 l -26.714091,23.10478 -0.02541,9.67786 -0.02541,9.67786 74.288905,-0.34452 74.28891,-0.34454 -0.62224,-6.66666 c -0.34223,-3.66667 -0.50695,-13.56667 -0.36601,-22 1.0945,-65.5 52.28855,-122.314666 119.00425,-132.069792 14.58002,-2.131879 37.45749,-0.908775 52.07286,2.783983 14.30687,3.614812 36.35796,13.987315 47.83488,22.50081 18.62316,13.814528 34.5145,33.197819 44.23886,53.959889 9.93936,21.22109 14.79969,48.81685 12.23932,69.49177 -0.72654,5.86667 -0.90878,11.12208 -0.40499,11.6787 0.50379,0.55661 32.38057,0.85661 70.8373,0.66666 l 69.9213,-0.34536 0.39112,-8.86228 0.39111,-8.86229 -39.72444,-34.52392 C 558.54269,145.43003 517.70922,109.96805 489.6501,85.613798 L 438.63352,41.333335 H 337.638 236.64247 l -25.32124,22.121754 c -13.92666,12.166964 -27.12122,23.264721 -29.32122,24.661683 -7.56903,4.806197 -15.86852,2.539292 -20.00762,-5.464828 -2.77973,-5.375421 -2.48872,-9.558492 1.00762,-14.483164 5.17449,-7.288402 60.81985,-54.466084 65.2984,-55.361793 2.21921,-0.443842 52.10993,-0.779924 110.86827,-0.746848 80.34549,0.04523 107.72414,0.458455 110.4262,1.666667 5.66734,2.534111 194.80498,167.368734 197.40714,172.041534 1.79859,3.22979 2.33334,7.32695 2.33334,17.87753 v 13.68747 h 6.70949 c 8.05495,0 14.82297,2.59659 17.78292,6.82249 1.85444,2.64759 2.17328,7.52239 2.16763,33.14086 -0.007,29.69821 -0.0427,30.08172 -3.20579,34.03665 -2.85987,3.57576 -4.16725,4.07071 -12.32672,4.66667 l -9.12753,0.66667 -0.72112,17.33333 c -0.80214,19.28041 -1.98455,22.83129 -9.92383,29.80208 -2.62965,2.30886 -5.21029,4.27144 -5.73479,4.36131 -0.52448,0.0899 -7.2536,0.53985 -14.9536,1 l -14,0.83661 v 95.33334 95.33334 l 17.33333,0.70318 c 9.53334,0.38675 18.40553,1.20946 19.71599,1.82824 4.99448,2.35834 6.28402,7.82234 6.28402,26.62664 0,9.87644 0.35236,18.87542 0.78302,19.99771 0.43067,1.12231 3.86147,3.06304 7.62399,4.31275 9.66916,3.21158 19.98961,13.72512 22.81612,23.24298 6.16971,20.77567 -2.43627,41.11227 -20.93812,49.47842 l -6.95168,3.14341 -308.66668,0.2065 C 166.83863,670.32505 33.194296,669.90604 30.312624,669.22305 Z M 650.24742,637.10094 c 3.75234,-3.52513 3.94208,-7.7482 0.53707,-11.95321 l -2.54885,-3.14771 H 341.33334 34.43106 l -2.548863,3.14771 c -3.338705,4.12313 -3.224463,7.96128 0.350223,11.76636 l 2.899085,3.08593 h 306.014985 306.015 z m -30.2474,-56.43739 v -10.00312 l -279.00001,0.33646 -279.000008,0.33646 -0.405363,7.85071 c -0.22295,4.31788 -0.09179,8.66788 0.291487,9.66667 0.584959,1.52437 45.448054,1.81596 279.405374,1.81596 h 278.70852 z m -484.26668,-40.9302 c 1.21417,-1.21417 1.59508,-23.96211 1.57958,-94.33333 -0.0107,-51.00334 -0.51137,-93.50718 -1.11142,-94.45298 -0.79472,-1.25263 -4.5007,-1.61472 -13.64626,-1.33333 L 110,350.00001 l -0.34239,93.85247 c -0.24888,68.22148 0.0688,94.34793 1.16326,95.66667 1.9589,2.36034 22.58896,2.53771 24.91247,0.2142 z m 106.93333,-89.12619 c 0.7467,-100.8696 0.2026,-95.6742 10.32795,-98.61955 3.46315,-1.00738 33.03627,-1.33249 95.98026,-1.05513 l 90.97487,0.40087 4.35847,4.35832 4.35846,4.35832 0.66667,90.30835 0.66667,90.30835 h 34.66666 34.66667 l 0.34216,-95.66667 0.34216,-95.66667 h -12.74171 c -13.34966,0 -18.05806,-1.38096 -24.39837,-7.15596 -5.455,-4.96863 -6.19213,-7.77514 -6.87565,-26.17738 l -0.66859,-18 -22,-0.36015 -22,-0.36014 -9.33334,6.81896 c -12.74962,9.31492 -30.90056,17.9026 -46.76184,22.12426 -11.6026,3.08818 -15.7915,3.5235 -33.90483,3.5235 -18.12698,0 -22.30517,-0.43491 -34,-3.53904 -15.28092,-4.05598 -36.3492,-14.09584 -47.97377,-22.8614 l -7.97376,-6.01266 h -20.25627 -20.25625 l -0.43664,17.77052 c -0.41528,16.90136 -0.6203,18.04772 -4.1915,23.438 -5.3998,8.15035 -11.8852,10.72565 -27.10249,10.76221 -9.86809,0.0237 -12.34488,0.43109 -13,2.13833 -1.06251,2.76885 -1.05487,185.03295 0.008,187.80241 0.72623,1.89252 4.99316,2.09017 38.33333,1.77572 l 37.51602,-0.35384 z m 332.66668,-5.27381 v -95.33334 h -12.66666 -12.66667 l -0.34235,94.58241 c -0.27064,74.77222 0.008,94.81095 1.33334,95.67355 0.92162,0.60012 6.77568,0.93804 13.00901,0.75093 l 11.33333,-0.34021 z m -244.98951,15 -0.34383,-79.66667 h -28.66667 -28.66666 l -0.34383,79.66667 -0.34383,79.66667 h 29.35432 29.35432 z m -37.8105,5.8 c -9.811,-9.811 -3.42492,-24.8 10.56607,-24.8 7.20443,0 14.23393,7.24321 14.23393,14.66667 0,4.51717 -3.74282,10.4652 -7.95636,12.64409 -6.52229,3.37281 -11.73745,2.59543 -16.84364,-2.51076 z m 127.14383,-5.8 -0.34382,-79.66667 -29,-0.35933 -29,-0.35934 v 80.02601 80.026 h 29.34382 29.34383 z m -36.34382,9.07285 c -4.64051,-1.89932 -7.62663,-6.43546 -8.32703,-12.6494 -0.62212,-5.51936 -0.28861,-6.40781 4.02435,-10.72077 3.88844,-3.88844 5.67229,-4.70268 10.30268,-4.70268 4.59085,0 6.41693,0.81693 10.13333,4.53333 3.7164,3.7164 4.53333,5.54248 4.53333,10.13334 0,4.59085 -0.81693,6.41693 -4.53333,10.13333 -4.67484,4.67484 -10.04584,5.76443 -16.13333,3.27285 z M 182.00001,308.66668 v -12 H 123.33334 64.666669 l -0.393297,10.54881 c -0.216315,5.80184 -0.08272,11.35816 0.296874,12.34737 0.567424,1.47868 11.071371,1.73679 59.059964,1.45119 l 58.3698,-0.34737 z m 440.00001,0 v -12 h -58.66667 -58.66667 l -0.39329,10.54881 c -0.21632,5.80184 -0.0827,11.35816 0.29687,12.34737 0.56742,1.47868 11.07137,1.73679 59.05997,1.45119 l 58.36979,-0.34737 z M 371.16537,298.0113 c 31.4946,-9.12677 55.35052,-29.61989 69.56222,-59.75651 6.37088,-13.50978 8.70481,-23.36265 9.55183,-40.32381 3.12132,-62.50227 -45.67555,-113.932278 -108.27941,-114.12232 -17.94933,-0.05449 -30.69111,2.627172 -45.79136,9.637346 -25.21113,11.704064 -42.56916,28.844304 -54.24238,53.561814 -7.60685,16.10717 -9.2996,24.53949 -9.2996,46.32552 0,16.54685 0.4505,20.77461 3.12563,29.33333 11.38724,36.43189 38.59128,64.1425 73.328,74.69346 14.0249,4.25992 21.8243,5.22883 36.96846,4.59249 8.96368,-0.37664 17.29335,-1.68581 25.07661,-3.94132 z m -34.49869,-19.24305 c -5.85327,-2.45872 -7.93866,-6.57967 -8.44958,-16.69727 l -0.48948,-9.69317 -7.02057,-2.90987 c -18.97343,-7.86404 -27.70081,-24.01263 -18.14293,-33.57049 5.49125,-5.49126 11.66584,-5.33858 17.62821,0.43589 8.11684,7.86104 10.55192,8.98181 19.53495,8.99121 7.14093,0.008 8.88248,-0.47974 11.66667,-3.26394 4.38872,-4.38871 4.39686,-10.59591 0.0176,-13.46526 -1.79028,-1.17304 -9.96754,-4.12749 -18.17166,-6.56545 -18.09035,-5.37575 -24.4644,-9.54665 -29.62603,-19.386 -3.4735,-6.62137 -3.7932,-8.33048 -3.39114,-18.12945 0.39936,-9.73356 0.89661,-11.48216 4.95673,-17.43055 4.77472,-6.99535 11.14971,-12.14066 18.00401,-14.53121 3.93414,-1.3721 4.18926,-1.89183 4.90867,-10 0.41736,-4.70398 1.48111,-9.88894 2.36388,-11.52213 3.44897,-6.38084 12.46936,-7.64051 18.36967,-2.56527 3.15749,2.71596 3.74293,4.41692 4.40769,12.80631 l 0.76658,9.67437 6.25449,2.36823 c 10.56824,4.0016 18.38449,11.82436 18.40339,18.41869 0.0143,4.96801 -3.55886,10.43117 -8.03496,12.28524 -3.8629,1.60006 -4.87254,1.36728 -13.72955,-3.16558 -11.22317,-5.7438 -18.58736,-6.38357 -24.0469,-2.0891 -5.26797,4.14378 -4.92924,11.08124 0.70846,14.50973 2.32189,1.41203 6.67189,2.97117 9.66667,3.46479 2.99478,0.49361 10.10889,2.35998 15.80913,4.14748 17.77861,5.57506 24.88563,14.5875 24.93999,31.62653 0.0161,5.04825 -0.684,11.55936 -1.55579,14.46912 -2.33368,7.78912 -11.88297,17.67946 -21.19815,21.95522 l -7.88338,3.61858 v 9.03486 c 0,8.00405 -0.41834,9.48818 -3.66667,13.00829 -4.01741,4.35353 -8.86308,5.90795 -13,4.1702 z M 222.43487,265.66668 c -0.2497,-0.55 -2.40834,-4.75 -4.79697,-9.33334 l -4.34295,-8.33333 H 125.98081 38.666668 v 8.44444 c 0,4.64445 0.4,8.84445 0.888889,9.33333 1.23472,1.23472 183.440093,1.12403 182.879313,-0.11106 z m 423.95941,-8.66667 0.39425,-9 h -88.70839 -88.7084 l -4.34295,8.33333 c -2.38863,4.58334 -4.54863,8.78743 -4.80001,9.34243 -0.25138,0.55501 41.44432,0.85501 92.65709,0.66667 l 93.11415,-0.34243 z M 132.34176,121.35699 c -4.09892,-1.733 -8.33074,-9.08842 -8.33677,-14.49032 -0.004,-3.30589 1.17311,-5.64476 4.52835,-9 5.36821,-5.368215 11.09992,-5.966372 17.83324,-1.861069 8.04967,4.907879 8.89705,15.035409 1.82496,21.810909 -4.12791,3.95477 -11.15646,5.52479 -15.84978,3.54048 z"
         id="path503" />
      <path
         style="fill:#456fa8;stroke-width:1.33333"
         d="M 26.12581,667.13962 C 16.331617,664.13289 4.9275551,652.26778 1.9337785,641.96956 -3.7846245,622.29894 6.5100466,602.04751 25.899097,594.82555 l 6.767571,-2.52076 0.666666,-20.48572 c 0.390039,-11.98534 1.315398,-21.61413 2.230095,-23.20516 2.829956,-4.92245 7.076604,-5.93102 26.436573,-6.27869 l 18.666667,-0.3352 v -96.66667 -96.66667 l -14,-0.66667 c -15.679011,-0.74661 -20.515477,-2.57182 -25.56155,-9.64655 -2.797102,-3.92161 -3.171248,-6.2051 -3.771784,-23.02012 l -0.666667,-18.66666 -8.872435,-0.76307 c -10.093935,-0.86812 -15.293868,-3.63363 -16.773063,-8.92047 -1.3372657,-4.77957 -1.3250094,-54.56208 0.01461,-59.35783 1.146655,-4.10493 7.975811,-8.94592 12.630884,-8.95365 2.907744,-0.005 3,-0.40889 3,-13.13936 0,-7.22389 0.668307,-15.05147 1.485124,-17.3946 1.060546,-3.04228 9.923078,-11.61385 31.000001,-29.98228 30.588223,-26.65748 33.453154,-28.82208 38.147007,-28.82208 5.065314,0 13.262714,5.11676 14.203674,8.86582 2.23329,8.89817 0.0201,11.74634 -28.169137,36.25165 l -26.666667,23.18168 -0.389622,9.86165 -0.38962,9.86164 74.345196,-0.34455 74.3452,-0.34456 -0.62224,-6.66666 c -0.34223,-3.66667 -0.50695,-13.56667 -0.36601,-22 1.0945,-65.5 52.28855,-122.314666 119.00425,-132.069792 14.58002,-2.131879 37.45749,-0.908775 52.07286,2.783983 14.30687,3.614812 36.35796,13.987315 47.83488,22.50081 18.62316,13.814528 34.5145,33.197819 44.23886,53.959889 9.93936,21.22109 14.79969,48.81685 12.23932,69.49177 -0.72654,5.86667 -0.90878,11.12208 -0.40499,11.6787 0.50379,0.55661 32.38057,0.85661 70.8373,0.66666 l 69.9213,-0.34536 0.39112,-8.86228 0.39111,-8.86229 -39.72444,-34.52392 C 558.54269,145.43003 517.70922,109.96805 489.6501,85.613798 L 438.63352,41.333335 H 337.638 236.64247 l -25.32124,22.121754 c -13.92666,12.166964 -27.12122,23.264721 -29.32122,24.661683 -4.4202,2.806747 -10.13558,3.284742 -14.07386,1.177039 -5.0477,-2.701449 -8.16272,-12.984591 -5.79917,-19.143917 0.76095,-1.982994 55.03201,-49.854048 61.83637,-54.544204 3.04087,-2.096034 11.83492,-2.27197 113.33334,-2.267372 105.19457,0.0048 110.21267,0.114773 114.03666,2.500004 5.39917,3.36776 192.97907,166.491648 194.66667,169.286698 0.73334,1.21457 1.63334,9.10832 2,17.54165 l 0.66667,15.33334 9.55507,0.74412 c 16.47197,1.2828 17.78105,4.04864 17.77082,37.54639 -0.004,13.40689 -0.63385,26.63184 -1.39948,29.38877 -1.8087,6.51295 -6.15233,9.22267 -16.34765,10.19833 l -8.24543,0.78906 -0.66858,18 c -0.69828,18.79978 -1.31916,21.01317 -7.55,26.91517 -5.4813,5.19202 -9.86286,6.41816 -22.93489,6.41816 -7.28064,0 -12.24632,0.59979 -13.24653,1.6 -2.31475,2.31475 -2.31475,189.15193 0,191.46668 1.06951,1.0695 7.14805,1.61405 18.33333,1.6424 24.07966,0.0611 24.47877,0.51508 25.40001,28.89686 l 0.66666,20.5389 7.86694,3.19346 c 18.9814,7.70524 28.52445,27.16667 22.86596,46.63125 -1.80715,6.21634 -3.79374,9.30464 -9.93726,15.44816 -13.13901,13.13901 20.65336,11.92848 -330.03765,11.82277 -270.440473,-0.0815 -308.89068,-0.33827 -314.6322,-2.10087 z m 625.26815,-29.079 c 4.3298,-4.32979 4.3298,-10.45808 0,-14.78787 l -3.27272,-3.27273 H 341.33334 34.545456 l -3.272728,3.27273 c -2.062983,2.06298 -3.272727,4.79611 -3.272727,7.39394 0,2.59782 1.209744,5.33096 3.272727,7.39393 l 3.272728,3.27274 h 306.787884 306.7879 z m -31.39394,-57.39707 v -10.00312 l -279.00001,0.33646 -279.000008,0.33646 -0.405363,7.85071 c -0.22295,4.31788 -0.09179,8.66788 0.291487,9.66667 0.584959,1.52437 45.448054,1.81596 279.405374,1.81596 h 278.70852 z m -483.42859,-40.0921 c 1.86456,-1.86456 2.09524,-12.29658 2.09524,-94.75433 0,-61.32245 -0.46679,-93.53129 -1.38024,-95.23809 -1.21215,-2.2649 -2.88481,-2.57902 -13.73334,-2.57902 -7.83018,0 -12.9389,0.58582 -13.95309,1.6 -1.21429,1.2143 -1.6,24.34083 -1.6,95.93375 0,88.43504 0.14591,94.41874 2.33334,95.69279 3.92707,2.28731 23.79165,1.79134 26.23809,-0.6551 z m 105.82858,0.49524 c 1.21229,-1.2123 1.6,-23.03694 1.6,-90.06622 0,-96.01447 -0.14976,-94.01499 7.29608,-97.40754 2.60268,-1.18586 27.02353,-1.59292 95.56666,-1.59292 h 92.0706 l 4.53333,4.53334 4.53334,4.53333 v 89.99068 c 0,80.82975 0.21469,90.07307 2.10905,90.80001 3.15425,1.2104 67.62592,0.93674 69.56651,-0.29528 1.32504,-0.84124 1.60397,-21.12918 1.33333,-96.97959 l -0.34223,-95.91582 -14.66666,-0.69125 c -15.72911,-0.74134 -18.48687,-1.66659 -23.80495,-7.98677 -4.87391,-5.79232 -6.17915,-11.90729 -6.18761,-28.98865 l -0.007,-15 H 453.6409 431.28132 l -7.97376,5.99759 c -48.08019,36.16418 -115.9325,36.1529 -163.97378,-0.0273 l -8,-6.02485 -20.66667,0.3606 -20.66666,0.3606 -0.66667,18 c -1.02768,27.74729 -4.92037,32.17081 -29.33333,33.33333 l -14,0.66667 -0.34223,95.91582 c -0.27064,75.85041 0.008,96.13835 1.33333,96.97959 2.86302,1.81764 73.5603,1.3532 75.4089,-0.4954 z m 333.27557,0.4954 c 1.32504,-0.84124 1.60397,-21.12918 1.33333,-96.97959 l -0.34222,-95.91582 -12.46763,-0.38515 c -8.04664,-0.24857 -13.12919,0.16392 -14.33333,1.16327 -1.56652,1.30009 -1.86571,16.66032 -1.86571,95.78514 0,71.51746 0.38573,94.62248 1.6,95.83675 1.81115,1.81114 23.35829,2.22052 26.07556,0.4954 z M 331.3431,538.33335 c 0.39999,-1.65 0.56142,-37.8 0.35874,-80.33333 l -0.3685,-77.33334 -29.66666,-0.35884 -29.66667,-0.35884 v 79.80328 c 0,43.89182 0.4,80.2033 0.88889,80.69218 0.48888,0.48889 13.67746,0.88889 29.30792,0.88889 28.36724,0 28.42038,-0.005 29.14628,-3 z m -34.92348,-69.56623 c -4.45036,-1.99006 -8.41961,-8.00885 -8.41961,-12.7671 0,-4.59938 3.77129,-10.47992 8.18455,-12.7621 13.40498,-6.932 26.39693,10.82986 16.14878,22.07771 -4.37741,4.80441 -10.10845,6.04741 -15.91372,3.45149 z m 123.25747,-8.4593 0.34376,-80.35887 -29.67709,0.35886 -29.67708,0.35887 -0.34596,78.66667 c -0.19029,43.26667 -0.0547,79.42842 0.30149,80.35943 0.50182,1.31195 7.17856,1.61189 29.6793,1.33333 l 29.03184,-0.35942 z m -36.58244,8.20781 c -6.18449,-3.04993 -9.18526,-10.06351 -7.1756,-16.7712 1.71923,-5.73825 7.73291,-10.40111 13.4143,-10.40111 5.68138,0 11.69506,4.66286 13.41429,10.40111 2.04936,6.8402 -1.00249,13.79029 -7.38549,16.81923 -5.46758,2.59453 -6.92058,2.58884 -12.2675,-0.048 z M 182.00001,308.66668 v -12 H 123.33334 64.666669 l -0.393297,10.54881 c -0.216315,5.80184 -0.08272,11.35816 0.296874,12.34737 0.567424,1.47868 11.071371,1.73679 59.059964,1.45119 l 58.3698,-0.34737 z m 440.00001,0 v -12 l -59,-0.3472 -59,-0.3472 v 12.6944 12.6944 l 59,-0.3472 59,-0.3472 z m -254.00001,-9.3253 c 4.76667,-1.13604 14.84703,-5.11906 22.4008,-8.85117 29.84598,-14.74607 51.76507,-43.34505 58.42969,-76.2363 2.97885,-14.70125 1.95794,-39.23052 -2.17482,-52.2539 C 430.23831,110.2646 381.06963,77.638269 329.052,83.962999 c -25.94347,3.15442 -45.6988,12.759331 -64.52238,31.370341 -14.0493,13.89065 -21.14536,25.16206 -27.40643,43.53255 -3.66077,10.74098 -4.33113,14.80857 -4.84092,29.37356 -0.64786,18.50992 1.32218,31.1013 7.10994,45.44278 13.76132,34.09918 45.45953,60.11005 81.61264,66.96959 12.34679,2.34264 34.22739,1.7325 46.99516,-1.31044 z m -36.03712,-24.04756 c -2.57379,-2.73965 -3.30577,-5.2812 -3.89909,-13.53809 l -0.73046,-10.16523 -4.9832,-1.71964 c -19.2193,-6.63231 -29.4907,-24.26873 -19.78602,-33.97341 5.59881,-5.59883 10.68838,-5.24235 17.79901,1.24662 8.46509,7.72503 12.12608,9.00215 24.03082,8.3831 5.10392,-0.26542 10.27273,-5.70934 10.27273,-10.81948 0,-5.23575 -4.62764,-8.17226 -18.98274,-12.04567 -14.4005,-3.88568 -20.86328,-6.88813 -26.21864,-12.18059 -6.59216,-6.5147 -9.40386,-13.62074 -9.42298,-23.81476 -0.0281,-14.9941 7.94786,-27.28668 21.62436,-33.32743 6.1048,-2.69641 6.3336,-2.99958 6.34077,-8.40163 0.0168,-12.64331 4.41148,-19.60427 12.37689,-19.60427 8.47969,0 12.94901,6.16399 12.94901,17.85902 v 7.32478 l 7.84944,3.52261 c 14.74217,6.61589 20.96353,17.17699 14.76256,25.06024 -5.22042,6.6367 -8.39351,6.90184 -19.12707,1.59828 -9.94161,-4.91224 -16.78423,-5.87161 -22.68916,-3.18114 -5.98975,2.7291 -6.8807,11.31945 -1.62628,15.68024 1.17394,0.97428 7.99106,3.15786 15.14915,4.85238 17.03009,4.03151 24.17798,7.2193 29.32044,13.07623 5.14054,5.85476 7.01446,12.15028 7.00712,23.54069 -0.009,15.50631 -7.9873,27.15523 -23.44123,34.23029 l -6.91672,3.16657 -0.51064,10.11223 c -0.45913,9.09212 -0.88468,10.43396 -4.21848,13.30157 -5.14896,4.42895 -12.67304,4.34739 -16.92959,-0.18351 z m -106.86274,-8.29381 c -0.25048,-0.55 -2.71018,-5.35428 -5.466,-10.67617 l -5.01058,-9.67619 -88.31178,0.34285 -88.311789,0.34284 -0.401964,8.52623 c -0.22108,4.68943 -0.08991,9.33943 0.291488,10.33333 0.574378,1.49682 16.745956,1.80711 94.179745,1.80711 51.41746,0 93.28135,-0.45 93.03088,-1 z m 422.62262,-10 0.38943,-10.33333 h -90.03933 -90.03933 l -5.00579,9.66666 c -2.75319,5.31667 -5.21207,10.12068 -5.46417,10.67559 -0.25212,0.55491 42.34294,0.85491 94.65569,0.66667 l 95.11409,-0.34226 z M 132.40315,121.3797 c -3.85011,-1.63207 -7.06981,-8.04556 -7.06981,-14.08271 0,-6.64522 5.91761,-12.63032 12.48789,-12.63032 6.90988,0 13.92196,4.608515 14.89375,9.78855 2.07513,11.06141 -10.13752,21.23739 -20.31183,16.92448 z"
         id="path501" />
      <path
         style="fill:#0a0b0b;stroke-width:1.33333"
         d="M 27.991369,666.75994 C 18.725966,663.9257 10.084414,656.4512 3.9900819,646.00002 c -4.85807468,-8.3311 -4.58596381,-21.71424 0.6331613,-31.14055 4.8964074,-8.84344 14.0022438,-17.03216 21.2358298,-19.09702 8.956776,-2.55675 8.807595,-2.16167 8.807595,-23.32523 0,-20.15196 1.215636,-25.54477 6.28402,-27.87719 1.310456,-0.60305 11.082647,-1.42577 21.715981,-1.82824 l 19.333334,-0.73177 v -96.66667 -96.66667 l -14.664046,-1.04167 c -12.292114,-0.87318 -15.467213,-1.57318 -19.629486,-4.32765 -7.97808,-5.27964 -9.43132,-9.51272 -10.286832,-29.96402 l -0.752971,-18 -6,-0.33832 c -12.000723,-0.67668 -14.673599,-1.60914 -17.391945,-6.06736 -2.353623,-3.86005 -2.596707,-6.83289 -2.583416,-31.59432 0.01031,-19.19172 0.511,-28.31421 1.680967,-30.62636 1.781866,-3.52144 6.029163,-6.12828 11.96106,-7.34131 l 3.666667,-0.7498 v -13.8878 c 0,-7.63829 0.553327,-15.34316 1.229615,-17.12193 1.089557,-2.86575 14.803639,-15.36521 51.930245,-47.33092 8.358579,-7.19667 12.140409,-9.60855 15.066214,-9.60855 4.788085,0 11.160445,3.14479 12.279025,6.05973 1.03823,2.70559 1.07332,9.0835 0.0644,11.71259 -0.42009,1.09475 -13.020093,12.62786 -28.000005,25.62915 l -27.2362,23.63871 v 10.4799 10.47992 h 76.656555 76.65656 l -0.81658,-17.66666 c -1.9311,-41.77918 10.95702,-75.35851 40.07122,-104.403487 19.54368,-19.497208 41.32243,-31.178862 68.76559,-36.884384 16.48241,-3.426748 44.65385,-2.776294 60.23391,1.390748 39.82972,10.652854 70.62009,35.984268 88.40196,72.728773 10.96928,22.66696 13.37851,33.87007 13.29756,61.83501 l -0.0665,23 h 72.25725 c 81.53838,0 73.87586,1.18886 73.87586,-11.46196 0,-6.32913 -0.5472,-7.83148 -4.33334,-11.89726 -2.38333,-2.55938 -43.33333,-38.52836 -91,-79.9311 L 440.66668,40.098661 337.76798,40.049328 234.8693,40.000001 207.25982,64.000002 c -25.67828,22.321285 -27.97453,24.000001 -32.82859,24.000001 -8.98626,0 -14.42497,-8.848987 -10.97092,-17.850109 0.89288,-2.326806 56.95386,-51.517232 61.46314,-53.930528 2.14057,-1.145597 31.91308,-1.552699 113.55327,-1.552699 h 110.65203 l 4.41324,3.666667 c 17.86223,14.840507 187.75323,162.730326 190.11807,165.497436 2.7093,3.17017 2.99402,4.90082 3,18.2359 0.004,9.67332 0.55614,15.28284 1.60663,16.33334 0.9028,0.9028 5.22792,1.6 9.92565,1.6 6.87622,0 8.97692,0.55978 12.06667,3.21544 l 3.74101,3.21544 0.40622,28.70984 c 0.52288,36.95571 -0.57562,39.52595 -16.89302,39.52595 -3.47225,0 -7.0332,0.72 -7.9132,1.6 -1.07582,1.07582 -1.6,7.12654 -1.6,18.46949 0,15.29935 -0.27922,17.27976 -3,21.2774 -6.20926,9.1233 -13.24743,11.74143 -32.00871,11.90696 l -9.0087,0.0795 0.34204,97 0.34204,97.00001 17.33333,0.74261 c 9.53333,0.40843 18.40552,1.23113 19.71599,1.82824 5.06541,2.30801 6.28401,7.71185 6.28401,27.86635 0,21.16356 -0.14918,20.76848 8.8076,23.32522 7.23359,2.06487 16.33942,10.25359 21.23583,19.09703 5.21912,9.42631 5.49123,22.80944 0.63316,31.14055 -4.37512,7.50289 -11.75259,15.05912 -18.00992,18.44631 l -5.33333,2.88702 -312.00001,0.22444 C 171.73334,667.68125 29.82945,667.3222 27.991369,666.75993 Z m 624.493511,-27.6084 c 4.93032,-4.93032 4.78064,-11.42448 -0.3823,-16.58741 l -3.89742,-3.89744 H 341.53821 34.871269 l -4.102301,3.45185 c -5.484627,4.61501 -5.73523,11.88492 -0.587148,17.033 l 3.51515,3.51515 h 307.63637 307.63638 z m -31.42739,-46.95281 c 1.24102,-0.78731 1.61462,-4.2374 1.33333,-12.31291 l -0.3908,-11.21913 H 341.33334 60.666669 l -0.390798,11.21913 c -0.281294,8.07551 0.09231,11.5256 1.333334,12.31291 0.948272,0.60158 126.824135,1.09378 279.724135,1.09378 152.90001,0 278.77587,-0.4922 279.72415,-1.09378 z M 138,445.33335 v -96.66667 h -14.66666 -14.66667 l -0.34499,95.33334 c -0.18975,52.43333 -0.0507,96.10375 0.30889,97.04536 0.48921,1.28087 4.2697,1.61665 15.01166,1.33333 L 138,542.00002 Z m 106.52402,95.22428 c 0.44514,-1.15997 0.80932,-42.17816 0.80932,-91.15151 v -89.04247 l 3.51515,-3.51516 3.51516,-3.51514 h 93.07716 93.07716 l 3.74103,3.21744 3.74102,3.21742 0.66666,91.11591 0.66667,91.1159 h 37.33333 37.33334 v -96.66667 -96.66667 l -14.00554,-0.79624 c -14.21789,-0.80832 -19.92566,-2.55673 -24.15961,-7.40059 -4.98451,-5.70253 -5.83544,-9.25523 -6.4996,-27.13651 l -0.66859,-18 -22.45932,-0.36614 -22.45932,-0.36614 -8.87401,6.5361 c -24.78519,18.25537 -50.9127,26.86285 -81.54069,26.86285 -30.62966,0 -56.75533,-8.60733 -81.54416,-26.86543 l -8.87748,-6.53868 -20.45585,0.36872 -20.45584,0.36872 -0.79043,18.1702 c -0.67707,15.56414 -1.2126,18.85327 -3.73388,22.93279 -5.06013,8.18747 -10.46408,10.5072 -26.61348,11.42424 l -14.19555,0.80611 -0.345,95.33334 c -0.18974,52.43333 -0.0585,96.08333 0.2915,97 0.48925,1.28115 9.71133,1.66667 39.86901,1.66667 34.54495,0 39.32923,-0.252 40.04184,-2.10906 z m 88.14266,-79.89095 v -81.33333 h -31.33334 -31.33333 l -0.36841,78.66667 c -0.20262,43.26666 -0.0384,80.02769 0.36489,81.69116 l 0.73329,3.02449 30.96844,-0.35782 30.96846,-0.35783 z m -37.6013,5.3292 c -3.79426,-2.65761 -6.17646,-9.99194 -4.59174,-14.13714 3.7334,-9.76554 17.64037,-11.32928 22.20766,-2.49711 2.88316,5.57543 2.44856,9.88332 -1.46648,14.53608 -2.70569,3.21553 -4.51498,4.10231 -8.37,4.10231 -2.70497,0 -6.20572,-0.90187 -7.77944,-2.00414 z m 125.94489,-5.66253 0.34357,-81.66667 h -31.34357 -31.34359 v 81.11111 c 0,44.61112 0.41099,81.5221 0.91329,82.0244 0.50231,0.50232 14.45231,0.75232 31,0.55556 l 30.08671,-0.35773 z m -40.40419,4.39393 c -2.40809,-2.40808 -3.27273,-4.7138 -3.27273,-8.72726 0,-7.50552 4.49448,-12 12,-12 7.50552,0 12,4.49448 12,12 0,7.50552 -4.49448,12 -12,12 -4.01347,0 -6.31919,-0.86464 -8.72727,-3.27274 z m 197.39394,-19.39393 v -96.66667 h -14.66667 -14.66666 l -0.345,95.33334 c -0.18975,52.43333 -0.0508,96.10375 0.30889,97.04536 0.48921,1.28087 4.26971,1.61665 15.01167,1.33333 l 14.35777,-0.37869 z M 182.66667,308.66668 V 296.00001 H 123.33334 64.000002 v 12.66667 12.66666 h 59.333338 59.33333 z m 439.71672,0.33333 -0.38337,-12.33333 h -59.33333 -59.33334 l -0.39329,10.54881 c -0.21632,5.80184 -0.0852,11.35184 0.29148,12.33333 0.55777,1.45354 11.7067,1.78452 60.11,1.78452 h 59.42521 z m -260.74592,-8.22216 c 42.24482,-8.08277 75.45588,-39.37524 86.438,-81.44451 3.29092,-12.60655 3.92729,-35.62357 1.32711,-48 -8.70783,-41.44756 -40.60409,-74.657155 -82.06923,-85.448445 -12.85792,-3.346268 -39.14209,-3.346268 -52.00001,0 -41.46488,10.791218 -73.34608,43.984005 -82.07204,85.448445 -2.62563,12.47661 -2.00504,35.4186 1.29841,48 5.37243,20.4612 17.85861,41.68642 31.85591,54.1518 26.50319,23.60254 61.73298,33.70018 95.22185,27.29271 z m -29.03139,-25.38391 c -2.74306,-2.74304 -3.27274,-4.55966 -3.27274,-11.22428 0,-10.59849 -0.58566,-11.71584 -7.80964,-14.89945 -13.24801,-5.83842 -22.85702,-15.83835 -22.85702,-23.7869 0,-6.98166 6.45276,-13.4833 13.38196,-13.4833 1.42438,0 5.83237,2.93648 9.79552,6.52552 5.15476,4.66817 8.75581,6.78741 12.65181,7.44564 11.24694,1.90016 20.17071,-2.81756 20.17071,-10.6636 0,-6.08738 -3.31372,-8.34987 -18.89023,-12.89756 -17.30867,-5.05343 -22.32501,-7.62376 -28.14219,-14.41983 -11.24797,-13.14072 -9.67249,-35.51993 3.35716,-47.68724 1.78486,-1.66672 6.49195,-4.66814 10.46022,-6.66979 l 7.21504,-3.63939 0.39269,-8.9283 c 0.35523,-8.07656 0.77837,-9.25283 4.43563,-12.33021 4.63808,-3.90269 7.70553,-4.22857 13.17581,-1.39978 4.3411,2.24488 6.64291,8.36033 6.6551,17.68135 0.008,5.63387 0.0743,5.71302 7.66065,9.06809 16.01344,7.08191 21.37201,17.95572 13.26365,26.9151 -3.75138,4.14512 -10.26325,3.91156 -17.10088,-0.61338 -7.22624,-4.78209 -20.33352,-5.93985 -24.77768,-2.18857 -4.57015,3.8576 -5.11855,8.78492 -1.45215,13.04736 2.48382,2.8876 6.17183,4.40328 18.21477,7.48579 22.70038,5.81038 29.94857,10.95353 33.51104,23.77862 5.31025,19.11731 -3.7686,38.16007 -22.04727,46.24377 l -7.26469,3.21278 -0.008,6.35015 c -0.0107,8.76991 -2.21634,15.88872 -5.67439,18.31084 -4.47199,3.13229 -11.23408,2.57795 -15.04544,-1.23343 z m -105.91781,-7.0606 c 0.012,-0.55 -2.53812,-5.94632 -5.66666,-11.99182 L 215.33334,245.34968 126,245.67485 l -89.333332,0.32516 -0.395956,9.87523 c -0.217775,5.43136 -0.0866,10.68136 0.291488,11.66666 0.566563,1.47644 17.340873,1.79144 95.39596,1.79144 52.08969,0 94.71823,-0.45 94.73011,-1 z m 421.97842,-11 v -11.33333 l -90.66667,-0.32507 -90.66667,-0.32505 -5.68827,10.99172 c -3.12854,6.04545 -5.67854,11.44568 -5.66666,12.00051 0.012,0.55481 43.3716,0.85481 96.35493,0.66666 l 96.33334,-0.3421 z M 131.06538,117.99587 c -3.79427,-2.65762 -6.17647,-9.99195 -4.59175,-14.13714 1.46248,-3.82543 5.12438,-7.218103 9.09517,-8.426473 3.73714,-1.137268 11.79854,2.22757 13.65722,5.700543 6.03701,11.28026 -7.79467,24.12367 -18.16064,16.86307 z"
         id="path499" />
    </g>
  </g>
</svg>
