<?xml version="1.0" encoding="UTF-8" standalone="no"?>
<!-- Created with Inkscape (http://www.inkscape.org/) -->

<svg
   version="1.1"
   id="svg472"
   width="546.1333"
   height="546.1333"
   viewBox="0 0 546.1333 546.1333"
   xmlns="http://www.w3.org/2000/svg"
   xmlns:svg="http://www.w3.org/2000/svg">
  <defs
     id="defs476" />
  <g
     id="g478">
    <g
       id="g482">
      <path
         style="fill:#13b8f1;stroke-width:1.06667"
         d="m 139.73332,434.56118 c 0,-55.24145 0.23257,-65.12889 1.5997,-68.00989 3.03303,-6.39164 3.66871,-6.51807 34.66697,-6.89522 30.5916,-0.37219 34.69209,0.13901 38.34277,4.7801 2.15602,2.74093 2.19056,3.82536 2.19056,68.77432 v 65.98948 h -38.4 -38.4 z M 171.34544,245.7212 c -5.01142,-5.01143 -3.04384,-13.91621 3.58554,-16.22723 8.43696,-2.94114 15.74528,5.01734 12.26232,13.35322 -2.64962,6.34143 -10.88664,7.83522 -15.84786,2.87401 z"
         id="path496" />
      <path
         style="fill:#fc9700;stroke-width:1.06667"
         d="m 329.59998,401.01367 c 0,-82.55882 0.24017,-98.65074 1.509,-101.10438 2.92797,-5.66207 4.51046,-5.91484 37.44549,-5.98138 l 30.32715,-0.0612 3.49251,3.48689 3.49251,3.48688 0.28815,99.17978 0.28814,99.17974 H 368.02146 329.59998 Z M 360.8837,179.84653 c -2.37302,-2.04119 -2.96858,-3.45485 -2.96858,-7.04654 0,-3.59169 0.59556,-5.00535 2.96858,-7.04654 5.6854,-4.89038 14.55425,-2.48911 16.28566,4.4094 2.41938,9.63956 -8.67064,16.23384 -16.28566,9.68368 z"
         id="path494" />
      <path
         style="fill:#f24a1b;stroke-width:1.06667"
         d="m 442.66664,328.02157 c 0,-154.80561 0.16412,-171.58857 1.71582,-175.46666 l 1.71582,-4.28825 20.95084,0.006 c 22.8777,0.006 27.74089,0.786 31.03566,4.97463 2.09748,2.66652 2.18246,4.13966 2.19758,38.0966 0.0172,38.6094 0.14357,39.48497 6.09939,42.25614 3.28469,1.52833 3.43974,1.87472 3.4618,7.73334 0.0197,5.23545 -0.262,6.13333 -1.92432,6.13333 -1.07106,0 -3.11106,1.23859 -4.53333,2.75244 l -2.58593,2.75199 -0.27988,123.11422 -0.2799,123.11422 h -28.78677 -28.78678 z m -99.44756,-34.39463 c 1.91718,-0.2374 4.79718,-0.2325 6.4,0.0109 1.60283,0.24339 0.0342,0.43762 -3.48577,0.43163 -3.52,-0.006 -4.8314,-0.20512 -2.91423,-0.44251 z M 455.81703,34.779873 c -6.29388,-5.413763 -2.39881,-16.646541 5.77234,-16.646541 4.97457,0 7.66041,1.672915 9.41049,5.861449 3.98428,9.535705 -7.30901,17.557866 -15.18283,10.785092 z"
         id="path492" />
      <path
         style="fill:#c5271b;stroke-width:1.06667"
         d="m 329.04471,401.59998 c -7e-5,-53.97333 0.12966,-76.20961 0.28828,-49.41396 0.15862,26.79565 0.15867,70.95565 1.1e-4,98.13332 -0.15856,27.17769 -0.28834,5.25397 -0.28839,-48.71936 z m 94.42193,-72.63879 c 0,-188.70471 -0.51008,-175.49091 6.91029,-179.01211 3.02684,-1.43632 15.48971,-2.46569 15.48971,-1.27935 0,0.22168 -0.72,2.12626 -1.6,4.2324 -1.39968,3.34989 -1.6,25.26841 -1.6,175.06359 v 171.23425 h -9.6 -9.6 z m 77.31558,48.10545 c 4e-5,-67.46666 0.12797,-94.90967 0.28428,-60.98445 0.15631,33.92521 0.15627,89.12521 -8e-5,122.66666 -0.15635,33.54145 -0.28423,5.78446 -0.2842,-61.68221 z m 4.5333,-128.66568 c 0.72356,-0.72899 1.58426,-1.05672 1.91267,-0.7283 0.32842,0.32841 -0.26358,0.92485 -1.31555,1.32542 -1.52021,0.57885 -1.64273,0.45634 -0.59712,-0.59712 z m -4.57222,-55.33431 c 0,-19.06666 0.14464,-26.86666 0.32143,-17.33333 0.17678,9.53334 0.17678,25.13333 0,34.66667 -0.17679,9.53333 -0.32143,1.73333 -0.32143,-17.33334 z M 366.73331,162.47134 c 0.77,-0.30813 1.69001,-0.27024 2.04445,0.0842 0.35444,0.35444 -0.27556,0.60655 -1.4,0.56023 -1.24261,-0.0512 -1.49536,-0.30393 -0.64445,-0.64443 z M 471.17993,24.618835 c -0.46397,-1.774235 -0.32515,-2.190696 0.46639,-1.399156 0.61984,0.619842 0.91711,1.756606 0.6606,2.526143 -0.2663,0.798876 -0.74981,0.315364 -1.12699,-1.126987 z m -17.84662,-2.621562 c 0,-0.221499 0.84,-1.061499 1.86666,-1.866666 1.6918,-1.326796 1.72953,-1.289068 0.40273,0.402725 -1.39346,1.776798 -2.26939,2.341844 -2.26939,1.463941 z m 7.75363,-4.603131 c 1.03783,-0.270446 2.47783,-0.25266 3.2,0.03952 0.72216,0.292184 -0.12697,0.513459 -1.88697,0.49172 -1.76,-0.02174 -2.35087,-0.260797 -1.31303,-0.531244 z"
         id="path490" />
      <path
         style="fill:#02b84c;stroke-width:1.06667"
         d="M 234.66665,375.89331 V 252.58665 l 3.62667,-3.62667 3.62667,-3.62666 h 31.14666 31.14666 l 3.62667,3.62666 3.62667,3.62667 v 123.30666 123.30666 h -38.4 -38.4 z m 33.38939,-242.77016 c -3.79283,-1.83249 -6.0343,-7.67839 -4.60482,-12.00974 2.68969,-8.14984 14.24227,-9.47944 18.1948,-2.09406 4.76486,8.90321 -4.48501,18.50281 -13.58998,14.1038 z"
         id="path488" />
      <path
         style="fill:#48525e;stroke-width:1.06667"
         d="m 18.933332,545.42687 c 0.733333,-0.29591 1.933333,-0.29591 2.666667,0 0.733333,0.2959 0.133333,0.53801 -1.333334,0.53801 -1.466666,0 -2.066666,-0.24211 -1.333333,-0.53801 z m 394.733308,-0.0222 c 0.77,-0.30813 1.69001,-0.27024 2.04445,0.0842 0.35444,0.35444 -0.27556,0.60655 -1.4,0.56024 -1.24261,-0.0512 -1.49536,-0.30394 -0.64445,-0.64444 z m 110.86666,0.0222 c 0.73333,-0.29591 1.93333,-0.29591 2.66667,0 0.73333,0.2959 0.13333,0.53801 -1.33334,0.53801 -1.46666,0 -2.06666,-0.24211 -1.33333,-0.53801 z M 6.2639406,538.9333 c -1.3267952,-1.6918 -1.2890669,-1.72952 0.4027257,-0.40273 1.0266666,0.80517 1.8666665,1.64517 1.8666665,1.86667 0,0.87791 -0.8759311,0.31286 -2.2693922,-1.46394 z M 393.68419,536.97775 c 0.0512,-1.24261 0.30394,-1.49536 0.64444,-0.64445 0.30812,0.77 0.27024,1.69001 -0.0842,2.04445 -0.35445,0.35444 -0.60655,-0.27556 -0.56024,-1.4 z m 13.85007,-1.59185 c -0.0704,-1.75026 4.15096,-6.31927 5.83847,-6.31927 0.53273,0 -0.13268,0.77136 -1.47868,1.71414 -1.34599,0.94277 -2.86236,2.74277 -3.36972,4 -0.61621,1.52695 -0.94491,1.72786 -0.99007,0.60513 z M 18.746271,527.02127 c -1.072366,-1.18496 -1.651728,-3.09198 -1.377248,-4.53333 0.445476,-2.3393 0.482467,-2.32049 0.619048,0.31476 0.216524,4.17769 2.061588,5.06287 11.395803,5.46718 l 8.48279,0.36743 -8.634679,0.21467 c -7.32509,0.1821 -8.915419,-0.0956 -10.485714,-1.83071 z m 458.491119,1.24552 c 33.18931,-0.20024 48.3431,-0.65338 49.33333,-1.4752 1.79963,-1.49355 1.85593,-6.41981 0.0959,-8.39351 -1.1343,-1.27203 -1.05468,-1.28438 0.53334,-0.0828 2.43574,1.84312 2.38991,6.74711 -0.0839,8.98596 -1.7633,1.59575 -6.55313,1.74079 -49.86666,1.50992 L 429.33337,528.5558 Z M 0.16842105,525.86663 c 0,-1.46666 0.24210524,-2.06666 0.53801165,-1.33333 0.2959064,0.73333 0.2959064,1.93333 0,2.66667 -0.29590641,0.73333 -0.53801165,0.13333 -0.53801165,-1.33334 z m 545.06662895,0 c 0,-1.46666 0.24211,-2.06666 0.53802,-1.33333 0.2959,0.73333 0.2959,1.93333 0,2.66667 -0.29591,0.73333 -0.53802,0.13333 -0.53802,-1.33334 z m -545.06662895,-6.4 c 0,-1.46666 0.24210524,-2.06666 0.53801165,-1.33333 0.2959064,0.73333 0.2959064,1.93333 0,2.66667 -0.29590641,0.73333 -0.53801165,0.13333 -0.53801165,-1.33334 z m 545.06662895,0 c 0,-1.46666 0.24211,-2.06666 0.53802,-1.33333 0.2959,0.73333 0.2959,1.93333 0,2.66667 -0.29591,0.73333 -0.53802,0.13333 -0.53802,-1.33334 z m -398.30173,-2.93329 c 69.37333,-0.15149 182.89333,-0.15149 252.26666,0 69.37332,0.1515 12.61333,0.27545 -126.13333,0.27545 -138.74666,0 -195.506655,-0.12395 -126.13333,-0.27545 z M 21.066665,499.51386 c 1.32,-0.25425 3.48,-0.25425 4.8,0 1.32,0.25424 0.24,0.46226 -2.4,0.46226 -2.64,0 -3.72,-0.20802 -2.4,-0.46226 z m 502.953605,0.0135 c 1.03783,-0.27044 2.47783,-0.25266 3.2,0.0396 0.72216,0.29219 -0.12697,0.51346 -1.88697,0.49172 -1.76,-0.0218 -2.35087,-0.2608 -1.31303,-0.53124 z M 44.805946,410.39997 c 0.0038,-57.60782 0.391693,-90.1889 1.104111,-92.75402 0.665948,-2.3978 2.397377,-4.87915 4.399186,-6.30456 3.206244,-2.28305 4.163225,-2.35328 33.330608,-2.44597 27.382029,-0.087 30.292999,0.0765 33.017289,1.85419 6.18349,4.03505 6.00952,1.17441 6.00952,98.8161 v 89.63426 H 83.733328 44.799997 l 0.006,-88.8 z m 172.228714,23.73334 c 0,-36.08 0.13414,-50.84 0.29808,-32.8 0.16394,18.04 0.16394,47.56 0,65.59999 -0.16394,18.04 -0.29808,3.28 -0.29808,-32.79999 z m -68.968,-74.32865 c 0.76999,-0.30813 1.68999,-0.27024 2.04445,0.0842 0.35444,0.35444 -0.27557,0.60655 -1.4,0.56024 -1.24262,-0.0512 -1.49536,-0.30394 -0.64445,-0.64444 z m 68.95476,-59.53801 c 2.6e-4,-24.64 0.14019,-34.56769 0.31095,-22.06153 0.17075,12.50616 0.17054,32.66616 -4.8e-4,44.8 -0.17103,12.13384 -0.31073,1.90153 -0.31047,-22.73847 z m -71.15476,42.49356 c 0.73333,-0.2959 1.93333,-0.2959 2.66666,0 0.73334,0.29591 0.13334,0.53802 -1.33333,0.53802 -1.46667,0 -2.06667,-0.24211 -1.33333,-0.53802 z m 62.99999,-0.0222 c 0.77,-0.30813 1.69,-0.27024 2.04445,0.0842 0.35444,0.35444 -0.27556,0.60655 -1.4,0.56023 -1.24261,-0.0512 -1.49536,-0.30393 -0.64445,-0.64444 z M 27.941277,317.33331 c 0.02174,-1.76 0.260798,-2.35087 0.531245,-1.31303 0.270446,1.03783 0.25266,2.47783 -0.03952,3.2 -0.292189,0.72216 -0.513463,-0.12697 -0.491725,-1.88697 z m 110.933323,0 c 0.0218,-1.76 0.2608,-2.35087 0.53125,-1.31303 0.27044,1.03783 0.25266,2.47783 -0.0396,3.2 -0.29219,0.72216 -0.51346,-0.12697 -0.49172,-1.88697 z m 378.9313,-31.99999 c -4.8e-4,-17.6 0.14565,-24.94967 0.32474,-16.3326 0.17908,8.61708 0.17947,23.01708 8.7e-4,32 -0.17861,8.98293 -0.32513,1.93259 -0.32561,-15.6674 z M 33.066665,303.59725 c 0,-0.22149 0.84,-1.06149 1.866666,-1.86667 1.691793,-1.32679 1.729521,-1.28906 0.402726,0.40273 -1.393461,1.7768 -2.269392,2.34185 -2.269392,1.46394 z m 4.266666,-4.26667 c 0,-0.22149 0.84,-1.06149 1.866667,-1.86666 1.691793,-1.3268 1.729521,-1.28907 0.402725,0.40273 -1.39346,1.7768 -2.269392,2.34184 -2.269392,1.46393 z m 90.530599,-1.46393 c -1.3268,-1.6918 -1.28907,-1.72953 0.40273,-0.40273 1.02667,0.80517 1.86667,1.64517 1.86667,1.86666 0,0.87791 -0.87594,0.31287 -2.2694,-1.46393 z m -59.265349,-6.39809 c 8.689222,-0.1795 22.609221,-0.17908 30.933332,9.2e-4 8.324117,0.18001 1.214747,0.32686 -15.798585,0.32635 -17.013332,-5e-4 -23.823968,-0.14777 -15.134747,-0.32727 z M 328.93232,268.26665 c 0.002,-6.45333 0.17809,-8.95581 0.39041,-5.56106 0.21232,3.39476 0.21035,8.67476 -0.004,11.73334 -0.21474,3.05858 -0.38845,0.28105 -0.38604,-6.17228 z m 7.35462,8.32748 c 1.03784,-0.27045 2.47784,-0.25266 3.2,0.0396 0.72217,0.29219 -0.12696,0.51346 -1.88696,0.49172 -1.76,-0.0218 -2.35087,-0.2608 -1.31304,-0.53124 z m 60.24637,0.0327 c 0.73333,-0.2959 1.93333,-0.2959 2.66667,0 0.73333,0.29591 0.13333,0.53802 -1.33334,0.53802 -1.46666,0 -2.06666,-0.24211 -1.33333,-0.53802 z M 176.81243,265.91224 c 1.32683,-0.25514 3.24683,-0.24545 4.26666,0.0215 1.01983,0.26697 -0.0658,0.47573 -2.41243,0.46389 -2.34667,-0.0118 -3.18107,-0.23028 -1.85423,-0.48542 z m 16.25422,-3.91499 c 0,-0.22149 0.84,-1.06149 1.86667,-1.86666 1.6918,-1.3268 1.72953,-1.28907 0.40273,0.40273 -1.39346,1.7768 -2.2694,2.34184 -2.2694,1.46393 z m -34.768,-4.1306 -2.03199,-2.4 2.4,2.03199 c 2.2554,1.90957 2.88559,2.76801 2.03199,2.76801 -0.20241,0 -1.28241,-1.08 -2.4,-2.4 z m 40.10134,-1.20273 c 0,-0.22149 0.84,-1.06149 1.86666,-1.86667 1.6918,-1.32679 1.72953,-1.28906 0.40274,0.40273 -1.39347,1.7768 -2.2694,2.34185 -2.2694,1.46394 z m -20.46667,-7.79259 c 0.77,-0.30812 1.69,-0.27024 2.04445,0.0842 0.35444,0.35445 -0.27556,0.60655 -1.4,0.56024 -1.24261,-0.0512 -1.49536,-0.30394 -0.64445,-0.64444 z m 332.79998,-1.06666 c 0.77,-0.30813 1.69001,-0.27024 2.04445,0.0842 0.35444,0.35444 -0.27556,0.60655 -1.4,0.56023 -1.24261,-0.0512 -1.49536,-0.30393 -0.64445,-0.64444 z m -305.7649,-4.60468 c 0,-1.46667 0.24212,-2.06667 0.53802,-1.33334 0.2959,0.73334 0.2959,1.93334 0,2.66667 -0.2959,0.73333 -0.53802,0.13333 -0.53802,-1.33333 z m 63.62165,1.33709 c 6.04455,-0.19047 15.64455,-0.18969 21.33333,0.002 5.6888,0.19141 0.74327,0.34726 -10.99006,0.34631 -11.73334,-9.4e-4 -16.3878,-0.15756 -10.34327,-0.34803 z m -117.98211,-6.13709 c 0.0218,-1.76 0.2608,-2.35087 0.53124,-1.31304 0.27044,1.03784 0.25266,2.47784 -0.0396,3.2 -0.2922,0.72217 -0.51346,-0.12696 -0.49173,-1.88696 z m 37.2096,-2.22222 c 0.0512,-1.24262 0.30393,-1.49536 0.64443,-0.64445 0.30813,0.76999 0.27024,1.68999 -0.0842,2.04445 -0.35445,0.35444 -0.60655,-0.27557 -0.56023,-1.4 z m 17.06666,-2.13334 c 0.0512,-1.24261 0.30394,-1.49536 0.64444,-0.64444 0.30813,0.76999 0.27024,1.68999 -0.0842,2.04444 -0.35446,0.35445 -0.60655,-0.27556 -0.56024,-1.4 z m 304.78244,-0.10645 c 0.76999,-0.30813 1.69,-0.27024 2.04444,0.0842 0.35445,0.35444 -0.27556,0.60655 -1.4,0.56024 -1.24261,-0.0512 -1.49536,-0.30394 -0.64444,-0.64444 z M 202.2019,226.44597 c -0.57886,-1.52021 -0.45634,-1.64273 0.59712,-0.59712 0.72898,0.72356 1.05671,1.58426 0.7283,1.91267 -0.32842,0.32842 -0.92486,-0.26358 -1.32542,-1.31555 z m 56.19808,1.02325 c 8.06667,-0.1812 21.26667,-0.1812 29.33334,0 8.06666,0.18122 1.46666,0.32948 -14.66667,0.32948 -16.13333,0 -22.73333,-0.14826 -14.66667,-0.32948 z m 259.41285,-35.46923 c 0,-20.24 0.14344,-28.52 0.31875,-18.4 0.17532,10.12 0.17532,26.68 0,36.8 -0.17531,10.12 -0.31875,1.84 -0.31875,-18.4 z m -313.01284,27.3306 c 0,-0.22149 0.84,-1.06149 1.86666,-1.86667 1.6918,-1.32679 1.72953,-1.28906 0.40273,0.40273 -1.39346,1.7768 -2.26939,2.34185 -2.26939,1.46394 z M 78.733329,214.738 c 0.769999,-0.30813 1.689999,-0.27024 2.044444,0.0842 0.354444,0.35445 -0.275556,0.60655 -1.4,0.56024 -1.242606,-0.0512 -1.49536,-0.30394 -0.644444,-0.64444 z m 8.533332,0 c 0.77,-0.30813 1.69,-0.27024 2.044445,0.0842 0.354444,0.35445 -0.275556,0.60655 -1.4,0.56024 -1.242606,-0.0512 -1.49536,-0.30394 -0.644445,-0.64444 z m 122.866659,-1.80741 c 0,-0.22149 0.84,-1.06149 1.86667,-1.86667 1.69179,-1.32679 1.72952,-1.28906 0.40273,0.40273 -1.39346,1.7768 -2.2694,2.34185 -2.2694,1.46394 z m -36.53333,-1.37037 c 0.73333,-0.2959 1.93333,-0.2959 2.66667,0 0.73333,0.29591 0.13333,0.53802 -1.33334,0.53802 -1.46666,0 -2.06666,-0.24211 -1.33333,-0.53802 z m 6.95363,-0.0327 c 1.03784,-0.27045 2.47784,-0.25267 3.2,0.0396 0.72217,0.29219 -0.12696,0.51346 -1.88696,0.49172 -1.76,-0.0218 -2.35087,-0.2608 -1.31304,-0.53124 z m 9.31304,-0.73022 c 0,-0.2215 0.84,-1.0615 1.86666,-1.86667 1.6918,-1.32679 1.72953,-1.28907 0.40273,0.40273 -1.39346,1.7768 -2.26939,2.34185 -2.26939,1.46394 z m -125.947396,-3.59727 -2.585934,-2.93334 2.933333,2.58593 c 1.613333,1.42228 2.933333,2.74228 2.933333,2.93334 0,0.83656 -0.863786,0.15571 -3.280732,-2.58593 z m 152.080726,-1.33334 c 1.06185,-1.17333 2.17064,-2.13333 2.46398,-2.13333 0.29333,0 -0.33546,0.96 -1.39732,2.13333 -1.06185,1.17334 -2.17064,2.13334 -2.46398,2.13334 -0.29333,0 0.33546,-0.96 1.39732,-2.13334 z m -20.8,-1.46939 c 0,-0.2215 0.84,-1.0615 1.86666,-1.86667 1.6918,-1.32679 1.72953,-1.28907 0.40274,0.40273 -1.39347,1.7768 -2.2694,2.34185 -2.2694,1.46394 z m 24.53333,-3.2 c 0,-0.2215 0.84,-1.0615 1.86667,-1.86667 1.69179,-1.32679 1.72952,-1.28907 0.40273,0.40273 -1.39346,1.7768 -2.2694,2.34185 -2.2694,1.46394 z m 145.34799,-1.42936 c 1.6214,-0.24518 4.0214,-0.23862 5.33333,0.0145 1.31194,0.25318 -0.0147,0.45378 -2.948,0.44578 -2.93333,-0.009 -4.00673,-0.21517 -2.38533,-0.46034 z m -164.01466,-2.43458 c 1.06186,-1.17333 2.17065,-2.13333 2.46398,-2.13333 0.29334,0 -0.33545,0.96 -1.39731,2.13333 -1.06185,1.17333 -2.17064,2.13333 -2.46398,2.13333 -0.29333,0 0.33546,-0.96 1.39731,-2.13333 z M 79.466662,197.16193 c -6.508622,-3.57931 -7.771284,-10.8881 -2.748718,-15.91066 4.303271,-4.30327 9.727497,-4.30327 14.030768,0 5.091071,5.09108 3.714063,12.5516 -2.94526,15.95721 -2.904859,1.48556 -5.577936,1.47063 -8.33679,-0.0465 z m 145.599988,-2.36467 c 0,-0.2215 0.84,-1.0615 1.86667,-1.86667 1.6918,-1.32679 1.72952,-1.28907 0.40273,0.40273 -1.39346,1.7768 -2.2694,2.34185 -2.2694,1.46394 z m 161.59999,-2.79727 c 1.06186,-1.17333 2.17065,-2.13333 2.46398,-2.13333 0.29333,0 -0.33545,0.96 -1.39731,2.13333 -1.06186,1.17333 -2.17065,2.13333 -2.46398,2.13333 -0.29333,0 0.33546,-0.96 1.39731,-2.13333 z m -181.86665,0.66393 c 0,-0.22149 0.84,-1.06149 1.86666,-1.86666 1.6918,-1.3268 1.72953,-1.28907 0.40273,0.40273 -1.39346,1.7768 -2.26939,2.34184 -2.26939,1.46393 z m 25.6,-4.26666 c 0,-0.2215 0.84,-1.0615 1.86666,-1.86667 1.6918,-1.32679 1.72953,-1.28907 0.40273,0.40273 -1.39346,1.7768 -2.26939,2.34185 -2.26939,1.46394 z m -20.26667,-2.13334 c 0,-0.22149 0.84,-1.06149 1.86667,-1.86666 1.69179,-1.3268 1.72952,-1.28907 0.40273,0.40273 -1.39346,1.7768 -2.2694,2.34184 -2.2694,1.46393 z m 26.13333,-4.9306 c 1.06186,-1.17333 2.17065,-2.13333 2.46398,-2.13333 0.29333,0 -0.33546,0.96 -1.39731,2.13333 -1.06186,1.17334 -2.17065,2.13334 -2.46398,2.13334 -0.29333,0 0.33546,-0.96 1.39731,-2.13334 z m -20.8,-1.46939 c 0,-0.2215 0.84,-1.0615 1.86667,-1.86667 1.6918,-1.3268 1.72953,-1.28907 0.40273,0.40273 -1.39346,1.7768 -2.2694,2.34184 -2.2694,1.46394 z m 124.88421,-2.35283 c 0.0512,-1.24261 0.30394,-1.49536 0.64444,-0.64444 0.30812,0.76999 0.27024,1.68999 -0.0842,2.04444 -0.35445,0.35445 -0.60655,-0.27556 -0.56024,-1.4 z m -100.35087,-0.84717 c 0,-0.2215 0.84,-1.0615 1.86666,-1.86667 1.6918,-1.3268 1.72953,-1.28907 0.40273,0.40273 -1.39346,1.7768 -2.26939,2.34184 -2.26939,1.46394 z m -18.66667,-3.86394 c 1.06186,-1.17333 2.17065,-2.13333 2.46398,-2.13333 0.29333,0 -0.33546,0.96 -1.39731,2.13333 -1.06186,1.17333 -2.17065,2.13333 -2.46398,2.13333 -0.29334,0 0.33545,-0.96 1.39731,-2.13333 z m 173.41754,-0.62222 c 0.0512,-1.24261 0.30393,-1.49536 0.64443,-0.64445 0.30813,0.77 0.27024,1.69 -0.0842,2.04445 -0.35444,0.35444 -0.60655,-0.27556 -0.56023,-1.4 z m -149.41754,-1.91384 c 0,-0.2215 0.84,-1.0615 1.86666,-1.86667 1.6918,-1.3268 1.72953,-1.28907 0.40274,0.40273 -1.39347,1.7768 -2.2694,2.34184 -2.2694,1.46394 z m -20.26667,-2.13334 c 0,-0.22149 0.84,-1.06149 1.86667,-1.86666 1.6918,-1.3268 1.72952,-1.28907 0.40273,0.40273 -1.39346,1.7768 -2.2694,2.34184 -2.2694,1.46393 z M 66.133329,167.06393 c 0,-0.2215 0.84,-1.0615 1.866667,-1.86667 1.691793,-1.3268 1.729521,-1.28907 0.402725,0.40273 -1.39346,1.7768 -2.269392,2.34185 -2.269392,1.46394 z m 32.930606,-1.46394 c -1.326795,-1.6918 -1.289067,-1.72953 0.402726,-0.40273 1.026669,0.80517 1.866669,1.64517 1.866669,1.86667 0,0.87791 -0.87593,0.31286 -2.269395,-1.46394 z m 152.136045,-2.4 c 1.06186,-1.17333 2.17065,-2.13333 2.46398,-2.13333 0.29334,0 -0.33545,0.96 -1.39731,2.13333 -1.06185,1.17333 -2.17064,2.13333 -2.46398,2.13333 -0.29333,0 0.33546,-0.96 1.39731,-2.13333 z m -20.79999,-1.4694 c 0,-0.22149 0.84,-1.06149 1.86666,-1.86666 1.6918,-1.3268 1.72953,-1.28907 0.40273,0.40273 -1.39346,1.7768 -2.26939,2.34184 -2.26939,1.46393 z M 82.999995,160.33801 c 0.77,-0.30813 1.69,-0.27024 2.044445,0.0842 0.354443,0.35444 -0.275557,0.60655 -1.4,0.56023 -1.242606,-0.0512 -1.49536,-0.30394 -0.644445,-0.64444 z m 173.533325,-3.53802 c 1.06185,-1.17333 2.17064,-2.13333 2.46398,-2.13333 0.29333,0 -0.33546,0.96 -1.39732,2.13333 -1.06185,1.17333 -2.17064,2.13333 -2.46397,2.13333 -0.29334,0 0.33545,-0.96 1.39731,-2.13333 z m 150.03507,-1.06667 c 0,-1.46666 0.24211,-2.06666 0.53802,-1.33333 0.2959,0.73333 0.2959,1.93333 0,2.66667 -0.29591,0.73333 -0.53802,0.13333 -0.53802,-1.33334 z m -170.83507,-0.40273 c 0,-0.22149 0.84,-1.06149 1.86667,-1.86666 1.69179,-1.3268 1.72952,-1.28907 0.40273,0.40273 -1.39347,1.7768 -2.2694,2.34184 -2.2694,1.46393 z m 25.84127,-4.48123 c 1.0127,-1.05732 2.07087,-1.69278 2.35148,-1.41216 0.28062,0.28061 -0.54794,1.14568 -1.84126,1.92237 -2.24674,1.34925 -2.26947,1.32652 -0.51022,-0.51021 z m -19.9746,-2.5827 c 1.06185,-1.17334 2.17064,-2.13334 2.46397,-2.13334 0.29334,0 -0.33545,0.96 -1.39731,2.13334 -1.06185,1.17333 -2.17064,2.13333 -2.46398,2.13333 -0.29333,0 0.33546,-0.96 1.39732,-2.13333 z m 122.93332,-2.88611 c 1.32,-0.25425 3.48,-0.25425 4.8,0 1.32,0.25424 0.24,0.46226 -2.4,0.46226 -2.64,0 -3.72,-0.20802 -2.4,-0.46226 z m -119.19999,-1.78329 c 0,-0.22149 0.84,-1.06149 1.86666,-1.86667 1.6918,-1.32679 1.72953,-1.28906 0.40274,0.40273 -1.39347,1.7768 -2.2694,2.34185 -2.2694,1.46394 z m 169.06665,-3.86394 c 1.06186,-1.17333 2.17065,-2.13333 2.46398,-2.13333 0.29334,0 -0.33545,0.96 -1.39731,2.13333 -1.06185,1.17334 -2.17064,2.13334 -2.46398,2.13334 -0.29333,0 0.33546,-0.96 1.39731,-2.13334 z m -166.44385,-3.27096 c -0.3867,-0.6257 -0.47432,-1.3664 -0.19472,-1.64601 0.2796,-0.2796 0.7926,0.23234 1.14,1.13764 0.72126,1.87958 0.10656,2.21019 -0.94528,0.50837 z m 61.84773,-2.65455 c -1.98828,-1.59295 -1.97521,-1.61264 0.32946,-0.4958 1.32,0.63967 2.4,1.38615 2.4,1.65884 0,0.81624 -0.55318,0.58052 -2.72946,-1.16304 z m 119.79612,-2.24758 c 0.73334,-0.29591 1.93334,-0.29591 2.66667,0 0.73333,0.2959 0.13333,0.53801 -1.33333,0.53801 -1.46667,0 -2.06667,-0.24211 -1.33334,-0.53801 z m 62.93333,0 c 0.73334,-0.29591 1.93334,-0.29591 2.66667,0 0.73333,0.2959 0.13333,0.53801 -1.33333,0.53801 -1.46667,0 -2.06667,-0.24211 -1.33334,-0.53801 z m -247.03157,-4.6269 c 0,-1.46667 0.24212,-2.06667 0.53802,-1.33334 0.2959,0.73334 0.2959,1.93334 0,2.66667 -0.2959,0.73333 -0.53802,0.13333 -0.53802,-1.33333 z m 54.53666,-2.66667 c 0.009,-2.93333 0.21517,-4.00673 0.46034,-2.38533 0.24519,1.62139 0.23863,4.02139 -0.0145,5.33333 -0.25319,1.31193 -0.45378,-0.0147 -0.44578,-2.948 z m -54.49712,-3.2 c 0.0218,-1.76 0.26079,-2.35087 0.53124,-1.31304 0.27044,1.03784 0.25266,2.47784 -0.0396,3.2 -0.29219,0.72217 -0.51346,-0.12696 -0.49172,-1.88696 z m 7.79205,-16.53333 c 1.06185,-1.17334 2.17064,-2.13334 2.46398,-2.13334 0.29333,0 -0.33546,0.96 -1.39732,2.13334 -1.06185,1.17333 -2.17064,2.13333 -2.46397,2.13333 -0.29334,0 0.33545,-0.96 1.39731,-2.13333 z M 461.06664,54.731382 c 1.02667,-0.268295 2.70667,-0.268295 3.73333,0 1.02667,0.268297 0.18667,0.487811 -1.86666,0.487811 -2.05334,0 -2.89334,-0.219514 -1.86667,-0.487811 z m 15.73333,-3.93411 c 0,-0.2215 0.84,-1.0615 1.86667,-1.866667 1.69179,-1.326796 1.72952,-1.289068 0.40273,0.402725 -1.39346,1.776798 -2.2694,2.341844 -2.2694,1.463942 z m 11.81755,-18.352829 c 0.0512,-1.242606 0.30393,-1.49536 0.64443,-0.644445 0.30813,0.77 0.27024,1.69 -0.0842,2.044445 -0.35444,0.354443 -0.60655,-0.275557 -0.56023,-1.4 z M 442.13331,8.5333328 c 1.06185,-1.1733332 2.17064,-2.1333332 2.46397,-2.1333332 0.29334,0 -0.33545,0.96 -1.39731,2.1333332 -1.06185,1.1733333 -2.17064,2.1333332 -2.46398,2.1333332 -0.29333,0 0.33546,-0.9599999 1.39732,-2.1333332 z m 15.2,-8.1730989 c 0.73333,-0.29590642 1.93333,-0.29590642 2.66666,0 0.73334,0.29590641 0.13334,0.53801166 -1.33333,0.53801166 -1.46667,0 -2.06667,-0.24210525 -1.33333,-0.53801166 z m 7.46666,0 c 0.73333,-0.29590642 1.93333,-0.29590642 2.66667,0 0.73333,0.29590641 0.13333,0.53801166 -1.33334,0.53801166 -1.46666,0 -2.06666,-0.24210525 -1.33333,-0.53801166 z"
         id="path486" />
      <path
         style="fill:#221e1f;stroke-width:1.06667"
         d="M 19.199999,545.13465 C 8.1141629,542.89776 0.9383135,534.27675 0.83765039,523.07427 0.72774599,510.84337 9.327003,501.34162 21.28918,500.47635 l 6.366902,-0.46053 0.305291,-92.94125 c 0.302444,-92.07429 0.326331,-92.98603 2.560671,-97.74126 2.664495,-5.67069 8.679501,-11.88918 14.118315,-14.59591 3.525074,-1.75432 7.219474,-1.93742 39.092969,-1.93742 39.305622,0 38.972062,-0.0549 47.003052,7.74464 6.67913,6.48669 8.18563,11.42616 8.77441,28.76929 l 0.51594,15.1977 4.38664,-0.78916 c 6.03447,-1.08559 63.05704,-0.99869 68.65328,0.10464 l 4.53334,0.89376 v -46.30374 c 0,-53.09299 0.0147,-53.20009 8.48253,-61.6679 8.08994,-8.08995 10.26457,-8.48256 46.98413,-8.48256 36.19928,0 38.92481,0.46454 46.35019,7.89994 7.42282,7.43282 8.49661,10.80052 8.93115,28.01038 l 0.38154,15.11031 3.36855,-1.24365 c 4.7244,-1.74421 66.05891,-1.72671 70.79508,0.0202 l 3.42652,1.26385 0.30681,-62.59718 0.30682,-62.59714 2.4709,-5.45947 c 3.04803,-6.73464 7.62589,-11.27804 14.59576,-14.48589 5.20215,-2.39425 6.14675,-2.45463 38.4,-2.45463 31.30971,0 33.32171,0.11856 37.86667,2.23129 6.97797,3.24372 11.20113,7.21697 14.31706,13.46984 l 2.7496,5.51773 v 38.19056 c 0,36.76835 -0.0795,38.27001 -2.13333,40.3239 -2.9064,2.9064 -8.86628,2.83168 -11.64035,-0.14592 -2.02029,-2.16853 -2.1389,-4.04703 -2.44155,-38.66666 -0.34891,-39.91126 -0.31107,-39.67558 -6.86942,-42.78772 -5.08602,-2.41348 -58.75784,-2.34396 -63.87172,0.0828 -7.42037,3.52116 -6.91029,-9.69264 -6.91029,179.01207 v 170.23878 h 38.93333 38.93333 V 376.62055 c 0,-67.41868 0.29817,-123.35643 0.66259,-124.30611 0.98559,-2.56841 5.89874,-4.72503 9.28826,-4.07707 6.56878,1.25569 6.1737,-6.14873 6.8408,128.20771 l 0.6091,122.67427 4.89962,0.69185 c 10.30564,1.4552 16.55964,5.79008 19.90513,13.79696 4.96607,11.88548 -0.62281,25.61697 -12.25358,30.10621 -4.45158,1.7182 -9.92489,1.8856 -61.65562,1.8856 h -56.77036 l -2.34075,-2.34074 c -3.36152,-3.36152 -3.11247,-8.53308 0.56319,-11.69474 l 2.90393,-2.49786 h 55.77519 c 52.67945,0 55.87317,-0.10826 57.54051,-1.95065 2.51961,-2.78413 2.22843,-7.204 -0.60535,-9.18886 -2.12937,-1.49147 -27.96952,-1.66048 -253.86665,-1.66048 -250.073756,0 -251.508042,0.0121 -253.629311,2.13333 -2.658545,2.65855 -2.743579,6.58376 -0.192639,8.89233 1.783555,1.61409 16.862476,1.77862 186.22762,2.03199 l 184.28694,0.27568 2.03903,2.51816 c 3.80136,4.69464 2.0699,10.70626 -3.71734,12.90657 -3.33371,1.26747 -362.376325,1.37457 -368.643611,0.10995 z M 122.66666,409.56571 c 0,-97.64169 0.17397,-94.78105 -6.00952,-98.8161 -2.72429,-1.77774 -5.63526,-1.94121 -33.017289,-1.85419 -29.167383,0.0927 -30.124364,0.16292 -33.330608,2.44597 -2.001809,1.42541 -3.733238,3.90676 -4.399186,6.30456 -0.712418,2.56512 -1.100252,35.1462 -1.104111,92.75402 l -0.0059,88.8 h 38.933331 38.933333 z m 94.93333,24.99547 c 0,-57.61661 -0.18945,-65.03802 -1.74383,-68.31365 -3.1149,-6.56417 -4.3393,-6.78089 -38.30987,-6.78089 h -30.55963 l -3.62667,3.62667 -3.62667,3.62667 v 66.23999 66.24 h 38.93334 38.93333 z m 93.86666,-58.08084 c 0,-103.70868 -0.23376,-123.17168 -1.509,-125.63771 -2.97851,-5.75982 -4.75099,-6.05006 -36.40129,-5.96075 -31.48386,0.0889 -33.9834,0.47488 -37.08643,5.7279 -1.66513,2.81883 -1.80328,12.45783 -1.80328,125.82144 v 122.76875 h 38.4 38.4 z m 94.92934,24.31964 c -0.004,-95.65092 -0.0621,-98.49523 -2.08232,-101.80856 -3.27509,-5.3713 -6.62009,-5.8369 -39.22824,-5.46027 l -29.04788,0.3355 -3.48545,3.48689 -3.48545,3.48688 -0.28815,99.17978 -0.28814,99.17977 h 38.9548 38.95482 l -0.004,-98.39999 z M 167.46666,263.44735 c -9.69059,-4.52187 -14.89868,-12.13507 -15.91614,-23.26627 l -0.6172,-6.75224 -23.92446,-12.85507 c -19.49708,-10.47615 -24.23454,-12.62673 -25.6,-11.6212 -4.606207,3.39205 -11.659304,5.79157 -17.142198,5.83191 -7.694429,0.0566 -13.190176,-1.9122 -18.349999,-6.5738 -6.408081,-5.78932 -8.758929,-11.1122 -8.808278,-19.94402 -0.04777,-8.54798 1.981458,-13.6854 7.641035,-19.34498 5.934719,-5.93472 9.468017,-7.2919 18.983908,-7.2919 9.515892,0 13.04919,1.35718 18.983912,7.2919 4.80303,4.80302 7.39129,10.6141 8.13159,18.25671 l 0.61783,6.37839 23.42316,12.55494 c 12.88274,6.90522 24.0144,12.55493 24.73704,12.55493 0.72264,0 1.64417,-0.53439 2.04783,-1.18754 2.41212,-3.90288 15.5606,-6.57266 23.5415,-4.78007 3.3275,0.74738 3.54697,0.51357 33.35013,-35.5299 16.50033,-19.95523 30.26777,-36.97846 30.5943,-37.82942 0.32655,-0.85095 -0.16948,-3.02305 -1.10229,-4.82689 -2.93054,-5.66706 -2.24203,-17.75221 1.3425,-23.56386 5.00402,-8.11313 12.01639,-12.648173 20.98939,-13.574268 15.37233,-1.586564 29.30356,10.730008 29.33267,25.932948 l 0.0107,5.44098 24.26667,12.28432 24.26666,12.28432 5.24962,-3.3253 c 4.48562,-2.84137 6.45756,-3.38022 13.54972,-3.70263 l 8.30009,-0.37734 32.58362,-50.025494 c 17.92074,-27.514024 32.58337,-50.476788 32.58337,-51.028366 0,-0.551577 -1.00518,-2.70651 -2.23372,-4.788738 -3.19762,-5.419556 -3.89298,-15.28426 -1.5161,-21.508036 7.78653,-20.3887341 34.739,-24.2515379 47.38702,-6.791464 10.20386,14.086033 4.251,34.237484 -12.13669,41.084699 -2.03426,0.849967 -6.77919,1.545396 -10.54427,1.545396 h -6.84561 l -32.79061,50.292343 -32.79061,50.29235 2.38963,4.90765 c 6.58453,13.52286 2.51,28.2053 -10.02284,36.11693 -3.30919,2.089 -6.18936,2.86256 -12.06114,3.23939 -6.81684,0.43747 -8.40758,0.15562 -13.67998,-2.42393 -9.39936,-4.59867 -15.42174,-14.73071 -15.42174,-25.9455 0,-2.68064 -1.66849,-3.73992 -23.8345,-15.13209 l -23.8345,-12.24969 -4.44063,2.93868 c -6.24776,4.13456 -13.74314,5.70266 -20.14944,4.21542 -3.83265,-0.88976 -5.3668,-0.8689 -6.26981,0.0852 -0.65755,0.69477 -13.80973,16.62322 -29.22705,35.39655 -15.41734,18.77333 -28.75274,34.97224 -29.63422,35.99755 -1.4329,1.66669 -1.38902,2.33811 0.41395,6.33639 4.11999,9.13651 1.5429,22.00193 -5.89768,29.44251 -5.17595,5.17594 -9.35912,6.92233 -17.65945,7.37247 -5.94462,0.32237 -8.44513,-0.0516 -12.26666,-1.83488 z m 15.42433,-15.49877 c 10.06749,-4.77734 6.17585,-19.68193 -5.13903,-19.68193 -3.53381,0 -8.82701,4.58565 -9.5284,8.2547 -0.85653,4.48068 1.82033,9.71216 5.86984,11.47158 4.45402,1.93519 4.62786,1.93432 8.79759,-0.0444 z m -95.087538,-50.7401 c 6.659323,-3.40561 8.036331,-10.86613 2.94526,-15.95721 -4.303271,-4.30327 -9.727497,-4.30327 -14.030768,0 -7.809496,7.8095 1.320124,20.95127 11.085508,15.95721 z M 372.288,181.85562 c 3.86814,-2.0003 5.31198,-4.60077 5.31198,-9.56732 0,-7.2874 -7.4239,-11.79387 -14.1618,-8.59651 -7.88037,3.73947 -8.04149,14.89723 -0.26406,18.28586 4.19919,1.82958 5.37018,1.8139 9.11388,-0.12203 z m -94.52294,-48.67009 c 4.05852,-1.84919 6.39649,-7.58929 4.91702,-12.07212 -3.05617,-9.26026 -16.14924,-9.33737 -19.19355,-0.11302 -2.91652,8.83714 5.62472,16.12716 14.27653,12.18514 z M 469.87833,33.924907 c 6.82494,-8.110981 -1.53461,-19.799952 -11.27488,-15.765402 -6.78499,2.810438 -8.64181,11.244585 -3.58813,16.298265 4.64859,4.648583 10.68522,4.432159 14.86301,-0.532863 z"
         id="path484" />
    </g>
  </g>
</svg>
