<?xml version="1.0" encoding="UTF-8" standalone="no"?>
<!-- Created with Inkscape (http://www.inkscape.org/) -->

<svg
   version="1.1"
   id="svg2523"
   width="512"
   height="512"
   viewBox="0 0 512 512"
   xmlns="http://www.w3.org/2000/svg"
   xmlns:svg="http://www.w3.org/2000/svg">
  <defs
     id="defs2527" />
  <g
     id="g2529">
    <g
       id="g2533">
      <path
         style="fill:#91b5db"
         d="M 73.882471,499.20726 C 61.58469,492.78282 57.038802,478.39417 63.437839,466.1479 66.954366,459.41809 74.375251,454.8008 82.845674,454.0723 L 89.5,453.5 v -76 -76 l -6.134415,-0.58724 c -23.790165,-2.27741 -31.184219,-31.41611 -11.30945,-44.56861 2.999673,-1.98509 5.831692,-2.84574 10.757694,-3.26928 L 89.5,252.5 v -76 -76 L 83.417927,99.917558 C 59.488761,97.626012 52.154416,68.515824 72.168743,55.26928 L 76.352875,52.5 171.98783,52 l 95.63496,-0.5 8.83416,-9.283523 c 19.09217,-20.063332 41.761,-30.591345 68.74512,-31.927079 18.70404,-0.9258641 34.90667,2.605411 51.80686,11.291021 36.35595,18.684621 58.3805,59.413948 53.95019,99.768441 -2.03279,18.51617 -9.11558,36.63403 -19.87977,50.85268 -6.84605,9.04308 -19.52128,20.54039 -28.74104,26.0701 -9.03116,5.41658 -24.01689,11.09142 -33.77851,12.79133 l -6.60053,1.14943 0.27036,20.1438 0.27037,20.1438 6.13442,0.58724 c 16.04493,1.53597 25.71475,15.84525 21.14946,31.29674 -1.62291,5.49284 -9.90706,13.77699 -15.3999,15.3999 C 372.12017,300.45275 368.40486,301 366.12773,301 h -4.14022 l 0.25624,76.25 0.25625,76.25 6.13442,0.58724 c 16.04493,1.53597 25.71475,15.84525 21.14946,31.29674 -1.62291,5.49284 -9.90706,13.77699 -15.3999,15.3999 C 371.23501,501.71428 336.07856,502 224.74817,502 H 79.228383 Z"
         id="path2547" />
      <path
         style="fill:#e9cf4e"
         d="M 76.624765,499.53089 C 68.175647,496.51921 61.809484,487.33694 61.753604,478.08138 61.674837,465.03492 71.288766,455 83.866657,455 c 2.901827,0 5.347175,-0.55272 6.01722,-1.36008 0.821524,-0.98988 1.058997,-22.01675 0.872444,-77.25 L 90.5,300.5 83.885487,299.84574 C 73.948477,298.86285 68.078033,294.99361 63.799469,286.60693 61.53115,282.16065 61.131517,273.30596 62.982462,268.50443 66.221149,260.10298 74.99911,254 83.844312,254 c 2.920668,0 5.368238,-0.55118 6.039565,-1.36008 0.821524,-0.98988 1.058997,-22.01675 0.872444,-77.25 L 90.5,99.5 84,98.92458 C 74.173445,98.054674 68.166337,94.166695 63.984757,85.970121 59.504015,77.187141 62.090419,64.083765 69.406195,58.503751 76.982,52.725402 71.789064,53 173.48807,53 h 93.5523 l 10.22981,-10.34098 c 15.33578,-15.502426 28.60755,-23.352048 48.75187,-28.834425 11.78872,-3.208359 36.52911,-3.232868 48.15338,-0.0477 19.01755,5.210991 35.26363,14.68029 47.92734,27.935246 8.87317,9.287448 12.34006,14.147561 17.76136,24.899072 C 459.16491,104.88847 451.56649,151.58551 421.076,182.076 406.49804,196.65396 389.98175,205.48477 369,209.91961 l -7.5,1.58525 -0.27127,20.4254 c -0.20815,15.67253 0.0245,20.61316 1,21.23226 0.6992,0.44377 3.29627,0.82363 5.77127,0.84413 15.60852,0.12929 26.45933,17.56022 19.91597,31.99335 -3.88098,8.56054 -10.28001,12.92132 -20.41597,13.91298 l -6,0.58702 -0.25629,76.43709 c -0.20282,60.48817 0.006,76.60352 1,77.23469 0.69096,0.43868 3.28129,0.81437 5.75629,0.83487 15.60852,0.12929 26.45933,17.56022 19.91597,31.99335 -2.74179,6.04775 -5.45766,8.81278 -11.41597,11.62258 l -5,2.35788 -145.5,-0.0341 C 104.82389,500.91792 79.852159,500.68129 76.624765,499.53089 Z m 50.131285,-118.76032 0.25606,-78.72943 -2.25606,-0.56464 C 123.51522,301.16594 118.45,301.04419 113.5,301.20593 l -9,0.29407 -0.25625,75.61924 -0.25626,75.61925 4.75626,0.5301 c 3.78944,0.42235 5.26443,1.16637 7.25625,3.66023 2.15441,2.69743 3.05295,3.09149 6.5,2.85065 l 4,-0.27947 z M 127,176.51905 V 101.0381 l -2.25,-0.56312 c -1.2375,-0.30972 -6.3,-0.43079 -11.25,-0.26905 l -9,0.29407 -0.25629,75.75 -0.25628,75.75 H 115.49371 127 Z"
         id="path2545" />
      <path
         style="fill:#ed5f6c"
         d="M 76.624765,499.53089 C 68.175647,496.51921 61.809484,487.33694 61.753604,478.08138 61.674837,465.03492 71.288766,455 83.866657,455 c 2.901827,0 5.347175,-0.55272 6.01722,-1.36008 0.821524,-0.98988 1.058997,-22.01675 0.872444,-77.25 L 90.5,300.5 83.885487,299.84574 C 73.948477,298.86285 68.078033,294.99361 63.799469,286.60693 61.53115,282.16065 61.131517,273.30596 62.982462,268.50443 66.221149,260.10298 74.99911,254 83.844312,254 c 2.920668,0 5.368238,-0.55118 6.039565,-1.36008 0.821524,-0.98988 1.058997,-22.01675 0.872444,-77.25 L 90.5,99.5 84,98.92458 C 74.173445,98.054674 68.166337,94.166695 63.984757,85.970121 59.504015,77.187141 62.090419,64.083765 69.406195,58.503751 76.982,52.725402 71.789064,53 173.48807,53 h 93.5523 l 10.22981,-10.34098 c 15.33578,-15.502426 28.60755,-23.352048 48.75187,-28.834425 11.78872,-3.208359 36.52911,-3.232868 48.15338,-0.0477 19.01755,5.210991 35.26363,14.68029 47.92734,27.935246 8.87317,9.287448 12.34006,14.147561 17.76136,24.899072 C 459.16491,104.88847 451.56649,151.58551 421.076,182.076 406.49804,196.65396 389.98175,205.48477 369,209.91961 l -7.5,1.58525 -0.27127,20.4254 c -0.20815,15.67253 0.0245,20.61316 1,21.23226 0.6992,0.44377 3.29627,0.82363 5.77127,0.84413 15.60852,0.12929 26.45933,17.56022 19.91597,31.99335 -3.88098,8.56054 -10.28001,12.92132 -20.41597,13.91298 l -6,0.58702 -0.25629,76.43709 c -0.20282,60.48817 0.006,76.60352 1,77.23469 0.69096,0.43868 3.28129,0.81437 5.75629,0.83487 15.60852,0.12929 26.45933,17.56022 19.91597,31.99335 -2.74179,6.04775 -5.45766,8.81278 -11.41597,11.62258 l -5,2.35788 -145.5,-0.0341 C 104.82389,500.91792 79.852159,500.68129 76.624765,499.53089 Z m 50.131285,-118.76032 0.25606,-78.72943 -2.25606,-0.56464 C 123.51522,301.16594 118.45,301.04419 113.5,301.20593 l -9,0.29407 -0.25625,75.61924 -0.25626,75.61925 4.75626,0.5301 c 3.78944,0.42235 5.26443,1.16637 7.25625,3.66023 2.15441,2.69743 3.05295,3.09149 6.5,2.85065 l 4,-0.27947 z M 127,176.51905 V 101.0381 l -2.25,-0.56312 c -1.2375,-0.30972 -6.3,-0.43079 -11.25,-0.26905 l -9,0.29407 -0.25629,75.75 -0.25628,75.75 H 115.49371 127 Z M 359.5399,166.4671 c 15.83722,-4.07323 26.38432,-17.87387 26.43636,-34.59137 0.0133,-4.27519 -0.63355,-9.48724 -1.4726,-11.86535 -2.48952,-7.05604 -32.84055,-57.992383 -34.40396,-57.738118 -2.02481,0.329306 -32.81299,53.212788 -34.72919,59.652778 -4.43785,14.91482 2.7809,32.80504 16.4752,40.83042 8.78447,5.14805 17.54447,6.32208 27.69419,3.71164 z m -5.60048,-13.52768 c -3.43262,-3.43262 -2.23266,-6.86178 3.81991,-10.91629 5.87069,-3.93266 7.39925,-5.81134 9.17847,-11.28081 1.83587,-5.64361 7.06276,-7.60916 10.40721,-3.91358 4.93922,5.45777 -1.90218,19.00835 -12.73338,25.22067 -6.07137,3.48229 -7.92532,3.6369 -10.67221,0.89001 z"
         id="path2543" />
      <path
         style="fill:#668cb8"
         d="M 76.624765,499.53089 C 68.175647,496.51921 61.809484,487.33694 61.753604,478.08138 61.674837,465.03492 71.288766,455 83.866657,455 c 2.901827,0 5.347175,-0.55272 6.01722,-1.36008 0.821524,-0.98988 1.058997,-22.01675 0.872444,-77.25 L 90.5,300.5 83.885487,299.84574 C 73.948477,298.86285 68.078033,294.99361 63.799469,286.60693 61.53115,282.16065 61.131517,273.30596 62.982462,268.50443 66.221149,260.10298 74.99911,254 83.844312,254 c 2.920668,0 5.368238,-0.55118 6.039565,-1.36008 0.821524,-0.98988 1.058997,-22.01675 0.872444,-77.25 L 90.5,99.5 84,98.92458 C 74.173445,98.054674 68.166337,94.166695 63.984757,85.970121 59.504015,77.187141 62.090419,64.083765 69.406195,58.503751 76.982,52.725402 71.789064,53 173.48807,53 h 93.5523 l 10.22981,-10.34098 c 15.33578,-15.502426 28.60755,-23.352048 48.75187,-28.834425 11.78872,-3.208359 36.52911,-3.232868 48.15338,-0.0477 19.01755,5.210991 35.26363,14.68029 47.92734,27.935246 8.87317,9.287448 12.34006,14.147561 17.76136,24.899072 C 459.16491,104.88847 451.56649,151.58551 421.076,182.076 406.49804,196.65396 389.98175,205.48477 369,209.91961 l -7.5,1.58525 -0.27127,20.4254 c -0.20815,15.67253 0.0245,20.61316 1,21.23226 0.6992,0.44377 3.29627,0.82363 5.77127,0.84413 15.60852,0.12929 26.45933,17.56022 19.91597,31.99335 -3.88098,8.56054 -10.28001,12.92132 -20.41597,13.91298 l -6,0.58702 -0.25629,76.43709 c -0.20282,60.48817 0.006,76.60352 1,77.23469 0.69096,0.43868 3.28129,0.81437 5.75629,0.83487 15.60852,0.12929 26.45933,17.56022 19.91597,31.99335 -2.74179,6.04775 -5.45766,8.81278 -11.41597,11.62258 l -5,2.35788 -145.5,-0.0341 C 104.82389,500.91792 79.852159,500.68129 76.624765,499.53089 Z m 50.131285,-118.76032 0.25606,-78.72943 -2.25606,-0.56464 C 123.51522,301.16594 118.45,301.04419 113.5,301.20593 l -9,0.29407 -0.25625,75.61924 -0.25626,75.61925 4.75626,0.5301 c 3.78944,0.42235 5.26443,1.16637 7.25625,3.66023 2.15441,2.69743 3.05295,3.09149 6.5,2.85065 l 4,-0.27947 z M 127,176.51905 V 101.0381 l -2.25,-0.56312 c -1.2375,-0.30972 -6.3,-0.43079 -11.25,-0.26905 l -9,0.29407 -0.25629,75.75 -0.25628,75.75 H 115.49371 127 Z m 249.94993,18.59278 c 12.06343,-4.09479 18.92957,-7.78028 28.15672,-15.11346 13.88579,-11.03558 25.064,-27.84571 29.92251,-44.99837 4.31295,-15.2266 3.70423,-36.613208 -1.47559,-51.842485 -13.29343,-39.084319 -53.2647,-64.489988 -93.1511,-59.206676 -19.32881,2.560275 -36.74522,10.681056 -50.0864,23.353868 -17.17388,16.313507 -26.31435,35.649629 -27.91714,59.057053 -1.88305,27.50027 11.56292,57.18028 33.57939,74.12156 17.41107,13.39751 34.08208,18.65562 57.52168,18.1426 12.67635,-0.27744 14.89346,-0.60969 23.44993,-3.51409 z M 334.97691,177.78635 C 321.53434,173.07471 312.28335,164.8898 306.39705,152.5 c -6.57991,-13.84973 -6.55746,-28.37692 0.0649,-42 6.17274,-12.698176 37.98653,-65.752804 40.59282,-67.695084 5.09126,-3.794156 6.0326,-2.633155 27.37066,33.757525 10.88449,18.562803 20.64619,36.239139 21.69265,39.280739 7.98367,23.20494 -2.48995,48.30695 -24.7601,59.34224 -8.02883,3.97844 -8.89543,4.18349 -19.13384,4.52723 -9.19684,0.30878 -11.65313,0.0344 -17.24722,-1.9263 z M 359.5399,166.4671 c 15.83722,-4.07323 26.38432,-17.87387 26.43636,-34.59137 0.0133,-4.27519 -0.63355,-9.48724 -1.4726,-11.86535 -2.48952,-7.05604 -32.84055,-57.992383 -34.40396,-57.738118 -2.02481,0.329306 -32.81299,53.212788 -34.72919,59.652778 -4.43785,14.91482 2.7809,32.80504 16.4752,40.83042 8.78447,5.14805 17.54447,6.32208 27.69419,3.71164 z m -5.60048,-13.52768 c -3.43262,-3.43262 -2.23266,-6.86178 3.81991,-10.91629 5.87069,-3.93266 7.39925,-5.81134 9.17847,-11.28081 1.83587,-5.64361 7.06276,-7.60916 10.40721,-3.91358 4.93922,5.45777 -1.90218,19.00835 -12.73338,25.22067 -6.07137,3.48229 -7.92532,3.6369 -10.67221,0.89001 z"
         id="path2541" />
      <path
         style="fill:#5574a0"
         d="M 78.820554,499.61344 C 66.330742,496.22789 59.37382,483.49745 63.14143,470.92228 65.743722,462.23661 73.663921,456.3573 84.35053,455.17839 L 90.5,454.5 90.75617,377.25 91.01234,300 H 88.055391 C 70.14245,300 58.383278,285.80358 63.14143,269.92228 65.743722,261.23661 73.663921,255.3573 84.35053,254.17839 L 90.5,253.5 90.75617,176.25 91.01234,99 H 87.165101 C 77.137022,99 68.182188,93.735203 64.402158,85.61703 59.128286,74.290609 63.348982,61.60206 74.346727,55.720978 L 78.5,53.5 173.5614,53 l 95.06141,-0.5 8.87888,-9.330534 C 303.65186,15.689101 340.48954,5.2801097 377,15.054852 c 18.28208,4.894561 38.32591,18.076204 50.53556,33.234258 8.12674,10.089189 16.6384,27.007998 19.47501,38.71089 8.5318,35.19931 -2.00092,71.57554 -27.85827,96.21243 -13.1716,12.5499 -28.32532,20.95847 -44.72212,24.81562 -4.9116,1.1554 -10.05518,2.42008 -11.43018,2.81042 l -2.5,0.70969 V 232.52408 253.5 l 6,0.60134 c 10.41694,1.04403 16.36429,4.792 20.51524,12.92854 2.72374,5.33896 2.94192,14.18364 0.4706,19.0764 -4.07678,8.07125 -10.5984,12.37403 -20.63161,13.61213 L 360.5,300.50253 V 377.50126 454.5 l 6.61451,0.65426 c 7.41655,0.73358 11.29194,2.40604 15.632,6.7461 4.39678,4.39678 6.45349,9.51754 6.45349,16.06778 0,8.80324 -4.43097,15.91144 -12.7,20.37344 l -4,2.15842 -144.5,0.19094 c -114.07745,0.15074 -145.485195,-0.0761 -149.179446,-1.0775 z m 20.623182,-12.23022 c 1.277494,-0.49022 1.361654,-0.91279 0.410124,-2.05931 -1.417621,-1.70813 -1.696834,-10.62724 -0.4593,-14.67177 l 0.87138,-2.84786 -10.221104,0.34786 c -9.7641,0.33231 -10.328941,0.47331 -12.632969,3.15362 -4.161357,4.84098 -2.557526,12.84905 3.063894,15.2983 3.10077,1.351 16.08758,1.88447 18.967975,0.77916 z m 28.373204,-28.11329 c 0.17432,-1.22655 1.4725,-3.13905 2.88486,-4.25 C 133.24178,453.02198 134.43253,453 240.13486,453 H 347 v -75.44098 c 0,-41.49254 -0.3494,-75.65693 -0.77644,-75.92085 -0.42704,-0.26393 -55.21454,-0.59271 -121.75,-0.73063 L 103.5,300.65678 v 76.40792 c 0,67.16387 0.18147,76.43176 1.5,76.60501 7.92963,1.04198 8.88653,1.47279 10.91763,4.91525 1.97114,3.34084 2.32754,3.50883 6.83101,3.21989 4.0413,-0.25929 4.79872,-0.63812 5.0683,-2.53492 z m 6.25564,-16.90479 C 132.04431,439.78662 132,438.75082 132,393.92091 v -45.80938 l 2.3059,-2.68077 c 1.511,-1.75664 3.30152,-2.68076 5.1941,-2.68076 1.89258,0 3.6831,0.92412 5.1941,2.68076 L 147,348.11153 v 45.80938 c 0,44.82991 -0.0443,45.86571 -2.07258,48.44423 C 143.42421,444.27617 141.93322,445 139.5,445 c -2.43322,0 -3.92421,-0.72383 -5.42742,-2.63486 z m 0.38197,-106.81969 c -3.26257,-3.26256 -3.46069,-10.99663 -0.38197,-14.91059 2.90833,-3.69735 7.98565,-3.64398 10.95313,0.11514 2.97815,3.77263 2.4112,12.66804 -0.98254,15.41613 -3.1189,2.52553 -6.67244,2.29551 -9.58862,-0.62068 z M 99.043258,283.5 c -0.712664,-4.68096 -0.547543,-10.72521 0.378306,-13.84786 l 0.844376,-2.84786 -10.221104,0.34786 c -9.7641,0.33231 -10.328941,0.47331 -12.632969,3.15362 -4.159558,4.83888 -2.561059,12.83059 3.063894,15.31797 1.886084,0.83403 6.034992,1.25057 11.024239,1.1068 L 99.5,286.5 Z M 304.49172,258.02609 c 0.34457,-1.08566 1.78558,-2.88566 3.20225,-4 C 310.0684,252.15835 311.7051,252 328.63486,252 H 347 v -19.29767 -19.29767 l -9.65276,-1.21917 c -39.96118,-5.0472 -73.56844,-33.81836 -84.79464,-72.59267 -3.08377,-10.65109 -4.96876,-26.09501 -4.06686,-33.32021 l 0.65252,-5.22739 -60.81913,-0.46534 c -33.45052,-0.25594 -65.27187,-0.748524 -70.7141,-1.094634 -5.44224,-0.34611 -10.95474,-0.363308 -12.25,-0.03822 L 103,100.0381 v 76.23279 76.23278 l 90.02608,-0.36236 c 97.39451,-0.39201 94.68692,-0.53078 97.54676,4.99954 1.37345,2.65598 1.89827,2.85915 7.38545,2.85915 5.00266,0 6.00284,-0.30218 6.53343,-1.97391 z m 72.45821,-62.91426 c 12.06343,-4.09479 18.92957,-7.78028 28.15672,-15.11346 13.88579,-11.03558 25.064,-27.84571 29.92251,-44.99837 4.31295,-15.2266 3.70423,-36.613208 -1.47559,-51.842485 -13.29343,-39.084319 -53.2647,-64.489988 -93.1511,-59.206676 -19.32881,2.560275 -36.74522,10.681056 -50.0864,23.353868 -17.17388,16.313507 -26.31435,35.649629 -27.91714,59.057053 -1.88305,27.50027 11.56292,57.18028 33.57939,74.12156 17.41107,13.39751 34.08208,18.65562 57.52168,18.1426 12.67635,-0.27744 14.89346,-0.60969 23.44993,-3.51409 z M 334.97691,177.78635 C 321.53434,173.07471 312.28335,164.8898 306.39705,152.5 c -6.57991,-13.84973 -6.55746,-28.37692 0.0649,-42 6.17274,-12.698176 37.98653,-65.752804 40.59282,-67.695084 5.09126,-3.794156 6.0326,-2.633155 27.37066,33.757525 10.88449,18.562803 20.64619,36.239139 21.69265,39.280739 7.98367,23.20494 -2.48995,48.30695 -24.7601,59.34224 -8.02883,3.97844 -8.89543,4.18349 -19.13384,4.52723 -9.19684,0.30878 -11.65313,0.0344 -17.24722,-1.9263 z M 359.5399,166.4671 c 15.83722,-4.07323 26.38432,-17.87387 26.43636,-34.59137 0.0133,-4.27519 -0.63355,-9.48724 -1.4726,-11.86535 -2.48952,-7.05604 -32.84055,-57.992383 -34.40396,-57.738118 -2.02481,0.329306 -32.81299,53.212788 -34.72919,59.652778 -4.43785,14.91482 2.7809,32.80504 16.4752,40.83042 8.78447,5.14805 17.54447,6.32208 27.69419,3.71164 z m -5.60048,-13.52768 c -3.43262,-3.43262 -2.23266,-6.86178 3.81991,-10.91629 5.87069,-3.93266 7.39925,-5.81134 9.17847,-11.28081 1.83587,-5.64361 7.06276,-7.60916 10.40721,-3.91358 4.93922,5.45777 -1.90218,19.00835 -12.73338,25.22067 -6.07137,3.48229 -7.92532,3.6369 -10.67221,0.89001 z M 99.390396,83.25 C 98.31975,79.687313 98.332221,72.275583 99.414958,68.652138 l 0.850982,-2.847861 -10.221104,0.347861 c -9.7641,0.332309 -10.328941,0.473312 -12.632969,3.153626 -4.219643,4.908779 -2.74514,12.325644 3.088133,15.533553 1.1,0.604926 5.986284,1.11355 10.858408,1.130274 L 100.21682,86 Z"
         id="path2539" />
      <path
         style="fill:#595168"
         d="m 74.935504,497.25 c -7.393478,-3.74914 -11.16365,-9.25598 -11.733845,-17.13885 -0.518808,-7.17244 0.993059,-12.12439 5.145622,-16.8539 4.063057,-4.62757 9.868958,-7.20783 16.280274,-7.23529 3.079131,-0.0132 5.578459,-0.56526 6.256243,-1.38194 0.821637,-0.99002 1.058978,-22.27728 0.872444,-78.25 L 91.5,299.5 84.951854,298.93627 c -12.69365,-1.09279 -20.938837,-8.60821 -21.750195,-19.82512 -0.518808,-7.17244 0.993059,-12.12439 5.145622,-16.8539 4.048088,-4.61052 9.864275,-7.20772 16.202719,-7.23529 2.7775,-0.0121 5.59,-0.56196 6.25,-1.22196 1.737201,-1.7372 1.737201,-152.8628 0,-154.6 C 90.14,98.54 87.829709,98 85.66602,98 72.51616,98 63.043924,88.788246 63.043924,76 c 0,-9.320719 4.957163,-17.014601 13.173957,-20.446952 C 79.489765,54.186304 91.230894,54 174.09302,54 h 94.15725 l 4.62487,-5.25 C 283.51633,36.670448 293.09104,28.998538 305,23.009377 c 50.08574,-25.1887345 110.18631,-4.928203 134.46866,45.33079 6.52603,13.507421 8.65527,22.532046 9.26238,39.257793 0.58037,15.98936 -0.73947,24.79352 -5.82284,38.84211 -7.83504,21.6532 -27.19116,43.12701 -48.60103,53.91832 -7.06853,3.56278 -18.40842,7.26686 -26.57896,8.6818 -4.88908,0.84667 -7.06015,1.71153 -7.80899,3.11076 -1.20313,2.24806 -0.86797,40.23969 0.36584,41.4698 0.43178,0.43049 3.66248,1.08053 7.17932,1.44453 11.71006,1.21204 19.67588,8.3831 21.13466,19.02603 0.94921,6.92526 -1.12349,12.71971 -6.45443,18.04401 -4.95808,4.95191 -9.62235,6.84953 -16.85943,6.8591 -3.16552,0.004 -4.47714,0.49574 -5.26852,1.97446 -0.71855,1.34261 -0.9683,26.00576 -0.78519,77.53669 0.29885,84.09942 -0.33357,77.45035 7.36931,77.47912 8.31023,0.031 14.9536,3.69241 18.89132,10.41162 3.1447,5.36602 4.0637,11.82588 2.50559,17.61228 -1.56079,5.79632 -8.89704,13.32245 -14.49769,14.87291 -2.83966,0.78612 -45.93791,1.10896 -148.57069,1.11292 L 80.35863,500 Z m 296.624476,-9.27281 c 3.21328,-1.22168 6.4316,-6.63559 6.43628,-10.82719 0.003,-2.47942 -0.87983,-4.23357 -3.39626,-6.75 L 371.2,467 H 253.6651 c -80.54992,0 -118.41433,-0.33436 -120.32965,-1.06256 -4.48508,-1.70523 -5.57013,-4.86651 -2.91619,-8.49631 1.38583,-1.89541 3.9707,-1.95291 109.75,-2.44113 L 348.5,454.5 v -77 -77 l -122,-0.51514 c -70.88364,-0.2993 -122.52632,-0.14111 -123.25618,0.37757 -0.99338,0.70596 -1.20258,16.91954 -1,77.50284 l 0.25618,76.61014 5,0.71422 c 6.7246,0.96058 10.03132,4.83279 7.52373,8.81037 -0.75832,1.20285 -4.30858,1.59905 -17.92184,2 l -16.976194,0.5 -3.050395,2.92516 c -6.822992,6.54287 -4.016904,17.61074 4.929412,19.44276 4.975182,1.01882 286.813147,0.15183 289.555267,-0.89073 z M 136,442 c -1.94258,-1.94258 -2,-3.33333 -2,-48.4433 v -46.44329 l 2.22251,-1.55671 c 2.93731,-2.05737 4.37057,-1.96362 6.77749,0.4433 1.94203,1.94203 2,3.33333 2,48 0,44.66667 -0.058,46.05797 -2,48 -1.1,1.1 -2.675,2 -3.5,2 -0.825,0 -2.4,-0.9 -3.5,-2 z m -0.42857,-107.57143 c -1.95316,-1.95316 -2.11129,-10.30801 -0.24344,-12.86244 0.74425,-1.01783 2.57811,-1.81613 4.17201,-1.81613 3.77361,0 5.5,2.60092 5.5,8.28614 0,6.92416 -5.3021,10.5189 -9.42857,6.39243 z m 235.98855,-47.45138 c 3.21328,-1.22168 6.4316,-6.63559 6.43628,-10.82719 0.003,-2.47942 -0.87983,-4.23357 -3.39626,-6.75 l -3.4,-3.4 h -29.0349 c -28.37184,0 -33.58339,-0.48796 -35.37944,-3.31256 -1.16018,-1.8246 -0.92923,-4.10855 0.63162,-6.24631 1.29735,-1.77687 3.0955,-1.98344 21.25,-2.44113 l 19.83272,-0.5 0.27022,-20.72587 0.27021,-20.72588 -2.27021,-0.46577 c -1.24862,-0.25618 -5.08371,-0.73949 -8.52241,-1.07403 -21.47205,-2.08895 -44.59704,-13.66911 -60.29243,-30.19228 -17.94919,-18.89582 -26.76322,-40.38297 -27.58823,-67.25556 -0.22693,-7.39167 -0.51488,-13.53108 -0.63988,-13.643137 -0.125,-0.112057 -32.94215,-0.364329 -72.927,-0.560606 -50.17083,-0.246278 -73.02715,-0.02953 -73.7563,0.699428 -0.72817,0.727985 -0.9769,24.815685 -0.80027,77.500005 L 102.5,253.5 l 91.42711,0.25529 c 84.29388,0.23538 91.57311,0.38743 93.29852,1.9489 2.67124,2.41744 2.0009,7.37065 -1.22563,9.05624 -2.01376,1.05203 -22.04682,1.28098 -103,1.17717 -55.275,-0.0709 -101.027974,-0.0858 -101.673275,-0.0332 -0.645301,0.0526 -2.542499,1.24777 -4.215995,2.65592 -6.989452,5.88124 -4.050481,17.476 4.893983,19.30764 4.975182,1.01882 286.813147,0.15183 289.555267,-0.89073 z m 5.38995,-91.86536 c 12.06343,-4.09479 18.92957,-7.78028 28.15672,-15.11346 13.88579,-11.03558 25.064,-27.84571 29.92251,-44.99837 4.31295,-15.2266 3.70423,-36.613208 -1.47559,-51.842485 -13.29343,-39.084319 -53.2647,-64.489988 -93.1511,-59.206676 -19.32881,2.560275 -36.74522,10.681056 -50.0864,23.353868 -17.17388,16.313507 -26.31435,35.649629 -27.91714,59.057053 -1.88305,27.50027 11.56292,57.18028 33.57939,74.12156 17.41107,13.39751 34.08208,18.65562 57.52168,18.1426 12.67635,-0.27744 14.89346,-0.60969 23.44993,-3.51409 z M 334.97691,177.78635 C 321.53434,173.07471 312.28335,164.8898 306.39705,152.5 c -6.57991,-13.84973 -6.55746,-28.37692 0.0649,-42 6.17274,-12.698176 37.98653,-65.752804 40.59282,-67.695084 5.09126,-3.794156 6.0326,-2.633155 27.37066,33.757525 10.88449,18.562803 20.64619,36.239139 21.69265,39.280739 7.98367,23.20494 -2.48995,48.30695 -24.7601,59.34224 -8.02883,3.97844 -8.89543,4.18349 -19.13384,4.52723 -9.19684,0.30878 -11.65313,0.0344 -17.24722,-1.9263 z M 359.5399,166.4671 c 15.83722,-4.07323 26.38432,-17.87387 26.43636,-34.59137 0.0133,-4.27519 -0.63355,-9.48724 -1.4726,-11.86535 -2.48952,-7.05604 -32.84055,-57.992383 -34.40396,-57.738118 -2.02481,0.329306 -32.81299,53.212788 -34.72919,59.652778 -4.43785,14.91482 2.7809,32.80504 16.4752,40.83042 8.78447,5.14805 17.54447,6.32208 27.69419,3.71164 z m -5.60048,-13.52768 c -3.43262,-3.43262 -2.23266,-6.86178 3.81991,-10.91629 5.87069,-3.93266 7.39925,-5.81134 9.17847,-11.28081 1.83587,-5.64361 7.06276,-7.60916 10.40721,-3.91358 4.93922,5.45777 -1.90218,19.00835 -12.73338,25.22067 -6.07137,3.48229 -7.92532,3.6369 -10.67221,0.89001 z M 252.16179,86.176988 c 0.90063,-0.921307 8.0727,-20.276299 7.66404,-20.682652 C 259.64662,65.316139 219.45,65.050058 170.5,64.903046 107.71647,64.714487 80.90757,64.956681 79.488811,65.725251 73.268434,69.094952 71.360299,76.333328 75.198565,82 c 1.30388,1.925 3.746214,3.95 5.42741,4.5 3.441669,1.125936 170.426775,0.811493 171.535815,-0.323012 z"
         id="path2537" />
      <path
         style="fill:#294369"
         d="m 79.394671,498.86267 c -2.272257,-0.51095 -6.01662,-2.55914 -8.385835,-4.5871 C 62.746947,487.2037 60.835337,477.62849 65.75,467.93418 c 3.681541,-7.26194 9.392811,-10.81754 18.882467,-11.75544 L 91.5,455.5 v -78 -78 l -3,-0.28668 c -9.331347,-0.89169 -13.839943,-2.48548 -18.075534,-6.38971 -7.994841,-7.36939 -9.551952,-17.81124 -4.054834,-27.19137 3.632367,-6.19816 9.593955,-9.59628 18.355041,-10.46242 L 91.5,254.5 v -78 -78 L 85.992424,97.907559 C 82.963258,97.581717 78.836895,96.771245 76.822729,96.10651 72.30049,94.614037 65.687598,87.613471 64.016264,82.549282 61.03013,73.501207 65.392786,62.204838 73.776578,57.276578 L 78.5,54.5 174.15974,54 l 95.65975,-0.5 2.34025,-3 c 8.64657,-11.084137 19.59515,-20.10501 32.47511,-26.757248 37.47257,-19.3538249 82.20631,-13.273715 112.78292,15.329204 35.27536,32.998373 41.73618,86.280164 15.34027,126.509794 -14.69446,22.39561 -36.93119,37.25098 -64.17263,42.87088 -4.35302,0.89803 -8.29052,1.86512 -8.75,2.14909 -0.9485,0.58621 -1.16083,40.38668 -0.22842,42.81649 0.4298,1.12006 1.92845,1.58179 5.13398,1.58179 15.79986,0 26.54105,12.76672 22.81771,27.12056 -2.58591,9.96896 -9.43302,15.32246 -21.26921,16.62963 L 359.5,299.5 l -0.27541,76 c -0.15147,41.8 -0.0304,77.0125 0.26906,78.25 0.46694,1.92965 1.20152,2.25 5.15938,2.25 13.5701,0 23.44856,9.03006 23.56095,21.53744 0.059,6.56806 -3.1017,13.5124 -7.77126,17.07405 -7.37117,5.62226 -0.78231,5.39754 -154.85165,5.28142 -82.77492,-0.0624 -143.804846,-0.49246 -146.196399,-1.03024 z M 240.35,489.00406 371.2,489 l 3.4,-3.4 c 3.89304,-3.89304 4.54661,-8.85036 1.78351,-13.52791 -3.49938,-5.92398 4.52182,-5.54882 -124.82249,-5.83813 -110.04421,-0.24614 -119.07865,-0.39244 -120.80664,-1.95625 -1.91437,-1.73247 -1.73056,-5.63611 0.36621,-7.77771 0.63473,-0.64829 39.03386,-1.17585 109.17924,-1.5 L 348.5,454.5 l 0.2563,-76.4437 c 0.14096,-42.04404 -0.084,-76.77301 -0.5,-77.17548 -0.41597,-0.40247 -55.8813,-0.85085 -123.2563,-0.9964 l -122.5,-0.26464 -0.25624,76.83013 c -0.18062,54.1539 0.0643,77.21631 0.82967,78.13857 0.59725,0.71964 3.18401,1.44414 5.74834,1.60998 3.99052,0.25809 4.85658,0.7083 6.00966,3.12408 1.17533,2.46239 1.13229,3.06006 -0.3373,4.68395 -1.48823,1.64447 -3.60555,1.89823 -18.168603,2.17745 L 79.841464,466.5 l -3.538015,3.86329 c -3.203129,3.49762 -3.490549,4.28441 -3.036551,8.31227 0.575065,5.10196 3.564963,8.8783 8.178001,10.32908 1.680305,0.52845 8.680101,0.74541 15.555101,0.48214 6.875,-0.26327 71.3825,-0.48049 143.35,-0.48272 z M 136.05115,442.05115 C 134.0424,440.0424 134,439.04906 134,394 c 0,-44.66667 0.058,-46.05797 2,-48 1.1,-1.1 2.675,-2 3.5,-2 0.825,0 2.4,0.9 3.5,2 1.94179,1.94179 2,3.33333 2,47.80887 0,35.13235 -0.29133,46.17948 -1.25,47.39903 -2.16222,2.75061 -5.43322,3.10888 -7.69885,0.84325 z m -0.39616,-107.87989 c -2.17309,-2.40124 -2.22652,-10.45688 -0.0836,-12.59983 C 136.43571,320.70714 138.20357,320 139.5,320 c 3.71665,0 5.5,2.56686 5.5,7.91644 0,7.18122 -5.29768,10.72707 -9.34501,6.25482 z M 240.35,288.00406 371.2,288 l 3.4,-3.4 c 4.18517,-4.18517 4.66903,-9.71698 1.2321,-14.08632 C 371.74865,265.32242 369.55749,265 338.36086,265 c -25.30547,0 -28.91987,-0.19592 -30.53212,-1.65499 -2.1934,-1.985 -2.32995,-4.27628 -0.41146,-6.90388 1.29735,-1.77687 3.0955,-1.98344 21.25,-2.44113 L 348.5,253.5 348.77006,232.82376 C 349.07858,209.20374 350.18908,211.62033 338.5,210.47475 324.57203,209.10974 306.35366,202.38921 294.19097,194.12969 265.96376,174.96095 248.71144,140.80974 250.17528,107 l 0.32472,-7.5 -73,-0.577794 c -40.15,-0.317787 -73.5625,-0.382142 -74.25,-0.143011 -1.83102,0.636876 -1.83102,153.741925 0,154.879085 0.6875,0.42697 41.64892,0.63426 91.02538,0.46063 81.4396,-0.28636 90.00515,-0.16512 92.25,1.30576 2.70838,1.7746 3.45614,6.82204 1.22462,8.26631 -0.6875,0.44496 -47.7472,1.03402 -104.5771,1.30902 l -103.327101,0.5 -3.540182,3.86329 c -3.205629,3.49821 -3.492793,4.28373 -3.038719,8.31227 0.575065,5.10196 3.564963,8.8783 8.178001,10.32908 1.680305,0.52845 8.680101,0.74541 15.555101,0.48214 6.875,-0.26327 71.3825,-0.48049 143.35,-0.48272 z m 128.15201,-88.88834 c 33.22483,-6.85759 59.64701,-32.11804 68.63341,-65.61572 2.9658,-11.05532 3.18974,-31.75082 0.45988,-42.5 C 433.0527,73.112961 424.2336,58.101922 410.9877,45.711077 393.91842,29.743669 374.03591,22 350.10753,22 337.53612,22 328.38986,23.66785 317.11304,28.016651 290.69654,38.203933 269.71778,62.371922 262.87505,90.5 c -2.74933,11.30157 -2.99841,29.59007 -0.5412,39.73731 8.88832,36.70495 37.23729,63.65791 73.3259,69.71506 8.79051,1.47541 23.44969,1.10197 32.84226,-0.83665 z m -28.23935,-21.57316 c -28.00469,-6.33869 -44.44489,-36.48221 -34.00031,-62.34039 2.38351,-5.90098 37.53297,-67.003504 40.52788,-70.45217 2.2834,-2.629351 4.83278,-2.120826 7.51995,1.5 4.42605,5.963889 38.02629,64.13083 39.98914,69.22706 3.06761,7.96461 3.43015,20.76267 0.83059,29.32115 -7.166,23.59249 -31.40105,38.05577 -54.86725,32.74435 z m 16.26347,-8.63202 c 14.856,-2.74628 25.8153,-12.72745 30.01441,-27.33558 2.25943,-7.86028 1.58392,-17.43907 -1.7422,-24.70427 -3.31027,-7.23057 -30.54169,-53.831168 -32.92211,-56.338944 -1.63912,-1.726822 -2.04258,-1.788154 -3.28916,-0.5 C 347.8056,60.839286 339.94634,73.875 331.12206,89 c -17.74333,30.41243 -19.86037,35.66212 -18.73263,46.4518 1.70974,16.35784 15.18931,30.80251 31.26106,33.49924 6.87693,1.15391 6.40645,1.15539 12.87564,-0.0405 z m -1.32622,-16.72338 c -0.71506,-0.47692 -1.37795,-1.90056 -1.47309,-3.16367 -0.17356,-2.30404 0.63587,-3.11907 7.27318,-7.32338 2.23626,-1.41654 4.60572,-4.38038 6.56238,-8.20857 2.4526,-4.79852 3.59584,-6.05438 5.74154,-6.30715 2.07153,-0.24402 2.94575,0.26946 3.85454,2.26404 1.77814,3.9026 -4.02251,14.76447 -10.27611,19.24224 -4.92385,3.52564 -9.55882,4.91286 -11.68244,3.49649 z M 182.21146,87.003658 252.92291,87 l 1.13806,-4.25 c 0.62593,-2.3375 2.24618,-6.890242 3.60055,-10.117205 1.35438,-3.226962 2.221,-6.49657 1.92582,-7.265794 -0.45529,-1.186471 -14.12637,-1.358278 -90.13907,-1.132796 L 79.845892,64.5 76.305663,68.363292 c -3.200843,3.492937 -3.49239,4.287716 -3.041209,8.29058 0.274461,2.435008 1.339738,5.370509 2.367283,6.523335 3.852873,4.322626 6.9265,4.936154 21.868263,4.365136 7.7,-0.294265 45.82016,-0.536673 84.71146,-0.538685 z"
         id="path2535" />
    </g>
  </g>
</svg>
