<?xml version="1.0" encoding="UTF-8" standalone="no"?>
<!-- Created with Inkscape (http://www.inkscape.org/) -->

<svg
   version="1.1"
   id="svg2797"
   width="512"
   height="512"
   viewBox="0 0 512 512"
   xmlns="http://www.w3.org/2000/svg"
   xmlns:svg="http://www.w3.org/2000/svg">
  <defs
     id="defs2801" />
  <g
     id="g2803">
    <g
       id="g2807">
      <path
         style="fill:#ced6d8"
         d="m 342.56192,497.03053 c -5.37146,-1.05959 -7.2696,-3.78736 -8.1125,-11.65827 -0.97191,-9.07551 -0.0544,-31.38116 1.40263,-34.09934 2.1846,-4.07551 4.85226,-4.66894 22.89795,-5.09372 L 376,445.77315 v -5.87316 c 0,-5.74062 -0.0772,-5.90539 -3.41951,-7.30191 -1.88073,-0.78582 -4.01823,-2.47936 -4.75,-3.76342 -1.08019,-1.89546 -1.38232,-22.87953 -1.60602,-111.54414 l -0.27552,-109.20947 -3.22448,-0.58166 c -1.77346,-0.31991 -8.15495,-1.4112 -14.18109,-2.42509 l -10.95661,-1.84345 -2.601,2.78438 c -3.26706,3.49741 -10.55372,4.44638 -29.02111,3.77953 -14.42435,-0.52086 -17.3112,-1.60382 -18.79307,-7.04996 -0.57744,-2.1222 -1.36529,-3.07872 -2.27724,-2.76475 -0.76689,0.26402 -6.89669,0.52414 -13.62177,0.57803 l -12.22742,0.098 -9.38297,6.65128 c -5.16063,3.65821 -9.84732,7.22309 -10.41487,7.92197 -0.56754,0.69887 -2.21026,5.02192 -3.65049,9.60676 -4.04711,12.88361 -5.27663,14.53405 -11.58419,15.54997 -3.25773,0.52471 -3.62909,0.96317 -5.11726,6.04205 l -1.60462,5.47629 2.80603,2.68834 c 4.32647,4.14503 4.32181,6.57968 -0.0401,20.90727 -4.06062,13.33813 -5.63741,15.85468 -10.73576,17.13429 -3.23506,0.81195 -36.97592,-11.23728 -40.07098,-14.30978 -1.5151,-1.50406 -2.25,-3.42678 -2.25,-5.88669 0,-2.00919 4.5,-17.84246 10,-35.18503 5.5,-17.34258 10,-32.19737 10,-33.01065 0,-1.58639 -3.10269,-1.4936 -28.76493,0.86021 -17.2974,1.58656 -27.54776,-1.3624 -36.76139,-10.57603 -18.58915,-18.58916 -12.84226,-49.45648 11.32561,-60.83127 6.14976,-2.89443 7.48183,-3.14296 16.20071,-3.02258 5.225,0.0721 14.66567,0.58815 20.97926,1.14668 6.31359,0.55853 11.82609,0.80115 12.25,0.53916 0.42391,-0.26199 0.77074,-2.65534 0.77074,-5.31855 0,-4.44398 -0.27879,-5.0067 -3.38987,-6.84228 -2.12055,-1.25115 -3.78706,-3.25399 -4.4506,-5.34878 -0.5834,-1.84178 -3.37968,-16.1737 -6.21395,-31.8487 -5.8228,-32.203134 -6.0242,-37.77994 -1.70509,-47.214126 C 170.66073,28.315 175.71997,22.972411 183.23161,18.899111 189.22811,15.647439 189.95545,15.5 200,15.5 c 10.04455,0 10.77189,0.147439 16.76834,3.399101 7.51164,4.0733 12.57088,9.415889 15.99117,16.886773 4.31583,9.427029 4.11667,15.04638 -1.65569,46.714666 C 226.84374,105.87215 226,112.44345 226,122.25054 V 134 h 6.60307 c 6.40776,0 6.74963,-0.13177 11.55779,-4.45472 2.72509,-2.45009 7.51621,-5.71259 10.64693,-7.25 C 260.03788,119.72693 261.43362,119.5 272,119.5 c 10.99288,0 11.78265,0.14332 17.90972,3.25 6.31242,3.20066 6.62363,3.25066 20.5,3.29355 17.22407,0.0532 22.3454,0.92622 25.05928,4.27159 l 2.031,2.5036 11,-1.86824 c 6.05,-1.02753 12.44062,-2.12803 14.20137,-2.44556 l 3.20137,-0.57732 0.29863,-53.259183 c 0.27409,-48.882816 0.44347,-53.48012 2.06128,-55.947933 0.96946,-1.478812 2.99446,-3.033394 4.5,-3.454627 C 374.26819,14.844645 394.19513,14.5 417.04474,14.5 c 37.99615,0 41.77445,0.150558 44.23412,1.76265 1.47916,0.969457 3.03403,2.994457 3.45526,4.5 C 465.15536,22.268192 465.5,69.175 465.5,125 c 0,82.63844 -0.24724,101.93385 -1.33049,103.83466 -1.4153,2.48347 -6.71862,5.16534 -10.21431,5.16534 -1.15998,0 -3.42443,-1.31538 -5.03212,-2.92308 L 446,228.15385 V 147.07692 66 H 435.5 425 v 6 c 0,4.796748 0.31624,6 1.57692,6 0.86731,0 2.89231,1.315385 4.5,2.923077 L 434,83.846154 V 156 228.15385 l -2.92308,2.92307 c -1.60769,1.6077 -3.63269,2.92308 -4.5,2.92308 -1.26068,0 -1.57692,1.20325 -1.57692,6 0,4.79675 0.31624,6 1.57692,6 0.86731,0 2.89231,1.31538 4.5,2.92308 L 434,251.84615 V 268 284.15385 l -2.92308,2.92307 c -1.60769,1.6077 -3.65535,2.92308 -4.55035,2.92308 -1.48582,0 -1.60094,4.45539 -1.32429,51.25 l 0.303,51.25 2.40591,6 c 1.75607,4.3794 4.22584,7.82318 9.14391,12.75 3.7059,3.7125 7.23456,6.75 7.84145,6.75 C 445.69229,418 446,394.83333 446,334.92308 v -83.07693 l 2.92308,-2.92307 C 450.53077,247.31538 452.79522,246 453.9552,246 c 3.49569,0 8.79901,2.68187 10.21431,5.16534 1.07642,1.88883 1.38369,20.68907 1.6091,98.45075 l 0.27861,96.1161 12.40902,0.47803 c 13.67995,0.52699 16.90577,1.68405 18.26788,6.55243 0.99592,3.55954 0.99592,34.91516 0,38.4747 -0.42123,1.50554 -1.97603,3.53054 -3.45511,4.5 -2.49997,1.6386 -7.75954,1.77347 -74.73412,1.91633 -39.62469,0.0845 -73.81702,-0.19589 -75.98297,-0.62315 z M 478,468.5 V 466 h -55.5 c -30.525,0 -55.5,0.23161 -55.5,0.5147 0,0.28308 1.4625,1.4064 3.25,2.49626 3.13022,1.90853 5.17565,1.9817 55.5,1.9853 L 478,471 Z M 201.64988,246.61647 c 4.08505,-4.81633 5.99414,-9.50467 12.30789,-30.22567 3.33343,-10.93994 6.46534,-20.83391 6.95981,-21.9866 0.49446,-1.15269 9.26201,-8.05285 19.48343,-15.33369 10.22142,-7.28084 18.83924,-13.65023 19.15071,-14.1542 C 259.86319,164.41234 259.35865,164 258.43051,164 256.1524,164 213.27748,194.64688 211.27058,197.70979 210.06217,199.55406 193,250.95675 193,252.75303 c 0,0.99953 6.5213,-3.62693 8.64988,-6.13656 z M 318,162 v -16 h -2.32741 -2.3274 l 0.42921,13.75 c 0.29732,9.52493 0.86592,14.44137 1.85045,16 0.78169,1.2375 1.63588,2.25 1.8982,2.25 C 317.78537,178 318,170.8 318,162 Z m -24.56876,0.51482 c 2.34481,-12.4989 -11.57752,-26.39837 -24.09047,-24.05093 -2.6391,0.4951 -3.34077,1.1104 -3.34077,2.92955 0,1.70972 1.00506,2.75603 3.90236,4.06253 5.26575,2.37452 10.53447,7.98426 13.1903,14.04403 2.48732,5.67529 3.34343,6.4632 7.04605,6.48469 2.22613,0.0129 2.74094,-0.52962 3.29253,-3.46987 z M 209,92 c 0,-1.497801 -0.66667,-2 -2.65499,-2 -2.59164,0 -2.6118,0.04771 -0.84501,2 0.99549,1.1 2.19023,2 2.65499,2 C 208.61974,94 209,93.1 209,92 Z M 70,476.40288 C 50.475,465.12397 33.7125,454.96937 32.75,453.8371 29.502563,450.01687 30.514944,445.33313 37.038817,433.99507 44.177065,421.58926 47.626671,418 52.411531,418 c 2.944276,0 3.778342,-0.6208 6.470305,-4.81586 l 3.090328,-4.81586 -1.986082,-3.89558 C 58.893737,402.33013 58,400.08039 58,399.47328 58,398.86617 60.045659,394.46 62.54591,389.68181 70.93413,373.65119 74.092351,363.14283 75.974749,345 c 2.803302,-27.01864 6.662606,-37.89074 24.233621,-68.2689 8.48048,-14.66173 11.42325,-17.54234 16.59487,-16.24435 4.04416,1.01502 113.4223,64.35082 115.94676,67.13938 4.05602,4.48036 3.13562,8.19523 -5.89661,23.79956 -16.0756,27.77264 -24.75183,37.96042 -45.07838,52.93181 -12.68284,9.34146 -20.38411,16.53438 -26.60517,24.84901 -2.17835,2.91142 -11.47916,18.34349 -20.66847,34.29349 -9.18931,15.95 -17.81147,30.0125 -19.16037,31.25 -5.03135,4.61586 -6.89518,3.86167 -45.341,-18.34712 z M 182.28826,343.12061 c 4.28354,-1.02509 7.94222,-2.03408 8.13041,-2.2422 0.18818,-0.20813 1.80659,-2.77671 3.59647,-5.70797 2.74484,-4.49519 3.03753,-5.5294 1.86959,-6.60606 -1.68728,-1.55541 -74.13533,-43.36163 -75.85545,-43.77247 -2.64843,-0.63255 -17.91441,28.79746 -20.373447,39.27627 l -0.60267,2.56818 9.223417,0.029 c 5.22096,0.0164 12.04406,0.74973 15.72342,1.68985 6.05459,1.54703 9.61482,3.14293 25.67126,11.50733 10.31982,5.37598 19.80681,6.32361 32.617,3.25804 z"
         id="path2821" />
      <path
         style="fill:#9da1a2"
         d="m 342.37427,496.32305 c -1.16915,-0.23627 -3.19415,-1.56687 -4.5,-2.95688 -2.3261,-2.47603 -2.37427,-2.91066 -2.37427,-21.42401 v -18.89671 l 2.77188,-2.77272 L 341.04377,447.5 393.77188,447 446.5,446.5 447,350 c 0.275,-53.075 0.89203,-97.30414 1.37118,-98.28699 1.26011,-2.58475 6.20388,-4.85777 9.02536,-4.14962 1.32759,0.3332 3.46897,1.72888 4.75863,3.10151 l 2.34483,2.49568 0.2693,96.81978 0.26929,96.81979 12.95883,0.34992 c 12.61962,0.34077 13.03138,0.42251 15.7307,3.12266 L 496.5,453.04545 V 472 490.95455 l -2.77231,2.77272 -2.77232,2.77273 -73.22768,0.12632 c -40.27523,0.0695 -74.18427,-0.067 -75.35342,-0.30327 z m 136.42159,-24.58058 0.29586,-6.75753 -62.79586,0.25753 L 353.5,465.5 l -0.3068,5.3808 c -0.16873,2.95944 -0.0691,6.00035 0.22153,6.75758 0.44225,1.15249 10.67413,1.33482 62.80679,1.1192 L 478.5,478.5 Z M 72,476.45091 C 53.575,465.7697 37.0375,455.87948 35.25,454.47263 c -5.114839,-4.02561 -4.558245,-7.56299 3.326484,-21.14113 3.617067,-6.22888 7.542194,-12.00164 8.722507,-12.82837 C 48.479303,419.67641 51.111859,419 53.149116,419 c 3.436401,0 3.92886,-0.39283 6.813994,-5.43552 l 3.109891,-5.43553 -2.036501,-3.79966 C 59.916425,402.23947 59,400.12016 59,399.61971 c 0,-0.50046 2.425055,-5.68212 5.389011,-11.51481 6.653637,-13.09353 10.239282,-24.26576 11.664515,-36.34457 C 80.153228,317.01548 82.754231,309.08981 99.9316,279 c 8.27103,-14.48846 11.92553,-18.47857 16.15042,-17.6336 2.34849,0.4697 80.04282,44.67224 108.66538,61.82286 8.36821,5.01423 10.10636,7.30014 9.3608,12.31074 -0.41122,2.76361 -17.27892,31.54452 -23.19099,39.57016 -6.51288,8.84126 -20.53203,22.15022 -30.91721,29.35101 -9.96368,6.90853 -21.95655,18.66381 -27.65189,27.1041 -2.21739,3.2861 -11.17626,18.33566 -19.90859,33.44346 -8.73234,15.10779 -16.67854,28.27029 -17.65825,29.25 -4.12244,4.12244 -7.29018,2.80682 -42.78127,-17.76782 z M 186.63813,343.39936 c 4.87403,-1.43035 11.9819,-3.47979 15.79527,-4.55433 3.81337,-1.07453 7.35024,-2.21131 7.8597,-2.52618 0.50947,-0.31486 -1.93556,-2.28074 -5.4334,-4.3686 C 191.95973,324.25022 119.04077,282 118.6514,282 c -0.54768,0 -9.70512,16.04032 -13.54511,23.72584 -3.24103,6.48672 -8.42923,21.28455 -7.713437,22.00035 0.226633,0.22663 5.518457,0.51866 11.759607,0.64895 13.21395,0.27587 22.47805,2.93968 33.97282,9.76859 14.17806,8.42304 27.31344,10.00957 43.51285,5.25563 z M 373.5,432.05464 c -1.1,-0.45022 -2.9,-1.81884 -4,-3.04137 -1.97088,-2.19043 -2.00389,-3.82276 -2.26719,-112.11803 -0.14696,-60.44238 -0.59696,-109.90043 -1,-109.90677 -0.40305,-0.006 -7.03281,-1.09123 -14.73281,-2.41086 l -14,-2.39932 -3.30554,3.16085 -3.30554,3.16086 h -18.8639 c -18.355,0 -18.93051,-0.0626 -21.33346,-2.32004 -1.35827,-1.27603 -2.73965,-3.6704 -3.06973,-5.32083 -0.50114,-2.50568 -0.94907,-2.89004 -2.71485,-2.32961 -4.73636,1.50327 -13.27496,2.08914 -19.01222,1.30452 l -6.09151,-0.83307 -10.93815,7.72909 -10.93815,7.72908 -3.14738,9.92847 c -3.96679,12.51332 -5.85441,14.87473 -11.82444,14.79233 C 217.57998,239.10576 215,236.52137 215,231.2112 c 0,-4.73827 6.64128,-25.85505 8.8096,-28.01122 0.94026,-0.93499 10.17244,-7.72363 20.51596,-15.08586 10.34352,-7.36224 19.47224,-14.40209 20.28605,-15.64411 3.28179,-5.00865 -2.03523,-11.88096 -7.57449,-9.79012 -3.40995,1.28711 -42.66698,29.23276 -45.90109,32.67532 -2.1709,2.31081 -13.99318,37.04199 -20.30272,59.64479 -3.48227,12.47463 -3.72,11.34214 2.83966,13.5273 3.20487,1.06761 6.33865,2.08392 6.96397,2.25846 0.64111,0.17894 2.04372,-2.66804 3.21619,-6.52813 3.08929,-10.17082 8.10895,-13.78331 14.09444,-10.14332 5.50926,3.35038 5.70002,5.79059 1.55453,19.88569 -2.88036,9.79352 -4.31047,13.09542 -6.60501,15.25 -1.61075,1.5125 -3.74948,2.75 -4.75272,2.75 -3.35997,0 -35.61587,-12.13326 -37.89437,-14.25421 -1.53827,-1.4319 -2.24167,-3.22549 -2.22366,-5.6701 0.0145,-1.96663 4.6932,-18.20069 10.39716,-36.07569 5.70396,-17.875 10.01122,-32.88339 9.57169,-33.35198 -0.43953,-0.46859 -9.99969,-0.12113 -21.2448,0.77212 -22.74957,1.80712 -27.49136,1.38193 -36.08975,-3.23613 -6.61935,-3.55514 -14.03016,-11.93204 -16.75336,-18.93735 -3.06112,-7.8746 -3.06112,-18.61872 0,-26.49332 2.72755,-7.01651 10.11614,-15.35969 16.84613,-19.02261 8.43455,-4.59066 12.92803,-5.04017 33.31844,-3.33309 10.03247,0.83992 18.6205,1.2925 19.0845,1.00573 0.46401,-0.28677 0.84365,-3.20598 0.84365,-6.48714 0,-5.26506 -0.26426,-6.0668 -2.25,-6.82622 -5.05284,-1.9324 -5.68097,-3.85088 -11.3728,-34.7355 -4.29937,-23.328995 -5.41462,-31.396506 -5.10231,-36.909206 2.02319,-35.711855 50.54218,-45.089586 66.33009,-12.820253 4.51681,9.232019 4.33702,14.846095 -1.50116,46.875489 C 225.76707,106.29278 225,112.34209 225,122.75054 V 135 h 7.46162 c 7.42947,0 7.48051,-0.0184 11.84848,-4.26355 11.80583,-11.47395 31.05505,-14.43724 45.15812,-6.95178 4.78098,2.53759 5.93872,2.69674 23.2278,3.19302 l 18.19603,0.52231 3.30397,3.16086 3.30398,3.16085 14,-2.39932 c 7.7,-1.31963 14.3226,-2.40451 14.71688,-2.41086 0.39428,-0.006 0.84428,-24.30161 1,-53.989486 L 367.5,21.044087 370.27273,18.272044 373.04545,15.5 H 416 458.95455 l 2.77272,2.772727 2.77273,2.772728 V 123.91774 c 0,101.4657 -0.0274,102.90264 -2,105.09204 -2.96434,3.29004 -6.34702,4.29623 -9.73103,2.89452 C 446.79308,229.42901 447,232.54475 447,145.03521 V 64.971096 L 416.25,65.235548 385.5,65.5 385,246.83664 l -0.5,181.33664 -2.80576,2.41336 c -2.92026,2.51184 -4.81468,2.85123 -8.19424,1.468 z M 318.76877,167.75 319.03755,145 h -4.14378 c -4.02571,0 -4.12747,0.0815 -3.57181,2.85979 2.53606,12.68032 1.40374,23.34967 -3.38285,31.87506 -2.83987,5.0581 -3.70154,9.16939 -2.23015,10.64078 0.38993,0.38992 3.42743,0.57742 6.75,0.41666 L 318.5,190.5 Z m -29.45242,6.87498 c 7.51962,-8.79735 7.4634,-21.42659 -0.1329,-29.85206 -7.29403,-8.09021 -18.10772,-10.11603 -27.29812,-5.11399 -5.29211,2.88033 -6.18163,4.34392 -2.63533,4.33612 8.83931,-0.0194 20.16705,8.72306 23.2227,17.92274 1.75174,5.27401 1.72922,12.25294 -0.0535,16.5795 -0.81333,1.97391 -0.78842,1.97538 2.12892,0.12498 1.62353,-1.02976 3.76924,-2.82854 4.76823,-3.99729 z m 67.76057,1.45194 C 359.98339,173.17046 360,173.08556 360,161.13594 c 0,-6.60985 -0.34482,-12.23102 -0.76627,-12.49148 -0.6966,-0.43053 -7.32349,0.51904 -12.98373,1.86043 -2.16554,0.5132 -2.25,0.94832 -2.25,11.59109 0,10.88852 0.0448,11.10263 2.92308,13.98094 1.60769,1.6077 3.8923,2.92308 5.07692,2.92308 1.18462,0 3.46923,-1.31538 5.07692,-2.92308 z M 195.5,166.52047 c 5.64666,-0.99506 10.77732,-2.82334 17.44127,-6.21512 C 224.19809,154.57593 225.29076,153 218.00641,153 c -4.37011,0 -5.60784,-0.44759 -8.08333,-2.92308 C 208.31538,148.46923 207,146.50048 207,145.70192 207,144.14602 202.92845,143 197.40068,143 c -2.70583,0 -3.64569,0.57312 -4.89193,2.98307 -3.03513,5.8693 -5.01435,6.19267 -27.07544,4.42366 -22.51385,-1.80531 -25.70027,-1.28352 -31.33216,5.13085 -2.95355,3.36391 -5.51816,9.97866 -4.50464,11.61857 0.91623,1.48249 56.95057,0.942 65.90349,-0.63568 z m 11.31822,-41.13869 C 206.5409,121.99891 206.18045,121.5 204.0137,121.5 c -3.23676,0 -3.55877,2.14631 -0.95772,6.38351 2.54694,4.14904 4.21645,3.03889 3.76224,-2.50173 z M 209.63472,97 c 1.98258,-8.515291 2.56022,-8 -8.96805,-8 -5.68334,0 -10.5669,0.233558 -10.85236,0.519019 -0.46473,0.464738 0.7578,8.988256 1.76014,12.271681 0.28976,0.94919 2.56178,1.21378 8.58687,1 L 208.35418,102.5 Z M 417.92308,286.07692 415,283.15385 V 268 252.84615 l 2.92308,-2.92307 c 3.24217,-3.24218 5.81014,-3.62952 9.93189,-1.49808 C 432.16989,250.65633 433,253.81461 433,268 c 0,14.18539 -0.83011,17.34367 -5.14503,19.575 -4.12175,2.13144 -6.68972,1.7441 -9.93189,-1.49808 z m 0,-56 L 415,227.15385 V 156 84.846154 l 2.92308,-2.923077 C 419.53077,80.315385 421.80312,79 422.97274,79 c 3.33075,0 7.5226,2.596981 8.83257,5.472058 C 432.69463,86.423902 433,104.70667 433,156 c 0,51.29333 -0.30537,69.5761 -1.19469,71.52794 -1.30997,2.87508 -5.50182,5.47206 -8.83257,5.47206 -1.16962,0 -3.44197,-1.31538 -5.04966,-2.92308 z"
         id="path2819" />
      <path
         style="fill:#f6dd08"
         d="m 106.5,495.04926 c -4.252,-1.75176 -70.103714,-40.24802 -71.916667,-42.04178 -3.143206,-3.10992 -2.298939,-6.94144 3.980145,-18.063 7.327383,-12.97832 9.17549,-14.93531 14.141067,-14.97422 3.62148,-0.0284 3.966708,-0.33136 7.531527,-6.60998 l 3.736071,-6.58024 -1.986071,-2.52488 C 60.893732,402.86648 60,401.06695 60,400.25622 c 0,-0.81074 2.684286,-6.93756 5.96508,-13.61515 7.192744,-14.63981 9.606494,-23.00903 11.577007,-40.14107 3.301061,-28.7001 7.036472,-39.40903 23.893663,-68.5 7.54016,-13.01228 10.61901,-16.37081 14.4746,-15.78947 1.42431,0.21476 28.07959,15.12223 59.23397,33.12772 60.53623,34.98657 60.27394,34.80124 57.94007,40.93978 -1.76517,4.64276 -17.9699,31.8229 -23.09225,38.73258 -6.57849,8.87389 -19.53457,21.14823 -29.99214,28.41397 -9.51501,6.61086 -22.92129,19.54078 -27.98052,26.9863 -1.83531,2.70098 -10.38919,17.10098 -19.00861,32 -19.34444,33.43766 -17.93879,31.23525 -20.75403,32.51796 -2.70122,1.23075 -3.04433,1.23793 -5.75684,0.12042 z m 88.49677,-152.90625 c 9.57434,-2.67134 17.54354,-5.26395 17.70934,-5.76134 0.33814,-1.01442 -0.97271,-1.80217 -54.98125,-33.04093 -21.32632,-12.33524 -39.16367,-22.18758 -39.63855,-21.89408 -1.30628,0.80732 -11.53709,19.05153 -15.4511,27.55334 -3.098173,6.72969 -6.996205,18.97234 -6.271497,19.69705 0.155201,0.1552 5.874357,0.46697 12.709237,0.69283 15.28011,0.50493 20.64869,2.06191 34.15685,9.90607 16.2365,9.4285 26.21213,9.97714 51.76697,2.84706 z m 146.02294,152.5829 c -4.58191,-2.33747 -5.07853,-4.8214 -4.78847,-23.95065 0.25672,-16.93053 0.37079,-17.82668 2.5458,-20 L 341.05408,448.5 394.27704,448 447.5,447.5 l 0.5,-97.33676 0.5,-97.33676 2.80576,-2.41324 c 3.54158,-3.04611 5.84691,-3.04611 9.38848,0 l 2.80576,2.41325 0.26452,97.50954 0.26452,97.50955 13.46056,0.32721 C 496.40677,448.63264 495.5,447.43302 495.5,472 c 0,18.38032 -0.0678,19.01227 -2.27745,21.22222 l -2.27745,2.27778 -73.72255,0.24562 c -57.87424,0.19282 -74.25574,-0.0264 -76.20284,-1.01971 z M 479.5,472 v -7.5 H 416 352.5 l -0.30147,6.39467 c -0.16581,3.51707 -0.0661,7.00793 0.22148,7.75747 0.43527,1.1343 11.13242,1.31963 63.80147,1.10533 L 479.5,479.5 Z M 371.30576,429.58676 368.5,427.17353 368,316.83676 367.5,206.5 355,204.30316 c -16.84399,-2.96029 -18.56145,-2.92453 -21.46138,0.44684 l -2.36545,2.75 H 312.1223 c -21.08998,0 -21.42178,-0.0948 -23.73569,-6.78221 -0.61237,-1.76978 -1.73737,-3.13839 -2.5,-3.04134 -0.76264,0.0971 -4.19911,0.70763 -7.63661,1.35685 -4.62039,0.87263 -7.85242,0.89814 -12.39572,0.0978 l -6.14571,-1.08254 -11.33055,8.03792 -11.33054,8.03792 -3.11117,10.18778 c -1.71114,5.60327 -3.86088,10.96433 -4.77721,11.91346 -4.66084,4.82771 -13.16224,1.88863 -13.15604,-4.54827 0.003,-3.60279 6.44287,-25.30488 8.10137,-27.30325 0.59747,-0.71991 10.23072,-7.83987 21.40722,-15.82213 17.12926,-12.23373 20.42647,-14.99383 20.99301,-17.57326 1.30674,-5.94953 -4.92062,-11.47718 -10.21324,-9.0657 -5.56645,2.53625 -45.85371,32.07719 -47.43079,34.77899 -2.28985,3.92291 -21.03067,63.57289 -21.21211,67.51582 -0.14254,3.09772 0.11056,3.321 6.28655,5.54586 3.53929,1.27501 6.97934,2.10934 7.64456,1.85407 0.66522,-0.25527 2.21193,-3.47645 3.43712,-7.15817 2.6163,-7.86198 4.8521,-10.44965 9.0287,-10.44965 3.60007,0 7.95455,3.86739 7.95455,7.06476 0,1.18562 -1.6074,7.39357 -3.572,13.79546 C 214.74929,286.84771 212.05109,291 207.94021,291 c -2.92593,0 -35.0352,-11.77599 -37.02888,-13.58024 -0.9523,-0.86183 -1.98068,-2.55995 -2.28529,-3.77362 -0.33651,-1.34075 3.68357,-15.53674 10.24458,-36.1764 5.93913,-18.68336 10.58465,-34.57156 10.32338,-35.30712 -0.36039,-1.0146 -2.07023,-1.20003 -7.08452,-0.76828 -29.00143,2.49712 -36.03561,2.78723 -41.12368,1.69604 -11.27526,-2.41812 -20.78855,-10.12912 -25.80374,-20.91523 -2.19961,-4.73067 -2.63876,-7.08975 -2.63876,-14.17515 0,-7.0854 0.43915,-9.44448 2.63876,-14.17515 3.55356,-7.6426 9.77665,-14.14841 16.97369,-17.74482 8.03327,-4.01427 12.45851,-4.50251 28.28862,-3.12113 7.42407,0.64785 16.88821,1.1912 21.03144,1.20745 6.85589,0.0269 7.71252,0.25762 9.52866,2.56646 1.09754,1.3953 1.99553,3.30967 1.99553,4.25417 0,2.78229 -4.2955,8.3222 -7,9.0279 -1.375,0.35878 -9.925,0.0355 -19,-0.71834 -9.075,-0.75386 -18.62644,-1.19611 -21.22542,-0.98276 -6.9549,0.57093 -12.35994,4.53884 -15.48699,11.36921 -2.31181,5.04966 -2.42587,5.90177 -1.29533,9.67712 2.38666,7.97013 3.27996,9.67172 6.61439,12.59938 5.34425,4.69232 9.39334,5.44228 22.50587,4.16851 6.26312,-0.60841 17.46248,-1.39452 24.88748,-1.7469 11.4006,-0.54106 13.83305,-0.94281 15.64164,-2.58341 1.1779,-1.0685 8.8279,-6.75427 17,-12.63506 12.26304,-8.8247 14.85836,-11.12471 14.85836,-13.16766 0,-2.78465 -2.44104,-3.66881 -10.70295,-3.87666 C 209.08894,151.84892 207.5,149.37859 207.5,133 v -12.5 l -10.52584,0.35708 c -11.68308,0.39634 -16.70994,-0.91378 -19.27509,-5.02355 -0.80106,-1.28344 -3.80634,-15.38353 -6.67839,-31.33353 -6.01817,-33.422068 -6.2658,-40.282912 -1.76859,-49 3.46432,-6.715002 9.96521,-12.807306 17.24791,-16.16388 12.26689,-5.653767 27.18214,-2.871353 37.33419,6.96463 6.45555,6.254577 9.4055,12.699491 9.93211,21.69925 0.35297,6.03224 -0.56605,13.014567 -4.69607,35.678494 -4.61026,25.299286 -5.10609,29.386386 -4.85258,39.999996 L 224.5,135.5 l 8,0.26686 8,0.26686 4.42317,-4.52803 c 11.56785,-11.84212 29.69954,-14.4469 45.57683,-6.54752 5.8756,2.92327 6.35948,2.99093 23.33884,3.2635 l 17.33883,0.27833 2.3632,2.75 c 2.89725,3.37146 4.61462,3.40722 21.45913,0.44684 L 367.5,129.5 368,75.277063 368.5,21.054127 370.77778,18.777063 373.05556,16.5 H 416 458.94444 l 2.27778,2.277778 2.27778,2.277778 V 124 c 0,101.62287 -0.0257,102.96967 -2,104.90917 -3.37795,3.31838 -6.82619,3.57445 -10.10927,0.75075 L 448.5,227.17366 448,145.83683 447.5,64.5 H 416 384.5 l -0.5,181.83841 -0.5,181.8384 -2.36078,1.9116 c -3.17815,2.57343 -6.45239,2.4064 -9.83346,-0.50165 z M 319.5,168 v -23.5 l -4.87251,-0.30979 -4.87251,-0.3098 0.87251,4.8098 c 0.47988,2.64538 0.84737,8.44354 0.81665,12.88478 -0.0496,7.17653 -0.46689,8.94049 -3.75,15.85379 -3.49508,7.35964 -4.56748,12.36455 -2.98783,13.9442 0.38847,0.38847 3.87597,0.57597 7.75,0.41667 L 319.5,191.5 Z m 47,-0.0833 v -20.41667 l -3.5,-0.147 c -5.58618,-0.23462 -17.04724,1.73832 -21.71084,3.73738 L 337,152.92893 v 14.97652 c 0,10.84045 0.34255,15.18822 1.24036,15.7431 1.4027,0.86692 25.71829,5.24095 27.25964,4.90363 0.62687,-0.13719 1,-7.83697 1,-20.63551 z m -78.62243,9.57497 c 5.53333,-4.99903 8.50058,-12.38466 7.85151,-19.54277 -0.59004,-6.50703 -2.40331,-10.46926 -6.806,-14.87195 -6.89551,-6.8955 -16.94112,-8.93192 -25.46377,-5.16195 -8.13671,3.59923 -10.87914,7.085 -5.57414,7.085 5.66546,0 13.4906,3.33487 17.70864,7.54696 6.65127,6.64188 8.91913,15.91346 5.95055,24.32731 -1.38403,3.92275 -1.35957,4.12573 0.49712,4.12573 1.07402,0 3.70026,-1.57876 5.83609,-3.50836 z M 208.71234,102.75 c 1.36026,-1.77631 3.54804,-12.519671 2.79698,-13.734915 -0.72274,-1.169431 -22.14635,-1.417999 -22.84722,-0.265085 -0.68191,1.121737 1.4268,12.55967 2.58106,14 0.64626,0.80643 3.75368,1.25 8.75684,1.25 5.0269,0 8.09186,-0.43974 8.71234,-1.25 z M 446.5,36 V 33.5 L 421.75,33.23253 C 405.22968,33.053998 397,33.30827 397,33.997229 c 0,0.567692 1.4625,1.928763 3.25,3.024602 3.01937,1.851043 4.77572,1.974186 24.75,1.735301 L 446.5,38.5 Z M 418.45455,285.54545 C 416.06535,283.15626 416,282.68911 416,268 c 0,-14.68911 0.0654,-15.15626 2.45455,-17.54545 3.30245,-3.30246 7.01515,-3.1387 10.62237,0.46853 L 432,253.84615 V 268 282.15385 l -2.92308,2.92307 c -3.60722,3.60723 -7.31992,3.77099 -10.62237,0.46853 z m 0,-56 L 416,227.09091 V 156 84.909091 l 2.45455,-2.454546 c 3.30245,-3.302451 7.01515,-3.138691 10.62237,0.468532 L 432,85.846154 V 156 226.15385 l -2.92308,2.92307 c -3.60722,3.60723 -7.31992,3.77099 -10.62237,0.46853 z"
         id="path2817" />
      <path
         style="fill:#f6b804"
         d="m 106.5,495.04926 c -4.252,-1.75176 -70.103714,-40.24802 -71.916667,-42.04178 -3.143206,-3.10992 -2.298939,-6.94144 3.980145,-18.063 C 45.991542,421.78783 47.710412,420 52.931492,420 c 3.206228,0 4.360818,-0.51649 5.690239,-2.54544 0.917311,-1.39999 2.165185,-2.41249 2.773053,-2.25 0.607869,0.16249 5.937051,2.91487 11.842626,6.11639 8.078447,4.37948 12.102523,5.96185 16.25,6.38991 L 95,428.27981 v -4.18536 C 95,418.33504 98.325958,415 104.06968,415 c 3.47476,0 4.68711,0.57484 7.35486,3.48734 l 3.19428,3.48735 3.55888,-3.73735 c 1.95737,-2.05554 5.8163,-7.11234 8.57538,-11.23734 2.75908,-4.125 6.40888,-9.23746 8.11066,-11.36101 2.84717,-3.55282 2.9761,-4.02956 1.61521,-5.97251 C 135.66553,388.50516 135,385.83466 135,383.73204 c 0,-7.47272 7.94972,-11.23767 14.97091,-7.09015 2.75908,1.62983 2.8392,1.59915 10.9043,-4.17511 C 165.34384,369.26743 169,366.33483 169,365.94989 169,365.1559 163.91766,364 160.42662,364 c -4.66506,0 -18.13779,-5.08449 -26.38853,-9.9588 -10.14661,-5.99434 -20.08923,-8.60578 -29.44042,-7.73255 -3.36728,0.31444 -6.908157,0.87326 -7.868626,1.24183 -1.865571,0.71589 -1.942968,0.97341 -3.741672,12.44952 -2.406605,15.35465 -13.242726,41.51275 -19.312685,46.62028 -4.288403,3.60845 -7.8715,3.14622 -11.038686,-1.42403 C 61.1862,403.10419 60,400.80517 60,400.08732 c 0,-0.71784 2.684286,-6.76866 5.96508,-13.44625 7.192744,-14.63981 9.606494,-23.00903 11.577007,-40.14107 3.301061,-28.7001 7.036472,-39.40903 23.893663,-68.5 7.54016,-13.01228 10.61901,-16.37081 14.4746,-15.78947 1.42431,0.21476 28.07959,15.12223 59.23397,33.12772 60.53623,34.98657 60.27394,34.80124 57.94007,40.93978 -1.76517,4.64276 -17.9699,31.8229 -23.09225,38.73258 -6.57849,8.87389 -19.53457,21.14823 -29.99214,28.41397 -9.51501,6.61086 -22.92129,19.54078 -27.98052,26.9863 -1.83531,2.70098 -10.38919,17.10098 -19.00861,32 -19.34444,33.43766 -17.93879,31.23525 -20.75403,32.51796 -2.70122,1.23075 -3.04433,1.23793 -5.75684,0.12042 z m 88.49677,-152.90625 c 9.57434,-2.67134 17.54354,-5.26395 17.70934,-5.76134 0.33814,-1.01442 -0.97271,-1.80217 -54.98125,-33.04093 -21.32632,-12.33524 -39.16367,-22.18758 -39.63855,-21.89408 -1.30628,0.80732 -11.53709,19.05153 -15.4511,27.55334 -3.098173,6.72969 -6.996205,18.97234 -6.271497,19.69705 0.155201,0.1552 5.874357,0.46697 12.709237,0.69283 15.28011,0.50493 20.64869,2.06191 34.15685,9.90607 16.2365,9.4285 26.21213,9.97714 51.76697,2.84706 z m 146.02294,152.5829 c -4.58191,-2.33747 -5.07853,-4.8214 -4.78847,-23.95065 0.25672,-16.93053 0.37079,-17.82668 2.5458,-20 L 341.05408,448.5 394.27704,448 447.5,447.5 l 0.5,-97.33676 0.5,-97.33676 2.80576,-2.41324 c 3.54158,-3.04611 5.84691,-3.04611 9.38848,0 l 2.80576,2.41325 0.26452,97.50954 0.26452,97.50955 13.46056,0.32721 C 496.40677,448.63264 495.5,447.43302 495.5,472 c 0,18.38032 -0.0678,19.01227 -2.27745,21.22222 l -2.27745,2.27778 -73.72255,0.24562 c -57.87424,0.19282 -74.25574,-0.0264 -76.20284,-1.01971 z M 479.5,472 v -7.5 H 416 352.5 l -0.30147,6.39467 c -0.16581,3.51707 -0.0661,7.00793 0.22148,7.75747 0.43527,1.1343 11.13242,1.31963 63.80147,1.10533 L 479.5,479.5 Z M 371.30576,429.58676 368.5,427.17353 368,316.83676 367.5,206.5 355,204.30316 c -16.84399,-2.96029 -18.56145,-2.92453 -21.46138,0.44684 l -2.36545,2.75 H 312.1223 c -21.08998,0 -21.42178,-0.0948 -23.73569,-6.78221 -0.61237,-1.76978 -1.73737,-3.13839 -2.5,-3.04134 -0.76264,0.0971 -4.19911,0.70763 -7.63661,1.35685 -4.62039,0.87263 -7.85242,0.89814 -12.39572,0.0978 l -6.14571,-1.08254 -11.33055,8.03792 -11.33054,8.03792 -3.11117,10.18778 c -1.71114,5.60327 -3.86088,10.96433 -4.77721,11.91346 -4.66084,4.82771 -13.16224,1.88863 -13.15604,-4.54827 0.003,-3.60279 6.44287,-25.30488 8.10137,-27.30325 0.59747,-0.71991 10.23072,-7.83987 21.40722,-15.82213 17.12926,-12.23373 20.42647,-14.99383 20.99301,-17.57326 1.30674,-5.94953 -4.92062,-11.47718 -10.21324,-9.0657 -5.56645,2.53625 -45.85371,32.07719 -47.43079,34.77899 -2.28985,3.92291 -21.03067,63.57289 -21.21211,67.51582 -0.14254,3.09772 0.11056,3.321 6.28655,5.54586 3.53929,1.27501 6.97934,2.10934 7.64456,1.85407 0.66522,-0.25527 2.21193,-3.47645 3.43712,-7.15817 2.6163,-7.86198 4.8521,-10.44965 9.0287,-10.44965 3.60007,0 7.95455,3.86739 7.95455,7.06476 0,1.18562 -1.6074,7.39357 -3.572,13.79546 C 214.74929,286.84771 212.05109,291 207.94021,291 c -2.92593,0 -35.0352,-11.77599 -37.02888,-13.58024 -0.9523,-0.86183 -1.98068,-2.55995 -2.28529,-3.77362 -0.33651,-1.34075 3.68357,-15.53674 10.24458,-36.1764 5.93913,-18.68336 10.58465,-34.57156 10.32338,-35.30712 -0.36039,-1.0146 -2.07023,-1.20003 -7.08452,-0.76828 -29.00143,2.49712 -36.03561,2.78723 -41.12368,1.69604 -11.27526,-2.41812 -20.78855,-10.12912 -25.80374,-20.91523 -2.19961,-4.73067 -2.63876,-7.08975 -2.63876,-14.17515 0,-7.0854 0.43915,-9.44448 2.63876,-14.17515 3.55356,-7.6426 9.77665,-14.14841 16.97369,-17.74482 8.03327,-4.01427 12.45851,-4.50251 28.28862,-3.12113 7.42407,0.64785 16.88821,1.1912 21.03144,1.20745 6.85589,0.0269 7.71252,0.25762 9.52866,2.56646 1.09754,1.3953 1.99553,3.30967 1.99553,4.25417 0,2.78229 -4.2955,8.3222 -7,9.0279 -1.375,0.35878 -9.925,0.0355 -19,-0.71834 -9.075,-0.75386 -18.62644,-1.19611 -21.22542,-0.98276 -6.9549,0.57093 -12.35994,4.53884 -15.48699,11.36921 -2.31181,5.04966 -2.42587,5.90177 -1.29533,9.67712 2.38666,7.97013 3.27996,9.67172 6.61439,12.59938 5.34425,4.69232 9.39334,5.44228 22.50587,4.16851 6.26312,-0.60841 17.46248,-1.39452 24.88748,-1.7469 11.4006,-0.54106 13.83305,-0.94281 15.64164,-2.58341 1.1779,-1.0685 8.8279,-6.75427 17,-12.63506 12.26304,-8.8247 14.85836,-11.12471 14.85836,-13.16766 0,-2.78465 -2.44104,-3.66881 -10.70295,-3.87666 C 209.08894,151.84892 207.5,149.37859 207.5,133 v -12.5 l -10.52584,0.35708 c -11.68308,0.39634 -16.70994,-0.91378 -19.27509,-5.02355 -0.80106,-1.28344 -3.80634,-15.38353 -6.67839,-31.33353 -6.01817,-33.422068 -6.2658,-40.282912 -1.76859,-49 3.46432,-6.715002 9.96521,-12.807306 17.24791,-16.16388 12.26689,-5.653767 27.18214,-2.871353 37.33419,6.96463 6.45555,6.254577 9.4055,12.699491 9.93211,21.69925 0.35297,6.03224 -0.56605,13.014567 -4.69607,35.678494 -4.61026,25.299286 -5.10609,29.386386 -4.85258,39.999996 L 224.5,135.5 l 8,0.26686 8,0.26686 4.42317,-4.52803 c 11.56785,-11.84212 29.69954,-14.4469 45.57683,-6.54752 5.8756,2.92327 6.35948,2.99093 23.33884,3.2635 l 17.33883,0.27833 2.3632,2.75 c 2.89725,3.37146 4.61462,3.40722 21.45913,0.44684 L 367.5,129.5 368,75.277063 368.5,21.054127 370.77778,18.777063 373.05556,16.5 H 416 458.94444 l 2.27778,2.277778 2.27778,2.277778 V 124 c 0,101.62287 -0.0257,102.96967 -2,104.90917 -3.37795,3.31838 -6.82619,3.57445 -10.10927,0.75075 L 448.5,227.17366 448,145.83683 447.5,64.5 H 416 384.5 l -0.5,181.83841 -0.5,181.8384 -2.36078,1.9116 c -3.17815,2.57343 -6.45239,2.4064 -9.83346,-0.50165 z M 319.5,168 v -23.5 l -4.87251,-0.30979 -4.87251,-0.3098 0.87251,4.8098 c 0.47988,2.64538 0.84737,8.44354 0.81665,12.88478 -0.0496,7.17653 -0.46689,8.94049 -3.75,15.85379 -3.49508,7.35964 -4.56748,12.36455 -2.98783,13.9442 0.38847,0.38847 3.87597,0.57597 7.75,0.41667 L 319.5,191.5 Z m 47,-0.0833 v -20.41667 l -3.5,-0.147 c -5.58618,-0.23462 -17.04724,1.73832 -21.71084,3.73738 L 337,152.92893 v 14.97652 c 0,10.84045 0.34255,15.18822 1.24036,15.7431 1.4027,0.86692 25.71829,5.24095 27.25964,4.90363 0.62687,-0.13719 1,-7.83697 1,-20.63551 z m -78.62243,9.57497 c 5.53333,-4.99903 8.50058,-12.38466 7.85151,-19.54277 -0.59004,-6.50703 -2.40331,-10.46926 -6.806,-14.87195 -6.89551,-6.8955 -16.94112,-8.93192 -25.46377,-5.16195 -8.13671,3.59923 -10.87914,7.085 -5.57414,7.085 5.66546,0 13.4906,3.33487 17.70864,7.54696 6.65127,6.64188 8.91913,15.91346 5.95055,24.32731 -1.38403,3.92275 -1.35957,4.12573 0.49712,4.12573 1.07402,0 3.70026,-1.57876 5.83609,-3.50836 z M 208.71234,102.75 c 1.36026,-1.77631 3.54804,-12.519671 2.79698,-13.734915 -0.72274,-1.169431 -22.14635,-1.417999 -22.84722,-0.265085 -0.68191,1.121737 1.4268,12.55967 2.58106,14 0.64626,0.80643 3.75368,1.25 8.75684,1.25 5.0269,0 8.09186,-0.43974 8.71234,-1.25 z M 446.5,36 V 33.5 L 421.75,33.23253 C 405.22968,33.053998 397,33.30827 397,33.997229 c 0,0.567692 1.4625,1.928763 3.25,3.024602 3.01937,1.851043 4.77572,1.974186 24.75,1.735301 L 446.5,38.5 Z M 105.45455,390.54545 C 103.64848,388.73939 103,387.0101 103,384 c 0,-5.62914 3.37086,-9 9,-9 5.54876,0 9,3.38152 9,8.81818 0,8.17907 -9.8368,12.43593 -15.54545,6.72727 z m 313,-105 C 416.06535,283.15626 416,282.68911 416,268 c 0,-14.68911 0.0654,-15.15626 2.45455,-17.54545 3.30245,-3.30246 7.01515,-3.1387 10.62237,0.46853 L 432,253.84615 V 268 282.15385 l -2.92308,2.92307 c -3.60722,3.60723 -7.31992,3.77099 -10.62237,0.46853 z m 0,-56 L 416,227.09091 V 156 84.909091 l 2.45455,-2.454546 c 3.30245,-3.302451 7.01515,-3.138691 10.62237,0.468532 L 432,85.846154 V 156 226.15385 l -2.92308,2.92307 c -3.60722,3.60723 -7.31992,3.77099 -10.62237,0.46853 z"
         id="path2815" />
      <path
         style="fill:#6d6f72"
         d="m 106.5,495.04926 c -4.252,-1.75176 -70.103714,-40.24802 -71.916667,-42.04178 -1.054166,-1.043 -1.916666,-3.18385 -1.916666,-4.75745 0,-3.10725 10.333168,-22.27277 14.018023,-26.00003 3.201172,-3.23801 8.536646,-3.05537 11.24273,0.38486 2.91202,3.70203 2.643565,5.47541 -2.174794,14.36636 -2.336056,4.31055 -4.023556,8.05713 -3.75,8.32573 C 53.161615,446.46493 104.97778,476 105.81527,476 c 0.50611,0 7.33627,-11.1375 15.17813,-24.75 7.84186,-13.6125 16.77072,-28.125 19.8419,-32.25 6.73955,-9.05209 16.72209,-18.96424 25.20474,-25.02702 16.96818,-12.12761 27.44013,-22.20664 34.25454,-32.96925 2.43229,-3.84154 1.92101,-3.8594 -11.61336,-0.40565 -8.92076,2.27644 -11.60495,2.53927 -21.68122,2.123 -13.46186,-0.55614 -19.19348,-2.29217 -32.06936,-9.71334 -4.71314,-2.71648 -11.22019,-5.62951 -14.4601,-6.4734 -6.93021,-1.80509 -18.53343,-1.91797 -23.425132,-0.2279 -3.393317,1.17239 -3.475345,1.33546 -4.624667,9.19356 -1.582315,10.81854 -3.928394,19.39025 -8.012472,29.27461 C 77.909428,400.50323 72.544752,408 67.788218,408 65.402024,408 60,402.77569 60,400.468 c 0,-0.92722 2.684286,-7.14934 5.96508,-13.82693 7.192744,-14.63981 9.606494,-23.00903 11.577007,-40.14107 3.301061,-28.7001 7.036472,-39.40903 23.893663,-68.5 7.54016,-13.01228 10.61901,-16.37081 14.4746,-15.78947 1.42431,0.21476 28.07959,15.12223 59.23397,33.12772 60.53623,34.98657 60.27394,34.80124 57.94007,40.93978 -1.76517,4.64276 -17.9699,31.8229 -23.09225,38.73258 -6.57849,8.87389 -19.53457,21.14823 -29.99214,28.41397 -9.51501,6.61086 -22.92129,19.54078 -27.98052,26.9863 -1.83531,2.70098 -10.38919,17.10098 -19.00861,32 -19.34444,33.43766 -17.93879,31.23525 -20.75403,32.51796 -2.70122,1.23075 -3.04433,1.23793 -5.75684,0.12042 z m 88.49677,-152.90625 c 9.57434,-2.67134 17.54354,-5.26395 17.70934,-5.76134 0.33814,-1.01442 -0.97271,-1.80217 -54.98125,-33.04093 -21.32632,-12.33524 -39.16367,-22.18758 -39.63855,-21.89408 -1.30628,0.80732 -11.53709,19.05153 -15.4511,27.55334 -3.098173,6.72969 -6.996205,18.97234 -6.271497,19.69705 0.155201,0.1552 5.874357,0.46697 12.709237,0.69283 15.28011,0.50493 20.64869,2.06191 34.15685,9.90607 16.2365,9.4285 26.21213,9.97714 51.76697,2.84706 z m 146.02294,152.5829 c -4.58191,-2.33747 -5.07853,-4.8214 -4.78847,-23.95065 0.25672,-16.93053 0.37079,-17.82668 2.5458,-20 L 341.05408,448.5 394.27704,448 447.5,447.5 l 0.5,-97.33676 0.5,-97.33676 2.80576,-2.41324 c 3.54158,-3.04611 5.84691,-3.04611 9.38848,0 l 2.80576,2.41325 0.26452,97.50954 0.26452,97.50955 13.46056,0.32721 C 496.40677,448.63264 495.5,447.43302 495.5,472 c 0,18.38032 -0.0678,19.01227 -2.27745,21.22222 l -2.27745,2.27778 -73.72255,0.24562 c -57.87424,0.19282 -74.25574,-0.0264 -76.20284,-1.01971 z M 479.5,472 v -7.5 H 416 352.5 l -0.30147,6.39467 c -0.16581,3.51707 -0.0661,7.00793 0.22148,7.75747 0.43527,1.1343 11.13242,1.31963 63.80147,1.10533 L 479.5,479.5 Z M 98.454545,429.54545 C 93.494353,424.58526 97.009125,416 104,416 c 4.1111,0 8,3.8889 8,8 0,4.1111 -3.8889,8 -8,8 -1.94837,0 -3.99822,-0.90731 -5.545455,-2.45455 z M 371.30576,429.58676 368.5,427.17353 368,316.83676 367.5,206.5 355,204.30316 c -16.84399,-2.96029 -18.56145,-2.92453 -21.46138,0.44684 l -2.36545,2.75 H 312.1223 c -21.08998,0 -21.42178,-0.0948 -23.73569,-6.78221 -0.61237,-1.76978 -1.73737,-3.13839 -2.5,-3.04134 -0.76264,0.0971 -4.19911,0.70763 -7.63661,1.35685 -4.62039,0.87263 -7.85242,0.89814 -12.39572,0.0978 l -6.14571,-1.08254 -11.33055,8.03792 -11.33054,8.03792 -3.11117,10.18778 c -1.71114,5.60327 -3.86088,10.96433 -4.77721,11.91346 -4.66084,4.82771 -13.16224,1.88863 -13.15604,-4.54827 0.003,-3.60279 6.44287,-25.30488 8.10137,-27.30325 0.59747,-0.71991 10.23072,-7.83987 21.40722,-15.82213 17.12926,-12.23373 20.42647,-14.99383 20.99301,-17.57326 1.30674,-5.94953 -4.92062,-11.47718 -10.21324,-9.0657 -5.56645,2.53625 -45.85371,32.07719 -47.43079,34.77899 -2.28985,3.92291 -21.03067,63.57289 -21.21211,67.51582 -0.14254,3.09772 0.11056,3.321 6.28655,5.54586 3.53929,1.27501 6.97934,2.10934 7.64456,1.85407 0.66522,-0.25527 2.21193,-3.47645 3.43712,-7.15817 2.6163,-7.86198 4.8521,-10.44965 9.0287,-10.44965 3.60007,0 7.95455,3.86739 7.95455,7.06476 0,1.18562 -1.6074,7.39357 -3.572,13.79546 C 214.74929,286.84771 212.05109,291 207.94021,291 c -2.92593,0 -35.0352,-11.77599 -37.02888,-13.58024 -0.9523,-0.86183 -1.98068,-2.55995 -2.28529,-3.77362 -0.33651,-1.34075 3.68357,-15.53674 10.24458,-36.1764 5.93913,-18.68336 10.58465,-34.57156 10.32338,-35.30712 -0.36039,-1.0146 -2.07023,-1.20003 -7.08452,-0.76828 -29.00143,2.49712 -36.03561,2.78723 -41.12368,1.69604 -11.27526,-2.41812 -20.78855,-10.12912 -25.80374,-20.91523 -2.19961,-4.73067 -2.63876,-7.08975 -2.63876,-14.17515 0,-7.0854 0.43915,-9.44448 2.63876,-14.17515 3.55356,-7.6426 9.77665,-14.14841 16.97369,-17.74482 8.03327,-4.01427 12.45851,-4.50251 28.28862,-3.12113 7.42407,0.64785 16.88821,1.1912 21.03144,1.20745 6.85589,0.0269 7.71252,0.25762 9.52866,2.56646 1.09754,1.3953 1.99553,3.30967 1.99553,4.25417 0,2.78229 -4.2955,8.3222 -7,9.0279 -1.375,0.35878 -9.925,0.0355 -19,-0.71834 -9.075,-0.75386 -18.62644,-1.19611 -21.22542,-0.98276 -6.9549,0.57093 -12.35994,4.53884 -15.48699,11.36921 -2.31181,5.04966 -2.42587,5.90177 -1.29533,9.67712 2.38666,7.97013 3.27996,9.67172 6.61439,12.59938 5.34425,4.69232 9.39334,5.44228 22.50587,4.16851 6.26312,-0.60841 17.46248,-1.39452 24.88748,-1.7469 11.4006,-0.54106 13.83305,-0.94281 15.64164,-2.58341 1.1779,-1.0685 8.8279,-6.75427 17,-12.63506 12.26304,-8.8247 14.85836,-11.12471 14.85836,-13.16766 0,-2.78465 -2.44104,-3.66881 -10.70295,-3.87666 C 209.08894,151.84892 207.5,149.37859 207.5,133 v -12.5 l -10.52584,0.35708 c -11.68308,0.39634 -16.70994,-0.91378 -19.27509,-5.02355 -0.80106,-1.28344 -3.80634,-15.38353 -6.67839,-31.33353 -6.01817,-33.422068 -6.2658,-40.282912 -1.76859,-49 3.46432,-6.715002 9.96521,-12.807306 17.24791,-16.16388 12.26689,-5.653767 27.18214,-2.871353 37.33419,6.96463 6.45555,6.254577 9.4055,12.699491 9.93211,21.69925 0.35297,6.03224 -0.56605,13.014567 -4.69607,35.678494 -4.61026,25.299286 -5.10609,29.386386 -4.85258,39.999996 L 224.5,135.5 l 8,0.26686 8,0.26686 4.42317,-4.52803 c 11.56785,-11.84212 29.69954,-14.4469 45.57683,-6.54752 5.8756,2.92327 6.35948,2.99093 23.33884,3.2635 l 17.33883,0.27833 2.3632,2.75 c 2.89725,3.37146 4.61462,3.40722 21.45913,0.44684 L 367.5,129.5 368,75.277063 368.5,21.054127 370.77778,18.777063 373.05556,16.5 H 416 458.94444 l 2.27778,2.277778 2.27778,2.277778 V 124 c 0,101.62287 -0.0257,102.96967 -2,104.90917 -3.37795,3.31838 -6.82619,3.57445 -10.10927,0.75075 L 448.5,227.17366 448,145.83683 447.5,64.5 H 416 384.5 l -0.5,181.83841 -0.5,181.8384 -2.36078,1.9116 c -3.17815,2.57343 -6.45239,2.4064 -9.83346,-0.50165 z M 319.5,168 v -23.5 l -4.87251,-0.30979 -4.87251,-0.3098 0.87251,4.8098 c 0.47988,2.64538 0.84737,8.44354 0.81665,12.88478 -0.0496,7.17653 -0.46689,8.94049 -3.75,15.85379 -3.49508,7.35964 -4.56748,12.36455 -2.98783,13.9442 0.38847,0.38847 3.87597,0.57597 7.75,0.41667 L 319.5,191.5 Z m 47,-0.0833 v -20.41667 l -3.5,-0.147 c -5.58618,-0.23462 -17.04724,1.73832 -21.71084,3.73738 L 337,152.92893 v 14.97652 c 0,10.84045 0.34255,15.18822 1.24036,15.7431 1.4027,0.86692 25.71829,5.24095 27.25964,4.90363 0.62687,-0.13719 1,-7.83697 1,-20.63551 z m -78.62243,9.57497 c 5.53333,-4.99903 8.50058,-12.38466 7.85151,-19.54277 -0.59004,-6.50703 -2.40331,-10.46926 -6.806,-14.87195 -6.89551,-6.8955 -16.94112,-8.93192 -25.46377,-5.16195 -8.13671,3.59923 -10.87914,7.085 -5.57414,7.085 5.66546,0 13.4906,3.33487 17.70864,7.54696 6.65127,6.64188 8.91913,15.91346 5.95055,24.32731 -1.38403,3.92275 -1.35957,4.12573 0.49712,4.12573 1.07402,0 3.70026,-1.57876 5.83609,-3.50836 z M 208.71234,102.75 c 1.36026,-1.77631 3.54804,-12.519671 2.79698,-13.734915 -0.72274,-1.169431 -22.14635,-1.417999 -22.84722,-0.265085 -0.68191,1.121737 1.4268,12.55967 2.58106,14 0.64626,0.80643 3.75368,1.25 8.75684,1.25 5.0269,0 8.09186,-0.43974 8.71234,-1.25 z M 446.5,36 V 33.5 L 421.75,33.23253 C 405.22968,33.053998 397,33.30827 397,33.997229 c 0,0.567692 1.4625,1.928763 3.25,3.024602 3.01937,1.851043 4.77572,1.974186 24.75,1.735301 L 446.5,38.5 Z M 106.45455,389.54545 C 101.49435,384.58526 105.00913,376 112,376 c 4.1111,0 8,3.8889 8,8 0,4.1111 -3.8889,8 -8,8 -1.94837,0 -3.99822,-0.90731 -5.54545,-2.45455 z m 32,0 C 133.49435,384.58526 137.00913,376 144,376 c 4.1111,0 8,3.8889 8,8 0,4.1111 -3.8889,8 -8,8 -1.94837,0 -3.99822,-0.90731 -5.54545,-2.45455 z m 280,-104 C 416.06535,283.15626 416,282.68911 416,268 c 0,-14.68911 0.0654,-15.15626 2.45455,-17.54545 3.30245,-3.30246 7.01515,-3.1387 10.62237,0.46853 L 432,253.84615 V 268 282.15385 l -2.92308,2.92307 c -3.60722,3.60723 -7.31992,3.77099 -10.62237,0.46853 z m 0,-56 L 416,227.09091 V 156 84.909091 l 2.45455,-2.454546 c 3.30245,-3.302451 7.01515,-3.138691 10.62237,0.468532 L 432,85.846154 V 156 226.15385 l -2.92308,2.92307 c -3.60722,3.60723 -7.31992,3.77099 -10.62237,0.46853 z"
         id="path2813" />
      <path
         style="fill:#48494a"
         d="M 72.49223,474.90906 C 53.246504,463.85905 36.4875,453.70895 35.25,452.3533 34.0125,450.99764 33,449.13846 33,448.22179 33,446.44121 44.238284,425.67783 46.786735,422.75 c 1.554225,-1.7856 7.691783,-2.40144 9.813561,-0.98469 2.006702,1.33991 3.520193,5.2797 2.845207,7.4064 -0.365913,1.15288 -2.190843,4.69911 -4.055399,7.88049 C 53.525547,440.23358 52,443.49983 52,444.31053 c 0,1.74716 51.60664,31.91207 53.85419,31.47864 0.82473,-0.15904 8.05742,-11.56855 16.07266,-25.35445 8.01523,-13.7859 16.11068,-27.25103 17.98988,-29.92251 6.24073,-8.87183 17.43078,-19.65992 30.58327,-29.48468 13.01644,-9.72313 22.62717,-18.99167 28.41354,-27.40187 2.789,-4.05367 3.81926,-6.62566 2.65404,-6.62566 -0.23783,0 -5.66824,1.35 -12.06758,3 -21.57812,5.56369 -36.39752,3.43455 -55.5,-7.97379 -3.575,-2.13505 -9.2,-4.66724 -12.5,-5.62709 -7.32178,-2.12962 -20.86945,-2.29119 -25.017317,-0.29835 -2.722462,1.308 -3.048636,2.1164 -5.002905,12.39923 -2.593005,13.64369 -5.438575,22.37193 -11.131486,34.14372 C 75.054574,403.59006 72.174324,407 68.222063,407 64.8867,407 61,403.39268 61,400.29706 c 0,-1.14072 2.466385,-6.96172 5.480855,-12.93555 6.906476,-13.68669 10.19135,-25.19854 12.084971,-42.3518 2.810122,-25.45536 7.00284,-37.87916 21.049238,-62.37286 C 109.57617,265.26697 111.34948,263 114.97571,263 c 2.8326,0 114.57402,63.87115 116.77429,66.74793 0.6875,0.89888 1.25,2.58473 1.25,3.74633 0,2.23183 -13.57947,26.53413 -20.96109,37.5127 -5.89955,8.77432 -21.67245,24.32209 -31.93909,31.48322 -11.03507,7.69712 -19.86574,16.05588 -26.88994,25.45295 -3.14043,4.20132 -13.10835,20.52477 -22.15092,36.27435 C 115.2282,491.79011 112.89619,495 108.69518,495 c -0.6659,0 -16.957223,-9.04092 -36.20295,-20.09094 z M 193,343.72377 c 6.875,-1.96244 14.4125,-4.07046 16.75,-4.68447 8.33935,-2.19058 11.47872,0.0219 -51.9131,-36.58612 -20.16471,-11.64488 -37.33493,-21.43031 -38.15604,-21.74541 -2.07786,-0.79734 -3.49651,1.09525 -11.02187,14.70409 -6.52827,11.8057 -12.274265,25.7703 -12.856666,31.24581 L 95.5,329.5 l 13,0.59917 c 15.24588,0.70269 21.56792,2.5266 34.5,9.95331 11.1876,6.42487 17.16939,8.01654 28.5,7.58341 6.5178,-0.24915 12.4475,-1.32811 21.5,-3.91212 z M 339.45455,492.54545 C 337.02939,490.1203 337,489.8743 337,472 c 0,-17.8743 0.0294,-18.1203 2.45455,-20.54545 L 341.90909,449 h 52.34546 c 39.37979,0 52.64268,-0.29723 53.54545,-1.2 0.91673,-0.91673 1.2,-23.94343 1.2,-97.54545 v -96.34546 l 2.45455,-2.45454 c 2.94975,-2.94976 5.51421,-3.11012 8.68467,-0.54307 l 2.36078,1.91148 0.5,97.83852 0.5,97.83852 13.84162,0.5 C 495.94336,449.67195 495,448.43488 495,472.15624 c 0,17.70841 -0.031,17.96563 -2.45455,20.38921 L 490.09091,495 H 416 341.90909 Z M 479.8,479.8 c 0.69091,-0.69091 1.2,-4 1.2,-7.8 0,-3.8 -0.50909,-7.10909 -1.2,-7.8 -1.73403,-1.73403 -125.86597,-1.73403 -127.6,0 -1.58053,1.58053 -1.58053,14.01947 0,15.6 1.73403,1.73403 125.86597,1.73403 127.6,0 z M 99.389097,429.65826 c -5.357408,-4.60824 -2.315762,-12.99159 4.713613,-12.99159 3.62544,0 7.89729,4.03856 7.89729,7.46602 0,2.61388 -5.25343,7.86731 -7.86731,7.86731 -1.11164,0 -3.24626,-1.05378 -4.743593,-2.34174 z M 371.45455,428.54545 369,426.09091 V 316.52402 206.95712 l -2.25,-0.96418 C 364.28959,204.93859 341.64231,201 338.04012,201 c -1.23074,0 -3.49879,1.35 -5.04012,3 l -2.80242,3 h -17.98801 c -20.20595,0 -21.7231,-0.46136 -23.09793,-7.02406 -0.81774,-3.90351 -0.66021,-3.8778 -11.34667,-1.85174 -5.0871,0.96447 -8.02325,1.01044 -12,0.1879 -3.4162,-0.7066 -5.90233,-0.75244 -7.08007,-0.13053 -2.91265,1.53805 -21.58332,14.84505 -22.17745,15.80637 -0.29765,0.48161 -1.889,5.29384 -3.53635,10.69385 C 229.83691,234.95567 227.64665,238 223.38922,238 c -1.31407,0 -3.34182,-0.9526 -4.5061,-2.11688 -2.70143,-2.70143 -2.30385,-6.67231 2.06637,-20.63832 l 3.20905,-10.2552 19.17073,-13.64961 c 22.60079,-16.09182 23.38245,-16.75098 24.18228,-20.39258 1.36198,-6.20103 -5.28793,-12.12352 -11.12201,-9.90541 -4.0293,1.53193 -46.74602,32.52855 -48.23397,35.00011 -1.37296,2.28056 -18.73888,56.14421 -21.20519,65.7719 -1.17599,4.59067 -1.16317,5.43932 0.0942,6.23467 2.6431,1.67192 14.00297,5.14706 15.25486,4.66667 0.67559,-0.25925 2.25761,-3.66712 3.5156,-7.57306 1.25799,-3.90593 2.97138,-7.78583 3.80755,-8.62199 3.62615,-3.62615 11.37744,-0.32141 11.37744,4.85075 0,3.76036 -6.73061,24.6738 -8.60871,26.74907 -2.60396,2.87735 -5.87464,2.34202 -22.52106,-3.68609 -17.23778,-6.24225 -19.59314,-7.48185 -20.41146,-10.74227 -0.36074,-1.43732 3.34929,-14.67477 10.01604,-35.73735 5.82397,-18.39993 10.46217,-34.35441 10.30711,-35.45441 -0.32433,-2.30088 -2.65249,-2.33046 -27.04309,-0.34353 -7.56865,0.61657 -16.20901,0.86839 -19.20082,0.55961 -20.41652,-2.10717 -34.92286,-24.1209 -29.09816,-44.15716 2.09507,-7.20679 5.05403,-11.96551 10.49872,-16.88446 6.99643,-6.32085 12.01933,-8.05044 23.56143,-8.11315 16.66018,-0.0905 37.76159,1.5235 40.25,3.07865 3.98468,2.49025 2.5748,10.52565 -2.16287,12.32691 -1.38008,0.52471 -9.40888,0.28698 -20.1892,-0.5978 -9.84386,-0.80791 -19.77329,-1.19946 -22.06539,-0.87011 -6.17259,0.88695 -12.03549,5.61052 -14.99943,12.0846 -2.25142,4.91775 -2.38819,5.93239 -1.41276,10.48063 1.85458,8.64764 4.93655,12.85786 12.04669,16.45675 3.75678,1.90155 7.04807,1.86031 41.22795,-0.51663 l 15.69499,-1.09146 10.42328,-7.70642 c 5.73281,-4.23854 13.49255,-9.95643 17.24387,-12.70643 6.77526,-4.96677 9.80814,-9.53473 7.71818,-11.62469 -0.52233,-0.52233 -4.90527,-1.22884 -9.73986,-1.57002 -7.13274,-0.50336 -9.28469,-1.04695 -11.41281,-2.8829 -2.59186,-2.23602 -2.6199,-2.4063 -2.38912,-14.50988 0.14869,-7.79843 -0.16737,-12.73034 -0.87008,-13.57706 -0.84942,-1.02348 -3.3368,-1.1834 -10.79956,-0.69434 -10.85592,0.71143 -16.25136,-0.44778 -18.52612,-3.98035 C 176.6752,112.7683 166.72974,58.097723 166.68398,50.5 c -0.0199,-3.3 0.75598,-8.367693 1.72414,-11.261541 2.3354,-6.980583 9.97468,-15.296984 17.40179,-18.944223 C 190.7127,17.886619 192.67609,17.50494 200,17.5357 c 10.23759,0.043 15.57456,2.11544 22.76283,8.839224 8.59735,8.041811 12.08618,18.486548 10.18921,30.504083 -0.57482,3.641546 -3.06386,17.712717 -5.5312,31.269269 -3.95706,21.741704 -4.45274,26.045854 -4.20346,36.500004 L 223.5,136.5 l 8.19572,0.28957 8.19573,0.28956 5.69923,-5.16125 c 13.26255,-12.01063 30.01222,-14.16589 45.14417,-5.80894 5.19951,2.87154 5.35041,2.89106 22.34879,2.89106 h 17.11394 L 333,132 c 1.54133,1.65 3.80938,3 5.04012,3 3.60219,0 26.24947,-3.93859 28.70988,-4.99294 L 369,129.04288 V 75.475984 21.909091 L 371.45455,19.454545 373.90909,17 H 416 458.09091 l 2.45454,2.454545 L 463,21.909091 V 124 226.09091 l -2.45455,2.45454 c -3.11461,3.11462 -5.97629,3.11462 -9.0909,0 L 449,226.09091 V 145.74545 C 449,84.587879 448.71342,65.113419 447.8,64.2 c -1.71532,-1.715316 -61.88468,-1.715316 -63.6,0 -0.92448,0.924475 -1.2,42.67237 -1.2,181.82569 v 180.62568 l -2.31445,2.17432 c -3.03217,2.84857 -6.19832,2.75245 -9.231,-0.28024 z M 319.8,191.8 c 0.86278,-0.86278 1.2,-7.57279 1.2,-23.87756 0,-25.52162 0.0772,-25.25543 -7.1761,-24.73355 -4.28215,0.30811 -4.321,0.3449 -4.02306,3.81111 0.16546,1.925 0.39046,7.775 0.5,13 0.19091,9.1066 0.0439,9.82523 -3.55084,17.35379 -3.87425,8.11402 -4.62561,12.3706 -2.55,14.44621 0.69091,0.69091 4,1.2 7.8,1.2 3.8,0 7.10909,-0.50909 7.8,-1.2 z M 368,168 v -22 l -4.25,0.001 c -3.86741,0.001 -14.85964,1.7514 -23.75,3.78143 l -3.5,0.79919 v 17.45901 17.459 l 12,2.14469 c 6.6,1.17958 13.6875,2.19208 15.75,2.25 L 368,190 Z m -84.20034,13.58532 c 3.51449,-1.84121 8.54003,-7.21961 10.64187,-11.38908 4.51206,-8.95069 2.49106,-20.10576 -4.99977,-27.59658 -7.57576,-7.57577 -17.76349,-9.5505 -26.94176,-5.22224 -4.93173,2.32569 -10.36078,7.09514 -9.29245,8.16346 0.30182,0.30182 3.03481,0.69226 6.0733,0.86763 16.31389,0.94161 26.59485,15.96622 21.22988,31.02537 -1.98819,5.58074 -1.24058,6.5244 3.28893,4.15144 z M 208.84429,104.1174 c 1.48779,-0.94293 4.50066,-13.77609 3.71495,-15.823628 -0.69467,-1.810259 -22.86024,-1.840944 -24.3601,-0.03372 -1.38358,1.667114 1.00062,14.619298 2.91414,15.831118 1.7795,1.12695 15.96114,1.14792 17.73101,0.0262 z m 7.49739,-43.670082 c 1.52646,-8.332124 1.63949,-10.803522 0.6604,-14.439598 C 214.75379,37.658206 205.61886,31.921365 197.09077,33.503194 191.44364,34.550651 190,36.465201 190,42.906968 c 0,5.447287 3.29084,25.136565 4.53878,27.155773 0.36947,0.597821 4.55593,0.891709 10.29201,0.722496 L 214.5,70.5 Z M 447.52841,40.579269 c 0.37819,-3.531402 0.38744,-6.906402 0.0206,-7.5 C 446.80796,31.880253 403.43722,31.547928 391.75,32.651714 L 385,33.28921 V 40.144605 47 h 30.92041 30.9204 z M 109.46528,391.03916 c -7.61751,-3.05279 -5.62118,-14.37249 2.53472,-14.37249 4.05197,0 7.33333,3.28136 7.33333,7.33333 0,5.01123 -5.36999,8.84179 -9.86805,7.03916 z m 29.92382,-1.3809 c -5.35741,-4.60824 -2.31576,-12.99159 4.71361,-12.99159 3.62544,0 7.89729,4.03856 7.89729,7.46602 0,2.61388 -5.25343,7.86731 -7.86731,7.86731 -1.11164,0 -3.24626,-1.05378 -4.74359,-2.34174 z M 419.17431,284.68555 C 417.14812,282.52876 417,281.38258 417,267.85986 c 0,-13.87545 0.1014,-14.6065 2.31445,-16.68555 3.03217,-2.84857 6.19832,-2.75245 9.231,0.28024 C 430.91926,253.82835 431,254.37262 431,268 c 0,13.62738 -0.0807,14.17165 -2.45455,16.54545 -3.08087,3.08088 -6.55956,3.13289 -9.37114,0.1401 z m 0,-56 L 417,226.3711 V 155.85986 85.348628 l 2.31445,-2.174314 c 3.03217,-2.848571 6.19832,-2.752454 9.231,0.280231 L 431,85.909091 V 156 226.09091 l -2.45455,2.45454 c -3.08087,3.08088 -6.55956,3.13289 -9.37114,0.1401 z"
         id="path2811" />
      <path
         style="fill:#313131"
         d="M 72.463313,473.87493 C 53.233491,462.80614 36.7125,453.06139 35.75,452.21994 32.804013,449.64445 33.837007,445.97116 40.873764,434 c 6.560952,-11.1617 6.870211,-11.50925 10.51281,-11.81453 7.797644,-0.65349 8.662645,4.45684 2.53137,14.95503 -2.245131,3.8442 -3.870588,7.54052 -3.612126,8.21407 0.258462,0.67354 11.882887,7.7866 25.832056,15.80681 32.342406,18.59556 29.807296,17.32948 31.409066,15.68624 0.72249,-0.74119 7.26579,-11.69762 14.54068,-24.34762 7.27489,-12.65 15.04889,-25.69919 17.27554,-28.99821 6.15683,-9.12194 20.04208,-22.96654 30.63684,-30.54714 12.99807,-9.30017 20.83282,-16.60358 27.96437,-26.06786 9.0716,-12.03892 8.39258,-12.7471 -7.82933,-8.16559 -7.75275,2.18959 -11.6863,2.71675 -20.13504,2.6984 -13.13871,-0.0285 -18.66404,-1.61045 -34.54357,-9.88987 -14.51276,-7.5668 -22.75143,-9.4501 -33.84862,-7.73755 -3.790699,0.58499 -7.471294,1.65857 -8.179097,2.38572 -0.707803,0.72716 -2.044608,5.8221 -2.970678,11.3221 -2.786163,16.54723 -10.12167,35.93803 -17.118006,45.25 -2.819538,3.75275 -7.017557,4.3688 -9.685041,1.42126 -2.460371,-2.71868 -2.034337,-5.79787 1.739889,-12.57516 8.200521,-14.72548 11.888517,-27.11085 14.170053,-47.58721 2.745321,-24.63873 6.496147,-35.75488 20.161644,-59.75214 5.248266,-9.21621 10.226556,-17.54425 11.062856,-18.50675 0.8363,-0.9625 2.71403,-1.75 4.17273,-1.75 2.5793,0 110.65815,61.53643 115.03381,65.49635 1.10222,0.9975 2.00403,2.78029 2.00403,3.96177 0,2.46022 -14.79057,28.65774 -21.71995,38.47106 -6.49916,9.20405 -20.23271,22.62026 -30.28005,29.58039 -10.3575,7.17498 -21.54398,17.77392 -27.95892,26.49043 -2.63103,3.575 -11.89458,18.875 -20.58568,34 -8.69109,15.125 -16.70244,28.5125 -17.80301,29.75 -1.10056,1.2375 -2.95159,2.25 -4.11339,2.25 -1.16181,0 -17.845865,-9.05628 -37.075687,-20.12507 z M 197,343.52495 c 16.47172,-4.63607 19.56053,-6.0197 18.21384,-8.15883 C 214.82123,334.74248 197.175,324.22029 176,311.98347 154.825,299.74665 133.7452,287.5444 129.156,284.86736 124.5668,282.19031 119.81408,280 118.5944,280 c -4.41591,0 -21.929375,34.58928 -23.277687,45.97366 L 94.721418,331 h 11.429192 c 16.31736,0 20.50713,1.23184 40.35662,11.86527 14.34126,7.68265 25.04378,7.82248 50.49277,0.65968 z M 340,492 c -1.85464,-1.85464 -2,-3.33333 -2,-20.34501 0,-16.50236 0.18369,-18.51125 1.82874,-20 1.65287,-1.49583 6.8872,-1.65499 54.42857,-1.65499 46.4847,0 52.78252,-0.18269 54.17126,-1.57143 C 449.83549,447.02165 450,436.72621 450,350.08356 c 0,-92.48268 0.0811,-96.84697 1.82874,-98.42857 2.45893,-2.2253 5.73946,-2.08679 8.17126,0.34501 1.97245,1.97245 2,3.33333 2,98.8 0,73.95556 0.2832,97.0832 1.2,98 0.80833,0.80833 5.37778,1.2 14,1.2 17.69165,0 16.8,-1.16763 16.8,22 0,16.66667 -0.14815,18.14815 -2,20 -1.96396,1.96396 -3.33333,2 -76,2 -72.66667,0 -74.03604,-0.036 -76,-2 z m 140.42857,-11.57143 c 1.94402,-1.94402 2.2334,-15.3666 0.37143,-17.22857 -0.90803,-0.90803 -16.58413,-1.2 -64.42857,-1.2 -56.14719,0 -63.40457,0.17599 -64.8,1.57143 C 350.44841,464.69444 350,467.09957 350,472 c 0,4.90043 0.44841,7.30556 1.57143,8.42857 C 352.96667,481.82381 360.19048,482 416,482 c 55.80952,0 63.03333,-0.17619 64.42857,-1.57143 z m -380.857141,-52 c -2.02104,-2.02104 -2.02104,-6.8361 0,-8.85714 C 100.43571,418.70714 102.42857,418 104,418 c 3.64426,0 6,2.35574 6,6 0,3.64426 -2.35574,6 -6,6 -1.57143,0 -3.56429,-0.70714 -4.428571,-1.57143 z M 372,428 c -1.9754,-1.9754 -2.00019,-3.34373 -2.01531,-111.25 -0.008,-60.0875 -0.39046,-109.84159 -0.84898,-110.56465 -0.4994,-0.78755 -7.31122,-2.37837 -16.9894,-3.9677 l -16.15574,-2.65304 -2.93892,3.21769 -2.93891,3.2177 h -18.05637 c -16.72304,0 -18.20406,-0.14769 -20.05637,-2 -1.1,-1.1 -2,-3.0699 -2,-4.37756 0,-3.9386 -1.86291,-4.63107 -8.00312,-2.97486 -3.95393,1.06651 -8.02594,1.31207 -14.50687,0.87484 l -9.00999,-0.60786 -10.60424,7.52667 c -5.83234,4.13966 -11.0675,8.09639 -11.63371,8.79272 -0.56621,0.69633 -2.4446,5.87197 -4.1742,11.50143 C 228.88973,235.07948 227.49128,237 223.13717,237 220.31253,237 218,234.33414 218,231.07794 c 0,-3.97146 5.96664,-23.22309 7.88654,-25.44628 0.8874,-1.02759 9.93846,-7.83684 20.11346,-15.13166 10.175,-7.29482 19.25244,-14.10407 20.17209,-15.13166 2.65414,-2.96565 3.17733,-6.79196 1.39894,-10.23099 C 265.63176,161.38722 263.22722,160 258.66618,160 c -2.87308,0 -7.32436,2.74605 -26.04625,16.06827 -12.41953,8.83754 -23.44806,17.28599 -24.50785,18.77432 -1.66835,2.34299 -18.74528,54.02033 -22.27304,67.40157 -1.52713,5.7926 -1.2554,6.12698 7.58732,9.33672 9.92253,3.60168 10.15241,3.52272 12.57447,-4.319 C 208.79235,258.224 210.36248,256 213.95162,256 c 3.57523,0 6.04838,2.31644 6.04838,5.66512 0,3.1919 -5.74955,22.08921 -7.63213,25.08488 -2.12158,3.37599 -5.4315,2.88981 -23.04776,-3.38535 C 172.6703,277.43374 170,275.95523 170,272.66734 c 0,-1.11248 4.725,-16.9483 10.5,-35.1907 5.775,-18.24241 10.5,-34.20734 10.5,-35.47762 v -2.30959 l -15.75,0.89624 c -27.87947,1.58646 -35.99241,1.28664 -41.75,-1.5429 -6.3804,-3.13563 -13.3779,-10.1443 -16.51642,-16.54277 -2.07534,-4.231 -2.45493,-6.46111 -2.46806,-14.5 -0.0137,-8.39869 0.30912,-10.16109 2.78484,-15.20261 3.53114,-7.19075 11.02111,-14.01562 18.49801,-16.85542 5.11652,-1.94331 6.93308,-2.10317 17.70163,-1.55777 34.86431,1.76579 36.5,2.09955 36.5,7.44772 0,1.5322 -0.64096,3.65933 -1.42437,4.72695 -1.65715,2.25837 -6.20106,2.31977 -28.57563,0.38607 -17.10948,-1.47866 -20.61374,-0.70544 -27.08817,5.97704 -5.65909,5.84093 -7.46455,11.62311 -5.87228,18.80667 1.98899,8.97344 8.20237,15.40049 16.77096,17.3477 2.05861,0.46782 7.88881,0.42379 13.18949,-0.0996 5.225,-0.51593 16.6553,-1.37419 25.40066,-1.90725 15.58729,-0.95009 15.96174,-1.02645 19,-3.87469 1.70464,-1.59803 9.29922,-7.29832 16.87686,-12.66731 7.57764,-5.369 14.24288,-10.63134 14.81165,-11.6941 0.56877,-1.06276 0.89389,-3.1454 0.72248,-4.62809 -0.36632,-3.1687 -2.69713,-3.90425 -12.95087,-4.08698 -4.9247,-0.0878 -7.24886,-0.6128 -9,-2.03314 -2.27424,-1.84464 -2.3528,-2.36702 -2.14302,-14.25 0.11977,-6.78434 -0.20167,-13.01017 -0.71432,-13.83517 -0.75104,-1.20866 -3.45801,-1.5 -13.93714,-1.5 -11.69132,0 -13.20117,-0.20204 -14.94631,-2 -2.61529,-2.69444 -13.66039,-62.641138 -12.6952,-68.90251 1.88531,-12.230404 8.23503,-21.318901 18.3726,-26.297126 C 190.68522,18.900112 192.71447,18.5 200,18.5 c 7.28553,0 9.31478,0.400112 14.20261,2.800364 7.00941,3.442088 14.10378,11.088366 16.21774,17.479397 3.16607,9.571837 2.99094,12.271059 -2.84846,43.903686 C 222.90648,107.95641 222,114.7161 222,124.23345 c 0,7.50732 0.40743,11.77398 1.2,12.56655 0.72793,0.72793 4.26431,1.2 8.98941,1.2 h 7.78942 l 5.65554,-5.12169 c 3.11055,-2.81693 8.17782,-6.30443 11.26059,-7.75 4.83134,-2.26551 6.92908,-2.62831 15.19701,-2.62831 9.10402,0 9.96883,0.191 17,3.75448 l 7.40803,3.75449 16.80637,-0.004 16.80637,-0.004 2.93891,3.2177 2.93892,3.21769 16.15574,-2.65304 c 9.67818,-1.58933 16.49,-3.18015 16.9894,-3.9677 0.45852,-0.72306 0.84056,-25.43241 0.84898,-54.909662 0.0145,-50.64102 0.1161,-53.686231 1.84405,-55.25 1.64081,-1.484911 6.16252,-1.654988 44,-1.654988 40.83793,0 42.23449,0.06323 44.17126,2 1.97386,1.973856 2,3.333333 2,104 0,100.66667 -0.0261,102.02614 -2,104 -2.49581,2.49581 -6.17303,2.57127 -8.34501,0.17126 C 450.14369,226.50129 450,219.31255 450,145.37126 450,83.726947 449.71357,64.113573 448.8,63.2 447.9179,62.317902 439.32698,62 416.37143,62 c -27.05628,0 -31.43852,0.209951 -32.8,1.571429 C 382.15445,64.98841 382,82.910153 382,245.91644 382,419.77696 381.9301,426.75331 380.17126,428.34501 377.71233,430.57031 374.4318,430.4318 372,428 Z M 320.42857,192.42857 c 1.33837,-1.33837 1.57143,-5.01645 1.57143,-24.8 0,-16.73333 -0.33555,-23.56412 -1.2,-24.42857 -1.3983,-1.3983 -9.64175,-1.58597 -11.72592,-0.26694 -1.22011,0.77217 -1.23514,1.91354 -0.10413,7.90767 1.90968,10.12092 0.93223,17.83036 -3.38249,26.67888 C 299.39244,190.22418 300.86162,194 312,194 c 4.90043,0 7.30556,-0.44841 8.42857,-1.57143 z m 48.34067,-23.87247 c 0.14808,-12.60469 -0.0903,-23.27712 -0.52965,-23.71651 -0.82461,-0.82461 -17.53049,1.36439 -27.23765,3.56901 L 335.5,149.65815 V 168.07908 186.5 l 15,2.65591 c 8.25,1.46076 15.675,2.57984 16.5,2.48687 1.27599,-0.14381 1.54021,-3.59156 1.76924,-23.08668 z M 286.55285,180.75 c 5.57722,-3.79293 10.13242,-11.17466 11.0566,-17.91727 2.12757,-15.52236 -12.83325,-30.58162 -28.27855,-28.46461 -7.89283,1.08184 -17.65692,7.33542 -17.13807,10.97638 0.26843,1.88366 0.84152,2.11329 4.5441,1.82079 16.35929,-1.29235 28.11994,14.40468 22.71655,30.31998 -2.52266,7.43034 -0.43649,8.38969 7.09937,3.26473 z m -76.18401,-77 c 2.12758,-3.3832 3.85437,-14.776123 2.48893,-16.421374 -1.75129,-2.110182 -23.18736,-1.856175 -25.34385,0.300313 -0.89592,0.895916 -1.41426,2.188384 -1.15188,2.872151 0.26239,0.683767 0.78705,3.438244 1.16591,6.121061 C 188.75457,105.30811 189.67474,106 200,106 c 8.19961,0 9.07309,-0.18954 10.36884,-2.25 z m 5.46159,-32.5 c 0.49544,-0.9625 1.66815,-6.083533 2.60602,-11.380073 1.39162,-7.859041 1.48967,-10.43057 0.53315,-13.982813 -1.56,-5.793393 -8.05989,-12.295795 -13.84941,-13.85475 -7.01309,-1.888428 -11.88269,-0.522804 -17.2648,4.841715 -6.49862,6.477379 -7.37654,10.28608 -5.26403,22.837161 0.90617,5.383818 2.07807,10.326138 2.60422,10.982932 1.17642,1.468514 5.20166,1.920943 19.01924,2.137725 9.29907,0.145892 10.83383,-0.06312 11.61561,-1.581897 z M 448.5,40 V 31.5 H 416 383.5 l -0.29697,7.406415 c -0.16333,4.073529 -0.0625,8.017278 0.22395,8.763888 0.42677,1.112138 6.35412,1.30978 32.79696,1.093584 L 448.5,48.5 Z M 107.57143,388.42857 c -2.02104,-2.02104 -2.02104,-6.8361 0,-8.85714 C 108.43571,378.70714 110.42857,378 112,378 c 3.64426,0 6,2.35574 6,6 0,3.64426 -2.35574,6 -6,6 -1.57143,0 -3.56429,-0.70714 -4.42857,-1.57143 z m 32,0 C 138.70714,387.56429 138,385.57143 138,384 c 0,-3.64426 2.35574,-6 6,-6 3.64426,0 6,2.35574 6,6 0,3.64426 -2.35574,6 -6,6 -1.57143,0 -3.56429,-0.70714 -4.42857,-1.57143 z M 419.65499,284.17126 C 418.275,282.64639 418,279.93047 418,267.82625 c 0,-12.79314 0.21708,-14.71273 1.82874,-16.17126 2.41517,-2.1857 6.4556,-2.10326 8.51627,0.17375 1.37999,1.52487 1.65499,4.24079 1.65499,16.34501 0,12.79314 -0.21708,14.71273 -1.82874,16.17126 -2.41517,2.1857 -6.4556,2.10326 -8.51627,-0.17375 z m 0,-56 C 418.14794,226.50599 418,220.03906 418,155.82625 c 0,-67.045029 0.09,-70.597744 1.82874,-72.171262 2.41517,-2.185696 6.4556,-2.103261 8.51627,0.173753 C 429.85206,85.49401 430,91.960942 430,156.17375 c 0,67.04503 -0.09,70.59774 -1.82874,72.17126 -2.41517,2.1857 -6.4556,2.10326 -8.51627,-0.17375 z"
         id="path2809" />
    </g>
  </g>
</svg>
