<?xml version="1.0" encoding="UTF-8" standalone="no"?>
<!-- Created with Inkscape (http://www.inkscape.org/) -->

<svg
   version="1.1"
   id="svg598"
   width="512"
   height="512"
   viewBox="0 0 512 512"
   xmlns="http://www.w3.org/2000/svg"
   xmlns:svg="http://www.w3.org/2000/svg">
  <defs
     id="defs602" />
  <g
     id="g604">
    <g
       id="g642"
       transform="translate(4.1392645,3.1553133)">
      <path
         style="fill:#fabf73"
         d="M 42.305764,494.58831 39.5,492.17663 39,466.83831 38.5,441.5 29.159759,441 c -8.703914,-0.46594 -9.504412,-0.69115 -11.75,-3.30576 C 15.045684,434.94166 15,434.52683 15,415.81231 v -19.07616 l 3.434472,-3.23912 c 3.080657,-2.90543 3.294217,-3.43937 2.073018,-5.18287 -0.748801,-1.06907 -2.294313,-4.7129 -3.434473,-8.09741 C 15.17102,374.57076 15,371.74706 15,345.98939 15,309.98143 16.265142,303.07242 25.890206,286.51737 30.53517,278.52806 41.928102,267.30918 50.520775,262.26309 54.359349,260.00887 67.175,254.67252 79,250.40453 c 11.825,-4.268 22.0625,-8.18511 22.75,-8.7047 0.76302,-0.57667 1.24681,-3.33191 1.24181,-7.07227 l -0.008,-6.12756 -5.831632,-4.64967 c -9.576915,-7.63586 -18.368177,-20.69974 -22.575686,-33.54765 -1.660103,-5.06923 -1.839794,-5.23736 -7.291353,-6.82217 -4.380653,-1.27349 -6.815824,-2.85265 -11.261236,-7.30268 -8.920373,-8.92965 -11.250246,-19.15189 -6.97159,-30.58762 2.47596,-6.6176 10.701,-14.67571 17.181193,-16.8325 L 70.5,127.33765 71.039655,106.91882 C 71.525075,88.552045 71.817033,85.897014 73.94477,80.5 77.235447,72.153185 88.09543,61.274109 96.5,57.905115 l 6,-2.405115 54.29399,-0.282932 54.29399,-0.282931 2.99987,2.999864 2.99986,2.999863 -0.30872,60.283066 c -0.30773,60.09111 -0.31615,60.30536 -2.64252,67.28307 -6.77548,20.32235 -19.17305,35.0882 -37.44507,44.59812 -6.91341,3.59819 -7.77321,4.3535 -7.5,6.58851 0.2771,2.26669 2.87217,3.66791 25.41922,13.7252 28.66539,12.78643 33.0659,15.3493 41.0965,23.93474 7.51076,8.02966 9.9539,13.24629 22.74781,48.5714 5.85997,16.17989 11.09571,30.24239 11.63497,31.25 0.88318,1.65025 2.45948,1.83203 15.88627,1.83203 8.19819,0 15.13076,-0.364 15.40572,-0.8089 0.27496,-0.44489 3.70786,-20.13239 7.62866,-43.75 6.12788,-36.9123 7.54604,-43.81269 10.10109,-49.14913 3.24789,-6.78349 8.35698,-11.80603 15.75224,-15.48537 L 339.5,247.5 l 70.2963,-0.27608 c 46.95009,-0.18438 71.59541,0.0737 74.20795,0.77722 C 493.63488,250.5944 502,261.34679 502,271.13259 c 0,2.62569 -4.275,30.13547 -9.5,61.13285 -5.225,30.99739 -9.5,56.89341 -9.5,57.54672 0,0.72288 1.59584,1.18784 4.07692,1.18784 3.17274,0 4.72521,0.64828 7,2.92308 L 497,396.84615 v 19.02116 c 0,18.6564 -0.0462,19.07497 -2.40976,21.82693 -2.24559,2.61461 -3.04608,2.83982 -11.75,3.30576 l -9.34024,0.5 -0.5,25.33831 -0.5,25.33832 -2.80576,2.41168 L 466.88847,497 H 256 45.111527 Z M 215.14542,386.05781 C 214.82104,381.63925 211.70047,372.36305 209.92848,370.55 209.35584,369.96409 209,373.72505 209,380.36336 v 10.76336 l 3.23576,-0.31336 c 3.1721,-0.3072 3.22935,-0.40075 2.90966,-4.75555 z m 205.02584,-53.7128 c 2.24357,-2.0304 2.3791,-6.65179 0.25731,-8.77358 C 419.56429,322.70714 417.57143,322 416,322 c -3.64426,0 -6,2.35574 -6,6 0,5.40681 6.11262,8.01803 10.17126,4.34501 z m -64.44,-108.43559 c -0.9728,-0.56638 -6.55603,-7.41519 -12.40717,-15.2196 C 337.47295,200.88542 332.49494,194.275 332.26186,194 332.02877,193.725 318.487,193.275 302.16903,193 L 272.5,192.5 l -4.79216,-2.81686 c -5.46346,-3.21146 -10.2397,-9.23087 -11.73721,-14.79223 -0.66457,-2.46801 -0.92654,-28.10039 -0.74705,-73.09588 L 255.5,32.5 l 2.7723,-4.716114 c 3.13123,-5.326726 7.94442,-9.383227 13.47567,-11.357133 5.53717,-1.97602 202.96689,-1.97602 208.50406,0 5.53125,1.973906 10.34444,6.030407 13.47567,11.357133 L 496.5,32.5 l 0.27642,69.29503 c 0.17949,44.99549 -0.0825,70.62787 -0.74705,73.09588 -1.49751,5.56136 -6.27375,11.58077 -11.73721,14.79223 L 479.5,192.5 433.83202,193 c -25.1174,0.275 -45.85917,0.725 -46.09283,1 -0.23366,0.275 -5.22065,6.89671 -11.08219,14.71491 -5.86154,7.8182 -11.52768,14.6807 -12.59143,15.25 -2.43752,1.30452 -6.03953,1.28054 -8.33431,-0.0555 z"
         id="path656" />
      <path
         style="fill:#a4a3a6"
         d="M 42.305764,494.58831 39.5,492.17663 39,466.83831 38.5,441.5 29.159759,441 c -8.703914,-0.46594 -9.504412,-0.69115 -11.75,-3.30576 C 15.045684,434.94166 15,434.52683 15,415.81231 v -19.07616 l 3.434472,-3.23912 c 3.080657,-2.90543 3.294217,-3.43937 2.073018,-5.18287 -0.748801,-1.06907 -2.294313,-4.7129 -3.434473,-8.09741 C 15.17102,374.57076 15,371.74706 15,345.98939 15,309.98143 16.265142,303.07242 25.890206,286.51737 30.53517,278.52806 41.928102,267.30918 50.520775,262.26309 54.359349,260.00887 67.175,254.67252 79,250.40453 c 11.825,-4.268 22.0625,-8.18511 22.75,-8.7047 0.76302,-0.57667 1.24681,-3.33191 1.24181,-7.07227 l -0.008,-6.12756 -5.831632,-4.64967 c -9.576915,-7.63586 -18.368177,-20.69974 -22.575686,-33.54765 -1.660103,-5.06923 -1.839794,-5.23736 -7.291353,-6.82217 -4.380653,-1.27349 -6.815824,-2.85265 -11.261236,-7.30268 -8.920373,-8.92965 -11.250246,-19.15189 -6.97159,-30.58762 2.47596,-6.6176 10.701,-14.67571 17.181193,-16.8325 L 70.5,127.33765 71.039655,106.91882 C 71.525075,88.552045 71.817033,85.897014 73.94477,80.5 77.235447,72.153185 88.09543,61.274109 96.5,57.905115 l 6,-2.405115 54.29399,-0.282932 54.29399,-0.282931 2.99987,2.999864 2.99986,2.999863 -0.30872,60.283066 c -0.30773,60.09111 -0.31615,60.30536 -2.64252,67.28307 -6.77548,20.32235 -19.17305,35.0882 -37.44507,44.59812 -6.91341,3.59819 -7.77321,4.3535 -7.5,6.58851 0.2771,2.26669 2.87217,3.66791 25.41922,13.7252 28.66539,12.78643 33.0659,15.3493 41.0965,23.93474 7.51076,8.02966 9.9539,13.24629 22.74781,48.5714 5.85997,16.17989 11.09571,30.24239 11.63497,31.25 0.88318,1.65025 2.45948,1.83203 15.88627,1.83203 8.19819,0 15.13076,-0.364 15.40572,-0.8089 0.27496,-0.44489 3.70786,-20.13239 7.62866,-43.75 6.12788,-36.9123 7.54604,-43.81269 10.10109,-49.14913 3.24789,-6.78349 8.35698,-11.80603 15.75224,-15.48537 L 339.5,247.5 l 70.2963,-0.27608 c 46.95009,-0.18438 71.59541,0.0737 74.20795,0.77722 C 493.63488,250.5944 502,261.34679 502,271.13259 c 0,2.62569 -4.275,30.13547 -9.5,61.13285 -5.225,30.99739 -9.5,56.89341 -9.5,57.54672 0,0.72288 1.59584,1.18784 4.07692,1.18784 3.17274,0 4.72521,0.64828 7,2.92308 L 497,396.84615 v 19.02116 c 0,18.6564 -0.0462,19.07497 -2.40976,21.82693 -2.24559,2.61461 -3.04608,2.83982 -11.75,3.30576 l -9.34024,0.5 -0.5,25.33831 -0.5,25.33832 -2.80576,2.41168 L 466.88847,497 H 256 45.111527 Z M 142.20122,387.5 C 141.4599,380.05637 131.94363,370.5401 124.5,369.79878 l -3,-0.29878 -0.28984,9.42498 c -0.15941,5.18374 -0.055,10.03708 0.23211,10.78518 0.40345,1.05137 2.85327,1.29545 10.78985,1.07502 L 142.5,390.5 Z m 72.9442,-1.44219 C 214.82104,381.63925 211.70047,372.36305 209.92848,370.55 209.35584,369.96409 209,373.72505 209,380.36336 v 10.76336 l 3.23576,-0.31336 c 3.1721,-0.3072 3.22935,-0.40075 2.90966,-4.75555 z m 205.02584,-53.7128 c 2.24357,-2.0304 2.3791,-6.65179 0.25731,-8.77358 C 419.56429,322.70714 417.57143,322 416,322 c -3.64426,0 -6,2.35574 -6,6 0,5.40681 6.11262,8.01803 10.17126,4.34501 z M 143.85164,260.26145 c 4.93091,-3.68146 6.60043,-6.97096 6.62516,-13.05371 L 150.5,241.5 140,240.83035 c -5.775,-0.36831 -12.07203,-1.15581 -13.9934,-1.75 -1.92137,-0.59419 -3.83387,-1.08035 -4.25,-1.08035 -1.14706,0 -0.90473,11.47884 0.31001,14.6849 3.41756,9.01991 14.62917,12.91917 21.78503,7.57655 z m 11.43522,-38.7343 c 20.93145,-4.43532 37.80497,-21.30884 42.24029,-42.24029 1.05264,-4.96768 1.44278,-14.31446 1.45549,-34.87019 0.01,-15.44584 -0.22155,-28.32225 -0.51356,-28.61426 -0.29201,-0.292 -4.53526,0.29041 -9.42945,1.29425 -24.65623,5.05723 -47.54866,5.05162 -62.83569,-0.0154 -13.15862,-4.36154 -12.83686,-4.45583 -13.43741,3.93776 -0.38848,5.42952 -1.1615,8.09039 -3.41351,11.75 -3.42781,5.57032 -10.668574,10.7706 -16.328142,11.72678 L 89,145.1758 l 0.01736,13.6621 c 0.02995,23.56659 4.076942,35.28072 16.47049,47.67425 13.61358,13.61359 31.27788,18.93959 49.79901,15.015 z m -35.84959,-61.83004 c -0.29216,-0.76135 -0.39757,-4.71717 -0.23424,-8.79069 L 119.5,143.5 h 8.5 8.5 v 8.5 8.5 l -8.26577,0.2907 c -6.32118,0.22231 -8.39073,-0.035 -8.79696,-1.09359 z m 48,0 c -0.29216,-0.76135 -0.39757,-4.71717 -0.23424,-8.79069 L 167.5,143.5 h 8.5 8.5 v 8.5 8.5 l -8.26577,0.2907 c -6.32118,0.22231 -8.39073,-0.035 -8.79696,-1.09359 z M 71,156 c 0,-4.4 -0.380256,-8 -0.845012,-8 -2.103237,0 -4.427715,4.19987 -4.427715,8 0,3.80013 2.324478,8 4.427715,8 C 70.619744,164 71,160.4 71,156 Z m 284.73126,67.90942 c -0.9728,-0.56638 -6.55603,-7.41519 -12.40717,-15.2196 C 337.47295,200.88542 332.49494,194.275 332.26186,194 332.02877,193.725 318.487,193.275 302.16903,193 L 272.5,192.5 l -4.79216,-2.81686 c -5.46346,-3.21146 -10.2397,-9.23087 -11.73721,-14.79223 -0.66457,-2.46801 -0.92654,-28.10039 -0.74705,-73.09588 L 255.5,32.5 l 2.7723,-4.716114 c 3.13123,-5.326726 7.94442,-9.383227 13.47567,-11.357133 5.53717,-1.97602 202.96689,-1.97602 208.50406,0 5.53125,1.973906 10.34444,6.030407 13.47567,11.357133 L 496.5,32.5 l 0.27642,69.29503 c 0.17949,44.99549 -0.0825,70.62787 -0.74705,73.09588 -1.49751,5.56136 -6.27375,11.58077 -11.73721,14.79223 L 479.5,192.5 433.83202,193 c -25.1174,0.275 -45.85917,0.725 -46.09283,1 -0.23366,0.275 -5.22065,6.89671 -11.08219,14.71491 -5.86154,7.8182 -11.52768,14.6807 -12.59143,15.25 -2.43752,1.30452 -6.03953,1.28054 -8.33431,-0.0555 z"
         id="path654" />
      <path
         style="fill:#3b98df"
         d="m 44.308337,494.80554 c -1.205414,-0.58251 -2.555414,-1.78955 -3,-2.68232 C 40.863752,491.23045 40.275,479.25 40,465.5 l -0.5,-25 -9,-0.54903 C 25.55,439.64901 20.773452,439.06175 19.88545,438.64596 16.683985,437.14693 16,433.16039 16,416 c 0,-15.44714 0.855219,-21.92092 2.910515,-22.0318 0.324217,-0.0175 1.381297,-0.63276 2.349067,-1.36725 1.653681,-1.25507 1.563403,-1.74969 -1.5,-8.2182 L 16.5,377.5 V 345 c 0,-31.27972 0.08793,-32.7816 2.341863,-40 4.061218,-13.00637 8.692599,-20.59798 18.626378,-30.53176 C 48.488791,263.44769 53.25992,260.84451 80.5,250.98967 c 11,-3.97955 20.7875,-7.64606 21.75,-8.14779 1.40416,-0.73196 1.75,-2.24839 1.75,-7.67324 v -6.76099 l -7.049835,-6.31187 C 88.008045,214.0897 80.917971,204.01032 76.927863,193.63172 73.334299,184.28456 72.477641,183 69.837717,183 c -2.516309,0 -8.760961,-3.22309 -12.753349,-6.58246 -8.624284,-7.25686 -11.344051,-22.54153 -5.873395,-33.00756 3.864953,-7.39413 9.547695,-11.82017 18.95076,-14.75994 1.464694,-0.45793 1.701843,-2.99431 2,-21.39055 L 72.5,86.388471 76.23472,78.83568 C 80.733137,69.738451 86.526737,64.067467 95.820391,59.664521 L 102.5,56.5 155.44154,56.208017 c 37.12458,-0.20475 53.74184,0.03952 55.62028,0.817589 1.47331,0.610264 3.18711,2.22533 3.80846,3.589036 1.83167,4.020087 1.55375,110.993218 -0.31373,120.753638 -4.4026,23.0103 -20.7958,43.5183 -42.07934,52.64149 -3.83913,1.64564 -4.47721,2.33432 -4.47721,4.83225 0,1.6022 0.59454,3.40651 1.32119,4.00958 0.72665,0.60307 12.32781,5.99013 25.78035,11.97124 13.45253,5.98111 26.4705,12.14057 28.92881,13.6877 6.3264,3.98148 14.9607,13.12679 18.39089,19.47937 1.60669,2.9755 8.35929,20.28253 15.00578,38.46005 L 269.51156,359.5 H 286.00578 302.5 l 7.11277,-42.39399 c 3.91202,-23.31669 7.86717,-44.78724 8.78922,-47.71233 2.21315,-7.0209 9.75168,-15.31383 16.8279,-18.51188 L 340.5,248.5 l 69.91254,-0.27638 c 79.75154,-0.31528 76.1095,-0.64925 83.91452,7.69495 4.62472,4.9442 6.66206,9.86256 6.66143,16.08143 -1.9e-4,1.925 -4.27268,28.86252 -9.49442,59.86115 -5.22174,30.99863 -9.49407,57.21113 -9.49407,58.25 0,1.48712 0.7344,1.88885 3.45295,1.88885 4.63847,0 8.09115,1.704 9.43678,4.65732 1.50718,3.3079 1.4863,35.42327 -0.0252,38.74062 -1.55993,3.42368 -3.02319,3.92218 -13.36455,4.55303 l -9,0.54903 -0.5,25 c -0.275,13.75 -0.86226,25.72655 -1.30501,26.61455 -0.44276,0.888 -1.92643,2.1255 -3.29705,2.75 -3.41879,1.5577 -419.864244,1.49961 -423.089603,-0.059 z M 216.15151,386.5 c -0.37558,-5.38863 -5.70082,-20.5 -7.2242,-20.5 -1.07964,0 -1.28371,24.31027 -0.21305,25.38093 0.39284,0.39284 2.30534,0.58034 4.25,0.41666 L 216.5,391.5 Z m 247.21353,2.45244 c 1.88028,-2.18651 3.51184,-10.37281 11.51218,-57.76184 5.12677,-30.36785 9.3662,-56.79447 9.42094,-58.72581 0.0678,-2.39159 -0.6104,-4.22168 -2.12643,-5.73816 L 479.94575,264.5 424.72288,264.24682 c -30.37259,-0.13925 -55.76746,0.10124 -56.43306,0.53441 -1.8118,1.17912 -22.38015,125.50424 -20.92347,126.47166 0.62351,0.41409 26.48536,0.63909 57.47079,0.5 L 461.17427,391.5 Z M 405.53748,349.94363 C 396.68938,345.52983 392,337.92856 392,328 c 0,-14.82386 10.47795,-24.53639 25.68698,-23.81051 6.06147,0.28929 7.85804,0.81465 11.47207,3.35469 2.3568,1.65642 5.64035,4.93997 7.29677,7.29677 2.54004,3.61403 3.0654,5.4106 3.35469,11.47207 0.53133,11.13272 -3.56113,18.49996 -12.90753,23.23614 -6.20973,3.14671 -15.50425,3.31832 -21.3655,0.39447 z m 15.53944,-16.86671 C 422.68462,331.46923 424,329.18462 424,328 c 0,-2.78367 -5.21633,-8 -8,-8 -1.18462,0 -3.46923,1.31538 -5.07692,2.92308 C 409.31538,324.53077 408,326.81538 408,328 c 0,1.18462 1.31538,3.46923 2.92308,5.07692 1.60769,1.6077 3.8923,2.92308 5.07692,2.92308 1.18462,0 3.46923,-1.31538 5.07692,-2.92308 z M 142.20122,387.5 C 141.4599,380.05637 131.94363,370.5401 124.5,369.79878 l -3,-0.29878 -0.28984,9.42498 c -0.15941,5.18374 -0.055,10.03708 0.23211,10.78518 0.40345,1.05137 2.85327,1.29545 10.78985,1.07502 L 142.5,390.5 Z m 155.39765,-3.22702 c 0.61256,-3.42487 0.87841,-6.46237 0.59077,-6.75 C 297.90201,377.23534 283.11667,377 265.33333,377 H 233 v 4.68555 c 0,3.44346 0.58002,5.30295 2.18802,7.01459 l 2.18802,2.32904 29.55455,-0.26459 L 296.48513,390.5 Z M 338.69027,330 c 5.60465,-33.275 10.21715,-61.5125 10.25,-62.75 0.0731,-2.75558 -2.59215,-2.98356 -7.52338,-0.64354 -6.62627,3.14437 -6.81519,3.86371 -16.97552,64.63524 -5.17317,30.94207 -9.41378,57.06636 -9.42357,58.05399 -0.0157,1.58084 0.78981,1.76031 6.7322,1.5 L 328.5,390.5 Z M 143.85164,260.26145 c 4.93091,-3.68146 6.60043,-6.97096 6.62516,-13.05371 L 150.5,241.5 140,240.83035 c -5.775,-0.36831 -12.07203,-1.15581 -13.9934,-1.75 -1.92137,-0.59419 -3.83387,-1.08035 -4.25,-1.08035 -1.14706,0 -0.90473,11.47884 0.31001,14.6849 3.41756,9.01991 14.62917,12.91917 21.78503,7.57655 z m 11.43522,-38.7343 c 20.93145,-4.43532 37.80497,-21.30884 42.24029,-42.24029 1.05264,-4.96768 1.44278,-14.31446 1.45549,-34.87019 0.01,-15.44584 -0.22155,-28.32225 -0.51356,-28.61426 -0.29201,-0.292 -4.53526,0.29041 -9.42945,1.29425 -24.65623,5.05723 -47.54866,5.05162 -62.83569,-0.0154 -13.15862,-4.36154 -12.83686,-4.45583 -13.43741,3.93776 -0.38848,5.42952 -1.1615,8.09039 -3.41351,11.75 -3.42781,5.57032 -10.668574,10.7706 -16.328142,11.72678 L 89,145.1758 l 0.01736,13.6621 c 0.02995,23.56659 4.076942,35.28072 16.47049,47.67425 13.61358,13.61359 31.27788,18.93959 49.79901,15.015 z m -35.84959,-61.83004 c -0.29216,-0.76135 -0.39757,-4.71717 -0.23424,-8.79069 L 119.5,143.5 h 8.5 8.5 v 8.5 8.5 l -8.26577,0.2907 c -6.32118,0.22231 -8.39073,-0.035 -8.79696,-1.09359 z m 48,0 c -0.29216,-0.76135 -0.39757,-4.71717 -0.23424,-8.79069 L 167.5,143.5 h 8.5 8.5 v 8.5 8.5 l -8.26577,0.2907 c -6.32118,0.22231 -8.39073,-0.035 -8.79696,-1.09359 z M 71,156 c 0,-4.4 -0.380256,-8 -0.845012,-8 -2.103237,0 -4.427715,4.19987 -4.427715,8 0,3.80013 2.324478,8 4.427715,8 C 70.619744,164 71,160.4 71,156 Z m 285.31843,66.71456 C 355.11856,222.04655 349.14877,214.8625 343.05222,206.75 L 331.96759,192 303.7338,191.99 c -27.54102,-0.01 -28.35785,-0.0675 -33.28941,-2.36393 -5.91296,-2.75339 -11.64003,-8.99821 -13.28383,-14.48474 -1.69056,-5.64258 -1.63944,-136.788736 0.0556,-142.52554 1.62291,-5.492837 9.90706,-13.776994 15.3999,-15.399904 5.93764,-1.754332 200.83032,-1.754332 206.76796,0 5.49284,1.62291 13.77699,9.907067 15.3999,15.399904 0.90291,3.055928 1.2136,21.59971 1.20635,72 l -0.01,67.88398 -2.35416,5.05561 c -2.75339,5.91296 -8.99821,11.64003 -14.48474,13.28383 C 476.45871,191.64324 461.85978,192 431.65019,192 h -43.61778 l -11.08463,14.75 C 366.3375,220.8688 363.31838,223.92913 360,223.92913 c -0.825,0 -2.48171,-0.54655 -3.68157,-1.21457 z"
         id="path652" />
      <path
         style="fill:#00cab1"
         d="m 44.308337,494.80554 c -1.205414,-0.58251 -2.555414,-1.78955 -3,-2.68232 C 40.863752,491.23045 40.275,479.25 40,465.5 l -0.5,-25 -9,-0.54903 C 25.55,439.64901 20.773452,439.06175 19.88545,438.64596 16.683985,437.14693 16,433.16039 16,416 c 0,-15.44714 0.855219,-21.92092 2.910515,-22.0318 0.324217,-0.0175 1.381297,-0.63276 2.349067,-1.36725 1.653681,-1.25507 1.563403,-1.74969 -1.5,-8.2182 L 16.5,377.5 V 345 c 0,-31.27972 0.08793,-32.7816 2.341863,-40 4.061218,-13.00637 8.692599,-20.59798 18.626378,-30.53176 C 48.488791,263.44769 53.25992,260.84451 80.5,250.98967 c 11,-3.97955 20.7875,-7.64606 21.75,-8.14779 1.40416,-0.73196 1.75,-2.24839 1.75,-7.67324 v -6.76099 l -7.049835,-6.31187 C 88.008045,214.0897 80.917971,204.01032 76.927863,193.63172 73.334299,184.28456 72.477641,183 69.837717,183 c -2.516309,0 -8.760961,-3.22309 -12.753349,-6.58246 -8.624284,-7.25686 -11.344051,-22.54153 -5.873395,-33.00756 3.864953,-7.39413 9.547695,-11.82017 18.95076,-14.75994 1.464694,-0.45793 1.701843,-2.99431 2,-21.39055 L 72.5,86.388471 76.23472,78.83568 C 80.733137,69.738451 86.526737,64.067467 95.820391,59.664521 L 102.5,56.5 155.44154,56.208017 c 37.12458,-0.20475 53.74184,0.03952 55.62028,0.817589 1.47331,0.610264 3.18711,2.22533 3.80846,3.589036 1.83167,4.020087 1.55375,110.993218 -0.31373,120.753638 -4.4026,23.0103 -20.7958,43.5183 -42.07934,52.64149 -3.83913,1.64564 -4.47721,2.33432 -4.47721,4.83225 0,1.6022 0.59454,3.40651 1.32119,4.00958 0.72665,0.60307 12.32781,5.99013 25.78035,11.97124 13.45253,5.98111 26.4705,12.14057 28.92881,13.6877 6.3264,3.98148 14.9607,13.12679 18.39089,19.47937 1.60669,2.9755 8.35929,20.28253 15.00578,38.46005 L 269.51156,359.5 H 286.00578 302.5 l 7.11277,-42.39399 c 3.91202,-23.31669 7.86717,-44.78724 8.78922,-47.71233 2.21315,-7.0209 9.75168,-15.31383 16.8279,-18.51188 L 340.5,248.5 l 69.91254,-0.27638 c 79.75154,-0.31528 76.1095,-0.64925 83.91452,7.69495 4.62472,4.9442 6.66206,9.86256 6.66143,16.08143 -1.9e-4,1.925 -4.27268,28.86252 -9.49442,59.86115 -5.22174,30.99863 -9.49407,57.21113 -9.49407,58.25 0,1.48712 0.7344,1.88885 3.45295,1.88885 4.63847,0 8.09115,1.704 9.43678,4.65732 1.50718,3.3079 1.4863,35.42327 -0.0252,38.74062 -1.55993,3.42368 -3.02319,3.92218 -13.36455,4.55303 l -9,0.54903 -0.5,25 c -0.275,13.75 -0.86226,25.72655 -1.30501,26.61455 -0.44276,0.888 -1.92643,2.1255 -3.29705,2.75 -3.41879,1.5577 -419.864244,1.49961 -423.089603,-0.059 z M 216.15151,386.5 c -0.37558,-5.38863 -5.70082,-20.5 -7.2242,-20.5 -1.07964,0 -1.28371,24.31027 -0.21305,25.38093 0.39284,0.39284 2.30534,0.58034 4.25,0.41666 L 216.5,391.5 Z m 247.21353,2.45244 c 1.88028,-2.18651 3.51184,-10.37281 11.51218,-57.76184 5.12677,-30.36785 9.3662,-56.79447 9.42094,-58.72581 0.0678,-2.39159 -0.6104,-4.22168 -2.12643,-5.73816 L 479.94575,264.5 424.72288,264.24682 c -30.37259,-0.13925 -55.76746,0.10124 -56.43306,0.53441 -1.8118,1.17912 -22.38015,125.50424 -20.92347,126.47166 0.62351,0.41409 26.48536,0.63909 57.47079,0.5 L 461.17427,391.5 Z M 405.53748,349.94363 C 396.68938,345.52983 392,337.92856 392,328 c 0,-14.82386 10.47795,-24.53639 25.68698,-23.81051 6.06147,0.28929 7.85804,0.81465 11.47207,3.35469 2.3568,1.65642 5.64035,4.93997 7.29677,7.29677 2.54004,3.61403 3.0654,5.4106 3.35469,11.47207 0.53133,11.13272 -3.56113,18.49996 -12.90753,23.23614 -6.20973,3.14671 -15.50425,3.31832 -21.3655,0.39447 z m 15.53944,-16.86671 C 422.68462,331.46923 424,329.18462 424,328 c 0,-2.78367 -5.21633,-8 -8,-8 -1.18462,0 -3.46923,1.31538 -5.07692,2.92308 C 409.31538,324.53077 408,326.81538 408,328 c 0,1.18462 1.31538,3.46923 2.92308,5.07692 1.60769,1.6077 3.8923,2.92308 5.07692,2.92308 1.18462,0 3.46923,-1.31538 5.07692,-2.92308 z M 103,380 V 369 H 83.649223 C 61.541386,369 58.46977,368.36856 56.392431,363.39679 54.529239,358.93755 54.360483,314.03952 56.2,312.2 c 1.580533,-1.58053 14.019467,-1.58053 15.6,0 0.848227,0.84823 1.2,6.71111 1.2,20 V 351 h 24.627808 24.627812 l -0.59862,-3.75 c -0.32923,-2.0625 -0.90041,-7.00219 -1.26927,-10.9771 -0.78923,-8.50464 -0.69097,-8.59454 9.51187,-8.70338 l 6.51655,-0.0695 0.67279,4 c 0.37003,2.2 1.23346,8.66509 1.91873,14.36688 1.10713,9.21176 1.53824,10.60455 3.86914,12.5 9.10804,7.40648 15.16844,16.57127 16.61978,25.13312 1.37807,8.12962 -0.013,7.5 16.5708,7.5 L 191,391 v -36.04966 c 0,-39.7085 0.14762,-40.76034 6.00703,-42.80295 3.5251,-1.22885 6.62137,-0.34465 9.33196,2.66492 1.01145,1.12301 5.54556,11.41216 10.0758,22.86477 l 8.23681,20.82292 13.1742,0.27903 c 7.24581,0.15346 13.1742,-0.0145 13.1742,-0.37328 0,-1.23639 -21.08178,-58.66322 -22.64639,-61.68884 -2.69978,-5.2208 -10.59253,-12.80881 -16.33736,-15.70658 C 204.08694,277.01068 168.182,261 167.14185,261 c -0.48184,0 -2.11416,1.87087 -3.62737,4.15748 -9.85288,14.88872 -28.41299,19.76727 -43.072,11.32154 -4.52888,-2.6093 -11.88158,-10.15388 -13.62526,-13.98083 C 106.19118,261.12419 105.36961,260 104.99151,260 102.95701,260 63.15393,275.3025 59.182898,277.61136 47.61367,284.338 36.868637,299.40999 34.096975,312.79922 33.456164,315.89482 33,329.52688 33,345.58134 c 0,30.328 0.263136,31.92714 6.300681,38.29077 6.401823,6.74758 8.16122,7.08142 37.449319,7.10593 L 103,391 Z m 39.20122,7.5 C 141.4599,380.05637 131.94363,370.5401 124.5,369.79878 l -3,-0.29878 -0.28984,9.42498 c -0.15941,5.18374 -0.055,10.03708 0.23211,10.78518 0.40345,1.05137 2.85327,1.29545 10.78985,1.07502 L 142.5,390.5 Z m 155.39765,-3.22702 c 0.61256,-3.42487 0.87841,-6.46237 0.59077,-6.75 C 297.90201,377.23534 283.11667,377 265.33333,377 H 233 v 4.68555 c 0,3.44346 0.58002,5.30295 2.18802,7.01459 l 2.18802,2.32904 29.55455,-0.26459 L 296.48513,390.5 Z M 338.69027,330 c 5.60465,-33.275 10.21715,-61.5125 10.25,-62.75 0.0731,-2.75558 -2.59215,-2.98356 -7.52338,-0.64354 -6.62627,3.14437 -6.81519,3.86371 -16.97552,64.63524 -5.17317,30.94207 -9.41378,57.06636 -9.42357,58.05399 -0.0157,1.58084 0.78981,1.76031 6.7322,1.5 L 328.5,390.5 Z M 143.85164,260.26145 c 4.93091,-3.68146 6.60043,-6.97096 6.62516,-13.05371 L 150.5,241.5 140,240.83035 c -5.775,-0.36831 -12.07203,-1.15581 -13.9934,-1.75 -1.92137,-0.59419 -3.83387,-1.08035 -4.25,-1.08035 -1.14706,0 -0.90473,11.47884 0.31001,14.6849 3.41756,9.01991 14.62917,12.91917 21.78503,7.57655 z m 11.43522,-38.7343 c 20.93145,-4.43532 37.80497,-21.30884 42.24029,-42.24029 1.05264,-4.96768 1.44278,-14.31446 1.45549,-34.87019 0.01,-15.44584 -0.22155,-28.32225 -0.51356,-28.61426 -0.29201,-0.292 -4.53526,0.29041 -9.42945,1.29425 -24.65623,5.05723 -47.54866,5.05162 -62.83569,-0.0154 -13.15862,-4.36154 -12.83686,-4.45583 -13.43741,3.93776 -0.38848,5.42952 -1.1615,8.09039 -3.41351,11.75 -3.42781,5.57032 -10.668574,10.7706 -16.328142,11.72678 L 89,145.1758 l 0.01736,13.6621 c 0.02995,23.56659 4.076942,35.28072 16.47049,47.67425 13.61358,13.61359 31.27788,18.93959 49.79901,15.015 z m -35.84959,-61.83004 c -0.29216,-0.76135 -0.39757,-4.71717 -0.23424,-8.79069 L 119.5,143.5 h 8.5 8.5 v 8.5 8.5 l -8.26577,0.2907 c -6.32118,0.22231 -8.39073,-0.035 -8.79696,-1.09359 z m 48,0 c -0.29216,-0.76135 -0.39757,-4.71717 -0.23424,-8.79069 L 167.5,143.5 h 8.5 8.5 v 8.5 8.5 l -8.26577,0.2907 c -6.32118,0.22231 -8.39073,-0.035 -8.79696,-1.09359 z M 71,156 c 0,-4.4 -0.380256,-8 -0.845012,-8 -2.103237,0 -4.427715,4.19987 -4.427715,8 0,3.80013 2.324478,8 4.427715,8 C 70.619744,164 71,160.4 71,156 Z m 285.31843,66.71456 C 355.11856,222.04655 349.14877,214.8625 343.05222,206.75 L 331.96759,192 303.7338,191.99 c -27.54102,-0.01 -28.35785,-0.0675 -33.28941,-2.36393 -5.91296,-2.75339 -11.64003,-8.99821 -13.28383,-14.48474 -1.69056,-5.64258 -1.63944,-136.788736 0.0556,-142.52554 1.62291,-5.492837 9.90706,-13.776994 15.3999,-15.399904 5.93764,-1.754332 200.83032,-1.754332 206.76796,0 5.49284,1.62291 13.77699,9.907067 15.3999,15.399904 0.90291,3.055928 1.2136,21.59971 1.20635,72 l -0.01,67.88398 -2.35416,5.05561 c -2.75339,5.91296 -8.99821,11.64003 -14.48474,13.28383 C 476.45871,191.64324 461.85978,192 431.65019,192 h -43.61778 l -11.08463,14.75 C 366.3375,220.8688 363.31838,223.92913 360,223.92913 c -0.825,0 -2.48171,-0.54655 -3.68157,-1.21457 z"
         id="path650" />
      <path
         style="fill:#a3764b"
         d="m 44.308337,494.80554 c -1.205414,-0.58251 -2.555414,-1.78955 -3,-2.68232 C 40.863752,491.23045 40.275,479.25 40,465.5 l -0.5,-25 -9,-0.54903 C 25.55,439.64901 20.773452,439.06175 19.88545,438.64596 16.683985,437.14693 16,433.16039 16,416 c 0,-15.44714 0.855219,-21.92092 2.910515,-22.0318 0.324217,-0.0175 1.381297,-0.63276 2.349067,-1.36725 1.653681,-1.25507 1.563403,-1.74969 -1.5,-8.2182 L 16.5,377.5 V 345 c 0,-31.27972 0.08793,-32.7816 2.341863,-40 4.061218,-13.00637 8.692599,-20.59798 18.626378,-30.53176 C 48.488791,263.44769 53.25992,260.84451 80.5,250.98967 c 11,-3.97955 20.7875,-7.64606 21.75,-8.14779 1.40416,-0.73196 1.75,-2.24839 1.75,-7.67324 v -6.76099 l -7.049835,-6.31187 C 88.008045,214.0897 80.917971,204.01032 76.927863,193.63172 73.334299,184.28456 72.477641,183 69.837717,183 c -2.516309,0 -8.760961,-3.22309 -12.753349,-6.58246 -8.624284,-7.25686 -11.344051,-22.54153 -5.873395,-33.00756 3.864953,-7.39413 9.547695,-11.82017 18.95076,-14.75994 1.464694,-0.45793 1.701843,-2.99431 2,-21.39055 L 72.5,86.388471 76.23472,78.83568 C 80.733137,69.738451 86.526737,64.067467 95.820391,59.664521 L 102.5,56.5 155.44154,56.208017 c 37.12458,-0.20475 53.74184,0.03952 55.62028,0.817589 1.47331,0.610264 3.18711,2.22533 3.80846,3.589036 1.83167,4.020087 1.55375,110.993218 -0.31373,120.753638 -4.4026,23.0103 -20.7958,43.5183 -42.07934,52.64149 -3.83913,1.64564 -4.47721,2.33432 -4.47721,4.83225 0,1.6022 0.59454,3.40651 1.32119,4.00958 0.72665,0.60307 12.32781,5.99013 25.78035,11.97124 13.45253,5.98111 26.4705,12.14057 28.92881,13.6877 6.3264,3.98148 14.9607,13.12679 18.39089,19.47937 1.60669,2.9755 8.35929,20.28253 15.00578,38.46005 L 269.51156,359.5 H 286.00578 302.5 l 7.11277,-42.39399 c 3.91202,-23.31669 7.86717,-44.78724 8.78922,-47.71233 2.21315,-7.0209 9.75168,-15.31383 16.8279,-18.51188 L 340.5,248.5 l 69.91254,-0.27638 c 79.75154,-0.31528 76.1095,-0.64925 83.91452,7.69495 4.62472,4.9442 6.66206,9.86256 6.66143,16.08143 -1.9e-4,1.925 -4.27268,28.86252 -9.49442,59.86115 -5.22174,30.99863 -9.49407,57.21113 -9.49407,58.25 0,1.48712 0.7344,1.88885 3.45295,1.88885 4.63847,0 8.09115,1.704 9.43678,4.65732 1.50718,3.3079 1.4863,35.42327 -0.0252,38.74062 -1.55993,3.42368 -3.02319,3.92218 -13.36455,4.55303 l -9,0.54903 -0.5,25 c -0.275,13.75 -0.86226,25.72655 -1.30501,26.61455 -0.44276,0.888 -1.92643,2.1255 -3.29705,2.75 -3.41879,1.5577 -419.864244,1.49961 -423.089603,-0.059 z M 216.15151,386.5 c -0.37558,-5.38863 -5.70082,-20.5 -7.2242,-20.5 -1.07964,0 -1.28371,24.31027 -0.21305,25.38093 0.39284,0.39284 2.30534,0.58034 4.25,0.41666 L 216.5,391.5 Z m 247.21353,2.45244 c 1.88028,-2.18651 3.51184,-10.37281 11.51218,-57.76184 5.12677,-30.36785 9.3662,-56.79447 9.42094,-58.72581 0.0678,-2.39159 -0.6104,-4.22168 -2.12643,-5.73816 L 479.94575,264.5 424.72288,264.24682 c -30.37259,-0.13925 -55.76746,0.10124 -56.43306,0.53441 -1.8118,1.17912 -22.38015,125.50424 -20.92347,126.47166 0.62351,0.41409 26.48536,0.63909 57.47079,0.5 L 461.17427,391.5 Z M 405.53748,349.94363 C 396.68938,345.52983 392,337.92856 392,328 c 0,-14.82386 10.47795,-24.53639 25.68698,-23.81051 6.06147,0.28929 7.85804,0.81465 11.47207,3.35469 2.3568,1.65642 5.64035,4.93997 7.29677,7.29677 2.54004,3.61403 3.0654,5.4106 3.35469,11.47207 0.53133,11.13272 -3.56113,18.49996 -12.90753,23.23614 -6.20973,3.14671 -15.50425,3.31832 -21.3655,0.39447 z m 15.53944,-16.86671 C 422.68462,331.46923 424,329.18462 424,328 c 0,-2.78367 -5.21633,-8 -8,-8 -1.18462,0 -3.46923,1.31538 -5.07692,2.92308 C 409.31538,324.53077 408,326.81538 408,328 c 0,1.18462 1.31538,3.46923 2.92308,5.07692 1.60769,1.6077 3.8923,2.92308 5.07692,2.92308 1.18462,0 3.46923,-1.31538 5.07692,-2.92308 z M 103,380 V 369 H 83.649223 C 61.541386,369 58.46977,368.36856 56.392431,363.39679 54.529239,358.93755 54.360483,314.03952 56.2,312.2 c 1.580533,-1.58053 14.019467,-1.58053 15.6,0 0.848227,0.84823 1.2,6.71111 1.2,20 V 351 h 24.627808 24.627812 l -0.59862,-3.75 c -0.32923,-2.0625 -0.90041,-7.00219 -1.26927,-10.9771 -0.78923,-8.50464 -0.69097,-8.59454 9.51187,-8.70338 l 6.51655,-0.0695 0.67279,4 c 0.37003,2.2 1.23346,8.66509 1.91873,14.36688 1.10713,9.21176 1.53824,10.60455 3.86914,12.5 9.10804,7.40648 15.16844,16.57127 16.61978,25.13312 1.37807,8.12962 -0.013,7.5 16.5708,7.5 L 191,391 v -36.04966 c 0,-39.7085 0.14762,-40.76034 6.00703,-42.80295 3.5251,-1.22885 6.62137,-0.34465 9.33196,2.66492 1.01145,1.12301 5.54556,11.41216 10.0758,22.86477 l 8.23681,20.82292 13.1742,0.27903 c 7.24581,0.15346 13.1742,-0.0145 13.1742,-0.37328 0,-1.23639 -21.08178,-58.66322 -22.64639,-61.68884 -2.69978,-5.2208 -10.59253,-12.80881 -16.33736,-15.70658 C 204.08694,277.01068 168.182,261 167.14185,261 c -0.48184,0 -2.11416,1.87087 -3.62737,4.15748 -9.85288,14.88872 -28.41299,19.76727 -43.072,11.32154 -4.52888,-2.6093 -11.88158,-10.15388 -13.62526,-13.98083 C 106.19118,261.12419 105.36961,260 104.99151,260 102.95701,260 63.15393,275.3025 59.182898,277.61136 47.61367,284.338 36.868637,299.40999 34.096975,312.79922 33.456164,315.89482 33,329.52688 33,345.58134 c 0,30.328 0.263136,31.92714 6.300681,38.29077 6.401823,6.74758 8.16122,7.08142 37.449319,7.10593 L 103,391 Z m 39.20122,7.5 C 141.4599,380.05637 131.94363,370.5401 124.5,369.79878 l -3,-0.29878 -0.28984,9.42498 c -0.15941,5.18374 -0.055,10.03708 0.23211,10.78518 0.40345,1.05137 2.85327,1.29545 10.78985,1.07502 L 142.5,390.5 Z m 155.39765,-3.22702 c 0.61256,-3.42487 0.87841,-6.46237 0.59077,-6.75 C 297.90201,377.23534 283.11667,377 265.33333,377 H 233 v 4.68555 c 0,3.44346 0.58002,5.30295 2.18802,7.01459 l 2.18802,2.32904 29.55455,-0.26459 L 296.48513,390.5 Z M 338.69027,330 c 5.60465,-33.275 10.21715,-61.5125 10.25,-62.75 0.0731,-2.75558 -2.59215,-2.98356 -7.52338,-0.64354 -6.62627,3.14437 -6.81519,3.86371 -16.97552,64.63524 -5.17317,30.94207 -9.41378,57.06636 -9.42357,58.05399 -0.0157,1.58084 0.78981,1.76031 6.7322,1.5 L 328.5,390.5 Z M 143.85164,260.26145 c 4.93091,-3.68146 6.60043,-6.97096 6.62516,-13.05371 L 150.5,241.5 140,240.83035 c -5.775,-0.36831 -12.07203,-1.15581 -13.9934,-1.75 -1.92137,-0.59419 -3.83387,-1.08035 -4.25,-1.08035 -1.14706,0 -0.90473,11.47884 0.31001,14.6849 3.41756,9.01991 14.62917,12.91917 21.78503,7.57655 z m 11.43522,-38.7343 c 20.93145,-4.43532 37.80497,-21.30884 42.24029,-42.24029 1.05264,-4.96768 1.44278,-14.31446 1.45549,-34.87019 0.01,-15.44584 -0.22155,-28.32225 -0.51356,-28.61426 -0.29201,-0.292 -4.53526,0.29041 -9.42945,1.29425 -24.65623,5.05723 -47.54866,5.05162 -62.83569,-0.0154 -13.15862,-4.36154 -12.83686,-4.45583 -13.43741,3.93776 -0.38848,5.42952 -1.1615,8.09039 -3.41351,11.75 -3.42781,5.57032 -10.668574,10.7706 -16.328142,11.72678 L 89,145.1758 l 0.01736,13.6621 c 0.02995,23.56659 4.076942,35.28072 16.47049,47.67425 13.61358,13.61359 31.27788,18.93959 49.79901,15.015 z m -35.84959,-61.83004 c -0.29216,-0.76135 -0.39757,-4.71717 -0.23424,-8.79069 L 119.5,143.5 h 8.5 8.5 v 8.5 8.5 l -8.26577,0.2907 c -6.32118,0.22231 -8.39073,-0.035 -8.79696,-1.09359 z m 48,0 c -0.29216,-0.76135 -0.39757,-4.71717 -0.23424,-8.79069 L 167.5,143.5 h 8.5 8.5 v 8.5 8.5 l -8.26577,0.2907 c -6.32118,0.22231 -8.39073,-0.035 -8.79696,-1.09359 z M 71,156 c 0,-4.4 -0.380256,-8 -0.845012,-8 -2.103237,0 -4.427715,4.19987 -4.427715,8 0,3.80013 2.324478,8 4.427715,8 C 70.619744,164 71,160.4 71,156 Z m 285.31843,66.71456 C 355.11856,222.04655 349.14877,214.8625 343.05222,206.75 L 331.96759,192 303.7338,191.99 c -27.54102,-0.01 -28.35785,-0.0675 -33.28941,-2.36393 -5.91296,-2.75339 -11.64003,-8.99821 -13.28383,-14.48474 -1.69056,-5.64258 -1.63944,-136.788736 0.0556,-142.52554 1.62291,-5.492837 9.90706,-13.776994 15.3999,-15.399904 5.93764,-1.754332 200.83032,-1.754332 206.76796,0 5.49284,1.62291 13.77699,9.907067 15.3999,15.399904 0.90291,3.055928 1.2136,21.59971 1.20635,72 l -0.01,67.88398 -2.35416,5.05561 c -2.75339,5.91296 -8.99821,11.64003 -14.48474,13.28383 C 476.45871,191.64324 461.85978,192 431.65019,192 h -43.61778 l -11.08463,14.75 C 366.3375,220.8688 363.31838,223.92913 360,223.92913 c -0.825,0 -2.48171,-0.54655 -3.68157,-1.21457 z m 12.54277,-32.52857 c 4.43865,-5.9477 8.88975,-11.55562 9.89132,-12.46203 1.62734,-1.47272 6.84011,-1.67864 49.00733,-1.93599 L 474.94614,175.5 477.22307,173.22222 479.5,170.94444 V 104 37.055556 L 477.22222,34.777778 474.94444,32.5 H 376 277.05556 L 274.77778,34.777778 272.5,37.055556 V 104 170.94444 l 2.27631,2.27778 c 2.25752,2.25898 2.53383,2.28029 33.48158,2.58237 27.1716,0.26522 31.43829,0.51547 33.00795,1.93599 0.99147,0.89727 5.43431,6.49771 9.87296,12.44541 C 355.57746,196.1337 359.565,201 360,201 c 0.435,0 4.42254,-4.8663 8.8612,-10.81401 z M 304,136 v -8 h 72 72 v 8 8 h -72 -72 z m 0,-32 v -8 h 72 72 v 8 8 h -72 -72 z m 0,-32 v -8 h 72 72 v 8 8 h -72 -72 z"
         id="path648" />
      <path
         style="fill:#58575a"
         d="m 44.308337,494.80554 c -1.205414,-0.58251 -2.555414,-1.78955 -3,-2.68232 C 40.863752,491.23045 40.275,479.25 40,465.5 l -0.5,-25 -9,-0.54903 c -10.34136,-0.63085 -11.804615,-1.12935 -13.36455,-4.55303 -1.511483,-3.31735 -1.532356,-35.43272 -0.02518,-38.74062 0.610649,-1.34022 2.185649,-2.92675 3.5,-3.52561 2.965479,-1.35116 2.964465,-1.83405 -0.01525,-7.25576 -4.285349,-7.79737 -4.812242,-13.1592 -4.360711,-44.37595 0.472625,-32.67503 0.873258,-35.15866 7.984804,-49.5 3.385735,-6.82776 5.992048,-10.27685 13.247921,-17.53176 C 48.489042,263.44771 53.261136,260.84407 80.5,250.98967 c 11,-3.97955 20.7875,-7.64606 21.75,-8.14779 1.39573,-0.72757 1.75,-2.23838 1.75,-7.46304 v -6.55079 l -8.859766,-8.66402 C 85.350763,210.59084 79.425959,201.5306 75.927105,190.78323 l -2.186674,-6.71677 -5.30378,-1.54185 C 57.71546,179.40787 49.433422,169.64 48.323068,158.80256 47.006342,145.95085 55.007262,133.8506 67.702676,129.49366 L 71.5,128.19046 72,107.29001 72.5,86.389554 76.23472,78.836222 c 4.498377,-9.0978 10.291564,-14.76854 19.585671,-19.171701 L 102.5,56.5 155.44154,56.208017 c 37.12458,-0.20475 53.74184,0.03952 55.62028,0.817589 1.47331,0.610264 3.18711,2.22533 3.80846,3.589036 0.79627,1.747619 1.12972,18.85954 1.12972,57.974568 0,59.9017 -0.27765,63.75078 -5.53118,76.6798 -6.66969,16.41421 -21.21911,31.27665 -37.71882,38.53032 -4.11277,1.80807 -4.75,2.48179 -4.75,5.02199 0,1.61359 0.59454,3.42721 1.32119,4.03028 0.72665,0.60307 12.48392,6.05954 26.12727,12.12548 26.76276,11.89896 35.06802,16.93986 41.66966,25.29156 5.89563,7.45854 7.47945,11.06265 19.87681,45.23136 6.18621,17.05 11.65891,31.7875 12.16155,32.75 0.81206,1.55501 2.68612,1.75 16.81969,1.75 8.74819,0 16.14306,-0.3839 16.43305,-0.85312 0.28999,-0.46922 3.70358,-19.93172 7.58574,-43.25 3.88216,-23.31828 7.75934,-44.53957 8.61596,-47.15842 2.10979,-6.45007 9.89938,-14.81979 16.61897,-17.85666 L 340.5,248.5 410,248.20732 c 51.35946,-0.21629 70.62311,0.0172 73.80285,0.89476 9.02673,2.49107 17.19715,13.08407 17.19715,22.29621 0,1.67311 -4.275,28.54065 -9.5,59.70566 -5.225,31.165 -9.5,57.61594 -9.5,58.77985 0,1.74636 0.60347,2.1162 3.45295,2.1162 4.63847,0 8.09115,1.704 9.43678,4.65732 1.50718,3.3079 1.4863,35.42327 -0.0252,38.74062 -1.55993,3.42368 -3.02319,3.92218 -13.36455,4.55303 l -9,0.54903 -0.5,25 c -0.275,13.75 -0.86226,25.72655 -1.30501,26.61455 -0.44276,0.888 -1.92643,2.1255 -3.29705,2.75 -3.41879,1.5577 -419.864244,1.49961 -423.089603,-0.059 z M 454.98899,464.25 c -0.006,-8.1125 -0.28993,-16.4375 -0.63084,-18.5 L 453.73832,442 H 256 58.261685 l -0.619837,3.75 c -0.34091,2.0625 -0.624789,10.3875 -0.630842,18.5 L 57,479 h 199 199 l -0.011,-14.75 z M 479,416 v -7 H 256 33 v 7 7 H 256 479 Z M 143.54883,390.921 c 1.58794,-2.56935 -1.97817,-10.46106 -6.99347,-15.47636 -5.0153,-5.0153 -12.90701,-8.58141 -15.47636,-6.99347 -1.17775,0.72789 -1.55635,21.73815 -0.41233,22.88216 1.14401,1.14402 22.15427,0.76542 22.88216,-0.41233 z m 72.64909,-4.421 c -0.31498,-5.21346 -5.76618,-20.5 -7.31032,-20.5 -1.0495,0 -1.21572,24.33855 -0.17334,25.38093 0.39284,0.39284 2.30534,0.58034 4.25,0.41666 L 216.5,391.5 Z m 247.17813,2.43964 c 1.89448,-2.20301 3.50094,-10.25545 11.5103,-57.69583 5.11969,-30.32451 9.35417,-56.74537 9.40994,-58.71302 0.0698,-2.46091 -0.59336,-4.27251 -2.12456,-5.80416 L 479.94575,264.5 424.72288,264.24682 c -30.37259,-0.13925 -55.75778,0.0952 -56.41154,0.52111 -1.83007,1.1921 -22.45377,125.51579 -20.98071,126.47578 0.64316,0.41914 26.52108,0.64827 57.50651,0.50918 L 461.17427,391.5 Z M 405.53748,349.94363 C 396.68114,345.52572 392,337.93008 392,327.97765 392,314.23367 402.17408,304 415.83804,304 430.00091,304 440,313.94131 440,328.02235 c 0,13.94276 -10.19854,24.02657 -24.21016,23.9378 -4.19534,-0.0266 -7.60935,-0.69807 -10.25236,-2.01652 z m 15.53944,-16.86671 C 422.68462,331.46923 424,329.18462 424,328 c 0,-2.78367 -5.21633,-8 -8,-8 -1.18462,0 -3.46923,1.31538 -5.07692,2.92308 C 409.31538,324.53077 408,326.81538 408,328 c 0,1.18462 1.31538,3.46923 2.92308,5.07692 1.60769,1.6077 3.8923,2.92308 5.07692,2.92308 1.18462,0 3.46923,-1.31538 5.07692,-2.92308 z M 103,380 V 369 H 83.649223 C 61.541386,369 58.46977,368.36856 56.392431,363.39679 54.529239,358.93755 54.360483,314.03952 56.2,312.2 c 1.580533,-1.58053 14.019467,-1.58053 15.6,0 0.848227,0.84823 1.2,6.71111 1.2,20 V 351 h 24.627808 24.627812 l -0.59862,-3.75 c -0.32923,-2.0625 -0.90041,-7.00219 -1.26927,-10.9771 -0.78923,-8.50464 -0.69097,-8.59454 9.51187,-8.70338 l 6.51655,-0.0695 0.67279,4 c 0.37003,2.2 1.23346,8.66509 1.91873,14.36688 1.10713,9.21176 1.53824,10.60455 3.86914,12.5 9.10804,7.40648 15.16844,16.57127 16.61978,25.13312 1.37807,8.12962 -0.013,7.5 16.5708,7.5 L 191,391 v -36.04966 c 0,-39.7085 0.14762,-40.76034 6.00703,-42.80295 3.5251,-1.22885 6.62137,-0.34465 9.33196,2.66492 1.01145,1.12301 5.54556,11.41216 10.0758,22.86477 l 8.23681,20.82292 13.1742,0.27903 c 7.24581,0.15346 13.1742,-0.0145 13.1742,-0.37328 0,-1.23639 -21.08178,-58.66322 -22.64639,-61.68884 -2.69978,-5.2208 -10.59253,-12.80881 -16.33736,-15.70658 C 204.08694,277.01068 168.182,261 167.14185,261 c -0.48184,0 -2.11416,1.87087 -3.62737,4.15748 -9.85288,14.88872 -28.41299,19.76727 -43.072,11.32154 -4.52888,-2.6093 -11.88158,-10.15388 -13.62526,-13.98083 C 106.19118,261.12419 105.36961,260 104.99151,260 102.95701,260 63.15393,275.3025 59.182898,277.61136 47.61367,284.338 36.868637,299.40999 34.096975,312.79922 33.456164,315.89482 33,329.52688 33,345.58134 c 0,30.328 0.263136,31.92714 6.300681,38.29077 6.401823,6.74758 8.16122,7.08142 37.449319,7.10593 L 103,391 Z m 194.59887,4.27298 c 0.61256,-3.42487 0.87841,-6.46237 0.59077,-6.75 C 297.90201,377.23534 283.11667,377 265.33333,377 H 233 v 4.68555 c 0,3.44346 0.58002,5.30295 2.18802,7.01459 l 2.18802,2.32904 29.55455,-0.26459 L 296.48513,390.5 Z M 338.69027,330 c 5.60465,-33.275 10.21715,-61.5125 10.25,-62.75 0.0731,-2.75558 -2.59215,-2.98356 -7.52338,-0.64354 -6.62627,3.14437 -6.81519,3.86371 -16.97552,64.63524 -5.17317,30.94207 -9.41378,57.06636 -9.42357,58.05399 -0.0157,1.58084 0.78981,1.76031 6.7322,1.5 L 328.5,390.5 Z M 145.31712,260.70729 c 4.71352,-3.59518 6.85522,-8.53853 6.48478,-14.96778 L 151.5,240.5 l -10,-0.7189 c -5.5,-0.3954 -12.21432,-1.38698 -14.92071,-2.20351 -2.7064,-0.81654 -5.2939,-1.25397 -5.75,-0.97208 -1.34803,0.83312 -0.9457,14.1837 0.53269,17.67661 3.91526,9.25036 16.00112,12.49199 23.95514,6.42517 z m 9.24922,-37.77613 c 9.7851,-1.7626 21.36295,-7.97156 28.8781,-15.48672 7.51516,-7.51515 13.72412,-19.093 15.48672,-28.8781 1.29787,-7.20511 1.44486,-63.21591 0.16798,-64.00507 -0.49548,-0.30622 -5.23467,0.33495 -10.53154,1.42482 -24.82596,5.10814 -46.21762,5.14795 -61.45002,0.11436 C 121.95724,114.3952 116.50521,113 115.00194,113 c -2.66028,0 -2.74611,0.18031 -3.21674,6.75797 -0.90236,12.61179 -6.99664,20.11681 -19.20131,23.64617 L 88.5,144.58513 88.205269,158.04256 c -0.370657,16.9242 0.879467,24.32512 5.853769,34.65516 10.802592,22.43354 35.447112,34.74757 60.507302,30.23344 z m -34.13227,-64.24239 c -0.29536,-0.76968 -0.40135,-4.27703 -0.23554,-7.7941 L 120.5,144.5 h 7.5 7.5 v 7.5 7.5 l -7.26446,0.2941 c -5.50779,0.22298 -7.39432,-0.0443 -7.80147,-1.10533 z m 48,0 c -0.29536,-0.76968 -0.40135,-4.27703 -0.23554,-7.7941 L 168.5,144.5 h 7.5 7.5 v 7.5 7.5 l -7.26446,0.2941 c -5.50779,0.22298 -7.39432,-0.0443 -7.80147,-1.10533 z M 72,156 C 72,144.98013 71.286527,143.9372 66.924314,148.58056 65.0481,150.5777 64.5,152.25512 64.5,156 c 0,3.74488 0.5481,5.4223 2.424314,7.41944 C 71.286527,168.0628 72,167.01987 72,156 Z m 284.31843,66.71456 c -1.19987,-0.66801 -7.15083,-7.827 -13.22435,-15.90886 l -11.04277,-14.6943 -29.27565,-0.3057 C 274.99816,191.51564 273.2953,191.38954 269.5,189.34158 264.81953,186.81598 260.97328,182.89867 258.36416,178 256.596,174.68025 256.5,170.86925 256.5,104 c 0,-66.869246 0.096,-70.68025 1.86416,-74 2.60912,-4.898668 6.45537,-8.815979 11.13584,-11.341583 L 273.5,16.5 H 376 478.5 l 4,2.158417 c 4.68047,2.525604 8.52672,6.442915 11.13584,11.341583 1.76816,3.31975 1.86416,7.130754 1.86416,74 0,66.86925 -0.096,70.68025 -1.86416,74 -2.60912,4.89867 -6.45537,8.81598 -11.13584,11.34158 -3.90501,2.10716 -5.07487,2.16527 -49.26278,2.44698 l -45.26277,0.28856 -11.05565,14.71144 c -10.58315,14.08269 -13.60146,17.14057 -16.9188,17.14057 -0.825,0 -2.48171,-0.54655 -3.68157,-1.21457 z m 12.54277,-32.52857 c 4.43865,-5.9477 8.88975,-11.55562 9.89132,-12.46203 1.62734,-1.47272 6.84011,-1.67864 49.00733,-1.93599 L 474.94614,175.5 477.22307,173.22222 479.5,170.94444 V 104 37.055556 L 477.22222,34.777778 474.94444,32.5 H 376 277.05556 L 274.77778,34.777778 272.5,37.055556 V 104 170.94444 l 2.27631,2.27778 c 2.25752,2.25898 2.53383,2.28029 33.48158,2.58237 27.1716,0.26522 31.43829,0.51547 33.00795,1.93599 0.99147,0.89727 5.43431,6.49771 9.87296,12.44541 C 355.57746,196.1337 359.565,201 360,201 c 0.435,0 4.42254,-4.8663 8.8612,-10.81401 z M 304,136 v -8 h 72 72 v 8 8 h -72 -72 z m 0,-32 v -8 h 72 72 v 8 8 h -72 -72 z m 0,-32 v -8 h 72 72 v 8 8 h -72 -72 z"
         id="path646" />
      <path
         style="fill:#040404"
         d="M 43.860784,493.08995 C 41.515386,491.19235 41.496741,491.0115 41,465.33995 L 40.5,439.5 30.658063,439 C 16.688357,438.2903 17,438.81866 17,415.84376 c 0,-17.70841 0.03096,-17.96563 2.454545,-20.38921 1.35,-1.35 2.925,-2.45455 3.5,-2.45455 1.691962,0 1.212365,-2.58026 -1.38896,-7.47268 -4.250216,-7.99356 -4.781096,-13.47703 -4.295674,-44.37024 0.490034,-31.18677 0.938664,-34.24368 6.867018,-46.79107 5.81064,-12.29824 15.49035,-22.92483 27.646746,-30.35119 2.906021,-1.7753 15.956021,-7.13426 29,-11.90881 L 104.5,243.42502 l 0.28823,-8.07579 0.28824,-8.07579 -5.116006,-3.88672 C 90.242336,216.00368 82.1325,204.37774 77.019871,190.5 l -2.578835,-7 -5.859078,-1.86363 C 57.662191,178.16305 49,166.82266 49,156 c 0,-9.72953 7.939683,-21.33784 16.842534,-24.62483 2.561606,-0.94576 5.180281,-2.11424 5.819276,-2.59662 0.791258,-0.59733 1.285954,-7.31996 1.551045,-21.0778 C 73.565972,89.374466 73.820847,86.943249 75.959593,81.5 79.209601,73.228517 89.156852,63.257694 97.5,59.908548 l 6,-2.408548 53.25427,-0.291189 53.25426,-0.29119 2.54727,2.547269 2.54727,2.547269 -0.34408,58.743921 c -0.38438,65.62416 -0.16752,63.412 -7.71927,78.74392 -6.88457,13.97738 -16.11602,23.28881 -31.24101,31.51169 -7.80348,4.24244 -8.31665,4.72496 -8.59927,8.08559 -0.17414,2.07057 0.2465,4.0091 1,4.6085 0.71531,0.56903 10.75056,5.20511 22.30056,10.3024 29.05188,12.82129 33.36861,15.10579 40.02014,21.17943 9.36936,8.55537 11.83081,13.46802 25.4592,50.81239 l 12.59037,34.5 17.23743,0.27371 c 13.25606,0.21049 17.34174,-0.0205 17.68905,-1 0.24838,-0.70054 3.81807,-21.20054 7.93263,-45.55555 8.25681,-48.87391 8.91064,-51.08925 17.04228,-57.74354 8.93393,-7.31082 4.88351,-6.97462 84.0289,-6.97462 70.77316,0 71.01278,0.007 75,2.15268 7.12737,3.83574 11.24736,10.01702 12.0982,18.15108 0.33949,3.24559 -2.55683,22.62191 -9.37636,62.7276 -5.42718,31.91725 -9.6848,58.57975 -9.46139,59.25 0.23848,0.71542 2.24878,1.21864 4.86834,1.21864 3.40423,0 5.04405,0.58193 6.91666,2.45455 2.42358,2.42358 2.45455,2.6808 2.45455,20.38921 0,22.9749 0.31164,22.44654 -13.65806,23.15624 L 471.5,439.5 471,465.33995 c -0.49674,25.67155 -0.51539,25.8524 -2.86078,27.75 C 465.83227,494.95644 460.99462,495 256,495 51.00538,495 46.167732,494.95644 43.860784,493.08995 Z M 455.77114,460.25 455.5,440.5 H 256 56.5 L 56.22886,460.25 55.95772,480 H 256 456.04228 Z M 480,416 v -8 H 256 32 v 8 8 H 256 480 Z M 103.42857,391.42857 c 2.26795,-2.26795 2.26795,-20.58919 0,-22.85714 C 102.10256,367.24542 98.666667,367 81.428571,367 62.333333,367 60.869464,366.86946 59,365 c -1.893333,-1.89333 -2,-3.33333 -2,-27 v -25 h 7 7 v 18.42857 c 0,15.41991 0.256552,18.68513 1.571429,20 2.331849,2.33185 49.185511,2.36841 50.079361,0.0391 0.32341,-0.84279 0.0453,-5.84383 -0.61796,-11.11342 -0.66329,-5.2696 -0.82952,-9.95428 -0.3694,-10.41042 0.46011,-0.45614 3.75735,-0.9676 7.32719,-1.13658 l 6.49061,-0.30723 1.80734,13.9388 1.80734,13.93879 6.93413,6.65122 c 7.633,7.32159 11.54166,14.32493 12.58674,22.55228 0.34365,2.7054 1.33147,5.48141 2.19515,6.16891 1.75468,1.39675 27.78611,1.79268 29.89119,0.45464 0.89343,-0.56788 1.27954,-10.36832 1.5,-38.07401 l 0.29688,-37.30929 2.36078,-1.91067 c 2.9834,-2.41458 7.59513,-2.45476 9.96307,-0.0868 1.00312,1.00312 5.56667,11.24062 10.14122,22.75 4.57455,11.50938 9.03216,21.50132 9.90579,22.20431 1.14485,0.92123 5.08138,1.20049 14.09652,1 10.92008,-0.24284 12.55011,-0.49731 12.83908,-2.00429 0.49394,-2.5759 -20.51705,-59.53406 -23.96683,-64.97109 -3.75628,-5.92006 -9.38089,-11.02989 -15.62273,-14.19287 C 202.47351,274.67256 168.69676,260 167.0742,260 c -0.9178,0 -3.22246,2.3625 -5.12147,5.25 -3.83971,5.83841 -10.97329,11.13732 -17.29539,12.84723 -6.1262,1.65692 -17.30537,0.65558 -22.52051,-2.0172 -5.20695,-2.66859 -12.3497,-9.76551 -14.11297,-14.02243 C 107.30288,260.31701 106.01363,259 105.0307,259 c -3.64266,0 -42.651587,15.12909 -47.767929,18.52615 -14.24652,9.45915 -22.758672,23.01495 -25.24385,40.20139 -1.291875,8.93407 -1.25174,49.53528 0.05464,55.27246 2.029873,8.91453 9.036095,16.25948 17.746995,18.60501 3.102059,0.83527 12.661216,1.28275 28.358017,1.3275 20.253535,0.0577 23.905877,-0.15981 25.249997,-1.50394 z m 40.50808,0.14776 c 1.56959,-1.89123 0.001,-7.72955 -3.54594,-13.20011 -4.47929,-6.9081 -16.55461,-13.14494 -19.96704,-10.31287 -1.85874,1.54262 -2.05066,21.90966 -0.22367,23.73665 1.82699,1.82699 22.19403,1.63507 23.73665,-0.22367 z m 73.24099,-5.00023 C 216.80006,379.6376 210.60221,363 208.39505,363 207.26654,363 207,365.7385 207,377.33333 c 0,7.88334 0.32075,14.65408 0.71277,15.0461 0.39202,0.39203 2.75452,0.57953 5.25,0.41667 L 217.5,392.5 Z m 79.61592,5.57265 c 1.49992,-0.95154 3.76772,-13.24371 2.87334,-15.57442 C 299.13419,375.18613 295.18125,375 266.23138,375 c -24.20218,0 -33.14678,0.3154 -34.03138,1.2 -1.58902,1.58902 -1.47036,8.68435 0.19551,11.68993 2.67201,4.82088 4.15582,5.03782 34.60449,5.05932 15.675,0.0111 29.0821,-0.34916 29.79356,-0.8005 z m 32.00966,-0.006 c 0.84267,-0.53449 5.03273,-23.19005 11.85681,-64.10966 8.64344,-51.82909 10.30802,-63.44111 9.19678,-64.15631 -3.59981,-2.31688 -13.53954,2.82748 -16.16881,8.36825 -0.89352,1.88295 -5.962,29.42928 -11.26329,61.21409 -7.89149,47.31473 -9.39274,57.94641 -8.28172,58.65039 1.73355,1.09842 12.94078,1.12384 14.66023,0.0332 z m 135.17071,-1.89278 3.00548,-2.75 9.69564,-58.37443 c 8.89218,-53.537 9.5742,-58.59081 8.23007,-60.98554 -2.89129,-5.15119 -2.38533,-5.10948 -62.17656,-5.12529 L 366.95712,263 l -0.93164,2.25 c -1.47113,3.55292 -21.27267,124.66345 -20.64842,126.29023 0.48208,1.25628 8.57777,1.45977 58.07578,1.45977 h 57.51561 l 3.00548,-2.75 z M 406.5,348.62258 c -5.95831,-2.8098 -8.67418,-5.57483 -11.41597,-11.62258 -3.5981,-7.93657 -1.84167,-18.2733 4.22804,-24.88235 1.20336,-1.31028 4.43793,-3.44339 7.18793,-4.74023 9.10995,-4.29604 18.28892,-2.64386 25.52768,4.5949 7.23876,7.23876 8.89094,16.41773 4.5949,25.52768 -2.8098,5.95831 -5.57483,8.67418 -11.62258,11.41597 -6.00848,2.72399 -12.31356,2.62399 -18.5,-0.29339 z m 15.57692,-14.54566 C 424.07192,332.08193 425,330.1525 425,328 c 0,-2.1525 -0.92808,-4.08193 -2.92308,-6.07692 C 420.08193,319.92808 418.1525,319 416,319 c -4.30191,0 -9,4.69809 -9,9 0,2.1525 0.92808,4.08193 2.92308,6.07692 C 411.91807,336.07192 413.8475,337 416,337 c 2.1525,0 4.08193,-0.92808 6.07692,-2.92308 z m -280.3314,-70.61506 c 2.02471,-0.84597 4.54881,-2.30847 5.60911,-3.25 2.91733,-2.59051 5.5988,-9.20909 5.62341,-13.88007 C 153.0152,239.27873 152.68722,239 144.35085,239 c -4.08934,0 -10.84191,-0.70368 -15.00571,-1.56374 -10.59936,-2.18936 -10.68444,-2.12236 -10.15342,7.99486 0.38301,7.29726 0.8102,8.88261 3.25845,12.09244 2.91392,3.82035 9.34475,7.41611 13.33195,7.45448 1.25516,0.0121 3.93869,-0.6702 5.9634,-1.51618 z M 155.5,223.4956 c 22.03768,-4.62687 39.36873,-21.95792 43.9956,-43.9956 1.96694,-9.36849 2.17867,-63.70149 0.2544,-65.28144 -0.86677,-0.71167 -4.21455,-0.46297 -10.91952,0.81119 -27.30452,5.18871 -46.34423,5.2031 -62.12719,0.0469 -5.38819,-1.76028 -11.01319,-3.06015 -12.5,-2.88859 -2.58745,0.29854 -2.72743,0.61186 -3.26671,7.31191 -0.30988,3.85 -1.3807,8.70236 -2.37961,10.78302 -2.46966,5.14415 -8.660459,10.21537 -14.348831,11.75391 -2.589476,0.70038 -5.270639,1.70869 -5.958139,2.24069 -1.808203,1.39922 -1.628693,26.25327 0.254396,35.22238 4.576856,21.79946 21.881654,39.28103 43.495604,43.93992 8.52464,1.83749 14.94088,1.85269 23.5,0.0557 z M 121,152 v -7 h 7 7 v 7 7 h -7 -7 z m 48,0 v -7 h 7 7 v 7 7 h -7 -7 z m -96.214819,4.22039 c 0.239554,-8.61529 0.03143,-10.35353 -1.300882,-10.86479 -2.129258,-0.81707 -6.142344,3.07824 -7.542689,7.32132 -1.320308,4.00058 -0.10828,8.45231 3.284464,12.06372 4.171102,4.43994 5.244482,2.79481 5.559107,-8.52025 z M 93.92742,124.36514 C 95.722742,122.08276 96,120.33761 96,111.31969 c 0,-9.86393 0.135808,-10.54641 2.58629,-12.996889 2.49947,-2.499468 2.89392,-2.56838 11.75,-2.052791 6.33776,0.368976 12.24756,1.512683 19.16371,3.708698 5.66588,1.799032 13.28608,3.415492 17.5819,3.729612 8.98276,0.65686 26.12894,-1.0134 41.4181,-4.034642 L 199.5,97.5 V 85 72.5 h -47 c -46.24772,0 -47.06402,0.03455 -51,2.158417 C 96.819527,77.184021 92.973278,81.101332 90.364162,86 c -1.586993,2.97961 -1.912917,6.287805 -2.192077,22.25 -0.318452,18.20897 -0.270051,18.75 1.67742,18.75 1.102934,0 2.937996,-1.18569 4.077915,-2.63486 z m 263.27424,97.95647 c -0.71408,-0.28628 -6.06572,-6.88825 -11.89252,-14.67106 -5.82681,-7.7828 -11.00149,-14.60055 -11.49931,-15.15055 -0.54462,-0.60172 -12.76765,-1.19914 -30.68921,-1.5 l -29.7841,-0.5 -4.89182,-3.02644 c -3.02899,-1.87395 -6.04431,-4.89053 -7.91826,-7.92158 L 257.5,174.65684 V 104 33.34316 l 3.02644,-4.895144 c 1.87587,-3.034149 4.88743,-6.04571 7.92158,-7.92158 L 273.34316,17.5 H 376 478.65684 l 4.89514,3.026436 c 3.03415,1.87587 6.04571,4.887431 7.92158,7.92158 L 494.5,33.34316 V 104 174.65684 l -3.02644,4.89514 c -1.87465,3.03219 -4.88859,6.04693 -7.91948,7.92158 L 478.66103,190.5 432.8792,191 c -28.59601,0.31231 -46.12199,0.87539 -46.68799,1.5 -0.49839,0.55 -5.66109,7.35123 -11.47267,15.11384 -11.4225,15.25719 -12.94909,16.53897 -17.51688,14.70777 z m 13.22858,-32.84438 c 5.88196,-7.71913 9.94845,-12.1443 11.56976,-12.59024 1.375,-0.3782 22.946,-0.73249 47.93555,-0.78731 45.20697,-0.0992 45.44719,-0.11062 47.75,-2.27399 L 480,171.65137 V 104.14014 36.628902 L 477.82569,34.314451 475.65137,32 H 376.14014 276.6289 L 274.31445,34.174314 272,36.348628 v 67.511232 67.51124 l 2.17431,2.31445 c 2.17332,2.31339 2.18783,2.3145 31.75,2.41413 16.26663,0.0548 30.70069,0.40872 32.07569,0.78645 1.62935,0.44759 5.75311,4.95873 11.84101,12.95331 5.13755,6.74661 9.83116,12.10317 10.43024,11.90348 0.59908,-0.1997 5.17063,-5.71926 10.15899,-12.26569 z M 305.2,142.8 c -1.55804,-1.55804 -1.55804,-12.04196 0,-13.6 1.73583,-1.73583 139.86417,-1.73583 141.6,0 0.66,0.66 1.2,3.72 1.2,6.8 0,3.08 -0.54,6.14 -1.2,6.8 -1.73583,1.73583 -139.86417,1.73583 -141.6,0 z m 0,-32 c -1.55804,-1.55804 -1.55804,-12.04196 0,-13.6 1.73583,-1.735829 139.86417,-1.735829 141.6,0 0.66,0.66 1.2,3.72 1.2,6.8 0,3.08 -0.54,6.14 -1.2,6.8 -1.73583,1.73583 -139.86417,1.73583 -141.6,0 z m 0,-32 c -1.55804,-1.55804 -1.55804,-12.04196 0,-13.6 1.73583,-1.735829 139.86417,-1.735829 141.6,0 0.66,0.66 1.2,3.72 1.2,6.8 0,3.08 -0.54,6.14 -1.2,6.8 -1.73583,1.735829 -139.86417,1.735829 -141.6,0 z"
         id="path644" />
    </g>
  </g>
</svg>
