<?xml version="1.0" encoding="UTF-8" standalone="no"?>
<!-- Created with Inkscape (http://www.inkscape.org/) -->

<svg
   version="1.1"
   id="svg3124"
   width="512"
   height="512"
   viewBox="0 0 512 512"
   xmlns="http://www.w3.org/2000/svg"
   xmlns:svg="http://www.w3.org/2000/svg">
  <defs
     id="defs3128" />
  <g
     id="g3130">
    <g
       id="g3134">
      <path
         style="fill:#8bc8fa"
         d="M 29.326464,510.60488 C 24.946861,509.00886 22.043847,506.2106 19.880731,501.5 18.134911,497.69814 18.042836,492.16661 18.021962,389.83124 L 18,282.16249 21.5,278.8612 c 3.392114,-3.19953 3.5,-3.53121 3.5,-10.76024 0,-7.24721 -0.09936,-7.54996 -3.5,-10.66483 L 18,254.23026 18.021962,134.36513 C 18.042881,20.19449 18.131186,14.30997 19.880731,10.5 22.127308,5.6076468 24.924931,3.0170223 29.792643,1.3214771 32.772164,0.28363611 71.292011,0.03011268 226,0.03011268 c 203.97868,0 196.88534,-0.15881379 202.05974,4.52394762 C 433.59896,9.56699 433.45983,8.0975022 434,67.292695 l 0.5,54.792695 8.5,0.20878 c 8.33745,0.20478 8.78028,0.34552 23.1559,7.3592 15.93148,7.77275 20.90735,11.77885 25.03258,20.15382 1.84274,3.7411 2.30588,6.31523 2.28369,12.69281 l -0.0278,8 L 463.7222,232.81773 434,295.13545 433.978,396.31773 c -0.0208,96.04092 -0.1153,101.38552 -1.85877,105.18227 -2.24658,4.89235 -5.0442,7.48298 -9.91191,9.17852 -5.1158,1.78196 -387.985912,1.71019 -392.880896,-0.0736 z m 315.995926,-120.03226 6.8224,-6.33227 -11.3224,-5.47307 c -6.22731,-3.01019 -11.37288,-5.42677 -11.43459,-5.37018 -0.0617,0.0566 -0.40724,4.47553 -0.76786,9.81985 l -0.65566,9.71694 3.76786,1.98886 c 2.07232,1.09387 4.44286,1.98735 5.26786,1.9855 0.825,-0.002 4.57008,-2.85288 8.32239,-6.33563 z"
         id="path3148" />
      <path
         style="fill:#68aade"
         d="m 28.30748,509.99478 c -2.671678,-1.1878 -5.210938,-3.40278 -7,-6.10606 L 18.5,499.6466 18.236732,391.66802 c -0.289313,-118.6605 -0.681202,-110.83545 5.716484,-114.14383 3.40081,-1.75862 6.449834,-0.97109 9.546784,2.46585 1.969996,2.18626 2.003951,3.81569 2.263388,108.61476 L 36.026776,495 H 213.51339 391 v -52.55414 -52.55414 l -26.07505,24.21617 c -40.15718,37.2944 -40.69287,37.75795 -44.44883,38.46257 -4.51323,0.84669 -10.33394,-2.05138 -12.82962,-6.38773 -1.81416,-3.15217 -1.85158,-4.27201 -0.75189,-22.5 0.63652,-10.5505 1.39819,-21.09523 1.69262,-23.43273 L 309.12255,396 H 195.01161 c -125.143753,0 -118.659526,0.31735 -120.831671,-5.91367 -1.390589,-3.98905 -0.170206,-8.0044 3.19691,-10.5186 2.75674,-2.05844 3.284921,-2.06894 117.555841,-2.33813 l 114.78666,-0.2704 0.64033,-6.12629 c 0.35217,-3.36946 0.651,-7.74778 0.66406,-9.7296 0.0198,-3.00633 1.46246,-7.31541 5.64243,-16.85331 0.43649,-0.99599 -23.29975,-1.25113 -116.80918,-1.25558 -77.67417,-0.004 -118.615037,-0.35497 -121.077507,-1.03886 -6.836611,-1.89871 -9.023219,-9.23542 -4.366176,-14.6498 l 2.413306,-2.80576 124.873667,-0.26143 124.87368,-0.26143 7.72381,-16.23857 c 4.24809,-8.93121 7.71895,-16.80107 7.71302,-17.48857 C 342.00179,289.25789 320.0122,289 235.42308,289 H 128.84615 l -2.92307,-2.92308 c -3.93001,-3.93001 -3.93001,-8.22383 0,-12.15384 L 128.84615,271 h 111.42591 111.4259 l 8.90102,-18.62376 c 5.06232,-10.59198 9.92953,-19.43293 11.28588,-20.5 1.31167,-1.03193 4.01167,-1.89426 6,-1.91628 3.48047,-0.0385 3.73104,-0.29227 6.72629,-6.81076 l 3.11116,-6.77072 -2.36116,-2.745 c -3.25781,-3.78744 -2.97107,-7.14851 1.38885,-16.27969 l 3.75,-7.85379 0.27884,-46.92316 c 0.22138,-37.254 0.0153,-47.090384 -1,-47.734686 C 389.07548,94.395813 309.1875,94.023735 212.25,94.015313 L 36,94 v 78.53212 c 0,86.01901 0.140475,83.92441 -5.793277,86.38225 -2.563803,1.06196 -3.585515,0.99972 -6.530748,-0.39789 -1.920302,-0.91124 -3.989587,-2.86273 -4.598411,-4.33664 -0.793292,-1.92049 -1.031951,-36.56156 -0.842259,-122.25309 L 18.5,12.353491 21.302638,8.1186452 C 23.202727,5.247569 25.564181,3.2584388 28.635543,1.9418995 33.06843,0.04174242 37.310909,0 226,0 c 188.68909,0 192.93157,0.04174242 197.36446,1.9418995 3.07086,1.3163241 5.43312,3.3059258 7.3329,6.1760842 l 2.80264,4.2341843 0.27446,55.249139 0.27445,55.249143 5.41586,-0.55897 c 7.27701,-0.75105 12.46074,0.7113 27.0136,7.62063 13.85398,6.57752 20.31639,11.77595 24.22295,19.48517 3.14166,6.19976 3.95117,14.52648 2.00298,20.60272 -0.79355,2.475 -14.32037,31.53899 -30.05961,64.58664 l -28.61679,60.08664 -0.26395,102.48669 -0.26395,102.48669 -2.80264,4.23477 c -1.90005,2.87097 -4.2616,4.86016 -7.3329,6.17667 -4.43492,1.90103 -8.59604,1.94041 -197.69737,1.87126 -186.217035,-0.0681 -193.317935,-0.1377 -197.35961,-1.93458 z m 317.01491,-119.42216 6.8224,-6.33227 -11.3224,-5.47307 c -6.22731,-3.01019 -11.37288,-5.42677 -11.43459,-5.37018 -0.0617,0.0566 -0.40724,4.47553 -0.76786,9.81985 l -0.65566,9.71694 3.76786,1.98886 c 2.07232,1.09387 4.44286,1.98735 5.26786,1.9855 0.825,-0.002 4.57008,-2.85288 8.32239,-6.33563 z M 100.5,219.20041 c -3.139107,-1.09933 -4.984418,-2.50097 -6.810355,-5.17292 C 92.190496,211.83375 92,207.96101 92,179.67749 V 147.8 l 3.4,-3.4 3.4,-3.4 h 13.94272 c 12.66462,0 14.34672,0.21323 18.35,2.32617 9.21153,4.86187 14.25613,16.1571 11.97221,26.80667 -1.05967,4.94108 -1.00517,5.17119 2.04831,8.64892 4.41323,5.02638 5.88676,9.17257 5.88676,16.564 0,10.15275 -3.51876,16.52322 -11.82314,21.40495 -4.52471,2.65985 -5.19739,2.75581 -20.67686,2.9497 -8.8,0.11023 -16.9,-0.11477 -18,-0.5 z m 31.64835,-20.62667 c 1.58766,-3.48452 0.28168,-7.45975 -2.84076,-8.64689 -1.4501,-0.55133 -6.27504,-0.87292 -10.72207,-0.71463 L 110.5,189.5 l -0.2999,5.75 -0.29991,5.75 h 10.57134 c 10.22,0 10.60809,-0.0806 11.67682,-2.42626 z m -8.71978,-29.14517 C 124.29286,168.56429 125,166.33012 125,164.46376 125,160.18251 122.95817,159 115.56574,159 H 110 v 6 6 h 5.92857 c 4.05628,0 6.42484,-0.49627 7.5,-1.57143 z M 170.5,219.05464 c -1.1,-0.45022 -2.9,-1.81894 -4,-3.0416 -1.91715,-2.13093 -2,-3.63069 -2,-36.20461 v -33.9816 l 2.80576,-2.41341 c 3.0031,-2.58316 7.48032,-3.13346 10.84464,-1.33293 4.27142,2.286 4.8496,6.26648 4.8496,33.38739 V 201 h 12.375 c 6.80625,0 13.75008,0.27502 15.43074,0.61115 6.20195,1.24039 9.46388,6.9095 7.16669,12.45542 -2.22396,5.3691 -4.77091,5.94033 -26.17277,5.87004 C 181.18485,219.90175 171.6,219.50486 170.5,219.05464 Z m 75.70496,-0.88303 c -7.46879,-2.67263 -12.18327,-6.86383 -16.02982,-14.25061 l -3.32485,-6.38495 0.32508,-18.51802 c 0.3707,-21.11724 0.9954,-23.23365 9.04899,-30.65719 6.51029,-6.00098 11.83957,-7.69804 22.56391,-7.18531 9.92444,0.4745 15.60643,2.95226 20.7645,9.05486 C 285.7318,157.5409 286.5,160.83273 286.5,180 c 0,16.1484 -0.17773,17.88617 -2.30122,22.5 -4.80672,10.44382 -13.67001,16.3741 -25.58858,17.12088 -5.33198,0.33409 -8.43446,-0.0284 -12.40524,-1.44927 z M 265.07692,198.07692 268,195.15385 v -15.02116 c 0,-14.28964 -0.1135,-15.15311 -2.33056,-17.7306 -1.87576,-2.1807 -3.40937,-2.79891 -7.85875,-3.16788 -5.05623,-0.4193 -5.81769,-0.19996 -8.91943,2.56928 l -3.39126,3.02771 -0.33674,12.21528 c -0.40204,14.58407 0.19203,18.39972 3.35756,21.56525 1.95132,1.95132 3.41692,2.38827 8.01065,2.38827 4.88087,0 6.00788,-0.38551 8.54545,-2.92308 z m 47.91661,21.04481 c -4.74945,-1.55096 -8.82263,-4.089 -10.99607,-6.85175 C 297.37391,206.39283 297,204.01518 297,180.49207 v -22.26369 l 2.79337,-5.34711 c 1.74151,-3.33365 4.40841,-6.48321 7.0824,-8.36419 l 4.28904,-3.01708 18.27791,-0.31036 18.27791,-0.31036 2.73894,3.25504 c 2.22538,2.64471 2.63257,3.91045 2.17168,6.75058 -1.11728,6.885 -2.78184,7.55386 -20.19567,8.1151 -12.31079,0.39677 -15.70905,0.80969 -16.45939,2 -1.02941,1.63301 -1.35815,35.84104 -0.3692,38.41821 0.50151,1.30691 2.4787,1.58179 11.37755,1.58179 12.52958,0 13.28405,-0.4514 12.82342,-7.67231 L 339.5,188.5 l -5.38442,-0.65714 c -3.8724,-0.47261 -6.10486,-1.37759 -7.95,-3.22273 -5.33761,-5.33762 -1.95669,-13.96838 5.9761,-15.2557 5.71786,-0.92788 14.511,1.39172 18.47742,4.87428 5.69469,5.00001 7.3809,9.3986 7.3809,19.25357 0,12.61946 -3.34252,18.98153 -12.5,23.79219 -3.36156,1.76591 -6.07493,2.14555 -17,2.37853 -7.15,0.15249 -14.12791,-0.0911 -15.50647,-0.54127 z"
         id="path3146" />
      <path
         style="fill:#989898"
         d="m 28.30748,509.99478 c -2.67168,-1.1878 -5.210937,-3.40278 -7,-6.10606 L 18.5,499.6466 18.236824,391.25955 17.973647,282.87251 20.9099,279.93625 c 3.588695,-3.58869 7.026173,-3.7554 10.784336,-0.52303 L 34.5,281.82645 35,388.66322 35.5,495.5 l 190.2804,0.25258 c 151.69825,0.20136 190.3773,-0.001 190.75835,-1 0.26288,-0.68892 0.3617,-37.47758 0.21961,-81.75258 L 416.5,332.5 l -7.86222,16 c -4.32422,8.8 -10.93362,22.3 -14.68755,30 l -6.82533,14 -29.70071,27.5 c -16.33539,15.125 -31.32599,28.51019 -33.31245,29.74488 -4.40575,2.73839 -7.63932,2.84063 -11.69143,0.36965 -5.57046,-3.39686 -5.85389,-5.48108 -4.19999,-30.88486 0.81389,-12.50132 1.29571,-23.06717 1.07072,-23.47967 C 309.06605,395.3375 257.44421,395 194.57584,395 82.087628,395 80.2296,394.96844 77.747236,393.01582 72.564997,388.93947 73.869996,381.28678 80.118839,379.10842 82.373826,378.32232 116.37794,378 197.05299,378 h 113.75455 l 0.72959,-10.70401 c 0.58608,-8.59859 1.29344,-11.96073 3.59623,-17.09322 C 316.71001,346.68871 318,343.40551 318,342.90678 318,342.36951 269.77211,342 199.64922,342 c -83.83065,0 -119.275484,-0.32236 -121.521106,-1.10518 -1.743682,-0.60785 -3.610833,-1.92827 -4.149223,-2.93426 -1.563876,-2.92213 -1.137113,-7.54359 0.932652,-10.09978 l 1.911542,-2.36078 125.121395,-0.2615 125.12139,-0.2615 8.45387,-17.60535 c 4.64962,-9.68294 8.20825,-18.00276 7.90805,-18.4885 C 343.11755,288.38119 296.70456,288 235.89553,288 H 128.90909 l -2.45454,-2.45455 c -3.24735,-3.24734 -3.24735,-7.84356 0,-11.0909 L 128.90909,272 h 111.48644 c 88.10276,0 111.6515,-0.26218 112.27342,-1.25 0.43284,-0.6875 4.52219,-9.125 9.08746,-18.75 4.56526,-9.625 9.23753,-18.2875 10.38282,-19.25 1.14528,-0.9625 3.55752,-1.75 5.36053,-1.75 3.09997,0 3.47432,-0.413 6.8858,-7.59661 l 3.60762,-7.59661 -1.99659,-2.53825 C 384.89846,211.8725 384,209.52238 384,208.04606 c 0,-2.46453 7.214,-18.48636 25.8662,-57.44719 L 417,135.69774 V 114.96303 94.228328 L 388.75,93.554474 C 373.2125,93.183854 287.375,93.01998 198,93.19031 L 35.5,93.5 35,173.8369 34.5,254.17381 31.694236,256.5869 C 30.151066,257.91411 27.648419,259 26.132798,259 c -3.165275,0 -6.859717,-3.03207 -7.649072,-6.27768 -0.297267,-1.22227 -0.415214,-55.80529 -0.262105,-121.29558 L 18.5,12.353488 21.302638,8.1186434 C 23.202726,5.2475697 25.564183,3.2584383 28.635543,1.9418995 33.06843,0.04174242 37.310909,0 226,0 c 188.68909,0 192.93157,0.04174242 197.36446,1.9418995 3.07086,1.3163241 5.43312,3.3059258 7.3329,6.1760842 l 2.80264,4.2341843 0.27446,55.249139 0.27445,55.249143 5.41586,-0.55897 c 7.27701,-0.75105 12.46074,0.7113 27.0136,7.62063 13.85398,6.57752 20.31639,11.77595 24.22295,19.48517 3.14166,6.19976 3.95117,14.52648 2.00298,20.60272 -0.79355,2.475 -14.32037,31.53899 -30.05961,64.58664 l -28.61679,60.08664 -0.26395,102.48669 -0.26395,102.48669 -2.80264,4.23477 c -1.90005,2.87097 -4.2616,4.86016 -7.3329,6.17667 -4.43492,1.90103 -8.59604,1.94041 -197.69737,1.87126 -186.217035,-0.0681 -193.317935,-0.1377 -197.35961,-1.93458 z m 317.01491,-119.42216 6.8224,-6.33227 -11.3224,-5.47307 c -6.22731,-3.01019 -11.37288,-5.42677 -11.43459,-5.37018 -0.0617,0.0566 -0.40724,4.47553 -0.76786,9.81985 l -0.65566,9.71694 3.76786,1.98886 c 2.07232,1.09387 4.44286,1.98735 5.26786,1.9855 0.825,-0.002 4.57008,-2.85288 8.32239,-6.33563 z M 97.897883,216.71537 c -1.941457,-1.30537 -3.909475,-3.76998 -4.591441,-5.75 -1.453388,-4.21976 -1.730207,-54.42733 -0.333375,-60.46537 0.553862,-2.39416 2.026652,-4.8796 3.668589,-6.19102 5.861114,-4.68125 28.339154,-4.11219 35.721654,0.90435 8.16831,5.55051 12.00983,15.32599 9.79441,24.92373 -1.15129,4.98766 -1.11508,5.14748 1.95975,8.64952 4.44,5.05688 5.88253,9.17562 5.88253,16.79597 0,10.92345 -6.22813,19.61492 -16.08044,22.44052 -1.87349,0.53731 -9.98028,0.97693 -18.01507,0.97693 -13.55721,0 -14.8533,-0.16444 -18.006607,-2.28463 z M 132.4433,199.77749 c 2.08231,-2.97292 1.96281,-6.0544 -0.34534,-8.90484 -1.65627,-2.04541 -2.94952,-2.39649 -10.00851,-2.71706 -4.45856,-0.20247 -9.22764,-0.0867 -10.59796,0.25719 C 109.15678,188.99875 109,189.44593 109,195.51905 V 202 h 10.9433 c 10.17487,0 11.0526,-0.15606 12.5,-2.22251 z m -8.66581,-29.33419 c 1.654,-1.15851 2.22251,-2.5595 2.22251,-5.47695 0,-5.38518 -2.81734,-7.17503 -10.65496,-6.76909 L 109.5,158.5 l -0.3068,5.3808 c -0.16873,2.95944 -0.0704,5.99694 0.21862,6.75 0.75734,1.97359 11.4801,1.83363 14.36567,-0.1875 z m 44.52827,46.14442 -2.80576,-2.41227 -0.29345,-31.83773 c -0.1614,-17.51074 -0.0375,-32.86167 0.27543,-34.11316 C 166.34454,144.77451 169.65913,142 172.91821,142 181.5718,142 182,143.57385 182,175.37995 v 26.47926 l 15.58895,0.3204 15.58895,0.32039 2.41105,2.80576 c 3.22615,3.75431 3.06252,7.19662 -0.51203,10.77116 L 212.15385,219 h -20.52116 c -20.24816,0 -20.55849,-0.0321 -23.32693,-2.41228 z m 77.90988,0.58234 c -7.71035,-2.75183 -11.92095,-6.71776 -15.85429,-14.93302 -2.45476,-5.12706 -2.51133,-5.73389 -2.19059,-23.5 0.31895,-17.66706 0.4124,-18.37768 2.99003,-22.73704 5.88403,-9.95125 13.72234,-14.26321 25.83166,-14.21033 12.29553,0.0537 21.57591,5.72394 26.38483,16.12094 1.90793,4.125 2.12272,6.36016 2.12272,22.08939 0,17.14403 -0.057,17.61603 -2.80109,23.2041 -4.76286,9.69901 -12.86571,14.88307 -24.19891,15.48201 -5.0843,0.2687 -8.44618,-0.1462 -12.28436,-1.51605 z M 263.85497,200.575 C 268.26148,198.29631 269,195.26668 269,179.46872 c 0,-14.41083 -0.005,-14.4429 -2.80939,-17.58142 -3.54882,-3.97182 -10.9615,-5.09138 -16.10378,-2.4322 C 245.18973,161.98749 244,166.0032 244,180 c 0,13.10503 1.12191,17.57112 5.11687,20.36931 2.89849,2.03017 10.99151,2.14312 14.7381,0.20569 z m 47.78229,16.96019 c -4.69861,-1.67501 -9.17075,-5.77215 -11.72884,-10.74535 -1.7121,-3.32849 -1.90616,-6.00316 -1.88646,-26 0.0191,-19.39516 0.25846,-22.81042 1.84302,-26.29842 1.98396,-4.36715 7.81361,-10.02746 11.99611,-11.64762 3.48784,-1.35108 24.51021,-2.31513 30.59309,-1.40294 10.10887,1.51592 13.1053,11.00515 4.86156,15.3958 C 345.96399,157.5566 339.96102,158 331.56574,158 312.98128,158 314,156.72031 314,180.06574 c 0,10.54083 0.43118,18.87142 1.03518,20 C 315.96063,201.79495 317.21629,202 326.8802,202 339.61135,202 341,201.19293 341,193.7937 c 0,-5.44791 -0.97297,-6.36843 -7.467,-7.06453 -12.05222,-1.29188 -12.7238,-14.82087 -0.815,-16.41817 9.20474,-1.23462 18.52881,3.33214 22.43455,10.98803 3.15849,6.19114 2.9813,19.02267 -0.35212,25.50014 -2.74463,5.33333 -8.58246,9.89931 -14.37413,11.24252 -6.03212,1.39898 -24.34783,1.07674 -28.78904,-0.5065 z"
         id="path3144" />
      <path
         style="fill:#f88729"
         d="m 30.5,510.57872 c -4.006783,-1.79369 -8.967503,-7.2866 -10.365892,-11.47794 -1.522502,-4.56335 -1.623405,-214.318 -0.104464,-217.15617 1.367662,-2.5555 6.611865,-5.19317 8.888451,-4.47061 0.999975,0.31738 2.664985,1.5127 3.700021,2.65627 1.811008,2.00091 1.900715,6.09572 2.381884,108.72447 L 35.5,495.5 l 190.2804,0.25258 c 151.69825,0.20136 190.3773,-0.001 190.75835,-1 0.26288,-0.68892 0.3617,-37.47758 0.21961,-81.75258 L 416.5,332.5 l -7.86222,16 c -4.32422,8.8 -10.93362,22.3 -14.68755,30 l -6.82533,14 -29.70071,27.5 c -16.33539,15.125 -31.32599,28.51019 -33.31245,29.74488 -4.40575,2.73839 -7.63932,2.84063 -11.69143,0.36965 -5.57046,-3.39686 -5.85389,-5.48108 -4.19999,-30.88486 0.81389,-12.50132 1.29571,-23.06717 1.07072,-23.47967 C 309.06605,395.3375 257.44421,395 194.57584,395 82.087628,395 80.2296,394.96844 77.747236,393.01582 72.564997,388.93947 73.869996,381.28678 80.118839,379.10842 82.373826,378.32232 116.37794,378 197.05299,378 h 113.75455 l 0.72959,-10.70401 c 0.58608,-8.59859 1.29344,-11.96073 3.59623,-17.09322 C 316.71001,346.68871 318,343.40551 318,342.90678 318,342.36951 269.77211,342 199.64922,342 c -83.83065,0 -119.275484,-0.32236 -121.521106,-1.10518 -1.743682,-0.60785 -3.610833,-1.92827 -4.149223,-2.93426 -1.563876,-2.92213 -1.137113,-7.54359 0.932652,-10.09978 l 1.911542,-2.36078 125.121395,-0.2615 125.12139,-0.2615 8.45387,-17.60535 c 4.64962,-9.68294 8.20825,-18.00276 7.90805,-18.4885 C 343.11755,288.38119 296.70456,288 235.89553,288 H 128.90909 l -2.45454,-2.45455 c -3.24735,-3.24734 -3.24735,-7.84356 0,-11.0909 L 128.90909,272 h 111.48644 c 88.10276,0 111.6515,-0.26218 112.27342,-1.25 0.43284,-0.6875 4.52219,-9.125 9.08746,-18.75 4.56526,-9.625 9.29322,-18.33259 10.50657,-19.35021 1.62947,-1.36661 3.21719,-1.7146 6.0744,-1.33136 l 3.86831,0.51885 3.78026,-8.16864 c 3.47885,-7.5173 3.63533,-8.22394 1.96253,-8.86223 -2.2465,-0.8572 -3.94848,-3.90029 -3.94848,-7.05975 0,-2.19641 7.64711,-19.09165 25.8662,-57.14779 L 417,135.69774 V 114.96303 94.228328 L 388.75,93.554474 C 373.2125,93.183854 287.375,93.01998 198,93.19031 L 35.5,93.5 35,173.8369 l -0.5,80.33691 -2.805764,2.41309 c -3.6663,3.1532 -5.807105,3.04422 -9.588481,-0.48811 L 19,253.19758 V 134.74801 C 19,49.10875 19.314146,15.356868 20.134108,12.899223 21.572597,8.5876863 26.552365,3.1681367 30.717881,1.3807584 33.417493,0.2223841 64.853853,0 225.90278,0 358.84163,0 418.73542,0.32635085 420.6849,1.0613339 423.73212,2.2101802 429.45242,7.2811976 431.33208,10.5 432.1674,11.930448 432.64239,28.29338 433,67.958987 l 0.5,55.458983 8.5,0.0784 c 8.28716,0.0764 8.84778,0.24014 22.38869,6.53702 15.92368,7.40494 21.30431,11.60483 25.30516,19.75216 2.26663,4.61577 2.80496,7.06028 2.79995,12.71444 l -0.006,7 -29.75109,62.5 -29.7511,62.5 0.002,100.5 c 10e-4,62.71497 -0.36751,101.82905 -0.98034,104.03498 -1.11419,4.01061 -7.11704,10.32287 -11.32189,11.90548 -1.94782,0.73312 -62.02381,1.04748 -195,1.0204 C 67.059395,511.92855 32.976139,511.6872 30.5,510.57872 Z m 300.4342,-90.01083 3.32653,-3.43211 -3.75249,-1.56789 C 328.44437,414.70555 326.58571,414 326.37788,414 326.17004,414 326,416.25 326,419 c 0,2.75 0.36172,5 0.80383,5 0.44211,0 2.30078,-1.54445 4.13037,-3.43211 z m 19.55872,-16.55644 c 0.35034,-0.56686 -0.0511,-0.7345 -0.94098,-0.39301 -1.73242,0.66479 -2.04939,1.38156 -0.61096,1.38156 0.51754,0 1.21592,-0.44485 1.55194,-0.98855 z m -7.93405,-2.54325 c -1.06762,-0.80751 -2.30512,-1.4682 -2.75,-1.4682 -2.10211,0 -0.1657,-2.3852 7.2506,-8.93103 4.4327,-3.91242 8.4827,-6.85192 9,-6.53222 0.51729,0.31971 0.94053,0.30306 0.94053,-0.037 C 357,383.68895 330.22033,371 328.50914,371 c -0.95965,0 -1.51023,2.8397 -2.03048,10.47242 -0.39259,5.75983 -0.44027,11.18524 -0.10595,12.05646 0.33432,0.87122 4.32472,3.34624 8.86757,5.50006 8.96074,4.24839 10.30112,4.69513 7.31859,2.43926 z M 361,394.5 c 2.98742,-3.025 5.20668,-5.5 4.93168,-5.5 -0.275,0 -2.94426,2.475 -5.93168,5.5 -2.98742,3.025 -5.20668,5.5 -4.93168,5.5 0.275,0 2.94426,-2.475 5.93168,-5.5 z m 2,-7.5 c -0.825,-0.53316 -1.95,-0.96937 -2.5,-0.96937 -0.55,0 -0.325,0.43621 0.5,0.96937 0.825,0.53316 1.95,0.96937 2.5,0.96937 0.55,0 0.325,-0.43621 -0.5,-0.96937 z M 395.75,76.338651 416,75.682555 V 46.49939 17.316224 L 397.25,16.660938 C 386.9375,16.30053 301.7525,16.00438 207.95,16.002826 76.630172,16.00065 37.123974,16.276026 36.2,17.2 35.322546,18.077454 35,26.096296 35,47.033333 c 0,15.748334 0.3,28.933334 0.666667,29.3 0.863211,0.863212 333.453393,0.868124 360.083333,0.0053 z M 80.421119,55.590055 C 76.946959,54.06718 74.46462,49.262193 75.487339,46.03989 75.85524,44.880739 77.105946,43.047565 78.266686,41.966171 80.330843,40.043116 82.248908,40 165.73402,40 h 85.35689 l 2.45454,2.454545 c 3.17876,3.178753 3.19493,7.573108 0.0414,11.239691 L 251.17362,56.5 167.33681,56.719831 C 98.787669,56.899576 82.938565,56.693561 80.421119,55.590055 Z M 330.26993,56.222817 C 327.25237,55.740165 324,51.38124 324,47.819687 c 0,-6.567809 8.93923,-10.319883 13.79933,-5.79201 6.24367,5.816862 1.07007,15.570614 -7.5294,14.19514 z m 37.03243,-0.23461 c -1.2087,-0.486761 -2.90575,-2.254354 -3.77122,-3.927984 -4.257,-8.232138 6.47023,-16.149758 13.01431,-9.605678 3.61399,3.613986 3.35397,8.610856 -0.62218,11.956561 -3.2291,2.717114 -4.99012,3.039272 -8.62091,1.577101 z m -78.42122,-0.994918 c -0.89038,-0.520242 -2.18247,-2.306558 -2.87132,-3.969592 -3.5582,-8.590237 8.26964,-15.569059 14.01268,-8.267959 4.30659,5.474943 0.8588,13.269288 -5.84508,13.213853 -2.02258,-0.01672 -4.40591,-0.456061 -5.29628,-0.976302 z M 97.897883,216.71537 c -1.941457,-1.30537 -3.909475,-3.76998 -4.591441,-5.75 -1.453388,-4.21976 -1.730207,-54.42733 -0.333375,-60.46537 0.553862,-2.39416 2.026652,-4.8796 3.668589,-6.19102 5.861114,-4.68125 28.339154,-4.11219 35.721654,0.90435 8.16831,5.55051 12.00983,15.32599 9.79441,24.92373 -1.15129,4.98766 -1.11508,5.14748 1.95975,8.64952 4.44,5.05688 5.88253,9.17562 5.88253,16.79597 0,10.92345 -6.22813,19.61492 -16.08044,22.44052 -1.87349,0.53731 -9.98028,0.97693 -18.01507,0.97693 -13.55721,0 -14.8533,-0.16444 -18.006607,-2.28463 z M 132.4433,199.77749 c 2.08231,-2.97292 1.96281,-6.0544 -0.34534,-8.90484 -1.65627,-2.04541 -2.94952,-2.39649 -10.00851,-2.71706 -4.45856,-0.20247 -9.22764,-0.0867 -10.59796,0.25719 C 109.15678,188.99875 109,189.44593 109,195.51905 V 202 h 10.9433 c 10.17487,0 11.0526,-0.15606 12.5,-2.22251 z m -8.66581,-29.33419 c 1.654,-1.15851 2.22251,-2.5595 2.22251,-5.47695 0,-5.38518 -2.81734,-7.17503 -10.65496,-6.76909 L 109.5,158.5 l -0.3068,5.3808 c -0.16873,2.95944 -0.0704,5.99694 0.21862,6.75 0.75734,1.97359 11.4801,1.83363 14.36567,-0.1875 z m 44.52827,46.14442 -2.80576,-2.41227 -0.29345,-31.83773 c -0.1614,-17.51074 -0.0375,-32.86167 0.27543,-34.11316 C 166.34454,144.77451 169.65913,142 172.91821,142 181.5718,142 182,143.57385 182,175.37995 v 26.47926 l 15.58895,0.3204 15.58895,0.32039 2.41105,2.80576 c 3.22615,3.75431 3.06252,7.19662 -0.51203,10.77116 L 212.15385,219 h -20.52116 c -20.24816,0 -20.55849,-0.0321 -23.32693,-2.41228 z m 77.90988,0.58234 c -7.71035,-2.75183 -11.92095,-6.71776 -15.85429,-14.93302 -2.45476,-5.12706 -2.51133,-5.73389 -2.19059,-23.5 0.31895,-17.66706 0.4124,-18.37768 2.99003,-22.73704 5.88403,-9.95125 13.72234,-14.26321 25.83166,-14.21033 12.29553,0.0537 21.57591,5.72394 26.38483,16.12094 1.90793,4.125 2.12272,6.36016 2.12272,22.08939 0,17.14403 -0.057,17.61603 -2.80109,23.2041 -4.76286,9.69901 -12.86571,14.88307 -24.19891,15.48201 -5.0843,0.2687 -8.44618,-0.1462 -12.28436,-1.51605 z M 263.85497,200.575 C 268.26148,198.29631 269,195.26668 269,179.46872 c 0,-14.41083 -0.005,-14.4429 -2.80939,-17.58142 -3.54882,-3.97182 -10.9615,-5.09138 -16.10378,-2.4322 C 245.18973,161.98749 244,166.0032 244,180 c 0,13.10503 1.12191,17.57112 5.11687,20.36931 2.89849,2.03017 10.99151,2.14312 14.7381,0.20569 z m 47.78229,16.96019 c -4.69861,-1.67501 -9.17075,-5.77215 -11.72884,-10.74535 -1.7121,-3.32849 -1.90616,-6.00316 -1.88646,-26 0.0191,-19.39516 0.25846,-22.81042 1.84302,-26.29842 1.98396,-4.36715 7.81361,-10.02746 11.99611,-11.64762 3.48784,-1.35108 24.51021,-2.31513 30.59309,-1.40294 10.10887,1.51592 13.1053,11.00515 4.86156,15.3958 C 345.96399,157.5566 339.96102,158 331.56574,158 312.98128,158 314,156.72031 314,180.06574 c 0,10.54083 0.43118,18.87142 1.03518,20 C 315.96063,201.79495 317.21629,202 326.8802,202 339.61135,202 341,201.19293 341,193.7937 c 0,-5.44791 -0.97297,-6.36843 -7.467,-7.06453 -12.05222,-1.29188 -12.7238,-14.82087 -0.815,-16.41817 9.20474,-1.23462 18.52881,3.33214 22.43455,10.98803 3.15849,6.19114 2.9813,19.02267 -0.35212,25.50014 -2.74463,5.33333 -8.58246,9.89931 -14.37413,11.24252 -6.03212,1.39898 -24.34783,1.07674 -28.78904,-0.5065 z"
         id="path3142" />
      <path
         style="fill:#e6592d"
         d="m 30.5,510.57872 c -4.006783,-1.79369 -8.967503,-7.2866 -10.365892,-11.47794 -1.522502,-4.56335 -1.623405,-214.318 -0.104464,-217.15617 1.367662,-2.5555 6.611865,-5.19317 8.888451,-4.47061 0.999975,0.31738 2.664985,1.5127 3.700021,2.65627 1.811008,2.00091 1.900715,6.09572 2.381884,108.72447 L 35.5,495.5 l 190.2804,0.25258 c 151.69825,0.20136 190.3773,-0.001 190.75835,-1 0.26288,-0.68892 0.3617,-37.47758 0.21961,-81.75258 L 416.5,332.5 l -7.86222,16 c -4.32422,8.8 -10.93362,22.3 -14.68755,30 l -6.82533,14 -29.70071,27.5 c -16.33539,15.125 -31.32599,28.51019 -33.31245,29.74488 -4.40575,2.73839 -7.63932,2.84063 -11.69143,0.36965 -5.57046,-3.39686 -5.85389,-5.48108 -4.19999,-30.88486 0.81389,-12.50132 1.29571,-23.06717 1.07072,-23.47967 C 309.06605,395.3375 257.44421,395 194.57584,395 82.087628,395 80.2296,394.96844 77.747236,393.01582 72.564997,388.93947 73.869996,381.28678 80.118839,379.10842 82.373826,378.32232 116.37794,378 197.05299,378 h 113.75455 l 0.72959,-10.70401 c 0.58608,-8.59859 1.29344,-11.96073 3.59623,-17.09322 C 316.71001,346.68871 318,343.40551 318,342.90678 318,342.36951 269.77211,342 199.64922,342 c -83.83065,0 -119.275484,-0.32236 -121.521106,-1.10518 -1.743682,-0.60785 -3.610833,-1.92827 -4.149223,-2.93426 -1.563876,-2.92213 -1.137113,-7.54359 0.932652,-10.09978 l 1.911542,-2.36078 125.121395,-0.2615 125.12139,-0.2615 8.45387,-17.60535 c 4.64962,-9.68294 8.20825,-18.00276 7.90805,-18.4885 C 343.11755,288.38119 296.70456,288 235.89553,288 H 128.90909 l -2.45454,-2.45455 c -3.24735,-3.24734 -3.24735,-7.84356 0,-11.0909 L 128.90909,272 h 111.48644 c 88.10276,0 111.6515,-0.26218 112.27342,-1.25 0.43284,-0.6875 4.52219,-9.125 9.08746,-18.75 4.56526,-9.625 9.29322,-18.33259 10.50657,-19.35021 4.7655,-3.99673 13.73702,9.4e-4 13.73702,6.12116 0,1.40216 -11.94913,27.68123 -26.55363,58.39793 -14.6045,30.7167 -26.33069,56.20929 -26.05819,56.65019 0.71602,1.15855 31.52774,15.59834 32.08812,15.03797 C 366.40619,367.92714 446,199.95058 446,198.91801 446,198.04997 416.10397,183 414.37967,183 c -0.28972,0 -3.82864,6.88668 -7.86426,15.30372 -4.03562,8.41705 -7.98291,15.83938 -8.77176,16.49407 C 395.64963,216.53567 390,217.50398 390,216.125 390,215.50625 389.35052,215 388.5567,215 386.54471,215 384,211.06759 384,207.95841 c 0,-2.38596 7.33329,-18.64789 25.8662,-57.35954 L 417,135.69774 V 114.96303 94.228328 L 388.75,93.554474 C 373.2125,93.183854 287.375,93.01998 198,93.19031 L 35.5,93.5 35,173.8369 l -0.5,80.33691 -2.805764,2.41309 c -3.6663,3.1532 -5.807105,3.04422 -9.588481,-0.48811 L 19,253.19758 V 134.74801 C 19,49.10875 19.314146,15.356868 20.134108,12.899223 21.572597,8.5876863 26.552365,3.1681367 30.717881,1.3807584 33.417493,0.2223841 64.853853,0 225.90278,0 358.84163,0 418.73542,0.32635085 420.6849,1.0613339 423.73212,2.2101802 429.45242,7.2811976 431.33208,10.5 432.1674,11.930448 432.64239,28.29338 433,67.958987 l 0.5,55.458983 8.5,0.0784 c 8.28716,0.0764 8.84778,0.24014 22.38869,6.53702 15.92368,7.40494 21.30431,11.60483 25.30516,19.75216 2.26663,4.61577 2.80496,7.06028 2.79995,12.71444 l -0.006,7 -29.75109,62.5 -29.7511,62.5 0.002,100.5 c 10e-4,62.71497 -0.36751,101.82905 -0.98034,104.03498 -1.11419,4.01061 -7.11704,10.32287 -11.32189,11.90548 -1.94782,0.73312 -62.02381,1.04748 -195,1.0204 C 67.059395,511.92855 32.976139,511.6872 30.5,510.57872 Z m 300.4342,-90.01083 3.32653,-3.43211 -3.75249,-1.56789 C 328.44437,414.70555 326.58571,414 326.37788,414 326.17004,414 326,416.25 326,419 c 0,2.75 0.36172,5 0.80383,5 0.44211,0 2.30078,-1.54445 4.13037,-3.43211 z m 26.83325,-23.15393 c 4.53433,-4.17233 7.98047,-8.01282 7.65809,-8.53443 C 364.65244,387.62862 330.48252,371 328.68515,371 c -1.01128,0 -1.56845,2.09125 -2.03841,7.65088 -1.12734,13.33636 -0.93341,15.11518 1.8464,16.93658 2.23625,1.46525 19.25588,9.2288 20.51847,9.35956 0.28139,0.0291 4.22152,-3.36074 8.75584,-7.53306 z M 395.75,76.338651 416,75.682555 V 46.49939 17.316224 L 397.25,16.660938 C 386.9375,16.30053 301.7525,16.00438 207.95,16.002826 76.630172,16.00065 37.123974,16.276026 36.2,17.2 35.322546,18.077454 35,26.096296 35,47.033333 c 0,15.748334 0.3,28.933334 0.666667,29.3 0.863211,0.863212 333.453393,0.868124 360.083333,0.0053 z M 80.421119,55.590055 C 76.946959,54.06718 74.46462,49.262193 75.487339,46.03989 75.85524,44.880739 77.105946,43.047565 78.266686,41.966171 80.330843,40.043116 82.248908,40 165.73402,40 h 85.35689 l 2.45454,2.454545 c 3.17876,3.178753 3.19493,7.573108 0.0414,11.239691 L 251.17362,56.5 167.33681,56.719831 C 98.787669,56.899576 82.938565,56.693561 80.421119,55.590055 Z M 330.26993,56.222817 C 327.25237,55.740165 324,51.38124 324,47.819687 c 0,-6.567809 8.93923,-10.319883 13.79933,-5.79201 6.24367,5.816862 1.07007,15.570614 -7.5294,14.19514 z m 37.03243,-0.23461 c -1.2087,-0.486761 -2.90575,-2.254354 -3.77122,-3.927984 -4.257,-8.232138 6.47023,-16.149758 13.01431,-9.605678 3.61399,3.613986 3.35397,8.610856 -0.62218,11.956561 -3.2291,2.717114 -4.99012,3.039272 -8.62091,1.577101 z m -78.42122,-0.994918 c -0.89038,-0.520242 -2.18247,-2.306558 -2.87132,-3.969592 -3.5582,-8.590237 8.26964,-15.569059 14.01268,-8.267959 4.30659,5.474943 0.8588,13.269288 -5.84508,13.213853 -2.02258,-0.01672 -4.40591,-0.456061 -5.29628,-0.976302 z M 97.897883,216.71537 c -1.941457,-1.30537 -3.909475,-3.76998 -4.591441,-5.75 -1.453388,-4.21976 -1.730207,-54.42733 -0.333375,-60.46537 0.553862,-2.39416 2.026652,-4.8796 3.668589,-6.19102 5.861114,-4.68125 28.339154,-4.11219 35.721654,0.90435 8.16831,5.55051 12.00983,15.32599 9.79441,24.92373 -1.15129,4.98766 -1.11508,5.14748 1.95975,8.64952 4.44,5.05688 5.88253,9.17562 5.88253,16.79597 0,10.92345 -6.22813,19.61492 -16.08044,22.44052 -1.87349,0.53731 -9.98028,0.97693 -18.01507,0.97693 -13.55721,0 -14.8533,-0.16444 -18.006607,-2.28463 z M 132.4433,199.77749 c 2.08231,-2.97292 1.96281,-6.0544 -0.34534,-8.90484 -1.65627,-2.04541 -2.94952,-2.39649 -10.00851,-2.71706 -4.45856,-0.20247 -9.22764,-0.0867 -10.59796,0.25719 C 109.15678,188.99875 109,189.44593 109,195.51905 V 202 h 10.9433 c 10.17487,0 11.0526,-0.15606 12.5,-2.22251 z m -8.66581,-29.33419 c 1.654,-1.15851 2.22251,-2.5595 2.22251,-5.47695 0,-5.38518 -2.81734,-7.17503 -10.65496,-6.76909 L 109.5,158.5 l -0.3068,5.3808 c -0.16873,2.95944 -0.0704,5.99694 0.21862,6.75 0.75734,1.97359 11.4801,1.83363 14.36567,-0.1875 z m 44.52827,46.14442 -2.80576,-2.41227 -0.29345,-31.83773 c -0.1614,-17.51074 -0.0375,-32.86167 0.27543,-34.11316 C 166.34454,144.77451 169.65913,142 172.91821,142 181.5718,142 182,143.57385 182,175.37995 v 26.47926 l 15.58895,0.3204 15.58895,0.32039 2.41105,2.80576 c 3.22615,3.75431 3.06252,7.19662 -0.51203,10.77116 L 212.15385,219 h -20.52116 c -20.24816,0 -20.55849,-0.0321 -23.32693,-2.41228 z m 77.90988,0.58234 c -7.71035,-2.75183 -11.92095,-6.71776 -15.85429,-14.93302 -2.45476,-5.12706 -2.51133,-5.73389 -2.19059,-23.5 0.31895,-17.66706 0.4124,-18.37768 2.99003,-22.73704 5.88403,-9.95125 13.72234,-14.26321 25.83166,-14.21033 12.29553,0.0537 21.57591,5.72394 26.38483,16.12094 1.90793,4.125 2.12272,6.36016 2.12272,22.08939 0,17.14403 -0.057,17.61603 -2.80109,23.2041 -4.76286,9.69901 -12.86571,14.88307 -24.19891,15.48201 -5.0843,0.2687 -8.44618,-0.1462 -12.28436,-1.51605 z M 263.85497,200.575 C 268.26148,198.29631 269,195.26668 269,179.46872 c 0,-14.41083 -0.005,-14.4429 -2.80939,-17.58142 -3.54882,-3.97182 -10.9615,-5.09138 -16.10378,-2.4322 C 245.18973,161.98749 244,166.0032 244,180 c 0,13.10503 1.12191,17.57112 5.11687,20.36931 2.89849,2.03017 10.99151,2.14312 14.7381,0.20569 z m 47.78229,16.96019 c -4.69861,-1.67501 -9.17075,-5.77215 -11.72884,-10.74535 -1.7121,-3.32849 -1.90616,-6.00316 -1.88646,-26 0.0191,-19.39516 0.25846,-22.81042 1.84302,-26.29842 1.98396,-4.36715 7.81361,-10.02746 11.99611,-11.64762 3.48784,-1.35108 24.51021,-2.31513 30.59309,-1.40294 10.10887,1.51592 13.1053,11.00515 4.86156,15.3958 C 345.96399,157.5566 339.96102,158 331.56574,158 312.98128,158 314,156.72031 314,180.06574 c 0,10.54083 0.43118,18.87142 1.03518,20 C 315.96063,201.79495 317.21629,202 326.8802,202 339.61135,202 341,201.19293 341,193.7937 c 0,-5.44791 -0.97297,-6.36843 -7.467,-7.06453 -12.05222,-1.29188 -12.7238,-14.82087 -0.815,-16.41817 9.20474,-1.23462 18.52881,3.33214 22.43455,10.98803 3.15849,6.19114 2.9813,19.02267 -0.35212,25.50014 -2.74463,5.33333 -8.58246,9.89931 -14.37413,11.24252 -6.03212,1.39898 -24.34783,1.07674 -28.78904,-0.5065 z"
         id="path3140" />
      <path
         style="fill:#4d7595"
         d="m 30.5,510.57872 c -4.006783,-1.79369 -8.967503,-7.2866 -10.365892,-11.47794 -1.522502,-4.56335 -1.623405,-214.318 -0.104464,-217.15617 1.367662,-2.5555 6.611865,-5.19317 8.888451,-4.47061 0.999975,0.31738 2.664985,1.5127 3.700021,2.65627 1.811008,2.00091 1.900715,6.09572 2.381884,108.72447 L 35.5,495.5 l 190.2804,0.25258 c 151.69825,0.20136 190.3773,-0.001 190.75835,-1 0.26288,-0.68892 0.3617,-37.47758 0.21961,-81.75258 L 416.5,332.5 l -7.86222,16 c -4.32422,8.8 -10.93362,22.3 -14.68755,30 l -6.82533,14 -29.70071,27.5 c -16.33539,15.125 -31.32599,28.51019 -33.31245,29.74488 -4.40575,2.73839 -7.63932,2.84063 -11.69143,0.36965 -5.57046,-3.39686 -5.85389,-5.48108 -4.19999,-30.88486 0.81389,-12.50132 1.29571,-23.06717 1.07072,-23.47967 C 309.06605,395.3375 257.44421,395 194.57584,395 82.087628,395 80.2296,394.96844 77.747236,393.01582 72.564997,388.93947 73.869996,381.28678 80.118839,379.10842 82.373826,378.32232 116.37794,378 197.05299,378 h 113.75455 l 0.72959,-10.70401 c 0.58608,-8.59859 1.29344,-11.96073 3.59623,-17.09322 C 316.71001,346.68871 318,343.40551 318,342.90678 318,342.36951 269.77211,342 199.64922,342 c -83.83065,0 -119.275484,-0.32236 -121.521106,-1.10518 -1.743682,-0.60785 -3.610833,-1.92827 -4.149223,-2.93426 -1.563876,-2.92213 -1.137113,-7.54359 0.932652,-10.09978 l 1.911542,-2.36078 125.121395,-0.2615 125.12139,-0.2615 8.45387,-17.60535 c 4.64962,-9.68294 8.20825,-18.00276 7.90805,-18.4885 C 343.11755,288.38119 296.70456,288 235.89553,288 H 128.90909 l -2.45454,-2.45455 c -3.24735,-3.24734 -3.24735,-7.84356 0,-11.0909 L 128.90909,272 h 111.48644 c 88.10276,0 111.6515,-0.26218 112.27342,-1.25 0.43284,-0.6875 4.52219,-9.125 9.08746,-18.75 4.56526,-9.625 9.23753,-18.2875 10.38282,-19.25 4.81602,-4.04738 11.86077,-0.56408 11.86077,5.86461 0,2.1665 -8.77224,21.68651 -26.51791,59.00769 -14.58486,30.67362 -26.37745,56.19162 -26.20577,56.70667 C 331.62833,355.385 374.59582,376 376.44487,376 c 1.1463,0 81.4235,-167.36016 82.28959,-171.55555 0.37142,-1.79914 -2.36105,-3.38979 -21.90505,-12.75158 -12.28118,-5.88281 -22.67697,-10.69531 -23.10177,-10.69445 -0.42479,8.7e-4 -4.15056,7.08908 -8.27948,15.75158 -4.12893,8.6625 -8.25487,16.3125 -9.16878,17 -0.9139,0.6875 -3.35011,1.25 -5.41381,1.25 C 386.60691,215 384,212.32625 384,207.95841 c 0,-2.38596 7.33329,-18.64789 25.8662,-57.35954 L 417,135.69774 V 114.96303 94.228328 L 388.75,93.554474 C 373.2125,93.183854 287.375,93.01998 198,93.19031 L 35.5,93.5 35,173.8369 l -0.5,80.33691 -2.805764,2.41309 c -3.6663,3.1532 -5.807105,3.04422 -9.588481,-0.48811 L 19,253.19758 V 134.74801 C 19,49.10875 19.314146,15.356868 20.134108,12.899223 21.572597,8.5876863 26.552365,3.1681367 30.717881,1.3807584 33.417493,0.2223841 64.853853,0 225.90278,0 358.84163,0 418.73542,0.32635085 420.6849,1.0613339 423.73212,2.2101802 429.45242,7.2811976 431.33208,10.5 432.1674,11.930448 432.64239,28.29338 433,67.958987 l 0.5,55.458983 8.5,0.0784 c 8.28716,0.0764 8.84778,0.24014 22.38869,6.53702 15.92368,7.40494 21.30431,11.60483 25.30516,19.75216 2.26663,4.61577 2.80496,7.06028 2.79995,12.71444 l -0.006,7 -29.75109,62.5 -29.7511,62.5 0.002,100.5 c 10e-4,62.71497 -0.36751,101.82905 -0.98034,104.03498 -1.11419,4.01061 -7.11704,10.32287 -11.32189,11.90548 -1.94782,0.73312 -62.02381,1.04748 -195,1.0204 C 67.059395,511.92855 32.976139,511.6872 30.5,510.57872 Z m 300.4342,-90.01083 3.32653,-3.43211 -3.75249,-1.56789 C 328.44437,414.70555 326.58571,414 326.37788,414 326.17004,414 326,416.25 326,419 c 0,2.75 0.36172,5 0.80383,5 0.44211,0 2.30078,-1.54445 4.13037,-3.43211 z m 26.92157,-22.70675 C 362.0601,393.93476 365.5,390.10645 365.5,389.35377 365.5,388.00944 331.24282,371 328.53532,371 c -0.99289,0 -1.52889,2.72928 -2.05666,10.47242 -0.39259,5.75983 -0.44126,11.18265 -0.10816,12.0507 0.60695,1.58169 19.93652,11.43548 22.48527,11.4625 0.74568,0.008 4.79568,-3.19811 9,-7.12448 z M 472.18003,177.25 c 8.97357,-18.76273 7.47149,-22.87106 -11.88639,-32.51044 C 449.65926,139.44411 446.9601,138.5 442.45498,138.5 c -3.80453,0 -6.10814,0.58918 -8.13165,2.07979 -3.00181,2.21127 -13.1196,21.31867 -13.24957,25.02176 -0.0622,1.7727 3.25133,3.67867 21.17624,12.18064 11.6875,5.5435 22.0462,10.11031 23.01934,10.14845 1.28826,0.0505 3.16726,-2.85354 6.91069,-10.68064 z M 395.75,76.338651 416,75.682555 V 46.49939 17.316224 L 397.25,16.660938 C 386.9375,16.30053 301.7525,16.00438 207.95,16.002826 76.630172,16.00065 37.123974,16.276026 36.2,17.2 35.322546,18.077454 35,26.096296 35,47.033333 c 0,15.748334 0.3,28.933334 0.666667,29.3 0.863211,0.863212 333.453393,0.868124 360.083333,0.0053 z M 80.421119,55.590055 C 76.946959,54.06718 74.46462,49.262193 75.487339,46.03989 75.85524,44.880739 77.105946,43.047565 78.266686,41.966171 80.330843,40.043116 82.248908,40 165.73402,40 h 85.35689 l 2.45454,2.454545 c 3.17876,3.178753 3.19493,7.573108 0.0414,11.239691 L 251.17362,56.5 167.33681,56.719831 C 98.787669,56.899576 82.938565,56.693561 80.421119,55.590055 Z M 330.26993,56.222817 C 327.25237,55.740165 324,51.38124 324,47.819687 c 0,-6.567809 8.93923,-10.319883 13.79933,-5.79201 6.24367,5.816862 1.07007,15.570614 -7.5294,14.19514 z m 37.03243,-0.23461 c -1.2087,-0.486761 -2.90575,-2.254354 -3.77122,-3.927984 -4.257,-8.232138 6.47023,-16.149758 13.01431,-9.605678 3.61399,3.613986 3.35397,8.610856 -0.62218,11.956561 -3.2291,2.717114 -4.99012,3.039272 -8.62091,1.577101 z m -78.42122,-0.994918 c -0.89038,-0.520242 -2.18247,-2.306558 -2.87132,-3.969592 -3.5582,-8.590237 8.26964,-15.569059 14.01268,-8.267959 4.30659,5.474943 0.8588,13.269288 -5.84508,13.213853 -2.02258,-0.01672 -4.40591,-0.456061 -5.29628,-0.976302 z M 97.897883,216.71537 c -1.941457,-1.30537 -3.909475,-3.76998 -4.591441,-5.75 -1.453388,-4.21976 -1.730207,-54.42733 -0.333375,-60.46537 0.553862,-2.39416 2.026652,-4.8796 3.668589,-6.19102 5.861114,-4.68125 28.339154,-4.11219 35.721654,0.90435 8.16831,5.55051 12.00983,15.32599 9.79441,24.92373 -1.15129,4.98766 -1.11508,5.14748 1.95975,8.64952 4.44,5.05688 5.88253,9.17562 5.88253,16.79597 0,10.92345 -6.22813,19.61492 -16.08044,22.44052 -1.87349,0.53731 -9.98028,0.97693 -18.01507,0.97693 -13.55721,0 -14.8533,-0.16444 -18.006607,-2.28463 z M 132.4433,199.77749 c 2.08231,-2.97292 1.96281,-6.0544 -0.34534,-8.90484 -1.65627,-2.04541 -2.94952,-2.39649 -10.00851,-2.71706 -4.45856,-0.20247 -9.22764,-0.0867 -10.59796,0.25719 C 109.15678,188.99875 109,189.44593 109,195.51905 V 202 h 10.9433 c 10.17487,0 11.0526,-0.15606 12.5,-2.22251 z m -8.66581,-29.33419 c 1.654,-1.15851 2.22251,-2.5595 2.22251,-5.47695 0,-5.38518 -2.81734,-7.17503 -10.65496,-6.76909 L 109.5,158.5 l -0.3068,5.3808 c -0.16873,2.95944 -0.0704,5.99694 0.21862,6.75 0.75734,1.97359 11.4801,1.83363 14.36567,-0.1875 z m 44.52827,46.14442 -2.80576,-2.41227 -0.29345,-31.83773 c -0.1614,-17.51074 -0.0375,-32.86167 0.27543,-34.11316 C 166.34454,144.77451 169.65913,142 172.91821,142 181.5718,142 182,143.57385 182,175.37995 v 26.47926 l 15.58895,0.3204 15.58895,0.32039 2.41105,2.80576 c 3.22615,3.75431 3.06252,7.19662 -0.51203,10.77116 L 212.15385,219 h -20.52116 c -20.24816,0 -20.55849,-0.0321 -23.32693,-2.41228 z m 77.90988,0.58234 c -7.71035,-2.75183 -11.92095,-6.71776 -15.85429,-14.93302 -2.45476,-5.12706 -2.51133,-5.73389 -2.19059,-23.5 0.31895,-17.66706 0.4124,-18.37768 2.99003,-22.73704 5.88403,-9.95125 13.72234,-14.26321 25.83166,-14.21033 12.29553,0.0537 21.57591,5.72394 26.38483,16.12094 1.90793,4.125 2.12272,6.36016 2.12272,22.08939 0,17.14403 -0.057,17.61603 -2.80109,23.2041 -4.76286,9.69901 -12.86571,14.88307 -24.19891,15.48201 -5.0843,0.2687 -8.44618,-0.1462 -12.28436,-1.51605 z M 263.85497,200.575 C 268.26148,198.29631 269,195.26668 269,179.46872 c 0,-14.41083 -0.005,-14.4429 -2.80939,-17.58142 -3.54882,-3.97182 -10.9615,-5.09138 -16.10378,-2.4322 C 245.18973,161.98749 244,166.0032 244,180 c 0,13.10503 1.12191,17.57112 5.11687,20.36931 2.89849,2.03017 10.99151,2.14312 14.7381,0.20569 z m 47.78229,16.96019 c -4.69861,-1.67501 -9.17075,-5.77215 -11.72884,-10.74535 -1.7121,-3.32849 -1.90616,-6.00316 -1.88646,-26 0.0191,-19.39516 0.25846,-22.81042 1.84302,-26.29842 1.98396,-4.36715 7.81361,-10.02746 11.99611,-11.64762 3.48784,-1.35108 24.51021,-2.31513 30.59309,-1.40294 10.10887,1.51592 13.1053,11.00515 4.86156,15.3958 C 345.96399,157.5566 339.96102,158 331.56574,158 312.98128,158 314,156.72031 314,180.06574 c 0,10.54083 0.43118,18.87142 1.03518,20 C 315.96063,201.79495 317.21629,202 326.8802,202 339.61135,202 341,201.19293 341,193.7937 c 0,-5.44791 -0.97297,-6.36843 -7.467,-7.06453 -12.05222,-1.29188 -12.7238,-14.82087 -0.815,-16.41817 9.20474,-1.23462 18.52881,3.33214 22.43455,10.98803 3.15849,6.19114 2.9813,19.02267 -0.35212,25.50014 -2.74463,5.33333 -8.58246,9.89931 -14.37413,11.24252 -6.03212,1.39898 -24.34783,1.07674 -28.78904,-0.5065 z"
         id="path3138" />
      <path
         style="fill:#0c0e0f"
         d="M 33.366594,511.3146 C 30.158046,510.67821 22.923896,504.06211 21.369877,500.34282 20.239055,497.63638 20,478.42508 20,390.25462 20,271.77193 19.584089,279 26.401716,279 c 7.047266,0 6.542096,-8.11285 6.834765,109.76397 0.212222,85.47581 0.516564,106.3894 1.56345,107.4362 1.054504,1.05442 33.716863,1.34616 172.999999,1.54522 94.43504,0.13496 180.25007,-0.09 190.70007,-0.5 l 19,-0.74539 0.25573,-83.83524 c 0.18501,-60.65095 -0.0486,-83.7338 -0.84473,-83.46843 -0.60526,0.20176 -7.69534,14.21375 -15.75573,31.13778 L 386.5,391.10506 l -29,26.98964 c -15.95,14.8443 -30.45147,28.14066 -32.2255,29.54747 -5.71261,4.53012 -13.25962,3.03102 -15.84077,-3.14654 -1.2002,-2.87247 -1.1835,-6.47964 0.11856,-25.60998 0.83353,-12.24662 1.29153,-22.85027 1.01777,-23.56366 -0.40301,-1.05024 -22.3694,-1.34702 -115.42907,-1.55953 C 83.721044,393.50802 80.145341,393.4418 78.104824,391.59501 75.434565,389.17827 75.384715,384.61529 78,382 c 1.97658,-1.97658 3.343721,-2.00018 116.75,-2.01531 63.1125,-0.008 115.33956,-0.38921 116.06013,-0.84618 0.86019,-0.54552 1.59124,-4.62954 2.12864,-11.89164 0.68903,-9.311 1.3297,-12.16981 4.04988,-18.07131 1.77725,-3.8558 2.93031,-7.49768 2.56234,-8.09305 C 319.07697,340.31553 283.77613,340 198.44098,340 79.333333,340 77.977859,339.97786 76,338 c -2.520992,-2.52099 -2.555569,-6.09228 -0.08849,-9.13922 l 1.911513,-2.36078 125.131487,-0.26525 125.13148,-0.26524 8.02257,-16.73476 c 4.41241,-9.20411 8.27432,-17.97225 8.582,-19.48475 L 345.25,287 H 237.57955 129.90909 l -2.45454,-2.45455 c -3.11462,-3.11461 -3.11462,-5.97629 0,-9.0909 L 129.90909,273 h 111.59807 111.59807 l 9.69739,-19.75 c 8.28753,-16.87865 10.10709,-19.89058 12.51545,-20.71698 2.09497,-0.71886 3.50625,-0.5825 5.5,0.53142 5.75404,3.21479 5.50819,3.89525 -23.28626,64.45329 -14.6122,30.73114 -26.42717,56.29619 -26.25549,56.81124 C 331.62833,355.385 374.59582,376 376.44487,376 c 1.1463,0 81.4235,-167.36016 82.28959,-171.55555 0.37142,-1.79914 -2.36105,-3.38979 -21.90505,-12.75158 -12.28118,-5.88281 -22.67697,-10.69531 -23.10177,-10.69445 -0.42479,8.7e-4 -4.15056,7.08908 -8.27948,15.75158 -4.12893,8.6625 -8.25487,16.3125 -9.16878,17 -4.6035,3.46307 -12.04914,-1.15121 -10.92524,-6.77068 0.28074,-1.40374 7.74932,-17.80091 16.59682,-36.43816 l 16.08638,-33.8859 -0.26867,-22.07763 L 417.5,92.5 226.5,92.243346 C 47.814609,92.003239 35.419407,92.096155 34.25,93.684475 33.274827,95.008981 33,112.78519 33,174.53614 c 0,77.43939 -0.0426,79.19244 -1.966864,80.93387 -2.731673,2.47213 -7.023574,2.26002 -9.222708,-0.45579 C 20.085845,252.88445 20,247.13236 20,133.70494 20,15.961907 20.022756,14.584441 22.036603,10.424388 c 1.196726,-2.4721048 3.774173,-5.38595 6.25,-7.0657247 L 32.5,0.5 H 226 419.5 l 4.2134,2.8586633 c 2.47582,1.6797747 5.05327,4.5936199 6.25,7.0657247 1.9719,4.073403 2.0366,5.926618 2.0366,58.332319 0,37.557843 0.3294,54.328843 1.07614,54.790353 0.59188,0.3658 4.97938,0.73558 9.75,0.82173 8.51217,0.15373 8.92559,0.27878 22.17747,6.70815 15.30815,7.427 19.3614,10.54297 23.54999,18.10421 2.59199,4.67907 2.9405,6.28113 2.89731,13.31885 l -0.0491,8 -29.687,62.18563 -29.687,62.18563 -0.26391,102.4913 c -0.26212,101.79697 -0.2779,102.51002 -2.32861,105.25648 -1.13559,1.52085 -3.76482,4.14124 -5.84273,5.82308 l -3.77803,3.05788 -192.15727,0.11887 c -105.6865,0.0654 -193.117303,-0.0715 -194.290676,-0.30427 z M 330.99213,422.50797 c 3.22511,-3.26567 5.03547,-5.82606 4.46584,-6.31601 -0.52688,-0.45319 -2.90465,-1.66553 -5.28392,-2.69409 -3.70168,-1.60025 -4.45709,-1.66287 -5.23469,-0.43399 -1.1118,1.75703 -1.24874,14.93612 -0.1552,14.93612 0.43129,0 3.22487,-2.47141 6.20797,-5.49203 z M 359.34967,396.947 c 4.20626,-3.92818 7.35618,-7.61393 6.99981,-8.19055 C 365.64533,387.61711 329.76264,370 328.14618,370 c -1.37328,0 -1.98832,3.93887 -2.34223,15 l -0.30395,9.5 11.5,5.63497 c 7.99091,3.91553 11.98851,5.37854 13.10096,4.79458 0.88052,-0.46221 5.04244,-4.05436 9.24871,-7.98255 z M 472.18003,177.25 c 8.97357,-18.76273 7.47149,-22.87106 -11.88639,-32.51044 C 449.65926,139.44411 446.9601,138.5 442.45498,138.5 c -3.80453,0 -6.10814,0.58918 -8.13165,2.07979 -3.00181,2.21127 -13.1196,21.31867 -13.24957,25.02176 -0.0622,1.7727 3.25133,3.67867 21.17624,12.18064 11.6875,5.5435 22.0462,10.11031 23.01934,10.14845 1.28826,0.0505 3.16726,-2.85354 6.91069,-10.68064 z M 416.41821,77.393011 C 417.81172,76.85827 418,73.232138 418,46.928195 418,18.432092 417.91178,17.023156 416.06574,16.035184 413.08606,14.440509 36.796655,14.603345 35.2,16.2 34.32066,17.07934 34,25.318519 34,47.033333 c 0,16.298334 0.3,29.933334 0.666667,30.3 0.832832,0.832833 379.582443,0.892041 381.751543,0.05968 z M 369,55.280562 C 361.58345,52.603001 362.83914,41 370.54545,41 373.77527,41 378,45.161948 378,48.343761 c 0,4.384007 -5.12645,8.335249 -9,6.936801 z M 78.488321,52.987095 C 75.907897,50.135758 76.13328,45.120245 78.944117,42.844168 81.117231,41.084487 85.089779,41 165.65624,41 h 84.43467 l 2.45454,2.454545 c 2.99864,2.998632 3.10374,5.450432 0.38197,8.910596 L 250.85484,55 H 165.58241 C 81.397732,55 80.286738,54.974323 78.488321,52.987095 Z M 288.94412,53.155832 C 284.07102,49.209836 287.20364,41 293.58241,41 297.09252,41 301,44.6875 301,48 c 0,0.951655 -0.93266,2.915969 -2.07258,4.365141 -2.48198,3.155326 -6.65495,3.485831 -9.9833,0.790691 z m 38.23019,-0.470283 c -2.8208,-3.002611 -2.76512,-6.781885 0.14014,-9.511235 C 332.13571,38.644976 339,41.479666 339,48 c 0,2.882676 -0.57408,4.288692 -2.22251,5.443296 -3.1827,2.229254 -7.08641,1.921229 -9.60318,-0.757747 z M 101.78592,217.28721 c -1.49274,-0.22722 -3.855245,-1.76932 -5.250001,-3.42689 L 94,210.84655 v -31.0002 -31.0002 l 3.018553,-3.01855 3.018557,-3.01855 13.89742,0.34547 c 13.57738,0.33752 13.99546,0.41457 18.15467,3.34548 2.34149,1.65 5.34539,5.025 6.67533,7.5 2.18237,4.06134 2.37144,5.37468 1.93962,13.47287 l -0.47847,8.97286 3.40164,3.97405 c 4.06515,4.74921 5.73255,10.27179 5.15455,17.07237 -0.87598,10.30673 -6.95658,17.30728 -16.88173,19.43585 -4.73556,1.01559 -24.27112,1.24862 -30.11422,0.35921 z m 31.30417,-16.14799 c 2.92478,-3.61524 2.5531,-9.48812 -0.76569,-12.09869 -2.39904,-1.88708 -3.76864,-2.07548 -13.25,-1.82258 L 108.5,187.5 l -0.29708,7.41189 c -0.20987,5.23623 0.0837,7.66768 1,8.2833 0.7134,0.47928 5.95012,0.74393 11.63717,0.58811 9.48548,-0.25988 10.49795,-0.47842 12.25,-2.64408 z M 125,171 c 1.39984,-1.39984 2,-3.33333 2,-6.4433 C 127,158.43602 124.77234,157 115.27749,157 H 108 v 7.33333 c 0,4.03334 0.3,7.63334 0.66667,8 0.36666,0.36667 3.74166,0.66667 7.5,0.66667 5.5,0 7.22357,-0.39024 8.83333,-2 z m 47.5,46.31032 c -1.1,-0.28424 -2.7875,-1.21508 -3.75,-2.06855 -1.60065,-1.41932 -1.75,-4.39741 -1.75,-34.89676 0,-32.01168 0.08,-33.42498 2,-35.34501 1.1,-1.1 3.125,-2 4.5,-2 1.375,0 3.4,0.9 4.5,2 1.89962,1.89962 2,3.33333 2,28.56574 0,16.40009 0.39612,27.30591 1.03518,28.5 0.95426,1.78304 2.23209,1.93426 16.34502,1.93426 13.32871,0 15.50868,0.22645 16.84653,1.75 2.89319,3.29476 3.00818,5.86521 0.39822,8.90204 l -2.44764,2.84796 -18.83866,0.16356 c -10.36126,0.09 -19.73865,-0.069 -20.83865,-0.35324 z m 78.22263,-0.3384 c -9.94704,-1.69475 -18.11611,-9.29203 -20.83049,-19.37247 -0.61559,-2.28615 -0.91433,-10.66213 -0.71387,-20.01538 0.30339,-14.15632 0.6025,-16.56349 2.49559,-20.08407 4.97,-9.24272 13.73235,-14.4424 24.398,-14.47804 12.14797,-0.0406 20.6152,4.69557 25.33791,14.17281 2.49263,5.00207 2.58986,5.85932 2.58046,22.75157 -0.009,16.3662 -0.16967,17.8919 -2.37352,22.55366 -1.30006,2.75 -3.65817,6.21337 -5.24023,7.69639 -5.97042,5.59662 -16.40223,8.3518 -25.65385,6.77553 z m 11.64159,-14.35074 c 1.81499,-0.75835 4.27553,-2.61904 5.46788,-4.13486 2.01675,-2.56388 2.1679,-3.86106 2.1679,-18.6054 v -15.84937 l -2.83201,-3.16957 c -2.39753,-2.6833 -3.70083,-3.24162 -8.49495,-3.63919 -6.99981,-0.58048 -11.00657,0.96277 -13.6642,5.2629 -1.76972,2.86347 -2.00884,4.97448 -2.00884,17.73446 0,13.42739 0.16668,14.73198 2.28463,17.88197 3.52814,5.24733 10.75817,7.16032 17.07959,4.51906 z m 52.54087,14.51197 c -6.37754,-1.36228 -10.22401,-4.30925 -13.15509,-10.07873 -2.74238,-5.39805 -2.75,-5.47158 -2.75,-26.53739 0,-20.60177 0.0627,-21.25009 2.53311,-26.20763 1.58061,-3.17187 4.08505,-6.15986 6.66039,-7.94634 4.08623,-2.83458 4.29461,-2.8662 20.94675,-3.17866 l 16.81946,-0.3156 2.61592,2.61592 c 2.04599,2.04599 2.47179,3.20411 1.95434,5.3156 -1.30046,5.3067 -2.39477,5.66104 -19.1467,6.19968 -13.90808,0.4472 -15.69989,0.705 -16.96679,2.44113 -2.05902,2.82166 -2.05651,39.30132 0.003,42.11774 1.25578,1.71739 2.68449,1.94113 12.39501,1.94113 13.77555,0 15.1856,-0.88514 15.1856,-9.53254 0,-6.80423 -1.07052,-8.0083 -7.75055,-8.71749 C 328.39049,184.62795 326,182.67197 326,178.5 c 0,-5.30145 2.64261,-6.78714 11.2951,-6.35021 6.27465,0.31685 7.95944,0.80698 11.15667,3.24562 5.09697,3.88765 7.50029,9.5134 7.52069,17.60459 0.0303,12.01261 -3.45823,18.55795 -11.87538,22.28125 -4.90126,2.16807 -22.48865,3.28378 -29.19199,1.8519 z"
         id="path3136" />
    </g>
  </g>
</svg>
