<?xml version="1.0" encoding="UTF-8" standalone="no"?>
<!-- Created with Inkscape (http://www.inkscape.org/) -->

<svg
   version="1.1"
   id="svg116"
   width="512"
   height="512"
   viewBox="0 0 512 512"
   xmlns="http://www.w3.org/2000/svg"
   xmlns:svg="http://www.w3.org/2000/svg">
  <defs
     id="defs120" />
  <g
     id="g122">
    <g
       id="g180">
      <path
         style="fill:#90e3f0"
         d="M 28,508.62616 C 14.279932,504.84901 4.3305074,495.31416 1.4239084,483.15746 -0.27818746,476.03852 -0.45277705,452.08784 1.1714395,448.52308 2.4742888,445.66363 3.9901122,445.13676 12,444.75923 l 5.5,-0.25923 0.519496,-23 c 0.285722,-12.65 0.88303,-23.75274 1.32735,-24.67276 C 20.144854,395.17486 25.770986,392 27.901129,392 28.633025,392 29,388.32648 29,381 c 0,-7.32648 -0.366975,-11 -1.098871,-11 -3.022932,0 -7.845677,-3.40217 -8.831507,-6.23013 C 17.649131,359.69505 17.590039,228.46963 19.00528,220.88649 21.49438,207.54941 30.308614,196.24793 43,190.12083 l 7.5,-3.62083 29.123838,-0.31682 29.123842,-0.31682 0.51633,-16.68318 c 0.54066,-17.46896 1.63345,-23.0905 6.26767,-32.24237 5.99082,-11.83095 17.69001,-22.02763 30.7523,-26.80284 L 153.5,107.5 l 99.66282,-0.27773 99.66283,-0.27772 33.13273,-45.886912 c 18.22301,-25.237799 35.17069,-47.765422 37.66151,-50.061383 8.59312,-7.920858 19.97037,-10.71082728 30.81807,-7.5573149 10.61611,3.0861865 17.6249,9.0978819 22.22253,19.0610599 2.25263,4.881521 2.76616,7.398099 2.75479,13.5 -0.0177,9.486269 -1.76102,13.481372 -12.47047,28.577797 l -8.09199,11.406762 2.10038,2.949714 c 7.26073,10.196758 8.39843,25.190857 2.73476,36.042237 -2.88074,5.51938 -34.02682,48.83148 -36.87119,51.27349 -3.12701,2.68467 -7.50767,2.21295 -10.89369,-1.17308 -3.08184,-3.08183 -3.63626,-5.87581 -1.83416,-9.24307 0.59891,-1.11907 8.30746,-12.00199 17.13011,-24.18426 8.82265,-12.18228 16.65763,-23.59764 17.41108,-25.36747 C 450.62644,101.59273 450.17608,92 447.95958,92 c -0.44393,0 -11.41645,14.69622 -24.38336,32.65828 L 400,157.31655 V 171.65828 186 l 28.25,0.0245 c 15.67514,0.0136 30.23426,0.48171 32.70773,1.05171 13.39971,3.08791 24.73727,13.09732 30.22399,26.68338 L 493.5,219.5 494,332 l 0.5,112.5 5.5,0.25923 c 8.00989,0.37753 9.52571,0.9044 10.82856,3.76385 1.63854,3.59621 1.44872,27.51852 -0.27561,34.73391 -2.41958,10.12466 -11.40819,19.88422 -22.26713,24.177 -3.77239,1.4913 -8.17392,1.98127 -20.78582,2.31384 -18.24132,0.48101 -20.73772,-0.0815 -23.19056,-5.22511 L 442.62958,501 h -11.80137 -11.80137 l -1.46505,3.50636 c -0.8664,2.07359 -2.53297,3.91238 -4.07852,4.5 C 409.32245,510.5883 33.781842,510.21791 28,508.62616 Z"
         id="path194" />
      <path
         style="fill:#face69"
         d="M 29.343746,508.95858 C 16.271423,506.37232 4.3376839,495.34418 1.4239084,483.15746 -0.27818746,476.03852 -0.45277705,452.08784 1.1714395,448.52308 2.4742888,445.66363 3.9901122,445.13676 12,444.75923 L 17.5,444.5 18,421.3284 c 0.492522,-22.82504 0.536258,-23.21015 2.924314,-25.75 3.339822,-3.5521 8.81133,-3.55223 12.151372,-2.8e-4 2.388069,2.53958 2.431789,2.92456 2.924314,25.75 L 36.5,444.5 H 42 47.5 L 48,335 C 48.526905,219.60779 48.403945,222.45973 52.957177,220.02292 54.125115,219.39786 65.411901,219 81.976323,219 H 109.08413 L 108.79206,211.25 108.5,203.5 H 82 c -19.750773,0 -27.476924,0.34532 -30.33577,1.35586 -4.66815,1.65009 -9.803275,6.02274 -12.875888,10.96407 L 36.5,219.5 36,291.67009 l -0.5,72.17009 -2.424314,2.57991 c -3.171525,3.37508 -7.96059,3.44299 -11.769922,0.16691 L 18.5,364.17401 18.217161,296.837 C 17.917352,225.4599 18.205494,219.62157 22.490667,210.24736 27.438594,199.4233 39.877516,189.60297 51.799221,187.1087 54.887134,186.46265 67.866297,186 82.902739,186 h 25.804301 l 0.57461,-16.75 c 0.80706,-23.52536 4.32484,-33.5976 15.80717,-45.25959 6.39164,-6.49164 12.10313,-10.13789 21.79161,-13.91187 L 153.5,107.5 l 99.8752,-0.5 99.87519,-0.5 32.8308,-45.399343 c 18.05693,-24.969639 34.08809,-46.733148 35.6248,-48.363354 4.27783,-4.5381148 9.72008,-7.6316525 16.46634,-9.3599645 7.88175,-2.0192102 14.91165,-1.175156 22.72312,2.7282806 11.64308,5.8181159 18.4819,16.8896809 18.46075,29.8866259 -0.0154,9.435001 -1.80779,13.646398 -11.61677,27.293982 -4.03754,5.617575 -7.66419,10.74715 -8.05922,11.399055 -0.39504,0.651905 0.57976,3.232035 2.16622,5.733623 4.14952,6.543108 5.48679,12.309273 4.94603,21.326725 -0.61537,10.26171 -1.95994,12.72503 -22.24521,40.75437 -18.32029,25.31423 -20.1386,27.01903 -25.8917,24.27557 -2.01068,-0.95883 -3.86993,-2.87891 -4.67894,-4.83203 -1.70155,-4.10791 -2.23631,-3.17553 17.35276,-30.25531 8.49457,-11.74282 16.17051,-22.75421 17.05765,-24.46975 1.76623,-3.41552 2.13985,-11.839852 0.63059,-14.21848 -1.35282,-2.132065 -1.5647,-1.86968 -26.86426,33.26811 L 400,157.03622 V 171.51811 186 h 27.7899 c 29.43597,0 34.59541,0.60511 43.38264,5.08802 5.44074,2.77566 13.38254,10.29664 16.51253,15.63756 6.10206,10.41239 5.74944,3.37901 6.30581,125.77442 l 0.50912,112 6.71269,0.29484 c 5.84829,0.25687 6.97504,0.62836 8.75,2.88486 1.82474,2.31978 2.03607,4.01061 2.02544,16.20516 -0.0167,19.20253 -2.1816,26.36124 -10.48199,34.66163 C 492.77396,507.27867 483.83526,510 463.88504,510 447.56428,510 444.10161,508.46242 444.0318,501.18426 443.9574,493.42476 447.31587,492 465.68134,492 c 14.25577,0 18.51855,-0.97541 23.15233,-5.29773 C 493.23509,482.5967 495,477.68311 495,469.53496 v -7.54471 l -98.66762,0.25487 -98.66761,0.25488 -1.46237,5.25688 c -1.81634,6.5293 -7.52589,13.23886 -13.96366,16.40937 C 277.7194,486.39195 276.50457,486.5 256,486.5 c -20.50457,0 -21.7194,-0.10805 -26.23874,-2.33375 -6.43773,-3.17049 -12.14731,-9.88007 -13.9637,-16.40937 L 214.33515,462.5 H 115.41758 16.5 l -0.312715,3.78942 c -0.855788,10.37025 3.783059,19.61416 11.928197,23.76949 C 31.842079,491.96008 35.804785,492 220.81094,492 c 135.33287,0 189.78952,0.31336 192.06095,1.10518 3.73524,1.30212 5.13995,3.52897 5.09631,8.07908 -0.0354,3.6899 -1.38715,5.91329 -4.65246,7.6524 -2.58653,1.37759 -377.024218,1.49649 -383.971994,0.12192 z M 275.31574,467.8503 c 2.47267,-1.30151 3.64657,-2.77341 3.66895,-4.6003 C 278.9965,462.28579 273.7415,462 256,462 c -17.7415,0 -22.9965,0.28579 -22.98469,1.25 0.0215,1.75338 1.15351,3.23312 3.48469,4.55505 2.7515,1.56028 35.86408,1.59888 38.81574,0.0453 z M 475.7922,334 c 0.19653,-74.3169 -0.048,-111.68068 -0.7469,-114.1057 -1.54184,-5.35016 -8.24543,-12.42011 -13.81365,-14.5686 C 457.05521,203.71423 453.21447,203.5 428.5,203.5 h -28 l -0.29206,7.75 -0.29207,7.75 h 28.60781 c 18.58029,0 29.31547,0.37873 30.62672,1.08049 4.94981,2.64906 4.8496,0.25785 4.8496,115.72072 0,59.326 0.32021,108.18567 0.71159,108.57704 0.39137,0.39138 2.97887,0.57888 5.75,0.41667 L 475.5,444.5 Z"
         id="path192" />
      <path
         style="fill:#f868af"
         d="M 29.343746,508.95858 C 16.271423,506.37232 4.3376839,495.34418 1.4239084,483.15746 -0.27818746,476.03852 -0.45277705,452.08784 1.1714395,448.52308 2.4742888,445.66363 3.9901122,445.13676 12,444.75923 L 17.5,444.5 18,421.3284 c 0.492522,-22.82504 0.536258,-23.21015 2.924314,-25.75 3.339822,-3.5521 8.81133,-3.55223 12.151372,-2.8e-4 2.388069,2.53958 2.431789,2.92456 2.924314,25.75 L 36.5,444.5 H 42 47.5 L 48,335 C 48.526905,219.60779 48.403945,222.45973 52.957177,220.02292 54.125115,219.39786 65.411901,219 81.976323,219 H 109.08413 L 108.79206,211.25 108.5,203.5 H 82 c -19.750773,0 -27.476924,0.34532 -30.33577,1.35586 -4.66815,1.65009 -9.803275,6.02274 -12.875888,10.96407 L 36.5,219.5 36,291.67009 l -0.5,72.17009 -2.424314,2.57991 c -3.171525,3.37508 -7.96059,3.44299 -11.769922,0.16691 L 18.5,364.17401 18.217161,296.837 C 17.917352,225.4599 18.205494,219.62157 22.490667,210.24736 27.438594,199.4233 39.877516,189.60297 51.799221,187.1087 54.887134,186.46265 67.866297,186 82.902739,186 h 25.804301 l 0.57461,-16.75 c 0.80706,-23.52536 4.32484,-33.5976 15.80717,-45.25959 6.39164,-6.49164 12.10313,-10.13789 21.79161,-13.91187 L 153.5,107.5 l 99.8752,-0.5 99.87519,-0.5 32.8308,-45.399343 c 18.05693,-24.969639 34.08809,-46.733148 35.6248,-48.363354 4.27783,-4.5381148 9.72008,-7.6316525 16.46634,-9.3599645 7.88175,-2.0192102 14.91165,-1.175156 22.72312,2.7282806 11.64308,5.8181159 18.4819,16.8896809 18.46075,29.8866259 -0.0154,9.435001 -1.80779,13.646398 -11.61677,27.293982 -4.03754,5.617575 -7.66419,10.74715 -8.05922,11.399055 -0.39504,0.651905 0.57976,3.232035 2.16622,5.733623 4.14952,6.543108 5.48679,12.309273 4.94603,21.326725 -0.61537,10.26171 -1.95994,12.72503 -22.24521,40.75437 -18.32029,25.31423 -20.1386,27.01903 -25.8917,24.27557 -2.01068,-0.95883 -3.86993,-2.87891 -4.67894,-4.83203 -1.70155,-4.10791 -2.23631,-3.17553 17.35276,-30.25531 8.49457,-11.74282 16.17051,-22.75421 17.05765,-24.46975 1.76623,-3.41552 2.13985,-11.839852 0.63059,-14.21848 -1.35282,-2.132065 -1.5647,-1.86968 -26.86426,33.26811 L 400,157.03622 V 171.51811 186 h 27.7899 c 29.43597,0 34.59541,0.60511 43.38264,5.08802 5.44074,2.77566 13.38254,10.29664 16.51253,15.63756 6.10206,10.41239 5.74944,3.37901 6.30581,125.77442 l 0.50912,112 6.71269,0.29484 c 5.84829,0.25687 6.97504,0.62836 8.75,2.88486 1.82474,2.31978 2.03607,4.01061 2.02544,16.20516 -0.0167,19.20253 -2.1816,26.36124 -10.48199,34.66163 C 492.77396,507.27867 483.83526,510 463.88504,510 447.56428,510 444.10161,508.46242 444.0318,501.18426 443.9574,493.42476 447.31587,492 465.68134,492 c 14.25577,0 18.51855,-0.97541 23.15233,-5.29773 C 493.23509,482.5967 495,477.68311 495,469.53496 v -7.54471 l -98.66762,0.25487 -98.66761,0.25488 -1.46237,5.25688 c -1.81634,6.5293 -7.52589,13.23886 -13.96366,16.40937 C 277.7194,486.39195 276.50457,486.5 256,486.5 c -20.50457,0 -21.7194,-0.10805 -26.23874,-2.33375 -6.43773,-3.17049 -12.14731,-9.88007 -13.9637,-16.40937 L 214.33515,462.5 H 115.41758 16.5 l -0.312715,3.78942 c -0.855788,10.37025 3.783059,19.61416 11.928197,23.76949 C 31.842079,491.96008 35.804785,492 220.81094,492 c 135.33287,0 189.78952,0.31336 192.06095,1.10518 3.73524,1.30212 5.13995,3.52897 5.09631,8.07908 -0.0354,3.6899 -1.38715,5.91329 -4.65246,7.6524 -2.58653,1.37759 -377.024218,1.49649 -383.971994,0.12192 z M 275.31574,467.8503 c 2.47267,-1.30151 3.64657,-2.77341 3.66895,-4.6003 C 278.9965,462.28579 273.7415,462 256,462 c -17.7415,0 -22.9965,0.28579 -22.98469,1.25 0.0215,1.75338 1.15351,3.23312 3.48469,4.55505 2.7515,1.56028 35.86408,1.59888 38.81574,0.0453 z M 475.7922,334 c 0.19653,-74.3169 -0.048,-111.68068 -0.7469,-114.1057 -1.54184,-5.35016 -8.24543,-12.42011 -13.81365,-14.5686 C 457.05521,203.71423 453.21447,203.5 428.5,203.5 h -28 l -0.29206,7.75 -0.29207,7.75 h 28.60781 c 18.58029,0 29.31547,0.37873 30.62672,1.08049 4.94981,2.64906 4.8496,0.25785 4.8496,115.72072 0,59.326 0.32021,108.18567 0.71159,108.57704 0.39137,0.39138 2.97887,0.57888 5.75,0.41667 L 475.5,444.5 Z M 224.68426,307.10569 c 3.09734,-1.5679 81.27376,-1.53757 84.7205,0.0329 1.37437,0.6262 3.21666,2.6512 4.09397,4.5 l 1.5951,3.36144 h 10.43967 10.43966 l 1.39041,-3.32773 c 1.5883,-3.80132 4.56033,-5.24446 12.46361,-6.052 11.45905,-1.17086 22.25628,-8.75584 28.28238,-19.86818 L 381.5,279.5 381.79022,242 c 0.15963,-20.625 0.15963,-42.43212 0,-48.46026 L 381.5,182.57948 363.64559,207.3351 c -9.81993,13.61559 -18.83378,25.39732 -20.03077,26.18163 C 340.07764,235.83437 299.77261,250 296.71546,250 c -1.64627,0 -3.82103,-1.01467 -5.26091,-2.45455 -2.41737,-2.41736 -2.45446,-2.71654 -2.44856,-19.75 0.003,-9.5125 0.29894,-21.05903 0.65697,-25.65896 l 0.65098,-8.36351 24.31182,-33.63649 c 13.37151,-18.50007 24.32587,-34.19899 24.34303,-34.88649 0.0419,-1.67706 -172.46588,-1.82965 -181.49492,-0.16054 -12.02768,2.22344 -21.68489,9.52847 -27.05466,20.46501 L 127.5,151.5 v 64 64 l 3.39044,6.25209 c 6.0261,11.11234 16.82333,18.69732 28.28238,19.86818 C 172.55937,306.98808 173,307.96289 173,336.21038 V 357.485 l 24.75,-24.63681 c 13.6125,-13.55025 25.73292,-25.13437 26.93426,-25.7425 z m -54.22971,-59.56024 c -4.04641,-4.0464 -3.24,-10.5708 1.61697,-13.08244 4.20258,-2.17323 86.65438,-2.17323 90.85696,0 4.85697,2.51164 5.66338,9.03604 1.61697,13.08244 L 262.09091,250 H 217.5 172.90909 Z m 0,-53 c -4.04641,-4.0464 -3.24,-10.5708 1.61697,-13.08244 4.20258,-2.17323 86.65438,-2.17323 90.85696,0 4.85697,2.51164 5.66338,9.03604 1.61697,13.08244 L 262.09091,197 H 217.5 172.90909 Z m 144.8538,30.97018 C 317.33876,224.66727 319,223.8194 319,223.63147 c 0,-0.18793 -2.7,-2.23563 -6,-4.55045 l -6,-4.20876 v 6.67228 c 0,7.48084 -0.0428,7.46041 8.30835,3.97109 z"
         id="path190" />
      <path
         style="fill:#8f9dbd"
         d="M 29.343746,508.95858 C 16.271423,506.37232 4.3376839,495.34418 1.4239084,483.15746 -0.27818746,476.03852 -0.45277705,452.08784 1.1714395,448.52308 2.4742888,445.66363 3.9901122,445.13676 12,444.75923 L 17.5,444.5 18,421.3284 c 0.492522,-22.82504 0.536258,-23.21015 2.924314,-25.75 3.339822,-3.5521 8.81133,-3.55223 12.151372,-2.8e-4 2.388069,2.53958 2.431789,2.92456 2.924314,25.75 L 36.5,444.5 H 42 47.5 L 48,335 C 48.526905,219.60779 48.403945,222.45973 52.957177,220.02292 54.125115,219.39786 65.411901,219 81.976323,219 H 109.08413 L 108.79206,211.25 108.5,203.5 H 82 c -19.750773,0 -27.476924,0.34532 -30.33577,1.35586 -4.66815,1.65009 -9.803275,6.02274 -12.875888,10.96407 L 36.5,219.5 36,291.67009 l -0.5,72.17009 -2.424314,2.57991 c -3.171525,3.37508 -7.96059,3.44299 -11.769922,0.16691 L 18.5,364.17401 18.217161,296.837 C 17.917352,225.4599 18.205494,219.62157 22.490667,210.24736 27.438594,199.4233 39.877516,189.60297 51.799221,187.1087 54.887134,186.46265 67.866297,186 82.902739,186 h 25.804301 l 0.57461,-16.75 c 0.80706,-23.52536 4.32484,-33.5976 15.80717,-45.25959 6.39164,-6.49164 12.10313,-10.13789 21.79161,-13.91187 L 153.5,107.5 l 99.8752,-0.5 99.87519,-0.5 32.8308,-45.399343 c 18.05693,-24.969639 34.08809,-46.733148 35.6248,-48.363354 4.27783,-4.5381148 9.72008,-7.6316525 16.46634,-9.3599645 7.88175,-2.0192102 14.91165,-1.175156 22.72312,2.7282806 11.64308,5.8181159 18.4819,16.8896809 18.46075,29.8866259 -0.0154,9.435001 -1.80779,13.646398 -11.61677,27.293982 -4.03754,5.617575 -7.66419,10.74715 -8.05922,11.399055 -0.39504,0.651905 0.57976,3.232035 2.16622,5.733623 4.14952,6.543108 5.48679,12.309273 4.94603,21.326725 -0.61537,10.26171 -1.95994,12.72503 -22.24521,40.75437 -18.32029,25.31423 -20.1386,27.01903 -25.8917,24.27557 -2.01068,-0.95883 -3.86993,-2.87891 -4.67894,-4.83203 -1.70155,-4.10791 -2.23631,-3.17553 17.35276,-30.25531 8.49457,-11.74282 16.17051,-22.75421 17.05765,-24.46975 1.76623,-3.41552 2.13985,-11.839852 0.63059,-14.21848 -1.35282,-2.132065 -1.5647,-1.86968 -26.86426,33.26811 L 400,157.03622 V 171.51811 186 h 27.7899 c 29.43597,0 34.59541,0.60511 43.38264,5.08802 5.44074,2.77566 13.38254,10.29664 16.51253,15.63756 6.10206,10.41239 5.74944,3.37901 6.30581,125.77442 l 0.50912,112 6.71269,0.29484 c 5.84829,0.25687 6.97504,0.62836 8.75,2.88486 1.82474,2.31978 2.03607,4.01061 2.02544,16.20516 -0.0167,19.20253 -2.1816,26.36124 -10.48199,34.66163 C 492.77396,507.27867 483.83526,510 463.88504,510 447.56428,510 444.10161,508.46242 444.0318,501.18426 443.9574,493.42476 447.31587,492 465.68134,492 c 14.25577,0 18.51855,-0.97541 23.15233,-5.29773 C 493.23509,482.5967 495,477.68311 495,469.53496 v -7.54471 l -98.66762,0.25487 -98.66761,0.25488 -1.46237,5.25688 c -1.81634,6.5293 -7.52589,13.23886 -13.96366,16.40937 C 277.7194,486.39195 276.50457,486.5 256,486.5 c -20.50457,0 -21.7194,-0.10805 -26.23874,-2.33375 -6.43773,-3.17049 -12.14731,-9.88007 -13.9637,-16.40937 L 214.33515,462.5 H 115.41758 16.5 l -0.312715,3.78942 c -0.855788,10.37025 3.783059,19.61416 11.928197,23.76949 C 31.842079,491.96008 35.804785,492 220.81094,492 c 135.33287,0 189.78952,0.31336 192.06095,1.10518 3.73524,1.30212 5.13995,3.52897 5.09631,8.07908 -0.0354,3.6899 -1.38715,5.91329 -4.65246,7.6524 -2.58653,1.37759 -377.024218,1.49649 -383.971994,0.12192 z M 275.31574,467.8503 c 2.47267,-1.30151 3.64657,-2.77341 3.66895,-4.6003 C 278.9965,462.28579 273.7415,462 256,462 c -17.7415,0 -22.9965,0.28579 -22.98469,1.25 0.0215,1.75338 1.15351,3.23312 3.48469,4.55505 2.7515,1.56028 35.86408,1.59888 38.81574,0.0453 z M 475.7922,334 c 0.19653,-74.3169 -0.048,-111.68068 -0.7469,-114.1057 -1.54184,-5.35016 -8.24543,-12.42011 -13.81365,-14.5686 C 457.05521,203.71423 453.21447,203.5 428.5,203.5 h -28 l -0.29206,7.75 -0.29207,7.75 h 28.60781 c 18.58029,0 29.31547,0.37873 30.62672,1.08049 4.94981,2.64906 4.8496,0.25785 4.8496,115.72072 0,59.326 0.32021,108.18567 0.71159,108.57704 0.39137,0.39138 2.97887,0.57888 5.75,0.41667 L 475.5,444.5 Z M 224.68426,307.10569 c 3.09734,-1.5679 81.27376,-1.53757 84.7205,0.0329 1.37437,0.6262 3.21666,2.6512 4.09397,4.5 l 1.5951,3.36144 h 10.43967 10.43966 l 1.39041,-3.32773 c 1.5883,-3.80132 4.56033,-5.24446 12.46361,-6.052 11.45905,-1.17086 22.25628,-8.75584 28.28238,-19.86818 L 381.5,279.5 381.79022,242 c 0.15963,-20.625 0.15963,-42.43212 0,-48.46026 L 381.5,182.57948 363.64559,207.3351 c -9.81993,13.61559 -18.83378,25.39732 -20.03077,26.18163 C 340.07764,235.83437 299.77261,250 296.71546,250 c -1.64627,0 -3.82103,-1.01467 -5.26091,-2.45455 -2.41737,-2.41736 -2.45446,-2.71654 -2.44856,-19.75 0.003,-9.5125 0.29894,-21.05903 0.65697,-25.65896 l 0.65098,-8.36351 24.31182,-33.63649 c 13.37151,-18.50007 24.32587,-34.19899 24.34303,-34.88649 0.0419,-1.67706 -172.46588,-1.82965 -181.49492,-0.16054 -12.02768,2.22344 -21.68489,9.52847 -27.05466,20.46501 L 127.5,151.5 v 64 64 l 3.39044,6.25209 c 6.0261,11.11234 16.82333,18.69732 28.28238,19.86818 C 172.55937,306.98808 173,307.96289 173,336.21038 V 357.485 l 24.75,-24.63681 c 13.6125,-13.55025 25.73292,-25.13437 26.93426,-25.7425 z m -54.22971,-59.56024 c -4.04641,-4.0464 -3.24,-10.5708 1.61697,-13.08244 4.20258,-2.17323 86.65438,-2.17323 90.85696,0 4.85697,2.51164 5.66338,9.03604 1.61697,13.08244 L 262.09091,250 H 217.5 172.90909 Z m 0,-53 c -4.04641,-4.0464 -3.24,-10.5708 1.61697,-13.08244 4.20258,-2.17323 86.65438,-2.17323 90.85696,0 4.85697,2.51164 5.66338,9.03604 1.61697,13.08244 L 262.09091,197 H 217.5 172.90909 Z m 144.8538,30.97018 C 317.33876,224.66727 319,223.8194 319,223.63147 c 0,-0.18793 -2.7,-2.23563 -6,-4.55045 l -6,-4.20876 v 6.67228 c 0,7.48084 -0.0428,7.46041 8.30835,3.97109 z m 72.05708,-80.66353 c 25.64901,-35.55634 46.61963,-65.031337 46.60137,-65.499995 -0.0415,-1.064432 -22.81115,-17.515176 -24.92108,-18.005101 -1.06779,-0.24794 -16.43935,20.281572 -49.71506,66.397036 -45.0964,62.49731 -48.06284,66.86393 -46.5,68.4485 0.91814,0.93089 6.61934,5.28806 12.66934,9.68259 l 11,7.99006 2.11543,-2.1826 c 1.16349,-1.20042 23.10099,-31.27414 48.75,-66.83049 z m 65.97743,-90.488945 c 8.58589,-11.932292 10.28682,-16.311003 8.66938,-22.317686 -3.20517,-11.903115 -17.585,-16.749545 -26.49241,-8.928734 -4.20624,3.693125 -15.86191,19.789433 -15.95293,22.030748 -0.0405,0.997203 4.86699,5.228188 12.4331,10.719193 6.875,4.989442 12.76755,9.085574 13.09455,9.102518 0.32701,0.01694 4.03874,-4.755774 8.24831,-10.606039 z"
         id="path188" />
      <path
         style="fill:#7894b0"
         d="M 25.5,506.94126 C 13.887995,503.17431 4.5259245,493.41561 1.4550208,481.87762 -0.42561577,474.81169 -0.49098542,451.22997 1.3632984,448.78931 3.2651546,446.28605 7.406293,445 13.5651,445 H 19 v -22.94424 c 0,-22.69763 0.02548,-22.97385 2.370408,-25.7 1.780388,-2.06982 3.277408,-2.75576 6.014286,-2.75576 6.895659,0 7.054138,0.5657 7.615306,27.18354 L 35.5,444.5 h 6.5 6.5 l 0.5,-110.22238 0.5,-110.22239 2.276139,-2.27761 c 2.244301,-2.24576 2.667997,-2.28193 30.291016,-2.58582 L 110.08203,218.88359 109.79102,211.1918 109.5,203.5 H 81 52.5 l -4.716114,2.7723 c -2.593863,1.52476 -5.894297,4.31697 -7.334299,6.20491 C 34.998261,219.62426 35,219.59822 35,294.07714 c 0,37.81761 -0.279532,69.48773 -0.621181,70.37806 -0.935409,2.43763 -5.981268,4.68268 -8.886006,3.95364 -1.388445,-0.34848 -3.417328,-1.76871 -4.508629,-3.15608 C 19.048931,362.79249 19,361.03324 19,293.91436 c 0,-47.14353 0.354104,-70.48482 1.124378,-74.11514 2.896055,-13.64917 12.975464,-25.3981 26.239876,-30.58616 3.342689,-1.30741 9.792573,-1.72263 33.635746,-2.16533 l 29.5,-0.54773 0.58783,-17 c 0.32331,-9.35 1.15642,-19.01746 1.85136,-21.48325 4.65677,-16.5233 17.54054,-30.55206 33.91445,-36.92849 L 152.5,108.5 252.95173,108 353.40345,107.5 386.45173,61.796839 c 18.17655,-25.136738 34.61765,-47.318432 36.53578,-49.292653 10.76861,-11.0835151 30.24624,-12.42790755 42.67801,-2.9457372 8.52563,6.5028182 14.21552,19.3546992 13.02378,29.4170992 -0.85218,7.195325 -3.57758,12.68025 -12.66774,25.49406 l -8.01524,11.298573 3.38447,5.620472 c 5.89822,9.794975 6.69214,21.297087 2.21037,32.023477 -0.80923,1.93676 -9.46288,14.57469 -19.23033,28.08428 -12.7548,17.64149 -18.44834,24.73592 -20.20535,25.1769 -5.98478,1.50209 -11.62217,-4.03421 -9.55639,-9.38501 0.59206,-1.53357 8.40688,-12.9133 17.36626,-25.2883 8.95938,-12.375 16.95281,-24.06216 17.76317,-25.97146 1.64071,-3.86569 1.27696,-12.413058 -0.60849,-14.298515 -1.66663,-1.666626 -2.22183,-0.978056 -27.55233,34.170905 l -22.62944,31.40092 0.27587,14.59908 L 399.5,186.5 l 31,0.54431 c 25.27331,0.44376 31.764,0.84376 35.13575,2.16533 13.27441,5.20295 23.34413,16.94191 26.23987,30.58958 0.79356,3.74005 1.12438,37.64968 1.12438,115.25 V 445 h 5.4349 c 6.15881,0 10.29995,1.28605 12.2018,3.78931 1.85429,2.44066 1.78892,26.02238 -0.0917,33.08831 -3.11627,11.70845 -12.4945,21.36244 -24.40032,25.11778 -5.1982,1.63962 -9.12394,2.0046 -21.56143,2.0046 -13.7096,0 -15.41272,-0.19249 -17.30553,-1.95591 -3.22676,-3.00618 -3.88957,-7.74755 -1.52569,-10.91393 2.4585,-3.29313 6.18206,-3.99746 21.53011,-4.07253 8.26022,-0.0404 12.88938,-0.52028 15.48635,-1.60536 8.26048,-3.45145 12.24291,-10.04935 12.53546,-20.76814 L 495.5,462.5 l -99.16128,-0.25484 -99.16129,-0.25484 -0.68082,4.02972 c -0.96923,5.73685 -6.16658,12.91081 -11.91819,16.45082 L 279.65684,485.5 H 256 232.34316 l -4.92158,-3.02914 C 221.6717,478.93191 216.47269,471.75728 215.5042,466.02488 L 214.8242,462 H 115.28362 15.743029 l 0.455402,7.8668 c 0.578495,9.99316 3.669577,15.79554 10.578147,19.85662 L 31.5,492.5 l 191.39217,0.5 191.39216,0.5 1.96361,2.63016 c 2.36393,3.16637 1.70115,7.90772 -1.52564,10.91393 -2.06886,1.92744 -4.87345,1.95509 -192.66086,1.89974 C 36.051765,508.88901 31.356684,508.84117 25.5,506.94126 Z m 252.13494,-40.30127 c 1.35211,-1.57301 2.28766,-3.37301 2.07899,-4 -0.50255,-1.51003 -45.60984,-2.14408 -47.09197,-0.66195 -1.38408,1.38408 2.32163,6.25591 5.46819,7.18892 1.32542,0.39301 10.21208,0.62872 19.74813,0.5238 L 275.17656,469.5 Z M 476.80263,336 c 0.21383,-76.66019 -0.0225,-110.01896 -0.80519,-113.67615 -1.42482,-6.65731 -5.66592,-12.45702 -11.70528,-16.00699 L 459.5,203.5 h -30 -30 l -0.29106,7.69421 -0.29106,7.69421 29.62899,0.30579 29.62899,0.30579 2.41207,2.80576 L 463,225.11153 V 334.3891 c 0,60.10266 0.31903,109.5966 0.70896,109.98653 0.38993,0.38992 3.42743,0.57742 6.75,0.41666 L 476.5,444.5 Z m -68.04795,4.19227 0.25468,-103.30772 -4.25468,0.30772 L 400.5,237.5 l -0.55214,22 c -0.43234,17.22644 -0.91698,22.93936 -2.23361,26.32927 -7.38403,19.01163 -22.01114,32.43471 -39.95398,36.66516 -11.83004,2.78921 -18.64135,1.6211 -20.78964,-3.56534 -1.61163,-3.89082 0.31026,-9.51734 3.86266,-11.30833 1.46669,-0.73945 5.25555,-1.59925 8.41968,-1.91066 11.89449,-1.17065 22.73384,-8.66745 28.85659,-19.95801 L 381.5,279.5 381.79022,242 c 0.15963,-20.625 0.15963,-42.43212 0,-48.46026 L 381.5,182.57948 363.64559,207.3351 c -9.81993,13.61559 -18.83378,25.39732 -20.03077,26.18163 C 340.07764,235.83437 299.77261,250 296.71546,250 c -1.64627,0 -3.82103,-1.01467 -5.26091,-2.45455 -2.41737,-2.41736 -2.45446,-2.71654 -2.44856,-19.75 0.003,-9.5125 0.29894,-21.05903 0.65697,-25.65896 l 0.65098,-8.36351 24.31182,-33.63649 c 13.37151,-18.50007 24.32587,-34.19899 24.34303,-34.88649 0.0419,-1.67706 -172.46588,-1.82965 -181.49492,-0.16054 -12.02768,2.22344 -21.68489,9.52847 -27.05466,20.46501 L 127.5,151.5 v 64 64 l 3.39044,6.25209 c 6.0261,11.11234 16.82333,18.69732 28.28238,19.86818 C 172.55937,306.98808 173,307.96289 173,336.21038 V 357.485 l 24.75,-24.63681 c 13.6125,-13.55025 25.73292,-25.13437 26.93426,-25.7425 3.09734,-1.5679 81.27376,-1.53757 84.7205,0.0329 2.53031,1.15288 5.59524,6.26882 5.59524,9.33949 0,0.92169 -1.31538,2.99118 -2.92308,4.59887 L 309.15385,324 H 270.82078 232.4877 l -30.49385,30.56581 c -16.77162,16.81119 -31.709,31.21119 -33.19419,32 -3.91893,2.0814 -7.30199,1.76615 -10.4939,-0.97787 L 155.5,383.17589 155,353.39654 154.5,323.6172 149,321.96996 C 136.58731,318.25238 124.18463,309.01604 117.48421,298.5 c -7.07101,-11.09767 -7.86036,-14.74095 -8.44973,-39 L 108.5,237.5 h -21 -21 l -0.257699,102 c -0.141734,56.1 -0.04286,102.56379 0.219716,103.25287 0.38046,0.99843 35.159533,1.20151 171.257703,1 L 408.5,443.5 Z M 170.45455,247.54545 c -4.04641,-4.0464 -3.24,-10.5708 1.61697,-13.08244 4.20258,-2.17323 86.65438,-2.17323 90.85696,0 4.85697,2.51164 5.66338,9.03604 1.61697,13.08244 L 262.09091,250 H 217.5 172.90909 Z m 0,-53 c -4.04641,-4.0464 -3.24,-10.5708 1.61697,-13.08244 4.20258,-2.17323 86.65438,-2.17323 90.85696,0 4.85697,2.51164 5.66338,9.03604 1.61697,13.08244 L 262.09091,197 H 217.5 172.90909 Z m 144.8538,30.97018 C 317.33876,224.66727 319,223.8194 319,223.63147 c 0,-0.18793 -2.7,-2.23563 -6,-4.55045 l -6,-4.20876 v 6.67228 c 0,7.48084 -0.0428,7.46041 8.30835,3.97109 z m 72.05708,-80.66353 c 25.64901,-35.55634 46.61963,-65.031337 46.60137,-65.499995 -0.0415,-1.064432 -22.81115,-17.515176 -24.92108,-18.005101 -1.06779,-0.24794 -16.43935,20.281572 -49.71506,66.397036 -45.0964,62.49731 -48.06284,66.86393 -46.5,68.4485 0.91814,0.93089 6.61934,5.28806 12.66934,9.68259 l 11,7.99006 2.11543,-2.1826 c 1.16349,-1.20042 23.10099,-31.27414 48.75,-66.83049 z m 65.97743,-90.488945 c 8.58589,-11.932292 10.28682,-16.311003 8.66938,-22.317686 -3.20517,-11.903115 -17.585,-16.749545 -26.49241,-8.928734 -4.20624,3.693125 -15.86191,19.789433 -15.95293,22.030748 -0.0405,0.997203 4.86699,5.228188 12.4331,10.719193 6.875,4.989442 12.76755,9.085574 13.09455,9.102518 0.32701,0.01694 4.03874,-4.755774 8.24831,-10.606039 z"
         id="path186" />
      <path
         style="fill:#a26b4f"
         d="M 30.045302,507.91152 C 18.823752,505.70203 8.2979328,497.19346 3.2086496,486.21807 0.80137948,481.02662 0.52163079,479.14728 0.17111335,465.81203 -0.21418799,451.15344 -0.20983449,451.11893 2.3470652,448.56203 4.5580893,446.351 5.7784283,446 11.254545,446 c 3.602021,0 6.864271,-0.51882 7.545455,-1.2 0.863158,-0.86316 1.2,-7.6 1.2,-24 0,-21.46667 0.116959,-22.91696 2,-24.8 1.111111,-1.11111 3.333333,-2 5,-2 1.666667,0 3.888889,0.88889 5,2 1.881049,1.88105 2,3.33333 2,24.41821 0,12.33002 0.273145,23.13002 0.606989,24 0.880491,2.29452 13.905531,2.29452 14.786022,0 C 49.726855,443.54823 50,393.87308 50,334.029 c 0,-105.61036 0.05613,-108.8768 1.910129,-111.16822 1.9075,-2.35753 1.949136,-2.36147 30.25,-2.86078 L 110.5,219.5 l 0.30341,-6.46915 c 0.16687,-3.55803 0.0458,-7.49553 -0.26906,-8.75 L 109.9619,202 H 83.159087 c -29.977116,0 -32.843901,0.47047 -39.954586,6.55695 -2.215773,1.89662 -5.080738,5.58469 -6.366589,8.19572 L 34.5,221.5 34,293.33116 c -0.484792,69.64639 -0.55904,71.87432 -2.44113,73.25 C 28.790059,368.60498 24.334062,368.33406 22,366 c -1.962863,-1.96286 -2,-3.33333 -2,-73.80583 0,-69.54946 0.06381,-71.99261 2.030691,-77.75 C 25.853379,203.25453 34.389224,194.48481 46,189.81813 c 5.135966,-2.06428 7.419376,-2.2369 34.498871,-2.60803 20.467609,-0.28051 29.215339,-0.73761 29.734689,-1.55376 0.4047,-0.63599 0.74805,-8.13134 0.763,-16.65634 0.0169,-9.66273 0.52924,-17.38299 1.36034,-20.5 4.62528,-17.34702 18.33553,-31.90283 35.57097,-37.76476 L 154.5,108.5 l 99.44388,-0.24388 c 54.69413,-0.13413 99.7405,-0.58413 100.10303,-1 0.36254,-0.41587 15.85184,-21.810037 34.42068,-47.542603 C 407.03642,33.980951 423.66483,11.831953 425.41961,10.49352 434.33971,3.6898281 446.29426,1.7770245 457,5.4404603 c 7.36059,2.5187476 16.93208,11.9214057 19.32861,18.9876787 2.07994,6.132757 2.15746,16.942733 0.16207,22.598281 -0.83013,2.35283 -5.3796,9.693143 -10.10993,16.311806 l -8.60061,12.033934 3.80091,7.037122 c 3.30199,6.113405 3.8542,8.090747 4.20687,15.06392 0.32568,6.439398 -0.01,9.114498 -1.69657,13.526798 -2.30657,6.03375 -34.26922,51.1874 -38.53878,54.44375 -3.1456,2.39911 -6.84794,1.39991 -9.8741,-2.66486 -1.76215,-2.36693 -1.86273,-3.07907 -0.77275,-5.47131 0.68919,-1.51261 8.64714,-12.98393 17.68433,-25.49182 9.0372,-12.50789 16.87647,-23.91259 17.42061,-25.34379 C 451.98109,101.28933 450.6648,90 448.09008,90 c -1.00314,0 -46.10264,61.87926 -48.62789,66.72044 -1.55482,2.98077 -2.1231,26.69272 -0.69356,28.93944 0.52428,0.82397 9.57011,1.27267 31.23469,1.54932 28.66393,0.36603 30.82721,0.52255 35.99668,2.60448 11.6185,4.67918 20.14752,13.44347 23.96931,24.63049 1.99328,5.83468 2.03069,8.00003 2.03069,117.55 0,85.4712 0.281,111.88683 1.2,112.80583 0.68118,0.68118 3.94343,1.2 7.54545,1.2 5.47612,0 6.69646,0.351 8.90748,2.56203 2.55445,2.55444 2.56097,2.60556 2.20321,17.27375 -0.34779,14.25953 -0.45942,14.91606 -3.63159,21.35967 -4.08539,8.29859 -11.97608,15.77463 -19.97789,18.92804 -5.13862,2.02507 -7.5279,2.2706 -22.58142,2.3206 -16.5166,0.0548 -16.87096,0.0113 -18.75,-2.30487 -2.46122,-3.03378 -2.43093,-6.21391 0.0897,-9.41841 1.97922,-2.51616 2.21361,-2.55332 18.25,-2.89299 17.55442,-0.37182 19.48523,-0.86951 25.15894,-6.48497 4.67208,-4.62412 6.53941,-9.88288 6.56413,-18.48586 0.015,-5.23508 -0.37185,-7.77845 -1.22804,-8.07291 -0.6875,-0.23644 -45.85365,-0.23087 -100.36923,0.0124 l -99.11924,0.44226 -1.58384,5.63064 c -1.88007,6.68374 -6.30066,12.34888 -12.02442,15.40967 C 278.71544,484.38479 277.33287,484.5 256,484.5 c -21.24155,0 -22.72902,-0.12255 -26.59468,-2.19109 -6.01722,-3.21985 -10.17267,-8.50232 -12.07729,-15.35283 L 215.6721,461 H 115.33605 15 l 0.02196,7.75 c 0.0151,5.32756 0.591388,9.00029 1.8437,11.75 2.342664,5.1438 8.932331,11.07244 13.813559,12.42788 2.631278,0.73066 62.716304,1.0627 192.998201,1.06654 l 189.17742,0.006 2.07258,2.63486 c 2.58392,3.28492 2.63746,6.44595 0.16098,9.50436 l -1.9116,2.36078 -189.3384,0.14432 c -105.16913,0.0802 -191.318712,-0.2456 -193.7931,-0.7328 z M 278.15865,466.99519 C 283.46969,461.68416 282.72708,461.5 256,461.5 c -26.72708,0 -27.46969,0.18416 -22.15865,5.49519 L 236.84615,470 H 256 275.15385 Z M 477.51416,443.75 c 0.30374,-1.2375 0.42482,-51.75 0.26905,-112.25 l -0.28321,-110 -2.33791,-4.74733 c -1.28585,-2.61103 -4.15082,-6.2991 -6.36659,-8.19572 C 461.62789,202.42174 458.96154,202 427.34091,202 H 399.0381 l -0.57245,2.28085 c -0.31486,1.25447 -0.43593,5.19197 -0.26906,8.75 L 398.5,219.5 l 29.83978,0.5 29.83978,0.5 1.91022,2.36078 C 461.94391,225.15224 462,228.41675 462,334.029 c 0,59.84408 0.27314,109.51923 0.60699,110.38921 0.47203,1.23011 2.13529,1.58179 7.48095,1.58179 6.29825,0 6.92021,-0.18844 7.42622,-2.25 z M 446.5,340.5 v -104 L 424,235.92922 c -12.375,-0.31393 -23.01889,-0.39502 -23.65309,-0.1802 -0.80503,0.27268 -1.28396,6.93483 -1.58666,22.07078 -0.38163,19.08333 -0.69325,22.38931 -2.60157,27.60029 -7.47736,20.4182 -23.97692,33.97959 -44.47259,36.55312 -8.33646,1.04676 -11.15413,0.12759 -13.7124,-4.47321 -1.26207,-2.26972 -1.43551,-3.67682 -0.7125,-5.78038 1.21475,-3.53423 4.72743,-5.29457 11.99178,-6.00952 11.89449,-1.17065 22.73384,-8.66745 28.85659,-19.95801 L 381.5,279.5 381.79022,242 c 0.15963,-20.625 0.15963,-42.43212 0,-48.46026 L 381.5,182.57948 363.64559,207.3351 c -9.81993,13.61559 -18.83378,25.39732 -20.03077,26.18163 C 340.07764,235.83437 299.77261,250 296.71546,250 c -1.64627,0 -3.82103,-1.01467 -5.26091,-2.45455 -2.41737,-2.41736 -2.45446,-2.71654 -2.44856,-19.75 0.003,-9.5125 0.29894,-21.05903 0.65697,-25.65896 l 0.65098,-8.36351 24.31182,-33.63649 c 13.37151,-18.50007 24.32587,-34.19899 24.34303,-34.88649 0.0419,-1.67706 -172.46588,-1.82965 -181.49492,-0.16054 -12.02768,2.22344 -21.68489,9.52847 -27.05466,20.46501 L 127.5,151.5 v 64 64 l 3.39044,6.25209 c 6.0261,11.11234 16.82333,18.69732 28.28238,19.86818 C 172.55937,306.98808 173,307.96289 173,336.21038 V 357.485 l 24.75,-24.63681 c 13.6125,-13.55025 25.73292,-25.13437 26.93426,-25.7425 3.08793,-1.56314 81.27285,-1.53799 84.70817,0.0273 1.36759,0.62312 3.14307,2.48855 3.94551,4.1454 1.30734,2.69936 1.27929,3.33512 -0.26991,6.11706 -3.08844,5.546 -3.31028,5.57385 -44.53188,5.58986 L 230.5723,323 199.01564,354.5 c -29.89157,29.83789 -31.74962,31.5 -35.21357,31.5 -2.75955,0 -4.1655,-0.64656 -5.72949,-2.63486 C 156.08322,380.83608 156,379.55714 156,351.51356 v -29.21672 l -6.48772,-1.75614 c -16.24312,-4.39681 -29.86842,-17.27908 -36.34392,-34.36199 -2.35781,-6.22011 -2.56048,-8.15501 -2.95158,-28.17871 -0.28662,-14.67397 -0.78455,-21.73326 -1.56836,-22.23469 -1.37791,-0.8815 -39.805173,-1.02612 -42.066633,-0.15832 C 65.153382,236.15512 65,246.33693 65,340.60956 V 445.00514 L 255.75,444.75257 446.5,444.5 Z M 170.45455,247.54545 c -4.04641,-4.0464 -3.24,-10.5708 1.61697,-13.08244 4.20258,-2.17323 86.65438,-2.17323 90.85696,0 4.85697,2.51164 5.66338,9.03604 1.61697,13.08244 L 262.09091,250 H 217.5 172.90909 Z m 0,-53 c -4.04641,-4.0464 -3.24,-10.5708 1.61697,-13.08244 4.20258,-2.17323 86.65438,-2.17323 90.85696,0 4.85697,2.51164 5.66338,9.03604 1.61697,13.08244 L 262.09091,197 H 217.5 172.90909 Z m 144.8538,30.97018 C 317.33876,224.66727 319,223.8194 319,223.63147 c 0,-0.18793 -2.7,-2.23563 -6,-4.55045 l -6,-4.20876 v 6.67228 c 0,7.48084 -0.0428,7.46041 8.30835,3.97109 z m 72.05708,-80.66353 c 25.64901,-35.55634 46.61963,-65.031337 46.60137,-65.499995 -0.0415,-1.064432 -22.81115,-17.515176 -24.92108,-18.005101 -1.06779,-0.24794 -16.43935,20.281572 -49.71506,66.397036 -45.0964,62.49731 -48.06284,66.86393 -46.5,68.4485 0.91814,0.93089 6.61934,5.28806 12.66934,9.68259 l 11,7.99006 2.11543,-2.1826 c 1.16349,-1.20042 23.10099,-31.27414 48.75,-66.83049 z m 65.97743,-90.488945 c 8.58589,-11.932292 10.28682,-16.311003 8.66938,-22.317686 -3.20517,-11.903115 -17.585,-16.749545 -26.49241,-8.928734 -4.20624,3.693125 -15.86191,19.789433 -15.95293,22.030748 -0.0405,0.997203 4.86699,5.228188 12.4331,10.719193 6.875,4.989442 12.76755,9.085574 13.09455,9.102518 0.32701,0.01694 4.03874,-4.755774 8.24831,-10.606039 z"
         id="path184" />
      <path
         style="fill:#0f100f"
         d="M 28.745923,506.91433 C 18.326719,504.45871 8.1976115,495.8386 3.3545809,485.30569 0.96479191,480.10824 0.63796229,478.02167 0.23495867,465.3892 -0.19459665,451.92445 -0.11642279,451.18637 1.9424204,449.26827 4.0460071,447.30848 9.9099186,446 16.589056,446 h 3.309913 l 0.300516,-23.96616 c 0.332394,-26.50855 0.471352,-27.07295 6.709188,-27.25031 6.310324,-0.17941 6.536473,0.68164 7.091327,27.00001 L 34.5,445.5 H 42 49.5 L 50.010964,335 c 0.28103,-60.775 0.61853,-110.58036 0.75,-110.67857 0.13147,-0.0982 0.946179,-0.88572 1.810465,-1.75 1.350684,-1.35069 5.389292,-1.57358 28.75,-1.58674 14.948214,-0.008 27.760461,-0.38447 28.471671,-0.83566 0.93077,-0.59048 1.21097,-3.17805 1,-9.23468 L 110.5,202.5 H 81 c -25.645896,0 -29.891943,0.2174 -32.5,1.66401 -4.814049,2.6702 -9.62431,7.95356 -12.141822,13.33599 l -2.33864,5 -0.0098,70.02749 c -0.01104,79.15577 0.414572,74.84307 -7.330149,74.27543 -3.24153,-0.23759 -4.404252,-0.84207 -5.39146,-2.80292 -1.602949,-3.18388 -1.860843,-134.70711 -0.280477,-143.04035 2.473065,-13.04042 9.88948,-22.82155 21.751786,-28.68731 L 50.388237,188.5 80.444118,188 110.5,187.5 111.11323,170 c 0.48658,-13.88606 1.05144,-18.85722 2.73524,-24.07213 4.18255,-12.95386 14.41607,-25.00383 26.35137,-31.02875 11.89815,-6.00616 9.18127,-5.86818 115.85834,-5.88434 L 353.61635,109 388.02476,61.349382 C 428.66073,5.074489 428.94034,4.7983941 445.5,4.5971982 c 6.67089,-0.08105 8.92813,0.3380536 13.58648,2.522617 C 470.85029,12.636526 477.43947,23.01892 477.41528,36 477.39755,45.515186 475.67783,49.427893 465.07166,64.084201 460.63225,70.218872 457,75.547139 457,75.924794 c 0,0.377656 1.11204,2.193929 2.47119,4.036162 6.30887,8.551187 7.71844,22.576514 3.24993,32.337034 -2.27725,4.97416 -30.75173,45.63943 -36.02753,51.45201 -1.13828,1.25409 -3.21579,2.25 -4.69359,2.25 -3.10971,0 -7,-3.72298 -7,-6.69896 0,-1.13853 7.29817,-12.13453 16.21816,-24.43555 C 449.3157,109.90824 452,105.37879 452,99.798403 c 0,-4.705614 -2.52738,-11.12261 -4.16564,-10.576524 -0.65675,0.218917 -12.12036,15.446051 -25.47468,33.838071 L 398.07909,156.5 l 0.21045,15.5 0.21046,15.5 31.55578,0.5 31.55578,0.5 7.6289,3.77234 c 11.86239,5.86573 19.27881,15.64681 21.75189,28.68731 C 491.63086,224.32652 492,266.51996 492,336.13649 V 446 h 3.36043 c 6.7278,0 12.5878,1.30312 14.69715,3.26827 2.05442,1.91399 2.13824,2.68509 1.75229,16.12093 -0.3892,13.54858 -0.53524,14.36978 -3.66551,20.6108 -4.24755,8.46864 -10.88388,15.1469 -18.53397,18.65111 -5.75688,2.63699 -7.06616,2.8204 -22.63065,3.17023 -14.9286,0.33553 -16.73098,0.19342 -18.70736,-1.47502 -3.22183,-2.71983 -3.79175,-6.48264 -1.42517,-9.40955 1.90626,-2.3576 2.50123,-2.45398 18.31153,-2.96646 17.59271,-0.57026 19.69166,-1.12107 25.25517,-6.62746 4.67208,-4.62412 6.53941,-9.88288 6.56413,-18.48586 0.0174,-6.06075 -0.3055,-7.76867 -1.55983,-8.25 C 494.54823,460.27314 449.80537,460 395.98964,460 c -108.52031,0 -100.16394,-0.56513 -101.35032,6.85413 -0.87241,5.45573 -6.13892,12.01234 -12.12186,15.09127 C 277.64606,484.45231 277.151,484.5 256,484.5 c -21.151,0 -21.64606,-0.0477 -26.51746,-2.5546 -5.98294,-3.07893 -11.24945,-9.63554 -12.12186,-15.09127 C 216.1743,459.43487 224.53067,460 116.01036,460 62.194628,460 17.451771,460.27314 16.581787,460.60699 15.325383,461.08912 15,462.82794 15,469.05994 c 0,11.61448 3.514746,18.02439 12.277749,22.39118 L 32.392689,494 H 222.2418 412.09091 l 2.55032,2.55032 c 2.9591,2.9591 2.64534,6.78886 -0.79466,9.69968 -1.95471,1.65402 -12.46876,1.74449 -191.70735,1.64955 -106.05967,-0.0562 -191.293752,-0.4904 -193.393297,-0.98522 z M 276.72316,469.02728 c 3.1816,-1.9399 5.08255,-5.9146 3.81197,-7.97044 C 280.10577,460.36212 271.69885,460 256,460 c -15.69885,0 -24.10577,0.36212 -24.53513,1.05684 -1.27058,2.05584 0.63037,6.03054 3.81197,7.97044 2.87999,1.756 5.08638,1.96524 20.72316,1.96524 15.63678,0 17.84317,-0.20924 20.72316,-1.96524 z M 446.5,340.5 v -105 l -23.72642,-0.26804 -23.72642,-0.26805 -0.50626,2.26805 c -0.27844,1.24742 -0.63743,11.49304 -0.79775,22.76804 -0.25864,18.1895 -0.53773,21.15916 -2.47622,26.3484 -7.44476,19.92921 -25.01312,33.56711 -45.54554,35.35591 -6.15261,0.53602 -7.00684,0.37615 -9.25,-1.73119 -2.95635,-2.77735 -3.15465,-5.90776 -0.57595,-9.09232 1.45828,-1.8009 3.59168,-2.60411 9.25,-3.48257 4.04501,-0.628 9.60456,-2.18996 12.35456,-3.47104 7.37718,-3.43662 16.63997,-13.09649 19.58751,-20.42719 l 2.41249,-6 0.28628,-48.83031 c 0.24889,-42.45209 0.0951,-48.78717 -1.1775,-48.5 -0.80509,0.18167 -9.40714,11.35531 -19.11566,24.83031 -9.70853,13.475 -18.32224,25.24479 -19.14159,26.15508 -1.35531,1.50577 -11.252,5.33277 -37.21789,14.39195 -7.53637,2.62935 -9.91131,3.07783 -12.15556,2.29548 -4.642,-1.61821 -4.99849,-4.14875 -4.20439,-29.8447 l 0.72631,-23.50219 25.23474,-34.868 c 13.8791,-19.1774 24.99004,-35.26391 24.69098,-35.74781 C 341.11916,123.38379 301.03299,123 249.53008,123 c -86.61066,0 -91.6655,0.0976 -97.39441,1.88064 -10.7868,3.35723 -18.61931,10.51475 -23.94765,21.8839 L 125.5,152.5 v 62.5 62.5 l 2.41249,6 c 2.94755,7.33073 12.21037,16.9906 19.58751,20.42715 2.75,1.28105 8.15,2.79415 12,3.36245 11.85287,1.74959 11.5,0.87862 11.5,28.38471 0,17.56318 0.29847,23.32569 1.20817,23.32569 0.66449,0 12.73817,-11.475 26.83038,-25.5 L 224.66077,308 h 42.09703 42.09704 l 2.07258,2.63486 c 2.65718,3.37806 2.62606,6.14709 -0.10173,9.05069 L 308.65137,322 h -38.54163 -38.54163 l -32.09893,32 c -34.67674,34.56987 -34.91578,34.74742 -40.15473,29.82569 L 157,381.65137 v -29.20324 c 0,-22.1909 -0.30015,-29.43062 -1.25,-30.15016 -0.6875,-0.5208 -4.13863,-1.7952 -7.66918,-2.83199 -12.12717,-3.56131 -24.06756,-13.30143 -30.6112,-24.97044 C 111.98049,284.70699 111,279.08076 111,257.37169 c 0,-10.56446 -0.27314,-19.91992 -0.60699,-20.7899 C 109.86464,235.20488 106.89945,235 87.5,235 68.100553,235 65.135358,235.20488 64.606989,236.58179 64.273145,237.45177 64,284.38677 64,340.88179 c 0,78.68051 0.28142,102.99963 1.202569,103.92078 0.930102,0.9301 44.261701,1.14534 191.250001,0.95 L 446.5,445.5 Z M 173.01661,247.714 c -3.8334,-1.93956 -4.86688,-6.09819 -2.35244,-9.46601 L 172.71584,235.5 H 217.5 262.28416 l 2.05167,2.74799 c 1.6452,2.20356 1.8614,3.289 1.09131,5.47875 -1.81308,5.15548 -2.62013,5.24378 -47.92714,5.24378 -31.7318,0 -42.60714,-0.3072 -44.48339,-1.25652 z m 0,-53 c -3.8334,-1.93956 -4.86688,-6.09819 -2.35244,-9.46601 L 172.71584,182.5 H 217.5 262.28416 l 2.05167,2.74799 c 1.6452,2.20356 1.8614,3.289 1.09131,5.47875 -1.81308,5.15548 -2.62013,5.24378 -47.92714,5.24378 -31.7318,0 -42.60714,-0.3072 -44.48339,-1.25652 z M 477.5,333 V 220.5 l -2.16977,-4.05291 c -2.69075,-5.02602 -7.48419,-9.79126 -12.22265,-12.15073 C 459.87354,202.686 456.34195,202.5 429,202.5 h -30.5 l -0.2931,8.41435 c -0.21097,6.05663 0.0692,8.6442 1,9.23468 0.71121,0.45119 14.1181,0.83413 29.7931,0.85097 15.675,0.0168 28.99513,0.36123 29.6003,0.76531 3.33767,2.22862 3.3997,4.30884 3.3997,114.00228 0,59.89449 0.31784,109.21692 0.70631,109.60539 0.38847,0.38847 3.87597,0.57597 7.75,0.41667 L 477.5,445.5 Z M 313.91882,228.23512 c 4.08035,-1.51142 7.58835,-3.25662 7.79555,-3.87822 C 322.15693,223.02921 308.73474,213 306.51531,213 305.28279,213 305,214.55516 305,221.33333 c 0,6.7582 0.43985,9.75694 1.41667,9.65825 0.0458,-0.005 3.4218,-1.24504 7.50215,-2.75646 z m 73.36144,-80.27041 C 414.1094,110.88815 435.93249,79.887953 435.776,79.07539 435.34281,76.825987 410.83208,59.047414 408.5,59.291054 c -1.40094,0.14636 -16.60424,20.421219 -50.75684,67.688416 -26.81627,37.11371 -48.60717,67.93871 -48.42424,68.5 0.51693,1.58612 26.958,20.59216 28.13553,20.22404 0.57505,-0.17978 22.99667,-30.66224 49.82581,-67.7388 z m 66.68435,-92.189124 c 10.47881,-14.626635 11.77575,-18.674555 8.49725,-26.521106 -2.00584,-4.800648 -4.09105,-7.022866 -8.88638,-9.470247 -4.90956,-2.505679 -13.32198,-2.087682 -17.36695,0.862931 -3.45153,2.517724 -19.26474,23.448838 -18.94732,25.079562 0.31887,1.638142 25.80677,20.183306 27.80861,20.233731 0.87109,0.02194 4.8302,-4.511387 8.89479,-10.184871 z"
         id="path182" />
    </g>
  </g>
</svg>
