<?xml version="1.0" encoding="UTF-8" standalone="no"?>
<!-- Created with Inkscape (http://www.inkscape.org/) -->

<svg
   version="1.1"
   id="svg2"
   width="546.1333"
   height="546.1333"
   viewBox="0 0 546.1333 546.1333"
   xmlns="http://www.w3.org/2000/svg"
   xmlns:svg="http://www.w3.org/2000/svg">
  <defs
     id="defs6" />
  <g
     id="g8">
    <g
       id="g170">
      <path
         style="fill:#cccccc;stroke-width:1.06667"
         d="m 22.672214,530.00804 c -1.903615,-0.54974 -4.303615,-2.28577 -5.333333,-3.85784 -1.748736,-2.66981 -1.872215,-8.9467 -1.872215,-95.17094 0,-99.0669 -0.0039,-98.98383 5.577386,-116.84595 3.415046,-10.92923 8.484785,-21.56774 14.626097,-30.69189 l 4.863182,-7.22522 0.006,-30.64144 c 0.0035,-17.99776 0.465474,-32.29614 1.119589,-34.65153 2.036966,-7.33487 3.432749,-7.67995 32.591604,-8.05776 37.175636,-0.48169 37.909886,-0.1406 38.636416,17.94764 l 0.41507,10.33416 4.41568,-0.81583 c 2.42863,-0.4487 11.01569,-1.16162 19.08236,-1.58424 l 14.66666,-0.76843 0.006,-100.38938 c 0.004,-66.459323 0.38234,-101.744739 1.11959,-104.399478 2.14463,-7.724266 2.13886,-7.723246 43.67398,-7.723246 41.53513,0 41.52936,-10e-4 43.67447,7.723246 0.7373,2.654927 1.11564,37.984086 1.11958,104.543418 0.006,99.82022 0.0211,100.53332 2.13929,100.53332 2.11485,0 2.13351,-0.71815 2.15446,-82.93333 0.0126,-49.454023 0.45156,-85.947537 1.08739,-90.39999 1.44207,-10.098315 5.47385,-17.929248 13.21804,-25.673438 7.74419,-7.744192 15.57512,-11.775969 25.67344,-13.218039 4.10666,-0.586444 27.38666,-1.066262 51.73333,-1.066262 24.34666,0 47.62666,0.479818 51.73333,1.066262 10.09831,1.44207 17.92924,5.473847 25.67343,13.218039 8.98372,8.98371 12.05416,15.744555 13.63704,30.02756 l 1.26773,11.439254 7.10642,1.946707 c 19.78471,5.419755 39.30444,16.938999 54.82166,32.352097 22.22382,22.07466 36.04128,51.66574 38.82909,83.1553 1.47292,16.63719 1.41599,329.4444 -0.0609,334.76258 -1.97975,7.1288 -4.02769,7.72324 -26.6078,7.72324 -22.58012,0 -24.62806,-0.59444 -26.6078,-7.72324 -0.68731,-2.47491 -1.11591,-20.242 -1.11958,-46.41009 -0.003,-23.31999 -0.23758,-42.39999 -0.52068,-42.39999 -0.2831,0 -12.60554,7.75599 -27.3832,17.23554 -29.23269,18.75211 -34.56145,21.16445 -46.75142,21.16445 -9.96814,0 -18.90158,-3.10354 -30.41732,-10.56717 l -9.6,-6.22201 -0.53333,33.7777 c -0.59951,37.96883 -0.69821,38.45357 -8.25657,40.55261 -5.20623,1.44583 -324.590871,1.38149 -329.604529,-0.0664 z M 324.09995,93.343829 c 12.08228,-9.087745 26.13688,-16.022595 42.30003,-20.871761 l 6.4,-1.920088 -36,-0.07599 -36,-0.07599 v 22.296285 22.296285 l 7.2,-7.47729 c 3.96,-4.11251 11.20499,-10.489661 16.09997,-14.171447 z"
         id="path184" />
      <path
         style="fill:#a5a5a5;stroke-width:1.06667"
         d="m 22.933332,529.13023 c -1.173333,-0.48316 -3.093333,-1.94537 -4.266666,-3.24936 -2.091186,-2.32406 -2.139585,-4.10198 -2.449801,-89.99256 -0.328029,-90.82259 0.02169,-100.78582 4.081773,-116.28677 3.056546,-11.66956 9.101064,-25.24402 15.493383,-34.79423 l 5.720686,-8.54678 0.310312,-33.04079 0.310312,-33.0408 2.957575,-2.95615 2.957576,-2.95614 h 28.751513 28.751515 l 2.95757,2.95545 c 2.77776,2.77576 2.98013,3.61091 3.32846,13.73623 l 0.37088,10.78079 5.49579,-0.69548 c 3.02267,-0.38251 12.0888,-0.99728 20.14692,-1.36614 l 14.65113,-0.67066 0.2822,-103.27939 0.2822,-103.279396 2.95758,-2.957361 2.95756,-2.957361 h 37.28485 37.28486 l 2.95756,2.957361 2.95758,2.957361 0.28227,103.442636 0.28227,103.44263 h 3.1494 3.14941 l 0.30165,-88.8 0.30167,-88.79999 2.3924,-5.866666 c 4.82652,-11.835622 15.1053,-22.114412 26.94093,-26.94093 5.81626,-2.371845 6.33869,-2.392402 60.8,-2.392402 54.4613,0 54.98374,0.02055 60.79999,2.392402 11.95304,4.874401 22.39636,15.385235 26.76789,26.94093 1.36812,3.616471 2.44815,9.651509 2.81585,15.734436 l 0.5965,9.86777 4.37655,1.102105 c 22.31271,5.618799 42.10949,16.815089 58.31426,32.980285 18.46273,18.41764 31.02492,41.69301 36.87123,68.3154 1.89747,8.64052 1.99105,17.07444 1.99105,179.44229 v 170.37563 l -2.95758,2.95769 -2.95757,2.9577 h -20.21818 -20.21819 l -2.95757,-2.95668 -2.95758,-2.95669 -0.29992,-45.30998 c -0.18768,-28.35343 -0.68712,-45.30998 -1.33454,-45.30998 -0.56903,0 -13.35342,7.92966 -28.40975,17.62147 -29.29635,18.85814 -33.7598,20.90932 -45.64895,20.97791 -10.80078,0.0623 -16.6041,-1.89352 -29.39507,-9.90668 -6.46105,-4.04766 -11.96047,-7.35937 -12.22094,-7.35937 -0.26047,0 -0.61246,15.5897 -0.7822,34.64377 l -0.30862,34.64376 -2.95748,2.95623 -2.95748,2.95624 -163.97584,0.20436 C 98.855792,529.91674 24.106665,529.61339 22.933332,529.13023 Z M 270.93332,452.26664 v -57.6 H 153.59999 36.266664 v 57.6 57.6 H 153.59999 270.93332 Z M 69.101585,496.3914 c -1.030035,-0.30051 -2.103757,-2.02039 -2.453238,-3.92958 -0.947502,-5.17613 -0.107486,-82.56064 0.907204,-83.57406 1.158788,-1.15734 17.331405,-1.15638 18.488889,10e-4 1.1413,1.1413 1.172101,85.58345 0.03163,86.72392 -0.978912,0.97891 -14.208033,1.58574 -16.974486,0.77862 z M 339.19998,475.88432 v -33.98231 l -5.85026,-3.88435 c -3.21763,-2.1364 -6.09763,-3.88435 -6.4,-3.88435 -0.30236,0 -0.54974,17.04 -0.54974,37.86666 v 37.86667 h 6.4 6.4 z M 270.93332,366.93331 v -6.4 H 153.59999 36.266664 v 6.4 6.4 H 153.59999 270.93332 Z m 0,-71.93464 v -44.2013 l -4.53334,-0.66063 c -2.49333,-0.36334 -36.69333,-0.50613 -75.99999,-0.3173 l -71.46666,0.34332 -9.56177,2.98014 c -28.190575,8.78623 -50.165552,26.87076 -62.225792,51.20934 -4.226942,8.53032 -8.876979,22.69 -10.130391,30.84774 l -0.614589,4 H 153.66705 270.93332 Z M 68.356938,325.41168 c -3.383693,-2.14183 -0.677531,-16.0861 5.422851,-27.94278 9.65784,-18.77095 31.385091,-33.54404 50.314901,-34.2108 5.18237,-0.18254 6.00173,1.1252 6.0223,9.61201 0.0201,8.27949 -1.20825,10.86321 -5.16451,10.86321 -7.16171,0 -18.34387,5.46249 -25.183598,12.30221 -6.839722,6.83973 -12.302221,18.02189 -12.302221,25.18361 0,1.84709 -0.781124,3.39049 -2.063209,4.07665 -2.523131,1.35033 -14.962711,1.43491 -17.046514,0.11589 z m 151.376382,-1.86237 c -10.32845,-4.45405 -16.01728,-13.38553 -15.97658,-25.08327 0.0293,-8.42502 2.43784,-13.93884 8.461,-19.36971 5.99784,-5.40805 10.99104,-7.40322 18.41396,-7.35781 10.46449,0.064 20.89745,7.20649 25.05259,17.15116 2.09757,5.02018 2.11497,14.62022 0.0354,19.52583 -2.32307,5.48001 -9.09477,12.63923 -14.1197,14.92777 -5.2547,2.39317 -16.54821,2.49958 -21.86667,0.20603 z m 15.11601,-20.24798 c 3.76651,-3.40864 1.79559,-9.2464 -3.55691,-10.53541 -3.98261,-0.95909 -7.75225,2.81055 -6.79316,6.79317 1.26709,5.2615 6.5576,7.17437 10.35007,3.74224 z M 69.863712,249.02989 c 3.967079,-2.66022 10.510639,-6.37319 14.541244,-8.25105 l 7.328372,-3.41428 v -6.68229 -6.68228 H 76.799995 61.866663 v 14.93333 c 0,8.21333 0.176439,14.93333 0.392088,14.93333 0.215648,0 3.637881,-2.17654 7.604961,-4.83676 z M 219.73332,132.26666 V 36.266664 h -23.46667 -23.46666 v 95.999996 95.99999 h 23.46666 23.46667 z m 88.23138,-23.55499 c 16.06812,-17.033062 38.50445,-30.139457 61.90194,-36.160617 10.15628,-2.613639 3.99851,-3.217724 -32.79999,-3.217724 h -37.33333 v 23.466665 c 0,12.906666 0.24849,23.466666 0.55219,23.466666 0.30371,0 3.75934,-3.39974 7.67919,-7.55499 z"
         id="path182" />
      <path
         style="fill:#f2c532;stroke-width:1.06667"
         d="m 20.184614,525.94868 -3.117948,-3.11794 0.0043,-90.48205 c 0.0047,-99.25152 0.110101,-101.2241 6.413662,-120.03897 3.68904,-11.01105 6.922296,-17.63887 13.992441,-28.68295 l 5.189629,-8.10655 v -32.24217 -32.24217 l 3.117949,-3.11794 3.117948,-3.11795 h 27.897434 27.897431 l 3.11794,3.11795 c 3.03883,3.03882 3.11796,3.39422 3.11796,14.00444 v 10.88649 l 6.66666,-0.82466 c 3.66667,-0.45357 13.14667,-1.11556 21.06667,-1.47111 l 14.4,-0.64645 0.53333,-103.82587 0.53333,-103.825875 2.99281,-2.574119 2.99283,-2.57412 h 36.14769 36.1477 l 2.99282,2.57412 2.99282,2.574119 0.53333,103.825875 0.53333,103.82587 h 3.73334 3.73333 l 0.55602,-89.06666 c 0.37787,-60.527857 0.93041,-90.101737 1.72445,-92.29703 2.5787,-7.129473 6.22395,-12.879856 11.52545,-18.181341 6.33707,-6.337084 13.4967,-10.312246 21.71324,-12.055617 7.77082,-1.648797 101.45751,-1.648797 109.22833,0 15.30904,3.248244 29.57896,16.645848 33.37414,31.333995 0.45475,1.76 1.12341,7.446477 1.48592,12.636617 l 0.6591,9.436616 12.30264,4.033794 c 14.5742,4.778599 24.26274,9.518956 35.16403,17.204887 20.71892,14.607829 39.17148,39.609459 47.46227,64.307279 6.74613,20.09638 6.25703,5.80225 6.63941,194.03778 l 0.34844,171.52365 -3.14301,3.14301 -3.14301,3.143 h -19.3641 -19.36411 l -3.11794,-3.11795 -3.11795,-3.11794 v -45.35243 c 0,-24.94384 -0.37966,-45.58707 -0.84368,-45.87386 -0.46403,-0.28678 -13.06403,7.36548 -28,17.00501 -14.93598,9.63953 -29.79632,18.55481 -33.02299,19.81174 -7.51254,2.92645 -20.54623,3.17027 -28.40255,0.53132 -3.00808,-1.01042 -10.34422,-4.93809 -16.30254,-8.72817 -5.95832,-3.79007 -11.29716,-6.89104 -11.86411,-6.89104 -0.64218,0 -1.03079,13.1001 -1.03079,34.74871 v 34.74872 l -3.11795,3.11794 -3.11794,3.11795 H 187.73332 23.302563 Z M 235.0257,511.2939 l 36.97428,-0.70608 v -58.3798 c 0,-52.25075 -0.17714,-58.44778 -1.68724,-59.02725 -0.92798,-0.35611 -53.87197,-0.64746 -117.65333,-0.64746 -88.773615,0 -116.266222,0.30014 -117.246079,1.28 -1.846436,1.84643 -1.846436,115.06023 0,116.90666 1.450182,1.45019 133.799439,1.83071 199.612369,0.57393 z M 68.266662,452.26664 v -42.66667 h 8.533333 8.533333 v 42.66667 42.66666 h -8.533333 -8.533333 z m 271.786648,58.45333 c 1.87281,-1.87281 1.82277,-66.95161 -0.0533,-69.35038 -2.08665,-2.66796 -13.52943,-9.53913 -14.69066,-8.82146 -1.62107,1.00188 -1.39174,76.54277 0.23733,78.17184 1.66191,1.66191 12.84475,1.66191 14.50666,0 z M 271.46665,366.93331 v -8 L 154.2483,358.66193 c -85.732879,-0.19849 -117.607372,0.0515 -118.666658,0.9306 -1.829562,1.5184 -1.956105,12.80632 -0.16366,14.59876 0.989508,0.98951 28.252704,1.22232 118.666658,1.01334 l 117.38201,-0.27132 z m 0.32,-26.88 c 0.9542,-0.95419 1.28,-12.48351 1.28,-45.2958 v -44.0158 l -2.4,-1.37087 c -3.52869,-2.01556 -142.51894,-1.98727 -151.73332,0.0309 -33.668292,7.37404 -58.826795,26.18218 -73.032801,54.5982 -6.101821,12.20537 -11.772642,31.93425 -10.289814,35.79843 0.507501,1.32253 16.798485,1.5349 117.742475,1.5349 89.69713,0 117.45344,-0.29998 118.43346,-1.28 z m -203.249614,-21.92 c 2.402357,-26.00188 27.327739,-50.92727 53.329624,-53.32962 l 6.13333,-0.56667 v 8.66116 c 0,8.59145 -0.0236,8.66601 -2.93333,9.26331 -12.29718,2.52436 -19.24375,5.95084 -26.232362,12.93946 -6.988615,6.98862 -10.4151,13.93518 -12.939461,26.23236 -0.597307,2.90973 -0.671863,2.93334 -9.263312,2.93334 h -8.661158 z m 152.396284,4.31579 c -16.74388,-5.91701 -21.53254,-29.7682 -8.44269,-42.05107 11.00777,-10.32914 26.56194,-9.74197 36.61186,1.38208 5.071,5.61299 6.90293,10.17519 6.87407,17.11894 -0.0745,17.89919 -17.63641,29.70134 -35.04324,23.55005 z m 14.8,-18.44912 c 4.57239,-4.57239 0.70894,-12.8 -6.01052,-12.8 -3.24126,0 -6.78948,3.54823 -6.78948,6.78948 0,6.71946 8.2276,10.58292 12.8,6.01052 z M 69.85237,250.60766 c 4.414777,-2.96577 11.264038,-6.89317 15.220579,-8.72754 3.956542,-1.83437 7.546362,-3.84783 7.977378,-4.47434 1.280274,-1.86098 0.922186,-12.87327 -0.463666,-14.25913 -1.780525,-1.78052 -29.792807,-1.78052 -31.573331,0 -1.376676,1.37667 -1.89768,30.81343 -0.568889,32.14222 1.018956,1.01895 0.648185,1.20345 9.407929,-4.68121 z m 150.73428,-21.48767 c 1.85537,-1.85537 1.85537,-191.851286 0,-193.706659 -1.81333,-1.813334 -46.82666,-1.813334 -48.63999,0 -1.85537,1.855373 -1.85537,191.851289 0,193.706659 1.81333,1.81333 46.82666,1.81333 48.63999,0 z M 310.08128,107.9657 c 16.13592,-16.108537 30.83628,-25.136218 52.5198,-32.253077 19.86448,-6.519825 18.41351,-6.912627 -25.53443,-6.912627 h -37.86667 l -0.28632,24.799998 c -0.15749,13.639996 -0.0609,24.799996 0.21463,24.799996 0.27553,0 5.20437,-4.69543 10.95299,-10.43429 z"
         id="path180" />
      <path
         style="fill:#dcb32d;stroke-width:1.06667"
         d="m 20.184614,525.94868 -3.117948,-3.11794 0.0043,-90.48205 c 0.0047,-99.25152 0.110101,-101.2241 6.413662,-120.03897 3.68904,-11.01105 6.922296,-17.63887 13.992441,-28.68295 l 5.189629,-8.10655 v -32.24217 -32.24217 l 3.117949,-3.11794 3.117948,-3.11795 h 27.897434 27.897431 l 3.11794,3.11795 c 3.03883,3.03882 3.11796,3.39422 3.11796,14.00444 v 10.88649 l 6.66666,-0.82466 c 3.66667,-0.45357 13.14667,-1.11556 21.06667,-1.47111 l 14.4,-0.64645 0.53333,-103.82587 0.53333,-103.825875 2.99281,-2.574119 2.99283,-2.57412 h 36.14769 36.1477 l 2.99282,2.57412 2.99282,2.574119 0.53333,103.825875 0.53333,103.82587 h 3.73334 3.73333 l 0.55602,-89.06666 c 0.37787,-60.527857 0.93041,-90.101737 1.72445,-92.29703 2.5787,-7.129473 6.22395,-12.879856 11.52545,-18.181341 6.33707,-6.337084 13.4967,-10.312246 21.71324,-12.055617 7.77082,-1.648797 101.45751,-1.648797 109.22833,0 15.30904,3.248244 29.57896,16.645848 33.37414,31.333995 0.45475,1.76 1.12341,7.446477 1.48592,12.636617 l 0.6591,9.436616 12.30264,4.033794 c 14.5742,4.778599 24.26274,9.518956 35.16403,17.204887 20.71892,14.607829 39.17148,39.609459 47.46227,64.307279 6.74613,20.09638 6.25703,5.80225 6.63941,194.03778 l 0.34844,171.52365 -3.14301,3.14301 -3.14301,3.143 h -19.3641 -19.36411 l -3.11794,-3.11795 -3.11795,-3.11794 v -45.35243 c 0,-24.94384 -0.37966,-45.58707 -0.84368,-45.87386 -0.46403,-0.28678 -13.06403,7.36548 -28,17.00501 -14.93598,9.63953 -29.79632,18.55481 -33.02299,19.81174 -7.51254,2.92645 -20.54623,3.17027 -28.40255,0.53132 -3.00808,-1.01042 -10.34422,-4.93809 -16.30254,-8.72817 -5.95832,-3.79007 -11.29716,-6.89104 -11.86411,-6.89104 -0.64218,0 -1.03079,13.1001 -1.03079,34.74871 v 34.74872 l -3.11795,3.11794 -3.11794,3.11795 H 187.73332 23.302563 Z M 235.0257,511.2939 l 36.97428,-0.70608 v -58.3798 c 0,-52.25075 -0.17714,-58.44778 -1.68724,-59.02725 -0.92798,-0.35611 -53.87197,-0.64746 -117.65333,-0.64746 -88.773615,0 -116.266222,0.30014 -117.246079,1.28 -1.846436,1.84643 -1.846436,115.06023 0,116.90666 1.450182,1.45019 133.799439,1.83071 199.612369,0.57393 z M 68.266662,452.26664 v -42.66667 h 8.533333 8.533333 v 42.66667 42.66666 h -8.533333 -8.533333 z m 271.786648,58.45333 c 1.87281,-1.87281 1.82277,-66.95161 -0.0533,-69.35038 -2.08665,-2.66796 -13.52943,-9.53913 -14.69066,-8.82146 -1.62107,1.00188 -1.39174,76.54277 0.23733,78.17184 1.66191,1.66191 12.84475,1.66191 14.50666,0 z m -34.98666,-45.66658 v -44.81324 l -5.81543,-3.72009 c -3.19848,-2.04605 -6.07848,-3.72009 -6.4,-3.72009 -0.32151,0 -0.58457,21.84 -0.58457,48.53334 v 48.53333 h 6.4 6.4 z m 204.79999,-3.72008 c 0,-26.69334 -0.26307,-48.53334 -0.58458,-48.53334 -0.32152,0 -3.20151,1.67404 -6.4,3.72009 l -5.81542,3.72009 v 44.81324 44.81325 h 6.4 6.4 z m -97.06667,-12.48679 c 2.05334,-1.16896 24.74919,-15.62971 50.43521,-32.13501 l 46.70189,-30.00963 -0.3549,-102.41761 c -0.39663,-114.46068 -0.004,-108.29519 -8.16174,-128.16815 -13.45483,-32.77713 -43.29942,-57.69549 -77.95379,-65.086476 -12.19838,-2.601638 -32.60162,-2.601638 -44.8,0 -34.65436,7.390986 -64.49896,32.309346 -77.95378,65.086476 -8.15773,19.87296 -7.76511,13.70747 -8.16174,128.16815 l -0.3549,102.41761 47.23522,30.31749 c 25.97935,16.67461 48.35651,31.02895 49.72702,31.89854 5.83455,3.70205 17.0729,3.66812 23.64151,-0.0714 z M 393.989,367.96696 c -7.22627,-2.22826 -13.53191,-7.65506 -16.90342,-14.54751 -2.64461,-5.40643 -3.96374,-6.89228 -7.39336,-8.32782 -6.81371,-2.85202 -17.82273,-10.50027 -23.98651,-16.66404 -6.28461,-6.28462 -13.93694,-17.36329 -16.61308,-24.05163 -1.25552,-3.13786 -2.62372,-4.57487 -5.26524,-5.53006 -6.14924,-2.22359 -11.70777,-7.0598 -15.01233,-13.0615 -2.61552,-4.75027 -3.18492,-7.02396 -3.18492,-12.71775 0,-5.69379 0.5694,-7.96748 3.18492,-12.71775 3.30456,-6.0017 8.86309,-10.83791 15.01233,-13.0615 2.64152,-0.95519 4.00972,-2.3922 5.26524,-5.53006 2.6997,-6.74722 10.37924,-17.92767 16.55814,-24.10656 6.17889,-6.1789 17.35934,-13.85844 24.10656,-16.55814 3.13786,-1.25552 4.57487,-2.62372 5.53006,-5.26524 2.22359,-6.14925 7.0598,-11.70777 13.0615,-15.01233 4.75028,-2.61552 7.02396,-3.18493 12.71775,-3.18493 5.69379,0 7.96748,0.56941 12.71775,3.18493 5.94666,3.27425 10.83601,8.85783 13.00222,14.84836 0.98903,2.73515 2.70859,4.11418 8.74134,7.01032 14.88123,7.14402 29.17711,21.44257 36.213,36.21975 2.73959,5.75382 4.15316,7.51644 6.79644,8.47462 5.92988,2.14957 11.52045,7.05931 14.78083,12.98078 2.61552,4.75027 3.18493,7.02396 3.18493,12.71775 0,5.69379 -0.56941,7.96748 -3.18493,12.71775 -3.29761,5.98909 -8.86189,10.83748 -14.97431,13.04776 -2.65358,0.95954 -3.94411,2.35651 -5.19394,5.62231 -5.87061,15.33983 -24.82123,34.20315 -40.77402,40.58619 -3.13785,1.25552 -4.57487,2.62372 -5.53006,5.26524 -4.67882,12.93909 -20.53333,21.46112 -32.85689,17.66106 z m 11.34431,-22.36698 c 1.99111,-1.99112 2.13333,-3.55555 2.13333,-23.46667 v -21.33333 h -6.4 -6.4 v 21.33333 c 0,19.91112 0.14222,21.47555 2.13334,23.46667 1.17333,1.17333 3.09333,2.13333 4.26666,2.13333 1.17334,0 3.09334,-0.96 4.26667,-2.13333 z m -32,-33.6 v -11.2 H 362.073 350.8127 l 1.92641,3.26115 c 3.29515,5.57825 16.7918,18.24399 20.32753,19.0761 0.14667,0.0346 0.26667,-4.97725 0.26667,-11.13725 z m 68.4517,1.08488 c 3.12489,-3.15373 6.54877,-7.20799 7.60861,-9.00948 l 1.92696,-3.2754 h -11.2603 -11.26031 v 11.16402 11.16403 l 3.6517,-2.15456 c 2.00844,-1.185 6.20844,-4.73488 9.33334,-7.88861 z m -68.4517,-40.01821 v -6.4 h -21.33333 c -19.91111,0 -21.47555,0.14222 -23.46667,2.13333 -1.17333,1.17334 -2.13333,3.09334 -2.13333,4.26667 0,1.17333 0.96,3.09333 2.13333,4.26667 1.99112,1.99111 3.55556,2.13333 23.46667,2.13333 h 21.33333 z m 34.13333,0 v -6.4 h -6.4 -6.4 v 6.4 6.4 h 6.4 6.4 z m 66.13333,4.26667 c 1.17333,-1.17334 2.13333,-3.09334 2.13333,-4.26667 0,-1.17333 -0.96,-3.09333 -2.13333,-4.26667 -1.99111,-1.99111 -3.55555,-2.13333 -23.46666,-2.13333 h -21.33334 v 6.4 6.4 h 21.33334 c 19.91111,0 21.47555,-0.14222 23.46666,-2.13333 z M 373.33331,234.1693 v -11.16403 l -3.6517,2.15456 c -4.49405,2.65155 -14.3352,12.46723 -16.94194,16.89809 l -1.92697,3.2754 h 11.2603 11.26031 z m 34.13333,-10.16931 c 0,-19.91112 -0.14222,-21.47555 -2.13333,-23.46667 -1.17333,-1.17333 -3.09333,-2.13333 -4.26667,-2.13333 -1.17333,0 -3.09333,0.96 -4.26666,2.13333 -1.99112,1.99112 -2.13334,3.55555 -2.13334,23.46667 v 21.33333 h 6.4 6.4 z m 41.92698,18.05793 c -2.60675,-4.43086 -12.4479,-14.24654 -16.94195,-16.89809 l -3.6517,-2.15456 v 11.16403 11.16402 h 11.26031 11.2603 z m 41.51724,-21.97184 c -2.99629,-1.20556 -4.51089,-6.63253 -4.51089,-16.16302 0,-16.17256 -5.71099,-34.16311 -15.29752,-48.18974 -7.74785,-11.33633 -18.97633,-20.87679 -32.61932,-27.71556 -8.18932,-4.10502 -24.96937,-8.5511 -32.27289,-8.5511 -2.88725,0 -6.65874,-0.72873 -8.38111,-1.6194 -5.78314,-2.99057 -5.57603,-11.35231 0.34214,-13.81408 4.69408,-1.95259 20.48127,-0.31045 32.02959,3.33163 33.79221,10.65729 57.66087,34.56406 68.35134,68.46046 2.9884,9.47535 5.76913,32.89077 4.50442,37.92982 -1.40029,5.57918 -6.89533,8.44348 -12.14576,6.33099 z M 271.46665,366.93331 v -8 L 154.2483,358.66193 c -85.732879,-0.19849 -117.607372,0.0515 -118.666658,0.9306 -1.829562,1.5184 -1.956105,12.80632 -0.16366,14.59876 0.989508,0.98951 28.252704,1.22232 118.666658,1.01334 l 117.38201,-0.27132 z m 0.32,-26.88 c 0.9542,-0.95419 1.28,-12.48351 1.28,-45.2958 v -44.0158 l -2.4,-1.37087 c -3.52869,-2.01556 -142.51894,-1.98727 -151.73332,0.0309 -33.668292,7.37404 -58.826795,26.18218 -73.032801,54.5982 -6.101821,12.20537 -11.772642,31.93425 -10.289814,35.79843 0.507501,1.32253 16.798485,1.5349 117.742475,1.5349 89.69713,0 117.45344,-0.29998 118.43346,-1.28 z m -203.249614,-21.92 c 2.402357,-26.00188 27.327739,-50.92727 53.329624,-53.32962 l 6.13333,-0.56667 v 8.66116 c 0,8.59145 -0.0236,8.66601 -2.93333,9.26331 -12.29718,2.52436 -19.24375,5.95084 -26.232362,12.93946 -6.988615,6.98862 -10.4151,13.93518 -12.939461,26.23236 -0.597307,2.90973 -0.671863,2.93334 -9.263312,2.93334 h -8.661158 z m 152.396284,4.31579 c -16.74388,-5.91701 -21.53254,-29.7682 -8.44269,-42.05107 11.00777,-10.32914 26.56194,-9.74197 36.61186,1.38208 5.071,5.61299 6.90293,10.17519 6.87407,17.11894 -0.0745,17.89919 -17.63641,29.70134 -35.04324,23.55005 z m 14.8,-18.44912 c 4.57239,-4.57239 0.70894,-12.8 -6.01052,-12.8 -3.24126,0 -6.78948,3.54823 -6.78948,6.78948 0,6.71946 8.2276,10.58292 12.8,6.01052 z M 69.85237,250.60766 c 4.414777,-2.96577 11.264038,-6.89317 15.220579,-8.72754 3.956542,-1.83437 7.546362,-3.84783 7.977378,-4.47434 1.280274,-1.86098 0.922186,-12.87327 -0.463666,-14.25913 -1.780525,-1.78052 -29.792807,-1.78052 -31.573331,0 -1.376676,1.37667 -1.89768,30.81343 -0.568889,32.14222 1.018956,1.01895 0.648185,1.20345 9.407929,-4.68121 z m 150.73428,-21.48767 c 1.85537,-1.85537 1.85537,-191.851286 0,-193.706659 -1.81333,-1.813334 -46.82666,-1.813334 -48.63999,0 -1.85537,1.855373 -1.85537,191.851289 0,193.706659 1.81333,1.81333 46.82666,1.81333 48.63999,0 z m 50.35095,-20.32 c 0.004,-21.99659 1.43892,-34.30146 5.50186,-47.2 2.23963,-7.11012 2.3808,-9.82134 2.95623,-56.77705 l 0.60429,-49.310392 2.95758,-2.956276 2.95757,-2.956275 h 51.15152 51.15151 l 2.86408,2.864074 c 2.23077,2.230776 2.97291,4.176616 3.35632,8.8 l 0.49225,5.935925 h 6.26792 6.26791 v -4.942912 c 0,-2.718602 -0.58672,-6.918602 -1.30381,-9.333333 -1.71439,-5.772973 -9.5803,-13.638892 -15.35328,-15.353275 -6.23259,-1.850877 -101.25322,-1.850877 -107.48581,0 -5.77297,1.714383 -13.63889,9.580302 -15.35328,15.353275 -0.98023,3.300785 -1.30381,25.736686 -1.30381,90.399999 0,85.29845 0.0176,86.00957 2.13333,86.00957 2.05931,0 2.13349,-0.71254 2.13762,-20.53333 z M 310.08128,107.9657 c 16.13592,-16.108537 30.83628,-25.136218 52.5198,-32.253077 19.86448,-6.519825 18.41351,-6.912627 -25.53443,-6.912627 h -37.86667 l -0.28632,24.799998 c -0.15749,13.639996 -0.0609,24.799996 0.21463,24.799996 0.27553,0 5.20437,-4.69543 10.95299,-10.43429 z"
         id="path178" />
      <path
         style="fill:#535353;stroke-width:1.06667"
         d="m 20.184614,525.94868 -3.117948,-3.11794 0.0043,-90.48205 c 0.0047,-99.25152 0.110101,-101.2241 6.413662,-120.03897 3.68904,-11.01105 6.922296,-17.63887 13.992441,-28.68295 l 5.189629,-8.10655 v -32.24217 -32.24217 l 3.117949,-3.11794 3.117948,-3.11795 h 27.897434 27.897431 l 3.11794,3.11795 c 3.03883,3.03882 3.11796,3.39422 3.11796,14.00444 v 10.88649 l 6.66666,-0.82466 c 3.66667,-0.45357 13.14667,-1.11556 21.06667,-1.47111 l 14.4,-0.64645 0.53333,-103.82587 0.53333,-103.825875 2.99281,-2.574119 2.99283,-2.57412 h 36.14769 36.1477 l 2.99282,2.57412 2.99282,2.574119 0.53333,103.825875 0.53333,103.82587 h 3.73334 3.73333 l 0.55602,-89.06666 c 0.37787,-60.527857 0.93041,-90.101737 1.72445,-92.29703 2.5787,-7.129473 6.22395,-12.879856 11.52545,-18.181341 6.33707,-6.337084 13.4967,-10.312246 21.71324,-12.055617 7.77082,-1.648797 101.45751,-1.648797 109.22833,0 15.30904,3.248244 29.57896,16.645848 33.37414,31.333995 0.45475,1.76 1.12341,7.446477 1.48592,12.636617 l 0.6591,9.436616 12.30264,4.033794 c 14.5742,4.778599 24.26274,9.518956 35.16403,17.204887 20.71892,14.607829 39.17148,39.609459 47.46227,64.307279 6.74613,20.09638 6.25703,5.80225 6.63941,194.03778 l 0.34844,171.52365 -3.14301,3.14301 -3.14301,3.143 h -19.3641 -19.36411 l -3.11794,-3.11795 -3.11795,-3.11794 v -45.35243 c 0,-24.94384 -0.37966,-45.58707 -0.84368,-45.87386 -0.46403,-0.28678 -13.06403,7.36548 -28,17.00501 -14.93598,9.63953 -29.79632,18.55481 -33.02299,19.81174 -7.51254,2.92645 -20.54623,3.17027 -28.40255,0.53132 -3.00808,-1.01042 -10.34422,-4.93809 -16.30254,-8.72817 -5.95832,-3.79007 -11.29716,-6.89104 -11.86411,-6.89104 -0.64218,0 -1.03079,13.1001 -1.03079,34.74871 v 34.74872 l -3.11795,3.11794 -3.11794,3.11795 H 187.73332 23.302563 Z M 235.0257,511.2939 l 36.97428,-0.70608 v -58.3798 c 0,-52.25075 -0.17714,-58.44778 -1.68724,-59.02725 -0.92798,-0.35611 -53.87197,-0.64746 -117.65333,-0.64746 -88.773615,0 -116.266222,0.30014 -117.246079,1.28 -1.846436,1.84643 -1.846436,115.06023 0,116.90666 1.450182,1.45019 133.799439,1.83071 199.612369,0.57393 z M 68.266662,452.26664 v -42.66667 h 8.533333 8.533333 v 42.66667 42.66666 h -8.533333 -8.533333 z m 237.653318,58.45333 c 0.95364,-0.95364 1.28,-12.35395 1.28,-44.71276 0,-23.88802 -0.30017,-44.21499 -0.66705,-45.17105 -0.96478,-2.51417 -13.06066,-10.45109 -14.8696,-9.75693 -1.29811,0.49813 -1.53001,7.99674 -1.53001,49.47394 0,36.60084 0.32168,49.20848 1.28,50.1668 1.6619,1.66191 12.84475,1.66191 14.50666,0 z m 34.13333,0 c 1.87281,-1.87281 1.82277,-66.95161 -0.0533,-69.35038 -2.08665,-2.66796 -13.52943,-9.53913 -14.69066,-8.82146 -1.62107,1.00188 -1.39174,76.54277 0.23733,78.17184 1.66191,1.66191 12.84475,1.66191 14.50666,0 z m 170.66666,0 c 0.95831,-0.95832 1.28,-13.56596 1.28,-50.1668 0,-41.4772 -0.23191,-48.97581 -1.53002,-49.47394 -1.80894,-0.69416 -13.90482,7.24276 -14.8696,9.75693 -0.36688,0.95606 -0.66705,21.28303 -0.66705,45.17105 0,32.35881 0.32636,43.75912 1.28,44.71276 1.66191,1.66191 12.84476,1.66191 14.50667,0 z m -99.52,-59.38846 c 5.75129,-2.63517 97.78053,-61.76721 99.46667,-63.91084 1.67094,-2.12432 1.90903,-179.64497 0.26583,-198.20609 -2.71718,-30.69239 -17.35282,-58.70004 -40.44027,-77.38899 -10.37767,-8.40055 -26.38506,-16.721514 -40.09223,-20.840728 -8.93657,-2.685579 -10.96371,-2.884948 -29.33333,-2.884948 -18.36962,0 -20.39675,0.199369 -29.33333,2.884948 -45.55871,13.691098 -76.37613,51.280728 -80.5325,98.229718 -1.6432,18.56112 -1.40511,196.08177 0.26584,198.20609 1.68613,2.14363 93.71537,61.27567 99.46666,63.91084 2.49099,1.14135 6.70823,1.95495 10.13333,1.95495 3.4251,0 7.64235,-0.8136 10.13333,-1.95495 z m -20.26666,-86.39394 c -5.24029,-2.39362 -12.63126,-10.2515 -14.25984,-15.16067 -1.03624,-3.12364 -2.54047,-4.32019 -10.54112,-8.38497 -13.18953,-6.70105 -26.68994,-20.20145 -33.39098,-33.39099 -4.06479,-8.00065 -5.26134,-9.50487 -8.38497,-10.54112 -4.90918,-1.62857 -12.76705,-9.01955 -15.16067,-14.25984 -1.13402,-2.48266 -1.9489,-6.71967 -1.9489,-10.13333 0,-3.41366 0.81488,-7.65067 1.9489,-10.13333 2.39362,-5.24029 10.25149,-12.63127 15.16067,-14.25984 3.12363,-1.03625 4.32018,-2.54047 8.38497,-10.54112 6.70104,-13.18954 20.20145,-26.68994 33.39098,-33.39099 8.00065,-4.06478 9.50488,-5.26133 10.54112,-8.38497 1.62858,-4.90917 9.01955,-12.76705 14.25984,-15.16067 5.54138,-2.53114 14.72529,-2.53114 20.26666,0 5.24029,2.39362 12.63127,10.2515 14.25984,15.16067 1.03567,3.12189 2.54499,4.32399 10.54112,8.39558 13.24764,6.74562 26.79788,20.26402 33.41313,33.33461 4.23147,8.36065 5.13864,9.45408 9.09812,10.96623 5.41977,2.06982 11.78409,8.20245 14.4049,13.8805 2.56501,5.55714 2.56501,14.70952 0,20.26666 -2.62081,5.67805 -8.98513,11.81068 -14.4049,13.8805 -3.95338,1.50982 -4.87637,2.61847 -9.12983,10.96623 -6.69941,13.14817 -20.22887,26.66297 -33.38142,33.34522 -8.00065,4.06478 -9.50487,5.26133 -10.54112,8.38497 -1.62857,4.90917 -9.01955,12.76705 -14.25984,15.16067 -2.48266,1.13401 -6.71966,1.94889 -10.13333,1.94889 -3.41366,0 -7.65066,-0.81488 -10.13333,-1.94889 z m 14.42345,-17.21681 c 1.10909,-0.59357 2.51486,-2.87357 3.12393,-5.06667 1.60255,-5.77042 1.4697,-41.07703 -0.16071,-42.70744 -0.704,-0.704 -3.968,-1.28 -7.25334,-1.28 -3.28533,0 -6.54933,0.576 -7.25333,1.28 -1.62773,1.62773 -1.76451,36.93258 -0.1654,42.69049 1.57282,5.6632 6.57106,7.83328 11.70885,5.08362 z m -29.90645,-35.77411 c 0.0107,-6.93584 -0.43551,-11.17184 -1.26367,-12 -1.45238,-1.45239 -21.8597,-1.79361 -24.05099,-0.40216 -0.99607,0.63249 -0.54248,2.08857 1.80244,5.78612 6.08108,9.58885 20.74267,21.67186 22.65071,18.66703 0.46485,-0.73204 0.85253,-6.15499 0.86151,-12.05099 z m 66.20498,3.63413 c 6.77802,-6.4987 12.17756,-14.87094 10.34235,-16.03629 -2.1913,-1.39145 -22.59862,-1.05023 -24.051,0.40216 -1.34205,1.34205 -1.85278,20.51955 -0.63124,23.7028 0.56948,1.48406 1.1673,1.39918 4.89269,-0.6946 2.33417,-1.31188 6.58541,-4.63021 9.4472,-7.37407 z m -67.46865,-35.2608 c 0.704,-0.704 1.28,-3.968 1.28,-7.25333 0,-3.28533 -0.576,-6.54933 -1.28,-7.25333 -1.75057,-1.75057 -38.34267,-1.65505 -43.4971,0.11353 -4.42138,1.51707 -6.32272,5.55831 -4.73926,10.07313 0.68817,1.96212 2.25733,3.35487 4.73926,4.20647 5.15443,1.76858 41.74653,1.8641 43.4971,0.11353 z m 34.13334,0 c 0.704,-0.704 1.27999,-3.968 1.27999,-7.25333 0,-3.28533 -0.57599,-6.54933 -1.27999,-7.25333 -0.704,-0.704 -3.968,-1.28 -7.25334,-1.28 -3.28533,0 -6.54933,0.576 -7.25333,1.28 -1.66191,1.66191 -1.66191,12.84475 0,14.50666 1.66191,1.66191 12.84476,1.66191 14.50667,0 z m 63.12377,-0.11353 c 2.48193,-0.8516 4.05108,-2.24435 4.73925,-4.20647 1.58347,-4.51482 -0.31788,-8.55606 -4.73925,-10.07313 -5.15443,-1.76858 -41.74654,-1.8641 -43.49711,-0.11353 -1.66191,1.66191 -1.66191,12.84475 0,14.50666 1.75057,1.75057 38.34268,1.65505 43.49711,-0.11353 z m -97.25711,-34.0198 c 1.45239,-1.45238 1.79361,-21.8597 0.40216,-24.05099 -1.90804,-3.00483 -16.56963,9.07818 -22.65071,18.66703 -2.34492,3.69755 -2.79851,5.15363 -1.80244,5.78612 2.19129,1.39145 22.59861,1.05023 24.05099,-0.40216 z m 34.13334,0 c 1.75057,-1.75057 1.65505,-38.34267 -0.11354,-43.49711 -1.51707,-4.42137 -5.5583,-6.32271 -10.07313,-4.73925 -1.96211,0.68817 -3.35487,2.25732 -4.20646,4.73925 -1.76859,5.15444 -1.86411,41.74654 -0.11354,43.49711 0.704,0.704 3.968,1.28 7.25333,1.28 3.28534,0 6.54934,-0.576 7.25334,-1.28 z m 43.67766,0.40216 c 3.00482,-1.90805 -9.07819,-16.56963 -18.66704,-22.65071 -3.69755,-2.34492 -5.15362,-2.79851 -5.78611,-1.80244 -1.39146,2.19129 -1.05023,22.59861 0.40215,24.05099 1.45238,1.45239 21.8597,1.79361 24.051,0.40216 z m -180.53099,120.3445 v -8 L 154.2483,358.66193 c -85.732879,-0.19849 -117.607372,0.0515 -118.666658,0.9306 -1.829562,1.5184 -1.956105,12.80632 -0.16366,14.59876 0.989508,0.98951 28.252704,1.22232 118.666658,1.01334 l 117.38201,-0.27132 z m 0.32,-26.88 c 0.9542,-0.95419 1.28,-12.48351 1.28,-45.2958 v -44.0158 l -2.4,-1.37087 c -3.52869,-2.01556 -142.51894,-1.98727 -151.73332,0.0309 -33.668292,7.37404 -58.826795,26.18218 -73.032801,54.5982 -6.101821,12.20537 -11.772642,31.93425 -10.289814,35.79843 0.507501,1.32253 16.798485,1.5349 117.742475,1.5349 89.69713,0 117.45344,-0.29998 118.43346,-1.28 z m -203.249614,-21.92 c 2.402357,-26.00188 27.327739,-50.92727 53.329624,-53.32962 l 6.13333,-0.56667 v 8.66116 c 0,8.59145 -0.0236,8.66601 -2.93333,9.26331 -12.29718,2.52436 -19.24375,5.95084 -26.232362,12.93946 -6.988615,6.98862 -10.4151,13.93518 -12.939461,26.23236 -0.597307,2.90973 -0.671863,2.93334 -9.263312,2.93334 h -8.661158 z m 152.396284,4.31579 c -16.74388,-5.91701 -21.53254,-29.7682 -8.44269,-42.05107 11.00777,-10.32914 26.56194,-9.74197 36.61186,1.38208 5.071,5.61299 6.90293,10.17519 6.87407,17.11894 -0.0745,17.89919 -17.63641,29.70134 -35.04324,23.55005 z m 14.8,-18.44912 c 4.57239,-4.57239 0.70894,-12.8 -6.01052,-12.8 -3.24126,0 -6.78948,3.54823 -6.78948,6.78948 0,6.71946 8.2276,10.58292 12.8,6.01052 z M 69.85237,250.60766 c 4.414777,-2.96577 11.264038,-6.89317 15.220579,-8.72754 3.956542,-1.83437 7.546362,-3.84783 7.977378,-4.47434 1.280274,-1.86098 0.922186,-12.87327 -0.463666,-14.25913 -1.780525,-1.78052 -29.792807,-1.78052 -31.573331,0 -1.376676,1.37667 -1.89768,30.81343 -0.568889,32.14222 1.018956,1.01895 0.648185,1.20345 9.407929,-4.68121 z m 201.93428,-20.42101 c 0.91298,-0.91298 1.28,-7.60154 1.28,-23.32694 0,-23.74571 1.13603,-33.27039 5.83412,-48.91436 l 2.69921,-8.98797 V 102.69687 56.43636 l 2.61819,-2.618182 2.61818,-2.618181 h 50.2303 50.2303 l 2.61817,2.618181 c 1.99773,1.997727 2.61819,3.7465 2.61819,7.379427 0,7.804463 0.35126,8.135724 8.62713,8.135724 6.92859,0 7.36902,-0.146583 8.00054,-2.662774 0.36757,-1.464526 0.1411,-5.664526 -0.50328,-9.333333 -2.07066,-11.789514 -10.1973,-20.079935 -21.75708,-22.195597 -3.92903,-0.719088 -23.47154,-1.009951 -53.86667,-0.801732 -52.4779,0.359498 -51.24084,0.209527 -59.17242,7.173546 -2.11747,1.859172 -4.96257,5.639217 -6.32242,8.400101 l -2.47246,5.01979 -0.3092,85.33333 c -0.17006,46.93333 -0.0497,86.37819 0.26739,87.65526 0.49257,1.98355 1.53551,2.71241 4.89514,3.421 0.32267,0.068 1.16267,-0.45227 1.86667,-1.15627 z m -51.2,-1.06666 c 1.85537,-1.85537 1.85537,-191.851286 0,-193.706659 -1.81333,-1.813334 -46.82666,-1.813334 -48.63999,0 -1.85537,1.855373 -1.85537,191.851289 0,193.706659 1.81333,1.81333 46.82666,1.81333 48.63999,0 z M 310.08128,107.9657 c 16.13592,-16.108537 30.83628,-25.136218 52.5198,-32.253077 19.86448,-6.519825 18.41351,-6.912627 -25.53443,-6.912627 h -37.86667 l -0.28632,24.799998 c -0.15749,13.639996 -0.0609,24.799996 0.21463,24.799996 0.27553,0 5.20437,-4.69543 10.95299,-10.43429 z"
         id="path176" />
      <path
         style="fill:#5a4912;stroke-width:1.06667"
         d="m 20.751513,525.38178 -2.618181,-2.61817 0.02113,-89.91516 c 0.01265,-53.81956 0.447286,-92.91256 1.082699,-97.3818 2.63228,-18.5144 8.777819,-35.15933 18.472776,-50.0327 l 6.023394,-9.24071 v -32.54512 -32.5451 l 2.618181,-2.61818 2.618182,-2.61819 H 76.63334 c 34.55065,0 32.46707,-0.98025 33.23332,15.63521 l 0.53333,11.56479 4.8,-0.13341 c 2.64,-0.0734 12.48,-0.55337 21.86667,-1.06666 l 17.06666,-0.93326 0.53334,-104.36108 0.53333,-104.361087 2.51817,-2.03891 c 2.36822,-1.917496 4.66374,-2.038911 38.54849,-2.038911 33.88476,0 36.18028,0.121415 38.5485,2.038911 l 2.51817,2.03891 0.53333,104.361087 0.53334,104.36108 h 4.8 4.79999 l 0.53334,-89.6 0.53333,-89.59999 2.3976,-5.866666 c 4.58449,-11.217701 15.13501,-21.412913 26.12322,-25.24345 5.15684,-1.797698 9.98589,-1.956548 59.47918,-1.956548 60.43034,0 59.78828,-0.07181 70.35651,7.869006 11.73075,8.81431 16.92197,18.986759 17.8938,35.063754 0.32801,5.426352 1.12587,10.273306 1.77303,10.771007 0.64716,0.497701 5.49665,2.225175 10.77665,3.83883 21.64694,6.615663 35.64426,15.195508 52.26666,32.037537 20.88193,21.15784 32.81514,45.35307 36.74233,74.49704 0.74741,5.54662 1.12434,63.94002 1.12434,174.1818 v 165.83797 l -2.61819,2.61817 c -2.58515,2.58515 -2.85952,2.61819 -21.74849,2.61819 -17.24353,0 -19.37867,-0.20104 -21.64849,-2.03835 l -2.51816,-2.03833 -0.53334,-46.6733 c -0.35309,-30.90029 -0.90819,-46.79807 -1.64255,-47.04251 -0.61006,-0.20306 -13.81006,7.81352 -29.33333,17.81462 -30.67575,19.76333 -34.92409,21.69407 -47.42411,21.55282 -10.32296,-0.11666 -15.89131,-2.12082 -28.85661,-10.38608 -6.40034,-4.08016 -11.86405,-6.8739 -12.76622,-6.5277 -1.34712,0.51693 -1.57717,5.67372 -1.57717,35.35384 v 34.74863 l -2.61818,2.61817 -2.61818,2.61819 H 187.73332 23.369696 Z M 272.85332,511.78664 c 1.84684,-1.84685 1.84684,-117.19315 0,-119.04 -1.8579,-1.8579 -236.64876,-1.8579 -238.506655,0 -1.846844,1.84685 -1.846844,117.19315 0,119.04 1.857895,1.85789 236.648755,1.85789 238.506655,0 z m -203.519991,-59.52 v -41.6 h 7.466666 7.466667 v 41.6 41.6 h -7.466667 -7.466666 z m 271.786651,59.52 c 1.43768,-1.43769 1.87822,-68.71912 0.46367,-70.81377 -0.43102,-0.63825 -4.11418,-3.3819 -8.18481,-6.09701 -5.59756,-3.73359 -7.74202,-4.65367 -8.8,-3.77562 -1.94562,1.61472 -2.05925,78.746 -0.11886,80.6864 1.6859,1.68589 14.9541,1.68589 16.64,0 z m -35.2,-1.06667 c 0.95364,-0.95364 1.28,-12.35395 1.28,-44.71276 0,-23.88802 -0.30017,-44.21499 -0.66705,-45.17105 -0.96478,-2.51417 -13.06066,-10.45109 -14.8696,-9.75693 -1.29811,0.49813 -1.53001,7.99674 -1.53001,49.47394 0,36.60084 0.32168,49.20848 1.28,50.1668 1.6619,1.66191 12.84475,1.66191 14.50666,0 z m 204.79999,0 c 0.95831,-0.95832 1.28,-13.56596 1.28,-50.1668 0,-41.4772 -0.23191,-48.97581 -1.53002,-49.47394 -1.80894,-0.69416 -13.90482,7.24276 -14.8696,9.75693 -0.36688,0.95606 -0.66705,21.28303 -0.66705,45.17105 0,32.35881 0.32636,43.75912 1.28,44.71276 1.66191,1.66191 12.84476,1.66191 14.50667,0 z m -99.52,-59.38846 c 5.75129,-2.63517 97.78053,-61.76721 99.46667,-63.91084 1.67094,-2.12432 1.90903,-179.64497 0.26583,-198.20609 -2.71718,-30.69239 -17.35282,-58.70004 -40.44027,-77.38899 -10.37767,-8.40055 -26.38506,-16.721514 -40.09223,-20.840728 -8.93657,-2.685579 -10.96371,-2.884948 -29.33333,-2.884948 -18.36962,0 -20.39675,0.199369 -29.33333,2.884948 -45.55871,13.691098 -76.37613,51.280728 -80.5325,98.229718 -1.6432,18.56112 -1.40511,196.08177 0.26584,198.20609 1.68613,2.14363 93.71537,61.27567 99.46666,63.91084 2.49099,1.14135 6.70823,1.95495 10.13333,1.95495 3.4251,0 7.64235,-0.8136 10.13333,-1.95495 z m -20.26666,-86.39394 c -5.24029,-2.39362 -12.63126,-10.2515 -14.25984,-15.16067 -1.03624,-3.12364 -2.54047,-4.32019 -10.54112,-8.38497 -13.18953,-6.70105 -26.68994,-20.20145 -33.39098,-33.39099 -4.06479,-8.00065 -5.26134,-9.50487 -8.38497,-10.54112 -4.90918,-1.62857 -12.76705,-9.01955 -15.16067,-14.25984 -1.13402,-2.48266 -1.9489,-6.71967 -1.9489,-10.13333 0,-3.41366 0.81488,-7.65067 1.9489,-10.13333 2.39362,-5.24029 10.25149,-12.63127 15.16067,-14.25984 3.12363,-1.03625 4.32018,-2.54047 8.38497,-10.54112 6.70104,-13.18954 20.20145,-26.68994 33.39098,-33.39099 8.00065,-4.06478 9.50488,-5.26133 10.54112,-8.38497 1.62858,-4.90917 9.01955,-12.76705 14.25984,-15.16067 5.54138,-2.53114 14.72529,-2.53114 20.26666,0 5.24029,2.39362 12.63127,10.2515 14.25984,15.16067 1.03567,3.12189 2.54499,4.32399 10.54112,8.39558 13.24764,6.74562 26.79788,20.26402 33.41313,33.33461 4.23147,8.36065 5.13864,9.45408 9.09812,10.96623 5.41977,2.06982 11.78409,8.20245 14.4049,13.8805 2.56501,5.55714 2.56501,14.70952 0,20.26666 -2.62081,5.67805 -8.98513,11.81068 -14.4049,13.8805 -3.95338,1.50982 -4.87637,2.61847 -9.12983,10.96623 -6.69941,13.14817 -20.22887,26.66297 -33.38142,33.34522 -8.00065,4.06478 -9.50487,5.26133 -10.54112,8.38497 -1.62857,4.90917 -9.01955,12.76705 -14.25984,15.16067 -2.48266,1.13401 -6.71966,1.94889 -10.13333,1.94889 -3.41366,0 -7.65066,-0.81488 -10.13333,-1.94889 z m 14.42345,-17.21681 c 1.10909,-0.59357 2.51486,-2.87357 3.12393,-5.06667 1.60255,-5.77042 1.4697,-41.07703 -0.16071,-42.70744 -0.704,-0.704 -3.968,-1.28 -7.25334,-1.28 -3.28533,0 -6.54933,0.576 -7.25333,1.28 -1.62773,1.62773 -1.76451,36.93258 -0.1654,42.69049 1.57282,5.6632 6.57106,7.83328 11.70885,5.08362 z m -29.90645,-35.77411 c 0.0107,-6.93584 -0.43551,-11.17184 -1.26367,-12 -1.45238,-1.45239 -21.8597,-1.79361 -24.05099,-0.40216 -0.99607,0.63249 -0.54248,2.08857 1.80244,5.78612 6.08108,9.58885 20.74267,21.67186 22.65071,18.66703 0.46485,-0.73204 0.85253,-6.15499 0.86151,-12.05099 z m 66.20498,3.63413 c 6.77802,-6.4987 12.17756,-14.87094 10.34235,-16.03629 -2.1913,-1.39145 -22.59862,-1.05023 -24.051,0.40216 -1.34205,1.34205 -1.85278,20.51955 -0.63124,23.7028 0.56948,1.48406 1.1673,1.39918 4.89269,-0.6946 2.33417,-1.31188 6.58541,-4.63021 9.4472,-7.37407 z m -67.46865,-35.2608 c 0.704,-0.704 1.28,-3.968 1.28,-7.25333 0,-3.28533 -0.576,-6.54933 -1.28,-7.25333 -1.75057,-1.75057 -38.34267,-1.65505 -43.4971,0.11353 -4.42138,1.51707 -6.32272,5.55831 -4.73926,10.07313 0.68817,1.96212 2.25733,3.35487 4.73926,4.20647 5.15443,1.76858 41.74653,1.8641 43.4971,0.11353 z m 34.13334,0 c 0.704,-0.704 1.27999,-3.968 1.27999,-7.25333 0,-3.28533 -0.57599,-6.54933 -1.27999,-7.25333 -0.704,-0.704 -3.968,-1.28 -7.25334,-1.28 -3.28533,0 -6.54933,0.576 -7.25333,1.28 -1.66191,1.66191 -1.66191,12.84475 0,14.50666 1.66191,1.66191 12.84476,1.66191 14.50667,0 z m 63.12377,-0.11353 c 2.48193,-0.8516 4.05108,-2.24435 4.73925,-4.20647 1.58347,-4.51482 -0.31788,-8.55606 -4.73925,-10.07313 -5.15443,-1.76858 -41.74654,-1.8641 -43.49711,-0.11353 -1.66191,1.66191 -1.66191,12.84475 0,14.50666 1.75057,1.75057 38.34268,1.65505 43.49711,-0.11353 z m -97.25711,-34.0198 c 1.45239,-1.45238 1.79361,-21.8597 0.40216,-24.05099 -1.90804,-3.00483 -16.56963,9.07818 -22.65071,18.66703 -2.34492,3.69755 -2.79851,5.15363 -1.80244,5.78612 2.19129,1.39145 22.59861,1.05023 24.05099,-0.40216 z m 34.13334,0 c 1.75057,-1.75057 1.65505,-38.34267 -0.11354,-43.49711 -1.51707,-4.42137 -5.5583,-6.32271 -10.07313,-4.73925 -1.96211,0.68817 -3.35487,2.25732 -4.20646,4.73925 -1.76859,5.15444 -1.86411,41.74654 -0.11354,43.49711 0.704,0.704 3.968,1.28 7.25333,1.28 3.28534,0 6.54934,-0.576 7.25334,-1.28 z m 43.67766,0.40216 c 3.00482,-1.90805 -9.07819,-16.56963 -18.66704,-22.65071 -3.69755,-2.34492 -5.15362,-2.79851 -5.78611,-1.80244 -1.39146,2.19129 -1.05023,22.59861 0.40215,24.05099 1.45238,1.45239 21.8597,1.79361 24.051,0.40216 z m -179.14432,128.6645 c 1.6859,-1.6859 1.6859,-14.9541 0,-16.64 -1.8579,-1.8579 -236.64876,-1.8579 -238.506655,0 -0.73697,0.73697 -1.28,4.26667 -1.28,8.32 0,4.05333 0.54303,7.58303 1.28,8.32 1.857895,1.8579 236.648755,1.8579 238.506655,0 z m 0,-34.13333 c 0.95518,-0.95518 1.28,-12.72054 1.28,-46.36247 v -45.08246 l -2.4,-1.37087 c -3.38532,-1.93367 -133.52564,-2.64357 -147.46666,-0.80441 -34.985921,4.61548 -64.403058,25.51905 -80.262018,57.03354 -5.898558,11.72145 -11.179795,31.85161 -9.502889,36.22155 0.563588,1.46869 13.30989,1.64512 118.851437,1.64512 90.52676,0 118.51997,-0.29984 119.50013,-1.28 z M 69.333329,321.11915 c 0,-1.14446 0.526548,-4.62446 1.170107,-7.73333 4.461645,-21.55313 25.062591,-42.15408 46.615724,-46.61573 10.0074,-2.0716 9.81417,-2.19518 9.81417,6.27624 0,7.2662 -0.0709,7.46091 -2.93334,8.04849 -12.11161,2.48627 -17.90612,5.30849 -25.345923,12.34475 -7.594306,7.18237 -11.248928,14.27362 -13.825896,26.82708 -0.587586,2.86236 -0.782301,2.93333 -8.048498,2.93333 -6.672605,0 -7.446344,-0.21621 -7.446344,-2.08083 z m 154.659751,1.0842 c -10.12712,-3.08053 -16.31567,-10.34357 -17.75387,-20.8364 -1.41747,-10.3416 3.91311,-19.66521 14.08982,-24.6442 9.37616,-4.58733 19.33427,-2.76202 27.05557,4.95928 4.60864,4.60865 6.55883,8.76841 7.24988,15.46403 0.49304,4.777 0.12009,6.66431 -2.29059,11.59154 -5.57105,11.38683 -17.13258,16.87819 -28.35081,13.46575 z m 10.17004,-15.21104 c 2.87671,-1.31071 5.83687,-5.81829 5.83687,-8.88807 0,-3.28575 -5.90798,-7.97092 -10.05129,-7.97092 -8.08521,0 -11.04047,8.93901 -4.9641,15.01538 3.43096,3.43096 5.00207,3.74653 9.17852,1.84361 z M 68.888105,252.80846 c 4.236471,-2.92867 11.131861,-6.96825 15.323088,-8.97684 4.191227,-2.00859 8.318301,-4.23118 9.171274,-4.93908 1.950293,-1.6186 2.164568,-14.91885 0.270861,-16.81255 -1.786605,-1.78661 -31.92006,-1.78661 -33.706665,0 -1.37905,1.37905 -1.904246,34.00686 -0.568888,35.34221 1.126778,1.12679 1.393647,0.99731 9.51033,-4.61374 z M 221.65332,230.18665 c 1.85552,-1.85552 1.85552,-193.984467 0,-195.839985 -1.8158,-1.815796 -48.95753,-1.815796 -50.77333,0 -1.85552,1.855518 -1.85552,193.984465 0,195.839985 1.8158,1.8158 48.95753,1.8158 50.77333,0 z m 50.13333,0 c 0.91298,-0.91298 1.28,-7.60154 1.28,-23.32694 0,-23.74571 1.13603,-33.27039 5.83412,-48.91436 l 2.69921,-8.98797 V 102.69687 56.43636 l 2.61819,-2.618182 2.61818,-2.618181 h 50.2303 50.2303 l 2.61817,2.618181 c 1.99773,1.997727 2.61819,3.7465 2.61819,7.379427 0,7.804463 0.35126,8.135724 8.62713,8.135724 6.92859,0 7.36902,-0.146583 8.00054,-2.662774 0.36757,-1.464526 0.1411,-5.664526 -0.50328,-9.333333 -2.07066,-11.789514 -10.1973,-20.079935 -21.75708,-22.195597 -3.92903,-0.719088 -23.47154,-1.009951 -53.86667,-0.801732 -52.4779,0.359498 -51.24084,0.209527 -59.17242,7.173546 -2.11747,1.859172 -4.96257,5.639217 -6.32242,8.400101 l -2.47246,5.01979 -0.3092,85.33333 c -0.17006,46.93333 -0.0497,86.37819 0.26739,87.65526 0.49257,1.98355 1.53551,2.71241 4.89514,3.421 0.32267,0.068 1.16267,-0.45227 1.86667,-1.15627 z m 34.03726,-116.3068 c 16.95338,-18.53743 36.06111,-30.849213 58.44273,-37.656693 10.38799,-3.159558 12.91756,-4.721754 11.90756,-7.353786 -0.58112,-1.514375 -4.79564,-1.666055 -39.34586,-1.416044 l -38.69502,0.280002 -0.28564,25.866665 c -0.3276,29.668216 -0.41249,29.452376 7.97623,20.279856 z"
         id="path174" />
      <path
         style="fill:#020202;stroke-width:1.06667"
         d="m 22.742588,526.73199 c -1.278242,-0.61798 -2.865001,-2.42952 -3.526132,-4.02562 -0.871015,-2.10282 -1.090074,-28.43173 -0.795434,-95.60421 0.39289,-89.57202 0.481622,-93.00832 2.627867,-101.76885 3.92251,-16.01085 9.94776,-29.87365 18.312603,-42.13333 l 4.366754,-6.4 0.0026,-31.68314 c 0.0027,-33.54119 0.316628,-35.94551 4.970355,-38.0659 3.552464,-1.61861 52.645239,-1.61861 56.197699,0 3.88508,1.77017 4.9678,5.334 4.9678,16.35178 0,7.25055 0.38223,10.1157 1.4017,10.50691 0.77093,0.29583 3.85764,0.0915 6.85934,-0.45408 3.00171,-0.54558 12.33095,-1.33628 20.73164,-1.7571 l 15.27398,-0.76513 0.53334,-103.46666 c 0.29333,-56.906664 0.91974,-104.241646 1.39201,-105.188848 1.87908,-3.768726 5.52449,-4.14448 40.20798,-4.14448 34.6835,0 38.32891,0.375754 40.20799,4.14448 0.47227,0.947202 1.09868,48.282184 1.39201,105.188848 l 0.53334,103.46666 h 4.8 4.79999 l 0.53334,-89.65674 0.53333,-89.656734 3.9742,-8.039827 c 4.85897,-9.829714 11.95559,-16.79526 21.92091,-21.516042 l 7.17156,-3.397311 h 54.93333 54.93333 l 7.17155,3.397311 c 9.79358,4.639422 17.07985,11.714348 21.66793,21.03945 3.23286,6.570647 3.82442,9.026488 4.50753,18.712772 l 0.78632,11.149535 10.01566,2.901133 c 48.88522,14.160075 84.8927,57.489583 90.7467,109.199793 1.5807,13.96284 1.50484,334.48717 -0.08,337.9655 -1.94702,4.27326 -5.21146,4.96781 -23.34903,4.96781 -18.13758,0 -21.40202,-0.69455 -23.34905,-4.96781 -0.80786,-1.77308 -1.18429,-16.83359 -1.18429,-47.38253 0,-37.45482 -0.24498,-44.87728 -1.49706,-45.35775 -0.83456,-0.32026 -12.98955,6.84165 -27.46667,16.18377 -34.2252,22.08563 -34.74807,22.32432 -48.90293,22.32432 -12.82961,0 -16.41082,-1.26076 -31.33686,-11.03201 -13.42438,-8.78821 -12.39647,-11.15822 -12.39647,28.58182 0,36.06359 -0.27813,38.32913 -4.96781,40.4659 -3.57359,1.62823 -326.251385,1.5463 -329.622912,-0.0837 z M 273.59998,452.26664 V 391.99998 H 153.59999 33.599998 l -0.27705,59.19999 c -0.152377,32.56 -0.04664,59.80207 0.234955,60.53793 0.407195,1.06405 25.028597,1.28241 120.277047,1.06667 L 273.59998,512.5333 Z M 69.839609,492.58077 c -0.293024,-0.76361 -0.406811,-19.38668 -0.252859,-41.38458 l 0.279912,-39.99622 h 6.933333 6.933333 v 41.06667 41.06666 l -6.680474,0.31792 c -4.740579,0.22561 -6.835181,-0.0852 -7.213245,-1.07045 z m 238.190061,-25.3808 c 0.16298,-24.93333 0.0627,-46.29333 -0.22282,-47.46666 -0.55837,-2.29443 -14.06428,-11.2 -16.98559,-11.2 -1.60417,0 -1.75461,4.42037 -1.75461,51.55555 0,28.35556 0.33783,51.89338 0.75074,52.30629 0.4129,0.4129 4.6129,0.6129 9.33333,0.44445 l 8.58259,-0.3063 z m 34.11785,9.32107 0.28086,-36.01226 -8.19493,-5.34971 c -4.50722,-2.94235 -8.71361,-5.17695 -9.34754,-4.96578 -1.16964,0.38961 -2.30428,78.65674 -1.18267,81.57964 0.38824,1.01172 2.88519,1.29768 9.34659,1.07045 l 8.81682,-0.31008 z m 170.66259,-15.98773 c 0.31533,-59.23481 1.21111,-54.67824 -9.47326,-48.18783 -10.39656,6.31557 -9.47021,1.11635 -9.47021,53.1529 0,25.38032 0.33783,46.48386 0.75074,46.89677 0.41289,0.4129 4.61289,0.6129 9.33333,0.44445 l 8.58259,-0.3063 z m -104.77593,-6.44587 c 3.74498,-0.9747 19.37667,-10.4118 53.29913,-32.17751 26.39999,-16.93909 48.83999,-31.51284 49.86666,-32.38612 1.7532,-1.49129 1.86667,-7.66388 1.86667,-101.54943 0,-83.10777 -0.26397,-101.46888 -1.56563,-108.90133 -8.30137,-47.40086 -44.77324,-83.872724 -92.17409,-92.174096 -59.86583,-10.484383 -118.00901,31.159106 -128.69465,92.174096 -1.30165,7.43245 -1.56562,25.79356 -1.56562,108.90133 0,93.88555 0.11346,100.05814 1.86667,101.54943 1.02666,0.87328 23.46666,15.44888 49.86666,32.39021 53.98025,34.64006 55.31073,35.27674 67.2342,32.17342 z m -11.76754,-89.19526 c -8.04249,-2.01559 -15.71548,-8.87278 -18.17031,-16.23842 -0.98051,-2.94199 -2.52418,-4.25853 -8.58345,-7.32045 -9.85368,-4.97935 -15.86882,-9.31959 -22.41633,-16.17458 -6.74625,-7.06307 -9.54233,-11.07518 -14.29657,-20.51416 -3.06653,-6.08823 -4.37403,-7.62562 -7.32045,-8.60761 -5.06709,-1.68876 -11.50593,-7.40696 -14.23727,-12.64383 -6.31222,-12.10259 0.84109,-28.8321 14.23727,-33.29679 2.942,-0.98052 4.25853,-2.52418 7.32045,-8.58345 4.97935,-9.85368 9.31959,-15.86882 16.17458,-22.41633 7.06307,-6.74625 11.07518,-9.54233 20.51416,-14.29657 6.08823,-3.06653 7.62562,-4.37403 8.60761,-7.32045 4.46469,-13.39618 21.19421,-20.54949 33.2968,-14.23727 5.23686,2.73134 10.95506,9.17018 12.64383,14.23727 0.98051,2.94199 2.52418,4.25853 8.58344,7.32045 16.45797,8.31667 28.08337,19.63355 35.7483,34.79959 4.3466,8.6003 5.03495,9.40757 9.20424,10.79448 6.30889,2.09864 13.54809,10.34062 15.22606,17.33521 2.03409,8.47907 -0.0383,15.12117 -6.82762,21.88325 -3.07116,3.05882 -7.063,5.87611 -9.17141,6.47285 -3.20235,0.90636 -4.26432,2.11729 -7.46667,8.51396 -8.65945,17.29725 -19.28152,27.92542 -36.7129,36.73398 -6.05926,3.06192 -7.60293,4.37846 -8.58344,7.32045 -1.6381,4.91503 -7.37684,11.50218 -12.1105,13.90088 -4.79747,2.43104 -11.3713,3.41231 -15.65982,2.33754 z m 11.30302,-17.09779 3.13892,-3.13892 -0.28763,-23.26108 -0.28764,-23.26107 h -9.06667 -9.06666 l -0.28764,23.26107 -0.28764,23.26108 3.13892,3.13892 c 2.1471,2.14709 4.2019,3.13892 6.50302,3.13892 2.30112,0 4.35593,-0.99183 6.50302,-3.13892 z m -31.27205,-35.52774 -0.29763,-14.13333 -13.78012,-0.29989 c -7.57907,-0.16493 -14.22729,0.1473 -14.77384,0.69385 -1.44015,1.44015 3.91717,10.05904 10.33758,16.63113 6.45035,6.60274 13.02902,11.09229 16.38068,11.17882 2.42553,0.0626 2.43029,0.0312 2.13333,-14.07058 z m 58.12356,11.28625 c 9.27442,-5.852 22.77209,-22.51963 20.2661,-25.02562 -0.54655,-0.54655 -7.19477,-0.85878 -14.77385,-0.69385 l -13.78011,0.29989 -0.29763,14.13333 c -0.28706,13.6315 -0.22003,14.13333 1.88787,14.13333 1.20201,0 4.21594,-1.28118 6.69762,-2.84708 z m -58.42119,-50.48625 v -9.06667 l -23.26108,-0.28763 -23.26107,-0.28764 -3.13893,3.13892 c -2.14709,2.14709 -3.13892,4.2019 -3.13892,6.50302 0,2.30112 0.99183,4.35593 3.13892,6.50302 l 3.13893,3.13892 23.26107,-0.28764 23.26108,-0.28763 z m 34.13333,0 v -9.06667 h -9.06667 -9.06666 l -0.31677,7.90018 c -0.17422,4.34509 -0.0618,8.56463 0.24985,9.37674 0.43332,1.12919 2.64084,1.40363 9.38343,1.1665 l 8.81682,-0.31008 z m 65.68204,6.48205 c 4.20008,-4.20007 4.1927,-8.77142 -0.021,-12.98507 l -3.13892,-3.13892 -23.26108,0.28764 -23.26103,0.28763 -0.31677,7.90018 c -0.17422,4.34509 -0.0693,8.54509 0.23319,9.33334 0.43692,1.13858 5.28749,1.43315 23.59882,1.43315 h 23.04886 z m -99.51774,-45.68205 c 0.28705,-13.6315 0.22002,-14.13333 -1.88787,-14.13333 -5.34286,0 -19.36908,12.22404 -24.94652,21.74123 -1.5972,2.72541 -2.60306,5.44227 -2.23523,6.03743 0.41301,0.66826 6.04287,0.96851 14.72039,0.78506 l 14.0516,-0.29706 z m 34.12334,-9.12774 0.28763,-23.26108 -3.13892,-3.13892 c -4.21365,-4.21366 -8.785,-4.22104 -12.98507,-0.021 l -3.11795,3.11798 v 22.83761 c 0,12.56068 0.33784,23.17543 0.75074,23.58834 0.4129,0.41291 4.6129,0.61291 9.33334,0.44445 l 8.58259,-0.3063 z m 44.50312,22.74269 c 0.3575,-0.57846 -0.6568,-3.28164 -2.25401,-6.00705 -5.561,-9.48913 -19.60196,-21.74123 -24.91556,-21.74123 -2.04967,0 -2.15453,0.66622 -2.15453,13.68888 0,7.5289 0.32,14.0089 0.71112,14.4 1.14654,1.14655 27.89063,0.82818 28.61298,-0.3406 z M 273.59998,366.93331 v -9.06667 H 153.59999 33.599998 l -0.316765,7.90019 c -0.17422,4.34508 -0.06849,8.54715 0.234956,9.33793 0.459072,1.19632 20.663162,1.3922 120.316761,1.16648 l 119.76503,-0.27126 z m 0.27789,-71.06007 c 0.2526,-41.80652 0.11631,-46.12752 -1.49713,-47.46666 -1.47244,-1.22213 -14.42978,-1.47326 -76.01122,-1.47326 -67.39071,0 -74.97389,0.17462 -82.23619,1.89377 -30.792301,7.28917 -56.201075,27.46887 -70.288948,55.8236 -6.582787,13.24922 -11.229509,31.18704 -9.348606,36.0886 0.577114,1.50393 12.493038,1.64296 119.872514,1.39864 l 119.23169,-0.27128 z M 69.775675,321.7475 c -1.029625,-2.68316 2.759031,-15.83817 6.747169,-23.42761 5.181338,-9.86011 15.670283,-20.34906 25.530386,-25.53039 7.58944,-3.98814 20.74446,-7.77679 23.42762,-6.74717 1.01621,0.38995 1.45248,2.60826 1.45248,7.3854 v 6.82803 l -6.32539,1.24445 c -17.1441,3.37289 -31.941015,18.23576 -35.408608,35.56644 l -1.227182,6.13333 h -6.819554 c -4.769995,0 -6.987066,-0.43653 -7.376921,-1.45248 z m 155.290975,0.3036 c -11.08747,-2.21871 -18.36066,-11.53436 -18.44959,-23.63064 -0.0804,-10.93775 5.92635,-19.02186 16.90727,-22.75439 4.97634,-1.69151 6.33861,-1.7537 11.77308,-0.53752 5.1226,1.14638 7.07109,2.30082 11.70548,6.9352 4.63437,4.63439 5.78882,6.58288 6.9352,11.70547 1.21618,5.43447 1.15398,6.79675 -0.53753,11.77309 -4.32496,12.72383 -15.29815,19.11736 -28.33391,16.50879 z m 11.83408,-16.54229 c 4.24221,-3.83914 3.28121,-11.64257 -1.76647,-14.34401 -8.90377,-4.76515 -17.01477,3.30712 -12.25653,12.19798 2.62637,4.90743 9.76459,5.99984 14.023,2.14603 z m -166.6789,-53.1865 c 4.774947,-3.19605 12.307581,-7.53163 16.739189,-9.6346 l 8.057467,-3.82361 -0.309246,-8.76538 -0.309246,-8.7654 H 76.799995 59.199996 l -0.294889,17.02385 c -0.294883,17.02352 -0.05852,19.77615 1.698135,19.77615 0.515278,0 4.843643,-2.61496 9.618588,-5.81101 z m 204.03956,-45.38899 c 0.66428,-25.17532 2.6184,-39.86753 6.45514,-48.53333 1.08398,-2.4483 1.54207,-14.78015 1.95012,-52.49654 0.4921,-45.484957 0.68061,-49.443705 2.43809,-51.199992 1.77395,-1.772738 5.34253,-1.903461 51.96191,-1.903461 57.53828,0 53.22308,-0.820852 54.28894,10.327044 l 0.64439,6.739621 h 9.06666 9.06667 l 0.32355,-6.897178 C 411.02691,50.817612 404.95361,40.625795 394.13331,35.57637 l -5.33333,-2.488865 h -51.73333 -51.73333 l -5.33334,2.525622 c -6.45226,3.055499 -11.40283,8.076604 -14.31622,14.520203 -2.12529,4.700535 -2.17074,6.613575 -2.19369,92.31999 -0.0183,68.45872 0.26598,87.8094 1.30535,88.84877 0.73081,0.73081 3.01081,1.18681 5.06666,1.01333 l 3.7379,-0.31543 z m -51.8614,-74.66666 V 33.599998 h -26.13334 -26.13333 l -0.27518,97.599992 c -0.15135,53.68 -0.0431,98.20856 0.24049,98.95235 0.40104,1.05174 6.2715,1.28885 26.40852,1.06666 l 25.89284,-0.28568 z m 86.0398,-20.72545 c 17.5337,-18.740426 35.08907,-29.024727 64.36019,-37.703535 2.41106,-0.714872 3.2,-1.584325 3.2,-3.526568 v -2.577778 h -38.93333 -38.93333 l -0.28693,25.044597 c -0.27636,24.122184 -0.0843,27.755404 1.46681,27.755404 0.39242,0 4.49939,-4.04646 9.12659,-8.99212 z"
         id="path172" />
    </g>
  </g>
</svg>
