<?xml version="1.0" encoding="UTF-8" standalone="no"?>
<!-- Created with Inkscape (http://www.inkscape.org/) -->

<svg
   version="1.1"
   id="svg2"
   width="546.1333"
   height="546.1333"
   viewBox="0 0 546.1333 546.1333"
   xmlns="http://www.w3.org/2000/svg"
   xmlns:svg="http://www.w3.org/2000/svg">
  <defs
     id="defs6" />
  <g
     id="g8">
    <g
       id="g170">
      <path
         style="fill:#fddfa5;stroke-width:1.06667"
         d="m 41.066664,527.77829 c -3.391796,-1.94519 -4.729637,-4.29667 -4.766076,-8.37719 -0.05829,-6.52844 2.974718,-8.4853 23.166075,-14.94642 l 7.733333,-2.47463 v -55.79003 -55.79004 h -3.683143 c -2.025729,0 -4.811599,-0.51416 -6.190822,-1.14257 -5.532444,-2.52076 -5.568097,-2.80008 -5.92707,-46.43471 l -0.334368,-40.64393 -6.595186,-1.83363 C 33.77816,297.37271 25.755167,292.51916 17.066666,283.76773 4.9769295,271.59042 0,258.82699 0,239.99999 c 0,-18.79348 4.966953,-31.54908 17.066666,-43.82881 8.63245,-8.76089 18.563644,-14.52816 29.866664,-17.34428 5.114801,-1.27433 6.140073,-1.98599 8,-5.55287 2.325575,-4.45989 8.392498,-11.22214 11.652958,-12.98849 1.928972,-1.04503 1.785638,-1.44794 -2.373333,-6.67138 -5.394679,-6.77544 -9.211063,-14.45648 -11.380479,-22.90494 -2.305097,-8.97684 -2.314371,-49.716885 -0.01338,-58.751785 2.276749,-8.939697 7.350506,-18.55764 13.327143,-25.263278 4.897244,-5.494584 5.083521,-5.937644 4.536567,-10.790214 -0.482296,-4.278911 -0.190021,-5.465225 1.892673,-7.68215 3.489006,-3.713877 9.980078,-3.638328 13.947109,0.162328 2.821944,2.703596 3.03818,2.740062 7.476027,1.26078 3.687823,-1.229275 4.736454,-2.165595 5.432144,-4.850349 2.601241,-10.038506 16.617011,-9.798519 18.514701,0.31702 0.57709,3.076193 1.22352,3.628804 5.50645,4.707255 4.5677,1.15016 5.01929,1.062187 7.69204,-1.498466 3.91008,-3.746094 9.8095,-3.730537 13.57584,0.0358 2.4297,2.429712 2.68435,3.362469 2.14989,7.875167 -0.53448,4.512793 -0.28733,5.418008 2.08691,7.643839 4.52738,4.244368 11.77714,16.009257 14.37322,23.324832 2.23175,6.288868 2.49662,9.164513 2.8496,30.936995 0.5163,31.845536 -1.39967,40.200516 -12.64069,55.122456 l -4.16294,5.52612 3.67149,2.26911 c 4.13668,2.5566 9.55028,8.95522 11.16101,13.19177 l 1.07224,2.82021 h 36.58906 c 40.42758,0 41.33041,-0.1398 41.33041,-6.4 0,-5.77239 -2.42422,-6.4 -24.72048,-6.4 -12.37248,0 -20.96891,-0.45097 -22.57881,-1.18449 -5.33335,-2.43004 -5.50392,-3.80656 -5.45792,-44.04737 0.0377,-32.983456 0.2594,-37.905717 1.86439,-41.395093 2.37015,-5.152884 7.65752,-11.12065 12.63878,-14.26518 l 3.96954,-2.505859 0.34225,-16.540989 c 0.32085,-15.506745 0.49265,-16.691203 2.74763,-18.943424 3.30486,-3.300792 10.01771,-3.300792 13.32256,0 2.25499,2.252221 2.42679,3.436679 2.74764,18.943424 l 0.34225,16.540989 3.96954,2.505859 c 2.18325,1.378222 5.56928,4.327862 7.52452,6.554756 6.68703,7.616106 6.83313,8.48092 7.48983,44.333117 l 0.59827,32.6624 4.71876,3.60427 c 6.64644,5.07666 9.68124,11.28576 9.68124,19.80748 0,11.54428 -6.26659,20.65001 -16.79783,24.40824 -3.04071,1.08512 -12.8988,1.43948 -41.03547,1.47505 l -37.03331,0.0468 -0.30003,93.6 c -0.32409,101.10937 -0.0647,96.73535 -5.89272,99.39076 -1.37922,0.62841 -4.16509,1.14257 -6.19082,1.14257 h -3.68314 v 55.79004 55.79003 l 7.73333,2.47463 c 20.21411,6.4684 23.2,8.40048 23.2,15.01195 0,4.41079 -2.86126,8.13996 -7.05263,9.19193 -2.68853,0.67477 -24.70617,-5.7478 -35.64202,-10.39682 -8.43097,-3.58415 -7.93514,0.4476 -8.28022,-67.32843 l -0.30821,-60.53333 H 109.33333 87.54974 l -0.308206,60.53333 c -0.260575,51.17826 -0.55115,60.8998 -1.880212,62.90464 -1.901074,2.86771 -6.990914,5.09546 -24.782569,10.84692 -14.563186,4.70781 -16.234964,4.97286 -19.512089,3.09342 z M 51.199997,240.00434 v -42.66233 l -5.167011,1.96331 c -11.229097,4.26673 -19.022194,11.68361 -24.450054,23.26972 -2.596849,5.54313 -2.916266,7.45168 -2.916266,17.42495 0,9.97326 0.319417,11.88181 2.916266,17.42494 5.365794,11.45363 13.113106,18.8935 24.185158,23.22539 2.694215,1.0541 5.018574,1.939 5.16524,1.96644 0.146667,0.0274 0.266667,-19.14816 0.266667,-42.61242 z M 116.9606,153.85033 c 3.10874,-1.98507 6.74638,-23.44412 6.76398,-39.90182 0.007,-7.28038 -0.29997,-8.55173 -2.78498,-11.50499 -3.48058,-4.136434 -7.83328,-6.443526 -12.15676,-6.443526 -4.22735,0 -6.9821,1.428861 -11.996182,6.222286 -3.977622,3.80257 -4.109198,3.84056 -14.785553,4.26938 l -10.772215,0.43267 0.419457,10.27116 c 0.330289,8.08775 0.965333,11.39506 2.987344,15.55812 4.678229,9.63187 13.31294,17.30881 22.856635,20.32134 4.796814,1.51415 17.517864,2.0208 19.468274,0.77538 z m 83.96157,373.96897 c -5.35901,-2.59493 -5.18885,1.26451 -5.18885,-117.68599 0,-119.76876 -0.21604,-115.14411 5.50072,-117.74884 1.75566,-0.79993 15.39647,-1.18449 42.01613,-1.18449 h 39.41648 v -6.31938 -6.31937 l -14.90675,-0.34729 c -13.80346,-0.32158 -15.08454,-0.52532 -17.30909,-2.75268 -3.30064,-3.30482 -3.30064,-10.01773 0,-13.32256 2.22356,-2.22637 3.50729,-2.43115 17.24961,-2.75163 l 14.84727,-0.34625 0.33595,-82.85375 0.33595,-82.853742 2.46767,-6.135557 c 5.09935,-12.678906 16.07382,-22.597068 28.61947,-25.864794 8.45056,-2.201093 93.67412,-2.324018 102.91719,-0.148447 14.74817,3.471323 26.92019,15.64335 30.39152,30.39152 0.83755,3.558369 1.42469,12.46353 1.43454,21.75728 l 0.0167,15.73333 h 45.24609 c 24.88535,0 46.0231,0.29816 46.97278,0.66259 2.10025,0.80594 4.84779,5.87132 4.84779,8.93741 0,3.69048 -3.06113,8.45783 -5.88607,9.16685 l -2.64726,0.66442 v 14.16873 14.16872 l 2.64726,0.66443 c 2.82494,0.70901 5.88607,5.47636 5.88607,9.16685 0,3.69048 -3.06113,8.45783 -5.88607,9.16684 l -2.64726,0.66443 v 63.23539 63.23539 l 2.64726,0.66442 c 2.82494,0.70902 5.88607,5.47636 5.88607,9.16685 0,3.69048 -3.06113,8.45783 -5.88607,9.16685 l -2.64726,0.66442 v 14.16873 14.16872 l 2.64726,0.66443 c 2.82494,0.70901 5.88607,5.47636 5.88607,9.16685 0,3.06609 -2.74754,8.13146 -4.84779,8.9374 -0.94968,0.36443 -18.48743,0.6626 -38.97278,0.6626 h -37.24609 v 6.4 6.4 h 31.94981 c 20.44312,0 32.85295,0.41149 34.45748,1.14257 5.62557,2.56317 5.56676,2.00922 5.93663,55.92409 0.37835,55.15008 0.0494,62.06971 -3.1117,65.46279 -2.75847,2.96086 -6.71863,3.86399 -10.34916,2.36017 -5.96075,-2.46902 -6.05328,-3.0422 -6.42912,-39.82296 l -0.34605,-33.86667 h -26.05395 -26.05394 l -0.0107,18.93333 c -0.01,17.67749 -0.17766,19.2871 -2.53175,24.26667 -3.03035,6.41003 -7.01184,10.32916 -13.45783,13.24703 -12.23068,5.53639 -26.51765,-0.25884 -32.65782,-13.24703 -2.35409,-4.97957 -2.52202,-6.58918 -2.53175,-24.26667 l -0.0102,-18.93333 H 387.8127 361.75875 l -0.34605,34.22207 -0.34606,34.22206 -3.48349,3.11127 c -4.40903,3.9379 -7.82463,3.9376 -12.23301,-10e-4 l -3.48349,-3.11233 v -55.92571 c 0,-60.145 -0.011,-60.02051 5.50071,-62.53178 1.72065,-0.784 13.40273,-1.1845 34.54947,-1.1845 h 31.94981 v -6.4 -6.4 h -37.40345 c -38.16116,0 -40.31709,-0.20755 -43.36262,-4.17423 -3.57117,-4.65133 -0.32892,-13.1082 5.5956,-14.59516 l 2.63714,-0.66189 v -14.16872 -14.16873 l -2.63714,-0.66188 c -9.21805,-2.31358 -9.21805,-16.0252 0,-18.33878 l 2.63714,-0.66188 V 259.73339 196.498 l -2.63714,-0.66189 c -9.21805,-2.31358 -9.21805,-16.02519 0,-18.33877 l 2.63714,-0.66189 V 162.66673 148.498 l -2.63714,-0.66189 c -4.10464,-1.03019 -6.96744,-4.7916 -6.92894,-9.10385 0.0748,-8.37778 3.32958,-9.66553 24.42929,-9.66553 h 17.13679 v -16.56759 c 0,-18.090713 -0.71544,-21.266607 -5.96183,-26.464784 -6.29732,-6.239455 -7.75829,-6.567624 -29.23817,-6.567624 -21.47988,0 -22.94085,0.328169 -29.23816,6.567624 -6.22008,6.162912 -5.96184,1.505218 -5.96184,107.531444 v 97.63425 h 3.68315 c 2.02573,0 4.8116,0.51416 6.19082,1.14257 5.8548,2.66763 5.56608,-2.78919 5.92204,111.92409 0.18115,58.37333 0.0289,109.0774 -0.33826,112.67571 -0.97834,9.58771 -6.18448,14.01508 -13.10802,11.14725 -6.18292,-2.56105 -6.05454,-1.4064 -6.40694,-57.62025 l -0.32387,-51.66396 -8.48855,15.39729 c -4.66869,8.46851 -9.70971,16.47729 -11.20227,17.79729 -2.59874,2.29832 -3.52219,2.4 -21.79476,2.4 -18.27256,0 -19.19602,-0.10165 -21.79476,-2.4 -1.49255,-1.32 -6.53358,-9.32878 -11.20227,-17.79729 l -8.48855,-15.39729 -0.32387,51.66396 c -0.34843,55.58111 -0.27675,54.88503 -5.91658,57.45471 -3.04193,1.386 -5.40036,1.35664 -8.41845,-0.10474 z m 242.81114,-36.086 c 1.96093,-1.96094 2.13333,-3.55555 2.13333,-19.73333 v -17.6 h -6.4 -6.4 v 17.6 c 0,16.17778 0.17239,17.77239 2.13333,19.73333 1.17334,1.17334 3.09334,2.13334 4.26667,2.13334 1.17333,0 3.09333,-0.96 4.26667,-2.13334 z m 2.13333,-94.93332 v -6.4 h -6.4 -6.4 v 6.4 6.4 h 6.4 6.4 z m -0.52243,-107.13581 c 11.25378,-4.70213 10.33771,-22.08301 -1.37901,-26.16463 -3.95676,-1.37837 -5.04036,-1.37837 -8.99712,0 -8.53231,2.97231 -12.02612,13.19437 -7.20978,21.0941 3.60474,5.91245 10.68502,7.9539 17.58591,5.07053 z M 429.86664,113.99041 c 0,-17.90068 -1.08486,-22.318294 -6.91183,-28.145256 -5.53677,-5.536767 -10.41604,-6.911825 -24.52604,-6.911825 -10.49897,0 -11.39149,0.156096 -10.67317,1.866666 4.6872,11.161885 4.96573,12.682712 5.56458,30.384125 l 0.60499,17.88254 h 17.97073 17.97074 z"
         id="path184" />
      <path
         style="fill:#cacaca;stroke-width:1.06667"
         d="m 41.066664,527.77829 c -3.391796,-1.94519 -4.729637,-4.29667 -4.766076,-8.37719 -0.05829,-6.52844 2.974718,-8.4853 23.166075,-14.94642 l 7.733333,-2.47463 v -55.79003 -55.79004 h -3.683143 c -2.025729,0 -4.811599,-0.51416 -6.190822,-1.14257 -5.532444,-2.52076 -5.568097,-2.80008 -5.92707,-46.43471 l -0.334368,-40.64393 -6.595186,-1.83363 C 33.77816,297.37271 25.755167,292.51916 17.066666,283.76773 4.9769295,271.59042 0,258.82699 0,239.99999 c 0,-18.79348 4.966953,-31.54908 17.066666,-43.82881 8.63245,-8.76089 18.563644,-14.52816 29.866664,-17.34428 5.114801,-1.27433 6.140073,-1.98599 8,-5.55287 2.325575,-4.45989 8.392498,-11.22214 11.652958,-12.98849 1.928972,-1.04503 1.785638,-1.44794 -2.373333,-6.67138 -5.394679,-6.77544 -9.211063,-14.45648 -11.380479,-22.90494 -2.305097,-8.97684 -2.314371,-49.716885 -0.01338,-58.751785 2.276749,-8.939697 7.350506,-18.55764 13.327143,-25.263278 4.897244,-5.494584 5.083521,-5.937644 4.536567,-10.790214 -0.482296,-4.278911 -0.190021,-5.465225 1.892673,-7.68215 3.489006,-3.713877 9.980078,-3.638328 13.947109,0.162328 2.821944,2.703596 3.03818,2.740062 7.476027,1.26078 3.687823,-1.229275 4.736454,-2.165595 5.432144,-4.850349 2.601241,-10.038506 16.617011,-9.798519 18.514701,0.31702 0.57709,3.076193 1.22352,3.628804 5.50645,4.707255 4.5677,1.15016 5.01929,1.062187 7.69204,-1.498466 3.91008,-3.746094 9.8095,-3.730537 13.57584,0.0358 2.4297,2.429712 2.68435,3.362469 2.14989,7.875167 -0.53448,4.512793 -0.28733,5.418008 2.08691,7.643839 4.52738,4.244368 11.77714,16.009257 14.37322,23.324832 2.23175,6.288868 2.49662,9.164513 2.8496,30.936995 0.5163,31.845536 -1.39967,40.200516 -12.64069,55.122456 l -4.16294,5.52612 3.67149,2.26911 c 4.13668,2.5566 9.55028,8.95522 11.16101,13.19177 l 1.07224,2.82021 h 36.58906 c 40.42758,0 41.33041,-0.1398 41.33041,-6.4 0,-5.77239 -2.42422,-6.4 -24.72048,-6.4 -12.37248,0 -20.96891,-0.45097 -22.57881,-1.18449 -5.33335,-2.43004 -5.50392,-3.80656 -5.45792,-44.04737 0.0377,-32.983456 0.2594,-37.905717 1.86439,-41.395093 2.37015,-5.152884 7.65752,-11.12065 12.63878,-14.26518 l 3.96954,-2.505859 0.34225,-16.540989 c 0.32085,-15.506745 0.49265,-16.691203 2.74763,-18.943424 3.30486,-3.300792 10.01771,-3.300792 13.32256,0 2.25499,2.252221 2.42679,3.436679 2.74764,18.943424 l 0.34225,16.540989 3.96954,2.505859 c 2.18325,1.378222 5.56928,4.327862 7.52452,6.554756 6.68703,7.616106 6.83313,8.48092 7.48983,44.333117 l 0.59827,32.6624 4.71876,3.60427 c 6.64644,5.07666 9.68124,11.28576 9.68124,19.80748 0,11.54428 -6.26659,20.65001 -16.79783,24.40824 -3.04071,1.08512 -12.8988,1.43948 -41.03547,1.47505 l -37.03331,0.0468 -0.30003,93.6 c -0.32409,101.10937 -0.0647,96.73535 -5.89272,99.39076 -1.37922,0.62841 -4.16509,1.14257 -6.19082,1.14257 h -3.68314 v 55.79004 55.79003 l 7.73333,2.47463 c 20.21411,6.4684 23.2,8.40048 23.2,15.01195 0,4.41079 -2.86126,8.13996 -7.05263,9.19193 -2.68853,0.67477 -24.70617,-5.7478 -35.64202,-10.39682 -8.43097,-3.58415 -7.93514,0.4476 -8.28022,-67.32843 l -0.30821,-60.53333 H 109.33333 87.54974 l -0.308206,60.53333 c -0.260575,51.17826 -0.55115,60.8998 -1.880212,62.90464 -1.901074,2.86771 -6.990914,5.09546 -24.782569,10.84692 -14.563186,4.70781 -16.234964,4.97286 -19.512089,3.09342 z M 125.86666,306.46237 v -64.73762 l -4.53333,-9.35238 -4.53334,-9.35239 -7.49598,-0.0433 -7.49597,-0.0434 -2.999791,6.88583 c -4.683093,10.74974 -14.514034,19.40435 -26.541587,23.36574 -1.747716,0.57563 -1.866666,4.35537 -1.866666,59.31495 v 58.70014 H 98.133327 125.86666 Z M 51.199997,240.00434 v -42.66233 l -5.167011,1.96331 c -11.229097,4.26673 -19.022194,11.68361 -24.450054,23.26972 -2.596849,5.54313 -2.916266,7.45168 -2.916266,17.42495 0,9.97326 0.319417,11.88181 2.916266,17.42494 5.365794,11.45363 13.113106,18.8935 24.185158,23.22539 2.694215,1.0541 5.018574,1.939 5.16524,1.96644 0.146667,0.0274 0.266667,-19.14816 0.266667,-42.61242 z M 116.9606,153.85033 c 3.10874,-1.98507 6.74638,-23.44412 6.76398,-39.90182 0.007,-7.28038 -0.29997,-8.55173 -2.78498,-11.50499 -3.48058,-4.136434 -7.83328,-6.443526 -12.15676,-6.443526 -4.22735,0 -6.9821,1.428861 -11.996182,6.222286 -3.977622,3.80257 -4.109198,3.84056 -14.785553,4.26938 l -10.772215,0.43267 0.419457,10.27116 c 0.330289,8.08775 0.965333,11.39506 2.987344,15.55812 4.678229,9.63187 13.31294,17.30881 22.856635,20.32134 4.796814,1.51415 17.517864,2.0208 19.468274,0.77538 z m 83.96157,373.96897 c -5.35901,-2.59493 -5.18885,1.26451 -5.18885,-117.68599 0,-119.76876 -0.21604,-115.14411 5.50072,-117.74884 1.75566,-0.79993 15.39647,-1.18449 42.01613,-1.18449 h 39.41648 v -6.31938 -6.31937 l -14.90675,-0.34729 c -13.80346,-0.32158 -15.08454,-0.52532 -17.30909,-2.75268 -3.30064,-3.30482 -3.30064,-10.01773 0,-13.32256 2.22356,-2.22637 3.50729,-2.43115 17.24961,-2.75163 l 14.84727,-0.34625 0.33595,-82.85375 0.33595,-82.853742 2.46767,-6.135557 c 5.09935,-12.678906 16.07382,-22.597068 28.61947,-25.864794 8.45056,-2.201093 93.67412,-2.324018 102.91719,-0.148447 14.74817,3.471323 26.92019,15.64335 30.39152,30.39152 0.83755,3.558369 1.42469,12.46353 1.43454,21.75728 l 0.0167,15.73333 h 45.24609 c 24.88535,0 46.0231,0.29816 46.97278,0.66259 2.10025,0.80594 4.84779,5.87132 4.84779,8.93741 0,3.69048 -3.06113,8.45783 -5.88607,9.16685 l -2.64726,0.66442 v 14.16873 14.16872 l 2.64726,0.66443 c 2.82494,0.70901 5.88607,5.47636 5.88607,9.16685 0,3.69048 -3.06113,8.45783 -5.88607,9.16684 l -2.64726,0.66443 v 63.23539 63.23539 l 2.64726,0.66442 c 2.82494,0.70902 5.88607,5.47636 5.88607,9.16685 0,3.69048 -3.06113,8.45783 -5.88607,9.16685 l -2.64726,0.66442 v 14.16873 14.16872 l 2.64726,0.66443 c 2.82494,0.70901 5.88607,5.47636 5.88607,9.16685 0,3.06609 -2.74754,8.13146 -4.84779,8.9374 -0.94968,0.36443 -18.48743,0.6626 -38.97278,0.6626 h -37.24609 v 6.4 6.4 h 31.94981 c 20.44312,0 32.85295,0.41149 34.45748,1.14257 5.62557,2.56317 5.56676,2.00922 5.93663,55.92409 0.37835,55.15008 0.0494,62.06971 -3.1117,65.46279 -2.75847,2.96086 -6.71863,3.86399 -10.34916,2.36017 -5.96075,-2.46902 -6.05328,-3.0422 -6.42912,-39.82296 l -0.34605,-33.86667 h -26.05395 -26.05394 l -0.0107,18.93333 c -0.01,17.67749 -0.17766,19.2871 -2.53175,24.26667 -3.03035,6.41003 -7.01184,10.32916 -13.45783,13.24703 -12.23068,5.53639 -26.51765,-0.25884 -32.65782,-13.24703 -2.35409,-4.97957 -2.52202,-6.58918 -2.53175,-24.26667 l -0.0102,-18.93333 H 387.8127 361.75875 l -0.34605,34.22207 -0.34606,34.22206 -3.48349,3.11127 c -4.40903,3.9379 -7.82463,3.9376 -12.23301,-10e-4 l -3.48349,-3.11233 v -55.92571 c 0,-60.145 -0.011,-60.02051 5.50071,-62.53178 1.72065,-0.784 13.40273,-1.1845 34.54947,-1.1845 h 31.94981 v -6.4 -6.4 h -37.40345 c -38.16116,0 -40.31709,-0.20755 -43.36262,-4.17423 -3.57117,-4.65133 -0.32892,-13.1082 5.5956,-14.59516 l 2.63714,-0.66189 v -14.16872 -14.16873 l -2.63714,-0.66188 c -9.21805,-2.31358 -9.21805,-16.0252 0,-18.33878 l 2.63714,-0.66188 V 259.73339 196.498 l -2.63714,-0.66189 c -9.21805,-2.31358 -9.21805,-16.02519 0,-18.33877 l 2.63714,-0.66189 V 162.66673 148.498 l -2.63714,-0.66189 c -4.10464,-1.03019 -6.96744,-4.7916 -6.92894,-9.10385 0.0748,-8.37778 3.32958,-9.66553 24.42929,-9.66553 h 17.13679 v -16.56759 c 0,-18.090713 -0.71544,-21.266607 -5.96183,-26.464784 -6.29732,-6.239455 -7.75829,-6.567624 -29.23817,-6.567624 -21.47988,0 -22.94085,0.328169 -29.23816,6.567624 -6.22008,6.162912 -5.96184,1.505218 -5.96184,107.531444 v 97.63425 h 3.68315 c 2.02573,0 4.8116,0.51416 6.19082,1.14257 5.8548,2.66763 5.56608,-2.78919 5.92204,111.92409 0.18115,58.37333 0.0289,109.0774 -0.33826,112.67571 -0.97834,9.58771 -6.18448,14.01508 -13.10802,11.14725 -6.18292,-2.56105 -6.05454,-1.4064 -6.40694,-57.62025 l -0.32387,-51.66396 -8.48855,15.39729 c -4.66869,8.46851 -9.70971,16.47729 -11.20227,17.79729 -2.59874,2.29832 -3.52219,2.4 -21.79476,2.4 -18.27256,0 -19.19602,-0.10165 -21.79476,-2.4 -1.49255,-1.32 -6.53358,-9.32878 -11.20227,-17.79729 l -8.48855,-15.39729 -0.32387,51.66396 c -0.34843,55.58111 -0.27675,54.88503 -5.91658,57.45471 -3.04193,1.386 -5.40036,1.35664 -8.41845,-0.10474 z m 242.81114,-36.086 c 1.96093,-1.96094 2.13333,-3.55555 2.13333,-19.73333 v -17.6 h -6.4 -6.4 v 17.6 c 0,16.17778 0.17239,17.77239 2.13333,19.73333 1.17334,1.17334 3.09334,2.13334 4.26667,2.13334 1.17333,0 3.09333,-0.96 4.26667,-2.13334 z m 2.13333,-94.93332 v -6.4 h -6.4 -6.4 v 6.4 6.4 h 6.4 6.4 z m -0.52243,-107.13581 c 11.25378,-4.70213 10.33771,-22.08301 -1.37901,-26.16463 -3.95676,-1.37837 -5.04036,-1.37837 -8.99712,0 -8.53231,2.97231 -12.02612,13.19437 -7.20978,21.0941 3.60474,5.91245 10.68502,7.9539 17.58591,5.07053 z M 429.86664,113.99041 c 0,-17.90068 -1.08486,-22.318294 -6.91183,-28.145256 -5.53677,-5.536767 -10.41604,-6.911825 -24.52604,-6.911825 -10.49897,0 -11.39149,0.156096 -10.67317,1.866666 4.6872,11.161885 4.96573,12.682712 5.56458,30.384125 l 0.60499,17.88254 h 17.97073 17.97074 z"
         id="path182" />
      <path
         style="fill:#a9a9a9;stroke-width:1.06667"
         d="m 39.474821,525.34198 c -3.19995,-3.40618 -3.269918,-8.41944 -0.160983,-11.53461 1.312869,-1.3155 8.048322,-4.2487 15.377777,-6.69683 l 13.041714,-4.35611 v -56.44389 -56.4439 l -5.08849,-0.58479 c -3.259377,-0.37458 -5.943352,-1.43919 -7.466666,-2.96167 -2.357987,-2.35672 -2.382704,-2.72662 -2.91151,-43.57368 l -0.533333,-41.19679 -6.399999,-1.7598 C 30.019422,295.57905 13.898632,282.84773 6.7302329,269.30327 -1.9528112,252.89694 -2.0319949,227.1815 6.550945,211.07826 c 4.230232,-7.93674 12.500594,-17.11219 19.975452,-22.16154 5.948191,-4.01805 18.753953,-9.71673 21.834953,-9.71673 3.220733,0 5.108811,-1.41986 7.113571,-5.34953 2.245355,-4.40124 7.578481,-10.30033 11.666847,-12.90491 l 2.608439,-1.66177 -4.896952,-6.30857 C 53.730839,138.64663 52.266663,132.63922 52.266663,101.33333 c 0,-32.100008 1.856827,-39.034399 14.416753,-53.839933 5.229148,-6.164076 5.721162,-7.159827 4.771705,-9.657089 -3.450788,-9.07626 7.531745,-15.605205 14.699136,-8.738408 2.760144,2.644386 3.299136,2.771575 7.214372,1.702434 5.224752,-1.426734 6.898031,-2.73164 6.898031,-5.379428 0,-1.128166 1.17818,-3.229393 2.61818,-4.669393 5.01879,-5.018793 12.825,-2.391465 14.29834,4.812382 0.67428,3.296853 1.25223,3.77512 6.03683,4.995686 5.12633,1.307737 5.38335,1.261475 8.24996,-1.484897 3.71982,-3.563826 9.43483,-3.843953 12.65832,-0.620463 2.35694,2.356939 2.90844,5.563323 1.72335,10.019519 -0.5957,2.240005 0.0544,3.603432 3.5604,7.466666 5.88985,6.490014 10.24405,13.488875 12.99503,20.88796 2.07797,5.588897 2.36039,8.790165 2.71296,30.752217 0.52886,32.941277 -1.00596,39.995137 -11.8969,54.676877 l -4.93852,6.65747 4.22036,2.79291 c 4.48688,2.96927 8.17076,7.27612 11.11793,12.99804 l 1.80577,3.50589 37.17501,-0.30589 c 34.81949,-0.28651 37.31719,-0.43465 39.41899,-2.33788 2.87422,-2.60269 2.87508,-7.19876 0.002,-9.80269 -2.00463,-1.81672 -4.54439,-2.08849 -23.97389,-2.56532 -20.83441,-0.51131 -21.8319,-0.6336 -24.15784,-2.96169 -2.41417,-2.41638 -2.42763,-2.60472 -2.73408,-38.25162 -0.25903,-30.130621 -0.0403,-36.74375 1.37594,-41.615744 1.84479,-6.345825 7.36441,-13.313632 12.71853,-16.055495 1.80409,-0.923879 3.63281,-2.212805 4.06383,-2.864279 0.43102,-0.651475 0.79102,-8.286317 0.8,-16.966317 0.0159,-15.323425 0.0924,-15.857863 2.63452,-18.399999 3.46383,-3.463835 8.36646,-3.463835 11.83029,0 2.54214,2.542136 2.61865,3.076574 2.63452,18.399999 0.009,8.68 0.36898,16.314842 0.8,16.966317 0.43101,0.651474 2.25974,1.9404 4.06383,2.864279 5.23438,2.680545 10.83809,9.68077 12.65963,15.814596 1.33417,4.493661 1.65989,11.611449 1.65989,36.278983 v 30.68849 l 4.70375,3.23625 c 14.96917,10.29907 14.32628,32.20629 -1.2132,41.3406 l -5.09054,2.99229 -38.93334,0.53334 -38.93333,0.53333 -0.53333,94.10403 -0.53333,94.10403 -2.37818,2.37784 c -1.52391,1.5237 -4.20602,2.58791 -7.46667,2.96263 l -5.08849,0.58479 v 56.4439 56.44389 l 13.04172,4.35611 c 14.19599,4.74164 17.71383,7.18543 17.71383,12.30551 0,4.11845 -4.02668,8.58392 -7.74044,8.58392 -4.98027,0 -35.63391,-10.73761 -38.48177,-13.47971 l -2.66667,-2.56764 -0.53333,-61.04298 -0.53333,-61.043 h -22.4 -22.400002 l -0.533333,61.043 -0.533334,61.04298 -2.666666,2.56764 c -2.847867,2.7421 -33.501506,13.47971 -38.481768,13.47971 -1.547893,0 -3.83603,-1.15991 -5.243406,-2.65799 z M 125.86666,306.46237 v -64.73762 l -4.53333,-9.35238 -4.53334,-9.35239 -7.49598,-0.0433 -7.49597,-0.0434 -2.999791,6.88583 c -4.683093,10.74974 -14.514034,19.40435 -26.541587,23.36574 -1.747716,0.57563 -1.866666,4.35537 -1.866666,59.31495 v 58.70014 H 98.133327 125.86666 Z M 52.266663,239.99999 c 0,-48.96677 0.952922,-45.35233 -10.430417,-39.56268 -8.215521,4.17847 -13.920834,9.33026 -18.173524,16.41035 -13.552053,22.5621 -5.576571,50.42397 17.937275,62.66281 3.226667,1.67946 6.946667,3.07666 8.266667,3.10487 l 2.399999,0.0513 z m 71.173097,-87.65848 c 8.34051,-3.9407 15.89663,-11.02858 19.33158,-18.13362 2.75177,-5.69194 4.71952,-16.59641 4.2286,-23.43323 l -0.33328,-4.64133 -10.36456,-0.30487 c -10.25615,-0.30167 -10.40676,-0.34476 -14.4,-4.11945 -6.28733,-5.943237 -7.89703,-6.775682 -13.10211,-6.775682 -5.11082,0 -7.81132,1.346366 -13.621221,6.791012 -3.32271,3.11382 -3.992048,3.28887 -14.133333,3.6962 l -10.64544,0.42758 v 9.43592 c 0,18.67795 8.01263,31.19243 24.245544,37.86779 9.42638,3.87635 19.47328,3.59361 28.79422,-0.81032 z m 76.35304,373.08414 -2.99281,-2.5743 V 410.25529 297.65925 l 2.4285,-2.42964 c 2.42257,-2.4237 2.52811,-2.43093 43.2,-2.96296 l 40.77149,-0.53333 v -6.93334 -6.93333 l -15.29763,-0.53333 c -14.47338,-0.5046 -15.40731,-0.66902 -17.33333,-3.0515 -1.11964,-1.385 -2.0357,-3.85182 -2.0357,-5.48184 0,-1.63001 0.91606,-4.09683 2.0357,-5.48183 1.92602,-2.38249 2.85995,-2.5469 17.33333,-3.0515 l 15.29763,-0.53333 0.56474,-83.2 c 0.379,-55.83642 0.94615,-84.262425 1.72444,-86.430362 4.14583,-11.548306 12.00576,-20.600497 22.25777,-25.634036 l 6.38638,-3.135592 h 51.73333 51.73333 l 6.51156,3.009387 c 8.2369,3.806786 16.45222,12.057261 20.37007,20.457278 2.8333,6.074655 3.01215,7.37603 3.51837,25.599995 l 0.53334,19.2 46.76165,0.53334 46.76166,0.53333 2.03833,2.51816 c 3.90678,4.82642 2.10796,11.07024 -3.91417,13.58646 l -3.64748,1.52401 v 14.29783 14.29783 l 3.99449,1.95452 c 7.45044,3.64554 7.45044,11.99683 0,15.64237 l -3.99449,1.95452 v 63.29096 63.29096 l 3.99449,1.95452 c 7.45044,3.64553 7.45044,11.99683 0,15.64236 l -3.99449,1.95452 v 14.29783 14.29784 l 3.64748,1.52401 c 6.02199,2.51615 7.82088,8.75981 3.91445,13.58645 l -2.03808,2.51817 -38.76192,0.53333 -38.76193,0.53333 v 6.93334 6.93333 l 33.30526,0.53333 c 32.89707,0.5268 33.33502,0.56312 35.73333,2.96297 l 2.42808,2.42963 v 56.59605 56.59606 l -2.99281,2.5743 c -3.79709,3.26613 -7.28298,3.26657 -11.08105,10e-4 l -2.99281,-2.57249 -0.53333,-34.4938 -0.53333,-34.49379 H 491.19997 464.5333 l -0.53333,20.97902 -0.53333,20.97901 -3.22979,4.59119 c -1.77639,2.52517 -5.29773,6.0446 -7.82522,7.82098 -4.1672,2.92882 -5.37348,3.2298 -12.94499,3.2298 -7.57151,0 -8.77779,-0.30098 -12.94499,-3.2298 -2.52749,-1.77638 -6.04883,-5.29581 -7.82522,-7.82098 l -3.22979,-4.59119 -0.53333,-20.97901 -0.53334,-20.97902 h -26.66666 -26.66667 l -0.53333,34.49379 -0.53333,34.4938 -2.99281,2.57286 c -3.79807,3.26513 -7.28396,3.26469 -11.08105,-10e-4 l -2.99281,-2.57431 V 466.25565 409.6596 l 2.42808,-2.42963 c 2.39831,-2.39985 2.83626,-2.43617 35.73333,-2.96296 l 33.30525,-0.53334 v -6.93333 -6.93333 l -38.63826,-0.53334 c -38.00924,-0.52465 -38.67635,-0.57144 -40.97777,-2.87407 -2.68689,-2.68829 -3.09071,-7.8398 -0.82841,-10.56765 0.83112,-1.00214 3.07112,-2.47416 4.97778,-3.27115 l 3.46667,-1.44909 v -14.29783 -14.29784 l -4,-1.95451 c -5.23315,-2.55708 -7.3126,-6.70495 -5.39154,-10.75452 0.76535,-1.61333 3.19154,-3.81286 5.39154,-4.88785 l 4,-1.95452 v -63.29096 -63.29096 l -4,-1.95452 c -5.23315,-2.55708 -7.3126,-6.70495 -5.39154,-10.75451 0.76535,-1.61334 3.19154,-3.81287 5.39154,-4.88785 l 4,-1.95452 v -14.29784 -14.29783 l -3.46667,-1.44909 c -1.90666,-0.79699 -4.14666,-2.26901 -4.97778,-3.27114 -2.26122,-2.72655 -1.8584,-7.87911 0.82618,-10.56766 2.17771,-2.18094 3.59167,-2.37715 20.71111,-2.87407 l 18.37382,-0.53371 0.29551,-16.46356 c 0.283,-15.766235 0.18087,-16.697887 -2.41131,-21.9961 -3.12251,-6.382183 -8.39023,-10.507534 -15.4842,-12.126245 -6.20509,-1.41589 -30.06156,-1.41589 -36.26666,0 -7.07365,1.614079 -12.36269,5.746116 -15.46101,12.078849 l -2.68363,5.485151 0.27232,97.577615 0.27232,97.57762 5.08849,0.58478 c 3.2611,0.37478 5.94255,1.43885 7.46667,2.96297 l 2.37817,2.37818 v 112.59604 112.59606 l -2.99281,2.5743 c -3.79732,3.26632 -7.28321,3.26656 -11.08104,7.7e-4 l -2.99281,-2.57356 -0.53333,-53.15977 -0.53334,-53.15978 -2.2624,3.73333 c -1.24432,2.05333 -5.30892,9.25333 -9.03242,16 -10.09157,18.28499 -7.89012,17.06667 -30.83851,17.06667 -22.94839,0 -20.74694,1.21832 -30.8385,-17.06667 -3.72351,-6.74667 -7.78811,-13.94667 -9.03243,-16 l -2.2624,-3.73333 -0.53333,53.15978 -0.53334,53.15977 -2.99281,2.57356 c -3.79783,3.26579 -7.28372,3.26555 -11.08104,-7.7e-4 z m 245.78046,-34.75901 c 0.96668,-1.90031 1.28039,-7.57136 1.09162,-19.73334 l -0.26491,-17.06666 h -6.93333 -6.93333 v 18.2387 c 0,21.03712 0.35004,22.0634 7.34948,21.54744 3.3747,-0.24877 4.6342,-0.90971 5.69047,-2.98614 z m 0.82671,-93.86666 v -6.93334 h -6.93333 -6.93333 l -0.32726,5.73952 c -0.48598,8.52367 -0.22814,8.8135 7.51345,8.44507 l 6.68047,-0.31792 z m 49.06667,-40 v -13.86667 l -66.93333,-0.27467 -66.93333,-0.27469 v 14.41603 14.41603 l 66.93333,-0.27469 66.93333,-0.27468 z m -48.2195,-67.40148 c 9.59591,-4.83606 9.29312,-20.43057 -0.49498,-25.49219 -10.06486,-5.20475 -22.20409,1.72418 -22.21486,12.67998 -0.007,7.137 3.3103,11.65033 10.38589,14.13035 4.23826,1.48553 7.44041,1.14303 12.32395,-1.31814 z M 390.37182,184.08531 c 2.21832,-6.72158 -0.0127,-6.43614 54.85759,-7.01865 l 50.23723,-0.53334 v -13.86666 -13.86667 l -66.93333,-0.27468 -66.93333,-0.27468 v 14.40802 14.40801 h 3.66389 c 6.1503,0 9.15897,1.75463 10.98659,6.40731 1.65675,4.21767 1.72815,4.25935 7.29527,4.25935 5.45445,0 5.65804,-0.1088 6.82609,-3.64801 z m 40.00624,-71.55198 C 430.35944,98.02686 430.0607,94.906617 428.38662,91.733328 422.96985,81.465576 417.3752,78.703419 400.72094,78.074425 c -7.70336,-0.290939 -13.03042,-0.05829 -13.68644,0.597705 -0.72094,0.720949 -0.38749,2.43078 1.0143,5.200955 3.32298,6.566792 4.48451,14.371993 4.48451,30.134965 0,8.08668 0.33094,15.034 0.73543,15.43848 0.40448,0.40449 8.92448,0.60449 18.93334,0.44445 l 18.19789,-0.29099 -0.0219,-17.06666 z"
         id="path180" />
      <path
         style="fill:#f1a755;stroke-width:1.06667"
         d="m 39.544083,524.12278 c -5.318735,-6.76167 -1.542043,-10.7117 15.92258,-16.65334 l 13.333333,-4.53614 v -56.50861 -56.50862 l -5.333333,-0.85354 c -3.642217,-0.58291 -6.094336,-1.70883 -7.733333,-3.55086 -2.399041,-2.69625 -2.4,-2.71344 -2.4,-43.04057 0,-30.99911 -0.308821,-40.58833 -1.333333,-41.40143 -0.733333,-0.582 -3.253333,-1.40495 -5.6,-1.82878 C 32.348029,296.70299 14.734321,282.7619 7.2659689,268.26665 -5.339008,243.80178 -0.98918953,216.51953 18.666666,196.76098 c 8.187113,-8.22989 16.743515,-13.15933 28.197807,-16.24507 6.605782,-1.77957 6.998281,-2.0783 10.415073,-7.92713 2.064438,-3.53389 5.553408,-7.51619 8.335524,-9.51416 2.631709,-1.88995 4.784926,-3.56948 4.784926,-3.73229 0,-0.16282 -2.284639,-3.32145 -5.076976,-7.01918 -7.190107,-9.52146 -10.765464,-18.15395 -12.145691,-29.32507 -1.505214,-12.18271 -0.538007,-44.849354 1.545709,-52.205133 2.245197,-7.92583 7.60652,-17.423016 13.686463,-24.244559 4.47814,-5.024363 5.127155,-6.273658 4.179287,-8.044764 -1.803353,-3.369596 -1.309408,-6.413313 1.496055,-9.218778 3.447401,-3.447399 7.178538,-3.309274 11.478036,0.424913 1.92708,1.673703 3.983782,2.899558 4.570449,2.724125 0.586666,-0.175434 3.087414,-0.838143 5.557218,-1.472688 3.969517,-1.019854 4.571734,-1.586486 5.190274,-4.883551 1.69535,-9.036984 12.97562,-9.428532 15.37079,-0.533533 1.02989,3.824692 1.58548,4.309756 6.63032,5.788608 l 5.50625,1.614109 3.57636,-3.140082 c 4.40068,-3.86385 8.08163,-3.990874 11.6698,-0.402708 2.68439,2.684396 2.90888,5.036635 0.96067,10.065811 -0.38717,0.999438 1.37811,3.789211 4.68751,7.407928 6.04542,6.610472 10.80402,15.01145 13.2824,23.449152 2.47462,8.424889 2.46301,53.65148 -0.0159,62.0128 -2.37252,8.00239 -5.14109,13.25658 -10.8826,20.65289 -2.70084,3.47927 -4.40415,6.49478 -3.78512,6.70113 3.67753,1.22585 10.58582,7.80246 13.36065,12.71919 l 3.22839,5.72038 h 38.22075 38.22076 l 2.21075,-2.81051 c 2.77417,-3.5268 2.78914,-5.76649 0.0618,-9.23386 l -2.14906,-2.73207 -21.94516,-0.34511 -21.94516,-0.34511 -2.62222,-3.05068 -2.62223,-3.05068 0.31644,-38.01598 c 0.30605,-36.768286 0.39314,-38.159341 2.6536,-42.38365 2.46984,-4.615634 8.48752,-10.487729 12.72747,-12.41958 2.49192,-1.135439 2.53528,-1.408211 2.53528,-15.951569 0,-16.770392 1.24349,-21.662824 5.79637,-22.805527 1.50534,-0.377813 3.96859,-0.377813 5.47392,0 4.56011,1.144516 5.79638,6.02971 5.79638,22.904863 0,14.218969 0.10229,14.928174 2.25124,15.610231 3.4967,1.109808 10.45714,7.890608 13.026,12.689812 2.22075,4.148866 2.33692,5.800604 2.64527,37.61282 l 0.32251,33.2734 5.1275,3.68373 c 6.23422,4.47885 10.76081,12.72923 10.76081,19.61316 0,8.99156 -5.48878,17.80063 -13.571,21.78045 -4.99325,2.45876 -5.86751,2.51991 -43.49567,3.04253 l -38.39999,0.53333 -0.53334,94.02164 c -0.60681,106.976 0.33365,97.61671 -9.97379,99.2574 l -5.49287,0.87434 v 56.5233 56.5233 l 13.33333,4.53614 c 17.46462,5.94164 21.24131,9.89167 15.92258,16.65334 -1.55935,1.98239 -3.2091,2.81052 -5.59896,2.81052 -5.13328,0 -35.3465,-10.39441 -37.66829,-12.95922 -1.87791,-2.07447 -2.01837,-5.59148 -2.52199,-63.15212 l -0.53334,-60.95532 h -23.4667 -23.466669 l -0.533333,60.95532 c -0.503632,57.56064 -0.644084,61.07765 -2.521998,63.15212 -2.32179,2.56481 -32.535,12.95922 -37.668286,12.95922 -2.389863,0 -4.039614,-0.82813 -5.598961,-2.81052 z M 124.17942,371.61919 c 1.51311,-0.58063 1.68724,-7.38431 1.68724,-65.92389 v -65.27645 l -2.58372,-5.2761 c -1.42105,-2.90186 -3.31655,-7.0761 -4.21224,-9.2761 l -1.62852,-4 h -8.10885 -8.10886 l -1.599774,4 c -4.465091,11.1643 -12.125926,19.70108 -21.390209,23.83597 -2.842304,1.2686 -5.887825,2.65671 -6.767825,3.08469 -1.386961,0.67455 -1.6393,8.36111 -1.895161,57.72875 -0.162338,31.32282 -0.03319,58.03058 0.286989,59.35058 l 0.58215,2.4 h 26.02577 c 14.31417,0 26.78503,-0.29135 27.71301,-0.64745 z M 52.799997,240.0146 c 0,-49.80965 0.946384,-46.33953 -11.032936,-40.45462 -13.264202,6.5161 -22.05976,18.31847 -24.821471,33.30681 -3.459345,18.77455 6.851447,38.65331 24.640334,47.5055 12.176281,6.05922 11.214073,9.52206 11.214073,-40.35769 z m 71.999993,-87.06514 c 8.78026,-4.15944 15.45139,-10.81064 19.51787,-19.45954 2.84343,-6.04766 3.19856,-7.94117 3.30085,-17.6 l 0.11461,-10.82326 -10.73936,-0.53333 -10.73934,-0.53334 -5.11505,-4.507708 c -8.46642,-7.461168 -16.21085,-7.461168 -24.682015,0 l -5.11791,4.507708 -11.117721,0.36706 -11.11772,0.36705 0.415569,11.36628 c 0.345137,9.4399 0.886135,12.38227 3.192072,17.36096 9.373617,20.23833 32.354665,28.83641 52.088145,19.48812 z m 74.74408,371.17332 c -2.20447,-2.80252 -2.21075,-3.12687 -2.21075,-114.07383 V 298.78561 l 2.5731,-2.99282 2.5731,-2.99281 40.89356,-0.53333 40.89357,-0.53333 v -6.93334 -6.93333 l -14.4,-0.53487 c -8.76994,-0.32574 -15.33342,-1.0676 -16.7874,-1.89745 -4.49504,-2.5655 -4.49504,-10.70319 0,-13.26869 1.45398,-0.82985 8.01746,-1.57171 16.7874,-1.89745 l 14.4,-0.53487 0.53333,-83.73333 c 0.48235,-75.7289 0.70765,-84.16781 2.35682,-88.278378 4.42421,-11.027382 12.93269,-19.451999 24.14714,-23.909156 5.82743,-2.316101 7.45405,-2.409559 48.56692,-2.790466 47.14537,-0.436797 56.5274,0.247067 65.48206,4.773036 6.75763,3.415517 15.59445,12.458452 18.42288,18.852608 2.81046,6.353488 4.17791,16.887136 4.20304,32.376286 l 0.0211,13.02393 46.31515,0.3094 46.31513,0.30941 2.75153,2.58593 c 1.61553,1.5183 2.75153,3.75357 2.75153,5.41407 0,3.02082 -3.88341,7.46666 -6.52208,7.46666 -3.54274,0 -4.14459,2.40086 -4.14459,16.53334 0,14.26706 0.5886,16.53333 4.29407,16.53333 2.56888,0 6.3726,4.54598 6.3726,7.61615 0,2.89059 -3.94558,7.31718 -6.52208,7.31718 -4.10389,0 -4.14459,0.64407 -4.14459,65.6 0,65.32448 0.018,65.59999 4.29407,65.59999 2.56888,0 6.3726,4.54599 6.3726,7.61615 0,2.89059 -3.94558,7.31719 -6.52208,7.31719 -3.54274,0 -4.14459,2.40085 -4.14459,16.53333 0,14.26706 0.5886,16.53333 4.29407,16.53333 2.56888,0 6.3726,4.54598 6.3726,7.61615 0,1.49967 -1.21091,3.81682 -2.7512,5.26459 l -2.75121,2.58593 -38.31545,0.31691 -38.31547,0.31692 v 7.35951 7.35952 l 33.16038,0.32357 33.16037,0.32357 2.57296,2.99281 2.57295,2.99282 v 55.26333 c 0,54.29328 -0.0388,55.31266 -2.21075,58.07384 -2.8066,3.56803 -8.25664,3.84327 -11.22392,0.56685 -1.88431,-2.08061 -2.07075,-4.7358 -2.56533,-36.53333 l -0.53333,-34.28966 -27.34936,-0.28444 -27.34936,-0.28444 -0.44977,19.48444 c -0.35651,15.44446 -0.83489,20.36911 -2.30722,23.7511 -3.98172,9.14623 -11.96669,14.35315 -22.01095,14.35315 -10.04426,0 -18.02923,-5.20692 -22.01095,-14.35315 -1.47233,-3.38199 -1.95071,-8.30664 -2.30722,-23.7511 l -0.44978,-19.48444 -27.34935,0.28444 -27.34936,0.28444 -0.53334,34.28966 c -0.49457,31.79753 -0.68101,34.45272 -2.56532,36.53333 -2.96728,3.27642 -8.41732,3.00118 -11.22392,-0.56685 -2.17195,-2.76118 -2.21075,-3.78056 -2.21075,-58.07384 v -55.26333 l 2.57294,-2.99282 2.57296,-2.99281 33.16038,-0.32357 33.16038,-0.32357 v -7.35952 -7.35951 l -38.49349,-0.31692 -38.49348,-0.31691 -2.57319,-2.99281 c -1.41524,-1.64605 -2.57317,-3.86133 -2.57317,-4.92283 0,-2.72838 4.05354,-7.55103 6.34682,-7.55103 3.81415,0 4.39465,-2.43 4.08497,-17.09996 -0.25803,-12.22321 -0.55128,-14.26193 -2.16512,-15.0524 -1.02667,-0.50287 -2.70667,-1.32172 -3.73334,-1.81967 -1.02666,-0.49795 -2.58666,-2.17795 -3.46666,-3.73333 -1.42222,-2.51375 -1.42222,-3.14219 0,-5.65594 0.88,-1.55538 2.44,-3.23538 3.46666,-3.73333 6.12043,-2.96852 5.6,3.21204 5.6,-66.50536 0,-69.71741 0.52043,-63.53684 -5.6,-66.50536 -1.02666,-0.49796 -2.58666,-2.17796 -3.46666,-3.73334 -1.42222,-2.51375 -1.42222,-3.14218 0,-5.65593 0.88,-1.55538 2.44,-3.23538 3.46666,-3.73334 1.02667,-0.49795 2.70667,-1.3168 3.73334,-1.81966 1.61384,-0.79048 1.90709,-2.8292 2.16512,-15.05241 0.30968,-14.66995 -0.27082,-17.09996 -4.08497,-17.09996 -2.29328,0 -6.34682,-4.82264 -6.34682,-7.55102 0,-1.06151 1.15777,-3.27678 2.57283,-4.92283 l 2.57283,-2.99281 18.49384,-0.53333 18.49383,-0.53334 0.32389,-13.86666 c 0.17815,-7.62667 0.0361,-15.857689 -0.3157,-18.291159 -0.93012,-6.434202 -5.96003,-13.368935 -12.13413,-16.729301 -5.12339,-2.788498 -5.62368,-2.846208 -24.67406,-2.846208 -19.05037,0 -19.55066,0.05771 -24.67405,2.846208 -6.1826,3.364988 -11.2122,10.307403 -12.11996,16.729301 -0.34398,2.43347 -0.48605,47.133379 -0.3157,99.333149 l 0.30971,94.90866 5.33334,0.8535 c 3.64226,0.58288 6.09431,1.70875 7.73333,3.55081 l 2.4,2.69732 v 111.26334 c 0,110.94696 -0.006,111.27131 -2.21075,114.07383 -1.60343,2.03844 -3.19381,2.81052 -5.78925,2.81052 -2.59543,0 -4.18582,-0.77208 -5.78925,-2.81052 -2.16943,-2.75797 -2.21075,-3.80476 -2.21075,-55.99999 0,-30.04284 -0.4098,-53.18948 -0.94169,-53.18948 -0.51793,0 -5.116,7.56 -10.21793,16.8 -5.10193,9.24 -10.2115,17.76 -11.35461,18.93333 -1.92592,1.97686 -3.48226,2.13333 -21.2191,2.13333 -17.73684,0 -19.29318,-0.15647 -21.2191,-2.13333 -1.14311,-1.17333 -6.25267,-9.69333 -11.3546,-18.93333 -5.10193,-9.24 -9.7,-16.8 -10.21793,-16.8 -0.5319,0 -0.9417,23.14664 -0.9417,53.18948 0,52.19523 -0.0413,53.24202 -2.21075,55.99999 -1.60343,2.03844 -3.19381,2.81052 -5.78925,2.81052 -2.59543,0 -4.18582,-0.77208 -5.78925,-2.81052 z m 245.2559,-31.32281 c 1.9708,-1.97079 2.13334,-3.55555 2.13334,-20.8 v -18.66666 h -7.46667 -7.46667 v 18.66666 c 0,17.24445 0.16254,18.82921 2.13334,20.8 1.18518,1.18518 3.55555,2.13333 5.33333,2.13333 1.77778,0 4.14815,-0.94815 5.33333,-2.13333 z m 2.13334,-95.99999 v -7.46667 h -7.46667 -7.46667 v 7.46667 7.46666 h 7.46667 7.46667 z m 70.93333,-40 V 341.86665 L 439.5339,341.593 c -61.96046,-0.21644 -78.51058,0.006 -79.18366,1.06667 -0.99279,1.56376 -1.19234,25.42792 -0.23352,27.92658 0.58709,1.5299 8.26297,1.66758 79.2,1.42058 l 78.54992,-0.27352 z m -0.8,-33.94583 c 1.91497,-1.21611 1.95141,-125.01292 0.0371,-126.19602 -0.7129,-0.4406 -28.28746,-1.0109 -61.27678,-1.26734 -59.45531,-0.46216 -59.99896,-0.48606 -62.07804,-2.72853 -3.28731,-3.54562 -3.37364,-7.61124 -0.24371,-11.47744 l 2.03865,-2.51816 61.16137,-0.53334 61.16139,-0.53333 v -14.93333 -14.93334 l -78.33274,-0.27364 c -61.96046,-0.21645 -78.51058,0.006 -79.18366,1.06667 -0.99122,1.56128 -1.19307,25.42602 -0.23614,27.91973 0.45583,1.18787 2.04868,1.68724 5.38181,1.68724 13.32522,0 13.80136,16.41845 0.50114,17.28046 l -4.93041,0.31954 -0.27676,62.93333 c -0.15224,34.61333 -0.0271,63.5861 0.27817,64.38391 0.46278,1.20963 13.35468,1.38413 77.61011,1.05045 42.38033,-0.22007 77.65514,-0.78116 78.38848,-1.24686 z m -89.08445,-15.29986 c -2.50311,-0.88584 -7.11986,-3.95829 -10.25942,-6.82767 -7.54211,-6.89307 -10.64539,-13.86799 -10.64539,-23.92664 0,-5.47416 0.65874,-8.96677 2.46855,-13.08811 3.09515,-7.0484 11.95868,-15.37615 18.87286,-17.73205 6.42312,-2.18858 15.67257,-2.18858 22.0957,0 6.91418,2.3559 15.77771,10.68365 18.87286,17.73205 3.40454,7.75293 3.40454,18.42329 0,26.17623 -3.09515,7.04839 -11.95868,15.37615 -18.87286,17.73204 -6.19582,2.11113 -16.46558,2.08111 -22.5323,-0.0658 z m 20.01833,-17.68764 c 4.19077,-2.86059 7.46612,-8.59285 7.46612,-13.06667 0,-4.47381 -3.27535,-10.20608 -7.46612,-13.06666 -7.42371,-5.06734 -18.16301,-2.15545 -22.55883,6.11669 -5.42698,10.21261 2.20845,22.41664 14.02495,22.41664 3.45079,0 6.11588,-0.74951 8.53388,-2.4 z M 430.90988,112.79999 c -0.0259,-19.133845 -0.98974,-23.068064 -7.04207,-28.743411 -5.48193,-5.14047 -9.70355,-6.189917 -24.90024,-6.189917 -11.39223,0 -13.90093,0.27739 -13.90093,1.537048 0,0.845377 0.46698,1.825657 1.03773,2.178399 0.57075,0.352744 2.01075,3.791632 3.2,7.641975 1.77077,5.733108 2.16227,9.94158 2.16227,23.243826 0,8.93376 0.32,16.5632 0.71112,16.9543 0.3911,0.39112 9.2711,0.71112 19.73333,0.71112 h 19.02222 l -0.0235,-17.33334 z"
         id="path178" />
      <path
         style="fill:#bf5c3a;stroke-width:1.06667"
         d="m 39.544083,524.12278 c -5.318735,-6.76167 -1.542043,-10.7117 15.92258,-16.65334 l 13.333333,-4.53614 v -56.50861 -56.50862 l -5.333333,-0.85354 c -3.642217,-0.58291 -6.094336,-1.70883 -7.733333,-3.55086 -2.399041,-2.69625 -2.4,-2.71344 -2.4,-43.04057 0,-30.99911 -0.308821,-40.58833 -1.333333,-41.40143 -0.733333,-0.582 -3.253333,-1.40495 -5.6,-1.82878 C 32.348029,296.70299 14.734321,282.7619 7.2659689,268.26665 -5.339008,243.80178 -0.98918953,216.51953 18.666666,196.76098 c 8.187113,-8.22989 16.743515,-13.15933 28.197807,-16.24507 6.605782,-1.77957 6.998281,-2.0783 10.415073,-7.92713 2.064438,-3.53389 5.553408,-7.51619 8.335524,-9.51416 2.631709,-1.88995 4.784926,-3.56948 4.784926,-3.73229 0,-0.16282 -2.284639,-3.32145 -5.076976,-7.01918 -7.190107,-9.52146 -10.765464,-18.15395 -12.145691,-29.32507 -1.505214,-12.18271 -0.538007,-44.849354 1.545709,-52.205133 2.245197,-7.92583 7.60652,-17.423016 13.686463,-24.244559 4.47814,-5.024363 5.127155,-6.273658 4.179287,-8.044764 -1.803353,-3.369596 -1.309408,-6.413313 1.496055,-9.218778 3.447401,-3.447399 7.178538,-3.309274 11.478036,0.424913 1.92708,1.673703 3.983782,2.899558 4.570449,2.724125 0.586666,-0.175434 3.087414,-0.838143 5.557218,-1.472688 3.969517,-1.019854 4.571734,-1.586486 5.190274,-4.883551 1.69535,-9.036984 12.97562,-9.428532 15.37079,-0.533533 1.02989,3.824692 1.58548,4.309756 6.63032,5.788608 l 5.50625,1.614109 3.57636,-3.140082 c 4.40068,-3.86385 8.08163,-3.990874 11.6698,-0.402708 2.68439,2.684396 2.90888,5.036635 0.96067,10.065811 -0.38717,0.999438 1.37811,3.789211 4.68751,7.407928 6.04542,6.610472 10.80402,15.01145 13.2824,23.449152 2.47462,8.424889 2.46301,53.65148 -0.0159,62.0128 -2.37252,8.00239 -5.14109,13.25658 -10.8826,20.65289 -2.70084,3.47927 -4.40415,6.49478 -3.78512,6.70113 3.67753,1.22585 10.58582,7.80246 13.36065,12.71919 l 3.22839,5.72038 h 38.22075 38.22076 l 2.21075,-2.81051 c 2.77417,-3.5268 2.78914,-5.76649 0.0618,-9.23386 l -2.14906,-2.73207 -21.94516,-0.34511 -21.94516,-0.34511 -2.62222,-3.05068 -2.62223,-3.05068 0.31644,-38.01598 c 0.30605,-36.768286 0.39314,-38.159341 2.6536,-42.38365 2.46984,-4.615634 8.48752,-10.487729 12.72747,-12.41958 2.49192,-1.135439 2.53528,-1.408211 2.53528,-15.951569 0,-16.770392 1.24349,-21.662824 5.79637,-22.805527 1.50534,-0.377813 3.96859,-0.377813 5.47392,0 4.56011,1.144516 5.79638,6.02971 5.79638,22.904863 0,14.218969 0.10229,14.928174 2.25124,15.610231 3.4967,1.109808 10.45714,7.890608 13.026,12.689812 2.22075,4.148866 2.33692,5.800604 2.64527,37.61282 l 0.32251,33.2734 5.1275,3.68373 c 6.23422,4.47885 10.76081,12.72923 10.76081,19.61316 0,8.99156 -5.48878,17.80063 -13.571,21.78045 -4.99325,2.45876 -5.86751,2.51991 -43.49567,3.04253 l -38.39999,0.53333 -0.53334,94.02164 c -0.60681,106.976 0.33365,97.61671 -9.97379,99.2574 l -5.49287,0.87434 v 56.5233 56.5233 l 13.33333,4.53614 c 17.46462,5.94164 21.24131,9.89167 15.92258,16.65334 -1.55935,1.98239 -3.2091,2.81052 -5.59896,2.81052 -5.13328,0 -35.3465,-10.39441 -37.66829,-12.95922 -1.87791,-2.07447 -2.01837,-5.59148 -2.52199,-63.15212 l -0.53334,-60.95532 h -23.4667 -23.466669 l -0.533333,60.95532 c -0.503632,57.56064 -0.644084,61.07765 -2.521998,63.15212 -2.32179,2.56481 -32.535,12.95922 -37.668286,12.95922 -2.389863,0 -4.039614,-0.82813 -5.598961,-2.81052 z m 108.464747,-211.60263 0.2755,-59.21316 -5.269,-1.87138 c -10.39522,-3.69205 -19.05532,-12.77708 -23.5757,-24.73249 l -1.62704,-4.30313 -8.27505,-0.31217 -8.27504,-0.31217 -1.618791,4.0455 c -4.487765,11.21535 -12.129747,19.7398 -21.409222,23.88147 -2.842304,1.2686 -5.887825,2.65671 -6.767825,3.08469 -1.386961,0.67455 -1.6393,8.36111 -1.895161,57.72875 -0.162338,31.32282 -0.03169,58.03656 0.290322,59.36386 l 0.585484,2.41328 38.643013,-0.27994 38.643,-0.27995 z M 52.799997,240.0146 c 0,-49.80965 0.946384,-46.33953 -11.032936,-40.45462 -13.264202,6.5161 -22.05976,18.31847 -24.821471,33.30681 -3.459345,18.77455 6.851447,38.65331 24.640334,47.5055 12.176281,6.05922 11.214073,9.52206 11.214073,-40.35769 z m 71.999993,-87.06514 c 8.78026,-4.15944 15.45139,-10.81064 19.51787,-19.45954 2.84343,-6.04766 3.19856,-7.94117 3.30085,-17.6 l 0.11461,-10.82326 -10.73936,-0.53333 -10.73934,-0.53334 -5.11505,-4.507708 c -8.46642,-7.461168 -16.21085,-7.461168 -24.682015,0 l -5.11791,4.507708 -11.117721,0.36706 -11.11772,0.36705 0.415569,11.36628 c 0.345137,9.4399 0.886135,12.38227 3.192072,17.36096 9.373617,20.23833 32.354665,28.83641 52.088145,19.48812 z m 103.2485,-62.443713 c -0.39827,-5.505983 -0.94298,-6.963814 -3.38769,-9.066666 -3.7135,-3.194221 -8.2748,-3.194221 -11.98829,0 -2.44471,2.102852 -2.98942,3.560683 -3.38769,9.066666 l -0.47457,6.560914 h 9.8564 9.85641 z M 199.54407,524.12278 c -2.20447,-2.80252 -2.21075,-3.12687 -2.21075,-114.07383 V 298.78561 l 2.5731,-2.99282 2.5731,-2.99281 40.89356,-0.53333 40.89357,-0.53333 v -6.93334 -6.93333 l -14.4,-0.53487 c -8.76994,-0.32574 -15.33342,-1.0676 -16.7874,-1.89745 -4.49504,-2.5655 -4.49504,-10.70319 0,-13.26869 1.45398,-0.82985 8.01746,-1.57171 16.7874,-1.89745 l 14.4,-0.53487 0.53333,-83.73333 c 0.48235,-75.7289 0.70765,-84.16781 2.35682,-88.278378 4.42421,-11.027382 12.93269,-19.451999 24.14714,-23.909156 5.82743,-2.316101 7.45405,-2.409559 48.56692,-2.790466 47.14537,-0.436797 56.5274,0.247067 65.48206,4.773036 6.75763,3.415517 15.59445,12.458452 18.42288,18.852608 2.81046,6.353488 4.17791,16.887136 4.20304,32.376286 l 0.0211,13.02393 46.31515,0.3094 46.31513,0.30941 2.75153,2.58593 c 1.61553,1.5183 2.75153,3.75357 2.75153,5.41407 0,3.02082 -3.88341,7.46666 -6.52208,7.46666 -3.54274,0 -4.14459,2.40086 -4.14459,16.53334 0,14.26706 0.5886,16.53333 4.29407,16.53333 2.56888,0 6.3726,4.54598 6.3726,7.61615 0,2.89059 -3.94558,7.31718 -6.52208,7.31718 -4.10389,0 -4.14459,0.64407 -4.14459,65.6 0,65.32448 0.018,65.59999 4.29407,65.59999 2.56888,0 6.3726,4.54599 6.3726,7.61615 0,2.89059 -3.94558,7.31719 -6.52208,7.31719 -3.54274,0 -4.14459,2.40085 -4.14459,16.53333 0,14.26706 0.5886,16.53333 4.29407,16.53333 2.56888,0 6.3726,4.54598 6.3726,7.61615 0,1.49967 -1.21091,3.81682 -2.7512,5.26459 l -2.75121,2.58593 -38.31545,0.31691 -38.31547,0.31692 v 7.35951 7.35952 l 33.16038,0.32357 33.16037,0.32357 2.57296,2.99281 2.57295,2.99282 v 55.26333 c 0,54.29328 -0.0388,55.31266 -2.21075,58.07384 -2.8066,3.56803 -8.25664,3.84327 -11.22392,0.56685 -1.88431,-2.08061 -2.07075,-4.7358 -2.56533,-36.53333 l -0.53333,-34.28966 -27.34936,-0.28444 -27.34936,-0.28444 -0.44977,19.48444 c -0.35651,15.44446 -0.83489,20.36911 -2.30722,23.7511 -3.98172,9.14623 -11.96669,14.35315 -22.01095,14.35315 -10.04426,0 -18.02923,-5.20692 -22.01095,-14.35315 -1.47233,-3.38199 -1.95071,-8.30664 -2.30722,-23.7511 l -0.44978,-19.48444 -27.34935,0.28444 -27.34936,0.28444 -0.53334,34.28966 c -0.49457,31.79753 -0.68101,34.45272 -2.56532,36.53333 -2.96728,3.27642 -8.41732,3.00118 -11.22392,-0.56685 -2.17195,-2.76118 -2.21075,-3.78056 -2.21075,-58.07384 v -55.26333 l 2.57294,-2.99282 2.57296,-2.99281 33.16038,-0.32357 33.16038,-0.32357 v -7.35952 -7.35951 l -38.49349,-0.31692 -38.49348,-0.31691 -2.57319,-2.99281 c -1.41524,-1.64605 -2.57317,-3.86133 -2.57317,-4.92283 0,-2.72838 4.05354,-7.55103 6.34682,-7.55103 3.81415,0 4.39465,-2.43 4.08497,-17.09996 -0.25803,-12.22321 -0.55128,-14.26193 -2.16512,-15.0524 -1.02667,-0.50287 -2.70667,-1.32172 -3.73334,-1.81967 -1.02666,-0.49795 -2.58666,-2.17795 -3.46666,-3.73333 -1.42222,-2.51375 -1.42222,-3.14219 0,-5.65594 0.88,-1.55538 2.44,-3.23538 3.46666,-3.73333 6.12043,-2.96852 5.6,3.21204 5.6,-66.50536 0,-69.71741 0.52043,-63.53684 -5.6,-66.50536 -1.02666,-0.49796 -2.58666,-2.17796 -3.46666,-3.73334 -1.42222,-2.51375 -1.42222,-3.14218 0,-5.65593 0.88,-1.55538 2.44,-3.23538 3.46666,-3.73334 1.02667,-0.49795 2.70667,-1.3168 3.73334,-1.81966 1.61384,-0.79048 1.90709,-2.8292 2.16512,-15.05241 0.30968,-14.66995 -0.27082,-17.09996 -4.08497,-17.09996 -2.29328,0 -6.34682,-4.82264 -6.34682,-7.55102 0,-1.06151 1.15777,-3.27678 2.57283,-4.92283 l 2.57283,-2.99281 18.49384,-0.53333 18.49383,-0.53334 0.32389,-13.86666 c 0.17815,-7.62667 0.0361,-15.857689 -0.3157,-18.291159 -0.93012,-6.434202 -5.96003,-13.368935 -12.13413,-16.729301 -5.12339,-2.788498 -5.62368,-2.846208 -24.67406,-2.846208 -19.05037,0 -19.55066,0.05771 -24.67405,2.846208 -6.1826,3.364988 -11.2122,10.307403 -12.11996,16.729301 -0.34398,2.43347 -0.48605,47.133379 -0.3157,99.333149 l 0.30971,94.90866 5.33334,0.8535 c 3.64226,0.58288 6.09431,1.70875 7.73333,3.55081 l 2.4,2.69732 v 111.26334 c 0,110.94696 -0.006,111.27131 -2.21075,114.07383 -1.60343,2.03844 -3.19381,2.81052 -5.78925,2.81052 -2.59543,0 -4.18582,-0.77208 -5.78925,-2.81052 -2.16943,-2.75797 -2.21075,-3.80476 -2.21075,-55.99999 0,-30.04284 -0.4098,-53.18948 -0.94169,-53.18948 -0.51793,0 -5.116,7.56 -10.21793,16.8 -5.10193,9.24 -10.2115,17.76 -11.35461,18.93333 -1.92592,1.97686 -3.48226,2.13333 -21.2191,2.13333 -17.73684,0 -19.29318,-0.15647 -21.2191,-2.13333 -1.14311,-1.17333 -6.25267,-9.69333 -11.3546,-18.93333 -5.10193,-9.24 -9.7,-16.8 -10.21793,-16.8 -0.5319,0 -0.9417,23.14664 -0.9417,53.18948 0,52.19523 -0.0413,53.24202 -2.21075,55.99999 -1.60343,2.03844 -3.19381,2.81052 -5.78925,2.81052 -2.59543,0 -4.18582,-0.77208 -5.78925,-2.81052 z m 245.2559,-31.32281 c 1.9708,-1.97079 2.13334,-3.55555 2.13334,-20.8 v -18.66666 h -7.46667 -7.46667 v 18.66666 c 0,17.24445 0.16254,18.82921 2.13334,20.8 1.18518,1.18518 3.55555,2.13333 5.33333,2.13333 1.77778,0 4.14815,-0.94815 5.33333,-2.13333 z M 258.6157,412.79188 c 6.25176,-11.15112 11.07244,-20.75111 10.71261,-21.33333 -0.78578,-1.27142 -44.94547,-1.47434 -45.7268,-0.21012 -0.57754,0.9345 21.84533,41.75891 22.95625,41.79547 0.3801,0.0125 5.80617,-9.10091 12.05794,-20.25202 z m 188.31761,-15.9919 v -7.46667 h -7.46667 -7.46667 v 7.46667 7.46666 h 7.46667 7.46667 z m 70.93333,-40 V 341.86665 L 439.5339,341.593 c -61.96046,-0.21644 -78.51058,0.006 -79.18366,1.06667 -0.99279,1.56376 -1.19234,25.42792 -0.23352,27.92658 0.58709,1.5299 8.26297,1.66758 79.2,1.42058 l 78.54992,-0.27352 z m -219.19999,-16 v -30.4 h -42.13333 -42.13333 v 30.4 30.4 h 42.13333 42.13333 z m 218.39999,-17.94583 c 1.91497,-1.21611 1.95141,-125.01292 0.0371,-126.19602 -0.7129,-0.4406 -28.28746,-1.0109 -61.27678,-1.26734 -59.45531,-0.46216 -59.99896,-0.48606 -62.07804,-2.72853 -3.28731,-3.54562 -3.37364,-7.61124 -0.24371,-11.47744 l 2.03865,-2.51816 61.16137,-0.53334 61.16139,-0.53333 v -14.93333 -14.93334 l -78.33274,-0.27364 c -61.96046,-0.21645 -78.51058,0.006 -79.18366,1.06667 -0.99122,1.56128 -1.19307,25.42602 -0.23614,27.91973 0.45583,1.18787 2.04868,1.68724 5.38181,1.68724 13.32522,0 13.80136,16.41845 0.50114,17.28046 l -4.93041,0.31954 -0.27676,62.93333 c -0.15224,34.61333 -0.0271,63.5861 0.27817,64.38391 0.46278,1.20963 13.35468,1.38413 77.61011,1.05045 42.38033,-0.22007 77.65514,-0.78116 78.38848,-1.24686 z m -89.08445,-15.29986 c -2.50311,-0.88584 -7.11986,-3.95829 -10.25942,-6.82767 -7.54211,-6.89307 -10.64539,-13.86799 -10.64539,-23.92664 0,-5.47416 0.65874,-8.96677 2.46855,-13.08811 3.09515,-7.0484 11.95868,-15.37615 18.87286,-17.73205 6.42312,-2.18858 15.67257,-2.18858 22.0957,0 6.91418,2.3559 15.77771,10.68365 18.87286,17.73205 3.40454,7.75293 3.40454,18.42329 0,26.17623 -3.09515,7.04839 -11.95868,15.37615 -18.87286,17.73204 -6.19582,2.11113 -16.46558,2.08111 -22.5323,-0.0658 z m 20.01833,-17.68764 c 4.19077,-2.86059 7.46612,-8.59285 7.46612,-13.06667 0,-4.47381 -3.27535,-10.20608 -7.46612,-13.06666 -7.42371,-5.06734 -18.16301,-2.15545 -22.55883,6.11669 -5.42698,10.21261 2.20845,22.41664 14.02495,22.41664 3.45079,0 6.11588,-0.74951 8.53388,-2.4 z M 430.90988,112.79999 c -0.0259,-19.133845 -0.98974,-23.068064 -7.04207,-28.743411 -5.48193,-5.14047 -9.70355,-6.189917 -24.90024,-6.189917 -11.39223,0 -13.90093,0.27739 -13.90093,1.537048 0,0.845377 0.46698,1.825657 1.03773,2.178399 0.57075,0.352744 2.01075,3.791632 3.2,7.641975 1.77077,5.733108 2.16227,9.94158 2.16227,23.243826 0,8.93376 0.32,16.5632 0.71112,16.9543 0.3911,0.39112 9.2711,0.71112 19.73333,0.71112 h 19.02222 l -0.0235,-17.33334 z"
         id="path176" />
      <path
         style="fill:#5e5e5e;stroke-width:1.06667"
         d="m 39.544083,524.12278 c -5.318735,-6.76167 -1.542043,-10.7117 15.92258,-16.65334 l 13.333333,-4.53614 v -56.50861 -56.50862 l -5.333333,-0.85354 c -3.642217,-0.58291 -6.094336,-1.70883 -7.733333,-3.55086 -2.399041,-2.69625 -2.4,-2.71344 -2.4,-43.04057 0,-30.99911 -0.308821,-40.58833 -1.333333,-41.40143 -0.733333,-0.582 -3.253333,-1.40495 -5.6,-1.82878 C 32.348029,296.70299 14.734321,282.7619 7.2659689,268.26665 -5.339008,243.80178 -0.98918953,216.51953 18.666666,196.76098 c 8.187113,-8.22989 16.743515,-13.15933 28.197807,-16.24507 6.605782,-1.77957 6.998281,-2.0783 10.415073,-7.92713 2.064438,-3.53389 5.553408,-7.51619 8.335524,-9.51416 2.631709,-1.88995 4.784926,-3.56948 4.784926,-3.73229 0,-0.16282 -2.284639,-3.32145 -5.076976,-7.01918 -7.190107,-9.52146 -10.765464,-18.15395 -12.145691,-29.32507 -1.505214,-12.18271 -0.538007,-44.849354 1.545709,-52.205133 2.245197,-7.92583 7.60652,-17.423016 13.686463,-24.244559 4.47814,-5.024363 5.127155,-6.273658 4.179287,-8.044764 -1.803353,-3.369596 -1.309408,-6.413313 1.496055,-9.218778 3.447401,-3.447399 7.178538,-3.309274 11.478036,0.424913 1.92708,1.673703 3.983782,2.899558 4.570449,2.724125 0.586666,-0.175434 3.087414,-0.838143 5.557218,-1.472688 3.969517,-1.019854 4.571734,-1.586486 5.190274,-4.883551 1.69535,-9.036984 12.97562,-9.428532 15.37079,-0.533533 1.02989,3.824692 1.58548,4.309756 6.63032,5.788608 l 5.50625,1.614109 3.57636,-3.140082 c 4.40068,-3.86385 8.08163,-3.990874 11.6698,-0.402708 2.68439,2.684396 2.90888,5.036635 0.96067,10.065811 -0.38717,0.999438 1.37811,3.789211 4.68751,7.407928 6.04542,6.610472 10.80402,15.01145 13.2824,23.449152 2.47462,8.424889 2.46301,53.65148 -0.0159,62.0128 -2.37252,8.00239 -5.14109,13.25658 -10.8826,20.65289 -2.70084,3.47927 -4.40415,6.49478 -3.78512,6.70113 3.67753,1.22585 10.58582,7.80246 13.36065,12.71919 l 3.22839,5.72038 h 38.22075 38.22076 l 2.21075,-2.81051 c 2.77417,-3.5268 2.78914,-5.76649 0.0618,-9.23386 l -2.14906,-2.73207 -21.94516,-0.34511 -21.94516,-0.34511 -2.62222,-3.05068 -2.62223,-3.05068 0.31644,-38.01598 c 0.30605,-36.768286 0.39314,-38.159341 2.6536,-42.38365 2.46984,-4.615634 8.48752,-10.487729 12.72747,-12.41958 2.49192,-1.135439 2.53528,-1.408211 2.53528,-15.951569 0,-16.770392 1.24349,-21.662824 5.79637,-22.805527 1.50534,-0.377813 3.96859,-0.377813 5.47392,0 4.56011,1.144516 5.79638,6.02971 5.79638,22.904863 0,14.218969 0.10229,14.928174 2.25124,15.610231 3.4967,1.109808 10.45714,7.890608 13.026,12.689812 2.22075,4.148866 2.33692,5.800604 2.64527,37.61282 l 0.32251,33.2734 5.1275,3.68373 c 6.23422,4.47885 10.76081,12.72923 10.76081,19.61316 0,8.99156 -5.48878,17.80063 -13.571,21.78045 -4.99325,2.45876 -5.86751,2.51991 -43.49567,3.04253 l -38.39999,0.53333 -0.53334,94.02164 c -0.60681,106.976 0.33365,97.61671 -9.97379,99.2574 l -5.49287,0.87434 v 56.5233 56.5233 l 13.33333,4.53614 c 17.46462,5.94164 21.24131,9.89167 15.92258,16.65334 -1.55935,1.98239 -3.2091,2.81052 -5.59896,2.81052 -5.13328,0 -35.3465,-10.39441 -37.66829,-12.95922 -1.87791,-2.07447 -2.01837,-5.59148 -2.52199,-63.15212 l -0.53334,-60.95532 h -23.4667 -23.466669 l -0.533333,60.95532 c -0.503632,57.56064 -0.644084,61.07765 -2.521998,63.15212 -2.32179,2.56481 -32.535,12.95922 -37.668286,12.95922 -2.389863,0 -4.039614,-0.82813 -5.598961,-2.81052 z M 148.79999,312.62656 v -59.10674 l -7.83474,-3.9758 c -10.16607,-5.15885 -15.44491,-10.41047 -20.04739,-19.94403 l -3.73339,-7.73334 h -7.85114 -7.85115 l -3.787425,7.87439 c -4.480149,9.31461 -12.820364,17.60257 -20.609938,20.4808 -2.796652,1.03336 -5.684821,2.33494 -6.418155,2.89243 -1.038068,0.78914 -1.333333,13.93695 -1.333333,59.37188 0,32.09705 0.325826,58.6841 0.724058,59.08233 0.398231,0.39823 18.27823,0.59823 39.733323,0.44445 l 39.00928,-0.27962 z M 52.799997,240.0146 c 0,-49.80965 0.946384,-46.33953 -11.032936,-40.45462 -13.264202,6.5161 -22.05976,18.31847 -24.821471,33.30681 -3.459345,18.77455 6.851447,38.65331 24.640334,47.5055 12.176281,6.05922 11.214073,9.52206 11.214073,-40.35769 z m 23.522375,-7.98479 c 1.901392,-1.45026 4.706699,-5.1445 6.234017,-8.20943 2.723909,-5.46617 2.776939,-5.99636 2.776939,-27.76315 v -22.19057 h -3.748997 c -2.780751,0 -4.778024,0.94258 -7.733333,3.64962 l -3.984336,3.64963 -0.318807,26.75037 c -0.293395,24.61804 -0.173883,26.75037 1.499316,26.75037 0.999968,0 3.373808,-1.18658 5.275201,-2.63684 z m 73.010948,-22.53528 c 0,-20.28479 -0.31399,-25.83384 -1.61723,-28.58021 -2.24194,-4.72455 -7.6059,-7.67197 -13.04943,-7.17049 -1.02025,0.094 -1.33089,5.32001 -1.32291,22.25616 0.01,21.02318 0.13697,22.40511 2.53348,27.55179 2.60976,5.60462 8.32747,11.08237 11.58943,11.10304 1.72537,0.0109 1.86666,-1.89345 1.86666,-25.16029 z m -33.68724,-4.27533 c 1.4296,-0.54859 1.68725,-2.97442 1.68725,-15.88588 0,-17.05411 0.25199,-16.53333 -8,-16.53333 -8.25302,0 -8,-0.5237 -8,16.55857 0,11.21287 0.35385,15.40643 1.33333,15.80166 1.92847,0.77816 10.9979,0.81936 12.97942,0.059 z m 9.15391,-52.26974 c 8.78026,-4.15944 15.45139,-10.81064 19.51787,-19.45954 2.84343,-6.04766 3.19856,-7.94117 3.30085,-17.6 l 0.11461,-10.82326 -10.73936,-0.53333 -10.73934,-0.53334 -5.11505,-4.507708 c -8.46642,-7.461168 -16.21085,-7.461168 -24.682015,0 l -5.11791,4.507708 -11.117721,0.36706 -11.11772,0.36705 0.415569,11.36628 c 0.345137,9.4399 0.886135,12.38227 3.192072,17.36096 9.373617,20.23833 32.354665,28.83641 52.088145,19.48812 z m 103.46666,-22.2828 v -15.46667 h -9.6 -9.6 v 15.46667 15.46666 h 9.6 9.6 z m 0.86481,-38.289279 c 0.57984,-9.135596 -3.21291,-14.510719 -10.23894,-14.510719 -4.68525,0 -7.31196,1.503312 -9.28149,5.311983 -1.63773,3.167024 -2.22674,12.916756 -0.86274,14.280754 0.41155,0.411561 5.09155,0.611561 10.4,0.444445 l 9.6517,-0.30385 z M 87.863223,83.765331 c 9.246377,-7.052555 22.198677,-9.248592 32.448907,-5.501648 5.88362,2.150736 6.21482,1.397732 4.52156,-10.279894 C 121.93733,48.008939 120.49733,46.35257 106.72151,47.15004 87.696811,48.251362 72.594088,62.249491 70.707357,80.530157 l -0.605821,5.869838 h 7.153733 c 5.96405,0 7.728178,-0.438151 10.607954,-2.634664 z M 199.54407,524.12278 c -2.20447,-2.80252 -2.21075,-3.12687 -2.21075,-114.07383 V 298.78561 l 2.5731,-2.99282 2.5731,-2.99281 40.89356,-0.53333 40.89357,-0.53333 v -6.93334 -6.93333 l -14.4,-0.53487 c -8.76994,-0.32574 -15.33342,-1.0676 -16.7874,-1.89745 -4.49504,-2.5655 -4.49504,-10.70319 0,-13.26869 1.45398,-0.82985 8.01746,-1.57171 16.7874,-1.89745 l 14.4,-0.53487 0.53333,-83.73333 c 0.48235,-75.7289 0.70765,-84.16781 2.35682,-88.278378 4.42421,-11.027382 12.93269,-19.451999 24.14714,-23.909156 5.82743,-2.316101 7.45405,-2.409559 48.56692,-2.790466 47.14537,-0.436797 56.5274,0.247067 65.48206,4.773036 6.75763,3.415517 15.59445,12.458452 18.42288,18.852608 2.81046,6.353488 4.17791,16.887136 4.20304,32.376286 l 0.0211,13.02393 46.31515,0.3094 46.31513,0.30941 2.75153,2.58593 c 1.61553,1.5183 2.75153,3.75357 2.75153,5.41407 0,3.02082 -3.88341,7.46666 -6.52208,7.46666 -3.54274,0 -4.14459,2.40086 -4.14459,16.53334 0,14.26706 0.5886,16.53333 4.29407,16.53333 2.56888,0 6.3726,4.54598 6.3726,7.61615 0,2.89059 -3.94558,7.31718 -6.52208,7.31718 -4.10389,0 -4.14459,0.64407 -4.14459,65.6 0,65.32448 0.018,65.59999 4.29407,65.59999 2.56888,0 6.3726,4.54599 6.3726,7.61615 0,2.89059 -3.94558,7.31719 -6.52208,7.31719 -3.54274,0 -4.14459,2.40085 -4.14459,16.53333 0,14.26706 0.5886,16.53333 4.29407,16.53333 2.56888,0 6.3726,4.54598 6.3726,7.61615 0,1.49967 -1.21091,3.81682 -2.7512,5.26459 l -2.75121,2.58593 -38.31545,0.31691 -38.31547,0.31692 v 7.35951 7.35952 l 33.16038,0.32357 33.16037,0.32357 2.57296,2.99281 2.57295,2.99282 v 55.26333 c 0,54.29328 -0.0388,55.31266 -2.21075,58.07384 -2.8066,3.56803 -8.25664,3.84327 -11.22392,0.56685 -1.88431,-2.08061 -2.07075,-4.7358 -2.56533,-36.53333 l -0.53333,-34.28966 -27.34936,-0.28444 -27.34936,-0.28444 -0.44977,19.48444 c -0.35651,15.44446 -0.83489,20.36911 -2.30722,23.7511 -3.98172,9.14623 -11.96669,14.35315 -22.01095,14.35315 -10.04426,0 -18.02923,-5.20692 -22.01095,-14.35315 -1.47233,-3.38199 -1.95071,-8.30664 -2.30722,-23.7511 l -0.44978,-19.48444 -27.34935,0.28444 -27.34936,0.28444 -0.53334,34.28966 c -0.49457,31.79753 -0.68101,34.45272 -2.56532,36.53333 -2.96728,3.27642 -8.41732,3.00118 -11.22392,-0.56685 -2.17195,-2.76118 -2.21075,-3.78056 -2.21075,-58.07384 v -55.26333 l 2.57294,-2.99282 2.57296,-2.99281 33.16038,-0.32357 33.16038,-0.32357 v -7.35952 -7.35951 l -38.49349,-0.31692 -38.49348,-0.31691 -2.57319,-2.99281 c -1.41524,-1.64605 -2.57317,-3.86133 -2.57317,-4.92283 0,-2.72838 4.05354,-7.55103 6.34682,-7.55103 3.81415,0 4.39465,-2.43 4.08497,-17.09996 -0.25803,-12.22321 -0.55128,-14.26193 -2.16512,-15.0524 -1.02667,-0.50287 -2.70667,-1.32172 -3.73334,-1.81967 -1.02666,-0.49795 -2.58666,-2.17795 -3.46666,-3.73333 -1.42222,-2.51375 -1.42222,-3.14219 0,-5.65594 0.88,-1.55538 2.44,-3.23538 3.46666,-3.73333 6.12043,-2.96852 5.6,3.21204 5.6,-66.50536 0,-69.71741 0.52043,-63.53684 -5.6,-66.50536 -1.02666,-0.49796 -2.58666,-2.17796 -3.46666,-3.73334 -1.42222,-2.51375 -1.42222,-3.14218 0,-5.65593 0.88,-1.55538 2.44,-3.23538 3.46666,-3.73334 1.02667,-0.49795 2.70667,-1.3168 3.73334,-1.81966 1.61384,-0.79048 1.90709,-2.8292 2.16512,-15.05241 0.30968,-14.66995 -0.27082,-17.09996 -4.08497,-17.09996 -2.29328,0 -6.34682,-4.82264 -6.34682,-7.55102 0,-1.06151 1.15777,-3.27678 2.57283,-4.92283 l 2.57283,-2.99281 18.49384,-0.53333 18.49383,-0.53334 0.32389,-13.86666 c 0.17815,-7.62667 0.0361,-15.857689 -0.3157,-18.291159 -0.93012,-6.434202 -5.96003,-13.368935 -12.13413,-16.729301 -5.12339,-2.788498 -5.62368,-2.846208 -24.67406,-2.846208 -19.05037,0 -19.55066,0.05771 -24.67405,2.846208 -6.1826,3.364988 -11.2122,10.307403 -12.11996,16.729301 -0.34398,2.43347 -0.48605,47.133379 -0.3157,99.333149 l 0.30971,94.90866 5.33334,0.8535 c 3.64226,0.58288 6.09431,1.70875 7.73333,3.55081 l 2.4,2.69732 v 111.26334 c 0,110.94696 -0.006,111.27131 -2.21075,114.07383 -1.60343,2.03844 -3.19381,2.81052 -5.78925,2.81052 -2.59543,0 -4.18582,-0.77208 -5.78925,-2.81052 -2.16943,-2.75797 -2.21075,-3.80476 -2.21075,-55.99999 0,-30.04284 -0.4098,-53.18948 -0.94169,-53.18948 -0.51793,0 -5.116,7.56 -10.21793,16.8 -5.10193,9.24 -10.2115,17.76 -11.35461,18.93333 -1.92592,1.97686 -3.48226,2.13333 -21.2191,2.13333 -17.73684,0 -19.29318,-0.15647 -21.2191,-2.13333 -1.14311,-1.17333 -6.25267,-9.69333 -11.3546,-18.93333 -5.10193,-9.24 -9.7,-16.8 -10.21793,-16.8 -0.5319,0 -0.9417,23.14664 -0.9417,53.18948 0,52.19523 -0.0413,53.24202 -2.21075,55.99999 -1.60343,2.03844 -3.19381,2.81052 -5.78925,2.81052 -2.59543,0 -4.18582,-0.77208 -5.78925,-2.81052 z m 245.2559,-31.32281 c 1.9708,-1.97079 2.13334,-3.55555 2.13334,-20.8 v -18.66666 h -7.46667 -7.46667 v 18.66666 c 0,17.24445 0.16254,18.82921 2.13334,20.8 1.18518,1.18518 3.55555,2.13333 5.33333,2.13333 1.77778,0 4.14815,-0.94815 5.33333,-2.13333 z M 280.68441,413.38338 c 6.87889,-12.29246 12.27067,-22.73246 11.98171,-23.2 -0.77906,-1.26055 -71.86613,-1.07588 -71.86613,0.18669 0,1.35144 22.24953,41.58253 24.36988,44.06504 1.39388,1.63197 3.14136,1.85899 12.31591,1.6 l 10.69155,-0.3018 z m 166.2489,-16.5834 v -7.46667 h -7.46667 -7.46667 v 7.46667 7.46666 h 7.46667 7.46667 z m -146.66666,-56 v -30.93333 h -43.2 -43.2 l -0.28398,29.85226 c -0.15619,16.41875 -0.0492,30.4642 0.23784,31.21213 0.41342,1.07733 9.44767,1.30193 43.48399,1.08107 l 42.96215,-0.2788 z m 217.59999,16 V 341.86665 L 439.5339,341.593 c -61.96046,-0.21644 -78.51058,0.006 -79.18366,1.06667 -0.99279,1.56376 -1.19234,25.42792 -0.23352,27.92658 0.58709,1.5299 8.26297,1.66758 79.2,1.42058 l 78.54992,-0.27352 z m -0.8,-33.94583 c 1.91497,-1.21611 1.95141,-125.01292 0.0371,-126.19602 -0.7129,-0.4406 -28.28746,-1.0109 -61.27678,-1.26734 -59.45531,-0.46216 -59.99896,-0.48606 -62.07804,-2.72853 -3.28731,-3.54562 -3.37364,-7.61124 -0.24371,-11.47744 l 2.03865,-2.51816 61.16137,-0.53334 61.16139,-0.53333 v -14.93333 -14.93334 l -78.33274,-0.27364 c -61.96046,-0.21645 -78.51058,0.006 -79.18366,1.06667 -0.99122,1.56128 -1.19307,25.42602 -0.23614,27.91973 0.45583,1.18787 2.04868,1.68724 5.38181,1.68724 13.32522,0 13.80136,16.41845 0.50114,17.28046 l -4.93041,0.31954 -0.27676,62.93333 c -0.15224,34.61333 -0.0271,63.5861 0.27817,64.38391 0.46278,1.20963 13.35468,1.38413 77.61011,1.05045 42.38033,-0.22007 77.65514,-0.78116 78.38848,-1.24686 z m -89.08445,-15.29986 c -2.50311,-0.88584 -7.11986,-3.95829 -10.25942,-6.82767 -7.54211,-6.89307 -10.64539,-13.86799 -10.64539,-23.92664 0,-5.47416 0.65874,-8.96677 2.46855,-13.08811 3.09515,-7.0484 11.95868,-15.37615 18.87286,-17.73205 6.42312,-2.18858 15.67257,-2.18858 22.0957,0 6.91418,2.3559 15.77771,10.68365 18.87286,17.73205 3.40454,7.75293 3.40454,18.42329 0,26.17623 -3.09515,7.04839 -11.95868,15.37615 -18.87286,17.73204 -6.19582,2.11113 -16.46558,2.08111 -22.5323,-0.0658 z m 20.01833,-17.68764 c 4.19077,-2.86059 7.46612,-8.59285 7.46612,-13.06667 0,-4.47381 -3.27535,-10.20608 -7.46612,-13.06666 -7.42371,-5.06734 -18.16301,-2.15545 -22.55883,6.11669 -5.42698,10.21261 2.20845,22.41664 14.02495,22.41664 3.45079,0 6.11588,-0.74951 8.53388,-2.4 z M 430.90988,112.79999 c -0.0259,-19.133845 -0.98974,-23.068064 -7.04207,-28.743411 -5.48193,-5.14047 -9.70355,-6.189917 -24.90024,-6.189917 -11.39223,0 -13.90093,0.27739 -13.90093,1.537048 0,0.845377 0.46698,1.825657 1.03773,2.178399 0.57075,0.352744 2.01075,3.791632 3.2,7.641975 1.77077,5.733108 2.16227,9.94158 2.16227,23.243826 0,8.93376 0.32,16.5632 0.71112,16.9543 0.3911,0.39112 9.2711,0.71112 19.73333,0.71112 h 19.02222 l -0.0235,-17.33334 z"
         id="path174" />
      <path
         style="fill:#060605;stroke-width:1.06667"
         d="m 40.060482,523.49596 c -4.258164,-6.07938 -1.512434,-8.65932 15.469316,-14.53523 l 14.336864,-4.96076 0.276088,-56.94602 c 0.199588,-41.16728 -0.05827,-57.34889 -0.930608,-58.4 -0.682472,-0.82233 -3.235216,-1.45397 -5.876087,-1.45397 -3.24717,0 -5.319171,-0.64978 -6.802725,-2.13334 -2.059385,-2.05938 -2.133333,-3.55555 -2.133333,-43.16247 0,-46.25073 0.898488,-41.79963 -8.921396,-44.19643 -7.383532,-1.80214 -16.47693,-6.64362 -23.176137,-12.33937 -7.294356,-6.20175 -15.3624764,-18.09092 -17.6196056,-25.96423 -0.9572171,-3.33895 -2.2563622,-6.71316 -2.886989,-7.49825 -1.5009561,-1.86857 -1.5009561,-21.94324 0,-23.81181 0.6306268,-0.78509 1.9297719,-4.1593 2.886989,-7.49825 5.0342634,-17.56047 22.8485096,-33.74141 42.9419816,-39.00481 6.707691,-1.75706 7.29807,-2.16327 9.67391,-6.65604 2.99308,-5.66 7.171807,-10.26885 11.234579,-12.39095 3.521076,-1.83915 3.763979,-4.67839 0.636968,-7.44538 -4.083714,-3.61356 -10.479971,-14.49957 -12.652709,-21.53408 -1.854311,-6.00355 -2.117591,-9.93066 -2.117591,-31.58616 0,-33.102358 1.963276,-40.307931 14.757842,-54.163883 5.634841,-6.102285 5.678516,-6.201657 4.412127,-10.038854 -1.122801,-3.402121 -1.023138,-4.219651 0.815837,-6.692284 3.062445,-4.117673 6.280745,-4.156353 10.439559,-0.12547 3.212498,3.113676 3.818266,3.312202 7.077253,2.319406 1.960225,-0.597151 4.845808,-1.368386 6.412406,-1.713856 2.145189,-0.473062 3.030309,-1.484193 3.585379,-4.095799 0.40536,-1.907219 1.47799,-4.307671 2.38363,-5.334338 3.41515,-3.871569 10.89115,-1.078752 10.93229,4.08399 0.0278,3.495233 1.50148,4.672428 7.95223,6.352634 l 6.23482,1.623966 3.15821,-3.230295 c 3.37001,-3.446924 5.03648,-3.877252 8.28409,-2.139183 3.46572,1.8548 4.49763,4.925713 3.02429,9.000164 -1.28714,3.559539 -1.21116,3.727302 4.477,9.884717 6.38891,6.915985 10.97768,15.158908 13.30355,23.897523 2.14694,8.066374 2.14685,51.386932 -1.3e-4,59.453452 -2.1599,8.11506 -6.31554,16.14691 -11.2616,21.76593 -2.3405,2.65894 -4.25546,5.35477 -4.25546,5.99073 0,0.63595 1.8398,2.31768 4.08843,3.73718 4.83744,3.05374 9.55385,8.4057 11.50014,13.04981 0.76924,1.83552 2.17576,3.63552 3.1256,4 0.94984,0.36449 17.64772,0.66196 37.10641,0.66105 31.55037,-10e-4 35.78223,-0.20351 39.10132,-1.86666 4.38995,-2.19978 6.23509,-6.352 4.73924,-10.66502 -1.96893,-5.67704 -6.17989,-6.66315 -28.46114,-6.66501 -18.73113,-0.001 -20.13856,-0.14021 -22.18397,-2.18562 -2.13073,-2.13073 -2.17622,-3.0992 -1.86666,-39.73333 0.31383,-37.13961 0.34515,-37.605952 2.86998,-42.734873 1.58831,-3.226477 4.15364,-6.248794 6.79039,-7.999999 9.64448,-6.405428 9.32359,-5.600066 9.32359,-23.400686 0,-14.032692 0.22727,-16.088832 1.95066,-17.648483 2.57618,-2.331409 6.88597,-2.243478 9.08402,0.185336 1.47431,1.6291 1.76532,4.538369 1.76532,17.648484 0,17.589211 -0.3101,16.817084 9.3236,23.215349 2.63674,1.751205 5.20208,4.773522 6.79039,7.999999 2.50289,5.08437 2.55897,5.836071 2.87562,38.540983 l 0.32294,33.35548 3.94373,2.51689 c 5.59774,3.5725 8.42748,6.94094 10.30767,12.26996 2.84049,8.05082 1.5096,15.31477 -4.03935,22.04659 -6.37917,7.73904 -7.22138,7.8725 -49.8446,7.89884 -28.04419,0.0173 -38.25336,0.35679 -39.19999,1.30342 -0.97612,0.97612 -1.28,23.51407 -1.28,94.93333 0,92.23111 -0.0324,93.68572 -2.13334,95.78666 -1.48355,1.48356 -3.55555,2.13334 -6.80273,2.13334 -2.64086,0 -5.19361,0.63164 -5.87608,1.45397 -0.87234,1.05111 -1.1302,17.23272 -0.9306,58.4 l 0.27608,56.94602 14.33686,4.96076 c 13.78556,4.76999 17.12981,6.81451 17.12981,10.47243 0,3.10913 -3.19997,6.43347 -6.19278,6.43347 -4.79395,0 -35.75419,-10.66609 -37.80722,-13.02494 -1.7306,-1.9884 -1.86667,-6.55232 -1.86667,-62.61322 0,-45.60883 -0.31455,-60.78304 -1.28,-61.74849 -1.81202,-1.81202 -45.761312,-1.81202 -47.573329,0 -0.965449,0.96545 -1.279999,16.13966 -1.279999,61.74849 0,56.0609 -0.136063,60.62482 -1.866667,62.61322 -2.053037,2.35885 -33.013264,13.02494 -37.807219,13.02494 -1.758454,0 -3.515554,-0.91907 -4.532294,-2.37067 z M 149.75253,371.64607 c 0.93209,-2.42897 0.76854,-117.03254 -0.16887,-118.33459 -0.43102,-0.59866 -4.47774,-2.89207 -8.99271,-5.09646 -10.70782,-5.22794 -15.57941,-10.79262 -20.53545,-23.4571 l -1.5818,-4.04206 -9.33966,0.30872 -9.339652,0.30874 -1.953228,5.26833 c -3.805744,10.26502 -12.327176,19.04819 -21.915823,22.58897 -2.745604,1.01386 -5.592008,2.2995 -6.325341,2.85698 -1.038583,0.78953 -1.333334,14.15028 -1.333334,60.43855 0,32.68372 0.32,59.74494 0.711112,60.13605 0.39111,0.39111 18.579755,0.71111 40.419216,0.71111 35.22459,0 39.7812,-0.19051 40.35554,-1.68724 z M 53.866663,239.99999 v -44.26667 l -3.873936,0.11049 c -5.542413,0.15808 -12.960642,4.09345 -19.99838,10.60915 -15.520375,14.36913 -19.396106,35.97768 -9.814587,54.71973 6.024409,11.78413 22.297301,24.01169 31.020237,23.30883 l 2.666666,-0.21487 z m 22.886224,-8.20714 c 7.934854,-6.79195 8.530136,-9.24716 8.557015,-35.293 0.02619,-25.37045 0.07251,-25.22595 -7.199674,-22.45814 -2.204675,0.8391 -5.008517,3.08186 -6.359937,5.08724 -2.34602,3.48125 -2.416962,4.34373 -2.416962,29.38434 0,14.18879 0.32,26.11781 0.711112,26.50891 1.203491,1.2035 1.948828,0.8447 6.708446,-3.22935 z m 72.580433,-22.84212 c 0,-27.61041 -0.37641,-29.78864 -5.75701,-33.31413 -1.46632,-0.96078 -4.25086,-1.87207 -6.18785,-2.02507 l -3.5218,-0.27821 v 24.17746 24.17747 l 3.23964,4.60675 c 3.42883,4.8758 9.7221,9.79388 11.29137,8.82401 0.51461,-0.31804 0.93565,-12.09376 0.93565,-26.16828 z m -32.53333,-19.61741 v -16 h -7.46666 -7.46667 l -0.29817,14.88196 c -0.16399,8.18509 -0.0506,15.52717 0.25202,16.31575 0.40316,1.05061 2.47821,1.34938 7.76484,1.11802 l 7.21464,-0.31573 z m 8.53334,-35.00173 c 8.38843,-3.89056 16.64552,-12.10572 20.45727,-20.35338 2.72438,-5.89487 3.00939,-7.62277 3.00939,-18.24488 v -11.73334 l -11.2,-0.66929 c -6.16,-0.36811 -11.2908,-0.72811 -11.40179,-0.8 -0.11099,-0.0719 -2.41723,-2.04815 -5.12497,-4.391683 -5.65341,-4.892996 -8.38279,-5.814519 -15.00935,-5.067611 -3.66186,0.412744 -5.82942,1.536453 -9.512683,4.931567 l -4.770204,4.397017 H 81.166685 c -14.18286,0 -14.485397,0.30031 -13.560338,13.46035 0.379799,5.40308 1.41692,11.90485 2.304714,14.44838 3.917578,11.22387 14.322385,21.70759 25.473656,25.66687 8.299703,2.94681 21.627823,2.21518 29.948613,-1.644 z m 103.46666,-23.66493 v -16 h -10.13334 -10.13333 l -0.29816,14.88196 c -0.164,8.18509 -0.0522,15.52321 0.24864,16.30693 0.41399,1.07886 2.94769,1.35043 10.43149,1.11804 l 9.8847,-0.30693 z m 0.95254,-33.153905 c 2.2337,-5.820922 -0.46954,-15.857533 -5.01801,-18.630925 -9.10894,-5.554112 -17.77322,1.050147 -17.79525,13.564258 -0.0116,6.57562 0.298,6.753906 11.72738,6.753906 8.53449,0 10.55653,-0.307747 11.08588,-1.687239 z M 89.090349,84.554497 c 11.146391,-8.940328 28.425211,-8.899437 40.217751,0.09518 3.21206,2.449963 4.70716,2.816987 11.47513,2.816987 h 7.78189 l -0.58651,-5.599999 C 146.31946,66.024728 136.70844,53.553447 121.86889,47.98661 113.03664,44.673328 99.957612,45.242118 91.697773,49.298711 79.924872,55.080645 71.125919,67.041119 69.376975,79.639516 c -1.16532,8.394298 -0.369595,9.213241 8.466888,8.713936 5.955971,-0.336543 7.638141,-0.904764 11.246486,-3.798955 z M 200.53332,523.7333 c -2.10611,-2.10611 -2.13333,-3.55555 -2.13333,-113.59999 0,-110.04444 0.0272,-111.49388 2.13333,-113.59999 2.05808,-2.05808 3.55555,-2.13334 42.45333,-2.13334 29.93778,0 40.64959,-0.32959 41.6,-1.28 1.6859,-1.6859 1.6859,-14.9541 0,-16.64 -0.87048,-0.87047 -5.9366,-1.28 -15.83468,-1.28 -12.74568,0 -14.77409,-0.24244 -16.32,-1.95065 -2.33141,-2.57618 -2.24347,-6.88598 0.18534,-9.08402 1.61306,-1.45981 4.4518,-1.76533 16.40273,-1.76533 10.61531,0 14.76002,-0.37106 15.61205,-1.39769 0.80798,-0.97357 1.25222,-26.78746 1.46394,-85.06666 l 0.30395,-83.668969 3.06578,-6.637197 c 3.58229,-7.755408 11.41048,-15.671515 19.33422,-19.551351 l 5.33333,-2.61145 h 51.73333 51.73333 l 6.07627,2.848194 c 7.75123,3.63332 15.17555,11.057643 18.80887,18.808873 2.67633,5.709613 2.88038,7.25342 3.38153,25.58444 0.43107,15.76752 0.84013,19.70162 2.13333,20.51701 0.93904,0.59207 20.1962,1.01556 46.61648,1.02515 30.96711,0.0112 45.83617,0.38981 47.64292,1.21302 5.00445,2.28018 4.54971,8.57716 -0.76097,10.5374 -6.91443,2.55219 -6.5651,1.55896 -6.5651,18.66591 0,17.10694 -0.34933,16.11371 6.5651,18.6659 1.8508,0.68316 3.60587,2.1628 3.90014,3.2881 0.92719,3.54556 -0.42048,6.0957 -3.90014,7.38009 -1.85081,0.68314 -4.0851,1.61476 -4.9651,2.07025 -1.39559,0.72235 -1.6,9.11114 -1.6,65.66232 0,56.55117 0.20441,64.93996 1.6,65.66232 0.88,0.45549 3.11429,1.3871 4.9651,2.07025 1.8508,0.68316 3.60587,2.16279 3.90014,3.2881 0.92719,3.54555 -0.42048,6.0957 -3.90014,7.38008 -6.91443,2.55219 -6.5651,1.55897 -6.5651,18.66591 0,17.10694 -0.34933,16.11371 6.5651,18.66591 5.31068,1.96023 5.76542,8.25721 0.76097,10.53739 -1.78084,0.81142 -14.60548,1.1967 -39.8334,1.1967 -42.87366,0 -40.55933,-0.54778 -40.55933,9.6 0,10.0595 -1.71404,9.6 35.80952,9.6 31.03492,0 32.55062,0.0934 34.59047,2.13333 2.07864,2.07863 2.13334,3.55555 2.13334,57.59999 0,54.04445 -0.0547,55.52137 -2.13334,57.6 -2.72744,2.72745 -6.87255,2.72745 -9.6,0 -2.04388,-2.04388 -2.13333,-3.55555 -2.13333,-36.05333 0,-24.96 -0.33811,-34.25811 -1.28,-35.2 -0.92654,-0.92654 -8.56381,-1.28 -27.65714,-1.28 -22.557,0 -26.6199,0.24277 -28.05333,1.67619 -1.40149,1.4015 -1.67619,4.87018 -1.67619,21.16556 0,18.34367 -0.1459,19.76574 -2.48189,24.19048 -1.36504,2.5856 -4.52639,6.1411 -7.02521,7.9011 -4.11182,2.89608 -5.33635,3.2 -12.8929,3.2 -7.55655,0 -8.78108,-0.30392 -12.8929,-3.2 -2.49882,-1.76 -5.66017,-5.3155 -7.02521,-7.9011 -2.33599,-4.42474 -2.48189,-5.84681 -2.48189,-24.19048 0,-16.29538 -0.2747,-19.76406 -1.67619,-21.16556 -1.43343,-1.43342 -5.49633,-1.67619 -28.05333,-1.67619 -19.09333,0 -26.7306,0.35346 -27.65714,1.28 -0.94189,0.94189 -1.28,10.24 -1.28,35.2 0,32.49778 -0.0895,34.00945 -2.13334,36.05333 -1.17333,1.17333 -3.33333,2.13333 -4.79999,2.13333 -1.46667,0 -3.62667,-0.96 -4.8,-2.13333 -2.07864,-2.07863 -2.13334,-3.55555 -2.13334,-57.6 0,-54.04444 0.0547,-55.52136 2.13334,-57.59999 2.03985,-2.03985 3.55555,-2.13333 34.59047,-2.13333 37.52356,0 35.80952,0.4595 35.80952,-9.6 0,-10.15727 2.38828,-9.6 -41.14285,-9.6 -36.36826,0 -37.87077,-0.0803 -39.92381,-2.13334 -1.17333,-1.17333 -2.13333,-3.09333 -2.13333,-4.26666 0,-2.65483 3.62033,-6.4 6.18666,-6.4 3.95638,0 4.48,-2.06677 4.48,-17.68273 0,-16.16813 -0.1419,-16.61961 -5.63627,-17.93295 -3.86314,-0.92342 -5.82816,-4.98496 -4.17122,-8.62156 0.68159,-1.49592 2.48677,-2.94443 4.17122,-3.34708 5.92514,-1.41632 5.63627,2.02175 5.63627,-67.08234 0,-69.10409 0.28887,-65.66603 -5.63627,-67.08235 -6.29056,-1.50366 -6.29056,-10.46497 0,-11.96863 5.49437,-1.31335 5.63627,-1.76483 5.63627,-17.93295 0,-15.61597 -0.52362,-17.68273 -4.48,-17.68273 -2.56633,0 -6.18666,-3.74518 -6.18666,-6.4 0,-1.17334 0.96,-3.09333 2.13333,-4.26667 1.96402,-1.96402 3.55555,-2.13333 20.05333,-2.13333 12.51555,0 18.30603,-0.38603 19.2,-1.28 0.88676,-0.88676 1.2768,-6.37568 1.26958,-17.86667 -0.01,-15.122757 -0.22994,-17.058057 -2.49764,-21.92776 -2.8903,-6.206661 -8.38728,-11.424493 -14.20045,-13.479318 -5.66875,-2.003775 -37.71423,-2.003775 -43.38297,0 -5.81318,2.054825 -11.31016,7.272657 -14.20045,13.479318 l -2.48722,5.341097 -0.0107,97.653323 c -0.007,74.5421 0.29251,97.95627 1.26958,98.93333 0.704,0.704 3.344,1.28 5.86667,1.28 3.16444,0 5.24817,0.66151 6.72,2.13334 2.10611,2.10611 2.13333,3.55555 2.13333,113.59999 0,110.04444 -0.0272,111.49388 -2.13333,113.59999 -1.17334,1.17333 -3.33334,2.13333 -4.8,2.13333 -1.46667,0 -3.62667,-0.96 -4.8,-2.13333 -2.07765,-2.07764 -2.13334,-3.55555 -2.13334,-56.61154 0,-49.48614 -0.15719,-54.44661 -1.71542,-54.13333 -0.94449,0.18988 -5.90933,7.90134 -11.04735,17.15887 -5.13255,9.2477 -10.19501,17.7677 -11.2499,18.93333 -1.77581,1.96253 -3.31392,2.11934 -20.78708,2.11934 -17.47316,0 -19.01127,-0.15681 -20.78733,-2.11934 -1.05489,-1.16563 -6.11734,-9.68563 -11.24989,-18.93333 -5.13802,-9.25753 -10.10286,-16.96899 -11.04735,-17.15887 -1.55823,-0.31328 -1.71543,4.64719 -1.71543,54.13333 0,53.05599 -0.0557,54.5339 -2.13333,56.61154 -1.17333,1.17333 -3.33333,2.13333 -4.8,2.13333 -1.46667,0 -3.62667,-0.96 -4.8,-2.13333 z m 245.41406,-30.48366 c 2.49042,-2.64874 2.599,-3.41097 2.93987,-20.63653 0.42072,-21.26057 0.3536,-21.41314 -9.42061,-21.41314 -9.77421,0 -9.84133,0.15257 -9.42061,21.41314 0.34087,17.22556 0.44945,17.98779 2.93987,20.63653 1.86326,1.9817 3.67441,2.75033 6.48074,2.75033 2.80633,0 4.61748,-0.76863 6.48074,-2.75033 z m -176.92598,-57.783 c 3.31236,-3.81972 25.54643,-44.99879 24.87931,-46.07823 -0.46319,-0.74945 -12.88642,-1.12177 -37.43035,-1.12177 -31.33223,0 -36.73704,0.22689 -36.73704,1.54221 0,1.89273 24.34547,45.61551 26.00774,46.70813 0.65575,0.43101 5.79787,0.79101 11.42693,0.8 8.43299,0.0134 10.51964,-0.31228 11.85341,-1.85034 z m 237.9119,-0.80331 10.4,-0.67641 v -5.18695 -5.18694 l -10.4,-0.6763 c -5.72,-0.37196 -40.84728,-0.89199 -78.06064,-1.15561 -53.80377,-0.38116 -67.83602,-0.20302 -68.51699,0.86977 -1.01305,1.59592 -1.16921,9.51112 -0.23565,11.94393 0.59149,1.54141 7.0819,1.65731 68.53333,1.2238 37.33397,-0.26338 72.55995,-0.78327 78.27995,-1.15529 z m -59.54285,-29.93955 c 1.14224,-1.14224 1.67619,-3.66638 1.67619,-7.9238 0,-4.25743 -0.53395,-6.78157 -1.67619,-7.92381 -1.14224,-1.14224 -3.66638,-1.67619 -7.92381,-1.67619 -8.18401,0 -9.6,1.41599 -9.6,9.6 0,4.25742 0.53395,6.78156 1.67619,7.9238 1.14224,1.14224 3.66638,1.6762 7.92381,1.6762 4.25743,0 6.78157,-0.53396 7.92381,-1.6762 z M 300.76246,371.2701 c 0.68185,-1.27407 1.10419,-12.92835 1.10419,-30.47012 0,-17.54177 -0.42234,-29.19605 -1.10419,-30.47012 -1.06369,-1.98751 -2.6836,-2.06321 -44.15254,-2.06321 -38.27048,0 -43.12022,0.18726 -43.69581,1.68724 -0.84496,2.20193 -0.84496,59.49025 0,61.69218 0.57559,1.49998 5.42533,1.68724 43.69581,1.68724 41.46894,0 43.08885,-0.0757 44.15254,-2.06321 z m 219.12339,0.37597 c 0.95849,-2.49779 0.7543,-28.493 -0.23606,-30.05293 -0.67317,-1.06031 -17.54308,-1.28306 -80.78366,-1.06666 l -79.93282,0.2735 -0.29816,14.88196 c -0.164,8.18509 -0.0591,15.50509 0.23318,16.26667 0.42906,1.11811 15.91809,1.3847 80.45072,1.3847 71.892,0 79.98437,-0.16947 80.5668,-1.68724 z m -0.45674,-48.37597 c 1.72581,-3.22471 1.50667,-124.98884 -0.22914,-127.31859 -1.21616,-1.63229 -6.64316,-1.81425 -61.75529,-2.07054 -57.70502,-0.26834 -60.52291,-0.37235 -62.66667,-2.31297 -2.79193,-2.52736 -2.86937,-6.0267 -0.20616,-9.31651 l 2.03854,-2.51817 61.11954,-0.30071 c 46.60495,-0.22929 61.31561,-0.60926 61.94512,-1.6 1.09108,-1.71712 1.06867,-28.64973 -0.0253,-30.37279 -0.67317,-1.06031 -17.54308,-1.28306 -80.78366,-1.06667 l -79.9328,0.27351 v 15.98531 15.9853 l 5.86667,0.82031 c 12.8762,1.80041 13.11723,13.01582 0.30995,14.4227 -2.81047,0.30873 -5.4626,1.09196 -5.89362,1.74052 -0.93732,1.41041 -1.10114,125.59583 -0.16888,128.02527 0.58236,1.51761 8.62154,1.68724 79.96247,1.68724 77.32474,0 79.34272,-0.0517 80.41921,-2.06321 z m -85.9958,-16.10289 c -6.75755,-1.35432 -12.45929,-4.70291 -17.22332,-10.11513 -17.52832,-19.91323 -3.36048,-50.95439 23.25665,-50.95439 17.27975,0 30.93333,13.5516 30.93333,30.70229 0,19.24667 -18.13232,34.14193 -36.96666,30.36723 z m 15.38249,-16.36195 c 3.93682,-2.56835 7.71751,-9.42931 7.71751,-14.00528 0,-4.64339 -3.79317,-11.4343 -7.96314,-14.2564 -8.13208,-5.50356 -19.61509,-2.2286 -24.05269,6.85984 -2.6839,5.49677 -2.67578,9.32966 0.0314,14.79313 4.72197,9.52985 15.35201,12.42478 24.26699,6.60871 z M 431.39045,130.59047 c 1.33423,-1.33423 1.67619,-4.24159 1.67619,-14.25113 0,-16.920849 -0.77599,-21.561698 -4.68243,-28.003385 -2.40392,-3.964037 -4.89689,-6.355132 -9.05227,-8.68235 -5.35495,-2.999044 -6.64315,-3.244522 -19.45399,-3.707116 -17.63022,-0.636621 -17.9423,-0.422739 -13.39618,9.180745 3.33068,7.0359 3.38509,7.410109 3.75209,25.806096 0.21127,10.58937 0.84586,19.24361 1.46654,20 0.79856,0.97315 6.08074,1.33333 19.554,1.33333 15.35947,0 18.74138,-0.28153 20.13605,-1.67619 z"
         id="path172" />
    </g>
  </g>
</svg>
