<?xml version="1.0" encoding="UTF-8" standalone="no"?>
<!-- Created with Inkscape (http://www.inkscape.org/) -->

<svg
   version="1.1"
   id="svg909"
   width="512"
   height="512"
   viewBox="0 0 512 512"
   xmlns="http://www.w3.org/2000/svg"
   xmlns:svg="http://www.w3.org/2000/svg">
  <defs
     id="defs913" />
  <g
     id="g915">
    <g
       id="g919">
      <path
         style="fill:#eeceb2"
         d="M 7.6666667,504.33333 C 7.3,503.96667 7,478.2977 7,447.29118 7,399.75963 7.2485095,389.70651 8.5841167,383.20784 12.021344,366.48332 20.545299,351.47676 33.801974,338.81141 48.418222,324.84712 61.595677,318.93428 88,314.49226 c 8.525,-1.43417 15.80263,-2.91913 16.17251,-3.29992 0.36988,-0.38079 1.39095,-3.49037 2.26905,-6.91019 0.87809,-3.41981 1.82871,-6.82288 2.11247,-7.56236 0.31073,-0.80975 -1.88564,-3.20952 -5.52208,-6.03347 C 95.88034,285.13259 88.849303,276.00433 84.787591,267 c -1.612628,-3.575 -3.285008,-7.175 -3.716401,-8 -0.459021,-0.87784 -2.894795,-1.76299 -5.872511,-2.13404 -10.442877,-1.3013 -20.432937,-8.58067 -25.24088,-18.39204 -1.82341,-3.72096 -2.528305,-7.04003 -2.798245,-13.17582 -0.329911,-7.49897 -0.08963,-8.79028 2.80358,-15.06719 l 3.164416,-6.86529 -2.712647,-10.43281 C 46.799926,179.02964 46.010288,161.58389 48.486575,150.32952 53.039343,129.63783 65.066941,112.01754 82.479302,100.53058 100.54543,88.612326 107.82016,87.014012 144,87.014012 c 29.52196,0 36.73169,0.897933 48.5,6.040415 8.81269,3.850943 21.18747,12.780643 27.89305,20.127773 l 6.51045,7.13332 11.79825,-11.03884 C 245.19079,103.20531 271.2,78.832057 296.5,55.11389 325.45072,27.973254 344.16786,11.157881 347,9.7449755 c 6.40882,-3.197252 19.55846,-3.206061 26,-0.017418 2.85024,1.4109075 20.99757,17.6781345 49.5,44.3716955 86.93261,81.415557 82.5,76.647217 82.5,88.748587 0,14.75201 -9.53433,24.93975 -24.4267,26.10074 L 473.5,169.5 473,249 l -0.5,79.5 -41.5,0.25089 c -22.825,0.13799 -42.04682,0.45535 -42.71516,0.70525 -0.86357,0.32289 -0.43959,2.13101 1.46534,6.24911 1.98455,4.29022 2.81933,8.00166 3.21516,14.29475 L 393.5,358.5 409,359 c 17.285,0.55758 19.56069,1.31881 26.05517,8.71561 6.10564,6.95395 5.94483,5.21089 5.94483,64.43655 0,52.68557 -0.0581,54.33645 -2.05843,58.46854 -2.3785,4.91332 -8.66652,10.9486 -13.51989,12.97647 C 422.57736,504.7856 390.44854,505 215.19879,505 101.42279,505 8.0333333,504.7 7.6666667,504.33333 Z M 374.25969,352.22915 C 373.89308,342.66283 369.63582,335.96375 361,331.36416 357.81261,329.6665 354.86511,329.5 328,329.5 c -26.86511,0 -29.81261,0.1665 -33,1.86416 -4.8053,2.55939 -8.83898,6.46703 -10.9897,10.64629 -1.96866,3.82551 -3.62766,14.18163 -2.55091,15.92384 0.47068,0.76158 14.45579,1.00801 46.85577,0.82565 L 374.5,358.5 Z m -106.8961,-18.99712 c 2.12395,-4.06773 2.007,-4.11812 -10.36359,-4.46536 L 247.5,328.5 247,249 246.5,169.5 H 244 c -2.34938,0 -2.54551,0.4121 -3.25535,6.83987 -0.41544,3.76193 -1.8809,11.28015 -3.25657,16.70716 l -2.50123,9.86728 3.25658,6.29284 c 2.93036,5.66249 3.25559,7.14431 3.2468,14.79285 -0.0116,10.10741 -2.02395,15.36909 -8.61097,22.51517 -5.29037,5.73936 -12.43914,9.4807 -19.50964,10.21044 -6.02457,0.62179 -6.32559,0.88189 -8.81563,7.61735 -0.98473,2.66363 -4.02462,8.18338 -6.75532,12.26612 -4.36089,6.52008 -7.76674,10.0457 -16.51976,17.1007 l -2.2211,1.79022 2.25611,8 2.25611,8 15.46498,2.69028 c 27.59805,4.80094 40.62508,10.64164 55.33578,24.80991 l 8.07745,7.7796 1.6045,-5.13989 c 0.88248,-2.82695 2.37236,-6.61048 3.31085,-8.40787 z"
         id="path933" />
      <path
         style="fill:#4bbce3"
         d="M 8.5831485,503.44029 C 7.180581,502.03772 7,496.07353 7,451.15234 7,422.81375 7.4508337,396.7097 8.0220519,391.97377 10.586084,370.71554 19.27692,353.47117 34.812897,338.81531 48.727833,325.68867 62.498212,319.60548 87.81262,315.4022 c 8.628059,-1.43263 16.18522,-3.1217 16.79369,-3.75349 1.26348,-1.3119 4.39369,-12.24256 4.39369,-15.3427 0,-1.32007 -1.98601,-3.59498 -5.51583,-6.31823 -8.448142,-6.51769 -17.052128,-18.81629 -20.399061,-29.15857 -1.058975,-3.27231 -1.6437,-3.74113 -5.386519,-4.31884 -8.495342,-1.31125 -13.697591,-3.65676 -19.137258,-8.62831 -11.502297,-10.51245 -14.188163,-25.37219 -7.080746,-39.17471 l 2.467909,-4.79265 -2.474444,-10.20735 C 47.708354,178.17344 46.763078,168.46805 48.020611,158.25 52.088063,125.20002 75.051264,98.82763 107.62184,89.800174 114.8428,87.798771 117.83578,87.614385 143.5,87.58986 c 23.31628,-0.02228 29.15024,0.263192 34.87632,1.706598 16.27795,4.103273 28.61586,11.353412 40.83517,23.996002 l 7.71149,7.97862 5.34299,-4.88554 C 235.20462,113.69849 261.10159,89.45 289.81481,62.5 321.84701,32.434824 343.84186,12.533938 346.73363,11 353.28931,7.5225413 366.2894,7.3967475 373,10.745837 c 2.89551,1.445075 26.23368,22.660024 65.45485,59.5 67.26266,63.179013 65.96542,61.736453 65.85725,73.234613 -0.13146,13.97351 -9.76349,23.55219 -25.3182,25.17798 L 473,169.28491 v 78.28612 c 0,69.83586 -0.16962,78.45573 -1.57143,79.85754 -1.3786,1.3786 -6.71645,1.57143 -43.5,1.57143 C 404.86786,329 386,329.23996 386,329.53324 c 0,0.29329 1.17431,2.85064 2.60958,5.68301 1.77109,3.49507 2.96147,8.10941 3.70474,14.36085 l 1.09516,9.21108 14.04526,0.42062 c 15.39819,0.46113 18.70058,1.35464 24.80006,6.71005 1.98513,1.74298 4.65241,5.28677 5.92727,7.8751 L 440.5,378.5 v 53.5 53.5 l -2.31793,4.70605 c -2.58877,5.25592 -7.72609,10.2207 -13.10934,12.66905 -3.25469,1.48025 -21.88114,1.6482 -209.23958,1.88662 C 29.328857,504.99905 10.018791,504.87593 8.5831485,503.44029 Z M 54.5,472 V 457.5 H 40 25.5 l -0.280415,13.44955 c -0.154228,7.39725 -0.05109,14.04716 0.2292,14.77758 0.397799,1.03665 3.640817,1.26713 14.780415,1.05045 L 54.5,486.5 Z m 95.59414,-19.5 C 147.0372,434.075 144.29483,419 144,419 c -0.29483,0 -3.0372,15.075 -6.09414,33.5 L 132.34777,486 H 144 155.65223 Z M 342,432 v -6 h -14 -14 v 6 6 h 14 14 z m 32.97804,-79.25 c -0.0251,-7.12772 -2.18019,-12.73839 -6.58492,-17.14312 -6.30798,-6.30798 -7.87726,-6.56296 -40.39312,-6.56296 -26.49535,0 -29.90741,0.18689 -33.5,1.83492 -8.68241,3.98287 -13.44232,11.70691 -13.47804,21.87116 L 281,359 h 47 47 l -0.022,-6.25 z m -110.58082,-8.83264 c 0.35907,-2.24546 1.76658,-6.2805 3.12781,-8.96676 C 268.88626,332.26434 270,329.82653 270,329.53324 270,329.23996 265.53214,329 260.07143,329 c -7.69264,0 -10.28246,-0.35389 -11.5,-1.57143 C 247.16955,326.02669 247,317.38818 247,247.36521 v -78.49193 l -3.25,0.31336 c -3.24734,0.3131 -3.25059,0.31909 -3.97562,7.31336 -0.39909,3.85 -1.80862,11.42699 -3.13229,16.83776 l -2.40668,9.83777 3.11978,6.04912 c 10.4498,20.26176 -2.84353,44.39226 -26.05639,47.29843 -4.90513,0.61411 -5.26868,0.85968 -6.38652,4.31405 -3.3441,10.33397 -11.95111,22.63512 -20.39645,29.15065 -3.52982,2.72325 -5.51583,4.99816 -5.51583,6.31823 0,3.12524 3.13737,14.04505 4.39369,15.29248 0.60847,0.60417 7.40631,2.12552 15.10631,3.38078 26.97745,4.39787 41.8569,11.10644 55.48325,25.01524 4.13421,4.21991 8.02174,7.74747 8.63894,7.83903 0.61721,0.0915 1.41597,-1.67073 1.77503,-3.91618 z m -109.45559,-16.35879 10.4059,-10.44144 -1.34322,-5.59918 c -1.89934,-7.9173 -2.64144,-8.66006 -7.50431,-7.51091 -2.2,0.51989 -7.825,0.94525 -12.5,0.94525 -4.675,0 -10.3,-0.42536 -12.5,-0.94525 -4.86287,-1.14915 -5.60497,-0.40639 -7.50431,7.51091 l -1.34322,5.59918 10.4059,10.44144 C 138.78161,333.30136 143.70535,338 144,338 c 0.29465,0 5.21839,-4.69864 10.94163,-10.44143 z M 156.5,284.81123 c 11.50471,-2.86037 24.16993,-13.60745 29.52693,-25.05508 4.07341,-8.70468 5.15458,-18.4163 4.78493,-42.98061 -0.28846,-19.16937 -0.46193,-20.87272 -2.31186,-22.70037 -1.64153,-1.62176 -4.77814,-2.26348 -17.5,-3.58031 -8.525,-0.88241 -17.525,-2.09379 -20,-2.69195 -6.5097,-1.57325 -15.7874,-6.33405 -21.17941,-10.86809 C 127.24692,174.77067 124.2607,173 123.18455,173 c -3.32837,0 -14.09976,7.97351 -18.31689,13.55906 -7.075952,9.37203 -7.870438,12.83447 -7.847851,34.20167 0.01089,10.3066 0.473232,21.88927 1.027416,25.73927 3.453085,23.98905 25.867995,42.01991 49.452775,39.78049 2.75,-0.26112 6.8,-0.92228 9,-1.46926 z M 131.302,270.8974 C 122.81065,267.63288 110.86239,255.40696 112.35698,251.51212 112.95444,249.95515 124.04947,244 126.35279,244 c 0.77541,0 2.6115,1.57547 4.08021,3.50105 3.49309,4.57967 7.82755,6.72972 13.567,6.72972 5.73945,0 10.07391,-2.15005 13.567,-6.72972 1.46871,-1.92558 3.3048,-3.50105 4.08021,-3.50105 2.30332,0 13.39835,5.95515 13.99581,7.51212 1.52916,3.9849 -10.54051,16.18338 -19.2289,19.43413 -7.25164,2.71318 -17.98209,2.69231 -25.11212,-0.0489 z M 113.63636,222.36364 C 107.90515,216.63242 111.89491,207 120,207 c 2.69383,0 4.45824,0.73097 6.36364,2.63636 C 132.09485,215.36758 128.10509,225 120,225 c -2.69383,0 -4.45824,-0.73097 -6.36364,-2.63636 z m 48,0 C 155.90515,216.63242 159.89491,207 168,207 c 2.69383,0 4.45824,0.73097 6.36364,2.63636 C 176.26903,211.54176 177,213.30617 177,216 c 0,2.69383 -0.73097,4.45824 -2.63636,6.36364 C 172.45824,224.26903 170.69383,225 168,225 c -2.69383,0 -4.45824,-0.73097 -6.36364,-2.63636 z M 79,224 c 0,-15.63247 -0.205338,-16.0014 -6.701451,-12.04048 -5.91624,3.60734 -8.291729,12.12098 -5.184913,18.58249 C 68.674532,233.78833 74.341062,238 77.147883,238 78.86251,238 79,236.96072 79,224 Z m 137.58004,12.11432 C 220.16038,233.93103 223,228.57274 223,224 c 0,-6.89255 -5.95555,-13.98664 -11.75,-13.99626 -2.22637,-0.004 -2.25,0.1433 -2.25,13.99626 0,13.85296 0.0236,13.99996 2.25,13.99626 1.2375,-0.002 3.63602,-0.84893 5.33004,-1.88194 z"
         id="path931" />
      <path
         style="fill:#d09d6f"
         d="M 8.5831485,503.44029 C 7.180581,502.03772 7,496.07353 7,451.15234 7,422.81375 7.4508337,396.7097 8.0220519,391.97377 10.586084,370.71554 19.27692,353.47117 34.812897,338.81531 48.727833,325.68867 62.498212,319.60548 87.81262,315.4022 c 8.628059,-1.43263 16.18522,-3.1217 16.79369,-3.75349 1.26348,-1.3119 4.39369,-12.24256 4.39369,-15.3427 0,-1.32007 -1.98601,-3.59498 -5.51583,-6.31823 -8.448142,-6.51769 -17.052128,-18.81629 -20.399061,-29.15857 -1.058975,-3.27231 -1.6437,-3.74113 -5.386519,-4.31884 -8.495342,-1.31125 -13.697591,-3.65676 -19.137258,-8.62831 -11.502297,-10.51245 -14.188163,-25.37219 -7.080746,-39.17471 l 2.467909,-4.79265 -2.474444,-10.20735 C 47.708354,178.17344 46.763078,168.46805 48.020611,158.25 52.088063,125.20002 75.051264,98.82763 107.62184,89.800174 114.8428,87.798771 117.83578,87.614385 143.5,87.58986 c 23.31628,-0.02228 29.15024,0.263192 34.87632,1.706598 16.27795,4.103273 28.61586,11.353412 40.83517,23.996002 l 7.71149,7.97862 5.34299,-4.88554 C 235.20462,113.69849 261.10159,89.45 289.81481,62.5 321.84701,32.434824 343.84186,12.533938 346.73363,11 353.28931,7.5225413 366.2894,7.3967475 373,10.745837 c 2.89551,1.445075 26.23368,22.660024 65.45485,59.5 67.26266,63.179013 65.96542,61.736453 65.85725,73.234613 -0.13146,13.97351 -9.76349,23.55219 -25.3182,25.17798 L 473,169.28491 v 78.28612 c 0,69.83586 -0.16962,78.45573 -1.57143,79.85754 -1.3786,1.3786 -6.71645,1.57143 -43.5,1.57143 C 404.86786,329 386,329.23996 386,329.53324 c 0,0.29329 1.17431,2.85064 2.60958,5.68301 1.77109,3.49507 2.96147,8.10941 3.70474,14.36085 l 1.09516,9.21108 14.04526,0.42062 c 15.39819,0.46113 18.70058,1.35464 24.80006,6.71005 1.98513,1.74298 4.65241,5.28677 5.92727,7.8751 L 440.5,378.5 v 53.5 53.5 l -2.31793,4.70605 c -2.58877,5.25592 -7.72609,10.2207 -13.10934,12.66905 -3.25469,1.48025 -21.88114,1.6482 -209.23958,1.88662 C 29.328857,504.99905 10.018791,504.87593 8.5831485,503.44029 Z M 54.5,472 V 457.5 H 40 25.5 l -0.280415,13.44955 c -0.154228,7.39725 -0.05109,14.04716 0.2292,14.77758 0.397799,1.03665 3.640817,1.26713 14.780415,1.05045 L 54.5,486.5 Z m 57.90902,14.14721 c 0.28988,-0.46903 3.66672,-19.6508 7.5041,-42.62615 l 6.97706,-41.77336 -5.45345,-10.87385 C 118.43734,384.89323 115.67573,380 115.29981,380 c -0.37591,0 -3.71332,1.8 -7.41647,4 -3.70315,2.2 -7.22647,4 -7.82961,4 -1.659162,0 -2.525378,-2.49133 -10.042639,-28.88369 -3.819825,-13.41103 -7.160687,-24.59924 -7.424137,-24.86269 -0.861466,-0.86147 -10.948163,1.9509 -17.433288,4.86074 -19.118373,8.57831 -32.972563,25.12772 -38.223823,45.65995 C 25.294035,391.17026 25,395.87607 25,415.65996 V 439 h 15 15 v -22.8 c 0,-16.4 0.336842,-23.13684 1.2,-24 0.690909,-0.69091 4,-1.2 7.8,-1.2 3.8,0 7.109091,0.50909 7.8,1.2 0.899145,0.89915 1.2,12.93333 1.2,48 V 487 h 19.440983 c 10.692537,0 19.678157,-0.38375 19.968037,-0.85279 z M 215.5,432.25 c 0,-54.2205 0.0209,-54.78868 2.16237,-58.75 4.7146,-8.72116 11.9936,-13.33601 22.41264,-14.20951 3.80875,-0.31931 6.92499,-0.78333 6.92499,-1.03116 0,-0.24782 -0.90749,-1.72504 -2.01665,-3.28271 -3.0222,-4.2443 -13.58033,-11.86327 -21.48335,-15.50285 -6.92977,-3.19137 -17.16244,-6.14466 -18.08695,-5.22015 -0.26345,0.26345 -3.60432,11.45166 -7.42414,24.86269 C 190.64355,384.90516 189.58743,388 188.13233,388 c -0.5008,0 -3.99081,-1.8 -7.75557,-4 -3.76476,-2.2 -7.1859,-4 -7.60254,-4 -0.41663,0 -3.21156,4.89323 -6.21095,10.87385 l -5.45345,10.87385 6.97706,41.77336 c 3.83738,22.97535 7.21422,42.15712 7.5041,42.62615 0.28988,0.46904 9.388,0.85279 20.21804,0.85279 H 215.5 Z M 150.09414,452.5 C 147.0372,434.075 144.29483,419 144,419 c -0.29483,0 -3.0372,15.075 -6.09414,33.5 L 132.34777,486 H 144 155.65223 Z M 342,432 v -6 h -14 -14 v 6 6 h 14 14 z M 128.94901,350.35644 c 0.24696,-0.23162 -4.02804,-4.93873 -9.5,-10.46024 -9.69319,-9.78097 -10.04756,-10.02658 -13.7816,-9.55173 -2.10792,0.26805 -4.08553,0.74032 -4.39469,1.04948 -0.58838,0.58837 6.30086,25.84236 7.86309,28.82385 0.79798,1.52292 1.94742,1.08488 10.13214,-3.86121 5.07763,-3.06846 9.43411,-5.76852 9.68106,-6.00015 z m 54.47812,-4.79295 c 2.11452,-7.49381 3.5956,-13.87409 3.29131,-14.17838 -0.3043,-0.3043 -2.27793,-0.77259 -4.38585,-1.04064 -3.73697,-0.47522 -4.08209,-0.23485 -13.83259,9.63405 -7.96672,8.06345 -9.69501,10.306 -8.5,11.02922 0.825,0.49929 5.1,3.12081 9.5,5.82559 6.26775,3.85294 8.22547,4.64036 9.04128,3.63654 0.57271,-0.70469 2.77134,-7.41256 4.88585,-14.90638 z M 374.97804,352.75 c -0.0251,-7.12772 -2.18019,-12.73839 -6.58492,-17.14312 -6.30798,-6.30798 -7.87726,-6.56296 -40.39312,-6.56296 -26.49535,0 -29.90741,0.18689 -33.5,1.83492 -8.68241,3.98287 -13.44232,11.70691 -13.47804,21.87116 L 281,359 h 47 47 l -0.022,-6.25 z m -110.58082,-8.83264 c 0.35907,-2.24546 1.76658,-6.2805 3.12781,-8.96676 C 268.88626,332.26434 270,329.82653 270,329.53324 270,329.23996 265.53214,329 260.07143,329 c -7.69264,0 -10.28246,-0.35389 -11.5,-1.57143 C 247.16955,326.02669 247,317.38818 247,247.36521 v -78.49193 l -3.25,0.31336 c -3.24734,0.3131 -3.25059,0.31909 -3.97562,7.31336 -0.39909,3.85 -1.80862,11.42699 -3.13229,16.83776 l -2.40668,9.83777 3.11978,6.04912 c 10.4498,20.26176 -2.84353,44.39226 -26.05639,47.29843 -4.90513,0.61411 -5.26868,0.85968 -6.38652,4.31405 -3.3441,10.33397 -11.95111,22.63512 -20.39645,29.15065 -3.52982,2.72325 -5.51583,4.99816 -5.51583,6.31823 0,3.12524 3.13737,14.04505 4.39369,15.29248 0.60847,0.60417 7.40631,2.12552 15.10631,3.38078 26.97745,4.39787 41.8569,11.10644 55.48325,25.01524 4.13421,4.21991 8.02174,7.74747 8.63894,7.83903 0.61721,0.0915 1.41597,-1.67073 1.77503,-3.91618 z m -109.45559,-16.35879 10.4059,-10.44144 -1.34322,-5.59918 c -1.89934,-7.9173 -2.64144,-8.66006 -7.50431,-7.51091 -2.2,0.51989 -7.825,0.94525 -12.5,0.94525 -4.675,0 -10.3,-0.42536 -12.5,-0.94525 -4.86287,-1.14915 -5.60497,-0.40639 -7.50431,7.51091 l -1.34322,5.59918 10.4059,10.44144 C 138.78161,333.30136 143.70535,338 144,338 c 0.29465,0 5.21839,-4.69864 10.94163,-10.44143 z M 156.5,284.81123 c 11.50471,-2.86037 24.16993,-13.60745 29.52693,-25.05508 4.07341,-8.70468 5.15458,-18.4163 4.78493,-42.98061 -0.28846,-19.16937 -0.46193,-20.87272 -2.31186,-22.70037 -1.64153,-1.62176 -4.77814,-2.26348 -17.5,-3.58031 -8.525,-0.88241 -17.525,-2.09379 -20,-2.69195 -6.5097,-1.57325 -15.7874,-6.33405 -21.17941,-10.86809 C 127.24692,174.77067 124.2607,173 123.18455,173 c -3.32837,0 -14.09976,7.97351 -18.31689,13.55906 -7.075952,9.37203 -7.870438,12.83447 -7.847851,34.20167 0.01089,10.3066 0.473232,21.88927 1.027416,25.73927 3.453085,23.98905 25.867995,42.01991 49.452775,39.78049 2.75,-0.26112 6.8,-0.92228 9,-1.46926 z M 131.302,270.8974 C 122.81065,267.63288 110.86239,255.40696 112.35698,251.51212 112.95444,249.95515 124.04947,244 126.35279,244 c 0.77541,0 2.6115,1.57547 4.08021,3.50105 3.49309,4.57967 7.82755,6.72972 13.567,6.72972 5.73945,0 10.07391,-2.15005 13.567,-6.72972 1.46871,-1.92558 3.3048,-3.50105 4.08021,-3.50105 2.30332,0 13.39835,5.95515 13.99581,7.51212 1.52916,3.9849 -10.54051,16.18338 -19.2289,19.43413 -7.25164,2.71318 -17.98209,2.69231 -25.11212,-0.0489 z M 113.63636,222.36364 C 107.90515,216.63242 111.89491,207 120,207 c 2.69383,0 4.45824,0.73097 6.36364,2.63636 C 132.09485,215.36758 128.10509,225 120,225 c -2.69383,0 -4.45824,-0.73097 -6.36364,-2.63636 z m 48,0 C 155.90515,216.63242 159.89491,207 168,207 c 2.69383,0 4.45824,0.73097 6.36364,2.63636 C 176.26903,211.54176 177,213.30617 177,216 c 0,2.69383 -0.73097,4.45824 -2.63636,6.36364 C 172.45824,224.26903 170.69383,225 168,225 c -2.69383,0 -4.45824,-0.73097 -6.36364,-2.63636 z M 79,224 c 0,-15.63247 -0.205338,-16.0014 -6.701451,-12.04048 -5.91624,3.60734 -8.291729,12.12098 -5.184913,18.58249 C 68.674532,233.78833 74.341062,238 77.147883,238 78.86251,238 79,236.96072 79,224 Z m 137.58004,12.11432 C 220.16038,233.93103 223,228.57274 223,224 c 0,-6.89255 -5.95555,-13.98664 -11.75,-13.99626 -2.22637,-0.004 -2.25,0.1433 -2.25,13.99626 0,13.85296 0.0236,13.99996 2.25,13.99626 1.2375,-0.002 3.63602,-0.84893 5.33004,-1.88194 z"
         id="path929" />
      <path
         style="fill:#9ed266"
         d="M 8.4255017,502.66646 C 8.1410773,501.92526 8.0581856,475.25959 8.2412978,443.40941 8.566689,386.8115 8.6248326,385.33433 10.808634,378.185 c 6.907267,-22.61302 22.028015,-41.23243 42.267035,-52.04685 9.697607,-5.18177 17.809736,-7.57332 36.269197,-10.69258 8.335324,-1.40849 15.450644,-2.87244 15.811824,-3.25323 0.36118,-0.38079 1.6665,-4.47347 2.9007,-9.09485 l 2.24401,-8.4025 -2.9007,-2.00605 c -1.59538,-1.10332 -5.90978,-5.07133 -9.587551,-8.8178 -5.020906,-5.1147 -7.726756,-8.99911 -10.860877,-15.59145 C 84.656557,263.45086 82.442679,258.825 82.032542,258 81.589183,257.10817 79.192489,256.23911 76.121312,255.85653 54.182596,253.12365 41.535378,229.28227 51.53751,209.51341 l 2.846878,-5.62676 -2.890116,-11.69332 c -7.934262,-32.10179 -1.657107,-58.75527 18.851162,-80.04408 11.013919,-11.4331 25.428488,-19.393152 40.862406,-22.565133 10.95539,-2.251554 54.62893,-2.251554 65.58432,0 16.3927,3.36903 30.50479,11.458333 42.39639,24.302353 3.62232,3.91244 7.09765,7.11353 7.72295,7.11353 0.6253,0 27.11351,-24.372722 58.8627,-54.161604 C 326.08744,29.014241 344.85739,12.053083 348,10.609083 c 6.24337,-2.868773 17.7677,-2.8659493 24,0.0059 5.60487,2.582713 125.31571,114.452457 128.84361,120.404307 3.25414,5.49001 3.98741,14.51621 1.67184,20.57945 C 498.72702,161.51857 491.0163,166.9896 479.5,167.929 l -7,0.571 -0.5,79.5 -0.5,79.5 -42.75,0.26074 c -41.47833,0.25298 -42.75,0.31815 -42.75,2.19098 0,1.06164 0.41559,2.1871 0.92354,2.50103 1.8248,1.12778 4.48142,11.20041 5.02365,19.04725 l 0.55281,8 15.58369,0.5 c 15.20245,0.48777 15.70331,0.57404 20.47356,3.52644 3.02596,1.87282 6.04349,4.89236 7.91631,7.92158 L 439.5,376.34316 V 432 487.65684 l -3.02644,4.89514 c -1.87582,3.03407 -4.88747,6.04576 -7.92149,7.92158 L 423.65701,503.5 216.29983,503.75704 C 43.14825,503.97169 8.8573303,503.79178 8.4255017,502.66646 Z M 54.8,486.8 c 1.669242,-1.66924 1.669242,-27.93076 0,-29.6 -1.669242,-1.66924 -27.930758,-1.66924 -29.6,0 -1.669242,1.66924 -1.669242,27.93076 0,29.6 1.669242,1.66924 27.930758,1.66924 29.6,0 z m 57.60902,-0.65279 c 0.28988,-0.46903 3.66672,-19.6508 7.5041,-42.62615 l 6.97706,-41.77336 -5.45345,-10.87385 C 118.43734,384.89323 115.67573,380 115.29981,380 c -0.37591,0 -3.71332,1.8 -7.41647,4 -3.70315,2.2 -7.22647,4 -7.82961,4 -1.659162,0 -2.525378,-2.49133 -10.042639,-28.88369 -3.819825,-13.41103 -7.160687,-24.59924 -7.424137,-24.86269 -0.861466,-0.86147 -10.948163,1.9509 -17.433288,4.86074 -19.118373,8.57831 -32.972563,25.12772 -38.223823,45.65995 C 25.294035,391.17026 25,395.87607 25,415.65996 V 439 h 15 15 v -22.8 c 0,-16.4 0.336842,-23.13684 1.2,-24 0.690909,-0.69091 4,-1.2 7.8,-1.2 3.8,0 7.109091,0.50909 7.8,1.2 0.899145,0.89915 1.2,12.93333 1.2,48 V 487 h 19.440983 c 10.692537,0 19.678157,-0.38375 19.968037,-0.85279 z m 44.76152,0.34892 c 0.59094,-0.59095 -11.78651,-75.44543 -12.6116,-76.27053 -0.30742,-0.30741 -0.81046,-0.30741 -1.11788,0 -0.82509,0.8251 -13.20254,75.67958 -12.6116,76.27053 C 131.10659,486.77326 137.03333,487 144,487 c 6.96667,0 12.89341,-0.22674 13.17054,-0.50387 z M 215.5,432.25 c 0,-54.2205 0.0209,-54.78868 2.16237,-58.75 4.7146,-8.72116 11.9936,-13.33601 22.41264,-14.20951 3.80875,-0.31931 6.92499,-0.78333 6.92499,-1.03116 0,-0.24782 -0.90749,-1.72504 -2.01665,-3.28271 -3.0222,-4.2443 -13.58033,-11.86327 -21.48335,-15.50285 -6.92977,-3.19137 -17.16244,-6.14466 -18.08695,-5.22015 -0.26345,0.26345 -3.60432,11.45166 -7.42414,24.86269 C 190.64355,384.90516 189.58743,388 188.13233,388 c -0.5008,0 -3.99081,-1.8 -7.75557,-4 -3.76476,-2.2 -7.1859,-4 -7.60254,-4 -0.41663,0 -3.21156,4.89323 -6.21095,10.87385 l -5.45345,10.87385 6.97706,41.77336 c 3.83738,22.97535 7.21422,42.15712 7.5041,42.62615 0.28988,0.46904 9.388,0.85279 20.21804,0.85279 H 215.5 Z M 420.54545,484.54545 423,482.09091 V 454.54545 C 423,439.39545 422.63743,427 422.19428,427 c -0.44315,0 -2.35565,1.16105 -4.25,2.58011 -11.30514,8.46869 -22.18586,11.37751 -42.65222,11.40253 L 361.08413,441 360.79206,448.75 360.5,456.5 H 328 295.5 l -0.29206,-7.75 -0.29207,-7.75 H 281.1416 c -7.57586,0 -16.44443,-0.49119 -19.70794,-1.09153 -6.60118,-1.21432 -18.0988,-6.27473 -23.37794,-10.28926 C 236.16137,428.17864 234.24887,427 233.80572,427 233.36257,427 233,439.39545 233,454.54545 v 27.54546 l 2.45455,2.45454 L 237.90909,487 H 328 418.09091 Z M 343,432 v -7 h -15 -15 v 7 7 h 15 15 z M 295.20794,415.25 295.5,407.5 h 32.5 32.5 l 0.29363,7.83708 0.29363,7.83707 15.70637,-0.43415 c 8.6385,-0.23879 17.36045,-0.96489 19.38209,-1.61357 6.8525,-2.19874 15.48353,-8.86396 19.74817,-15.25032 4.3775,-6.55535 5.85119,-10.60191 6.75214,-18.5405 0.52526,-4.62828 0.31769,-5.4328 -1.99951,-7.75 L 418.09091,377 H 328 237.90909 l -2.58561,2.58561 c -2.3172,2.3172 -2.52477,3.12172 -1.99951,7.75 0.89909,7.92222 2.37334,11.9832 6.70516,18.47015 4.6797,7.00791 12.1112,12.50038 20.56796,15.20137 4.59228,1.46672 9.05752,1.89726 20.11085,1.93909 l 14.20793,0.0538 0.29207,-7.75 z M 151.27431,381.48678 C 153.87344,376.2545 156,371.40964 156,370.72041 156,369.40424 146.04575,363 144,363 c -2.04575,0 -12,6.40424 -12,7.72041 0,0.68923 2.12656,5.53409 4.72569,10.76637 C 140.84524,389.77982 141.77826,391 144,391 c 2.22174,0 3.15476,-1.22018 7.27431,-9.51322 z m -22.3253,-31.13034 c 0.24696,-0.23162 -4.02804,-4.93873 -9.5,-10.46024 -9.69319,-9.78097 -10.04756,-10.02658 -13.7816,-9.55173 -2.10792,0.26805 -4.08553,0.74032 -4.39469,1.04948 -0.58838,0.58837 6.30086,25.84236 7.86309,28.82385 0.79798,1.52292 1.94742,1.08488 10.13214,-3.86121 5.07763,-3.06846 9.43411,-5.76852 9.68106,-6.00015 z m 54.47812,-4.79295 c 2.11452,-7.49381 3.5956,-13.87409 3.29131,-14.17838 -0.3043,-0.3043 -2.27793,-0.77259 -4.38585,-1.04064 -3.73697,-0.47522 -4.08209,-0.23485 -13.83259,9.63405 -7.96672,8.06345 -9.69501,10.306 -8.5,11.02922 0.825,0.49929 5.1,3.12081 9.5,5.82559 6.26775,3.85294 8.22547,4.64036 9.04128,3.63654 0.57271,-0.70469 2.77134,-7.41256 4.88585,-14.90638 z m 191.94744,6.87774 C 375.1965,342.42018 370.93164,335.15002 362.62421,330.70615 358.63021,328.56965 357.53706,328.5 328,328.5 c -27.84082,0 -30.80515,0.16253 -34,1.86416 -8.26502,4.40209 -12.65132,11.00646 -13.64891,20.55089 -1.047,10.01718 -5.79636,9.13968 47.87129,8.84476 L 375.5,359.5 Z m -110.49021,-8.81508 c 0.66143,-2.95562 2.08304,-7.10077 3.15913,-9.21144 3.19046,-6.25791 3.11272,-6.31652 -8.79349,-6.63088 L 248.5,327.5 248,248 247.5,168.5 h -3.5 -3.5 l -0.70738,6.5 c -0.38907,3.575 -1.90827,11.35842 -3.37602,17.2965 l -2.66863,10.79649 3.36286,6.62536 c 2.94927,5.81053 3.36012,7.55737 3.34064,14.2035 -0.0177,6.0336 -0.55539,8.73081 -2.6382,13.23353 -4.75707,10.28409 -14.25084,17.21221 -25.54522,18.64174 -3.37132,0.42671 -5.84656,1.29224 -6.29977,2.20288 -0.41059,0.825 -2.62484,5.45086 -4.92055,10.27969 -3.13412,6.59234 -5.83997,10.47675 -10.86088,15.59145 -3.67777,3.74647 -7.99217,7.71448 -9.58755,8.8178 l -2.9007,2.00605 2.24401,8.4025 c 1.2342,4.62138 2.53952,8.71406 2.9007,9.09485 0.36118,0.38079 7.4765,1.84474 15.81182,3.25323 8.33533,1.4085 18.23533,3.49793 22,4.6432 13.48554,4.10248 30.29344,15.04192 38.16957,24.84272 1.79825,2.23768 3.62673,4.06851 4.06329,4.06851 0.43656,0 1.33493,-2.41823 1.99637,-5.37385 z M 155.8101,328.64497 c 6.04382,-6.14176 10.15734,-11.12606 10.10988,-12.25 -0.044,-1.04223 -0.84139,-4.59497 -1.77194,-7.89497 l -1.69192,-6 -3.47806,0.5 c -1.91293,0.275 -8.65306,0.5 -14.97806,0.5 -6.325,0 -13.06513,-0.225 -14.97806,-0.5 l -3.47806,-0.5 -1.69192,6 c -0.93055,3.3 -1.72792,6.85274 -1.77194,7.89497 C 121.98255,318.70327 141.66418,339 144,339 c 0.89111,0 6.20566,-4.65976 11.8101,-10.35503 z m -2.57706,-42.16472 c 6.95344,-0.87811 18.11139,-6.86815 24.27512,-13.03189 7.08204,-7.08204 12.20198,-17.51392 13.4716,-27.44836 1.30317,-10.19707 1.28332,-45.94688 -0.0276,-49.7074 -0.57632,-1.65322 -2.03882,-3.51205 -3.25,-4.13073 -1.21119,-0.61869 -9.17716,-1.82855 -17.70216,-2.68857 -8.525,-0.86003 -17.28865,-2.03793 -19.47477,-2.61756 -5.79218,-1.53575 -14.38024,-6.09264 -20.29772,-10.77014 -2.84277,-2.24708 -6.01215,-4.0856 -7.04306,-4.0856 -2.90158,0 -13.33165,7.18576 -17.50213,12.05804 -2.06255,2.40962 -4.97234,6.86982 -6.466204,9.91154 -2.603703,5.30153 -2.729735,6.28469 -3.045186,23.75512 -0.180989,10.02359 0.149339,22.17359 0.734061,27 2.043885,16.87062 11.472879,30.39899 26.292239,37.72311 7.11516,3.51651 16.87291,5.62395 22.80277,4.92487 1.375,-0.1621 4.62987,-0.56369 7.23304,-0.89243 z m -21.87649,-16.5625 C 123.65951,266.95768 113,256.63796 113,252.14636 113,250.94731 124.05466,245 126.28342,245 c 0.73726,0 2.35845,1.3769 3.60266,3.05978 3.56597,4.82324 7.86057,6.93274 14.11392,6.93274 6.25335,0 10.54795,-2.1095 14.11392,-6.93274 C 159.35813,246.3769 160.97932,245 161.71658,245 163.94534,245 175,250.94731 175,252.14636 c 0,4.6008 -10.73329,14.86186 -18.64042,17.82029 -7.17099,2.68301 -17.95413,2.66193 -25.00303,-0.0489 z m -17.18224,-48.2322 C 109.20816,216.39932 112.8696,208 120.14014,208 c 4.61565,0 7.85986,3.35989 7.85986,8.14014 0,7.10029 -8.98088,10.70247 -13.82569,5.54541 z m 48,0 C 157.20816,216.39932 160.8696,208 168.14014,208 c 4.61565,0 7.85986,3.35989 7.85986,8.14014 0,7.10029 -8.98088,10.70247 -13.82569,5.54541 z M 79.5,224 v -14.5 l -3.396741,0.16341 c -2.436291,0.1172 -4.415587,1.18225 -7,3.76666 C 65.660084,216.87325 65.5,217.34067 65.5,223.951 c 0,6.31529 0.261237,7.19368 3,10.08724 3.383893,3.57515 6.070155,4.96819 9,4.66722 1.8986,-0.19504 2,-0.94061 2,-14.70546 z m 137.60212,12.73007 c 9.06333,-6.0547 9.02783,-19.42851 -0.0677,-25.50576 -1.93269,-1.29134 -4.5866,-2.18479 -6,-2.01993 L 208.5,209.5 l -0.28041,13.44955 c -0.15423,7.39725 -0.0559,14.03475 0.21861,14.75 0.76972,2.00585 4.90234,1.54342 8.66392,-0.96948 z"
         id="path927" />
      <path
         style="fill:#6c8f45"
         d="M 8.4255017,502.66646 C 8.1410773,501.92526 8.0581856,475.25959 8.2412978,443.40941 8.566689,386.8115 8.6248326,385.33433 10.808634,378.185 c 6.907267,-22.61302 22.028015,-41.23243 42.267035,-52.04685 9.697607,-5.18177 17.809736,-7.57332 36.269197,-10.69258 8.335324,-1.40849 15.450644,-2.87244 15.811824,-3.25323 0.36118,-0.38079 1.6665,-4.47347 2.9007,-9.09485 l 2.24401,-8.4025 -2.9007,-2.00605 c -1.59538,-1.10332 -5.90978,-5.07133 -9.587551,-8.8178 -5.020906,-5.1147 -7.726756,-8.99911 -10.860877,-15.59145 C 84.656557,263.45086 82.442679,258.825 82.032542,258 81.589183,257.10817 79.192489,256.23911 76.121312,255.85653 54.182596,253.12365 41.535378,229.28227 51.53751,209.51341 l 2.846878,-5.62676 -2.890116,-11.69332 c -7.934262,-32.10179 -1.657107,-58.75527 18.851162,-80.04408 11.013919,-11.4331 25.428488,-19.393152 40.862406,-22.565133 10.95539,-2.251554 54.62893,-2.251554 65.58432,0 16.3927,3.36903 30.50479,11.458333 42.39639,24.302353 3.62232,3.91244 7.09765,7.11353 7.72295,7.11353 0.6253,0 27.11351,-24.372722 58.8627,-54.161604 C 326.08744,29.014241 344.85739,12.053083 348,10.609083 c 6.24337,-2.868773 17.7677,-2.8659493 24,0.0059 5.60487,2.582713 125.31571,114.452457 128.84361,120.404307 3.25414,5.49001 3.98741,14.51621 1.67184,20.57945 C 498.72702,161.51857 491.0163,166.9896 479.5,167.929 l -7,0.571 -0.5,79.5 -0.5,79.5 -42.75,0.26074 c -41.47833,0.25298 -42.75,0.31815 -42.75,2.19098 0,1.06164 0.41559,2.1871 0.92354,2.50103 1.8248,1.12778 4.48142,11.20041 5.02365,19.04725 l 0.55281,8 15.58369,0.5 c 15.20245,0.48777 15.70331,0.57404 20.47356,3.52644 3.02596,1.87282 6.04349,4.89236 7.91631,7.92158 L 439.5,376.34316 V 432 487.65684 l -3.02644,4.89514 c -1.87582,3.03407 -4.88747,6.04576 -7.92149,7.92158 L 423.65701,503.5 216.29983,503.75704 C 43.14825,503.97169 8.8573303,503.79178 8.4255017,502.66646 Z M 54.8,486.8 c 1.669242,-1.66924 1.669242,-27.93076 0,-29.6 -1.669242,-1.66924 -27.930758,-1.66924 -29.6,0 -1.669242,1.66924 -1.669242,27.93076 0,29.6 1.669242,1.66924 27.930758,1.66924 29.6,0 z m 57.60902,-0.65279 c 0.28988,-0.46903 3.66672,-19.6508 7.5041,-42.62615 l 6.97706,-41.77336 -5.45345,-10.87385 C 118.43734,384.89323 115.67573,380 115.29981,380 c -0.37591,0 -3.71332,1.8 -7.41647,4 -3.70315,2.2 -7.22647,4 -7.82961,4 -1.659162,0 -2.525378,-2.49133 -10.042639,-28.88369 -3.819825,-13.41103 -7.160687,-24.59924 -7.424137,-24.86269 -0.861466,-0.86147 -10.948163,1.9509 -17.433288,4.86074 -19.118373,8.57831 -32.972563,25.12772 -38.223823,45.65995 C 25.294035,391.17026 25,395.87607 25,415.65996 V 439 h 15 15 v -22.8 c 0,-16.4 0.336842,-23.13684 1.2,-24 0.690909,-0.69091 4,-1.2 7.8,-1.2 3.8,0 7.109091,0.50909 7.8,1.2 0.899145,0.89915 1.2,12.93333 1.2,48 V 487 h 19.440983 c 10.692537,0 19.678157,-0.38375 19.968037,-0.85279 z m 44.76152,0.34892 c 0.59094,-0.59095 -11.78651,-75.44543 -12.6116,-76.27053 -0.30742,-0.30741 -0.81046,-0.30741 -1.11788,0 -0.82509,0.8251 -13.20254,75.67958 -12.6116,76.27053 C 131.10659,486.77326 137.03333,487 144,487 c 6.96667,0 12.89341,-0.22674 13.17054,-0.50387 z M 215.5,432.25 c 0,-54.2205 0.0209,-54.78868 2.16237,-58.75 4.7146,-8.72116 11.9936,-13.33601 22.41264,-14.20951 3.80875,-0.31931 6.92499,-0.78333 6.92499,-1.03116 0,-0.24782 -0.90749,-1.72504 -2.01665,-3.28271 -3.0222,-4.2443 -13.58033,-11.86327 -21.48335,-15.50285 -6.92977,-3.19137 -17.16244,-6.14466 -18.08695,-5.22015 -0.26345,0.26345 -3.60432,11.45166 -7.42414,24.86269 C 190.64355,384.90516 189.58743,388 188.13233,388 c -0.5008,0 -3.99081,-1.8 -7.75557,-4 -3.76476,-2.2 -7.1859,-4 -7.60254,-4 -0.41663,0 -3.21156,4.89323 -6.21095,10.87385 l -5.45345,10.87385 6.97706,41.77336 c 3.83738,22.97535 7.21422,42.15712 7.5041,42.62615 0.28988,0.46904 9.388,0.85279 20.21804,0.85279 H 215.5 Z M 420.54545,484.54545 423,482.09091 V 454.54545 C 423,439.39545 422.63743,427 422.19428,427 c -0.44315,0 -2.35565,1.16105 -4.25,2.58011 -11.30514,8.46869 -22.18586,11.37751 -42.65222,11.40253 L 361.08413,441 360.79206,448.75 360.5,456.5 H 328 295.5 l -0.29206,-7.75 -0.29207,-7.75 H 281.1416 c -7.57586,0 -16.44443,-0.49119 -19.70794,-1.09153 -6.60118,-1.21432 -18.0988,-6.27473 -23.37794,-10.28926 C 236.16137,428.17864 234.24887,427 233.80572,427 233.36257,427 233,439.39545 233,454.54545 v 27.54546 l 2.45455,2.45454 L 237.90909,487 H 328 418.09091 Z M 343,432 v -7 h -15 -15 v 7 7 h 15 15 z M 295.20794,415.25 295.5,407.5 h 32.5 32.5 l 0.29363,7.83708 0.29363,7.83707 15.70637,-0.43415 c 8.6385,-0.23879 17.36045,-0.96489 19.38209,-1.61357 6.8525,-2.19874 15.48353,-8.86396 19.74817,-15.25032 4.3775,-6.55535 5.85119,-10.60191 6.75214,-18.5405 0.52526,-4.62828 0.31769,-5.4328 -1.99951,-7.75 L 418.09091,377 H 328 237.90909 l -2.58561,2.58561 c -2.3172,2.3172 -2.52477,3.12172 -1.99951,7.75 0.89909,7.92222 2.37334,11.9832 6.70516,18.47015 4.6797,7.00791 12.1112,12.50038 20.56796,15.20137 4.59228,1.46672 9.05752,1.89726 20.11085,1.93909 l 14.20793,0.0538 0.29207,-7.75 z M 151.27431,381.48678 C 153.87344,376.2545 156,371.40964 156,370.72041 156,369.40424 146.04575,363 144,363 c -2.04575,0 -12,6.40424 -12,7.72041 0,0.68923 2.12656,5.53409 4.72569,10.76637 C 140.84524,389.77982 141.77826,391 144,391 c 2.22174,0 3.15476,-1.22018 7.27431,-9.51322 z m -22.3253,-31.13034 c 0.24696,-0.23162 -4.02804,-4.93873 -9.5,-10.46024 -9.69319,-9.78097 -10.04756,-10.02658 -13.7816,-9.55173 -2.10792,0.26805 -4.08553,0.74032 -4.39469,1.04948 -0.58838,0.58837 6.30086,25.84236 7.86309,28.82385 0.79798,1.52292 1.94742,1.08488 10.13214,-3.86121 5.07763,-3.06846 9.43411,-5.76852 9.68106,-6.00015 z m 54.47812,-4.79295 c 2.11452,-7.49381 3.5956,-13.87409 3.29131,-14.17838 -0.3043,-0.3043 -2.27793,-0.77259 -4.38585,-1.04064 -3.73697,-0.47522 -4.08209,-0.23485 -13.83259,9.63405 -7.96672,8.06345 -9.69501,10.306 -8.5,11.02922 0.825,0.49929 5.1,3.12081 9.5,5.82559 6.26775,3.85294 8.22547,4.64036 9.04128,3.63654 0.57271,-0.70469 2.77134,-7.41256 4.88585,-14.90638 z m 191.94744,6.87774 C 375.1965,342.42018 370.93164,335.15002 362.62421,330.70615 358.63021,328.56965 357.53706,328.5 328,328.5 c -27.84082,0 -30.80515,0.16253 -34,1.86416 -8.26502,4.40209 -12.65132,11.00646 -13.64891,20.55089 -1.047,10.01718 -5.79636,9.13968 47.87129,8.84476 L 375.5,359.5 Z m -110.49021,-8.81508 c 0.66143,-2.95562 2.08304,-7.10077 3.15913,-9.21144 3.19046,-6.25791 3.11272,-6.31652 -8.79349,-6.63088 L 248.5,327.5 248,248 247.5,168.5 h -3.5 -3.5 l -0.70738,6.5 c -0.38907,3.575 -1.90827,11.35842 -3.37602,17.2965 l -2.66863,10.79649 3.36286,6.62536 c 2.94927,5.81053 3.36012,7.55737 3.34064,14.2035 -0.0177,6.0336 -0.55539,8.73081 -2.6382,13.23353 -4.75707,10.28409 -14.25084,17.21221 -25.54522,18.64174 -3.37132,0.42671 -5.84656,1.29224 -6.29977,2.20288 -0.41059,0.825 -2.62484,5.45086 -4.92055,10.27969 -3.13412,6.59234 -5.83997,10.47675 -10.86088,15.59145 -3.67777,3.74647 -7.99217,7.71448 -9.58755,8.8178 l -2.9007,2.00605 2.24401,8.4025 c 1.2342,4.62138 2.53952,8.71406 2.9007,9.09485 0.36118,0.38079 7.4765,1.84474 15.81182,3.25323 8.33533,1.4085 18.23533,3.49793 22,4.6432 13.48554,4.10248 30.29344,15.04192 38.16957,24.84272 1.79825,2.23768 3.62673,4.06851 4.06329,4.06851 0.43656,0 1.33493,-2.41823 1.99637,-5.37385 z M 155.8101,328.64497 c 6.04382,-6.14176 10.15734,-11.12606 10.10988,-12.25 -0.044,-1.04223 -0.84139,-4.59497 -1.77194,-7.89497 l -1.69192,-6 -3.47806,0.5 c -1.91293,0.275 -8.65306,0.5 -14.97806,0.5 -6.325,0 -13.06513,-0.225 -14.97806,-0.5 l -3.47806,-0.5 -1.69192,6 c -0.93055,3.3 -1.72792,6.85274 -1.77194,7.89497 C 121.98255,318.70327 141.66418,339 144,339 c 0.89111,0 6.20566,-4.65976 11.8101,-10.35503 z M 455,231 l 0.5,-79.5 13.10149,-0.5 c 13.40561,-0.51161 15.29404,-1.06777 17.47731,-5.14724 0.53328,-0.99644 0.68724,-2.93673 0.34214,-4.31175 -0.88589,-3.52964 -118.33708,-113.620328 -122.97167,-115.265198 -2.72063,-0.965583 -4.17724,-0.965583 -6.89535,0 -2.28645,0.812242 -23.14979,19.706035 -62,56.147073 -32.20466,30.207585 -58.54729,55.182585 -58.53919,55.499995 0.008,0.31742 0.85621,3.27712 1.88468,6.57712 l 1.86996,6 12.36532,0.5 12.36531,0.5 0.24814,78.5 c 0.13648,43.175 0.46073,79.0648 0.72057,79.75511 0.37532,0.99708 19.85415,1.20266 94.75186,1 L 454.5,310.5 Z M 351.70382,280.37048 C 351.31672,279.98338 351,276.25153 351,272.07748 v -7.58918 l -5.14035,-2.35819 C 339.46307,259.19562 333.15226,252.98629 329.9476,246.47392 327.90054,242.31396 327.5,240.02718 327.5,232.5 v -9 h 8.5 8.5 l 0.57542,6.5 c 0.76088,8.59504 2.99355,12.67424 8.2409,15.05662 5.28941,2.40147 8.10008,2.39125 13.47683,-0.049 3.3711,-1.52999 4.72325,-2.92079 6.29575,-6.47568 3.71934,-8.40819 0.0936,-15.87165 -9.3804,-19.30908 -2.86468,-1.03938 -8.69955,-3.13668 -12.96639,-4.66065 -9.24883,-3.30338 -16.52553,-9.31332 -20.52824,-16.9546 -2.31763,-4.42442 -2.67806,-6.31141 -2.69468,-14.1076 -0.0161,-7.55168 0.37469,-9.80042 2.42841,-13.97392 3.19873,-6.50032 9.51268,-12.72043 15.87528,-15.63933 l 5.10358,-2.34131 0.28677,-8.02272 L 351.5,135.5 h 8.5 8.5 l 0.28677,8.02272 0.28677,8.02272 5.10358,2.34131 c 9.50716,4.3615 17.4787,14.88006 18.56223,24.49314 0.65561,5.81658 -0.80882,6.78352 -9.71671,6.41579 L 375.86028,184.5 373.68014,179 c -1.84153,-4.64576 -2.87315,-5.84946 -6.64203,-7.75 -5.43497,-2.7407 -8.24484,-2.79303 -13.83126,-0.25761 -5.42632,2.46276 -8.70446,8.82955 -7.59721,14.75526 1.13302,6.06356 5.47757,9.46632 16.89036,13.22894 5.5,1.81327 11.28896,3.94849 12.86436,4.74495 4.81395,2.43373 11.6717,9.42543 14.45595,14.73831 2.27962,4.34996 2.64394,6.2726 2.6605,14.04015 0.0161,7.55168 -0.37469,9.80042 -2.42841,13.97392 -3.2174,6.53827 -9.42487,12.62761 -15.81791,15.5169 l -5.15881,2.33149 -0.28784,8.08885 L 368.5,280.5 l -8.04618,0.28715 c -4.42541,0.15793 -8.36291,-0.0296 -8.75,-0.41667 z m -198.47078,6.10977 c 6.95344,-0.87811 18.11139,-6.86815 24.27512,-13.03189 7.08204,-7.08204 12.20198,-17.51392 13.4716,-27.44836 1.30317,-10.19707 1.28332,-45.94688 -0.0276,-49.7074 -0.57632,-1.65322 -2.03882,-3.51205 -3.25,-4.13073 -1.21119,-0.61869 -9.17716,-1.82855 -17.70216,-2.68857 -8.525,-0.86003 -17.28865,-2.03793 -19.47477,-2.61756 -5.79218,-1.53575 -14.38024,-6.09264 -20.29772,-10.77014 -2.84277,-2.24708 -6.01215,-4.0856 -7.04306,-4.0856 -2.90158,0 -13.33165,7.18576 -17.50213,12.05804 -2.06255,2.40962 -4.97234,6.86982 -6.466204,9.91154 -2.603703,5.30153 -2.729735,6.28469 -3.045186,23.75512 -0.180989,10.02359 0.149339,22.17359 0.734061,27 2.043885,16.87062 11.472879,30.39899 26.292239,37.72311 7.11516,3.51651 16.87291,5.62395 22.80277,4.92487 1.375,-0.1621 4.62987,-0.56369 7.23304,-0.89243 z m -21.87649,-16.5625 C 123.65951,266.95768 113,256.63796 113,252.14636 113,250.94731 124.05466,245 126.28342,245 c 0.73726,0 2.35845,1.3769 3.60266,3.05978 3.56597,4.82324 7.86057,6.93274 14.11392,6.93274 6.25335,0 10.54795,-2.1095 14.11392,-6.93274 C 159.35813,246.3769 160.97932,245 161.71658,245 163.94534,245 175,250.94731 175,252.14636 c 0,4.6008 -10.73329,14.86186 -18.64042,17.82029 -7.17099,2.68301 -17.95413,2.66193 -25.00303,-0.0489 z m -17.18224,-48.2322 C 109.20816,216.39932 112.8696,208 120.14014,208 c 4.61565,0 7.85986,3.35989 7.85986,8.14014 0,7.10029 -8.98088,10.70247 -13.82569,5.54541 z m 48,0 C 157.20816,216.39932 160.8696,208 168.14014,208 c 4.61565,0 7.85986,3.35989 7.85986,8.14014 0,7.10029 -8.98088,10.70247 -13.82569,5.54541 z M 79.5,224 v -14.5 l -3.396741,0.16341 c -2.436291,0.1172 -4.415587,1.18225 -7,3.76666 C 65.660084,216.87325 65.5,217.34067 65.5,223.951 c 0,6.31529 0.261237,7.19368 3,10.08724 3.383893,3.57515 6.070155,4.96819 9,4.66722 1.8986,-0.19504 2,-0.94061 2,-14.70546 z m 137.60212,12.73007 c 9.06333,-6.0547 9.02783,-19.42851 -0.0677,-25.50576 -1.93269,-1.29134 -4.5866,-2.18479 -6,-2.01993 L 208.5,209.5 l -0.28041,13.44955 c -0.15423,7.39725 -0.0559,14.03475 0.21861,14.75 0.76972,2.00585 4.90234,1.54342 8.66392,-0.96948 z"
         id="path925" />
      <path
         style="fill:#61666d"
         d="M 8.4255017,502.66646 C 8.1410773,501.92526 8.0581856,475.25959 8.2412978,443.40941 8.566689,386.8115 8.6248326,385.33433 10.808634,378.185 c 6.907267,-22.61302 22.028015,-41.23243 42.267035,-52.04685 9.697607,-5.18177 17.809736,-7.57332 36.269197,-10.69258 8.335324,-1.40849 15.450644,-2.87244 15.811824,-3.25323 0.36118,-0.38079 1.6665,-4.47347 2.9007,-9.09485 l 2.24401,-8.4025 -2.9007,-2.00605 c -1.59538,-1.10332 -5.90978,-5.07133 -9.587551,-8.8178 -5.020906,-5.1147 -7.726756,-8.99911 -10.860877,-15.59145 C 84.656557,263.45086 82.442679,258.825 82.032542,258 81.589183,257.10817 79.192489,256.23911 76.121312,255.85653 54.182596,253.12365 41.535378,229.28227 51.53751,209.51341 l 2.846878,-5.62676 -2.890116,-11.69332 c -7.934262,-32.10179 -1.657107,-58.75527 18.851162,-80.04408 11.013919,-11.4331 25.428488,-19.393152 40.862406,-22.565133 10.95539,-2.251554 54.62893,-2.251554 65.58432,0 16.3927,3.36903 30.50479,11.458333 42.39639,24.302353 3.62232,3.91244 7.09765,7.11353 7.72295,7.11353 0.6253,0 27.11351,-24.372722 58.8627,-54.161604 C 326.08744,29.014241 344.85739,12.053083 348,10.609083 c 6.24337,-2.868773 17.7677,-2.8659493 24,0.0059 5.60487,2.582713 125.31571,114.452457 128.84361,120.404307 3.25414,5.49001 3.98741,14.51621 1.67184,20.57945 C 498.72702,161.51857 491.0163,166.9896 479.5,167.929 l -7,0.571 -0.5,79.5 -0.5,79.5 -42.75,0.26074 c -41.47833,0.25298 -42.75,0.31815 -42.75,2.19098 0,1.06164 0.41559,2.1871 0.92354,2.50103 1.8248,1.12778 4.48142,11.20041 5.02365,19.04725 l 0.55281,8 15.58369,0.5 c 15.20245,0.48777 15.70331,0.57404 20.47356,3.52644 3.02596,1.87282 6.04349,4.89236 7.91631,7.92158 L 439.5,376.34316 V 432 487.65684 l -3.02644,4.89514 c -1.87582,3.03407 -4.88747,6.04576 -7.92149,7.92158 L 423.65701,503.5 216.29983,503.75704 C 43.14825,503.97169 8.8573303,503.79178 8.4255017,502.66646 Z M 54.8,486.8 c 1.669242,-1.66924 1.669242,-27.93076 0,-29.6 -1.669242,-1.66924 -27.930758,-1.66924 -29.6,0 -1.669242,1.66924 -1.669242,27.93076 0,29.6 1.669242,1.66924 27.930758,1.66924 29.6,0 z m 103.53112,0.45 c 0.69585,-1.16193 -12.30236,-77.62124 -13.37873,-78.69761 -0.60319,-0.60319 -1.30159,-0.60319 -1.90478,0 -1.07637,1.07637 -14.07458,77.53568 -13.37873,78.69761 0.24704,0.4125 6.69604,0.75 14.33112,0.75 7.63508,0 14.08408,-0.3375 14.33112,-0.75 z M 421.07692,485.07692 424,482.15385 v -27.91026 c 0,-15.35064 -0.28204,-28.19229 -0.62675,-28.537 -0.34471,-0.34472 -3.51,1.4307 -7.03398,3.94535 -3.52398,2.51466 -9.65444,5.73445 -13.62325,7.15509 -6.3688,2.27971 -9.27067,2.64814 -24.71602,3.13797 l -17.5,0.555 -0.5,7.5 -0.5,7.5 H 328 296.5 l -0.5,-7.5 -0.5,-7.5 -18,-0.60933 c -12.48346,-0.42258 -19.2557,-1.08204 -22.09724,-2.15174 -6.27808,-2.3634 -12.4331,-5.64809 -17.50753,-9.34306 -2.53263,-1.84415 -4.89513,-3.06264 -5.25,-2.70776 C 232.29035,426.04298 232,438.89295 232,454.24359 v 27.91026 l 2.92308,2.92307 L 237.84615,488 H 328 418.15385 Z m -308.6679,1.07029 c 0.28988,-0.46903 3.66672,-19.6508 7.5041,-42.62615 l 6.97706,-41.77336 -5.45345,-10.87385 C 118.43734,384.89323 115.67573,380 115.29981,380 c -0.37591,0 -3.71332,1.8 -7.41647,4 -3.70315,2.2 -7.22647,4 -7.82961,4 -1.659162,0 -2.525378,-2.49133 -10.042639,-28.88369 -3.819825,-13.41103 -7.160687,-24.59924 -7.424137,-24.86269 -0.861466,-0.86147 -10.948163,1.9509 -17.433288,4.86074 -19.118373,8.57831 -32.972563,25.12772 -38.223823,45.65995 C 25.294035,391.17026 25,395.87607 25,415.65996 V 439 h 15 15 v -22.8 c 0,-16.4 0.336842,-23.13684 1.2,-24 0.690909,-0.69091 4,-1.2 7.8,-1.2 3.8,0 7.109091,0.50909 7.8,1.2 0.899145,0.89915 1.2,12.93333 1.2,48 V 487 h 19.440983 c 10.692537,0 19.678157,-0.38375 19.968037,-0.85279 z M 215.5,432.25 c 0,-54.2205 0.0209,-54.78868 2.16237,-58.75 4.7146,-8.72116 11.9936,-13.33601 22.41264,-14.20951 3.80875,-0.31931 6.92499,-0.78333 6.92499,-1.03116 0,-0.24782 -0.90749,-1.72504 -2.01665,-3.28271 -3.0222,-4.2443 -13.58033,-11.86327 -21.48335,-15.50285 -6.92977,-3.19137 -17.16244,-6.14466 -18.08695,-5.22015 -0.26345,0.26345 -3.60432,11.45166 -7.42414,24.86269 C 190.64355,384.90516 189.58743,388 188.13233,388 c -0.5008,0 -3.99081,-1.8 -7.75557,-4 -3.76476,-2.2 -7.1859,-4 -7.60254,-4 -0.41663,0 -3.21156,4.89323 -6.21095,10.87385 l -5.45345,10.87385 6.97706,41.77336 c 3.83738,22.97535 7.21422,42.15712 7.5041,42.62615 0.28988,0.46904 9.388,0.85279 20.21804,0.85279 H 215.5 Z M 344,432 v -8 h -16 -16 v 8 8 h 16 16 z m -49.2,-9.2 c 0.69804,-0.69804 1.2,-4.04444 1.2,-8 V 408 h 32 32 v 6.8 c 0,3.95556 0.50196,7.30196 1.2,8 1.42685,1.42685 16.922,1.56985 27.15952,0.25064 18.84656,-2.42857 33.48064,-17.53079 34.45559,-35.55783 C 423.4733,375.3228 433.62691,376.5 328,376.5 c -105.62691,0 -95.4733,-1.1772 -94.81511,10.99281 0.94938,17.55409 15.76018,33.22792 33.5517,35.50675 9.80176,1.25546 26.72876,1.13509 28.06341,-0.19956 z M 147.63515,391.62577 C 148.28198,391.02383 158,370.80655 158,370.06283 c 0,-0.53543 -3.15,-2.8449 -7,-5.13214 l -7,-4.15862 -7,4.15862 c -3.85,2.28724 -7,4.58312 -7,5.10195 0,2.23522 10.56613,21.93982 11.9618,22.30735 1.23483,0.32518 5.07608,-0.1584 5.67335,-0.71422 z m -18.68614,-41.26933 c 0.24696,-0.23162 -4.02804,-4.93873 -9.5,-10.46024 -9.69319,-9.78097 -10.04756,-10.02658 -13.7816,-9.55173 -2.10792,0.26805 -4.08553,0.74032 -4.39469,1.04948 -0.58838,0.58837 6.30086,25.84236 7.86309,28.82385 0.79798,1.52292 1.94742,1.08488 10.13214,-3.86121 5.07763,-3.06846 9.43411,-5.76852 9.68106,-6.00015 z m 54.47812,-4.79295 c 2.11452,-7.49381 3.5956,-13.87409 3.29131,-14.17838 -0.3043,-0.3043 -2.27793,-0.77259 -4.38585,-1.04064 -3.73697,-0.47522 -4.08209,-0.23485 -13.83259,9.63405 -7.96672,8.06345 -9.69501,10.306 -8.5,11.02922 0.825,0.49929 5.1,3.12081 9.5,5.82559 6.26775,3.85294 8.22547,4.64036 9.04128,3.63654 0.57271,-0.70469 2.77134,-7.41256 4.88585,-14.90638 z m 191.94744,6.87774 C 375.1965,342.42018 370.93164,335.15002 362.62421,330.70615 358.63021,328.56965 357.53706,328.5 328,328.5 c -27.84082,0 -30.80515,0.16253 -34,1.86416 -8.26502,4.40209 -12.65132,11.00646 -13.64891,20.55089 -1.047,10.01718 -5.79636,9.13968 47.87129,8.84476 L 375.5,359.5 Z m -110.49021,-8.81508 c 0.66143,-2.95562 2.08304,-7.10077 3.15913,-9.21144 3.19046,-6.25791 3.11272,-6.31652 -8.79349,-6.63088 L 248.5,327.5 248,248 247.5,168.5 h -3.5 -3.5 l -0.70738,6.5 c -0.38907,3.575 -1.90827,11.35842 -3.37602,17.2965 l -2.66863,10.79649 3.36286,6.62536 c 2.94927,5.81053 3.36012,7.55737 3.34064,14.2035 -0.0177,6.0336 -0.55539,8.73081 -2.6382,13.23353 -4.75707,10.28409 -14.25084,17.21221 -25.54522,18.64174 -3.37132,0.42671 -5.84656,1.29224 -6.29977,2.20288 -0.41059,0.825 -2.62484,5.45086 -4.92055,10.27969 -3.13412,6.59234 -5.83997,10.47675 -10.86088,15.59145 -3.67777,3.74647 -7.99217,7.71448 -9.58755,8.8178 l -2.9007,2.00605 2.24401,8.4025 c 1.2342,4.62138 2.53952,8.71406 2.9007,9.09485 0.36118,0.38079 7.4765,1.84474 15.81182,3.25323 8.33533,1.4085 18.23533,3.49793 22,4.6432 13.48554,4.10248 30.29344,15.04192 38.16957,24.84272 1.79825,2.23768 3.62673,4.06851 4.06329,4.06851 0.43656,0 1.33493,-2.41823 1.99637,-5.37385 z M 155.8101,328.64497 c 6.04382,-6.14176 10.15734,-11.12606 10.10988,-12.25 -0.044,-1.04223 -0.84139,-4.59497 -1.77194,-7.89497 l -1.69192,-6 -3.47806,0.5 c -1.91293,0.275 -8.65306,0.5 -14.97806,0.5 -6.325,0 -13.06513,-0.225 -14.97806,-0.5 l -3.47806,-0.5 -1.69192,6 c -0.93055,3.3 -1.72792,6.85274 -1.77194,7.89497 C 121.98255,318.70327 141.66418,339 144,339 c 0.89111,0 6.20566,-4.65976 11.8101,-10.35503 z M 456,233.2 c 0,-59.95556 0.28697,-79.08697 1.2,-80 0.80179,-0.80179 5.23636,-1.2 13.36364,-1.2 11.80898,0 12.2405,-0.0769 14.8,-2.63636 2.98369,-2.9837 3.50055,-7.68482 1.20519,-10.9619 C 484.51108,135.46389 368.38591,26.785881 365.7239,25.306653 c -2.83959,-1.577911 -8.59439,-1.58863 -11.39078,-0.02122 -2.82351,1.582609 -119.00311,110.389047 -119.58058,111.991577 -0.24238,0.67265 0.50164,4.14799 1.65338,7.72299 l 2.09408,6.5 11.43913,0.28452 c 6.33075,0.15746 12.02453,0.77036 12.75,1.37244 1.06089,0.88046 1.31087,16.13 1.31087,79.96548 V 312 h 96 96 z m -102.8,45.6 c -0.71193,-0.71193 -1.2,-4.13927 -1.2,-8.42669 v -7.2267 l -5.33648,-2.44312 c -10.5224,-4.81731 -17.17258,-14.64025 -18.33437,-27.08158 -0.79435,-8.50657 0.0858,-9.62191 7.59329,-9.62191 3.12266,0 6.21756,0.54 6.87756,1.2 0.66,0.66 1.2,3.40449 1.2,6.09887 0,9.72569 5.28438,15.72846 14.52039,16.49438 9.16543,0.76007 16.07718,-4.37402 17.20461,-12.77968 1.28765,-9.60009 -3.07775,-14.64366 -16.51908,-19.08531 -13.08896,-4.32521 -18.12701,-6.99163 -22.63205,-11.97817 -5.66395,-6.26932 -7.95666,-12.1498 -7.97319,-20.45009 -0.0246,-12.37898 6.81101,-23.05224 18.06284,-28.20349 L 352,152.85339 v -7.2267 c 0,-4.28742 0.48807,-7.71476 1.2,-8.42669 0.66,-0.66 3.72,-1.2 6.8,-1.2 3.08,0 6.14,0.54 6.8,1.2 0.71193,0.71193 1.2,4.13927 1.2,8.42669 v 7.2267 l 5.33648,2.44312 c 8.93684,4.09142 15.37142,11.99761 17.50965,21.51416 0.49286,2.19359 0.61661,4.41735 0.27499,4.94168 -0.74102,1.13735 -12.42443,2.31192 -13.83147,1.39052 -0.53994,-0.35358 -1.30591,-1.96542 -1.70217,-3.58188 C 373.87229,172.56414 367.71854,168 360,168 c -8.32932,0 -14.68744,5.25083 -15.725,12.98643 -1.28765,9.60009 3.07775,14.64366 16.51908,19.08531 13.08896,4.32521 18.12701,6.99163 22.63205,11.97817 5.66395,6.26932 7.95666,12.1498 7.97319,20.45009 0.0246,12.37898 -6.81101,23.05224 -18.06284,28.20349 L 368,263.14661 v 7.2267 c 0,4.28742 -0.48807,7.71476 -1.2,8.42669 -1.55804,1.55804 -12.04196,1.55804 -13.6,0 z m -199.96696,7.68025 c 6.95344,-0.87811 18.11139,-6.86815 24.27512,-13.03189 7.08204,-7.08204 12.20198,-17.51392 13.4716,-27.44836 1.30317,-10.19707 1.28332,-45.94688 -0.0276,-49.7074 -0.57632,-1.65322 -2.03882,-3.51205 -3.25,-4.13073 -1.21119,-0.61869 -9.17716,-1.82855 -17.70216,-2.68857 -8.525,-0.86003 -17.28865,-2.03793 -19.47477,-2.61756 -5.79218,-1.53575 -14.38024,-6.09264 -20.29772,-10.77014 -2.84277,-2.24708 -6.01215,-4.0856 -7.04306,-4.0856 -2.90158,0 -13.33165,7.18576 -17.50213,12.05804 -2.06255,2.40962 -4.97234,6.86982 -6.466204,9.91154 -2.603703,5.30153 -2.729735,6.28469 -3.045186,23.75512 -0.180989,10.02359 0.149339,22.17359 0.734061,27 2.043885,16.87062 11.472879,30.39899 26.292239,37.72311 7.11516,3.51651 16.87291,5.62395 22.80277,4.92487 1.375,-0.1621 4.62987,-0.56369 7.23304,-0.89243 z m -21.87649,-16.5625 C 123.65951,266.95768 113,256.63796 113,252.14636 113,250.94731 124.05466,245 126.28342,245 c 0.73726,0 2.35845,1.3769 3.60266,3.05978 3.56597,4.82324 7.86057,6.93274 14.11392,6.93274 6.25335,0 10.54795,-2.1095 14.11392,-6.93274 C 159.35813,246.3769 160.97932,245 161.71658,245 163.94534,245 175,250.94731 175,252.14636 c 0,4.6008 -10.73329,14.86186 -18.64042,17.82029 -7.17099,2.68301 -17.95413,2.66193 -25.00303,-0.0489 z m -17.18224,-48.2322 C 109.20816,216.39932 112.8696,208 120.14014,208 c 4.61565,0 7.85986,3.35989 7.85986,8.14014 0,7.10029 -8.98088,10.70247 -13.82569,5.54541 z m 48,0 C 157.20816,216.39932 160.8696,208 168.14014,208 c 4.61565,0 7.85986,3.35989 7.85986,8.14014 0,7.10029 -8.98088,10.70247 -13.82569,5.54541 z M 79.5,224 v -14.5 l -3.396741,0.16341 c -2.436291,0.1172 -4.415587,1.18225 -7,3.76666 C 65.660084,216.87325 65.5,217.34067 65.5,223.951 c 0,6.31529 0.261237,7.19368 3,10.08724 3.383893,3.57515 6.070155,4.96819 9,4.66722 1.8986,-0.19504 2,-0.94061 2,-14.70546 z m 137.60212,12.73007 c 9.06333,-6.0547 9.02783,-19.42851 -0.0677,-25.50576 -1.93269,-1.29134 -4.5866,-2.18479 -6,-2.01993 L 208.5,209.5 l -0.28041,13.44955 c -0.15423,7.39725 -0.0559,14.03475 0.21861,14.75 0.76972,2.00585 4.90234,1.54342 8.66392,-0.96948 z"
         id="path923" />
      <path
         style="fill:#040403"
         d="m 9,449.14037 c 0,-43.94579 0.2829505,-55.50095 1.534836,-62.67979 5.215569,-29.90829 26.356442,-54.55594 55.442688,-64.63935 3.037362,-1.05297 13.144097,-3.23763 22.459411,-4.8548 9.315315,-1.61716 17.272375,-3.28368 17.682345,-3.70337 0.40998,-0.41968 1.76906,-4.64324 3.02018,-9.38569 l 2.27476,-8.62263 -9.54954,-9.37737 c -9.514538,-9.34299 -13.044409,-14.40496 -16.427606,-23.55782 -2.461608,-6.6596 -2.799972,-6.96551 -8.443674,-7.63393 -10.931063,-1.29462 -20.835554,-8.41631 -25.154228,-18.0868 -3.555139,-7.96076 -3.264708,-18.19923 0.749987,-26.43906 l 3.089159,-6.34025 -2.973735,-11.65975 C 48.72023,176.53746 48.359046,158.67474 51.785559,146.70851 59.468943,119.87625 79.766181,99.56688 106.70082,91.760432 114.01514,89.640525 116.33394,89.5 144,89.5 c 25.56177,0 30.36775,0.244488 36,1.831376 15.8183,4.456807 31.79465,14.663294 40.89943,26.128594 2.41969,3.04702 4.91237,5.54003 5.53929,5.54003 0.62692,0 26.90322,-24.1875 58.39178,-53.75 41.02531,-38.515923 58.82544,-54.58777 62.80374,-56.705882 7.89065,-4.2011169 16.84006,-4.2011169 24.73344,0 7.39038,3.933401 124.84149,113.985392 127.76518,119.716312 4.58557,8.98846 3.00467,20.20216 -3.84197,27.25192 -4.68047,4.81932 -9.1496,6.67869 -17.79089,7.40185 l -7,0.5858 -0.25599,79.75 -0.25598,79.75 h -43.0254 c -46.50235,0 -46.01343,-0.0596 -42.57669,5.18558 2.93534,4.4799 4.83561,11.35945 5.47314,19.81442 l 0.64092,8.5 15.5,0.52713 c 13.24354,0.45039 16.08231,0.83656 19.5,2.65268 4.62513,2.45774 7.50191,5.38766 10.13303,10.32019 1.75698,3.2938 1.86697,6.71088 1.86697,58 0,51.28912 -0.10999,54.7062 -1.86697,58 -2.62293,4.91719 -5.49764,7.85269 -10.13303,10.34732 L 422.5,502.5 215.75,502.75938 9,503.01875 Z M 55.8,487.8 c 1.674942,-1.67494 1.674942,-29.92506 0,-31.6 -1.674942,-1.67494 -29.925058,-1.67494 -31.6,0 -1.674942,1.67494 -1.674942,29.92506 0,31.6 0.823744,0.82374 5.777778,1.2 15.8,1.2 10.022222,0 14.976256,-0.37626 15.8,-1.2 z m 57.14407,-0.23261 c 0.65393,-0.78793 4.36268,-20.44912 8.24166,-43.69153 l 7.05271,-42.25893 -5.36922,-10.89064 c -2.95307,-5.98985 -5.89014,-11.32426 -6.52683,-11.85424 -0.78591,-0.65419 -3.28002,0.33547 -7.76761,3.08218 -7.29825,4.46702 -9.187359,4.90263 -9.955991,2.29577 C 98.334996,383.2875 95.802117,374.4 92.990168,364.5 83.335992,330.51064 84.272545,333 81.139156,333 c -3.933131,0 -12.691278,2.74649 -19.145803,6.00399 -13.728356,6.92848 -24.999827,18.44171 -31.456561,32.13127 -6.043797,12.81405 -6.738746,16.91522 -7.274811,42.93151 -0.435979,21.1589 -0.313613,23.73874 1.197642,25.25 2.413712,2.41371 28.572602,2.50815 30.968948,0.1118 C 56.763725,438.09342 57,434.48485 57,415.42857 V 393 h 7 7 v 46.42857 c 0,40.87446 0.187985,46.61656 1.571429,48 2.228009,2.22801 38.535161,2.35285 40.372641,0.13882 z m 44.91436,0.54127 c 1.11603,-0.70713 0.26628,-7.44054 -4.76211,-37.73469 C 145.50113,404.61581 146.22761,408 144,408 c -2.22761,0 -1.50113,-3.38419 -9.09632,42.37397 -5.02839,30.29415 -5.87814,37.02756 -4.76211,37.73469 0.74714,0.47339 6.98343,0.86071 13.85843,0.86071 6.875,0 13.11129,-0.38732 13.85843,-0.86071 z M 217,432.5 c 0.54784,-61.35844 0.25341,-58.48069 6.63636,-64.86364 4.49902,-4.49901 8.31541,-5.98945 16.85357,-6.58193 6.11197,-0.42412 8.059,-0.91748 8.28377,-2.09903 0.41657,-2.18979 -10.60222,-12.75852 -17.92708,-17.19484 -7.53022,-4.56069 -15.75712,-7.72575 -22.00478,-8.4657 l -4.6799,-0.55426 -2.01973,6.8797 c -1.11086,3.78383 -4.32043,14.9797 -7.13238,24.8797 -2.81195,9.9 -5.34483,18.7875 -5.62862,19.75 -0.76863,2.60686 -2.65774,2.17125 -9.95599,-2.29577 -4.48759,-2.74671 -6.9817,-3.73637 -7.76761,-3.08218 -0.63669,0.52998 -3.57376,5.86439 -6.52683,11.85424 l -5.36922,10.89064 7.05271,42.25893 c 3.87898,23.24241 7.5953,42.91271 8.25848,43.71179 0.99553,1.19955 4.7123,1.40575 21.31651,1.18261 L 216.5,488.5 Z m 204.72767,53.22823 2.77233,-2.77177 v -28.89297 c 0,-15.89113 -0.30307,-29.19691 -0.67349,-29.56839 -0.37042,-0.37148 -3.09093,1.14977 -6.04558,3.38055 -11.4932,8.67745 -20.30153,11.09672 -40.4595,11.11248 C 359.10533,439.00243 359,439.05743 359,448.57143 V 455 h -31 -31 v -6.42857 c 0,-9.51396 -0.10533,-9.56905 -18.32143,-9.5833 -20.26145,-0.0158 -29.28152,-2.55966 -41.11494,-11.59515 -2.58538,-1.97409 -5.00735,-3.28172 -5.38216,-2.90585 -0.37481,0.37586 -0.68147,13.65923 -0.68147,29.51859 v 28.8352 l 2.37344,2.52539 c 1.30539,1.38896 3.78039,2.7097 5.5,2.93496 1.71961,0.22527 42.82901,0.36214 91.35423,0.30416 L 418.95535,488.5 Z M 343.8,439.8 c 0.69091,-0.69091 1.2,-4 1.2,-7.8 0,-3.8 -0.50909,-7.10909 -1.2,-7.8 -1.67494,-1.67494 -29.92506,-1.67494 -31.6,0 -1.58053,1.58053 -1.58053,14.01947 0,15.6 0.82374,0.82374 5.77778,1.2 15.8,1.2 10.02222,0 14.97626,-0.37626 15.8,-1.2 z m -48.37143,-16.37143 c 1.10265,-1.10264 1.57143,-3.48918 1.57143,-8 L 297,409 h 31 31 v 6.42857 c 0,9.00897 0.76607,9.57901 12.82143,9.54055 14.66081,-0.0468 23.23256,-1.46278 30.22644,-4.99328 12.64659,-6.38398 21.07154,-18.95066 21.77243,-32.47584 0.33804,-6.52323 0.18075,-7.17027 -2.30934,-9.5 l -2.67209,-2.5 H 328 237.16113 l -2.68388,2.5 c -2.54674,2.37226 -2.66135,2.88323 -2.24297,10 0.80844,13.75179 9.42837,26.13948 22.41925,32.21864 7.48072,3.50065 13.39269,4.46444 28.52504,4.65024 8.50053,0.10438 10.99909,-0.18939 12.25,-1.44031 z M 147.63515,391.62577 C 148.28198,391.02383 158,370.80655 158,370.06283 c 0,-0.53543 -3.15,-2.8449 -7,-5.13214 l -7,-4.15862 -7,4.15862 c -3.85,2.28724 -7,4.58312 -7,5.10195 0,2.23522 10.56613,21.93982 11.9618,22.30735 1.23483,0.32518 5.07608,-0.1584 5.67335,-0.71422 z M 120.57699,357.37679 C 126.52802,353.8255 130,351.13204 130,350.06669 c 0,-0.92779 -4.64432,-6.25715 -10.32071,-11.84302 -10.19983,-10.03717 -10.36673,-10.14919 -14.25,-9.5645 -6.649832,1.00123 -6.737552,1.45588 -2.86341,14.84083 1.91031,6.6 3.93182,13.6875 4.49225,15.75 0.61593,2.26676 1.62746,3.75 2.55741,3.75 0.84614,0 5.7788,-2.53044 10.96145,-5.62321 z m 60.36488,1.87321 c 0.56043,-2.0625 2.58194,-9.15 4.49225,-15.75 3.87414,-13.38495 3.78642,-13.8396 -2.86341,-14.84083 -3.88327,-0.58469 -4.05017,-0.47267 -14.25,9.5645 C 162.64432,343.80954 158,349.13747 158,350.06352 c 0,1.82923 17.23216,12.82371 20.21146,12.89534 1.14461,0.0275 2.04894,-1.20088 2.73041,-3.70886 z m 195.86054,-4.58416 c 0.61945,-11.95028 -5.98937,-22.49713 -16.29805,-26.00965 -7.18044,-2.44663 -57.82828,-2.44663 -65.00872,0 -6.32929,2.1566 -12.68285,8.51016 -14.83945,14.83945 -1.64714,4.83408 -2.27087,15.55635 -0.98003,16.84719 0.37189,0.37189 22.30939,0.55939 48.75,0.41667 L 376.5,360.5 Z m -110.90474,-9.55122 c 0.63683,-3.23696 2.27095,-8.07446 3.63137,-10.75 1.36043,-2.67554 2.26205,-5.42712 2.00362,-6.11462 -0.33682,-0.896 -3.59224,-1.25 -11.49529,-1.25 h -11.0254 L 248.75599,247.25 248.5,167.5 h -4.47955 -4.47955 l -1.25126,8.75822 c -0.68819,4.81703 -2.15989,12.317 -3.27045,16.66662 -2.58287,10.11609 -2.5638,10.45124 0.99348,17.46608 2.5477,5.02398 2.98733,7.02401 2.98733,13.59028 0,6.58035 -0.44282,8.58551 -3.04683,13.7966 -4.98466,9.97519 -13.40741,15.79433 -24.52131,16.94139 -6.08718,0.62825 -6.38668,0.88491 -8.86893,7.60036 -3.3832,9.15286 -6.91307,14.21483 -16.42761,23.55782 l -9.54954,9.37737 2.27476,8.62263 c 1.25112,4.74245 2.58182,8.92804 2.95711,9.30132 0.37529,0.37328 7.65735,1.88636 16.18235,3.3624 8.525,1.47605 18.425,3.58511 22,4.68681 14.05031,4.32986 27.73867,13.06494 37.04979,23.64292 2.96732,3.37105 5.91147,6.12918 6.54256,6.12918 0.63109,0 1.66848,-2.64842 2.30532,-5.88538 z M 155.73435,329.76631 c 12.48262,-12.44721 12.42796,-12.31814 9.43085,-22.26631 -1.78619,-5.9288 -1.84833,-5.99642 -5.23642,-5.69841 -1.88583,0.16588 -9.05378,0.3016 -15.92878,0.3016 -6.875,0 -14.04295,-0.13572 -15.92878,-0.3016 -3.38809,-0.29801 -3.45023,-0.23039 -5.23642,5.69841 -2.98061,9.89342 -3.03476,9.76533 9.39889,22.23435 6.17853,6.19611 11.45899,11.26565 11.73435,11.26565 0.27537,0 5.57021,-5.05516 11.76631,-11.23369 z m 299.69422,-18.33774 c 1.40186,-1.40185 1.57143,-10.03463 1.57143,-80 V 153 l 9.25,-0.0436 c 16.9668,-0.0799 21.75,-2.24321 21.75,-9.83698 0,-3.29324 -0.92458,-4.56738 -9.25,-12.74723 C 468.59662,120.3964 374.76703,32.469455 368.70503,27.25 365.54255,24.527061 364.12565,24 359.96808,24 c -4.31562,0 -5.51354,0.488705 -9.19202,3.75 -8.0669,7.152018 -115.59811,108.15306 -116.22425,109.16616 -0.34611,0.56003 0.31543,4.12855 1.47009,7.93004 2.03,6.68334 2.22134,6.93196 5.78875,7.52179 2.02914,0.3355 7.62685,0.61495 12.43935,0.621 L 263,153 v 78.42857 c 0,69.96537 0.16957,78.59815 1.57143,80 C 265.97768,312.83482 276.00866,313 360,313 c 83.99134,0 94.02232,-0.16518 95.42857,-1.57143 z M 353,273.0651 c 0,-8.05834 -1.1447,-10.62772 -5.35369,-12.01681 -4.6656,-1.53979 -12.06435,-8.19912 -15.36276,-13.82741 -2.22116,-3.79014 -2.75765,-6.10449 -3.10651,-13.4011 L 328.75536,225 h 7.04273 7.04272 l 0.6866,6.41139 c 1.20706,11.27134 6.48209,16.58113 16.47259,16.58113 9.75763,0 15.98908,-5.98923 15.99626,-15.37449 0.007,-9.34512 -4.08595,-12.93074 -21.17923,-18.55326 -11.2666,-3.70594 -16.76502,-7.33647 -20.83815,-13.75913 -4.3303,-6.82816 -5.27408,-10.64528 -4.77285,-19.30374 0.3493,-6.03391 1.03233,-8.73291 3.10508,-12.2698 3.274,-5.58666 10.68397,-12.24534 15.3352,-13.78039 C 351.8553,153.56262 353,150.99324 353,142.9349 V 137 h 7 7 l 0.0136,5.75 c 0.0211,8.8638 0.60884,10.01282 6.56307,12.82962 9.40809,4.45074 18.30712,17.16882 17.24589,24.64703 -0.29425,2.07347 -0.91729,2.29938 -7.08634,2.56935 -5.79425,0.25358 -6.84044,0.0386 -7.29889,-1.5 -2.67799,-8.98743 -7.97518,-13.29784 -16.33526,-13.29226 -9.86742,0.007 -16.09116,5.95191 -16.09838,15.37823 -0.007,9.1778 4.25234,13.03477 19.99626,18.10716 14.5547,4.68923 19.87284,8.79152 24.6454,19.01087 2.82715,6.0537 3.15293,15.80076 0.76257,22.81606 -2.14953,6.30854 -9.26795,13.99938 -15.83125,17.10432 -5.95423,2.8168 -6.54202,3.96582 -6.56307,12.82962 L 367,279 h -7 -7 z m -198.73019,14.46562 c 9.34257,-1.97973 17.55479,-6.6368 24.55102,-13.92264 6.96377,-7.25205 10.7974,-14.31718 12.73892,-23.47701 1.64371,-7.75482 2.02362,-50.46648 0.48488,-54.51367 -1.70348,-4.4805 -4.9739,-5.64382 -20.20883,-7.18846 -22.72874,-2.30441 -30.1301,-4.67076 -40.20566,-12.85445 -7.38041,-5.99461 -7.04194,-5.92182 -13.33494,-2.86778 -7.36636,3.57496 -15.96266,12.18037 -19.7952,19.81619 l -3,5.9771 -0.306719,21.44939 c -0.187734,13.12852 0.14283,24.11463 0.852119,28.31977 3.1793,18.84903 18.73813,35.1945 37.3564,39.24511 8.03165,1.74737 12.6823,1.75104 20.86801,0.0164 z M 134.5,269.66106 c -2.2,-0.72871 -5.40398,-2.05685 -7.11996,-2.95142 C 123.47595,264.67435 115,255.35667 115,253.10016 c 0,-1.04948 2.09683,-2.7119 5.56756,-4.41411 l 5.56755,-2.73058 4.31902,4.44394 c 8.42227,8.66588 19.05878,8.65108 27.20017,-0.0378 l 4.1543,-4.4337 5.5957,2.74439 c 3.54485,1.73855 5.5957,3.37151 5.5957,4.45548 0,3.07233 -9.5873,12.44726 -15.22989,14.89254 -6.40225,2.77448 -17.48761,3.55612 -23.27011,1.64079 z m -19.32569,-48.97551 c -2.8208,-3.00261 -2.76512,-6.78189 0.14014,-9.51124 3.00261,-2.8208 6.78189,-2.76512 9.51124,0.14014 2.8208,3.00261 2.76512,6.78189 -0.14014,9.51124 -3.00261,2.8208 -6.78189,2.76512 -9.51124,-0.14014 z m 48,0 c -2.8208,-3.00261 -2.76512,-6.78189 0.14014,-9.51124 3.00261,-2.8208 6.78189,-2.76512 9.51124,0.14014 2.8208,3.00261 2.76512,6.78189 -0.14014,9.51124 -3.00261,2.8208 -6.78189,2.76512 -9.51124,-0.14014 z M 79.8,239.8 c 1.836786,-1.83679 1.663567,-30.17038 -0.193873,-31.71192 -1.964495,-1.63039 -8.892159,1.27471 -12.083212,5.06706 -7.390653,8.78329 -4.569464,21.19422 5.898486,25.94853 4.877616,2.2153 4.861398,2.21353 6.378599,0.69633 z m 138.29371,-2.27163 c 4.92193,-3.2184 7.24556,-8.42369 6.69954,-15.00798 -0.54485,-6.5701 -3.38599,-10.66073 -9.43987,-13.59137 -7.41874,-3.59135 -7.80281,-2.90438 -8.13077,14.54296 -0.19536,10.39344 0.0784,15.18578 0.9258,16.20684 1.50417,1.81241 5.06105,1.04331 9.9453,-2.15045 z M 80.085043,192 c 1.224097,0 3.027982,-2.32562 5.5992,-7.21866 4.821456,-9.17525 13.389128,-18.35363 21.289097,-22.80661 9.28493,-5.23364 9.00095,-4.6881 6.84028,-13.14041 -1.03118,-4.03388 -1.74859,-8.45932 -1.59425,-9.83432 0.27108,-2.41492 0.53122,-2.5 7.6443,-2.5 h 7.36368 l 1.86654,7.34996 c 2.25137,8.86532 4.32779,12.40002 10.89002,18.53822 8.34195,7.80291 12.21757,8.86415 44.08288,12.07092 8.68157,0.87367 15.99278,4.98853 19.94976,11.22804 1.59899,2.52135 3.0369,4.94078 3.19535,5.37652 0.15846,0.43573 2.97191,0.93716 6.25211,1.11429 l 5.96402,0.32205 1.82264,-6.5 c 2.83747,-10.1191 3.33689,-22.2289 1.30257,-31.58416 -2.73039,-12.55633 -7.69498,-21.59214 -17.03109,-30.99748 -8.7853,-8.85046 -15.33075,-13.02225 -26.02215,-16.58543 -6.66623,-2.22169 -8.33507,-2.33293 -35,-2.33293 -30.87853,0 -32.63338,0.2456 -45.5,6.368 -10.028511,4.77192 -23.05762,17.56917 -27.799186,27.30449 -6.87926,14.1244 -8.709953,27.27356 -5.797988,41.64469 2.711263,13.38064 2.827047,13.56023 8.262339,12.81524 C 76.202853,192.28459 79.091798,192 80.085043,192 Z"
         id="path921" />
    </g>
  </g>
</svg>
