<?xml version="1.0" encoding="UTF-8" standalone="no"?>
<!-- Created with Inkscape (http://www.inkscape.org/) -->

<svg
   version="1.1"
   id="svg3348"
   width="682.66669"
   height="682.66669"
   viewBox="0 0 682.66669 682.66669"
   xmlns="http://www.w3.org/2000/svg"
   xmlns:svg="http://www.w3.org/2000/svg">
  <defs
     id="defs3352" />
  <g
     id="g3354">
    <g
       id="g3358">
      <path
         style="fill:#eed4a2;stroke-width:1.33333"
         d="M 15.019086,528.9608 C 1.6899561,515.41567 -1.0277458,510.94168 0.46421698,505.00002 c 1.43055512,-5.69712 4.30000282,-8.2 9.40093912,-8.2 4.0710709,0 6.0060989,1.14738 12.1232429,7.18854 4.003429,3.9537 7.603738,6.86376 8.000686,6.46682 0.396949,-0.39695 35.211795,-74.24347 77.366325,-164.10337 l 76.6446,-163.38163 v -16.75579 c 0,-18.04633 1.09385,-22.40325 6.20976,-24.73423 4.10173,-1.86886 6.1601,-1.86217 10.32082,0.0336 4.64934,2.11839 5.25959,4.04092 6.0794,19.15274 l 0.72335,13.33333 h 134.66667 134.66667 l 0.72335,-13.33333 c 0.81981,-15.11182 1.43007,-17.03435 6.0794,-19.15274 4.16072,-1.89574 6.21909,-1.90244 10.32083,-0.0336 5.10409,2.32559 6.20976,6.69493 6.20976,24.53963 v 16.56118 l 75.48636,163.04276 c 41.51751,89.67351 76.02228,163.61754 76.6773,164.32005 0.73541,0.78874 3.98361,-1.4807 8.49225,-5.93334 6.13871,-6.06245 8.07269,-7.21062 12.1456,-7.21062 5.10095,0 7.97039,2.50288 9.40095,8.2 1.52065,6.05593 -1.16212,10.43568 -14.70099,24 l -13.641,13.66667 H 341.18344 28.506393 Z"
         id="path3372" />
      <path
         style="fill:#fdaf26;stroke-width:1.33333"
         d="M 15.000001,525.93619 C -1.2251061,510.00259 -2.3955181,507.60766 3.2727274,501.93942 c 5.2203841,-5.22039 9.2042596,-4.27838 18.2019436,4.30396 6.834143,6.51866 8.198425,7.30997 9.769849,5.66666 1.004561,-1.05052 36.085502,-74.99828 77.95765,-164.32836 l 76.13117,-162.41834 v -17.84065 c 0,-16.70727 0.19532,-18.06772 3.07453,-21.41501 3.78722,-4.40289 9.39231,-4.69889 13.38843,-0.70702 2.50103,2.49835 2.92888,4.66443 3.32507,16.83333 l 0.4547,13.96602 h 136.5453 136.54531 v -13.25899 c 0,-11.923 0.30979,-13.61913 3.07454,-16.83334 3.78722,-4.40292 9.39233,-4.69889 13.38842,-0.70696 2.59484,2.59214 2.93438,4.68795 3.53704,21.83334 l 0.66667,18.96595 75.88875,163.66667 c 41.73883,90.01667 76.48458,163.66667 77.21279,163.66667 0.72821,0 4.78373,-3.3 9.01227,-7.33333 8.73233,-8.32924 12.76561,-9.2418 17.9468,-4.0606 5.66049,5.66048 4.4965,8.0425 -11.98274,24.52174 L 652.15574,541.71663 341.07788,541.19166 30.000001,540.66669 Z M 463.15354,313.23657 c 5.8695,-4.61696 4.82461,-9.47313 -7.11962,-33.08852 -7.93489,-15.68837 -11.50306,-21.41897 -14.06274,-22.58524 -2.46528,-1.12327 -20.86693,-1.5628 -65.42785,-1.5628 h -61.99787 l -3.27272,3.27273 c -1.8,1.8 -3.27261,4.35 -3.27246,5.66667 4.5e-4,4.15133 19.86802,44.92041 23.42086,48.0606 l 3.39424,3 h 62.41251 c 61.12213,0 62.48514,-0.0571 65.92565,-2.76344 z"
         id="path3370" />
      <path
         style="fill:#f06843;stroke-width:1.33333"
         d="M 15.000001,526.0056 C -1.2216368,510.00035 -2.3901795,507.60232 3.2727274,501.93942 c 5.2203841,-5.22039 9.2042596,-4.27838 18.2019436,4.30396 6.834353,6.51886 8.198417,7.31002 9.770133,5.66666 1.004717,-1.05052 35.848566,-74.51003 77.430776,-163.24336 41.58221,-88.73334 76.00359,-161.4875 76.49196,-161.67591 0.48837,-0.18843 0.66037,-8.6293 0.38223,-18.7575 -0.49154,-17.89825 -0.41542,-18.5199 2.71345,-22.15741 3.93248,-4.57179 9.4736,-4.93026 13.53308,-0.87548 2.52229,2.51936 2.92512,4.64228 3.32184,17.50627 l 0.45147,14.63924 136.2152,-0.33962 136.21521,-0.3396 0.66666,-14.3024 c 0.57546,-12.34562 1.05938,-14.69426 3.53704,-17.16667 3.67174,-3.66392 9.258,-3.66161 12.92592,0.005 2.64943,2.64873 2.88812,4.35623 3.10086,22.18228 l 0.23048,19.31265 75.66312,163.31773 c 50.91424,109.89767 76.31268,163.31775 77.64898,163.31775 1.09221,0 5.44554,-3.3 9.67408,-7.33333 8.73233,-8.32924 12.76561,-9.2418 17.9468,-4.0606 5.56266,5.56265 4.42082,7.99877 -11.10964,23.70236 l -14.38236,14.54271 -311.95099,0.31052 -311.950969,0.31052 z M 556.48687,418.56991 c 2.41971,-1.90335 3.51315,-4.02579 3.51315,-6.81928 0,-5.7361 -84.30066,-188.7885 -88.76696,-192.75062 l -3.38175,-3 H 360.10547 c -106.98463,0 -107.77066,0.0195 -111.25898,2.76344 -2.42249,1.90553 -3.51315,4.02512 -3.51315,6.82749 0,5.6482 85.58898,188.72413 90.10811,192.74241 l 3.37393,3 h 107.07918 c 106.31018,0 107.10439,-0.0199 110.59231,-2.76344 z"
         id="path3368" />
      <path
         style="fill:#db9100;stroke-width:1.33333"
         d="m 278.19494,540.32229 c -71.53845,-0.32503 -75.741,-0.47512 -74.66667,-2.66667 0.62612,-1.27726 1.29515,-52.93903 1.48672,-114.80398 l 0.34834,-112.4817 -8.68607,-53.5183 c -4.77733,-29.43506 -9.17157,-56.8183 -9.76496,-60.85163 -0.5934,-4.03334 -1.04141,-16.4181 -0.9956,-27.5217 0.0739,-17.90957 0.37001,-20.50572 2.62329,-23 3.36279,-3.72244 10.21892,-3.7258 13.5867,-0.007 2.12866,2.35077 2.57469,5.1037 2.75426,17.00001 l 0.21428,14.19501 h 136.90478 136.90478 l 0.21428,-14.19501 c 0.17957,-11.89631 0.6256,-14.64924 2.75427,-17.00001 3.36722,-3.71854 10.22365,-3.71573 13.58669,0.005 2.24185,2.48068 2.54376,5.02379 2.57211,21.66667 l 0.0321,18.85636 75.70643,163.33334 c 41.63853,89.83333 76.26137,163.89063 76.93965,164.57177 0.75762,0.76082 4.54211,-1.93889 9.81272,-7 9.66446,-9.28028 13.53724,-10.29937 18.8709,-4.9657 5.53453,5.53452 4.39857,8.00994 -10.67931,23.27172 l -13.95204,14.12221 -150.3813,0.66667 c -82.70971,0.36667 -184.49358,0.51168 -226.18637,0.32227 z M 556.48687,418.56991 c 2.41971,-1.90335 3.51315,-4.02579 3.51315,-6.81928 0,-5.7361 -84.30066,-188.7885 -88.76696,-192.75062 l -3.38175,-3 H 360.10547 c -106.98463,0 -107.77066,0.0195 -111.25898,2.76344 -2.42249,1.90553 -3.51315,4.02512 -3.51315,6.82749 0,5.6482 85.58898,188.72413 90.10811,192.74241 l 3.37393,3 h 107.07918 c 106.31018,0 107.10439,-0.0199 110.59231,-2.76344 z M 14.256518,525.5326 C -1.1312653,509.9172 -2.2665234,507.47866 3.2727274,501.93942 c 5.6766262,-5.67663 8.7119976,-4.47208 23.9376016,9.49932 14.607146,13.4039 15.456339,14.52821 15.456339,20.46368 0,4.8704 -3.792136,8.0976 -9.515138,8.0976 -4.134848,0 -6.186468,-1.57087 -18.895012,-14.46742 z"
         id="path3366" />
      <path
         style="fill:#d27300;stroke-width:1.33333"
         d="m 278.19494,540.32229 c -71.53845,-0.32503 -75.741,-0.47512 -74.66667,-2.66667 0.62612,-1.27726 1.29515,-52.93903 1.48672,-114.80398 l 0.34834,-112.4817 -8.81822,-54.18497 c -9.90609,-60.86966 -10.53738,-65.12275 -9.52718,-64.18496 0.39497,0.36666 35.04349,74.76667 76.99669,165.33334 41.95322,90.56667 76.86775,165.78028 77.58787,167.14135 1.15476,2.18257 3.15872,0.64806 16.97698,-13 16.04689,-15.84924 18.39157,-17.1813 24.5082,-13.92356 4.48568,2.38909 6.15698,5.31636 6.20328,10.86497 0.0387,4.63032 -1.05794,6.21388 -12.31875,17.78983 -10.41263,10.70404 -13.19745,12.84529 -17.66667,13.58391 -2.91804,0.48226 -39.4178,0.72185 -81.11059,0.53244 z M 14.256518,525.5326 C -1.1312653,509.9172 -2.2665234,507.47866 3.2727274,501.93942 c 5.6766262,-5.67663 8.7119976,-4.47208 23.9376016,9.49932 14.607146,13.4039 15.456339,14.52821 15.456339,20.46368 0,4.8704 -3.792136,8.0976 -9.515138,8.0976 -4.134848,0 -6.186468,-1.57087 -18.895012,-14.46742 z m 620.805642,13.49418 c -5.41359,-0.49007 -5.55374,-0.61884 -4.11353,-3.77976 1.05427,-2.31388 1.08822,-4.53798 0.11587,-7.59304 -1.12492,-3.5346 -146.7212,-318.46957 -158.10271,-341.98731 l -3.38768,-7 h 4.54629 c 2.50046,0 4.57307,-0.45 4.6058,-1 0.0327,-0.55 0.18274,-7.38776 0.33334,-15.19501 0.31358,-16.25684 2.03474,-19.80499 9.60714,-19.80499 7.15395,0 9.14,3.6244 9.72212,17.74222 0.278,6.74177 -0.12266,14.95778 -0.89032,18.25778 l -1.39576,6 76.09411,164.2465 c 41.85175,90.33558 77.01342,164.59929 78.13703,165.03046 1.32787,0.50955 4.9701,-2.02687 10.40582,-7.24651 9.4384,-9.06321 13.3509,-10.06109 18.65428,-4.7577 5.61386,5.61385 4.4547,8.07862 -11.12727,23.6606 l -14.4,14.4 -6.6,-0.23295 c -3.63,-0.12813 -9.12204,-0.46125 -12.20453,-0.74029 z M 185.91594,175.23749 c -1.54824,-10.32438 -0.038,-26.82266 2.73595,-29.88781 3.18785,-3.52254 10.16372,-3.53506 13.34122,-0.024 2.6974,2.98059 4.33103,18.97485 2.78162,27.2339 -0.83892,4.47183 -1.2129,4.77372 -5.91363,4.77372 -2.75995,0 -6.18276,0.88092 -7.60625,1.9576 -3.87747,2.93276 -4.34443,2.57823 -5.33891,-4.05345 z"
         id="path3364" />
      <path
         style="fill:#5c4233;stroke-width:1.33333"
         d="m 278.19494,540.32229 c -71.53845,-0.32503 -75.741,-0.47512 -74.66667,-2.66667 0.62612,-1.27726 1.29556,-49.57227 1.48764,-107.32227 0.22628,-68.02996 0.81311,-105.00001 1.66667,-105.00001 0.72459,0 1.31743,0.30144 1.31743,0.66987 0,3.78739 27.02288,166.2255 28.08518,168.82385 2.49423,6.10068 6.57762,6.8778 18.96762,3.60974 13.93776,-3.67629 31.9722,-4.01992 42.28053,-0.8056 11.63719,3.62868 23.58994,11.49664 35.52406,23.38391 l 11.05852,11.01509 1.94765,-3.68176 c 1.07122,-2.02497 7.89607,-9.57678 15.16635,-16.78182 12.01967,-11.9118 13.61876,-13.06076 17.62923,-12.66667 5.85452,0.57529 10.06974,6.01447 8.7466,11.28629 -1.30578,5.2026 -24.2618,28.22862 -29.40574,29.49539 -2.2,0.54178 -38.11228,0.83007 -79.80507,0.64066 z M 14.256518,525.5326 C -1.1312653,509.9172 -2.2665234,507.47866 3.2727274,501.93942 c 5.6766262,-5.67663 8.7119976,-4.47208 23.9376016,9.49932 14.607146,13.4039 15.456339,14.52821 15.456339,20.46368 0,4.8704 -3.792136,8.0976 -9.515138,8.0976 -4.134848,0 -6.186468,-1.57087 -18.895012,-14.46742 z m 627.950162,12.0291 c -2.21627,-2.44895 -2.87063,-7.6133 -1.43778,-11.34724 0.42288,-1.10202 7.03224,-7.75108 14.68746,-14.77572 15.22561,-13.9714 18.26098,-15.17595 23.9376,-9.49932 5.61386,5.61385 4.4547,8.07862 -11.12727,23.6606 -12.89505,12.89505 -14.89399,14.4 -19.12668,14.4 -2.88581,0 -5.58609,-0.94964 -6.93333,-2.43832 z M 185.86529,175.27126 c -0.46871,-1.86747 -0.59659,-8.74155 -0.28419,-15.27572 0.65495,-13.6988 2.69785,-17.32887 9.75224,-17.32887 6.77455,0 9.01108,3.66494 9.72107,15.92968 0.33634,5.81 0.22526,12.10266 -0.24684,13.98366 -0.77595,3.09161 -1.4885,3.42 -7.42095,3.42 -3.60941,0 -6.93339,0.6 -7.38661,1.33333 -1.44643,2.34037 -3.25632,1.43773 -4.13472,-2.06208 z m 307.46806,2.06208 c -1.1,-0.71088 -4.53857,-1.30169 -7.64127,-1.31292 -4.93582,-0.0179 -5.7486,-0.44808 -6.49962,-3.44041 -1.64955,-6.57231 0.17217,-24.3346 2.79277,-27.23033 3.21755,-3.55536 10.16472,-3.53396 13.40025,0.0413 3.83663,4.23941 4.64366,33.33325 0.92247,33.25531 -0.53603,-0.0113 -1.8746,-0.60211 -2.9746,-1.31299 z"
         id="path3362" />
      <path
         style="fill:#6f2c20;stroke-width:1.33333"
         d="m 203.43519,537.89817 c 0.71155,-1.48194 1.37894,-46.89633 1.58072,-107.56482 0.22628,-68.02996 0.81311,-105.00001 1.66667,-105.00001 0.72459,0 1.31743,0.30144 1.31743,0.66987 0,3.78739 27.02288,166.2255 28.08518,168.82385 2.49423,6.10068 6.57762,6.8778 18.96762,3.60974 13.93776,-3.67629 31.9722,-4.01992 42.28053,-0.8056 11.46756,3.57579 23.47242,11.42764 35.21234,23.03087 5.93321,5.86412 11.12083,10.55307 11.52801,10.41988 0.4072,-0.1332 1.40508,1.51888 2.21752,3.67128 l 1.47716,3.91346 h -70.4418 c -38.74299,0 -71.49503,0.40416 -72.78232,0.89814 -1.94146,0.745 -2.13055,0.46082 -1.10906,-1.66666 z m 169.23149,-11.23149 c 6.56943,-6.6 12.2444,-12 12.61107,-12 0.36666,0 -4.70831,5.4 -11.27774,12 -6.56942,6.6 -12.2444,12.00001 -12.61106,12.00001 -0.36667,0 4.7083,-5.40001 11.27773,-12.00001 z m -336.738456,-6.33333 -4.59489,-5 5.000001,4.59489 c 2.75,2.52719 5,4.77719 5,5 0,1.01816 -1.128288,0.0589 -5.405111,-4.59489 z m 609.405136,0.33333 c 2.4877,-2.56666 4.8231,-4.66666 5.18977,-4.66666 0.36667,0 -1.36873,2.1 -3.85644,4.66666 -2.48771,2.56667 -4.82311,4.66667 -5.18977,4.66667 -0.36667,0 1.36873,-2.1 3.85644,-4.66667 z M 493.33335,177.33334 c -1.20172,-0.77661 -1.36617,-1.30065 -0.41203,-1.31292 0.87339,-0.0107 1.9588,0.57959 2.41203,1.31292 1.02307,1.65537 0.56149,1.65537 -2,0 z m -10.33333,-2.25244 c 1.28333,-0.33536 3.38333,-0.33536 4.66666,0 1.28334,0.33537 0.23334,0.60977 -2.33333,0.60977 -2.56667,0 -3.61667,-0.2744 -2.33333,-0.60977 z"
         id="path3360" />
    </g>
  </g>
</svg>
