<?xml version="1.0" encoding="UTF-8" standalone="no"?>
<!-- Created with Inkscape (http://www.inkscape.org/) -->

<svg
   version="1.1"
   id="svg1131"
   width="512"
   height="512"
   viewBox="0 0 512 512"
   xmlns="http://www.w3.org/2000/svg"
   xmlns:svg="http://www.w3.org/2000/svg">
  <defs
     id="defs1135" />
  <g
     id="g1137">
    <g
       id="g1141">
      <path
         style="fill:#a4e7cf"
         d="M 85.556704,480.77749 C 84.625165,479.44754 84,476.43557 84,473.27749 V 468 h -5.545455 c -4.554433,0 -5.984103,-0.43865 -8,-2.45455 L 68,463.09091 v -45.43467 c 0,-52.95896 -0.637681,-49.69316 9.851265,-50.45186 L 84,366.75962 v -7.42527 c 0,-6.60004 0.279691,-7.70495 2.516649,-9.94191 1.844186,-1.84418 3.113413,-2.33642 4.75,-1.84215 3.730066,1.12652 4.214089,2.22534 4.733351,10.74555 l 0.5,8.20416 5.64913,0.50373 c 3.58219,0.31942 6.41781,1.19937 7.75,2.40498 2.07683,1.87951 2.10087,2.43067 2.10087,48.17485 0,40.71479 -0.18859,46.46218 -1.56993,47.84351 -1.76101,1.76101 -4.0808,2.41662 -9.93007,2.80639 l -4,0.26654 -0.310518,5.48813 c -0.183004,3.23442 -0.965289,6.21165 -1.904988,7.25 -2.258616,2.49574 -6.825901,2.25469 -8.72779,-0.46064 z M 100,417.46379 v -37.53621 l -9.75,0.28621 -9.75,0.28621 -0.262897,35.9952 c -0.144593,19.79736 -0.04622,36.55986 0.218615,37.25 0.33959,0.88495 3.290833,1.2548 10.012897,1.2548 H 100 Z m 58.40499,15.43438 c -1.65859,-1.82997 -1.94665,-4.02884 -2.22704,-17 L 155.85591,401 h -5.92796 c -4.59462,0 -6.3778,-0.44985 -7.92795,-2 -1.95055,-1.95055 -2,-3.33333 -2,-55.92857 0,-47.67076 0.18217,-54.11075 1.56993,-55.4985 1.76101,-1.76101 4.0808,-2.41662 9.93007,-2.80639 l 4,-0.26654 0.27789,-14.95208 c 0.22549,-12.13238 0.58473,-15.29113 1.90499,-16.75 2.14658,-2.37195 5.83265,-2.28239 8.31712,0.20208 1.82222,1.82222 2,3.33333 2,17 v 15 h 5.54545 c 4.55444,0 5.98411,0.43865 8,2.45455 L 184,289.90909 V 343 396.09091 l -2.45455,2.45454 c -1.95741,1.95742 -3.47643,2.45455 -7.5,2.45455 H 169 v 14.36514 c 0,13.01863 -0.19427,14.61212 -2.07258,17 -2.50121,3.17978 -5.92924,3.39418 -8.52243,0.53303 z M 171.5,343.5 v -45 l -9.75,-0.28621 -9.75,-0.28621 v 44.86954 c 0,24.67825 0.31569,45.18523 0.70153,45.57107 0.38583,0.38584 4.77333,0.57334 9.75,0.41667 L 171.5,388.5 Z m 60.36078,17.59065 c -2.23778,-1.80986 -2.37784,-2.61743 -2.68826,-15.5 L 228.84504,332 h -5.76753 c -10.51418,0 -9.57751,8.99749 -9.57751,-92 0,-101.05542 -0.95033,-92 9.65499,-92 H 229 v -15.85078 c 0,-16.75345 0.89924,-21.66508 4.15575,-22.69865 3.23326,-1.0262 6.84186,0.41294 7.87962,3.14246 C 241.56592,113.98847 242,122.5259 242,131.5651 V 148 h 5.84501 c 10.60532,0 9.65499,-9.05542 9.65499,92 0,100.99749 0.93667,92 -9.57751,92 h -5.76753 l -0.32748,13.59065 c -0.31042,12.88257 -0.45048,13.69014 -2.68826,15.5 C 237.84078,362.14079 236.20314,363 235.5,363 c -0.70314,0 -2.34078,-0.85921 -3.63922,-1.90935 z M 245,240 v -80 h -9.5 -9.5 v 80 80 h 9.5 9.5 z m 107.5567,100.77749 c -1.08499,-1.54904 -1.5567,-4.57922 -1.5567,-10 V 323 h -5.88922 c -4.30912,0 -6.52261,-0.51301 -8.25,-1.91205 L 334.5,319.1759 v -33.05264 c 0,-38.17679 -0.50003,-36.2063 9.36896,-36.92016 l 5.92952,-0.42891 0.35355,-7.78518 C 350.53807,232.48826 352.38504,229 356.5,229 c 3.9494,0 5.38346,2.89829 5.70394,11.52784 L 362.5,248.5 l 3,0.26406 c 6.36745,0.56046 9.49284,1.37164 10.96785,2.84665 2.19074,2.19074 2.30831,65.94556 0.12711,68.92853 -1.00893,1.3798 -3.05283,2.068 -7.25,2.44113 L 363.5,323.5 363,331.6019 c -0.29037,4.70502 -1.07542,8.79289 -1.87244,9.75 -2.00402,2.40653 -6.70353,2.09158 -8.57086,-0.57441 z M 365.76747,286.25 365.5,261.5 h -9.5 -9.5 l -0.26899,23.47931 c -0.14795,12.91362 -0.0496,24.05112 0.21861,24.75 0.34722,0.90483 3.23695,1.27069 10.03646,1.27069 h 9.54886 z M 306.57143,266.42857 C 305.47298,265.33013 305,262.94683 305,258.51036 305,249.31138 304.77238,249 298.048,249 288.41867,249 289,252.03298 289,201.7937 289,152.03827 288.23752,155.83332 298.40149,155 L 304.5,154.5 305,144.21043 c 0.52284,-10.75966 1.16413,-12.1798 5.5,-12.1798 4.33587,0 4.97716,1.42014 5.5,12.1798 l 0.5,10.28957 6.09851,0.5 C 332.76462,155.83349 332,152.01102 332,202 c 0,49.98898 0.76462,46.16651 -9.40149,47 l -6.09851,0.5 -0.5,8.28912 c -0.52508,8.70481 -1.33838,10.16506 -5.67857,10.19557 -1.19822,0.008 -2.88572,-0.69183 -3.75,-1.55612 z M 320.5,202 v -34.5 h -10 -10 l -0.26378,33.49289 c -0.14508,18.42109 -0.0404,34.07498 0.23259,34.78642 0.36991,0.96399 2.98478,1.22056 10.26378,1.00711 L 320.5,236.5 Z m 93.13486,51.92742 C 411.06301,251.9044 411,251.58157 411,240.42742 V 229 h -6 c -4.66667,0 -6.44444,-0.44444 -8,-2 -1.96532,-1.96532 -2,-3.33333 -2,-78.88922 0,-88.548226 -0.91619,-80.854651 9.74373,-81.821258 l 6.20565,-0.562709 0.27531,-15.007118 c 0.27324,-14.894427 0.29502,-15.021822 2.90043,-16.965422 2.24183,-1.672371 2.97188,-1.775541 5,-0.706585 1.30619,0.688446 2.70549,1.746853 3.10957,2.352016 0.40408,0.605163 0.74158,7.675296 0.75,15.711407 L 423,65.722223 l 6.07388,0.55076 C 440.0177,67.265334 439,58.941039 439,147.46386 c 0,64.98316 -0.22346,77.45948 -1.41657,79.09115 -1.0559,1.44403 -3.02907,2.06555 -7.75,2.44113 L 423.5,229.5 l -0.24808,10 c -0.31298,12.61659 -0.62771,13.89456 -3.775,15.32856 -3.2169,1.46572 -2.73946,1.53936 -5.84206,-0.90114 z M 426.75689,147.75 427.01378,79 H 417.00689 407 v 68.33333 c 0,37.58334 0.31569,68.64902 0.70153,69.03486 0.38583,0.38584 4.77333,0.57334 9.75,0.41667 L 426.5,216.5 Z"
         id="path1155" />
      <path
         style="fill:#ef9da4"
         d="M 86.556704,479.77749 C 85.635043,478.46164 85,475.44573 85,472.38448 85,466.45873 84.42339,466 76.974917,466 68.659331,466 69,468.0718 69,417.5 c 0,-50.80804 -0.39695,-48.48965 8.306704,-48.51531 2.856313,-0.008 5.705161,-0.34592 6.330775,-0.75 0.644293,-0.41615 1.298706,-4.33002 1.509332,-9.02693 0.392227,-8.74656 1.165469,-10.16201 5.568005,-10.19245 C 93.857966,348.99358 95,351.85026 95,359.73426 c 0,4.00669 0.499708,7.36545 1.2,8.06574 0.66,0.66 3.794167,1.2 6.96482,1.2 4.67605,0 5.96032,0.36531 6.8,1.93426 C 110.63404,372.18471 111,388.64673 111,417.5 c 0,28.85327 -0.36596,45.31529 -1.03518,46.56574 C 109.15197,465.58457 107.84918,466 103.89907,466 96.259366,466 95,467.05624 95,473.46376 95,479.22126 93.367595,482 89.985275,482 c -1.029527,0 -2.572384,-1.00013 -3.428571,-2.22251 z M 100.5,417.5 v -39 l -9.350715,-0.28886 c -6.034987,-0.18643 -9.846896,0.12294 -10.75,0.87245 -1.951866,1.6199 -2.096451,76.45869 -0.149285,77.27159 0.6875,0.28702 5.525,0.43702 10.75,0.33334 L 100.5,456.5 Z m 59.5,15.52361 c -1.19284,-0.7521 -1.60239,-4.17897 -2,-16.73469 L 157.5,400.5 150.90007,400 c -3.62995,-0.275 -7.34245,-1.1176 -8.25,-1.87244 C 141.1547,396.88378 141,391.79144 141,343.81181 c 0,-34.5828 0.359,-53.61408 1.03518,-54.87755 C 142.84803,287.41543 144.15082,287 148.10093,287 157.0462,287 157,287.08763 157,270.1198 c 0,-13.35637 0.18925,-14.98109 1.92834,-16.55495 2.47345,-2.23844 5.86178,-1.24707 7.12894,2.08582 C 166.57578,257.01441 167,264.35276 167,271.95811 167,287.553 166.70373,287 175.05873,287 c 8.43818,0 8.0339,-3.00247 7.7173,57.31479 -0.20793,39.61215 -0.57575,52.88597 -1.49084,53.80061 -0.66814,0.66782 -3.81814,1.4253 -7,1.68329 -3.18185,0.25799 -6.1158,0.97132 -6.51988,1.58519 -0.40408,0.61387 -0.74158,7.73779 -0.75,15.83094 -0.0141,13.51597 -0.1729,14.79915 -1.94957,15.75 -2.36284,1.26455 -3.1391,1.27356 -5.06574,0.0588 z m 12.76028,-88.90876 c 0.19113,-33.32597 -0.0483,-45.75693 -0.90098,-46.78439 -0.88031,-1.0607 -3.4837,-1.33043 -10.76029,-1.11485 L 151.5,296.5 151.23932,342 c -0.14338,25.025 -0.0389,46.07833 0.23211,46.78518 0.36736,0.95803 3.10655,1.21259 10.76069,1 L 172.5,389.5 Z M 232.2,359.8 c -0.80238,-0.80238 -1.2,-5.24849 -1.2,-13.41821 0,-6.72002 -0.27314,-12.93002 -0.60699,-13.8 C 229.9357,331.39005 228.35047,331 223.96444,331 c -3.95901,0 -6.32435,-0.50277 -7.39301,-1.57143 C 215.16671,328.02385 215,318.5368 215,240 c 0,-78.5368 0.16671,-88.02385 1.57143,-89.42857 1.06866,-1.06866 3.434,-1.57143 7.39301,-1.57143 4.38603,0 5.97126,-0.39005 6.42857,-1.58179 C 230.72686,146.54823 231,138.31323 231,129.11821 231,111.57656 231.37109,110 235.5,110 c 4.12891,0 4.5,1.57656 4.5,19.11821 0,9.19502 0.27314,17.43002 0.60699,18.3 0.45731,1.19174 2.04254,1.58179 6.42857,1.58179 3.95901,0 6.32435,0.50277 7.39301,1.57143 C 255.83329,151.97615 256,161.4632 256,240 c 0,78.5368 -0.16671,88.02385 -1.57143,89.42857 -1.06866,1.06866 -3.434,1.57143 -7.39301,1.57143 -4.38603,0 -5.97126,0.39005 -6.42857,1.58179 C 240.27314,333.45177 240,339.66177 240,346.38179 240,359.2092 239.44873,361 235.5,361 c -1.155,0 -2.64,-0.54 -3.3,-1.2 z m 14.19301,-40.38179 c 0.79319,-2.06702 0.79319,-156.7694 0,-158.83642 -0.89875,-2.3421 -20.88727,-2.3421 -21.78602,0 -0.79319,2.06702 -0.79319,156.7694 0,158.83642 C 225.10605,320.71873 227.04298,321 235.5,321 c 8.45702,0 10.39395,-0.28127 10.89301,-1.58179 z m 106.16369,21.35928 c -1.08499,-1.54904 -1.5567,-4.57922 -1.5567,-10 V 323 h -5.88922 c -4.30912,0 -6.52261,-0.51301 -8.25,-1.91205 L 334.5,319.1759 v -33.05264 c 0,-38.17679 -0.50003,-36.2063 9.36896,-36.92016 l 5.92952,-0.42891 0.35355,-7.78518 C 350.53807,232.48826 352.38504,229 356.5,229 c 3.9494,0 5.38346,2.89829 5.70394,11.52784 L 362.5,248.5 l 3,0.26406 c 6.36745,0.56046 9.49284,1.37164 10.96785,2.84665 2.19074,2.19074 2.30831,65.94556 0.12711,68.92853 -1.00893,1.3798 -3.05283,2.068 -7.25,2.44113 L 363.5,323.5 363,331.6019 c -0.29037,4.70502 -1.07542,8.79289 -1.87244,9.75 -2.00402,2.40653 -6.70353,2.09158 -8.57086,-0.57441 z M 365.76747,286.25 365.5,261.5 h -9.5 -9.5 l -0.26899,23.47931 c -0.14795,12.91362 -0.0496,24.05112 0.21861,24.75 0.34722,0.90483 3.23695,1.27069 10.03646,1.27069 h 9.54886 z M 306.57143,266.42857 C 305.47298,265.33013 305,262.94683 305,258.51036 305,249.31138 304.77238,249 298.048,249 288.41867,249 289,252.03298 289,201.7937 289,152.03827 288.23752,155.83332 298.40149,155 L 304.5,154.5 305,144.21043 c 0.52284,-10.75966 1.16413,-12.1798 5.5,-12.1798 4.33587,0 4.97716,1.42014 5.5,12.1798 l 0.5,10.28957 6.09851,0.5 C 332.76462,155.83349 332,152.01102 332,202 c 0,49.98898 0.76462,46.16651 -9.40149,47 l -6.09851,0.5 -0.5,8.28912 c -0.52508,8.70481 -1.33838,10.16506 -5.67857,10.19557 -1.19822,0.008 -2.88572,-0.69183 -3.75,-1.55612 z M 320.5,202 v -34.5 h -10 -10 l -0.26378,33.49289 c -0.14508,18.42109 -0.0404,34.07498 0.23259,34.78642 0.36991,0.96399 2.98478,1.22056 10.26378,1.00711 L 320.5,236.5 Z m 92.80902,50.75 C 412.86406,252.0625 412.275,246.325 412,240 l -0.5,-11.5 -6.33343,-0.50386 c -4.72093,-0.37558 -6.6941,-0.9971 -7.75,-2.44113 C 396.22406,223.92416 396,211.66222 396,148.03138 c 0,-66.092216 0.19139,-75.859613 1.52371,-77.761772 1.23845,-1.768138 2.68936,-2.231026 7.75,-2.472506 L 411.5,67.5 412,52 c 0.275,-8.525 0.86406,-16.0625 1.30902,-16.75 1.04827,-1.619663 6.33369,-1.619663 7.38196,0 C 421.13594,35.9375 421.725,43.475 422,52 l 0.5,15.5 5.98412,0.306889 C 438.94893,68.343566 438,60.400132 438,147.46386 c 0,64.12045 -0.22384,76.46 -1.41657,78.09115 -1.0559,1.44403 -3.02907,2.06555 -7.75,2.44113 L 422.5,228.5 422,240 c -0.275,6.325 -0.86406,12.0625 -1.30902,12.75 -0.44496,0.6875 -2.1059,1.25 -3.69098,1.25 -1.58508,0 -3.24602,-0.5625 -3.69098,-1.25 z m 14.44778,-105 c 0.20399,-55.405558 -0.002,-69.781916 -1,-69.905191 -3.51586,-0.434142 -17.48454,-0.55194 -19.0068,-0.160284 -1.64549,0.423361 -1.75,4.586819 -1.75,69.716195 0,38.09627 0.31475,69.5807 0.69945,69.96539 0.38469,0.3847 5.22219,0.5722 10.75,0.41667 L 427.5,217.5 Z"
         id="path1153" />
      <path
         style="fill:#70dab4"
         d="M 86.556704,479.77749 C 85.635043,478.46164 85,475.44573 85,472.38448 85,466.45873 84.42339,466 76.974917,466 68.659331,466 69,468.0718 69,417.5 c 0,-50.80804 -0.39695,-48.48965 8.306704,-48.51531 2.856313,-0.008 5.705161,-0.34592 6.330775,-0.75 0.644293,-0.41615 1.298706,-4.33002 1.509332,-9.02693 0.392227,-8.74656 1.165469,-10.16201 5.568005,-10.19245 C 93.857966,348.99358 95,351.85026 95,359.73426 c 0,4.00669 0.499708,7.36545 1.2,8.06574 0.66,0.66 3.794167,1.2 6.96482,1.2 4.67605,0 5.96032,0.36531 6.8,1.93426 C 110.63404,372.18471 111,388.64673 111,417.5 c 0,28.85327 -0.36596,45.31529 -1.03518,46.56574 C 109.15197,465.58457 107.84918,466 103.89907,466 96.259366,466 95,467.05624 95,473.46376 95,479.22126 93.367595,482 89.985275,482 c -1.029527,0 -2.572384,-1.00013 -3.428571,-2.22251 z M 100.5,417.5 v -39 l -9.350715,-0.28886 c -6.034987,-0.18643 -9.846896,0.12294 -10.75,0.87245 -1.951866,1.6199 -2.096451,76.45869 -0.149285,77.27159 0.6875,0.28702 5.525,0.43702 10.75,0.33334 L 100.5,456.5 Z m 59.5,15.52361 c -1.19284,-0.7521 -1.60239,-4.17897 -2,-16.73469 L 157.5,400.5 150.90007,400 c -3.62995,-0.275 -7.34245,-1.1176 -8.25,-1.87244 C 141.1547,396.88378 141,391.79144 141,343.81181 c 0,-34.5828 0.359,-53.61408 1.03518,-54.87755 C 142.84803,287.41543 144.15082,287 148.10093,287 157.0462,287 157,287.08763 157,270.1198 c 0,-13.35637 0.18925,-14.98109 1.92834,-16.55495 2.47345,-2.23844 5.86178,-1.24707 7.12894,2.08582 C 166.57578,257.01441 167,264.35276 167,271.95811 167,287.553 166.70373,287 175.05873,287 c 8.43818,0 8.0339,-3.00247 7.7173,57.31479 -0.20793,39.61215 -0.57575,52.88597 -1.49084,53.80061 -0.66814,0.66782 -3.81814,1.4253 -7,1.68329 -3.18185,0.25799 -6.1158,0.97132 -6.51988,1.58519 -0.40408,0.61387 -0.74158,7.73779 -0.75,15.83094 -0.0141,13.51597 -0.1729,14.79915 -1.94957,15.75 -2.36284,1.26455 -3.1391,1.27356 -5.06574,0.0588 z m 12.76028,-88.90876 c 0.19113,-33.32597 -0.0483,-45.75693 -0.90098,-46.78439 -0.88031,-1.0607 -3.4837,-1.33043 -10.76029,-1.11485 L 151.5,296.5 151.23932,342 c -0.14338,25.025 -0.0389,46.07833 0.23211,46.78518 0.36736,0.95803 3.10655,1.21259 10.76069,1 L 172.5,389.5 Z M 232.2,359.8 c -0.80238,-0.80238 -1.2,-5.24849 -1.2,-13.41821 0,-6.72002 -0.27314,-12.93002 -0.60699,-13.8 C 229.9357,331.39005 228.35047,331 223.96444,331 c -3.95901,0 -6.32435,-0.50277 -7.39301,-1.57143 C 215.16671,328.02385 215,318.5368 215,240 c 0,-78.5368 0.16671,-88.02385 1.57143,-89.42857 1.06866,-1.06866 3.434,-1.57143 7.39301,-1.57143 4.38603,0 5.97126,-0.39005 6.42857,-1.58179 C 230.72686,146.54823 231,138.31323 231,129.11821 231,111.57656 231.37109,110 235.5,110 c 4.12891,0 4.5,1.57656 4.5,19.11821 0,9.19502 0.27314,17.43002 0.60699,18.3 0.45731,1.19174 2.04254,1.58179 6.42857,1.58179 3.95901,0 6.32435,0.50277 7.39301,1.57143 C 255.83329,151.97615 256,161.4632 256,240 c 0,78.5368 -0.16671,88.02385 -1.57143,89.42857 -1.06866,1.06866 -3.434,1.57143 -7.39301,1.57143 -4.38603,0 -5.97126,0.39005 -6.42857,1.58179 C 240.27314,333.45177 240,339.66177 240,346.38179 240,359.2092 239.44873,361 235.5,361 c -1.155,0 -2.64,-0.54 -3.3,-1.2 z m 14.19301,-40.38179 c 0.79319,-2.06702 0.79319,-156.7694 0,-158.83642 -0.89875,-2.3421 -20.88727,-2.3421 -21.78602,0 -0.79319,2.06702 -0.79319,156.7694 0,158.83642 C 225.10605,320.71873 227.04298,321 235.5,321 c 8.45702,0 10.39395,-0.28127 10.89301,-1.58179 z m 107.47943,20.92908 c -0.8433,-1.01551 -1.50839,-4.87099 -1.72506,-10 L 351.79477,322 h -5.67488 c -3.51774,0 -6.5197,-0.59174 -7.89738,-1.5567 -2.21973,-1.55476 -2.22251,-1.59763 -2.22251,-34.3 0,-24.13368 0.31553,-33.05883 1.2,-33.9433 0.66,-0.66 3.72,-1.2 6.8,-1.2 3.08,0 6.14,-0.54 6.8,-1.2 0.72631,-0.72631 1.2,-4.25079 1.2,-8.92857 C 352,233.08221 353.25213,230 356.41644,230 359.60996,230 361,233.55483 361,241.72175 c 0,9.21978 0.0539,9.27825 8.5466,9.27825 4.29859,0 5.59158,0.38967 6.41822,1.93426 0.65086,1.21615 1.03518,13.65328 1.03518,33.5 0,30.23241 -0.0845,31.65022 -2,33.56574 -1.51515,1.51515 -3.33333,2 -7.5,2 H 362 v 7.77749 c 0,5.42078 -0.47171,8.45096 -1.5567,10 -1.84228,2.63023 -4.65713,2.87432 -6.57086,0.5698 z M 367.78195,288 c 0.15507,-12.925 0.0302,-24.5276 -0.27748,-25.78355 -0.54489,-2.22426 -0.83785,-2.27619 -11.28194,-2 L 345.5,260.5 l -0.2683,24.48111 c -0.14757,13.46461 -0.0433,25.06742 0.23167,25.78402 0.37764,0.98413 3.1346,1.23342 11.2683,1.01889 L 367.5,311.5 Z M 308,266.0238 c -1.06071,-0.66865 -1.64643,-3.37309 -2,-9.23468 L 305.5,248.5 299.40149,248 C 289.24593,247.16737 290,250.85691 290,202 c 0,-48.85691 -0.75407,-45.16737 9.40149,-46 L 305.5,155.5 306,145.21043 c 0.49179,-10.12058 1.2526,-12.1798 4.5,-12.1798 3.2474,0 4.00821,2.05922 4.5,12.1798 l 0.5,10.28957 6.09851,0.5 C 331.75407,156.83263 331,153.14309 331,202 c 0,48.85691 0.75407,45.16737 -9.40149,46 l -6.09851,0.5 -0.5,8.28912 c -0.48498,8.04004 -1.43102,10.18025 -4.5,10.18025 -0.55,0 -1.675,-0.4255 -2.5,-0.94557 z M 320.32343,237.75 c 1.56029,-1.14344 1.68314,-4.23369 1.44113,-36.25 L 321.5,166.5 h -11 -11 l -0.26456,35 c -0.24201,32.01631 -0.11916,35.10656 1.44113,36.25 1.03333,0.75726 4.90561,1.25 9.82343,1.25 4.91782,0 8.7901,-0.49274 9.82343,-1.25 z m 92.98559,15 C 412.86406,252.0625 412.275,246.325 412,240 l -0.5,-11.5 -6.33343,-0.50386 c -4.72093,-0.37558 -6.6941,-0.9971 -7.75,-2.44113 C 396.22406,223.92416 396,211.66222 396,148.03138 c 0,-66.092216 0.19139,-75.859613 1.52371,-77.761772 1.23845,-1.768138 2.68936,-2.231026 7.75,-2.472506 L 411.5,67.5 412,52 c 0.275,-8.525 0.86406,-16.0625 1.30902,-16.75 1.04827,-1.619663 6.33369,-1.619663 7.38196,0 C 421.13594,35.9375 421.725,43.475 422,52 l 0.5,15.5 5.98412,0.306889 C 438.94893,68.343566 438,60.400132 438,147.46386 c 0,64.12045 -0.22384,76.46 -1.41657,78.09115 -1.0559,1.44403 -3.02907,2.06555 -7.75,2.44113 L 422.5,228.5 422,240 c -0.275,6.325 -0.86406,12.0625 -1.30902,12.75 -0.44496,0.6875 -2.1059,1.25 -3.69098,1.25 -1.58508,0 -3.24602,-0.5625 -3.69098,-1.25 z m 14.44778,-105 c 0.20399,-55.405558 -0.002,-69.781916 -1,-69.905191 -3.51586,-0.434142 -17.48454,-0.55194 -19.0068,-0.160284 -1.64549,0.423361 -1.75,4.586819 -1.75,69.716195 0,38.09627 0.31475,69.5807 0.69945,69.96539 0.38469,0.3847 5.22219,0.5722 10.75,0.41667 L 427.5,217.5 Z"
         id="path1151" />
      <path
         style="fill:#e97882"
         d="m 87.178776,479.71541 c -0.586362,-0.70652 -1.203963,-3.96902 -1.372445,-7.25 L 85.5,466.5 79.401492,466 C 69.220369,465.16528 70,469.1872 70,417.5 70,365.8128 69.220369,369.83472 79.401492,369 L 85.5,368.5 l 0.254332,-7 c 0.139883,-3.85 0.473499,-7.96286 0.741369,-9.1397 0.606405,-2.66413 3.04205,-3.67806 5.576741,-2.32153 C 93.708649,350.91444 94,352.18631 94,358.4534 94,368.56212 94.250852,369 100.04189,369 c 2.65535,0 5.98221,0.43886 7.39301,0.97525 L 110,370.9505 v 46.48957 C 110,470.50231 110.86479,466 100.67273,466 94.500471,466 94,466.56252 94,473.5 c 0,2.38503 -0.273145,5.04823 -0.606989,5.91821 -0.729853,1.90197 -4.723867,2.09298 -6.214235,0.2972 z m 13.825864,-23.32005 c 0.66655,-0.66655 0.92876,-14.3264 0.75742,-39.45742 L 101.5,378.5 90.580986,378.21445 c -8.062443,-0.21084 -11.132406,0.0508 -11.734687,1 -1.01415,1.59836 -1.091836,74.87205 -0.08099,76.38561 0.404078,0.60503 1.409687,1.31891 2.234687,1.5864 2.737867,0.88772 18.96765,0.24589 20.004644,-0.7911 z M 160,432.02198 c -1.19272,-0.75332 -1.60243,-4.18145 -2,-16.73469 L 157.5,399.5 l -6.46165,-0.30321 c -3.55391,-0.16677 -7.04141,-0.78437 -7.75,-1.37245 C 142.26641,396.97621 142,385.62141 142,342.91274 142,281.4796 141.0791,287 151.32727,287 c 4.05518,0 5.61482,-0.40672 6.06574,-1.58179 C 157.72686,284.54823 158,277.43823 158,269.61821 158,254.98647 158.495,253 162.14098,253 c 0.95754,0 2.10504,0.5625 2.55,1.25 0.44496,0.6875 1.03402,8.225 1.30902,16.75 l 0.5,15.5 6.09851,0.5 c 10.24441,0.83991 9.40365,-4.16485 9.38618,55.87244 -0.009,31.40539 -0.39754,53.23221 -0.96318,54.127 -0.61197,0.96808 -3.17571,1.67682 -7.23469,2 L 167.5,399.5 167,415 c -0.275,8.525 -0.86406,16.0625 -1.30902,16.75 -0.95542,1.47622 -3.58533,1.6019 -5.69098,0.27198 z m 12.96482,-42.95624 c 1.31759,-2.46194 1.40022,-89.94031 0.0869,-92.01628 -1.08275,-1.71153 -18.41611,-2.4551 -21.30173,-0.91382 -1.62756,0.86933 -1.75,4.13676 -1.75,46.69954 0,34.26153 0.30163,46.06645 1.2,46.96482 0.76948,0.76948 4.70329,1.2 10.96482,1.2 8.63073,0 9.88504,-0.22464 10.8,-1.93426 z m 59.90762,-29.71603 c -0.95175,-1.14443 -1.5257,-5.81901 -1.87244,-15.25 L 230.5,330.5 l -5,-0.26131 c -2.75,-0.14373 -6.0125,-0.4898 -7.25,-0.76906 L 216,328.9619 V 240 151.0381 l 2.25,-0.50773 c 1.2375,-0.27926 4.5,-0.62533 7.25,-0.76906 l 5,-0.26131 0.5,-18 c 0.275,-9.9 0.86406,-18.5625 1.30902,-19.25 1.04645,-1.61686 5.33551,-1.61686 6.38196,0 0.44496,0.6875 1.03402,9.35 1.30902,19.25 l 0.5,18 6.79249,0.29666 c 6.24451,0.27272 6.87105,0.50327 7.76623,2.8578 1.20173,3.16077 0.82178,174.79788 -0.38963,176.01245 -0.45701,0.4582 -3.83201,1.05809 -7.5,1.33309 L 240.5,330.5 240,344.10134 c -0.34679,9.43362 -0.92054,14.10652 -1.87244,15.25 -1.74454,2.09564 -3.5114,2.09509 -5.25512,-0.002 z M 246.5,240 v -81.5 h -11 -11 l -0.25836,80.5 c -0.14209,44.275 -0.0378,81.07781 0.23167,81.78402 0.36663,0.96067 3.20174,1.21249 11.25836,1 L 246.5,321.5 Z m 107.37244,100.34729 c -0.8433,-1.01551 -1.50839,-4.87099 -1.72506,-10 L 351.79477,322 h -5.67488 c -3.51774,0 -6.5197,-0.59174 -7.89738,-1.5567 -2.21973,-1.55476 -2.22251,-1.59763 -2.22251,-34.3 0,-24.13368 0.31553,-33.05883 1.2,-33.9433 0.66,-0.66 3.72,-1.2 6.8,-1.2 3.08,0 6.14,-0.54 6.8,-1.2 0.72631,-0.72631 1.2,-4.25079 1.2,-8.92857 C 352,233.08221 353.25213,230 356.41644,230 359.60996,230 361,233.55483 361,241.72175 c 0,9.21978 0.0539,9.27825 8.5466,9.27825 4.29859,0 5.59158,0.38967 6.41822,1.93426 0.65086,1.21615 1.03518,13.65328 1.03518,33.5 0,30.23241 -0.0845,31.65022 -2,33.56574 -1.51515,1.51515 -3.33333,2 -7.5,2 H 362 v 7.77749 c 0,5.42078 -0.47171,8.45096 -1.5567,10 -1.84228,2.63023 -4.65713,2.87432 -6.57086,0.5698 z M 367.78195,288 c 0.15507,-12.925 0.0302,-24.5276 -0.27748,-25.78355 -0.54489,-2.22426 -0.83785,-2.27619 -11.28194,-2 L 345.5,260.5 l -0.2683,24.48111 c -0.14757,13.46461 -0.0433,25.06742 0.23167,25.78402 0.37764,0.98413 3.1346,1.23342 11.2683,1.01889 L 367.5,311.5 Z M 308,266.0238 c -1.06071,-0.66865 -1.64643,-3.37309 -2,-9.23468 L 305.5,248.5 299.40149,248 C 289.24593,247.16737 290,250.85691 290,202 c 0,-48.85691 -0.75407,-45.16737 9.40149,-46 L 305.5,155.5 306,145.21043 c 0.49179,-10.12058 1.2526,-12.1798 4.5,-12.1798 3.2474,0 4.00821,2.05922 4.5,12.1798 l 0.5,10.28957 6.09851,0.5 C 331.75407,156.83263 331,153.14309 331,202 c 0,48.85691 0.75407,45.16737 -9.40149,46 l -6.09851,0.5 -0.5,8.28912 c -0.48498,8.04004 -1.43102,10.18025 -4.5,10.18025 -0.55,0 -1.675,-0.4255 -2.5,-0.94557 z M 320.32343,237.75 c 1.56029,-1.14344 1.68314,-4.23369 1.44113,-36.25 L 321.5,166.5 h -11 -11 l -0.26456,35 c -0.24201,32.01631 -0.11916,35.10656 1.44113,36.25 1.03333,0.75726 4.90561,1.25 9.82343,1.25 4.91782,0 8.7901,-0.49274 9.82343,-1.25 z M 415,253.02412 c -1.15182,-0.72583 -1.61606,-3.7979 -2,-13.23468 L 412.5,227.5 406,227 c -3.575,-0.275 -7.0625,-0.86406 -7.75,-1.30902 C 396.46608,224.53641 396.41702,71.982975 398.2,70.2 398.86,69.54 401.58958,69 404.26574,69 413.03129,69 413,69.060775 413,52.036245 c 0,-12.20611 0.28354,-15.176927 1.57143,-16.464816 1.85909,-1.85909 1.99275,-1.875039 4.49431,-0.536245 C 420.85028,35.990241 421,37.269309 421,51.559935 v 15.489567 l 2.5651,0.975249 c 1.4108,0.536387 4.4708,0.975249 6.8,0.975249 2.32919,0 4.7749,0.54 5.4349,1.2 1.7373,1.737296 1.7373,153.8627 0,155.6 -0.66,0.66 -3.72,1.2 -6.8,1.2 -3.08,0 -6.14,0.54 -6.8,1.2 -0.7913,0.7913 -1.2,5.03663 -1.2,12.46482 0,10.11373 -0.19765,11.37059 -1.93426,12.3 -2.31963,1.24142 -2.19279,1.23957 -4.06574,0.0593 z m 12.88444,-35.38488 c 0.82071,-0.9889 1.05913,-20.32339 0.87245,-70.75 L 428.5,77.5 417.58099,77.214454 c -8.06245,-0.210843 -11.13241,0.05077 -11.73469,1 -0.44862,0.70705 -0.82257,32.133046 -0.83099,69.835546 -0.0116,52.00064 0.27439,68.8397 1.18469,69.75 1.76625,1.76625 20.19858,1.6296 21.68444,-0.16076 z"
         id="path1149" />
      <path
         style="fill:#53d3a5"
         d="m 87.178776,479.71541 c -0.586362,-0.70652 -1.203963,-3.96902 -1.372445,-7.25 L 85.5,466.5 79.401492,466 C 69.220369,465.16528 70,469.1872 70,417.5 70,365.8128 69.220369,369.83472 79.401492,369 L 85.5,368.5 l 0.254332,-7 c 0.139883,-3.85 0.473499,-7.96286 0.741369,-9.1397 0.606405,-2.66413 3.04205,-3.67806 5.576741,-2.32153 C 93.708649,350.91444 94,352.18631 94,358.4534 94,368.56212 94.250852,369 100.04189,369 c 2.65535,0 5.98221,0.43886 7.39301,0.97525 L 110,370.9505 v 46.48957 C 110,470.50231 110.86479,466 100.67273,466 94.500471,466 94,466.56252 94,473.5 c 0,2.38503 -0.273145,5.04823 -0.606989,5.91821 -0.729853,1.90197 -4.723867,2.09298 -6.214235,0.2972 z m 13.825864,-23.32005 c 0.66655,-0.66655 0.92876,-14.3264 0.75742,-39.45742 L 101.5,378.5 90.580986,378.21445 c -8.062443,-0.21084 -11.132406,0.0508 -11.734687,1 -1.01415,1.59836 -1.091836,74.87205 -0.08099,76.38561 0.404078,0.60503 1.409687,1.31891 2.234687,1.5864 2.737867,0.88772 18.96765,0.24589 20.004644,-0.7911 z M 160,432.02198 c -1.19272,-0.75332 -1.60243,-4.18145 -2,-16.73469 L 157.5,399.5 l -6.46165,-0.30321 c -3.55391,-0.16677 -7.04141,-0.78437 -7.75,-1.37245 C 142.26641,396.97621 142,385.62141 142,342.91274 142,281.4796 141.0791,287 151.32727,287 c 4.05518,0 5.61482,-0.40672 6.06574,-1.58179 C 157.72686,284.54823 158,277.43823 158,269.61821 158,254.98647 158.495,253 162.14098,253 c 0.95754,0 2.10504,0.5625 2.55,1.25 0.44496,0.6875 1.03402,8.225 1.30902,16.75 l 0.5,15.5 6.09851,0.5 c 10.24441,0.83991 9.40365,-4.16485 9.38618,55.87244 -0.009,31.40539 -0.39754,53.23221 -0.96318,54.127 -0.61197,0.96808 -3.17571,1.67682 -7.23469,2 L 167.5,399.5 167,415 c -0.275,8.525 -0.86406,16.0625 -1.30902,16.75 -0.95542,1.47622 -3.58533,1.6019 -5.69098,0.27198 z m 12.96482,-42.95624 c 1.31759,-2.46194 1.40022,-89.94031 0.0869,-92.01628 -1.08275,-1.71153 -18.41611,-2.4551 -21.30173,-0.91382 -1.62756,0.86933 -1.75,4.13676 -1.75,46.69954 0,34.26153 0.30163,46.06645 1.2,46.96482 0.76948,0.76948 4.70329,1.2 10.96482,1.2 8.63073,0 9.88504,-0.22464 10.8,-1.93426 z m 59.90762,-29.71603 c -0.95175,-1.14443 -1.5257,-5.81901 -1.87244,-15.25 L 230.5,330.5 l -5,-0.26131 c -2.75,-0.14373 -6.0125,-0.4898 -7.25,-0.76906 L 216,328.9619 V 240 151.0381 l 2.25,-0.50773 c 1.2375,-0.27926 4.5,-0.62533 7.25,-0.76906 l 5,-0.26131 0.5,-18 c 0.275,-9.9 0.86406,-18.5625 1.30902,-19.25 1.04645,-1.61686 5.33551,-1.61686 6.38196,0 0.44496,0.6875 1.03402,9.35 1.30902,19.25 l 0.5,18 6.79249,0.29666 c 6.24451,0.27272 6.87105,0.50327 7.76623,2.8578 1.20173,3.16077 0.82178,174.79788 -0.38963,176.01245 -0.45701,0.4582 -3.83201,1.05809 -7.5,1.33309 L 240.5,330.5 240,344.10134 c -0.34679,9.43362 -0.92054,14.10652 -1.87244,15.25 -1.74454,2.09564 -3.5114,2.09509 -5.25512,-0.002 z M 246.5,240 v -81.5 h -11 -11 l -0.25836,80.5 c -0.14209,44.275 -0.0378,81.07781 0.23167,81.78402 0.36663,0.96067 3.20174,1.21249 11.25836,1 L 246.5,321.5 Z m 107.80902,99.75 C 353.86406,339.0625 353.275,334.675 353,330 l -0.5,-8.5 -6.66384,-0.29373 c -3.98638,-0.17571 -7.10581,-0.82626 -7.76384,-1.61913 -0.76296,-0.91931 -1.01915,-11.39982 -0.83615,-34.20627 L 337.5,252.5 344.28751,252 c 4.51243,-0.33241 7.105,-1.00278 7.73469,-2 0.52095,-0.825 0.95407,-5.18218 0.96249,-9.68261 0.0138,-7.36117 0.2209,-8.24787 2.0633,-8.83262 C 358.8696,230.27184 360,232.57794 360,241.58726 360,251.35371 360.57892,252 369.32727,252 c 4.05518,0 5.61482,0.40672 6.06574,1.58179 0.33385,0.86998 0.60699,15.91842 0.60699,33.44098 0,24.39131 -0.293,32.04791 -1.25,32.66428 -0.6875,0.4428 -3.95,1.03185 -7.25,1.30902 l -6,0.50393 -0.29368,8.45016 c -0.16152,4.64759 -0.77912,9.03509 -1.37244,9.75 -1.37096,1.6519 -4.46989,1.67986 -5.52486,0.0498 z m 13.6558,-28.68426 C 368.59281,309.89232 369,300.03277 369,286 c 0,-14.03277 -0.40719,-23.89232 -1.03518,-25.06574 -0.92025,-1.71949 -2.17494,-1.93426 -11.3,-1.93426 -6.65042,0 -10.68736,0.42254 -11.46482,1.2 -1.30047,1.30047 -1.80746,50.85921 -0.53333,52.13333 C 345.03333,312.7 350.1925,313 356.13148,313 c 9.65236,0 10.908,-0.20524 11.83334,-1.93426 z M 308.25,265.33772 c -0.84843,-0.34235 -1.25,-2.98339 -1.25,-8.22105 0,-4.66852 -0.47401,-8.19068 -1.2,-8.91667 -0.66,-0.66 -3.72,-1.2 -6.8,-1.2 -3.08,0 -6.14,-0.54 -6.8,-1.2 -1.72564,-1.72564 -1.72564,-85.87436 0,-87.6 0.66,-0.66 3.72,-1.2 6.8,-1.2 3.08,0 6.14,-0.54 6.8,-1.2 0.77059,-0.77059 1.2,-4.71809 1.2,-11.03138 0,-8.17957 0.27486,-9.93686 1.63592,-10.45915 3.70739,-1.42266 4.85032,0.95942 5.1542,10.74231 0.15956,5.13699 0.77716,9.92683 1.37244,10.6441 0.65726,0.79194 3.31212,1.30412 6.75988,1.30412 3.12266,0 6.21756,0.54 6.87756,1.2 1.72564,1.72564 1.72564,85.87436 0,87.6 -0.66,0.66 -3.72,1.2 -6.8,1.2 -3.08,0 -6.14,0.54 -6.8,1.2 -0.70798,0.70798 -1.2,4.11111 -1.2,8.3 0,8.42744 -1.40709,10.59012 -5.75,8.83772 z m 14.14301,-27.91951 c 0.79246,-2.06511 0.79246,-68.77131 0,-70.83642 -0.90185,-2.35019 -22.88417,-2.35019 -23.78602,0 C 298.27314,167.45177 298,183.38997 298,202 c 0,18.61003 0.27314,34.54823 0.60699,35.41821 C 299.11087,238.7313 301.13111,239 310.5,239 c 9.36889,0 11.38913,-0.2687 11.89301,-1.58179 z M 415,253.02412 c -1.15182,-0.72583 -1.61606,-3.7979 -2,-13.23468 L 412.5,227.5 406,227 c -3.575,-0.275 -7.0625,-0.86406 -7.75,-1.30902 C 396.46608,224.53641 396.41702,71.982975 398.2,70.2 398.86,69.54 401.58958,69 404.26574,69 413.03129,69 413,69.060775 413,52.036245 c 0,-12.20611 0.28354,-15.176927 1.57143,-16.464816 1.85909,-1.85909 1.99275,-1.875039 4.49431,-0.536245 C 420.85028,35.990241 421,37.269309 421,51.559935 v 15.489567 l 2.5651,0.975249 c 1.4108,0.536387 4.4708,0.975249 6.8,0.975249 2.32919,0 4.7749,0.54 5.4349,1.2 1.7373,1.737296 1.7373,153.8627 0,155.6 -0.66,0.66 -3.72,1.2 -6.8,1.2 -3.08,0 -6.14,0.54 -6.8,1.2 -0.7913,0.7913 -1.2,5.03663 -1.2,12.46482 0,10.11373 -0.19765,11.37059 -1.93426,12.3 -2.31963,1.24142 -2.19279,1.23957 -4.06574,0.0593 z m 12.88444,-35.38488 c 0.82071,-0.9889 1.05913,-20.32339 0.87245,-70.75 L 428.5,77.5 417.58099,77.214454 c -8.06245,-0.210843 -11.13241,0.05077 -11.73469,1 -0.44862,0.70705 -0.82257,32.133046 -0.83099,69.835546 -0.0116,52.00064 0.27439,68.8397 1.18469,69.75 1.76625,1.76625 20.19858,1.6296 21.68444,-0.16076 z"
         id="path1147" />
      <path
         style="fill:#37cd97"
         d="M 87.666667,479.33333 C 87.3,478.96667 87,476.13167 87,473.03333 87,469.935 86.46,466.86 85.8,466.2 85.14,465.54 82.08,465 79,465 c -3.08,0 -6.14,-0.54 -6.8,-1.2 -1.727098,-1.7271 -1.727098,-90.8729 0,-92.6 0.66,-0.66 3.7549,-1.2 6.877555,-1.2 3.432686,0 6.103289,-0.51298 6.754289,-1.29738 0.592203,-0.71357 1.209803,-4.82877 1.372444,-9.1449 0.230733,-6.12312 0.674205,-8.08541 2.018188,-8.93014 2.890842,-1.81698 4.030903,0.63849 4.675763,10.07066 L 94.5,369.5 l 5,0.26131 c 2.75,0.14373 6.0125,0.4898 7.25,0.76906 L 109,371.0381 V 417.5 463.9619 l -2.25,0.50773 c -1.2375,0.27926 -4.5,0.62533 -7.25,0.76906 -4.764993,0.24903 -5.012116,0.40231 -5.257786,3.26131 -0.869215,10.11552 -1.30705,11.5 -3.63682,11.5 -1.249633,0 -2.572061,-0.3 -2.938727,-0.66667 z M 102.39301,456.41821 C 102.72686,455.54823 103,437.82833 103,417.04066 103,385.935 102.75316,379.04003 101.60548,378.08754 100.6874,377.3256 96.502244,377.02753 89.355483,377.2151 L 78.5,377.5 78.238027,416.49761 c -0.144085,21.44868 -0.04571,39.56118 0.218615,40.25 0.346154,0.90206 3.676319,1.25239 11.904984,1.25239 9.495065,0 11.526904,-0.26713 12.031384,-1.58179 z m 57.21398,-26 C 159.27314,429.54823 159,422.1318 159,413.93726 c 0,-16.98558 0.81099,-15.66576 -9.94095,-16.17803 -5.23095,-0.24922 -5.47353,-0.38564 -6.2851,-3.53434 -1.07992,-4.18985 -0.5511,-103.78204 0.55696,-104.89232 0.45701,-0.45791 3.83201,-1.05757 7.5,-1.33257 L 157.5,287.5 158,271.79643 c 0.51324,-16.11936 1.0903,-18.30986 4.64378,-17.6276 1.69796,0.32601 1.87984,1.67089 2.13324,15.77387 0.16694,9.29128 0.71229,15.94195 1.37244,16.73739 0.67191,0.8096 3.29051,1.31991 6.77298,1.31991 3.12266,0 6.21756,0.54 6.87756,1.2 0.90269,0.90269 1.2,14.13738 1.2,53.41821 0,28.72002 -0.27314,52.93002 -0.60699,53.8 -0.45514,1.18607 -2.03121,1.58179 -6.3,1.58179 -3.13115,0 -6.23301,0.54 -6.89301,1.2 -0.8208,0.8208 -1.2,5.69294 -1.2,15.41821 0,7.82002 -0.27314,14.93002 -0.60699,15.8 C 165.05917,431.2882 163.75731,432 162.5,432 c -1.25731,0 -2.55917,-0.7118 -2.89301,-1.58179 z m 13.44236,-40.06756 c 0.60749,-0.60749 0.87339,-18.53368 0.71066,-47.91066 L 173.5,295.5 162.08024,295.21566 c -8.46341,-0.21073 -11.63073,0.0481 -12.23469,1 -1.01357,1.59741 -1.09114,91.87076 -0.0802,93.3844 0.40408,0.60503 1.40969,1.34495 2.23469,1.64427 2.47342,0.89739 20.0025,0.15317 21.04935,-0.89368 z M 233.2,358.8 C 232.38729,357.98729 232,353.31893 232,344.33518 232,329.02286 231.9861,329 222.67273,329 c -4.05518,0 -5.61482,-0.40672 -6.06574,-1.58179 -0.79324,-2.06716 -0.79324,-172.76926 0,-174.83642 C 217.05791,151.40672 218.61755,151 222.67273,151 232.25001,151 232,151.52171 232,131.53624 c 0,-14.46951 0.26383,-17.65721 1.56945,-18.96283 1.18468,-1.18468 2.04273,-1.31615 3.5,-0.53624 C 238.86665,112.999 239,114.30881 239,131 c 0,20.59327 -0.27668,20 9.32727,20 4.05518,0 5.61482,0.40672 6.06574,1.58179 0.79324,2.06716 0.79324,172.76926 0,174.83642 C 253.94209,328.59328 252.38245,329 248.32727,329 239.0139,329 239,329.02286 239,344.33518 239,357.35744 238.40957,360 235.5,360 c -0.605,0 -1.64,-0.54 -2.3,-1.2 z m 12.86574,-36.83518 c 1.88784,-1.01034 1.93426,-2.97365 1.93426,-81.8 0,-61.48375 -0.28648,-81.0513 -1.2,-81.96482 -1.64034,-1.64034 -20.95966,-1.64034 -22.6,0 -0.91352,0.91352 -1.2,20.47785 -1.2,81.95031 0,75.85009 0.1062,80.81216 1.75,81.76959 2.29903,1.33906 18.83251,1.3739 21.31574,0.0449 z M 354.30902,339.75 C 353.86406,339.0625 353.275,334.675 353,330 l -0.5,-8.5 -6.66384,-0.29373 c -3.98638,-0.17571 -7.10581,-0.82626 -7.76384,-1.61913 -0.76296,-0.91931 -1.01915,-11.39982 -0.83615,-34.20627 L 337.5,252.5 344.28751,252 c 4.51243,-0.33241 7.105,-1.00278 7.73469,-2 0.52095,-0.825 0.95407,-5.18218 0.96249,-9.68261 0.0138,-7.36117 0.2209,-8.24787 2.0633,-8.83262 C 358.8696,230.27184 360,232.57794 360,241.58726 360,251.35371 360.57892,252 369.32727,252 c 4.05518,0 5.61482,0.40672 6.06574,1.58179 0.33385,0.86998 0.60699,15.91842 0.60699,33.44098 0,24.39131 -0.293,32.04791 -1.25,32.66428 -0.6875,0.4428 -3.95,1.03185 -7.25,1.30902 l -6,0.50393 -0.29368,8.45016 c -0.16152,4.64759 -0.77912,9.03509 -1.37244,9.75 -1.37096,1.6519 -4.46989,1.67986 -5.52486,0.0498 z m 13.6558,-28.68426 C 368.59281,309.89232 369,300.03277 369,286 c 0,-14.03277 -0.40719,-23.89232 -1.03518,-25.06574 -0.92025,-1.71949 -2.17494,-1.93426 -11.3,-1.93426 -6.65042,0 -10.68736,0.42254 -11.46482,1.2 -1.30047,1.30047 -1.80746,50.85921 -0.53333,52.13333 C 345.03333,312.7 350.1925,313 356.13148,313 c 9.65236,0 10.908,-0.20524 11.83334,-1.93426 z M 308.25,265.33772 c -0.84843,-0.34235 -1.25,-2.98339 -1.25,-8.22105 0,-4.66852 -0.47401,-8.19068 -1.2,-8.91667 -0.66,-0.66 -3.72,-1.2 -6.8,-1.2 -3.08,0 -6.14,-0.54 -6.8,-1.2 -1.72564,-1.72564 -1.72564,-85.87436 0,-87.6 0.66,-0.66 3.72,-1.2 6.8,-1.2 3.08,0 6.14,-0.54 6.8,-1.2 0.77059,-0.77059 1.2,-4.71809 1.2,-11.03138 0,-8.17957 0.27486,-9.93686 1.63592,-10.45915 3.70739,-1.42266 4.85032,0.95942 5.1542,10.74231 0.15956,5.13699 0.77716,9.92683 1.37244,10.6441 0.65726,0.79194 3.31212,1.30412 6.75988,1.30412 3.12266,0 6.21756,0.54 6.87756,1.2 1.72564,1.72564 1.72564,85.87436 0,87.6 -0.66,0.66 -3.72,1.2 -6.8,1.2 -3.08,0 -6.14,0.54 -6.8,1.2 -0.70798,0.70798 -1.2,4.11111 -1.2,8.3 0,8.42744 -1.40709,10.59012 -5.75,8.83772 z m 14.14301,-27.91951 c 0.79246,-2.06511 0.79246,-68.77131 0,-70.83642 -0.90185,-2.35019 -22.88417,-2.35019 -23.78602,0 C 298.27314,167.45177 298,183.38997 298,202 c 0,18.61003 0.27314,34.54823 0.60699,35.41821 C 299.11087,238.7313 301.13111,239 310.5,239 c 9.36889,0 11.38913,-0.2687 11.89301,-1.58179 z m 92.31584,14.95731 c -0.38987,-0.38987 -0.71574,-5.69635 -0.72416,-11.79219 -0.008,-6.09583 -0.44154,-11.75833 -0.96249,-12.58333 -0.62969,-0.99722 -3.22226,-1.66759 -7.73469,-2 L 398.5,225.5 398.24376,148.60998 C 398.05722,92.637256 398.29456,71.349997 399.1162,70.359985 399.82531,69.505562 402.35547,69 405.92244,69 409.0451,69 412.14,68.46 412.8,67.8 c 0.8283,-0.828296 1.2,-5.918358 1.2,-16.432612 0,-14.331534 0.11778,-15.269995 1.99105,-15.864548 1.09508,-0.347564 2.44508,-0.351331 3,-0.0084 0.60358,0.37303 1.00895,6.452054 1.00895,15.130289 0,8.087508 0.45807,15.362633 1.03518,16.440983 C 421.8773,68.639246 423.16001,69 427.91274,69 c 3.70594,0 6.25511,0.497318 6.97106,1.359985 0.82164,0.990012 1.05898,22.277271 0.87244,78.249995 L 435.5,225.5 428.83091,226 c -3.66799,0.275 -7.04299,0.87302 -7.5,1.32893 -0.457,0.45591 -1.05591,6.30591 -1.33091,13 -0.46415,11.29847 -0.64634,12.19202 -2.54115,12.46325 -1.12263,0.1607 -2.36013,-0.0268 -2.75,-0.41666 z m 14.3336,-34.40996 c 1.33316,-2.10785 1.25808,-137.535507 -0.0776,-140.031301 C 428.0383,76.203039 426.78235,76 417,76 c -9.78235,0 -11.0383,0.203039 -11.96482,1.934259 -1.10822,2.070734 -1.5086,134.698361 -0.4189,138.762181 0.75518,2.81629 1.86582,3.04971 13.69148,2.8775 7.41009,-0.10791 10.03437,-0.50111 10.73469,-1.60838 z"
         id="path1145" />
      <path
         style="fill:#e45361"
         d="M 354.30902,339.75 C 353.86406,339.0625 353.275,334.675 353,330 l -0.5,-8.5 -6.66384,-0.29373 c -3.98638,-0.17571 -7.10581,-0.82626 -7.76384,-1.61913 -0.76296,-0.91931 -1.01915,-11.39982 -0.83615,-34.20627 L 337.5,252.5 344.28751,252 c 4.51243,-0.33241 7.105,-1.00278 7.73469,-2 0.52095,-0.825 0.95407,-5.18218 0.96249,-9.68261 0.0138,-7.36117 0.2209,-8.24787 2.0633,-8.83262 C 358.8696,230.27184 360,232.57794 360,241.58726 360,251.35371 360.57892,252 369.32727,252 c 4.05518,0 5.61482,0.40672 6.06574,1.58179 0.33385,0.86998 0.60699,15.91842 0.60699,33.44098 0,24.39131 -0.293,32.04791 -1.25,32.66428 -0.6875,0.4428 -3.95,1.03185 -7.25,1.30902 l -6,0.50393 -0.29368,8.45016 c -0.16152,4.64759 -0.77912,9.03509 -1.37244,9.75 -1.37096,1.6519 -4.46989,1.67986 -5.52486,0.0498 z m 13.6558,-28.68426 C 368.59281,309.89232 369,300.03277 369,286 c 0,-14.03277 -0.40719,-23.89232 -1.03518,-25.06574 -0.92025,-1.71949 -2.17494,-1.93426 -11.3,-1.93426 -6.65042,0 -10.68736,0.42254 -11.46482,1.2 -1.30047,1.30047 -1.80746,50.85921 -0.53333,52.13333 C 345.03333,312.7 350.1925,313 356.13148,313 c 9.65236,0 10.908,-0.20524 11.83334,-1.93426 z M 308.25,265.33772 c -0.84843,-0.34235 -1.25,-2.98339 -1.25,-8.22105 0,-4.66852 -0.47401,-8.19068 -1.2,-8.91667 -0.66,-0.66 -3.72,-1.2 -6.8,-1.2 -3.08,0 -6.14,-0.54 -6.8,-1.2 -1.72564,-1.72564 -1.72564,-85.87436 0,-87.6 0.66,-0.66 3.72,-1.2 6.8,-1.2 3.08,0 6.14,-0.54 6.8,-1.2 0.77059,-0.77059 1.2,-4.71809 1.2,-11.03138 0,-8.17957 0.27486,-9.93686 1.63592,-10.45915 3.70739,-1.42266 4.85032,0.95942 5.1542,10.74231 0.15956,5.13699 0.77716,9.92683 1.37244,10.6441 0.65726,0.79194 3.31212,1.30412 6.75988,1.30412 3.12266,0 6.21756,0.54 6.87756,1.2 1.72564,1.72564 1.72564,85.87436 0,87.6 -0.66,0.66 -3.72,1.2 -6.8,1.2 -3.08,0 -6.14,0.54 -6.8,1.2 -0.70798,0.70798 -1.2,4.11111 -1.2,8.3 0,8.42744 -1.40709,10.59012 -5.75,8.83772 z m 14.14301,-27.91951 c 0.79246,-2.06511 0.79246,-68.77131 0,-70.83642 -0.90185,-2.35019 -22.88417,-2.35019 -23.78602,0 C 298.27314,167.45177 298,183.38997 298,202 c 0,18.61003 0.27314,34.54823 0.60699,35.41821 C 299.11087,238.7313 301.13111,239 310.5,239 c 9.36889,0 11.38913,-0.2687 11.89301,-1.58179 z"
         id="path1143" />
    </g>
  </g>
</svg>
