<?xml version="1.0" encoding="UTF-8" standalone="no"?>
<!-- Created with Inkscape (http://www.inkscape.org/) -->

<svg
   version="1.1"
   id="svg641"
   width="512"
   height="512"
   viewBox="0 0 512 512"
   xmlns="http://www.w3.org/2000/svg"
   xmlns:svg="http://www.w3.org/2000/svg">
  <defs
     id="defs645" />
  <g
     id="g647">
    <g
       id="g651">
      <path
         style="fill:#dce0e6"
         d="m 362.87244,460.25 c -1.24387,-1.58606 -1.2085,-1.62143 0.37756,-0.37756 1.66575,1.30637 2.19548,2.12756 1.37244,2.12756 -0.20765,0 -0.99515,-0.7875 -1.75,-1.75 z m -31,-41 c -1.24387,-1.58606 -1.2085,-1.62143 0.37756,-0.37756 1.66575,1.30637 2.19548,2.12756 1.37244,2.12756 -0.20765,0 -0.99515,-0.7875 -1.75,-1.75 z M 331,373.62244 c 0,-0.20765 0.7875,-0.99515 1.75,-1.75 1.58606,-1.24387 1.62143,-1.2085 0.37756,0.37756 C 331.82119,373.91575 331,374.44548 331,373.62244 Z M 434.87244,372.25 c -1.24387,-1.58606 -1.2085,-1.62143 0.37756,-0.37756 1.66575,1.30637 2.19548,2.12756 1.37244,2.12756 -0.20765,0 -0.99515,-0.7875 -1.75,-1.75 z M 95.452948,321.75 91.5,317.5 l 4.25,3.95295 c 3.952458,3.6762 4.70953,4.54705 3.952948,4.54705 -0.163379,0 -2.075879,-1.9125 -4.25,-4.25 z m 219.984142,-6 -2.93709,-3.25 3.25,2.93709 c 3.02946,2.73778 3.70965,3.56291 2.93709,3.56291 -0.1721,0 -1.6346,-1.4625 -3.25,-3.25 z M 416,307.62244 c 0,-0.20765 0.7875,-0.99515 1.75,-1.75 1.58606,-1.24387 1.62143,-1.2085 0.37756,0.37756 C 416.82119,307.91575 416,308.44548 416,307.62244 Z m 4,-4 c 0,-0.20765 0.7875,-0.99515 1.75,-1.75 1.58606,-1.24387 1.62143,-1.2085 0.37756,0.37756 C 420.82119,303.91575 420,304.44548 420,303.62244 Z M 238.59322,283.08292 c 8.2056,-28.33024 3.87646,-81.68912 -10.24613,-126.28861 -1.91464,-6.04647 -3.27074,-11.204 -3.01356,-11.46118 0.93697,-0.93697 10.96326,4.89925 15.32733,8.92191 5.49555,5.06563 8.61117,10.25433 11.81702,19.67992 1.35123,3.9728 3.36827,8.69808 4.48231,10.50063 3.25064,5.25964 11.64209,12.49022 17.82174,15.35628 4.89858,2.27191 7.07957,2.656 15.21807,2.68005 9.05877,0.0268 12.35637,-0.70871 71,-15.83566 67.79475,-17.48745 66.53234,-17.28605 77.33945,-12.33839 6.16053,2.82038 11.78714,8.06977 14.63675,13.65548 2.14765,4.20974 5.21661,14.68942 7.5056,25.62967 1.41727,6.77383 1.40681,6.87424 -1.05225,10.09824 -3.31023,4.33992 -13.71985,11.67402 -20.18824,14.22363 -2.86932,1.13097 -39.53492,10.87377 -81.47912,21.65065 -41.94421,10.77688 -86.41587,22.20433 -98.82591,25.39434 l -22.56373,5.80001 z m 192.48573,-4.66625 c 0.048,-1.16495 0.28494,-1.4019 0.60416,-0.60417 0.28887,0.72187 0.25335,1.58438 -0.0789,1.91667 -0.33229,0.33229 -0.56864,-0.25834 -0.52522,-1.3125 z M 431.15789,274 c 0,-1.375 0.22698,-1.9375 0.50439,-1.25 0.27741,0.6875 0.27741,1.8125 0,2.5 -0.27741,0.6875 -0.50439,0.125 -0.50439,-1.25 z M 168.07895,189.41667 c 0.048,-1.16495 0.28494,-1.4019 0.60416,-0.60417 0.28887,0.72187 0.25335,1.58437 -0.0789,1.91667 -0.3323,0.33229 -0.56864,-0.25834 -0.52522,-1.3125 z m 7,0 c 0.048,-1.16495 0.28494,-1.4019 0.60416,-0.60417 0.28887,0.72187 0.25335,1.58437 -0.0789,1.91667 -0.3323,0.33229 -0.56864,-0.25834 -0.52522,-1.3125 z m -23,-16 c 0.048,-1.16495 0.28494,-1.4019 0.60416,-0.60417 0.28887,0.72187 0.25335,1.58437 -0.0789,1.91667 -0.3323,0.33229 -0.56864,-0.25834 -0.52522,-1.3125 z m 15,0 c 0.048,-1.16495 0.28494,-1.4019 0.60416,-0.60417 0.28887,0.72187 0.25335,1.58437 -0.0789,1.91667 -0.3323,0.33229 -0.56864,-0.25834 -0.52522,-1.3125 z M 36.157895,160 c 0,-1.375 0.226973,-1.9375 0.504386,-1.25 0.277412,0.6875 0.277412,1.8125 0,2.5 -0.277413,0.6875 -0.504386,0.125 -0.504386,-1.25 z M 15.924314,141.25 13.5,138.5 l 2.75,2.42431 c 1.5125,1.33338 2.75,2.57088 2.75,2.75 0,0.78428 -0.809799,0.14598 -3.075686,-2.42431 z M 383.26903,0.30700928 c 0.97297,-0.25354341 2.32297,-0.23686912 3,0.037054 C 386.94606,0.61798638 386.15,0.82543099 384.5,0.8050513 382.85,0.7846716 382.29606,0.56055271 383.26903,0.30700928 Z"
         id="path665" />
      <path
         style="fill:#b4e8fc"
         d="m 464,484 v -12 h 8 8 v 12 12 h -8 -8 z M 344,392.0481 V 384 h 28.12383 28.12383 l -0.46103,5.55942 c -0.32826,3.95833 -1.09141,6.1903 -2.64986,7.75 -2.12067,2.12236 -2.9822,2.19986 -27.6628,2.48868 L 344,400.09621 Z M 39.692465,137.02803 c -9.922253,-3.87687 -16.376442,-11.02742 -19.71768,-21.84509 -1.102052,-3.56803 -1.83631,-6.65475 -1.631684,-6.85937 0.62024,-0.62024 11.397732,-3.45411 81.156899,-21.339617 92.13567,-23.622607 142.92181,-36.654193 203,-52.089243 70.92324,-18.22132 72.25,-18.48875 87,-17.536274 15.83357,1.022446 20.01771,2.286753 24.52898,7.411827 10.80666,12.277015 20.93562,32.689546 23.51821,47.395414 1.43283,8.158864 -4.64852,19.812105 -12.39392,23.749538 -2.83003,1.438671 -134.4578,35.875805 -142.457,37.270335 -1.37392,0.23952 -2.21176,-0.88009 -3.51612,-4.69861 -7.22601,-21.15424 -27.09166,-34.737097 -48.60472,-33.232799 -4.64053,0.324487 -35.99676,7.936849 -91.11615,22.120299 -89.507012,23.03216 -90.57927,23.24339 -99.766815,19.65359 z"
         id="path663" />
      <path
         style="fill:#32cafd"
         d="m 105.14462,244.5 c -4.52679,-11.53135 -8.253078,-23.10023 -11.595469,-36 -3.554307,-13.71765 -7.576549,-35.61244 -7.509113,-40.87533 l 0.04004,-3.12467 1.387676,2.55108 c 2.470725,4.54214 9.586499,26.10754 13.016666,39.44892 3.80756,14.80921 7.79258,37.26369 7.32802,41.2913 -0.26622,2.30797 -0.6609,1.82105 -2.66782,-3.2913 z m 195.06034,-91.39423 c -2.91228,-1.00591 -6.96228,-3.16113 -9,-4.78938 -4.05508,-3.24021 -10.46401,-12.03924 -9.93184,-13.63576 0.18373,-0.55117 31.58493,-9.019 69.78046,-18.8174 38.19553,-9.7984 71.17209,-18.586617 73.28123,-19.529371 8.07515,-3.609456 14.69597,-15.720308 13.21238,-24.168182 -2.58932,-14.744188 -12.71039,-35.117086 -23.58113,-47.46689 l -4.00314,-4.54781 3.76854,1.03992 c 7.22868,1.994737 21.01335,8.48574 28.36382,13.356121 9.09591,6.02689 22.1478,18.813768 27.81196,27.247252 6.50557,9.686268 11.69435,21.455316 15.66389,35.528409 1.98927,7.052471 3.46205,12.948631 3.27286,13.102571 -0.1892,0.15394 -9.10515,2.44945 -19.81324,5.10112 C 448.34545,120.64873 445,122.29944 445,127.38359 c 0,2.13358 -0.7445,2.69092 -5.40391,4.04545 -6.84754,1.99064 -6.91148,1.98685 -9.1911,-0.5438 -3.42003,-3.79664 -5.65732,-3.97244 -16.11049,-1.26593 -10.62176,2.75017 -14.2945,5.15284 -14.2945,9.35133 0,2.42908 -0.57236,2.77272 -7.77853,4.67025 l -7.77853,2.04824 -2.60629,-2.84456 C 380.17336,141.02922 378.22724,140 376.45794,140 c -1.52482,0 -15.92058,3.375 -31.99058,7.5 -31.22939,8.01626 -35.65937,8.57731 -44.2624,5.60577 z"
         id="path661" />
      <path
         style="fill:#a0a5a7"
         d="m 385.71348,454.57782 c -10.2045,-2.74419 -16.36451,-11.02727 -17.40173,-23.39931 L 367.70993,424 l 46.89503,-0.01 46.89504,-0.01 5,-2.35788 c 5.95831,-2.8098 8.67418,-5.57483 11.41597,-11.62258 1.97291,-4.35178 2.04083,-6.30333 2.06207,-59.25 L 480,296 h 8 8 v 80 80 l -52.75,-0.0675 c -39.68636,-0.0508 -53.93539,-0.38627 -57.53652,-1.35469 z M 396,398.62244 c 0,-0.20765 0.7875,-0.99515 1.75,-1.75 1.58606,-1.24387 1.62143,-1.2085 0.37756,0.37756 C 396.82119,398.91575 396,399.44548 396,398.62244 Z M 114.69108,315.91877 C 90.983339,300.21541 64.421023,240.69424 56.119857,184.67162 53.984521,170.26075 52.571127,156 53.27819,156 c 0.924735,0 11.286457,-2.0541 12.864771,-2.5503 1.398563,-0.43969 1.745416,0.71567 2.331711,7.76689 2.985594,35.90697 13.352787,74.15652 28.53611,105.28341 10.659948,21.85365 16.035138,27.95384 22.474338,25.50566 4.34458,-1.65181 5.60236,-5.02701 6.2159,-16.68014 1.75335,-33.30211 -9.36983,-85.59844 -25.745269,-121.04301 -2.634465,-5.70229 -3.485005,-8.50814 -2.663187,-8.7856 5.236366,-1.76792 13.323906,-3.28044 13.988276,-2.61607 0.44721,0.44721 2.59614,4.94888 4.77539,10.00371 14.26491,33.08774 23.5588,74.01461 24.66498,108.61545 0.61643,19.28134 -0.53105,30.62925 -4.30529,42.57681 -4.62167,14.63019 -11.69473,18.48563 -21.72484,11.84196 z M 339.5,311.06493 c -9.56192,-2.32784 -16.58033,-10.34686 -18.93961,-21.63985 l -0.64239,-3.07493 30.19744,-7.73097 c 23.78267,-6.08869 30.37044,-7.45356 31.01182,-6.42507 3.19887,5.12951 2.1783,19.8367 -1.87427,27.00986 l -2.93602,5.19683 -14.40848,3.7468 c -14.81838,3.85339 -17.25856,4.17107 -22.40849,2.91733 z M 242.19495,256.5 c 0.0204,-1.65 0.2445,-2.20394 0.49804,-1.23097 0.25354,0.97297 0.23687,2.32297 -0.0371,3 -0.27393,0.67703 -0.48137,-0.11903 -0.46099,-1.76903 z m 0.037,-20.5 c 0,-1.925 0.2058,-2.7125 0.45733,-1.75 0.25152,0.9625 0.25152,2.5375 0,3.5 -0.25153,0.9625 -0.45733,0.175 -0.45733,-1.75 z m -1.15305,-14.58333 c 0.048,-1.16495 0.28494,-1.4019 0.60416,-0.60417 0.28887,0.72187 0.25335,1.58437 -0.0789,1.91667 -0.3323,0.33229 -0.56864,-0.25834 -0.52522,-1.3125 z m 220.61659,-2.4232 c -0.2357,-0.82141 -1.63873,-6.70165 -3.11783,-13.06719 -4.44134,-19.1139 -9.22188,-26.58495 -20.23826,-31.62841 -10.80711,-4.94766 -9.5447,-5.14906 -77.33945,12.33839 -58.64363,15.12695 -61.94123,15.86244 -71,15.83566 -8.1385,-0.0241 -10.31949,-0.40814 -15.21807,-2.68005 -6.17965,-2.86606 -14.5711,-10.09664 -17.82174,-15.35628 -1.11404,-1.80255 -3.13108,-6.52783 -4.48231,-10.50063 -3.20585,-9.42559 -6.32147,-14.61429 -11.81702,-19.67992 -4.90465,-4.52095 -14.17157,-9.67547 -15.69835,-8.73187 -0.52938,0.32718 -0.9775,-0.21919 -0.99582,-1.21415 -0.0183,-0.99496 -2.29839,-7.20902 -5.06682,-13.80902 -2.76842,-6.6 -5.11593,-12.62349 -5.21668,-13.38554 -0.26637,-2.01469 11.46099,-5.10584 19.38867,-5.11056 8.77245,-0.005 14.87089,2.24002 20.96391,7.71817 5.64366,5.07414 6.84848,7.06159 10.60945,17.50119 7.7952,21.6377 24.81702,34.15266 46.35478,34.08143 6.05057,-0.02 13.29774,-1.52061 37.5,-7.76474 16.5,-4.25696 30.77719,-8.15525 31.72708,-8.66286 2.13291,-1.13979 3.77292,-4.08379 3.77292,-6.7728 0,-1.54533 1.01025,-2.28929 4.25,-3.12976 2.3375,-0.60641 5.825,-1.52202 7.75,-2.0347 3.10864,-0.8279 3.69908,-0.66116 5.28039,1.49124 2.72678,3.71155 6.44657,3.99014 16.49869,1.23563 11.2316,-3.0777 13.05203,-4.0604 13.79264,-7.44556 0.32743,-1.49663 0.74168,-3.21344 0.92055,-3.81513 0.17888,-0.6017 2.99869,-1.66134 6.26626,-2.35477 5.83329,-1.23791 5.98827,-1.21353 8.5458,1.344 2.77738,2.77738 5.97101,3.24657 11.43394,1.67982 3.13082,-0.89791 3.25273,-0.81754 4.17157,2.75 0.52057,2.02122 2.78961,10.82707 5.04231,19.56856 5.42028,21.03316 6.33458,27.84395 4.95344,36.89907 -1.67151,10.95893 -9.93099,29.15827 -11.21005,24.70078 z M 164.87244,167.25 c -1.24387,-1.58606 -1.2085,-1.62143 0.37756,-0.37756 1.66575,1.30637 2.19548,2.12756 1.37244,2.12756 -0.20765,0 -0.99515,-0.7875 -1.75,-1.75 z M 36.157895,156 c 0,-1.375 0.226973,-1.9375 0.504386,-1.25 0.277412,0.6875 0.277412,1.8125 0,2.5 -0.277413,0.6875 -0.504386,0.125 -0.504386,-1.25 z M 264.87244,107.25 c -1.24387,-1.58606 -1.2085,-1.62143 0.37756,-0.37756 1.66575,1.30637 2.19548,2.12756 1.37244,2.12756 -0.20765,0 -0.99515,-0.7875 -1.75,-1.75 z m -43,-98 C 220.62857,7.6639444 220.66394,7.6285741 222.25,8.8724447 223.91575,10.178814 224.44548,11 223.62244,11 c -0.20765,0 -0.99515,-0.7875 -1.75,-1.75 z"
         id="path659" />
      <path
         style="fill:#75838b"
         d="m 480,484 v -12 h 8 8 v 12 12 h -8 -8 z m -10,-64.31291 c 0,-0.1721 1.4625,-1.6346 3.25,-3.25 l 3.25,-2.93709 -2.93709,3.25 C 470.82513,419.77946 470,420.45965 470,419.68709 Z M 344,404 v -4 h 25.54545 25.54546 l 2.45454,-2.45455 c 2.0159,-2.01589 2.45455,-3.44556 2.45455,-8 V 384 h 12 12 v 12 12 h -40 -40 z m 32.01379,-37.95895 c -16.82236,-5.8065 -21.05221,-28.02001 -7.5868,-39.8428 C 371.68486,323.3378 380.07104,320 384,320 c 3.92896,0 12.31514,3.3378 15.57301,6.19825 5.4312,4.76866 7.78742,10.15488 7.78742,17.80175 0,11.03336 -6.13641,19.37115 -16.52784,22.45707 -6.5676,1.95037 -8.08655,1.90773 -14.8188,-0.41602 z m 11.37157,-15.17077 c 5.83591,-2.65902 5.49405,-11.43495 -0.54285,-13.93551 -6.41073,-2.65542 -12.51424,3.6151 -9.82897,10.09792 1.774,4.28282 5.9795,5.83887 10.37182,3.83759 z M 122.8125,319.31689 c 0.72187,-0.28887 1.58437,-0.25335 1.91667,0.0789 0.33229,0.33229 -0.25834,0.56864 -1.3125,0.52522 -1.16495,-0.048 -1.4019,-0.28494 -0.60417,-0.60416 z M 377,303.69334 c 0,-0.24279 1.2375,-2.63561 2.75,-5.31739 2.49912,-4.43112 2.73915,-5.74263 2.63103,-14.37595 -0.0654,-5.225 -0.29043,-10.36112 -0.5,-11.41359 -0.33683,-1.69159 1.35386,-2.35086 14.57328,-5.68275 8.22487,-2.07303 15.2821,-3.56657 15.68272,-3.31897 1.37483,0.84969 3.06892,11.7259 2.43952,15.66193 -0.86985,5.43976 -3.83314,10.89347 -7.82193,14.39568 -4.05791,3.56289 -6.69413,4.6573 -17.75462,7.37072 -4.675,1.14689 -9.2875,2.31847 -10.25,2.60351 -0.9625,0.28503 -1.75,0.3196 -1.75,0.0768 z M 125.232,277 c 0,-1.925 0.2058,-2.7125 0.45733,-1.75 0.25152,0.9625 0.25152,2.5375 0,3.5 -0.25153,0.9625 -0.45733,0.175 -0.45733,-1.75 z m 0,-18 c 0,-1.925 0.2058,-2.7125 0.45733,-1.75 0.25152,0.9625 0.25152,2.5375 0,3.5 -0.25153,0.9625 -0.45733,0.175 -0.45733,-1.75 z m 117.11081,-12.5 c 0.004,-4.4 0.17944,-6.07561 0.39069,-3.72357 0.21124,2.35204 0.20827,5.95204 -0.007,8 -0.21487,2.04796 -0.38771,0.12357 -0.38408,-4.27643 z m -134.69215,5.03203 c -0.30982,-0.80739 -0.13297,-1.73395 0.39301,-2.05902 0.52598,-0.32508 0.95633,0.33551 0.95633,1.46797 0,2.41457 -0.55611,2.65816 -1.34934,0.59105 z m 32.42829,-1.11536 c 0.048,-1.16495 0.28494,-1.4019 0.60416,-0.60417 0.28887,0.72187 0.25335,1.58437 -0.0789,1.91667 -0.3323,0.33229 -0.56864,-0.25834 -0.52522,-1.3125 z m -16,-5 c 0.048,-1.16495 0.28494,-1.4019 0.60416,-0.60417 0.28887,0.72187 0.25335,1.58437 -0.0789,1.91667 -0.3323,0.33229 -0.56864,-0.25834 -0.52522,-1.3125 z m 14,-13 c 0.048,-1.16495 0.28494,-1.4019 0.60416,-0.60417 0.28887,0.72187 0.25335,1.58437 -0.0789,1.91667 -0.3323,0.33229 -0.56864,-0.25834 -0.52522,-1.3125 z m 103,-8 c 0.048,-1.16495 0.28494,-1.4019 0.60416,-0.60417 0.28887,0.72187 0.25335,1.58437 -0.0789,1.91667 -0.3323,0.33229 -0.56864,-0.25834 -0.52522,-1.3125 z m 232,-33 c 0.048,-1.16495 0.28494,-1.4019 0.60416,-0.60417 0.28887,0.72187 0.25335,1.58437 -0.0789,1.91667 -0.33229,0.33229 -0.56864,-0.25834 -0.52522,-1.3125 z m 0,-9 c 0.048,-1.16495 0.28494,-1.4019 0.60416,-0.60417 0.28887,0.72187 0.25335,1.58437 -0.0789,1.91667 -0.33229,0.33229 -0.56864,-0.25834 -0.52522,-1.3125 z M 153.87244,179.25 c -1.24387,-1.58606 -1.2085,-1.62143 0.37756,-0.37756 0.9625,0.75485 1.75,1.54235 1.75,1.75 0,0.82304 -0.82119,0.29331 -2.12756,-1.37244 z m -84.793493,-8.83333 c 0.04798,-1.16495 0.284941,-1.4019 0.604167,-0.60417 0.288871,0.72187 0.253344,1.58437 -0.07895,1.91667 -0.332292,0.33229 -0.568641,-0.25834 -0.52522,-1.3125 z m 240.171053,0.894 c 0.9625,-0.25152 2.5375,-0.25152 3.5,0 0.9625,0.25153 0.175,0.45733 -1.75,0.45733 -1.925,0 -2.7125,-0.2058 -1.75,-0.45733 z M 53.157895,165 c 0,-1.375 0.226973,-1.9375 0.504386,-1.25 0.277412,0.6875 0.277412,1.8125 0,2.5 -0.277413,0.6875 -0.504386,0.125 -0.504386,-1.25 z M 85,165 c 0,-0.55 0.476558,-1 1.059017,-1 0.582459,0 0.780902,0.45 0.440983,1 -0.339919,0.55 -0.816476,1 -1.059017,1 C 85.198442,166 85,165.55 85,165 Z m -16.805051,-6.5 c 0.02038,-1.65 0.244498,-2.20394 0.498042,-1.23097 0.253543,0.97297 0.236869,2.32297 -0.03705,3 C 68.382014,160.94606 68.174569,160.15 68.194949,158.5 Z M 53.8125,155.31689 c 0.721875,-0.28887 1.584375,-0.25335 1.916667,0.0789 0.332291,0.33229 -0.258334,0.56864 -1.3125,0.52522 -1.164943,-0.048 -1.4019,-0.28494 -0.604167,-0.60416 z M 401.87244,145.25 c -1.24387,-1.58606 -1.2085,-1.62143 0.37756,-0.37756 1.66575,1.30637 2.19548,2.12756 1.37244,2.12756 -0.20765,0 -0.99515,-0.7875 -1.75,-1.75 z M 49.269032,139.30701 c 0.972967,-0.25354 2.322967,-0.23687 3,0.0371 0.677032,0.27393 -0.119032,0.48137 -1.769032,0.46099 -1.65,-0.0204 -2.203936,-0.2445 -1.230968,-0.49804 z M 27.404988,129.75 25.5,127.5 l 2.25,1.90499 C 29.864445,131.19521 30.455241,132 29.654988,132 c -0.189757,0 -1.202257,-1.0125 -2.25,-2.25 z m 227.519322,-9.5 -2.42431,-2.75 2.75,2.42431 c 2.57029,2.26589 3.20859,3.07569 2.42431,3.07569 -0.17912,0 -1.41662,-1.2375 -2.75,-2.75 z M 230.75,111.29427 c 1.2375,-0.23836 3.2625,-0.23836 4.5,0 1.2375,0.23835 0.225,0.43337 -2.25,0.43337 -2.475,0 -3.4875,-0.19502 -2.25,-0.43337 z M 166.1727,41.782269 c -0.58881,-2.319752 -0.90363,-4.384675 -0.69958,-4.588717 0.50076,-0.500763 22.69914,-6.144027 24.27688,-6.171659 2.0755,-0.03635 1.4042,4.48515 -1,6.735459 -1.2375,1.15829 -5.46276,2.994279 -9.38947,4.079976 -3.92671,1.085697 -8.05962,2.466447 -9.18426,3.068333 -2.85881,1.529993 -2.81342,1.565404 -4.00357,-3.123392 z"
         id="path657" />
      <path
         style="fill:#5b5f61"
         d="m 387.8125,471.31689 c 0.72187,-0.28887 1.58438,-0.25335 1.91667,0.0789 0.33229,0.33229 -0.25834,0.56864 -1.3125,0.52522 -1.16495,-0.048 -1.4019,-0.28494 -0.60417,-0.60416 z M 363.43709,459.75 360.5,456.5 l 3.25,2.93709 c 3.02946,2.73778 3.70965,3.56291 2.93709,3.56291 -0.1721,0 -1.6346,-1.4625 -3.25,-3.25 z m 10.9679,-11 -1.90499,-2.25 2.25,1.90499 c 2.11444,1.79022 2.70524,2.59501 1.90499,2.59501 -0.18976,0 -1.20226,-1.0125 -2.25,-2.25 z m -22.32604,-13.33333 c 0.048,-1.16495 0.28494,-1.4019 0.60416,-0.60417 0.28887,0.72187 0.25335,1.58438 -0.0789,1.91667 -0.33229,0.33229 -0.56864,-0.25834 -0.52522,-1.3125 z M 332.40499,418.75 330.5,416.5 l 2.25,1.90499 c 2.11444,1.79022 2.70524,2.59501 1.90499,2.59501 -0.18976,0 -1.20226,-1.0125 -2.25,-2.25 z m 102,-46 -1.90499,-2.25 2.25,1.90499 c 1.2375,1.04774 2.25,2.06024 2.25,2.25 0,0.80025 -0.80479,0.20945 -2.59501,-1.90499 z m -55.59249,-5.43311 c 0.72187,-0.28887 1.58438,-0.25335 1.91667,0.0789 0.33229,0.33229 -0.25834,0.56864 -1.3125,0.52522 -1.16495,-0.048 -1.4019,-0.28494 -0.60417,-0.60416 z m 9,0 c 0.72187,-0.28887 1.58438,-0.25335 1.91667,0.0789 0.33229,0.33229 -0.25834,0.56864 -1.3125,0.52522 -1.16495,-0.048 -1.4019,-0.28494 -0.60417,-0.60416 z M 366.40499,360.75 364.5,358.5 l 2.25,1.90499 c 2.11444,1.79022 2.70524,2.59501 1.90499,2.59501 -0.18976,0 -1.20226,-1.0125 -2.25,-2.25 z M 400.5,361 c 0.99549,-1.1 2.03498,-2 2.30998,-2 0.275,0 -0.31449,0.9 -1.30998,2 -0.99549,1.1 -2.03498,2 -2.30998,2 -0.275,0 0.31449,-0.9 1.30998,-2 z m -40.42105,-12.58333 c 0.048,-1.16495 0.28494,-1.4019 0.60416,-0.60417 0.28887,0.72187 0.25335,1.58438 -0.0789,1.91667 -0.33229,0.33229 -0.56864,-0.25834 -0.52522,-1.3125 z m 47,0 c 0.048,-1.16495 0.28494,-1.4019 0.60416,-0.60417 0.28887,0.72187 0.25335,1.58438 -0.0789,1.91667 -0.33229,0.33229 -0.56864,-0.25834 -0.52522,-1.3125 z m -63,-1 c 0.048,-1.16495 0.28494,-1.4019 0.60416,-0.60417 0.28887,0.72187 0.25335,1.58438 -0.0789,1.91667 -0.33229,0.33229 -0.56864,-0.25834 -0.52522,-1.3125 z m 0,-6 c 0.048,-1.16495 0.28494,-1.4019 0.60416,-0.60417 0.28887,0.72187 0.25335,1.58438 -0.0789,1.91667 -0.33229,0.33229 -0.56864,-0.25834 -0.52522,-1.3125 z m 16,-2 c 0.048,-1.16495 0.28494,-1.4019 0.60416,-0.60417 0.28887,0.72187 0.25335,1.58438 -0.0789,1.91667 -0.33229,0.33229 -0.56864,-0.25834 -0.52522,-1.3125 z m 47,0 c 0.048,-1.16495 0.28494,-1.4019 0.60416,-0.60417 0.28887,0.72187 0.25335,1.58438 -0.0789,1.91667 -0.33229,0.33229 -0.56864,-0.25834 -0.52522,-1.3125 z M 366.5,327 c 0.99549,-1.1 2.03498,-2 2.30998,-2 0.275,0 -0.31449,0.9 -1.30998,2 -0.99549,1.1 -2.03498,2 -2.30998,2 -0.275,0 0.31449,-0.9 1.30998,-2 z m 33.90499,-0.25 -1.90499,-2.25 2.25,1.90499 c 2.11444,1.79022 2.70524,2.59501 1.90499,2.59501 -0.18976,0 -1.20226,-1.0125 -2.25,-2.25 z m -59.59249,0.56689 c 0.72187,-0.28887 1.58438,-0.25335 1.91667,0.0789 0.33229,0.33229 -0.25834,0.56864 -1.3125,0.52522 -1.16495,-0.048 -1.4019,-0.28494 -0.60417,-0.60416 z M 98.872445,324.25 c -1.243871,-1.58606 -1.208501,-1.62143 0.377555,-0.37756 0.9625,0.75485 1.75,1.54235 1.75,1.75 0,0.82304 -0.82119,0.29331 -2.127555,-1.37244 z M 378.8125,320.31689 c 0.72187,-0.28887 1.58438,-0.25335 1.91667,0.0789 0.33229,0.33229 -0.25834,0.56864 -1.3125,0.52522 -1.16495,-0.048 -1.4019,-0.28494 -0.60417,-0.60416 z m 9,0 c 0.72187,-0.28887 1.58438,-0.25335 1.91667,0.0789 0.33229,0.33229 -0.25834,0.56864 -1.3125,0.52522 -1.16495,-0.048 -1.4019,-0.28494 -0.60417,-0.60416 z M 91.872445,317.25 C 90.628574,315.66394 90.663944,315.62857 92.25,316.87244 93.915748,318.17881 94.445479,319 93.622445,319 c -0.207656,0 -0.995156,-0.7875 -1.75,-1.75 z M 129,317.62244 c 0,-0.20765 0.7875,-0.99515 1.75,-1.75 1.58606,-1.24387 1.62143,-1.2085 0.37756,0.37756 C 129.82119,317.91575 129,318.44548 129,317.62244 Z M 411.40499,315.75 409.5,313.5 l 2.25,1.90499 c 2.11444,1.79022 2.70524,2.59501 1.90499,2.59501 -0.18976,0 -1.20226,-1.0125 -2.25,-2.25 z m -304.95204,-6 -3.95295,-4.25 4.25,3.95295 c 3.95246,3.6762 4.70953,4.54705 3.95295,4.54705 -0.16338,0 -2.07588,-1.9125 -4.25,-4.25 z m 47.21779,-5.80644 c 2.90516,-11.52355 4.66397,-31.0954 3.85911,-42.94356 -2.81611,-41.4551 -10.77257,-76.15668 -26.20655,-114.29822 -1.95811,-4.83901 -3.3944,-8.96032 -3.19175,-9.15846 C 128.50375,137.1794 195.21336,120 196.2543,120 c 1.03245,0 12.50335,28.35591 16.14813,39.91797 4.43955,14.08323 9.93786,38.61412 12.23392,54.58203 2.53972,17.66238 2.33063,45.81464 -0.43732,58.88171 -2.34848,11.08681 -6.21736,19.92897 -9.72572,22.22774 -1.28887,0.84449 -15.99359,5.03607 -32.67716,9.3146 l -30.33377,7.77916 z m 20.7331,-111.24959 c 3.74977,-2.74189 -0.23634,-9.54247 -4.15384,-7.08673 -2.46343,1.54424 -2.82811,5.49686 -0.65384,7.08673 C 170.57851,193.41229 171.66024,194 172,194 c 0.33976,0 1.42149,-0.58771 2.40384,-1.30603 z M 163.92848,180.53699 C 171.18695,176.78348 168.20754,165 160,165 c -8.22114,0 -11.20746,12.962 -3.68463,15.99302 3.14317,1.26641 4.4315,1.18924 7.61311,-0.45603 z m 215.88402,122.7799 c 0.72187,-0.28887 1.58438,-0.25335 1.91667,0.0789 0.33229,0.33229 -0.25834,0.56864 -1.3125,0.52522 -1.16495,-0.048 -1.4019,-0.28494 -0.60417,-0.60416 z M 405,295.68709 c 0,-0.1721 1.4625,-1.6346 3.25,-3.25 l 3.25,-2.93709 -2.93709,3.25 C 405.82513,295.77946 405,296.45965 405,295.68709 Z m -284,-5.06465 c 0,-0.20765 0.7875,-0.99515 1.75,-1.75 1.58606,-1.24387 1.62143,-1.2085 0.37756,0.37756 C 121.82119,290.91575 121,291.44548 121,290.62244 Z m 19.07895,-3.20577 c 0.048,-1.16495 0.28494,-1.4019 0.60416,-0.60417 0.28887,0.72187 0.25335,1.58438 -0.0789,1.91667 -0.3323,0.33229 -0.56864,-0.25834 -0.52522,-1.3125 z M 412.08029,287 C 413.5381,283.93897 414,283.37166 414,284.6422 c 0,0.53655 -0.69982,1.84905 -1.55517,2.91667 -1.46637,1.83031 -1.48719,1.7984 -0.36454,-0.55887 z m 1.99866,-5.58333 c 0.048,-1.16495 0.28494,-1.4019 0.60416,-0.60417 0.28887,0.72187 0.25335,1.58438 -0.0789,1.91667 -0.33229,0.33229 -0.56864,-0.25834 -0.52522,-1.3125 z M 141.36996,268 c 0,-5.775 0.16528,-8.1375 0.36728,-5.25 0.202,2.8875 0.202,7.6125 0,10.5 -0.202,2.8875 -0.36728,0.525 -0.36728,-5.25 z m -16.04989,0 c 0,-3.575 0.1815,-5.0375 0.40333,-3.25 0.22182,1.7875 0.22182,4.7125 0,6.5 -0.22183,1.7875 -0.40333,0.325 -0.40333,-3.25 z m 288.75888,2.41667 c 0.048,-1.16495 0.28494,-1.4019 0.60416,-0.60417 0.28887,0.72187 0.25335,1.58438 -0.0789,1.91667 -0.33229,0.33229 -0.56864,-0.25834 -0.52522,-1.3125 z m -10.26645,-6.09978 c 0.72187,-0.28887 1.58438,-0.25335 1.91667,0.0789 0.33229,0.33229 -0.25834,0.56864 -1.3125,0.52522 -1.16495,-0.048 -1.4019,-0.28494 -0.60417,-0.60416 z m 4,-1 c 0.72187,-0.28887 1.58438,-0.25335 1.91667,0.0789 0.33229,0.33229 -0.25834,0.56864 -1.3125,0.52522 -1.16495,-0.048 -1.4019,-0.28494 -0.60417,-0.60416 z M 411.5,263 c -0.33992,-0.55 -0.14148,-1 0.44098,-1 0.58246,0 1.05902,0.45 1.05902,1 0,0.55 -0.19844,1 -0.44098,1 -0.24254,0 -0.7191,-0.45 -1.05902,-1 z M 124.15789,249 c 0,-1.375 0.22698,-1.9375 0.50439,-1.25 0.27741,0.6875 0.27741,1.8125 0,2.5 -0.27741,0.6875 -0.50439,0.125 -0.50439,-1.25 z m -16.07894,-1.58333 c 0.048,-1.16495 0.28494,-1.4019 0.60416,-0.60417 0.28887,0.72187 0.25335,1.58437 -0.0789,1.91667 -0.3323,0.33229 -0.56864,-0.25834 -0.52522,-1.3125 z m 32.116,-0.91667 c 0.0204,-1.65 0.2445,-2.20394 0.49804,-1.23097 0.25354,0.97297 0.23687,2.32297 -0.0371,3 -0.27393,0.67703 -0.48137,-0.11903 -0.46099,-1.76903 z m -33.116,-7.08333 c 0.048,-1.16495 0.28494,-1.4019 0.60416,-0.60417 0.28887,0.72187 0.25335,1.58437 -0.0789,1.91667 -0.3323,0.33229 -0.56864,-0.25834 -0.52522,-1.3125 z m 16,0 c 0.048,-1.16495 0.28494,-1.4019 0.60416,-0.60417 0.28887,0.72187 0.25335,1.58437 -0.0789,1.91667 -0.3323,0.33229 -0.56864,-0.25834 -0.52522,-1.3125 z M 468,237.5 c 1.29175,-1.375 2.57363,-2.5 2.84863,-2.5 0.275,0 -0.55688,1.125 -1.84863,2.5 -1.29175,1.375 -2.57363,2.5 -2.84863,2.5 -0.275,0 0.55688,-1.125 1.84863,-2.5 z m -328.92105,-0.0833 c 0.048,-1.16495 0.28494,-1.4019 0.60416,-0.60417 0.28887,0.72187 0.25335,1.58437 -0.0789,1.91667 -0.3323,0.33229 -0.56864,-0.25834 -0.52522,-1.3125 z M 457,226.5 c 1.29175,-1.375 2.57363,-2.5 2.84863,-2.5 0.275,0 -0.55688,1.125 -1.84863,2.5 -1.29175,1.375 -2.57363,2.5 -2.84863,2.5 -0.275,0 0.55688,-1.125 1.84863,-2.5 z m 32.07895,-36.08333 c 0.048,-1.16495 0.28494,-1.4019 0.60416,-0.60417 0.28887,0.72187 0.25335,1.58437 -0.0789,1.91667 -0.33229,0.33229 -0.56864,-0.25834 -0.52522,-1.3125 z m -434.000003,-6 c 0.04798,-1.16495 0.284941,-1.4019 0.604167,-0.60417 0.288871,0.72187 0.253344,1.58437 -0.07895,1.91667 -0.332292,0.33229 -0.568641,-0.25834 -0.52522,-1.3125 z M 489.15789,183 c 0,-1.375 0.22698,-1.9375 0.50439,-1.25 0.27741,0.6875 0.27741,1.8125 0,2.5 -0.27741,0.6875 -0.50439,0.125 -0.50439,-1.25 z M 71.078947,182.41667 c 0.04798,-1.16495 0.284941,-1.4019 0.604167,-0.60417 0.288871,0.72187 0.253344,1.58437 -0.07895,1.91667 -0.332292,0.33229 -0.568641,-0.25834 -0.52522,-1.3125 z m 402.000003,-3 c 0.048,-1.16495 0.28494,-1.4019 0.60416,-0.60417 0.28887,0.72187 0.25335,1.58437 -0.0789,1.91667 -0.33229,0.33229 -0.56864,-0.25834 -0.52522,-1.3125 z m -419.000003,-2 c 0.04798,-1.16495 0.284941,-1.4019 0.604167,-0.60417 0.288871,0.72187 0.253344,1.58437 -0.07895,1.91667 -0.332292,0.33229 -0.568641,-0.25834 -0.52522,-1.3125 z m 16,-2 c 0.04798,-1.16495 0.284941,-1.4019 0.604167,-0.60417 0.288871,0.72187 0.253344,1.58437 -0.07895,1.91667 -0.332292,0.33229 -0.568641,-0.25834 -0.52522,-1.3125 z M 53.157895,169 c 0,-1.375 0.226973,-1.9375 0.504386,-1.25 0.277412,0.6875 0.277412,1.8125 0,2.5 -0.277413,0.6875 -0.504386,0.125 -0.504386,-1.25 z m 32,-1 c 0,-1.375 0.226973,-1.9375 0.504386,-1.25 0.277412,0.6875 0.277412,1.8125 0,2.5 -0.277413,0.6875 -0.504386,0.125 -0.504386,-1.25 z m -16,-1 c 0,-1.375 0.226973,-1.9375 0.504386,-1.25 0.277412,0.6875 0.277412,1.8125 0,2.5 -0.277413,0.6875 -0.504386,0.125 -0.504386,-1.25 z m -32.078948,-1.58333 c 0.04798,-1.16495 0.284941,-1.4019 0.604167,-0.60417 0.288871,0.72187 0.253344,1.58437 -0.07895,1.91667 -0.332292,0.33229 -0.568641,-0.25834 -0.52522,-1.3125 z M 276.43709,156.75 273.5,153.5 l 3.25,2.93709 c 1.7875,1.6154 3.25,3.0779 3.25,3.25 0,0.77256 -0.82513,0.0924 -3.56291,-2.93709 z M 52.078947,156.41667 c 0.04798,-1.16495 0.284941,-1.4019 0.604167,-0.60417 0.288871,0.72187 0.253344,1.58437 -0.07895,1.91667 -0.332292,0.33229 -0.568641,-0.25834 -0.52522,-1.3125 z m 15.652266,-2.33651 c -0.434974,-1.66335 -0.304831,-2.05378 0.437237,-1.31171 0.581102,0.5811 0.859794,1.64682 0.619313,2.36826 -0.249648,0.74895 -0.702941,0.29565 -1.05655,-1.05655 z M 309.75,155.33772 c 0.6875,-0.27741 1.8125,-0.27741 2.5,0 0.6875,0.27741 0.125,0.50439 -1.25,0.50439 -1.375,0 -1.9375,-0.22698 -1.25,-0.50439 z M 287.40499,145.75 285.5,143.5 l 2.25,1.90499 c 1.2375,1.04774 2.25,2.06024 2.25,2.25 0,0.80025 -0.80479,0.20945 -2.59501,-1.90499 z M 445.15789,128 c 0,-1.375 0.22698,-1.9375 0.50439,-1.25 0.27741,0.6875 0.27741,1.8125 0,2.5 -0.27741,0.6875 -0.50439,0.125 -0.50439,-1.25 z M 231.76166,95.292739 c 1.24391,-0.239193 3.04391,-0.230112 4,0.02018 0.95609,0.250292 -0.0617,0.445996 -2.26166,0.434897 -2.2,-0.0111 -2.98225,-0.215885 -1.73834,-0.455077 z M 168,50.581787 c 0,-0.780016 -0.24369,-2.053247 -0.54152,-2.829401 -0.62299,-1.623484 3.78553,-3.746819 13.04152,-6.28136 3.3,-0.903629 7.0125,-2.582718 8.25,-3.731308 2.40967,-2.23654 3.0656,-6.698658 1,-6.802647 -0.6875,-0.03461 3.6965,-1.365612 9.74222,-2.95778 6.04572,-1.592168 11.27124,-2.57635 11.61226,-2.187071 0.72544,0.828087 4.11936,14.345827 3.68791,14.688685 C 214.24491,40.915973 170.34592,52 169.17029,52 168.52663,52 168,51.361804 168,50.581787 Z M 457.40499,46.75 455.5,44.5 l 2.25,1.904988 c 1.2375,1.047743 2.25,2.060243 2.25,2.25 0,0.800253 -0.80479,0.209457 -2.59501,-1.904988 z M 468.92431,36.25 466.5,33.5 l 2.75,2.424314 c 1.5125,1.333373 2.75,2.570873 2.75,2.75 0,0.784274 -0.8098,0.145975 -3.07569,-2.424314 z M 383.8125,16.316886 c 0.72187,-0.288871 1.58438,-0.253344 1.91667,0.07895 0.33229,0.332292 -0.25834,0.568641 -1.3125,0.52522 -1.16495,-0.04798 -1.4019,-0.284941 -0.60417,-0.604167 z m -9,-15 c 0.72187,-0.2888706 1.58438,-0.2533443 1.91667,0.078947 0.33229,0.3322917 -0.25834,0.5686404 -1.3125,0.5252193 -1.16495,-0.047984 -1.4019,-0.2849403 -0.60417,-0.6041663 z m 18,0 c 0.72187,-0.2888706 1.58438,-0.2533443 1.91667,0.078947 0.33229,0.3322917 -0.25834,0.5686404 -1.3125,0.5252193 -1.16495,-0.047984 -1.4019,-0.2849403 -0.60417,-0.6041663 z"
         id="path655" />
      <path
         style="fill:#323232"
         d="m 453.01971,510.74105 c -4.37086,-2.25649 -4.98913,-5.03483 -5.00497,-22.49105 L 448,472 420.25,471.992 c -15.2625,-0.004 -30.60993,-0.47162 -34.1054,-1.03882 -12.42536,-2.01619 -23.95117,-10.45108 -29.50393,-21.59173 -2.58126,-5.17885 -4.61916,-14.68496 -4.63312,-21.6119 -0.008,-3.74303 -0.0154,-3.75001 -4.25755,-3.75558 -6.9007,-0.009 -11.28194,-1.73393 -15.07859,-5.93637 -4.35593,-4.82149 -4.99981,-8.48962 -4.51708,-25.73337 0.29705,-10.61112 0.70307,-13.39756 2.35234,-16.14375 2.9379,-4.89187 7.58809,-7.33857 15.09251,-7.94095 3.56084,-0.28583 6.34265,-0.79426 6.1818,-1.12984 -0.16084,-0.33558 -1.50942,-2.92228 -2.99685,-5.74824 -4.554,-8.65212 -5.36804,-21.72918 -1.90558,-30.6119 0.58957,-1.5125 0.97059,-2.77907 0.8467,-2.81459 -0.12389,-0.0355 -2.68604,-0.29112 -5.69367,-0.56799 -17.50655,-1.61157 -31.284,-13.33632 -35.66776,-30.35362 -0.99374,-3.85759 -2.0941,-7.0138 -2.44526,-7.0138 -0.35115,0 -40.05482,10.125 -88.23037,22.5 -61.4169,15.77635 -89.2097,22.5 -93.00569,22.5 -34.764585,0 -77.757862,-85.10421 -84.854891,-167.96832 L 36.631825,153.0694 32.630832,151.46851 C 26.871229,149.16443 17.744856,142.51035 14.067468,137.93433 8.9580063,131.57629 6.0318955,124.98326 2.9984791,112.99399 0.08863091,101.49311 0.13995268,98.788592 3.3180972,96.150966 4.1576437,95.454204 38.020538,86.369182 78.568974,75.962028 119.11741,65.554874 152.55007,56.783263 152.86377,56.469558 c 0.31371,-0.313704 -0.85035,-6.214289 -2.5868,-13.11241 C 147.0897,30.695536 147.06896,27.840224 150.14582,25.299667 151.79967,23.934096 213.34901,8 216.97002,8 c 5.17217,0 6.51977,2.129174 10.09215,15.945437 2.66873,10.321382 3.69478,12.956338 4.90614,12.59927 C 232.81074,36.296388 262.525,28.655986 298,19.566036 341.54102,8.4092875 365.74945,2.6763532 372.5,1.9232755 427.05419,-4.162683 481.06431,30.97717 497.95524,83.546469 c 3.78857,11.791063 8.16934,29.130591 8.27201,32.741351 0.13399,4.71268 -2.96408,6.64561 -16.35791,10.20597 -6.80314,1.80842 -12.30187,3.67462 -12.21941,4.14712 0.0825,0.4725 2.47413,10.03679 5.31481,21.25399 6.00127,23.69758 7.15235,32.0742 5.92052,43.08452 -3.2055,28.65141 -24.2901,52.7982 -53.26983,61.0064 -3.78651,1.07249 -7.09407,2.15949 -7.35014,2.41556 -0.25607,0.25607 0.25448,3.33676 1.13456,6.84599 1.94123,7.74044 2.01206,13.61776 0.24406,20.25263 -2.69026,10.09584 -8.46292,18.25028 -16.62953,23.49077 l -5.06354,3.24927 4.44045,4.74719 c 8.78566,9.39259 12.67782,21.60234 10.57786,33.18292 -1.10368,6.08642 -4.36381,14.33769 -6.08527,15.40162 -2.11369,1.30633 -0.56145,2.42865 3.36612,2.43381 6.51578,0.009 11.02272,1.64885 14.56106,5.29948 C 439.17141,377.8038 440,381.38684 440,395.7434 V 408 h 9.82569 c 15.59467,0 14.0751,6.72816 14.40083,-63.76217 l 0.27348,-59.18325 2.27778,-2.27729 C 468.98768,280.56787 469.62012,280.5 488,280.5 c 18.38121,0 19.01216,0.0677 21.22222,2.27778 L 511.5,285.05556 V 396 506.94444 l -2.27608,2.27778 c -2.23582,2.2375 -2.731,2.28239 -28,2.53854 -19.37635,0.19642 -26.33595,-0.0552 -28.20421,-1.01971 z M 496,484 v -12 h -16 -16 v 12 12 h 16 16 z m 0,-108 v -80 h -8 -8 v 52.8185 c 0,60.36704 0.0165,60.21764 -7.47368,67.70782 C 465.16091,423.89172 464.29588,424 412.8185,424 H 368 v 6.53212 c 0,10.83226 4.41856,18.50428 13.16838,22.8645 L 386.39269,456 H 441.19634 496 Z m -72,20 v -12 h -40 -40 v 12 12 h 40 40 z m -27.40708,-31.55174 c 2.99417,-1.85116 6.01388,-4.87685 7.88064,-7.89628 C 407.15243,352.21902 407.5,350.77749 407.5,344 c 0,-6.77749 -0.34757,-8.21902 -3.02644,-12.55198 -1.87587,-3.03415 -4.88743,-6.04571 -7.92158,-7.92158 C 392.21902,320.84757 390.77749,320.5 384,320.5 c -6.77749,0 -8.21902,0.34757 -12.55198,3.02644 -15.98739,9.88424 -15.02594,33.44001 1.7104,41.90512 7.42863,3.75735 16.37376,3.38202 23.4345,-0.9833 z m -15.12764,-13.4091 c -7.61751,-3.05279 -5.62118,-14.37249 2.53472,-14.37249 4.05197,0 7.33333,3.28136 7.33333,7.33333 0,5.01123 -5.36999,8.84179 -9.86805,7.03916 z m -252.83022,-32.9583 c 1.88036,-1.14659 4.16942,-4.04666 5.71955,-7.24626 14.69218,-30.32587 6.67485,-100.88749 -18.07769,-159.10406 -3.51339,-8.2633 -4.95105,-10.65869 -6.17794,-10.2935 -0.87944,0.26177 -4.57804,1.21056 -8.21912,2.10841 l -6.620131,1.63245 4.946091,11.16105 c 9.52752,21.49921 17.41141,48.50419 21.94267,75.16105 1.77942,10.4681 2.2236,17.15494 2.28066,34.33345 l 0.0708,21.33345 -2.80576,2.41655 c -5.06784,4.36482 -8.38521,3.23445 -13.76738,-4.69116 C 94.734977,265.46639 81.214829,230.09695 74.543636,197.55998 71.765334,184.00955 69,164.08401 69,157.61545 c 0,-2.35516 -0.252116,-4.53423 -0.560258,-4.84238 -0.308142,-0.30814 -2.895642,0.0615 -5.75,0.82147 -2.854358,0.75995 -6.40604,1.38706 -7.892627,1.39359 -3.048163,0.0134 -3.005324,-1.2448 -0.681368,20.01187 5.550998,50.77365 28.849352,110.60939 52.433943,134.66289 6.00122,6.12054 12.82861,10.27385 16.95031,10.31141 1.1,0.01 3.41078,-0.84203 5.13506,-1.89344 z m 85.83825,-22.47141 c 3.50836,-2.29877 7.37724,-11.14093 9.72572,-22.22774 2.76795,-13.06707 2.97704,-41.21933 0.43732,-58.88171 -2.29606,-15.96791 -7.79437,-40.4988 -12.23392,-54.58203 C 208.75765,148.35591 197.28675,120 196.2543,120 c -1.04094,0 -67.75055,17.1794 -68.12275,17.54332 -0.20265,0.19814 1.23364,4.31945 3.19175,9.15846 15.43398,38.14154 23.39044,72.84312 26.20655,114.29822 0.80486,11.84816 -0.95395,31.42001 -3.85911,42.94356 l -2.20836,8.75965 30.33377,-7.77916 c 16.68357,-4.27853 31.38829,-8.47011 32.67716,-9.3146 z m 160.00247,9.78468 c 13.76042,-3.63323 26.65103,-7.4385 28.64579,-8.45615 4.17627,-2.13057 8.58202,-7.0074 10.52997,-11.65586 2.76429,-6.59652 0.84983,-23.88843 -2.52718,-22.8262 -0.8934,0.28101 -20.29936,5.26004 -43.12436,11.06451 -22.825,5.80446 -43.1452,10.99287 -45.156,11.5298 l -3.65599,0.97623 1.29115,4.73677 c 2.90619,10.66167 6.35775,15.32053 13.97997,18.8699 7.69475,3.58314 12.19787,3.10612 40.01665,-4.239 z M 335.76231,265.9224 c 53.69358,-13.79268 99.78532,-25.89857 102.42608,-26.90199 21.42341,-8.14025 35.6904,-29.05837 35.82102,-52.52041 0.0295,-5.29792 -1.3571,-12.5489 -5.70254,-29.82052 l -5.74151,-22.82052 -3.53268,0.75948 c -5.47987,1.1781 -8.87952,0.83014 -11.0461,-1.13059 -2.60758,-2.35982 -2.68529,-8.54555 -0.13634,-10.85232 1.01763,-0.92094 9.00513,-3.49483 17.75,-5.71975 8.74487,-2.22491 17.58726,-4.4835 19.64976,-5.01908 2.15363,-0.55925 3.75,-1.58883 3.75,-2.41857 0,-0.79462 -1.37506,-6.50194 -3.05569,-12.682931 C 480.44462,76.568518 471.79137,61.104408 458.47015,47.696494 436.419,25.501847 406.65831,14.562012 375.28289,17.117408 367.98988,17.711393 329.79459,27.182203 192.31446,62.485812 96.751238,87.025551 18.36421,107.30246 18.121065,107.5456 c -1.067006,1.06701 2.242187,11.64921 5.169972,16.53265 6.056931,10.10272 19.456405,17.05061 30.076066,15.59502 2.43562,-0.33384 42.386911,-10.35095 88.780647,-22.26025 L 226.5,95.759752 l 9.6536,0.463319 c 8.47097,0.406559 10.55358,0.896206 17,3.996889 13.34269,6.41775 21.33752,15.73974 26.31368,30.6818 3.1033,9.31834 6.97412,14.87739 13.2571,19.03907 11.20061,7.41897 16.52872,7.18173 53.6388,-2.38843 25.93398,-6.68799 30.23173,-7.54862 32.66422,-6.54105 5.02998,2.08349 6.03508,9.20213 1.796,12.72025 -2.1158,1.75596 -59.43591,16.2873 -66.8234,16.94054 -21.99291,1.94472 -41.93452,-12.42122 -49.5171,-35.67214 -4.5561,-13.97064 -14.80218,-22.49319 -28.53961,-23.73886 -6.77864,-0.61466 -24.40678,3.21258 -23.56051,5.11522 C 231.47449,159.29941 242,205.31788 242,245.86553 c 0,14.84808 -1.98405,32.00352 -4.53862,39.24393 C 235.71833,290.0498 235.655,291 237.06881,291 c 0.58784,0 44.99992,-11.28492 98.6935,-25.0776 z m 67.57446,-120.39907 c -5.39946,-3.78193 -3.10309,-11.72423 3.91991,-13.55752 2.33383,-0.60923 6.4625,-1.75076 9.17482,-2.53675 9.86995,-2.86014 14.9685,-0.79226 14.9685,6.07094 0,5.04851 -2.29487,6.72644 -12.80463,9.36237 -10.08365,2.52905 -12.44546,2.63136 -15.2586,0.66096 z M 107.52443,238.7173 c -3.28324,-22.68865 -9.682026,-46.97224 -17.777418,-67.4659 -4.74487,-12.01174 -5.715819,-11.45613 -3.779396,2.16267 3.322098,23.36421 9.757165,48.21262 17.837954,68.87957 5.381,13.76216 6.12443,13.04722 3.71886,-3.57634 z M 192.42029,46.35663 c 12.14384,-3.103854 22.2119,-5.748547 22.37347,-5.877097 0.16157,-0.128549 -0.55217,-3.551533 -1.5861,-7.606629 -1.31825,-5.170197 -2.32599,-7.339906 -3.37314,-7.262453 -1.98892,0.147113 -44.21019,10.580082 -44.77807,11.064762 C 164.23706,37.374535 168.32292,52 169.33767,52 c 0.5516,0 10.93877,-2.539517 23.08262,-5.64337 z"
         id="path653" />
    </g>
  </g>
</svg>
