<?xml version="1.0" encoding="UTF-8" standalone="no"?>
<!-- Created with Inkscape (http://www.inkscape.org/) -->

<svg
   version="1.1"
   id="svg1996"
   width="512"
   height="512"
   viewBox="0 0 512 512"
   sodipodi:docname="battery.png"
   xmlns:inkscape="http://www.inkscape.org/namespaces/inkscape"
   xmlns:sodipodi="http://sodipodi.sourceforge.net/DTD/sodipodi-0.dtd"
   xmlns="http://www.w3.org/2000/svg"
   xmlns:svg="http://www.w3.org/2000/svg">
  <defs
     id="defs2000" />
  <sodipodi:namedview
     id="namedview1998"
     pagecolor="#505050"
     bordercolor="#eeeeee"
     borderopacity="1"
     inkscape:showpageshadow="0"
     inkscape:pageopacity="0"
     inkscape:pagecheckerboard="0"
     inkscape:deskcolor="#505050"
     showgrid="false" />
  <g
     inkscape:groupmode="layer"
     inkscape:label="Image"
     id="g2002">
    <g
       id="g2006">
      <path
         style="fill:#efd68e"
         d="M 28.081368,470.41153 C 15.005521,466.89596 4.3448838,456.36517 1.4001577,444.05528 0.54974837,440.5003 0.05841673,431.78717 0.03562153,419.85699 c -0.03076051,-16.09893 0.18023374,-18.72584 1.54616597,-19.25 2.068054,-0.79359 506.7683725,-0.79359 508.8364225,0 1.36675,0.52447 1.58018,3.20943 1.56992,19.75 -0.0118,18.94611 -0.8679,25.74833 -3.98853,31.68914 -4.31479,8.21415 -13.46009,15.52889 -22.9311,18.3411 -4.92885,1.46352 -26.07494,1.60668 -228.5,1.54696 C 64.513866,471.87753 32.746632,471.66583 28.081368,470.41153 Z M 128.25,372.25003 0,371.99243 0.03562153,222.74621 C 0.07371639,63.137309 -0.0311454,66.640564 4.9495041,58.581704 8.4143169,52.975519 17.53275,45.33258 23.753341,42.820599 L 29.5,40.5 254,40.205444 c 252.56275,-0.331375 231.69745,-0.953875 242.81459,7.244184 6.20031,4.572267 10.46452,10.050996 13.03356,16.745748 1.50514,3.922314 1.67518,17.698513 1.91458,155.113324 0.22689,130.23407 0.0661,151.00533 -1.17857,152.25 -1.53246,1.53245 18.43887,1.49634 -382.33416,0.69133 z M 120.0156,265.1369 c 7.14034,-3.81791 9.59045,-13.6683 5.00241,-20.11161 C 121.2917,239.79217 118.02613,239 100.18,239 c -14.849262,0 -16.10563,0.1479 -19.282117,2.26993 -9.296278,6.21032 -8.672568,18.95804 1.173202,23.97852 5.191877,2.6474 32.937225,2.56584 37.944515,-0.11155 z m 0,-60 c 7.14034,-3.81791 9.59045,-13.6683 5.00241,-20.11161 C 121.2917,179.79217 118.02613,179 100.18,179 c -14.849262,0 -16.10563,0.1479 -19.282117,2.26993 -9.296278,6.21032 -8.672568,18.95804 1.173202,23.97852 5.191877,2.6474 32.937225,2.56584 37.944515,-0.11155 z m 0,-60 c 7.14034,-3.81791 9.59045,-13.6683 5.00241,-20.11161 C 121.2917,119.79217 118.02613,119 100.18,119 c -14.849262,0 -16.10563,0.1479 -19.282117,2.26993 -9.296278,6.21032 -8.672568,18.95804 1.173202,23.97852 5.191877,2.6474 32.937225,2.56584 37.944515,-0.11155 z"
         id="path2020" />
      <path
         style="fill:#a9b3c9"
         d="M 28.081368,470.41153 C 15.005521,466.89596 4.3448838,456.36517 1.4001577,444.05528 0.54974837,440.5003 0.05841673,431.78717 0.03562153,419.85699 c -0.03076051,-16.09893 0.18023374,-18.72584 1.54616597,-19.25 2.068054,-0.79359 506.7683725,-0.79359 508.8364225,0 1.36675,0.52447 1.58018,3.20943 1.56992,19.75 -0.0118,18.94611 -0.8679,25.74833 -3.98853,31.68914 -4.31479,8.21415 -13.46009,15.52889 -22.9311,18.3411 -4.92885,1.46352 -26.07494,1.60668 -228.5,1.54696 C 64.513866,471.87753 32.746632,471.66583 28.081368,470.41153 Z M 128.25,372.25003 0,371.99243 0.03562153,222.74621 C 0.07371639,63.137309 -0.0311454,66.640564 4.9495041,58.581704 8.4143169,52.975519 17.53275,45.33258 23.753341,42.820599 L 29.5,40.5 254,40.205444 c 252.56275,-0.331375 231.69745,-0.953875 242.81459,7.244184 6.20031,4.572267 10.46452,10.050996 13.03356,16.745748 1.50514,3.922314 1.67518,17.698513 1.91458,155.113324 0.22689,130.23407 0.0661,151.00533 -1.17857,152.25 -1.53246,1.53245 18.43887,1.49634 -382.33416,0.69133 z m 113.56803,-28.28044 c 4.36607,-2.6619 7.52591,-9.61932 6.60303,-14.53871 -2.65243,-14.13863 -22.98318,-15.37778 -27.50504,-1.67642 -3.98974,12.08905 9.94226,22.89706 20.90201,16.21513 z m 62.76508,0.42395 c 9.58842,-4.55001 9.90577,-19.98665 0.51077,-24.84499 -6.70516,-3.46738 -15.33849,-1.01657 -18.9301,5.37383 -2.69389,4.79312 -2.75265,9.59953 -0.16918,13.83676 4.0363,6.62007 11.6488,8.92751 18.58851,5.6344 z m 67.12143,-2.63141 c 8.89402,-8.89403 2.95208,-23.74756 -9.5042,-23.75839 -8.30384,-0.007 -14.18923,5.5943 -14.1966,13.51186 -0.012,12.86738 14.71364,19.23368 23.7008,10.24653 z M 120.0156,265.1369 c 7.14034,-3.81791 9.59045,-13.6683 5.00241,-20.11161 C 121.2917,239.79217 118.02613,239 100.18,239 c -14.849262,0 -16.10563,0.1479 -19.282117,2.26993 -9.296278,6.21032 -8.672568,18.95804 1.173202,23.97852 5.191877,2.6474 32.937225,2.56584 37.944515,-0.11155 z m 0,-60 c 7.14034,-3.81791 9.59045,-13.6683 5.00241,-20.11161 C 121.2917,179.79217 118.02613,179 100.18,179 c -14.849262,0 -16.10563,0.1479 -19.282117,2.26993 -9.296278,6.21032 -8.672568,18.95804 1.173202,23.97852 5.191877,2.6474 32.937225,2.56584 37.944515,-0.11155 z m 0,-60 c 7.14034,-3.81791 9.59045,-13.6683 5.00241,-20.11161 C 121.2917,119.79217 118.02613,119 100.18,119 c -14.849262,0 -16.10563,0.1479 -19.282117,2.26993 -9.296278,6.21032 -8.672568,18.95804 1.173202,23.97852 5.191877,2.6474 32.937225,2.56584 37.944515,-0.11155 z"
         id="path2018" />
      <path
         style="fill:#90d3c1"
         d="M 141,470.02271 27.5,469.5 21.851572,466.63747 C 14.51552,462.91968 7.9359261,456.11833 3.8217696,448 l -3.29402785,-6.5 -0.348199,-20 -0.34819899,-20 256.15802624,-0.36729 256.15802,-0.36729 -0.3237,20.86729 L 511.5,442.5 l -3.2243,6.58912 c -3.88324,7.93572 -11.04625,14.97589 -19.05763,18.73082 L 483.5,470.5 369,470.52271 c -62.975,0.0125 -165.575,-0.21251 -228,-0.5 z M 0.23413418,220.75 0.5,70.5 3.8078987,64 C 7.9462214,55.868222 14.528508,49.071754 21.851572,45.369205 L 27.5,42.513353 l 159,-0.753451 c 87.45,-0.414397 190.05,-0.642402 228,-0.506676 l 69,0.246774 5.71807,2.680056 c 8.01138,3.754936 15.17439,10.795104 19.05763,18.730824 L 511.5,69.5 511.76271,220.25 512.02543,371 H 255.99685 -0.03173164 Z M 240.98007,345.24845 c 10.34025,-5.19513 10.78414,-20.15369 0.77907,-26.25385 -12.91015,-7.87141 -28.87155,8.92127 -19.9433,20.98195 4.91351,6.63738 12.36594,8.68747 19.16423,5.2719 z M 307,343.18132 c 10.94145,-7.98066 4.87359,-25.56594 -8.82162,-25.56594 -8.40133,0 -14.18215,5.94817 -14.17464,14.58496 0.0104,11.94944 13.09951,18.19965 22.99626,10.98098 z m 62.24058,1.15753 c 7.8453,-3.95179 9.39688,-15.78534 2.96388,-22.6048 -10.66641,-11.30719 -29.70987,1.31509 -23.41273,15.5183 2.21102,4.98695 3.8522,6.50815 8.94879,8.29452 3.95977,1.38791 6.97535,1.07114 11.50006,-1.20802 z M 122.10212,265.73007 c 6.77711,-4.52741 8.97364,-14.35408 4.64448,-20.77812 -4.27502,-6.3437 -7.51539,-7.41025 -23.69767,-7.79999 -15.574974,-0.37512 -20.898575,0.52158 -24.893944,4.1931 -7.699794,7.07568 -6.663636,19.3257 2.085874,24.66034 2.925482,1.78369 5.061178,1.98751 20.86126,1.99086 16.63851,0.004 17.78813,-0.12052 21,-2.26619 z m 0,-60 c 6.77711,-4.52741 8.97364,-14.35408 4.64448,-20.77812 -4.27502,-6.3437 -7.51539,-7.41025 -23.69767,-7.79999 -15.574974,-0.37512 -20.898575,0.52158 -24.893944,4.1931 -7.699794,7.07568 -6.663636,19.3257 2.085874,24.66034 2.925482,1.78369 5.061178,1.98751 20.86126,1.99086 16.63851,0.004 17.78813,-0.12052 21,-2.26619 z m 0,-60 c 6.77711,-4.52741 8.97364,-14.35408 4.64448,-20.77812 -4.27502,-6.3437 -7.51539,-7.41025 -23.69767,-7.79999 -15.574974,-0.37512 -20.898575,0.52158 -24.893944,4.1931 -7.699794,7.07568 -6.663636,19.3257 2.085874,24.66034 2.925482,1.78369 5.061178,1.98751 20.86126,1.99086 16.63851,0.004 17.78813,-0.12052 21,-2.26619 z"
         id="path2016" />
      <path
         style="fill:#5ea0a1"
         d="M 141,470.02271 27.5,469.5 21.851572,466.63747 C 14.51552,462.91968 7.9359261,456.11833 3.8217696,448 l -3.29402785,-6.5 -0.348199,-20 -0.34819899,-20 256.15802624,-0.36729 256.15802,-0.36729 -0.3237,20.86729 L 511.5,442.5 l -3.2243,6.58912 c -3.88324,7.93572 -11.04625,14.97589 -19.05763,18.73082 L 483.5,470.5 369,470.52271 c -62.975,0.0125 -165.575,-0.21251 -228,-0.5 z M 0.23413418,220.75 0.5,70.5 3.8078987,64 C 7.9462214,55.868222 14.528508,49.071754 21.851572,45.369205 L 27.5,42.513353 l 159,-0.753451 c 87.45,-0.414397 190.05,-0.642402 228,-0.506676 l 69,0.246774 5.71807,2.680056 c 8.01138,3.754936 15.17439,10.795104 19.05763,18.730824 L 511.5,69.5 511.76271,220.25 512.02543,371 H 255.99685 -0.03173164 Z M 240.98007,345.24845 c 10.34025,-5.19513 10.78414,-20.15369 0.77907,-26.25385 -12.91015,-7.87141 -28.87155,8.92127 -19.9433,20.98195 4.91351,6.63738 12.36594,8.68747 19.16423,5.2719 z M 307,343.18132 c 10.94145,-7.98066 4.87359,-25.56594 -8.82162,-25.56594 -8.40133,0 -14.18215,5.94817 -14.17464,14.58496 0.0104,11.94944 13.09951,18.19965 22.99626,10.98098 z m 62.24058,1.15753 c 7.8453,-3.95179 9.39688,-15.78534 2.96388,-22.6048 -10.66641,-11.30719 -29.70987,1.31509 -23.41273,15.5183 2.21102,4.98695 3.8522,6.50815 8.94879,8.29452 3.95977,1.38791 6.97535,1.07114 11.50006,-1.20802 z M 255.75629,192.75 256.01257,117 h -29.54612 c -27.42766,0 -29.82314,0.14132 -33.40956,1.97098 -5.42761,2.76895 -9.79401,8.46449 -11.09502,14.47235 -0.74393,3.43534 -0.99353,23.49295 -0.77845,62.55667 0.31191,56.65118 0.34836,57.55905 2.46926,61.5 2.64789,4.92017 5.78283,7.92205 10.35446,9.91497 2.90523,1.26648 8.37176,1.48584 32.49286,1.30384 l 29,-0.21881 z m -133.65417,72.98007 c 6.77711,-4.52741 8.97364,-14.35408 4.64448,-20.77812 -4.27502,-6.3437 -7.51539,-7.41025 -23.69767,-7.79999 -15.574974,-0.37512 -20.898575,0.52158 -24.893944,4.1931 -7.699794,7.07568 -6.663636,19.3257 2.085874,24.66034 2.925482,1.78369 5.061178,1.98751 20.86126,1.99086 16.63851,0.004 17.78813,-0.12052 21,-2.26619 z m 0,-60 c 6.77711,-4.52741 8.97364,-14.35408 4.64448,-20.77812 -4.27502,-6.3437 -7.51539,-7.41025 -23.69767,-7.79999 -15.574974,-0.37512 -20.898575,0.52158 -24.893944,4.1931 -7.699794,7.07568 -6.663636,19.3257 2.085874,24.66034 2.925482,1.78369 5.061178,1.98751 20.86126,1.99086 16.63851,0.004 17.78813,-0.12052 21,-2.26619 z m 0,-60 c 6.77711,-4.52741 8.97364,-14.35408 4.64448,-20.77812 -4.27502,-6.3437 -7.51539,-7.41025 -23.69767,-7.79999 -15.574974,-0.37512 -20.898575,0.52158 -24.893944,4.1931 -7.699794,7.07568 -6.663636,19.3257 2.085874,24.66034 2.925482,1.78369 5.061178,1.98751 20.86126,1.99086 16.63851,0.004 17.78813,-0.12052 21,-2.26619 z"
         id="path2014" />
      <path
         style="fill:#4d6c9e"
         d="M 144.5,470.01644 30.5,469.5 l -6,-2.41249 C 16.661299,463.93571 7.1324996,454.61651 4.4719562,447.5 c -1.0281017,-2.75 -2.3423789,-5.32105 -2.920616,-5.71344 -0.65276409,-0.44297 -1.18422657,-8.02522 -1.4018599,-20 L -0.2010394,402.5 255.99006,402.12974 l 256.19109,-0.37026 -0.38406,20.37026 -0.38406,20.37026 -3.35023,6.30609 c -6.6763,12.56673 -16.47032,19.53672 -29.88361,21.26692 -6.83717,0.88193 -131.16633,0.86085 -333.67919,-0.0566 z M 0.2321257,220.71341 C 0.41691507,117.38521 0.82608772,70.705551 1.5513402,70.213413 2.1295773,69.821036 3.4438545,67.25 4.4719562,64.5 7.1441865,57.352231 16.670046,48.051053 24.5,44.944346 l 6,-2.380632 217.5,-0.918622 c 137.24696,-0.579669 221.00669,-0.567824 227.00375,0.0321 16.25663,1.626257 25.70242,7.76604 33.10254,21.516717 L 511.5,69.5 511.76585,220.36713 512.03171,371.23425 255.99798,370.86713 -0.0357486,370.5 Z M 242.82449,345.29769 c 5.29409,-3.92101 7.39147,-8.24017 6.965,-14.34313 -0.45122,-6.45707 -2.56812,-9.84096 -8.13559,-13.00487 -8.11013,-4.60886 -18.73879,-0.53119 -22.19335,8.51445 -4.13882,10.83733 4.28212,22.08463 15.86394,21.18844 2.73036,-0.21127 5.98583,-1.23344 7.5,-2.35489 z m 62.93465,-0.29229 c 13.06485,-7.96573 7.4434,-27.98923 -7.86126,-28.00166 -15.35483,-0.0125 -20.43869,21.55164 -6.6797,28.33318 4.48738,2.21173 10.59819,2.07242 14.54096,-0.33152 z m 63.25646,0.14299 c 13.82422,-7.3462 8.64004,-28.14091 -7.0156,-28.14091 -8.57785,0 -14.98924,6.45345 -14.99626,15.09464 -0.009,11.22802 12.01853,18.35673 22.01186,13.04627 z m -28.42947,-75.91017 84.08612,-0.73822 4.13077,-2.86306 c 2.58058,-1.78862 5.08138,-4.77069 6.66387,-7.94634 L 438,252.60731 v -60.14637 -60.14637 l -2.32677,-4.40729 c -1.27973,-2.424 -4.24321,-5.75728 -6.58552,-7.40728 l -4.25875,-3 -83.66448,-0.73783 c -46.01546,-0.40581 -96.61613,-0.98184 -112.44592,-1.28008 -19.20492,-0.36182 -30.12077,-0.1816 -32.80668,0.54164 -5.04466,1.35839 -11.65808,7.23261 -14.04622,12.47627 -1.69816,3.72867 -1.82174,8.10383 -1.82174,64.5 0,68.20402 -0.31081,65.3048 7.72432,72.0507 6.83478,5.73814 7.82823,5.87258 39.73176,5.37659 15.95,-0.24797 66.83876,-0.78305 113.08613,-1.18907 z m -217.81349,-3.07243 c 4.7499,-3.38788 7.56771,-9.45388 6.94752,-14.95619 -0.5691,-5.04903 -2.92443,-8.70258 -7.70999,-11.9596 C 118.88919,237.12588 117.71374,237 101,237 c -16.758912,0 -17.884394,0.12141 -21.07832,2.2738 -8.960567,6.03852 -10.569628,17.01997 -3.605068,24.6037 4.242249,4.6194 6.921479,5.127 25.683388,4.86597 16.53166,-0.23 17.68109,-0.37263 20.77264,-2.57768 z m 0,-60 c 4.7499,-3.38788 7.56771,-9.45388 6.94752,-14.95619 -0.5691,-5.04903 -2.92443,-8.70258 -7.70999,-11.9596 C 118.88919,177.12588 117.71374,177 101,177 c -16.758912,0 -17.884394,0.12141 -21.07832,2.2738 -8.960567,6.03852 -10.569628,17.01997 -3.605068,24.6037 4.242249,4.6194 6.921479,5.127 25.683388,4.86597 16.53166,-0.23 17.68109,-0.37263 20.77264,-2.57768 z m 0,-60 c 4.7499,-3.38788 7.56771,-9.45388 6.94752,-14.95619 -0.5691,-5.04903 -2.92443,-8.70258 -7.70999,-11.9596 C 118.88919,117.12588 117.71374,117 101,117 c -16.758912,0 -17.884394,0.12141 -21.07832,2.2738 -8.960567,6.03852 -10.569628,17.01997 -3.605068,24.6037 4.242249,4.6194 6.921479,5.127 25.683388,4.86597 16.53166,-0.23 17.68109,-0.37263 20.77264,-2.57768 z"
         id="path2012" />
      <path
         style="fill:#364a75"
         d="M 256.68738,469.35405 C 256.30932,468.97599 256,453.89167 256,435.83333 V 403 h 126.41821 c 69.53002,0 127.17166,-0.28912 128.09253,-0.64249 1.53846,-0.59037 1.64652,0.9949 1.33179,19.5374 -0.20458,12.05252 -0.74951,20.46689 -1.35303,20.89249 -0.55578,0.39193 -2.12942,3.14815 -3.49698,6.12494 -3.39961,7.4 -9.71871,13.58902 -17.76775,17.40201 L 482.5,469.5 369.93738,469.77071 c -61.90944,0.14889 -112.87194,-0.0386 -113.25,-0.41666 z M 383.5,370.00575 256.5,369.5 256.24038,320.56496 c -0.20418,-38.48505 0.009,-49.1058 1,-49.73468 0.69279,-0.43981 38.06157,-0.80655 83.04174,-0.81497 89.40188,-0.0167 85.6545,0.22002 92.09398,-5.81836 1.58185,-1.48332 3.70947,-4.49695 4.72804,-6.69695 1.7381,-3.75412 1.85194,-7.7189 1.85194,-64.5 0,-56.38421 -0.12389,-60.7727 -1.82106,-64.50858 -1.93122,-4.25107 -7.61212,-9.84308 -11.99611,-11.80841 -1.94621,-0.87247 -24.49496,-1.25725 -85.90135,-1.46583 L 255.97512,114.93436 256.23756,78.717178 256.5,42.5 h 113 113 l 6.72477,3.185652 c 8.04904,3.812989 14.36814,10.002006 17.76775,17.402007 1.36756,2.976787 2.9412,5.733384 3.49698,6.12577 1.20207,0.848679 1.97724,301.925301 0.77637,301.542321 -0.42123,-0.13434 -57.91587,-0.47184 -127.76587,-0.75 z m -78.90107,-23.91118 c 10.82224,-4.91487 12.50846,-19.33445 3.10013,-26.51053 -4.72668,-3.60522 -9.59155,-4.27872 -15.26253,-2.11295 -12.57914,4.80402 -13.29937,22.42784 -1.16208,28.43572 5.17322,2.5607 8.01133,2.6007 13.32448,0.18776 z m 65.99105,-1.15018 c 3.85012,-2.3795 7.3661,-8.55811 7.3661,-12.94439 0,-1.375 -0.83768,-4.34452 -1.86151,-6.59893 -5.4741,-12.05363 -21.8511,-12.30951 -27.84457,-0.43506 -1.2375,2.45177 -2.25,5.61707 -2.25,7.03399 0,4.94072 4.16016,11.32537 9,13.81241 5.35971,2.75418 10.16175,2.48681 15.58998,-0.86802 z"
         id="path2010" />
      <path
         style="fill:#2d3d6d"
         d="M 257,436.51676 V 404 h 126.5 c 83.66667,0 126.5,-0.3386 126.5,-1 0,-0.55 0.45,-1 1,-1 0.62186,0 0.99671,5.57754 0.99131,14.75 -0.01,16.8494 -0.88331,26.78059 -2.08496,23.70806 -0.75251,-1.92412 -0.76701,-1.9234 -0.83685,0.0419 -0.13551,3.8132 -5.8581,14.02056 -10.20311,18.19925 -2.40152,2.30959 -7.06639,5.45959 -10.36639,7 l -6,2.80075 -112.75,0.26676 L 257,469.03349 V 436.51672 Z M 510,370 c 0,-0.6614 -42.83333,-1 -126.5,-1 H 257 V 320.5 272 l 82.25,-0.022 c 80.58408,-0.0215 82.34114,-0.0632 86.75,-2.05895 5.54822,-2.51148 9.51599,-6.18268 12.34158,-11.41909 2.14447,-3.97414 2.15842,-4.39754 2.15842,-65.5 0,-61.37529 -0.004,-61.5083 -2.19109,-65.59468 -2.38168,-4.45086 -7.98137,-9.84456 -12.17,-11.72231 C 424.20622,114.8166 401.28761,114.36619 340.5,114 l -83,-0.5 -0.26281,-35.266768 -0.26281,-35.266769 112.76281,0.266769 L 482.5,43.5 l 6,2.80075 c 3.3,1.540412 7.96487,4.690412 10.36639,7 4.34501,4.178693 10.0676,14.386055 10.20311,18.19925 0.0698,1.965337 0.0843,1.966064 0.83685,0.04194 0.56115,-1.434806 0.94089,-0.499504 1.42103,3.5 C 512.44176,84.324619 512.12465,371 511,371 c -0.55,0 -1,-0.45 -1,-1 z M 305.69841,346.90395 c 2.88709,-1.39761 5.15818,-3.50948 6.81572,-6.33786 9.80307,-16.72766 -11.18775,-33.89015 -25.56427,-20.90183 -6.93473,6.26512 -7.63206,16.21129 -1.61689,23.06219 5.65573,6.44152 12.70259,7.88702 20.36544,4.1775 z m 61.98649,1.03243 c 3.8309,-1.44741 8.27321,-5.76278 9.93826,-9.65426 C 382.14071,327.72392 373.60249,315 362,315 c -8.50435,0 -17,8.29185 -17,16.59218 0,11.69522 12.03656,20.36742 22.6849,16.3442 z"
         id="path2008" />
    </g>
  </g>
</svg>
