<?xml version="1.0" encoding="UTF-8" standalone="no"?>
<!-- Created with Inkscape (http://www.inkscape.org/) -->

<svg
   version="1.1"
   id="svg2318"
   width="682.66669"
   height="682.66669"
   viewBox="0 0 682.66669 682.66669"
   sodipodi:docname="architecture-and-city.png"
   xmlns:inkscape="http://www.inkscape.org/namespaces/inkscape"
   xmlns:sodipodi="http://sodipodi.sourceforge.net/DTD/sodipodi-0.dtd"
   xmlns="http://www.w3.org/2000/svg"
   xmlns:svg="http://www.w3.org/2000/svg">
  <defs
     id="defs2322" />
  <sodipodi:namedview
     id="namedview2320"
     pagecolor="#505050"
     bordercolor="#eeeeee"
     borderopacity="1"
     inkscape:showpageshadow="0"
     inkscape:pageopacity="0"
     inkscape:pagecheckerboard="0"
     inkscape:deskcolor="#505050"
     showgrid="false" />
  <g
     inkscape:groupmode="layer"
     inkscape:label="Image"
     id="g2324">
    <g
       id="g2328">
      <path
         style="fill:#a0e2f6;stroke-width:1.33333"
         d="M 2.6666668,680.00002 C 0.01993272,677.35329 0,675.55558 0,439.49618 0,230.73537 0.2453567,201.07178 2.0069545,196.85569 c 2.2273474,-5.3308 5.8650959,-8.15083 12.2216325,-9.4744 l 4.228587,-0.88048 0.43808,-24.2504 c 0.417355,-23.10313 0.589387,-24.46255 3.636288,-28.73459 3.531507,-4.9515 9.885806,-8.18248 16.092301,-8.18248 h 4.042825 l 0.03181,-21 c 0.03735,-24.6526 1.025799,-30.005031 6.565051,-35.54933 l 4.113596,-4.117341 21.644773,-0.666667 21.644773,-0.666667 0.666667,-18.898181 c 0.624501,-17.702905 0.871112,-19.11545 3.899082,-22.333335 3.93298,-4.179652 10.40769,-4.565197 14.95321,-0.890408 2.98952,2.41686 3.18121,3.539191 3.81437,22.333334 l 0.66667,19.78859 L 142,64.000002 c 23.61878,0.738087 25.30889,1.271668 29.89945,9.439471 2.50965,4.465322 2.76722,7.109592 2.76722,28.408737 v 23.48513 l 4.33334,0.002 c 6.08681,0.003 13.08136,3.86801 16.64009,9.1951 2.86244,4.28477 3.02657,5.81269 3.02657,28.175 v 23.64453 l 5.69547,1.43413 c 7.01052,1.76527 12.79108,7.55415 14.37956,14.40026 1.71744,7.40184 1.56664,85.31824 -0.17728,91.59863 -0.94264,3.39472 -2.732,5.86242 -5.31747,7.33333 -3.8384,2.18369 -3.89688,2.39108 -3.90518,13.84932 -0.008,11.539 0.0232,11.64879 3.92949,13.6688 5.61444,2.90335 6.71268,8.47283 6.72131,34.08587 l 0.008,22.05377 46.33333,8.37271 c 27.67392,5.00084 47.9424,9.30392 50.3288,10.68499 2.19751,1.27176 5.34751,4.31857 7,6.7707 l 3.00454,4.45843 v 131.08422 131.08422 l -2.91808,2.7186 c -2.90314,2.70416 -3.75703,2.71861 -160.66723,2.71861 -155.9708187,0 -157.778649,-0.03 -160.4152632,-2.66667 z m 233.0593432,-71 c -0.39123,-50.81284 -0.40432,-51.02187 -3.56895,-56.95909 -7.44265,-13.96331 -10.74301,-16.04951 -25.35601,-16.02789 -11.41038,0.0169 -20.2791,4.04603 -27.85802,12.65614 -9.20018,10.45197 -9.60969,13.24625 -9.60969,65.57284 v 45.758 h 33.39267 33.39266 z m 125.60734,71.04664 -3.33334,-2.56073 -0.39094,-174.40963 c -0.21503,-95.92529 -0.0253,-176.97934 0.4216,-180.12012 0.9685,-6.80648 7.20578,-13.77786 14.09456,-15.75344 l 4.54145,-1.3024 0.34088,-112.18773 0.34089,-112.187754 35.42826,-38.429095 c 19.48553,-21.136002 37.03213,-39.1520318 38.99244,-40.0356224 4.57001,-2.0598889 13.20837,-2.0598889 17.85419,0 1.99282,0.8835906 15.13614,14.2065284 29.20737,29.6065294 14.07124,15.4 29.97016,32.62188 35.33095,38.270842 l 9.74688,10.270842 0.37907,14.395826 0.37908,14.395822 12.13632,0.66667 c 12.55306,0.68956 15.8695,2.04381 17.82454,7.27854 2.8285,7.57351 2.78062,8.42795 -0.70438,12.56964 -3.4288,4.0749 -3.71366,4.15182 -15.375,4.15182 h -11.88148 v 85.33334 c 0,80.37905 0.13546,85.33363 2.33333,85.33832 3.78681,0.008 10.82273,4.97325 13.67387,9.64949 2.6072,4.27615 2.64957,7.0648 2.65448,174.67886 l 0.005,170.33334 h 37.33334 37.33333 V 397.33335 134.66667 h -17.82019 c -16.00928,0 -18.1772,-0.28083 -21.33333,-2.76344 -2.48148,-1.95193 -3.51168,-4.00755 -3.50816,-7 0.007,-5.4667 4.38315,-12.61519 8.33027,-13.60586 1.69656,-0.4258 16.91349,-0.59191 33.81543,-0.36911 l 30.73077,0.40508 4.6454,3.54596 c 2.90664,2.21873 5.23697,5.52051 6.22593,8.82136 1.19628,3.99283 1.58055,71.93441 1.58055,279.45405 0,272.40087 -0.0173,274.19594 -2.66667,276.84531 -2.63668,2.63668 -4.42434,2.66634 -159,2.63702 -152.10742,-0.0288 -156.42345,-0.0988 -159.66667,-2.59038 z m 114.47108,-19.56992 8.19559,-0.8566 v -26.29101 -26.291 l -7,-0.8408 c -3.85,-0.46244 -13.15,-0.84602 -20.66667,-0.85239 l -13.66667,-0.0116 v 28 28.00001 h 12.47108 c 6.8591,0 16.1591,-0.38548 20.66667,-0.85662 z m 110.7597,-107.04083 c -5.11295,-5.11294 -5.4014,-12.87032 -0.68278,-18.36155 3.20862,-3.73396 3.25096,-3.74182 22.45167,-4.16918 19.16169,-0.4265 19.25347,-0.4143 23.45199,3.11852 3.63843,3.06155 4.20921,4.39684 4.17261,9.76151 -0.0802,11.76144 -3.68129,13.54814 -27.30584,13.54814 h -18.19023 z m 0,-64 c -7.86986,-7.86984 -3.86919,-20.06968 7.26646,-22.15875 2.63736,-0.49477 11.65908,-0.68169 20.04828,-0.41538 13.95047,0.44285 15.54635,0.7597 18.68712,3.7103 4.83286,4.54023 4.91722,14.73263 0.1613,19.48854 -3.17632,3.17633 -3.84702,3.27273 -22.76923,3.27273 h -19.49651 z m -0.62778,-63.63059 c -4.57846,-4.94025 -4.57697,-13.95255 0.003,-18.53257 3.18599,-3.1856 3.80885,-3.27274 23.39433,-3.27274 19.58548,0 20.20835,0.0872 23.39394,3.27274 2.52425,2.52424 3.27273,4.67264 3.27273,9.39393 0,4.72129 -0.74848,6.86969 -3.27273,9.39393 -3.18563,3.18564 -3.80827,3.27274 -23.39699,3.27274 -20.04936,0 -20.13645,-0.0133 -23.39395,-3.52803 z m 5.12342,-60.55023 c -7.52095,-2.28845 -10.63658,-10.87236 -6.91272,-19.04532 2.37942,-5.22227 6.61625,-6.20976 26.64298,-6.20976 18.03888,0 18.77424,0.10973 21.93726,3.27274 4.75865,4.75864 4.67152,14.94784 -0.16671,19.49485 -3.22725,3.033 -4.48163,3.24955 -20.33333,3.51013 -9.29164,0.15275 -18.81702,-0.30745 -21.16748,-1.02264 z M 256.66668,307.3447 c -0.73334,-0.24462 -2.97234,-0.80592 -4.97555,-1.24733 -8.05856,-1.77569 -18.2647,-14.82825 -18.32107,-23.43069 -0.0637,-9.72527 6.61613,-20.68058 14.63503,-24.00211 2.70187,-1.11915 4.84285,-3.53023 6.53836,-7.36319 3.27492,-7.40349 12.11144,-16.16256 19.92433,-19.74968 4.6389,-2.12985 8.71547,-2.83051 16.1989,-2.78419 15.3198,0.0948 25.92364,6.59287 35.1923,21.56583 2.62874,4.24656 4.3523,5.66667 6.87754,5.66667 8.87455,0 19.05839,9.14077 21.84201,19.60488 3.50511,13.17625 -5.94973,27.94288 -19.79216,30.91156 -6.1604,1.32116 -74.47091,2.04543 -78.11969,0.82825 z m 333.14267,-5.94962 c -7.91838,-3.33543 -9.68758,-15.05528 -3.24522,-21.49763 l 3.89742,-3.89744 h 18.16879 c 24.37377,0 27.36968,1.51895 27.36968,13.87663 0,4.35618 -0.79097,6.4025 -3.43665,8.89096 -3.2527,3.05938 -4.41244,3.24844 -21.66667,3.53173 -10.02651,0.16463 -19.51581,-0.24229 -21.08735,-0.90425 z m -3.24522,-66.62585 c -5.1147,-5.11469 -5.40178,-12.87162 -0.67955,-18.36154 l 3.21788,-3.74102 h 20.00803 c 19.34025,0 20.12286,0.10787 23.44878,3.23242 2.6505,2.49002 3.44075,4.53204 3.44075,8.89096 0,12.35768 -2.99591,13.87662 -27.36968,13.87662 h -18.16879 z m 1.92133,-61.66201 c -6.35132,-3.07536 -7.91911,-15.12808 -2.65285,-20.39435 4.06106,-4.06106 11.84201,-5.22513 29.63622,-4.43374 12.25626,0.54509 14.2863,0.9856 17.21308,3.73518 4.71647,4.4309 4.74049,14.68454 0.0453,19.37963 -3.17931,3.17932 -3.81675,3.27016 -22.33334,3.18249 -10.48333,-0.0496 -20.34214,-0.71077 -21.90849,-1.46921 z M 199.56019,101.83574 c -17.94944,-5.514669 -26.90978,-27.437419 -18.18918,-44.502405 4.9538,-9.693889 16.98673,-17.248744 27.56089,-17.304051 5.54951,-0.02903 5.63357,-0.102653 9.59547,-8.404047 5.1004,-10.686934 14.61817,-20.343634 24.80597,-25.1680676 7.16526,-3.3931069 9.42206,-3.7885086 21.62866,-3.7894508 11.42012,-8.814e-4 14.76916,0.5066102 20.66666,3.1316905 10.80922,4.8113659 20.28848,14.1839329 25.67778,25.3887319 3.75868,7.81462 5.41273,9.870276 8.98357,11.164751 28.00863,10.153495 25.46578,52.075843 -3.64901,60.158718 -3.48898,0.96862 -23.35402,1.44425 -57.97432,1.38809 -42.59443,-0.0691 -53.89826,-0.46382 -59.10649,-2.06396 z"
         id="path2342" />
      <path
         style="fill:#f5aaaa;stroke-width:1.33333"
         d="m 2.6666668,680.00002 c -2.64725849,-2.64725 -2.66620069405,-4.40128 -2.60262465,-241 C 0.1236173,217.29063 0.28636932,200.35546 2.3973755,196.20485 4.77435,191.53129 8.8350838,188.69095 15.000001,187.38977 l 3.666666,-0.7739 v -22.35874 c 0,-20.56447 0.240748,-22.82826 3,-28.20929 3.350821,-6.53468 9.794901,-10.7145 16.5187,-10.7145 h 4.22697 l 0.460499,-24.39469 c 0.387788,-20.542905 0.831851,-24.961007 2.812402,-27.981428 4.820654,-7.35169 7.805564,-8.235597 30.248055,-8.95722 l 20.733377,-0.666667 0.666667,-19.1199 c 0.660505,-18.943194 0.701241,-19.149598 4.407683,-22.333334 4.50141,-3.866591 10.16468,-4.128763 14.44461,-0.66869 2.98952,2.41686 3.18121,3.539191 3.81437,22.333334 l 0.66667,19.78859 21.56419,0.666667 c 20.70379,0.640067 21.70813,0.799664 25.17184,4 6.40821,5.920945 7.26397,9.979529 7.26397,34.450438 v 22.53609 l 6.15232,0.69346 c 7.33226,0.82645 12.33615,4.18601 15.51228,10.41479 1.95054,3.82524 2.3316,8.30224 2.33334,27.41361 l 0.003,22.84171 5.84431,1.47161 c 3.88531,0.97834 7.23729,3.05814 10,6.20468 l 4.15569,4.73307 v 48.68088 48.68088 l -3.27273,3.27272 c -1.8,1.8 -3.9,3.27274 -4.66667,3.27274 -0.86349,0 -1.39392,4.43958 -1.39389,11.66666 l 4e-5,11.66667 4.66663,3.72351 4.66662,3.7235 0.0204,24.2765 c 0.0107,13.35207 0.46123,24.94704 1,25.7666 0.53878,0.81955 21.67959,5.21233 46.97959,9.76173 27.50763,4.94639 47.60622,9.20043 49.99547,10.58199 2.19751,1.27069 5.34751,4.31664 7,6.76877 l 3.00453,4.45843 -0.0204,130.80282 c -0.0107,71.94156 -0.46122,131.463 -1,132.2699 -2.97962,4.46149 -5.55752,4.53293 -163.5592,4.53293 -154.9765487,0 -156.7845696,-0.0302 -159.4209932,-2.66667 z M 247.33334,612.66669 c 0,-53.84678 -0.28994,-55.81447 -9.77055,-66.30838 -7.85313,-8.69248 -16.21613,-12.15059 -29.65609,-12.26285 -10.18756,-0.0851 -12.27989,0.34088 -19.29528,3.92824 -8.72677,4.46248 -16.57001,13.4634 -19.10523,21.92516 -0.99886,3.33395 -1.50618,21.26145 -1.50618,53.22569 v 48.19849 l 39.66666,-0.35318 39.66667,-0.35317 z m 114.00001,67.37997 -3.33334,-2.56073 -0.36624,-176.40963 c -0.33041,-159.15674 -0.15725,-176.96217 1.77052,-182.05944 2.3588,-6.23697 6.98495,-10.1921 13.59572,-11.62368 l 4.33334,-0.93838 V 194.85741 c 0,-103.123486 0.17316,-111.847716 2.28045,-114.894066 5.01961,-7.256487 67.74308,-74.1189973 71.57362,-76.2966772 4.70462,-2.67460662 13.16544,-2.953727 18.38533,-0.6065282 1.96499,0.8835906 19.49592,18.9777784 38.95761,40.2093054 l 35.38491,38.602777 0.37571,14.063892 0.37571,14.063887 12.20032,0.66667 c 9.48717,0.51841 12.82293,1.23152 15,3.20665 3.61513,3.2798 3.75473,11.31849 0.27125,15.62041 -2.23432,2.75926 -3.97913,3.20296 -15,3.81437 L 544.66669,134 v 85.85469 c 0,74.98927 0.2531,85.97916 2,86.83823 1.1,0.54094 4.28177,1.96177 7.0706,3.15741 3.74214,1.60433 5.74309,3.65533 7.63738,7.82844 2.48974,5.48485 2.56767,10.72773 2.59607,174.67121 l 0.0293,169.01664 48.33333,-0.34997 48.33334,-0.34996 V 397.33335 134 l -28,-0.73511 c -15.4,-0.40431 -28.12663,-0.85431 -28.28139,-1 -6.77489,-6.37745 -7.67205,-13.09933 -2.44588,-18.32549 l 3.27272,-3.27273 31.06062,0.0219 c 29.79058,0.021 31.27866,0.1454 36.39393,3.04145 10.16653,5.75587 9.29481,-20.123591 9.67605,287.26058 0.3412,275.09889 0.33086,276.33582 -2.33333,279.00001 -2.64909,2.64909 -4.25099,2.67576 -159.00939,2.6464 -152.10747,-0.0288 -156.42345,-0.0988 -159.66667,-2.59038 z m 115.8314,-19.57273 8.22259,-0.85943 -0.36032,-26.80724 -0.36034,-26.80724 -21,-0.36719 -21,-0.3672 v 28.03387 28.03386 h 13.13775 c 7.22576,0 16.83791,-0.38675 21.36032,-0.85943 z M 592.35013,554.51266 c -8.21274,-2.37229 -10.45851,-12.53563 -4.08255,-18.47574 2.62567,-2.44618 4.66087,-2.70357 21.3778,-2.70357 17.83856,0 18.58873,0.11293 21.74857,3.27274 5.75401,5.75398 3.76111,14.21174 -4.12509,17.50681 -5.14969,2.15168 -27.95004,2.41271 -34.91873,0.39976 z m -1.53668,-64.37332 c -3.5582,-1.97216 -6.69439,-6.87387 -6.76618,-10.57522 -0.026,-1.33974 1.70659,-4.18974 3.85019,-6.33333 l 3.89743,-3.89744 h 17.85116 c 16.08936,0 18.13754,0.26683 20.75308,2.70357 6.07575,5.6604 4.88803,14.54976 -2.43942,18.2575 -4.58433,2.31969 -32.89446,2.20152 -37.14626,-0.15508 z m -2.33908,-65.29987 c -5.14884,-4.42884 -5.14884,-11.91674 0,-16.34558 3.45892,-2.97524 4.69232,-3.16054 21.0359,-3.16054 h 17.36155 l 3.89743,3.89744 c 2.34956,2.34956 3.89744,5.30273 3.89744,7.43589 0,2.13316 -1.54788,5.08633 -3.89744,7.43589 l -3.89743,3.89744 h -17.36155 c -16.34358,0 -17.57698,-0.1853 -21.0359,-3.16054 z m 0,-64 c -4.74972,-4.08555 -5.08003,-11.49124 -0.70778,-15.86908 2.71072,-2.71419 4.4299,-3.00219 19.93334,-3.3392 18.4633,-0.40135 22.12518,0.53056 25.46481,6.4805 2.34034,4.1696 1.23019,9.46211 -2.76561,13.18475 -2.61254,2.43396 -4.66452,2.70357 -20.57618,2.70357 -16.67256,0 -17.88246,-0.17912 -21.34858,-3.16054 z M 252.93846,306.1005 c -13.69629,-3.68278 -21.95376,-17.76004 -18.32424,-31.23902 1.77757,-6.60142 7.79405,-13.87863 13.39087,-16.19691 2.70187,-1.11915 4.84285,-3.53023 6.53836,-7.36319 3.27512,-7.40394 11.31732,-15.36096 19.55935,-19.35217 9.0383,-4.37683 22.53753,-4.45394 31.89721,-0.1822 8.17191,3.72962 12.96752,8.10686 18.88013,17.233 3.49306,5.39152 5.30688,7 7.89372,7 7.13896,0 15.43981,5.9168 19.52187,13.91511 7.80415,15.29124 -1.49788,33.43948 -18.82383,36.72528 -10.58021,2.00649 -72.60996,1.59065 -80.53344,-0.5399 z m 334.51341,-10.2028 c -1.89852,-2.25625 -3.45185,-4.98605 -3.45185,-6.06621 0,-4.10392 4.06344,-9.59273 8.15845,-11.02025 6.1797,-2.15426 29.62924,-1.88094 35.11039,0.40922 7.8862,3.29507 9.8791,11.75283 4.12509,17.50682 -3.16208,3.16209 -3.90181,3.27273 -21.88146,3.27273 h -18.60875 z m 3.84916,-60.42561 c -3.83133,-1.66931 -7.30101,-6.7856 -7.30101,-10.76586 0,-1.00922 1.55333,-3.681 3.45185,-5.93725 l 3.45187,-4.10231 h 18.60875 c 17.97965,0 18.71938,0.11067 21.88146,3.27274 5.75401,5.75398 3.76111,14.21174 -4.12509,17.50681 -5.87425,2.45441 -30.35351,2.47201 -35.96783,0.0259 z m -0.63434,-63.80895 c -7.24804,-3.78603 -8.11252,-13.28348 -1.67035,-18.35089 2.94093,-2.31334 5.42587,-2.64558 19.78743,-2.64558 17.70272,0 22.08081,1.11411 24.40256,6.20976 2.23924,4.91462 1.80519,7.9302 -1.73434,12.04923 -3.17502,3.69487 -3.42588,3.74556 -20.33333,4.10984 -12.12464,0.26123 -18.09107,-0.13913 -20.45197,-1.37236 z M 200.29573,102.06853 c -11.58956,-3.676216 -19.03907,-12.077698 -21.69656,-24.469187 -3.92502,-18.301673 11.8209,-37.545354 30.75454,-37.586316 6.01328,-0.01307 6.02316,-0.02085 8.3785,-6.652477 3.32917,-9.373488 14.97421,-21.561753 25.59748,-26.7915742 8.10735,-3.9912297 8.95556,-4.1280474 22.87824,-3.6902726 12.05515,0.3790532 15.567,0.9977908 21.12541,3.7219876 9.6197,4.7146492 20.06886,15.7120192 24.7608,26.0598732 2.16283,4.770024 4.70898,8.672771 5.65811,8.672771 4.34593,0 14.294,8.174104 18.16667,14.927142 9.17915,16.006324 3.18978,35.052633 -13.90143,44.206903 -5.20248,2.78651 -6.88469,2.8735 -60.68415,3.13825 -43.50683,0.2141 -56.55252,-0.11443 -61.03761,-1.5371 z"
         id="path2340" />
      <path
         style="fill:#6995b9;stroke-width:1.33333"
         d="M 2.8990854,679.58076 0,676.49482 0.00498408,438.58075 C 0.00986995,205.35491 0.06101227,200.58295 2.600303,196.41843 c 2.8335381,-4.64709 6.5731092,-7.10496 12.733031,-8.3689 l 4,-0.82075 0.666667,-24.61439 c 0.4465,-16.48549 1.232576,-25.60513 2.380245,-27.61439 2.55608,-4.47498 7.978602,-7.50686 14.837845,-8.29624 L 43.333335,126 44.000002,101.26807 c 0.556002,-20.626533 1.057072,-25.326663 3.018569,-28.314761 4.823017,-7.347268 7.811383,-8.231768 30.249604,-8.953307 l 20.731828,-0.666667 0.32563,-17.333333 c 0.41298,-21.983096 0.684696,-23.055893 6.449647,-25.464643 3.88172,-1.621885 5.28894,-1.663772 8.24686,-0.24547 5.87856,2.818732 6.93674,6.761539 6.95821,25.926302 L 120,63.765716 l 21,0.450476 c 31.67951,0.679566 32.33334,1.409917 32.33334,36.117598 0,16.21446 0.47852,23.6114 1.6,24.73288 0.88,0.88 3.95059,1.6 6.82353,1.6 4.28996,0 6.14868,0.92516 10.4,5.17647 l 5.17647,5.17648 v 23.38115 c 0,12.85962 0.36419,24.33021 0.80932,25.49018 0.44512,1.15999 2.10448,2.10906 3.68747,2.10906 4.78522,0 11.81601,4.59708 14.40018,9.41554 2.2249,4.14855 2.43636,8.54047 2.43636,50.60031 0,49.98955 -0.0797,50.55968 -7.46788,53.36864 -3.05986,1.16335 -3.19878,1.75503 -3.19878,13.62352 v 12.40735 l 3.98712,1.50497 c 2.274,0.85835 4.56553,3.02634 5.33333,5.04579 0.74041,1.94744 1.34621,14.25408 1.34621,27.34807 v 23.80727 l 3.66667,0.79065 c 2.01667,0.43487 23.42483,4.34615 47.57368,8.69172 45.75094,8.23287 47.52662,8.78465 53.34394,16.57633 2.733,3.66055 2.74905,4.44936 2.74905,135.03542 v 131.35338 l -3.14771,2.54885 c -3.05938,2.47734 -7.55237,2.54887 -160.10092,2.54887 H 5.798171 Z M 247.33334,612.66669 c 0,-53.84678 -0.28994,-55.81447 -9.77055,-66.30838 -7.85313,-8.69248 -16.21613,-12.15059 -29.65609,-12.26285 -10.18756,-0.0851 -12.27989,0.34088 -19.29528,3.92824 -8.72677,4.46248 -16.57001,13.4634 -19.10523,21.92516 -0.99886,3.33395 -1.50618,21.26145 -1.50618,53.22569 v 48.19849 l 39.66666,-0.35318 39.66667,-0.35317 z M 162.66667,168.00001 v -18.66667 h -60 -60.000002 v 18.66667 18.66666 h 60.000002 60 z m 198.89909,511.58075 -2.89908,-3.08594 0.005,-177.91407 c 0.005,-175.2473 0.0448,-177.97929 2.65754,-182.26462 2.37004,-3.88717 6.69393,-6.68429 13.67081,-8.8436 2.19697,-0.67996 2.33685,-7.17232 2.39347,-111.09735 0.0453,-83.14884 0.45642,-111.244097 1.66666,-113.897764 2.79567,-6.129969 70.32706,-78.2353236 74.70034,-79.7598575 12.11052,-4.2217484 14.07328,-2.775208 51.76708,38.1519405 18.59319,20.188095 34.85263,38.301224 36.13211,40.251398 1.80468,2.750705 2.32788,6.424193 2.33333,16.382681 l 0.007,12.836912 12.18973,0.5828 c 11.2888,0.53972 12.4221,0.85291 15.33334,4.23744 3.79622,4.41337 4.04042,10.10299 0.61517,14.333 -2.23432,2.75926 -3.97913,3.20296 -15,3.81437 L 544.66669,134 v 85.85469 c 0,74.98927 0.2531,85.97916 2,86.83823 1.1,0.54094 4.28177,1.96177 7.0706,3.15741 3.74214,1.60433 5.74309,3.65533 7.63738,7.82844 2.48974,5.48485 2.56767,10.72773 2.59607,174.67121 l 0.0293,169.01664 48.33333,-0.34997 48.33334,-0.34996 V 397.33335 134 l -28,-0.73511 c -15.4,-0.40431 -28.12663,-0.85431 -28.28139,-1 -6.6206,-6.2322 -7.38859,-11.50667 -2.50303,-17.19053 l 3.21559,-3.74102 27.95668,-0.4281 c 29.41736,-0.45046 35.9567,0.36 42.13834,5.22247 7.97413,6.27246 7.47381,-12.90475 7.47381,286.46938 v 274.27143 l -3.08593,2.89909 -3.08594,2.89908 H 520.47983 364.46485 Z m 123.76759,-46.12771 v -27.88031 l -11,-0.88227 c -6.05,-0.48524 -15.8,-0.68909 -21.66667,-0.45301 l -10.66666,0.42923 -0.35986,28.33333 -0.35985,28.33334 h 22.02652 22.02652 z m 34.60863,-327.528 c 0.97008,-0.97031 1.3017,-33.52183 1.06633,-104.66667 L 520.66668,98.000003 460.33335,97.653083 400.00001,97.306162 V 201.76419 c 0,57.45193 0.45,104.91517 1,105.47387 1.59226,1.61747 117.28909,0.34028 118.94197,-1.31301 z M 413.23243,271.22672 c -2.7886,-2.96764 -3.28486,-4.93563 -3.61439,-14.33334 -0.42872,-12.22632 1.08276,-16.57999 6.68948,-19.26839 4.95087,-2.3739 10.12053,-0.72429 13.21883,4.21807 2.14426,3.4205 2.53516,6.08684 2.20646,15.05032 -0.3441,9.38359 -0.84746,11.37015 -3.63188,14.33334 -2.14826,2.2862 -4.64172,3.43996 -7.43425,3.43996 -2.79253,0 -5.28599,-1.15376 -7.43425,-3.43996 z m 40.03992,0.0417 c -2.57596,-2.74199 -3.29231,-5.16468 -3.70933,-12.54492 -0.68032,-12.03997 1.41894,-18.28115 7.05265,-20.96767 3.75211,-1.78927 4.87947,-1.82368 8.16315,-0.24921 5.45902,2.61749 7.17918,7.09001 7.20154,18.72443 0.0175,9.077 -0.3697,10.69377 -3.4322,14.33333 -4.47725,5.32091 -10.67034,5.60633 -15.27581,0.70404 z m 40.76467,0.39827 c -2.82454,-2.45966 -3.58571,-4.56099 -4.22608,-11.66667 -1.4803,-16.42559 4.10906,-25.54728 14.28474,-23.31232 6.36759,1.39856 7.90434,5.04634 7.90434,18.76252 0,10.31355 -0.42543,12.73101 -2.76344,15.70332 -3.56774,4.53565 -10.31862,4.76356 -15.19956,0.51315 z m -79.72213,-56.00001 c -3.2792,-2.49016 -4.98154,-8.26124 -4.98154,-16.88788 0,-13.35217 3.27508,-18.77882 11.33333,-18.77882 8.03692,0 11.33333,5.42937 11.33333,18.66666 0,9.03351 -2.02562,15.56311 -5.38592,17.36148 -3.39132,1.81498 -9.67632,1.63026 -12.2992,-0.36148 z m 40.00001,0 c -3.29075,-2.49893 -4.98155,-8.26896 -4.98155,-17.00004 0,-12.64433 3.445,-18.5355 10.89095,-18.62426 8.67768,-0.10343 11.77572,4.79637 11.77572,18.62426 0,9.89314 -2.19527,16.3555 -6.05974,17.83843 -3.53773,1.35755 -9.2788,0.94351 -11.62538,-0.83843 z m 39.11456,-0.90389 c -5.37732,-5.37732 -5.31386,-25.8754 0.098,-31.63601 3.99774,-4.2554 11.59541,-4.27532 15.57352,-0.0408 2.55705,2.72185 2.89908,4.5821 2.89908,15.76758 0,11.53202 -0.27975,12.94446 -3.08594,15.58074 -3.97909,3.73816 -11.90678,3.90636 -15.48462,0.32852 z m -77.40317,-55.10983 c -5.3854,-2.77733 -6.83013,-7.15894 -6.40824,-19.43508 0.35404,-10.30167 0.6559,-11.35105 4.123,-14.33333 4.74695,-4.08315 9.10432,-4.08315 13.85128,2e-5 3.61379,3.10846 3.74102,3.65132 3.74102,15.96296 0,10.98298 -0.36868,13.10726 -2.66667,15.36471 -3.59865,3.53519 -8.63319,4.50731 -12.64039,2.44072 z m 40.24782,0.31231 c -4.83785,-1.98699 -7.28147,-9.65683 -6.7062,-21.04888 0.44611,-8.83401 0.888,-10.20607 4.20631,-13.06036 4.715,-4.05567 9.08041,-4.04666 13.81812,0.0285 3.61378,3.10846 3.74101,3.65132 3.74101,15.96297 0,10.98297 -0.36868,13.10725 -2.66667,15.36471 -3.32857,3.26988 -8.39421,4.39521 -12.39257,2.75302 z m 39.72591,-0.3012 c -4.82762,-2.51737 -7.06534,-10.36047 -6.181,-21.6641 0.61788,-7.89786 1.26332,-9.79473 4.19661,-12.33333 4.60693,-3.98705 10.56228,-3.87665 14.71165,0.27273 3.01224,3.01224 3.27274,4.27399 3.27274,15.85228 0,10.02103 -0.47458,13.15117 -2.33334,15.38993 -2.96244,3.56809 -9.35722,4.72966 -13.66666,2.48249 z m 96.35011,394.84856 c -8.21274,-2.37229 -10.45851,-12.53563 -4.08255,-18.47574 2.62567,-2.44618 4.66087,-2.70357 21.3778,-2.70357 17.83856,0 18.58873,0.11293 21.74857,3.27274 5.75401,5.75398 3.76111,14.21174 -4.12509,17.50681 -5.14969,2.15168 -27.95004,2.41271 -34.91873,0.39976 z m -1.53668,-64.37332 c -3.5582,-1.97216 -6.69439,-6.87387 -6.76618,-10.57522 -0.026,-1.33974 1.70659,-4.18974 3.85019,-6.33333 l 3.89743,-3.89744 h 17.85116 c 16.08936,0 18.13754,0.26683 20.75308,2.70357 6.07575,5.6604 4.88803,14.54976 -2.43942,18.2575 -4.58433,2.31969 -32.89446,2.20152 -37.14626,-0.15508 z m -2.33908,-65.29987 c -5.14884,-4.42884 -5.14884,-11.91674 0,-16.34558 3.45892,-2.97524 4.69232,-3.16054 21.0359,-3.16054 h 17.36155 l 3.89743,3.89744 c 2.34956,2.34956 3.89744,5.30273 3.89744,7.43589 0,2.13316 -1.54788,5.08633 -3.89744,7.43589 l -3.89743,3.89744 h -17.36155 c -16.34358,0 -17.57698,-0.1853 -21.0359,-3.16054 z m 0,-64 c -4.74972,-4.08555 -5.08003,-11.49124 -0.70778,-15.86908 2.71072,-2.71419 4.4299,-3.00219 19.93334,-3.3392 18.4633,-0.40135 22.12518,0.53056 25.46481,6.4805 2.34034,4.1696 1.23019,9.46211 -2.76561,13.18475 -2.61254,2.43396 -4.66452,2.70357 -20.57618,2.70357 -16.67256,0 -17.88246,-0.17912 -21.34858,-3.16054 z M 251.29136,305.25046 c -5.05612,-1.47069 -12.44617,-8.55456 -14.82171,-14.20762 -5.02344,-11.95423 -0.61739,-23.91982 11.70407,-31.78499 2.86697,-1.83008 6.04042,-5.56873 7.78388,-9.17024 3.18249,-6.57414 10.76822,-13.81283 18.51602,-17.66891 7.27251,-3.61955 25.68867,-3.34331 32.85972,0.49288 6.80635,3.64108 13.25724,10.01283 17.54554,17.33023 1.85598,3.16701 4.0675,5.76155 4.91449,5.76564 4.16783,0.0201 11.90378,3.13751 15.6883,6.32197 14.48849,12.19126 10.67218,34.83803 -7.1237,42.27362 -4.10119,1.71358 -11.56172,2.04324 -43.9818,1.94338 -21.47356,-0.0661 -40.86172,-0.64932 -43.08481,-1.29596 z m 336.16051,-9.35276 c -1.89852,-2.25625 -3.45185,-4.98605 -3.45185,-6.06621 0,-4.10392 4.06344,-9.59273 8.15845,-11.02025 6.1797,-2.15426 29.62924,-1.88094 35.11039,0.40922 7.8862,3.29507 9.8791,11.75283 4.12509,17.50682 -3.16208,3.16209 -3.90181,3.27273 -21.88146,3.27273 h -18.60875 z m 3.84916,-60.42561 c -3.83133,-1.66931 -7.30101,-6.7856 -7.30101,-10.76586 0,-1.00922 1.55333,-3.681 3.45185,-5.93725 l 3.45187,-4.10231 h 18.60875 c 17.97965,0 18.71938,0.11067 21.88146,3.27274 5.75401,5.75398 3.76111,14.21174 -4.12509,17.50681 -5.87425,2.45441 -30.35351,2.47201 -35.96783,0.0259 z m -0.63434,-63.80895 c -7.24804,-3.78603 -8.11252,-13.28348 -1.67035,-18.35089 2.94093,-2.31334 5.42587,-2.64558 19.78743,-2.64558 17.70272,0 22.08081,1.11411 24.40256,6.20976 2.23924,4.91462 1.80519,7.9302 -1.73434,12.04923 -3.17502,3.69487 -3.42588,3.74556 -20.33333,4.10984 -12.12464,0.26123 -18.09107,-0.13913 -20.45197,-1.37236 z M 198.98518,100.90792 c -19.96785,-7.338539 -26.72335,-33.525827 -12.66331,-49.088606 6.27322,-6.9437 11.25994,-9.422299 20.87198,-10.374202 5.00434,-0.495591 8.24028,-1.505157 8.90565,-2.778444 0.57484,-1.1 2.35552,-4.879738 3.95709,-8.399416 3.98874,-8.765831 14.32466,-18.990134 23.58352,-23.3288574 6.83279,-3.2018569 9.25905,-3.6045714 21.69323,-3.6006824 12.84843,0.00401 14.63916,0.3275943 21.77036,3.9337906 10.08282,5.0988052 21.33887,17.1564172 24.51782,26.2637552 2.01993,5.786909 3.18401,7.161791 7.72184,9.120145 13.16617,5.682016 19.86264,15.571627 19.94066,29.449159 0.0421,7.485347 -0.54225,9.728078 -3.98593,15.298086 -2.50003,4.043714 -6.51765,8.062073 -10.56016,10.562107 L 318.21302,102 l -57.43984,0.25298 c -41.88508,0.18447 -58.61732,-0.17978 -61.788,-1.34506 z"
         id="path2338" />
      <path
         style="fill:#faa80b;stroke-width:1.33333"
         d="M 3.3939394,679.27276 0,675.87881 0.00878561,438.93942 C 0.01724969,210.67097 0.10781723,201.86314 2.4836004,198.25991 5.7646471,193.28374 9.3803482,190.8917 15.555497,189.61194 l 5.11117,-1.05925 0.666667,-25.58756 0.666667,-25.58757 4.320777,-4.31725 c 3.454108,-3.45128 5.727368,-4.45863 11.333334,-5.02211 L 44.666668,127.33334 45.333335,102 c 0.708791,-26.934049 1.218279,-29.171987 7.612524,-33.438187 3.105192,-2.071765 7.250464,-2.599364 25.054144,-3.188823 L 99.333337,64.666669 100,45.198624 c 0.73885,-21.575947 1.56606,-23.86529 8.62328,-23.86529 8.08557,0 9.31649,3.088192 9.83216,24.667258 l 0.45543,19.05866 21.11407,0.470374 c 18.92552,0.42162 21.5042,0.760107 24.87789,3.265575 6.50479,4.830748 7.05632,7.371598 7.07752,32.604799 0.0137,16.39887 0.49836,23.87871 1.61966,25 0.88,0.88 3.6098,1.6 6.06621,1.6 2.45641,0 6.22627,0.91016 8.37743,2.02257 7.04265,3.6419 7.9542,7.40285 7.97677,32.91122 0.0107,12.68642 0.46123,23.72187 1,24.52322 0.53877,0.80136 3.04823,1.86008 5.57656,2.35273 2.52833,0.49264 6.02844,1.83367 7.77803,2.98004 6.51882,4.27129 6.95833,7.75187 6.95833,55.10467 0,46.43855 -0.33665,49.28256 -6.14703,51.92995 -3.04176,1.38592 -3.18685,2.04284 -3.19832,14.48036 l -0.012,13.02858 4.34536,3.56839 4.34535,3.5684 0.41481,25.49732 c 0.40307,24.77515 0.49747,25.53235 3.33334,26.7344 1.60518,0.6804 22.79386,4.79682 47.08595,9.14759 24.29209,4.35079 46.03193,8.87468 48.31077,10.05311 2.27883,1.17844 5.20348,4.08245 6.49923,6.45337 2.20652,4.03741 2.3559,12.51541 2.3559,133.70258 0,121.62563 -0.14189,129.60839 -2.36406,133 l -2.36411,3.60819 H 163.36321 6.787879 Z M 247.22429,663.1907 c 1.87019,-0.71765 2.10905,-6.35358 2.10905,-49.76248 0,-57.48656 -0.0279,-57.64895 -11.91436,-69.54804 -9.71311,-9.72335 -17.33849,-12.43939 -32.57509,-11.60272 -16.84384,0.92494 -28.22679,8.10239 -35.12376,22.14709 l -3.72012,7.57547 -0.40906,49.10548 c -0.3022,36.27718 0.001,49.6004 1.16326,51 1.2921,1.55688 8.41498,1.89452 39.96668,1.89452 21.11689,0 39.34343,-0.36418 40.5034,-0.80932 z M 162.66667,168.00001 v -18.66667 h -60 -60.000002 v 18.66667 18.66666 h 60.000002 60 z m 200.76392,512.57344 c -1.15128,-1.15128 -2.4108,-3.40128 -2.79892,-5 -0.38814,-1.59872 -0.53904,-82.51743 -0.33535,-179.81938 l 0.37036,-176.91261 3.82513,-3.99241 c 2.10382,-2.19583 6.00382,-4.50751 8.66667,-5.13707 l 4.84153,-1.14464 0.66667,-112.87689 0.66667,-112.87689 4.11076,-4.406779 c 2.2609,-2.423728 18.3759,-19.874984 35.8111,-38.780569 17.4352,-18.905585 33.40557,-35.2555855 35.48971,-36.3333347 5.0222,-2.5970809 7.74238,-2.46546142 12.80158,0.6194212 4.49273,2.7394745 72.49909,76.1046165 74.02647,79.8596315 0.49846,1.22544 0.94846,8.01388 1,15.085421 0.10957,15.032599 -0.46218,14.475989 14.86944,14.475989 11.43484,0 15.89094,2.26792 15.89094,8.08765 0,7.54584 -6.17782,10.55879 -21.67618,10.57158 l -9.00952,0.007 0.34285,88.27878 0.34285,88.27879 4,0.82303 c 6.15879,1.2672 9.78162,3.66285 11.9862,7.92605 1.76526,3.41363 2.0138,24.85152 2.0138,173.69382 0,130.28854 0.37231,170.17186 1.6,171.39955 1.18387,1.18387 13.8128,1.6 48.55762,1.6 25.82669,0 47.90669,-0.36418 49.06667,-0.80932 1.9134,-0.73424 2.10905,-25.41077 2.10905,-266.00001 V 132 l -25,-0.007 c -28.98279,-0.009 -33.9621,-0.93455 -36.37694,-6.76448 -1.48017,-3.57347 -1.36022,-4.49737 0.99274,-7.64634 L 604.95882,114 h 32.83607 32.83605 l 5.68455,5.68621 5.68453,5.68621 0.34276,275.24377 0.34276,275.24377 -3.40337,3.40337 -3.40336,3.40336 h -155.1775 c -139.22971,0 -155.39262,-0.21512 -157.27072,-2.09324 z m 123.09983,-18.40924 c 1.06376,-1.28175 1.41484,-10.43656 1.16326,-30.33334 l -0.36033,-28.49752 h -23.33333 -23.33334 l -0.36072,28.6337 c -0.1984,15.74853 -0.0672,29.39853 0.29148,30.33333 0.98008,2.55406 43.80567,2.42708 45.93298,-0.13617 z m 33.41156,-356.23916 c 0.97008,-0.97031 1.3017,-33.52183 1.06633,-104.66667 L 520.66668,98.000003 460.33335,97.653083 400.00001,97.306162 V 201.76419 c 0,57.45193 0.45,104.91517 1,105.47387 1.59226,1.61747 117.28909,0.34028 118.94197,-1.31301 z M 413.23243,271.22672 c -2.7886,-2.96764 -3.28486,-4.93563 -3.61439,-14.33334 -0.42872,-12.22632 1.08276,-16.57999 6.68948,-19.26839 4.95087,-2.3739 10.12053,-0.72429 13.21883,4.21807 2.14426,3.4205 2.53516,6.08684 2.20646,15.05032 -0.3441,9.38359 -0.84746,11.37015 -3.63188,14.33334 -2.14826,2.2862 -4.64172,3.43996 -7.43425,3.43996 -2.79253,0 -5.28599,-1.15376 -7.43425,-3.43996 z m 40.56127,0.26737 c -3.24676,-2.79275 -3.75175,-4.29468 -4.21794,-12.54492 -0.69376,-12.27791 1.36952,-18.48934 7.03991,-21.19335 3.75211,-1.78927 4.87947,-1.82368 8.16315,-0.24921 5.45902,2.61749 7.17918,7.09001 7.20154,18.72443 0.0175,9.077 -0.3697,10.69377 -3.4322,14.33333 -4.26196,5.06505 -9.55881,5.39883 -14.75446,0.92972 z m 40.01525,0.0133 c -3.41659,-2.93882 -3.67785,-3.89328 -3.74101,-13.66666 -0.0373,-5.77896 0.39077,-12.1463 0.9514,-14.14962 1.3075,-4.67227 7.81681,-8.15843 13.07634,-7.00324 6.36759,1.39856 7.90434,5.04635 7.90434,18.76252 0,10.31355 -0.42543,12.73102 -2.76344,15.70332 -3.62427,4.60752 -10.30422,4.76066 -15.42763,0.35368 z m -79.49406,-55.84075 c -3.2792,-2.49012 -4.98154,-8.2612 -4.98154,-16.88784 0,-13.35217 3.27508,-18.77882 11.33333,-18.77882 8.03692,0 11.33333,5.42937 11.33333,18.66666 0,9.03351 -2.02562,15.56311 -5.38592,17.36148 -3.39132,1.81498 -9.67632,1.63026 -12.2992,-0.36148 z m 40.00001,0 c -3.29075,-2.49889 -4.98155,-8.26892 -4.98155,-17 0,-12.64433 3.445,-18.5355 10.89095,-18.62426 8.67768,-0.10343 11.77572,4.79637 11.77572,18.62426 0,9.89314 -2.19527,16.3555 -6.05974,17.83843 -3.53773,1.35755 -9.2788,0.94351 -11.62538,-0.83843 z m 38.91753,-1.77408 c -2.91768,-3.10573 -3.23241,-4.58826 -3.23241,-15.22592 0,-10.63765 0.31473,-12.12018 3.23241,-15.22592 4.29367,-4.57038 11.75151,-4.73714 15.86851,-0.35481 2.55705,2.72185 2.89908,4.58211 2.89908,15.76759 0,11.53201 -0.27975,12.94445 -3.08594,15.58073 -4.39822,4.13191 -11.52221,3.88584 -15.68165,-0.54167 z m -77.20614,-54.23964 c -5.3854,-2.77733 -6.83013,-7.15894 -6.40824,-19.43508 0.35404,-10.30167 0.6559,-11.35105 4.123,-14.33333 4.74695,-4.08315 9.10432,-4.08315 13.85128,2e-5 3.61379,3.10846 3.74102,3.65132 3.74102,15.96296 0,10.98298 -0.36868,13.10726 -2.66667,15.36471 -3.59865,3.53519 -8.63319,4.50731 -12.64039,2.44072 z m 40.24782,0.31231 c -4.93767,-2.02799 -7.34773,-9.75477 -6.61311,-21.20194 0.55887,-8.70832 1.07415,-10.29321 4.22874,-13.00667 4.60377,-3.96 8.9978,-3.91898 13.7026,0.12791 3.61378,3.10845 3.74101,3.65132 3.74101,15.96296 0,10.98298 -0.36868,13.10726 -2.66667,15.36471 -3.32857,3.26988 -8.39421,4.39521 -12.39257,2.75303 z m 40.1464,0.0759 c -4.84095,-2.03432 -6.34113,-6.53724 -6.38217,-19.15659 -0.0367,-11.27801 0.12173,-11.9198 3.70269,-15.00001 4.88871,-4.20508 10.74777,-4.18364 14.98625,0.0548 3.01224,3.01224 3.27274,4.27399 3.27274,15.85229 0,10.02103 -0.47458,13.15116 -2.33334,15.38992 -2.70348,3.25619 -9.04474,4.62512 -13.24617,2.85955 z m 93.16426,390.57358 c -4.09151,-3.81181 -3.82542,-9.70746 0.59506,-13.18461 3.11607,-2.45107 5.34308,-2.76342 19.70332,-2.76342 19.31723,0 22.11687,1.18146 22.11687,9.33334 0,8.20497 -2.74576,9.33333 -22.71192,9.33333 -15.04915,0 -17.08707,-0.28118 -19.70333,-2.71861 z m -0.25142,-63.94803 c -3.83669,-3.83669 -3.45178,-9.85554 0.84648,-13.23656 3.08879,-2.42964 5.35416,-2.76344 18.75432,-2.76344 19.35162,0 23.00406,1.62574 23.04546,10.25774 0.0344,7.18014 -3.31819,8.40893 -22.94294,8.40893 -15.25888,0 -17.31492,-0.27827 -19.70332,-2.66667 z M 588.74229,422.37 c -2.89927,-4.13929 -2.58598,-9.4948 0.73105,-12.49667 2.45204,-2.21906 4.96127,-2.53998 19.86001,-2.53998 19.39715,0 22.66667,1.34628 22.66667,9.33333 0,7.68345 -2.61265,8.66667 -23.02939,8.66667 -17.24702,0 -18.25629,-0.14786 -20.22834,-2.96335 z m 4.59106,-60.64924 c -6.76685,-2.48812 -8.82396,-10.23012 -4,-15.05408 2.40024,-2.40024 4.44444,-2.66667 20.46002,-2.66667 19.76498,0 22.2271,0.97344 22.18624,8.77166 -0.0429,8.18908 -3.97923,9.92293 -22.22527,9.78974 -7.93155,-0.0579 -15.32099,-0.43618 -16.42099,-0.84065 z m -341.79309,-58.2952 c -6.86009,-2.49558 -11.01629,-6.6311 -13.68371,-13.61562 -4.16472,-10.90516 0.77563,-24.29222 10.7033,-29.00321 3.34603,-1.58779 5.78369,-4.22223 8.05588,-8.70619 14.25248,-28.12592 53.06301,-28.17255 67.39427,-0.0809 2.05689,4.03184 3.52516,5.17813 7.60293,5.93569 2.77956,0.51639 7.16405,2.11967 9.74332,3.56286 15.16007,8.48258 15.29503,30.72213 0.24322,40.08133 -4.82854,3.00239 -5.77822,3.0738 -44.93279,3.37909 -31.55075,0.246 -41.08286,-0.082 -45.12642,-1.553 z m 80.21915,-21.75888 c 0.50513,-3.5567 -2.95363,-4.02888 -7.01424,-0.9576 -3.53923,2.67694 -10.49541,2.46044 -14.07491,-0.43804 -2.28813,-1.85283 -3.16642,-4.40459 -3.87616,-11.26163 -0.97461,-9.41625 -3.13022,-13.06909 -9.72473,-16.47924 -10.95257,-5.6638 -25.06936,3.05743 -25.06936,15.48763 0,4.19333 -5.85483,9.31554 -10.64791,9.31554 -4.27992,0 -6.24056,2.42818 -4.86181,6.02115 0.67187,1.75083 5.72876,1.97375 37.80932,1.66667 l 37.03373,-0.35448 z m 258.42042,14.23656 c -4.29826,-3.38102 -4.68317,-9.39987 -0.84648,-13.23656 2.3884,-2.3884 4.44444,-2.66667 19.70332,-2.66667 19.85316,0 22.96335,1.18407 22.96335,8.74227 0,2.81329 -1.0326,5.62366 -2.66667,7.25773 -2.37912,2.37912 -4.44444,2.66667 -19.15352,2.66667 -14.66038,0 -16.87605,-0.30615 -20,-2.76344 z m -0.84648,-63.90323 c -3.88733,-3.88734 -3.4517,-9.85562 0.97344,-13.33643 3.37079,-2.65147 4.90794,-2.83125 20.77698,-2.43011 19.11449,0.48319 20.91625,1.33994 20.91625,9.94578 0,7.27046 -3.29259,8.48742 -22.96335,8.48742 -15.25888,0 -17.31492,-0.27826 -19.70332,-2.66666 z m 0,-64 c -3.48716,-3.48716 -3.42058,-9.57107 0.13999,-12.79335 2.45204,-2.21907 4.96127,-2.53999 19.86001,-2.53999 19.39715,0 22.66667,1.34628 22.66667,9.33334 0,7.63697 -2.66591,8.66666 -22.43832,8.66666 -15.78391,0 -17.83163,-0.26994 -20.22835,-2.66666 z M 199.33334,99.328605 c -6.81691,-2.412783 -16.00951,-12.077583 -17.87373,-18.79189 -5.3786,-19.371781 8.22321,-37.870047 27.84593,-37.870047 h 6.66792 l 3.87528,-8.546755 c 5.19283,-11.452531 13.16247,-19.805367 23.9676,-25.1200027 8.06712,-3.9679161 9.87948,-4.3332435 21.49678,-4.3332435 11.34189,0 13.53501,0.4160947 20.68689,3.9248806 10.68821,5.2437466 19.36027,14.3739436 23.98239,25.2493786 3.2049,7.540834 4.35917,8.951683 8.4203,10.291976 2.58846,0.854266 7.3142,3.95712 10.50168,6.895229 16.10601,14.845994 9.61307,42.46743 -11.46741,48.783299 -8.02989,2.40581 -111.13315,1.98431 -118.10363,-0.482825 z M 314.06061,79.393943 c 6.97113,-6.971135 2.59883,-16.727274 -7.49649,-16.727274 -6.96932,0 -13.23078,-5.650726 -13.23078,-11.940262 0,-9.420266 -7.14096,-19.788327 -16.66666,-24.198589 -7.0043,-3.242884 -14.86359,-3.165011 -23.95728,0.237378 -11.70722,4.380232 -16.95893,13.000281 -16.86222,27.677343 0.0475,7.19345 -0.42139,8.919552 -3.16849,11.666667 -4.29207,4.292066 -8.58719,4.065039 -14.67868,-0.77587 -5.92122,-4.705586 -9.66992,-5.025566 -14.48686,-1.23656 -6.1556,4.841994 -4.36301,14.860201 3.15352,17.62398 1.1,0.404463 24.97727,0.782756 53.06061,0.840651 l 51.06061,0.105262 z"
         id="path2336" />
      <path
         style="fill:#d7423b;stroke-width:1.33333"
         d="M 3.3939394,679.27276 0,675.87881 0.00878561,438.93942 C 0.01724969,210.67097 0.10781723,201.86314 2.4836004,198.25991 5.7646471,193.28374 9.3803482,190.8917 15.555497,189.61194 l 5.11117,-1.05925 0.666667,-25.58756 0.666667,-25.58757 4.320777,-4.31725 c 3.454108,-3.45128 5.727368,-4.45863 11.333334,-5.02211 L 44.666668,127.33334 45.333335,102 c 0.708791,-26.934049 1.218279,-29.171987 7.612524,-33.438187 3.105192,-2.071765 7.250464,-2.599364 25.054144,-3.188823 L 99.333337,64.666669 100,45.198624 c 0.73885,-21.575947 1.56606,-23.86529 8.62328,-23.86529 8.08557,0 9.31649,3.088192 9.83216,24.667258 l 0.45543,19.05866 21.11407,0.470374 c 18.92552,0.42162 21.5042,0.760107 24.87789,3.265575 6.50479,4.830748 7.05632,7.371598 7.07752,32.604799 0.0137,16.39887 0.49836,23.87871 1.61966,25 0.88,0.88 3.6098,1.6 6.06621,1.6 2.45641,0 6.22627,0.91016 8.37743,2.02257 7.04265,3.6419 7.9542,7.40285 7.97677,32.91122 0.0107,12.68642 0.46123,23.72187 1,24.52322 0.53877,0.80136 3.04823,1.86008 5.57656,2.35273 6.52293,1.271 10.66532,4.36124 12.84773,9.58448 2.38699,5.71287 2.7902,90.50158 0.45475,95.62732 -0.78863,1.73086 -3.50627,4.26307 -6.03919,5.62715 -4.52357,2.43609 -4.66916,2.43247 -8.20105,-0.20448 -1.97765,-1.47652 -4.00021,-4.13051 -4.49457,-5.89773 -0.49435,-1.76723 -0.95864,-21.30272 -1.03174,-43.41222 l -0.1329,-40.19907 -16.33334,-0.87737 c -8.98333,-0.48256 -48.13333,-0.69297 -87,-0.46759 l -70.666669,0.40978 v 226 226.00001 l 30.666667,0.37619 c 16.866668,0.20689 32.023463,0.0437 33.68177,-0.36253 l 3.0151,-0.73871 -0.348434,-53.63747 -0.348434,-53.63748 -19.333334,-0.66667 c -20.943085,-0.72217 -24.269809,-1.69749 -26.373479,-7.73208 -1.586878,-4.55212 0.768428,-11.27065 4.558542,-13.00327 1.364881,-0.62394 11.181603,-1.46374 21.814937,-1.86621 l 19.333334,-0.73177 v -13.33334 -13.33333 l -20.000001,-0.66667 c -11,-0.36666 -20.809251,-1.18869 -21.798334,-1.82673 -3.307744,-2.13375 -5.348367,-8.97739 -3.908478,-13.10785 2.10367,-6.03459 5.430394,-7.00991 26.373479,-7.73208 l 19.333334,-0.66667 v -13.33333 -13.33334 l -20.000001,-0.66666 c -11,-0.36667 -20.809251,-1.1887 -21.798334,-1.82674 -3.307744,-2.13374 -5.348367,-8.97738 -3.908478,-13.10785 2.077423,-5.9593 5.454769,-6.94544 26.373479,-7.70071 l 19.333334,-0.69804 v -13.33333 -13.33334 l -20.3012,-0.66666 c -18.037115,-0.59232 -20.590448,-0.96407 -22.894786,-3.33334 -4.237264,-4.35665 -4.185619,-11.27562 0.114067,-15.28138 2.665411,-2.48322 4.634816,-2.71862 22.744579,-2.71862 h 19.826498 l 5.465095,-6.00506 c 8.665667,-9.52187 9.966077,-9.59424 48.490737,-2.69834 42.20148,7.55406 49.02997,8.7034 51.70875,8.7034 1.92369,0 2.1796,-2.43149 2.1796,-20.70949 0,-23.55195 1.2756,-28.74658 7.60045,-30.95143 3.37555,-1.17673 4.49149,-0.86236 8.47676,2.38796 l 4.58945,3.74308 0.41482,25.49732 c 0.40306,24.77515 0.49746,25.53235 3.33333,26.7344 1.60519,0.6804 22.79387,4.79682 47.08595,9.14759 24.29209,4.35079 46.03193,8.87468 48.31077,10.05311 2.27883,1.17844 5.20348,4.08245 6.49923,6.45337 2.20652,4.03741 2.35591,12.51541 2.35591,133.70258 0,121.62563 -0.1419,129.60839 -2.36407,133 l -2.36408,3.60819 H 163.36321 6.787879 Z M 247.22429,663.1907 c 1.87019,-0.71765 2.10905,-6.35358 2.10905,-49.76248 0,-57.48656 -0.0279,-57.64895 -11.91436,-69.54804 -9.71311,-9.72335 -17.33849,-12.43939 -32.57509,-11.60272 -16.84384,0.92494 -28.22679,8.10239 -35.12376,22.14709 l -3.72012,7.57547 -0.40906,49.10548 c -0.3022,36.27718 0.001,49.6004 1.16326,51 1.2921,1.55688 8.41498,1.89452 39.96668,1.89452 21.11689,0 39.34343,-0.36418 40.5034,-0.80932 z M 175.33334,168.00001 V 148.66667 H 108.66667 42.000001 l -0.37307,17.81551 c -0.252643,12.06467 0.1262,18.41708 1.173604,19.67912 1.293368,1.55843 12.272699,1.807 67.039735,1.51784 l 65.49307,-0.3458 z M 151.33334,106 V 87.333336 H 108.66667 66.000002 L 65.62487,104.59616 c -0.206322,9.49455 -0.07191,18.053 0.298692,19.01877 0.541744,1.41176 8.978625,1.68694 43.041798,1.40385 l 42.36798,-0.35211 z m 212.09725,574.57345 c -1.15128,-1.15128 -2.4108,-3.40128 -2.79892,-5 -0.38814,-1.59872 -0.53904,-82.51743 -0.33535,-179.81938 l 0.37036,-176.91261 3.82513,-3.99241 c 2.10382,-2.19583 6.00382,-4.50751 8.66667,-5.13707 l 4.84153,-1.14464 0.66667,-112.87689 0.66667,-112.87689 4.11076,-4.406779 c 2.2609,-2.423728 18.3759,-19.874984 35.8111,-38.780569 17.4352,-18.905585 33.40557,-35.2555855 35.48971,-36.3333347 5.0222,-2.5970809 7.74238,-2.46546142 12.80158,0.6194212 4.49273,2.7394745 72.49909,76.1046165 74.02647,79.8596315 0.49846,1.22544 0.94846,8.01388 1,15.085421 0.10957,15.032599 -0.46218,14.475989 14.86944,14.475989 11.43484,0 15.89094,2.26792 15.89094,8.08765 0,7.54584 -6.17782,10.55879 -21.67618,10.57158 l -9.00952,0.007 0.34285,88.27878 0.34285,88.27879 4,0.82303 c 6.15879,1.2672 9.78162,3.66285 11.9862,7.92605 1.76526,3.41363 2.0138,24.85152 2.0138,173.69382 0,130.28854 0.37231,170.17186 1.6,171.39955 1.18387,1.18387 13.8128,1.6 48.55762,1.6 25.82669,0 47.90669,-0.36418 49.06667,-0.80932 1.9134,-0.73424 2.10905,-25.41077 2.10905,-266.00001 V 132 l -25,-0.007 c -28.98279,-0.009 -33.9621,-0.93455 -36.37694,-6.76448 -1.48017,-3.57347 -1.36022,-4.49737 0.99274,-7.64634 L 604.95882,114 h 32.83607 32.83605 l 5.68455,5.68621 5.68453,5.68621 0.34276,275.24377 0.34276,275.24377 -3.40337,3.40337 -3.40336,3.40336 h -155.1775 c -139.22971,0 -155.39262,-0.21512 -157.27072,-2.09324 z m 123.09983,-18.40924 c 1.06376,-1.28175 1.41484,-10.43656 1.16326,-30.33334 l -0.36033,-28.49752 h -23.33333 -23.33334 l -0.36072,28.6337 c -0.1984,15.74853 -0.0672,29.39853 0.29148,30.33333 0.98008,2.55406 43.80567,2.42708 45.93298,-0.13617 z m 33.41156,-356.23916 c 0.97008,-0.97031 1.3017,-33.52183 1.06633,-104.66667 L 520.66668,98.000003 460.33335,97.653083 400.00001,97.306162 V 201.76419 c 0,57.45193 0.45,104.91517 1,105.47387 1.59226,1.61747 117.28909,0.34028 118.94197,-1.31301 z M 413.23243,271.22672 c -2.7886,-2.96764 -3.28486,-4.93563 -3.61439,-14.33334 -0.42872,-12.22632 1.08276,-16.57999 6.68948,-19.26839 4.95087,-2.3739 10.12053,-0.72429 13.21883,4.21807 2.14426,3.4205 2.53516,6.08684 2.20646,15.05032 -0.3441,9.38359 -0.84746,11.37015 -3.63188,14.33334 -2.14826,2.2862 -4.64172,3.43996 -7.43425,3.43996 -2.79253,0 -5.28599,-1.15376 -7.43425,-3.43996 z m 40.56127,0.26737 c -3.24676,-2.79275 -3.75175,-4.29468 -4.21794,-12.54492 -0.69376,-12.27791 1.36952,-18.48934 7.03991,-21.19335 3.75211,-1.78927 4.87947,-1.82368 8.16315,-0.24921 5.45902,2.61749 7.17918,7.09001 7.20154,18.72443 0.0175,9.077 -0.3697,10.69377 -3.4322,14.33333 -4.26196,5.06505 -9.55881,5.39883 -14.75446,0.92972 z m 40.01525,0.0133 c -3.41659,-2.93882 -3.67785,-3.89328 -3.74101,-13.66666 -0.0373,-5.77896 0.39077,-12.1463 0.9514,-14.14962 1.3075,-4.67227 7.81681,-8.15843 13.07634,-7.00324 6.36759,1.39856 7.90434,5.04635 7.90434,18.76252 0,10.31355 -0.42543,12.73102 -2.76344,15.70332 -3.62427,4.60752 -10.30422,4.76066 -15.42763,0.35368 z m -79.49406,-55.84075 c -3.2792,-2.49012 -4.98154,-8.2612 -4.98154,-16.88784 0,-13.35217 3.27508,-18.77882 11.33333,-18.77882 8.03692,0 11.33333,5.42937 11.33333,18.66666 0,9.03351 -2.02562,15.56311 -5.38592,17.36148 -3.39132,1.81498 -9.67632,1.63026 -12.2992,-0.36148 z m 40.00001,0 c -3.29075,-2.49889 -4.98155,-8.26892 -4.98155,-17 0,-12.64433 3.445,-18.5355 10.89095,-18.62426 8.67768,-0.10343 11.77572,4.79637 11.77572,18.62426 0,9.89314 -2.19527,16.3555 -6.05974,17.83843 -3.53773,1.35755 -9.2788,0.94351 -11.62538,-0.83843 z m 38.91753,-1.77408 c -2.91768,-3.10573 -3.23241,-4.58826 -3.23241,-15.22592 0,-10.63765 0.31473,-12.12018 3.23241,-15.22592 4.29367,-4.57038 11.75151,-4.73714 15.86851,-0.35481 2.55705,2.72185 2.89908,4.58211 2.89908,15.76759 0,11.53201 -0.27975,12.94445 -3.08594,15.58073 -4.39822,4.13191 -11.52221,3.88584 -15.68165,-0.54167 z m -77.20614,-54.23964 c -5.3854,-2.77733 -6.83013,-7.15894 -6.40824,-19.43508 0.35404,-10.30167 0.6559,-11.35105 4.123,-14.33333 4.74695,-4.08315 9.10432,-4.08315 13.85128,2e-5 3.61379,3.10846 3.74102,3.65132 3.74102,15.96296 0,10.98298 -0.36868,13.10726 -2.66667,15.36471 -3.59865,3.53519 -8.63319,4.50731 -12.64039,2.44072 z m 40.24782,0.31231 c -4.93767,-2.02799 -7.34773,-9.75477 -6.61311,-21.20194 0.55887,-8.70832 1.07415,-10.29321 4.22874,-13.00667 4.60377,-3.96 8.9978,-3.91898 13.7026,0.12791 3.61378,3.10845 3.74101,3.65132 3.74101,15.96296 0,10.98298 -0.36868,13.10726 -2.66667,15.36471 -3.32857,3.26988 -8.39421,4.39521 -12.39257,2.75303 z m 40.1464,0.0759 c -4.84095,-2.03432 -6.34113,-6.53724 -6.38217,-19.15659 -0.0367,-11.27801 0.12173,-11.9198 3.70269,-15.00001 4.88871,-4.20508 10.74777,-4.18364 14.98625,0.0548 3.01224,3.01224 3.27274,4.27399 3.27274,15.85229 0,10.02103 -0.47458,13.15116 -2.33334,15.38992 -2.70348,3.25619 -9.04474,4.62512 -13.24617,2.85955 z m 93.16426,390.57358 c -4.09151,-3.81181 -3.82542,-9.70746 0.59506,-13.18461 3.11607,-2.45107 5.34308,-2.76342 19.70332,-2.76342 19.31723,0 22.11687,1.18146 22.11687,9.33334 0,8.20497 -2.74576,9.33333 -22.71192,9.33333 -15.04915,0 -17.08707,-0.28118 -19.70333,-2.71861 z m -0.25142,-63.94803 c -3.83669,-3.83669 -3.45178,-9.85554 0.84648,-13.23656 3.08879,-2.42964 5.35416,-2.76344 18.75432,-2.76344 19.35162,0 23.00406,1.62574 23.04546,10.25774 0.0344,7.18014 -3.31819,8.40893 -22.94294,8.40893 -15.25888,0 -17.31492,-0.27827 -19.70332,-2.66667 z M 588.74229,422.37 c -2.89927,-4.13929 -2.58598,-9.4948 0.73105,-12.49667 2.45204,-2.21906 4.96127,-2.53998 19.86001,-2.53998 19.39715,0 22.66667,1.34628 22.66667,9.33333 0,7.68345 -2.61265,8.66667 -23.02939,8.66667 -17.24702,0 -18.25629,-0.14786 -20.22834,-2.96335 z m 4.59106,-60.64924 c -6.76685,-2.48812 -8.82396,-10.23012 -4,-15.05408 2.40024,-2.40024 4.44444,-2.66667 20.46002,-2.66667 19.76498,0 22.2271,0.97344 22.18624,8.77166 -0.0429,8.18908 -3.97923,9.92293 -22.22527,9.78974 -7.93155,-0.0579 -15.32099,-0.43618 -16.42099,-0.84065 z M 45.994556,347.66668 c -4.608813,-3.96459 -4.884073,-10.50498 -0.632576,-15.0305 l 3.102859,-3.30284 h 33.535164 33.535167 l 3.1213,3.32248 c 4.36751,4.649 4.15475,10.8773 -0.5086,14.88854 -3.5919,3.08963 -3.97037,3.12232 -36.147867,3.12232 -31.800117,0 -32.594952,-0.0663 -36.005447,-3 z m 97.668434,0.35443 c -4.41553,-3.47326 -5.56119,-8.39454 -3.07392,-13.20437 2.57677,-4.98293 4.16232,-5.4834 17.37227,-5.4834 12.62977,0 16.14231,1.79327 17.52397,8.94659 0.69184,3.58188 0.16556,4.941 -3.22676,8.33334 -3.83517,3.83516 -4.62358,4.05341 -14.64284,4.05341 -8.54234,0 -11.23958,-0.51143 -13.95272,-2.64557 z m 107.87727,-44.59555 c -6.86009,-2.49558 -11.01629,-6.6311 -13.68371,-13.61562 -4.16472,-10.90516 0.77563,-24.29222 10.7033,-29.00321 3.34603,-1.58779 5.78369,-4.22223 8.05588,-8.70619 14.25248,-28.12592 53.06301,-28.17255 67.39427,-0.0809 2.05689,4.03184 3.52516,5.17813 7.60293,5.93569 2.77956,0.51639 7.16405,2.11967 9.74332,3.56286 15.16007,8.48258 15.29503,30.72213 0.24322,40.08133 -4.82854,3.00239 -5.77822,3.0738 -44.93279,3.37909 -31.55075,0.246 -41.08286,-0.082 -45.12642,-1.553 z m 80.21915,-21.75888 c 0.50513,-3.5567 -2.95363,-4.02888 -7.01424,-0.9576 -3.53923,2.67694 -10.49541,2.46044 -14.07491,-0.43804 -2.28813,-1.85283 -3.16642,-4.40459 -3.87616,-11.26163 -0.97461,-9.41625 -3.13022,-13.06909 -9.72473,-16.47924 -10.95257,-5.6638 -25.06936,3.05743 -25.06936,15.48763 0,4.19333 -5.85483,9.31554 -10.64791,9.31554 -4.27992,0 -6.24056,2.42818 -4.86181,6.02115 0.67187,1.75083 5.72876,1.97375 37.80932,1.66667 l 37.03373,-0.35448 z M 46.179814,297.23657 c -4.692569,-3.69117 -4.904485,-11.46463 -0.427211,-15.67081 2.998591,-2.81703 4.029828,-2.89908 36.434249,-2.89908 h 33.348318 l 3.1213,3.32248 c 4.36751,4.649 4.15475,10.87729 -0.5086,14.88853 -3.5912,3.08903 -3.9755,3.12232 -36.042407,3.12232 -30.771931,0 -32.590324,-0.13987 -35.925649,-2.76344 z m 97.005656,-0.35888 c -4.66335,-4.01124 -4.87611,-10.23953 -0.5086,-14.88853 2.83713,-3.01999 4.12204,-3.32248 14.11318,-3.32248 13.09745,0 14.7151,0.50881 17.25928,5.42869 2.80286,5.42016 2.44732,7.61313 -1.94676,12.0072 -3.65983,3.65984 -4.54943,3.89744 -14.59231,3.89744 -9.29284,0 -11.17075,-0.40932 -14.32479,-3.12232 z m 446.99436,-0.97445 c -4.29826,-3.38102 -4.68317,-9.39987 -0.84648,-13.23656 2.3884,-2.3884 4.44444,-2.66667 19.70332,-2.66667 19.85316,0 22.96335,1.18407 22.96335,8.74227 0,2.81329 -1.0326,5.62366 -2.66667,7.25773 -2.37912,2.37912 -4.44444,2.66667 -19.15352,2.66667 -14.66038,0 -16.87605,-0.30615 -20,-2.76344 z M 46.179814,246.5699 c -2.709815,-2.13154 -3.513146,-3.93872 -3.513146,-7.90323 0,-3.9645 0.803331,-5.77168 3.513146,-7.90322 3.335325,-2.62358 5.153718,-2.76344 35.925649,-2.76344 32.066907,0 32.451207,0.0333 36.042407,3.12232 4.98073,4.28424 4.98073,10.80445 0,15.08869 -3.5912,3.08903 -3.9755,3.12232 -36.042407,3.12232 -30.771931,0 -32.590324,-0.13986 -35.925649,-2.76344 z m 97.005656,-0.35888 c -4.66335,-4.01124 -4.87611,-10.23953 -0.5086,-14.88853 2.86369,-3.04827 4.06503,-3.31899 14.55555,-3.28008 11.96052,0.0444 14.42088,0.95513 17.32984,6.41512 2.07095,3.88706 0.96719,8.6348 -2.82981,12.17224 -2.42927,2.26321 -4.69486,2.70357 -13.90951,2.70357 -9.62073,0 -11.46489,-0.39337 -14.63747,-3.12232 z m 446.14788,-14.21101 c -3.88733,-3.88734 -3.4517,-9.85562 0.97344,-13.33643 3.37079,-2.65147 4.90794,-2.83125 20.77698,-2.43011 19.11449,0.48319 20.91625,1.33994 20.91625,9.94578 0,7.27046 -3.29259,8.48742 -22.96335,8.48742 -15.25888,0 -17.31492,-0.27826 -19.70332,-2.66666 z m 0,-64 c -3.48716,-3.48716 -3.42058,-9.57107 0.13999,-12.79335 2.45204,-2.21907 4.96127,-2.53999 19.86001,-2.53999 19.39715,0 22.66667,1.34628 22.66667,9.33334 0,7.63697 -2.66591,8.66666 -22.43832,8.66666 -15.78391,0 -17.83163,-0.26994 -20.22835,-2.66666 z M 199.33334,99.328605 c -6.81691,-2.412783 -16.00951,-12.077583 -17.87373,-18.79189 -5.3786,-19.371781 8.22321,-37.870047 27.84593,-37.870047 h 6.66792 l 3.87528,-8.546755 c 5.19283,-11.452531 13.16247,-19.805367 23.9676,-25.1200027 8.06712,-3.9679161 9.87948,-4.3332435 21.49678,-4.3332435 11.34189,0 13.53501,0.4160947 20.68689,3.9248806 10.68821,5.2437466 19.36027,14.3739436 23.98239,25.2493786 3.2049,7.540834 4.35917,8.951683 8.4203,10.291976 2.58846,0.854266 7.3142,3.95712 10.50168,6.895229 16.10601,14.845994 9.61307,42.46743 -11.46741,48.783299 -8.02989,2.40581 -111.13315,1.98431 -118.10363,-0.482825 z M 314.06061,79.393943 c 6.97113,-6.971135 2.59883,-16.727274 -7.49649,-16.727274 -6.96932,0 -13.23078,-5.650726 -13.23078,-11.940262 0,-9.420266 -7.14096,-19.788327 -16.66666,-24.198589 -7.0043,-3.242884 -14.86359,-3.165011 -23.95728,0.237378 -11.70722,4.380232 -16.95893,13.000281 -16.86222,27.677343 0.0475,7.19345 -0.42139,8.919552 -3.16849,11.666667 -4.29207,4.292066 -8.58719,4.065039 -14.67868,-0.77587 -5.92122,-4.705586 -9.66992,-5.025566 -14.48686,-1.23656 -6.1556,4.841994 -4.36301,14.860201 3.15352,17.62398 1.1,0.404463 24.97727,0.782756 53.06061,0.840651 l 51.06061,0.105262 z"
         id="path2334" />
      <path
         style="fill:#046dc5;stroke-width:1.33333"
         d="M 3.3939394,679.27276 0,675.87881 0.00878561,438.93942 C 0.01724969,210.67097 0.10781723,201.86314 2.4836004,198.25991 5.7646471,193.28374 9.3803482,190.8917 15.555497,189.61194 l 5.11117,-1.05925 0.666667,-25.58756 0.666667,-25.58757 4.320777,-4.31725 c 3.454108,-3.45128 5.727368,-4.45863 11.333334,-5.02211 L 44.666668,127.33334 45.333335,102 c 0.708791,-26.934049 1.218279,-29.171987 7.612524,-33.438187 3.105192,-2.071765 7.250464,-2.599364 25.054144,-3.188823 L 99.333337,64.666669 100,45.198624 c 0.73885,-21.575947 1.56606,-23.86529 8.62328,-23.86529 8.08557,0 9.31649,3.088192 9.83216,24.667258 l 0.45543,19.05866 21.11407,0.470374 c 18.92552,0.42162 21.5042,0.760107 24.87789,3.265575 6.50479,4.830748 7.05632,7.371598 7.07752,32.604799 0.0137,16.39887 0.49836,23.87871 1.61966,25 0.88,0.88 3.6098,1.6 6.06621,1.6 2.45641,0 6.22627,0.91016 8.37743,2.02257 7.04265,3.6419 7.9542,7.40285 7.97677,32.91122 0.0107,12.68642 0.46123,23.72187 1,24.52322 0.53877,0.80136 3.04823,1.86008 5.57656,2.35273 2.52833,0.49264 6.02844,1.83367 7.77803,2.98004 6.51882,4.27129 6.95833,7.75187 6.95833,55.10467 0,46.52583 -0.32905,49.27909 -6.20976,51.95853 -4.56552,2.08019 -6.2054,1.86731 -9.53883,-1.23825 -2.88077,-2.68384 -2.91808,-3.24753 -2.91808,-44.08765 0,-25.96694 -0.51388,-42.32925 -1.38024,-43.94806 -1.34266,-2.5088 -3.71741,-2.57901 -87.22429,-2.57901 -47.214221,0 -86.793111,0.36418 -87.95309,0.80932 -1.911727,0.7336 -2.109049,22.005 -2.109049,227.35547 v 226.54617 l 35.000001,-0.35548 35.000001,-0.35547 0.371072,-52 c 0.204091,-28.6 0.04265,-53.35 -0.358736,-55 -0.713425,-2.93265 -1.146843,-3 -19.308335,-3 -10.968078,0 -19.932768,-0.61703 -21.88448,-1.50629 -7.237968,-3.29784 -7.203153,-13.70544 0.05691,-17.01335 1.881376,-0.85722 11.02021,-1.48036 21.710319,-1.48036 15.604285,0 18.586526,-0.32639 19.270597,-2.10906 0.445125,-1.15997 0.809319,-7.1109 0.809319,-13.22428 0,-6.11337 -0.364194,-12.0643 -0.809319,-13.22428 -0.684071,-1.78266 -3.666312,-2.10905 -19.270597,-2.10905 -10.880936,0 -19.818727,-0.61849 -21.76723,-1.50629 -4.254945,-1.93868 -6.883536,-7.9704 -5.003971,-11.4824 3.072465,-5.74095 5.231269,-6.32199 26.049937,-7.01131 l 20.134513,-0.66667 0.392099,-12 c 0.632993,-19.37248 2.181497,-18 -20.308453,-18 -10.559384,0 -20.170145,-0.3727 -21.357245,-0.82824 -2.95253,-1.133 -6.369113,-8.09652 -5.427731,-11.06255 0.423174,-1.3333 2.015177,-3.55332 3.537783,-4.93337 2.373858,-2.15159 5.64671,-2.60417 22.965961,-3.17584 l 20.197586,-0.66667 0.392099,-12 c 0.634329,-19.4134 2.278307,-18 -20.936457,-18 -16.943374,0 -20.227925,-0.33934 -22.58441,-2.33333 -4.505406,-3.81233 -4.909054,-8.69863 -1.085943,-13.14569 l 3.31352,-3.85431 20.432785,-0.46195 20.432785,-0.46196 4.429263,-5.1746 c 7.723576,-9.02325 8.757796,-9.03517 55.372226,-0.63825 22.60458,4.07188 42.49038,7.40343 44.19068,7.40343 1.70032,0 3.45568,-0.94907 3.9008,-2.10906 0.44514,-1.15997 0.80932,-11.86698 0.80932,-23.79334 0,-19.31409 0.26652,-21.92551 2.43832,-23.89095 3.24568,-2.93731 8.54212,-2.79242 12.41398,0.33958 3.0806,2.49195 3.15654,3.09031 3.56252,28.06571 0.40308,24.79796 0.49732,25.55446 3.33333,26.75656 1.60519,0.6804 22.79387,4.79682 47.08595,9.14759 24.29209,4.35079 46.03193,8.87468 48.31077,10.05311 2.27883,1.17844 5.20348,4.08245 6.49923,6.45337 2.20652,4.03741 2.35591,12.51541 2.35591,133.70258 0,121.62563 -0.1419,129.60839 -2.36407,133 l -2.36408,3.60819 H 163.36321 6.787879 Z M 247.22429,663.1907 c 1.87019,-0.71765 2.10905,-6.35358 2.10905,-49.76248 0,-57.48656 -0.0279,-57.64895 -11.91436,-69.54804 -9.71311,-9.72335 -17.33849,-12.43939 -32.57509,-11.60272 -16.84384,0.92494 -28.22679,8.10239 -35.12376,22.14709 l -3.72012,7.57547 -0.40906,49.10548 c -0.3022,36.27718 0.001,49.6004 1.16326,51 1.2921,1.55688 8.41498,1.89452 39.96668,1.89452 21.11689,0 39.34343,-0.36418 40.5034,-0.80932 z M 176.66667,168.00001 v -20.66667 h -68 -68.000002 l -0.371601,19.27201 c -0.204382,10.59962 -0.07109,20.05512 0.296184,21.01224 0.539577,1.40612 13.666158,1.67388 68.371599,1.39466 l 67.70382,-0.34558 z M 152.66667,106 V 86.000003 l -43.24303,-0.352125 c -33.707923,-0.27448 -43.478942,0.01952 -44.312918,1.333333 -1.246645,1.963919 -1.501114,34.450009 -0.294484,37.594439 0.728016,1.89718 5.51963,2.0891 44.333332,1.77572 L 152.66667,126 Z m 210.76392,574.57345 c -1.15128,-1.15128 -2.4108,-3.40128 -2.79892,-5 -0.38814,-1.59872 -0.53904,-82.51743 -0.33535,-179.81938 l 0.37036,-176.91261 3.82513,-3.99241 c 2.10382,-2.19583 6.00382,-4.50751 8.66667,-5.13707 l 4.84153,-1.14464 0.66667,-112.87689 0.66667,-112.87689 4.11076,-4.406779 c 2.2609,-2.423728 18.3759,-19.874984 35.8111,-38.780569 17.4352,-18.905585 33.40557,-35.2555855 35.48971,-36.3333347 5.0222,-2.5970809 7.74238,-2.46546142 12.80158,0.6194212 4.49273,2.7394745 72.49909,76.1046165 74.02647,79.8596315 0.49846,1.22544 0.94846,8.01388 1,15.085421 0.10957,15.032599 -0.46218,14.475989 14.86944,14.475989 11.43484,0 15.89094,2.26792 15.89094,8.08765 0,7.54584 -6.17782,10.55879 -21.67618,10.57158 l -9.00952,0.007 0.34285,88.27878 0.34285,88.27879 4,0.82303 c 6.15879,1.2672 9.78162,3.66285 11.9862,7.92605 1.76526,3.41363 2.0138,24.85152 2.0138,173.69382 0,130.28854 0.37231,170.17186 1.6,171.39955 1.18387,1.18387 13.8128,1.6 48.55762,1.6 25.82669,0 47.90669,-0.36418 49.06667,-0.80932 1.9134,-0.73424 2.10905,-25.41077 2.10905,-266.00001 V 132 l -25,-0.007 c -28.98279,-0.009 -33.9621,-0.93455 -36.37694,-6.76448 -1.48017,-3.57347 -1.36022,-4.49737 0.99274,-7.64634 L 604.95882,114 h 32.83607 32.83605 l 5.68455,5.68621 5.68453,5.68621 0.34276,275.24377 0.34276,275.24377 -3.40337,3.40337 -3.40336,3.40336 h -155.1775 c -139.22971,0 -155.39262,-0.21512 -157.27072,-2.09324 z m 123.09983,-18.40924 c 1.06376,-1.28175 1.41484,-10.43656 1.16326,-30.33334 l -0.36033,-28.49752 h -23.33333 -23.33334 l -0.36072,28.6337 c -0.1984,15.74853 -0.0672,29.39853 0.29148,30.33333 0.98008,2.55406 43.80567,2.42708 45.93298,-0.13617 z m -66.52834,-31.83086 c 0.003,-35.56241 0.55483,-38.46233 8.42904,-44.23856 3.55748,-2.60962 5.50323,-2.76144 35.39198,-2.76144 45.52217,0 43.32798,-2.27706 43.94465,45.60442 l 0.4344,33.72892 h 16.42295 c 13.7456,0 16.55489,-0.34383 17.23227,-2.10905 0.44513,-1.15998 0.80932,-75.82457 0.80932,-165.92132 0,-129.58561 -0.34823,-164.03764 -1.66667,-164.89095 -0.91667,-0.59328 -36.94124,-1.28176 -80.05462,-1.52996 -59.95777,-0.34516 -78.84535,-0.0717 -80.33333,1.16327 -1.68563,1.39894 -1.94539,23.47607 -1.94539,165.34222 0,90.05023 0.36419,164.67676 0.80932,165.83674 0.68787,1.79254 3.78935,2.10905 20.66667,2.10905 h 19.85734 l 0.003,-32.33334 z m -6.68145,-64.65234 c -2.6153,-3.32482 -2.83323,-4.94987 -2.43011,-18.12039 0.40783,-13.32435 0.69165,-14.66932 3.59053,-17.01432 4.28126,-3.46324 8.988,-3.19846 12.9129,0.72645 3.07282,3.07281 3.27273,4.15693 3.27273,17.74858 0,12.72505 -0.32881,14.8288 -2.71861,17.39394 -3.99906,4.29248 -10.94778,3.94367 -14.62744,-0.73426 z m 40.06467,0.73426 c -2.3898,-2.56514 -2.71862,-4.66889 -2.71862,-17.39394 0,-13.59165 0.19991,-14.67577 3.27274,-17.74858 1.8,-1.8 4.82726,-3.27273 6.72726,-3.27273 1.9,0 4.92727,1.47273 6.72727,3.27273 3.0556,3.05559 3.27273,4.19365 3.27273,17.15352 0,12.0239 -0.36968,14.35076 -2.76344,17.39394 -3.56998,4.5385 -10.57652,4.82569 -14.51794,0.59506 z m 40.04482,-0.59506 c -2.39376,-3.04318 -2.76344,-5.37004 -2.76344,-17.39394 0,-12.95987 0.21714,-14.09793 3.27274,-17.15352 1.8,-1.8 4.82726,-3.27273 6.72726,-3.27273 1.9,0 4.92727,1.47273 6.72727,3.27273 3.0556,3.05559 3.27273,4.19365 3.27273,17.15352 0,12.0239 -0.36968,14.35076 -2.76344,17.39394 -2.00428,2.54804 -3.99226,3.51314 -7.23656,3.51314 -3.24429,0 -5.23228,-0.9651 -7.23656,-3.51314 z m -78.94907,-60.36674 c -2.88806,-2.33649 -3.18532,-3.71507 -3.60374,-16.71341 -0.48746,-15.14236 0.64826,-18.96515 6.57701,-22.13812 3.39061,-1.8146 9.95811,0.47546 11.92999,4.15996 0.7053,1.31788 1.28237,8.76286 1.28237,16.5444 0,13.24384 -0.20921,14.35748 -3.27273,17.42098 -3.92499,3.92499 -8.63176,4.1897 -12.9129,0.72619 z m 39.45837,-0.72619 c -3.05772,-3.05772 -3.27274,-4.18929 -3.27274,-17.22428 0,-7.67334 0.37271,-14.92281 0.82824,-16.10992 0.45554,-1.18709 2.61715,-3.08344 4.80359,-4.21409 3.20585,-1.65781 4.70097,-1.75516 7.72405,-0.50297 5.56788,2.30629 6.96483,7.2304 6.43831,22.69445 -0.41979,12.32949 -0.74136,13.76272 -3.60856,16.08265 -4.28097,3.46384 -8.98779,3.19928 -12.91289,-0.72584 z m 40,0 c -3.07695,-3.07694 -3.2702,-4.1338 -3.23034,-17.66666 0.0444,-15.07512 0.73618,-17.26391 6.41191,-20.2878 4.08385,-2.17578 9.9462,0.11933 12.0394,4.71338 0.82847,1.81828 1.50629,9.305 1.50629,16.63716 0,12.37634 -0.23441,13.56562 -3.27273,16.60392 -1.8,1.8 -4.82727,3.27274 -6.72727,3.27274 -1.9,0 -4.92726,-1.47274 -6.72726,-3.27274 z M 414.48105,444.1204 c -2.89888,-2.345 -3.1827,-3.68997 -3.59053,-17.01432 -0.40312,-13.17052 -0.18519,-14.79557 2.43011,-18.12039 3.67966,-4.67793 10.62838,-5.02674 14.62744,-0.73426 2.3898,2.56514 2.71861,4.66889 2.71861,17.39394 0,13.59165 -0.19991,14.67577 -3.27273,17.74858 -3.9249,3.92491 -8.63164,4.18969 -12.9129,0.72645 z m 39.45837,-0.72645 c -3.07283,-3.07281 -3.27274,-4.15693 -3.27274,-17.74858 0,-12.72505 0.32882,-14.8288 2.71862,-17.39394 3.94142,-4.23063 10.94796,-3.94344 14.51794,0.59506 2.39376,3.04318 2.76344,5.37004 2.76344,17.39394 0,12.95987 -0.21713,14.09793 -3.27273,17.15352 -1.8,1.8 -4.82727,3.27273 -6.72727,3.27273 -1.9,0 -4.92726,-1.47273 -6.72726,-3.27273 z m 40,0 c -3.0556,-3.05559 -3.27274,-4.19365 -3.27274,-17.15352 0,-12.0239 0.36968,-14.35076 2.76344,-17.39394 2.00428,-2.54804 3.99227,-3.51314 7.23656,-3.51314 3.2443,0 5.23228,0.9651 7.23656,3.51314 2.39376,3.04318 2.76344,5.37004 2.76344,17.39394 0,12.95987 -0.21713,14.09793 -3.27273,17.15352 -1.8,1.8 -4.82727,3.27273 -6.72727,3.27273 -1.9,0 -4.92726,-1.47273 -6.72726,-3.27273 z m -80.5093,-62.90708 c -2.39376,-3.04318 -2.76344,-5.37004 -2.76344,-17.39394 0,-12.95986 0.21713,-14.09793 3.27273,-17.15352 4.1995,-4.19949 9.98503,-4.27765 13.82819,-0.1868 2.6142,2.7827 2.89908,4.52867 2.89908,17.76759 0,13.62259 -0.2226,14.89076 -3.08593,17.58073 -4.36662,4.10222 -10.65547,3.82931 -14.15063,-0.61406 z m 40,0 c -2.38668,-3.03418 -2.76344,-5.37284 -2.76344,-17.15352 0,-11.78068 0.37676,-14.11935 2.76344,-17.15352 2.00428,-2.54804 3.99227,-3.51315 7.23656,-3.51315 3.2443,0 5.23228,0.96511 7.23656,3.51315 2.38668,3.03417 2.76344,5.37284 2.76344,17.15352 0,11.78068 -0.37676,14.11934 -2.76344,17.15352 -2.00428,2.54804 -3.99226,3.51314 -7.23656,3.51314 -3.24429,0 -5.23228,-0.9651 -7.23656,-3.51314 z m 40,0 c -2.38668,-3.03418 -2.76344,-5.37284 -2.76344,-17.15352 0,-11.78068 0.37676,-14.11935 2.76344,-17.15352 2.00428,-2.54804 3.99227,-3.51315 7.23656,-3.51315 3.2443,0 5.23228,0.96511 7.23656,3.51315 2.38668,3.03417 2.76344,5.37284 2.76344,17.15352 0,11.78068 -0.37676,14.11934 -2.76344,17.15352 -2.00428,2.54804 -3.99226,3.51314 -7.23656,3.51314 -3.24429,0 -5.23228,-0.9651 -7.23656,-3.51314 z m 27.40822,-72.17394 c 1.09132,-0.71033 1.60504,-29.56509 1.86902,-104.97959 0.20023,-57.2 0.27299,-104.750003 0.16168,-105.66667 -0.15864,-1.306537 -13.59917,-1.666667 -62.20236,-1.666667 h -62 V 201.77778 c 0,58.17779 0.4,106.17779 0.88889,106.66667 1.2191,1.21911 119.40463,1.09093 121.28277,-0.13147 z M 414.48105,270.78448 c -2.89413,-2.34352 -3.1477,-3.53435 -3.1477,-14.78211 0,-11.75083 0.14753,-12.36015 3.74101,-15.45114 2.05756,-1.76984 4.57411,-3.21789 5.59232,-3.21789 1.01821,0 3.53476,1.44805 5.59232,3.21789 3.59348,3.09099 3.74101,3.70031 3.74101,15.45114 0,11.24776 -0.25357,12.43859 -3.1477,14.78211 -1.73126,1.40188 -4.51478,2.54886 -6.18563,2.54886 -1.67085,0 -4.45437,-1.14698 -6.18563,-2.54886 z m 40.14837,0.12013 c -2.49383,-2.01937 -3.10175,-4.09811 -3.60686,-12.33333 -0.69134,-11.27175 0.71464,-16.13063 5.59248,-19.32671 2.84086,-1.8614 4.0391,-1.9638 7.27846,-0.62202 5.41573,2.24327 7.16262,7.43741 6.5541,19.48767 -0.43998,8.713 -0.96262,10.54246 -3.62852,12.70116 -3.92788,3.18062 -8.33528,3.21432 -12.18966,0.0932 z m 40.03726,-0.23793 c -2.28952,-2.28952 -2.66666,-4.44444 -2.66666,-15.23656 0,-12.07581 0.14186,-12.68149 3.60896,-15.4087 2.52208,-1.98388 4.6302,-2.58892 7,-2.00904 6.20278,1.5178 7.35918,3.93063 7.84461,16.36776 0.40169,10.29176 0.12373,12.04055 -2.43011,15.28719 -3.5012,4.45107 -9.4593,4.89684 -13.3568,0.99935 z m -80.79335,-57.47333 c -2.09225,-2.3119 -2.53998,-4.8726 -2.53998,-14.52668 0,-13.59562 2.01261,-17.33333 9.33333,-17.33333 7.32072,0 9.33333,3.73771 9.33333,17.33333 0,13.59563 -2.01261,17.33334 -9.33333,17.33334 -2.63076,0 -5.22235,-1.07071 -6.79335,-2.80666 z m 40.00001,0 c -2.09226,-2.3119 -2.53999,-4.8726 -2.53999,-14.52668 0,-13.59562 2.01261,-17.33333 9.33333,-17.33333 6.98422,0 9.2585,3.82707 9.7889,16.47237 0.3994,9.522 0.0999,11.31299 -2.43011,14.52763 -3.63147,4.61432 -10.38323,5.02461 -14.15213,0.86001 z m 40.33333,0.36834 c -3.36872,-3.7224 -3.18967,-26.92543 0.23167,-30.0217 3.80161,-3.44041 10.22093,-2.81754 13.4649,1.3065 4.7812,6.0783 3.57834,26.56226 -1.76949,30.1331 -2.77964,1.85602 -9.70983,1.03214 -11.92708,-1.4179 z m -77.83092,-55.17008 c -4.15627,-2.00666 -6.08494,-9.06527 -5.46667,-20.00713 0.44244,-7.83018 1.03875,-9.78433 3.62463,-11.87825 1.70228,-1.37842 4.46212,-2.50623 6.13297,-2.50623 1.67085,0 4.43069,1.12781 6.13297,2.50623 2.58588,2.09392 3.18219,4.04807 3.62463,11.87825 0.64152,11.35335 -1.29973,18.00845 -5.85891,20.08575 -3.94348,1.79676 -4.31254,1.79322 -8.18962,-0.0787 z m 38.75128,-1.56419 c -3.23505,-2.78268 -3.75233,-4.30505 -4.20901,-12.38718 -0.88146,-15.59948 4.76036,-23.44485 13.87376,-19.29251 4.29297,1.95601 5.8749,6.50028 5.8749,16.87634 0,9.93646 -1.69476,14.4384 -6.20976,16.49558 -4.47653,2.03964 -5.12889,1.92132 -9.32989,-1.69223 z m 40.48195,0.48451 c -3.4671,-2.72722 -3.60896,-3.3329 -3.60896,-15.4087 0,-10.79211 0.37714,-12.94704 2.66666,-15.23656 3.60364,-3.60364 8.76327,-3.35795 12.72727,0.60606 2.95741,2.9574 3.27273,4.3563 3.27273,14.51895 0,8.77133 -0.51348,11.85307 -2.33333,14.00375 -3.5984,4.25259 -8.50292,4.83711 -12.72437,1.5165 z M 506.43111,74.133981 C 506.19402,73.10767 495.8737,61.360426 483.49708,48.028995 l -22.50293,-24.238966 -5.27463,5.104985 c -7.35386,7.117373 -41.62227,44.416914 -42.16395,45.893481 -0.26117,0.711909 18.88595,1.211508 46.4311,1.211508 39.48779,0 46.8076,-0.294092 46.44444,-1.866022 z m 83.15366,476.480759 c -4.09151,-3.81181 -3.82542,-9.70747 0.59506,-13.18461 3.11607,-2.4511 5.34308,-2.76345 19.70332,-2.76345 19.31723,0 22.11687,1.18146 22.11687,9.33334 0,8.20497 -2.74576,9.33333 -22.71192,9.33333 -15.04915,0 -17.08707,-0.28118 -19.70333,-2.71861 z m -0.25142,-63.94806 c -3.83669,-3.83669 -3.45178,-9.85554 0.84648,-13.23656 3.08879,-2.42964 5.35416,-2.76344 18.75432,-2.76344 19.35162,0 23.00406,1.62574 23.04546,10.25774 0.0344,7.18014 -3.31819,8.40893 -22.94294,8.40893 -15.25888,0 -17.31492,-0.27827 -19.70332,-2.66667 z M 588.74229,422.37 c -2.89927,-4.13929 -2.58598,-9.4948 0.73105,-12.49667 2.45204,-2.21906 4.96127,-2.53998 19.86001,-2.53998 19.39715,0 22.66667,1.34628 22.66667,9.33333 0,7.68345 -2.61265,8.66667 -23.02939,8.66667 -17.24702,0 -18.25629,-0.14786 -20.22834,-2.96335 z m 4.59106,-60.64924 c -6.76685,-2.48812 -8.82396,-10.23012 -4,-15.05408 2.40024,-2.40024 4.44444,-2.66667 20.46002,-2.66667 19.76498,0 22.2271,0.97344 22.18624,8.77166 -0.0429,8.18908 -3.97923,9.92293 -22.22527,9.78974 -7.93155,-0.0579 -15.32099,-0.43618 -16.42099,-0.84065 z M 46.592158,346.87445 c -3.747783,-3.03477 -4.048294,-9.72212 -0.607728,-13.52389 2.312006,-2.55475 4.050181,-2.68388 36.125449,-2.68388 h 33.696581 l 2.8388,3.60896 c 3.32061,4.22145 2.73608,9.12597 -1.51649,12.72437 -2.46101,2.08243 -6.23838,2.33334 -35.128767,2.33334 -29.472833,0 -32.643131,-0.22016 -35.407845,-2.4589 z m 96.680582,-0.81384 c -3.99819,-3.99817 -4.13832,-7.26724 -0.5093,-11.88079 2.61508,-3.32453 3.3997,-3.51314 14.61474,-3.51314 10.47463,0 12.16708,0.33897 14.56988,2.91808 3.63405,3.90069 3.43015,8.4916 -0.55412,12.47585 -2.93541,2.93543 -4.38459,3.27274 -14.0606,3.27274 -9.67601,0 -11.12519,-0.33731 -14.0606,-3.27274 z m 108.26752,-42.63505 c -6.86009,-2.49558 -11.01629,-6.6311 -13.68371,-13.61562 -4.16472,-10.90516 0.77563,-24.29222 10.7033,-29.00321 3.34603,-1.58779 5.78369,-4.22223 8.05588,-8.70619 14.25248,-28.12592 53.06301,-28.17255 67.39427,-0.0809 2.05689,4.03184 3.52516,5.17813 7.60293,5.93569 2.77956,0.51639 7.16405,2.11967 9.74332,3.56286 15.16007,8.48258 15.29503,30.72213 0.24322,40.08133 -4.82854,3.00239 -5.77822,3.0738 -44.93279,3.37909 -31.55075,0.246 -41.08286,-0.082 -45.12642,-1.553 z m 80.21915,-21.75888 c 0.50513,-3.5567 -2.95363,-4.02888 -7.01424,-0.9576 -3.53923,2.67694 -10.49541,2.46044 -14.07491,-0.43804 -2.28813,-1.85283 -3.16642,-4.40459 -3.87616,-11.26163 -0.97461,-9.41625 -3.13022,-13.06909 -9.72473,-16.47924 -10.95257,-5.6638 -25.06936,3.05743 -25.06936,15.48763 0,4.19333 -5.85483,9.31554 -10.64791,9.31554 -4.27992,0 -6.24056,2.42818 -4.86181,6.02115 0.67187,1.75083 5.72876,1.97375 37.80932,1.66667 l 37.03373,-0.35448 z m -285.167252,14.5411 c -3.747783,-3.03477 -4.048294,-9.72212 -0.607728,-13.52389 2.312006,-2.55475 4.050181,-2.68388 36.125449,-2.68388 h 33.696581 l 2.8388,3.60896 c 3.32061,4.22145 2.73608,9.12597 -1.51649,12.72437 -2.46101,2.08243 -6.23838,2.33334 -35.128767,2.33334 -29.472833,0 -32.643131,-0.22016 -35.407845,-2.4589 z m 96.680582,-0.81384 c -3.99819,-3.99817 -4.13832,-7.26724 -0.5093,-11.88078 2.60936,-3.31726 3.41419,-3.51315 14.43426,-3.51315 10.4754,0 11.96775,0.31608 14.56989,3.08593 3.63706,3.87147 3.67855,7.56351 0.13564,12.06759 -2.59692,3.30145 -3.4442,3.51315 -14.0606,3.51315 -10.21674,0 -11.61016,-0.31299 -14.56989,-3.27274 z m 446.90709,0.5093 c -4.29826,-3.38102 -4.68317,-9.39987 -0.84648,-13.23656 2.3884,-2.3884 4.44444,-2.66667 19.70332,-2.66667 19.85316,0 22.96335,1.18407 22.96335,8.74227 0,2.81329 -1.0326,5.62366 -2.66667,7.25773 -2.37912,2.37912 -4.44444,2.66667 -19.15352,2.66667 -14.66038,0 -16.87605,-0.30615 -20,-2.76344 z M 46.592158,245.54112 c -3.747783,-3.03478 -4.048294,-9.72213 -0.607728,-13.5239 2.311608,-2.55431 4.050417,-2.68388 36.015573,-2.68388 31.965157,0 33.703967,0.1296 36.015577,2.68388 3.44056,3.80177 3.14005,10.48912 -0.60773,13.5239 -2.76472,2.23873 -5.93501,2.45889 -35.407847,2.45889 -29.472833,0 -32.643131,-0.22016 -35.407845,-2.45889 z m 96.171282,-1.05426 C 141.24355,242.55463 140,239.93555 140,238.66667 c 0,-1.26888 1.24355,-3.88796 2.76344,-5.82018 2.61368,-3.32275 3.4033,-3.51315 14.5699,-3.51315 11.1666,0 11.95621,0.1904 14.56989,3.51315 1.5199,1.93222 2.76344,4.5513 2.76344,5.82018 0,1.26888 -1.24354,3.88796 -2.76344,5.82019 -2.61368,3.32275 -3.40329,3.51315 -14.56989,3.51315 -11.1666,0 -11.95622,-0.1904 -14.5699,-3.51315 z m 446.56991,-12.48685 c -3.88733,-3.88734 -3.4517,-9.85562 0.97344,-13.33643 3.37079,-2.65147 4.90794,-2.83125 20.77698,-2.43011 19.11449,0.48319 20.91625,1.33994 20.91625,9.94578 0,7.27046 -3.29259,8.48742 -22.96335,8.48742 -15.25888,0 -17.31492,-0.27826 -19.70332,-2.66666 z m 0,-64 c -3.48716,-3.48716 -3.42058,-9.57107 0.13999,-12.79335 2.45204,-2.21907 4.96127,-2.53999 19.86001,-2.53999 19.39715,0 22.66667,1.34628 22.66667,9.33334 0,7.63697 -2.66591,8.66666 -22.43832,8.66666 -15.78391,0 -17.83163,-0.26994 -20.22835,-2.66666 z M 199.33334,99.328605 c -6.81691,-2.412783 -16.00951,-12.077583 -17.87373,-18.79189 -5.3786,-19.371781 8.22321,-37.870047 27.84593,-37.870047 h 6.66792 l 3.87528,-8.546755 c 5.19283,-11.452531 13.16247,-19.805367 23.9676,-25.1200027 8.06712,-3.9679161 9.87948,-4.3332435 21.49678,-4.3332435 11.34189,0 13.53501,0.4160947 20.68689,3.9248806 10.68821,5.2437466 19.36027,14.3739436 23.98239,25.2493786 3.2049,7.540834 4.35917,8.951683 8.4203,10.291976 2.58846,0.854266 7.3142,3.95712 10.50168,6.895229 16.10601,14.845994 9.61307,42.46743 -11.46741,48.783299 -8.02989,2.40581 -111.13315,1.98431 -118.10363,-0.482825 z M 314.06061,79.393943 c 6.97113,-6.971135 2.59883,-16.727274 -7.49649,-16.727274 -6.96932,0 -13.23078,-5.650726 -13.23078,-11.940262 0,-9.420266 -7.14096,-19.788327 -16.66666,-24.198589 -7.0043,-3.242884 -14.86359,-3.165011 -23.95728,0.237378 -11.70722,4.380232 -16.95893,13.000281 -16.86222,27.677343 0.0475,7.19345 -0.42139,8.919552 -3.16849,11.666667 -4.29207,4.292066 -8.58719,4.065039 -14.67868,-0.77587 -5.92122,-4.705586 -9.66992,-5.025566 -14.48686,-1.23656 -6.1556,4.841994 -4.36301,14.860201 3.15352,17.62398 1.1,0.404463 24.97727,0.782756 53.06061,0.840651 l 51.06061,0.105262 z"
         id="path2332" />
      <path
         style="fill:#0d0b0a;stroke-width:1.33333"
         d="M 3.3939394,679.27276 0,675.87881 0.00878561,438.93942 C 0.01724969,210.67097 0.10781723,201.86314 2.4836004,198.25991 5.7646471,193.28374 9.3803482,190.8917 15.555497,189.61194 l 5.11117,-1.05925 0.666667,-25.58756 0.666667,-25.58757 4.320777,-4.31725 c 3.454108,-3.45128 5.727368,-4.45863 11.333334,-5.02211 L 44.666668,127.33334 45.333335,102 c 0.708791,-26.934049 1.218279,-29.171987 7.612524,-33.438187 3.105192,-2.071765 7.250464,-2.599364 25.054144,-3.188823 L 99.333337,64.666669 100,45.198624 c 0.73885,-21.575947 1.56606,-23.86529 8.62328,-23.86529 8.08557,0 9.31649,3.088192 9.83216,24.667258 l 0.45543,19.05866 21.11407,0.470374 c 18.92552,0.42162 21.5042,0.760107 24.87789,3.265575 6.50479,4.830748 7.05632,7.371598 7.07752,32.604799 0.0137,16.39887 0.49836,23.87871 1.61966,25 0.88,0.88 3.6098,1.6 6.06621,1.6 2.45641,0 6.22627,0.91016 8.37743,2.02257 7.04265,3.6419 7.9542,7.40285 7.97677,32.91122 0.0107,12.68642 0.46123,23.72187 1,24.52322 0.53877,0.80136 3.04823,1.86008 5.57656,2.35273 2.52833,0.49264 6.02844,1.83367 7.77803,2.98004 6.51882,4.27129 6.95833,7.75187 6.95833,55.10467 0,46.52583 -0.32905,49.27909 -6.20976,51.95853 -4.56552,2.08019 -6.2054,1.86731 -9.53883,-1.23825 -2.88077,-2.68384 -2.91808,-3.24753 -2.91808,-44.08765 0,-25.96694 -0.51388,-42.32925 -1.38024,-43.94806 -1.34266,-2.5088 -3.71741,-2.57901 -87.22429,-2.57901 -47.214221,0 -86.793111,0.36418 -87.95309,0.80932 -1.911727,0.7336 -2.109049,22.005 -2.109049,227.35547 v 226.54617 l 35.000001,-0.35548 35.000001,-0.35547 0.371072,-52 c 0.204091,-28.6 0.04265,-53.35 -0.358736,-55 -0.713425,-2.93265 -1.146843,-3 -19.308335,-3 -10.968078,0 -19.932768,-0.61703 -21.88448,-1.50629 -7.237968,-3.29784 -7.203153,-13.70544 0.05691,-17.01335 1.881376,-0.85722 11.02021,-1.48036 21.710319,-1.48036 15.604285,0 18.586526,-0.32639 19.270597,-2.10906 0.445125,-1.15997 0.809319,-7.1109 0.809319,-13.22428 0,-6.11337 -0.364194,-12.0643 -0.809319,-13.22428 -0.684071,-1.78266 -3.666312,-2.10905 -19.270597,-2.10905 -10.880936,0 -19.818727,-0.61849 -21.76723,-1.50629 -4.254945,-1.93868 -6.883536,-7.9704 -5.003971,-11.4824 3.072465,-5.74095 5.231269,-6.32199 26.049937,-7.01131 l 20.134513,-0.66667 0.392099,-12 c 0.632993,-19.37248 2.181497,-18 -20.308453,-18 -10.559384,0 -20.170145,-0.3727 -21.357245,-0.82824 -2.95253,-1.133 -6.369113,-8.09652 -5.427731,-11.06255 0.423174,-1.3333 2.015177,-3.55332 3.537783,-4.93337 2.373858,-2.15159 5.64671,-2.60417 22.965961,-3.17584 l 20.197586,-0.66667 0.392099,-12 c 0.634329,-19.4134 2.278307,-18 -20.936457,-18 -16.943374,0 -20.227925,-0.33934 -22.58441,-2.33333 -4.505406,-3.81233 -4.909054,-8.69863 -1.085943,-13.14569 l 3.31352,-3.85431 20.432785,-0.46195 20.432785,-0.46196 4.429263,-5.1746 c 7.723576,-9.02325 8.757796,-9.03517 55.372226,-0.63825 22.60458,4.07188 42.49038,7.40343 44.19068,7.40343 1.70032,0 3.45568,-0.94907 3.9008,-2.10906 0.44514,-1.15997 0.80932,-11.86698 0.80932,-23.79334 0,-19.31409 0.26652,-21.92551 2.43832,-23.89095 3.24568,-2.93731 8.54212,-2.79242 12.41398,0.33958 3.0806,2.49195 3.15654,3.09031 3.56252,28.06571 0.40308,24.79796 0.49732,25.55446 3.33333,26.75656 1.60519,0.6804 22.79387,4.79682 47.08595,9.14759 24.29209,4.35079 46.03193,8.87468 48.31077,10.05311 2.27883,1.17844 5.20348,4.08245 6.49923,6.45337 2.20652,4.03741 2.35591,12.51541 2.35591,133.70258 0,121.62563 -0.1419,129.60839 -2.36407,133 l -2.36408,3.60819 H 163.36321 6.787879 Z M 248.66668,611.33335 c 0,-59.60114 0.41834,-57.31556 -12.63997,-69.0561 -9.11233,-8.19278 -17.1501,-10.77035 -31.18282,-9.99979 -16.84384,0.92494 -28.22679,8.10239 -35.12376,22.14709 l -3.72012,7.57547 -0.40906,49.10548 c -0.30448,36.55182 -0.003,49.59474 1.17927,51.01928 1.32793,1.60007 8.17092,1.856 41.74239,1.56119 l 40.15407,-0.35261 z m -102.00001,-2 0.66667,-52.66666 4.28675,-9.05014 c 8.90486,-18.79991 25.78917,-31.39089 46.15693,-34.42021 30.28019,-4.50363 57.60895,10.99654 68.02116,38.57988 2.68378,7.10965 2.89263,10.59668 3.52726,58.89047 l 0.67457,51.33333 h 17.33333 17.33334 l 0.34057,-118.52132 c 0.2276,-79.20807 -0.1112,-119.06566 -1.02135,-120.16235 -0.74905,-0.90256 -3.30232,-1.98166 -5.6739,-2.39798 -2.3716,-0.41633 -44.35462,-7.99328 -93.29561,-16.83765 -48.94098,-8.84439 -90.12679,-16.08071 -91.52401,-16.08071 -1.39722,0 -2.9046,0.94907 -3.34972,2.10906 -1.06703,2.78064 -1.0529,267.70477 0.0144,270.48618 0.70976,1.84959 3.24685,2.09532 18.33334,1.77571 L 146,662.00002 Z m 7.81438,-105.21553 c -2.87036,-2.32428 -3.14771,-3.56819 -3.14771,-14.1178 0,-10.54962 0.27735,-11.79352 3.14771,-14.1178 4.2623,-3.45142 9.74786,-3.22967 13.28654,0.53706 2.48911,2.64955 2.89908,4.62935 2.89908,14 0,9.1363 -0.43437,11.34844 -2.66666,13.58074 -3.36944,3.36944 -9.43806,3.42232 -13.51896,0.11773 z m 46.66666,0 c -2.87036,-2.32428 -3.1477,-3.56819 -3.1477,-14.1178 0,-10.54962 0.27734,-11.79352 3.1477,-14.1178 4.26231,-3.45142 9.74787,-3.22967 13.28655,0.53706 2.48911,2.64955 2.89908,4.62935 2.89908,14 0,9.1363 -0.43437,11.34844 -2.66667,13.58074 -3.36944,3.36944 -9.43805,3.42232 -13.51896,0.11773 z m 46.66667,0 c -2.87036,-2.32428 -3.1477,-3.56819 -3.1477,-14.1178 0,-10.54962 0.27734,-11.79352 3.1477,-14.1178 4.26231,-3.45142 9.74787,-3.22967 13.28655,0.53706 2.48911,2.64955 2.89908,4.62935 2.89908,14 0,9.1363 -0.43437,11.34844 -2.66667,13.58074 -3.36944,3.36944 -9.43805,3.42232 -13.51896,0.11773 z m -92.74003,-54.00236 c -3.52345,-3.03075 -3.74101,-3.84276 -3.74101,-13.96297 0,-9.26588 0.40048,-11.14556 2.90919,-13.65426 3.83118,-3.83119 10.88265,-3.71291 14.08042,0.23617 1.81619,2.24289 2.34372,5.39031 2.34372,13.98321 0,10.39138 -0.22097,11.26267 -3.51314,13.8523 -4.57375,3.59771 -7.49608,3.48776 -12.07918,-0.45445 z m 46.66667,0 c -3.52345,-3.03075 -3.74101,-3.84276 -3.74101,-13.96297 0,-9.26588 0.40048,-11.14556 2.90918,-13.65426 3.83119,-3.83119 10.88266,-3.71291 14.08043,0.23617 1.81619,2.24289 2.34372,5.39031 2.34372,13.98321 0,10.39138 -0.22097,11.26267 -3.51315,13.8523 -4.57374,3.59771 -7.49608,3.48776 -12.07917,-0.45445 z m 47.96806,1.60949 c -4.03216,-1.94673 -6.12338,-9.09495 -5.43695,-18.58468 0.69259,-9.57487 3.89217,-13.61722 10.62668,-13.42574 7.10665,0.20206 9.1012,3.92831 9.1012,17.00308 0,10.39138 -0.22097,11.26267 -3.51315,13.8523 -3.8689,3.04328 -6.32217,3.3062 -10.77778,1.15504 z M 176.66667,168.00001 v -20.66667 h -68 -68.000002 l -0.371601,19.27201 c -0.204382,10.59962 -0.07109,20.05512 0.296184,21.01224 0.539577,1.40612 13.666158,1.67388 68.371599,1.39466 l 67.70382,-0.34558 z M 152.66667,106 V 86.000003 l -43.24303,-0.352125 c -33.707923,-0.27448 -43.478942,0.01952 -44.312918,1.333333 -1.246645,1.963919 -1.501114,34.450009 -0.294484,37.594439 0.728016,1.89718 5.51963,2.0891 44.333332,1.77572 L 152.66667,126 Z m 210.76392,574.57345 c -1.15128,-1.15128 -2.4108,-3.40128 -2.79892,-5 -0.38814,-1.59872 -0.53904,-82.51743 -0.33535,-179.81938 l 0.37036,-176.91261 3.82513,-3.99241 c 2.10382,-2.19583 6.00382,-4.50751 8.66667,-5.13707 l 4.84153,-1.14464 0.66667,-112.87689 0.66667,-112.87689 4.11076,-4.406779 c 2.2609,-2.423728 18.3759,-19.874984 35.8111,-38.780569 17.4352,-18.905585 33.40557,-35.2555855 35.48971,-36.3333347 5.0222,-2.5970809 7.74238,-2.46546142 12.80158,0.6194212 4.49273,2.7394745 72.49909,76.1046165 74.02647,79.8596315 0.49846,1.22544 0.94846,8.01388 1,15.085421 0.10957,15.032599 -0.46218,14.475989 14.86944,14.475989 11.43484,0 15.89094,2.26792 15.89094,8.08765 0,7.54584 -6.17782,10.55879 -21.67618,10.57158 l -9.00952,0.007 0.34285,88.27878 0.34285,88.27879 4,0.82303 c 6.15879,1.2672 9.78162,3.66285 11.9862,7.92605 1.76527,3.41365 2.0138,24.8627 2.0138,173.79723 0,142.09149 0.2985,170.15069 1.82355,171.41637 1.30421,1.0824 15.63891,1.41369 50.33333,1.16325 l 48.50979,-0.35014 0.33662,-265.66668 L 662.67326,132 637.66997,131.993 c -28.98611,-0.009 -33.96534,-0.93445 -36.38022,-6.76448 -1.48017,-3.57347 -1.36022,-4.49737 0.99274,-7.64634 L 604.95882,114 h 32.83607 32.83605 l 5.68455,5.68621 5.68453,5.68621 0.34276,275.24377 0.34276,275.24377 -3.40337,3.40337 -3.40336,3.40336 h -155.1775 c -139.22971,0 -155.39262,-0.21512 -157.27072,-2.09324 z m 123.09983,-18.40924 c 1.06376,-1.28175 1.41484,-10.43656 1.16326,-30.33334 l -0.36033,-28.49752 h -23.33333 -23.33334 l -0.36072,28.6337 c -0.1984,15.74853 -0.0672,29.39853 0.29148,30.33333 0.98008,2.55406 43.80567,2.42708 45.93298,-0.13617 z m -66.52834,-31.83086 c 0.003,-35.56241 0.55483,-38.46233 8.42904,-44.23856 3.55748,-2.60962 5.50323,-2.76144 35.39198,-2.76144 45.52217,0 43.32798,-2.27706 43.94465,45.60442 l 0.4344,33.72892 h 16.42295 c 13.7456,0 16.55489,-0.34383 17.23227,-2.10905 0.44513,-1.15998 0.80932,-75.82457 0.80932,-165.92132 0,-129.58561 -0.34823,-164.03764 -1.66667,-164.89095 -0.91667,-0.59328 -36.94124,-1.28176 -80.05462,-1.52996 -59.95777,-0.34516 -78.84535,-0.0717 -80.33333,1.16327 -1.68563,1.39894 -1.94539,23.47607 -1.94539,165.34222 0,90.05023 0.36419,164.67676 0.80932,165.83674 0.68787,1.79254 3.78935,2.10905 20.66667,2.10905 h 19.85734 l 0.003,-32.33334 z m -6.68145,-64.65234 c -2.6153,-3.32482 -2.83323,-4.94987 -2.43011,-18.12039 0.40783,-13.32435 0.69165,-14.66932 3.59053,-17.01432 4.28126,-3.46324 8.988,-3.19846 12.9129,0.72645 3.07282,3.07281 3.27273,4.15693 3.27273,17.74858 0,12.72505 -0.32881,14.8288 -2.71861,17.39394 -3.99906,4.29248 -10.94778,3.94367 -14.62744,-0.73426 z m 40.06467,0.73426 c -2.3898,-2.56514 -2.71862,-4.66889 -2.71862,-17.39394 0,-13.59165 0.19991,-14.67577 3.27274,-17.74858 1.8,-1.8 4.82726,-3.27273 6.72726,-3.27273 1.9,0 4.92727,1.47273 6.72727,3.27273 3.0556,3.05559 3.27273,4.19365 3.27273,17.15352 0,12.0239 -0.36968,14.35076 -2.76344,17.39394 -3.56998,4.5385 -10.57652,4.82569 -14.51794,0.59506 z m 40.04482,-0.59506 c -2.39376,-3.04318 -2.76344,-5.37004 -2.76344,-17.39394 0,-12.95987 0.21714,-14.09793 3.27274,-17.15352 1.8,-1.8 4.82726,-3.27273 6.72726,-3.27273 1.9,0 4.92727,1.47273 6.72727,3.27273 3.0556,3.05559 3.27273,4.19365 3.27273,17.15352 0,12.0239 -0.36968,14.35076 -2.76344,17.39394 -2.00428,2.54804 -3.99226,3.51314 -7.23656,3.51314 -3.24429,0 -5.23228,-0.9651 -7.23656,-3.51314 z m -78.94907,-60.36674 c -2.88806,-2.33649 -3.18532,-3.71507 -3.60374,-16.71341 -0.48746,-15.14236 0.64826,-18.96515 6.57701,-22.13812 3.39061,-1.8146 9.95811,0.47546 11.92999,4.15996 0.7053,1.31788 1.28237,8.76286 1.28237,16.5444 0,13.24384 -0.20921,14.35748 -3.27273,17.42098 -3.92499,3.92499 -8.63176,4.1897 -12.9129,0.72619 z m 39.45837,-0.72619 c -3.05772,-3.05772 -3.27274,-4.18929 -3.27274,-17.22428 0,-7.67334 0.37271,-14.92281 0.82824,-16.10992 0.45554,-1.18709 2.61715,-3.08344 4.80359,-4.21409 3.20585,-1.65781 4.70097,-1.75516 7.72405,-0.50297 5.56788,2.30629 6.96483,7.2304 6.43831,22.69445 -0.41979,12.32949 -0.74136,13.76272 -3.60856,16.08265 -4.28097,3.46384 -8.98779,3.19928 -12.91289,-0.72584 z m 40,0 c -3.07695,-3.07694 -3.2702,-4.1338 -3.23034,-17.66666 0.0444,-15.07512 0.73618,-17.26391 6.41191,-20.2878 4.08385,-2.17578 9.9462,0.11933 12.0394,4.71338 0.82847,1.81828 1.50629,9.305 1.50629,16.63716 0,12.37634 -0.23441,13.56562 -3.27273,16.60392 -1.8,1.8 -4.82727,3.27274 -6.72727,3.27274 -1.9,0 -4.92726,-1.47274 -6.72726,-3.27274 z M 414.48105,444.1204 c -2.89888,-2.345 -3.1827,-3.68997 -3.59053,-17.01432 -0.40312,-13.17052 -0.18519,-14.79557 2.43011,-18.12039 3.67966,-4.67793 10.62838,-5.02674 14.62744,-0.73426 2.3898,2.56514 2.71861,4.66889 2.71861,17.39394 0,13.59165 -0.19991,14.67577 -3.27273,17.74858 -3.9249,3.92491 -8.63164,4.18969 -12.9129,0.72645 z m 39.45837,-0.72645 c -3.07283,-3.07281 -3.27274,-4.15693 -3.27274,-17.74858 0,-12.72505 0.32882,-14.8288 2.71862,-17.39394 3.94142,-4.23063 10.94796,-3.94344 14.51794,0.59506 2.39376,3.04318 2.76344,5.37004 2.76344,17.39394 0,12.95987 -0.21713,14.09793 -3.27273,17.15352 -1.8,1.8 -4.82727,3.27273 -6.72727,3.27273 -1.9,0 -4.92726,-1.47273 -6.72726,-3.27273 z m 40,0 c -3.0556,-3.05559 -3.27274,-4.19365 -3.27274,-17.15352 0,-12.0239 0.36968,-14.35076 2.76344,-17.39394 2.00428,-2.54804 3.99227,-3.51314 7.23656,-3.51314 3.2443,0 5.23228,0.9651 7.23656,3.51314 2.39376,3.04318 2.76344,5.37004 2.76344,17.39394 0,12.95987 -0.21713,14.09793 -3.27273,17.15352 -1.8,1.8 -4.82727,3.27273 -6.72727,3.27273 -1.9,0 -4.92726,-1.47273 -6.72726,-3.27273 z m -80.5093,-62.90708 c -2.39376,-3.04318 -2.76344,-5.37004 -2.76344,-17.39394 0,-12.95986 0.21713,-14.09793 3.27273,-17.15352 4.1995,-4.19949 9.98503,-4.27765 13.82819,-0.1868 2.6142,2.7827 2.89908,4.52867 2.89908,17.76759 0,13.62259 -0.2226,14.89076 -3.08593,17.58073 -4.36662,4.10222 -10.65547,3.82931 -14.15063,-0.61406 z m 40,0 c -2.38668,-3.03418 -2.76344,-5.37284 -2.76344,-17.15352 0,-11.78068 0.37676,-14.11935 2.76344,-17.15352 2.00428,-2.54804 3.99227,-3.51315 7.23656,-3.51315 3.2443,0 5.23228,0.96511 7.23656,3.51315 2.38668,3.03417 2.76344,5.37284 2.76344,17.15352 0,11.78068 -0.37676,14.11934 -2.76344,17.15352 -2.00428,2.54804 -3.99226,3.51314 -7.23656,3.51314 -3.24429,0 -5.23228,-0.9651 -7.23656,-3.51314 z m 40,0 c -2.38668,-3.03418 -2.76344,-5.37284 -2.76344,-17.15352 0,-11.78068 0.37676,-14.11935 2.76344,-17.15352 2.00428,-2.54804 3.99227,-3.51315 7.23656,-3.51315 3.2443,0 5.23228,0.96511 7.23656,3.51315 2.38668,3.03417 2.76344,5.37284 2.76344,17.15352 0,11.78068 -0.37676,14.11934 -2.76344,17.15352 -2.00428,2.54804 -3.99226,3.51314 -7.23656,3.51314 -3.24429,0 -5.23228,-0.9651 -7.23656,-3.51314 z m 27.40822,-72.17394 c 1.09132,-0.71033 1.60504,-29.56509 1.86902,-104.97959 0.20023,-57.2 0.27299,-104.750003 0.16168,-105.66667 -0.15864,-1.306537 -13.59917,-1.666667 -62.20236,-1.666667 h -62 V 201.77778 c 0,58.17779 0.4,106.17779 0.88889,106.66667 1.2191,1.21911 119.40463,1.09093 121.28277,-0.13147 z M 414.48105,270.78448 c -2.89413,-2.34352 -3.1477,-3.53435 -3.1477,-14.78211 0,-11.75083 0.14753,-12.36015 3.74101,-15.45114 2.05756,-1.76984 4.57411,-3.21789 5.59232,-3.21789 1.01821,0 3.53476,1.44805 5.59232,3.21789 3.59348,3.09099 3.74101,3.70031 3.74101,15.45114 0,11.24776 -0.25357,12.43859 -3.1477,14.78211 -1.73126,1.40188 -4.51478,2.54886 -6.18563,2.54886 -1.67085,0 -4.45437,-1.14698 -6.18563,-2.54886 z m 40.14837,0.12013 c -2.49383,-2.01937 -3.10175,-4.09811 -3.60686,-12.33333 -0.69134,-11.27175 0.71464,-16.13063 5.59248,-19.32671 2.84086,-1.8614 4.0391,-1.9638 7.27846,-0.62202 5.41573,2.24327 7.16262,7.43741 6.5541,19.48767 -0.43998,8.713 -0.96262,10.54246 -3.62852,12.70116 -3.92788,3.18062 -8.33528,3.21432 -12.18966,0.0932 z m 40.03726,-0.23793 c -2.28952,-2.28952 -2.66666,-4.44444 -2.66666,-15.23656 0,-12.07581 0.14186,-12.68149 3.60896,-15.4087 2.52208,-1.98388 4.6302,-2.58892 7,-2.00904 6.20278,1.5178 7.35918,3.93063 7.84461,16.36776 0.40169,10.29176 0.12373,12.04055 -2.43011,15.28719 -3.5012,4.45107 -9.4593,4.89684 -13.3568,0.99935 z m -80.79335,-57.47333 c -2.09225,-2.3119 -2.53998,-4.8726 -2.53998,-14.52668 0,-13.59562 2.01261,-17.33333 9.33333,-17.33333 7.32072,0 9.33333,3.73771 9.33333,17.33333 0,13.59563 -2.01261,17.33334 -9.33333,17.33334 -2.63076,0 -5.22235,-1.07071 -6.79335,-2.80666 z m 40.00001,0 c -2.09226,-2.3119 -2.53999,-4.8726 -2.53999,-14.52668 0,-13.59562 2.01261,-17.33333 9.33333,-17.33333 6.98422,0 9.2585,3.82707 9.7889,16.47237 0.3994,9.522 0.0999,11.31299 -2.43011,14.52763 -3.63147,4.61432 -10.38323,5.02461 -14.15213,0.86001 z m 40.33333,0.36834 c -3.36872,-3.7224 -3.18967,-26.92543 0.23167,-30.0217 3.80161,-3.44041 10.22093,-2.81754 13.4649,1.3065 4.7812,6.0783 3.57834,26.56226 -1.76949,30.1331 -2.77964,1.85602 -9.70983,1.03214 -11.92708,-1.4179 z m -77.83092,-55.17008 c -4.15627,-2.00666 -6.08494,-9.06527 -5.46667,-20.00713 0.44244,-7.83018 1.03875,-9.78433 3.62463,-11.87825 1.70228,-1.37842 4.46212,-2.50623 6.13297,-2.50623 1.67085,0 4.43069,1.12781 6.13297,2.50623 2.58588,2.09392 3.18219,4.04807 3.62463,11.87825 0.64152,11.35335 -1.29973,18.00845 -5.85891,20.08575 -3.94348,1.79676 -4.31254,1.79322 -8.18962,-0.0787 z m 38.75128,-1.56419 c -3.23505,-2.78268 -3.75233,-4.30505 -4.20901,-12.38718 -0.88146,-15.59948 4.76036,-23.44485 13.87376,-19.29251 4.29297,1.95601 5.8749,6.50028 5.8749,16.87634 0,9.93646 -1.69476,14.4384 -6.20976,16.49558 -4.47653,2.03964 -5.12889,1.92132 -9.32989,-1.69223 z m 40.48195,0.48451 c -3.4671,-2.72722 -3.60896,-3.3329 -3.60896,-15.4087 0,-10.79211 0.37714,-12.94704 2.66666,-15.23656 3.60364,-3.60364 8.76327,-3.35795 12.72727,0.60606 2.95741,2.9574 3.27273,4.3563 3.27273,14.51895 0,8.77133 -0.51348,11.85307 -2.33333,14.00375 -3.5984,4.25259 -8.50292,4.83711 -12.72437,1.5165 z M 506.43111,74.133981 C 506.19402,73.10767 495.8737,61.360426 483.49708,48.028995 l -22.50293,-24.238966 -5.27463,5.104985 c -7.35386,7.117373 -41.62227,44.416914 -42.16395,45.893481 -0.26117,0.711909 18.88595,1.211508 46.4311,1.211508 39.48779,0 46.8076,-0.294092 46.44444,-1.866022 z m 83.15366,476.480759 c -4.09151,-3.81181 -3.82542,-9.70747 0.59506,-13.18461 3.11607,-2.4511 5.34308,-2.76345 19.70332,-2.76345 19.31723,0 22.11687,1.18146 22.11687,9.33334 0,8.20497 -2.74576,9.33333 -22.71192,9.33333 -15.04915,0 -17.08707,-0.28118 -19.70333,-2.71861 z m -0.25142,-63.94806 c -3.83669,-3.83669 -3.45178,-9.85554 0.84648,-13.23656 3.08879,-2.42964 5.35416,-2.76344 18.75432,-2.76344 19.35162,0 23.00406,1.62574 23.04546,10.25774 0.0344,7.18014 -3.31819,8.40893 -22.94294,8.40893 -15.25888,0 -17.31492,-0.27827 -19.70332,-2.66667 z M 588.74229,422.37 c -2.89927,-4.13929 -2.58598,-9.4948 0.73105,-12.49667 2.45204,-2.21906 4.96127,-2.53998 19.86001,-2.53998 19.39715,0 22.66667,1.34628 22.66667,9.33333 0,7.68345 -2.61265,8.66667 -23.02939,8.66667 -17.24702,0 -18.25629,-0.14786 -20.22834,-2.96335 z m 4.59106,-60.64924 c -6.76685,-2.48812 -8.82396,-10.23012 -4,-15.05408 2.40024,-2.40024 4.44444,-2.66667 20.46002,-2.66667 19.76498,0 22.2271,0.97344 22.18624,8.77166 -0.0429,8.18908 -3.97923,9.92293 -22.22527,9.78974 -7.93155,-0.0579 -15.32099,-0.43618 -16.42099,-0.84065 z M 46.592158,346.87445 c -3.747783,-3.03477 -4.048294,-9.72212 -0.607728,-13.52389 2.312006,-2.55475 4.050181,-2.68388 36.125449,-2.68388 h 33.696581 l 2.8388,3.60896 c 3.32061,4.22145 2.73608,9.12597 -1.51649,12.72437 -2.46101,2.08243 -6.23838,2.33334 -35.128767,2.33334 -29.472833,0 -32.643131,-0.22016 -35.407845,-2.4589 z m 96.680582,-0.81384 c -3.99819,-3.99817 -4.13832,-7.26724 -0.5093,-11.88079 2.61508,-3.32453 3.3997,-3.51314 14.61474,-3.51314 10.47463,0 12.16708,0.33897 14.56988,2.91808 3.63405,3.90069 3.43015,8.4916 -0.55412,12.47585 -2.93541,2.93543 -4.38459,3.27274 -14.0606,3.27274 -9.67601,0 -11.12519,-0.33731 -14.0606,-3.27274 z m 108.26752,-42.63505 c -6.86009,-2.49558 -11.01629,-6.6311 -13.68371,-13.61562 -4.16472,-10.90516 0.77563,-24.29222 10.7033,-29.00321 3.34603,-1.58779 5.78369,-4.22223 8.05588,-8.70619 14.25248,-28.12592 53.06301,-28.17255 67.39427,-0.0809 2.05689,4.03184 3.52516,5.17813 7.60293,5.93569 2.77956,0.51639 7.16405,2.11967 9.74332,3.56286 15.16007,8.48258 15.29503,30.72213 0.24322,40.08133 -4.82854,3.00239 -5.77822,3.0738 -44.93279,3.37909 -31.55075,0.246 -41.08286,-0.082 -45.12642,-1.553 z m 79.68323,-18.51368 c 2.89039,-2.1135 2.32355,-6.7058 -0.90444,-7.32746 -1.27436,-0.24542 -3.89839,0.79768 -5.83117,2.31802 -4.66131,3.66658 -9.2153,3.49136 -13.21514,-0.5085 -2.63193,-2.63192 -3.27273,-4.62437 -3.27273,-10.17594 0,-9.05999 -3.58441,-14.89534 -10.96312,-17.84771 -6.52344,-2.61016 -12.50057,-1.8914 -17.59492,2.11583 -4.17555,3.28448 -7.44196,9.20301 -7.44196,13.48433 0,5.10555 -3.65079,8.9422 -9.38088,9.85848 -2.87949,0.46045 -5.85712,1.58627 -6.61695,2.5018 -1.76993,2.13263 -0.42337,5.67912 2.44468,6.43871 1.2209,0.32334 17.55514,0.6575 36.29831,0.74257 26.26841,0.1192 34.62848,-0.24749 36.47832,-1.60013 z m -284.631332,11.2959 c -3.747783,-3.03477 -4.048294,-9.72212 -0.607728,-13.52389 2.312006,-2.55475 4.050181,-2.68388 36.125449,-2.68388 h 33.696581 l 2.8388,3.60896 c 3.32061,4.22145 2.73608,9.12597 -1.51649,12.72437 -2.46101,2.08243 -6.23838,2.33334 -35.128767,2.33334 -29.472833,0 -32.643131,-0.22016 -35.407845,-2.4589 z m 96.680582,-0.81384 c -3.99819,-3.99817 -4.13832,-7.26724 -0.5093,-11.88078 2.60936,-3.31726 3.41419,-3.51315 14.43426,-3.51315 10.4754,0 11.96775,0.31608 14.56989,3.08593 3.63706,3.87147 3.67855,7.56351 0.13564,12.06759 -2.59692,3.30145 -3.4442,3.51315 -14.0606,3.51315 -10.21674,0 -11.61016,-0.31299 -14.56989,-3.27274 z m 446.90709,0.5093 c -4.29826,-3.38102 -4.68317,-9.39987 -0.84648,-13.23656 2.3884,-2.3884 4.44444,-2.66667 19.70332,-2.66667 19.85316,0 22.96335,1.18407 22.96335,8.74227 0,2.81329 -1.0326,5.62366 -2.66667,7.25773 -2.37912,2.37912 -4.44444,2.66667 -19.15352,2.66667 -14.66038,0 -16.87605,-0.30615 -20,-2.76344 z M 46.592158,245.54112 c -3.747783,-3.03478 -4.048294,-9.72213 -0.607728,-13.5239 2.311608,-2.55431 4.050417,-2.68388 36.015573,-2.68388 31.965157,0 33.703967,0.1296 36.015577,2.68388 3.44056,3.80177 3.14005,10.48912 -0.60773,13.5239 -2.76472,2.23873 -5.93501,2.45889 -35.407847,2.45889 -29.472833,0 -32.643131,-0.22016 -35.407845,-2.45889 z m 96.171282,-1.05426 C 141.24355,242.55463 140,239.93555 140,238.66667 c 0,-1.26888 1.24355,-3.88796 2.76344,-5.82018 2.61368,-3.32275 3.4033,-3.51315 14.5699,-3.51315 11.1666,0 11.95621,0.1904 14.56989,3.51315 1.5199,1.93222 2.76344,4.5513 2.76344,5.82018 0,1.26888 -1.24354,3.88796 -2.76344,5.82019 -2.61368,3.32275 -3.40329,3.51315 -14.56989,3.51315 -11.1666,0 -11.95622,-0.1904 -14.5699,-3.51315 z m 446.56991,-12.48685 c -3.88733,-3.88734 -3.4517,-9.85562 0.97344,-13.33643 3.37079,-2.65147 4.90794,-2.83125 20.77698,-2.43011 19.11449,0.48319 20.91625,1.33994 20.91625,9.94578 0,7.27046 -3.29259,8.48742 -22.96335,8.48742 -15.25888,0 -17.31492,-0.27826 -19.70332,-2.66666 z m 0,-64 c -3.48716,-3.48716 -3.42058,-9.57107 0.13999,-12.79335 2.45204,-2.21907 4.96127,-2.53999 19.86001,-2.53999 19.39715,0 22.66667,1.34628 22.66667,9.33334 0,7.63697 -2.66591,8.66666 -22.43832,8.66666 -15.78391,0 -17.83163,-0.26994 -20.22835,-2.66666 z M 199.33334,99.328605 c -6.81691,-2.412783 -16.00951,-12.077583 -17.87373,-18.79189 -5.3786,-19.371781 8.22321,-37.870047 27.84593,-37.870047 h 6.66792 l 3.87528,-8.546755 c 5.19283,-11.452531 13.16247,-19.805367 23.9676,-25.1200027 8.06712,-3.9679161 9.87948,-4.3332435 21.49678,-4.3332435 11.34189,0 13.53501,0.4160947 20.68689,3.9248806 10.68821,5.2437466 19.36027,14.3739436 23.98239,25.2493786 3.2049,7.540834 4.35917,8.951683 8.4203,10.291976 2.58846,0.854266 7.3142,3.95712 10.50168,6.895229 16.10601,14.845994 9.61307,42.46743 -11.46741,48.783299 -8.02989,2.40581 -111.13315,1.98431 -118.10363,-0.482825 z m 116.0606,-19.934662 c 7.41806,-7.418047 2.13367,-18.060608 -8.96768,-18.060608 -6.73429,0 -11.74696,-4.651474 -11.78886,-10.939393 -0.0431,-6.459839 -4.14932,-14.395298 -10.33462,-19.971878 -8.88364,-8.009374 -20.25082,-9.836045 -30.96944,-4.97669 -12.40577,5.62424 -17.49895,13.858285 -17.97291,29.056451 -0.26561,8.517325 -0.74698,10.316721 -3.31661,12.397476 -4.28283,3.468024 -8.26861,3.023587 -14.04381,-1.565965 -7.3808,-5.865518 -13.9007,-5.042133 -17.78222,2.245678 -2.39789,4.502227 -1.88221,6.961697 2.34632,11.190219 l 3.89743,3.897436 h 52.82984 52.82984 z"
         id="path2330" />
    </g>
  </g>
</svg>
