<?xml version="1.0" encoding="UTF-8" standalone="no"?>
<!-- Created with Inkscape (http://www.inkscape.org/) -->

<svg
   version="1.1"
   id="svg1414"
   width="512"
   height="512"
   viewBox="0 0 512 512"
   xmlns="http://www.w3.org/2000/svg"
   xmlns:svg="http://www.w3.org/2000/svg">
  <defs
     id="defs1418" />
  <g
     id="g1420">
    <g
       id="g1424">
      <path
         style="fill:#a0a0a0"
         d="m 84.8125,463.31689 c 0.721875,-0.28887 1.584375,-0.25335 1.916667,0.0789 0.332291,0.33229 -0.258334,0.56864 -1.3125,0.52522 -1.164943,-0.048 -1.4019,-0.28494 -0.604167,-0.60416 z m 341,0 c 0.72187,-0.28887 1.58438,-0.25335 1.91667,0.0789 0.33229,0.33229 -0.25834,0.56864 -1.3125,0.52522 -1.16495,-0.048 -1.4019,-0.28494 -0.60417,-0.60416 z M 27.437091,435.75 24.5,432.5 l 3.25,2.93709 C 30.779455,438.17487 31.459652,439 30.687091,439 c -0.1721,0 -1.6346,-1.4625 -3.25,-3.25 z M 481,438.68709 c 0,-0.1721 1.4625,-1.6346 3.25,-3.25 l 3.25,-2.93709 -2.93709,3.25 C 481.82513,438.77946 481,439.45965 481,438.68709 Z M 0.07894737,379.41667 c 0.04798392,-1.16495 0.2849403,-1.4019 0.60416667,-0.60417 0.28887061,0.72187 0.25334429,1.58438 -0.0789474,1.91667 -0.33229167,0.33229 -0.56864035,-0.25834 -0.52521927,-1.3125 z m 0,-22 c 0.04798392,-1.16495 0.2849403,-1.4019 0.60416667,-0.60417 0.28887061,0.72187 0.25334429,1.58438 -0.0789474,1.91667 -0.33229167,0.33229 -0.56864035,-0.25834 -0.52521927,-1.3125 z m 511.00000263,0 c 0.048,-1.16495 0.28494,-1.4019 0.60416,-0.60417 0.28887,0.72187 0.25335,1.58438 -0.0789,1.91667 -0.33229,0.33229 -0.56864,-0.25834 -0.52522,-1.3125 z M 21,307.62244 c 0,-0.20765 0.7875,-0.99515 1.75,-1.75 1.586056,-1.24387 1.621426,-1.2085 0.377555,0.37756 C 21.821186,307.91575 21,308.44548 21,307.62244 Z M 487.87244,305.25 c -1.24387,-1.58606 -1.2085,-1.62143 0.37756,-0.37756 1.66575,1.30637 2.19548,2.12756 1.37244,2.12756 -0.20765,0 -0.99515,-0.7875 -1.75,-1.75 z m -56,-59 c -1.24387,-1.58606 -1.2085,-1.62143 0.37756,-0.37756 0.9625,0.75485 1.75,1.54235 1.75,1.75 0,0.82304 -0.82119,0.29331 -2.12756,-1.37244 z m -83,-19 c -1.24387,-1.58606 -1.2085,-1.62143 0.37756,-0.37756 1.66575,1.30637 2.19548,2.12756 1.37244,2.12756 -0.20765,0 -0.99515,-0.7875 -1.75,-1.75 z M 108,222.5 c 1.29175,-1.375 2.57363,-2.5 2.84863,-2.5 0.275,0 -0.55688,1.125 -1.84863,2.5 -1.29175,1.375 -2.57363,2.5 -2.84863,2.5 -0.275,0 0.55688,-1.125 1.84863,-2.5 z m 271.26903,1.80701 c 0.97297,-0.25354 2.32297,-0.23687 3,0.0371 0.67703,0.27393 -0.11903,0.48137 -1.76903,0.46099 -1.65,-0.0204 -2.20394,-0.2445 -1.23097,-0.49804 z m 6.98097,0.004 c 0.9625,-0.25152 2.5375,-0.25152 3.5,0 0.9625,0.25153 0.175,0.45733 -1.75,0.45733 -1.925,0 -2.7125,-0.2058 -1.75,-0.45733 z M 118,212.5 c 1.29175,-1.375 2.57363,-2.5 2.84863,-2.5 0.275,0 -0.55688,1.125 -1.84863,2.5 -1.29175,1.375 -2.57363,2.5 -2.84863,2.5 -0.275,0 0.55688,-1.125 1.84863,-2.5 z m 220.87244,-5.25 c -1.24387,-1.58606 -1.2085,-1.62143 0.37756,-0.37756 0.9625,0.75485 1.75,1.54235 1.75,1.75 0,0.82304 -0.82119,0.29331 -2.12756,-1.37244 z M 258.8125,170.31689 c 0.72187,-0.28887 1.58438,-0.25335 1.91667,0.0789 0.33229,0.33229 -0.25834,0.56864 -1.3125,0.52522 -1.16495,-0.048 -1.4019,-0.28494 -0.60417,-0.60416 z m -7,-1 c 0.72187,-0.28887 1.58437,-0.25335 1.91667,0.0789 0.33229,0.33229 -0.25834,0.56864 -1.3125,0.52522 -1.16495,-0.048 -1.4019,-0.28494 -0.60417,-0.60416 z M 220.25,168.31067 c 0.9625,-0.25152 2.5375,-0.25152 3.5,0 0.9625,0.25153 0.175,0.45733 -1.75,0.45733 -1.925,0 -2.7125,-0.2058 -1.75,-0.45733 z m 20.01903,-0.004 c 0.97297,-0.25354 2.32297,-0.23687 3,0.0371 0.67703,0.27393 -0.11903,0.48137 -1.76903,0.46099 -1.65,-0.0204 -2.20394,-0.2445 -1.23097,-0.49804 z M 323.15789,154 c 0,-1.375 0.22698,-1.9375 0.50439,-1.25 0.27741,0.6875 0.27741,1.8125 0,2.5 -0.27741,0.6875 -0.50439,0.125 -0.50439,-1.25 z M 210.8125,144.31689 c 0.72187,-0.28887 1.58437,-0.25335 1.91667,0.0789 0.33229,0.33229 -0.25834,0.56864 -1.3125,0.52522 -1.16495,-0.048 -1.4019,-0.28494 -0.60417,-0.60416 z m 41,0 c 0.72187,-0.28887 1.58437,-0.25335 1.91667,0.0789 0.33229,0.33229 -0.25834,0.56864 -1.3125,0.52522 -1.16495,-0.048 -1.4019,-0.28494 -0.60417,-0.60416 z M 227.25,143.26496 c 2.6125,-0.206 6.8875,-0.206 9.5,0 2.6125,0.206 0.475,0.37454 -4.75,0.37454 -5.225,0 -7.3625,-0.16854 -4.75,-0.37454 z m -20.4375,-13.94807 c 0.72187,-0.28887 1.58437,-0.25335 1.91667,0.0789 0.33229,0.33229 -0.25834,0.56864 -1.3125,0.52522 -1.16495,-0.048 -1.4019,-0.28494 -0.60417,-0.60416 z m 11.45653,-1.00988 c 0.97297,-0.25354 2.32297,-0.23687 3,0.0371 0.67703,0.27393 -0.11903,0.48137 -1.76903,0.46099 -1.65,-0.0204 -2.20394,-0.2445 -1.23097,-0.49804 z m 25,0 c 0.97297,-0.25354 2.32297,-0.23687 3,0.0371 0.67703,0.27393 -0.11903,0.48137 -1.76903,0.46099 -1.65,-0.0204 -2.20394,-0.2445 -1.23097,-0.49804 z M 123.07895,117.41667 c 0.048,-1.16495 0.28494,-1.4019 0.60416,-0.60417 0.28887,0.72187 0.25335,1.58437 -0.0789,1.91667 -0.3323,0.33229 -0.56864,-0.25834 -0.52522,-1.3125 z m 84.73355,-13.09978 c 0.72187,-0.28887 1.58437,-0.25335 1.91667,0.0789 0.33229,0.3323 -0.25834,0.56864 -1.3125,0.52522 -1.16495,-0.048 -1.4019,-0.28494 -0.60417,-0.60416 z m 47,0 c 0.72187,-0.28887 1.58438,-0.25335 1.91667,0.0789 0.33229,0.3323 -0.25834,0.56864 -1.3125,0.52522 -1.16495,-0.048 -1.4019,-0.28494 -0.60417,-0.60416 z M 225.75,103.2596 c 3.4375,-0.19527 9.0625,-0.19527 12.5,0 3.4375,0.19527 0.625,0.35504 -6.25,0.35504 -6.875,0 -9.6875,-0.15977 -6.25,-0.35504 z M 203.8125,89.316886 c 0.72187,-0.288871 1.58437,-0.253344 1.91667,0.07895 0.33229,0.332292 -0.25834,0.568641 -1.3125,0.52522 -1.16495,-0.04798 -1.4019,-0.284941 -0.60417,-0.604167 z m 11.45653,-1.009877 c 0.97297,-0.253543 2.32297,-0.236869 3,0.03705 0.67703,0.273923 -0.11903,0.481368 -1.76903,0.460988 -1.65,-0.02038 -2.20394,-0.244498 -1.23097,-0.498042 z m 31,0 c 0.97297,-0.253543 2.32297,-0.236869 3,0.03705 0.67703,0.273923 -0.11903,0.481368 -1.76903,0.460988 -1.65,-0.02038 -2.20394,-0.244498 -1.23097,-0.498042 z M 204.8125,64.316886 c 0.72187,-0.288871 1.58437,-0.253344 1.91667,0.07895 0.33229,0.332292 -0.25834,0.568641 -1.3125,0.52522 -1.16495,-0.04798 -1.4019,-0.284941 -0.60417,-0.604167 z m 51.9375,0.02083 c 0.6875,-0.277412 1.8125,-0.277412 2.5,0 0.6875,0.277413 0.125,0.504386 -1.25,0.504386 -1.375,0 -1.9375,-0.226973 -1.25,-0.504386 z m -37.48625,-1.0553 c 1.52006,-0.229855 3.77006,-0.223712 5,0.01365 1.22994,0.237362 -0.0137,0.425424 -2.76375,0.417917 -2.75,-0.0075 -3.75631,-0.201713 -2.23625,-0.431567 z m 21,0 c 1.52006,-0.229855 3.77006,-0.223712 5,0.01365 1.22994,0.237362 -0.0137,0.425424 -2.76375,0.417917 -2.75,-0.0075 -3.75631,-0.201713 -2.23625,-0.431567 z M 185.8125,51.316886 c 0.72187,-0.288871 1.58437,-0.253344 1.91667,0.07895 0.33229,0.332292 -0.25834,0.568641 -1.3125,0.52522 -1.16495,-0.04798 -1.4019,-0.284941 -0.60417,-0.604167 z m 7,-1 c 0.72187,-0.288871 1.58437,-0.253344 1.91667,0.07895 0.33229,0.332292 -0.25834,0.568641 -1.3125,0.52522 -1.16495,-0.04798 -1.4019,-0.284941 -0.60417,-0.604167 z m 77,0 c 0.72187,-0.288871 1.58438,-0.253344 1.91667,0.07895 0.33229,0.332292 -0.25834,0.568641 -1.3125,0.52522 -1.16495,-0.04798 -1.4019,-0.284941 -0.60417,-0.604167 z m -69,-1 c 0.72187,-0.288871 1.58437,-0.253344 1.91667,0.07895 0.33229,0.332292 -0.25834,0.568641 -1.3125,0.52522 -1.16495,-0.04798 -1.4019,-0.284941 -0.60417,-0.604167 z m 59.9375,0.02083 c 0.6875,-0.277412 1.8125,-0.277412 2.5,0 0.6875,0.277413 0.125,0.504386 -1.25,0.504386 -1.375,0 -1.9375,-0.226973 -1.25,-0.504386 z m -47.48097,-1.03071 c 0.97297,-0.253543 2.32297,-0.236869 3,0.03705 0.67703,0.273923 -0.11903,0.481368 -1.76903,0.460988 -1.65,-0.02038 -2.20394,-0.244498 -1.23097,-0.498042 z m 35,0 c 0.97297,-0.253543 2.32297,-0.236869 3,0.03705 0.67703,0.273923 -0.11903,0.481368 -1.76903,0.460988 -1.65,-0.02038 -2.20394,-0.244498 -1.23097,-0.498042 z"
         id="path1438" />
      <path
         style="fill:#e3626c"
         d="M 108.91989,429.99012 C 79.245957,422.6889 55.682338,398.58083 49.441604,369.13754 c -2.106149,-9.93665 -1.846986,-26.22244 0.568551,-35.72758 5.04118,-19.83705 20.925056,-42.26222 31.176011,-44.01491 4.176989,-0.71417 6.887228,-3.29665 8.810382,-8.39505 0.726123,-1.925 3.75617,-8.32523 6.733437,-14.22273 20.598285,-40.802 58.860055,-70.06072 104.581605,-79.97341 13.81129,-2.99436 45.4457,-3.25131 59.1235,-0.48023 21.55332,4.36664 45.01139,14.7884 62.54961,27.78903 7.2532,5.37661 10.01766,6.89626 11.75,6.45905 1.24591,-0.31444 3.31828,-0.8354 4.60525,-1.15769 1.94429,-0.4869 3.29293,0.49948 7.97597,5.83353 5.42905,6.18377 5.59263,6.53448 4.45437,9.55005 -1.52633,4.04371 -0.14864,8.13271 3.41383,10.13227 2.46078,1.3812 3.36101,1.25382 12.1492,-1.71907 7.04475,-2.38311 11.26439,-3.2108 16.36898,-3.2108 23.82334,0 42.89459,15.93908 47.86036,40 0.85133,4.125 2.0855,8.02552 2.74261,8.66783 0.6571,0.64231 4.83137,2.55826 9.27615,4.25768 32.3638,12.37394 52.38919,40.76469 52.60107,74.57449 0.0841,13.41714 -1.90863,22.8017 -7.31362,34.44301 -4.52659,9.74942 -9.23723,16.31683 -17.4675,24.35253 L 465.55881,432 291.0294,431.9276 c -166.80747,-0.0692 -174.86478,-0.15493 -182.10951,-1.93748 z m 59.46547,-32.11984 c 3.51931,-1.60351 5.1954,-6.05399 3.66837,-9.74056 C 170.24937,383.7736 167.29778,383 152.48174,383 H 139.05758 L 138.77879,336.41105 138.5,289.8221 l -2.36078,-1.91105 c -3.15789,-2.55631 -7.94747,-2.43982 -10.82477,0.26326 L 123,290.34863 v 51.39143 c 0,34.45087 0.35119,52.04762 1.06537,53.38209 0.58596,1.09486 2.04846,2.38676 3.25,2.87087 3.30316,1.33087 38.10795,1.22686 41.06999,-0.12274 z m 35.95732,0.0195 c 1.34022,-0.61065 2.9364,-2.20683 3.54705,-3.54705 C 208.65643,392.66 209,376.33512 209,341.58786 209,292.1966 208.9618,291.22123 206.92742,288.63491 205.32876,286.6025 203.97338,286 201,286 c -2.97338,0 -4.32876,0.6025 -5.92742,2.63486 C 193.03685,291.22287 193,292.18379 193,342.68031 v 51.4106 l 2.45455,2.45454 c 2.68193,2.68194 5.13725,3.05329 8.88813,1.34428 z m 74.2967,-0.81149 c 2.98532,-1.82036 3.95445,-4.35953 19.75,-51.74637 C 307.52522,317.92423 315,294.54803 315,293.38476 c 0,-1.16327 -0.93266,-3.30073 -2.07258,-4.7499 -2.54588,-3.23656 -7.94939,-3.61289 -10.80946,-0.75282 -1.08327,1.08327 -7.54742,18.89606 -15.23048,41.96952 -7.34164,22.04812 -13.655,39.7637 -14.02969,39.36796 C 272.4831,368.82378 266.02258,350.725 258.50108,329 c -7.5215,-21.725 -14.38097,-40.2875 -15.24326,-41.25 -2.5153,-2.80761 -8.66332,-2.32125 -11.18524,0.88486 -1.13992,1.44917 -2.07258,3.45017 -2.07258,4.44665 0,0.99649 7.67341,23.99831 17.05203,51.11514 14.47959,41.86553 17.49914,49.71821 20.01578,52.05335 3.50447,3.25173 7.16718,3.51389 11.57157,0.82824 z m 114.04127,-1.49139 c 1.94376,-2.26129 2.37086,-3.60388 1.90871,-6 C 393.41093,383.47708 391.76676,383 371.88922,383 H 354 V 366.5 350 h 16.38922 c 18.22833,0 20.03814,-0.56231 21.20014,-6.58685 0.46212,-2.39592 0.035,-3.7389 -1.90811,-6 L 387.17775,334.5 370.58888,334.1827 354,333.8654 V 317.9327 302 h 17.57692 17.57693 l 2.92307,-2.92308 c 1.6077,-1.60769 2.92308,-3.65504 2.92308,-4.54966 0,-2.47165 -2.72185,-7.20655 -4.5448,-7.90608 C 389.56487,286.27953 378.60808,286 366.10677,286 c -21.45082,0 -22.8521,0.11408 -24.9061,2.02768 -1.19705,1.11522 -2.42328,3.02772 -2.72494,4.25 -0.30167,1.22227 -0.41962,24.5629 -0.26211,51.86806 0.26948,46.71657 0.39579,49.76659 2.14081,51.69413 1.01994,1.12662 2.81994,2.25254 4,2.50206 1.18006,0.24951 11.9728,0.38715 23.98385,0.30586 l 21.83828,-0.14779 2.50409,-2.91315 z"
         id="path1436" />
      <path
         style="fill:#d94554"
         d="M 87.851352,448.00503 C 60.287885,445.30708 36.201703,428.51003 24.033222,403.5 17.471355,390.01331 15.667539,382.28726 15.74497,368 15.841345,350.21729 20.507945,335.43793 30.39376,321.60654 40.257383,307.80619 56.458591,296.13407 72,291.63141 l 5.5,-1.59346 -4.144997,3.73103 c -10.714299,9.64423 -19.522972,24.60189 -23.344848,39.64098 -2.415537,9.50514 -2.6747,25.79093 -0.568551,35.72758 6.291493,29.68276 29.93996,53.70932 59.944776,60.90316 7.87285,1.88756 13.26217,1.94648 181.61362,1.98556 l 173.5,0.0403 -2.5,2.11004 c -3.92619,3.31378 -17.71974,9.58428 -26.5,12.04681 l -8,2.24369 -166,0.14331 c -91.3,0.0788 -169.441892,-0.1936 -173.648648,-0.60536 z M 356.30435,398.25324 c 5.94239,-0.17711 15.39239,-0.17644 21,10e-4 5.60761,0.17792 0.74565,0.32282 -10.80435,0.322 -11.55,-8.2e-4 -16.13804,-0.14638 -10.19565,-0.32348 z"
         id="path1434" />
      <path
         style="fill:#a5474f"
         d="m 90.25,448.31067 c 0.9625,-0.25152 2.5375,-0.25152 3.5,0 0.9625,0.25153 0.175,0.45733 -1.75,0.45733 -1.925,0 -2.7125,-0.2058 -1.75,-0.45733 z m 328.01903,-0.004 c 0.97297,-0.25354 2.32297,-0.23687 3,0.0371 0.67703,0.27393 -0.11903,0.48137 -1.76903,0.46099 -1.65,-0.0204 -2.20394,-0.2445 -1.23097,-0.49804 z M 41.404988,427.75 39.5,425.5 l 2.25,1.90499 C 43.864445,429.19521 44.455241,430 43.654988,430 c -0.189757,0 -1.202257,-1.0125 -2.25,-2.25 z m -6,-6 L 33.5,419.5 l 2.25,1.90499 C 37.864445,423.19521 38.455241,424 37.654988,424 c -0.189757,0 -1.202257,-1.0125 -2.25,-2.25 z M 172.15789,391 c 0,-1.375 0.22698,-1.9375 0.50439,-1.25 0.27741,0.6875 0.27741,1.8125 0,2.5 -0.27741,0.6875 -0.50439,0.125 -0.50439,-1.25 z m 36.30651,-48.5 c -1.7e-4,-28.05 0.12792,-39.66895 0.28467,-25.8199 0.15674,13.84906 0.15688,36.79906 3.1e-4,51 -0.15656,14.20095 -0.28481,2.8699 -0.28498,-25.1801 z M 338.46408,342 c 0,-27.775 0.12831,-39.1375 0.28513,-25.25 0.15682,13.8875 0.15682,36.6125 0,50.5 -0.15682,13.8875 -0.28513,2.525 -0.28513,-25.25 z m 55.61487,48.41667 c 0.048,-1.16495 0.28494,-1.4019 0.60416,-0.60417 0.28887,0.72187 0.25335,1.58438 -0.0789,1.91667 -0.33229,0.33229 -0.56864,-0.25834 -0.52522,-1.3125 z M 391.87244,385.25 c -1.24387,-1.58606 -1.2085,-1.62143 0.37756,-0.37756 1.66575,1.30637 2.19548,2.12756 1.37244,2.12756 -0.20765,0 -0.99515,-0.7875 -1.75,-1.75 z M 138.46053,338 c 0,-25.025 0.12983,-35.2625 0.28851,-22.75 0.15868,12.5125 0.15868,32.9875 0,45.5 -0.15868,12.5125 -0.28851,2.275 -0.28851,-22.75 z m 357.69736,37 c 0,-1.375 0.22698,-1.9375 0.50439,-1.25 0.27741,0.6875 0.27741,1.8125 0,2.5 -0.27741,0.6875 -0.50439,0.125 -0.50439,-1.25 z M 15.078947,374.41667 c 0.04798,-1.16495 0.284941,-1.4019 0.604167,-0.60417 0.288871,0.72187 0.253344,1.58438 -0.07895,1.91667 -0.332292,0.33229 -0.568641,-0.25834 -0.52522,-1.3125 z m 0,-12 c 0.04798,-1.16495 0.284941,-1.4019 0.604167,-0.60417 0.288871,0.72187 0.253344,1.58438 -0.07895,1.91667 -0.332292,0.33229 -0.568641,-0.25834 -0.52522,-1.3125 z M 496.15789,362 c 0,-1.375 0.22698,-1.9375 0.50439,-1.25 0.27741,0.6875 0.27741,1.8125 0,2.5 -0.27741,0.6875 -0.50439,0.125 -0.50439,-1.25 z m -105,-20 c 0,-1.375 0.22698,-1.9375 0.50439,-1.25 0.27741,0.6875 0.27741,1.8125 0,2.5 -0.27741,0.6875 -0.50439,0.125 -0.50439,-1.25 z m -29.36041,-7.74475 c 4.56362,-0.18572 11.76362,-0.18468 16,0.002 4.23639,0.18698 0.50252,0.33893 -8.29748,0.33766 -8.8,-0.001 -12.26613,-0.15425 -7.70252,-0.33996 z M 362.25,301.25543 c 4.8125,-0.18331 12.6875,-0.18331 17.5,0 4.8125,0.18332 0.875,0.3333 -8.75,0.3333 -9.625,0 -13.5625,-0.14998 -8.75,-0.3333 z M 394.15789,294 c 0,-1.375 0.22698,-1.9375 0.50439,-1.25 0.27741,0.6875 0.27741,1.8125 0,2.5 -0.27741,0.6875 -0.50439,0.125 -0.50439,-1.25 z M 115,237.62244 c 0,-0.20765 0.7875,-0.99515 1.75,-1.75 1.58606,-1.24387 1.62143,-1.2085 0.37756,0.37756 C 115.82119,237.91575 115,238.44548 115,237.62244 Z m 16,-16 c 0,-0.20765 0.7875,-0.99515 1.75,-1.75 1.58606,-1.24387 1.62143,-1.2085 0.37756,0.37756 C 131.82119,221.91575 131,222.44548 131,221.62244 Z m 202.8125,-1.30555 c 0.72187,-0.28887 1.58438,-0.25335 1.91667,0.0789 0.33229,0.33229 -0.25834,0.56864 -1.3125,0.52522 -1.16495,-0.048 -1.4019,-0.28494 -0.60417,-0.60416 z m -86,-36 c 0.72187,-0.28887 1.58437,-0.25335 1.91667,0.0789 0.33229,0.33229 -0.25834,0.56864 -1.3125,0.52522 -1.16495,-0.048 -1.4019,-0.28494 -0.60417,-0.60416 z m -18.54875,-1.03447 c 1.52006,-0.22986 3.77006,-0.22371 5,0.0136 1.22994,0.23736 -0.0137,0.42542 -2.76375,0.41792 -2.75,-0.008 -3.75631,-0.20172 -2.23625,-0.43157 z"
         id="path1432" />
      <path
         style="fill:#5f5f5f"
         d="m 87.8125,463.31689 c 0.721875,-0.28887 1.584375,-0.25335 1.916667,0.0789 0.332291,0.33229 -0.258334,0.56864 -1.3125,0.52522 -1.164943,-0.048 -1.4019,-0.28494 -0.604167,-0.60416 z m 335,0 c 0.72187,-0.28887 1.58438,-0.25335 1.91667,0.0789 0.33229,0.33229 -0.25834,0.56864 -1.3125,0.52522 -1.16495,-0.048 -1.4019,-0.28494 -0.60417,-0.60416 z M 0.07894737,376.41667 c 0.04798392,-1.16495 0.2849403,-1.4019 0.60416667,-0.60417 0.28887061,0.72187 0.25334429,1.58438 -0.0789474,1.91667 -0.33229167,0.33229 -0.56864035,-0.25834 -0.52521927,-1.3125 z m 511.00000263,0 c 0.048,-1.16495 0.28494,-1.4019 0.60416,-0.60417 0.28887,0.72187 0.25335,1.58438 -0.0789,1.91667 -0.33229,0.33229 -0.56864,-0.25834 -0.52522,-1.3125 z M 24,304.62244 c 0,-0.20765 0.7875,-0.99515 1.75,-1.75 1.586056,-1.24387 1.621426,-1.2085 0.377555,0.37756 C 24.821186,304.91575 24,305.44548 24,304.62244 Z M 482.94617,300.25 479.5,296.5 l 3.75,3.44617 c 2.0625,1.89539 3.75,3.58289 3.75,3.75 0,0.76362 -0.84622,0.0442 -4.05383,-3.44617 z M 30,298.62244 c 0,-0.20765 0.7875,-0.99515 1.75,-1.75 1.586056,-1.24387 1.621426,-1.2085 0.377555,0.37756 C 30.821186,298.91575 30,299.44548 30,298.62244 Z M 428.40499,242.75 426.5,240.5 l 2.25,1.90499 c 2.11444,1.79022 2.70524,2.59501 1.90499,2.59501 -0.18976,0 -1.20226,-1.0125 -2.25,-2.25 z M 113,217.5 c 1.29175,-1.375 2.57363,-2.5 2.84863,-2.5 0.275,0 -0.55688,1.125 -1.84863,2.5 -1.29175,1.375 -2.57363,2.5 -2.84863,2.5 -0.275,0 0.55688,-1.125 1.84863,-2.5 z m 228.07895,-5.08333 c 0.048,-1.16495 0.28494,-1.4019 0.60416,-0.60417 0.28887,0.72187 0.25335,1.58437 -0.0789,1.91667 -0.33229,0.33229 -0.56864,-0.25834 -0.52522,-1.3125 z M 228.25,168.27153 c 2.0625,-0.21574 5.4375,-0.21574 7.5,0 2.0625,0.21575 0.375,0.39226 -3.75,0.39226 -4.125,0 -5.8125,-0.17651 -3.75,-0.39226 z m -81.5,-6.93381 c 0.6875,-0.27741 1.8125,-0.27741 2.5,0 0.6875,0.27741 0.125,0.50439 -1.25,0.50439 -1.375,0 -1.9375,-0.22698 -1.25,-0.50439 z m 168.0625,-0.0208 c 0.72187,-0.28887 1.58438,-0.25335 1.91667,0.0789 0.33229,0.33229 -0.25834,0.56864 -1.3125,0.52522 -1.16495,-0.048 -1.4019,-0.28494 -0.60417,-0.60416 z M 219.75,143.33772 c 0.6875,-0.27741 1.8125,-0.27741 2.5,0 0.6875,0.27741 0.125,0.50439 -1.25,0.50439 -1.375,0 -1.9375,-0.22698 -1.25,-0.50439 z m 22,0 c 0.6875,-0.27741 1.8125,-0.27741 2.5,0 0.6875,0.27741 0.125,0.50439 -1.25,0.50439 -1.375,0 -1.9375,-0.22698 -1.25,-0.50439 z m 11.0625,-14.02083 c 0.72187,-0.28887 1.58437,-0.25335 1.91667,0.0789 0.33229,0.33229 -0.25834,0.56864 -1.3125,0.52522 -1.16495,-0.048 -1.4019,-0.28494 -0.60417,-0.60416 z m -29.05084,-1.02415 c 1.24391,-0.23919 3.04391,-0.23011 4,0.0202 0.95609,0.25029 -0.0617,0.446 -2.26166,0.4349 -2.2,-0.0111 -2.98225,-0.21589 -1.73834,-0.45508 z m 13,0 c 1.24391,-0.23919 3.04391,-0.23011 4,0.0202 0.95609,0.25029 -0.0617,0.446 -2.26166,0.4349 -2.2,-0.0111 -2.98225,-0.21589 -1.73834,-0.45508 z M 216.75,103.33772 c 0.6875,-0.27741 1.8125,-0.27741 2.5,0 0.6875,0.27741 0.125,0.50439 -1.25,0.50439 -1.375,0 -1.9375,-0.22698 -1.25,-0.50439 z m 28,0 c 0.6875,-0.27741 1.8125,-0.27741 2.5,0 0.6875,0.27741 0.125,0.50439 -1.25,0.50439 -1.375,0 -1.9375,-0.22698 -1.25,-0.50439 z M 206.8125,89.316886 c 0.72187,-0.288871 1.58437,-0.253344 1.91667,0.07895 0.33229,0.332292 -0.25834,0.568641 -1.3125,0.52522 -1.16495,-0.04798 -1.4019,-0.284941 -0.60417,-0.604167 z m 49,0 c 0.72187,-0.288871 1.58438,-0.253344 1.91667,0.07895 0.33229,0.332292 -0.25834,0.568641 -1.3125,0.52522 -1.16495,-0.04798 -1.4019,-0.284941 -0.60417,-0.604167 z M 220.25,88.310674 c 0.9625,-0.251527 2.5375,-0.251527 3.5,0 0.9625,0.251528 0.175,0.457323 -1.75,0.457323 -1.925,0 -2.7125,-0.205795 -1.75,-0.457323 z m 20,0 c 0.9625,-0.251527 2.5375,-0.251527 3.5,0 0.9625,0.251528 0.175,0.457323 -1.75,0.457323 -1.925,0 -2.7125,-0.205795 -1.75,-0.457323 z m -26.5,-24.972955 c 0.6875,-0.277412 1.8125,-0.277412 2.5,0 0.6875,0.277413 0.125,0.504386 -1.25,0.504386 -1.375,0 -1.9375,-0.226973 -1.25,-0.504386 z m 34.0625,-0.02083 c 0.72187,-0.288871 1.58437,-0.253344 1.91667,0.07895 0.33229,0.332292 -0.25834,0.568641 -1.3125,0.52522 -1.16495,-0.04798 -1.4019,-0.284941 -0.60417,-0.604167 z m -44,-14 c 0.72187,-0.288871 1.58437,-0.253344 1.91667,0.07895 0.33229,0.332292 -0.25834,0.568641 -1.3125,0.52522 -1.16495,-0.04798 -1.4019,-0.284941 -0.60417,-0.604167 z m 14.45653,-1.009877 c 0.97297,-0.253543 2.32297,-0.236869 3,0.03705 0.67703,0.273923 -0.11903,0.481368 -1.76903,0.460988 -1.65,-0.02038 -2.20394,-0.244498 -1.23097,-0.498042 z m 25,0 c 0.97297,-0.253543 2.32297,-0.236869 3,0.03705 0.67703,0.273923 -0.11903,0.481368 -1.76903,0.460988 -1.65,-0.02038 -2.20394,-0.244498 -1.23097,-0.498042 z"
         id="path1430" />
      <path
         style="fill:#5d272b"
         d="m 90.75,463.33772 c 0.6875,-0.27741 1.8125,-0.27741 2.5,0 0.6875,0.27741 0.125,0.50439 -1.25,0.50439 -1.375,0 -1.9375,-0.22698 -1.25,-0.50439 z m 328,0 c 0.6875,-0.27741 1.8125,-0.27741 2.5,0 0.6875,0.27741 0.125,0.50439 -1.25,0.50439 -1.375,0 -1.9375,-0.22698 -1.25,-0.50439 z m -333,-15 c 0.6875,-0.27741 1.8125,-0.27741 2.5,0 0.6875,0.27741 0.125,0.50439 -1.25,0.50439 -1.375,0 -1.9375,-0.22698 -1.25,-0.50439 z m 337,0 c 0.6875,-0.27741 1.8125,-0.27741 2.5,0 0.6875,0.27741 0.125,0.50439 -1.25,0.50439 -1.375,0 -1.9375,-0.22698 -1.25,-0.50439 z M 79.8125,447.31689 c 0.721875,-0.28887 1.584375,-0.25335 1.916667,0.0789 0.332291,0.33229 -0.258334,0.56864 -1.3125,0.52522 -1.164943,-0.048 -1.4019,-0.28494 -0.604167,-0.60416 z m 351,0 c 0.72187,-0.28887 1.58438,-0.25335 1.91667,0.0789 0.33229,0.33229 -0.25834,0.56864 -1.3125,0.52522 -1.16495,-0.048 -1.4019,-0.28494 -0.60417,-0.60416 z M 139.25,398.25543 c 4.8125,-0.18331 12.6875,-0.18331 17.5,0 4.8125,0.18332 0.875,0.3333 -8.75,0.3333 -9.625,0 -13.5625,-0.14998 -8.75,-0.3333 z m 133.5625,0.0615 c 0.72187,-0.28887 1.58438,-0.25335 1.91667,0.0789 0.33229,0.33229 -0.25834,0.56864 -1.3125,0.52522 -1.16495,-0.048 -1.4019,-0.28494 -0.60417,-0.60416 z M 265.87244,395.25 c -1.24387,-1.58606 -1.2085,-1.62143 0.37756,-0.37756 1.66575,1.30637 2.19548,2.12756 1.37244,2.12756 -0.20765,0 -0.99515,-0.7875 -1.75,-1.75 z M 123.46472,342 c 0,-28.325 0.12803,-39.9125 0.28452,-25.75 0.15649,14.1625 0.15649,37.3375 0,51.5 -0.15649,14.1625 -0.28452,2.575 -0.28452,-25.75 z m 69.99936,0 c 0,-27.775 0.12831,-39.1375 0.28513,-25.25 0.15682,13.8875 0.15682,36.6125 0,50.5 -0.15682,13.8875 -0.28513,2.525 -0.28513,-25.25 z M 144.75,383.25749 c 3.9875,-0.18981 10.5125,-0.18981 14.5,0 3.9875,0.18982 0.725,0.34512 -7.25,0.34512 -7.975,0 -11.2375,-0.1553 -7.25,-0.34512 z M 353.4626,366.25096 353.5,349.5 l 16.25101,-0.0383 16.25102,-0.0384 -15.97695,0.31301 -15.97695,0.31301 -0.31146,16.47631 -0.31147,16.47631 0.0374,-16.75097 z M 15.078947,377.41667 c 0.04798,-1.16495 0.284941,-1.4019 0.604167,-0.60417 0.288871,0.72187 0.253344,1.58438 -0.07895,1.91667 -0.332292,0.33229 -0.568641,-0.25834 -0.52522,-1.3125 z m 496.000003,-15 c 0.048,-1.16495 0.28494,-1.4019 0.60416,-0.60417 0.28887,0.72187 0.25335,1.58438 -0.0789,1.91667 -0.33229,0.33229 -0.56864,-0.25834 -0.52522,-1.3125 z M 15.157895,359 c 0,-1.375 0.226973,-1.9375 0.504386,-1.25 0.277412,0.6875 0.277412,1.8125 0,2.5 -0.277413,0.6875 -0.504386,0.125 -0.504386,-1.25 z m 480.921055,-0.58333 c 0.048,-1.16495 0.28494,-1.4019 0.60416,-0.60417 0.28887,0.72187 0.25335,1.58438 -0.0789,1.91667 -0.33229,0.33229 -0.56864,-0.25834 -0.52522,-1.3125 z M 353.41127,318 c 0,-9.625 0.14998,-13.5625 0.3333,-8.75 0.18331,4.8125 0.18331,12.6875 0,17.5 -0.18332,4.8125 -0.3333,0.875 -0.3333,-8.75 z M 37.958208,311.75 c 2.452014,-2.6125 4.589514,-4.75 4.75,-4.75 0.750886,0 -0.04302,0.89783 -4.458208,5.04179 L 33.5,316.5 Z M 473,311.5 c -2.42903,-2.475 -4.19142,-4.5 -3.91642,-4.5 0.275,0 2.48739,2.025 4.91642,4.5 2.42903,2.475 4.19142,4.5 3.91642,4.5 -0.275,0 -2.48739,-2.025 -4.91642,-4.5 z M 27,301.62244 c 0,-0.20765 0.7875,-0.99515 1.75,-1.75 1.586056,-1.24387 1.621426,-1.2085 0.377555,0.37756 C 27.821186,301.91575 27,302.44548 27,301.62244 Z m 364,-2 c 0,-0.20765 0.7875,-0.99515 1.75,-1.75 1.58606,-1.24387 1.62143,-1.2085 0.37756,0.37756 C 391.82119,299.91575 391,300.44548 391,299.62244 Z M 314.15789,294 c 0,-1.375 0.22698,-1.9375 0.50439,-1.25 0.27741,0.6875 0.27741,1.8125 0,2.5 -0.27741,0.6875 -0.50439,0.125 -0.50439,-1.25 z m -84.07894,-0.58333 c 0.048,-1.16495 0.28494,-1.4019 0.60416,-0.60417 0.28887,0.72187 0.25335,1.58438 -0.0789,1.91667 -0.3323,0.33229 -0.56864,-0.25834 -0.52522,-1.3125 z M 194,289.62244 c 0,-0.20765 0.7875,-0.99515 1.75,-1.75 1.58606,-1.24387 1.62143,-1.2085 0.37756,0.37756 C 194.82119,289.91575 194,290.44548 194,289.62244 Z m 37,0 c 0,-0.20765 0.7875,-0.99515 1.75,-1.75 1.58606,-1.24387 1.62143,-1.2085 0.37756,0.37756 C 231.82119,289.91575 231,290.44548 231,289.62244 Z M 311.87244,288.25 c -1.24387,-1.58606 -1.2085,-1.62143 0.37756,-0.37756 1.66575,1.30637 2.19548,2.12756 1.37244,2.12756 -0.20765,0 -0.99515,-0.7875 -1.75,-1.75 z M 85,287.62244 c 0,-0.20765 0.7875,-0.99515 1.75,-1.75 1.586056,-1.24387 1.621426,-1.2085 0.377555,0.37756 C 85.821186,287.91575 85,288.44548 85,287.62244 Z m 270.30642,-1.3697 c 6.49353,-0.17445 16.84353,-0.17388 23,10e-4 6.15647,0.17516 0.84358,0.31789 -11.80642,0.31719 -12.65,-7e-4 -17.68711,-0.14401 -11.19358,-0.31847 z M 418.40499,253.75 416.5,251.5 l 2.25,1.90499 c 1.2375,1.04774 2.25,2.06024 2.25,2.25 0,0.80025 -0.80479,0.20945 -2.59501,-1.90499 z m -60.59249,-8.43311 c 0.72187,-0.28887 1.58438,-0.25335 1.91667,0.0789 0.33229,0.33229 -0.25834,0.56864 -1.3125,0.52522 -1.16495,-0.048 -1.4019,-0.28494 -0.60417,-0.60416 z m 23.95541,-6.04162 c 1.79735,-0.22256 4.49735,-0.21797 6,0.0102 1.50265,0.22818 0.0321,0.41027 -3.26791,0.40466 -3.3,-0.006 -4.52944,-0.1923 -2.73209,-0.41486 z M 123.5,228 c 2.70865,-2.75 5.14982,-5 5.42482,-5 0.275,0 -1.71617,2.25 -4.42482,5 -2.70865,2.75 -5.14982,5 -5.42482,5 -0.275,0 1.71617,-2.25 4.42482,-5 z m 88.3125,-43.68311 c 0.72187,-0.28887 1.58437,-0.25335 1.91667,0.0789 0.33229,0.33229 -0.25834,0.56864 -1.3125,0.52522 -1.16495,-0.048 -1.4019,-0.28494 -0.60417,-0.60416 z m 39,0 c 0.72187,-0.28887 1.58437,-0.25335 1.91667,0.0789 0.33229,0.33229 -0.25834,0.56864 -1.3125,0.52522 -1.16495,-0.048 -1.4019,-0.28494 -0.60417,-0.60416 z m -29.05084,-1.02415 c 1.24391,-0.23919 3.04391,-0.23011 4,0.0202 0.95609,0.25029 -0.0617,0.446 -2.26166,0.4349 -2.2,-0.0111 -2.98225,-0.21589 -1.73834,-0.45508 z m 16,0 c 1.24391,-0.23919 3.04391,-0.23011 4,0.0202 0.95609,0.25029 -0.0617,0.446 -2.26166,0.4349 -2.2,-0.0111 -2.98225,-0.21589 -1.73834,-0.45508 z M 230.25,128.31067 c 0.9625,-0.25152 2.5375,-0.25152 3.5,0 0.9625,0.25153 0.175,0.45733 -1.75,0.45733 -1.925,0 -2.7125,-0.2058 -1.75,-0.45733 z m -2,-40.039138 c 2.0625,-0.215745 5.4375,-0.215745 7.5,0 2.0625,0.215744 0.375,0.392262 -3.75,0.392262 -4.125,0 -5.8125,-0.176518 -3.75,-0.392262 z m -4.98097,-39.964523 c 0.97297,-0.253543 2.32297,-0.236869 3,0.03705 0.67703,0.273923 -0.11903,0.481368 -1.76903,0.460988 -1.65,-0.02038 -2.20394,-0.244498 -1.23097,-0.498042 z m 15,0 c 0.97297,-0.253543 2.32297,-0.236869 3,0.03705 0.67703,0.273923 -0.11903,0.481368 -1.76903,0.460988 -1.65,-0.02038 -2.20394,-0.244498 -1.23097,-0.498042 z"
         id="path1428" />
      <path
         style="fill:#010000"
         d="M 86.277681,462.93199 C 45.278876,458.96547 11.35749,428.52483 2.3490239,387.61543 0.2013103,377.86219 0.24250312,358.70252 2.4329232,348.59205 9.8143496,314.52109 35.053393,287.23876 68.620602,277.04599 l 7.120601,-2.16219 6.625045,-13.1919 C 91.111973,244.27726 100.00341,231.99659 114,218 c 14.00153,-14.00153 26.33869,-22.93322 43.5,-31.49256 14.29376,-7.12912 26.33555,-11.35734 41.83564,-14.68971 14.03468,-3.01733 47.12329,-3.25809 62.16436,-0.45233 26.14461,4.87701 53.54512,17.15389 73.21069,32.80225 5.51361,4.38731 6.28931,5.42561 6.28931,8.41845 0,4.11949 -2.93228,7.4139 -6.59894,7.4139 -1.61257,0 -5.50274,-2.18668 -10.25,-5.76156 C 263.42572,168.5098 178.9385,173.92373 125.00028,227 c -14.26917,14.04114 -26.418038,31.78227 -33.554949,49.00064 -2.032559,4.90371 -4.42676,9.55964 -5.320446,10.3465 -0.893687,0.78687 -5.302735,2.35023 -9.797884,3.47415 -22.837864,5.7101 -42.584812,21.64073 -52.900991,42.67728 -5.790652,11.80819 -7.528756,18.65335 -8.152011,32.10504 -1.079692,23.30292 5.960242,42.1623 22.068798,59.12042 8.310652,8.74895 17.517868,15.07943 28.087455,19.3117 15.866226,6.35314 4.90863,6.02904 193.848398,5.73358 L 431.5,448.5 441,445.1989 c 12.41328,-4.31341 21.52477,-9.8033 30.63841,-18.46037 17.90605,-17.009 26.2239,-37.60998 25.08759,-62.13492 -0.6156,-13.28657 -2.35619,-20.12371 -8.17287,-32.10361 -9.30104,-19.15622 -28.50259,-35.67224 -48.31501,-41.55767 -5.50313,-1.63475 -6.2044,-2.58779 -7.86724,-10.69179 -0.76182,-3.7128 -2.99564,-10.04164 -4.96404,-14.0641 -11.02207,-22.52374 -38.96034,-33.02246 -61.81101,-23.22752 -5.8391,2.50293 -9.80509,2.60086 -11.78884,0.29108 -6.13774,-7.14645 -0.19026,-13.01203 17.10524,-16.86969 31.35513,-6.99359 64.96481,12.69702 73.60053,43.11969 2.40314,8.46597 2.29318,8.33471 9.53789,11.38611 24.27459,10.22423 44.59605,32.6146 52.74408,58.11389 5.49396,17.19337 6.12655,35.7664 1.78813,52.5 -6.99884,26.99503 -25.46615,49.85254 -50.08286,61.98897 -11.04117,5.44348 -21.02113,8.22526 -34.05567,9.49257 -11.99754,1.16649 -326.073111,1.12046 -338.166649,-0.0496 z M 126.22251,396.4433 124,394.88659 124.0153,342.6933 c 0.008,-28.70632 0.34592,-52.68843 0.75,-53.2936 1.00289,-1.50196 4.75092,-3.3997 6.7144,-3.3997 0.88616,0 2.71574,1.10455 4.06574,2.45455 l 2.45455,2.45454 V 337.45455 384 h 15 c 13.66667,0 15.17778,0.17778 17,2 1.11111,1.11111 2,3.33333 2,5 0,1.66667 -0.88889,3.88889 -2,5 -1.86517,1.86517 -3.33333,2 -21.77749,2 -16.28171,0 -20.17034,-0.27516 -22,-1.5567 z M 196,396 c -1.94865,-1.94865 -2,-3.33333 -2,-53.92742 v -51.92742 l 2.63486,-2.07258 c 3.32393,-2.61461 5.40635,-2.61461 8.73028,0 L 208,290.14516 v 51.92742 c 0,50.59409 -0.0514,51.97877 -2,53.92742 -1.11111,1.11111 -3.33333,2 -5,2 -1.66667,0 -3.88889,-0.88889 -5,-2 z m 71.50626,-0.25 C 265.40977,393.93939 261.5908,383.96334 247.9505,344.66582 238.62773,317.80702 231,294.55218 231,292.9884 231,289.90114 234.92106,286 238.02407,286 c 4.51119,0 5.943,3.13326 20.10678,44 7.72017,22.275 14.34515,40.82367 14.72218,41.21927 0.37702,0.39559 6.88801,-17.90646 14.46885,-40.67122 7.58084,-22.76477 14.45864,-41.95094 15.28401,-42.63593 2.19313,-1.82013 7.06386,-1.52097 9.3812,0.5762 1.19122,1.07803 2.01291,3.08503 2.01291,4.91656 0,5.21847 -31.93445,99.62048 -34.60222,102.28825 -3.05524,3.05524 -8.39018,3.08075 -11.89152,0.0569 z M 341.45455,395.54545 339,393.09091 v -51.04546 c 0,-49.71212 0.0522,-51.09769 2,-53.04545 1.88652,-1.88652 3.33333,-2 25.5,-2 22.16667,0 23.61348,0.11348 25.5,2 2.69767,2.69767 2.55585,7.12918 -0.31445,9.82569 -2.20114,2.06786 -3.20478,2.17431 -20.5,2.17431 H 353 v 17 17 h 16.36514 c 15.04198,0 16.57818,0.16757 19,2.07258 2.96921,2.33558 3.48801,6.37639 1.21793,9.48629 -1.28149,1.75559 -3.07371,1.98892 -18.75,2.44113 l -17.33307,0.5 -0.2739,16.6879 -0.27389,16.68791 18.61426,0.31209 c 18.17837,0.30479 18.65898,0.36738 20.5239,2.67288 2.75566,3.4067 2.45615,7.56417 -0.72523,10.06664 C 388.87755,397.88416 387.47769,398 366.31969,398 h -22.4106 z M 143,159 c -2.67772,-2.67772 -2.56238,-7.14412 0.25,-9.68083 4.04769,-3.65096 25.31666,-11.40948 42.11364,-15.36228 28.99267,-6.82279 66.03583,-6.63979 95.13636,0.46999 17.08164,4.17335 36.25548,11.39336 40.75,15.34462 3.98009,3.49901 0.64163,11.2285 -4.84973,11.2285 -1.42986,0 -7.61736,-2.00658 -13.75,-4.45906 C 281.6171,148.12965 262.56745,144.1697 239,143.30962 210.01863,142.25196 182.52018,147.25736 156.28013,158.36668 148.83059,161.52061 145.67128,161.67128 143,159 Z m -16.54545,-36.45455 c -2.67916,-2.67915 -3.1628,-6.22213 -1.20455,-8.82409 4.04659,-5.37676 40.41174,-17.374571 66.25,-21.857588 15.45891,-2.682169 50.57059,-3.666918 66.81672,-1.873954 C 290.68838,93.562435 334.68346,107.33634 339,115.25 c 1.33643,2.45013 1.33306,3.04843 -0.0309,5.4868 -2.70169,4.8297 -5.71597,5.03481 -15.12388,1.02911 -28.08853,-11.95955 -53.41619,-17.5044 -84.38248,-18.47342 -35.81789,-1.12083 -70.02933,5.27731 -99.91411,18.68571 -8.15894,3.66066 -9.92417,3.73714 -13.09405,0.56725 z M 111.85071,87.81687 c -3.68437,-1.274434 -5.46097,-5.794639 -3.69108,-9.39123 3.46957,-7.050549 49.397,-22.065885 82.34037,-26.920045 53.15782,-7.832731 113.51872,0.646656 159.65599,22.428175 5.57566,2.632284 7.61052,6.289809 5.75951,10.352334 -2.38976,5.244965 -5.14966,5.058304 -21.49477,-1.453755 C 299.59801,68.958614 268.54642,63 231.07019,63 c -33.7135,0 -68.29735,6.42687 -97.16389,18.056396 -19.22283,7.744344 -19.21668,7.742461 -22.05559,6.760474 z"
         id="path1426" />
    </g>
  </g>
</svg>
