<?xml version="1.0" encoding="UTF-8" standalone="no"?>
<!-- Created with Inkscape (http://www.inkscape.org/) -->

<svg
   version="1.1"
   id="svg1799"
   width="512"
   height="512"
   viewBox="0 0 512 512"
   xmlns="http://www.w3.org/2000/svg"
   xmlns:svg="http://www.w3.org/2000/svg">
  <defs
     id="defs1803" />
  <g
     id="g1805">
    <g
       id="g1809">
      <path
         style="fill:#f2f4f6"
         d="m 157.75,484.25006 c 54.0375,-0.14293 142.4625,-0.14293 196.5,0 54.0375,0.14292 9.825,0.25985 -98.25,0.25985 -108.075,0 -152.2875,-0.11693 -98.25,-0.25985 z M 38,283 V 115 H 244.5 451 v 34.92045 c 0,52.57117 -1.89325,72.79156 -9.54338,101.92541 C 432.36441,286.47161 414.2709,322.3083 391.3949,351 c -3.72739,4.675 -12.73037,14.4625 -20.00661,21.75 L 358.15877,386 h -46.76366 c -45.61014,0 -46.87175,0.0523 -51.14537,2.12115 -6.65921,3.22367 -9.74974,8.57411 -9.74974,16.87909 0,7.59727 2.23103,11.90484 8.33352,16.08994 3.31225,2.27154 4.55112,2.43851 21.59018,2.90982 l 18.0763,0.5 -7,3.12289 c -27.72333,12.36811 -58.82058,20.00549 -91,22.34928 -7.7,0.56083 -47.4125,1.02153 -88.25,1.02376 L 38,451 Z m 117.43428,139.029 c 2.67959,-1.29902 19.95844,-17.91938 50.68144,-48.75 44.23453,-44.38947 46.67617,-47.02869 47.79915,-51.667 1.38937,-5.73863 0.76231,-9.61512 -2.4445,-15.112 -3.59846,-6.16821 -92.1904,-94.09002 -96.68825,-95.95687 -16.35023,-6.78625 -32.54773,10.85371 -24.2617,26.42231 0.74193,1.39401 18.69814,19.85216 39.9027,41.01812 l 38.55373,38.48356 -39.38208,39.51644 c -37.6084,37.7367 -39.42678,39.73191 -40.37447,44.30053 -3.32838,16.04547 11.9049,28.68172 26.21398,21.74491 z M 125.8,180.8 c 1.54692,-1.54692 1.54692,-6.05308 0,-7.6 -1.71757,-1.71757 -65.882434,-1.71757 -67.6,0 -0.66,0.66 -1.2,2.37 -1.2,3.8 0,1.43 0.54,3.14 1.2,3.8 1.717566,1.71757 65.88243,1.71757 67.6,0 z m 29.26574,0.16482 c 2.19222,-1.17324 2.63573,-5.86335 0.73426,-7.76482 -0.7358,-0.7358 -4.33333,-1.2 -9.3,-1.2 -8.79844,0 -10.5,0.81027 -10.5,5 0,1.43 0.54,3.14 1.2,3.8 1.4881,1.4881 15.15753,1.61421 17.86574,0.16482 z M 177,153 c 2.53075,-2.53075 2.53075,-4.46925 0,-7 -1.95327,-1.95327 -3.33333,-2 -59.06574,-2 -37.424516,0 -57.731488,0.3563 -59.000001,1.03518 -2.550382,1.36493 -2.676232,7.43328 -0.184259,8.88472 1.131666,0.65914 21.978349,1.03003 59,1.04969 55.93764,0.0297 57.29585,-0.0154 59.25,-1.96959 z M 157.75,27.250057 c 54.0375,-0.142922 142.4625,-0.142922 196.5,0 54.0375,0.142921 9.825,0.259857 -98.25,0.259857 -108.075,0 -152.2875,-0.116936 -98.25,-0.259857 z"
         id="path1823" />
      <path
         style="fill:#e3e7ea"
         d="M 50.251645,471.8995 C 43.283321,468.44372 38,460.7387 38,454.03212 V 451 l 74.25,-0.004 c 76.43524,-0.004 93.59844,-0.60987 114.25,-4.03187 22.26401,-3.68918 53.67751,-13.22093 67,-20.32969 3.81794,-2.03722 5.6613,-2.15713 40.5,-2.63437 36.09606,-0.49447 36.5416,-0.52586 40.25885,-2.83703 11.39339,-7.08373 11.72415,-24.51346 0.60482,-31.87188 -3.05258,-2.02011 -5.67679,-2.81175 -10.29552,-3.10585 l -6.1987,-0.39471 13.12418,-13.14526 C 378.71194,365.41537 387.66751,355.675 391.3949,351 414.2709,322.3083 432.36441,286.47161 441.45662,251.84586 449.10675,222.71201 451,202.49162 451,149.92045 V 115 h 11.50843 11.50842 l -0.25842,172.32314 -0.25843,172.32314 -2.75854,4.16832 c -1.51719,2.29258 -4.63429,5.40967 -6.92689,6.92686 L 459.64622,473.5 257.07311,473.75319 54.5,474.00637 Z M 27.490037,256 c 0,-107.525 0.116957,-151.5125 0.259906,-97.75 0.142948,53.7625 0.142948,141.7375 0,195.5 -0.142949,53.7625 -0.259906,9.775 -0.259906,-97.75 z m 457.000003,0 c 0,-107.525 0.11695,-151.5125 0.2599,-97.75 0.14295,53.7625 0.14295,141.7375 0,195.5 -0.14295,53.7625 -0.2599,9.775 -0.2599,-97.75 z M 212,366.5 c 21.16964,-21.175 38.71526,-38.5 38.99026,-38.5 0.275,0 -16.82062,17.325 -37.99026,38.5 -21.16964,21.175 -38.71526,38.5 -38.99026,38.5 -0.275,0 16.82062,-17.325 37.99026,-38.5 z m 42,26.12244 c 0,-0.20765 0.7875,-0.99515 1.75,-1.75 1.58606,-1.24387 1.62143,-1.2085 0.37756,0.37756 C 254.82119,392.91575 254,393.44548 254,392.62244 Z M 203.99588,258.25 158.5,212.5 204.25,257.99588 C 246.77384,300.28351 250.44926,304 249.74588,304 c -0.13977,0 -20.72727,-20.5875 -45.75,-45.75 z M 88.821393,154.25048 c 16.126767,-0.1545 42.226767,-0.15439 57.999997,2.5e-4 15.77324,0.15465 2.57861,0.28106 -29.32139,0.28092 -31.9,-1.4e-4 -44.805373,-0.12666 -28.678607,-0.28117 z m 0,-10 c 16.126767,-0.1545 42.226767,-0.15439 57.999997,2.5e-4 15.77324,0.15465 2.57861,0.28106 -29.32139,0.28092 -31.9,-1.4e-4 -44.805373,-0.12666 -28.678607,-0.28117 z"
         id="path1821" />
      <path
         style="fill:#a7aaad"
         d="m 156.75,474.25006 c 54.5875,-0.14287 143.9125,-0.14287 198.5,0 54.5875,0.14286 9.925,0.25976 -99.25,0.25976 -109.175,0 -153.8375,-0.1169 -99.25,-0.25976 z M 37.488586,284.5 c -1.8e-5,-93.5 0.117577,-131.89807 0.261322,-85.32904 0.143745,46.56902 0.14376,123.06902 3.3e-5,170 C 37.606214,416.10193 37.488604,378 37.488586,284.5 Z m 437.000004,0 c -2e-5,-93.5 0.11757,-131.89807 0.26132,-85.32904 0.14374,46.56902 0.14376,123.06902 3e-5,170 C 474.60621,416.10193 474.4886,378 474.48859,284.5 Z M 376,419.62244 c 0,-0.20765 0.7875,-0.99515 1.75,-1.75 1.58606,-1.24387 1.62143,-1.2085 0.37756,0.37756 C 376.82119,419.91575 376,420.44548 376,419.62244 Z M 166,412.5 c 2.98742,-3.025 5.65668,-5.5 5.93168,-5.5 0.275,0 -1.94426,2.475 -4.93168,5.5 -2.98742,3.025 -5.65668,5.5 -5.93168,5.5 -0.275,0 1.94426,-2.475 4.93168,-5.5 z M 377.40499,391.75 375.5,389.5 l 2.25,1.90499 c 1.2375,1.04774 2.25,2.06024 2.25,2.25 0,0.80025 -0.80479,0.20945 -2.59501,-1.90499 z M 149.5,376 c 9.33787,-9.35 17.20294,-17 17.47794,-17 0.275,0 -7.14007,7.65 -16.47794,17 -9.33787,9.35 -17.20294,17 -17.47794,17 -0.275,0 7.14007,-7.65 16.47794,-17 z M 128.15789,228 c 0,-1.375 0.22698,-1.9375 0.50439,-1.25 0.27741,0.6875 0.27741,1.8125 0,2.5 -0.27741,0.6875 -0.50439,0.125 -0.50439,-1.25 z M 133.5,215 c 0.99549,-1.1 2.03498,-2 2.30998,-2 0.275,0 -0.31449,0.9 -1.30998,2 -0.99549,1.1 -2.03498,2 -2.30998,2 -0.275,0 0.31449,-0.9 1.30998,-2 z m 44.57895,-65.58333 c 0.048,-1.16495 0.28494,-1.4019 0.60416,-0.60417 0.28887,0.72187 0.25335,1.58437 -0.0789,1.91667 -0.3323,0.33229 -0.56864,-0.25834 -0.52522,-1.3125 z M 160.10039,74.295478 c 0.72815,-1.212486 1.53915,-1.989272 1.80223,-1.72619 0.26308,0.263082 -0.33267,1.255117 -1.3239,2.204522 -1.72194,1.649287 -1.74325,1.627977 -0.47833,-0.478332 z m 119.87955,0.180356 c -0.69572,-0.838291 -1.07128,-1.717826 -0.83459,-1.954522 0.2367,-0.236695 0.97964,0.44918 1.65098,1.524166 1.45181,2.324723 0.96763,2.57996 -0.81639,0.430356 z M 97.157895,71 c 0,-1.375 0.226973,-1.9375 0.504386,-1.25 0.277412,0.6875 0.277412,1.8125 0,2.5 -0.277413,0.6875 -0.504386,0.125 -0.504386,-1.25 z m 23.921055,0.416667 c 0.048,-1.164943 0.28494,-1.4019 0.60416,-0.604167 0.28887,0.721875 0.25335,1.584375 -0.0789,1.916667 -0.3323,0.332291 -0.56864,-0.258334 -0.52522,-1.3125 z M 64.75,66.267795 c 2.3375,-0.210535 6.1625,-0.210535 8.5,0 2.3375,0.210535 0.425,0.382791 -4.25,0.382791 -4.675,0 -6.5875,-0.172256 -4.25,-0.382791 z m 40.53017,-0.0041 c 2.6291,-0.206676 6.6791,-0.204183 9,0.0055 2.32091,0.209724 0.16983,0.378823 -4.78017,0.375776 -4.95,-0.003 -6.84892,-0.17464 -4.21983,-0.381317 z m 40,0 c 2.6291,-0.206676 6.6791,-0.204183 9,0.0055 2.32091,0.209724 0.16983,0.378823 -4.78017,0.375776 -4.95,-0.003 -6.84892,-0.17464 -4.21983,-0.381317 z m 179.54472,-0.01349 c 23.27869,-0.149632 61.07869,-0.149575 84,1.26e-4 22.92131,0.149701 3.87511,0.272128 -42.32489,0.272059 -46.2,-7e-5 -64.9538,-0.122552 -41.67511,-0.272185 z"
         id="path1819" />
      <path
         style="fill:#f56a80"
         d="M 142.07673,411.41111 C 139.56011,409.29351 139,408.07401 139,404.71231 c 0,-4.07844 0.31389,-4.4244 41,-45.18819 25.86519,-25.91458 41,-41.79622 41,-43.02316 0,-1.2275 -15.12306,-17.08418 -41,-42.98891 -39.52813,-39.57057 -41,-41.1797 -41,-44.82349 0,-5.15737 3.52727,-8.68856 8.67893,-8.68856 3.63623,0 5.37681,1.60374 49.11129,45.25 24.93781,24.8875 45.82766,46.13091 46.4219,47.20758 3.02325,5.47766 3.22461,5.23477 -44.34021,53.48523 -24.89357,25.2524 -46.31965,46.3958 -47.61352,46.98532 -3.64009,1.65854 -5.83962,1.29512 -9.18166,-1.51702 z m 123.28027,1.59731 c -5.75719,-2.32332 -7.00055,-9.51872 -2.43392,-14.08534 L 265.84615,396 h 50.14267 c 36.20369,0 50.74986,0.32339 52.32692,1.16334 3.33588,1.7767 4.61755,3.97996 4.65246,7.99777 0.025,2.88206 -0.6229,4.21199 -3.04493,6.25 L 366.84655,414 317.17327,413.9366 c -27.3203,-0.0349 -50.63762,-0.45255 -51.81627,-0.92819 z"
         id="path1817" />
      <path
         style="fill:#c35466"
         d="m 140.87244,411.25 c -1.24387,-1.58606 -1.2085,-1.62143 0.37756,-0.37756 0.9625,0.75485 1.75,1.54235 1.75,1.75 0,0.82304 -0.82119,0.29331 -2.12756,-1.37244 z M 369,412.62244 c 0,-0.20765 0.7875,-0.99515 1.75,-1.75 1.58606,-1.24387 1.62143,-1.2085 0.37756,0.37756 C 369.82119,412.91575 369,413.44548 369,412.62244 Z M 138.15789,405 c 0,-1.375 0.22698,-1.9375 0.50439,-1.25 0.27741,0.6875 0.27741,1.8125 0,2.5 -0.27741,0.6875 -0.50439,0.125 -0.50439,-1.25 z m 235,0 c 0,-1.375 0.22698,-1.9375 0.50439,-1.25 0.27741,0.6875 0.27741,1.8125 0,2.5 -0.27741,0.6875 -0.50439,0.125 -0.50439,-1.25 z M 212,352.5 c 16.76824,-16.775 30.7127,-30.5 30.9877,-30.5 0.275,0 -13.21946,13.725 -29.9877,30.5 -16.76824,16.775 -30.7127,30.5 -30.9877,30.5 -0.275,0 13.21946,-13.725 29.9877,-30.5 z M 179.49531,273.75 139.5,233.5 179.75,273.49531 C 217.16,310.66859 220.44951,314 219.74531,314 c -0.14008,0 -18.25258,-18.1125 -40.25,-40.25 z M 193,261.5 C 170.73009,239.225 152.73426,221 153.00926,221 c 0.275,0 18.72083,18.225 40.99074,40.5 22.26991,22.275 40.26574,40.5 39.99074,40.5 -0.275,0 -18.72083,-18.225 -40.99074,-40.5 z M 138.15789,229 c 0,-1.375 0.22698,-1.9375 0.50439,-1.25 0.27741,0.6875 0.27741,1.8125 0,2.5 -0.27741,0.6875 -0.50439,0.125 -0.50439,-1.25 z m 9.65461,-9.68311 c 0.72187,-0.28887 1.58437,-0.25335 1.91667,0.0789 0.33229,0.33229 -0.25834,0.56864 -1.3125,0.52522 -1.16495,-0.048 -1.4019,-0.28494 -0.60417,-0.60416 z"
         id="path1815" />
      <path
         style="fill:#616974"
         d="M 43.404988,467.75 41.5,465.5 l 2.25,1.90499 c 1.2375,1.04774 2.25,2.06024 2.25,2.25 0,0.80025 -0.804794,0.20945 -2.595012,-1.90499 z M 467.5,468 c 0.99549,-1.1 2.03498,-2 2.30998,-2 0.275,0 -0.31449,0.9 -1.30998,2 -0.99549,1.1 -2.03498,2 -2.30998,2 -0.275,0 0.31449,-0.9 1.30998,-2 z M 146.8125,423.31689 c 0.72187,-0.28887 1.58437,-0.25335 1.91667,0.0789 0.33229,0.33229 -0.25834,0.56864 -1.3125,0.52522 -1.16495,-0.048 -1.4019,-0.28494 -0.60417,-0.60416 z m 144.9375,-0.0661 c 13.8875,-0.15682 36.6125,-0.15682 50.5,0 13.8875,0.15682 2.525,0.28513 -25.25,0.28513 -27.775,0 -39.1375,-0.12831 -25.25,-0.28513 z M 255.40499,417.75 253.5,415.5 l 2.25,1.90499 c 2.11444,1.79022 2.70524,2.59501 1.90499,2.59501 -0.18976,0 -1.20226,-1.0125 -2.25,-2.25 z M 250.232,405 c 0,-1.925 0.2058,-2.7125 0.45733,-1.75 0.25152,0.9625 0.25152,2.5375 0,3.5 -0.25153,0.9625 -0.45733,0.175 -0.45733,-1.75 z m 41.018,-18.74924 c 14.1625,-0.15649 37.3375,-0.15649 51.5,0 14.1625,0.15649 2.575,0.28452 -25.75,0.28452 -28.325,0 -39.9125,-0.12803 -25.75,-0.28452 z M 187.5,338 c 11.54018,-11.55 21.20714,-21 21.48214,-21 0.275,0 -8.94196,9.45 -20.48214,21 -11.54018,11.55 -21.20714,21 -21.48214,21 -0.275,0 8.94196,-9.45 20.48214,-21 z M 170.49507,277.75 132.5,239.5 170.75,277.49507 C 206.30043,312.80856 209.44962,316 208.74507,316 c -0.14022,0 -17.35272,-17.2125 -38.25,-38.25 z M 238,306.5 c -2.42903,-2.475 -4.19142,-4.5 -3.91642,-4.5 0.275,0 2.48739,2.025 4.91642,4.5 2.42903,2.475 4.19142,4.5 3.91642,4.5 -0.275,0 -2.48739,-2.025 -4.91642,-4.5 z m 9.43709,-3.75 -2.93709,-3.25 3.25,2.93709 c 3.02946,2.73778 3.70965,3.56291 2.93709,3.56291 -0.1721,0 -1.6346,-1.4625 -3.25,-3.25 z M 146.8125,209.31689 c 0.72187,-0.28887 1.58437,-0.25335 1.91667,0.0789 0.33229,0.33229 -0.25834,0.56864 -1.3125,0.52522 -1.16495,-0.048 -1.4019,-0.28494 -0.60417,-0.60416 z M 76.25,181.2519 c 8.6625,-0.16648 22.8375,-0.16648 31.5,0 8.6625,0.16648 1.575,0.30269 -15.75,0.30269 -17.325,0 -24.4125,-0.13621 -15.75,-0.30269 z m 66.4777,0.0264 c 1.77523,-0.22091 4.92523,-0.22454 7,-0.008 2.07476,0.21648 0.6223,0.39722 -3.2277,0.40166 -3.85,0.004 -5.54754,-0.17268 -3.7723,-0.39359 z M 57.157895,177 c 0,-1.375 0.226973,-1.9375 0.504386,-1.25 0.277412,0.6875 0.277412,1.8125 0,2.5 -0.277413,0.6875 -0.504386,0.125 -0.504386,-1.25 z m 98.921055,-0.58333 c 0.048,-1.16495 0.28494,-1.4019 0.60416,-0.60417 0.28887,0.72187 0.25335,1.58437 -0.0789,1.91667 -0.3323,0.33229 -0.56864,-0.25834 -0.52522,-1.3125 z M 37.403327,104.60867 C 37.109681,103.84344 37.011304,92.255941 37.184712,78.858671 37.462589,57.390319 37.721195,54.084702 39.364162,51 41.973278,46.101332 45.819527,42.184021 50.5,39.658417 L 54.5,37.5 H 255 c 218.95267,0 204.63197,-0.396028 211.75256,5.855859 7.04341,6.184111 7.67616,9.063753 8.07148,36.732978 l 0.35131,24.588833 -18.83768,0.65834 c -10.36072,0.36209 -108.73929,0.65961 -218.61905,0.66116 -169.727667,0.002 -199.861706,-0.20647 -200.315293,-1.3885 z M 79.8,74.8 C 81.231578,73.368422 81.338457,70.083932 80.021277,68 78.562976,65.692799 62.797594,65.247377 59.4822,67.419706 56.820449,69.163752 56.190384,72.790384 58.2,74.8 c 1.634474,1.634474 19.965526,1.634474 21.6,0 z m 40.62857,-0.371429 C 122.53533,72.321818 122.40772,70.407719 120,68 118.32216,66.322159 116.66667,66 109.72251,66 98.568691,66 95.026734,68.444401 98.035184,74.065741 98.951551,75.77799 100.20591,76 108.96376,76 c 7.66065,0 10.24802,-0.354639 11.46481,-1.571429 z M 160.8,74.8 c 1.9093,-1.909301 1.3954,-5.549731 -1.02251,-7.243296 -2.87599,-2.014423 -17.54229,-2.180391 -20.21136,-0.228718 -2.13658,1.562304 -2.41793,6.518277 -0.44113,7.77043 2.14314,1.357514 20.26862,1.107967 21.675,-0.298416 z m 292.65582,-2.154668 c 0.86398,-2.45683 0.67768,-3.11881 -1.33675,-4.75 C 449.86345,66.068845 446.75753,66 366.61172,66 c -73.6539,0 -83.42092,0.17806 -85.38921,1.556704 -2.42071,1.695528 -2.93124,5.334565 -1.01697,7.24884 0.92596,0.925958 21.03917,1.146279 86.72598,0.95 L 452.45194,75.5 Z M 36,38.622445 c 0,-0.207656 0.7875,-0.995156 1.75,-1.75 C 39.336056,35.628574 39.371426,35.663944 38.127555,37.25 36.821186,38.915748 36,39.445479 36,38.622445 Z M 473.87244,37.25 C 472.62857,35.663944 472.66394,35.628574 474.25,36.872445 475.91575,38.178814 476.44548,39 475.62244,39 c -0.20765,0 -0.99515,-0.7875 -1.75,-1.75 z"
         id="path1813" />
      <path
         style="fill:#020202"
         d="M 50.352969,481.93917 C 42.469586,479.44029 35.122171,472.98603 31.300084,465.20236 L 28.5,459.5 V 256 52.5 l 2.771936,-5.64286 C 34.50721,40.271057 41.103245,33.815945 47.780302,30.701474 L 52.5,28.5 H 256 459.5 l 5.70236,2.800084 c 7.98518,3.921038 14.23778,11.147474 16.78732,19.401926 C 483.97487,57.129311 484,59.695576 484,256 v 198.78933 l -2.09389,6.77922 c -1.7348,5.61662 -3.07694,7.76228 -7.82611,12.51145 -4.74917,4.74917 -6.89483,6.09131 -12.51145,7.82611 L 454.78933,484 255.64466,483.94383 C 61.106943,483.88896 56.357797,483.84259 50.352969,481.93917 Z M 463.5521,471.47356 c 3.03382,-1.8757 6.04576,-4.88763 7.92146,-7.92141 L 474.5,458.65716 474.76122,286.82858 475.02244,115 H 256 36.977565 L 37.238782,286.75 37.5,458.5 l 2.753858,4.68465 c 3.003463,5.10926 7.016639,8.4265 12.631213,10.44079 2.923769,1.04894 42.060365,1.25652 204.693469,1.08573 L 458.65708,474.5 Z m -324.80455,-50.5429 c -7.18976,-3.79554 -10.92307,-12.76482 -8.74982,-21.02143 1.03598,-3.93589 5.33885,-8.5978 40.08142,-43.42599 C 191.48562,335.02402 209,317.0218 209,316.4783 209,315.93481 191.85394,298.39235 170.89764,277.49507 145.75596,252.42418 132.15726,238.13938 130.9196,235.5 c -3.62137,-7.72279 -1.3305,-16.79659 5.56932,-22.05935 5.02229,-3.83069 13.42273,-4.55301 19.08963,-1.64146 2.33351,1.19892 22.60719,20.79656 50.06615,48.39666 38.74483,38.94397 46.32105,47.0171 47.24442,50.34301 1.50164,5.40882 1.3892,8.85478 -0.43214,13.24326 -1.91673,4.61831 -91.14099,94.41687 -96.66714,97.28935 -4.81186,2.50119 -12.15253,2.44053 -17.04229,-0.14081 z M 197.7585,367.75 c 25.46976,-25.4375 46.56733,-47.2625 46.88349,-48.5 0.31615,-1.2375 0.27297,-3.4875 -0.096,-5 -0.75265,-3.08563 -88.04215,-91.32788 -92.86902,-93.88268 -3.82801,-2.02611 -8.01112,-0.9474 -11.24923,2.90088 -5.38729,6.40242 -5.85663,5.79292 39.04472,50.7043 31.57418,31.58122 40.5275,41.08431 40.5275,43.01604 0,1.93177 -9.08869,11.57794 -41.14354,43.66721 l -41.14355,41.18772 0.60979,3.82827 c 0.79732,5.00564 4.57065,8.32826 9.45799,8.32826 3.50514,0 5.73919,-2.06741 49.97781,-46.25 z M 262,421.87927 c -3.19445,-1.27005 -7.77536,-5.60749 -9.58928,-9.07961 -3.93232,-7.52706 -0.23266,-19.28333 7.42234,-23.58568 l 4.02918,-2.26453 53.89749,0.27528 53.89749,0.27527 3.67244,2.80169 c 5.02463,3.83327 7.06094,8.07553 7.10244,14.79652 0.0428,6.92494 -3.46657,12.8584 -9.39338,15.88204 -3.82757,1.95268 -5.69554,2.01764 -56.24888,1.95636 -32.14736,-0.039 -53.25286,-0.44626 -54.78984,-1.05734 z m 109.07692,-10.80235 c 3.72649,-3.72648 3.84084,-7.83277 0.33419,-12.00019 L 368.82221,396 h -51.95656 -51.95656 l -2.45454,2.45455 C 260.64848,400.26061 260,401.9899 260,405 c 0,3.0101 0.64848,4.73939 2.45455,6.54545 L 264.90909,414 h 51.62238 51.62238 z M 58.666667,180.33333 C 58.3,179.96667 58,178.38053 58,176.80858 c 0,-2.17763 0.636221,-3.09997 2.672321,-3.8741 1.660986,-0.6315 14.136772,-0.90597 32.96566,-0.72525 27.027829,0.25943 30.477849,0.47543 32.005029,2.00383 1.41488,1.41602 1.51125,2.15296 0.55577,4.25 L 125.04288,181 H 92.188105 c -18.070124,0 -33.154772,-0.3 -33.521438,-0.66667 z m 78.447003,-1.54414 c -1.12508,-3.02692 -0.36853,-4.74179 2.58781,-5.86579 3.20189,-1.21736 10.50084,-1.17718 13.79683,0.076 2.20586,0.83866 2.57811,1.52203 2.3151,4.25 L 155.5,180.5 l -8.76773,0.28919 c -8.34767,0.27534 -8.80849,0.17952 -9.6186,-2 z M 58.571429,152.42857 C 57.707143,151.56429 57,150.24643 57,149.5 c 0,-0.74643 0.707143,-2.06429 1.571429,-2.92857 C 59.963705,145.17915 66.724242,145 117.87143,145 178.68451,145 178,144.94877 178,149.5 c 0,4.55123 0.68451,4.5 -60.12857,4.5 -51.147188,0 -57.907725,-0.17915 -59.300001,-1.57143 z m 397.766241,-47.09256 18.83768,-0.65834 -0.35131,-24.588833 C 474.42872,52.419612 473.79597,49.53997 466.75256,43.355859 459.63197,37.103972 473.95267,37.5 255,37.5 H 54.5 l -4,2.158417 C 45.819527,42.184021 41.973278,46.101332 39.364162,51 c -1.642967,3.084702 -1.901573,6.390319 -2.17945,27.858671 -0.173408,13.39727 -0.07503,24.984769 0.218615,25.749999 0.453587,1.18203 30.587626,1.3909 200.315293,1.3885 109.87976,-0.002 208.25833,-0.29907 218.61905,-0.66116 z"
         id="path1811" />
    </g>
  </g>
</svg>
