<?xml version="1.0" encoding="UTF-8" standalone="no"?>
<!-- Created with Inkscape (http://www.inkscape.org/) -->

<svg
   version="1.1"
   id="svg2012"
   width="682.66669"
   height="682.66669"
   viewBox="0 0 682.66669 682.66669"
   xmlns="http://www.w3.org/2000/svg"
   xmlns:svg="http://www.w3.org/2000/svg">
  <defs
     id="defs2016" />
  <g
     id="g2018">
    <g
       id="g2022">
      <path
         style="fill:#93d8e6;stroke-width:1.33333"
         d="m 31.139941,611.33335 c -0.004,-6.6 0.221403,-9.4681 0.501035,-6.37356 0.279632,3.09454 0.282956,8.49454 0.0073,12 -0.275515,3.50546 -0.504304,0.97356 -0.508368,-5.62644 z m 506.824319,-49 -9.29758,-9.66666 9.66667,9.29757 c 8.9784,8.63559 10.27559,10.03576 9.29758,10.03576 -0.203,0 -4.553,-4.35 -9.66667,-9.66667 z m 30.03576,-11 c 8.40941,-8.43333 15.58984,-15.33333 15.95651,-15.33333 0.36666,0 -6.21376,6.9 -14.62318,15.33333 -8.40941,8.43334 -15.58984,15.33334 -15.9565,15.33334 -0.36667,0 6.21376,-6.9 14.62317,-15.33334 z m -13.58333,-37.57748 c 0.96249,-0.38516 2.1125,-0.3378 2.55556,0.1052 0.44305,0.44305 -0.34446,0.75819 -1.75,0.70029 -1.55327,-0.064 -1.8692,-0.37992 -0.80556,-0.80554 z m 6.66666,0 c 0.9625,-0.38516 2.11251,-0.3378 2.55556,0.1052 0.44306,0.44305 -0.34445,0.75819 -1.75,0.70029 -1.55326,-0.064 -1.8692,-0.37992 -0.80556,-0.80554 z m 60.58334,-180.06925 c 3.48333,-0.27466 9.18333,-0.27466 12.66667,0 3.48333,0.27467 0.63333,0.49939 -6.33334,0.49939 -6.96667,0 -9.81667,-0.22472 -6.33333,-0.49939 z M 293.33334,286.66668 v -14.66667 h 111.33334 111.33334 v 14.66667 14.66666 H 404.66668 293.33334 Z m 0,-178.66668 V 93.333337 H 404.66668 516.00002 V 108 122.66667 H 404.66668 293.33334 Z"
         id="path2036" />
      <path
         style="fill:#fdde44;stroke-width:1.33333"
         d="m 293.33334,480.6186 v -96.71475 l 10.85836,8.83824 c 11.1261,9.05616 13.93983,9.94624 21.27284,6.72935 1.44154,-0.63239 4.55939,1.04304 9.6347,5.17736 7.36704,6.00115 7.48985,6.21448 6.75416,11.73175 -0.60244,4.51781 -0.20703,6.1935 2.01697,8.54761 6.54831,6.93141 108.74797,90.61911 113.20985,92.70356 5.9328,2.7716 16.09333,3.03236 21.96262,0.56363 2.35978,-0.99256 27.99051,-21.40468 56.95718,-45.36027 l 52.66667,-43.55561 0.35625,34.22625 c 0.19593,18.82443 0.10933,34.4731 -0.19232,34.77482 -0.30172,0.3017 -4.86604,-0.76283 -10.14293,-2.36564 -8.09175,-2.45779 -11.82039,-2.81728 -23.80768,-2.29539 -16.70851,0.72745 -27.76782,4.46176 -41.09454,13.87608 -19.26671,13.61049 -30.04609,33.41812 -31.99676,58.7956 l -0.84876,11.04216 h -93.80331 -93.8033 z"
         id="path2034" />
      <path
         style="fill:#edc606;stroke-width:1.33333"
         d="m 297.33334,591.02817 c -3.02182,-1.15031 -3.95712,-3.1938 -3.97958,-8.69482 l -0.0204,-5 h 94.00001 94 l 0.17483,-3 c 0.0961,-1.65 0.60448,0.3 1.12961,4.33334 0.52513,4.03333 1.38689,8.68333 1.91503,10.33333 l 0.96024,3 -93.08986,-0.10533 c -51.19943,-0.0578 -93.98986,-0.44779 -95.08986,-0.86652 z m 335.19743,-4.02815 c 3.39679,-19.30743 1.62209,-34.75401 -5.82022,-50.65784 -3.03797,-6.49202 -3.69272,-9.17359 -2.69504,-11.03778 4.87963,-9.11766 -4.38533,-19.43482 -13.21109,-14.71144 -1.79271,0.95944 -3.84133,0.2019 -8.5962,-3.17869 -3.43343,-2.44107 -7.88485,-5.11809 -9.89207,-5.94893 l -3.64946,-1.51063 0.37464,-35.82701 0.37462,-35.82701 25.62538,-21.22476 c 14.09394,-11.67361 26.37536,-21.67668 27.29203,-22.22902 1.32753,-0.79992 1.66666,19.63141 1.66666,100.40775 0,99.63425 -0.0468,101.45877 -2.66666,104.07869 -1.46667,1.46667 -4.24518,2.66667 -6.17446,2.66667 -3.32095,0 -3.46093,-0.26633 -2.62813,-5 z m -150.9869,-21.66667 c 0,-1.83333 0.30264,-2.58333 0.67252,-1.66666 0.36988,0.91666 0.36988,2.41666 0,3.33333 -0.36988,0.91667 -0.67252,0.16667 -0.67252,-1.66667 z m 17.12281,-44.50341 c 0,-0.27687 1.05,-1.32687 2.33334,-2.33334 2.11474,-1.65849 2.1619,-1.61133 0.50341,0.50342 -1.74183,2.221 -2.83675,2.9273 -2.83675,1.82992 z m -34.70332,-23.12915 c -1.81317,-1.26457 -26.03491,-21.10856 -53.82607,-44.09772 -27.79116,-22.98918 -51.93678,-42.72067 -53.65694,-43.84776 -3.34403,-2.19108 -8.6117,-1.59614 -11.29434,1.27565 -1.22784,1.3144 -2.43092,0.8092 -5.70433,-2.39541 -2.28159,-2.23363 -6.16406,-5.60703 -8.62771,-7.49646 -3.91359,-3.00141 -4.28843,-3.79208 -2.96772,-6.25984 2.90719,-5.43214 0.29109,-9.05236 -16.69449,-23.10228 -9.10431,-7.53078 -16.34696,-14.31137 -16.09478,-15.06797 0.60079,-1.80248 343.36622,-2.55885 346.19776,-0.76396 1.07876,0.68383 1.67876,1.48753 1.33334,1.78603 -1.77654,1.53514 -142.89132,118.23033 -156.3807,129.31939 -8.66395,7.12225 -16.48044,12.94956 -17.36999,12.94956 -0.88955,0 -3.10087,-1.03466 -4.91403,-2.29923 z"
         id="path2032" />
      <path
         style="fill:#718c96;stroke-width:1.33333"
         d="m 40.772425,628.71414 c -1.260052,-3.01573 -3.117642,-4.91728 -5.351226,-5.47788 -3.332697,-0.83645 -3.421198,-1.14811 -3.421198,-12.04745 0,-8.40283 0.44012,-11.18879 1.767581,-11.18879 0.97217,0 3.22217,-1.54831 5.000001,-3.44069 l 3.232418,-3.44068 0.342403,-286.55933 0.342403,-286.559319 H 288.67574 534.66668 v 6 6 l -221,0.0075 C 156.53814,32.012801 91.133964,32.440417 87.363398,33.48721 80.379005,35.426233 72.658668,43.26898 70.747484,50.366574 69.69419,54.27821 69.353614,76.066312 69.61935,122.53827 l 0.380652,66.56847 4.000001,5.64201 c 7.062134,9.96118 9.441617,10.58459 40.400187,10.58459 16.55836,0 28.137,-0.55045 29.75129,-1.4144 1.45356,-0.77792 3.19927,-2.87792 3.87935,-4.66667 1.16938,-3.0757 1.81918,-3.25226 11.96918,-3.25226 10.15,0 10.7998,0.17656 11.96917,3.25226 0.68008,1.78875 2.42579,3.88875 3.87935,4.66667 1.82504,0.97673 57.75024,1.4144 180.7305,1.4144 177.19876,0 178.08765,0.0133 178.08765,2.66667 0,2.6559 -0.89137,2.66669 -221,2.6741 -157.12854,0.005 -222.532716,0.43295 -226.303282,1.47974 -6.984393,1.93902 -14.70473,9.78177 -16.615914,16.87937 -1.053068,3.91079 -1.393812,25.64324 -1.128134,71.95166 0.424943,74.06848 0.04492,71.0634 9.941481,78.61288 l 4.896964,3.73559 93.771105,0.35962 c 92.44988,0.35456 93.77111,0.39683 93.77111,3 0,2.60536 -1.18904,2.64047 -89.66667,2.64782 -61.30774,0.005 -91.34394,0.47308 -94.969942,1.47973 -6.984393,1.93903 -14.70473,9.78177 -16.615914,16.87937 -1.053068,3.91079 -1.393812,25.64324 -1.128134,71.95166 0.424943,74.06848 0.04492,71.0634 9.941481,78.61288 l 4.896964,3.73559 93.628035,0.35951 93.62803,0.3595 0.47878,15.08222 c 0.44484,14.01297 0.7622,15.53984 4.47641,21.53698 2.6248,4.23811 6.01564,7.52054 9.874,9.55827 l 5.87639,3.10352 h 100.41487 100.41488 l 10.51019,10.66667 10.51017,10.66666 H 278.48601 42.702455 Z m 488.531485,-45.71412 -11.30389,-11.66667 11.66666,11.3039 c 6.41667,6.21714 11.66667,11.46714 11.66667,11.66666 0,0.97015 -1.53072,-0.46824 -12.02944,-11.30389 z m 84.23996,-13.66667 c 0,-1.83333 0.30264,-2.58333 0.67252,-1.66666 0.36988,0.91666 0.36988,2.41666 0,3.33333 -0.36988,0.91667 -0.67252,0.16667 -0.67252,-1.66667 z M 348.33335,301.66708 c 30.61666,-0.19964 80.71666,-0.19964 111.33333,0 30.61667,0.19965 5.56667,0.363 -55.66667,0.363 -61.23333,0 -86.28333,-0.16335 -55.66666,-0.363 z m 0,-178.66667 c 30.61666,-0.19965 80.71666,-0.19965 111.33333,0 30.61667,0.19964 5.56667,0.36299 -55.66667,0.36299 -61.23333,0 -86.28333,-0.16335 -55.66666,-0.36299 z"
         id="path2030" />
      <path
         style="fill:#5f7781;stroke-width:1.33333"
         d="M 42.142653,657.89097 C 41.697528,656.731 41.333335,650.581 41.333335,644.2243 v -11.55761 l 237.521205,0.32598 c 134.29198,0.18431 238.1639,0.83624 239.00001,1.50003 5.55936,4.41364 20.00495,9.34848 31.45323,10.74492 13.95061,1.70168 27.01925,-0.48821 43.02557,-7.20973 2.11739,-0.88916 2.33334,0.0823 2.33334,10.49615 v 11.47598 H 318.80933 c -250.315844,0 -275.932293,-0.19528 -276.666677,-2.10905 z M 279.82993,604.33335 c -1.65849,-2.11474 -1.61133,-2.1619 0.50341,-0.50341 2.221,1.74183 2.92731,2.83675 1.82992,2.83675 -0.27686,0 -1.32686,-1.05 -2.33333,-2.33334 z m 274.83676,-10.01282 c 0,-0.19039 11.85,-12.04039 26.33333,-26.33334 l 26.33333,-25.98717 -25.98717,26.33333 c -24.14544,24.46707 -26.67949,26.93536 -26.67949,25.98718 z M 41.987837,306.00001 c 1.6e-5,-156.93334 0.155467,-220.935398 0.345448,-142.22679 0.18998,78.70859 0.189968,207.10859 -2.8e-5,285.33334 -0.189996,78.22474 -0.345434,13.82679 -0.34542,-143.10655 z M 272.10528,587.22225 c 0.064,-1.55327 0.37992,-1.8692 0.80554,-0.80556 0.38516,0.96249 0.3378,2.1125 -0.1052,2.55556 -0.44306,0.44305 -0.75818,-0.34446 -0.70029,-1.75 z M 69.951673,476.66668 c 2.41e-4,-36.66666 0.171605,-51.47488 0.380808,-32.90713 0.209203,18.56775 0.209005,48.56775 -4.39e-4,66.66667 -0.209444,18.09892 -0.380609,2.90713 -0.380369,-33.75954 z m 21.034879,-4.33333 0.346784,-61 90.333334,-0.34266 90.33334,-0.34265 v 61.34266 61.34265 l -29.66667,-0.0533 c -27.83091,-0.0501 -29.41915,-0.18346 -25.66667,-2.15548 11.52091,-6.05454 17.94144,-16.47703 17.94144,-29.12447 0,-10.07732 -3.1028,-17.08409 -10.53142,-23.7822 -5.63166,-5.07784 -5.65246,-5.13025 -2.82184,-7.11289 8.81065,-6.17122 13.34088,-15.09136 13.38254,-26.35062 0.102,-27.57304 -33.25017,-42.03537 -53.08756,-23.02005 -13.89989,13.32388 -13.917,32.92104 -0.0405,46.43713 3.66767,3.57242 6.09968,6.4953 5.40448,6.4953 -0.6952,0 -3.18813,1.95 -5.53987,4.33333 -15.32016,15.52601 -12.80556,38.99209 5.35796,50 l 7.1502,4.33333 -24.60769,-0.0589 -24.60768,-0.0589 4.69204,-2.4816 c 11.06404,-5.85178 17.5746,-16.26707 17.5746,-28.11512 0,-9.764 -3.55067,-17.82436 -10.68108,-24.24708 l -5.50831,-4.96163 4.41299,-3.36593 c 14.916,-11.377 15.67755,-36.09266 1.49576,-48.5443 -6.87513,-6.03637 -12.43607,-8.16653 -21.31936,-8.16653 -8.88329,0 -14.44422,2.13016 -21.31937,8.16653 -10.83734,9.51521 -13.57597,25.59468 -6.556,38.4927 2.05663,3.77869 5.56994,8.1319 7.80735,9.67378 2.23741,1.54188 4.27137,2.95108 4.51992,3.13155 0.24855,0.18048 -2.09758,2.62479 -5.21361,5.43179 -17.069837,15.37696 -13.69264,41.6994 6.73633,52.5042 l 4.69204,2.4816 -17.68011,0.0589 -17.68012,0.0589 z m 44.680118,-82.66608 c 25.11667,-0.20291 66.21667,-0.20291 91.33334,0 25.11667,0.2029 4.56666,0.36893 -45.66667,0.36893 -50.23334,0 -70.78334,-0.16603 -45.66667,-0.36893 z M 69.951673,298.00001 c 2.41e-4,-36.66667 0.171605,-51.47488 0.380808,-32.90713 0.209203,18.56774 0.209005,48.56774 -4.39e-4,66.66666 -0.209444,18.09893 -0.380609,2.90714 -0.380369,-33.75953 z m 21.034879,-4.33333 0.346784,-61.00001 203.666674,-0.33758 203.66667,-0.3376 v 10.00426 10.00426 H 392.86385 287.06104 l -4.40792,3 c -9.46706,6.44323 -9.98644,8.118 -9.98644,32.20156 v 21.67268 l 3.84242,5.03769 c 6.98727,9.16078 1.54003,8.75474 117.44809,8.75474 h 104.70949 v 5.33333 5.33333 H 398.59044 c -67.71307,0 -101.93986,0.46927 -105.83908,1.4511 -7.40442,1.86445 -14.61976,7.84357 -17.59032,14.57649 l -2.3409,5.30575 -30.7434,-10e-4 -30.7434,-0.001 5.63876,-2.79114 c 6.42707,-3.18135 13.17211,-10.29732 15.86137,-16.73362 2.59071,-6.20044 2.26456,-18.73073 -0.65434,-25.1398 -1.33595,-2.93333 -4.9245,-7.58333 -7.97456,-10.33333 l -5.54558,-5 5.54558,-5 c 7.30416,-6.58558 10.40354,-13.63626 10.40354,-23.66667 0,-18.40765 -13.4118,-31.6 -32.12564,-31.6 -14.36644,0 -26.62664,9.94723 -30.6427,24.86173 -2.86384,10.6355 3.85438,27.93632 12.68293,32.66122 4.387,2.34785 4.35323,2.98468 -0.30412,5.73584 -4.94625,2.92182 -10.29565,10.87866 -12.20769,18.15804 -3.57807,13.62224 4.15336,29.36992 17.98912,36.64097 3.76984,1.98115 2.54233,2.10348 -21.33334,2.1262 l -25.33333,0.0241 5.33333,-2.47458 c 16.43776,-7.62681 23.18168,-28.25221 14.47078,-44.257 -2.01744,-3.70671 -5.49868,-8.001 -7.73608,-9.54288 -2.23742,-1.54188 -4.27139,-2.95108 -4.51994,-3.13155 -0.24854,-0.18048 2.09759,-2.62478 5.21362,-5.43178 13.62982,-12.27811 14.59222,-32.49748 2.17072,-45.605 -19.64286,-20.72767 -54.67952,-6.6343 -54.51475,21.92837 0.058,10.05864 3.11408,16.69943 10.93767,23.76757 3.05165,2.75699 5.3451,5.16036 5.09655,5.34084 -0.24855,0.18047 -2.28251,1.58967 -4.51992,3.13155 -2.23741,1.54188 -5.75072,5.89509 -7.80735,9.67379 -8.720441,16.02233 -1.98593,36.45743 14.54203,44.12609 l 5.33334,2.47458 -18.34679,0.0293 -18.34678,0.0293 0.346782,-61 z M 567.73793,281.00001 c -0.35327,-45.69608 -0.68444,-52.84064 -2.61123,-56.33334 -2.48777,-4.5096 -6.98867,-8.90778 -11.49428,-11.23196 -2.28243,-1.17737 -59.93328,-1.6268 -232.66668,-1.81378 L 91.333336,211.37235 313.00001,211.01561 c 220.55021,-0.35496 221.66667,-0.37016 221.66667,-3.01951 0,-2.34101 0.89251,-2.66276 7.38646,-2.66276 13.05085,0 21.51831,-6.45732 24.60124,-18.76103 1.0126,-4.04118 1.35336,-26.53186 1.07937,-71.23897 -0.35984,-58.714594 -0.63193,-65.756246 -2.68584,-69.50785 -4.7494,-8.675075 -14.16546,-13.801373 -25.38122,-13.818053 l -5.00001,-0.0074 v -6 -6 L 289.00001,19.670711 43.333335,19.341421 260.00001,18.922405 c 119.16667,-0.230459 243.21667,-0.01147 275.66667,0.486662 l 59.00001,0.90568 V 176.82405 333.33334 h -13.2621 -13.2621 z m -51.74538,6.60548 0.6592,-14.93881 0.38984,13.88428 c 0.21443,7.63636 -0.0823,14.35882 -0.65919,14.93881 -0.57698,0.57999 -0.75241,-5.66793 -0.38985,-13.88428 z m -223.49378,-0.27215 c 0.003,-8.06666 0.22261,-11.19476 0.48801,-6.95132 0.2654,4.24344 0.26294,10.84344 -0.005,14.66667 -0.26841,3.82323 -0.48556,0.35132 -0.48255,-7.71535 z M 148.87269,195.66667 c 0.33992,-0.55 5.34721,-1 11.12732,-1 5.7801,0 10.7874,0.45 11.12732,1 0.33992,0.55 -4.66738,1 -11.12732,1 -6.45995,0 -11.46724,-0.45 -11.12732,-1 z M 69.951673,119.33334 c 2.41e-4,-36.666671 0.171605,-51.47488 0.380808,-32.907136 0.209203,18.567746 0.209005,48.567746 -4.39e-4,66.666666 -0.209444,18.09892 -0.380609,2.90714 -0.380369,-33.75953 z M 90.986552,115 91.333336,54.000002 295.00001,53.66241 498.66668,53.324816 V 63.329077 73.333336 H 392.86385 287.06104 l -4.40792,3 c -9.46706,6.443221 -9.98644,8.117998 -9.98644,32.201564 0,21.47854 0.0321,21.71486 3.5914,26.38126 7.30164,9.57292 0.96221,9.08384 117.74277,9.08384 h 104.93117 l -0.466,11.86195 c -0.52922,13.47119 -2.21378,16.53456 -10.33255,18.7898 -3.05516,0.84867 -54.23939,1.33571 -140.80012,1.33976 l -136.00001,0.007 5.63876,-2.79115 c 6.42707,-3.18134 13.17211,-10.29732 15.86137,-16.73361 2.59071,-6.20044 2.26456,-18.73074 -0.65434,-25.1398 -1.33595,-2.93334 -4.9245,-7.58334 -7.97456,-10.33334 l -5.54558,-5 5.54558,-5 c 7.30416,-6.58557 10.40354,-13.63625 10.40354,-23.666664 0,-18.391623 -13.59714,-31.773857 -32.1692,-31.660738 -14.33932,0.08733 -26.60092,10.074202 -30.59914,24.922469 -2.85898,10.617447 3.8529,27.935523 12.6519,32.644613 l 3.44627,1.84439 -6.61352,6.51003 c -16.40187,16.1452 -12.23635,41.20729 8.67559,52.19704 3.76984,1.98115 2.54233,2.10348 -21.33334,2.1262 l -25.33333,0.0241 5.33333,-2.47457 c 16.43776,-7.62681 23.18168,-28.25222 14.47078,-44.257 -2.01744,-3.7067 -5.49868,-8.001 -7.73608,-9.54288 -2.23742,-1.54188 -4.27139,-2.95108 -4.51994,-3.13155 -0.24854,-0.18048 2.09759,-2.62478 5.21362,-5.43179 22.101,-19.90916 8.17761,-55.732574 -21.55403,-55.45625 -17.22908,0.160127 -30.89106,14.261215 -30.79,31.77962 0.058,10.058647 3.11408,16.69944 10.93767,23.76758 3.05165,2.75699 5.3451,5.16036 5.09655,5.34084 -0.24855,0.18047 -2.28251,1.58967 -4.51992,3.13155 -2.23741,1.54188 -5.75072,5.89509 -7.80735,9.67379 -8.901976,16.35587 -1.54955,37.22569 15.77174,44.76798 3.69371,1.60838 2.27092,1.79208 -14.24316,1.83906 l -18.34678,0.0519 z m 425.005998,-6.06119 0.6592,-14.938807 0.38984,13.884287 c 0.21443,7.63636 -0.0823,14.35882 -0.65919,14.93881 -0.57698,0.57999 -0.75241,-5.66794 -0.38985,-13.88429 z m -223.49378,-0.27214 c 0.003,-8.06667 0.22261,-11.194759 0.48801,-6.95132 0.2654,4.24345 0.26294,10.84345 -0.005,14.66667 -0.26855,3.82323 -0.48569,0.35132 -0.48268,-7.71535 z"
         id="path2028" />
      <path
         style="fill:#4b5c5e;stroke-width:1.33333"
         d="m 41.947128,659.91448 c -0.484452,-0.78387 -0.52074,-1.78528 -0.08064,-2.22539 0.440099,-0.44009 0.80018,-0.10017 0.80018,0.75537 0,1.18019 66.625702,1.55556 276.094632,1.55556 h 276.09464 l -0.42796,-12.00306 c -0.23537,-6.60168 0.0445,-12.00168 0.62208,-12 0.57752,0.001 0.87752,5.55306 0.66667,12.3364 l -0.38338,12.33333 -276.2527,0.33649 c -194.94166,0.23744 -276.511959,-0.083 -277.133522,-1.0887 z m 515.136222,-14.1586 c 0.9625,-0.38516 2.11251,-0.3378 2.55556,0.1052 0.44306,0.44305 -0.34445,0.75818 -1.75,0.70029 -1.55326,-0.064 -1.8692,-0.37992 -0.80556,-0.80555 z m -12,-1.33334 c 0.9625,-0.38516 2.11251,-0.3378 2.55556,0.1052 0.44306,0.44306 -0.34445,0.75819 -1.75,0.7003 -1.55326,-0.064 -1.8692,-0.37992 -0.80556,-0.80555 z m 24,0 c 0.9625,-0.38516 2.11251,-0.3378 2.55556,0.1052 0.44306,0.44306 -0.34445,0.75819 -1.75,0.7003 -1.55326,-0.064 -1.8692,-0.37992 -0.80556,-0.80555 z m -65.81273,-22.08919 -5.2706,-5.66666 5.66666,5.2706 c 5.26995,4.9016 6.27938,6.06273 5.2706,6.06273 -0.21784,0 -2.76784,-2.55 -5.66666,-5.66667 z m 123.09797,-11.31133 c 3.13606,-0.28165 7.93606,-0.27769 10.66667,0.009 2.73062,0.2865 0.16476,0.51695 -5.70191,0.51211 -5.86666,-0.005 -8.10081,-0.23925 -4.96476,-0.52092 z m -109.20532,-2.68867 c -1.65849,-2.11474 -1.61133,-2.1619 0.50341,-0.50341 2.221,1.74183 2.92731,2.83675 1.82992,2.83675 -0.27686,0 -1.32686,-1.05 -2.33333,-2.33334 z m 81.50342,-0.83674 c 0,-0.27687 1.05,-1.32687 2.33333,-2.33334 2.11475,-1.65849 2.16191,-1.61133 0.50341,0.50342 -1.74182,2.221 -2.83674,2.9273 -2.83674,1.82992 z M 30.333334,599.11698 c 0.916667,-0.36988 2.416667,-0.36988 3.333334,0 0.916667,0.36988 0.166666,0.67252 -1.666667,0.67252 -1.833333,0 -2.583333,-0.30264 -1.666667,-0.67252 z m 516.000016,-2.66667 c 0.91667,-0.36988 2.41667,-0.36988 3.33334,0 0.91666,0.36988 0.16666,0.67252 -1.66667,0.67252 -1.83333,0 -2.58333,-0.30264 -1.66667,-0.67252 z M 272.47329,574.00002 c -0.004,-6.6 0.2214,-9.46811 0.50103,-6.37356 0.27962,3.09453 0.28296,8.49453 0.008,12 -0.27556,3.50545 -0.50436,0.97356 -0.50842,-5.62644 z m 361.07058,0.66667 c 0,-1.83334 0.30264,-2.58334 0.67253,-1.66667 0.36988,0.91667 0.36988,2.41667 0,3.33333 -0.36989,0.91667 -0.67253,0.16667 -0.67253,-1.66666 z m -131.90119,-5.33334 c 0,-2.56666 0.2744,-3.61666 0.60978,-2.33333 0.33536,1.28333 0.33536,3.38333 0,4.66667 -0.33538,1.28333 -0.60978,0.23333 -0.60978,-2.33334 z m -20.20406,0.55556 c 0.064,-1.55326 0.37992,-1.8692 0.80554,-0.80556 0.38516,0.9625 0.3378,2.11251 -0.1052,2.55556 -0.44305,0.44306 -0.75818,-0.34445 -0.70029,-1.75 z m 152.10525,-5.88889 c 0,-1.83333 0.30264,-2.58333 0.67253,-1.66667 0.36988,0.91667 0.36988,2.41667 0,3.33334 -0.36989,0.91666 -0.67253,0.16666 -0.67253,-1.66667 z m -150.77192,-7.44444 c 0.064,-1.55327 0.37992,-1.8692 0.80555,-0.80556 0.38516,0.96249 0.3378,2.11251 -0.1052,2.55556 -0.44306,0.44305 -0.75819,-0.34445 -0.7003,-1.75 z M 91.555559,541.77779 c -0.488889,-0.48888 -0.888889,-2.58888 -0.888889,-4.66666 v -3.77778 l 17.66667,-0.0689 c 9.71666,-0.038 50.51067,-0.0343 90.65335,0.008 l 72.98668,0.0771 0.36029,-61.67472 0.36031,-61.67473 0.31968,66.33333 0.31969,66.33333 H 182.8889 c -49.74445,0 -90.844453,-0.4 -91.333341,-0.8889 z m 88.274371,-17.44444 c -1.6585,-2.11475 -1.61134,-2.16191 0.50341,-0.50341 1.28333,1.00646 2.33333,2.05646 2.33333,2.33333 0,1.09739 -1.09492,0.39108 -2.83674,-1.82992 z m 322.83675,-7.50341 c 0,-0.27687 1.05,-1.32687 2.33334,-2.33334 2.11474,-1.65849 2.1619,-1.61133 0.50341,0.50342 -1.74183,2.221 -2.83675,2.9273 -2.83675,1.82992 z M 129.2178,511.62428 C 126.34783,509.42079 124,504.78351 124,501.31844 c 0,-4.05013 7.02406,-10.65176 11.33334,-10.65176 4.30928,0 11.33333,6.60163 11.33333,10.65176 0,6.56103 -5.10051,11.9301 -11.33333,11.9301 -2.2,0 -4.952,-0.73092 -6.11554,-1.62426 z m 66.05494,-1.56366 c -3.22068,-3.22067 -4.2244,-8.69582 -2.44449,-13.3342 1.01145,-2.63582 7.34436,-6.05974 11.2081,-6.05974 4.0323,0 10.63032,7.03438 10.63032,11.33334 0,2.13316 -1.54788,5.08633 -3.89744,7.43589 -4.97284,4.97284 -10.90906,5.21215 -15.49649,0.62471 z m 247.22386,-3.0606 c -1.65849,-2.11475 -1.61133,-2.16191 0.50342,-0.50342 2.221,1.74183 2.9273,2.83675 1.82992,2.83675 -0.27687,0 -1.32687,-1.05 -2.33334,-2.33333 z m -271.52059,-4.33334 c 0,-2.56666 0.2744,-3.61666 0.60977,-2.33333 0.33536,1.28333 0.33536,3.38333 0,4.66667 -0.33537,1.28333 -0.60977,0.23333 -0.60977,-2.33334 z m 263.52059,-2.33333 c -1.65849,-2.11475 -1.61133,-2.16191 0.50341,-0.50341 2.221,1.74182 2.92731,2.83674 1.82992,2.83674 -0.27686,0 -1.32686,-1.05 -2.33333,-2.33333 z m 113.25342,-6.57748 c 0.96249,-0.38516 2.11251,-0.3378 2.55556,0.1052 0.44305,0.44305 -0.34445,0.75819 -1.75,0.70029 -1.55327,-0.064 -1.8692,-0.37992 -0.80556,-0.80554 z m 18.66667,0 c 0.96249,-0.38516 2.1125,-0.3378 2.55556,0.1052 0.44305,0.44305 -0.34446,0.75819 -1.75,0.70029 -1.55327,-0.064 -1.8692,-0.37992 -0.80556,-0.80554 z m -83.75001,-3.5926 c 0,-0.27687 1.05,-1.32687 2.33334,-2.33333 2.11474,-1.6585 2.1619,-1.61134 0.50341,0.50341 -1.74183,2.221 -2.83675,2.92731 -2.83675,1.82992 z m 34.66667,-2.66667 c 0,-0.27686 1.05,-1.32686 2.33333,-2.33333 2.11475,-1.65849 2.16191,-1.61133 0.50342,0.50341 -1.74183,2.221 -2.83675,2.92731 -2.83675,1.82992 z m -289.50342,-4.49658 c -1.6585,-2.11475 -1.61134,-2.16191 0.50341,-0.50342 1.28333,1.00647 2.33333,2.05647 2.33333,2.33334 0,1.09738 -1.09492,0.39108 -2.83674,-1.82992 z m -6.66667,-6.66667 c -1.65849,-2.11475 -1.61133,-2.16191 0.50341,-0.50341 2.221,1.74182 2.92731,2.83674 1.82992,2.83674 -0.27686,0 -1.32686,-1.05 -2.33333,-2.33333 z m -71.82992,-2.17008 c 0,-0.27687 1.05,-1.32687 2.33333,-2.33333 2.11475,-1.6585 2.16191,-1.61134 0.50342,0.50341 -1.74183,2.221 -2.83675,2.92731 -2.83675,1.82992 z m 37.16325,-1.82992 c -1.65849,-2.11475 -1.61133,-2.16191 0.50342,-0.50341 2.221,1.74182 2.9273,2.83674 1.82992,2.83674 -0.27687,0 -1.32687,-1.05 -2.33334,-2.33333 z m -6.5975,-5.33333 -3.23242,-3.66667 3.66667,3.23241 c 3.42705,3.02119 4.27812,4.10092 3.23241,4.10092 -0.23882,0 -1.88882,-1.65 -3.66666,-3.66666 z m 215.93084,1.33333 c -1.65849,-2.11475 -1.61133,-2.16191 0.50342,-0.50341 2.221,1.74182 2.9273,2.83674 1.82992,2.83674 -0.27687,0 -1.32687,-1.05 -2.33334,-2.33333 z m -284,-1.33333 c -1.65849,-2.11475 -1.61133,-2.16191 0.50341,-0.50342 1.28333,1.00647 2.33333,2.05647 2.33333,2.33334 0,1.09738 -1.09491,0.39108 -2.83674,-1.82992 z m 44.17008,1.82992 c 0,-0.27687 1.05,-1.32687 2.33333,-2.33334 2.11475,-1.65849 2.16191,-1.61133 0.50341,0.50342 -1.74182,2.221 -2.83674,2.9273 -2.83674,1.82992 z m 365.33334,-10.66667 c 0,-0.27687 1.05,-1.32687 2.33333,-2.33333 2.11475,-1.6585 2.16191,-1.61134 0.50342,0.50341 -1.74183,2.221 -2.83675,2.92731 -2.83675,1.82992 z m -394.06062,-5.43599 c -4.58743,-4.58742 -4.34813,-10.52365 0.62471,-15.49649 2.34956,-2.34956 5.30274,-3.89744 7.4359,-3.89744 5.03156,0 11.33333,6.64913 11.33333,11.95804 0,9.56948 -12.47664,14.3532 -19.39394,7.43589 z m 68.00001,0 c -4.87388,-4.87386 -4.47499,-11.47858 0.96996,-16.0602 5.14803,-4.33179 10.83068,-3.81383 15.42397,1.40585 3.49022,3.96618 3.76555,7.24577 1.04932,12.49839 -3.34885,6.47596 -12.04805,7.55118 -17.44325,2.15596 z m 360.72728,2.76932 c 0,-0.27686 1.05,-1.32686 2.33333,-2.33333 2.11475,-1.65849 2.16191,-1.61133 0.50342,0.50341 -1.74183,2.221 -2.83675,2.92731 -2.83675,1.82992 z M 170.97601,445.33335 c 0,-2.56667 0.2744,-3.61667 0.60977,-2.33333 0.33536,1.28333 0.33536,3.38333 0,4.66666 -0.33537,1.28334 -0.60977,0.23334 -0.60977,-2.33333 z m -68.20408,-0.77777 c 0.064,-1.55327 0.37992,-1.8692 0.80556,-0.80556 0.38516,0.96249 0.33779,2.1125 -0.10527,2.55556 -0.44305,0.44305 -0.75819,-0.34446 -0.70029,-1.75 z m 254.39134,-8.22223 c -1.6585,-2.11475 -1.61134,-2.16191 0.50341,-0.50342 1.28333,1.00647 2.33333,2.05647 2.33333,2.33334 0,1.09739 -1.09492,0.39108 -2.83674,-1.82992 z M 108,427.4966 c 0,-0.27687 1.05,-1.32687 2.33334,-2.33333 2.11474,-1.6585 2.1619,-1.61134 0.5034,0.50341 -1.74182,2.221 -2.83674,2.92731 -2.83674,1.82992 z m 51.82993,-1.82992 c -1.6585,-2.11475 -1.61134,-2.16191 0.50341,-0.50341 1.28333,1.00646 2.33333,2.05646 2.33333,2.33333 0,1.09739 -1.09492,0.39108 -2.83674,-1.82992 z m 64.75286,-3.33333 -3.91612,-4.33334 4.33334,3.91612 c 4.03928,3.65038 4.9462,4.75055 3.91612,4.75055 -0.22947,0 -2.17947,-1.95 -4.33334,-4.33333 z m 116.96108,-3.66667 c 0,-1.83333 0.30264,-2.58333 0.67252,-1.66667 0.36988,0.91667 0.36988,2.41667 0,3.33334 -0.36988,0.91666 -0.67252,0.16666 -0.67252,-1.66667 z M 127.75,413.75587 c 0.9625,-0.38516 2.1125,-0.3378 2.55556,0.1052 0.44306,0.44305 -0.34444,0.75818 -1.75,0.70029 -1.55326,-0.064 -1.8692,-0.37992 -0.80556,-0.80555 z m 13.33334,0 c 0.96249,-0.38516 2.11249,-0.3378 2.55556,0.1052 0.44305,0.44305 -0.34446,0.75818 -1.75,0.70029 -1.55327,-0.064 -1.8692,-0.37992 -0.80556,-0.80555 z m 54.66667,0 c 0.96249,-0.38516 2.11249,-0.3378 2.55556,0.1052 0.44305,0.44305 -0.34446,0.75818 -1.75,0.70029 -1.55327,-0.064 -1.8692,-0.37992 -0.80556,-0.80555 z m 154.58334,-5.30556 c 0.91666,-0.36988 2.41666,-0.36988 3.33333,0 0.91667,0.36988 0.16667,0.67252 -1.66667,0.67252 -1.83333,0 -2.58333,-0.30264 -1.66666,-0.67252 z M 76.666669,397.33335 c 1.327315,-1.46667 2.7133,-2.66667 3.079967,-2.66667 0.366667,0 -0.419319,1.2 -1.746633,2.66667 -1.327315,1.46666 -2.7133,2.66666 -3.079967,2.66666 -0.366667,0 0.419319,-1.2 1.746633,-2.66666 z m 251.438611,-6.11111 c 0.064,-1.55327 0.37992,-1.8692 0.80554,-0.80556 0.38516,0.96249 0.3378,2.11251 -0.1052,2.55556 -0.44306,0.44305 -0.75818,-0.34445 -0.70029,-1.75 z m -55.84534,-3.88889 c 0.0272,-2.2 0.326,-2.93859 0.66406,-1.6413 0.33805,1.2973 0.31582,3.0973 -0.0495,4 -0.36524,0.90271 -0.64183,-0.1587 -0.61465,-2.3587 z m 334.40675,0.16325 c 0,-0.27687 1.05,-1.32687 2.33333,-2.33333 2.11475,-1.6585 2.16191,-1.61134 0.50341,0.50341 -1.74182,2.221 -2.83674,2.92731 -2.83674,1.82992 z M 91.555559,363.11112 c -0.488889,-0.48888 -0.888889,-2.58888 -0.888889,-4.66667 v -3.77777 l 17.66667,-0.0524 c 27.02741,-0.0801 99.36823,-0.0876 134,-0.0137 l 31,0.0661 v 4.66667 4.66666 H 182.8889 c -49.74445,0 -90.844453,-0.4 -91.333341,-0.88889 z m 60.444451,-12.94785 c 0,-0.27687 1.05,-1.32687 2.33333,-2.33334 2.11475,-1.65849 2.16191,-1.61133 0.50341,0.50342 -1.74182,2.221 -2.83674,2.9273 -2.83674,1.82992 z m 122.66667,-0.75123 c 0,-0.69005 0.59313,-1.62123 1.31806,-2.06925 0.75582,-0.46712 0.97934,0.0681 0.52402,1.25464 -0.88639,2.30989 -1.84208,2.73252 -1.84208,0.81461 z m -53.33334,-0.49591 c 0,-0.22946 1.95,-2.17946 4.33333,-4.33333 l 4.33334,-3.91612 -3.91612,4.33333 c -3.65038,4.03928 -4.75055,4.9462 -4.75055,3.91612 z m 58.66667,-6.91612 c 1.72233,-1.83333 3.43151,-3.33333 3.79817,-3.33333 0.36667,0 -0.7425,1.5 -2.46484,3.33333 -1.72233,1.83334 -3.4315,3.33334 -3.79817,3.33334 -0.36667,0 0.74251,-1.5 2.46484,-3.33334 z m 6.31111,-4.83212 c 0.90445,-0.91123 1.98032,-1.32089 2.39084,-0.91037 0.41052,0.41052 -0.32948,1.15606 -1.64444,1.65677 -1.90027,0.72357 -2.05342,0.57043 -0.7464,-0.7464 z m -158.41368,-6.39865 c -4.97284,-4.97284 -5.21214,-10.90907 -0.62471,-15.4965 6.9173,-6.9173 19.39394,-2.13358 19.39394,7.4359 0,5.3089 -6.30177,11.95804 -11.33333,11.95804 -2.13316,0 -5.08634,-1.54788 -7.4359,-3.89744 z m 68.20487,0.44558 c -3.12388,-2.62857 -4.1023,-4.55108 -4.1023,-8.06061 0,-11.84252 15.50305,-15.44637 21.11554,-4.90852 2.50083,4.69549 1.8136,8.36364 -2.34632,12.52355 -4.83365,4.83365 -9.29106,4.96906 -14.66692,0.44558 z m 200.8977,2.45198 101.66667,-0.35011 v -5.32501 -5.325 h 10.45696 c 13.43455,0 20.63007,-3.41944 25.13939,-11.9467 2.75863,-5.21662 3.06735,-7.57829 3.04104,-23.26301 -0.0336,-20.02036 -1.87823,-26.16571 -9.48201,-31.58887 -3.80008,-2.71028 -6.3808,-3.2723 -16.82204,-3.66346 l -12.33334,-0.46204 v -9.90206 -9.90207 l 23.66667,0.36411 23.66667,0.36409 0.34917,51.00001 0.34919,51 -125.68253,-0.32488 -125.68251,-0.32488 z m 169.98349,-50.00012 0.31681,-51.00001 0.36588,50.33334 0.3659,50.33333 h 13.3173 13.3173 V 176.69218 20.051018 l -29.33412,-0.397995 -29.33413,-0.397994 29.66746,0.03916 29.66745,0.03915 0.3388,157.666671 0.3388,157.66668 h -14.67213 -14.67213 z m -396.00749,39 c 0,-2.56667 0.2744,-3.61667 0.60977,-2.33334 0.33536,1.28334 0.33536,3.38334 0,4.66667 -0.33537,1.28333 -0.60977,0.23333 -0.60977,-2.33333 z m -68.20408,0.55556 c 0.064,-1.55327 0.37992,-1.8692 0.80556,-0.80556 0.38516,0.96249 0.33779,2.11249 -0.10527,2.55556 -0.44305,0.44305 -0.75819,-0.34446 -0.70029,-1.75 z m 175.79383,-6.8889 -3.23242,-3.66666 3.66667,3.23241 c 3.42705,3.02119 4.27812,4.10092 3.23241,4.10092 -0.23882,0 -1.88882,-1.65 -3.66666,-3.66667 z m -6.46048,-11.77777 c 0.064,-1.55327 0.37992,-1.8692 0.80554,-0.80556 0.38516,0.96249 0.3378,2.11249 -0.1052,2.55556 -0.44306,0.44305 -0.75818,-0.34445 -0.70029,-1.75 z m -161.43861,-2.39231 c 0,-0.27686 1.05,-1.32686 2.33333,-2.33333 2.11475,-1.65849 2.16191,-1.61133 0.50341,0.50341 -1.74182,2.221 -2.83674,2.92731 -2.83674,1.82992 z m 46.49659,-1.82992 c -1.65849,-2.11474 -1.61133,-2.1619 0.50341,-0.50341 1.28334,1.00647 2.33334,2.05647 2.33334,2.33333 0,1.09739 -1.09492,0.39108 -2.83675,-1.82992 z m 21.50341,1.82992 c 0,-0.27686 1.05,-1.32686 2.33334,-2.33333 2.11474,-1.65849 2.1619,-1.61133 0.50341,0.50341 -1.74183,2.221 -2.83675,2.92731 -2.83675,1.82992 z m 1.16326,-13.82992 c -1.6585,-2.11474 -1.61134,-2.1619 0.50341,-0.50341 1.28333,1.00647 2.33333,2.05647 2.33333,2.33333 0,1.09739 -1.09492,0.39108 -2.83674,-1.82992 z m -5.88475,-8.42204 c -0.48337,-0.78212 -0.59291,-1.708 -0.2434,-2.0575 0.34949,-0.34951 0.99075,0.29041 1.425,1.42204 0.90157,2.34948 0.1332,2.76274 -1.1816,0.63546 z m -44.1264,-4.13741 C 126.93924,274.3796 124,269.44252 124,266.00001 c 0,-9.46592 12.52892,-14.61395 19.2381,-7.90476 8.98095,8.98095 -1.86718,23.27228 -13.41932,17.67864 z m 65.45396,-1.71328 c -3.22068,-3.22067 -4.2244,-8.69581 -2.44449,-13.3342 1.01145,-2.63581 7.34436,-6.05973 11.2081,-6.05973 4.0323,0 10.63032,7.03437 10.63032,11.33333 0,2.13316 -1.54788,5.08633 -3.89744,7.43589 -4.97284,4.97284 -10.90906,5.21215 -15.49649,0.62471 z m -91.16747,-0.17171 c 0.064,-1.55326 0.37992,-1.8692 0.80555,-0.80556 0.38516,0.9625 0.33779,2.1125 -0.10526,2.55556 -0.44306,0.44306 -0.75819,-0.34445 -0.7003,-1.75 z m 66.87074,-8.55556 c 0,-2.56666 0.2744,-3.61666 0.60977,-2.33333 0.33536,1.28333 0.33536,3.38333 0,4.66667 -0.33537,1.28333 -0.60977,0.23333 -0.60977,-2.33334 z m 7.69066,-20.50341 c 0,-0.27687 1.05,-1.32687 2.33334,-2.33334 2.11474,-1.65849 2.1619,-1.61133 0.50341,0.50342 -1.74183,2.221 -2.83675,2.92731 -2.83675,1.82992 z m -44.25,-11.07407 c 0.96249,-0.38516 2.11249,-0.3378 2.55556,0.1052 0.44305,0.44305 -0.34445,0.75819 -1.75,0.70029 -1.55327,-0.064 -1.8692,-0.37992 -0.80556,-0.80554 z m 424.8328,-15.42252 -3.91612,-4.33333 4.33334,3.91612 c 4.03928,3.65037 4.9462,4.75054 3.91612,4.75054 -0.22947,0 -2.17947,-1.95 -4.33334,-4.33333 z m -482.582801,0.33333 c 1.327315,-1.46666 2.7133,-2.66666 3.079967,-2.66666 0.366667,0 -0.419319,1.2 -1.746633,2.66666 -1.327315,1.46667 -2.7133,2.66667 -3.079967,2.66667 -0.366667,0 0.419319,-1.2 1.746633,-2.66667 z m 460.333351,-7.60764 c 1.65,-0.31781 4.35,-0.31781 6,0 1.65,0.3178 0.3,0.57783 -3,0.57783 -3.3,0 -4.65,-0.26003 -3,-0.57783 z m 22.33333,-12.39236 c 1.32732,-1.46666 2.71331,-2.66666 3.07998,-2.66666 0.36666,0 -0.41932,1.2 -1.74664,2.66666 -1.32732,1.46667 -2.71331,2.66667 -3.07998,2.66667 -0.36666,0 0.41932,-1.2 1.74664,-2.66667 z m -411.33334,-5.41182 c 0,-1.14318 -0.85038,-3.24318 -1.88971,-4.66667 -1.7298,-2.36916 -4.12734,-2.64459 -28.33334,-3.25484 l -26.443624,-0.66667 -0.41781,-4.33333 -0.417812,-4.33333 18.417816,-0.0481 c 10.12979,-0.0264 98.39245,-0.009 196.13925,0.0367 117.25213,0.0559 179.44541,-0.37947 182.78826,-1.2796 8.39372,-2.26019 10.08956,-5.26891 10.62298,-18.84699 L 498.93202,144 h 10.32428 c 13.29144,0 20.51378,-3.4504 25.00673,-11.94669 2.75863,-5.21663 3.06735,-7.57829 3.04104,-23.26302 -0.0336,-20.02035 -1.87823,-26.165705 -9.48201,-31.588862 -3.80008,-2.710284 -6.3808,-3.272308 -16.82204,-3.663465 l -12.33334,-0.462039 v -9.902061 -9.90206 l 23.66667,0.3641 23.66667,0.364099 v 65.333338 65.33333 l -185.10759,0.66667 c -181.29598,0.65293 -185.14657,0.71996 -187.00001,3.25484 -1.04083,1.42349 -1.89241,3.52349 -1.89241,4.66667 0,1.72846 -2.02082,2.07849 -12,2.07849 -9.97919,0 -12,-0.35003 -12,-2.07849 z m 419.28412,-73.92151 c 2.5e-4,-35.933337 0.172,-50.441699 0.38166,-32.240808 0.20967,18.200888 0.20947,47.600898 -4.5e-4,65.333338 -0.20992,17.73244 -0.38145,2.8408 -0.38121,-33.09253 z m -415.28412,52.16325 c 0,-0.27686 1.05,-1.32686 2.33333,-2.33333 2.11475,-1.65849 2.16191,-1.61133 0.50341,0.50341 -1.74182,2.221 -2.83674,2.92731 -2.83674,1.82992 z m 69.33333,-1.24713 c 0,-0.22947 1.95,-2.17947 4.33333,-4.33333 l 4.33334,-3.91612 -3.91612,4.33333 c -3.65038,4.03928 -4.75055,4.9462 -4.75055,3.91612 z m -93.4359,-18.14689 c -7.51868,-7.51869 -3.06149,-18.76923 7.4359,-18.76923 10.49738,0 14.95457,11.25054 7.43589,18.76923 -5.05732,5.05733 -9.81447,5.05733 -14.87179,0 z m 68.20487,0.44558 c -3.12388,-2.62857 -4.1023,-4.55108 -4.1023,-8.06061 0,-11.84253 15.50305,-15.44637 21.11554,-4.90852 2.50083,4.69549 1.8136,8.36364 -2.34632,12.52355 -4.83365,4.83365 -9.29106,4.96906 -14.66692,0.44558 z M 170.97601,144 c 0,-2.56666 0.2744,-3.61666 0.60977,-2.33333 0.33536,1.28333 0.33536,3.38333 0,4.66667 -0.33537,1.28333 -0.60977,0.23333 -0.60977,-2.33334 z m -68.20408,0.55556 c 0.064,-1.55326 0.37992,-1.8692 0.80556,-0.80556 0.38516,0.9625 0.33779,2.1125 -0.10527,2.55557 -0.44305,0.44305 -0.75819,-0.34446 -0.70029,-1.75001 z M 277.87333,137 l -2.53999,-3 3,2.53999 c 2.81926,2.38696 3.60699,3.46001 2.53999,3.46001 -0.25301,0 -1.60301,-1.35 -3,-3 z m -5.76805,-11.11111 c 0.064,-1.55325 0.37992,-1.8692 0.80554,-0.80555 0.38516,0.9625 0.3378,2.1125 -0.1052,2.55555 -0.44306,0.44306 -0.75818,-0.34444 -0.70029,-1.75 z M 110.66667,123.4966 c 0,-0.27688 1.05,-1.32688 2.33333,-2.33334 2.11475,-1.65849 2.16191,-1.61133 0.50341,0.50341 -1.74182,2.221 -2.83674,2.92731 -2.83674,1.82993 z m 46.49659,-1.82993 c -1.65849,-2.11474 -1.61133,-2.1619 0.50341,-0.50341 1.28334,1.00646 2.33334,2.05646 2.33334,2.33334 0,1.09738 -1.09492,0.39107 -2.83675,-1.82993 z m 21.50341,1.82993 c 0,-0.27688 1.05,-1.32688 2.33334,-2.33334 2.11474,-1.65849 2.1619,-1.61133 0.50341,0.50341 -1.74183,2.221 -2.83675,2.92731 -2.83675,1.82993 z m 6.66667,-5.33334 c 0,-0.27687 1.05,-1.32687 2.33333,-2.33333 2.11475,-1.65849 2.16191,-1.61133 0.50342,0.50341 -1.74183,2.22099 -2.83675,2.9273 -2.83675,1.82992 z m -5.50341,-8.49659 c -1.6585,-2.11474 -1.61134,-2.1619 0.50341,-0.50341 2.221,1.74183 2.92731,2.83674 1.82992,2.83674 -0.27687,0 -1.32687,-1.05 -2.33333,-2.33333 z m 46.83674,-2.17007 c 0,-0.27688 1.05,-1.32688 2.33334,-2.33334 2.11474,-1.65849 2.1619,-1.61133 0.50341,0.50341 -1.74183,2.221 -2.83675,2.92731 -2.83675,1.82993 z m -52.72149,-6.25197 c -0.48337,-0.78212 -0.59291,-1.708001 -0.2434,-2.057505 0.34949,-0.349506 0.99075,0.290413 1.425,1.422045 0.90157,2.34947 0.1332,2.76274 -1.1816,0.63546 z m -44.1264,-4.137413 C 126.93924,95.712919 124,90.775843 124,87.333336 c 0,-9.465924 12.52892,-14.613943 19.2381,-7.904761 8.98095,8.980949 -1.86718,23.272285 -13.41932,17.678642 z m 65.70925,-1.710215 c -7.23794,-6.707902 -2.37353,-19.396999 7.43591,-19.396999 5.05049,0 11.70273,6.442258 11.70273,11.333333 0,4.891075 -6.65224,11.333334 -11.70273,11.333334 -2.30009,0 -5.35939,-1.345213 -7.43591,-3.269668 z m -91.42276,-0.174776 c 0.064,-1.553257 0.37992,-1.8692 0.80555,-0.805556 0.38516,0.9625 0.33779,2.1125 -0.10526,2.555556 -0.44306,0.443055 -0.75819,-0.344445 -0.7003,-1.75 z m 66.87074,-8.555556 c 0,-2.566667 0.2744,-3.616667 0.60977,-2.333334 0.33536,1.283334 0.33536,3.383334 0,4.666667 -0.33537,1.283333 -0.60977,0.233333 -0.60977,-2.333333 z m 7.69066,-20.503408 c 0,-0.276874 1.05,-1.326874 2.33334,-2.333333 2.11474,-1.658495 2.1619,-1.611335 0.50341,0.503407 -1.74183,2.220997 -2.83675,2.927305 -2.83675,1.829926 z m -44.25,-11.074079 c 0.96249,-0.385161 2.11249,-0.337792 2.55556,0.105267 0.44305,0.443056 -0.34445,0.758188 -1.75,0.700293 -1.55327,-0.06397 -1.8692,-0.379921 -0.80556,-0.805556 z m 68,0 c 0.9625,-0.385161 2.1125,-0.337792 2.55556,0.105267 0.44306,0.443056 -0.34445,0.758188 -1.75,0.700293 -1.55326,-0.06397 -1.8692,-0.379921 -0.80556,-0.805556 z m 356.8328,-15.422515 -3.91612,-4.333333 4.33334,3.916121 c 2.38333,2.153867 4.33333,4.103867 4.33333,4.333333 0,1.030082 -1.10017,0.123147 -4.75055,-3.916121 z M 76.666669,40.000001 c 1.327315,-1.466666 2.7133,-2.666666 3.079967,-2.666666 0.366667,0 -0.419319,1.2 -1.746633,2.666666 -1.327315,1.466667 -2.7133,2.666667 -3.079967,2.666667 -0.366667,0 0.419319,-1.2 1.746633,-2.666667 z M 206.33334,32.333434 c 62.51667,-0.191625 164.81667,-0.191625 227.33334,0 62.51667,0.191624 11.36667,0.348408 -113.66667,0.348408 -125.03334,0 -176.18334,-0.156784 -113.66667,-0.348408 z"
         id="path2026" />
      <path
         style="fill:#000000;stroke-width:1.33333"
         d="m 37.675201,679.85022 c -5.847969,-1.69748 -13.226755,-9.3531 -14.931474,-15.49168 -1.850996,-6.66532 -1.802273,-31.37296 0.06997,-35.48209 1.449638,-3.1816 6.212944,-6.20976 9.767996,-6.20976 0.984253,0 3.206022,1.14488 4.937263,2.54418 2.922872,2.36246 3.195332,3.71963 3.814379,19.00001 l 0.666666,16.45581 H 318.66668 595.33335 l 0.38552,-12.49601 c 0.357,-11.57167 0.20907,-12.42083 -2,-11.47971 -19.88162,8.47013 -34.86452,10.43501 -51.44396,6.74644 -15.42232,-3.43115 -25.37364,-9.01044 -37.40425,-20.97106 l -10.4627,-10.40181 -100.87064,-0.3656 -100.87064,-0.36559 -5.66518,-3.02633 c -3.11585,-1.66449 -7.31585,-5.51781 -9.33333,-8.56295 -3.39435,-5.12332 -3.70137,-6.71378 -4.11316,-21.30698 l -0.445,-15.7704 -91.555,-0.0293 c -102.961934,-0.033 -98.40253,0.39795 -106.376458,-10.05402 l -3.845216,-5.04015 -0.39393,-67.43827 c -0.216661,-37.09104 -0.03707,-69.4011 0.399099,-71.80011 0.985904,-5.42271 7.874335,-13.44533 13.597842,-15.83677 3.479757,-1.45394 22.064803,-1.80139 96.354163,-1.80139 h 92.04283 v -3.29841 -3.2984 l -93,-0.36827 C 76.442771,383.29023 82.786217,383.88853 75.068927,373.77301 l -3.735591,-4.89646 -0.39393,-67.43827 c -0.216661,-37.09104 -0.03707,-69.4011 0.399099,-71.80011 0.985904,-5.42271 7.874335,-13.44534 13.597842,-15.83678 3.564327,-1.48926 44.039633,-1.80138 233.600703,-1.80138 158.76107,0 230.44392,0.43621 233.04284,1.41816 5.10786,1.92988 11.03094,7.6837 13.25101,12.87234 1.45419,3.39866 1.83579,15.10844 1.83579,56.33334 v 52.04283 h 14.67213 14.67213 l -0.3388,-157.66667 -0.3388,-157.666676 H 318.66668 42.000001 L 41.333335,307.10754 c -0.655436,282.92651 -0.710266,287.80608 -3.25484,289.66668 -4.305201,3.14796 -10.830759,2.38512 -13.993666,-1.63587 L 21.309443,591.61002 21.654722,303.47168 22.000001,15.333334 25.06721,10.400542 C 26.754174,7.6875071 30.124994,4.2375069 32.557922,2.7338754 36.981129,1.8299607e-4 37.00028,0 318.66668,0 c 281.66639,0 281.68554,1.8299607e-4 286.10875,2.7338754 2.43292,1.5036315 5.80375,4.9536317 7.49071,7.6666666 l 3.06721,4.932792 0.35439,159.523446 0.35439,159.52343 15.07953,0.47869 c 13.79906,0.43804 15.54992,0.78999 20.61927,4.14472 3.04687,2.01632 6.9016,6.21537 8.56609,9.33122 l 3.02634,5.66517 v 118.00001 c 0,64.9 -0.45867,119.639 -1.01927,121.64221 -1.41143,5.04358 -8.74012,13.05999 -13.91708,15.22307 -2.45216,1.02457 -9.10895,1.80139 -15.43675,1.80139 -10.68041,0 -11.23757,0.1517 -13.92952,3.79276 -2.54917,3.44793 -2.84472,5.90265 -3.25075,27 -0.41333,21.47657 -0.67537,23.57511 -3.51385,28.14003 -1.68696,2.71304 -5.28696,6.31304 -8,8 l -4.93279,3.06721 -278.66667,0.21944 C 149.68117,681.02077 40.328831,680.62048 37.675201,679.85022 Z M 581.33335,620.47771 c 21.86886,-10.35905 34.91128,-32.21866 32.90163,-55.14436 -0.79987,-9.12466 -4.21361,-20.75073 -6.50969,-22.16978 -0.74715,-0.46178 -13.44635,11.23753 -28.22043,25.99844 -33.69551,33.66542 -30.39313,32.85777 -50.58166,12.3706 -12.35316,-12.5359 -14.25652,-15.05852 -14.25652,-18.89502 0,-5.91282 3.28614,-9.30424 9.01543,-9.30424 3.90465,0 6.10333,1.45566 14.50763,9.60483 l 9.90549,9.60483 23.26912,-23.24063 23.26914,-23.24063 -6.9834,-4.40787 c -13.70035,-8.64756 -30.45135,-10.6906 -46.50962,-5.67257 -9.97419,3.11683 -14.16824,5.73108 -22.8136,14.22025 -29.12516,28.59902 -17.51253,77.97587 21.75514,92.50275 5.79022,2.14207 9.80364,2.60162 19.91801,2.28066 10.89212,-0.34563 13.88083,-0.97707 21.33333,-4.50726 z m -96.93959,-33.47769 c -0.58322,-2.75 -0.99605,-11.6 -0.91738,-19.66667 0.11733,-12.03288 0.72566,-16.22661 3.38748,-23.35344 17.25201,-46.19089 72.73977,-64.65864 113.06108,-37.62961 7.71255,5.17002 8.96043,5.60652 12.19641,4.26613 8.10399,-3.35679 15.99911,5.77384 11.60812,13.42469 -1.83896,3.2042 -1.80149,3.93762 0.4125,8.07494 4.61098,8.61664 7.98969,19.01667 9.13102,28.10631 1.07038,8.5245 -2.8e-4,24.24296 -2.0076,29.47396 -0.73485,1.91501 -0.0887,2.30369 3.83007,2.30369 9.50103,0 8.90456,7.11417 8.90456,-106.20635 0,-60.55987 -0.492,-101.83527 -1.2107,-101.57143 -0.6659,0.24444 -34.89431,28.34444 -76.06315,62.44444 -41.16883,34.1 -78.16595,64.4 -82.21581,67.33334 -6.73362,4.8772 -8.0681,5.32897 -15.60353,5.28229 -4.69387,-0.0291 -9.82684,-0.9104 -11.927,-2.04784 -2.02776,-1.09824 -28.57776,-22.58192 -59,-47.74152 -54.02635,-44.68054 -55.31315,-45.85568 -55.31315,-50.51384 0,-10.75984 9.06475,-12.85179 19.54693,-4.51099 3.54919,2.82412 28.28418,23.22412 54.96666,45.33334 29.97069,24.83384 49.59135,40.19584 51.33333,40.19144 3.23128,-0.008 173.48642,-140.34961 173.48642,-143.00499 0,-2.30387 -346.1822,-2.44135 -346.95005,-0.13779 -0.27807,0.83421 6.27193,7.06967 14.55556,13.85656 8.28363,6.78689 15.81115,13.26903 16.72781,14.40473 2.42914,3.00962 2.04779,10.14798 -0.66666,12.47928 -6.13796,5.27159 -9.76076,4.26087 -22.02692,-6.14526 -4.82694,-4.09498 -9.12052,-7.44542 -9.54132,-7.44542 -0.4208,0 -0.7651,46.17019 -0.7651,102.60042 0,96.30806 0.14311,102.68376 2.33334,103.95946 1.52302,0.88708 34.8826,1.37312 96.06041,1.39958 l 93.7271,0.0405 z M 273.33334,476.65743 v -66.00926 l -91,0.34259 -91.000004,0.34259 -0.347216,64 c -0.190969,35.2 -0.0598,64.75 0.291487,65.66667 0.502305,1.31075 20.009933,1.66667 91.347223,1.66667 h 90.70851 z M 121.47302,529.8199 c -7.54378,-3.75922 -13.586,-10.74882 -16.23775,-18.78371 -3.66033,-11.09088 1.89736,-27.63257 11.46934,-34.13689 l 4.61142,-3.13355 -5.48689,-4.40939 c -3.35924,-2.69956 -6.78275,-7.23993 -8.82874,-11.70896 -7.918073,-17.29534 1.23669,-37.19727 19.57012,-42.54431 20.5337,-5.98877 40.13621,9.11696 40.08313,30.88813 -0.0185,7.61 -5.3722,18.18668 -11.83422,23.37969 l -5.46878,4.39484 4.61142,3.13355 c 9.57198,6.50432 15.12967,23.04601 11.46934,34.13689 -6.18978,18.75521 -26.55369,27.45684 -43.95839,18.78371 z m 19.97586,-18.19562 c 2.86996,-2.20349 5.21779,-6.84077 5.21779,-10.30584 0,-4.05013 -7.02405,-10.65176 -11.33333,-10.65176 -4.30928,0 -11.33334,6.60163 -11.33334,10.65176 0,6.56103 5.10051,11.9301 11.33334,11.9301 2.2,0 4.952,-0.73092 6.11554,-1.62426 z m 1.94506,-58.897 c 4.58744,-4.58742 4.34813,-10.52365 -0.62471,-15.49649 -2.34956,-2.34956 -5.30273,-3.89744 -7.43589,-3.89744 -5.03156,0 -11.33334,6.64913 -11.33334,11.95804 0,9.56948 12.47664,14.3532 19.39394,7.43589 z m 46.51159,77.43171 c -15.9332,-7.41924 -22.24895,-25.44065 -14.64194,-41.77939 2.03624,-4.37354 5.15527,-8.31908 8.40591,-10.63341 l 5.16836,-3.67967 -6.80515,-6.69992 c -10.72189,-10.55608 -13.02932,-23.49624 -6.51925,-36.56024 6.48468,-13.01307 20.84455,-19.57228 35.2718,-16.11123 9.47359,2.27268 19.85107,12.27607 22.46717,21.65728 3.3984,12.18645 -1.88561,27.53069 -11.58704,33.64761 -2.32613,1.46666 -4.25072,2.96666 -4.27685,3.33333 -0.0261,0.36667 1.76375,1.86667 3.97755,3.33333 2.21378,1.46667 5.48074,4.76667 7.25989,7.33334 18.24531,26.32132 -9.72239,59.66183 -38.72045,46.15897 z m 20.8637,-20.72308 c 2.34956,-2.34956 3.89744,-5.30273 3.89744,-7.43589 0,-4.29896 -6.59802,-11.33334 -10.63032,-11.33334 -3.86374,0 -10.19665,3.42392 -11.2081,6.05974 -1.77991,4.63838 -0.77619,10.11353 2.44449,13.3342 4.58743,4.58744 10.52365,4.34813 15.49649,-0.62471 z m -2.16229,-54.26413 c 2.584,-0.99158 6.05973,-7.31883 6.05973,-11.0312 0,-3.88831 -5.37921,-9.35787 -10.09064,-10.26013 -3.19876,-0.61256 -5.01569,-0.005 -8.33333,2.78663 -10.2408,8.61706 -0.36931,23.39102 12.36424,18.5047 z m 64.7264,-95.90465 c 0,-8.49 6.13344,-17.54374 14.94688,-22.06355 4.76019,-2.44116 9.72983,-2.5369 131.68251,-2.5369 h 126.73565 l -0.34919,-51 -0.34917,-51.00001 H 318.66668 91.333336 l -0.347216,64.00001 c -0.190969,35.2 -0.0598,64.75 0.291487,65.66667 0.502305,1.31074 20.009933,1.66666 91.347223,1.66666 h 90.70851 z m -148.39072,-6.64448 c -17.20823,-6.31562 -25.420122,-25.05339 -18.26698,-41.68131 2.77261,-6.44512 10.37574,-14.94133 13.37076,-14.94133 2.54411,0 1.17076,-2.05387 -3.31663,-4.96008 -2.51381,-1.62804 -6.25638,-5.82804 -8.31683,-9.33333 -3.15243,-5.363 -3.74627,-7.86834 -3.74627,-15.80502 0,-8.17006 0.5398,-10.30569 4.03525,-15.96476 2.50469,-4.05505 6.51085,-8.06353 10.56211,-10.56823 5.67336,-3.50757 7.77469,-4.03525 16.06931,-4.03525 8.29461,0 10.39594,0.52768 16.06931,4.03525 4.05125,2.5047 8.05741,6.51318 10.5621,10.56823 3.49546,5.65907 4.03526,7.7947 4.03526,15.96476 0,7.91683 -0.59643,10.44639 -3.71326,15.74868 -2.04229,3.47431 -5.7884,7.72703 -8.32468,9.45047 l -4.61142,3.13355 5.48689,4.40938 c 3.35924,2.69956 6.78275,7.23994 8.82873,11.70896 11.36935,24.8339 -13.18914,51.64151 -38.72365,42.27003 z m 17.82661,-21.85341 c 4.97284,-4.97284 5.21215,-10.90907 0.62471,-15.4965 -6.9173,-6.9173 -19.39394,-2.13358 -19.39394,7.4359 0,5.3089 6.30178,11.95804 11.33334,11.95804 2.13316,0 5.08633,-1.54788 7.43589,-3.89744 z m -2.25541,-54.94219 c 6.26199,-2.85315 7.77233,-12.68375 2.72428,-17.7318 -5.04806,-5.04805 -14.87865,-3.53771 -17.7318,2.72428 -4.72829,10.37747 4.63005,19.73581 15.00752,15.00752 z m 52.48348,76.9373 c -16.1796,-5.77394 -24.43108,-22.7775 -19.38352,-39.94298 1.05457,-3.58635 4.07836,-7.91364 8.72629,-12.48803 3.91188,-3.85 6.53172,-7 5.82186,-7 -2.93075,0 -10.08359,-7.66948 -13.0061,-13.9455 -10.32732,-22.1778 6.85491,-46.81329 30.91818,-44.32974 13.31382,1.37411 23.10128,9.54362 27.27552,22.76668 3.42084,10.83644 -1.72832,26.37328 -10.82311,32.65711 -2.80053,1.93497 -5.09153,3.81812 -5.09112,4.18479 4.1e-4,0.36666 1.90396,1.86666 4.23009,3.33333 5.91222,3.72775 11.57287,13.46973 12.53192,21.5674 2.64719,22.35135 -20.14032,40.71239 -41.20001,33.19694 z m 17.77193,-21.99511 c 4.15992,-4.15991 4.84715,-7.82806 2.34632,-12.52355 -5.61249,-10.53785 -21.11554,-6.934 -21.11554,4.90852 0,3.50953 0.97842,5.43204 4.1023,8.06061 5.37586,4.52348 9.83327,4.38807 14.66692,-0.44558 z m 0,-57.33334 c 2.34956,-2.34956 3.89744,-5.30273 3.89744,-7.43589 0,-4.29896 -6.59802,-11.33333 -10.63032,-11.33333 -3.86374,0 -10.19665,3.42392 -11.2081,6.05973 -1.77991,4.63839 -0.77619,10.11353 2.44449,13.3342 4.58743,4.58744 10.52365,4.34813 15.49649,-0.62471 z m 76.68906,47.84242 c -2.13128,-0.63754 -5.85996,-3.083 -8.28597,-5.43438 -5.88403,-5.70302 -7.60834,-13.91044 -6.98418,-33.24342 0.58394,-18.08692 2.88632,-23.29032 12.32775,-27.86084 5.71212,-2.7652 6.48921,-2.78063 122.28306,-2.42794 l 116.5344,0.35494 4.48871,3.20142 c 7.60378,5.42316 9.44843,11.56851 9.48201,31.58887 0.0263,15.68472 -0.28241,18.04639 -3.04104,23.26301 -2.09856,3.96844 -4.90793,6.77782 -8.87637,8.87638 l -5.80607,3.07032 -114.12362,-0.11454 c -62.768,-0.0631 -115.8674,-0.63622 -117.99868,-1.27376 z m 229.58539,-34.27831 0.377,-15 H 404.71035 292.00001 v 14.44444 c 0,7.94445 0.4034,14.84785 0.89645,15.34091 0.49306,0.49305 51.04306,0.74305 112.33334,0.55556 l 111.43688,-0.34091 z M 86.206922,203.38847 c -6.209394,-2.21394 -10.68865,-6.23414 -13.465132,-12.08514 -1.792872,-3.7782 -2.075121,-13.53751 -2.075121,-71.75136 0,-44.364129 0.484396,-68.66043 1.418157,-71.131835 1.929886,-5.107864 7.683705,-11.030942 12.872352,-13.251015 6.334424,-2.710318 460.955392,-2.743767 467.439832,-0.03439 5.7235,2.391435 12.61194,10.414066 13.59784,15.836767 0.43617,2.399014 0.61576,34.709064 0.3991,71.800113 l -0.39393,67.43826 -3.84521,5.0402 c -2.11487,2.77211 -6.31487,6.16171 -9.33334,7.53244 -5.27436,2.39519 -12.67022,2.4934 -189.88206,2.52155 l -184.39395,0.0293 -3.27272,-3.27273 c -3.69547,-3.69546 -4.28952,-9.49364 -1.38032,-13.47243 1.85344,-2.53488 5.70403,-2.60191 187.00001,-3.25484 l 185.10759,-0.66667 V 119.33334 54.000002 H 318.66668 91.333336 v 65.333338 65.33333 l 26.443624,0.66667 c 24.206,0.61025 26.60354,0.88568 28.33334,3.25484 2.90645,3.98072 2.31132,9.77809 -1.38303,13.47243 -3.24725,3.24726 -3.46769,3.27228 -28.33333,3.21421 -17.713662,-0.0413 -26.5635,-0.59439 -30.187018,-1.88635 z m 38.869088,-29.3863 c -17.23608,-6.33556 -25.532199,-25.14911 -18.40037,-41.7275 2.77261,-6.44512 10.37574,-14.94133 13.37076,-14.94133 2.54411,0 1.17076,-2.05387 -3.31663,-4.96008 -2.51381,-1.62804 -6.25638,-5.82804 -8.31683,-9.33333 -3.15243,-5.363004 -3.74627,-7.868335 -3.74627,-15.805024 0,-8.170063 0.5398,-10.305693 4.03525,-15.964754 2.50469,-4.055055 6.51085,-8.063539 10.56211,-10.568235 5.67336,-3.507571 7.77469,-4.035248 16.06931,-4.035248 8.29461,0 10.39594,0.527677 16.06931,4.035248 4.05125,2.504696 8.05741,6.51318 10.5621,10.568235 3.49546,5.659061 4.03526,7.794691 4.03526,15.964754 0,7.916833 -0.59643,10.446388 -3.71326,15.748684 -2.04229,3.47431 -5.7884,7.72702 -8.32468,9.45047 l -4.61142,3.13355 5.48689,4.40938 c 3.35924,2.69956 6.78275,7.23993 8.82873,11.70896 11.33382,24.7563 -13.19328,51.65152 -38.59026,42.31622 z m 17.69322,-21.8996 c 7.51868,-7.51869 3.06149,-18.76923 -7.43589,-18.76923 -10.49739,0 -14.95458,11.25054 -7.4359,18.76923 5.05732,5.05733 9.81447,5.05733 14.87179,0 z m -2.25541,-54.942193 c 6.26199,-2.853151 7.77233,-12.683746 2.72428,-17.731802 -5.04806,-5.048058 -14.87865,-3.537702 -17.7318,2.724284 -4.72829,10.377467 4.63005,19.735811 15.00752,15.007518 z m 52.48348,76.937293 c -16.1796,-5.77393 -24.43108,-22.77749 -19.38352,-39.94297 1.03769,-3.52893 4.04305,-7.87975 8.41893,-12.18795 l 6.80515,-6.69992 -5.16836,-3.67967 c -10.85659,-7.72946 -14.64431,-24.476182 -8.51367,-37.641644 7.76104,-16.666734 28.04239,-22.805145 44.15326,-13.363551 8.97416,5.259207 15.35758,16.349451 15.35758,26.681489 0,9.652076 -7.02133,22.129726 -15.33333,27.248966 -1.74536,1.07494 -2.11397,1.87663 -1.06691,2.32045 7.17664,3.04195 14.59922,14.04943 15.90682,23.58936 1.23736,9.02754 -1.5326,17.24348 -8.38192,24.86159 -8.77947,9.76487 -20.95751,13.03788 -32.79403,8.81385 z m 17.77193,-21.9951 c 4.15992,-4.15991 4.84715,-7.82806 2.34632,-12.52355 -5.61249,-10.53785 -21.11554,-6.93401 -21.11554,4.90852 0,3.50953 0.97842,5.43204 4.1023,8.06061 5.37586,4.52348 9.83327,4.38807 14.66692,-0.44558 z m 0,-57.333336 c 2.34956,-2.34956 3.89744,-5.302744 3.89744,-7.435898 0,-4.891075 -6.65224,-11.333333 -11.70273,-11.333333 -5.77105,0 -10.96393,5.367844 -10.96393,11.333333 0,3.471463 0.97329,5.696011 3.52802,8.063666 4.85142,4.496131 10.34352,4.269917 15.2412,-0.627768 z m 76.68906,47.842406 c -2.13128,-0.63753 -5.85996,-3.083 -8.28597,-5.43437 -5.88403,-5.70303 -7.60834,-13.91044 -6.98418,-33.24343 0.58394,-18.086914 2.88632,-23.290324 12.32775,-27.860841 5.71212,-2.76519 6.48921,-2.780619 122.28306,-2.427935 l 116.5344,0.354939 4.48871,3.201425 c 7.60378,5.423157 9.44843,11.568512 9.48201,31.588862 0.0263,15.68473 -0.28241,18.04639 -3.04104,23.26302 -2.09856,3.96844 -4.90793,6.77781 -8.87637,8.87637 L 519.58059,144 405.45697,143.88547 c -62.768,-0.0631 -115.8674,-0.63623 -117.99868,-1.27376 z m 229.58539,-34.2783 0.377,-15.000003 H 404.71035 292.00001 v 14.444443 c 0,7.94445 0.4034,14.84785 0.89645,15.3409 0.49306,0.49305 51.04306,0.74305 112.33334,0.55556 l 111.43688,-0.3409 z"
         id="path2024" />
    </g>
  </g>
</svg>
