<?xml version="1.0" encoding="UTF-8" standalone="no"?>
<!-- Created with Inkscape (http://www.inkscape.org/) -->

<svg
   version="1.1"
   id="svg1242"
   width="512"
   height="512"
   viewBox="0 0 512 512"
   xmlns="http://www.w3.org/2000/svg"
   xmlns:svg="http://www.w3.org/2000/svg">
  <defs
     id="defs1246" />
  <g
     id="g1248">
    <g
       id="g1252">
      <path
         style="fill:#fad56e"
         d="m 363,504.53911 c -0.825,-0.19739 -4.875,-0.89919 -9,-1.55956 -17.83624,-2.85539 -39.0201,-11.93756 -54.37526,-23.31235 -28.05167,-20.78011 -47.7102,-54.19147 -51.36661,-87.30197 L 247.5,385.5 127.5,385 7.5,384.5 V 224 63.5 l 191.52497,-0.252548 191.52496,-0.252549 1.21135,-7.747451 C 396.00225,28.123279 420.82224,6.9492829 448.29922,7.0147811 475.64178,7.0799588 500.31996,28.586297 504.22209,55.75 c 2.53366,17.637457 -3.16301,35.086663 -15.56149,47.66562 -7.16465,7.26893 -13.1496,10.98936 -23.62771,14.68769 l -7.53289,2.6588 -0.2562,77.24029 -0.2562,77.24028 8.33628,8.12866 c 18.97561,18.50301 31.65746,41.51518 37.2697,67.62866 2.5542,11.88458 2.59231,38.22163 0.072,49.76818 C 491.27472,452.95479 452.94025,491.34491 401,502.58137 c -6.76495,1.46349 -34.16553,2.87515 -38,1.95774 z m 30,-69.1108 c 20.20528,-5.95508 36.45412,-22.32358 42.61448,-42.92831 2.44703,-8.18465 2.44703,-24.81535 0,-33 -6.2181,-20.79786 -22.31662,-36.89638 -43.11448,-43.11448 -8.18465,-2.44703 -24.81535,-2.44703 -33,0 -20.79786,6.2181 -36.89638,22.31662 -43.11448,43.11448 -2.44703,8.18465 -2.44703,24.81535 0,33 7.05372,23.59276 27.05487,41.14974 51.11448,44.8682 5.34964,0.8268 19.85748,-0.27687 25.5,-1.93989 z m -30.60172,-11.31763 c -16.43502,-4.70512 -29.96449,-18.36514 -34.54287,-34.87621 -7.31169,-26.36823 8.4645,-54.04591 35.00011,-61.40401 36.96142,-10.2491 71.54903,24.40339 61.28907,61.40401 -7.3557,26.52693 -35.4606,42.40144 -61.74631,34.87621 z M 388.5612,404.08246 C 399.84724,399.105 406.43787,388.75177 406.43787,376 c 0,-9.21974 -2.65556,-15.83922 -8.74598,-21.80098 -6.24846,-6.11645 -12.61546,-8.65765 -21.69189,-8.65765 -9.07643,0 -15.44343,2.5412 -21.69189,8.65765 -6.08212,5.95364 -8.7436,12.58 -8.75636,21.80098 -0.0123,8.88736 2.49661,15.37665 8.2476,21.33242 8.99129,9.31144 22.85156,12.00283 34.76185,6.75004 z M 246.93616,364.66792 c 0.48766,-1.28265 1.03186,-4.32015 1.20934,-6.75 L 248.46819,353.5 239.9841,353 231.5,352.5 V 304 255.5 h 24.5 24.5 l 0.27539,15.75 c 0.15147,8.6625 0.53448,15.75 0.85114,15.75 0.31665,0 3.76525,-2.953 7.66354,-6.56222 13.02704,-12.06104 28.36362,-21.03749 46.03844,-26.94614 C 349.16038,248.86768 360.86178,247 376,247 c 19.48455,0 36.69827,3.70678 53.89083,11.60477 4.06496,1.86738 7.78048,3.39523 8.25671,3.39523 0.48209,0 0.75209,-31.32996 0.60917,-70.68473 L 438.5,120.63055 l -5,-1.2685 c -2.75,-0.69767 -8.13683,-2.87419 -11.97074,-4.8367 l -6.97073,-3.56822 -23.26507,23.24927 -23.26507,23.24927 0.626,6.7356 c 0.91169,9.80934 -0.85718,15.12728 -7.09903,21.34261 -5.5801,5.5564 -10.26077,7.46612 -18.29926,7.46612 -9.26288,0 -18.0795,-5.84664 -22.28692,-14.77932 -1.92687,-4.0909 -2.14785,-5.79975 -1.65642,-12.80911 l 0.56708,-8.08844 -6.44516,-6.38787 -6.44516,-6.38787 -10.74476,-0.0792 -10.74476,-0.0792 -18.73597,18.53158 -18.73596,18.53157 0.62616,6.73732 c 0.91186,9.81122 -0.85665,15.12864 -7.09887,21.34434 -5.5801,5.5564 -10.26077,7.46612 -18.29926,7.46612 -22.1514,0 -32.75643,-28.47398 -16.18203,-43.44795 6.14318,-5.55 10.13441,-6.82368 19.42593,-6.1992 l 8,0.53768 18.6887,-18.62415 18.68869,-18.62416 -0.53387,-8.07111 c -0.40656,-6.14641 -0.14805,-8.97068 1.08403,-11.84339 2.30118,-5.3654 7.89299,-11.188082 13.09087,-13.631376 5.381,-2.529369 14.56668,-2.794389 19.88173,-0.573617 5.29285,2.211495 11.07869,7.838553 13.63067,13.256593 1.92687,4.0909 2.14785,5.79975 1.65642,12.80911 l -0.56708,8.08844 6.42692,6.36979 6.42692,6.36979 11.01574,0.0468 11.01575,0.0469 23.00804,-23.02368 23.00804,-23.023672 -4.20689,-8.234052 L 392.6078,80.994684 209.0539,81.247342 25.5,81.5 25.243,223 c -0.14135,77.825 -0.04297,142.0625 0.218615,142.75 0.376515,0.98955 23.407171,1.25 110.531755,1.25 H 246.0495 Z M 39.463627,351.76581 c -0.268009,-0.69842 -0.369466,-19.04395 -0.225459,-40.76783 L 39.5,271.5 H 64 88.5 v 40.5 40.5 l -24.274541,0.26783 c -18.89724,0.20851 -24.382486,-0.0135 -24.761832,-1.00202 z m 63.997243,-0.007 c -0.26952,-0.70237 -0.37098,-15.4479 -0.22545,-32.76784 L 103.5,287.5 h 24.5 24.5 v 32.5 32.5 l -24.27454,0.26783 c -18.96773,0.20929 -24.38167,-0.0113 -24.76459,-1.00919 z m 64.00541,0.009 C 167.19973,351.07053 167.09827,321.925 167.24082,287 L 167.5,223.5 h 24.5 24.5 v 64.5 64.5 l -24.27454,0.26783 c -18.87797,0.2083 -24.38228,-0.014 -24.75918,-1 z M 39.437265,207.69711 c -0.292159,-0.76135 -0.397563,-4.71717 -0.234232,-8.79069 L 39.5,191.5 h 8.5 8.5 v 8.5 8.5 l -8.265768,0.2907 c -6.321186,0.22231 -8.390736,-0.035 -8.796967,-1.09359 z m 31.987583,-0.0324 c -0.28533,-0.74355 -0.385146,-4.68481 -0.221815,-8.75833 L 71.5,191.5 h 56.5 56.5 v 8.5 8.5 l -56.27818,0.25834 c -46.540528,0.21364 -56.367953,0.0244 -56.796972,-1.09359 z m -31.987583,-31.9676 c -0.292159,-0.76135 -0.397563,-4.71717 -0.234232,-8.79069 L 39.5,159.5 h 8.5 8.5 v 8.5 8.5 l -8.265768,0.2907 c -6.321186,0.22231 -8.390736,-0.035 -8.796967,-1.09359 z m 31.987583,-0.0324 c -0.28533,-0.74355 -0.385146,-4.68481 -0.221815,-8.75833 L 71.5,159.5 h 56.5 56.5 v 8.5 8.5 l -56.27818,0.25834 c -46.540528,0.21364 -56.367953,0.0244 -56.796972,-1.09359 z m -31.987583,-31.9676 c -0.292159,-0.76135 -0.397563,-4.71717 -0.234232,-8.79069 L 39.5,127.5 h 8.5 8.5 v 8.5 8.5 l -8.265768,0.2907 c -6.321186,0.22231 -8.390736,-0.035 -8.796967,-1.09359 z m 31.987583,-0.0324 c -0.28533,-0.74355 -0.385146,-4.68481 -0.221815,-8.75833 L 71.5,127.5 h 56.5 56.5 v 8.5 8.5 l -56.27818,0.25834 c -46.540528,0.21364 -56.367953,0.0244 -56.796972,-1.09359 z m -31.987583,-31.9676 c -0.292159,-0.76135 -0.397563,-4.71717 -0.234232,-8.79069 L 39.5,95.5 h 8.5 8.5 v 8.5 8.5 l -8.265768,0.2907 c -6.321186,0.22231 -8.390736,-0.035 -8.796967,-1.09359 z m 31.987583,-0.0324 c -0.28533,-0.74355 -0.385146,-4.68481 -0.221815,-8.75833 L 71.5,95.5 h 56.5 56.5 v 8.5 8.5 l -56.27818,0.25834 c -46.540528,0.21364 -56.367953,0.0244 -56.796972,-1.09359 z"
         id="path1266" />
      <path
         style="fill:#b1da7d"
         d="m 363,504.53911 c -0.825,-0.19739 -4.875,-0.89919 -9,-1.55956 -17.83624,-2.85539 -39.0201,-11.93756 -54.37526,-23.31235 -28.05167,-20.78011 -47.7102,-54.19147 -51.36661,-87.30197 L 247.5,385.5 127.5,385 7.5,384.5 V 224 63.5 l 191.52497,-0.252548 191.52496,-0.252549 1.21135,-7.747451 C 396.00225,28.123279 420.82224,6.9492829 448.29922,7.0147811 475.64178,7.0799588 500.31996,28.586297 504.22209,55.75 c 2.53366,17.637457 -3.16301,35.086663 -15.56149,47.66562 -7.16465,7.26893 -13.1496,10.98936 -23.62771,14.68769 l -7.53289,2.6588 -0.2562,77.24029 -0.2562,77.24028 8.33628,8.12866 c 18.97561,18.50301 31.65746,41.51518 37.2697,67.62866 2.5542,11.88458 2.59231,38.22163 0.072,49.76818 C 491.27472,452.95479 452.94025,491.34491 401,502.58137 c -6.76495,1.46349 -34.16553,2.87515 -38,1.95774 z m 37.30038,-20.51705 c 17.88227,-3.97651 36.16667,-13.48481 49.7908,-25.89235 C 457.71468,451.18697 466,441.53498 466,439.59673 466,438.46898 443.42326,425 441.53293,425 c -0.46275,0 -3.29546,2.71187 -6.29492,6.02638 -6.65252,7.35127 -15.46982,13.76389 -25.32676,18.41956 -11.96139,5.64966 -18.58699,7.02153 -33.91125,7.02153 -15.32426,0 -21.94986,-1.37187 -33.91125,-7.02153 -9.85694,-4.65567 -18.67424,-11.06829 -25.32676,-18.41956 C 313.76253,427.71187 310.913,425 310.42971,425 c -1.87801,0 -24.42771,13.56755 -24.42868,14.69808 -5.7e-4,0.65895 2.17329,3.80895 4.83079,7 17.77034,21.33815 43.16951,35.3285 71.34445,39.2979 9.07405,1.27838 27.87644,0.30487 38.12411,-1.97392 z M 393,435.42831 c 20.20528,-5.95508 36.45412,-22.32358 42.61448,-42.92831 2.44703,-8.18465 2.44703,-24.81535 0,-33 -6.2181,-20.79786 -22.31662,-36.89638 -43.11448,-43.11448 -8.18465,-2.44703 -24.81535,-2.44703 -33,0 -20.79786,6.2181 -36.89638,22.31662 -43.11448,43.11448 -2.44703,8.18465 -2.44703,24.81535 0,33 7.05372,23.59276 27.05487,41.14974 51.11448,44.8682 5.34964,0.8268 19.85748,-0.27687 25.5,-1.93989 z m -30.60172,-11.31763 c -16.43502,-4.70512 -29.96449,-18.36514 -34.54287,-34.87621 -7.31169,-26.36823 8.4645,-54.04591 35.00011,-61.40401 36.96142,-10.2491 71.54903,24.40339 61.28907,61.40401 -7.3557,26.52693 -35.4606,42.40144 -61.74631,34.87621 z M 388.5612,404.08246 C 399.84724,399.105 406.43787,388.75177 406.43787,376 c 0,-9.21974 -2.65556,-15.83922 -8.74598,-21.80098 -6.24846,-6.11645 -12.61546,-8.65765 -21.69189,-8.65765 -9.07643,0 -15.44343,2.5412 -21.69189,8.65765 -6.08212,5.95364 -8.7436,12.58 -8.75636,21.80098 -0.0123,8.88736 2.49661,15.37665 8.2476,21.33242 8.99129,9.31144 22.85156,12.00283 34.76185,6.75004 z M 246.93616,364.66792 c 0.48766,-1.28265 1.03186,-4.32015 1.20934,-6.75 L 248.46819,353.5 239.9841,353 231.5,352.5 V 304 255.5 h 24.5 24.5 l 0.27539,15.75 c 0.15147,8.6625 0.53448,15.75 0.85114,15.75 0.31665,0 3.76525,-2.953 7.66354,-6.56222 13.02704,-12.06104 28.36362,-21.03749 46.03844,-26.94614 C 349.16038,248.86768 360.86178,247 376,247 c 19.48455,0 36.69827,3.70678 53.89083,11.60477 4.06496,1.86738 7.78048,3.39523 8.25671,3.39523 0.48209,0 0.75209,-31.32996 0.60917,-70.68473 L 438.5,120.63055 l -5,-1.2685 c -2.75,-0.69767 -8.13683,-2.87419 -11.97074,-4.8367 l -6.97073,-3.56822 -23.26507,23.24927 -23.26507,23.24927 0.626,6.7356 c 0.91169,9.80934 -0.85718,15.12728 -7.09903,21.34261 -5.5801,5.5564 -10.26077,7.46612 -18.29926,7.46612 -9.26288,0 -18.0795,-5.84664 -22.28692,-14.77932 -1.92687,-4.0909 -2.14785,-5.79975 -1.65642,-12.80911 l 0.56708,-8.08844 -6.44516,-6.38787 -6.44516,-6.38787 -10.74476,-0.0792 -10.74476,-0.0792 -18.73597,18.53158 -18.73596,18.53157 0.62616,6.73732 c 0.91186,9.81122 -0.85665,15.12864 -7.09887,21.34434 -5.5801,5.5564 -10.26077,7.46612 -18.29926,7.46612 -22.1514,0 -32.75643,-28.47398 -16.18203,-43.44795 6.14318,-5.55 10.13441,-6.82368 19.42593,-6.1992 l 8,0.53768 18.6887,-18.62415 18.68869,-18.62416 -0.53387,-8.07111 c -0.40656,-6.14641 -0.14805,-8.97068 1.08403,-11.84339 2.30118,-5.3654 7.89299,-11.188082 13.09087,-13.631376 5.381,-2.529369 14.56668,-2.794389 19.88173,-0.573617 5.29285,2.211495 11.07869,7.838553 13.63067,13.256593 1.92687,4.0909 2.14785,5.79975 1.65642,12.80911 l -0.56708,8.08844 6.42692,6.36979 6.42692,6.36979 11.01574,0.0468 11.01575,0.0469 23.00804,-23.02368 23.00804,-23.023672 -4.20689,-8.234052 L 392.6078,80.994684 209.0539,81.247342 25.5,81.5 25.243,223 c -0.14135,77.825 -0.04297,142.0625 0.218615,142.75 0.376515,0.98955 23.407171,1.25 110.531755,1.25 H 246.0495 Z M 39.463627,351.76581 c -0.268009,-0.69842 -0.369466,-19.04395 -0.225459,-40.76783 L 39.5,271.5 H 64 88.5 v 40.5 40.5 l -24.274541,0.26783 c -18.89724,0.20851 -24.382486,-0.0135 -24.761832,-1.00202 z M 70.5,312 V 289.5 H 64 57.5 l -0.270543,21.47527 c -0.148799,11.8114 -0.04212,22.07053 0.237055,22.79806 0.364093,0.94881 2.278221,1.23851 6.770543,1.02472 L 70.5,334.5 Z m 32.96087,39.75864 c -0.26952,-0.70237 -0.37098,-15.4479 -0.22545,-32.76784 L 103.5,287.5 h 24.5 24.5 v 32.5 32.5 l -24.27454,0.26783 c -18.96773,0.20929 -24.38167,-0.0113 -24.76459,-1.00919 z M 134.5,320 v -14.5 h -6.5 -6.5 l -0.28041,13.44955 c -0.15423,7.39725 -0.0476,14.05637 0.23705,14.79805 0.37583,0.97939 2.23177,1.26692 6.78042,1.05045 L 134.5,334.5 Z m 32.96628,31.76783 C 167.19973,351.07053 167.09827,321.925 167.24082,287 L 167.5,223.5 h 24.5 24.5 v 64.5 64.5 l -24.27454,0.26783 c -18.87797,0.2083 -24.38228,-0.014 -24.75918,-1 z M 198.5,288 v -46.5 h -6.5 -6.5 l -0.26068,45.5 c -0.14338,25.025 -0.0367,46.08412 0.23705,46.79805 0.35256,0.91945 2.32447,1.21112 6.76069,1 L 198.5,334.5 Z M 39.437265,207.69711 c -0.292159,-0.76135 -0.397563,-4.71717 -0.234232,-8.79069 L 39.5,191.5 h 8.5 8.5 v 8.5 8.5 l -8.265768,0.2907 c -6.321186,0.22231 -8.390736,-0.035 -8.796967,-1.09359 z m 31.987583,-0.0324 c -0.28533,-0.74355 -0.385146,-4.68481 -0.221815,-8.75833 L 71.5,191.5 h 56.5 56.5 v 8.5 8.5 l -56.27818,0.25834 c -46.540528,0.21364 -56.367953,0.0244 -56.796972,-1.09359 z m -31.987583,-31.9676 c -0.292159,-0.76135 -0.397563,-4.71717 -0.234232,-8.79069 L 39.5,159.5 h 8.5 8.5 v 8.5 8.5 l -8.265768,0.2907 c -6.321186,0.22231 -8.390736,-0.035 -8.796967,-1.09359 z m 31.987583,-0.0324 c -0.28533,-0.74355 -0.385146,-4.68481 -0.221815,-8.75833 L 71.5,159.5 h 56.5 56.5 v 8.5 8.5 l -56.27818,0.25834 c -46.540528,0.21364 -56.367953,0.0244 -56.796972,-1.09359 z m -31.987583,-31.9676 c -0.292159,-0.76135 -0.397563,-4.71717 -0.234232,-8.79069 L 39.5,127.5 h 8.5 8.5 v 8.5 8.5 l -8.265768,0.2907 c -6.321186,0.22231 -8.390736,-0.035 -8.796967,-1.09359 z m 31.987583,-0.0324 c -0.28533,-0.74355 -0.385146,-4.68481 -0.221815,-8.75833 L 71.5,127.5 h 56.5 56.5 v 8.5 8.5 l -56.27818,0.25834 c -46.540528,0.21364 -56.367953,0.0244 -56.796972,-1.09359 z m -31.987583,-31.9676 c -0.292159,-0.76135 -0.397563,-4.71717 -0.234232,-8.79069 L 39.5,95.5 h 8.5 8.5 v 8.5 8.5 l -8.265768,0.2907 c -6.321186,0.22231 -8.390736,-0.035 -8.796967,-1.09359 z m 31.987583,-0.0324 c -0.28533,-0.74355 -0.385146,-4.68481 -0.221815,-8.75833 L 71.5,95.5 h 56.5 56.5 v 8.5 8.5 l -56.27818,0.25834 c -46.540528,0.21364 -56.367953,0.0244 -56.796972,-1.09359 z M 258.18265,323.5 263.0375,312.5 262.76875,293 262.5,273.5 h -6.5 -6.5 l -0.26548,29.48846 c -0.14602,16.21865 -0.0349,30.08941 0.24697,30.82391 1.31654,3.43084 4.08231,0.15293 8.70116,-10.31237 z"
         id="path1264" />
      <path
         style="fill:#fb856b"
         d="m 363,504.53911 c -0.825,-0.19739 -4.875,-0.89919 -9,-1.55956 -17.83624,-2.85539 -39.0201,-11.93756 -54.37526,-23.31235 -28.05167,-20.78011 -47.7102,-54.19147 -51.36661,-87.30197 L 247.5,385.5 127.5,385 7.5,384.5 V 224 63.5 l 191.52497,-0.252548 191.52496,-0.252549 1.21135,-7.747451 C 396.00225,28.123279 420.82224,6.9492829 448.29922,7.0147811 475.64178,7.0799588 500.31996,28.586297 504.22209,55.75 c 2.53366,17.637457 -3.16301,35.086663 -15.56149,47.66562 -7.16465,7.26893 -13.1496,10.98936 -23.62771,14.68769 l -7.53289,2.6588 -0.2562,77.24029 -0.2562,77.24028 8.33628,8.12866 c 18.97561,18.50301 31.65746,41.51518 37.2697,67.62866 2.5542,11.88458 2.59231,38.22163 0.072,49.76818 C 491.27472,452.95479 452.94025,491.34491 401,502.58137 c -6.76495,1.46349 -34.16553,2.87515 -38,1.95774 z m 29.30348,-19.02858 c 17.99532,-2.71245 35.37367,-9.89735 49.8017,-20.59001 10.84571,-8.03779 25.6685,-24.48017 23.77544,-26.37324 C 464.5167,437.18336 442.68291,425 441.60256,425 c -0.70922,0 -3.19882,2.26436 -5.53245,5.0319 -8.67047,10.28267 -25.5696,20.65958 -40.07011,24.60507 -4.71584,1.28314 -10.20557,1.7686 -20,1.7686 -9.79443,0 -15.28416,-0.48546 -20,-1.7686 -14.50051,-3.94549 -31.39964,-14.3224 -40.07011,-24.60507 -2.33363,-2.76754 -4.82323,-5.0319 -5.53245,-5.0319 -1.08035,0 -22.91414,12.18336 -24.27806,13.54728 -1.89306,1.89307 12.92973,18.33545 23.77544,26.37324 23.71344,17.57411 53.32793,24.97336 82.40866,20.59001 z M 393,435.42831 c 20.20528,-5.95508 36.45412,-22.32358 42.61448,-42.92831 2.44703,-8.18465 2.44703,-24.81535 0,-33 -6.2181,-20.79786 -22.31662,-36.89638 -43.11448,-43.11448 -8.18465,-2.44703 -24.81535,-2.44703 -33,0 -20.79786,6.2181 -36.89638,22.31662 -43.11448,43.11448 -2.44703,8.18465 -2.44703,24.81535 0,33 7.05372,23.59276 27.05487,41.14974 51.11448,44.8682 5.34964,0.8268 19.85748,-0.27687 25.5,-1.93989 z m -30.60172,-11.31763 c -16.43502,-4.70512 -29.96449,-18.36514 -34.54287,-34.87621 -7.31169,-26.36823 8.4645,-54.04591 35.00011,-61.40401 36.96142,-10.2491 71.54903,24.40339 61.28907,61.40401 -7.3557,26.52693 -35.4606,42.40144 -61.74631,34.87621 z M 388.5612,404.08246 C 399.84724,399.105 406.43787,388.75177 406.43787,376 c 0,-9.21974 -2.65556,-15.83922 -8.74598,-21.80098 -6.24846,-6.11645 -12.61546,-8.65765 -21.69189,-8.65765 -9.07643,0 -15.44343,2.5412 -21.69189,8.65765 -6.08212,5.95364 -8.7436,12.58 -8.75636,21.80098 -0.0123,8.88736 2.49661,15.37665 8.2476,21.33242 8.99129,9.31144 22.85156,12.00283 34.76185,6.75004 z m -94.3112,8.74746 c 3.7125,-2.15498 6.75,-4.50284 6.75,-5.21748 0,-0.71464 -0.85982,-3.79844 -1.9107,-6.8529 -4.54248,-13.20292 -5.17283,-30.78345 -1.6069,-44.81628 2.32317,-9.14225 9.51242,-23.36446 15.53875,-30.73973 10.85154,-13.28054 28.38517,-24.36515 43.97885,-27.80305 4.125,-0.90943 8.0625,-1.80745 8.75,-1.99561 0.92765,-0.25388 1.25,-4.12512 1.25,-15.01158 v -14.66948 l -6.47562,0.66345 c -15.55885,1.59405 -36.02207,9.91386 -50.11002,20.37342 -30.27326,22.4763 -47.26234,58.47199 -45.03245,95.41273 0.71064,11.77268 4.16685,26.97692 8.07077,35.5042 l 2.52885,5.52373 5.75923,-3.22664 c 3.16758,-1.77465 8.79674,-4.98981 12.50924,-7.14478 z m -47.31384,-48.162 c 0.48766,-1.28265 1.03186,-4.32015 1.20934,-6.75 L 248.46819,353.5 239.9841,353 231.5,352.5 V 304 255.5 h 24.5 24.5 l 0.27539,15.75 c 0.15147,8.6625 0.53448,15.75 0.85114,15.75 0.31665,0 3.76525,-2.953 7.66354,-6.56222 13.02704,-12.06104 28.36362,-21.03749 46.03844,-26.94614 C 349.16038,248.86768 360.86178,247 376,247 c 19.48455,0 36.69827,3.70678 53.89083,11.60477 4.06496,1.86738 7.78048,3.39523 8.25671,3.39523 0.48209,0 0.75209,-31.32996 0.60917,-70.68473 L 438.5,120.63055 l -5,-1.2685 c -2.75,-0.69767 -8.13683,-2.87419 -11.97074,-4.8367 l -6.97073,-3.56822 -23.26507,23.24927 -23.26507,23.24927 0.626,6.7356 c 0.91169,9.80934 -0.85718,15.12728 -7.09903,21.34261 -5.5801,5.5564 -10.26077,7.46612 -18.29926,7.46612 -9.26288,0 -18.0795,-5.84664 -22.28692,-14.77932 -1.92687,-4.0909 -2.14785,-5.79975 -1.65642,-12.80911 l 0.56708,-8.08844 -6.44516,-6.38787 -6.44516,-6.38787 -10.74476,-0.0792 -10.74476,-0.0792 -18.73597,18.53158 -18.73596,18.53157 0.62616,6.73732 c 0.91186,9.81122 -0.85665,15.12864 -7.09887,21.34434 -5.5801,5.5564 -10.26077,7.46612 -18.29926,7.46612 -22.1514,0 -32.75643,-28.47398 -16.18203,-43.44795 6.14318,-5.55 10.13441,-6.82368 19.42593,-6.1992 l 8,0.53768 18.6887,-18.62415 18.68869,-18.62416 -0.53387,-8.07111 c -0.40656,-6.14641 -0.14805,-8.97068 1.08403,-11.84339 2.30118,-5.3654 7.89299,-11.188082 13.09087,-13.631376 5.381,-2.529369 14.56668,-2.794389 19.88173,-0.573617 5.29285,2.211495 11.07869,7.838553 13.63067,13.256593 1.92687,4.0909 2.14785,5.79975 1.65642,12.80911 l -0.56708,8.08844 6.42692,6.36979 6.42692,6.36979 11.01574,0.0468 11.01575,0.0469 23.00804,-23.02368 23.00804,-23.023672 -4.20689,-8.234052 L 392.6078,80.994684 209.0539,81.247342 25.5,81.5 25.243,223 c -0.14135,77.825 -0.04297,142.0625 0.218615,142.75 0.376515,0.98955 23.407171,1.25 110.531755,1.25 H 246.0495 Z M 39.463627,351.76581 c -0.268009,-0.69842 -0.369466,-19.04395 -0.225459,-40.76783 L 39.5,271.5 H 64 88.5 v 40.5 40.5 l -24.274541,0.26783 c -18.89724,0.20851 -24.382486,-0.0135 -24.761832,-1.00202 z M 71,312 v -23 h -7 -7 v 23 23 h 7 7 z m 32.46087,39.75864 c -0.26952,-0.70237 -0.37098,-15.4479 -0.22545,-32.76784 L 103.5,287.5 h 24.5 24.5 v 32.5 32.5 l -24.27454,0.26783 c -18.96773,0.20929 -24.38167,-0.0113 -24.76459,-1.00919 z M 135,320 v -15 h -7 -7 v 15 15 h 7 7 z m 32.46628,31.76783 C 167.19973,351.07053 167.09827,321.925 167.24082,287 L 167.5,223.5 h 24.5 24.5 v 64.5 64.5 l -24.27454,0.26783 c -18.87797,0.2083 -24.38228,-0.014 -24.75918,-1 z M 199,288 v -47 h -7 -7 v 47 47 h 7 7 z M 39.437265,207.69711 c -0.292159,-0.76135 -0.397563,-4.71717 -0.234232,-8.79069 L 39.5,191.5 h 8.5 8.5 v 8.5 8.5 l -8.265768,0.2907 c -6.321186,0.22231 -8.390736,-0.035 -8.796967,-1.09359 z m 31.987583,-0.0324 c -0.28533,-0.74355 -0.385146,-4.68481 -0.221815,-8.75833 L 71.5,191.5 h 56.5 56.5 v 8.5 8.5 l -56.27818,0.25834 c -46.540528,0.21364 -56.367953,0.0244 -56.796972,-1.09359 z m -31.987583,-31.9676 c -0.292159,-0.76135 -0.397563,-4.71717 -0.234232,-8.79069 L 39.5,159.5 h 8.5 8.5 v 8.5 8.5 l -8.265768,0.2907 c -6.321186,0.22231 -8.390736,-0.035 -8.796967,-1.09359 z m 31.987583,-0.0324 c -0.28533,-0.74355 -0.385146,-4.68481 -0.221815,-8.75833 L 71.5,159.5 h 56.5 56.5 v 8.5 8.5 l -56.27818,0.25834 c -46.540528,0.21364 -56.367953,0.0244 -56.796972,-1.09359 z m -31.987583,-31.9676 c -0.292159,-0.76135 -0.397563,-4.71717 -0.234232,-8.79069 L 39.5,127.5 h 8.5 8.5 v 8.5 8.5 l -8.265768,0.2907 c -6.321186,0.22231 -8.390736,-0.035 -8.796967,-1.09359 z m 31.987583,-0.0324 c -0.28533,-0.74355 -0.385146,-4.68481 -0.221815,-8.75833 L 71.5,127.5 h 56.5 56.5 v 8.5 8.5 l -56.27818,0.25834 c -46.540528,0.21364 -56.367953,0.0244 -56.796972,-1.09359 z m -31.987583,-31.9676 c -0.292159,-0.76135 -0.397563,-4.71717 -0.234232,-8.79069 L 39.5,95.5 h 8.5 8.5 v 8.5 8.5 l -8.265768,0.2907 c -6.321186,0.22231 -8.390736,-0.035 -8.796967,-1.09359 z m 31.987583,-0.0324 c -0.28533,-0.74355 -0.385146,-4.68481 -0.221815,-8.75833 L 71.5,95.5 h 56.5 56.5 v 8.5 8.5 l -56.27818,0.25834 c -46.540528,0.21364 -56.367953,0.0244 -56.796972,-1.09359 z M 255.51064,330.25 c 0.9803,-2.6125 3.06644,-7.32467 4.63586,-10.47148 L 263,314.05703 V 293.52852 273 h -7 -7 v 31 31 h 2.36414 c 1.90356,0 2.71138,-0.9254 4.1465,-4.75 z"
         id="path1262" />
      <path
         style="fill:#9b9c9f"
         d="m 363,504.53911 c -0.825,-0.19739 -4.875,-0.89919 -9,-1.55956 -17.83624,-2.85539 -39.0201,-11.93756 -54.37526,-23.31235 -28.05167,-20.78011 -47.7102,-54.19147 -51.36661,-87.30197 L 247.5,385.5 127.5,385 7.5,384.5 V 224 63.5 l 191.52497,-0.252548 191.52496,-0.252549 1.21135,-7.747451 C 396.00225,28.123279 420.82224,6.9492829 448.29922,7.0147811 475.64178,7.0799588 500.31996,28.586297 504.22209,55.75 c 2.53366,17.637457 -3.16301,35.086663 -15.56149,47.66562 -7.16465,7.26893 -13.1496,10.98936 -23.62771,14.68769 l -7.53289,2.6588 -0.2562,77.24029 -0.2562,77.24028 8.33628,8.12866 c 18.97561,18.50301 31.65746,41.51518 37.2697,67.62866 2.5542,11.88458 2.59231,38.22163 0.072,49.76818 C 491.27472,452.95479 452.94025,491.34491 401,502.58137 c -6.76495,1.46349 -34.16553,2.87515 -38,1.95774 z m 29.30348,-19.02858 c 17.99532,-2.71245 35.37367,-9.89735 49.8017,-20.59001 10.84571,-8.03779 25.6685,-24.48017 23.77544,-26.37324 C 464.5167,437.18336 442.68291,425 441.60256,425 c -0.70922,0 -3.19882,2.26436 -5.53245,5.0319 -8.67047,10.28267 -25.5696,20.65958 -40.07011,24.60507 -4.71584,1.28314 -10.20557,1.7686 -20,1.7686 -9.79443,0 -15.28416,-0.48546 -20,-1.7686 -14.50051,-3.94549 -31.39964,-14.3224 -40.07011,-24.60507 -2.33363,-2.76754 -4.82323,-5.0319 -5.53245,-5.0319 -1.08035,0 -22.91414,12.18336 -24.27806,13.54728 -1.89306,1.89307 12.92973,18.33545 23.77544,26.37324 23.71344,17.57411 53.32793,24.97336 82.40866,20.59001 z M 393,435.42831 c 20.20528,-5.95508 36.45412,-22.32358 42.61448,-42.92831 2.44703,-8.18465 2.44703,-24.81535 0,-33 -6.2181,-20.79786 -22.31662,-36.89638 -43.11448,-43.11448 -8.18465,-2.44703 -24.81535,-2.44703 -33,0 -20.79786,6.2181 -36.89638,22.31662 -43.11448,43.11448 -2.44703,8.18465 -2.44703,24.81535 0,33 7.05372,23.59276 27.05487,41.14974 51.11448,44.8682 5.34964,0.8268 19.85748,-0.27687 25.5,-1.93989 z m -30.60172,-11.31763 c -16.43502,-4.70512 -29.96449,-18.36514 -34.54287,-34.87621 -7.31169,-26.36823 8.4645,-54.04591 35.00011,-61.40401 36.96142,-10.2491 71.54903,24.40339 61.28907,61.40401 -7.3557,26.52693 -35.4606,42.40144 -61.74631,34.87621 z M 388.5612,404.08246 C 399.84724,399.105 406.43787,388.75177 406.43787,376 c 0,-9.21974 -2.65556,-15.83922 -8.74598,-21.80098 -6.24846,-6.11645 -12.61546,-8.65765 -21.69189,-8.65765 -9.07643,0 -15.44343,2.5412 -21.69189,8.65765 -6.08212,5.95364 -8.7436,12.58 -8.75636,21.80098 -0.0123,8.88736 2.49661,15.37665 8.2476,21.33242 8.99129,9.31144 22.85156,12.00283 34.76185,6.75004 z m -94.3112,8.74746 c 3.7125,-2.15498 6.75,-4.50284 6.75,-5.21748 0,-0.71464 -0.85982,-3.79844 -1.9107,-6.8529 -4.54248,-13.20292 -5.17283,-30.78345 -1.6069,-44.81628 2.32317,-9.14225 9.51242,-23.36446 15.53875,-30.73973 10.85154,-13.28054 28.38517,-24.36515 43.97885,-27.80305 4.125,-0.90943 8.0625,-1.80745 8.75,-1.99561 0.92765,-0.25388 1.25,-4.12512 1.25,-15.01158 v -14.66948 l -6.47562,0.66345 c -15.55885,1.59405 -36.02207,9.91386 -50.11002,20.37342 -30.27326,22.4763 -47.26234,58.47199 -45.03245,95.41273 0.71064,11.77268 4.16685,26.97692 8.07077,35.5042 l 2.52885,5.52373 5.75923,-3.22664 c 3.16758,-1.77465 8.79674,-4.98981 12.50924,-7.14478 z m 184.56791,2.74032 c 4.78092,-11.92461 6.40191,-20.40421 6.89532,-36.07024 0.56477,-17.93194 -1.53531,-30.36327 -7.62994,-45.16508 C 463.12552,298.00752 429.1248,271.6592 390.75,266.65738 L 386,266.03826 v 14.31832 14.31832 l 8.70555,2.14914 c 46.07891,11.37552 73.1186,58.86527 58.93955,103.5154 l -2.45715,7.7376 2.15603,1.37587 c 8.1654,5.21074 21.32527,12.46034 22.15602,12.20547 0.55,-0.16874 2.04306,-2.9084 3.31791,-6.08814 z M 246.93616,364.66792 c 0.48766,-1.28265 1.03186,-4.32015 1.20934,-6.75 L 248.46819,353.5 239.9841,353 231.5,352.5 V 304 255.5 h 24.5 24.5 l 0.27539,15.75 c 0.15147,8.6625 0.53448,15.75 0.85114,15.75 0.31665,0 3.76525,-2.953 7.66354,-6.56222 13.02704,-12.06104 28.36362,-21.03749 46.03844,-26.94614 C 349.16038,248.86768 360.86178,247 376,247 c 19.48455,0 36.69827,3.70678 53.89083,11.60477 4.06496,1.86738 7.78048,3.39523 8.25671,3.39523 0.48209,0 0.75209,-31.32996 0.60917,-70.68473 L 438.5,120.63055 l -5,-1.2685 c -2.75,-0.69767 -8.13683,-2.87419 -11.97074,-4.8367 l -6.97073,-3.56822 -23.26507,23.24927 -23.26507,23.24927 0.626,6.7356 c 0.91169,9.80934 -0.85718,15.12728 -7.09903,21.34261 -5.5801,5.5564 -10.26077,7.46612 -18.29926,7.46612 -9.26288,0 -18.0795,-5.84664 -22.28692,-14.77932 -1.92687,-4.0909 -2.14785,-5.79975 -1.65642,-12.80911 l 0.56708,-8.08844 -6.44516,-6.38787 -6.44516,-6.38787 -10.74476,-0.0792 -10.74476,-0.0792 -18.73597,18.53158 -18.73596,18.53157 0.62616,6.73732 c 0.91186,9.81122 -0.85665,15.12864 -7.09887,21.34434 -5.5801,5.5564 -10.26077,7.46612 -18.29926,7.46612 -22.1514,0 -32.75643,-28.47398 -16.18203,-43.44795 6.14318,-5.55 10.13441,-6.82368 19.42593,-6.1992 l 8,0.53768 18.6887,-18.62415 18.68869,-18.62416 -0.53387,-8.07111 c -0.40656,-6.14641 -0.14805,-8.97068 1.08403,-11.84339 2.30118,-5.3654 7.89299,-11.188082 13.09087,-13.631376 5.381,-2.529369 14.56668,-2.794389 19.88173,-0.573617 5.29285,2.211495 11.07869,7.838553 13.63067,13.256593 1.92687,4.0909 2.14785,5.79975 1.65642,12.80911 l -0.56708,8.08844 6.42692,6.36979 6.42692,6.36979 11.01574,0.0468 11.01575,0.0469 23.00804,-23.02368 23.00804,-23.023672 -4.20689,-8.234052 L 392.6078,80.994684 209.0539,81.247342 25.5,81.5 25.243,223 c -0.14135,77.825 -0.04297,142.0625 0.218615,142.75 0.376515,0.98955 23.407171,1.25 110.531755,1.25 H 246.0495 Z M 39.463627,351.76581 c -0.268009,-0.69842 -0.369466,-19.04395 -0.225459,-40.76783 L 39.5,271.5 H 64 88.5 v 40.5 40.5 l -24.274541,0.26783 c -18.89724,0.20851 -24.382486,-0.0135 -24.761832,-1.00202 z M 71,312 v -23 h -7 -7 v 23 23 h 7 7 z m 32.46087,39.75864 c -0.26952,-0.70237 -0.37098,-15.4479 -0.22545,-32.76784 L 103.5,287.5 h 24.5 24.5 v 32.5 32.5 l -24.27454,0.26783 c -18.96773,0.20929 -24.38167,-0.0113 -24.76459,-1.00919 z M 135,320 v -15 h -7 -7 v 15 15 h 7 7 z m 32.46628,31.76783 C 167.19973,351.07053 167.09827,321.925 167.24082,287 L 167.5,223.5 h 24.5 24.5 v 64.5 64.5 l -24.27454,0.26783 c -18.87797,0.2083 -24.38228,-0.014 -24.75918,-1 z M 199,288 v -47 h -7 -7 v 47 47 h 7 7 z M 39.437265,207.69711 c -0.292159,-0.76135 -0.397563,-4.71717 -0.234232,-8.79069 L 39.5,191.5 h 8.5 8.5 v 8.5 8.5 l -8.265768,0.2907 c -6.321186,0.22231 -8.390736,-0.035 -8.796967,-1.09359 z m 31.987583,-0.0324 c -0.28533,-0.74355 -0.385146,-4.68481 -0.221815,-8.75833 L 71.5,191.5 h 56.5 56.5 v 8.5 8.5 l -56.27818,0.25834 c -46.540528,0.21364 -56.367953,0.0244 -56.796972,-1.09359 z m -31.987583,-31.9676 c -0.292159,-0.76135 -0.397563,-4.71717 -0.234232,-8.79069 L 39.5,159.5 h 8.5 8.5 v 8.5 8.5 l -8.265768,0.2907 c -6.321186,0.22231 -8.390736,-0.035 -8.796967,-1.09359 z m 31.987583,-0.0324 c -0.28533,-0.74355 -0.385146,-4.68481 -0.221815,-8.75833 L 71.5,159.5 h 56.5 56.5 v 8.5 8.5 l -56.27818,0.25834 c -46.540528,0.21364 -56.367953,0.0244 -56.796972,-1.09359 z m -31.987583,-31.9676 c -0.292159,-0.76135 -0.397563,-4.71717 -0.234232,-8.79069 L 39.5,127.5 h 8.5 8.5 v 8.5 8.5 l -8.265768,0.2907 c -6.321186,0.22231 -8.390736,-0.035 -8.796967,-1.09359 z m 31.987583,-0.0324 c -0.28533,-0.74355 -0.385146,-4.68481 -0.221815,-8.75833 L 71.5,127.5 h 56.5 56.5 v 8.5 8.5 l -56.27818,0.25834 c -46.540528,0.21364 -56.367953,0.0244 -56.796972,-1.09359 z m -31.987583,-31.9676 c -0.292159,-0.76135 -0.397563,-4.71717 -0.234232,-8.79069 L 39.5,95.5 h 8.5 8.5 v 8.5 8.5 l -8.265768,0.2907 c -6.321186,0.22231 -8.390736,-0.035 -8.796967,-1.09359 z m 31.987583,-0.0324 c -0.28533,-0.74355 -0.385146,-4.68481 -0.221815,-8.75833 L 71.5,95.5 h 56.5 56.5 v 8.5 8.5 l -56.27818,0.25834 c -46.540528,0.21364 -56.367953,0.0244 -56.796972,-1.09359 z M 255.51064,330.25 c 0.9803,-2.6125 3.06644,-7.32467 4.63586,-10.47148 L 263,314.05703 V 293.52852 273 h -7 -7 v 31 31 h 2.36414 c 1.90356,0 2.71138,-0.9254 4.1465,-4.75 z M 228.17126,196.34501 C 231.96565,192.91114 229.29505,186 224.17375,186 c -5.349,0 -8.10651,6.20685 -4.51876,10.17126 2.06067,2.27701 6.1011,2.35945 8.51627,0.17375 z m 120,-24 c 2.27701,-2.06067 2.35945,-6.1011 0.17375,-8.51627 C 344.91114,160.03435 338,162.70495 338,167.82625 c 0,5.349 6.20685,8.10651 10.17126,4.51876 z m -48,-48 c 2.27701,-2.06067 2.35945,-6.1011 0.17375,-8.51627 C 296.91114,112.03435 290,114.70495 290,119.82625 c 0,5.349 6.20685,8.10651 10.17126,4.51876 z M 464.54323,98.522649 C 472.11042,94.82037 478.82138,88.102604 482.56038,80.487237 485.24642,75.016473 485.5,73.594245 485.5,64 485.5,54.405755 485.24642,52.983527 482.56038,47.512763 478.81607,39.886579 472.11342,33.183928 464.48724,29.439618 459.01647,26.753578 457.59425,26.5 448,26.5 c -9.59425,0 -11.01647,0.253578 -16.48724,2.939618 -7.59896,3.730943 -14.33155,10.446734 -18.00985,17.964902 -3.65542,7.471407 -4.5818,19.372415 -2.15718,27.712813 3.20927,11.039479 13.75284,21.916938 24.62307,25.402817 2.94449,0.94424 7.70238,1.357 13.5872,1.17873 7.62644,-0.23104 9.99229,-0.73243 14.98723,-3.176231 z"
         id="path1260" />
      <path
         style="fill:#c86955"
         d="m 359.63477,502.93527 c -9.87613,-1.36884 -21.74074,-4.5631 -31.36757,-8.44495 -40.70775,-16.41469 -70.94558,-53.86118 -77.89746,-96.46809 -0.85452,-5.23723 -1.7454,-10.53291 -1.97974,-11.76818 L 247.96393,384.00809 128.23196,383.75405 8.5,383.5 V 224 64.5 L 199.89363,64 391.28725,63.5 393.0953,54.569315 c 2.60632,-12.873682 6.7215,-20.571371 15.81862,-29.58968 8.75473,-8.67889 14.8289,-12.228413 25.67152,-15.0014869 9.7824,-2.5019155 17.04672,-2.5019155 26.82912,0 10.84262,2.7730739 16.91679,6.3225969 25.67152,15.0014869 10.92294,10.828306 16.87919,24.597646 16.87919,39.020365 0,13.165913 -5.78611,27.528292 -15.1024,37.48744 -7.49355,8.01062 -13.83301,12.08926 -24.19331,15.5653 l -8.16956,2.74102 -0.25606,77.97402 -0.25607,77.97403 8.1035,7.87909 c 19.53334,18.99243 31.88801,41.48426 37.56033,68.3791 2.47342,11.72748 2.47584,36.25251 0.005,48 -5.77534,27.45565 -18.26405,49.99845 -38.10262,68.7773 -17.92418,16.96673 -38.56587,27.68107 -63.05381,32.72888 -9.6242,1.98389 -31.3745,2.74451 -40.86523,1.42909 z m 32.66871,-17.42474 c 17.99532,-2.71245 35.37367,-9.89735 49.8017,-20.59001 10.84571,-8.03779 25.6685,-24.48017 23.77544,-26.37324 C 464.5167,437.18336 442.68291,425 441.60256,425 c -0.70922,0 -3.19882,2.26436 -5.53245,5.0319 -8.67047,10.28267 -25.5696,20.65958 -40.07011,24.60507 -4.71584,1.28314 -10.20557,1.7686 -20,1.7686 -9.79443,0 -15.28416,-0.48546 -20,-1.7686 -14.50051,-3.94549 -31.39964,-14.3224 -40.07011,-24.60507 -2.33363,-2.76754 -4.82323,-5.0319 -5.53245,-5.0319 -1.08035,0 -22.91414,12.18336 -24.27806,13.54728 -1.89306,1.89307 12.92973,18.33545 23.77544,26.37324 23.71344,17.57411 53.32793,24.97336 82.40866,20.59001 z m -5.07049,-46.95911 c 26.50136,-4.72523 47.12228,-25.98715 51.5641,-53.16696 1.37819,-8.43323 1.37819,-10.33569 0,-18.76892 -4.57995,-28.02509 -25.38754,-48.83268 -53.41263,-53.41263 -8.48061,-1.38593 -10.31412,-1.38171 -19.03693,0.0438 -27.73685,4.53285 -48.58515,25.46911 -53.14462,53.36883 -1.38593,8.48061 -1.38171,10.31412 0.0438,19.03693 3.48776,21.34187 17.05899,39.22844 36.57318,48.20261 7.31622,3.36458 18.20166,5.91628 25.68011,6.01978 2.2,0.0304 7.47985,-0.5651 11.73299,-1.32344 z m -24.15026,-16.07693 c -16.64683,-4.66811 -30.67307,-19.56229 -34.14227,-36.25501 -1.60279,-7.7121 -0.67207,-20.33795 2.02442,-27.4625 4.48343,-11.84599 15.71779,-23.10798 27.84324,-27.91173 8.24334,-3.26578 26.14042,-3.26578 34.38376,0 12.05808,4.77706 23.18322,15.88946 27.94374,27.91173 3.28523,8.29656 3.29516,26.16567 0.0191,34.4349 -4.79837,12.11186 -16.031,23.32506 -27.91173,27.86345 -7.54247,2.8812 -22.44579,3.58246 -30.16029,1.41916 z M 389.5,404.92042 c 6.32581,-3.00185 12.34811,-8.99352 15.49924,-15.42042 3.51983,-7.17888 3.51983,-19.82112 0,-27 -3.1258,-6.37523 -9.12401,-12.37344 -15.49924,-15.49924 -7.17888,-3.51983 -19.82112,-3.51983 -27,0 -25.99443,12.74516 -23.82745,49.46029 3.50539,59.39188 6.31088,2.2931 16.96704,1.62537 23.49461,-1.47222 z m -99.80707,10.92896 c 9.5443,-5.50142 12.26245,-7.51949 11.7854,-8.75 -4.03594,-10.41042 -5.7029,-19.27555 -5.75377,-30.59938 -0.0669,-14.88409 1.65732,-22.29106 8.49395,-36.48927 4.55528,-9.46034 6.04297,-11.47761 15.16611,-20.56489 9.02496,-8.9895 11.24726,-10.62648 20.61538,-15.1856 C 349.40488,299.68323 360.6923,296 365.31389,296 366.82014,296 367,294.40619 367,281.05902 c 0,-8.21754 -0.35134,-15.15813 -0.78075,-15.42352 -1.27886,-0.79038 -16.44403,2.15148 -24.87453,4.82535 -35.37138,11.21862 -63.70271,41.57419 -73.30183,78.53915 -2.75243,10.59924 -3.81594,32.10856 -2.12609,43 1.97587,12.73494 8.07409,31 10.35008,31 0.56133,0 6.60305,-3.21778 13.42605,-7.15062 z m 189.12498,-0.27914 c 4.78092,-11.92461 6.40191,-20.40421 6.89532,-36.07024 0.56477,-17.93194 -1.53531,-30.36327 -7.62994,-45.16508 C 463.12552,298.00752 429.1248,271.6592 390.75,266.65738 L 386,266.03826 v 14.31832 14.31832 l 8.70555,2.14914 c 46.07891,11.37552 73.1186,58.86527 58.93955,103.5154 l -2.45715,7.7376 2.15603,1.37587 c 8.1654,5.21074 21.32527,12.46034 22.15602,12.20547 0.55,-0.16874 2.04306,-2.9084 3.31791,-6.08814 z M 247.77324,366.75 c 0.55997,-0.6875 1.17757,-4.175 1.37244,-7.75 L 249.5,352.5 241,352 232.5,351.5 V 304 256.5 h 23.5 23.5 l 0.27477,16.25 c 0.19964,11.80673 0.60243,16.25 1.4731,16.25 0.65907,0 3.91043,-2.66017 7.22522,-5.91149 16.04565,-15.73837 38.50292,-27.48349 62.52691,-32.70149 11.90432,-2.58561 38.09568,-2.58561 50,0 10.09557,2.19275 23.28559,6.72466 31.22148,10.72726 3.14682,1.58714 6.18728,2.88572 6.75658,2.88572 0.70626,0 0.95358,-22.9315 0.77852,-72.18472 L 439.5,119.63055 l -4.95268,-1.26337 c -2.72397,-0.69485 -8.18673,-2.86172 -12.13947,-4.81527 C 418.45511,111.59836 414.8303,110 414.35271,110 c -0.47758,0 -11.61314,10.75181 -24.74568,23.8929 l -23.87735,23.89291 1.13516,3.25632 C 371.8582,175.36608 359.57273,192 344,192 c -15.57281,0 -27.8582,-16.63392 -22.8648,-30.958 1.12342,-3.22263 1.05184,-3.33981 -6.89278,-11.28442 -7.94461,-7.94462 -8.06179,-8.0162 -11.28442,-6.89278 -4.15572,1.44869 -9.75977,1.44887 -13.91474,4.4e-4 l -3.25518,-1.13477 -19.93073,19.88477 c -16.04704,16.01003 -19.8117,20.27448 -19.31992,21.88476 2.91559,9.54669 0.78946,18.80228 -5.80406,25.26671 -9.76269,9.57153 -24.10487,9.54956 -33.51776,-0.0513 -9.53667,-9.72718 -9.52928,-23.7111 0.0177,-33.44873 6.46443,-6.59352 15.72002,-8.71965 25.26671,-5.80406 1.61028,0.49178 5.87473,-3.27288 21.88476,-19.31992 l 19.88477,-19.93073 -1.13477,-3.25518 C 268.13282,112.60817 280.42805,96 296.05241,96 c 15.52086,0 27.79689,16.65943 22.81239,30.958 -1.12342,3.22263 -1.05184,3.33981 6.89278,11.28442 7.94461,7.94462 8.06179,8.0162 11.28442,6.89278 4.1561,-1.44882 9.75985,-1.44884 13.91587,-4e-5 l 3.25632,1.13516 23.89291,-23.87735 C 391.24819,109.26043 402,98.148041 402,97.698769 c 0,-0.449272 -1.83912,-4.61648 -4.08694,-9.260462 L 393.82612,79.994703 209.16306,80.247351 24.5,80.5 24.243012,223 c -0.141343,78.375 -0.04297,143.0625 0.218616,143.75 0.697663,1.83363 221.818112,1.83363 223.311612,0 z M 40.463593,350.76572 c -0.268306,-0.69919 -0.369875,-18.59501 -0.225711,-39.76849 L 40.5,272.5 H 64 87.5 v 39.5 39.5 l -23.274289,0.26849 c -18.102564,0.20883 -23.382689,-0.014 -23.762118,-1.00277 z M 71,312 v -23 h -7 -7 v 23 23 h 7 7 z m 33.46069,38.75816 c -0.2699,-0.70336 -0.37147,-14.99918 -0.22571,-31.76849 L 104.5,288.5 h 23.5 23.5 v 31.5 31.5 l -23.27429,0.26849 c -18.17362,0.20965 -23.38184,-0.0118 -23.76502,-1.01033 z M 135,320 v -15 h -7 -7 v 15 15 h 7 7 z m 33.46647,30.76849 C 168.19974,350.07082 168.09817,321.375 168.24076,287 L 168.5,224.5 h 23.5 23.5 v 63.5 63.5 l -23.27429,0.26849 c -18.07707,0.20854 -23.38258,-0.0148 -23.75924,-1 z M 199,288 v -47 h -7 -7 v 47 47 h 7 7 z M 40.434066,206.68877 c -0.295356,-0.76968 -0.401349,-4.27703 -0.235539,-7.7941 L 40.5,192.5 h 7.5 7.5 v 7.5 7.5 l -7.264461,0.2941 c -5.507794,0.22298 -7.39432,-0.0443 -7.801473,-1.10533 z m 31.986331,-0.0356 c -0.287838,-0.75009 -0.38768,-4.24141 -0.22187,-7.75848 L 72.5,192.5 h 55.5 55.5 v 7.5 7.5 l -55.27813,0.25848 c -45.936379,0.2148 -55.366574,0.028 -55.801473,-1.10533 z m -31.986331,-31.9644 c -0.295356,-0.76968 -0.401349,-4.27703 -0.235539,-7.7941 L 40.5,160.5 h 7.5 7.5 v 7.5 7.5 l -7.264461,0.2941 c -5.507794,0.22298 -7.39432,-0.0443 -7.801473,-1.10533 z m 31.986331,-0.0356 c -0.287838,-0.75009 -0.38768,-4.24141 -0.22187,-7.75848 L 72.5,160.5 h 55.5 55.5 v 7.5 7.5 l -55.27813,0.25848 c -45.936379,0.2148 -55.366574,0.028 -55.801473,-1.10533 z m -31.986331,-31.9644 c -0.295356,-0.76968 -0.401349,-4.27703 -0.235539,-7.7941 L 40.5,128.5 h 7.5 7.5 v 7.5 7.5 l -7.264461,0.2941 c -5.507794,0.22298 -7.39432,-0.0443 -7.801473,-1.10533 z m 31.986331,-0.0356 c -0.287838,-0.75009 -0.38768,-4.24141 -0.22187,-7.75848 L 72.5,128.5 h 55.5 55.5 v 7.5 7.5 l -55.27813,0.25848 c -45.936379,0.2148 -55.366574,0.028 -55.801473,-1.10533 z m -31.986331,-31.9644 c -0.295356,-0.76968 -0.401349,-4.27703 -0.235539,-7.7941 L 40.5,96.5 h 7.5 7.5 v 7.5 7.5 l -7.264461,0.2941 c -5.507794,0.22298 -7.39432,-0.0443 -7.801473,-1.10533 z m 31.986331,-0.0356 c -0.287838,-0.75009 -0.38768,-4.24141 -0.22187,-7.75848 L 72.5,96.5 h 55.5 55.5 v 7.5 7.5 l -55.27813,0.25848 c -45.936379,0.2148 -55.366574,0.028 -55.801473,-1.10533 z M 255.51064,330.25 c 0.9803,-2.6125 3.06644,-7.32467 4.63586,-10.47148 L 263,314.05703 V 293.52852 273 h -7 -7 v 31 31 h 2.36414 c 1.90356,0 2.71138,-0.9254 4.1465,-4.75 z M 228.17126,196.34501 C 231.96565,192.91114 229.29505,186 224.17375,186 c -5.349,0 -8.10651,6.20685 -4.51876,10.17126 2.06067,2.27701 6.1011,2.35945 8.51627,0.17375 z m 120,-24 c 2.27701,-2.06067 2.35945,-6.1011 0.17375,-8.51627 C 344.91114,160.03435 338,162.70495 338,167.82625 c 0,5.349 6.20685,8.10651 10.17126,4.51876 z m -48,-48 c 2.27701,-2.06067 2.35945,-6.1011 0.17375,-8.51627 C 296.91114,112.03435 290,114.70495 290,119.82625 c 0,5.349 6.20685,8.10651 10.17126,4.51876 z M 464.54323,98.522649 C 472.11042,94.82037 478.82138,88.102604 482.56038,80.487237 485.24642,75.016473 485.5,73.594245 485.5,64 485.5,54.405755 485.24642,52.983527 482.56038,47.512763 478.81607,39.886579 472.11342,33.183928 464.48724,29.439618 459.01647,26.753578 457.59425,26.5 448,26.5 c -9.59425,0 -11.01647,0.253578 -16.48724,2.939618 -7.59896,3.730943 -14.33155,10.446734 -18.00985,17.964902 -3.65542,7.471407 -4.5818,19.372415 -2.15718,27.712813 3.20927,11.039479 13.75284,21.916938 24.62307,25.402817 2.94449,0.94424 7.70238,1.357 13.5872,1.17873 7.62644,-0.23104 9.99229,-0.73243 14.98723,-3.176231 z"
         id="path1258" />
      <path
         style="fill:#555757"
         d="m 359.63477,502.93527 c -9.87613,-1.36884 -21.74074,-4.5631 -31.36757,-8.44495 -40.70775,-16.41469 -70.94558,-53.86118 -77.89746,-96.46809 -0.85452,-5.23723 -1.7454,-10.53291 -1.97974,-11.76818 L 247.96393,384.00809 128.23196,383.75405 8.5,383.5 V 224 64.5 L 199.89363,64 391.28725,63.5 393.0953,54.569315 c 2.60632,-12.873682 6.7215,-20.571371 15.81862,-29.58968 8.75473,-8.67889 14.8289,-12.228413 25.67152,-15.0014869 9.7824,-2.5019155 17.04672,-2.5019155 26.82912,0 10.84262,2.7730739 16.91679,6.3225969 25.67152,15.0014869 10.92294,10.828306 16.87919,24.597646 16.87919,39.020365 0,13.165913 -5.78611,27.528292 -15.1024,37.48744 -7.49355,8.01062 -13.83301,12.08926 -24.19331,15.5653 l -8.16956,2.74102 -0.25606,77.97402 -0.25607,77.97403 8.1035,7.87909 c 19.53334,18.99243 31.88801,41.48426 37.56033,68.3791 2.47342,11.72748 2.47584,36.25251 0.005,48 -5.77534,27.45565 -18.26405,49.99845 -38.10262,68.7773 -17.92418,16.96673 -38.56587,27.68107 -63.05381,32.72888 -9.6242,1.98389 -31.3745,2.74451 -40.86523,1.42909 z M 389.5,486.89144 c 23.70622,-2.90512 46.10282,-13.52806 63.16233,-29.95855 8.4383,-8.12717 14.53636,-15.66731 14.16985,-17.52078 C 466.51882,437.8274 444.10775,424 441.85267,424 c -0.57916,0 -4.27044,3.27094 -8.20284,7.26875 C 417.81953,447.36234 397.68471,456 376,456 354.31529,456 334.18047,447.36234 318.35017,431.26875 314.41777,427.27094 310.72649,424 310.14733,424 c -0.57916,0 -6.36173,3.08767 -12.85017,6.86149 -7.75793,4.51219 -11.88473,7.5081 -12.05292,8.75 -0.29532,2.18057 8.80205,12.87795 17.48089,20.55534 23.52378,20.80939 55.26759,30.58573 86.77487,26.72461 z m -2.26701,-48.34002 c 26.50136,-4.72523 47.12228,-25.98715 51.5641,-53.16696 1.37819,-8.43323 1.37819,-10.33569 0,-18.76892 -4.57995,-28.02509 -25.38754,-48.83268 -53.41263,-53.41263 -8.48061,-1.38593 -10.31412,-1.38171 -19.03693,0.0438 -27.73685,4.53285 -48.58515,25.46911 -53.14462,53.36883 -1.38593,8.48061 -1.38171,10.31412 0.0438,19.03693 3.48776,21.34187 17.05899,39.22844 36.57318,48.20261 7.31622,3.36458 18.20166,5.91628 25.68011,6.01978 2.2,0.0304 7.47985,-0.5651 11.73299,-1.32344 z m -24.15026,-16.07693 c -16.64683,-4.66811 -30.67307,-19.56229 -34.14227,-36.25501 -1.60279,-7.7121 -0.67207,-20.33795 2.02442,-27.4625 4.48343,-11.84599 15.71779,-23.10798 27.84324,-27.91173 8.24334,-3.26578 26.14042,-3.26578 34.38376,0 12.05808,4.77706 23.18322,15.88946 27.94374,27.91173 3.28523,8.29656 3.29516,26.16567 0.0191,34.4349 -4.79837,12.11186 -16.031,23.32506 -27.91173,27.86345 -7.54247,2.8812 -22.44579,3.58246 -30.16029,1.41916 z M 389.5,404.92042 c 6.32581,-3.00185 12.34811,-8.99352 15.49924,-15.42042 3.51983,-7.17888 3.51983,-19.82112 0,-27 -3.1258,-6.37523 -9.12401,-12.37344 -15.49924,-15.49924 -7.17888,-3.51983 -19.82112,-3.51983 -27,0 -25.99443,12.74516 -23.82745,49.46029 3.50539,59.39188 6.31088,2.2931 16.96704,1.62537 23.49461,-1.47222 z m 92.39432,5.74222 c 4.36181,-13.62968 5.47245,-20.77666 5.46427,-35.16264 -0.0176,-30.9758 -11.41576,-57.64723 -34.02306,-79.61327 -17.1675,-16.68055 -44.07711,-29.55372 -63.1171,-30.19433 L 384.5,265.5 l -0.27679,14.75923 c -0.31805,16.95971 -1.45814,15.12952 11.27679,18.10274 15.20456,3.5498 32.38197,14.42982 42.49053,26.91312 10.99644,13.57977 16.90254,29.03664 17.74328,46.43598 0.57644,11.92967 -0.37475,19.28306 -3.89715,30.12782 -1.50827,4.64366 -1.76211,6.63566 -0.94919,7.44858 0.61033,0.61033 6.39783,4.16167 12.86111,7.89187 11.71344,6.76026 11.75701,6.7755 13.48245,4.71406 0.95207,-1.13747 3.05055,-6.19131 4.66329,-11.23076 z m -192.20139,5.18674 c 9.5443,-5.50142 12.26245,-7.51949 11.7854,-8.75 -4.03594,-10.41042 -5.7029,-19.27555 -5.75377,-30.59938 -0.0669,-14.88409 1.65732,-22.29106 8.49395,-36.48927 4.55528,-9.46034 6.04297,-11.47761 15.16611,-20.56489 9.02496,-8.9895 11.24726,-10.62648 20.61538,-15.1856 C 349.40488,299.68323 360.6923,296 365.31389,296 366.82014,296 367,294.40619 367,281.05902 c 0,-8.21754 -0.35134,-15.15813 -0.78075,-15.42352 -1.27886,-0.79038 -16.44403,2.15148 -24.87453,4.82535 -35.37138,11.21862 -63.70271,41.57419 -73.30183,78.53915 -2.75243,10.59924 -3.81594,32.10856 -2.12609,43 1.97587,12.73494 8.07409,31 10.35008,31 0.56133,0 6.60305,-3.21778 13.42605,-7.15062 z M 247.77324,366.75 c 0.55997,-0.6875 1.17757,-4.175 1.37244,-7.75 L 249.5,352.5 241,352 232.5,351.5 V 304 256.5 h 23.5 23.5 l 0.27477,16.25 c 0.19964,11.80673 0.60243,16.25 1.4731,16.25 0.65907,0 3.91043,-2.66017 7.22522,-5.91149 16.04565,-15.73837 38.50292,-27.48349 62.52691,-32.70149 11.90432,-2.58561 38.09568,-2.58561 50,0 10.09557,2.19275 23.28559,6.72466 31.22148,10.72726 3.14682,1.58714 6.18728,2.88572 6.75658,2.88572 0.70626,0 0.95358,-22.9315 0.77852,-72.18472 L 439.5,119.63055 l -4.95268,-1.26337 c -2.72397,-0.69485 -8.18673,-2.86172 -12.13947,-4.81527 C 418.45511,111.59836 414.8303,110 414.35271,110 c -0.47758,0 -11.61314,10.75181 -24.74568,23.8929 l -23.87735,23.89291 1.13516,3.25632 C 371.8582,175.36608 359.57273,192 344,192 c -15.57281,0 -27.8582,-16.63392 -22.8648,-30.958 1.12342,-3.22263 1.05184,-3.33981 -6.89278,-11.28442 -7.94461,-7.94462 -8.06179,-8.0162 -11.28442,-6.89278 -4.15572,1.44869 -9.75977,1.44887 -13.91474,4.4e-4 l -3.25518,-1.13477 -19.93073,19.88477 c -16.04704,16.01003 -19.8117,20.27448 -19.31992,21.88476 2.91559,9.54669 0.78946,18.80228 -5.80406,25.26671 -9.76269,9.57153 -24.10487,9.54956 -33.51776,-0.0513 -9.53667,-9.72718 -9.52928,-23.7111 0.0177,-33.44873 6.46443,-6.59352 15.72002,-8.71965 25.26671,-5.80406 1.61028,0.49178 5.87473,-3.27288 21.88476,-19.31992 l 19.88477,-19.93073 -1.13477,-3.25518 C 268.13282,112.60817 280.42805,96 296.05241,96 c 15.52086,0 27.79689,16.65943 22.81239,30.958 -1.12342,3.22263 -1.05184,3.33981 6.89278,11.28442 7.94461,7.94462 8.06179,8.0162 11.28442,6.89278 4.1561,-1.44882 9.75985,-1.44884 13.91587,-4e-5 l 3.25632,1.13516 23.89291,-23.87735 C 391.24819,109.26043 402,98.148041 402,97.698769 c 0,-0.449272 -1.83912,-4.61648 -4.08694,-9.260462 L 393.82612,79.994703 209.16306,80.247351 24.5,80.5 24.243012,223 c -0.141343,78.375 -0.04297,143.0625 0.218616,143.75 0.697663,1.83363 221.818112,1.83363 223.311612,0 z M 40.463593,350.76572 c -0.268306,-0.69919 -0.369875,-18.59501 -0.225711,-39.76849 L 40.5,272.5 H 64 87.5 v 39.5 39.5 l -23.274289,0.26849 c -18.102564,0.20883 -23.382689,-0.014 -23.762118,-1.00277 z M 71.5,312 V 288.5 H 64 56.5 l -0.269738,22.47737 c -0.148357,12.36255 -0.04236,23.0699 0.235538,23.7941 0.368809,0.9611 2.467305,1.2373 7.769739,1.02263 L 71.5,335.5 Z m 32.96069,38.75816 c -0.2699,-0.70336 -0.37147,-14.99918 -0.22571,-31.76849 L 104.5,288.5 h 23.5 23.5 v 31.5 31.5 l -23.27429,0.26849 c -18.17362,0.20965 -23.38184,-0.0118 -23.76502,-1.01033 z M 135.5,320 v -15.5 h -7.5 -7.5 l -0.2787,14.45401 c -0.15329,7.94971 -0.0473,15.05706 0.23554,15.79411 0.37964,0.98932 2.4157,1.2631 7.7787,1.04598 L 135.5,335.5 Z m 32.96647,30.76849 C 168.19974,350.07082 168.09817,321.375 168.24076,287 L 168.5,224.5 h 23.5 23.5 v 63.5 63.5 l -23.27429,0.26849 c -18.07707,0.20854 -23.38258,-0.0148 -23.75924,-1 z M 199.5,288 v -47.5 h -7.5 -7.5 l -0.26057,46.5 c -0.14332,25.575 -0.0373,47.08235 0.23554,47.7941 0.35798,0.93379 2.51872,1.21222 7.76057,1 L 199.5,335.5 Z M 40.434066,206.68877 c -0.295356,-0.76968 -0.401349,-4.27703 -0.235539,-7.7941 L 40.5,192.5 h 7.5 7.5 v 7.5 7.5 l -7.264461,0.2941 c -5.507794,0.22298 -7.39432,-0.0443 -7.801473,-1.10533 z m 31.986331,-0.0356 c -0.287838,-0.75009 -0.38768,-4.24141 -0.22187,-7.75848 L 72.5,192.5 h 55.5 55.5 v 7.5 7.5 l -55.27813,0.25848 c -45.936379,0.2148 -55.366574,0.028 -55.801473,-1.10533 z m -31.986331,-31.9644 c -0.295356,-0.76968 -0.401349,-4.27703 -0.235539,-7.7941 L 40.5,160.5 h 7.5 7.5 v 7.5 7.5 l -7.264461,0.2941 c -5.507794,0.22298 -7.39432,-0.0443 -7.801473,-1.10533 z m 31.986331,-0.0356 c -0.287838,-0.75009 -0.38768,-4.24141 -0.22187,-7.75848 L 72.5,160.5 h 55.5 55.5 v 7.5 7.5 l -55.27813,0.25848 c -45.936379,0.2148 -55.366574,0.028 -55.801473,-1.10533 z m -31.986331,-31.9644 c -0.295356,-0.76968 -0.401349,-4.27703 -0.235539,-7.7941 L 40.5,128.5 h 7.5 7.5 v 7.5 7.5 l -7.264461,0.2941 c -5.507794,0.22298 -7.39432,-0.0443 -7.801473,-1.10533 z m 31.986331,-0.0356 c -0.287838,-0.75009 -0.38768,-4.24141 -0.22187,-7.75848 L 72.5,128.5 h 55.5 55.5 v 7.5 7.5 l -55.27813,0.25848 c -45.936379,0.2148 -55.366574,0.028 -55.801473,-1.10533 z m -31.986331,-31.9644 c -0.295356,-0.76968 -0.401349,-4.27703 -0.235539,-7.7941 L 40.5,96.5 h 7.5 7.5 v 7.5 7.5 l -7.264461,0.2941 c -5.507794,0.22298 -7.39432,-0.0443 -7.801473,-1.10533 z m 31.986331,-0.0356 c -0.287838,-0.75009 -0.38768,-4.24141 -0.22187,-7.75848 L 72.5,96.5 h 55.5 55.5 v 7.5 7.5 l -55.27813,0.25848 c -45.936379,0.2148 -55.366574,0.028 -55.801473,-1.10533 z M 255.18,333.25 c 0.62542,-1.5125 2.87525,-6.63686 4.99963,-11.38747 l 3.8625,-8.63747 -0.27107,-20.36253 L 263.5,272.5 h -7.5 -7.5 l -0.26502,30.48967 c -0.14576,16.76931 -0.0474,31.05681 0.21861,31.75 0.266,0.69318 1.63241,1.26033 3.03646,1.26033 1.84257,0 2.8692,-0.76512 3.68995,-2.75 z M 229.41667,196.95105 c 2.56745,-2.46467 2.47106,-7.50776 -0.19445,-10.17327 -4.51413,-4.51413 -12.55555,-1.23917 -12.55555,5.11338 0,7.04081 7.56081,10.04135 12.75,5.05989 z m 120,-24 c 2.56745,-2.46467 2.47106,-7.50776 -0.19445,-10.17327 -4.51413,-4.51413 -12.55555,-1.23917 -12.55555,5.11338 0,7.04081 7.56081,10.04135 12.75,5.05989 z m -48,-48 c 2.56745,-2.46467 2.47106,-7.50776 -0.19445,-10.17327 -4.51413,-4.51413 -12.55555,-1.23917 -12.55555,5.11338 0,7.04081 7.56081,10.04135 12.75,5.05989 z m 159.76739,-23.4996 C 467.66067,99.190965 475.5745,93.347596 479.61632,87.841541 491.5245,71.619357 490.00201,50.097246 475.95238,36.047619 453.1361,13.231342 414.5248,25.744906 408.88109,57.784802 c -3.55353,20.173716 10.75823,40.921598 31.16421,45.179008 5.59201,1.16669 15.49231,0.45838 21.13876,-1.51236 z"
         id="path1256" />
      <path
         style="fill:#040403"
         d="m 365.5,502.42268 c -14.15953,-1.97241 -19.23841,-3.01473 -27.5,-5.64369 -11.51973,-3.66575 -26.00849,-10.83334 -35.62289,-17.62265 -27.14669,-19.16991 -46.96182,-51.82839 -51.53165,-84.93234 -0.66236,-4.7982 -1.62715,-9.28468 -2.14396,-9.96995 -0.73898,-0.97985 -26.38265,-1.3002 -120.07058,-1.5 L 9.5,382.5 V 224 65.5 L 201,65 392.5,64.5 393.70757,57 c 3.66164,-22.741735 18.69301,-39.919454 40.31888,-46.076088 5.7654,-1.6413415 22.1817,-1.6413415 27.9471,0 33.45109,9.523135 50.00053,45.553221 35.17314,76.576088 -6.8633,14.35986 -17.40252,23.34242 -33.59255,28.63088 l -8.05414,2.63088 -0.25608,78.69485 -0.25607,78.69485 9.30659,9.17427 c 5.11862,5.04585 11.68826,12.54927 14.5992,16.67427 10.53583,14.93002 19.12585,35.43619 22.20165,53 1.68896,9.6445 1.68896,32.3555 0,42 -8.08941,46.19312 -41.05025,84.55862 -85.34311,99.33704 -4.2613,1.42179 -11.44613,3.28663 -15.96627,4.14409 -8.25225,1.56542 -28.68123,2.72228 -34.28591,1.94155 z m 24.26866,-14.4529 c 25.15906,-3.15468 51.06372,-16.2767 68.11342,-34.50287 7.05809,-7.54512 11.56443,-13.93543 10.75295,-15.24842 -0.41104,-0.66509 -18.77405,-11.54307 -26.83544,-15.89694 -0.38522,-0.20806 -3.97092,3.04021 -7.96823,7.21837 -8.66377,9.05576 -18.299,15.69071 -28.58747,19.68574 -31.05701,12.05947 -63.78237,4.66101 -87.07525,-19.68574 -3.99731,-4.17816 -7.58301,-7.42643 -7.96823,-7.21837 -8.06139,4.35387 -26.4244,15.23185 -26.83544,15.89694 -1.57775,2.55285 13.03048,18.91629 24.81396,27.7954 23.12457,17.42489 53.19351,25.51647 81.58973,21.95589 z M 389.5,439.50065 c 29.05544,-6.07933 51.46527,-33.7298 51.46527,-63.50065 0,-35.09407 -29.8712,-64.96527 -64.96527,-64.96527 -35.09407,0 -64.96527,29.8712 -64.96527,64.96527 0,23.84996 14.57674,47.29187 35.97767,57.85829 13.86151,6.84394 27.85995,8.70293 42.4876,5.64236 z m -25.58119,-18.33392 c -34.6428,-9.04331 -46.39107,-52.83506 -20.9891,-78.23702 18.21934,-18.21935 47.92124,-18.21935 66.14058,0 18.21935,18.21934 18.21935,47.92124 0,66.14058 -11.97221,11.97222 -28.58142,16.42196 -45.15148,12.09644 z m 25.25686,-14.91543 c 6.54566,-2.90219 13.2919,-9.46746 16.55386,-16.10979 3.67957,-7.49272 3.95475,-20.02491 0.59981,-27.31718 -3.04271,-6.61362 -9.59903,-13.31819 -16.18783,-16.55386 C 385.32051,343.90294 383.26375,343.5 376,343.5 c -7.26375,0 -9.32051,0.40294 -14.14151,2.77047 -22.29453,10.94854 -25.25136,40.2495 -5.65353,56.02417 8.44742,6.7995 22.70101,8.51 32.97071,3.95666 z m -99.16788,11.09359 c 14.91437,-8.66661 13.98942,-6.83051 9.99699,-19.84489 -3.07057,-10.00936 -3.75129,-25.7098 -1.5794,-36.4285 6.40775,-31.62353 30.41873,-55.98899 61.51736,-62.42554 4.0304,-0.83418 7.72922,-1.91792 8.2196,-2.4083 0.49039,-0.49039 0.76698,-7.83198 0.61464,-16.31464 L 368.5,264.5 l -6.1999,0.17018 c -12.51717,0.34359 -30.70898,6.52986 -44.92002,15.27541 -35.12515,21.6162 -56.72448,62.4373 -53.96994,101.9991 C 264.6655,399.97461 272.00617,425 276.0395,425 c 0.43704,0 6.72277,-3.4448 13.96829,-7.65511 z m 190.00871,1.27899 c 6.0883,-13.42745 9.70284,-34.52506 8.50181,-49.62388 -3.42588,-43.0687 -29.06821,-79.50304 -67.68668,-96.17379 -14.79052,-6.38474 -35.076,-10.63004 -36.91504,-7.72549 -1.0884,1.71901 -1.18706,28.9254 -0.11103,30.61891 0.42621,0.6708 3.97202,1.89216 7.87958,2.71414 24.1469,5.07945 43.85942,20.20639 54.81818,42.06623 6.68866,13.3421 8.01522,19.38926 7.89728,36 -0.0818,11.52341 -0.49331,15.23829 -2.32609,21 -4.11796,12.9456 -5.02972,11.15268 10.086,19.83356 7.33672,4.21343 13.70521,7.66206 14.15221,7.66362 0.44699,0.002 2.11369,-2.86644 3.70378,-6.3733 z M 248.78439,367.75 c 0.5661,-0.6875 1.1837,-4.625 1.37245,-8.75 L 250.5,351.5 242,351 233.5,350.5 V 304 257.5 h 22.5 22.5 l 0.27418,16.75 c 0.17783,10.86401 0.64337,16.75 1.32479,16.75 0.57784,0 4.64235,-3.2625 9.03224,-7.25 18.96009,-17.22216 39.42588,-27.64355 63.65898,-32.41581 10.7272,-2.11252 33.5973,-2.34743 44.20981,-0.45411 10.12957,1.80717 25.03841,6.6267 33.22504,10.74054 12.06081,6.06065 10.77496,14.37273 10.77496,-69.652 0,-57.56606 -0.2647,-73.10778 -1.25,-73.3921 -9.72536,-2.80647 -16.10595,-5.24649 -20.03862,-7.66304 -3.54465,-2.17812 -5.23319,-2.69745 -6.5,-1.99914 -0.94126,0.51885 -12.21947,11.50558 -25.0627,24.41496 -23.31614,23.43622 -23.35004,23.47663 -22.5,26.82114 0.46823,1.84226 0.82438,5.90342 0.79146,9.0248 -0.0785,7.44513 -4.00402,14.04219 -10.88816,18.29832 C 351.38661,190.04882 349.66444,190.5 344,190.5 c -5.66444,0 -7.38661,-0.45118 -11.55198,-3.02644 -6.88414,-4.25613 -10.80963,-10.85319 -10.88816,-18.29832 -0.0329,-3.12138 0.32169,-7.17551 0.78803,-9.00917 0.81824,-3.21737 0.56771,-3.61411 -7.16607,-11.34789 -7.7275,-7.7275 -8.13313,-7.98391 -11.34789,-7.17332 -4.27829,1.07877 -11.40147,1.07546 -15.70099,-0.007 -3.35718,-0.84543 -3.42568,-0.78929 -23.35516,19.14019 -19.94216,19.94216 -19.98614,19.99585 -19.13295,23.35516 0.47035,1.85188 0.82823,5.92092 0.79531,9.0423 -0.0785,7.44513 -4.00402,14.04219 -10.88816,18.29832 C 231.38661,214.04882 229.66444,214.5 224,214.5 c -5.66444,0 -7.38661,-0.45118 -11.55198,-3.02644 -3.03415,-1.87587 -6.04571,-4.88743 -7.92158,-7.92158 C 201.95118,199.38661 201.5,197.66444 201.5,192 c 0,-5.66444 0.45118,-7.38661 3.02644,-11.55198 4.25613,-6.88414 10.85319,-10.80963 18.29832,-10.88816 3.12138,-0.0329 7.19042,0.32496 9.0423,0.79531 3.35931,0.85319 3.413,0.80921 23.35516,-19.13295 19.94216,-19.94216 19.98614,-19.99585 19.13295,-23.35516 -0.47035,-1.85188 -0.82823,-5.92092 -0.79531,-9.0423 0.0785,-7.44513 4.00402,-14.04219 10.88816,-18.29832 C 288.61339,97.951182 290.33556,97.5 296,97.5 c 5.66444,0 7.38661,0.451182 11.55198,3.02644 6.88414,4.25613 10.80963,10.85319 10.88816,18.29832 0.0329,3.12138 -0.32169,7.17551 -0.78803,9.00917 -0.81824,3.21737 -0.56771,3.61411 7.16607,11.34789 7.7275,7.7275 8.13313,7.98391 11.34789,7.17332 4.27291,-1.07741 11.40058,-1.07585 15.68349,0.003 3.3424,0.84227 3.39971,0.79417 26.82114,-22.50725 12.90938,-12.84323 23.89611,-24.121443 24.41496,-25.062704 0.69251,-1.256294 0.20439,-2.984768 -1.8356,-6.5 C 399.72162,89.654877 397.57671,85.7 396.4836,83.5 l -1.98749,-4 H 208.99806 23.5 L 23.243025,223 c -0.141336,78.925 -0.04296,144.0625 0.218615,144.75 0.697663,1.83368 223.81286,1.83368 225.32275,0 z M 41.463564,349.76564 c -0.26862,-0.70001 -0.370312,-18.14615 -0.225982,-38.76919 L 41.5,273.5 H 64 86.5 v 38.5 38.5 l -22.274019,0.2692 c -17.307514,0.20917 -22.382918,-0.0146 -22.762417,-1.00356 z M 71.8,335.8 c 1.702308,-1.70231 1.702308,-45.89769 0,-47.6 -0.690909,-0.69091 -4,-1.2 -7.8,-1.2 -3.8,0 -7.109091,0.50909 -7.8,1.2 -1.702308,1.70231 -1.702308,45.89769 0,47.6 1.580533,1.58053 14.019467,1.58053 15.6,0 z m 33.6605,13.95765 c -0.27031,-0.7044 -0.372,-14.55054 -0.22598,-30.76919 L 105.5,289.5 h 22.5 22.5 v 30.5 30.5 l -22.27402,0.2692 c -17.37909,0.21003 -22.38202,-0.0123 -22.76548,-1.01155 z M 135.8,335.8 c 0.82374,-0.82374 1.2,-5.77778 1.2,-15.8 0,-10.02222 -0.37626,-14.97626 -1.2,-15.8 -0.69091,-0.69091 -4,-1.2 -7.8,-1.2 -3.8,0 -7.10909,0.50909 -7.8,1.2 -1.67494,1.67494 -1.67494,29.92506 0,31.6 1.58053,1.58053 14.01947,1.58053 15.6,0 z m 33.66668,13.9692 C 169.19977,349.07114 169.09808,320.825 169.24069,287 L 169.5,225.5 h 22.5 22.5 v 62.5 62.5 l -22.27402,0.2692 c -17.27611,0.20879 -22.38291,-0.0156 -22.7593,-1 z M 199.8,335.8 c 1.7279,-1.7279 1.7279,-93.8721 0,-95.6 -1.58053,-1.58053 -14.01947,-1.58053 -15.6,0 -1.7279,1.7279 -1.7279,93.8721 0,95.6 1.58053,1.58053 14.01947,1.58053 15.6,0 z M 41.430259,205.67885 c -0.299118,-0.77948 -0.405793,-3.83861 -0.237055,-6.79805 L 41.5,193.5 h 6.5 6.5 v 6.5 6.5 l -6.262945,0.29805 c -4.689121,0.22316 -6.39961,-0.0581 -6.806796,-1.1192 z m 31.984871,-0.0394 c -0.290797,-0.75781 -0.390664,-3.79919 -0.221926,-6.75863 L 73.5,193.5 h 54.5 54.5 v 6.5 6.5 l -54.27807,0.25863 c -45.360124,0.21613 -54.364949,0.0322 -54.8068,-1.1192 z m -31.984871,-31.9606 c -0.299118,-0.77948 -0.405793,-3.83861 -0.237055,-6.79805 L 41.5,161.5 h 6.5 6.5 v 6.5 6.5 l -6.262945,0.29805 c -4.689121,0.22316 -6.39961,-0.0581 -6.806796,-1.1192 z m 31.984871,-0.0394 c -0.290797,-0.75781 -0.390664,-3.79919 -0.221926,-6.75863 L 73.5,161.5 h 54.5 54.5 v 6.5 6.5 l -54.27807,0.25863 c -45.360124,0.21613 -54.364949,0.0322 -54.8068,-1.1192 z m -31.984871,-31.9606 c -0.299118,-0.77948 -0.405793,-3.83861 -0.237055,-6.79805 L 41.5,129.5 h 6.5 6.5 v 6.5 6.5 l -6.262945,0.29805 c -4.689121,0.22316 -6.39961,-0.0581 -6.806796,-1.1192 z m 31.984871,-0.0394 c -0.290797,-0.75781 -0.390664,-3.79919 -0.221926,-6.75863 L 73.5,129.5 h 54.5 54.5 v 6.5 6.5 l -54.27807,0.25863 c -45.360124,0.21613 -54.364949,0.0322 -54.8068,-1.1192 z m -31.984871,-31.9606 c -0.299118,-0.77948 -0.405793,-3.83861 -0.237055,-6.79805 L 41.5,97.5 h 6.5 6.5 v 6.5 6.5 l -6.262945,0.29805 c -4.689121,0.22316 -6.39961,-0.0581 -6.806796,-1.1192 z m 31.984871,-0.0394 c -0.290797,-0.75781 -0.390664,-3.79919 -0.221926,-6.75863 L 73.5,97.5 h 54.5 54.5 v 6.5 6.5 l -54.27807,0.25863 c -45.360124,0.21613 -54.364949,0.0322 -54.8068,-1.1192 z M 255.68799,334 c 0.68809,-1.375 3.06478,-6.49979 5.28154,-11.38842 L 265,313.72315 v -20.16157 c 0,-14.3479 -0.34603,-20.50761 -1.2,-21.36158 -0.69091,-0.69091 -4,-1.2 -7.8,-1.2 -3.8,0 -7.10909,0.50909 -7.8,1.2 -1.75218,1.75218 -1.71157,61.88843 0.043,63.64298 1.95999,1.95999 6.04835,0.94794 7.44501,-1.84298 z M 227.90881,199.54716 c 1.54521,-0.79906 3.39083,-2.85633 4.10136,-4.5717 2.77264,-6.69376 -4.36698,-13.72716 -11.10242,-10.93725 -4.39427,1.82017 -6.63377,6.79481 -4.92072,10.93048 1.23289,2.97645 5.05338,5.90627 7.81263,5.99127 0.71481,0.022 2.56393,-0.61374 4.10915,-1.4128 z m 120,-24 c 1.54521,-0.79906 3.39083,-2.85633 4.10136,-4.5717 2.77264,-6.69376 -4.36698,-13.72716 -11.10242,-10.93725 -4.39427,1.82017 -6.63377,6.79481 -4.92072,10.93048 1.23289,2.97645 5.05338,5.90627 7.81263,5.99127 0.71481,0.022 2.56393,-0.61374 4.10915,-1.4128 z m -48,-48 c 1.54521,-0.79906 3.39083,-2.85633 4.10136,-4.5717 2.77264,-6.69376 -4.36698,-13.72716 -11.10242,-10.93725 -4.39427,1.82017 -6.63377,6.79481 -4.92072,10.93048 1.23289,2.97645 5.05338,5.90627 7.81263,5.99127 0.71481,0.022 2.56393,-0.61374 4.10915,-1.4128 z m 162.54457,-25.6156 c 27.42033,-10.25926 34.93574,-45.672872 14.11184,-66.496777 -16.08213,-16.082127 -41.04831,-16.082127 -57.13044,0 -16.08212,16.082126 -16.08212,41.048308 0,57.130434 11.49895,11.498943 27.82063,15.052633 43.0186,9.366343 z"
         id="path1254" />
    </g>
  </g>
</svg>
