<?xml version="1.0" encoding="UTF-8" standalone="no"?>
<!-- Created with Inkscape (http://www.inkscape.org/) -->

<svg
   version="1.1"
   id="svg2137"
   width="512"
   height="512"
   viewBox="0 0 512 512"
   xmlns="http://www.w3.org/2000/svg"
   xmlns:svg="http://www.w3.org/2000/svg">
  <defs
     id="defs2141" />
  <g
     id="g2143">
    <g
       id="g2147">
      <path
         style="fill:#d0d0d4"
         d="m 256,486 v -10 h 68.95295 c 51.32981,0 69.62309,0.30534 71.57499,1.19469 3.72395,1.69674 5.47206,5.77167 5.47206,12.75565 V 496 h -73 -73 z m -145,-5.37756 c 0,-0.20765 0.7875,-0.99515 1.75,-1.75 1.58606,-1.24387 1.62143,-1.2085 0.37756,0.37756 C 111.82119,480.91575 111,481.44548 111,480.62244 Z m 11.28651,-21.36252 c 3.18258,-0.19905 8.13258,-0.1972 11,0.004 2.86742,0.20131 0.26349,0.36417 -5.78651,0.36191 -6.05,-0.002 -8.39607,-0.16696 -5.21349,-0.36601 z m 257,0 c 3.18258,-0.19905 8.13258,-0.1972 11,0.004 2.86742,0.20131 0.26349,0.36417 -5.78651,0.36191 -6.05,-0.002 -8.39607,-0.16696 -5.21349,-0.36601 z M 160,458.43018 c 0,-0.31341 1.29677,-2.45462 2.8817,-4.75824 8.06184,-11.71747 16.88199,-33.42521 19.29236,-47.48144 L 183.4071,399 H 219.70355 256 v 30 30 h -48 c -26.4,0 -48,-0.25642 -48,-0.56982 z M 256,374.5 V 367 h 109.88922 c 106.70628,0 109.95759,-0.0554 112.25,-1.91165 L 480.5,363.17671 V 229 94.823294 l -2.36078,-1.911647 C 475.89661,91.095696 473.62606,91 432.78223,91 c -36.42441,0 -42.91417,-0.21379 -42.45947,-1.398727 0.29521,-0.7693 1.0769,-4.1443 1.7371,-7.5 L 393.26021,76 H 444.63011 496 V 229 382 H 376 256 Z m -36.65719,-291 c 0.004,-4.4 0.17944,-6.075605 0.39069,-3.723567 0.21124,2.352038 0.20827,5.952038 -0.007,8 C 219.51202,89.824395 219.33918,87.9 219.34281,83.5 Z m 36.75687,3.25 c 0.0847,-3.610422 0.22017,-3.873778 0.90032,-1.75 1.15252,3.598735 1.15252,6 0,6 -0.55,0 -0.95514,-1.9125 -0.90032,-4.25 z M 1,62.622445 c 0,-0.207656 0.7875,-0.995156 1.75,-1.75 C 4.3360556,59.628574 4.3714259,59.663944 3.1275553,61.25 1.8211855,62.915748 1,63.445479 1,62.622445 Z M 508.87244,61.25 C 507.62857,59.663944 507.66394,59.628574 509.25,60.872445 510.91575,62.178814 511.44548,63 510.62244,63 c -0.20765,0 -0.99515,-0.7875 -1.75,-1.75 z M 372.43709,19.75 369.5,16.5 l 3.25,2.937091 c 1.7875,1.6154 3.25,3.0779 3.25,3.25 0,0.772561 -0.82513,0.09236 -3.56291,-2.937091 z"
         id="path2161" />
      <path
         style="fill:#fdd467"
         d="m 266,247 v -57 h 8.5 8.5 v 57 57 H 274.5 266 Z M 133,201.31437 c -16.1417,-0.92643 -32.42488,-4.04259 -39.5,-7.55922 -7.295211,-3.62603 -7.5,-4.02243 -7.5,-14.51713 0,-8.61406 0.15514,-9.38711 1.75,-8.72007 14.32951,5.9932 27.95525,7.8978 56.75,7.93247 26.90639,0.0324 35.58566,-0.96135 50.91603,-5.82964 L 203,170.21242 v 9.32236 c 0,7.50181 -0.33764,9.66 -1.72892,11.05129 -4.76652,4.76651 -20.94544,8.82874 -41.36748,10.3866 -12.98261,0.99036 -15.12711,1.0176 -26.9036,0.3417 z m -7,-39.28529 C 108.0937,160.26346 94.05449,156.59962 89.045777,152.38507 86.051244,149.86533 86,149.66488 86,140.47068 v -9.35153 l 6.79473,2.31103 c 14.48266,4.92587 24.6101,6.07317 53.20527,6.02742 23.62337,-0.0378 27.62181,-0.28596 36.83434,-2.28612 5.68389,-1.23405 12.54639,-3.08424 15.25,-4.11153 L 203,131.19215 v 9.86177 9.86177 l -4.25,2.45669 c -9.19305,5.314 -25.91087,8.42121 -48.75,9.06078 -8.525,0.23873 -19.325,0.0569 -24,-0.40408 z m -2.46841,-39.13411 c -16.2261,-1.70846 -30.959782,-5.85031 -35.345359,-9.9361 C 86.252099,111.15696 86,109.88877 86,101.96104 86,97.03247 86.2182,93 86.48489,93 c 0.266689,0 4.289246,1.10246 8.939016,2.44991 13.815454,4.003562 28.259304,5.74975 48.076094,5.81215 23.60744,0.0743 41.74907,-2.325089 54.65406,-7.228601 l 4.91407,-1.867199 -0.28406,10.16687 L 202.5,112.5 196,115.70788 c -13.79226,6.80675 -45.86793,9.98787 -72.46841,7.18709 z M 308,118.72418 C 299.02924,115.65455 293.38335,112.1329 286.80974,105.50665 276.83674,95.453797 272,83.506159 272,68.923834 c 0,-18.07428 8.33483,-33.957749 22.90018,-43.640265 5.5158,-3.666705 12.04871,-6.501516 17.84982,-7.745534 L 316,16.841089 V 43.970295 71.0995 l 13.51072,23.028404 c 7.43089,12.665626 13.27684,23.406816 12.991,23.869316 -0.94767,1.53337 -10.47689,3.00315 -19.30094,2.97696 -6.32467,-0.0188 -10.47588,-0.63322 -15.20078,-2.25 z M 121.5,83.903433 C 104.48608,81.845246 88.171023,76.494019 86.62479,72.464603 85.684301,70.013728 85.873937,54 86.84345,54 c 0.463897,0 3.501397,0.91462 6.75,2.03249 17.49171,6.019033 52.16748,8.608378 74.93635,5.595724 10.22443,-1.352841 23.44655,-4.27886 32.2202,-7.130241 2.22789,-0.72405 2.25,-0.636878 2.25,8.871207 v 9.602443 l -3.75,2.407798 c -8.91858,5.726437 -25.31545,8.681157 -50.75,9.145161 -10.45,0.190639 -22.6,-0.08888 -27,-0.621149 z M 117.65431,44.452761 C 102.73012,42.419825 87,36.71362 87,33.332705 c 0,-2.949414 14.12619,-8.31131 29,-11.007565 12.92262,-2.342552 44.76122,-2.363929 57.55402,-0.03864 14.90727,2.709626 28.54348,8.027529 28.85357,11.252428 0.1532,1.59331 -12.10936,7.094244 -19.75054,8.860006 -3.93638,0.909639 -10.53205,2.078111 -14.65705,2.596603 -10.66483,1.340518 -38.74226,1.037817 -50.34569,-0.542774 z"
         id="path2159" />
      <path
         style="fill:#4ad0d3"
         d="M 329,258.5 V 213 h 8.5 8.5 V 258.5 304 H 337.5 329 Z M 392,229 v -75 h 8.5 8.5 v 75 75 H 400.5 392 Z M 348.11941,93.433137 C 343.10374,84.871362 339,77.671362 339,77.433137 339,77.194912 347.325,77 357.5,77 c 14.81965,0 18.5,0.267263 18.5,1.34345 0,2.376526 -3.93544,12.870856 -6.40385,17.076643 C 366.89962,100.01456 359.24956,109 358.03443,109 c -0.43759,0 -4.89934,-7.00509 -9.91502,-15.566863 z"
         id="path2157" />
      <path
         style="fill:#a69ca7"
         d="m 93.374067,494.5 c 0.0023,-6.05 0.166961,-8.39607 0.366011,-5.21349 0.19905,3.18258 0.197204,8.13258 -0.0041,11 C 93.53467,503.15393 93.371811,500.55 93.374067,494.5 Z m 325.000003,0 c 0.002,-6.05 0.16696,-8.39607 0.36601,-5.21349 0.19905,3.18258 0.1972,8.13258 -0.004,11 -0.20131,2.86742 -0.36417,0.26349 -0.36191,-5.78651 z M 158.99975,459.37562 c -1.4e-4,-0.49249 21.22125,-0.75802 48.5,-0.60686 L 256,459.03751 V 429.01876 399 h 36.33985 36.33984 l 1.28976,7.25 c 2.51333,14.12806 10.1096,33.1534 18.43126,46.16224 2.0428,3.19341 3.57583,5.93284 3.40674,6.08762 -0.83701,0.76616 -192.80748,1.63811 -192.8077,0.87576 z M 46.75,398.25032 c 22.1375,-0.15015 58.3625,-0.15015 80.5,0 22.1375,0.15016 4.025,0.27301 -40.25,0.27301 -44.275,0 -62.3875,-0.12285 -40.25,-0.27301 z m 338,0 c 22.1375,-0.15015 58.3625,-0.15015 80.5,0 22.1375,0.15016 4.025,0.27301 -40.25,0.27301 -44.275,0 -62.3875,-0.12285 -40.25,-0.27301 z M 477,365.62244 c 0,-0.20765 0.7875,-0.99515 1.75,-1.75 1.58606,-1.24387 1.62143,-1.2085 0.37756,0.37756 C 477.82119,365.91575 477,366.44548 477,365.62244 Z M 48,229 V 107 h 11 11 v 42.68428 c 0,40.98975 0.0814,42.85241 2.050336,46.9197 6.918372,14.29145 37.666684,22.42407 79.811334,21.10929 33.65614,-1.04996 55.37695,-7.29525 63.80863,-18.3466 L 218.5,195.6578 218.77994,151.3289 219.05988,107 H 237.52994 256 v 33.5 c 0,28.35405 -0.21927,33.5 -1.42742,33.5 -0.78508,0 -2.36008,1.18569 -3.5,2.63486 C 249.02202,179.24173 249,179.99119 249,247.18031 v 67.9106 l 2.45455,2.45454 c 1.35,1.35 2.925,2.45455 3.5,2.45455 0.6823,0 1.04545,5.38406 1.04545,15.5 V 351 H 152 48 Z M 233.36514,317.92742 236,315.85484 v -37.75311 -37.7531 l -2.58056,-2.42432 C 230.86585,235.52534 230.62975,235.5 210.83285,235.5 h -20.00602 l -2.41341,2.80576 L 186,241.11153 v 36.98969 36.98969 l 2.45455,2.45454 c 2.44168,2.44169 2.55883,2.45455 22.36514,2.45455 18.62881,0 20.08022,-0.13343 22.54545,-2.07258 z m -81.35551,-6.59968 c 7.38198,-7.98636 18.42264,-21.38535 19.12469,-23.20982 0.50414,-1.31015 0.6201,-3.33515 0.2577,-4.5 -0.56174,-1.80557 -14.24166,-18.42069 -19.64202,-23.85645 -2.37667,-2.39225 -7.8439,-2.25429 -10.54933,0.26621 -3.74934,3.49303 -3.84405,6.60575 -0.35177,11.5603 L 143.95878,276 H 130.97939 118 v -12.77749 c 0,-14.18585 -0.80184,-16.5808 -5.92825,-17.70675 -3.31689,-0.72851 -8.46756,1.46736 -9.45057,4.02904 -0.34165,0.89033 -0.62118,9.65688 -0.62118,19.48122 0,17.12469 0.0937,17.97136 2.26816,20.49935 l 2.26816,2.63689 19.73184,-0.11869 C 137.12067,291.97829 146,292.18002 146,292.49186 c 0,0.31184 -1.8,2.84415 -4,5.62736 -4.26304,5.39315 -4.64627,6.74855 -2.88296,10.19652 2.04527,3.99931 4.82641,5.48639 8.6485,4.62437 1.91344,-0.43155 3.82328,-1.15712 4.24409,-1.61237 z M 265.46784,246.5 c 1.4e-4,-31.35 0.12689,-44.03046 0.28166,-28.1788 0.15477,15.85166 0.15466,41.50166 -2.6e-4,57 -0.15491,15.49834 -0.28154,2.5288 -0.2814,-28.8212 z M 135.8125,201.31689 c 0.72187,-0.28887 1.58437,-0.25335 1.91667,0.0789 0.33229,0.33229 -0.25834,0.56864 -1.3125,0.52522 -1.16495,-0.048 -1.4019,-0.28494 -0.60417,-0.60416 z M 139.25,101.31067 c 0.9625,-0.25152 2.5375,-0.25152 3.5,0 0.9625,0.25153 0.175,0.45733 -1.75,0.45733 -1.925,0 -2.7125,-0.2058 -1.75,-0.45733 z M 477.87244,93.25 C 476.62857,91.663944 476.66394,91.628574 478.25,92.872445 479.91575,94.178814 480.44548,95 479.62244,95 c -0.20765,0 -0.99515,-0.7875 -1.75,-1.75 z M 21.75,59.251794 c 8.9375,-0.165735 23.5625,-0.165735 32.5,0 8.9375,0.165735 1.625,0.301337 -16.25,0.301337 -17.875,0 -25.1875,-0.135602 -16.25,-0.301337 z m 207,0.0031 c 5.0875,-0.181491 13.4125,-0.181491 18.5,0 5.0875,0.181491 0.925,0.329984 -9.25,0.329984 -10.175,0 -14.3375,-0.148493 -9.25,-0.329984 z m 191.9288,-0.0042 c 15.49834,-0.154915 41.14834,-0.155031 57,-2.59e-4 15.85166,0.154772 3.1712,0.28152 -28.1788,0.281662 -31.35,1.42e-4 -44.31954,-0.126489 -28.8212,-0.281403 z M 126.8125,4.316886 c 0.72187,-0.2888706 1.58437,-0.2533443 1.91667,0.078947 0.33229,0.3322917 -0.25834,0.5686404 -1.3125,0.5252193 -1.16495,-0.047984 -1.4019,-0.2849403 -0.60417,-0.6041663 z m 34,0 c 0.72187,-0.2888706 1.58437,-0.2533443 1.91667,0.078947 0.33229,0.3322917 -0.25834,0.5686404 -1.3125,0.5252193 -1.16495,-0.047984 -1.4019,-0.2849403 -0.60417,-0.6041663 z"
         id="path2155" />
      <path
         style="fill:#fa5965"
         d="m 202,278 v -26 h 9 9 v 26 26 h -9 -9 z M 148.8125,101.31689 c 0.72187,-0.28887 1.58437,-0.25335 1.91667,0.0789 0.33229,0.3323 -0.25834,0.56864 -1.3125,0.52522 -1.16495,-0.048 -1.4019,-0.28494 -0.60417,-0.60416 z M 332,38.888709 V 16.777418 l 3.75,0.700288 c 7.35843,1.374138 17.64549,7.025253 24.55588,13.489584 5.1862,4.851437 7.62979,8.149727 10.67735,14.411972 2.1736,4.466406 4.24165,9.808238 4.59567,11.870738 L 376.22258,61 H 354.11129 332 Z"
         id="path2153" />
      <path
         style="fill:#665d66"
         d="m 109.32007,490 c 0,-3.575 0.1815,-5.0375 0.40333,-3.25 0.22182,1.7875 0.22182,4.7125 0,6.5 -0.22183,1.7875 -0.40333,0.325 -0.40333,-3.25 z m 292.9898,0.5 c 0.006,-3.3 0.1923,-4.52944 0.41486,-2.73209 0.22256,1.79735 0.21797,4.49735 -0.0102,6 -0.22818,1.50265 -0.41027,0.0321 -0.40466,-3.26791 z M 186.67196,475.25014 c 37.49457,-0.14518 99.14457,-0.14521 137,-5e-5 37.85542,0.14516 7.17804,0.26395 -68.17196,0.26397 -75.35,3e-5 -106.32262,-0.11874 -68.82804,-0.26392 z M 101,467.5 c 1.29175,-1.375 2.57363,-2.5 2.84863,-2.5 0.275,0 -0.55688,1.125 -1.84863,2.5 -1.29175,1.375 -2.573628,2.5 -2.848628,2.5 -0.275,0 0.556883,-1.125 1.848628,-2.5 z m 308.92431,-0.25 -2.42431,-2.75 2.75,2.42431 c 2.57029,2.26589 3.20859,3.07569 2.42431,3.07569 -0.17912,0 -1.41662,-1.2375 -2.75,-2.75 z M 272.5,459.27804 c 43.47718,-0.69666 80.50099,-0.70955 80.50052,-0.028 -2.9e-4,0.4125 -21.93802,0.64885 -48.75052,0.52522 -26.8125,-0.12363 -41.1,-0.34736 -31.75,-0.49718 z m 56.57895,-56.86137 c 0.048,-1.16495 0.28494,-1.4019 0.60416,-0.60417 0.28887,0.72187 0.25335,1.58438 -0.0789,1.91667 -0.33229,0.33229 -0.56864,-0.25834 -0.52522,-1.3125 z M 219.25,398.25038 c 20.2125,-0.15126 53.2875,-0.15126 73.5,0 20.2125,0.15127 3.675,0.27503 -36.75,0.27503 -40.425,0 -56.9625,-0.12376 -36.75,-0.27503 z m -83.5,-16.00034 c 66.1375,-0.14196 174.3625,-0.14196 240.5,0 66.1375,0.14195 12.025,0.2581 -120.25,0.2581 -132.275,0 -186.3875,-0.11615 -120.25,-0.2581 z M 31.485372,229 c 0,-72.325 0.119027,-101.9125 0.264504,-65.75 0.145476,36.1625 0.145476,95.3375 0,131.5 -0.145477,36.1625 -0.264504,6.575 -0.264504,-65.75 z m 448.999998,0 c 0,-72.325 0.11903,-101.9125 0.26451,-65.75 0.14547,36.1625 0.14547,95.3375 0,131.5 -0.14548,36.1625 -0.26451,6.575 -0.26451,-65.75 z m -433.001029,0 c 0,-67.375 0.119482,-94.9375 0.265516,-61.25 0.146034,33.6875 0.146034,88.8125 0,122.5 -0.146034,33.6875 -0.265516,6.125 -0.265516,-61.25 z M 256,335.58333 c 0,-9.38889 -0.39099,-15.54699 -1,-15.75 -0.55,-0.18333 8.26476,-0.33333 19.58835,-0.33333 20.43065,0 20.603,-0.0181 22.5,-2.36078 C 298.92879,314.86637 299,312.23754 299,246.56353 v -68.2149 l -2.31445,-2.17432 C 294.47528,174.09787 293.5075,174 275.18555,174 H 256 V 140.5 107 h 5.32317 c 5.16762,0 5.44019,0.14384 9.32721,4.9222 15.68241,19.27858 41.2717,29.04772 64.88402,24.77055 16.28484,-2.94985 32.10599,-12.08202 41.44577,-23.923 L 381.5,107.03949 423.25,107.01975 465,107 V 229 351 H 360.5 256 Z M 359.54545,317.54545 362,315.09091 v -56.97288 -56.97287 l -2.63486,-2.07258 C 356.90214,197.13519 355.44594,197 337.03946,197 h -19.69083 l -2.42432,2.58056 -2.42431,2.58057 v 56.50602 56.50602 l 2.80576,2.41341 c 2.75842,2.3727 3.13462,2.41342 22.29546,2.41342 19.35942,0 19.50609,-0.0164 21.94423,-2.45455 z M 328.46092,258.5 c 2.1e-4,-25.3 0.12996,-35.50664 0.28833,-22.68142 0.15837,12.82521 0.1582,33.52521 -3.8e-4,46 -0.15859,12.47478 -0.28816,1.98142 -0.28795,-23.31858 z m 17.99961,-0.5 c 0,-25.025 0.12983,-35.2625 0.28851,-22.75 0.15868,12.5125 0.15868,32.9875 0,45.5 -0.15868,12.5125 -0.28851,2.275 -0.28851,-22.75 z m 76.23371,59.58658 2.80576,-2.41341 V 229 142.82683 l -2.80576,-2.41341 C 419.93775,138.04239 419.54932,138 400.57909,138 c -18.02058,0 -19.48524,0.13833 -21.94423,2.07258 L 376,142.14516 V 229 315.85484 l 2.63486,2.07258 c 2.45899,1.93425 3.92365,2.07258 21.94423,2.07258 18.97023,0 19.35866,-0.0424 22.11515,-2.41342 z M 391.47522,229 c 0,-41.525 0.12349,-58.5125 0.27441,-37.75 0.15093,20.7625 0.15093,54.7375 0,75.5 -0.15092,20.7625 -0.27441,3.775 -0.27441,-37.75 z m 18,0 c 0,-41.525 0.12349,-58.5125 0.27441,-37.75 0.15093,20.7625 0.15093,54.7375 0,75.5 -0.15092,20.7625 -0.27441,3.775 -0.27441,-37.75 z m -221.60278,88.25 c -1.24387,-1.58606 -1.2085,-1.62143 0.37756,-0.37756 0.9625,0.75485 1.75,1.54235 1.75,1.75 0,0.82304 -0.82119,0.29331 -2.12756,-1.37244 z m 45.73351,-0.40206 c 1.04173,-1.45863 2.09405,-2.45863 2.33849,-2.22222 0.24445,0.23641 -0.60787,1.42984 -1.89404,2.65206 L 231.7119,319.5 Z m 17.26649,0.40206 c -1.24387,-1.58606 -1.2085,-1.62143 0.37756,-0.37756 0.9625,0.75485 1.75,1.54235 1.75,1.75 0,0.82304 -0.82119,0.29331 -2.12756,-1.37244 z M 151,311.62244 c 0,-0.20765 0.7875,-0.99515 1.75,-1.75 1.58606,-1.24387 1.62143,-1.2085 0.37756,0.37756 C 151.82119,311.91575 151,312.44548 151,311.62244 Z M 138.15789,305 c 0,-1.375 0.22698,-1.9375 0.50439,-1.25 0.27741,0.6875 0.27741,1.8125 0,2.5 -0.27741,0.6875 -0.50439,0.125 -0.50439,-1.25 z M 158,303.62244 c 0,-0.20765 0.7875,-0.99515 1.75,-1.75 1.58606,-1.24387 1.62143,-1.2085 0.37756,0.37756 C 158.82119,303.91575 158,304.44548 158,303.62244 Z M 143.5,296 c 0.99549,-1.1 2.03498,-2 2.30998,-2 0.275,0 -0.31449,0.9 -1.30998,2 -0.99549,1.1 -2.03498,2 -2.30998,2 -0.275,0 0.31449,-0.9 1.30998,-2 z m 22,-1 c 0.99549,-1.1 2.03498,-2 2.30998,-2 0.275,0 -0.31449,0.9 -1.30998,2 -0.99549,1.1 -2.03498,2 -2.30998,2 -0.275,0 0.31449,-0.9 1.30998,-2 z m 5.57895,-9.58333 c 0.048,-1.16495 0.28494,-1.4019 0.60416,-0.60417 0.28887,0.72187 0.25335,1.58438 -0.0789,1.91667 -0.3323,0.33229 -0.56864,-0.25834 -0.52522,-1.3125 z M 168.87244,280.25 c -1.24387,-1.58606 -1.2085,-1.62143 0.37756,-0.37756 0.9625,0.75485 1.75,1.54235 1.75,1.75 0,0.82304 -0.82119,0.29331 -2.12756,-1.37244 z M 124.25,276.25845 c 3.7125,-0.19241 9.7875,-0.19241 13.5,0 3.7125,0.19241 0.675,0.34983 -6.75,0.34983 -7.425,0 -10.4625,-0.15742 -6.75,-0.34983 z M 163.40499,273.75 161.5,271.5 l 2.25,1.90499 c 2.11444,1.79022 2.70524,2.59501 1.90499,2.59501 -0.18976,0 -1.20226,-1.0125 -2.25,-2.25 z m -21.53255,-0.5 c -1.24387,-1.58606 -1.2085,-1.62143 0.37756,-0.37756 1.66575,1.30637 2.19548,2.12756 1.37244,2.12756 -0.20765,0 -0.99515,-0.7875 -1.75,-1.75 z m 15.05187,-7 -2.42431,-2.75 2.75,2.42431 c 2.57029,2.26589 3.20859,3.07569 2.42431,3.07569 -0.17912,0 -1.41662,-1.2375 -2.75,-2.75 z M 138.15789,266 c 0,-1.375 0.22698,-1.9375 0.50439,-1.25 0.27741,0.6875 0.27741,1.8125 0,2.5 -0.27741,0.6875 -0.50439,0.125 -0.50439,-1.25 z m -23.28545,-18.75 c -1.24387,-1.58606 -1.2085,-1.62143 0.37756,-0.37756 0.9625,0.75485 1.75,1.54235 1.75,1.75 0,0.82304 -0.82119,0.29331 -2.12756,-1.37244 z M 108.75,245.33772 c 0.6875,-0.27741 1.8125,-0.27741 2.5,0 0.6875,0.27741 0.125,0.50439 -1.25,0.50439 -1.375,0 -1.9375,-0.22698 -1.25,-0.50439 z m 93.5,-10.08229 c 4.8125,-0.18331 12.6875,-0.18331 17.5,0 4.8125,0.18332 0.875,0.3333 -8.75,0.3333 -9.625,0 -13.5625,-0.14998 -8.75,-0.3333 z m -72.98625,-17.97301 c 1.52006,-0.22986 3.77006,-0.22371 5,0.0136 1.22994,0.23736 -0.0137,0.42542 -2.76375,0.41792 -2.75,-0.008 -3.75631,-0.20172 -2.23625,-0.43157 z m 27,0 c 1.52006,-0.22986 3.77006,-0.22371 5,0.0136 1.22994,0.23736 -0.0137,0.42542 -2.76375,0.41792 -2.75,-0.008 -3.75631,-0.20172 -2.23625,-0.43157 z M 117.75,216.33772 c 0.6875,-0.27741 1.8125,-0.27741 2.5,0 0.6875,0.27741 0.125,0.50439 -1.25,0.50439 -1.375,0 -1.9375,-0.22698 -1.25,-0.50439 z m 51,0 c 0.6875,-0.27741 1.8125,-0.27741 2.5,0 0.6875,0.27741 0.125,0.50439 -1.25,0.50439 -1.375,0 -1.9375,-0.22698 -1.25,-0.50439 z m -57.9375,-1.02083 c 0.72187,-0.28887 1.58437,-0.25335 1.91667,0.0789 0.33229,0.33229 -0.25834,0.56864 -1.3125,0.52522 -1.16495,-0.048 -1.4019,-0.28494 -0.60417,-0.60416 z m 66,0 c 0.72187,-0.28887 1.58437,-0.25335 1.91667,0.0789 0.33229,0.33229 -0.25834,0.56864 -1.3125,0.52522 -1.16495,-0.048 -1.4019,-0.28494 -0.60417,-0.60416 z m 6,-1 c 0.72187,-0.28887 1.58437,-0.25335 1.91667,0.0789 0.33229,0.33229 -0.25834,0.56864 -1.3125,0.52522 -1.16495,-0.048 -1.4019,-0.28494 -0.60417,-0.60416 z M 210,204.68709 c 0,-0.1721 1.4625,-1.6346 3.25,-3.25 l 3.25,-2.93709 -2.93709,3.25 C 210.82513,204.77946 210,205.45965 210,204.68709 Z M 74.872445,201.25 c -1.243871,-1.58606 -1.208501,-1.62143 0.377555,-0.37756 0.9625,0.75485 1.75,1.54235 1.75,1.75 0,0.82304 -0.821186,0.29331 -2.127555,-1.37244 z m 54.889215,0.0427 c 1.24391,-0.23919 3.04391,-0.23011 4,0.0202 0.95609,0.25029 -0.0617,0.446 -2.26166,0.4349 -2.2,-0.0111 -2.98225,-0.21589 -1.73834,-0.45508 z m 24.98834,0.002 c 1.2375,-0.23836 3.2625,-0.23836 4.5,0 1.2375,0.23835 0.225,0.43337 -2.25,0.43337 -2.475,0 -3.4875,-0.19502 -2.25,-0.43337 z m -34.9375,-0.97738 c 0.72187,-0.28887 1.58437,-0.25335 1.91667,0.0789 0.33229,0.33229 -0.25834,0.56864 -1.3125,0.52522 -1.16495,-0.048 -1.4019,-0.28494 -0.60417,-0.60416 z m 47.9375,0.0208 c 0.6875,-0.27741 1.8125,-0.27741 2.5,0 0.6875,0.27741 0.125,0.50439 -1.25,0.50439 -1.375,0 -1.9375,-0.22698 -1.25,-0.50439 z m 13.0625,-2.02083 c 0.72187,-0.28887 1.58437,-0.25335 1.91667,0.0789 0.33229,0.33229 -0.25834,0.56864 -1.3125,0.52522 -1.16495,-0.048 -1.4019,-0.28494 -0.60417,-0.60416 z M 70.078947,191.41667 c 0.04798,-1.16495 0.284941,-1.4019 0.604167,-0.60417 0.288871,0.72187 0.253344,1.58437 -0.07895,1.91667 -0.332292,0.33229 -0.568641,-0.25834 -0.52522,-1.3125 z M 86.872445,190.25 c -1.243871,-1.58606 -1.208501,-1.62143 0.377555,-0.37756 0.9625,0.75485 1.75,1.54235 1.75,1.75 0,0.82304 -0.821186,0.29331 -2.127555,-1.37244 z M 267.75,189.29427 c 1.2375,-0.23836 3.2625,-0.23836 4.5,0 1.2375,0.23835 0.225,0.43337 -2.25,0.43337 -2.475,0 -3.4875,-0.19502 -2.25,-0.43337 z m -139.5,-10.9836 c 0.9625,-0.25152 2.5375,-0.25152 3.5,0 0.9625,0.25153 0.175,0.45733 -1.75,0.45733 -1.925,0 -2.7125,-0.2058 -1.75,-0.45733 z m 30,0 c 0.9625,-0.25152 2.5375,-0.25152 3.5,0 0.9625,0.25153 0.175,0.45733 -1.75,0.45733 -1.925,0 -2.7125,-0.2058 -1.75,-0.45733 z m -40.4375,-0.99378 c 0.72187,-0.28887 1.58437,-0.25335 1.91667,0.0789 0.33229,0.33229 -0.25834,0.56864 -1.3125,0.52522 -1.16495,-0.048 -1.4019,-0.28494 -0.60417,-0.60416 z m 51.9375,0.0208 c 0.6875,-0.27741 1.8125,-0.27741 2.5,0 0.6875,0.27741 0.125,0.50439 -1.25,0.50439 -1.375,0 -1.9375,-0.22698 -1.25,-0.50439 z m 8.0625,-1.02083 c 0.72187,-0.28887 1.58437,-0.25335 1.91667,0.0789 0.33229,0.33229 -0.25834,0.56864 -1.3125,0.52522 -1.16495,-0.048 -1.4019,-0.28494 -0.60417,-0.60416 z m -50.05084,-14.02415 c 1.24391,-0.23919 3.04391,-0.23011 4,0.0202 0.95609,0.25029 -0.0617,0.446 -2.26166,0.4349 -2.2,-0.0111 -2.98225,-0.21589 -1.73834,-0.45508 z m 30.48834,0.0179 c 0.9625,-0.25152 2.5375,-0.25152 3.5,0 0.9625,0.25153 0.175,0.45733 -1.75,0.45733 -1.925,0 -2.7125,-0.2058 -1.75,-0.45733 z m -40.5,-0.97295 c 0.6875,-0.27741 1.8125,-0.27741 2.5,0 0.6875,0.27741 0.125,0.50439 -1.25,0.50439 -1.375,0 -1.9375,-0.22698 -1.25,-0.50439 z m 52.0625,-0.0208 c 0.72187,-0.28887 1.58437,-0.25335 1.91667,0.0789 0.33229,0.33229 -0.25834,0.56864 -1.3125,0.52522 -1.16495,-0.048 -1.4019,-0.28494 -0.60417,-0.60416 z m -58,-1 c 0.72187,-0.28887 1.58437,-0.25335 1.91667,0.0789 0.33229,0.33229 -0.25834,0.56864 -1.3125,0.52522 -1.16495,-0.048 -1.4019,-0.28494 -0.60417,-0.60416 z M 86.872445,151.25 c -1.243871,-1.58606 -1.208501,-1.62143 0.377555,-0.37756 0.9625,0.75485 1.75,1.54235 1.75,1.75 0,0.82304 -0.821186,0.29331 -2.127555,-1.37244 z M 125.25,139.31067 c 0.9625,-0.25152 2.5375,-0.25152 3.5,0 0.9625,0.25153 0.175,0.45733 -1.75,0.45733 -1.925,0 -2.7125,-0.2058 -1.75,-0.45733 z m 36.01903,-0.004 c 0.97297,-0.25354 2.32297,-0.23687 3,0.0371 0.67703,0.27393 -0.11903,0.48137 -1.76903,0.46099 -1.65,-0.0204 -2.20394,-0.2445 -1.23097,-0.49804 z M 115.75,138.33772 c 0.6875,-0.27741 1.8125,-0.27741 2.5,0 0.6875,0.27741 0.125,0.50439 -1.25,0.50439 -1.375,0 -1.9375,-0.22698 -1.25,-0.50439 z m 56.0625,-0.0208 c 0.72187,-0.28887 1.58437,-0.25335 1.91667,0.0789 0.33229,0.33229 -0.25834,0.56864 -1.3125,0.52522 -1.16495,-0.048 -1.4019,-0.28494 -0.60417,-0.60416 z m -45.54347,-15.00988 c 0.97297,-0.25354 2.32297,-0.23687 3,0.037 0.67703,0.27393 -0.11903,0.48137 -1.76903,0.46099 -1.65,-0.0204 -2.20394,-0.2445 -1.23097,-0.49804 z m 34,0 c 0.97297,-0.25354 2.32297,-0.23687 3,0.037 0.67703,0.27393 -0.11903,0.48137 -1.76903,0.46099 -1.65,-0.0204 -2.20394,-0.2445 -1.23097,-0.49804 z m -43.45653,-0.99012 c 0.72187,-0.28887 1.58437,-0.25335 1.91667,0.0789 0.33229,0.3323 -0.25834,0.56864 -1.3125,0.52522 -1.16495,-0.048 -1.4019,-0.28494 -0.60417,-0.60416 z m 54,0 c 0.72187,-0.28887 1.58437,-0.25335 1.91667,0.0789 0.33229,0.3323 -0.25834,0.56864 -1.3125,0.52522 -1.16495,-0.048 -1.4019,-0.28494 -0.60417,-0.60416 z M 318.25,121.31067 c 0.9625,-0.25152 2.5375,-0.25152 3.5,0 0.9625,0.25153 0.175,0.45733 -1.75,0.45733 -1.925,0 -2.7125,-0.2058 -1.75,-0.45733 z m 8,0 c 0.9625,-0.25152 2.5375,-0.25152 3.5,0 0.9625,0.25153 0.175,0.45733 -1.75,0.45733 -1.925,0 -2.7125,-0.2058 -1.75,-0.45733 z M 289.87244,109.25 c -1.24387,-1.58606 -1.2085,-1.62143 0.37756,-0.37756 0.9625,0.75485 1.75,1.54235 1.75,1.75 0,0.82304 -0.82119,0.29331 -2.12756,-1.37244 z m -7,-7 c -1.24387,-1.58606 -1.2085,-1.62143 0.37756,-0.37756 0.9625,0.75485 1.75,1.54235 1.75,1.75 0,0.82304 -0.82119,0.29331 -2.12756,-1.37244 z M 144.75,101.33772 c 0.6875,-0.27741 1.8125,-0.27741 2.5,0 0.6875,0.27741 0.125,0.50439 -1.25,0.50439 -1.375,0 -1.9375,-0.22698 -1.25,-0.50439 z m -20.48097,-1.03071 c 0.97297,-0.25354 2.32297,-0.23687 3,0.037 0.67703,0.27393 -0.11903,0.48137 -1.76903,0.46099 -1.65,-0.0204 -2.20394,-0.2445 -1.23097,-0.49804 z m 37.98097,0.004 c 0.9625,-0.25152 2.5375,-0.25152 3.5,0 0.9625,0.25153 0.175,0.45733 -1.75,0.45733 -1.925,0 -2.7125,-0.2058 -1.75,-0.45733 z m -46.4375,-0.993784 c 0.72187,-0.288871 1.58437,-0.253344 1.91667,0.07895 0.33229,0.332292 -0.25834,0.568641 -1.3125,0.52522 -1.16495,-0.04798 -1.4019,-0.284941 -0.60417,-0.604167 z m 57,0 c 0.72187,-0.288871 1.58437,-0.253344 1.91667,0.07895 0.33229,0.332292 -0.25834,0.568641 -1.3125,0.52522 -1.16495,-0.04798 -1.4019,-0.284941 -0.60417,-0.604167 z m -64,-1 c 0.72187,-0.288871 1.58437,-0.253344 1.91667,0.07895 0.33229,0.332292 -0.25834,0.568641 -1.3125,0.52522 -1.16495,-0.04798 -1.4019,-0.284941 -0.60417,-0.604167 z M 70.19586,83.766072 70,76.032144 42.75,75.749318 15.5,75.466492 42.781385,75.233246 c 22.134531,-0.189242 27.379061,0.02129 27.799127,1.115969 0.284758,0.742068 0.358772,4.454568 0.164475,8.25 L 70.391721,91.5 Z m 73.07317,1.540937 c 0.97297,-0.253543 2.32297,-0.236869 3,0.03705 0.67703,0.273923 -0.11903,0.481368 -1.76903,0.460988 -1.65,-0.02038 -2.20394,-0.244498 -1.23097,-0.498042 z m -19,-1 c 0.97297,-0.253543 2.32297,-0.236869 3,0.03705 0.67703,0.273923 -0.11903,0.481368 -1.76903,0.460988 -1.65,-0.02038 -2.20394,-0.244498 -1.23097,-0.498042 z m 38,0 c 0.97297,-0.253543 2.32297,-0.236869 3,0.03705 0.67703,0.273923 -0.11903,0.481368 -1.76903,0.460988 -1.65,-0.02038 -2.20394,-0.244498 -1.23097,-0.498042 z M 115.8125,83.316886 c 0.72187,-0.288871 1.58437,-0.253344 1.91667,0.07895 0.33229,0.332292 -0.25834,0.568641 -1.3125,0.52522 -1.16495,-0.04798 -1.4019,-0.284941 -0.60417,-0.604167 z m 56,0 c 0.72187,-0.288871 1.58437,-0.253344 1.91667,0.07895 0.33229,0.332292 -0.25834,0.568641 -1.3125,0.52522 -1.16495,-0.04798 -1.4019,-0.284941 -0.60417,-0.604167 z m -62,-1 c 0.72187,-0.288871 1.58437,-0.253344 1.91667,0.07895 0.33229,0.332292 -0.25834,0.568641 -1.3125,0.52522 -1.16495,-0.04798 -1.4019,-0.284941 -0.60417,-0.604167 z M 392.25707,77 c 0.35709,-1.308587 7.03435,-1.501767 52.32613,-1.513849 l 51.9168,-0.01385 -51.44666,0.273037 c -39.55906,0.209947 -51.64988,0.559747 -52.32613,1.513849 -0.64556,0.910792 -0.7706,0.841855 -0.47014,-0.259187 z M 228.30194,75.253872 c 5.39107,-0.180152 13.94107,-0.179366 19,0.0017 5.05893,0.181113 0.64806,0.32851 -9.80194,0.327549 -10.45,-9.61e-4 -14.58913,-0.149144 -9.19806,-0.329296 z M 271.32007,69 c 0,-3.575 0.1815,-5.0375 0.40333,-3.25 0.22182,1.7875 0.22182,4.7125 0,6.5 -0.22183,1.7875 -0.40333,0.325 -0.40333,-3.25 z M 131.76166,62.292739 c 1.24391,-0.239193 3.04391,-0.230112 4,0.02018 0.95609,0.250292 -0.0617,0.445996 -2.26166,0.434897 -2.2,-0.0111 -2.98225,-0.215885 -1.73834,-0.455077 z m 22,0 c 1.24391,-0.239193 3.04391,-0.230112 4,0.02018 0.95609,0.250292 -0.0617,0.445996 -2.26166,0.434897 -2.2,-0.0111 -2.98225,-0.215885 -1.73834,-0.455077 z M 120.8125,61.316886 c 0.72187,-0.288871 1.58437,-0.253344 1.91667,0.07895 0.33229,0.332292 -0.25834,0.568641 -1.3125,0.52522 -1.16495,-0.04798 -1.4019,-0.284941 -0.60417,-0.604167 z m 45.9375,0.02083 c 0.6875,-0.277412 1.8125,-0.277412 2.5,0 0.6875,0.277413 0.125,0.504386 -1.25,0.504386 -1.375,0 -1.9375,-0.226973 -1.25,-0.504386 z m -52.9375,-1.020833 c 0.72187,-0.288871 1.58437,-0.253344 1.91667,0.07895 0.33229,0.332292 -0.25834,0.568641 -1.3125,0.52522 -1.16495,-0.04798 -1.4019,-0.284941 -0.60417,-0.604167 z M 70.397394,45 c 0,-7.975 0.155301,-11.2375 0.345113,-7.25 0.189811,3.9875 0.189811,10.5125 0,14.5 -0.189812,3.9875 -0.345113,0.725 -0.345113,-7.25 z m 69.386126,1.261596 c 2.90594,-0.202642 7.40594,-0.200512 10,0.0047 2.59406,0.205245 0.21648,0.371043 -5.28352,0.368439 -5.5,-0.0026 -7.62242,-0.170532 -4.71648,-0.373173 z M 122.75,45.337719 c 0.6875,-0.277412 1.8125,-0.277412 2.5,0 0.6875,0.277413 0.125,0.504386 -1.25,0.504386 -1.375,0 -1.9375,-0.226973 -1.25,-0.504386 z m 41,0 c 0.6875,-0.277412 1.8125,-0.277412 2.5,0 0.6875,0.277413 0.125,0.504386 -1.25,0.504386 -1.375,0 -1.9375,-0.226973 -1.25,-0.504386 z m -48.9375,-1.020833 c 0.72187,-0.288871 1.58437,-0.253344 1.91667,0.07895 0.33229,0.332292 -0.25834,0.568641 -1.3125,0.52522 -1.16495,-0.04798 -1.4019,-0.284941 -0.60417,-0.604167 z m 58,0 c 0.72187,-0.288871 1.58437,-0.253344 1.91667,0.07895 0.33229,0.332292 -0.25834,0.568641 -1.3125,0.52522 -1.16495,-0.04798 -1.4019,-0.284941 -0.60417,-0.604167 z M 360.92431,31.25 358.5,28.5 l 2.75,2.424314 c 1.5125,1.333373 2.75,2.570873 2.75,2.75 0,0.784274 -0.8098,0.145975 -3.07569,-2.424314 z m -148,-10 -2.42431,-2.75 2.75,2.424314 C 215.82029,23.190201 216.45859,24 215.67431,24 c -0.17912,0 -1.41662,-1.2375 -2.75,-2.75 z M 275,20.5 c 1.86578,-1.925 3.61733,-3.5 3.89233,-3.5 0.275,0 -1.02655,1.575 -2.89233,3.5 -1.86578,1.925 -3.61733,3.5 -3.89233,3.5 -0.275,0 1.02655,-1.575 2.89233,-3.5 z m -156.1875,0.816886 c 0.72187,-0.288871 1.58437,-0.253344 1.91667,0.07895 0.33229,0.332292 -0.25834,0.568641 -1.3125,0.52522 -1.16495,-0.04798 -1.4019,-0.284941 -0.60417,-0.604167 z m 50,0 c 0.72187,-0.288871 1.58437,-0.253344 1.91667,0.07895 0.33229,0.332292 -0.25834,0.568641 -1.3125,0.52522 -1.16495,-0.04798 -1.4019,-0.284941 -0.60417,-0.604167 z m -41.54347,-1.009877 c 0.97297,-0.253543 2.32297,-0.236869 3,0.03705 0.67703,0.273923 -0.11903,0.481368 -1.76903,0.460988 -1.65,-0.02038 -2.20394,-0.244498 -1.23097,-0.498042 z m 30.98097,0.0037 c 0.9625,-0.251527 2.5375,-0.251527 3.5,0 0.9625,0.251528 0.175,0.457323 -1.75,0.457323 -1.925,0 -2.7125,-0.205795 -1.75,-0.457323 z M 119.8125,5.316886 c 0.72187,-0.2888706 1.58437,-0.2533443 1.91667,0.078947 0.33229,0.3322917 -0.25834,0.5686404 -1.3125,0.5252193 -1.16495,-0.047984 -1.4019,-0.2849403 -0.60417,-0.6041663 z m 48,0 c 0.72187,-0.2888706 1.58437,-0.2533443 1.91667,0.078947 0.33229,0.3322917 -0.25834,0.5686404 -1.3125,0.5252193 -1.16495,-0.047984 -1.4019,-0.2849403 -0.60417,-0.6041663 z M 130.26903,4.3070093 c 0.97297,-0.2535434 2.32297,-0.2368691 3,0.037054 0.67703,0.2739231 -0.11903,0.4813677 -1.76903,0.460988 -1.65,-0.02038 -2.20394,-0.2444986 -1.23097,-0.498042 z m 26,0 c 0.97297,-0.2535434 2.32297,-0.2368691 3,0.037054 0.67703,0.2739231 -0.11903,0.4813677 -1.76903,0.460988 -1.65,-0.02038 -2.20394,-0.2444986 -1.23097,-0.498042 z M 316.75,0.3377193 c 0.6875,-0.27741228 1.8125,-0.27741228 2.5,0 0.6875,0.27741228 0.125,0.50438596 -1.25,0.50438596 -1.375,0 -1.9375,-0.22697368 -1.25,-0.50438596 z m 12,0 c 0.6875,-0.27741228 1.8125,-0.27741228 2.5,0 0.6875,0.27741228 0.125,0.50438596 -1.25,0.50438596 -1.375,0 -1.9375,-0.22697368 -1.25,-0.50438596 z"
         id="path2151" />
      <path
         style="fill:#010101"
         d="m 98.315372,510.99302 c -3.641632,-1.46725 -4.316428,-4.24559 -4.29341,-17.67728 0.02463,-14.36943 1.352027,-18.95288 7.284618,-25.15337 6.08143,-6.35605 9.72875,-7.55601 24.19342,-7.95954 14.76997,-0.41206 12.95071,0.58297 21.41136,-11.71077 9.1501,-13.29557 17.74994,-33.38219 19.61394,-45.8122 L 167.22709,398 H 86.224328 C 7.9594704,398 5.1417732,397.93539 2.860784,396.08835 L 0.5,394.17671 V 229.12407 C 0.5,72.053039 0.58628955,63.985075 2.2843916,62.285714 3.9043571,60.664548 7.1294961,60.453927 37.284392,60 L 70.5,59.5 71,43.5 C 71.524448,26.717658 71.880036,25.297715 76.663944,20.882542 93.838773,5.0315207 148.28182,-0.74749144 187.40773,9.1273279 c 16.17931,4.0834251 28.4178,11.9841471 30.57081,19.7353951 0.55567,2.000502 1.01282,9.824777 1.01588,17.387277 L 219,60 h 18.48095 18.48095 l 0.57768,-2.75 c 3.1594,-15.039869 9.1899,-26.202222 19.8623,-36.764756 C 285.2329,11.74513 293.52644,6.760651 305.5,2.9970497 314.54755,0.1531703 331.3433,-0.11856351 341,2.422705 c 24.55138,6.4609689 43.94332,26.09329 49.63939,50.254722 L 392.36569,60 h 57.20637 c 54.83508,0 57.30423,0.07924 59.56716,1.911647 L 511.5,63.823294 V 229 394.17671 l -2.36078,1.91164 C 506.85823,397.93539 504.04053,398 425.77567,398 h -81.00276 l 0.68867,4.75 c 1.75641,12.11449 10.48632,32.46009 19.62706,45.74206 8.46065,12.29374 6.64139,11.29871 21.41136,11.71077 14.47916,0.40394 18.18236,1.62507 24.13805,7.95954 5.86542,6.23847 6.76742,9.14103 7.18367,23.11648 0.20934,7.02837 0.10357,13.88269 -0.23504,15.23182 -1.45499,5.79714 7.55214,5.49506 -161.78702,5.42594 -86.95163,-0.0355 -156.261124,-0.45077 -157.484288,-0.94359 z M 402.76039,488.89526 c -0.45068,-6.29883 -0.86511,-7.46152 -3.65353,-10.25 L 395.96167,475.5 H 256.63238 c -117.26364,0 -139.74204,0.22089 -141.93559,1.39476 C 111.08921,478.82537 109,483.77862 109,490.40113 V 496 H 256.13437 403.26873 Z M 353,459.35806 c 0,-0.35306 -1.74467,-3.40442 -3.87703,-6.78078 -8.97066,-14.20404 -15.78981,-30.95565 -18.57235,-45.62401 C 329.69778,402.45746 329,398.60377 329,398.38953 329,398.17529 296.17039,398 256.04531,398 h -72.95468 l -0.64651,3.75 c -3.12887,18.14878 -9.68965,35.18746 -19.57749,50.84375 C 160.73998,455.96106 159,459.005 159,459.35806 159,459.71113 202.65,460 256,460 c 53.35,0 97,-0.28887 97,-0.64194 z M 496,229 V 75 h -51.53138 c -40.37548,0 -51.60566,0.27061 -51.87445,1.25 -0.18868,0.6875 -1.00992,4.273893 -1.82497,7.969763 l -1.48192,6.719763 43.44538,0.280237 43.44538,0.280237 1.91098,2.360784 C 479.94888,96.158414 480,99.773557 480,229 c 0,129.24287 -0.0509,132.84129 -1.91165,135.13922 L 476.17671,366.5 H 256 35.823294 l -1.911647,-2.36078 C 32.050902,361.84129 32,358.24287 32,229 32,99.808994 32.051592,96.157784 33.909546,93.860784 35.766168,91.565429 36.307744,91.491272 53.450441,91.185063 L 71.081791,90.870125 70.790895,83.185063 70.5,75.5 43.25,75.233928 16,74.967856 V 228.98393 383 h 240 240 z m -31,0 V 107 l -41.75,0.0198 -41.75,0.0197 -4.51983,5.73026 c -9.33978,11.84098 -25.16093,20.97315 -41.44577,23.923 -23.61232,4.27717 -49.20161,-5.49197 -64.88402,-24.77055 L 266.64635,107 H 242.82317 219 l -0.006,41.75 c -0.003,25.3716 -0.40686,43.19481 -1.02849,45.43294 -1.40162,5.0465 -9.2882,11.93274 -17.37277,15.16921 -15.8298,6.33711 -45.4689,9.57545 -70.74409,7.72944 -24.13514,-1.76275 -39.516637,-5.61438 -49.514721,-12.39881 -5.713955,-3.87734 -8.180679,-7.10255 -9.376874,-12.26017 C 70.457106,190.26517 70.036978,170.1625 70.023857,147.75 L 70,107 H 58.5 47 V 229 351 H 256 465 Z M 191.357,319.03932 C 186.06679,316.82818 186,316.31936 186,278.22783 c 0,-37.06229 0.31927,-39.98516 4.5448,-41.60665 C 191.43513,236.27953 200.92223,236 211.62724,236 c 19.3318,0 19.4803,0.0166 21.91821,2.45455 L 236,240.90909 v 36.48969 36.48969 l -2.41135,2.80577 -2.41134,2.80576 -18.83866,0.21751 c -10.36126,0.11963 -19.803,-0.18555 -20.98165,-0.67819 z M 220,278 v -26 h -9 -9 v 26 26 h 9 9 z m 34.01971,40.74721 c -5.05069,-2.61999 -4.98921,-1.74349 -5.00497,-71.34799 -0.0152,-67.16941 0.16171,-70.35292 4.0247,-72.42033 C 254.05668,174.43448 263.6973,174 274.75994,174 c 19.49931,0 19.93429,0.0456 22.06575,2.31445 L 299,178.6289 v 68.07477 c 0,65.51127 -0.0719,68.16366 -1.90972,70.43555 -1.87297,2.31534 -2.28197,2.36592 -21.25,2.6277 -14.25901,0.19679 -19.99193,-0.0711 -21.82057,-1.01971 z M 283,247.12913 v -56.87088 l -7.98624,-0.69665 c -4.39243,-0.38315 -8.44243,-0.4147 -9,-0.0701 C 265.34795,189.90299 265,209.66168 265,247.05902 V 304 h 9 9 z m 32.30576,70.45745 -2.80576,-2.41341 v -56.50602 -56.50602 l 2.42431,-2.58057 L 317.34863,197 h 19.69083 c 18.40648,0 19.86268,0.13519 22.32568,2.07258 L 362,201.14516 v 56.97287 56.97288 l -2.45455,2.45454 C 357.10731,319.98359 356.96064,320 337.60122,320 c -19.16084,0 -19.53704,-0.0407 -22.29546,-2.41342 z M 346.76019,258.25 347.02038,213 H 337.51019 328 v 45.53753 45.53752 l 9.25,-0.28752 L 346.5,303.5 Z M 378.63486,317.92742 376,315.85484 V 229 142.14516 l 2.63486,-2.07258 C 381.09385,138.13833 382.55851,138 400.57909,138 c 18.97023,0 19.35866,0.0424 22.11515,2.41342 L 425.5,142.82683 V 229 315.17317 l -2.80576,2.41341 C 419.93775,319.95761 419.54932,320 400.57909,320 c -18.02058,0 -19.48524,-0.13833 -21.94423,-2.07258 z M 410,229 v -75 h -9.5 -9.5 v 75 75 h 9.5 9.5 z m -268.36514,81.92742 c -4.10712,-3.23066 -3.60623,-7.68415 1.53147,-13.6166 l 4.16633,-4.81082 -20.91633,-0.55134 c -11.50398,-0.30323 -21.01727,-0.64073 -21.14065,-0.75 -0.12338,-0.10926 -0.9395,-1.58166 -1.8136,-3.27199 -1.3147,-2.54235 -1.5351,-6.09971 -1.27568,-20.59045 0.30476,-17.02331 0.38015,-17.57096 2.67438,-19.42667 3.49484,-2.82684 8.53221,-2.49669 11.06664,0.72531 1.85284,2.3555 2.07258,3.99888 2.07258,15.5 L 118,277 h 13 c 8.8281,0 13,-0.35482 13,-1.10564 0,-0.60811 -1.125,-2.44263 -2.5,-4.07673 -3.97412,-4.72297 -2.94529,-10.93743 2.1302,-12.86713 4.56101,-1.7341 7.06012,-0.0187 17.32894,11.89486 13.10086,15.19915 13.08933,14.53638 0.50617,29.09207 -12.15749,14.06328 -14.36682,15.28768 -19.83045,10.98999 z m 35.49662,-111.35854 c 10.39425,-1.9208 18.89582,-4.74007 22.9072,-7.59642 2.94507,-2.09708 2.96132,-2.16373 2.96132,-12.14754 0,-8.09793 -0.26535,-9.93707 -1.37244,-9.51224 -14.50133,5.56468 -31.82876,8.02411 -56.62756,8.03764 -25.08991,0.0137 -36.45696,-1.56592 -56.786376,-7.89122 l -2.286376,-0.71139 0.286376,10.37464 0.286376,10.37464 5,2.70186 c 5.741706,3.10266 15.09402,5.58488 28,7.43156 12.00493,1.71774 45.97793,1.09199 57.63148,-1.06153 z m 3.05168,-39.49264 c 10.16974,-2.19503 18.12639,-5.14201 21.06684,-7.80271 1.44336,-1.30604 1.75,-3.32732 1.75,-11.53551 0,-8.05952 -0.2629,-9.85111 -1.38252,-9.42147 -12.69109,4.87002 -28.35239,7.55926 -48.61748,8.34821 -22.87262,0.89046 -49.80752,-2.21488 -61.46717,-7.0866 C 89.455437,131.71017 87.360708,131 86.877876,131 86.395044,131 86,135.49362 86,140.98581 v 9.98581 l 3.75,2.43348 c 4.652716,3.01927 14.39245,6.02365 24.25,7.48031 4.125,0.60956 8.625,1.30155 10,1.53776 1.375,0.23622 12.4,0.27504 24.5,0.0863 17.60315,-0.27461 23.93524,-0.76091 31.68316,-2.43321 z m 0.43524,-38.88193 c 9.54664,-2.07749 17.57081,-5.15058 20.59506,-7.88749 1.4874,-1.34608 1.78654,-3.28316 1.78654,-11.5688 0,-9.090254 -0.15153,-9.88862 -1.75,-9.220073 -5.07653,2.123219 -13.83842,4.457646 -22.75,6.061269 -12.77802,2.299384 -50.40257,2.621804 -64,0.548449 C 106.68838,97.936536 93.210877,94.579106 87.75,92.463873 86.154565,91.845892 86,92.672289 86,101.82043 c 0,9.59828 0.112266,10.12272 2.582994,12.06619 3.692897,2.90484 11.918576,5.77569 21.569516,7.52801 12.96722,2.35445 13.92274,2.40617 38.34749,2.07543 18.33731,-0.24831 24.84853,-0.71372 32.1184,-2.29575 z M 337,120.16697 c 3.575,-0.93311 6.41525,-2.16917 6.31166,-2.74678 -0.10358,-0.57762 -6.17858,-11.14596 -13.5,-23.485201 L 316.5,71.5 l -0.29584,-27.370478 -0.29584,-27.370478 -4.15236,0.663989 c -7.14094,1.141882 -16.47867,6.350747 -23.84937,13.303895 -21.84664,20.609013 -22.2927,54.1182 -1.00306,75.352352 13.5836,13.5482 32.15491,18.77066 50.09647,14.08769 z m 28.27943,-18.074 c 4.52642,-5.500768 8.34683,-12.98995 10.18917,-19.973933 L 376.81898,77 h -19.46617 -19.46617 l 2.56164,4.25 c 1.40891,2.3375 5.77835,9.73151 9.70987,16.431134 8.12993,13.854026 7.50226,13.670896 15.12128,4.411836 z M 258.62574,89.46709 c -0.32352,-0.8431 -1.12445,-4.4431 -1.77984,-8 L 255.6543,75 H 237.32715 219 v 8 8 h 20.10699 c 17.65389,0 20.03522,-0.187018 19.51875,-1.53291 z M 173.1416,83.42184 c 11.46089,-1.571439 21.40977,-4.411093 26.6084,-7.594687 L 203,73.836881 V 63.472302 53.107723 l -5.75,2.015088 C 183.15222,60.063382 153.47543,63.638631 136,62.501778 117.04436,61.268631 97.113056,57.566152 87.75,53.538761 86.149589,52.850366 86,53.64376 86,62.820431 c 0,9.598279 0.112266,10.122717 2.582994,12.066192 11.565266,9.097239 51.247096,13.102663 84.558606,8.535217 z M 375.57662,56.75 C 374.35872,49.12694 368.47671,38.587824 361.60479,31.715898 354.68508,24.796188 343.68886,18.594945 336.25,17.417237 L 332,16.744384 V 38.872192 61 h 22.12781 22.12781 z M 161.5,45.946813 c 18.95798,-1.631259 35.78537,-6.289704 40.15295,-11.115825 1.73768,-1.920113 1.7158,-2.045111 -0.67869,-3.87761 C 197.61578,28.383148 186.11883,24.289122 177,22.416222 166.7255,20.305961 134.00847,19.415741 122.47744,20.932681 105.93559,23.108808 90.725069,28.011567 87.149548,32.319806 83.463168,36.761622 104.13088,43.983172 126,45.894622 c 13.77659,1.204131 21.97248,1.21618 35.5,0.05219 z"
         id="path2149" />
    </g>
  </g>
</svg>
