<?xml version="1.0" encoding="UTF-8" standalone="no"?>
<!-- Created with Inkscape (http://www.inkscape.org/) -->

<svg
   version="1.1"
   id="svg102"
   width="512"
   height="512"
   viewBox="0 0 512 512"
   xmlns="http://www.w3.org/2000/svg"
   xmlns:svg="http://www.w3.org/2000/svg">
  <defs
     id="defs106" />
  <g
     id="g108">
    <g
       id="g220">
      <path
         style="fill:#9c9d9d"
         d="M 118.04698,510.40584 C 108.70533,507.47638 101.75,497.3176 101.75,486.60286 c 0,-10.97926 5.52299,-19.49256 15.72905,-24.24521 4.63035,-2.15622 6.32355,-2.33887 21.76506,-2.34788 l 16.74411,-0.01 7.99673,-15.96994 7.99673,-15.96995 -75.740841,-0.28005 C 21.640196,427.50422 20.431493,427.4683 15.949195,425.39434 8.8851445,422.12581 4.355504,417.5661 2.0492785,411.40216 0.00971447,405.95094 0,405.01506 0,213.97684 0,64.212459 0.27318093,20.981658 1.2430512,17.264351 2.9649711,10.664598 10.664598,2.9649711 17.264351,1.2430512 c 6.962126,-1.81646536 470.509169,-1.81646536 477.471299,0 6.59975,1.7219199 14.29938,9.4215468 16.0213,16.0212998 0.9698,3.717038 1.24305,46.81739 1.24305,196.068499 0,210.73135 0.38702,197.73995 -6.11132,205.14116 -1.66401,1.8952 -5.58219,4.70136 -8.70708,6.2359 L 491.5,427.5 l -75.74084,0.28006 -75.74084,0.28005 7.99673,15.96995 7.99673,15.96994 16.74411,0.01 c 15.44151,0.009 17.13471,0.19166 21.76506,2.34788 10.1396,4.7217 15.73159,13.28056 15.72577,24.06915 -0.004,7.5007 -1.872,12.12649 -7.25509,17.96646 -7.49241,8.1283 2.51099,7.61962 -147.64554,7.50787 -110.7087,-0.0824 -133.58814,-0.33157 -137.29911,-1.49529 z M 476.77088,336.5 c 0.257,-18.97459 0.18516,-19.87182 -1.40112,-17.5 -12.30799,18.40301 -36.59956,20.66067 -50.92033,4.73253 -13.86292,-15.4189 -8.69692,-40.10404 10.34219,-49.41901 4.69414,-2.29663 7.01895,-2.7872 13.20838,-2.7872 9.88255,0 16.88673,3.28213 23.97441,11.23432 L 477,288.39923 V 264.5 240.60077 l -5.02559,5.63859 c -7.08768,7.95219 -14.09186,11.23432 -23.97441,11.23432 -6.18943,0 -8.51424,-0.49057 -13.20838,-2.7872 -13.54355,-6.62624 -20.94372,-21.73742 -17.40656,-35.54427 1.82383,-7.11912 5.08592,-12.6722 9.772,-16.63495 9.88774,-8.3615 23.08501,-10.12414 34.33495,-4.58581 5.71083,2.81143 11.03793,7.56024 14.19918,12.65775 0.94186,1.51875 1.19685,-3.20743 1.2182,-22.5792 0.0242,-21.91433 -0.13002,-24.28893 -1.46082,-22.5 -3.96633,5.33171 -9.46421,10.0487 -14.44857,12.39636 -7.79015,3.66919 -18.23699,3.66288 -26,-0.0157 -7.01312,-3.32325 -12.59384,-8.91327 -15.80018,-15.82652 -7.3911,-15.93605 0.89265,-35.82939 17.50835,-42.04612 14.04658,-5.2555 30.04442,0.13807 38.53548,12.992 1.55861,2.35947 1.65261,1.12279 1.67222,-22 l 0.0208,-24.5 -2.17507,3 c -3.64288,5.02448 -8.42132,9.154853 -13.46352,11.63754 -6.93593,3.41511 -19.718,3.3862 -26.72096,-0.0605 -23.8829,-11.754457 -23.90345,-45.38049 -0.0349,-57.094658 7.06952,-3.469566 19.83673,-3.526811 26.75586,-0.119967 5.0422,2.482682 9.82064,6.613055 13.46352,11.637535 l 2.17507,3 0.018,-17.5 c 0.01,-9.625 -0.25332,-18.5125 -0.58496,-19.75 L 475.76674,19 H 439.38337 403 V 188.01232 357.02464 L 439.75,356.76232 476.5,356.5 Z"
         id="path234" />
      <path
         style="fill:#f5cf01"
         d="m 120.99353,511.07297 c -15.4165,-4.73443 -23.111456,-22.12068 -15.97851,-36.10241 2.45965,-4.82131 7.62569,-9.8159 12.48498,-12.07062 3.36847,-1.56298 6.55268,-1.85948 20.16821,-1.87798 8.89252,-0.0121 16.90658,-0.3053 17.80903,-0.6516 2.36928,-0.90918 17.91346,-32.28854 16.29088,-32.88675 C 171.07066,427.22647 136.525,426.89996 95,426.75804 L 19.5,426.5 14.621093,424.00837 c -2.683399,-1.3704 -6.3807647,-4.24622 -8.216369,-6.39071 -6.91602407,-8.07982 -6.45264041,7.41613 -6.16479304,-206.15601 L 0.5,18.5 2.662371,14.5 C 5.2114741,9.7846148 10.114345,4.961056 15,2.3619531 18.38521,0.56106673 26.28932,0.5 256,0.5 c 229.62864,0 237.616,0.0616513 241,1.8601846 5.80585,3.0857031 10.87688,8.6948234 13.00643,14.3865584 C 511.97234,22.001089 512,24.729308 512,213.35937 c 0,210.65321 0.43994,196.0117 -6.12908,203.98106 -1.69031,2.05063 -5.39025,4.95043 -8.2221,6.444 L 492.5,426.5 417,426.75804 c -41.525,0.14192 -76.07066,0.46843 -76.76812,0.72557 -1.62258,0.59821 13.9216,31.97757 16.29088,32.88675 0.90245,0.3463 8.91651,0.63952 17.80903,0.6516 18.05793,0.0245 21.40702,0.87069 27.47903,6.9427 12.55544,12.55545 9.47812,32.94296 -6.24261,41.35776 L 391.5,511.5 l -134,0.17135 c -73.7,0.0942 -135.12791,-0.17503 -136.50647,-0.59838 z M 480.843,357.34632 493,356.69265 V 190.45711 C 493,-1.2850365 494.38686,20.114494 481.87929,18.862378 477.82068,18.456076 458.1875,18.095826 438.25,18.061823 L 402,18 v 169.33333 c 0,93.13334 0.3,169.63334 0.66667,170 0.85897,0.85897 62.25315,0.86918 78.17633,0.013 z m -43.10248,-25.7165 c -6.80967,-2.53706 -14.1338,-9.346 -17.35028,-16.12982 -3.33322,-7.03002 -3.33103,-17.93759 0.005,-25.10217 8.90164,-19.11731 34.17644,-23.75945 48.94612,-8.98977 5.67929,5.67929 9.96855,14.96838 9.97013,21.59194 0.002,9.64469 -8.2367,22.25201 -17.81152,27.25518 -5.11436,2.67243 -18.23811,3.43172 -23.75948,1.37464 z m 4.60323,-75.66054 c -9.48928,-1.9018 -17.81477,-8.48949 -21.94848,-17.36711 -3.31759,-7.12492 -3.33408,-18.04417 -0.0379,-25.12245 2.91709,-6.26427 11.09732,-13.76516 17.32661,-15.88769 5.96988,-2.03415 14.66224,-2.03415 20.63212,0 10.68541,3.64088 21.19782,18.0384 21.04078,28.81688 -0.0906,6.21575 -4.61275,15.78033 -10.01545,21.18303 -6.68774,6.68774 -17.96609,10.1874 -26.99764,8.37734 z m -2.55142,-77.31215 c -16.65876,-4.69385 -25.96166,-23.06454 -20.21723,-39.92352 2.07129,-6.0789 8.42783,-13.1721 14.80155,-16.51691 4.39322,-2.30548 6.33469,-2.68864 13.62335,-2.68864 7.26511,0 9.23562,0.3862 13.56346,2.65829 9.92999,5.21319 17.72225,17.21557 17.72225,27.29748 0,10.25468 -9.465,23.76835 -19.61892,28.01093 -5.24608,2.19195 -14.33404,2.72346 -19.87446,1.16237 z m -1.45988,-77.44691 C 424.51724,96.272177 417.29188,85.196093 418.16906,70.300862 419.13725,53.860444 431.30096,42.541373 448,42.541373 c 12.71075,0 21.85676,5.855475 27.97562,17.910585 4.22515,8.324234 4.44632,14.76236 0.78207,22.766135 -7.09792,15.503907 -23.67315,23.265047 -38.42524,17.992127 z m 13.98329,-19.32726 c 6.02252,-3.079942 7.70431,-11.411248 3.26949,-16.196494 -6.54375,-7.060827 -17.61469,-2.831419 -17.56299,6.709557 0.0427,7.876835 7.61465,12.902534 14.2935,9.486937 z"
         id="path232" />
      <path
         style="fill:#7d8c92"
         d="m 120.99353,511.07297 c -15.4165,-4.73443 -23.111456,-22.12068 -15.97851,-36.10241 2.45965,-4.82131 7.62569,-9.8159 12.48498,-12.07062 3.36847,-1.56298 6.55268,-1.85948 20.16821,-1.87798 8.89252,-0.0121 16.90658,-0.3053 17.80903,-0.6516 2.36928,-0.90918 17.91346,-32.28854 16.29088,-32.88675 C 171.07066,427.22647 136.525,426.89996 95,426.75804 L 19.5,426.5 14.621093,424.00837 c -2.683399,-1.3704 -6.3807647,-4.24622 -8.216369,-6.39071 -6.91602407,-8.07982 -6.45264041,7.41613 -6.16479304,-206.15601 L 0.5,18.5 2.662371,14.5 C 5.2114741,9.7846148 10.114345,4.961056 15,2.3619531 18.38521,0.56106673 26.28932,0.5 256,0.5 c 229.62864,0 237.616,0.0616513 241,1.8601846 5.80585,3.0857031 10.87688,8.6948234 13.00643,14.3865584 C 511.97234,22.001089 512,24.729308 512,213.35937 c 0,210.65321 0.43994,196.0117 -6.12908,203.98106 -1.69031,2.05063 -5.39025,4.95043 -8.2221,6.444 L 492.5,426.5 417,426.75804 c -41.525,0.14192 -76.07066,0.46843 -76.76812,0.72557 -1.62258,0.59821 13.9216,31.97757 16.29088,32.88675 0.90245,0.3463 8.91651,0.63952 17.80903,0.6516 18.05793,0.0245 21.40702,0.87069 27.47903,6.9427 12.55544,12.55545 9.47812,32.94296 -6.24261,41.35776 L 391.5,511.5 l -134,0.17135 c -73.7,0.0942 -135.12791,-0.17503 -136.50647,-0.59838 z M 59,350.1399 v -7.86009 l -5.622048,-0.58025 C 46.479307,340.98756 43,338.20756 43,333.40747 c 0,-1.78414 0.279532,-3.97234 0.621181,-4.86267 C 44.583606,326.03676 49.436717,324 54.45034,324 H 59 v -7.97432 c 0,-7.76164 -0.07625,-8.01375 -2.859146,-9.45284 -3.661407,-1.89339 -5.797562,-6.80332 -4.529115,-10.41013 0.512577,-1.45751 2.379884,-3.55287 4.149572,-4.65636 L 58.978926,289.5 58.739463,281.5 58.5,273.5 52.6451,272.97957 C 45.848479,272.37542 43,269.87116 43,264.5 c 0,-5.37116 2.848479,-7.87542 9.6451,-8.47957 L 58.5,255.5 l 0.239463,-8 0.239463,-8 -3.217615,-2.00635 c -1.769688,-1.10349 -3.636995,-3.19885 -4.149572,-4.65636 -1.268447,-3.60681 0.867708,-8.51674 4.529115,-10.41013 C 58.923746,220.98807 59,220.73596 59,212.97432 V 205 H 53.454545 C 46.376542,205 43,202.16422 43,196.21977 c 0,-5.41666 2.966571,-7.96331 10.27729,-8.82254 L 59,186.72464 58.96148,179.11232 c -0.03773,-7.45606 -0.103993,-7.6535 -3.228152,-9.61867 -6.120156,-3.84972 -6.219597,-11.09417 -0.201028,-14.64521 L 59,152.80245 V 144.90122 137 h -4.565741 c -7.562667,0 -11.370652,-3.01406 -11.370652,-9 0,-5.98594 3.807985,-9 11.370652,-9 H 59 v -7.90122 -7.90123 l -3.4677,-2.04599 C 49.513731,97.600516 49.613172,90.356066 55.733328,86.50635 58.857487,84.541184 58.92375,84.343744 58.96148,76.887681 L 59,69.275363 53.27729,68.602771 C 46.308384,67.783713 43,65.145548 43,60.407473 43,58.623329 43.279532,56.435127 43.621181,55.544802 44.576668,53.054844 49.424488,51 54.343351,51 59.322011,51 60,50.161001 60,44 c 0,-5.22867 0.761473,-6.825293 4.071521,-8.536985 3.985832,-2.061154 6.393509,-1.827245 9.602345,0.93288 2.288937,1.96886 2.878143,3.439307 3.305764,8.25 L 77.5,50.5 l 7.758699,0.292221 c 7.295708,0.274783 7.811004,0.155435 8.635236,-2 1.451108,-3.794768 4.874547,-6.19516 8.681625,-6.087244 3.98816,0.113048 5.93552,1.448881 8.03737,5.513409 1.45866,2.820729 1.59757,2.859646 9.18406,2.572832 L 127.5,50.5 l 0.52037,-5.854105 c 0.42762,-4.810693 1.01683,-6.28114 3.30576,-8.25 3.58081,-3.080082 6.76186,-3.03418 10.54868,0.152215 2.62175,2.206063 3.06832,3.313508 3.32672,8.25 L 145.5,50.5 l 7.70301,0.291218 c 7.58649,0.286814 7.7254,0.247897 9.18406,-2.572832 2.10185,-4.064528 4.04921,-5.400361 8.03737,-5.513409 3.80708,-0.107916 7.23052,2.292476 8.68162,6.087244 0.82424,2.155435 1.33953,2.274783 8.63524,2 L 195.5,50.5 l 0.52037,-5.854105 c 0.43364,-4.878445 1.00444,-6.270488 3.42488,-8.352463 2.33619,-2.009505 3.60406,-2.386425 6.47963,-1.926309 4.82373,0.771836 6.743,3.463244 7.5737,10.620653 L 214.19637,51 h 7.43554 c 7.4047,0 7.44391,-0.01418 9.4535,-3.420194 3.90457,-6.617748 11.93775,-6.595472 15.85512,0.04397 l 2.0439,3.46416 7.25779,-0.293966 L 263.5,50.5 l 0.61896,-5.070889 c 0.34043,-2.788988 1.13824,-6.041175 1.77292,-7.227081 2.48385,-4.641113 8.44202,-5.539221 12.66272,-1.908723 2.12992,1.832076 2.79477,3.491319 3.30576,8.25 L 282.5,50.5 290,50.740353 c 7.47216,0.239461 7.50749,0.228343 9.51726,-2.994797 2.97162,-4.765691 6.50383,-6.181412 10.87046,-4.356917 1.98643,0.829985 4.16261,2.774893 5.07154,4.532583 C 317.01874,50.936927 317.20229,51 324.41869,51 332.61509,51 333,50.686018 333,44 c 0,-5.22867 0.76147,-6.825293 4.07152,-8.536985 3.98583,-2.061154 6.39351,-1.827245 9.60235,0.93288 2.28893,1.96886 2.87814,3.439307 3.30576,8.25 L 350.5,50.5 h 16.5 16.5 l 0.27467,-15.607083 c 0.21723,-12.34329 -0.0154,-15.847797 -1.11228,-16.758148 -1.03717,-0.860771 -46.55903,-1.085961 -180.50201,-0.892917 L 23.045327,17.5 20.272663,20.272653 17.5,23.045307 17.240158,189.27265 c -0.142913,91.42504 -0.04454,166.78985 0.218615,167.47735 0.361284,0.94388 5.506578,1.25 21.009842,1.25 H 59 Z M 480.843,357.34632 493,356.69265 V 190.45711 C 493,-1.2850365 494.38686,20.114494 481.87929,18.862378 477.82068,18.456076 458.1875,18.095826 438.25,18.061823 L 402,18 v 169.33333 c 0,93.13334 0.3,169.63334 0.66667,170 0.85897,0.85897 62.25315,0.86918 78.17633,0.013 z m -43.10248,-25.7165 c -6.80967,-2.53706 -14.1338,-9.346 -17.35028,-16.12982 -3.33322,-7.03002 -3.33103,-17.93759 0.005,-25.10217 8.90164,-19.11731 34.17644,-23.75945 48.94612,-8.98977 5.67929,5.67929 9.96855,14.96838 9.97013,21.59194 0.002,9.64469 -8.2367,22.25201 -17.81152,27.25518 -5.11436,2.67243 -18.23811,3.43172 -23.75948,1.37464 z m 4.60323,-75.66054 c -9.48928,-1.9018 -17.81477,-8.48949 -21.94848,-17.36711 -3.31759,-7.12492 -3.33408,-18.04417 -0.0379,-25.12245 2.91709,-6.26427 11.09732,-13.76516 17.32661,-15.88769 5.96988,-2.03415 14.66224,-2.03415 20.63212,0 10.68541,3.64088 21.19782,18.0384 21.04078,28.81688 -0.0906,6.21575 -4.61275,15.78033 -10.01545,21.18303 -6.68774,6.68774 -17.96609,10.1874 -26.99764,8.37734 z m 9.34115,-18.03589 c 9.41999,-3.56914 11.68674,-15.07711 4.20912,-21.36911 C 453.54039,214.58383 451.74309,214 448,214 c -13.74964,0 -17.1821,17.99947 -4.5,23.59749 3.71097,1.63806 4.64677,1.67646 8.1849,0.3359 z m -11.89257,-59.27626 c -16.65876,-4.69385 -25.96166,-23.06454 -20.21723,-39.92352 2.07129,-6.0789 8.42783,-13.1721 14.80155,-16.51691 4.39322,-2.30548 6.33469,-2.68864 13.62335,-2.68864 7.26511,0 9.23562,0.3862 13.56346,2.65829 9.92999,5.21319 17.72225,17.21557 17.72225,27.29748 0,10.25468 -9.465,23.76835 -19.61892,28.01093 -5.24608,2.19195 -14.33404,2.72346 -19.87446,1.16237 z m -1.45988,-77.44691 C 424.51724,96.272177 417.29188,85.196093 418.16906,70.300862 419.13725,53.860444 431.30096,42.541373 448,42.541373 c 12.71075,0 21.85676,5.855475 27.97562,17.910585 4.22515,8.324234 4.44632,14.76236 0.78207,22.766135 -7.09792,15.503907 -23.67315,23.265047 -38.42524,17.992127 z m 13.98329,-19.32726 c 6.02252,-3.079942 7.70431,-11.411248 3.26949,-16.196494 -6.54375,-7.060827 -17.61469,-2.831419 -17.56299,6.709557 0.0427,7.876835 7.61465,12.902534 14.2935,9.486937 z m -297.38382,68.16551 c 3.71105,-2.64249 7.02416,-9.03295 7.02416,-13.54847 0,-4.50428 -3.30994,-10.90372 -6.99792,-13.52979 -4.42698,-3.15229 -12.3963,-3.8052 -17.40943,-1.42631 -4.36407,2.07089 -8.38312,7.66072 -9.22119,12.82514 -0.66444,4.09444 1.68096,11.42369 4.46063,13.93925 5.93647,5.37244 15.93883,6.15848 22.14375,1.74018 z"
         id="path230" />
      <path
         style="fill:#00bad2"
         d="M 119.4628,510.40865 C 98.989685,503.13945 97.147492,474.0755 116.5,463.66509 c 3.56995,-1.9204 5.88149,-2.18858 21.5,-2.49432 10.89858,-0.21336 18.00708,-0.76309 18.84424,-1.45733 C 158.28619,458.51766 173,429.67847 173,428.04801 173,427.42308 145.52391,426.96815 96.75,426.78552 25.853636,426.52005 20.219153,426.3737 16.5,424.70117 11.491569,422.44885 5.4943135,416.72624 2.6652656,411.5 L 0.5,407.5 0.24000597,214.35668 -0.01998807,21.213357 3.2612406,14.856678 C 6.8102856,7.9811634 12.797127,2.9838287 19.822691,1.0325101 c 5.104957,-1.417879 467.249659,-1.417879 472.354619,0 C 498.5145,2.7926363 505.06426,8.0230252 508.41586,14 L 511.5,19.5 v 194 194 l -2.16527,4 c -2.82904,5.22624 -8.8263,10.94885 -13.83473,13.20117 -3.71915,1.67253 -9.35364,1.81888 -80.25,2.08435 -48.77391,0.18263 -76.25,0.63756 -76.25,1.26249 0,1.63046 14.71381,30.46965 16.15576,31.66543 0.83716,0.69424 7.94566,1.24397 18.84424,1.45733 15.61851,0.30574 17.93005,0.57392 21.5,2.49432 19.5223,10.50175 17.41707,39.72341 -3.37213,46.80701 -3.93799,1.3418 -20.57021,1.51828 -136.55601,1.44895 -111.98321,-0.0669 -132.68593,-0.29698 -136.10906,-1.5124 z m 254.61519,-20.11378 c 1.56637,-4.11986 0.21238,-10.18723 -2.41642,-10.82823 -1.18886,-0.28989 -57.21389,-0.40097 -124.50006,-0.24686 l -122.3385,0.28022 -1.9115,2.36078 c -2.46708,3.04694 -2.4325,6.61823 0.0885,9.13922 1.9785,1.9785 3.33333,2 126.02475,2 h 124.02475 l 1.02849,-2.70513 z M 475.96482,406.06574 C 476.53417,405.0019 477,398.0269 477,390.56574 V 377 H 248 19 v 13.42742 c 0,13.31478 0.0221,13.44481 2.634859,15.5 L 24.269717,408 H 249.59967 c 221.75367,0 225.34639,-0.0307 226.36515,-1.93426 z M 59,350.1399 v -7.86009 l -5.622048,-0.58025 C 46.479307,340.98756 43,338.20756 43,333.40747 c 0,-1.78414 0.279532,-3.97234 0.621181,-4.86267 C 44.583606,326.03676 49.436717,324 54.45034,324 H 59 v -7.97432 c 0,-7.76164 -0.07625,-8.01375 -2.859146,-9.45284 -3.661407,-1.89339 -5.797562,-6.80332 -4.529115,-10.41013 0.512577,-1.45751 2.379884,-3.55287 4.149572,-4.65636 L 58.978926,289.5 58.739463,281.5 58.5,273.5 52.6451,272.97957 C 45.848479,272.37542 43,269.87116 43,264.5 c 0,-5.37116 2.848479,-7.87542 9.6451,-8.47957 L 58.5,255.5 l 0.239463,-8 0.239463,-8 -3.217615,-2.00635 c -1.769688,-1.10349 -3.636995,-3.19885 -4.149572,-4.65636 -1.268447,-3.60681 0.867708,-8.51674 4.529115,-10.41013 C 58.923746,220.98807 59,220.73596 59,212.97432 V 205 H 53.454545 C 46.376542,205 43,202.16422 43,196.21977 c 0,-5.41666 2.966571,-7.96331 10.27729,-8.82254 L 59,186.72464 58.96148,179.11232 c -0.03773,-7.45606 -0.103993,-7.6535 -3.228152,-9.61867 -6.120156,-3.84972 -6.219597,-11.09417 -0.201028,-14.64521 L 59,152.80245 V 144.90122 137 h -4.565741 c -7.562667,0 -11.370652,-3.01406 -11.370652,-9 0,-5.98594 3.807985,-9 11.370652,-9 H 59 v -7.90122 -7.90123 l -3.4677,-2.04599 C 49.513731,97.600516 49.613172,90.356066 55.733328,86.50635 58.857487,84.541184 58.92375,84.343744 58.96148,76.887681 L 59,69.275363 53.27729,68.602771 C 46.308384,67.783713 43,65.145548 43,60.407473 43,58.623329 43.279532,56.435127 43.621181,55.544802 44.576668,53.054844 49.424488,51 54.343351,51 59.322011,51 60,50.161001 60,44 c 0,-5.22867 0.761473,-6.825293 4.071521,-8.536985 3.985832,-2.061154 6.393509,-1.827245 9.602345,0.93288 2.288937,1.96886 2.878143,3.439307 3.305764,8.25 L 77.5,50.5 l 7.758699,0.292221 c 7.295708,0.274783 7.811004,0.155435 8.635236,-2 1.451108,-3.794768 4.874547,-6.19516 8.681625,-6.087244 3.98816,0.113048 5.93552,1.448881 8.03737,5.513409 1.45866,2.820729 1.59757,2.859646 9.18406,2.572832 L 127.5,50.5 l 0.52037,-5.854105 c 0.42762,-4.810693 1.01683,-6.28114 3.30576,-8.25 3.58081,-3.080082 6.76186,-3.03418 10.54868,0.152215 2.62175,2.206063 3.06832,3.313508 3.32672,8.25 L 145.5,50.5 l 7.70301,0.291218 c 7.58649,0.286814 7.7254,0.247897 9.18406,-2.572832 2.10185,-4.064528 4.04921,-5.400361 8.03737,-5.513409 3.80708,-0.107916 7.23052,2.292476 8.68162,6.087244 0.82424,2.155435 1.33953,2.274783 8.63524,2 L 195.5,50.5 l 0.52037,-5.854105 c 0.43364,-4.878445 1.00444,-6.270488 3.42488,-8.352463 2.33619,-2.009505 3.60406,-2.386425 6.47963,-1.926309 4.82373,0.771836 6.743,3.463244 7.5737,10.620653 L 214.19637,51 h 7.43554 c 7.4047,0 7.44391,-0.01418 9.4535,-3.420194 3.90457,-6.617748 11.93775,-6.595472 15.85512,0.04397 l 2.0439,3.46416 7.25779,-0.293966 L 263.5,50.5 l 0.61896,-5.070889 c 0.34043,-2.788988 1.13824,-6.041175 1.77292,-7.227081 2.48385,-4.641113 8.44202,-5.539221 12.66272,-1.908723 2.12992,1.832076 2.79477,3.491319 3.30576,8.25 L 282.5,50.5 290,50.740353 c 7.47216,0.239461 7.50749,0.228343 9.51726,-2.994797 2.97162,-4.765691 6.50383,-6.181412 10.87046,-4.356917 1.98643,0.829985 4.16261,2.774893 5.07154,4.532583 C 317.01874,50.936927 317.20229,51 324.41869,51 332.61509,51 333,50.686018 333,44 c 0,-5.22867 0.76147,-6.825293 4.07152,-8.536985 3.98583,-2.061154 6.39351,-1.827245 9.60235,0.93288 2.28893,1.96886 2.87814,3.439307 3.30576,8.25 L 350.5,50.5 h 16.5 16.5 l 0.27467,-15.607083 c 0.21723,-12.34329 -0.0154,-15.847797 -1.11228,-16.758148 -1.03717,-0.860771 -46.55903,-1.085961 -180.50201,-0.892917 L 23.045327,17.5 20.272663,20.272653 17.5,23.045307 17.240158,189.27265 c -0.142913,91.42504 -0.04454,166.78985 0.218615,167.47735 0.361284,0.94388 5.506578,1.25 21.009842,1.25 H 59 Z M 483.34444,357.34803 494,356.69607 V 190.4038 24.111527 l -2.38218,-2.769449 C 489.52753,18.911969 488.2716,18.485 481.36782,17.857464 467.25101,16.57428 403.5501,16.849895 402.2,18.2 c -0.92385,0.923845 -1.2,40.007407 -1.2,169.83333 0,92.74834 0.3,168.93334 0.66667,169.3 0.85877,0.85877 67.68595,0.8708 81.67777,0.0147 z m -44.86535,-26.08816 c -6.47281,-2.31719 -10.94792,-5.54393 -14.51163,-10.46348 -11.16817,-15.41722 -6.0478,-35.80222 11.31034,-45.02825 3.41346,-1.81429 5.85033,-2.24644 12.7222,-2.25614 7.5523,-0.0107 9.09302,0.31651 13.81885,2.9344 9.84813,5.45542 16.60657,16.26203 16.60657,26.5536 0,6.42295 -3.35953,14.57749 -8.34493,20.25555 -7.12741,8.11767 -21.27488,11.70108 -31.6014,8.00432 z M 440,255.1243 c -21.52287,-7.08228 -28.90325,-32.02631 -14.46625,-48.8927 8.3103,-9.70872 23.85066,-12.73481 35.64785,-6.94151 6.70708,3.29367 11.1552,8.04003 14.68,15.66428 3.52023,7.61437 3.45725,14.6082 -0.20303,22.54563 -5.32958,11.55736 -14.0184,17.57929 -26.15857,18.12962 -3.85,0.17453 -8.125,-0.0529 -9.5,-0.50532 z m 11.6849,-17.19091 c 9.41999,-3.56914 11.68674,-15.07711 4.20912,-21.36911 C 453.54039,214.58383 451.74309,214 448,214 c -13.74964,0 -17.1821,17.99947 -4.5,23.59749 3.71097,1.63806 4.64677,1.67646 8.1849,0.3359 z m -14.36067,-60.57093 c -13.30489,-4.71445 -21.7781,-20.96511 -18.36016,-35.21269 2.62788,-10.95424 10.68738,-18.80202 22.48776,-21.89702 6.18908,-1.62327 6.90726,-1.62327 13.09634,0 3.6015,0.9446 8.4999,3.06027 10.88533,4.7015 8.28185,5.69806 14.47058,18.68364 13.02629,27.3326 -1.78118,10.66648 -10.84834,21.95387 -20.1934,25.13805 -5.69543,1.94063 -15.37063,1.91178 -20.94216,-0.0624 z m 5.01952,-75.39318 C 428.71414,99.237689 418,86.267706 418,72.5 c 0,-11.22509 7.77502,-23.005984 18.12038,-27.45644 7.00796,-3.014742 16.72818,-3.024682 23.70289,-0.02424 6.11667,2.63132 13.38056,10.048224 16.37675,16.72173 9.11994,20.313121 -11.42433,44.72394 -33.85627,40.22823 z M 453.91481,82.544051 C 456.73254,81.086947 460,75.693767 460,72.5 c 0,-3.193767 -3.26746,-8.586947 -6.08519,-10.044051 -6.12366,-3.166671 -13.50621,-0.944136 -16.27997,4.901129 -2.04742,4.314637 -2.04797,5.970063 -0.003,10.278742 2.78631,5.871716 10.13604,8.087121 16.28333,4.908231 z M 154.93192,150.04847 c 3.71105,-2.64249 7.02416,-9.03295 7.02416,-13.54847 0,-4.50428 -3.30994,-10.90372 -6.99792,-13.52979 -4.42698,-3.15229 -12.3963,-3.8052 -17.40943,-1.42631 -4.36407,2.07089 -8.38312,7.66072 -9.22119,12.82514 -0.66444,4.09444 1.68096,11.42369 4.46063,13.93925 5.93647,5.37244 15.93883,6.15848 22.14375,1.74018 z"
         id="path228" />
      <path
         style="fill:#5a7a8a"
         d="M 119.4628,510.40865 C 98.989685,503.13945 97.147492,474.0755 116.5,463.66509 c 3.56995,-1.9204 5.88149,-2.18858 21.5,-2.49432 10.89858,-0.21336 18.00708,-0.76309 18.84424,-1.45733 C 158.28619,458.51766 173,429.67847 173,428.04801 173,427.42308 145.52391,426.96815 96.75,426.78552 25.853636,426.52005 20.219153,426.3737 16.5,424.70117 11.491569,422.44885 5.4943135,416.72624 2.6652656,411.5 L 0.5,407.5 0.24000597,214.35668 -0.01998807,21.213357 3.2612406,14.856678 C 6.8102856,7.9811634 12.797127,2.9838287 19.822691,1.0325101 c 5.104957,-1.417879 467.249659,-1.417879 472.354619,0 C 498.5145,2.7926363 505.06426,8.0230252 508.41586,14 L 511.5,19.5 v 194 194 l -2.16527,4 c -2.82904,5.22624 -8.8263,10.94885 -13.83473,13.20117 -3.71915,1.67253 -9.35364,1.81888 -80.25,2.08435 -48.77391,0.18263 -76.25,0.63756 -76.25,1.26249 0,1.63046 14.71381,30.46965 16.15576,31.66543 0.83716,0.69424 7.94566,1.24397 18.84424,1.45733 15.61851,0.30574 17.93005,0.57392 21.5,2.49432 19.5223,10.50175 17.41707,39.72341 -3.37213,46.80701 -3.93799,1.3418 -20.57021,1.51828 -136.55601,1.44895 -111.98321,-0.0669 -132.68593,-0.29698 -136.10906,-1.5124 z m 254.61519,-20.11378 c 1.56637,-4.11986 0.21238,-10.18723 -2.41642,-10.82823 -1.18886,-0.28989 -57.21389,-0.40097 -124.50006,-0.24686 l -122.3385,0.28022 -1.9115,2.36078 c -2.46708,3.04694 -2.4325,6.61823 0.0885,9.13922 1.9785,1.9785 3.33333,2 126.02475,2 h 124.02475 l 1.02849,-2.70513 z M 475.96482,406.06574 C 476.53417,405.0019 477,398.0269 477,390.56574 V 377 H 248 19 v 13.42742 c 0,13.31478 0.0221,13.44481 2.634859,15.5 L 24.269717,408 H 249.59967 c 221.75367,0 225.34639,-0.0307 226.36515,-1.93426 z M 59,350.1399 v -7.86009 l -5.622048,-0.58025 C 46.479307,340.98756 43,338.20756 43,333.40747 c 0,-1.78414 0.279532,-3.97234 0.621181,-4.86267 C 44.583606,326.03676 49.436717,324 54.45034,324 H 59 v -7.97432 c 0,-7.76164 -0.07625,-8.01375 -2.859146,-9.45284 -3.661407,-1.89339 -5.797562,-6.80332 -4.529115,-10.41013 0.512577,-1.45751 2.379884,-3.55287 4.149572,-4.65636 L 58.978926,289.5 58.739463,281.5 58.5,273.5 52.6451,272.97957 C 45.848479,272.37542 43,269.87116 43,264.5 c 0,-5.37116 2.848479,-7.87542 9.6451,-8.47957 L 58.5,255.5 l 0.239463,-8 0.239463,-8 -3.217615,-2.00635 c -1.769688,-1.10349 -3.636995,-3.19885 -4.149572,-4.65636 -1.268447,-3.60681 0.867708,-8.51674 4.529115,-10.41013 C 58.923746,220.98807 59,220.73596 59,212.97432 V 205 H 53.454545 C 46.376542,205 43,202.16422 43,196.21977 c 0,-5.41666 2.966571,-7.96331 10.27729,-8.82254 L 59,186.72464 58.96148,179.11232 c -0.03773,-7.45606 -0.103993,-7.6535 -3.228152,-9.61867 -6.120156,-3.84972 -6.219597,-11.09417 -0.201028,-14.64521 L 59,152.80245 V 144.90122 137 h -4.565741 c -7.562667,0 -11.370652,-3.01406 -11.370652,-9 0,-5.98594 3.807985,-9 11.370652,-9 H 59 v -7.90122 -7.90123 l -3.4677,-2.04599 C 49.513731,97.600516 49.613172,90.356066 55.733328,86.50635 58.857487,84.541184 58.92375,84.343744 58.96148,76.887681 L 59,69.275363 53.27729,68.602771 C 46.308384,67.783713 43,65.145548 43,60.407473 43,58.623329 43.279532,56.435127 43.621181,55.544802 44.576668,53.054844 49.424488,51 54.343351,51 59.322011,51 60,50.161001 60,44 c 0,-5.22867 0.761473,-6.825293 4.071521,-8.536985 3.985832,-2.061154 6.393509,-1.827245 9.602345,0.93288 2.288937,1.96886 2.878143,3.439307 3.305764,8.25 L 77.5,50.5 l 7.758699,0.292221 c 7.295708,0.274783 7.811004,0.155435 8.635236,-2 1.451108,-3.794768 4.874547,-6.19516 8.681625,-6.087244 3.98816,0.113048 5.93552,1.448881 8.03737,5.513409 1.45866,2.820729 1.59757,2.859646 9.18406,2.572832 L 127.5,50.5 l 0.52037,-5.854105 c 0.42762,-4.810693 1.01683,-6.28114 3.30576,-8.25 3.58081,-3.080082 6.76186,-3.03418 10.54868,0.152215 2.62175,2.206063 3.06832,3.313508 3.32672,8.25 L 145.5,50.5 l 7.70301,0.291218 c 7.58649,0.286814 7.7254,0.247897 9.18406,-2.572832 2.10185,-4.064528 4.04921,-5.400361 8.03737,-5.513409 3.80708,-0.107916 7.23052,2.292476 8.68162,6.087244 0.82424,2.155435 1.33953,2.274783 8.63524,2 L 195.5,50.5 l 0.52037,-5.854105 c 0.43364,-4.878445 1.00444,-6.270488 3.42488,-8.352463 2.33619,-2.009505 3.60406,-2.386425 6.47963,-1.926309 4.82373,0.771836 6.743,3.463244 7.5737,10.620653 L 214.19637,51 h 7.43554 c 7.4047,0 7.44391,-0.01418 9.4535,-3.420194 3.90457,-6.617748 11.93775,-6.595472 15.85512,0.04397 l 2.0439,3.46416 7.25779,-0.293966 L 263.5,50.5 l 0.61896,-5.070889 c 0.34043,-2.788988 1.13824,-6.041175 1.77292,-7.227081 2.48385,-4.641113 8.44202,-5.539221 12.66272,-1.908723 2.12992,1.832076 2.79477,3.491319 3.30576,8.25 L 282.5,50.5 290,50.740353 c 7.47216,0.239461 7.50749,0.228343 9.51726,-2.994797 2.97162,-4.765691 6.50383,-6.181412 10.87046,-4.356917 1.98643,0.829985 4.16261,2.774893 5.07154,4.532583 C 317.01874,50.936927 317.20229,51 324.41869,51 332.61509,51 333,50.686018 333,44 c 0,-5.22867 0.76147,-6.825293 4.07152,-8.536985 3.98583,-2.061154 6.39351,-1.827245 9.60235,0.93288 2.28893,1.96886 2.87814,3.439307 3.30576,8.25 L 350.5,50.5 h 16.5 16.5 l 0.27467,-15.607083 c 0.21723,-12.34329 -0.0154,-15.847797 -1.11228,-16.758148 -1.03717,-0.860771 -46.55903,-1.085961 -180.50201,-0.892917 L 23.045327,17.5 20.272663,20.272653 17.5,23.045307 17.240158,189.27265 c -0.142913,91.42504 -0.04454,166.78985 0.218615,167.47735 0.361284,0.94388 5.506578,1.25 21.009842,1.25 H 59 Z M 382.75338,213.24681 383.00676,68.993611 230.25338,69.246805 77.5,69.5 l -0.273914,142 c -0.150652,78.1 -0.02922,143.01394 0.269856,144.2532 l 0.54377,2.25321 L 230.26986,357.7532 382.5,357.5 Z M 105.20067,330.97232 c -2.45758,-2.28958 -3.67602,-6.04657 -2.91044,-8.97415 0.2833,-1.08336 16.38181,-23.7903 35.77445,-50.45988 37.57736,-51.67795 37.88814,-52.02752 44.14066,-49.65032 1.38747,0.52752 10.21149,10.27332 19.89405,21.97225 9.57033,11.56334 17.96114,21.05024 18.64623,21.08201 0.68508,0.0318 18.40163,-25.70473 39.3701,-57.19223 20.96847,-31.4875 39.27964,-58.4875 40.69148,-60 3.32569,-3.56281 8.95425,-3.78749 12.52545,-0.5 2.58639,2.38091 41.04727,48.50954 43.9587,52.72251 1.56672,2.26712 1.70865,7.63918 1.70865,64.67327 v 62.20077 l -2.58889,3.07672 L 353.82221,333 H 230.59967 c -122.40095,0 -123.23706,-0.0135 -125.399,-2.02768 z M 134.00539,169.39103 C 119.54651,164.14245 110.74813,151.69955 110.74813,136.5 c 0,-13.33145 7.11054,-24.83085 19.25187,-31.13474 4.92667,-2.55797 6.4903,-2.85453 15,-2.84494 7.91635,0.009 10.28622,0.39893 14.21635,2.33951 7.5136,3.70999 13.35649,9.52705 16.9969,16.92178 2.9005,5.89174 3.28344,7.61895 3.25858,14.69736 -0.0229,6.52047 -0.5206,9.08272 -2.6604,13.69618 -3.48577,7.51535 -9.43707,13.80245 -16.40004,17.32539 -7.15439,3.61979 -19.25546,4.48615 -26.406,1.89049 z m 20.92653,-19.34256 c 3.71105,-2.64249 7.02416,-9.03295 7.02416,-13.54847 0,-4.50428 -3.30994,-10.90372 -6.99792,-13.52979 -4.42698,-3.15229 -12.3963,-3.8052 -17.40943,-1.42631 -4.36407,2.07089 -8.38312,7.66072 -9.22119,12.82514 -0.66444,4.09444 1.68096,11.42369 4.46063,13.93925 5.93647,5.37244 15.93883,6.15848 22.14375,1.74018 z M 483.34444,357.34803 494,356.69607 V 190.4038 24.111527 l -2.38218,-2.769449 C 489.52753,18.911969 488.2716,18.485 481.36782,17.857464 467.25101,16.57428 403.5501,16.849895 402.2,18.2 c -0.92385,0.923845 -1.2,40.007407 -1.2,169.83333 0,92.74834 0.3,168.93334 0.66667,169.3 0.85877,0.85877 67.68595,0.8708 81.67777,0.0147 z m -44.86535,-26.08816 c -6.47281,-2.31719 -10.94792,-5.54393 -14.51163,-10.46348 -11.16817,-15.41722 -6.0478,-35.80222 11.31034,-45.02825 3.41346,-1.81429 5.85033,-2.24644 12.7222,-2.25614 7.5523,-0.0107 9.09302,0.31651 13.81885,2.9344 9.84813,5.45542 16.60657,16.26203 16.60657,26.5536 0,6.42295 -3.35953,14.57749 -8.34493,20.25555 -7.12741,8.11767 -21.27488,11.70108 -31.6014,8.00432 z M 440,255.1243 c -21.52287,-7.08228 -28.90325,-32.02631 -14.46625,-48.8927 8.3103,-9.70872 23.85066,-12.73481 35.64785,-6.94151 6.70708,3.29367 11.1552,8.04003 14.68,15.66428 3.52023,7.61437 3.45725,14.6082 -0.20303,22.54563 -5.32958,11.55736 -14.0184,17.57929 -26.15857,18.12962 -3.85,0.17453 -8.125,-0.0529 -9.5,-0.50532 z m 11.6849,-17.19091 c 9.41999,-3.56914 11.68674,-15.07711 4.20912,-21.36911 C 453.54039,214.58383 451.74309,214 448,214 c -13.74964,0 -17.1821,17.99947 -4.5,23.59749 3.71097,1.63806 4.64677,1.67646 8.1849,0.3359 z m -14.36067,-60.57093 c -13.30489,-4.71445 -21.7781,-20.96511 -18.36016,-35.21269 2.62788,-10.95424 10.68738,-18.80202 22.48776,-21.89702 6.18908,-1.62327 6.90726,-1.62327 13.09634,0 3.6015,0.9446 8.4999,3.06027 10.88533,4.7015 8.28185,5.69806 14.47058,18.68364 13.02629,27.3326 -1.78118,10.66648 -10.84834,21.95387 -20.1934,25.13805 -5.69543,1.94063 -15.37063,1.91178 -20.94216,-0.0624 z m 5.01952,-75.39318 C 428.71414,99.237689 418,86.267706 418,72.5 c 0,-11.22509 7.77502,-23.005984 18.12038,-27.45644 7.00796,-3.014742 16.72818,-3.024682 23.70289,-0.02424 6.11667,2.63132 13.38056,10.048224 16.37675,16.72173 9.11994,20.313121 -11.42433,44.72394 -33.85627,40.22823 z M 453.91481,82.544051 C 456.73254,81.086947 460,75.693767 460,72.5 c 0,-3.193767 -3.26746,-8.586947 -6.08519,-10.044051 -6.12366,-3.166671 -13.50621,-0.944136 -16.27997,4.901129 -2.04742,4.314637 -2.04797,5.970063 -0.003,10.278742 2.78631,5.871716 10.13604,8.087121 16.28333,4.908231 z"
         id="path226" />
      <path
         style="fill:#294952"
         d="m 121.99353,511.07302 c -7.79078,-2.39272 -15.73074,-9.91484 -17.81751,-16.87986 -3.5707,-11.91792 1.24674,-23.79954 12.06965,-29.76833 5.11728,-2.82215 5.72383,-2.91113 23.25433,-3.41128 l 18,-0.51355 7.92106,-15.58304 c 4.97095,-9.77931 7.68282,-16.20388 7.28138,-17.25 -0.58915,-1.53531 -6.54539,-1.6674 -75.421055,-1.67254 -48.430216,-0.004 -76.093896,-0.37009 -78.506129,-1.04003 C 13.448535,423.47503 7.127673,418.29808 3.5689129,412.5 L 0.5,407.5 v -194 C 0.5,29.843303 0.5943,19.327443 2.2687,16.263498 5.0721642,11.133506 9.8917177,6.1484677 14.887152,3.2117773 L 19.5,0.5 H 256 492.5 l 4.61285,2.7117773 c 4.99543,2.9366904 9.81499,7.9217287 12.61845,13.0517207 C 511.4057,19.327443 511.5,29.843303 511.5,213.5 v 194 l -3.06891,5 c -3.55876,5.79808 -9.87962,10.97503 -15.20635,12.45439 -2.41223,0.66994 -30.07591,1.03642 -78.50612,1.04003 -68.87567,0.005 -74.83191,0.13723 -75.42106,1.67254 -0.40144,1.04612 2.31043,7.47069 7.28138,17.25 L 354.5,460.5 l 18,0.51355 c 17.5305,0.50015 18.13705,0.58913 23.25433,3.41128 10.82291,5.96879 15.64035,17.85041 12.06965,29.76833 -1.48892,4.96959 -7.8356,12.23148 -13.19577,15.09865 L 390.5,511.5 l -133,0.17141 c -73.15,0.0943 -134.12791,-0.17501 -135.50647,-0.59839 z m 253.9391,-18.49184 c 0.67736,-0.81617 1.04794,-3.67298 0.87244,-6.72571 -0.25865,-4.49937 -0.68547,-5.49982 -2.80507,-6.57493 -1.98668,-1.00769 -27.8245,-1.21801 -125.83673,-1.0243 L 124.82654,478.5 l -2.41327,2.80576 c -3.08168,3.58289 -3.06738,7.13104 0.0413,10.23969 L 124.90909,494 H 249.8321 c 106.64616,0 125.09529,-0.20758 126.10053,-1.41882 z m 101.62624,-84.99843 c 1.72609,-1.26025 1.97752,-2.92783 2.2696,-15.05299 0.23061,-9.57354 -0.0293,-14.06682 -0.87245,-15.08275 C 477.91446,376.19201 447.25168,376 247.87756,376 H 18 l 0.0318,13.75 c 0.03281,14.18472 0.412029,15.71597 4.468197,18.04218 1.487561,0.85312 59.792608,1.15479 227.558873,1.17741 193.09805,0.026 225.83822,-0.17355 227.5,-1.38684 z m 16.46142,-50.20304 c 0.65705,-0.65705 0.90895,-57.84994 0.73846,-167.66581 L 494.5,23.045308 491.72782,20.272654 488.95565,17.5 H 445.22782 401.5 l -0.25289,169.9392 c -0.20129,135.26013 0.003,170.11659 1,170.80853 1.77227,1.22971 90.5148,0.39036 91.77318,-0.86802 z M 442.14677,331.93565 C 424.31158,328.38517 413.5374,307.91503 420.86401,291.5 c 10.40602,-23.31436 42.13244,-23.94057 53.83421,-1.06257 10.73167,20.98136 -9.03418,46.17985 -32.55145,41.49822 z m 11.16897,-19.05269 c 3.91657,-2.00295 5.63852,-5.10801 5.66202,-10.20988 0.0185,-4.0179 -0.46769,-5.31685 -2.90084,-7.75 C 453.60237,292.44853 452.36302,292 448,292 c -4.36302,0 -5.60237,0.44853 -8.07692,2.92308 -2.43315,2.43315 -2.91935,3.7321 -2.90084,7.75 0.023,4.99924 1.68252,8.07911 5.47776,10.16624 2.60723,1.4338 8.05445,1.45578 10.81574,0.0436 z M 440.5,254.65994 c -6.20799,-2.05453 -9.68276,-4.16656 -13.70065,-8.32752 -11.26796,-11.66919 -10.86917,-30.56097 0.87361,-41.38509 6.50278,-5.99404 11.40219,-7.89926 20.3807,-7.92537 9.31175,-0.0271 15.94867,2.90167 21.90186,9.66484 10.86995,12.34893 10.19999,29.11295 -1.61912,40.51385 -7.28936,7.03143 -19.35759,10.26534 -27.8364,7.45929 z m 11.1849,-16.72655 c 9.41999,-3.56914 11.68674,-15.07711 4.20912,-21.36911 C 453.54039,214.58383 451.74309,214 448,214 c -13.74964,0 -17.1821,17.99947 -4.5,23.59749 3.71097,1.63806 4.64677,1.67646 8.1849,0.3359 z m -12.51158,-60.35698 c -9.98454,-3.25541 -17.0226,-10.9232 -19.73146,-21.49689 -3.41707,-13.33812 2.7913,-26.60228 15.55814,-33.23992 6.61564,-3.43955 19.49048,-3.36586 26.37677,0.15097 10.19737,5.20779 17.27342,17.34429 16.33849,28.02298 -0.93891,10.72403 -8.11707,21.06491 -17.50489,25.21759 -5.82993,2.57886 -15.38043,3.18959 -21.03705,1.34527 z m -0.47064,-76.95799 C 425.78422,95.803654 418.69251,85.818321 418.73263,72.5 c 0.0263,-8.727997 2.52555,-14.810813 8.56806,-20.853326 15.42658,-15.426571 41.39248,-9.176253 48.74137,11.732659 2.48921,7.082256 2.47577,12.16163 -0.0501,18.912501 -4.32299,11.554232 -14.15954,18.770946 -26.42483,19.386936 -4.47273,0.22463 -8.46121,-0.16464 -10.86449,-1.06035 z M 453.91481,82.544051 C 456.73254,81.086947 460,75.693767 460,72.5 c 0,-3.193767 -3.26746,-8.586947 -6.08519,-10.044051 -6.12366,-3.166671 -13.50621,-0.944136 -16.27997,4.901129 -2.04742,4.314637 -2.04797,5.970063 -0.003,10.278742 2.78631,5.871716 10.13604,8.087121 16.28333,4.908231 z M 59,350.1399 v -7.86009 l -5.622048,-0.58025 C 46.479307,340.98756 43,338.20756 43,333.40747 c 0,-1.78414 0.279532,-3.97234 0.621181,-4.86267 C 44.583606,326.03676 49.436717,324 54.45034,324 H 59 v -7.97432 c 0,-7.76164 -0.07625,-8.01375 -2.859146,-9.45284 -3.661407,-1.89339 -5.797562,-6.80332 -4.529115,-10.41013 0.512577,-1.45751 2.379884,-3.55287 4.149572,-4.65636 L 58.978926,289.5 58.739463,281.5 58.5,273.5 52.6451,272.97957 C 45.848479,272.37542 43,269.87116 43,264.5 c 0,-5.37116 2.848479,-7.87542 9.6451,-8.47957 L 58.5,255.5 l 0.239463,-8 0.239463,-8 -3.217615,-2.00635 c -1.769688,-1.10349 -3.636995,-3.19885 -4.149572,-4.65636 -1.268447,-3.60681 0.867708,-8.51674 4.529115,-10.41013 C 58.923746,220.98807 59,220.73596 59,212.97432 V 205 H 53.454545 C 46.376542,205 43,202.16422 43,196.21977 c 0,-5.41666 2.966571,-7.96331 10.27729,-8.82254 L 59,186.72464 58.96148,179.11232 c -0.03773,-7.45606 -0.103993,-7.6535 -3.228152,-9.61867 -6.120156,-3.84972 -6.219597,-11.09417 -0.201028,-14.64521 L 59,152.80245 V 144.90122 137 h -4.565741 c -7.562667,0 -11.370652,-3.01406 -11.370652,-9 0,-5.98594 3.807985,-9 11.370652,-9 H 59 v -7.90122 -7.90123 l -3.4677,-2.04599 C 49.513731,97.600516 49.613172,90.356066 55.733328,86.50635 58.857487,84.541184 58.92375,84.343744 58.96148,76.887681 L 59,69.275363 53.27729,68.602771 C 46.308384,67.783713 43,65.145548 43,60.407473 43,58.623329 43.279532,56.435127 43.621181,55.544802 44.576668,53.054844 49.424488,51 54.343351,51 59.322011,51 60,50.161001 60,44 c 0,-5.22867 0.761473,-6.825293 4.071521,-8.536985 3.985832,-2.061154 6.393509,-1.827245 9.602345,0.93288 2.288937,1.96886 2.878143,3.439307 3.305764,8.25 L 77.5,50.5 l 7.758699,0.292221 c 7.295708,0.274783 7.811004,0.155435 8.635236,-2 1.451108,-3.794768 4.874547,-6.19516 8.681625,-6.087244 3.98816,0.113048 5.93552,1.448881 8.03737,5.513409 1.45866,2.820729 1.59757,2.859646 9.18406,2.572832 L 127.5,50.5 l 0.52037,-5.854105 c 0.42762,-4.810693 1.01683,-6.28114 3.30576,-8.25 3.58081,-3.080082 6.76186,-3.03418 10.54868,0.152215 2.62175,2.206063 3.06832,3.313508 3.32672,8.25 L 145.5,50.5 l 7.70301,0.291218 c 7.58649,0.286814 7.7254,0.247897 9.18406,-2.572832 2.10185,-4.064528 4.04921,-5.400361 8.03737,-5.513409 3.80708,-0.107916 7.23052,2.292476 8.68162,6.087244 0.82424,2.155435 1.33953,2.274783 8.63524,2 L 195.5,50.5 l 0.52037,-5.854105 c 0.43364,-4.878445 1.00444,-6.270488 3.42488,-8.352463 2.33619,-2.009505 3.60406,-2.386425 6.47963,-1.926309 4.82373,0.771836 6.743,3.463244 7.5737,10.620653 L 214.19637,51 h 7.43554 c 7.4047,0 7.44391,-0.01418 9.4535,-3.420194 3.90457,-6.617748 11.93775,-6.595472 15.85512,0.04397 l 2.0439,3.46416 7.25779,-0.293966 L 263.5,50.5 l 0.61896,-5.070889 c 0.34043,-2.788988 1.13824,-6.041175 1.77292,-7.227081 2.48385,-4.641113 8.44202,-5.539221 12.66272,-1.908723 2.12992,1.832076 2.79477,3.491319 3.30576,8.25 L 282.5,50.5 290,50.740353 c 7.47216,0.239461 7.50749,0.228343 9.51726,-2.994797 2.97162,-4.765691 6.50383,-6.181412 10.87046,-4.356917 1.98643,0.829985 4.16261,2.774893 5.07154,4.532583 C 317.01874,50.936927 317.20229,51 324.41869,51 332.61509,51 333,50.686018 333,44 c 0,-5.22867 0.76147,-6.825293 4.07152,-8.536985 3.98583,-2.061154 6.39351,-1.827245 9.60235,0.93288 2.28893,1.96886 2.87814,3.439307 3.30576,8.25 L 350.5,50.5 h 16.5 16.5 l 0.27467,-15.607083 c 0.21723,-12.34329 -0.0154,-15.847797 -1.11228,-16.758148 -1.03717,-0.860771 -46.55903,-1.085961 -180.50201,-0.892917 L 23.045327,17.5 20.272663,20.272653 17.5,23.045307 17.240158,189.27265 c -0.142913,91.42504 -0.04454,166.78985 0.218615,167.47735 0.361284,0.94388 5.506578,1.25 21.009842,1.25 H 59 Z M 382.75338,213.24681 383.00676,68.993611 230.25338,69.246805 77.5,69.5 l -0.273914,142 c -0.150652,78.1 -0.02922,143.01394 0.269856,144.2532 l 0.54377,2.25321 L 230.26986,357.7532 382.5,357.5 Z M 105.20067,330.97232 c -2.45758,-2.28958 -3.67602,-6.04657 -2.91044,-8.97415 0.2833,-1.08336 16.38181,-23.7903 35.77445,-50.45988 37.57736,-51.67795 37.88814,-52.02752 44.14066,-49.65032 1.38747,0.52752 10.21149,10.27332 19.89405,21.97225 9.57033,11.56334 17.96114,21.05024 18.64623,21.08201 0.68508,0.0318 18.40163,-25.70473 39.3701,-57.19223 20.96847,-31.4875 39.27964,-58.4875 40.69148,-60 3.32569,-3.56281 8.95425,-3.78749 12.52545,-0.5 2.58639,2.38091 41.04727,48.50954 43.9587,52.72251 1.56672,2.26712 1.70865,7.63918 1.70865,64.67327 v 62.20077 l -2.58889,3.07672 L 353.82221,333 H 230.59967 c -122.40095,0 -123.23706,-0.0135 -125.399,-2.02768 z m 218.55769,-71.5024 0.25837,-55.03007 -10.59278,-12.72677 c -5.82604,-6.99972 -11.03138,-12.4557 -11.56745,-12.12439 -0.53606,0.3313 -17.12005,24.81423 -36.8533,54.40652 -19.73326,29.59228 -36.9068,54.52429 -38.16343,55.40447 -4.16806,2.91942 -7.6809,2.05381 -12.78214,-3.14968 -2.56116,-2.6125 -6.07618,-6.51493 -7.81116,-8.67206 -3.12941,-3.89085 -3.18595,-3.91265 -7.10503,-2.73846 -2.58983,0.77593 -4.78841,0.86504 -6.38318,0.25871 -1.33795,-0.50869 -6.13171,-5.2495 -10.65278,-10.53513 -4.52108,-5.28563 -8.57845,-9.38878 -9.01639,-9.11812 C 171.62264,256.35126 131,312.76476 131,313.89493 c 0,0.81413 25.97618,1.04625 96.25,0.86007 L 323.5,314.5 Z M 134.00539,169.39103 C 119.54651,164.14245 110.74813,151.69955 110.74813,136.5 c 0,-13.33145 7.11054,-24.83085 19.25187,-31.13474 4.92667,-2.55797 6.4903,-2.85453 15,-2.84494 7.91635,0.009 10.28622,0.39893 14.21635,2.33951 7.5136,3.70999 13.35649,9.52705 16.9969,16.92178 2.9005,5.89174 3.28344,7.61895 3.25858,14.69736 -0.0229,6.52047 -0.5206,9.08272 -2.6604,13.69618 -3.48577,7.51535 -9.43707,13.80245 -16.40004,17.32539 -7.15439,3.61979 -19.25546,4.48615 -26.406,1.89049 z m 20.92653,-19.34256 c 3.71105,-2.64249 7.02416,-9.03295 7.02416,-13.54847 0,-4.50428 -3.30994,-10.90372 -6.99792,-13.52979 -4.42698,-3.15229 -12.3963,-3.8052 -17.40943,-1.42631 -4.36407,2.07089 -8.38312,7.66072 -9.22119,12.82514 -0.66444,4.09444 1.68096,11.42369 4.46063,13.93925 5.93647,5.37244 15.93883,6.15848 22.14375,1.74018 z"
         id="path224" />
      <path
         style="fill:#030404"
         d="m 122.5,511 c -1.65,-0.41985 -2.55,-0.82649 -2,-0.90365 0.55,-0.0771 -0.82511,-0.96927 -3.05581,-1.98248 -14.18232,-6.4418 -17.984513,-26.64182 -7.14351,-37.9515 6.54565,-6.82862 9.23247,-7.57842 29.19932,-8.14847 l 18,-0.5139 8.42098,-16.58324 c 5.29754,-10.43232 8.18375,-17.20146 7.78139,-18.25 C 173.11315,425.13129 167.07111,425 96.999266,425 14.287424,425 17.929801,425.23478 10.294596,419.41113 8.4724143,418.02128 6.0252418,414.99771 4.8564349,412.69207 3.687628,410.38643 2.2292819,408.17891 1.6156657,407.78647 0.10682697,406.82149 0.01201098,20.268298 1.5203543,19.213525 2.0815492,18.821086 3.0591644,17.31789 3.6928326,15.873089 5.4873976,11.781373 10.491084,6.5779296 14.684235,4.4428874 16.782906,3.3742993 18.821086,2.05 19.213525,1.5 19.685756,0.83817231 99.760384,0.5 256,0.5 c 156.23962,0 236.31424,0.33817231 236.78647,1 0.39244,0.55 2.43062,1.8742993 4.5293,2.9428874 4.19315,2.1350422 9.19683,7.3384856 10.9914,11.4302016 0.63367,1.444801 1.61128,2.947997 2.17248,3.340436 1.50834,1.054773 1.41352,387.607965 -0.0953,388.572945 -0.61361,0.39244 -2.07196,2.59996 -3.24076,4.9056 -1.16881,2.30564 -3.61598,5.32921 -5.43817,6.71906 -7.6352,5.82365 -3.99282,5.58887 -86.70467,5.58887 -70.07184,0 -76.11388,0.13129 -76.7031,1.66676 -0.40236,1.04854 2.48385,7.81768 7.78139,18.25 L 354.5,461.5 l 18,0.5139 c 15.9177,0.45445 18.46273,0.76244 22,2.66237 11.19755,6.0144 15.95901,17.38426 12.33944,29.46529 -1.55066,5.17565 -7.2902,11.70423 -12.28363,13.97231 -2.2307,1.01321 -3.60581,1.90533 -3.05581,1.98248 0.55,0.0772 -0.35,0.4838 -2,0.90365 -1.65,0.41985 -61.725,0.76337 -133.5,0.76337 -71.775,0 -131.85,-0.34352 -133.5,-0.76337 z m 257.23693,-15.84422 c 6.59669,-0.54875 8.67762,-1.12589 10.45,-2.89827 3.2048,-3.20479 2.97871,-8.54634 -0.50939,-12.03478 L 386.95508,477.5 H 255.39133 123.82758 l -2.41379,2.80576 c -2.55484,2.96972 -3.13717,7.47407 -1.38865,10.74122 2.71722,5.07717 -2.65366,4.87589 128.97486,4.83347 67.375,-0.0217 126.20662,-0.34782 130.73693,-0.72467 z m -45.26628,-35.10829 c 0.32378,-0.52388 -3.02731,-8.17388 -7.44687,-17 L 318.98822,427 H 256 193.01178 l -8.03556,16.04749 c -4.41956,8.82612 -7.77065,16.47612 -7.44687,17 C 177.89409,460.63764 207.74592,461 256,461 c 48.25408,0 78.10591,-0.36236 78.47065,-0.95251 z m 155.36437,-51.46218 c 4.64575,-2.40241 5.25684,-4.8214 4.94768,-19.58531 L 494.5,375.5 255.76957,375.24794 17.039139,374.99588 l -0.605375,2.412 c -0.332957,1.32661 -0.454263,7.89052 -0.26957,14.58646 L 16.5,404.1688 19.765777,407.0844 23.031553,410 H 255.06544 c 198.07739,0 232.43423,-0.20703 234.76958,-1.41469 z m 4.94301,-49.94812 C 495.73274,358.04714 496,321.46861 496,191.39132 496,8.3870917 496.42828,20.824193 490.01215,17.506282 487.47212,16.192783 480.99308,16.015238 443.77908,16.239356 L 400.5,16.5 400.24712,186.89407 c -0.19836,133.65845 0.0123,170.71354 0.97694,171.8759 1.06327,1.28117 7.39858,1.42365 46.78091,1.05214 25.05309,-0.23633 46.10097,-0.76955 46.77306,-1.18492 z m -52.0554,-27.74131 c -21.98961,-3.39653 -30.87491,-31.82118 -15.03068,-48.08408 10.80489,-11.09039 30.69072,-10.87879 40.91236,0.43534 5.41505,5.99381 7.82734,12.08141 7.82734,19.75286 0,17.98249 -15.3971,30.72436 -33.70902,27.89588 z m 14.5323,-18.68927 c 2.50281,-2.50281 3.15425,-4.09561 3.53045,-8.63216 0.44799,-5.40209 0.34545,-5.67892 -3.54438,-9.56874 C 453.5869,290.35161 452.77575,290 448,290 c -4.74807,0 -5.59661,0.36131 -9.11765,3.88235 -3.48291,3.48292 -3.88235,4.40099 -3.88235,8.92328 0,4.00288 0.54949,5.69395 2.66844,8.21218 3.47394,4.12854 5.78311,5.04059 11.67446,4.61103 3.80158,-0.27718 5.50283,-1.01303 7.91203,-3.42223 z M 440.5,253.65994 c -13.49993,-4.46779 -20.90715,-14.31271 -20.83005,-27.68519 0.0647,-11.21275 5.77104,-20.52401 15.57094,-25.4075 7.33057,-3.65298 18.18765,-3.65298 25.51822,0 17.31948,8.63066 21.17216,32.35153 7.42909,45.7408 -7.09609,6.91341 -19.25659,10.14232 -27.6882,7.35189 z m 13.18368,-15.60332 C 458.73039,235.76534 461,231.84904 461,225.43201 c 0,-4.08828 -0.48164,-5.14894 -3.88235,-8.54966 C 453.59661,213.36131 452.74807,213 448,213 c -4.74807,0 -5.59661,0.36131 -9.11765,3.88235 -3.41154,3.41155 -3.88235,4.45393 -3.88235,8.59571 0,6.1253 2.49765,10.33349 7.5,12.63649 4.99453,2.29939 6.00303,2.29417 11.18368,-0.0579 z m -14.82343,-61.62438 c -6.3628,-1.95895 -14.00412,-9.03715 -16.89809,-15.65281 -2.78785,-6.37308 -3.06162,-16.30514 -0.60964,-22.11763 C 425.89928,127.88357 436.28496,121 448,121 c 16.03462,0 28.24903,12.05488 28.37055,28 0.14992,19.67072 -18.47608,33.29239 -37.5103,27.43224 z m 16.52487,-16.52054 c 8.66098,-6.81272 6.4218,-19.51011 -4.05007,-22.96614 -9.76904,-3.22407 -19.71796,8.61194 -14.96487,17.8034 C 438.92986,159.69883 442.62066,162 448,162 c 3.28275,0 5.5427,-0.63905 7.38512,-2.0883 z M 438.69799,99.616804 C 424.339,94.265662 416.70504,79.994003 420.49941,65.594608 c 3.69096,-14.00695 15.59442,-22.50306 29.91711,-21.353372 15.095,1.211681 25.93825,13.025001 25.93825,28.258764 0,11.250906 -5.66099,20.540692 -15.63133,25.651312 -5.35309,2.743898 -16.58898,3.491488 -22.02545,1.465492 z m 14.89332,-15.661006 c 13.74766,-6.65513 5.81546,-27.944145 -8.89816,-23.881519 -11.36634,3.138398 -12.89932,18.644643 -2.35905,23.862037 5.16657,2.557436 6.01148,2.558898 11.25721,0.01948 z M 59.787141,349.87288 l 0.28714,-8.62713 -5.999667,-0.43397 C 46.640236,340.27402 44,338.2268 44,333 c 0,-5.12526 2.757711,-7.36379 9.850871,-7.99627 L 59.5,324.5 l 0.287872,-8.67728 c 0.28522,-8.59732 0.262515,-8.68947 -2.463672,-10 -6.445753,-3.09859 -6.8592,-10.39448 -0.7919,-13.97428 L 60,289.80245 v -8.29424 C 60,272.17953 59.856841,272 52.418213,272 46.853354,272 44,269.45787 44,264.5 44,259.54213 46.853354,257 52.418213,257 59.856841,257 60,256.82047 60,247.49179 v -8.29424 l -3.4677,-2.04599 c -6.0673,-3.5798 -5.653853,-10.87569 0.7919,-13.97428 2.726187,-1.31053 2.748892,-1.40268 2.463672,-10 L 59.5,204.5 53.769414,204 C 46.510115,203.36662 44,201.35347 44,196.16478 c 0,-5.30394 2.396139,-7.209 9.926122,-7.8918 L 60,187.72222 v -8.33543 c 0,-8.23169 -0.03697,-8.35455 -2.970356,-9.87146 -7.009569,-3.62479 -6.422775,-12.66884 0.974302,-15.01658 1.91667,-0.60833 2.050082,-1.30598 1.783829,-9.32813 L 59.5,136.5 53.850871,135.99627 C 46.757711,135.36379 44,133.12526 44,128 c 0,-5.12526 2.757711,-7.36379 9.850871,-7.99627 L 59.5,119.5 l 0.287775,-8.67062 c 0.266253,-8.02215 0.132841,-8.7198 -1.783829,-9.32813 C 50.606869,99.153511 50.020075,90.109459 57.029644,86.48467 59.963032,84.967757 60,84.844899 60,76.613209 v -8.335432 l -6.073878,-0.55076 C 46.435456,67.047788 44,65.131681 44,59.917593 44,54.742594 47.498451,52 54.099675,52 59.795887,52 61,50.540879 61,43.638322 c 0,-3.662965 0.48684,-4.87611 2.634859,-6.565742 3.283548,-2.582839 6.445787,-2.637613 9.499893,-0.164548 1.893387,1.533172 2.455428,3.154001 2.860784,8.25 L 76.5,51.5 h 8.418629 c 8.320189,0 8.437948,-0.03508 10.070918,-3 3.643303,-6.615003 10.538363,-6.792195 14.589413,-0.374923 L 112.02509,52 h 7.28745 c 4.33469,0 7.77368,-0.486222 8.48746,-1.2 0.66,-0.66 1.2,-3.380455 1.2,-6.045455 0,-8.355898 6.42996,-12.350576 12.36514,-7.681965 2.24613,1.766803 2.63486,2.843805 2.63486,7.3 0,2.875081 0.54,5.76742 1.2,6.42742 0.71516,0.715163 4.16305,1.2 8.53373,1.2 7.27758,0 7.34905,-0.02598 9.33599,-3.393588 3.98343,-6.751419 11.25239,-6.803191 14.94073,-0.106412 1.63297,2.964921 1.75073,3 10.07092,3 H 196.5 l 0.50446,-6.341968 c 0.40536,-5.095999 0.9674,-6.716828 2.86079,-8.25 5.87948,-4.760913 11.71751,-0.836601 12.90113,8.672115 l 0.73689,5.919853 8.12689,0.28848 8.12688,0.288479 2.09683,-3.553858 c 3.92127,-6.646052 10.37099,-6.646052 14.29226,0 l 2.09683,3.553858 8.12852,-0.288479 L 264.5,51.5 l 0.26654,-4 c 0.58245,-8.740698 3.02529,-12.5 8.12268,-12.5 5.06409,0 7.30378,2.820213 7.99634,10.068983 L 281.5,51.5 l 8.12852,0.28848 8.12852,0.288479 2.09683,-3.553858 c 2.7751,-4.703453 6.57918,-6.163884 10.80565,-4.148421 1.74326,0.831303 3.49367,2.549578 3.8898,3.81839 1.04799,3.356719 2.16847,3.774644 10.1655,3.791617 8.33366,0.01769 9.28518,-0.83762 9.28518,-8.346365 0,-3.662965 0.48684,-4.87611 2.63486,-6.565742 3.49526,-2.749369 6.9109,-2.617726 9.91059,0.381965 1.93064,1.930639 2.45455,3.488777 2.45455,7.3 0,2.665 0.54,5.385455 1.2,6.045455 1.67991,1.679907 31.92009,1.679907 33.6,0 0.83184,-0.831842 1.2,-6.036626 1.2,-16.964816 0,-14.562756 -0.14749,-15.843749 -1.93426,-16.8 C 381.75324,16.332752 324.04397,16 203.53362,16 49.871454,16 25.46353,16.197312 22.431892,17.464011 15.550357,20.3393 16,8.2156451 16,190.88609 c 0,90.72269 0.276522,165.67094 0.614493,166.55168 0.541302,1.41061 3.131875,1.56923 21.75,1.33178 L 59.5,358.5 Z M 384.75339,214.10655 C 384.9392,108.22185 384.70652,69.351309 383.88094,68.356545 382.31611,66.47104 79.083745,66.316255 77.2,68.2 76.277767,69.122233 76,102.76296 76,213.53333 c 0,79.27334 0.301424,144.43476 0.66983,144.80317 0.368407,0.3684 69.78091,0.5559 154.25,0.41666 L 384.5,358.5 Z m -278.35454,115.5601 c -5.42497,-4.66636 -5.46617,-4.5942 32.20844,-56.39644 19.10822,-26.27362 35.45107,-48.3184 36.31746,-48.98841 2.48348,-1.92056 6.73669,-1.48568 9.46918,0.9682 1.37801,1.2375 9.77941,11.025 18.66979,21.75 8.89037,10.725 16.90051,19.6113 17.8003,19.74733 1.15772,0.17502 13.18339,-17.07301 41.13598,-59 25.82597,-38.73721 40.42842,-59.75517 42.18193,-60.71431 1.9658,-1.07527 3.38596,-1.20878 5.31859,-0.5 1.62942,0.59758 11.20578,11.26495 25.06807,27.92403 L 357,201.41409 v 63.22038 63.22037 l -2.63486,2.07258 C 351.73241,331.99832 351.63214,332 230.42091,332 H 109.11153 Z m 233.01936,-14.27364 c 1.41549,-0.54317 1.57997,-6.24685 1.56444,-54.25 L 340.96529,207.5 324.86521,188.20581 c -8.85504,-10.6118 -16.46855,-19.1618 -16.9189,-19 -1.59069,0.57151 -7.31847,8.85224 -43.85568,63.40273 -20.30104,30.3097 -37.6632,55.3972 -38.58259,55.75 -4.85714,1.86386 -7.28958,0.74456 -13.19346,-6.07104 -3.19802,-3.69187 -7.08911,-8.03852 -8.64687,-9.65922 -1.55777,-1.62069 -7.33921,-8.2996 -12.84766,-14.84201 -5.50846,-6.54242 -10.59478,-11.75827 -11.30293,-11.59079 -1.75386,0.4148 -5.08806,4.71552 -29.97553,38.66476 -11.83785,16.14813 -21.27591,29.76063 -20.97346,30.25 0.61043,0.98769 208.28729,1.26621 210.85008,0.28277 z M 138.22252,168.9793 c -9.8194,-2.03021 -18.58564,-9.09053 -23.39606,-18.84318 -3.28953,-6.66919 -3.28953,-20.60305 0,-27.27224 3.63981,-7.37934 8.67251,-12.4919 15.70459,-15.95378 12.33526,-6.07263 26.81939,-3.91238 37.30918,5.56452 2.25511,2.03736 5.35111,6.25154 6.87999,9.36484 2.4145,4.91671 2.77978,6.8432 2.77978,14.66054 0,7.81734 -0.36528,9.74383 -2.77978,14.66054 -6.41896,13.07109 -22.1989,20.77511 -36.4977,17.81876 z m 13.46238,-16.04591 c 5.94134,-2.25112 11.27118,-10.02202 11.27118,-16.43339 0,-4.64502 -3.35179,-10.9373 -7.51939,-14.11609 C 152.14465,119.87295 150.79496,119.5 145,119.5 c -5.74981,0 -7.15563,0.38133 -10.32889,2.80169 -13.53154,10.32101 -6.80953,31.584 10.01379,31.67554 2.3017,0.0125 5.4517,-0.45721 7,-1.04384 z"
         id="path222" />
    </g>
  </g>
</svg>
