<?xml version="1.0" encoding="UTF-8" standalone="no"?>
<!-- Created with Inkscape (http://www.inkscape.org/) -->

<svg
   version="1.1"
   id="svg2"
   width="512"
   height="512"
   viewBox="0 0 512 512"
   sodipodi:docname="brewing.png"
   xmlns:inkscape="http://www.inkscape.org/namespaces/inkscape"
   xmlns:sodipodi="http://sodipodi.sourceforge.net/DTD/sodipodi-0.dtd"
   xmlns="http://www.w3.org/2000/svg"
   xmlns:svg="http://www.w3.org/2000/svg">
  <defs
     id="defs6" />
  <sodipodi:namedview
     id="namedview4"
     pagecolor="#505050"
     bordercolor="#eeeeee"
     borderopacity="1"
     inkscape:showpageshadow="0"
     inkscape:pageopacity="0"
     inkscape:pagecheckerboard="0"
     inkscape:deskcolor="#505050"
     showgrid="false" />
  <g
     inkscape:groupmode="layer"
     inkscape:label="Image"
     id="g8">
    <g
       id="g170">
      <path
         style="fill:#b0defc"
         d="M 104.15896,510.55079 C 102.272,509.86707 99.878309,507.85617 98.658964,505.93035 96.663022,502.77798 96.5,501.22273 96.5,485.33358 c 0,-19.10563 0.329938,-20.2106 7.48983,-25.08358 3.16097,-2.15134 4.19836,-2.25 23.65805,-2.25 C 138.84155,458 148,457.61188 148,457.1375 c 0,-0.47437 -1.39593,-2.61187 -3.10206,-4.75 -4.06197,-5.09045 -8.29359,-13.5335 -10.49493,-20.93978 -3.24281,-10.91026 -2.4836,-20.37417 4.44809,-55.44772 8.66436,-43.84068 8.55346,-43.51725 15.40285,-44.9181 2.92526,-0.59828 3.32506,-1.1197 4.09658,-5.34269 0.82777,-4.53088 0.74038,-4.78778 -2.74779,-8.07754 -1.9815,-1.8688 -3.60274,-4.29531 -3.60274,-5.39223 0,-1.09692 1.12722,-7.52907 2.50493,-14.29366 1.37771,-6.76459 2.39021,-12.39615 2.25,-12.51459 -0.14021,-0.11845 -2.16085,-1.17645 -4.49031,-2.35113 -2.32945,-1.17468 -4.96871,-3.255 -5.865,-4.62292 C 144.87246,276.1564 144.22859,276 136.16043,276 h -8.60955 l -25.02544,24.90888 C 81.824654,321.51325 76.808759,326.00536 73.5,326.9033 68.016117,328.39155 64.591419,328.27388 60.217881,326.44695 49.14196,321.82028 44.231858,309.7233 49.077298,299 51.714427,293.16385 102.11592,242.21888 109.5,237.92577 c 4.88044,-2.83749 5.34671,-2.90818 19.5,-2.95609 l 14.5,-0.0491 4.71401,-4.34012 4.71402,-4.34013 -8.46402,-25.34811 C 139.80881,186.95076 136,174.27623 136,172.7266 c 0,-3.61172 3.77385,-7.41366 8.13827,-8.19885 1.84895,-0.33264 51.12707,-0.47497 109.50693,-0.31628 104.53091,0.28414 106.17896,0.31895 108.36477,2.28853 4.73303,4.26484 4.63489,4.98016 -4.57429,33.34173 l -8.62315,26.55678 3.01617,2.55075 c 6.51343,5.50834 7.16343,7.85104 7.16756,25.83286 0.003,11.60814 -0.3915,17.20585 -1.3731,19.5 -1.65487,3.86768 -6.10169,8.20476 -9.87316,9.62951 -1.59545,0.60271 -2.75,1.79389 -2.75,2.83725 0,0.98911 5.4,28.77711 12,61.75112 12.80783,63.98873 13.43027,68.80835 10.49443,81.26027 -1.73684,7.36654 -5.93397,16.04223 -10.92277,22.5779 -1.96441,2.57353 -3.57166,4.90747 -3.57166,5.18656 0,0.27908 12.2625,0.38768 27.25,0.24134 L 407.5,457.5 l 0.29025,-175 C 407.99783,157.34399 407.76171,105.24533 406.96126,99.583969 402.7028,69.465203 381.73189,44.83861 352.04298,35.092244 c -9.01922,-2.960859 -10.65725,-2.791051 -11.98854,1.242811 -0.60537,1.83428 -2.46938,4.64678 -4.14224,6.25 -2.48245,2.379092 -4.15457,3.00686 -9.09609,3.414945 l -6.0545,0.5 -21.44239,42 c -11.79332,23.1 -22.32627,42.9 -23.40656,44 -1.82897,1.86234 -3.50595,2.02083 -24.36374,2.30262 l -22.39958,0.30263 -3.03812,-2.80263 C 224.13944,130.48368 215.83386,115.28505 202.44769,89 191.10371,66.725 181.35717,47.9375 180.78869,47.25 180.22022,46.5625 177.76286,46 175.3279,46 c -5.57147,0 -9.85934,-2.183582 -12.36838,-6.298549 -1.6865,-2.765948 -1.95255,-5.078659 -1.95578,-17.001111 C 160.99771,0.464597 161.5927,0 190.07507,0 210.08216,0 213.0163,0.5455996 214.86829,4.6102718 215.80678,6.6700448 216.6534,7 221,7 c 4.25902,0 5.20234,-0.3497388 6.06877,-2.25 2.11811,-4.64545284 3.32884,-4.75 55.00847,-4.75 56.06529,0 54.61701,-0.19477061 57.44066,7.7248492 0.93639,2.6263328 1.86381,5.3376508 2.06093,6.0251508 0.19712,0.6875 1.39407,1.25 2.65988,1.25 3.91677,0 16.76479,3.941052 24.50185,7.515798 C 395.93522,35.0805 415.11189,58.278475 423.28661,88.5 l 2.16394,8 0.29823,180.67832 0.29823,180.67832 14.7265,0.32168 c 16.54438,0.36139 19.3684,1.38628 22.6032,8.20312 2.44181,5.14573 2.3471,33.66344 -0.12826,38.61856 -3.3127,6.63128 -4.85893,6.89802 -40.29909,6.95197 -32.8103,0.05 -36.26859,-0.33737 -37.51825,-4.20197 -0.85388,-2.64063 -12.04073,-2.55532 -12.88294,0.0982 -0.32264,1.01654 -1.72414,2.36654 -3.11444,3 -3.72556,1.69748 -260.56389,1.40949 -265.27477,-0.29745 z M 281.30544,82.5 c 9.25932,-18.15 17.07664,-33.5625 17.37183,-34.25 0.42517,-0.990234 -9.58178,-1.25 -48.15361,-1.25 -26.77968,0 -48.54033,0.374081 -48.35699,0.831291 0.91575,2.283769 30.45815,60.253119 32.58833,63.946209 l 2.46727,4.27749 13.62402,-0.27749 13.62402,-0.2775 z"
         id="path184" />
      <path
         style="fill:#9da1a4"
         d="m 104,510.20197 c -6.023041,-2.92887 -6.996665,-6.36758 -6.998446,-24.71757 -0.0018,-18.83386 0.865664,-21.5585 8.034326,-25.2344 4.11429,-2.1097 5.62179,-2.25 24.17601,-2.25 C 140.09535,458 149,457.75569 149,457.45709 c 0,-0.2986 -1.7504,-2.8861 -3.88978,-5.75 -5.10034,-6.82762 -8.59655,-13.93607 -10.53656,-21.42283 -2.90206,-11.1994 -2.15682,-18.87138 5.60336,-57.68475 7.74806,-38.75271 8.18788,-40.00009 14.53292,-41.21757 2.68395,-0.51499 3.70807,-0.11777 6.25,2.42415 1.67203,1.67203 3.04006,3.98612 3.04006,5.14241 0,1.15628 -3.19662,18.1784 -7.1036,37.82692 -5.93005,29.82269 -7.01641,36.80498 -6.57581,42.26434 1.31205,16.25731 11.49029,29.96838 26.96021,36.31802 5.12379,2.10306 6.40608,2.14743 70.14249,2.42714 42.77444,0.18772 66.65522,-0.075 70,-0.77021 14.85706,-3.08788 26.75539,-13.50131 31.63639,-27.68818 3.66186,-10.64338 2.97731,-16.09158 -10.40692,-82.82653 l -12.23403,-61 -74.90295,-0.25642 c -41.19662,-0.14103 -75.26075,0.10139 -75.69807,0.53871 -0.43732,0.43732 -2.15876,7.30271 -3.82543,15.25642 -2.53347,12.09032 -3.44621,14.83018 -5.56705,16.71129 -2.82098,2.5021 -5.466,2.83092 -8.74097,1.08666 -5.29191,-2.81849 -5.74821,-6.4456 -2.68426,-21.33666 1.1,-5.34609 2,-10.33648 2,-11.08976 0,-0.75327 -1.6875,-2.23753 -3.75,-3.29833 -2.0625,-1.06081 -5.07169,-3.31996 -6.68709,-5.02033 C 143.78792,275.17063 143.21081,275 136.10626,275 h -7.51956 l -24.59464,24.468 c -15.695003,15.61419 -25.921399,25.02236 -28.261228,26 -11.827305,4.94176 -24.4492,-1.28095 -27.794035,-13.70272 -2.64205,-9.81182 -0.294054,-13.10235 32.732366,-45.87174 C 113.84238,232.9785 110.51347,235 131.5431,235 h 12.65747 l 4.46172,-4.3987 4.46172,-4.39869 -8.60144,-26.43248 c -9.2429,-28.40369 -9.40522,-29.63764 -4.36318,-33.16922 C 142.22109,165.15684 153.10618,165 251.26796,165 h 108.82295 l 2.45454,2.45455 c 1.44004,1.44003 2.45237,3.60995 2.44928,5.25 -0.003,1.5375 -3.82013,14.27045 -8.48275,28.29545 l -8.47748,25.5 3.908,3.27085 c 6.27138,5.24889 7.30022,9.34078 6.89943,27.44023 -0.32776,14.80112 -0.45318,15.60911 -3.02595,19.49388 -1.67126,2.52353 -4.43583,4.90078 -7.3267,6.30023 -3.79651,1.83786 -4.55025,2.63454 -4.13555,4.37115 3.64758,15.27457 24.64173,124.54594 24.62891,128.18969 -0.0423,12.03376 -5.91511,28.45669 -13.33064,37.27858 -2.0086,2.38954 -3.652,4.52704 -3.652,4.75 0,0.22297 12.6,0.40539 28,0.40539 h 28 L 407.993,279.25 C 407.986,105.63597 407.9301,100.26687 406.04071,92.386379 399.20285,63.866351 377.76611,41.690974 349.55103,33.95028 c -7.83785,-2.150284 -9.54845,-1.996544 -9.55476,0.858737 -0.007,3.096524 -3.99624,8.293028 -7.48604,9.751159 -1.89529,0.791903 -5.37294,1.440159 -7.7281,1.440569 l -4.28212,7.46e-4 -21,41.200466 c -11.55,22.660253 -22.0525,42.459923 -23.33889,43.999253 L 273.82222,134 H 251.0219 c -20.26123,0 -23.03029,-0.19488 -24.86539,-1.75 -1.13579,-0.9625 -11.69694,-20.65 -23.46922,-43.75 l -21.40414,-42 -5.74003,-0.628263 C 164.03988,44.612677 161.0038,39.778472 161.00155,22.717881 160.99976,9.1052687 162.2088,5.0624788 167.18982,2.0256346 170.21434,0.1816385 172.1828,0.00907244 190,0.02597391 211.01177,0.04590576 212.12844,0.30241993 214.91814,5.75 215.87742,7.6232282 216.89585,8 221,8 c 4.10415,0 5.12258,-0.3767718 6.08186,-2.25 3.03312,-5.92291859 0.95677,-5.70349473 54.20026,-5.72776415 52.50522,-0.02393291 54.09967,0.12038308 56.82254,5.14310605 0.6961,1.284062 1.51982,3.8575825 1.83049,5.7189341 0.56295,3.372886 0.59807,3.392269 10.4362,5.758763 34.4202,8.27955 60.41094,33.010728 71.31291,67.856961 l 2.81574,9 0.5,182 0.5,182 14.67787,0.5 c 15.92656,0.54254 17.55496,1.08278 22.26034,7.38512 1.89709,2.54094 2.06179,4.14778 2.06179,20.11488 0,15.9764 -0.16433,17.57736 -2.07108,20.17667 -4.4928,6.12463 -5.74886,6.32007 -40.63078,6.32178 L 390.09628,512 386.69712,508.5 C 383.85168,505.57014 382.59783,505 379,505 c -3.59783,0 -4.85168,0.57014 -7.69712,3.5 l -3.39916,3.5 -130.20186,-0.048 C 117.1966,511.90751 107.23934,511.77719 104,510.20197 Z M 337.16441,204.5 c 3.66542,-11 6.70292,-20.5625 6.75,-21.25 0.0679,-0.99171 -19.25683,-1.25 -93.5214,-1.25 -74.46414,0 -93.51296,0.25563 -93.1472,1.25 0.25288,0.6875 3.48933,10.36518 7.19211,21.50597 l 6.73232,20.25596 79.66488,-0.25596 L 330.5,224.5 Z M 282.41665,82.451998 C 292.08749,63.450597 300,47.475597 300,46.951998 300,46.362155 281.16941,46 250.5,46 223.275,46 201,46.29207 201,46.649045 c 0,0.870077 34.00209,67.508485 35.2586,69.100955 0.70375,0.89192 4.93782,1.25 14.78049,1.25 H 264.8333 Z M 187.22789,449.98178 C 170.42522,447.53183 157.71044,432.84657 157.80582,416 c 0.0382,-6.74429 14.16246,-79.20369 16.17017,-82.95514 2.9531,-5.51792 8.83246,-5.35129 16.54368,0.46889 9.34535,7.05355 15.78006,9.74763 24.48033,10.24941 9.84376,0.56773 16.05866,-1.75994 26.00093,-9.73812 9.02069,-7.23866 22.14059,-14.24052 30.94808,-16.51645 7.39506,-1.91095 19.26082,-2.15405 26.55099,-0.54398 6.04089,1.33417 21.7015,8.98087 26.3838,12.88259 l 3.3838,2.81968 7.86447,39.41656 c 4.32546,21.67911 7.86525,41.76218 7.8662,44.62905 0.005,16.44272 -13.14379,30.72744 -30.60883,33.25202 -8.04135,1.16238 -118.20451,1.17746 -126.16155,0.0173 z"
         id="path182" />
      <path
         style="fill:#708b99"
         d="m 105.26969,510.51741 c -6.340294,-2.7563 -7.261748,-5.91399 -7.265952,-24.89938 -0.0034,-15.18447 0.198948,-17.20992 2.012022,-20.14353 C 103.6609,459.57653 106.32211,459 129.90113,459 141.50551,459 151,458.61974 151,458.15499 c 0,-0.46476 -0.88193,-1.64315 -1.95984,-2.61865 -3.83109,-3.46709 -9.95251,-14.15161 -12.52999,-21.87024 -4.37752,-13.10913 -3.93607,-19.21262 4.42396,-61.1661 6.46449,-32.441 7.42103,-36.22244 9.67554,-38.25 5.0551,-4.54621 12.39033,-1.24545 12.39033,5.57549 0,1.75813 -2.99023,18.15413 -6.64496,36.43555 -3.98283,19.92268 -6.6574,35.84301 -6.67602,39.73896 -0.0655,13.70414 6.86938,26.96953 18.12638,34.67307 11.65666,7.97704 8.99042,7.7007 78.07679,8.09215 66.65704,0.37768 71.46033,0.0985 81.89164,-4.76022 14.11684,-6.57534 24.11511,-22.24597 24.20172,-37.93218 0.0134,-2.43495 -5.66466,-32.92524 -12.61801,-67.75621 l -12.64246,-63.32903 -76.02853,0.25621 -76.02852,0.25621 -3.19236,14.93013 C 168.02227,316.53436 166.64111,319 161.06353,319 c -2.70325,0 -6.21781,-2.9388 -7.33996,-6.13751 -0.31596,-0.90062 0.51526,-7.20062 1.84715,-14 1.33189,-6.79937 2.42334,-12.83839 2.42545,-13.42004 0.002,-0.58166 -1.77612,-1.84287 -3.95161,-2.80269 -2.17549,-0.95983 -5.07144,-3.07143 -6.43544,-4.69245 C 145.19251,275.07534 144.89265,275 135.87793,275 h -9.25119 l -25.06337,24.90913 c -21.787226,21.65315 -25.634617,25.06099 -29.433559,26.07091 -16.283468,4.32882 -30.031398,-14.15841 -21.144696,-28.43386 1.042962,-1.6754 14.635477,-15.71321 30.20559,-31.19513 23.506425,-23.37329 28.987925,-28.3348 32.309295,-29.24442 2.2,-0.60251 10.11312,-1.09799 17.5847,-1.10105 l 13.5847,-0.006 2.55142,-2.86353 c 1.40328,-1.57494 3.60767,-3.60336 4.89864,-4.50759 l 2.34722,-1.64405 -8.73334,-26.26287 C 140.93,186.27738 137,173.74148 137,172.8644 c 0,-0.87707 0.93266,-2.78037 2.07258,-4.22954 L 141.14516,166 h 109.42742 c 108.09409,0 109.45179,0.0244 111.42742,2 1.18536,1.18536 2,3.33333 2,5.27343 0,1.80039 -3.6,14.05235 -8,27.22657 -4.4,13.17422 -8,24.66655 -8,25.53851 0,0.87195 1.34635,2.58077 2.99189,3.79737 5.92326,4.37926 7.00811,8.32153 7.00811,25.467 0,14.10542 -0.19016,15.74216 -2.29045,19.71386 -1.62703,3.07675 -3.72699,5.11461 -7.25,7.0356 -4.02715,2.19588 -4.90902,3.15017 -4.69076,5.07598 0.14784,1.30442 5.66034,29.40139 12.25,62.43771 7.93709,39.79141 11.97622,62.23775 11.96643,66.5 -0.0292,12.70217 -5.05091,26.70957 -13.04268,36.38071 -2.1684,2.62407 -3.94254,5.17893 -3.94254,5.67748 0,0.52707 12.03291,0.7954 28.75,0.64112 L 408.5,458.5 408.75962,281 c 0.22044,-150.71404 0.0432,-178.65296 -1.1743,-185.14022 C 402.79127,70.316081 385.64609,48.479666 361.84028,37.598051 347.91994,31.235077 339,30.092392 339,34.672105 c 0,2.777432 -3.07239,7.313969 -5.96727,8.810968 -1.61337,0.83431 -4.86826,1.523818 -7.23307,1.53224 -2.36481,0.0084 -4.79461,0.345922 -5.39956,0.75 -0.60494,0.404078 -10.61655,19.451634 -22.24801,42.327903 -11.63147,22.876264 -22.09513,42.451264 -23.2526,43.500004 -1.89853,1.72019 -4.09049,1.93675 -22.39939,2.21307 -15.9149,0.24018 -21.0362,-0.003 -23.72969,-1.12886 -3.20407,-1.33875 -4.86524,-4.24754 -24.73148,-43.306286 C 192.32575,66.342015 182.29514,46.9375 181.74868,46.25 c -0.54647,-0.6875 -3.07597,-1.256634 -5.62112,-1.264742 -5.83246,-0.01858 -8.93973,-1.583007 -11.91687,-5.999827 -2.23725,-3.31914 -2.33411,-4.164519 -2.03002,-17.71903 L 162.5,7.0328018 165.76689,3.7664009 169.03377,0.5 188.60049,0.18976813 c 21.43027,-0.33977864 22.94227,-0.0124047 25.59483,5.54171757 1.18051,2.4718322 1.92242,2.8002044 6.92318,3.0642332 5.42362,0.2863543 5.64146,0.1980084 6.87906,-2.789827 C 230.56806,-0.19983841 228.76871,0 282.07462,0 h 48.62961 l 3.38469,2.2809365 c 1.86157,1.2545151 3.68855,3.3920151 4.05996,4.75 2.3923,8.7470745 1.89938,8.2056245 8.73814,9.5984925 32.03916,6.525495 59.55384,29.515613 71.04453,59.361852 6.94474,18.038444 6.43815,2.943165 6.80215,202.687149 l 0.32835,180.17844 14.89959,0.32156 c 13.19639,0.28481 15.22189,0.55832 17.71898,2.39265 5.41907,3.98079 6.31627,7.37981 6.31627,23.92892 0,16.96412 -0.93455,20.24838 -6.89477,24.23007 -3.34963,2.2377 -3.83694,2.26993 -34.31574,2.26993 -19.293,0 -31.64124,-0.38714 -32.84177,-1.02964 -1.05815,-0.56631 -2.61512,-2.36631 -3.45994,-4 C 385.04034,504.17734 384.59049,504 378.94957,504 c -5.41159,0 -6.0884,0.23494 -6.9112,2.39909 -2.27167,5.97493 6.68476,5.6046 -134.51088,5.56177 -108.52017,-0.0329 -129.54091,-0.26234 -132.2578,-1.44345 z M 337.74357,204.0769 c 3.98396,-11.78271 6.98413,-21.68271 6.66704,-22 -0.31708,-0.3173 -42.38877,-0.7273 -93.49263,-0.91111 -83.22572,-0.29936 -92.97819,-0.17246 -93.51127,1.21672 -0.46448,1.21043 11.43425,39.59327 13.29083,42.87346 0.23533,0.41579 36.28716,0.64079 80.11517,0.5 L 330.5,225.5 Z M 283.22079,83 c 9.74643,-18.975 17.73393,-35.291662 17.75,-36.259249 0.0275,-1.659427 -2.82204,-1.744539 -50.22079,-1.5 -45.64161,0.235473 -50.2392,0.408087 -50.13229,1.882187 0.0647,0.892616 8.08537,17.216957 17.82362,36.276312 l 17.7059,34.65337 14.67639,-0.27631 L 265.5,117.5 Z m -100.5968,365.38104 c -13.69578,-4.25547 -23.06584,-15.79067 -24.24659,-29.84926 -0.41255,-4.91201 0.97159,-13.35805 7.45584,-45.49553 7.52248,-37.28317 8.11524,-39.59519 10.72775,-41.84237 3.75864,-3.23305 6.47336,-2.51698 15.78467,4.16358 10.06322,7.22003 15.26759,9.14658 24.65434,9.1265 9.27026,-0.0198 15.36334,-2.61365 25.5,-10.85534 12.95591,-10.5339 30.59857,-17.58955 44,-17.59648 11.02509,-0.006 29.75424,7.08005 38.08721,14.40942 l 3.47723,3.05844 8.05049,40.5 c 8.97592,45.15562 9.05453,46.33907 3.77945,56.89545 -3.5336,7.07137 -9.10065,12.37126 -16.77437,15.96938 L 317.5,449.5 l -65,0.19804 c -55.64373,0.16954 -65.70187,-0.02 -69.87601,-1.317 z"
         id="path180" />
      <path
         style="fill:#607986"
         d="M 105.06166,510.17273 C 98.675213,506.74764 97.885357,503.76751 98.211712,484.32781 98.492741,467.58803 98.562953,467.08746 101,464.44893 105.58213,459.48797 108.2211,459 130.46788,459 141.76055,459 151,458.737 151,458.41555 c 0,-0.32145 -1.97903,-3.13395 -4.39785,-6.25 -8.63417,-11.12299 -12.6007,-22.39233 -12.6042,-35.80989 -0.002,-8.89123 13.10911,-77.20851 15.54909,-81.01876 3.07265,-4.79822 11.63004,-3.46384 13.00852,2.02846 0.32303,1.28703 -2.63849,18.49383 -6.58115,38.23735 -7.93664,39.74397 -8.28101,44.51846 -4.01609,55.6796 4.10426,10.74068 13.74204,20.44198 24.69801,24.86079 L 182.5,458.5 l 64.92329,0.28492 c 44.38494,0.19479 66.59872,-0.0629 70.21947,-0.81456 12.92836,-2.68391 24.70419,-11.83581 30.57583,-23.76282 2.72711,-5.53954 3.26041,-7.85382 3.59617,-15.6058 0.36606,-8.45165 -0.48143,-13.49439 -11.86549,-70.60174 -6.74285,-33.825 -12.69497,-62.0625 -13.22694,-62.75 -0.75864,-0.98044 -17.06058,-1.2467 -75.59477,-1.23469 -41.04516,0.008 -75.13947,0.34592 -75.76514,0.75 -0.62566,0.40408 -2.5125,7.25969 -4.19296,15.23469 -2.60134,12.34518 -3.44367,14.83437 -5.66819,16.75 -3.24575,2.79507 -5.48173,2.83981 -8.86641,0.17742 C 153.38803,314.37346 153.312,312.10669 156,298 c 2.63922,-13.85068 2.656,-13.70183 -1.75,-15.52419 -2.0625,-0.85306 -5.18956,-3.1091 -6.94902,-5.01342 C 144.14968,274.05164 143.9791,274 135.86435,274 h -8.23761 l -25.06337,24.93235 c -13.784854,13.71279 -26.330165,25.41279 -27.87847,26 -4.013331,1.52209 -12.297293,1.31945 -15.586116,-0.38127 -4.197796,-2.17076 -8.874652,-8.005 -10.117781,-12.62163 -1.321408,-4.90733 -0.59196,-9.04371 2.544627,-14.42945 2.996045,-5.14442 54.85463,-56.68957 59.47437,-59.1149 2.77781,-1.45834 6.60931,-1.94556 18.56891,-2.36129 l 15.06891,-0.52381 4.85965,-4.28325 4.85966,-4.28325 -8.69003,-26.87149 C 136.45745,171.58376 136.16805,169.58598 140.88639,167.0608 142.24858,166.33178 176.76957,166 251.25994,166 h 108.39143 l 2.17432,2.31445 c 1.19587,1.27295 2.17431,3.42037 2.17431,4.77206 0,1.35168 -3.82502,13.91281 -8.50004,27.91362 l -8.50005,25.45602 4.00451,3.66048 c 6.10181,5.57761 6.99558,8.70589 6.99558,24.48523 0,7.5376 -0.52434,15.41618 -1.16923,17.56865 C 355.6382,276.15095 349.18018,283 346.61956,283 c -4.01307,0 -3.77473,1.77313 8.4127,62.58714 6.60375,32.95208 12.26626,63.06286 12.58335,66.91286 1.07275,13.02502 -4.50568,30.19101 -13.05045,40.15896 -1.96084,2.28743 -3.56516,4.64993 -3.56516,5.25 0,0.76297 8.72016,1.09104 29,1.09104 h 29 L 408.993,279.75 C 408.98616,104.80539 408.93862,100.30242 407.01388,92.274113 403.17569,76.264537 396.05928,64.055403 383.75502,52.370461 373.10548,42.256962 359.80921,34.982656 346.53565,32.00799 340.56867,30.670762 339,31.18604 339,34.4833 c 0,1.489102 -1.37752,4.049203 -3.31822,6.16688 -2.95353,3.222858 -4.014,3.688349 -9.6488,4.235315 L 319.7024,45.5 298.03424,87.87957 c -11.91748,23.30876 -22.51153,42.99626 -23.54233,43.75 -1.45353,1.06285 -6.84207,1.37043 -24.00873,1.37043 -21.67204,0 -22.17797,-0.047 -24.21234,-2.25 -1.14278,-1.2375 -11.33927,-20.42052 -22.65887,-42.628928 -11.3196,-22.208411 -21.09313,-40.995911 -21.71897,-41.75 -0.6271,-0.755606 -2.99073,-1.37177 -5.26544,-1.372626 -5.63867,-0.0021 -10.7584,-2.776144 -12.91635,-6.998446 -1.50328,-2.941383 -1.74269,-5.603706 -1.5,-16.680707 0.25307,-11.5501842 0.54813,-13.5294679 2.38519,-15.9999998 3.65124,-4.91029126 5.46524,-5.28866514 25.43109,-5.3045514 20.66762,-0.01644464 21.94017,0.32720662 23.96835,6.4726595 C 216.8121,15.020751 212.96262,17 193.54966,17 H 179 v 5.507513 5.507514 L 241.75,27.757513 304.5,27.5 304.80102,22.285761 305.10204,17.071522 268.57269,16.785761 232.04334,16.5 229.34748,13.803081 c -2.54661,-2.547609 -2.62923,-2.919305 -1.49237,-6.7138192 2.21611,-7.39672589 -0.12723,-7.09003808927 54.1174,-7.08267259 46.2842,0.0062846 48.66305,0.0959539 51.46006,1.93975549 3.50435,2.3100819 5.48363,5.5950071 5.53199,9.1812103 0.0463,3.431641 1.39702,4.402971 8.03544,5.77837 24.90473,5.159952 46.72705,19.579804 60.67646,40.094075 4.88537,7.184514 10.09056,18.223524 13.06681,27.71168 L 423.5,93.5 424,276 l 0.5,182.5 15,0.51015 c 16.21612,0.5515 18.38472,1.21726 22.18052,6.80933 1.58329,2.33256 1.81948,4.893 1.81948,19.7245 0,18.90893 -0.4822,20.64518 -6.80433,24.50002 -2.98462,1.81984 -5.23081,1.94877 -34.01141,1.95226 -19.23033,0.002 -31.53905,-0.38336 -32.73965,-1.0259 C 387.72397,509.78191 385,504.96355 385,502.22397 c 0,-1.03144 1.1602,-2.96628 2.57823,-4.29966 2.53502,-2.38368 2.9295,-2.42945 23.53678,-2.73075 l 20.95855,-0.30644 -0.28678,-9.19356 L 431.5,476.5 273.25,476.24691 115,475.99383 V 485.49691 495 l 125.75,0.0354 c 134.97679,0.038 128.99066,-0.19132 131.7955,5.04957 1.07181,2.0027 0.9733,2.93789 -0.6432,6.10649 -1.04986,2.0579 -2.77778,4.20667 -3.83982,4.77506 C 366.76216,511.66247 324.05416,512 237.30014,512 114.43809,512 108.31093,511.91534 105.06166,510.17273 Z M 326,255.60699 c 0,-9.46645 -0.26748,-11.49565 -1.58179,-12 C 323.54823,243.27314 286.42323,243 241.91821,243 H 161 v 12 12 h 82.5 82.5 z m -93.78398,7.88785 c -3.43087,-1.49069 -6.408,-6.58508 -5.51812,-9.44247 1.18041,-3.7903 2.69485,-5.91029 4.95902,-6.94191 C 233.14722,246.43143 240.90477,246 251.62398,246 h 17.52987 l 2.92307,2.92308 c 4.79168,4.79167 3.0865,12.7785 -3.19576,14.9685 -4.80781,1.67601 -32.58646,1.37543 -36.66514,-0.39674 z M 338.16364,205.01848 C 341.92364,193.75365 345,183.74115 345,182.76848 345,181.08972 340.23397,181 251.05902,181 c -51.66754,0 -94.16375,0.36043 -94.43601,0.80096 -0.58439,0.94558 12.16141,41.121 13.62762,42.95496 0.79384,0.99295 17.76286,1.20234 81.04037,1 L 331.32729,225.5 Z m -72.29163,-88.36427 c 2.34552,-2.82618 36.05864,-69.957397 35.54765,-70.784209 C 301.12393,45.3915 278.18352,45 250.44098,45 209.006,45 200,45.238699 200,46.336911 c 0,1.087739 32.63019,66.116349 35.33202,70.413089 1.16442,1.85178 28.99611,1.76448 30.53999,-0.0958 z M 180.5,447.30262 c -13.34179,-5.41304 -21.7,-17.40807 -21.7,-31.14212 0,-5.15784 12.87375,-73.08297 15.3363,-80.91818 2.12919,-6.77452 7.78968,-6.98282 16.22646,-0.5971 9.3343,7.06504 15.81328,9.73851 24.63724,10.16624 10.03361,0.48635 16.03328,-1.84516 27.89972,-10.84199 16.03023,-12.15371 28.25019,-16.97779 42.95562,-16.9576 4.75456,0.007 11.11966,0.66668 14.14466,1.46701 7.59956,2.01063 19.71198,8.3148 24.05326,12.51905 l 3.61621,3.50207 7.77418,39 c 8.45443,42.41254 8.81391,46.60799 4.77577,55.73688 -2.72973,6.17099 -9.50159,13.34164 -15.67927,16.60262 L 319.5,448.5 252,448.71275 c -60.27997,0.18999 -67.92785,0.0392 -71.5,-1.41013 z"
         id="path178" />
      <path
         style="fill:#a0574a"
         d="m 107,511.29377 c -0.825,-0.30158 -2.55526,-1.50356 -3.84501,-2.67105 C 98.550725,504.45492 98,502.03993 98,486.01754 c 0,-17.14907 0.939584,-20.79092 6.18982,-23.99191 3.0306,-1.8477 5.01362,-2.01847 23.47839,-2.02189 11.09252,-0.002 20.88002,-0.27688 21.75,-0.61073 2.36885,-0.90901 1.96444,-2.15139 -2.26399,-6.95515 -7.76697,-8.82374 -13.10999,-23.59668 -13.13944,-36.32925 -0.0151,-6.52471 13.04568,-74.95243 15.21481,-79.71316 2.00161,-4.39305 8.81976,-4.57632 11.98343,-0.32212 1.91122,2.57002 1.90461,2.61885 -5.14967,38.03859 C 151.60409,396.50198 149,412.01269 149,416.18326 c 0,19.01464 12.62964,35.84575 30.9315,41.22139 4.72914,1.38905 13.8457,1.59382 70.5,1.58348 69.2971,-0.0126 69.92075,-0.0515 79.52331,-4.96043 6.27118,-3.20586 15.21365,-12.53061 18.24764,-19.0277 2.96866,-6.35718 4.82095,-14.28403 4.74338,-20.29922 -0.0298,-2.31043 -5.76729,-32.55078 -12.75,-67.20078 l -12.69583,-63 -76.26859,-0.25625 -76.26859,-0.25625 -0.94108,2.25625 c -0.5176,1.24094 -2.08276,8.05837 -3.47815,15.14985 -2.64565,13.44549 -3.42688,15.23133 -7.30869,16.70719 -3.17803,1.20829 -8.00981,-1.35579 -8.84799,-4.69533 -0.35477,-1.41352 0.49215,-8.22899 1.89276,-15.23182 C 158.83952,285.37485 158.69162,283 155.33471,283 c -0.78121,0 -3.58528,-2.025 -6.23126,-4.5 l -4.81086,-4.5 h -8.40395 -8.40395 l -24.49234,24.51091 c -26.816654,26.83697 -28.66114,28.15972 -38.013667,27.26106 -5.892011,-0.56614 -11.461535,-4.41943 -14.227129,-9.84307 -2.103137,-4.12449 -2.272416,-11.79043 -0.357971,-16.21102 1.083033,-2.5008 58.679647,-61.25148 60.645547,-61.8607 0.25348,-0.0786 7.88587,-0.41605 16.96087,-0.75 l 16.5,-0.60718 4.75,-4.6608 c 2.6125,-2.56345 4.75,-5.27399 4.75,-6.02344 0,-0.74944 -3.6,-12.14154 -8,-25.31576 -4.4,-13.17422 -8,-25.40865 -8,-27.18761 0,-2.03961 0.80849,-3.9877 2.18856,-5.27343 C 142.36314,166.01302 143.0693,166 250.73402,166 h 108.35689 l 2.45454,2.45455 c 1.35,1.35 2.45455,3.19015 2.45455,4.08924 0,0.89908 -3.85925,13.49428 -8.57612,27.98934 l -8.57612,26.35465 4.47166,4.30611 c 5.71915,5.50743 6.67926,9.09905 6.63111,24.80611 -0.0536,17.4767 -2.02899,22.31199 -10.70053,26.19197 -2.3375,1.04589 -4.25,2.45369 -4.25,3.12845 0,0.67476 5.43873,28.2162 12.08606,61.20321 12.83523,63.69408 13.77337,70.73742 10.98541,82.47637 -1.8693,7.87085 -6.52155,17.24702 -11.73114,23.64299 -2.47645,3.04042 -4.20432,5.82705 -3.8397,6.19252 0.36462,0.36547 13.1742,0.79678 28.46574,0.95848 24.69693,0.26114 27.9862,0.11059 29.44449,-1.3477 1.51213,-1.51214 1.61919,-15.73949 1.35674,-180.29399 L 409.48266,99.5 l -2.23143,-8 c -2.9649,-10.629587 -9.97362,-24.558377 -16.19801,-32.191144 -6.58151,-8.070685 -17.38666,-16.450201 -27.47551,-21.307571 -8.47737,-4.081507 -20.5529,-7.608517 -22.92847,-6.696927 -0.76819,0.294781 -1.69383,2.119766 -2.05698,4.055522 -0.39793,2.121181 -1.8406,4.512738 -3.63102,6.019279 -2.65469,2.233772 -4.52906,2.761986 -13.96124,3.934393 -0.89592,0.111361 -10.24838,17.299654 -23.22305,42.68016 -11.94768,23.371538 -22.49619,43.059038 -23.44113,43.749998 -1.25407,0.917 -7.57816,1.25629 -23.41617,1.25629 -19.17626,0 -21.94883,-0.20339 -23.8556,-1.75 -1.18663,-0.9625 -11.77117,-20.65 -23.5212,-43.75 l -21.36368,-42 -6.02078,-0.681863 C 164.37502,43.483651 162.5,40.282543 162.5,21.5 162.5,10.381964 162.77484,8.0944929 164.3985,5.6988879 167.91574,0.50942419 170.22744,0 190.25921,0 c 20.24462,0 20.69472,0.12031468 23.20155,6.2019668 1.46462,3.5532036 1.42935,3.8144052 -0.87777,6.5000002 L 210.17929,15.5 194.33964,16 178.5,16.5 v 6 6 l 62,0.276113 c 34.1,0.151862 63.0125,0.03079 64.25,-0.269052 1.98658,-0.481339 2.25,-1.174326 2.25,-5.919124 0,-3.977857 -0.41093,-5.531649 -1.58179,-5.980948 C 304.54823,16.273145 287.95892,16 268.55307,16 234.37205,16 233.1874,15.935248 230.63486,13.92742 229.03219,12.666761 228,10.866419 228,9.3317119 c 0,-3.4037715 3.01687,-8.2998868 5.48992,-8.9096622 1.10555,-0.27259099 23.71424,-0.36656667 50.24154,-0.20883484 L 331.96291,0.5 l 3.03392,3.034606 c 1.99923,1.9996859 3.29101,4.5406054 3.78777,7.450517 l 0.75386,4.415911 9.2231,2.146207 c 17.74335,4.128856 32.0118,11.677603 44.75113,23.675653 13.38189,12.603227 21.41078,25.677459 27.19058,44.277106 l 2.79673,9 0.25897,181.5 c 0.24074,168.7263 0.37736,181.58797 1.94113,182.75 1.14948,0.85417 5.92689,1.25 15.08674,1.25 21.32153,0 22.21489,1.03192 22.20942,25.65429 -0.006,27.06717 1.1117,26.34571 -40.8156,26.34571 -16.5094,0 -30.74806,-0.2805 -31.64147,-0.62333 -2.58772,-0.993 -5.78083,-8.05664 -4.62136,-10.22313 2.35738,-4.40481 3.50938,-4.6333 25.98285,-5.15354 l 21.59932,-0.5 0.28587,-9.72194 c 0.27665,-9.40823 0.21212,-9.73975 -2,-10.27375 C 430.52864,475.20083 358.625,475.0757 272,475.22626 L 114.5,475.5 114.21502,485.75 113.93003,496 h 126.31248 c 136.62648,0 128.924,-0.29442 131.77733,5.03707 1.2221,2.28352 -1.8761,9.31006 -4.55903,10.3396 C 365.4668,512.14184 109.09674,512.06025 107,511.29377 Z M 327.5,255.5 v -12 L 243.75,243.24429 160,242.98858 V 255.5 268.01142 L 243.75,267.75571 327.5,267.5 Z m -95.61195,7.03483 c -3.47134,-1.93245 -5.28564,-6.35889 -3.99633,-9.75004 C 229.90607,247.48665 231.8726,247 251.26796,247 c 17.5898,0 17.85506,0.0321 20.27749,2.45455 3.17779,3.17778 3.19473,7.57262 0.0433,11.23969 l -2.41121,2.80576 -17.33879,0.24443 c -13.65614,0.19252 -17.89355,-0.0644 -19.95074,-1.2096 z m 99.03185,-36.93831 c 1.64694,-1.98444 15.13741,-42.69478 14.49338,-43.73684 C 344.58515,180.51973 156,180.75403 156,182.09501 c 0,2.9803 13.41571,42.57278 14.79227,43.65499 2.49412,1.9608 158.49703,1.81127 160.12763,-0.15348 z M 258.08652,118 h 7.79314 l 17.68131,-34.605248 c 9.72472,-19.032887 17.90429,-35.457887 18.1768,-36.5 C 302.2193,45.053392 300.79756,45 251.2833,45 c -28.02248,0 -51.24892,0.298956 -51.61431,0.664347 -0.95546,0.955452 34.08493,69.469313 36.6702,71.700613 1.7933,1.54778 3.1637,1.76037 8.0575,1.25 C 247.63987,118.27673 253.80029,118 258.08652,118 Z M 182.32418,447.57464 C 169.0878,443.39107 159,430.1036 159,416.85244 c 0,-4.77024 12.91569,-73.57532 15.12964,-80.59934 1.13882,-3.61301 4.24805,-6.2531 7.36428,-6.2531 1.1269,0 5.0498,2.18777 8.71756,4.8617 19.61935,14.30325 34.95228,14.29926 52.04941,-0.0136 16.49092,-13.80533 36.81068,-20.18358 53.94091,-16.93173 7.03707,1.33585 22.57074,8.55065 27.57342,12.8068 l 3.26382,2.77678 8.03883,40 c 8.80877,43.83112 9.00598,46.26853 4.53394,56.03673 -3.25308,7.10568 -7.54165,11.60499 -14.82659,15.55517 L 318.5,448.5 l -66,0.19724 c -52.32355,0.15637 -66.86531,-0.0763 -70.17582,-1.1226 z"
         id="path176" />
      <path
         style="fill:#525f66"
         d="m 107,511.29377 c -0.825,-0.30158 -2.55526,-1.50356 -3.84501,-2.67105 C 98.550725,504.45492 98,502.03993 98,486.01754 c 0,-17.14907 0.939584,-20.79092 6.18982,-23.99191 3.0306,-1.8477 5.01362,-2.01847 23.47839,-2.02189 11.09252,-0.002 20.88002,-0.27688 21.75,-0.61073 2.36885,-0.90901 1.96444,-2.15139 -2.26399,-6.95515 -7.76697,-8.82374 -13.10999,-23.59668 -13.13944,-36.32925 -0.0151,-6.52471 13.04568,-74.95243 15.21481,-79.71316 2.00161,-4.39305 8.81976,-4.57632 11.98343,-0.32212 1.91122,2.57002 1.90461,2.61885 -5.14967,38.03859 C 151.60409,396.50198 149,412.01269 149,416.18326 c 0,19.01464 12.62964,35.84575 30.9315,41.22139 4.72914,1.38905 13.8457,1.59382 70.5,1.58348 69.2971,-0.0126 69.92075,-0.0515 79.52331,-4.96043 6.27118,-3.20586 15.21365,-12.53061 18.24764,-19.0277 2.96866,-6.35718 4.82095,-14.28403 4.74338,-20.29922 -0.0298,-2.31043 -5.76729,-32.55078 -12.75,-67.20078 l -12.69583,-63 -76.26859,-0.25625 -76.26859,-0.25625 -0.94108,2.25625 c -0.5176,1.24094 -2.08276,8.05837 -3.47815,15.14985 -2.64565,13.44549 -3.42688,15.23133 -7.30869,16.70719 -3.17803,1.20829 -8.00981,-1.35579 -8.84799,-4.69533 -0.35477,-1.41352 0.49215,-8.22899 1.89276,-15.23182 C 158.83952,285.37485 158.69162,283 155.33471,283 c -0.78121,0 -3.58528,-2.025 -6.23126,-4.5 l -4.81086,-4.5 h -8.40395 -8.40395 l -24.49234,24.51091 c -26.816654,26.83697 -28.66114,28.15972 -38.013667,27.26106 -5.892011,-0.56614 -11.461535,-4.41943 -14.227129,-9.84307 -2.103137,-4.12449 -2.272416,-11.79043 -0.357971,-16.21102 1.083033,-2.5008 58.679647,-61.25148 60.645547,-61.8607 0.25348,-0.0786 7.88587,-0.41605 16.96087,-0.75 l 16.5,-0.60718 4.75,-4.6608 c 2.6125,-2.56345 4.75,-5.27399 4.75,-6.02344 0,-0.74944 -3.6,-12.14154 -8,-25.31576 -4.4,-13.17422 -8,-25.40865 -8,-27.18761 0,-2.03961 0.80849,-3.9877 2.18856,-5.27343 C 142.36314,166.01302 143.0693,166 250.73402,166 h 108.35689 l 2.45454,2.45455 c 1.35,1.35 2.45455,3.19015 2.45455,4.08924 0,0.89908 -3.85925,13.49428 -8.57612,27.98934 l -8.57612,26.35465 4.47166,4.30611 c 5.71915,5.50743 6.67926,9.09905 6.63111,24.80611 -0.0536,17.4767 -2.02899,22.31199 -10.70053,26.19197 -2.3375,1.04589 -4.25,2.45369 -4.25,3.12845 0,0.67476 5.43873,28.2162 12.08606,61.20321 12.83523,63.69408 13.77337,70.73742 10.98541,82.47637 -1.8693,7.87085 -6.52155,17.24702 -11.73114,23.64299 -2.47645,3.04042 -4.20432,5.82705 -3.8397,6.19252 0.36462,0.36547 13.1742,0.79678 28.46574,0.95848 24.69693,0.26114 27.9862,0.11059 29.44449,-1.3477 1.51213,-1.51214 1.61919,-15.73949 1.35674,-180.29399 L 409.48266,99.5 l -2.23143,-8 c -2.9649,-10.629587 -9.97362,-24.558377 -16.19801,-32.191144 -6.58151,-8.070685 -17.38666,-16.450201 -27.47551,-21.307571 -8.47737,-4.081507 -20.5529,-7.608517 -22.92847,-6.696927 -0.76819,0.294781 -1.69383,2.119766 -2.05698,4.055522 -0.39793,2.121181 -1.8406,4.512738 -3.63102,6.019279 -2.65469,2.233772 -4.52906,2.761986 -13.96124,3.934393 -0.89592,0.111361 -10.24838,17.299654 -23.22305,42.68016 -11.94768,23.371538 -22.49619,43.059038 -23.44113,43.749998 -1.25407,0.917 -7.57816,1.25629 -23.41617,1.25629 -19.17626,0 -21.94883,-0.20339 -23.8556,-1.75 -1.18663,-0.9625 -11.77117,-20.65 -23.5212,-43.75 l -21.36368,-42 -6.02078,-0.681863 C 164.37502,43.483651 162.5,40.282543 162.5,21.5 162.5,10.381964 162.77484,8.0944929 164.3985,5.6988879 167.91574,0.50942419 170.22744,0 190.25921,0 c 20.24462,0 20.69472,0.12031468 23.20155,6.2019668 1.46462,3.5532036 1.42935,3.8144052 -0.87777,6.5000002 L 210.17929,15.5 194.33964,16 178.5,16.5 v 6 6 l 62,0.276113 c 34.1,0.151862 63.0125,0.03079 64.25,-0.269052 1.98658,-0.481339 2.25,-1.174326 2.25,-5.919124 0,-3.977857 -0.41093,-5.531649 -1.58179,-5.980948 C 304.54823,16.273145 287.95892,16 268.55307,16 234.37205,16 233.1874,15.935248 230.63486,13.92742 229.03219,12.666761 228,10.866419 228,9.3317119 c 0,-3.4037715 3.01687,-8.2998868 5.48992,-8.9096622 1.10555,-0.27259099 23.71424,-0.36656667 50.24154,-0.20883484 L 331.96291,0.5 l 3.03392,3.034606 c 1.99923,1.9996859 3.29101,4.5406054 3.78777,7.450517 l 0.75386,4.415911 9.2231,2.146207 c 17.74335,4.128856 32.0118,11.677603 44.75113,23.675653 13.38189,12.603227 21.41078,25.677459 27.19058,44.277106 l 2.79673,9 0.25897,181.5 c 0.24074,168.7263 0.37736,181.58797 1.94113,182.75 1.14948,0.85417 5.92689,1.25 15.08674,1.25 21.32153,0 22.21489,1.03192 22.20942,25.65429 -0.006,27.06717 1.1117,26.34571 -40.8156,26.34571 -16.5094,0 -30.74806,-0.2805 -31.64147,-0.62333 -2.58772,-0.993 -5.78083,-8.05664 -4.62136,-10.22313 2.35738,-4.40481 3.50938,-4.6333 25.98285,-5.15354 l 21.59932,-0.5 0.28587,-9.72194 c 0.27665,-9.40823 0.21212,-9.73975 -2,-10.27375 C 430.52864,475.20083 358.625,475.0757 272,475.22626 L 114.5,475.5 114.21502,485.75 113.93003,496 h 126.31248 c 136.62648,0 128.924,-0.29442 131.77733,5.03707 1.2221,2.28352 -1.8761,9.31006 -4.55903,10.3396 C 365.4668,512.14184 109.09674,512.06025 107,511.29377 Z M 327.5,255.5 v -12 L 243.75,243.24429 160,242.98858 V 255.5 268.01142 L 243.75,267.75571 327.5,267.5 Z m -95.61195,7.03483 c -3.47134,-1.93245 -5.28564,-6.35889 -3.99633,-9.75004 C 229.90607,247.48665 231.8726,247 251.26796,247 c 17.5898,0 17.85506,0.0321 20.27749,2.45455 3.17779,3.17778 3.19473,7.57262 0.0433,11.23969 l -2.41121,2.80576 -17.33879,0.24443 c -13.65614,0.19252 -17.89355,-0.0644 -19.95074,-1.2096 z m 99.03185,-36.93831 c 1.64694,-1.98444 15.13741,-42.69478 14.49338,-43.73684 C 344.58515,180.51973 156,180.75403 156,182.09501 c 0,2.9803 13.41571,42.57278 14.79227,43.65499 2.49412,1.9608 158.49703,1.81127 160.12763,-0.15348 z M 258.08652,118 h 7.79314 l 17.68131,-34.605248 c 9.72472,-19.032887 17.90429,-35.457887 18.1768,-36.5 C 302.2193,45.053392 300.79756,45 251.2833,45 c -28.02248,0 -51.24892,0.298956 -51.61431,0.664347 -0.95546,0.955452 34.08493,69.469313 36.6702,71.700613 1.7933,1.54778 3.1637,1.76037 8.0575,1.25 C 247.63987,118.27673 253.80029,118 258.08652,118 Z M 182.32418,447.57464 C 169.0878,443.39107 159,430.1036 159,416.85244 c 0,-4.77024 12.91569,-73.57532 15.12964,-80.59934 1.13882,-3.61301 4.24805,-6.2531 7.36428,-6.2531 1.1269,0 5.0498,2.18777 8.71756,4.8617 19.61935,14.30325 34.95228,14.29926 52.04941,-0.0136 16.49092,-13.80533 36.81068,-20.18358 53.94091,-16.93173 7.03707,1.33585 22.57074,8.55065 27.57342,12.8068 l 3.26382,2.77678 8.03883,40 c 8.80877,43.83112 9.00598,46.26853 4.53394,56.03673 -3.25308,7.10568 -7.54165,11.60499 -14.82659,15.55517 L 318.5,448.5 l -66,0.19724 c -52.32355,0.15637 -66.86531,-0.0763 -70.17582,-1.1226 z m 135.82977,-16.81051 c 5.26984,-3.09792 8.87499,-9.17242 8.80135,-14.82985 C 326.9307,414.04542 323.66821,396.525 319.7053,377 L 312.5,341.5 305,337.75011 c -10.03567,-5.01768 -19.53736,-6.49665 -27.928,-4.34707 -8.34882,2.13887 -16.58906,6.50351 -24.68959,13.07744 C 240.90863,355.79194 227.9162,361 216.16088,361 c -6.15529,0 -15.03591,-2.34667 -22.57624,-5.96568 -3.30798,-1.58767 -6.30365,-2.70798 -6.65704,-2.48957 -0.3534,0.21841 -3.47136,14.69769 -6.9288,32.17618 -5.61791,28.40039 -6.16455,32.21609 -5.14154,35.88959 1.31753,4.73109 6.52436,10.27864 11.3354,12.07717 2.51917,0.94175 18.08259,1.18587 65.30734,1.02435 l 62,-0.21204 z"
         id="path174" />
      <path
         style="fill:#050505"
         d="m 108.10691,511.29002 c -2.40823,-0.95438 -6.2414,-4.68212 -7.70222,-7.49036 C 99.370536,501.81163 99,496.90466 99,485.19754 c 0,-14.90395 0.143358,-16.11499 2.28463,-19.29966 3.46898,-5.15935 6.63608,-5.77796 29.90635,-5.84144 11.38004,-0.031 20.94478,-0.46708 21.25496,-0.96897 0.31019,-0.5019 -1.48867,-3.3144 -3.99746,-6.25 C 139.87279,442.80283 135,429.50931 135,416.14851 c 0,-9.99169 13.37152,-77.88282 15.81996,-80.3226 3.02688,-3.01616 7.5373,-2.73648 9.72545,0.60305 1.49704,2.28478 1.17179,4.52577 -5.47899,37.75 -4.51528,22.55622 -7.06978,37.72238 -7.06847,41.9657 0.006,18.78306 12.53797,35.80387 30.77305,41.795 6.07368,1.99551 8.32847,2.06034 71.6609,2.06034 61.23915,0 65.77416,-0.11959 71.4432,-1.884 8.48027,-2.63935 14.04559,-6.15464 19.92027,-12.58248 6.22925,-6.81579 9.80548,-14.16873 11.39253,-23.42371 l 1.21123,-7.06335 -12.79476,-64.77323 C 334.56726,314.64795 328.34735,284.9375 327.78236,284.25 326.97691,283.26989 310.27687,283 250.43657,283 c -46.20575,0 -76.5463,0.36853 -76.89579,0.93401 -0.31749,0.51371 -1.9257,7.5918 -3.57381,15.72909 -1.64811,8.13729 -3.64348,15.44198 -4.43415,16.23265 -2.0707,2.0707 -7.53601,1.82037 -9.17437,-0.42021 -1.82991,-2.50257 -1.71596,-5.51786 0.64155,-16.97554 2.8357,-13.78171 2.73014,-15.10393 -1.31229,-16.43805 -1.82175,-0.60123 -5.06308,-2.88613 -7.20294,-5.07755 L 144.5941,273 h -8.48246 -8.48247 l -24.56459,24.38034 c -13.510517,13.40919 -26.099231,25.15805 -27.974916,26.10859 -7.867934,3.98723 -19.648877,0.13171 -23.733573,-7.76722 -1.942972,-3.75729 -2.1564,-12.30878 -0.393601,-15.77052 1.740484,-3.41791 56.86109,-58.71222 60.53751,-60.72827 2.30795,-1.26562 6.57002,-1.73762 18.47577,-2.04608 l 15.47576,-0.40095 3.77313,-3.88794 C 151.29987,230.74958 153.44828,229 153.99889,229 c 2.06649,0 0.78487,-5.19152 -7.04153,-28.52343 -4.42346,-13.18711 -8.09198,-25.21542 -8.15227,-26.72958 -0.0603,-1.51415 0.70364,-3.65165 1.69763,-4.75 C 142.28788,167.02441 143.63436,167 250.65499,167 c 107.01168,0 108.36962,0.0246 110.34501,2 1.1,1.1 2,2.88026 2,3.95612 0,1.07587 -3.86661,13.7444 -8.59247,28.15228 l -8.59247,26.19616 4.55906,3.89697 c 5.84418,4.99545 6.61332,7.88095 6.6203,24.83658 0.005,12.05736 -0.24052,14.02614 -2.24442,18 -1.6955,3.36229 -3.46406,5.08515 -7.17634,6.99091 -2.70949,1.39096 -5.08139,2.99418 -5.2709,3.5627 -0.18951,0.56852 5.14938,28.45546 11.8642,61.97098 10.62479,53.0313 12.20252,62.16983 12.16068,70.4373 -0.0701,13.85355 -4.20742,24.94181 -13.48432,36.13878 -2.11383,2.55133 -3.84332,5.13883 -3.84332,5.75 0,0.79067 8.79821,1.11122 30.5,1.11122 H 410 V 279.65996 C 410,102.93533 409.9601,99.161349 408.0099,91.409963 403.80626,74.701973 392.88874,57.564549 379.74601,47.043656 372.18372,40.989963 357.8054,33.685423 349.14191,31.496019 c -8.97785,-2.268848 -10.26343,-1.889662 -11.56216,3.410291 -1.41043,5.755762 -4.83212,8.284218 -12.01715,8.880056 -3.24694,0.269262 -6.04382,1.087015 -6.79147,1.985693 -0.69912,0.840347 -10.5314,19.712015 -21.84951,41.937041 -11.31811,22.22502 -21.3262,41.28253 -22.24021,42.35002 -1.5531,1.81389 -3.12662,1.94088 -24.04918,1.94088 -19.55179,0 -22.56117,-0.2083 -23.75979,-1.64462 C 226.1176,129.45084 215.825,109.76334 204,86.605382 L 182.5,44.5 l -6,-0.579324 C 165.62431,42.870585 163.74462,40.376537 163.18162,26.249334 162.63179,12.452521 163.4079,8.0240009 167.10121,3.8839828 L 170.12006,0.5 187.2873,0.18134552 c 17.25301,-0.3202464 24.20992,0.2051162 23.2515,1.75587408 -0.28423,0.4598917 0.15327,1.3922549 0.97221,2.0719183 2.15461,1.7881653 1.8272,6.3743651 -0.61294,8.5858741 -1.8462,1.673218 -4.04132,1.943847 -18.04241,2.224384 l -15.94048,0.319395 0.29241,7.180605 L 177.5,29.5 h 73 73 v -7 -7 L 278.35382,15 C 235.75127,14.528171 233.0891,14.392669 231.10382,12.595012 229.94672,11.547269 229,9.8167007 229,8.7493045 c 0,-2.9034871 3.20402,-7.76358457 5.48992,-8.32753788 1.10555,-0.27274668 23.30745,-0.36672236 49.33757,-0.20883484 L 331.15499,0.5 l 3.4225,3.7353148 C 337.06746,6.9528626 338,8.8949187 338,11.36287 c 0,1.865732 0.5625,3.818772 1.25,4.340089 0.6875,0.521317 4.70091,1.671737 8.9187,2.55649 34.31065,7.19725 62.02531,33.455563 72.02532,68.240551 l 2.29985,8 0.51626,182.5 c 0.28395,100.375 0.62283,182.57123 0.75307,182.65828 0.13024,0.0871 6.89544,0.31206 15.03378,0.5 12.05451,0.27839 15.29537,0.66864 17.48607,2.10565 5.41334,3.55091 6.1883,6.00199 6.5584,20.74308 0.39561,15.75736 -0.58936,20.64252 -5.09101,25.24982 l -3.16879,3.24317 -29.99968,0.30599 c -16.49983,0.16829 -30.92273,0.0743 -32.0509,-0.20884 C 390.20883,511.01431 387,506.17214 387,503.2507 c 0,-1.0674 0.94634,-2.79797 2.10298,-3.84571 1.93547,-1.75325 4.38479,-1.94482 30.75,-2.40499 l 28.64702,-0.5 0.28745,-9.85242 c 0.18688,-6.4056 -0.11834,-10.34135 -0.87245,-11.25 C 446.93025,474.21103 421.57353,474 279.98454,474 c -151.15045,0 -166.82741,0.14815 -167.37755,1.58179 -0.88495,2.30613 -0.7139,18.70166 0.21029,20.1568 0.61723,0.97184 28.04937,1.29488 127.37983,1.5 122.88906,0.25376 126.65478,0.31715 128.69804,2.1664 2.44269,2.21074 2.77164,6.79673 0.61586,8.58587 -0.81894,0.67967 -1.27401,1.58361 -1.01125,2.00876 0.26276,0.42515 -0.52969,1.04302 -1.76101,1.37304 -2.80658,0.75222 -256.72993,0.67109 -258.63184,-0.0826 z M 94.007654,286.43698 C 107.47844,272.92731 119.4,261.34995 120.5,260.70951 c 1.1,-0.64045 6.725,-1.39959 12.5,-1.68698 10.02282,-0.49878 10.51485,-0.62728 10.82676,-2.82757 C 144.46607,251.68518 142.66186,251 130.14747,251 h -11.60765 l -27.873038,27.87304 c -25.580595,25.5806 -27.77942,28.04798 -26.734728,30 2.482834,4.63922 4.807145,2.90531 30.0756,-22.43606 z m 248.772326,-30.70033 0.27997,-12.76336 -2.59507,-0.98664 C 336.41955,240.44861 160.74461,240.65539 159.2,242.2 c -1.26167,1.26167 -1.75222,22.19737 -0.59101,25.22343 0.55102,1.43594 9.33178,1.56271 92.25,1.33179 L 342.5,268.5 Z M 231,260 c -2.90901,-2.90901 -2.58878,-7.39171 0.71362,-9.98937 2.57185,-2.02302 3.615,-2.11824 19.96686,-1.82258 18.55786,0.33554 19.52627,0.60801 20.81024,5.85523 0.43491,1.77735 -0.0189,3.35844 -1.50678,5.25 L 268.85484,262 H 250.92742 C 234.33333,262 232.85125,261.85125 231,260 Z m 99.1849,-32.8872 c 1.95959,-0.75096 3.43907,-4.28031 9.63446,-22.98326 4.02565,-12.15284 7.03659,-22.5536 6.69098,-23.1128 C 346.09163,180.33925 314.0369,180 250.44098,180 159.6635,180 155,180.08682 155,181.77678 c 0,3.52704 14.03359,43.74611 15.69246,44.97322 1.31776,0.97479 18.80645,1.25 79.43357,1.25 42.8332,0 78.78336,-0.39839 80.05887,-0.8872 z M 266.744,117.75 c 2.92923,-3.7027 36.3577,-71.042579 35.88197,-72.282328 C 302.14095,44.203746 294.91723,44 250.5904,44 c -31.66727,0 -51.69977,0.367948 -52.06338,0.956277 -0.64539,1.044261 1.79094,6.074841 22.66234,46.793723 L 235.15697,119 h 15.29907 c 11.04518,0 15.57403,-0.34756 16.28796,-1.25 z M 180.03451,445.81198 C 168.4436,441.33186 160,428.84116 160,416.1747 c 0,-6.05231 14.1317,-78.68374 15.98194,-82.14095 1.45847,-2.72518 5.80321,-3.70036 8.63224,-1.93751 1.23902,0.77207 5.3202,3.47877 9.06929,6.01489 9.15689,6.19429 15.16139,8.31831 23.24989,8.22436 9.97001,-0.1158 15.99323,-2.94006 30.37959,-14.24483 18.9208,-14.86793 43.74369,-18.16468 63.11565,-8.38245 8.13313,4.10698 14.33918,8.4867 15.43567,10.89324 0.55986,1.22875 4.46172,19.48359 8.67081,40.56632 6.28603,31.48587 7.54017,39.31297 7.02183,43.82333 -1.29014,11.22615 -8.23751,21.14445 -18.32069,26.15525 L 318.5,447.5 252,447.71225 c -65.54709,0.2092 -66.57832,0.18197 -71.96549,-1.90027 z m 136.26323,-13.16302 c 4.36144,-1.82233 9.38072,-7.74112 10.69093,-12.60687 0.93914,-3.48771 0.17921,-8.50477 -6.09862,-40.26313 -5.38937,-27.26382 -7.64891,-36.80841 -9.0929,-38.40957 -1.0568,-1.17183 -5.15599,-3.6421 -9.1093,-5.48947 -6.64439,-3.1049 -7.94393,-3.35966 -17.18785,-3.36939 -9.66804,-0.0102 -10.28216,0.12556 -18.5,4.08919 -4.675,2.25484 -10.98431,6.13301 -14.0207,8.61815 -20.21906,16.54837 -39.19227,19.27246 -60.2414,8.64919 l -5.76209,-2.90806 -0.95285,2.2705 c -1.59649,3.80422 -12.02824,57.98231 -12.02551,62.4554 0.005,7.50785 4.05085,14.01797 10.50255,16.89774 4.43503,1.97961 127.0709,2.04132 131.79774,0.0663 z"
         id="path172" />
    </g>
  </g>
</svg>
