<?xml version="1.0" encoding="UTF-8" standalone="no"?>
<!-- Created with Inkscape (http://www.inkscape.org/) -->

<svg
   version="1.1"
   id="svg4303"
   width="512"
   height="512"
   viewBox="0 0 512 512"
   xmlns="http://www.w3.org/2000/svg"
   xmlns:svg="http://www.w3.org/2000/svg">
  <defs
     id="defs4307" />
  <g
     id="g4309">
    <g
       id="g4313">
      <path
         style="fill:#9f9ea2"
         d="M 26,510.57229 C 19.467245,508.75928 15.858063,506.65555 10.730076,501.67172 5.568482,496.65522 3.2737203,492.69637 1.3560947,485.5 c -1.96886467,-7.38865 -1.96886467,-314.61135 0,-322 1.8939118,-7.10737 4.1651263,-11.07385 9.2559043,-16.16463 3.977956,-3.97796 15.060982,-10.33252 18.024582,-10.33458 0.747828,-5.2e-4 1.278302,-3.50667 1.550925,-10.25079 0.488522,-12.08499 2.647353,-17.94038 9.011516,-24.44189 C 45.132573,96.246503 51.47404,93.846561 63.5,93.111352 L 73.5,92.5 l 0.5,-33 0.5,-33 2.818377,-5.73943 C 80.375335,14.535289 87.35642,6.9017717 92.360312,4.3128616 104.3551,-1.8929925 123.09705,-1.1574196 133.38823,5.9231009 c 5.78343,3.9791039 10.91527,10.6696141 13.74857,17.9243601 1.9258,4.931064 2.26327,8.077649 2.64398,24.652539 0.32634,14.207161 0.81565,19.756764 1.93978,22 5.33217,10.640573 18.10214,15.113207 28.35459,9.93109 4.09507,-2.069861 9.76138,-8.991211 10.33279,-12.621425 C 190.69447,65.989349 191.10555,56.625 191.32145,47 c 0.33555,-14.959029 0.70579,-18.298591 2.54991,-23 4.26557,-10.874679 12.81653,-19.3053951 22.56947,-22.2521 5.23415,-1.58142032 20.88419,-1.58142032 26.11834,0 9.5845,2.8958144 18.42113,11.659766 22.71976,22.532897 1.86336,4.713257 2.1195,8.086335 2.64223,34.795748 0.57408,29.333442 0.59905,29.606018 3.038,33.162186 7.15477,10.432159 21.49444,12.569969 30.61288,4.56387 4.93798,-4.335605 7.0534,-9.120621 7.72288,-17.46899 1.06835,-13.322147 4.74464,-20.236217 13.05181,-24.546773 4.22848,-2.194146 13.78414,-2.83774 59.64285,-4.01708 L 392.47916,50.5 l 0.68017,-4.768497 c 1.43386,-10.0525 8.01413,-18.623699 17.71827,-23.079108 4.10861,-1.886366 6.81768,-2.161777 24.3724,-2.477757 L 455,19.819144 v -5.820679 c 0,-5.2720461 0.29,-6.0646955 3.07673,-8.4095714 4.03189,-3.3926185 7.37495,-3.2910572 11.00019,0.3341833 C 471.95584,8.8019943 472,9.0134953 472,19.923077 V 31 l 15.25,0.0056 c 8.3875,0.0031 16.8659,0.454449 18.84088,1.00307 5.21924,1.449824 7.30982,6.823049 4.79885,12.334028 C 509.05402,48.371617 506.02677,49 488.45295,49 H 472 v 11 11 l 15.25,0.0056 c 8.3875,0.0031 16.8659,0.454449 18.84088,1.00307 7.50839,2.085715 7.94939,13.387258 0.62206,15.941578 C 505.05668,88.527601 496.5687,89 487.85078,89 H 472 v 11.07692 c 0,10.90958 -0.0442,11.12109 -2.92308,14 -3.74608,3.74608 -7.86059,3.86668 -11.39331,0.33396 -2.06798,-2.06798 -2.64895,-3.72855 -2.88637,-8.25 L 454.5,100.5 435,99.994844 C 417.86483,99.550951 414.93943,99.231113 410.8776,97.357516 401.16227,92.876137 394.59609,84.320894 393.1567,74.268497 L 392.4739,69.5 h -31.18788 c -23.23211,0 -31.49929,0.311644 -32.40865,1.221695 -0.67142,0.671932 -1.80227,5.727995 -2.513,11.235694 -1.5627,12.109825 -4.47513,18.784951 -11.07621,25.386031 -2.62184,2.62184 -7.68728,6.20464 -11.25654,7.96178 -5.86796,2.88878 -7.35365,3.19194 -15.51059,3.16499 -7.19398,-0.0238 -10.03369,-0.48892 -14.02103,-2.29671 -10.8409,-4.91506 -17.54592,-11.81928 -21.80643,-22.454277 -1.90287,-4.749931 -2.14044,-7.879618 -2.64222,-34.808142 L 249.5,29.322122 246.73626,25.337477 c -8.25144,-11.896553 -26.22354,-11.895815 -34.47252,0.0014 -2.72996,3.937344 -2.77147,4.231564 -3.39608,24.073584 -0.69718,22.147221 -1.40651,25.43104 -7.36312,34.087524 -4.17252,6.063738 -8.72155,9.779241 -16.29186,13.306682 -4.85484,2.262151 -7.06415,2.661866 -14.71268,2.661866 -7.66374,0 -9.85411,-0.397932 -14.75264,-2.680161 -3.16396,-1.474088 -8.2243,-5.017744 -11.2452,-7.874791 -9.94981,-9.41011 -12.44643,-18.080222 -12.48235,-43.347872 -0.0239,-16.785337 -1.4662,-20.990323 -8.79379,-25.637343 C 112.18339,12.925357 98.851895,16.529337 92.941086,28.115482 91.14562,31.634885 91,34.201386 91,62.326465 v 30.406141 l 9.80751,0.472265 c 11.49351,0.553451 18.55494,3.224245 24.65625,9.325549 5.84024,5.84025 7.88226,11.35691 8.5023,22.96958 l 0.53394,10 55,0.52138 c 30.25,0.28675 55.10685,0.62425 55.23746,0.75 0.1306,0.12574 1.37374,2.02862 2.76254,4.22862 l 2.52509,4 h 7.46177 c 7.27423,0 7.50065,-0.0752 9.00827,-2.99058 3.34579,-6.47005 -4.34054,-6.07217 111.60676,-5.77738 L 483.5,136.5 l 6.70071,3.1744 c 7.13642,3.3808 14.5223,9.95651 17.3737,15.46792 4.50385,8.70541 4.40185,4.78095 4.40185,169.35768 0,164.00245 0.0841,160.6871 -4.28912,169.13969 -2.09117,4.04184 -10.00561,11.95628 -14.04745,14.04745 -8.29897,4.29371 -8.18625,4.28961 -117.63969,4.27876 -97.51267,-0.01 -104.64262,-0.1259 -106.63296,-1.73814 -1.17313,-0.95027 -2.65146,-2.74026 -3.28518,-3.97776 -1.04027,-2.03137 -1.8821,-2.25 -8.66355,-2.25 -7.26729,0 -7.5663,0.0958 -9.20334,2.94816 -0.93061,1.62149 -2.73086,3.42149 -4.00055,4 C 240.63346,512.57976 31.938138,512.22029 26,510.57229 Z m 191.02832,-51.18422 c 12.78295,-6.95735 16.66835,-23.64341 8.23678,-35.37326 C 222.46069,420.11337 217.28897,416 215.18812,416 214.40121,416 214,418.0483 214,422.06574 c 0,8.97805 -2.63469,12.843 -8.79545,12.90246 -2.1954,0.0212 -4.11481,-0.78755 -5.75,-2.42275 C 197.32426,430.41516 197,429.18219 197,423.21212 c 0,-3.78333 -0.28205,-7.16084 -0.62678,-7.50557 -1.96918,-1.96918 -11.41889,6.76517 -13.99832,12.9386 -1.83759,4.39799 -1.7445,14.53294 0.17578,19.13697 2.6488,6.3507 9.02655,11.91351 16.44285,14.34179 4.40812,1.44332 12.65479,0.19232 18.03479,-2.73584 z m 96.54018,2.14065 c 14.64849,-4.37026 21.71607,-21.09873 14.63813,-34.64745 -2.88712,-5.52659 -10.05676,-11.70996 -12.10788,-10.4423 -0.61561,0.38047 -1.09875,3.53124 -1.09875,7.1655 0,5.5535 -0.35303,6.83947 -2.45455,8.94098 -2.4155,2.41551 -6.52186,3.1683 -10.00065,1.83337 C 299.82437,433.33489 298,428.40943 298,422.10868 c 0,-3.29486 -0.41144,-6.24493 -0.91431,-6.55572 -1.86639,-1.15349 -9.59428,5.97772 -12.33569,11.38322 -7.08865,13.97739 0.0895,30.51984 15.24353,35.12948 3.99296,1.2146 8.27127,1.04538 13.57497,-0.53694 z M 157,325.96805 c 20.48107,-5.93928 34.16292,-24.7457 34.16971,-46.96805 0.004,-14.53046 -4.82385,-25.65399 -15.53078,-35.78016 -15.29135,-14.46193 -37.56219,-17.37844 -57.1108,-7.47904 -6.38493,3.23333 -16.554,13.4024 -19.787332,19.78733 -9.758511,19.27038 -6.953208,41.70518 7.093332,56.7274 13.81045,14.76973 31.32948,19.46485 51.16587,13.71252 z M 133.29315,307.6118 c -21.1154,-6.9031 -27.69593,-34.03379 -11.98504,-49.41278 14.77081,-14.45877 38.64438,-10.13686 47.91209,8.6737 1.76806,3.58861 2.27516,6.31078 2.25911,12.12728 -0.0235,8.51703 -2.11297,14.23529 -7.40336,20.26072 -6.77049,7.71116 -20.96289,11.56142 -30.7828,8.35108 z M 385.5,325.79969 c 30.20046,-9.84172 43.04644,-46.53064 25.69277,-73.38014 -9.20887,-14.24791 -24.23291,-22.43417 -41.12427,-22.40768 -13.25632,0.0208 -24.36742,4.37458 -33.70743,13.20797 -10.70693,10.12617 -15.53523,21.2497 -15.53078,35.78016 0.0104,34.08421 32.20189,57.38029 64.66971,46.79969 z m -25.16755,-18.58947 c -13.36997,-4.7789 -21.61399,-17.74182 -19.99215,-31.43571 2.89878,-24.47563 33.29909,-34.99836 50.46068,-17.4664 17.79478,18.17882 6.21732,48.66859 -19.11523,50.34084 -4.35036,0.28718 -7.71902,-0.13971 -11.3533,-1.43873 z"
         id="path4327" />
      <path
         style="fill:#ef7678"
         d="m 26.836372,510.08116 c -3.114996,-0.9962 -7.222928,-2.77498 -9.128738,-3.95284 -5.25064,-3.24507 -11.5713037,-10.6112 -14.5444204,-16.95013 L 0.5,483.5 v -159 -159 l 3.2556631,-6.65483 C 7.9732828,150.22402 15.669179,143.06381 24.224013,139.80155 L 30.5,137.4083 31.097547,126.94301 c 0.666262,-11.66877 2.517422,-17.15702 7.826506,-23.20373 5.410437,-6.162148 12.213882,-8.79263 24.74867,-9.568822 L 74.5,93.5 l 0.5,-33 0.5,-33 2.660407,-5.675146 C 81.885179,13.879218 88.029926,7.6028902 95.856395,3.7499325 101.82885,0.80970125 103.3196,0.5 111.5,0.5 c 8.19409,0 9.66575,0.30704531 15.69272,3.2741131 8.38773,4.1292661 15.81697,12.0020209 18.85369,19.9792279 1.87971,4.937864 2.27669,8.571971 2.82059,25.821095 0.62101,19.694152 0.68467,20.15249 3.36061,24.194724 9.79706,14.799308 32.13662,12.341557 38.84454,-4.273595 0.71101,-1.761124 1.47846,-11.237358 1.86235,-22.995565 0.63374,-19.41127 0.73779,-20.170071 3.53499,-25.777559 3.54892,-7.114482 10.74263,-13.9995092 18.31244,-17.5266588 4.86074,-2.26485506 7.06748,-2.66432991 14.71807,-2.66432991 7.65059,0 9.85733,0.39947485 14.71807,2.66432991 7.54305,3.514683 14.74272,10.3899348 18.35368,17.5266588 L 265.49501,26.5 266.02722,56 c 0.5707,31.633045 0.96651,34.147478 6.27051,39.833671 6.43725,6.901109 18.38628,8.761379 26.65787,4.150199 7.34003,-4.091867 9.90268,-8.804101 11.52996,-21.201523 1.54517,-11.771751 3.86234,-17.469756 8.42573,-20.71918 C 325.54772,53.337614 328.34926,53 360.92573,53 c 22.52443,0 30.9931,-0.318828 31.87427,-1.2 0.66,-0.66 1.2044,-2.7975 1.20977,-4.75 0.0103,-3.730456 3.61777,-12.136415 6.68427,-15.575226 2.834,-3.178083 8.47621,-7.075841 12.30596,-8.501214 2.1799,-0.811324 10.85485,-1.523464 23,-1.888103 L 455.5,20.5 l 0.50446,-6.341968 c 0.40536,-5.0959986 0.9674,-6.7168283 2.86079,-8.2500002 2.99841,-2.4279627 6.27107,-2.4274202 9.27397,0.00154 2.19912,1.7788043 2.38421,2.7202452 2.70293,13.7479352 0.21759,7.528491 0.76368,12.106587 1.5,12.575118 0.63682,0.405214 8.84191,0.743643 18.23354,0.752065 16.54639,0.01484 17.14308,0.08705 19.25,2.329764 2.90582,3.093111 2.75287,6.792826 -0.40356,9.761235 -2.50062,2.351671 -3.11489,2.433697 -20.5,2.737438 L 471,48.126247 v 11.829888 c 0,9.864819 0.26275,11.930715 1.58179,12.436876 C 473.45177,72.726855 481.74411,73 491.00921,73 h 16.84563 l 2.07258,2.634859 c 2.77191,3.523906 2.61196,6.509364 -0.5058,9.440827 -2.49935,2.350012 -3.12764,2.434458 -20.5,2.755297 L 471,88.161965 v 11.464472 c 0,10.838823 -0.13395,11.598423 -2.45455,13.919013 -2.94305,2.94306 -6.47439,3.14243 -9.6802,0.54652 -1.89339,-1.53317 -2.45543,-3.154 -2.86079,-8.25 L 455.5,99.5 l -20,-0.542229 c -21.68859,-0.588009 -24.13302,-1.123012 -31.38924,-6.870046 -4.78554,-3.790217 -9.1871,-11.92389 -9.98348,-18.448535 L 393.5,68.5 l -30,-0.28 c -16.5,-0.153999 -31.00681,-0.03436 -32.23735,0.265877 -3.57077,0.871211 -5.19147,4.532568 -6.13742,13.86525 -2.1724,21.432503 -16.2742,34.914663 -36.62523,35.015903 -19.05953,0.0948 -33.68487,-12.75286 -36.47337,-32.040153 C 251.48377,81.572094 251.02082,67.925 250.99785,55 c -0.0472,-26.543513 -0.5813,-29.038184 -7.42497,-34.67931 -8.43321,-6.951368 -19.71255,-6.951368 -28.14576,0 -6.1987,5.109485 -7.37701,9.105342 -7.42497,25.17931 -0.0746,25.003669 -2.27467,32.834257 -11.96531,42.587372 -9.05758,9.115968 -21.72056,12.646428 -34.03988,9.49036 C 150.8423,94.72004 142.72828,88.195397 137.29338,77.713085 134.69146,72.694738 134.56756,71.73421 133.97657,52 133.42795,33.680656 133.1337,31.058202 131.21035,27.346727 127.3327,19.864077 119.29715,15 110.8133,15 105.45782,15 96.989765,19.811717 93.506189,24.83424 L 90.5,29.168479 90.211218,61.438647 89.922436,93.708815 100.30552,94.238739 c 11.63296,0.593715 16.90234,2.370832 23.05951,7.776901 6.43258,5.64788 8.90932,11.85756 9.56621,23.98436 l 0.56876,10.5 54.59701,0.5 c 58.73321,0.53788 56.9508,0.36536 58.98241,5.7089 0.82285,2.16425 1.39241,2.2911 10.28742,2.2911 9.19734,0 9.43086,-0.0579 10.04063,-2.48735 1.46819,-5.84973 -4.30091,-5.57326 110.19454,-5.28069 L 482.5,137.5 l 6,2.41249 c 8.20716,3.29995 17.28756,12.38035 20.58751,20.58751 l 2.41249,6 v 158 158 l -2.41249,6 c -3.29995,8.20716 -12.38035,17.28756 -20.58751,20.58751 l -6,2.41249 -104.89799,0.26804 C 263.10656,512.06061 268.87566,512.33708 267.40747,506.48735 266.7977,504.05785 266.56418,504 257.36684,504 c -9.01834,0 -9.45489,0.1014 -10.32847,2.39909 -2.25659,5.93526 4.27468,5.60593 -110.01088,5.54713 -98.059759,-0.0504 -104.877932,-0.16585 -110.191118,-1.86506 z M 216.65763,461.17467 c 5.27048,-2.6888 11.66248,-9.96202 13.16635,-14.98151 2.76107,-9.21563 0.41008,-19.19721 -6.13056,-26.02848 -3.6658,-3.82868 -8.30488,-6.52284 -9.72279,-5.64653 -0.53385,0.32994 -0.97063,3.74378 -0.97063,7.58632 0,6.08437 -0.31692,7.30336 -2.45455,9.44098 -3.05196,3.05197 -7.16083,3.16451 -10.231,0.28024 C 198.30194,429.93503 198,428.69159 198,422.2943 c 0,-9.08816 -1.12585,-9.82723 -7.73785,-5.07951 -16.56298,11.89299 -12.9639,38.16055 6.20065,45.25491 5.40409,2.00049 14.93282,1.38944 20.19483,-1.29503 z m 97.65526,1.43168 c 17.88181,-5.38164 23.91549,-29.22412 10.73188,-42.40774 -3.78354,-3.78354 -8.67797,-6.54334 -10.07414,-5.68046 -0.53385,0.32994 -0.97063,3.66264 -0.97063,7.40601 0,5.37138 -0.4369,7.36156 -2.07258,9.44098 -2.70936,3.44439 -7.13264,3.52054 -10.47287,0.18031 -2.17233,-2.17232 -2.45455,-3.32211 -2.45455,-10 0,-8.6787 -0.49847,-9.03176 -6.77058,-4.79545 C 284.49113,421.9766 281,428.55282 281,437.90278 c 0,11.79017 6.05063,20.37776 17.4532,24.77114 4.19706,1.61712 10.34899,1.59091 15.85969,-0.0676 z M 153.90693,328.46022 c 18.39763,-4.33663 33.21666,-19.15566 37.55329,-37.55329 4.20601,-17.84349 -0.57617,-34.21855 -13.86795,-47.48646 -8.15551,-8.14086 -15.02208,-11.8157 -26.47297,-14.16775 -33.75023,-6.93243 -65.799006,25.11635 -58.866582,58.86658 2.354445,11.46253 6.026007,18.31892 14.167752,26.45732 13.30819,13.30272 29.66397,18.08466 47.48646,13.8836 z M 131,304.92332 c -5.48414,-2.47731 -11.43015,-8.04993 -14.32274,-13.42332 -2.85809,-5.30932 -3.08882,-19.29198 -0.39992,-24.2365 2.78293,-5.11743 7.60731,-10.11088 12.60981,-13.05172 4.04588,-2.37847 5.6576,-2.71031 13.11285,-2.69978 6.82135,0.01 9.31651,0.44635 12.63445,2.21137 12.83546,6.828 18.5355,21.61707 13.74758,35.66885 -2.14543,6.29648 -9.69333,13.84438 -15.98981,15.98981 -6.6103,2.25235 -15.82818,2.0547 -21.39222,-0.45871 z m 249.20078,23.9716 c 9.51207,-1.98362 17.70776,-6.61298 25.32102,-14.30265 8.12239,-8.20391 11.92677,-15.28153 14.22285,-26.46004 6.93503,-33.76334 -25.10656,-65.81341 -58.86395,-58.87951 -11.45089,2.35205 -18.31746,6.02689 -26.47297,14.16775 -13.29178,13.26791 -18.07396,29.64297 -13.86795,47.48646 6.23621,26.45637 33.05927,43.53543 59.661,37.98799 z m -20.59472,-23.46287 c -6.04684,-2.216 -12.17288,-7.84731 -15.14483,-13.92176 -2.35977,-4.82321 -2.62868,-6.38307 -2.28226,-13.23885 0.44513,-8.80941 2.25658,-13.35378 7.45778,-18.70928 6.01644,-6.19493 10.67473,-8.03649 20.36325,-8.05016 7.47887,-0.0106 9.06055,0.31752 13.16604,2.73095 10.13331,5.95691 15.49444,15.94004 14.59272,27.17357 -0.82798,10.31488 -7.13295,19.15861 -16.75876,23.5068 -5.36785,2.42478 -15.50765,2.6659 -21.39394,0.50873 z"
         id="path4325" />
      <path
         style="fill:#9e4e4f"
         d="m 26.836372,510.08116 c -3.114996,-0.9962 -7.222928,-2.77498 -9.128738,-3.95284 -5.25064,-3.24507 -11.5713037,-10.6112 -14.5444204,-16.95013 L 0.5,483.5 v -159 -159 l 3.2556631,-6.65483 C 7.9732828,150.22402 15.669179,143.06381 24.224013,139.80155 L 30.5,137.4083 31.097547,126.94301 c 0.666262,-11.66877 2.517422,-17.15702 7.826506,-23.20373 5.410437,-6.162148 12.213882,-8.79263 24.74867,-9.568822 L 74.5,93.5 l 0.5,-33 0.5,-33 2.660407,-5.675146 C 81.885179,13.879218 88.029926,7.6028902 95.856395,3.7499325 101.82885,0.80970125 103.3196,0.5 111.5,0.5 c 8.19409,0 9.66575,0.30704531 15.69272,3.2741131 8.38773,4.1292661 15.81697,12.0020209 18.85369,19.9792279 1.87971,4.937864 2.27669,8.571971 2.82059,25.821095 0.62101,19.694152 0.68467,20.15249 3.36061,24.194724 9.79706,14.799308 32.13662,12.341557 38.84454,-4.273595 0.71101,-1.761124 1.47846,-11.237358 1.86235,-22.995565 0.63374,-19.41127 0.73779,-20.170071 3.53499,-25.777559 3.54892,-7.114482 10.74263,-13.9995092 18.31244,-17.5266588 4.86074,-2.26485506 7.06748,-2.66432991 14.71807,-2.66432991 7.65059,0 9.85733,0.39947485 14.71807,2.66432991 7.54305,3.514683 14.74272,10.3899348 18.35368,17.5266588 L 265.49501,26.5 266.02722,56 c 0.5707,31.633045 0.96651,34.147478 6.27051,39.833671 6.43725,6.901109 18.38628,8.761379 26.65787,4.150199 7.34003,-4.091867 9.90268,-8.804101 11.52996,-21.201523 1.54517,-11.771751 3.86234,-17.469756 8.42573,-20.71918 C 325.54772,53.337614 328.34926,53 360.92573,53 c 22.52443,0 30.9931,-0.318828 31.87427,-1.2 0.66,-0.66 1.2044,-2.7975 1.20977,-4.75 0.0103,-3.730456 3.61777,-12.136415 6.68427,-15.575226 2.834,-3.178083 8.47621,-7.075841 12.30596,-8.501214 2.1799,-0.811324 10.85485,-1.523464 23,-1.888103 L 455.5,20.5 l 0.50446,-6.341968 c 0.40536,-5.0959986 0.9674,-6.7168283 2.86079,-8.2500002 2.99841,-2.4279627 6.27107,-2.4274202 9.27397,0.00154 2.19912,1.7788043 2.38421,2.7202452 2.70293,13.7479352 0.21759,7.528491 0.76368,12.106587 1.5,12.575118 0.63682,0.405214 8.84191,0.743643 18.23354,0.752065 16.54639,0.01484 17.14308,0.08705 19.25,2.329764 2.90582,3.093111 2.75287,6.792826 -0.40356,9.761235 -2.50062,2.351671 -3.11489,2.433697 -20.5,2.737438 L 471,48.126247 v 11.829888 c 0,9.864819 0.26275,11.930715 1.58179,12.436876 C 473.45177,72.726855 481.74411,73 491.00921,73 h 16.84563 l 2.07258,2.634859 c 2.77191,3.523906 2.61196,6.509364 -0.5058,9.440827 -2.49935,2.350012 -3.12764,2.434458 -20.5,2.755297 L 471,88.161965 v 11.464472 c 0,10.838823 -0.13395,11.598423 -2.45455,13.919013 -2.94305,2.94306 -6.47439,3.14243 -9.6802,0.54652 -1.89339,-1.53317 -2.45543,-3.154 -2.86079,-8.25 L 455.5,99.5 l -20,-0.542229 c -21.68859,-0.588009 -24.13302,-1.123012 -31.38924,-6.870046 -4.78554,-3.790217 -9.1871,-11.92389 -9.98348,-18.448535 L 393.5,68.5 l -30,-0.28 c -16.5,-0.153999 -31.00681,-0.03436 -32.23735,0.265877 -3.57077,0.871211 -5.19147,4.532568 -6.13742,13.86525 -2.1724,21.432503 -16.2742,34.914663 -36.62523,35.015903 -19.05953,0.0948 -33.68487,-12.75286 -36.47337,-32.040153 C 251.48377,81.572094 251.02082,67.925 250.99785,55 c -0.0472,-26.543513 -0.5813,-29.038184 -7.42497,-34.67931 -8.43321,-6.951368 -19.71255,-6.951368 -28.14576,0 -6.1987,5.109485 -7.37701,9.105342 -7.42497,25.17931 -0.0746,25.003669 -2.27467,32.834257 -11.96531,42.587372 -9.05758,9.115968 -21.72056,12.646428 -34.03988,9.49036 C 150.8423,94.72004 142.72828,88.195397 137.29338,77.713085 134.69146,72.694738 134.56756,71.73421 133.97657,52 133.42795,33.680656 133.1337,31.058202 131.21035,27.346727 127.3327,19.864077 119.29715,15 110.8133,15 105.45782,15 96.989765,19.811717 93.506189,24.83424 L 90.5,29.168479 90.211218,61.438647 89.922436,93.708815 100.30552,94.238739 c 11.63296,0.593715 16.90234,2.370832 23.05951,7.776901 6.43258,5.64788 8.90932,11.85756 9.56621,23.98436 l 0.56876,10.5 54.7228,0.5 c 53.07321,0.48493 54.78318,0.56039 56.72569,2.50347 1.1016,1.10191 2.28912,3.43458 2.63895,5.18371 0.51568,2.57844 0.15042,3.66587 -1.93024,5.74653 L 243.09091,153 H 139.22359 C 23.662941,153 29.675773,152.64974 22.709451,159.78724 15.522957,167.15033 16,155.43923 16,324.5 16,493.70211 15.5122,481.83868 22.775424,489.28032 29.620834,496.29388 24.506003,496 139.72696,496 h 103.36395 l 2.56629,2.56629 c 2.06785,2.06785 2.44768,3.18464 1.95561,5.75 -0.33587,1.75104 -1.76125,4.19621 -3.1675,5.43371 L 241.88847,512 137.19424,511.9462 C 38.973515,511.89577 32.149803,511.78045 26.836372,510.08116 Z m 243.819928,0.79639 c -1.01403,-0.59499 -2.47507,-2.59289 -3.24674,-4.43977 -1.74456,-4.1753 -0.38081,-7.83196 3.47016,-9.30465 1.66397,-0.63634 40.09355,-1.14533 105.29666,-1.39463 l 102.67639,-0.39257 4.81446,-2.47761 c 2.86201,-1.47284 6.0348,-4.21392 7.82362,-6.7591 L 494.5,481.82772 V 324.5 167.17228 l -3.00915,-4.2815 c -1.78882,-2.54518 -4.96161,-5.28626 -7.82362,-6.7591 l -4.81446,-2.47761 -102.67639,-0.39257 c -65.20311,-0.2493 -103.63269,-0.75829 -105.29666,-1.39463 -3.85894,-1.47574 -5.21479,-5.12918 -3.46112,-9.32629 0.77664,-1.85878 2.33572,-3.87391 3.4646,-4.47807 1.46283,-0.78288 32.15658,-1.02148 106.83466,-0.83049 L 482.5,137.5 l 6,2.41249 c 8.20716,3.29995 17.28756,12.38035 20.58751,20.58751 l 2.41249,6 v 158 158 l -2.41249,6 c -3.29995,8.20716 -12.38035,17.28756 -20.58751,20.58751 l -6,2.41249 -105,0.22967 c -73.87809,0.1616 -105.54647,-0.091 -106.8437,-0.85212 z m -78.36916,-32.74396 c -33.31248,-11.50991 -39.28069,-55.61361 -10.15747,-75.06135 25.22977,-16.84779 59.59994,-1.65388 64.872,28.67776 2.68208,15.43077 -5.36518,32.86381 -19.52349,42.29436 -8.47884,5.64757 -25.0932,7.57817 -35.19104,4.08923 z m 24.37049,-16.95892 c 5.27048,-2.6888 11.66248,-9.96202 13.16635,-14.98151 2.76107,-9.21563 0.41008,-19.19721 -6.13056,-26.02848 -3.6658,-3.82868 -8.30488,-6.52284 -9.72279,-5.64653 -0.53385,0.32994 -0.97063,3.74378 -0.97063,7.58632 0,6.08437 -0.31692,7.30336 -2.45455,9.44098 -3.05196,3.05197 -7.16083,3.16451 -10.231,0.28024 C 198.30194,429.93503 198,428.69159 198,422.2943 c 0,-9.08816 -1.12585,-9.82723 -7.73785,-5.07951 -16.56298,11.89299 -12.9639,38.16055 6.20065,45.25491 5.40409,2.00049 14.93282,1.38944 20.19483,-1.29503 z m 77.02236,16.91465 c -19.42745,-6.39639 -32.10571,-26.93472 -28.64511,-46.40406 4.55944,-25.65147 29.66399,-41.32575 54.03856,-33.73953 15.17749,4.72376 26.06708,17.2319 29.03761,33.35356 3.27811,17.79092 -6.48547,36.36851 -23.50931,44.73218 -6.05801,2.97625 -8.00691,3.42469 -16,3.68156 -6.89123,0.22146 -10.51523,-0.17289 -14.92175,-1.62371 z m 20.6329,-15.48297 c 17.88181,-5.38164 23.91549,-29.22412 10.73188,-42.40774 -3.78354,-3.78354 -8.67797,-6.54334 -10.07414,-5.68046 -0.53385,0.32994 -0.97063,3.66264 -0.97063,7.40601 0,5.37138 -0.4369,7.36156 -2.07258,9.44098 -2.70936,3.44439 -7.13264,3.52054 -10.47287,0.18031 -2.17233,-2.17232 -2.45455,-3.32211 -2.45455,-10 0,-8.6787 -0.49847,-9.03176 -6.77058,-4.79545 C 284.49113,421.9766 281,428.55282 281,437.90278 c 0,11.79017 6.05063,20.37776 17.4532,24.77114 4.19706,1.61712 10.34899,1.59091 15.85969,-0.0676 z m -221.858345,4.9391 C 89.75661,464.84752 89.182981,459.64698 91.281803,456.91334 93.875528,453.53511 96.778429,453 112.51118,453 h 15.64267 l 2.92307,2.92308 c 3.11994,3.11993 3.63536,5.87104 1.75974,9.39266 -2.31012,4.33741 -3.59024,4.61924 -21.13211,4.65246 -16.518645,0.0313 -16.835914,-0.009 -19.250005,-2.42275 z m 289.458795,1.17275 c -4.58756,-3.52223 -4.99527,-8.79012 -0.99026,-12.79512 L 383.84615,453 h 15.64267 c 15.73275,0 18.63565,0.53511 21.22938,3.91334 2.09882,2.73364 1.52519,7.93418 -1.17275,10.63211 -2.41409,2.4141 -2.73135,2.45403 -19.25,2.42275 -11.62356,-0.022 -17.28404,-0.40693 -18.38211,-1.25 z M 126,383.34681 C 102.02403,378.61838 81.930832,368.02335 66.693911,352.07505 45.583979,329.97953 35.844046,303.96921 37.303797,273.58926 c 2.184159,-45.4561 33.351813,-83.93105 77.889783,-96.15113 11.63682,-3.19285 29.71036,-4.26714 41.87202,-2.48887 35.17022,5.14257 64.8958,27.43152 80.4418,60.31718 7.5055,15.87698 9.00317,23.2973 8.92781,44.23356 -0.0547,15.2011 -0.39871,19.20703 -2.2123,25.76256 -10.34471,37.39277 -38.92413,65.92604 -76.04748,75.92467 -5.91271,1.59251 -11.34994,2.13448 -23.67543,2.35994 -8.8,0.16097 -17.125,0.0708 -18.5,-0.20036 z m 27.90693,-54.88659 c 18.39763,-4.33663 33.21666,-19.15566 37.55329,-37.55329 4.20601,-17.84349 -0.57617,-34.21855 -13.86795,-47.48646 -8.15551,-8.14086 -15.02208,-11.8157 -26.47297,-14.16775 -33.75023,-6.93243 -65.799006,25.11635 -58.866582,58.86658 2.354445,11.46253 6.026007,18.31892 14.167752,26.45732 13.30819,13.30272 29.66397,18.08466 47.48646,13.8836 z M 131,304.92332 c -5.48414,-2.47731 -11.43015,-8.04993 -14.32274,-13.42332 -2.85809,-5.30932 -3.08882,-19.29198 -0.39992,-24.2365 2.78293,-5.11743 7.60731,-10.11088 12.60981,-13.05172 4.04588,-2.37847 5.6576,-2.71031 13.11285,-2.69978 6.82135,0.01 9.31651,0.44635 12.63445,2.21137 12.83546,6.828 18.5355,21.61707 13.74758,35.66885 -2.14543,6.29648 -9.69333,13.84438 -15.98981,15.98981 -6.6103,2.25235 -15.82818,2.0547 -21.39222,-0.45871 z m 216.90501,77.17938 c -40.51636,-8.81565 -72.61887,-41.15245 -81.01143,-81.6027 -2.2739,-10.95969 -2.50449,-30.13243 -0.48903,-40.66203 6.18672,-32.32209 27.38371,-60.20076 57.09545,-75.093 28.31361,-14.19145 63.19464,-14.27874 92.15983,-0.23062 29.76913,14.43802 50.89406,41.41089 57.55336,73.48565 2.90292,13.98203 2.15383,36.83205 -1.61948,49.40039 -7.21117,24.01927 -20.94926,43.3537 -40.75985,57.36374 -8.49951,6.01085 -24.52251,13.61679 -34.33386,16.29789 -11.52078,3.14824 -36.45464,3.6822 -48.59499,1.04068 z m 32.29577,-53.20778 c 9.51207,-1.98362 17.70776,-6.61298 25.32102,-14.30265 8.12239,-8.20391 11.92677,-15.28153 14.22285,-26.46004 6.93503,-33.76334 -25.10656,-65.81341 -58.86395,-58.87951 -11.45089,2.35205 -18.31746,6.02689 -26.47297,14.16775 -13.29178,13.26791 -18.07396,29.64297 -13.86795,47.48646 6.23621,26.45637 33.05927,43.53543 59.661,37.98799 z m -20.59472,-23.46287 c -6.04684,-2.216 -12.17288,-7.84731 -15.14483,-13.92176 -2.35977,-4.82321 -2.62868,-6.38307 -2.28226,-13.23885 0.44513,-8.80941 2.25658,-13.35378 7.45778,-18.70928 6.01644,-6.19493 10.67473,-8.03649 20.36325,-8.05016 7.47887,-0.0106 9.06055,0.31752 13.16604,2.73095 10.13331,5.95691 15.49444,15.94004 14.59272,27.17357 -0.82798,10.31488 -7.13295,19.15861 -16.75876,23.5068 -5.36785,2.42478 -15.50765,2.6659 -21.39394,0.50873 z"
         id="path4323" />
      <path
         style="fill:#5e5d5f"
         d="m 26.836372,510.08116 c -3.114996,-0.9962 -7.222928,-2.77498 -9.128738,-3.95284 -5.25064,-3.24507 -11.5713037,-10.6112 -14.5444204,-16.95013 L 0.5,483.5 v -159 -159 l 3.2556631,-6.65483 C 7.9732828,150.22402 15.669179,143.06381 24.224013,139.80155 L 30.5,137.4083 31.097547,126.94301 c 0.666262,-11.66877 2.517422,-17.15702 7.826506,-23.20373 5.410437,-6.162148 12.213882,-8.79263 24.74867,-9.568822 L 74.5,93.5 l 0.5,-33 0.5,-33 2.660407,-5.675146 C 81.885179,13.879218 88.029926,7.6028902 95.856395,3.7499325 101.82885,0.80970125 103.3196,0.5 111.5,0.5 c 8.19409,0 9.66575,0.30704531 15.69272,3.2741131 8.38773,4.1292661 15.81697,12.0020209 18.85369,19.9792279 1.87971,4.937864 2.27669,8.571971 2.82059,25.821095 0.62101,19.694152 0.68467,20.15249 3.36061,24.194724 9.79706,14.799308 32.13662,12.341557 38.84454,-4.273595 0.71101,-1.761124 1.47846,-11.237358 1.86235,-22.995565 0.63374,-19.41127 0.73779,-20.170071 3.53499,-25.777559 3.54892,-7.114482 10.74263,-13.9995092 18.31244,-17.5266588 4.86074,-2.26485506 7.06748,-2.66432991 14.71807,-2.66432991 7.65059,0 9.85733,0.39947485 14.71807,2.66432991 7.54305,3.514683 14.74272,10.3899348 18.35368,17.5266588 L 265.49501,26.5 266.02722,56 c 0.5707,31.633045 0.96651,34.147478 6.27051,39.833671 6.43725,6.901109 18.38628,8.761379 26.65787,4.150199 7.34003,-4.091867 9.90268,-8.804101 11.52996,-21.201523 1.54517,-11.771751 3.86234,-17.469756 8.42573,-20.71918 C 325.54772,53.337614 328.34926,53 360.92573,53 c 22.52443,0 30.9931,-0.318828 31.87427,-1.2 0.66,-0.66 1.2044,-2.7975 1.20977,-4.75 0.0103,-3.730456 3.61777,-12.136415 6.68427,-15.575226 2.834,-3.178083 8.47621,-7.075841 12.30596,-8.501214 2.1799,-0.811324 10.85485,-1.523464 23,-1.888103 L 455.5,20.5 l 0.50446,-6.341968 c 0.40536,-5.0959986 0.9674,-6.7168283 2.86079,-8.2500002 2.99841,-2.4279627 6.27107,-2.4274202 9.27397,0.00154 2.19912,1.7788043 2.38421,2.7202452 2.70293,13.7479352 0.21759,7.528491 0.76368,12.106587 1.5,12.575118 0.63682,0.405214 8.84191,0.743643 18.23354,0.752065 16.54639,0.01484 17.14308,0.08705 19.25,2.329764 2.90582,3.093111 2.75287,6.792826 -0.40356,9.761235 -2.50062,2.351671 -3.11489,2.433697 -20.5,2.737438 L 471,48.126247 v 11.829888 c 0,9.864819 0.26275,11.930715 1.58179,12.436876 C 473.45177,72.726855 481.74411,73 491.00921,73 h 16.84563 l 2.07258,2.634859 c 2.77191,3.523906 2.61196,6.509364 -0.5058,9.440827 -2.49935,2.350012 -3.12764,2.434458 -20.5,2.755297 L 471,88.161965 v 11.464472 c 0,10.838823 -0.13395,11.598423 -2.45455,13.919013 -2.94305,2.94306 -6.47439,3.14243 -9.6802,0.54652 -1.89339,-1.53317 -2.45543,-3.154 -2.86079,-8.25 L 455.5,99.5 l -20,-0.542229 c -21.68859,-0.588009 -24.13302,-1.123012 -31.38924,-6.870046 -4.78554,-3.790217 -9.1871,-11.92389 -9.98348,-18.448535 L 393.5,68.5 l -30,-0.28 c -16.5,-0.153999 -31.00681,-0.03436 -32.23735,0.265877 -3.57077,0.871211 -5.19147,4.532568 -6.13742,13.86525 -2.1724,21.432503 -16.2742,34.914663 -36.62523,35.015903 -19.05953,0.0948 -33.68487,-12.75286 -36.47337,-32.040153 C 251.48377,81.572094 251.02082,67.925 250.99785,55 c -0.0472,-26.543513 -0.5813,-29.038184 -7.42497,-34.67931 -8.43321,-6.951368 -19.71255,-6.951368 -28.14576,0 -6.1987,5.109485 -7.37701,9.105342 -7.42497,25.17931 -0.0746,25.003669 -2.27467,32.834257 -11.96531,42.587372 -9.05758,9.115968 -21.72056,12.646428 -34.03988,9.49036 C 150.8423,94.72004 142.72828,88.195397 137.29338,77.713085 134.69146,72.694738 134.56756,71.73421 133.97657,52 133.42795,33.680656 133.1337,31.058202 131.21035,27.346727 127.3327,19.864077 119.29715,15 110.8133,15 105.45782,15 96.989765,19.811717 93.506189,24.83424 L 90.5,29.168479 90.211218,61.438647 89.922436,93.708815 100.30552,94.238739 c 11.63296,0.593715 16.90234,2.370832 23.05951,7.776901 6.43258,5.64788 8.90932,11.85756 9.56621,23.98436 l 0.56876,10.5 54.64565,0.5 c 51.94771,0.47531 54.74955,0.59405 56.75,2.40499 2.78771,2.5236 2.78756,7.66663 -2.8e-4,10.19002 -2.03415,1.84121 -5.6418,1.92173 -107.75,2.40499 C 36.460637,152.47652 31.335656,152.58766 28,154.36697 23.082814,156.9899 20.147311,159.86461 17.652682,164.5 L 15.5,168.5 v 156 156 l 2.152682,4 c 2.494629,4.63539 5.430132,7.5101 10.347318,10.13303 3.335656,1.77931 8.460637,1.89045 109.14537,2.36697 102.1082,0.48326 105.71585,0.56378 107.75,2.40499 3.07293,2.78144 2.81547,7.8907 -0.53023,10.52243 -2.62849,2.06757 -2.88762,2.07245 -107.25,2.0188 -98.144369,-0.0504 -104.965453,-0.16581 -110.278768,-1.86506 z m 242.636078,-0.5178 c -2.96096,-2.96096 -3.16484,-6.4866 -0.56108,-9.70258 l 1.91137,-2.36078 104.91763,-0.5 104.91762,-0.5 4.89457,-3.02644 c 3.03326,-1.87553 6.04547,-4.88796 7.921,-7.92158 L 496.5,480.65684 V 324.5 168.34316 l -3.02644,-4.89514 c -1.87553,-3.03362 -4.88774,-6.04605 -7.921,-7.92158 L 480.65799,152.5 375.74037,152 l -104.91763,-0.5 -1.91137,-2.36078 c -2.60376,-3.21598 -2.39988,-6.74162 0.56108,-9.70258 l 2.47244,-2.47244 105.27756,0.2679 L 482.5,137.5 l 6,2.41249 c 8.20716,3.29995 17.28756,12.38035 20.58751,20.58751 l 2.41249,6 v 158 158 l -2.41249,6 c -3.29995,8.20716 -12.38035,17.28756 -20.58751,20.58751 l -6,2.41249 -105.27755,0.2679 -105.27756,0.2679 z M 192.57868,476.9621 c -14.96317,-5.31115 -24.95173,-17.15839 -27.72091,-32.87925 -2.15212,-12.21782 2.83602,-26.78121 12.16018,-35.50287 20.71562,-19.37703 53.21214,-13.315 65.28892,12.17927 2.98968,6.31127 3.19294,7.44161 3.19019,17.74075 -0.003,10.01153 -0.25386,11.51151 -2.79528,16.69221 -4.27619,8.71703 -10.6953,15.20111 -19.2195,19.414 -6.39738,3.16175 -8.51427,3.69162 -16.17161,4.04781 -7.1416,0.3322 -9.93239,0.0117 -14.73199,-1.69192 z m 24.07895,-15.78743 c 5.27048,-2.6888 11.66248,-9.96202 13.16635,-14.98151 2.76107,-9.21563 0.41008,-19.19721 -6.13056,-26.02848 -3.6658,-3.82868 -8.30488,-6.52284 -9.72279,-5.64653 -0.53385,0.32994 -0.97063,3.74378 -0.97063,7.58632 0,6.08437 -0.31692,7.30336 -2.45455,9.44098 -3.05196,3.05197 -7.16083,3.16451 -10.231,0.28024 C 198.30194,429.93503 198,428.69159 198,422.2943 c 0,-9.08816 -1.12585,-9.82723 -7.73785,-5.07951 -16.56298,11.89299 -12.9639,38.16055 6.20065,45.25491 5.40409,2.00049 14.93282,1.38944 20.19483,-1.29503 z m 77.82931,16.02656 c -11.60677,-4.01352 -19.93267,-11.30162 -25.22099,-22.07724 -2.50448,-5.1032 -2.76034,-6.64261 -2.76301,-16.62399 -0.003,-9.89812 0.27093,-11.58459 2.73106,-16.83589 3.81022,-8.13316 8.21724,-13.35305 14.94468,-17.7012 25.1935,-16.28335 57.71455,-1.84482 62.96355,27.95424 2.60269,14.77572 -4.59119,31.1035 -17.66796,40.10055 -9.59731,6.60313 -24.49785,8.81071 -34.98733,5.18353 z m 19.82595,-14.59488 c 17.88181,-5.38164 23.91549,-29.22412 10.73188,-42.40774 -3.78354,-3.78354 -8.67797,-6.54334 -10.07414,-5.68046 -0.53385,0.32994 -0.97063,3.66264 -0.97063,7.40601 0,5.37138 -0.4369,7.36156 -2.07258,9.44098 -2.70936,3.44439 -7.13264,3.52054 -10.47287,0.18031 -2.17233,-2.17232 -2.45455,-3.32211 -2.45455,-10 0,-8.6787 -0.49847,-9.03176 -6.77058,-4.79545 C 284.49113,421.9766 281,428.55282 281,437.90278 c 0,11.79017 6.05063,20.37776 17.4532,24.77114 4.19706,1.61712 10.34899,1.59091 15.85969,-0.0676 z m -220.858345,3.9391 C 92.104545,465.19545 91,462.925 91,461.5 c 0,-1.425 1.104545,-3.69545 2.454545,-5.04545 C 95.842401,454.06669 96.316597,454 110.90749,454 c 16.0595,0 19.17534,0.69161 20.98224,4.65732 1.64359,3.6073 1.37798,5.16588 -1.34428,7.88813 C 128.14278,468.94813 127.75084,469 112,469 96.249158,469 95.857216,468.9481 93.454545,466.54545 Z m 288.000005,0 c -2.72226,-2.72225 -2.98787,-4.28083 -1.34428,-7.88813 1.8069,-3.96571 4.92274,-4.65732 20.98224,-4.65732 14.59089,0 15.06509,0.0667 17.45294,2.45455 1.35,1.35 2.45455,3.62045 2.45455,5.04545 0,1.425 -1.10455,3.69545 -2.45455,5.04545 C 416.14278,468.94813 415.75084,469 400,469 c -15.75084,0 -16.14278,-0.0519 -18.54545,-2.45455 z M 121,381.04131 c -20.26238,-4.3337 -37.773293,-13.84686 -52.386428,-28.46 C 36.647788,320.61553 29.059903,272.73443 49.504628,232 54.948471,221.15359 60.891819,213.27951 70.728022,203.88206 80.003508,195.02031 84.753691,191.6392 95.5,186.2497 c 55.72203,-27.94575 123.06155,-1.15506 144.45769,57.47176 17.79618,48.76268 -4.25282,104.70875 -50.45769,128.02898 -20.79225,10.49413 -46.54364,13.98687 -68.5,9.29087 z m 32.90693,-52.58109 c 18.39763,-4.33663 33.21666,-19.15566 37.55329,-37.55329 4.20601,-17.84349 -0.57617,-34.21855 -13.86795,-47.48646 -8.15551,-8.14086 -15.02208,-11.8157 -26.47297,-14.16775 -33.75023,-6.93243 -65.799006,25.11635 -58.866582,58.86658 2.354445,11.46253 6.026007,18.31892 14.167752,26.45732 13.30819,13.30272 29.66397,18.08466 47.48646,13.8836 z M 131,304.92332 c -5.48414,-2.47731 -11.43015,-8.04993 -14.32274,-13.42332 -2.85809,-5.30932 -3.08882,-19.29198 -0.39992,-24.2365 2.78293,-5.11743 7.60731,-10.11088 12.60981,-13.05172 4.04588,-2.37847 5.6576,-2.71031 13.11285,-2.69978 6.82135,0.01 9.31651,0.44635 12.63445,2.21137 12.83546,6.828 18.5355,21.61707 13.74758,35.66885 -2.14543,6.29648 -9.69333,13.84438 -15.98981,15.98981 -6.6103,2.25235 -15.82818,2.0547 -21.39222,-0.45871 z m 219.62547,76.58692 C 316.94142,374.50318 290.30183,353.8775 275.96666,323.70573 269.23016,309.52717 266.8634,299.56498 266.29605,283 c -0.40977,-11.96374 -0.15032,-16.16169 1.48325,-24 5.312,-25.48839 18.98677,-47.42259 38.89457,-62.38654 36.45821,-27.40427 83.12017,-28.84563 121.32613,-3.74769 8.57307,5.63176 22.62494,19.76141 28.63407,28.79257 6.68014,10.03963 11.62297,21.22098 14.57345,32.96713 1.853,7.37695 2.22385,11.57453 2.19765,24.87453 -0.0279,14.14314 -0.34191,17.15225 -2.70605,25.92862 -9.89444,36.73088 -38.30506,64.84307 -75.52369,74.73036 -10.14299,2.69453 -34.53598,3.4344 -44.54996,1.35126 z m 29.57531,-52.61532 c 9.51207,-1.98362 17.70776,-6.61298 25.32102,-14.30265 8.12239,-8.20391 11.92677,-15.28153 14.22285,-26.46004 6.93503,-33.76334 -25.10656,-65.81341 -58.86395,-58.87951 -11.45089,2.35205 -18.31746,6.02689 -26.47297,14.16775 -13.29178,13.26791 -18.07396,29.64297 -13.86795,47.48646 6.23621,26.45637 33.05927,43.53543 59.661,37.98799 z m -20.59472,-23.46287 c -6.04684,-2.216 -12.17288,-7.84731 -15.14483,-13.92176 -2.35977,-4.82321 -2.62868,-6.38307 -2.28226,-13.23885 0.44513,-8.80941 2.25658,-13.35378 7.45778,-18.70928 6.01644,-6.19493 10.67473,-8.03649 20.36325,-8.05016 7.47887,-0.0106 9.06055,0.31752 13.16604,2.73095 10.13331,5.95691 15.49444,15.94004 14.59272,27.17357 -0.82798,10.31488 -7.13295,19.15861 -16.75876,23.5068 -5.36785,2.42478 -15.50765,2.6659 -21.39394,0.50873 z"
         id="path4321" />
      <path
         style="fill:#315673"
         d="M 32,511.31098 C 27.287045,510.52551 17.003205,505.04414 12.561977,500.95036 10.118952,498.69846 6.4055885,493.6259 4.3100571,489.678 L 0.5,482.5 v -158 -158 l 3.8100571,-7.178 C 8.8510709,150.76691 15.077788,144.7228 22.824854,141.35019 25.946184,139.99135 29.175,138.52218 30,138.08536 c 1.13498,-0.60094 1.636681,-3.44561 2.061671,-11.68978 0.433189,-8.40321 1.051318,-11.83722 2.702202,-15.01205 3.405873,-6.54986 6.916305,-10.07996 12.968232,-13.04089 4.709951,-2.304365 7.382752,-2.848866 16.204095,-3.30109 L 74.5,94.5 75.049644,62 C 75.568234,31.336252 75.726646,29.177857 77.853396,23.798368 81.006622,15.822471 87.518441,8.9648456 96.26065,4.4136099 102.84474,0.98590243 104.22411,0.64217218 111.5,0.61607436 c 7.07261,-0.0253687 8.7535,0.35002567 14.5,3.23829264 11.14052,5.5993771 18.04062,13.956647 20.6395,24.998185 0.80742,3.430372 1.33923,11.928731 1.35465,21.647448 0.0235,14.791608 0.2079,16.392002 2.442,21.190399 7.36164,15.811326 29.45148,17.006721 39.30531,2.127012 2.71858,-4.105167 2.76718,-4.456352 3.35527,-24.241462 0.51767,-17.41642 0.88909,-20.831264 2.80375,-25.777581 3.1103,-8.035157 9.92712,-15.2283133 18.53485,-19.5580926 6.31546,-3.1767468 7.91307,-3.55582987 15.06467,-3.57455708 7.32484,-0.0191809 8.61096,0.2971223 15.23935,3.74789158 8.7469,4.5536795 15.25909,11.4143901 18.40002,19.3847581 2.09414,5.314057 2.28473,7.71017 2.80375,35.249347 0.50219,26.645689 0.74175,29.837674 2.43923,32.5 8.23124,12.909935 22.60058,15.804575 34.27035,6.903613 4.48727,-3.422605 8.32458,-11.472871 8.33753,-17.491229 0.0131,-6.093878 2.5581,-15.517047 5.18848,-19.211078 1.17713,-1.65313 4.65598,-4.171955 7.73077,-5.597391 5.58391,-2.588636 5.62857,-2.592162 37.7618,-2.981584 l 32.17128,-0.389883 0.69974,-5.140082 c 1.3856,-10.178166 7.59038,-18.85917 16.4577,-23.025663 4.01924,-1.888524 6.63554,-2.149453 24.48915,-2.442355 13.87179,-0.227577 20.21731,-0.686628 20.73469,-1.5 0.41004,-0.644635 0.75243,-3.734046 0.76085,-6.865359 0.0127,-4.7397078 0.38756,-5.9540334 2.23782,-7.25 2.76466,-1.9364485 5.80444,-1.9877064 8.33636,-0.140571 1.68634,1.230256 2.00676,3.0350369 2.44113,13.75 L 470.5,32.5 l 18,0.5 c 13.65708,0.379363 18.54556,0.861313 20.26117,1.997525 4.12185,2.729808 4.12185,7.275142 0,10.00495 C 507.04556,46.138687 502.15708,46.620637 488.5,47 l -18,0.5 V 60 72.5 l 18,0.5 c 18.71775,0.519938 21.80056,1.220895 23.07856,5.247525 0.8078,2.545137 -0.23463,5.044447 -2.81739,6.75495 C 507.04556,86.138687 502.15708,86.620637 488.5,87 l -18,0.5 -0.5,12.333867 C 469.45322,113.32173 468.67461,115 462.96386,115 458.85183,115 457,112.16545 457,105.87126 457,102.86207 456.46,99.86 455.8,99.2 454.95629,98.356287 449.0924,97.986968 436.05,97.956107 423.07086,97.925396 416.3582,97.504941 413.69799,96.556065 403.72177,92.99762 396.94145,84.898324 394.77661,73.953914 L 393.5,67.5 363,67.256918 c -32.71908,-0.260768 -34.31422,-0.05366 -36.64223,4.757545 -0.66147,1.367045 -1.61548,6.357037 -2.12002,11.088871 -1.54352,14.476069 -8.00587,24.195696 -20.01936,30.109916 -6.05546,2.98109 -7.51722,3.28675 -15.71839,3.28675 -8.19772,0 -9.66431,-0.30634 -15.70585,-3.28057 -8.1332,-4.00397 -14.79171,-11.05946 -17.94773,-19.017798 -2.11552,-5.334538 -2.29603,-7.611725 -2.80376,-35.368853 L 251.5,29.165559 248.46284,24.847571 c -10.40521,-14.79329 -29.11537,-14.024981 -39.08049,1.604792 -1.62308,2.545712 -1.96191,5.713669 -2.45995,23 -0.50415,17.498147 -0.8607,20.772723 -2.80375,25.749269 -3.09665,7.931141 -9.75762,15.003009 -17.9128,19.017794 C 180.16431,97.193664 178.69772,97.5 170.5,97.5 c -8.20117,0 -9.66293,-0.305658 -15.71839,-3.286748 C 144.23505,89.021198 137.23017,79.759649 135.0149,68.078564 134.4567,65.135215 134,55.798988 134,47.331392 134,30.535191 133.18036,26.909076 128.19695,21.658417 119.05714,12.028462 102.93932,12.152809 94.72358,21.916659 89.227629,28.448227 88.921696,30.788893 89.223152,64 L 89.5,94.5 l 11,0.595147 c 12.91158,0.698572 18.97322,3.134954 24.83358,9.981463 4.88807,5.71061 6.66642,11.55311 6.66642,21.90153 0,5.37256 0.45224,9.0741 1.2,9.82186 0.90383,0.90383 14.58387,1.2 55.42742,1.2 h 54.22742 l 2.07258,2.63486 c 2.6472,3.36537 2.63583,6.54534 -0.032,8.96015 -2.03415,1.84121 -5.6418,1.92173 -107.75,2.40499 C 36.460637,152.47652 31.335656,152.58766 28,154.36697 23.082814,156.9899 20.147311,159.86461 17.652682,164.5 L 15.5,168.5 v 156 156 l 2.152682,4 c 2.494629,4.63539 5.430132,7.5101 10.347318,10.13303 3.335656,1.77931 8.460637,1.89045 109.14537,2.36697 102.1082,0.48326 105.71585,0.56378 107.75,2.40499 1.15755,1.04774 2.10463,2.86011 2.10463,4.02749 0,2.12108 -2.44482,6.41527 -4.44204,7.80221 C 241.47303,511.9881 36.508455,512.06237 32,511.31098 Z m 239.83586,0.0297 c -0.91528,-0.24982 -2.39514,-2.28116 -3.28858,-4.51408 -1.47594,-3.68874 -1.48168,-4.27773 -0.0628,-6.44321 0.85889,-1.31084 1.66375,-2.48771 1.78857,-2.61526 0.12482,-0.12755 47.5125,-0.46505 105.30594,-0.75 l 105.079,-0.51809 4.89457,-3.02644 c 3.03326,-1.87553 6.04547,-4.88796 7.921,-7.92158 L 496.5,480.65688 V 324.50004 168.3432 l -3.02644,-4.89514 c -1.87553,-3.03362 -4.88774,-6.04605 -7.921,-7.92158 l -4.89457,-3.02644 -105.079,-0.51809 c -57.79344,-0.28495 -105.18112,-0.62245 -105.30594,-0.75 -0.12482,-0.12755 -0.93616,-1.31431 -1.80297,-2.63724 -1.40901,-2.15041 -1.41844,-2.78251 -0.089,-5.9644 0.92037,-2.20277 2.36963,-3.7752 3.80297,-4.12618 1.27375,-0.3119 49.3409,-0.44042 106.8159,-0.28559 l 104.5,0.2815 5.67515,2.66041 c 7.88973,3.69856 14.04028,9.73177 18.51479,18.16159 l 3.81006,7.178 v 158 158 l -3.81006,7.178 c -4.4691,8.41961 -10.20477,14.05063 -18.91049,18.56545 L 482.5,511.5 378,511.64743 c -57.475,0.0811 -105.24886,-0.057 -106.16414,-0.30679 z M 192.57868,476.9621 c -14.96317,-5.31115 -24.95173,-17.15839 -27.72091,-32.87925 -2.15212,-12.21782 2.83602,-26.78121 12.16018,-35.50287 20.71562,-19.37703 53.21214,-13.315 65.28892,12.17927 2.98968,6.31127 3.19294,7.44161 3.19019,17.74075 -0.003,10.01153 -0.25386,11.51151 -2.79528,16.69221 -4.27619,8.71703 -10.6953,15.20111 -19.2195,19.414 -6.39738,3.16175 -8.51427,3.69162 -16.17161,4.04781 -7.1416,0.3322 -9.93239,0.0117 -14.73199,-1.69192 z m 19.99774,-13.42895 c 6.93087,-2.05825 12.55527,-6.5377 15.98694,-12.73252 2.52461,-4.5574 2.93357,-6.35225 2.91663,-12.80063 -0.014,-5.31803 -0.5551,-8.51825 -1.86003,-11 -2.33278,-4.43656 -8.27077,-10.71937 -11.96022,-12.65478 C 212.94928,411.87422 212,413.03167 212,421.24611 212,430.04073 210.43199,433 205.77204,433 c -5.26769,0 -6.76987,-2.30283 -6.78735,-10.40499 -0.0201,-9.30211 -0.78324,-10.53836 -5.20413,-8.43019 -19.11202,9.11389 -19.96139,37.54965 -1.40477,47.02986 8.07275,4.1242 12.47238,4.63351 20.20063,2.33847 z m 81.91052,13.66808 c -11.60677,-4.01352 -19.93267,-11.30162 -25.22099,-22.07724 -2.50448,-5.1032 -2.76034,-6.64261 -2.76301,-16.62399 -0.003,-9.89812 0.27093,-11.58459 2.73106,-16.83589 3.81022,-8.13316 8.21724,-13.35305 14.94468,-17.7012 25.1935,-16.28335 57.71455,-1.84482 62.96355,27.95424 2.60269,14.77572 -4.59119,31.1035 -17.66796,40.10055 -9.59731,6.60313 -24.49785,8.81071 -34.98733,5.18353 z m 23.20192,-15.0425 c 6.28135,-3.2045 9.92865,-6.75016 12.73339,-12.37854 6.20104,-12.44388 1.18185,-28.49053 -10.90609,-34.86741 -5.74199,-3.02914 -6.47942,-2.17741 -6.50085,7.50848 C 312.99741,430.5148 311.45916,433 306.46746,433 c -4.66054,0 -5.89849,-2.17988 -6.46746,-11.38851 -0.59916,-9.69715 -1.44245,-10.21926 -8.5815,-5.3131 -9.20776,6.32785 -13.75701,19.54224 -10.25989,29.80239 5.22325,15.32446 22.81238,23.05629 36.53025,16.05795 z M 93.454545,466.54545 C 92.104545,465.19545 91,462.925 91,461.5 c 0,-1.425 1.104545,-3.69545 2.454545,-5.04545 C 95.842401,454.06669 96.316597,454 110.90749,454 c 16.0595,0 19.17534,0.69161 20.98224,4.65732 1.64359,3.6073 1.37798,5.16588 -1.34428,7.88813 C 128.14278,468.94813 127.75084,469 112,469 96.249158,469 95.857216,468.9481 93.454545,466.54545 Z m 288.000005,0 c -2.72226,-2.72225 -2.98787,-4.28083 -1.34428,-7.88813 1.8069,-3.96571 4.92274,-4.65732 20.98224,-4.65732 14.59089,0 15.06509,0.0667 17.45294,2.45455 1.35,1.35 2.45455,3.62045 2.45455,5.04545 0,1.425 -1.10455,3.69545 -2.45455,5.04545 C 416.14278,468.94813 415.75084,469 400,469 c -15.75084,0 -16.14278,-0.0519 -18.54545,-2.45455 z M 121,381.04131 c -20.26238,-4.3337 -37.773293,-13.84686 -52.386428,-28.46 C 36.647788,320.61553 29.059903,272.73443 49.504628,232 54.948471,221.15359 60.891819,213.27951 70.728022,203.88206 80.003508,195.02031 84.753691,191.6392 95.5,186.2497 c 55.72203,-27.94575 123.06155,-1.15506 144.45769,57.47176 17.79618,48.76268 -4.25282,104.70875 -50.45769,128.02898 -20.79225,10.49413 -46.54364,13.98687 -68.5,9.29087 z m 30.56634,-51.11701 c 30.5073,-5.53062 49.50336,-38.11662 39.38807,-67.56663 -6.08686,-17.72153 -23.22052,-31.81439 -41.78001,-34.3651 -19.28527,-2.65046 -39.3114,6.421 -50.086321,22.68817 -12.265075,18.51688 -11.009267,43.53734 3.065791,61.0821 11.5573,14.40633 30.90336,21.51694 49.41247,18.16146 z M 137,306.03327 c -5.76275,-1.24799 -8.67562,-2.74584 -13.10464,-6.73864 -14.34013,-12.92775 -11.05914,-36.05427 6.34553,-44.72738 13.56934,-6.76189 31.20144,-0.0753 37.34039,14.16047 2.34306,5.43341 2.1953,15.72828 -0.30695,21.38501 C 162.2299,301.51651 148.78689,308.58587 137,306.03327 Z m 213.62547,75.47697 C 316.94142,374.50318 290.30183,353.8775 275.96666,323.70573 269.23016,309.52717 266.8634,299.56498 266.29605,283 c -0.40977,-11.96374 -0.15032,-16.16169 1.48325,-24 5.312,-25.48839 18.98677,-47.42259 38.89457,-62.38654 36.45821,-27.40427 83.12017,-28.84563 121.32613,-3.74769 8.57307,5.63176 22.62494,19.76141 28.63407,28.79257 6.68014,10.03963 11.62297,21.22098 14.57345,32.96713 1.853,7.37695 2.22385,11.57453 2.19765,24.87453 -0.0279,14.14314 -0.34191,17.15225 -2.70605,25.92862 -9.89444,36.73088 -38.30506,64.84307 -75.52369,74.73036 -10.14299,2.69453 -34.53598,3.4344 -44.54996,1.35126 z M 386.5,328.02138 c 22.74858,-7.88207 37.78071,-31.86677 34.497,-55.04209 -1.67873,-11.84791 -5.42367,-20.00248 -12.98597,-28.27684 C 392.0426,227.23044 368.45281,222.63991 347.5,232.92712 c -32.19639,15.80746 -39.24934,57.36057 -14.01852,82.5914 6.88385,6.88385 17.22026,12.59546 26.01852,14.37711 7.15591,1.44907 19.97717,0.55906 27,-1.87425 z M 364.3264,305.96632 C 351.4444,303.38615 342.6129,292.39901 342.65079,279 c 0.0219,-7.72919 1.77565,-12.24927 7.00204,-18.04648 9.92964,-11.01415 26.7273,-12.11708 38.11678,-2.50274 8.55993,7.22579 11.71811,20.89559 7.23516,31.31649 -2.44614,5.6862 -8.95364,12.34887 -14.20388,14.54256 -4.66569,1.94945 -11.55388,2.64205 -16.47449,1.65649 z"
         id="path4319" />
      <path
         style="fill:#582b2c"
         d="M 32,511.31098 C 27.287045,510.52551 17.003205,505.04414 12.561977,500.95036 10.118952,498.69846 6.4055885,493.6259 4.3100571,489.678 L 0.5,482.5 v -158 -158 l 3.8100571,-7.178 C 8.8510709,150.76691 15.077788,144.7228 22.824854,141.35019 25.946184,139.99135 29.175,138.52218 30,138.08536 c 1.13498,-0.60094 1.636681,-3.44561 2.061671,-11.68978 0.433189,-8.40321 1.051318,-11.83722 2.702202,-15.01205 3.405873,-6.54986 6.916305,-10.07996 12.968232,-13.04089 4.709951,-2.304365 7.382752,-2.848866 16.204095,-3.30109 L 74.5,94.5 75.049644,62 C 75.568234,31.336252 75.726646,29.177857 77.853396,23.798368 81.006622,15.822471 87.518441,8.9648456 96.26065,4.4136099 102.84474,0.98590243 104.22411,0.64217218 111.5,0.61607436 c 7.07261,-0.0253687 8.7535,0.35002567 14.5,3.23829264 11.14052,5.5993771 18.04062,13.956647 20.6395,24.998185 0.80742,3.430372 1.33923,11.928731 1.35465,21.647448 0.0235,14.791608 0.2079,16.392002 2.442,21.190399 7.36164,15.811326 29.45148,17.006721 39.30531,2.127012 2.71858,-4.105167 2.76718,-4.456352 3.35527,-24.241462 0.51767,-17.41642 0.88909,-20.831264 2.80375,-25.777581 3.1103,-8.035157 9.92712,-15.2283133 18.53485,-19.5580926 6.31546,-3.1767468 7.91307,-3.55582987 15.06467,-3.57455708 7.32484,-0.0191809 8.61096,0.2971223 15.23935,3.74789158 8.7469,4.5536795 15.25909,11.4143901 18.40002,19.3847581 2.09414,5.314057 2.28473,7.71017 2.80375,35.249347 0.50219,26.645689 0.74175,29.837674 2.43923,32.5 8.23124,12.909935 22.60058,15.804575 34.27035,6.903613 4.48727,-3.422605 8.32458,-11.472871 8.33753,-17.491229 0.0131,-6.093878 2.5581,-15.517047 5.18848,-19.211078 1.17713,-1.65313 4.65598,-4.171955 7.73077,-5.597391 5.58391,-2.588636 5.62857,-2.592162 37.7618,-2.981584 l 32.17128,-0.389883 0.69974,-5.140082 c 1.3856,-10.178166 7.59038,-18.85917 16.4577,-23.025663 4.01924,-1.888524 6.63554,-2.149453 24.48915,-2.442355 13.87179,-0.227577 20.21731,-0.686628 20.73469,-1.5 0.41004,-0.644635 0.75243,-3.734046 0.76085,-6.865359 0.0127,-4.7397078 0.38756,-5.9540334 2.23782,-7.25 2.76466,-1.9364485 5.80444,-1.9877064 8.33636,-0.140571 1.68634,1.230256 2.00676,3.0350369 2.44113,13.75 L 470.5,32.5 l 18,0.5 c 13.65708,0.379363 18.54556,0.861313 20.26117,1.997525 4.12185,2.729808 4.12185,7.275142 0,10.00495 C 507.04556,46.138687 502.15708,46.620637 488.5,47 l -18,0.5 V 60 72.5 l 18,0.5 c 18.71775,0.519938 21.80056,1.220895 23.07856,5.247525 0.8078,2.545137 -0.23463,5.044447 -2.81739,6.75495 C 507.04556,86.138687 502.15708,86.620637 488.5,87 l -18,0.5 -0.5,12.333867 C 469.45322,113.32173 468.67461,115 462.96386,115 458.85183,115 457,112.16545 457,105.87126 457,102.86207 456.46,99.86 455.8,99.2 454.95629,98.356287 449.0924,97.986968 436.05,97.956107 423.07086,97.925396 416.3582,97.504941 413.69799,96.556065 403.72177,92.99762 396.94145,84.898324 394.77661,73.953914 L 393.5,67.5 363,67.256918 c -32.71908,-0.260768 -34.31422,-0.05366 -36.64223,4.757545 -0.66147,1.367045 -1.61548,6.357037 -2.12002,11.088871 -1.54352,14.476069 -8.00587,24.195696 -20.01936,30.109916 -6.05546,2.98109 -7.51722,3.28675 -15.71839,3.28675 -8.19772,0 -9.66431,-0.30634 -15.70585,-3.28057 -8.1332,-4.00397 -14.79171,-11.05946 -17.94773,-19.017798 -2.11552,-5.334538 -2.29603,-7.611725 -2.80376,-35.368853 L 251.5,29.165559 248.46284,24.847571 c -10.40521,-14.79329 -29.11537,-14.024981 -39.08049,1.604792 -1.62308,2.545712 -1.96191,5.713669 -2.45995,23 -0.50415,17.498147 -0.8607,20.772723 -2.80375,25.749269 -3.09665,7.931141 -9.75762,15.003009 -17.9128,19.017794 C 180.16431,97.193664 178.69772,97.5 170.5,97.5 c -8.20117,0 -9.66293,-0.305658 -15.71839,-3.286748 C 144.23505,89.021198 137.23017,79.759649 135.0149,68.078564 134.4567,65.135215 134,55.798988 134,47.331392 134,30.535191 133.18036,26.909076 128.19695,21.658417 119.05714,12.028462 102.93932,12.152809 94.72358,21.916659 89.227629,28.448227 88.921696,30.788893 89.223152,64 L 89.5,94.5 l 11,0.595147 c 12.91158,0.698572 18.97322,3.134954 24.83358,9.981463 4.88807,5.71061 6.66642,11.55311 6.66642,21.90153 0,5.37256 0.45224,9.0741 1.2,9.82186 0.90383,0.90383 14.58387,1.2 55.42742,1.2 h 54.22742 l 2.07258,2.63486 c 2.6472,3.36537 2.63583,6.54534 -0.032,8.96015 -2.03415,1.84121 -5.6418,1.92173 -107.75,2.40499 C 36.460637,152.47652 31.335656,152.58766 28,154.36697 23.082814,156.9899 20.147311,159.86461 17.652682,164.5 L 15.5,168.5 v 156 156 l 2.152682,4 c 2.494629,4.63539 5.430132,7.5101 10.347318,10.13303 3.335656,1.77931 8.460637,1.89045 109.14537,2.36697 102.1082,0.48326 105.71585,0.56378 107.75,2.40499 1.15755,1.04774 2.10463,2.86011 2.10463,4.02749 0,2.12108 -2.44482,6.41527 -4.44204,7.80221 C 241.47303,511.9881 36.508455,512.06237 32,511.31098 Z M 103.34189,136.34497 117,135.68994 v -8.71011 c 0,-7.31868 -0.3336,-9.13422 -2.0883,-11.36495 C 110.67841,110.23312 109.27399,110 81.084456,110 H 55.069592 l -3.510507,3.08227 c -3.950808,3.46885 -5.545261,7.94369 -5.553508,15.58594 -0.0096,8.89377 -1.523412,8.33179 22.4433,8.33179 11.679195,0 27.38105,-0.29476 34.893013,-0.65503 z M 455.34829,76.25 c 0.35062,-3.7125 0.64069,-13.7824 0.6446,-22.377555 0.006,-12.557707 -0.28255,-15.867951 -1.46745,-16.851329 -1.07616,-0.893134 -6.00696,-1.120887 -18.25,-0.842966 -18.6982,0.424456 -21.75789,1.28503 -25.31592,7.120399 -2.74828,4.507319 -2.89651,27.490676 -0.20952,32.48613 3.56129,6.620906 5.64325,7.201376 25.8554,7.208732 L 454.71079,83 Z M 271.83586,511.34064 c -0.91528,-0.24982 -2.39514,-2.28116 -3.28858,-4.51408 -1.47594,-3.68874 -1.48168,-4.27773 -0.0628,-6.44321 0.85889,-1.31084 1.66375,-2.48771 1.78857,-2.61526 0.12482,-0.12755 47.5125,-0.46505 105.30594,-0.75 l 105.079,-0.51809 4.89457,-3.02644 c 3.03326,-1.87553 6.04547,-4.88796 7.921,-7.92158 L 496.5,480.65684 V 324.5 168.34316 l -3.02644,-4.89514 c -1.87553,-3.03362 -4.88774,-6.04605 -7.921,-7.92158 l -4.89457,-3.02644 -105.079,-0.51809 c -57.79344,-0.28495 -105.18112,-0.62245 -105.30594,-0.75 -0.12482,-0.12755 -0.93616,-1.31431 -1.80297,-2.63724 -1.40901,-2.15041 -1.41844,-2.78251 -0.089,-5.9644 0.92037,-2.20277 2.36963,-3.7752 3.80297,-4.12618 1.27375,-0.3119 49.3409,-0.44042 106.8159,-0.28559 l 104.5,0.2815 5.67515,2.66041 c 7.88973,3.69856 14.04028,9.73177 18.51479,18.16159 l 3.81006,7.178 v 158 158 l -3.81006,7.178 c -4.4691,8.41961 -10.20477,14.05063 -18.91049,18.56545 L 482.5,511.5 378,511.64743 c -57.475,0.0811 -105.24886,-0.057 -106.16414,-0.30679 z M 192.57868,476.9621 c -14.96317,-5.31115 -24.95173,-17.15839 -27.72091,-32.87925 -2.15212,-12.21782 2.83602,-26.78121 12.16018,-35.50287 20.71562,-19.37703 53.21214,-13.315 65.28892,12.17927 2.98968,6.31127 3.19294,7.44161 3.19019,17.74075 -0.003,10.01153 -0.25386,11.51151 -2.79528,16.69221 -4.27619,8.71703 -10.6953,15.20111 -19.2195,19.414 -6.39738,3.16175 -8.51427,3.69162 -16.17161,4.04781 -7.1416,0.3322 -9.93239,0.0117 -14.73199,-1.69192 z m 19.99774,-13.42895 c 6.93087,-2.05825 12.55527,-6.5377 15.98694,-12.73252 2.52461,-4.5574 2.93357,-6.35225 2.91663,-12.80063 -0.014,-5.31803 -0.5551,-8.51825 -1.86003,-11 -2.33278,-4.43656 -8.27077,-10.71937 -11.96022,-12.65478 C 212.94928,411.87422 212,413.03167 212,421.24611 212,430.04073 210.43199,433 205.77204,433 c -5.26769,0 -6.76987,-2.30283 -6.78735,-10.40499 -0.0201,-9.30211 -0.78324,-10.53836 -5.20413,-8.43019 -19.11202,9.11389 -19.96139,37.54965 -1.40477,47.02986 8.07275,4.1242 12.47238,4.63351 20.20063,2.33847 z m 81.91052,13.66808 c -11.60677,-4.01352 -19.93267,-11.30162 -25.22099,-22.07724 -2.50448,-5.1032 -2.76034,-6.64261 -2.76301,-16.62399 -0.003,-9.89812 0.27093,-11.58459 2.73106,-16.83589 3.81022,-8.13316 8.21724,-13.35305 14.94468,-17.7012 25.1935,-16.28335 57.71455,-1.84482 62.96355,27.95424 2.60269,14.77572 -4.59119,31.1035 -17.66796,40.10055 -9.59731,6.60313 -24.49785,8.81071 -34.98733,5.18353 z m 23.20192,-15.0425 c 6.28135,-3.2045 9.92865,-6.75016 12.73339,-12.37854 6.20104,-12.44388 1.18185,-28.49053 -10.90609,-34.86741 -5.74199,-3.02914 -6.47942,-2.17741 -6.50085,7.50848 C 312.99741,430.5148 311.45916,433 306.46746,433 c -4.66054,0 -5.89849,-2.17988 -6.46746,-11.38851 -0.59916,-9.69715 -1.44245,-10.21926 -8.5815,-5.3131 -9.20776,6.32785 -13.75701,19.54224 -10.25989,29.80239 5.22325,15.32446 22.81238,23.05629 36.53025,16.05795 z M 93.454545,466.54545 C 92.104545,465.19545 91,462.925 91,461.5 c 0,-1.425 1.104545,-3.69545 2.454545,-5.04545 C 95.842401,454.06669 96.316597,454 110.90749,454 c 16.0595,0 19.17534,0.69161 20.98224,4.65732 1.64359,3.6073 1.37798,5.16588 -1.34428,7.88813 C 128.14278,468.94813 127.75084,469 112,469 96.249158,469 95.857216,468.9481 93.454545,466.54545 Z m 288.000005,0 c -2.72226,-2.72225 -2.98787,-4.28083 -1.34428,-7.88813 1.8069,-3.96571 4.92274,-4.65732 20.98224,-4.65732 14.59089,0 15.06509,0.0667 17.45294,2.45455 1.35,1.35 2.45455,3.62045 2.45455,5.04545 0,1.425 -1.10455,3.69545 -2.45455,5.04545 C 416.14278,468.94813 415.75084,469 400,469 c -15.75084,0 -16.14278,-0.0519 -18.54545,-2.45455 z M 121,381.04131 c -20.26238,-4.3337 -37.773293,-13.84686 -52.386428,-28.46 C 36.647788,320.61553 29.059903,272.73443 49.504628,232 54.948471,221.15359 60.891819,213.27951 70.728022,203.88206 80.003508,195.02031 84.753691,191.6392 95.5,186.2497 c 55.72203,-27.94575 123.06155,-1.15506 144.45769,57.47176 17.79618,48.76268 -4.25282,104.70875 -50.45769,128.02898 -20.79225,10.49413 -46.54364,13.98687 -68.5,9.29087 z m 13,-25.08127 V 345.0381 l -2.75,-0.60633 c -15.70344,-3.4624 -25.2492,-8.43744 -35.34509,-18.4211 C 85.754337,315.97292 79.917444,305.02912 76.56524,289.75 L 75.961896,287 H 64.980948 54 v 3.31166 c 0,5.47551 3.872051,18.67855 7.973514,27.18834 10.295686,21.36168 30.443819,39.06098 52.419126,46.04804 8.00431,2.54497 17.48935,4.41433 18.85736,3.7165 0.4125,-0.21041 0.75,-5.29744 0.75,-11.3045 z m 35.76662,7.65031 c 8.31461,-2.98815 21.93901,-10.68852 28.52918,-16.1244 13.97892,-11.53046 25.41976,-29.66871 29.79177,-47.23172 C 231.31708,287.28082 231.4716,287.5 219.0959,287.5 h -10.4041 l -2.15763,8 c -2.57318,9.54079 -6.81215,18.10413 -12.47343,25.19815 -8.06899,10.11107 -23.34024,19.49636 -37.31074,22.93016 l -6.75,1.65907 v 10.77298 c 0,7.7287 0.35323,10.89113 1.25,11.19112 1.65039,0.55208 13.13017,-1.70532 18.51662,-3.64113 z M 151.56634,329.9243 c 30.5073,-5.53062 49.50336,-38.11662 39.38807,-67.56663 -6.08686,-17.72153 -23.22052,-31.81439 -41.78001,-34.3651 -19.28527,-2.65046 -39.3114,6.421 -50.086321,22.68817 -12.265075,18.51688 -11.009267,43.53734 3.065791,61.0821 11.5573,14.40633 30.90336,21.51694 49.41247,18.16146 z M 137,306.03327 c -5.76275,-1.24799 -8.67562,-2.74584 -13.10464,-6.73864 -14.34013,-12.92775 -11.05914,-36.05427 6.34553,-44.72738 13.56934,-6.76189 31.20144,-0.0753 37.34039,14.16047 2.34306,5.43341 2.1953,15.72828 -0.30695,21.38501 C 162.2299,301.51651 148.78689,308.58587 137,306.03327 Z m 11.09388,-15.58182 c 6.34006,-3.27857 8.74643,-11.9213 5.02044,-18.03149 -2.02397,-3.31907 -7.47246,-6.42226 -11.26545,-6.41622 -5.415,0.009 -12.83651,7.43013 -12.84513,12.84513 -0.006,3.79299 3.09715,9.24148 6.41622,11.26545 3.74597,2.28429 8.65597,2.4149 12.67392,0.33713 z m -73.191265,-19.3701 c 0.771438,-0.48841 2.222001,-4.11455 3.223473,-8.05809 6.069113,-23.89858 24.117132,-41.86235 48.196342,-47.97137 L 133.5,213.23091 133.78275,202.11545 134.0655,191 l -2.78275,0.0148 c -4.23963,0.0225 -14.75861,2.71255 -22.15372,5.6654 -10.814,4.318 -19.96028,10.3184 -28.68668,18.81982 -12.61167,12.28653 -20.186534,25.35992 -24.526981,42.33091 -2.22209,8.68828 -2.424492,12.79699 -0.665369,13.50681 2.17808,0.87887 18.189428,0.67 19.652615,-0.25637 z M 230,268.15996 c 0,-4.76609 -3.69935,-17.64032 -7.32165,-25.48032 -9.36984,-20.27979 -24.35089,-35.13195 -45.05433,-44.6667 C 168.97194,194.02832 158.41919,191 153.18611,191 H 150 v 10.98095 10.98095 l 2.75,0.60633 c 17.8992,3.94653 32.71261,12.75083 41.92342,24.91705 5.80301,7.66499 8.59852,13.23478 11.31293,22.53994 1.19925,4.11113 2.3538,8.03728 2.56567,8.72478 0.27627,0.89649 3.3636,1.25 10.9166,1.25 H 230 Z M 350.62547,381.51024 C 316.94142,374.50318 290.30183,353.8775 275.96666,323.70573 269.23016,309.52717 266.8634,299.56498 266.29605,283 c -0.40977,-11.96374 -0.15032,-16.16169 1.48325,-24 5.312,-25.48839 18.98677,-47.42259 38.89457,-62.38654 36.45821,-27.40427 83.12017,-28.84563 121.32613,-3.74769 8.57307,5.63176 22.62494,19.76141 28.63407,28.79257 6.68014,10.03963 11.62297,21.22098 14.57345,32.96713 1.853,7.37695 2.22385,11.57453 2.19765,24.87453 -0.0279,14.14314 -0.34191,17.15225 -2.70605,25.92862 -9.89444,36.73088 -38.30506,64.84307 -75.52369,74.73036 -10.14299,2.69453 -34.53598,3.4344 -44.54996,1.35126 z M 362,355.93832 v -10.84769 l -3.75,-0.68127 c -26.25022,-4.76891 -48.89151,-27.42127 -53.66541,-53.69163 l -0.68732,-3.78227 -11.19864,0.28227 L 281.5,287.5 l 0.30762,3.5 c 0.97653,11.11083 7.25625,27.31353 15.01287,38.73565 10.06175,14.81659 26.47503,27.25698 44.15703,33.46868 6.62074,2.32587 18.02937,4.64989 19.77248,4.0278 0.89576,-0.31969 1.25,-3.52024 1.25,-11.29381 z m 34.28507,7.96565 c 25.60867,-8.62694 46.42731,-28.16033 55.83491,-52.38793 3.17973,-8.18881 6.22337,-21.17889 5.4404,-23.21928 -0.63496,-1.65468 -20.09598,-1.85719 -21.10804,-0.21964 -0.36613,0.59241 -1.31168,3.85491 -2.10121,7.25 -5.28872,22.74211 -24.37556,41.66884 -48.15441,47.75045 -4.17468,1.0677 -7.94488,2.49954 -8.37821,3.18185 -1.11992,1.7634 -1.00838,17.51728 0.1392,19.66157 0.84016,1.56984 1.65474,1.68019 6.63606,0.89905 3.12309,-0.48975 8.38418,-1.80198 11.6913,-2.91607 z M 386.5,328.02138 c 22.74858,-7.88207 37.78071,-31.86677 34.497,-55.04209 -1.67873,-11.84791 -5.42367,-20.00248 -12.98597,-28.27684 C 392.0426,227.23044 368.45281,222.63991 347.5,232.92712 c -32.19639,15.80746 -39.24934,57.36057 -14.01852,82.5914 6.88385,6.88385 17.22026,12.59546 26.01852,14.37711 7.15591,1.44907 19.97717,0.55906 27,-1.87425 z M 364.3264,305.96632 C 351.4444,303.38615 342.6129,292.39901 342.65079,279 c 0.0219,-7.72919 1.77565,-12.24927 7.00204,-18.04648 9.92964,-11.01415 26.7273,-12.11708 38.11678,-2.50274 8.55993,7.22579 11.71811,20.89559 7.23516,31.31649 -2.44614,5.6862 -8.95364,12.34887 -14.20388,14.54256 -4.66569,1.94945 -11.55388,2.64205 -16.47449,1.65649 z m 12.25364,-15.852 c 4.0432,-2.46554 6.80036,-8.27306 5.98673,-12.61009 C 381.46225,271.61663 375.30283,266 369.95079,266 c -3.61599,0 -9.08529,3.17328 -11.06511,6.41996 -6.85651,11.24389 6.45047,24.55087 17.69436,17.69436 z m -73.95155,-18.87963 c 0.62067,-0.40408 2.10709,-4.31441 3.30316,-8.68962 3.27561,-11.98217 8.39812,-20.88326 17.05768,-29.64016 10.03221,-10.14498 21.48498,-16.26143 36.26067,-19.36533 L 362,212.9619 v -11.12341 -11.1234 l -5.86393,0.6129 c -8.15608,0.85248 -21.56941,5.554 -30.73689,10.77362 -13.79494,7.85433 -27.95709,22.92576 -35.14209,37.39839 -5.51221,11.10315 -10.09602,28.78423 -8.08918,31.20232 1.17673,1.41787 18.41162,1.86631 20.46058,0.53237 z m 154.99379,-1.69274 c 1.00546,-2.6202 -4.39626,-21.33846 -8.55654,-29.65044 -5.33779,-10.66459 -9.32293,-15.96107 -18.87782,-25.08976 -12.26315,-11.71614 -28.89538,-20.3861 -44.11486,-22.99595 -8.88066,-1.52287 -9.03683,-1.35029 -9.05775,10.00994 -0.0168,9.14527 1.00417,12.18426 4.09356,12.18426 3.73726,0 17.29581,5.10102 23.37609,8.7946 3.30228,2.00603 9.20987,6.81039 13.12796,10.67636 5.72735,5.65116 8.01988,8.8913 11.69502,16.52904 2.51417,5.225 4.88264,11.3 5.26327,13.5 1.29067,7.46006 1.3572,7.5 12.49536,7.5 7.8352,0 10.11715,-0.3152 10.55571,-1.45805 z"
         id="path4317" />
      <path
         style="fill:#040405"
         d="m 32.50325,511.25994 c -1.648212,-0.24223 -3.223212,-0.7604 -3.5,-1.15151 C 28.726463,509.71732 26.25,508.55615 23.5,507.52804 16.730917,504.99739 7.0026129,495.26908 4.4719562,488.5 c -1.0281017,-2.75 -2.3423789,-5.32109 -2.920616,-5.71353 -1.47749179,-1.00274 -1.47749179,-315.5702 0,-316.57294 C 2.1295773,165.82109 3.4438545,163.25 4.4719562,160.5 7.2047036,153.19036 16.714536,143.98387 24.5,141.1108 c 3.3,-1.21779 6.5625,-2.95192 7.25,-3.85362 0.799606,-1.04872 1.25,-5.10298 1.25,-11.25197 0,-8.33628 0.34364,-10.30212 2.588266,-14.8065 1.423547,-2.85668 4.401012,-6.74561 6.616589,-8.64206 C 47.888536,97.691628 53.655096,96 64.555694,96 c 6.289466,0 9.537909,-0.407858 10.269515,-1.289389 0.697275,-0.840166 1.175436,-12.598682 1.372444,-33.75 L 76.5,28.5 79.40518,22.208516 C 82.896596,14.647476 90.755063,7.007611 97.73298,4.390548 100.35484,3.4072208 102.725,2.3103955 103,1.9531586 104.59712,-0.12156629 121.70219,0.05481531 120.41795,2.1327664 120.12316,2.6097449 120.59848,3 121.47423,3 c 3.2818,0 11.2289,4.9752163 15.8663,9.932968 8.27853,8.850419 9.02206,11.51799 9.63488,34.567032 0.49043,18.445869 0.71662,20.376089 2.91087,24.83986 5.88421,11.970231 21.22572,16.206503 32.79281,9.05512 2.90889,-1.798429 5.9481,-4.856082 7.79447,-7.841769 L 193.5,68.659293 194.08532,48.079646 c 0.66667,-23.439941 1.42825,-26.342 9.09572,-34.660229 4.39888,-4.7722136 13.03075,-10.3933957 15.98563,-10.4100329 0.91666,-0.00516 1.84166,-0.5343841 2.05555,-1.1760508 0.53426,-1.60277139 16.0213,-1.60277139 16.55556,0 C 237.99167,2.475 238.82209,3 239.62317,3 c 4.53951,0 15.77914,8.508832 19.93429,15.091025 4.78517,7.580202 5.43937,12.390378 5.48643,40.340476 0.0474,28.128243 0.40079,30.529516 5.47194,37.17814 5.45996,7.158369 17.78056,10.382499 26.21246,6.859419 9.99566,-4.176454 13.96385,-10.526633 15.26838,-24.433584 1.34095,-14.295152 6.02422,-20.587457 17.08911,-22.960451 C 332.01553,54.446705 346.28525,54 363.42678,54 c 22.27104,0 29.56518,-0.300788 30.31263,-1.25 0.54136,-0.6875 1.26941,-3.435331 1.61788,-6.10629 1.27722,-9.789583 8.57419,-18.857699 17.95865,-22.317632 1.9827,-0.730996 10.22767,-1.202627 21.85227,-1.25 10.26752,-0.04184 19.38002,-0.349223 20.25,-0.683067 C 456.60824,21.936355 457,20.353939 457,16.003795 457,9.1436906 459.11811,5.75 463.39971,5.75 c 5.12714,0 6.0065,2.0736742 6.57907,15.514492 L 470.5,33.5 l 17.94765,0.273879 c 14.92756,0.227793 18.25093,0.548349 19.75,1.904988 0.99129,0.897109 1.83087,1.223864 1.86574,0.726121 0.0349,-0.497744 0.47036,0.107512 0.96777,1.345012 0.53919,1.341423 0.53919,3.158577 0,4.5 -0.49741,1.2375 -0.93291,1.880357 -0.96777,1.428571 -0.0349,-0.451785 -0.77053,-0.114285 -1.63482,0.75 -1.3053,1.305305 -4.48064,1.574022 -18.75,1.586742 -9.44821,0.0084 -17.75509,0.381145 -18.45973,0.828274 -0.95836,0.608131 -1.21032,4.068671 -1,13.734687 L 470.5,73.5 l 17.94765,0.273879 c 14.92756,0.227793 18.25093,0.548349 19.75,1.904988 0.99129,0.897109 1.83087,1.223864 1.86574,0.726121 0.0349,-0.497744 0.47036,0.107512 0.96777,1.345012 0.53919,1.341423 0.53919,3.158577 0,4.5 -0.49741,1.2375 -0.9398,1.8 -0.98309,1.25 -0.0433,-0.55 -0.50448,-0.325 -1.02488,0.5 -0.76681,1.215628 -4.50814,1.594791 -19.73469,2 L 470.5,86.5 469.97437,98.859111 c -0.48568,11.419589 -0.70315,12.502849 -2.86079,14.249999 -3.09251,2.50416 -4.71027,2.38511 -7.65903,-0.56366 C 457.44242,110.53333 457,109.09772 457,104.58064 c 0,-4.42439 -0.38118,-5.714271 -1.93426,-6.545456 -1.12447,-0.601798 -9.39293,-1.037519 -19.75,-1.040761 -9.79866,-0.0031 -19.49187,-0.471081 -21.54048,-1.04003 -8.78124,-2.438767 -17.11708,-12.638412 -18.40775,-22.523529 -0.35409,-2.711975 -1.08674,-5.493364 -1.6281,-6.180864 -1.186,-1.506143 -54.80507,-1.766964 -61.14037,-0.297408 -6.38522,1.481137 -7.60744,3.476537 -8.59808,14.037179 C 321.96912,102.65019 308.43218,116 288.5,116 c -9.87648,0 -16.88558,-2.67181 -23.95235,-9.13045 -3.25429,-2.97423 -6.58757,-7.287325 -8.25334,-10.679396 L 253.5,90.5 l -0.5,-30 -0.5,-30 -2.74929,-4.676864 C 245.06351,17.849669 238.46978,14 229.5,14 c -8.96978,0 -15.56351,3.849669 -20.25071,11.823136 -2.69814,4.589852 -2.75909,5.05826 -3.27595,25.176864 -0.51855,20.18433 -0.57175,20.589878 -3.45477,26.336802 -3.7391,7.453411 -11.76822,14.864612 -19.05942,17.592599 -7.46528,2.793119 -18.43393,2.800261 -25.87327,0.01685 -7.65854,-2.865429 -14.79657,-9.598142 -18.80531,-17.737503 L 135.5,70.547851 134.96916,50.523925 C 134.4911,32.490931 134.22203,30.08994 132.26301,26.375791 126.22709,14.932176 112.91665,10.748974 101.16838,16.603381 95.079636,19.637532 91.398341,24.026032 89.415702,30.613843 87.484547,37.030581 87.339429,93.218213 89.25,94.771082 c 0.6875,0.558785 6.2,1.19857 12.25,1.421744 12.66208,0.467083 16.76193,2.034054 22.79549,8.712484 5.28147,5.84596 6.77196,10.21804 7.5323,22.09469 l 0.67221,10.5 54.64565,0.5 c 51.94771,0.47531 54.74955,0.59405 56.75,2.40499 2.65176,2.40054 2.69551,6.00385 0.10435,8.59501 -1.97422,1.97422 -3.33712,2.00007 -105.75,2.00558 -72.589128,0.004 -104.951383,0.33718 -107.75,1.10966 -5.377855,1.4844 -13.900357,10.00691 -15.38476,15.38476 -1.562044,5.65914 -1.562044,308.34086 0,314 1.484403,5.37785 10.006905,13.90036 15.38476,15.38476 2.798617,0.77248 35.160872,1.10576 107.75,1.10966 102.41288,0.006 103.77578,0.0314 105.75,2.00558 2.36025,2.36025 2.60898,6.2497 0.51101,7.99086 -0.81894,0.67967 -1.27401,1.58361 -1.01125,2.00876 0.26276,0.42515 -0.52969,1.04302 -1.76101,1.37304 -2.53029,0.67817 -204.59451,0.56931 -209.2355,-0.11272 z M 117.80077,129.5272 c 0.391,-9.06477 -1.66117,-14.65977 -6.46627,-17.62949 -3.37975,-2.08879 -4.64742,-2.18659 -29.682513,-2.28984 -25.537081,-0.10533 -26.225505,-0.0554 -29.2787,2.12244 C 47.759099,115.02164 46,119.57697 46,128.23446 c 0,4.08771 0.305667,7.73787 0.67926,8.11147 0.373593,0.37359 16.461093,0.56109 35.75,0.41666 L 117.5,136.5 Z M 454.89702,82.624086 c 0.79938,-0.963192 1.06108,-8.087304 0.87244,-23.75 L 455.5,36.5 h -18.67924 c -17.30707,0 -18.88191,0.151458 -21.43821,2.061789 -6.33943,4.737472 -6.88446,6.386697 -6.86161,20.762747 0.022,13.849152 0.79785,16.939024 5.26923,20.985571 3.27416,2.963075 6.91653,3.51376 23.83739,3.60394 12.55047,0.06689 16.38082,-0.219224 17.26946,-1.289961 z M 271.51429,510.37144 c -4.04898,-4.04898 -3.85385,-9.04898 0.44289,-11.34852 C 273.22401,498.34493 308.16173,498 375.56824,498 c 76.92549,0 102.70239,-0.29625 105.81574,-1.21612 5.49284,-1.62291 13.77699,-9.90706 15.3999,-15.3999 1.76361,-5.96903 1.76361,-307.79893 0,-313.76796 -1.62291,-5.49284 -9.90706,-13.77699 -15.3999,-15.3999 C 478.27007,151.29608 452.39066,151 375.08853,151 H 272.90909 l -2.51665,-2.51665 c -1.84038,-1.84038 -2.33676,-3.11679 -1.84722,-4.75 C 270.21521,138.1619 263.22233,138.5 376.7859,138.5 H 481.5 l 6,2.41249 c 7.8387,3.1518 17.3675,12.471 20.02804,19.58751 1.02811,2.75 2.34238,5.32109 2.92062,5.71353 1.47749,1.00274 1.47749,315.5702 0,316.57294 -0.57824,0.39244 -1.89251,2.96353 -2.92062,5.71353 -2.53065,6.76908 -12.25896,16.49739 -19.02804,19.02804 -2.75,1.02811 -5.32099,2.34238 -5.71332,2.92062 -0.48909,0.72087 -33.5421,1.13829 -105.15195,1.32795 -96.74068,0.25623 -104.56261,0.15266 -106.12044,-1.40517 z m -77.75234,-34.24783 c -17.41589,-5.76614 -27.92372,-20.09671 -27.91704,-38.07325 0.007,-20.17276 13.38055,-35.8703 33.49368,-39.31554 16.96987,-2.90681 34.86291,6.78962 42.46552,23.01254 2.39251,5.10527 2.69589,6.93662 2.69589,16.27367 0,9.86071 -0.20509,10.93761 -3.2677,17.15868 -4.22493,8.58204 -12.9038,16.79871 -20.94772,19.83212 -8.17031,3.08107 -19.18062,3.54261 -26.52263,1.11178 z m 20.47387,-12.31241 c 5.27093,-1.57921 13.05785,-8.72067 15.89154,-14.57429 2.74943,-5.67957 3.04939,-15.77369 0.63522,-21.37647 C 227.70392,420.76192 219.04152,413 214.17815,413 c -1.69944,0 -1.97573,0.94234 -2.39382,8.1646 -0.40262,6.95494 -0.80846,8.43652 -2.73927,10 -3.02282,2.44773 -4.65693,2.31444 -7.59051,-0.61915 C 199.28846,428.37937 199,427.21674 199,420.65244 c 0,-8.34528 -0.89269,-9.45836 -5.61903,-7.00631 -5.55555,2.88226 -8.9627,6.16841 -11.90644,11.48362 -2.56703,4.63503 -2.97107,6.39705 -2.9512,12.87025 0.0177,5.7476 0.53216,8.46183 2.20205,11.61647 3.41234,6.44638 6.89433,10.01513 12.49443,12.80578 5.81296,2.89672 14.14547,3.44742 21.01601,1.38895 z m 81.78842,12.58571 c -3.01166,-0.80931 -7.30214,-2.54181 -9.5344,-3.85 -5.83312,-3.41843 -13.20333,-11.70104 -16.30978,-18.32884 C 267.80653,449.154 267.5,447.29907 267.5,438 c 0,-9.31421 0.30445,-11.14966 2.69589,-16.25264 7.60261,-16.22292 25.49565,-25.91935 42.46552,-23.01254 21.99059,3.76683 36.20726,23.18075 33.18078,45.31084 -3.21109,23.48 -26.51501,38.61332 -49.81795,32.35125 z m 20.15033,-12.79703 c 5.62154,-2.00768 11.11627,-6.89089 14.37632,-12.77633 2.53951,-4.58465 2.94561,-6.36454 2.92578,-12.82355 -0.0258,-8.40642 -2.01154,-13.38102 -7.55359,-18.92308 -3.6238,-3.62379 -9.83865,-7.00713 -11.67308,-6.35478 -0.84861,0.30179 -1.25,2.8407 -1.25,7.90665 0,6.58941 -0.28706,7.74918 -2.45455,9.91666 -2.94891,2.94892 -4.56651,3.06783 -7.65975,0.56308 -2.01536,-1.63194 -2.38703,-2.96978 -2.7087,-9.75 -0.20505,-4.32219 -0.72522,-8.23249 -1.15593,-8.68955 -1.34234,-1.42447 -8.58633,3.03022 -12.90392,7.93527 C 282.01802,425.26111 279,432.64733 279,438.02257 c 0,4.24031 2.63291,11.84022 5.57043,16.07906 2.76963,3.99658 7.46348,7.48426 12.88277,9.57229 4.10386,1.58121 14.19843,1.54128 18.72137,-0.074 z M 94,466 c -2.79084,-2.79084 -2.53157,-6.43671 0.634859,-8.92742 C 97.0329,455.18628 98.609861,455 112.18031,455 c 14.49767,0 14.97857,0.068 17.36514,2.45455 2.99471,2.9947 3.06724,4.49683 0.38197,7.91059 L 127.85484,468 H 111.92742 C 97.333333,468 95.832574,467.83257 94,466 Z m 288.07258,-0.63486 c -2.68527,-3.41376 -2.61274,-4.91589 0.38197,-7.91059 2.38657,-2.38658 2.86747,-2.45455 17.36514,-2.45455 13.57045,0 15.14741,0.18628 17.54545,2.07258 3.16643,2.49071 3.4257,6.13658 0.63486,8.92742 -1.83257,1.83257 -3.33333,2 -17.92742,2 H 384.14516 Z M 124.33414,380.58553 C 83.887497,372.87268 52.897685,344.02847 42.272829,304.20581 40.00843,295.7187 39.685999,292.55376 39.704955,279 c 0.01888,-13.497 0.360816,-16.78303 2.646071,-25.42862 9.67609,-36.60663 37.710262,-64.55385 74.530094,-74.29892 8.30203,-2.1973 11.74087,-2.5488 25.11888,-2.56751 13.64967,-0.0191 16.69376,0.29578 25.5,2.63762 34.14765,9.08087 61.30751,34.34414 72.39888,67.34322 7.71927,22.96639 6.22448,52.50606 -3.77484,74.59763 -9.91529,21.90594 -29.91023,41.94374 -51.72341,51.83431 -16.58615,7.52052 -42.7391,10.772 -60.06649,7.4678 z m 10.45265,-23.49874 c 0.16681,-6.05699 -0.13414,-10.83414 -0.71939,-11.41939 -0.5534,-0.5534 -4.20361,-1.81817 -8.11157,-2.81061 -23.5766,-5.98735 -41.773685,-24.41178 -47.836098,-48.43374 L 76.372565,287.5 H 64.936282 53.5 l 0.307616,3.5 c 1.153457,13.12383 9.398889,32.2156 19.118319,44.26724 6.526356,8.09239 16.359046,16.46046 25.459473,21.6672 9.677682,5.53701 27.304242,11.16675 33.614592,10.73615 2.47572,-0.16893 2.50279,-0.27172 2.78679,-10.5838 z m 33.00654,7.29868 c 14.34681,-4.72191 24.69318,-10.92485 35.56817,-21.32412 12.00531,-11.48014 19.57561,-23.91252 24.12938,-39.62663 C 228.8709,298.67257 230,293.02661 230,290.88813 V 287 h -10.44098 c -6.38032,0 -10.69989,0.41891 -11.10668,1.07712 -0.36613,0.59241 -1.29205,3.76206 -2.0576,7.04365 -4.79977,20.57479 -22.86995,39.83564 -43.48186,46.34694 -4.40887,1.39276 -8.87706,2.53229 -9.92932,2.53229 -1.05226,0 -2.37903,0.87042 -2.94838,1.93426 -1.48588,2.77639 -1.33339,19.36753 0.19202,20.89294 1.59478,1.59478 8.0121,0.70275 17.56613,-2.44173 z M 154.5,329.81317 c 13.14677,-2.78052 27.09664,-13.70113 33.61598,-26.31618 4.54188,-8.78863 6.04016,-14.91936 6.04114,-24.71951 0.001,-14.55422 -5.42464,-27.01419 -16.18446,-37.16446 -16.71191,-15.76517 -38.75944,-19.02986 -59.8017,-8.85514 -7.46592,3.61005 -18.803032,14.94716 -22.413081,22.41308 -9.917613,20.51054 -6.92512,42.81333 7.891871,58.81745 13.76664,14.86961 30.59893,20.10787 50.85025,15.82476 z M 133.71759,304.5628 c -20.97157,-7.48181 -24.82185,-33.58474 -6.96306,-47.20608 17.82869,-13.5984 44.24219,1.80387 41.9224,24.44584 -1.71428,16.73196 -19.46445,28.2882 -34.95934,22.76024 z m 17.40006,-16.44515 C 154.58858,284.64671 155,283.70726 155,279.25251 c 0,-13.34764 -17.12216,-18.3004 -24.04048,-6.95396 -5.39236,8.84376 0.83134,19.70145 11.29299,19.70145 4.45475,0 5.3942,-0.41142 8.86514,-3.88235 z M 75.5,271.23469 c 0.55,-0.40408 1.790778,-3.88469 2.757285,-7.73469 3.106549,-12.37469 8.093887,-21.00306 17.667345,-30.5655 9.51489,-9.50394 17.61981,-14.27288 29.63446,-17.43694 3.8175,-1.00534 7.50341,-2.25867 8.19091,-2.78517 1.74831,-1.3389 1.73424,-20.06561 -0.0162,-21.51832 -2.51719,-2.08909 -20.36941,2.57308 -31.75631,8.29328 -16.066831,8.07116 -31.305449,23.31558 -39.475138,39.49017 -5.716643,11.31798 -10.403408,29.23188 -8.308317,31.75631 1.152388,1.38855 19.510285,1.8201 21.305935,0.50086 z m 154.25009,-6.0541 c -0.70648,-7.79126 -5.51095,-21.40927 -10.838,-30.71975 C 207.12139,213.85336 183.68842,196.78699 160.5,191.91898 149.2373,189.55458 149,189.7626 149,202 c 0,5.3947 0.4675,9.20176 1.25,10.17929 0.6875,0.85885 4.39529,2.32696 8.23953,3.26247 12.82194,3.12026 27.40414,12.45105 35.62988,22.79868 5.23474,6.58507 10.34756,17.21608 12.5089,26.00956 l 1.65907,6.75 h 10.9952 10.9952 z M 352.4496,380.60499 C 329.32451,376.18681 311.78787,366.79294 295.94567,350.33747 277.27873,330.94793 268.35039,309.9482 267.31615,283 c -0.43329,-11.28983 -0.16956,-15.18537 1.61086,-23.79443 8.21082,-39.70265 36.40039,-69.40283 75.86718,-79.93274 8.48711,-2.2644 11.65205,-2.58683 25.20581,-2.56788 13.497,0.0189 16.78303,0.36082 25.42862,2.64608 36.65581,9.68909 64.57665,37.70019 74.28992,74.53009 2.08822,7.91791 2.55845,12.0946 2.65914,23.61888 0.1779,20.3609 -2.87985,33.35249 -11.79386,50.10909 -7.72701,14.52526 -19.90153,28.11826 -32.89636,36.72919 -8.59711,5.6968 -23.06273,12.17853 -32.68746,14.64653 -10.82704,2.7763 -32.23301,3.59137 -42.5504,1.62018 z m 9.51522,-14.53925 c 1.48742,-2.77927 1.32222,-18.33017 -0.21482,-20.22206 -0.6875,-0.84621 -3.95,-2.09868 -7.25,-2.78326 -22.79435,-4.72864 -42.98036,-24.84796 -48.50084,-48.3406 L 304.30259,287.5 H 292.9013 281.5 l 0.31693,4.91023 c 0.72762,11.27336 8.54934,29.7274 17.55317,41.41379 12.78077,16.5886 32.95299,29.01818 53.69859,33.08761 6.79589,1.33307 7.78006,1.23949 8.89613,-0.84589 z m 30.73034,-0.65859 c 8.10105,-2.11005 22.80865,-9.46801 30.30484,-15.16099 18.29224,-13.89203 32.19348,-37.02413 34.61105,-57.59391 L 458.27536,287 H 447.15673 436.0381 l -0.57768,2.75 c -5.30721,25.26425 -21.5197,43.91301 -45.04037,51.80864 C 386.42008,342.90139 382.30421,344 381.27368,344 377.69211,344 377,346.02974 377,356.53333 c 0,5.57334 0.33465,10.46799 0.74367,10.87701 0.874,0.87399 7.11603,0.0377 14.95149,-2.00319 z m -8.73787,-36.078 c 8.98667,-2.47922 15.15242,-6.21918 22.61933,-13.7202 16.48782,-16.56315 20.06497,-38.93092 9.6655,-60.43799 -3.61005,-7.46592 -14.94716,-18.80303 -22.41308,-22.41308 -21.04226,-10.17472 -43.08979,-6.91003 -59.8017,8.85514 -10.75982,10.15027 -16.18592,22.61024 -16.18446,37.16446 9.8e-4,9.80015 1.49926,15.93088 6.04114,24.71951 11.13143,21.53953 36.3402,32.37957 60.07327,25.83216 z m -22.07501,-24.64838 c -12.82119,-4.79907 -20.0715,-15.99182 -18.5702,-28.66795 2.68295,-22.65338 30.96149,-31.73498 46.22152,-14.84395 2.01341,2.2286 4.36025,5.68981 5.21521,7.69157 1.93924,4.54043 2.10504,14.37842 0.32957,19.55542 -1.69015,4.92822 -8.25451,12.12319 -13.50402,14.80129 -5.02981,2.56601 -14.80573,3.29261 -19.69208,1.46362 z m 14.0877,-13.96008 c 6.33416,-3.20512 8.82684,-12.26154 5.0705,-18.42214 C 374.12216,260.95211 357,265.90487 357,279.25251 c 0,4.45475 0.41142,5.3942 3.88235,8.86514 3.33309,3.33309 4.50028,3.88026 8.25,3.86761 2.40221,-0.008 5.47914,-0.57717 6.83763,-1.26457 z M 303.66983,270.75 c 0.43333,-0.6875 1.57311,-4.32115 2.53284,-8.07479 5.87187,-22.96548 24.65729,-41.72138 47.3078,-47.23345 3.84424,-0.93551 7.55203,-2.40362 8.23953,-3.26247 C 362.5325,211.20176 363,207.3947 363,202 c 0,-12.26166 -0.21004,-12.44257 -11.69633,-10.07425 -28.87814,5.9543 -54.43322,27.83687 -64.8207,55.50535 -3.03954,8.09623 -5.89594,21.05034 -5.09936,23.1262 0.74301,1.93624 21.07647,2.11206 22.28622,0.1927 z M 458,268.15996 c 0,-10.48306 -9.91991,-33.74102 -19.25039,-45.13395 -9.87042,-12.05221 -25.79118,-23.17664 -40.98299,-28.63636 -7.25686,-2.60801 -18.07279,-4.38044 -19.50045,-3.19558 -1.38855,1.15238 -1.8201,19.51028 -0.50086,21.30593 0.40408,0.55 3.88469,1.8014 7.73469,2.78089 22.35681,5.68785 40.46682,22.25285 47.03326,43.02073 1.35671,4.29089 2.46674,8.60339 2.46674,9.58334 0,0.97994 0.3,2.08171 0.66667,2.44837 0.36666,0.36667 5.54166,0.66667 11.5,0.66667 L 458,271 Z"
         id="path4315" />
    </g>
  </g>
</svg>
