<?xml version="1.0" encoding="UTF-8" standalone="no"?>
<!-- Created with Inkscape (http://www.inkscape.org/) -->

<svg
   version="1.1"
   id="svg4931"
   width="512"
   height="512"
   viewBox="0 0 512 512"
   xmlns="http://www.w3.org/2000/svg"
   xmlns:svg="http://www.w3.org/2000/svg">
  <defs
     id="defs4935" />
  <g
     id="g4937">
    <g
       id="g4941">
      <path
         style="fill:#f4ca59"
         d="M 16.666667,499.33333 C 16.3,498.96667 16,438.06834 16,364.00371 V 229.34076 L 76.605548,170.92038 137.2111,112.5 l 13.14445,-0.24372 c 7.22945,-0.13404 14.15695,-0.48012 15.39445,-0.76905 L 168,110.9619 V 69.087937 C 168,31.826853 167.82575,27.147111 166.41821,26.606989 165.54823,26.273145 130.67323,26 88.918213,26 14.333333,26 12.964874,25.964874 11,24 8.4430195,21.443019 8.4430195,17.556981 11,15 c 1.96785,-1.96785 3.333333,-2 84.943296,-2 h 82.943294 l 1.55671,2.222506 c 1.35445,1.933755 1.5567,8.230382 1.5567,48.464816 0,44.694958 0.0647,46.276948 1.93426,47.277498 2.9532,1.5805 136.27981,1.42111 137.86574,-0.16482 0.89909,-0.89909 1.2,-12.917204 1.2,-47.92742 V 16.14516 l 2.63486,-2.07258 C 328.25339,12.012845 328.79485,12 413,12 c 84.20515,0 84.74661,0.01285 87.36514,2.07258 3.34573,2.631747 3.60317,7.741004 0.5302,10.522432 -2.02283,1.830918 -5.2209,1.924429 -82.25,2.404988 L 338.5,27.5 338.23876,68.934034 c -0.20479,32.479356 0.0113,41.609266 1,42.244866 0.69368,0.44596 35.68624,0.80505 77.76124,0.79798 42.075,-0.007 77.0625,-0.005 77.75,0.005 0.99373,0.0143 1.25,27.65888 1.25,134.84112 v 134.82312 l -14.75,14.50832 C 459.71585,417.33589 381.14188,492.94882 376.7152,496.75 L 372.93041,500 H 195.13187 C 97.342675,500 17.033333,499.7 16.666667,499.33333 Z"
         id="path4955" />
      <path
         style="fill:#f36c82"
         d="M 16.666667,499.33333 C 16.3,498.96667 16,438.06834 16,364.00371 V 229.34076 L 76.605548,170.92038 137.2111,112.5 l 13.14445,-0.24372 c 7.22945,-0.13404 14.15695,-0.48012 15.39445,-0.76905 L 168,110.9619 V 69.087937 C 168,31.826853 167.82575,27.147111 166.41821,26.606989 165.54823,26.273145 130.67323,26 88.918213,26 14.333333,26 12.964874,25.964874 11,24 8.4430195,21.443019 8.4430195,17.556981 11,15 c 1.96785,-1.96785 3.333333,-2 84.943296,-2 h 82.943294 l 1.55671,2.222506 c 1.35445,1.933755 1.5567,8.230382 1.5567,48.464816 0,44.694958 0.0647,46.276948 1.93426,47.277498 2.9532,1.5805 136.27981,1.42111 137.86574,-0.16482 0.89909,-0.89909 1.2,-12.917204 1.2,-47.92742 V 16.14516 l 2.63486,-2.07258 C 328.25339,12.012845 328.79485,12 413,12 c 84.20515,0 84.74661,0.01285 87.36514,2.07258 3.34573,2.631747 3.60317,7.741004 0.5302,10.522432 -2.02283,1.830918 -5.2209,1.924429 -82.25,2.404988 L 338.5,27.5 338.23876,68.934034 c -0.20479,32.479356 0.0113,41.609266 1,42.244866 0.69368,0.44596 35.68624,0.80505 77.76124,0.79798 42.075,-0.007 77.0625,-0.005 77.75,0.005 0.99373,0.0143 1.25,27.65888 1.25,134.84112 v 134.82312 l -14.75,14.50832 C 459.71585,417.33589 381.14188,492.94882 376.7152,496.75 L 372.93041,500 H 195.13187 C 97.342675,500 17.033333,499.7 16.666667,499.33333 Z m 421.077323,-153.735 c 2.00599,-2.5502 11.50601,-35.84691 11.50601,-40.32752 0,-3.6196 -3.54809,-6.27081 -8.39217,-6.27081 -2.43978,0 -4.1237,-0.52928 -4.45834,-1.40132 -0.29575,-0.77073 1.09256,-7.31505 3.08515,-14.54295 2.00003,-7.25491 3.34085,-14.0302 2.99327,-15.12532 -0.34628,-1.09103 -1.72312,-2.7002 -3.05965,-3.57593 -3.93345,-2.57729 -7.94508,-0.33173 -9.82133,5.49759 C 426.98902,277.95459 420,304.48025 420,306.27561 c 0,2.99036 3.68989,5.72312 7.75,5.7397 6.64901,0.0272 6.69906,0.28849 2.78798,14.5574 -4.16848,15.208 -4.33704,17.7542 -1.31547,19.87059 3.18969,2.23415 6.3456,1.92121 8.52148,-0.84497 z"
         id="path4953" />
      <path
         style="fill:#37a6d0"
         d="M 16.666667,499.33333 C 16.3,498.96667 16,438.06834 16,364.00371 V 229.34076 L 76.603459,170.92038 137.20692,112.5 152.19042,112 c 8.24092,-0.275 15.16937,-0.3125 15.39654,-0.0833 0.22717,0.22916 0.41967,9.45416 0.42778,20.5 0.0161,21.92089 0.50017,24.26673 5.33889,25.87224 2.2792,0.75624 3.38635,0.54944 5.5,-1.02735 l 2.64637,-1.9742 0.5,-21.68521 0.5,-21.68521 68.87367,0.0613 c 50.24433,0.0448 69.24596,-0.24762 70.25,-1.08091 C 322.75624,109.95742 323,101.46535 323,62.950135 V 16.14516 l 2.63486,-2.07258 C 328.25339,12.012845 328.79485,12 413,12 c 84.20515,0 84.74661,0.01285 87.36514,2.07258 3.34573,2.631747 3.60317,7.741004 0.5302,10.522432 -2.02283,1.830918 -5.2209,1.924429 -82.25,2.404988 L 338.5,27.5 338.23876,68.934034 c -0.20479,32.479356 0.0113,41.609266 1,42.244866 0.69368,0.44596 35.68624,0.80505 77.76124,0.79798 42.075,-0.007 77.0625,-0.005 77.75,0.005 0.99373,0.0143 1.25,27.65888 1.25,134.84112 v 134.82312 l -14.75,14.50832 C 459.71585,417.33589 381.14188,492.94882 376.7152,496.75 L 372.93041,500 H 195.13187 C 97.342675,500 17.033333,499.7 16.666667,499.33333 Z m 421.077323,-153.735 c 2.00599,-2.5502 11.50601,-35.84691 11.50601,-40.32752 0,-3.6196 -3.54809,-6.27081 -8.39217,-6.27081 -2.43978,0 -4.1237,-0.52928 -4.45834,-1.40132 -0.29575,-0.77073 1.09256,-7.31505 3.08515,-14.54295 2.00003,-7.25491 3.34085,-14.0302 2.99327,-15.12532 -0.34628,-1.09103 -1.72312,-2.7002 -3.05965,-3.57593 -3.93345,-2.57729 -7.94508,-0.33173 -9.82133,5.49759 C 426.98902,277.95459 420,304.48025 420,306.27561 c 0,2.99036 3.68989,5.72312 7.75,5.7397 6.64901,0.0272 6.69906,0.28849 2.78798,14.5574 -4.16848,15.208 -4.33704,17.7542 -1.31547,19.87059 3.18969,2.23415 6.3456,1.92121 8.52148,-0.84497 z"
         id="path4951" />
      <path
         style="fill:#7d848e"
         d="M 16.666667,499.33333 C 16.3,498.96667 16,438.06834 16,364.00371 V 229.34076 L 76.603459,170.92038 137.20692,112.5 152.19042,112 c 8.24092,-0.275 15.16937,-0.3125 15.39654,-0.0833 0.22717,0.22916 0.41967,9.45416 0.42778,20.5 0.0161,21.92089 0.50017,24.26673 5.33889,25.87224 2.2792,0.75624 3.38635,0.54944 5.5,-1.02735 l 2.64637,-1.9742 0.5,-21.68521 0.5,-21.68521 68.87367,0.0613 c 50.24433,0.0448 69.24596,-0.24762 70.25,-1.08091 C 322.75624,109.95742 323,101.46535 323,62.950135 V 16.14516 l 2.63486,-2.07258 C 328.25339,12.012845 328.79485,12 413,12 c 84.20515,0 84.74661,0.01285 87.36514,2.07258 3.34573,2.631747 3.60317,7.741004 0.5302,10.522432 -2.02283,1.830918 -5.2209,1.924429 -82.25,2.404988 L 338.5,27.5 338.23876,68.934034 c -0.20479,32.479356 0.0113,41.609266 1,42.244866 0.69368,0.44596 35.68624,0.80505 77.76124,0.79798 42.075,-0.007 77.0625,-0.005 77.75,0.005 0.99373,0.0143 1.25,27.65888 1.25,134.84112 v 134.82312 l -14.75,14.50832 C 459.71585,417.33589 381.14188,492.94882 376.7152,496.75 L 372.93041,500 H 195.13187 C 97.342675,500 17.033333,499.7 16.666667,499.33333 Z M 444.68161,363.14347 C 454.97966,357.83864 463.246,344.6649 467.67488,326.5 c 2.58261,-10.59249 2.29657,-33.43182 -0.55106,-44 -6.18912,-22.96924 -18.15981,-36.53474 -32.18954,-36.47804 -11.02782,0.0446 -20.1806,7.31759 -26.87095,21.35229 -6.30671,13.22992 -7.56088,19.65338 -7.54158,38.62575 0.0143,14.06762 0.34685,17.6486 2.25583,24.29149 4.84091,16.8454 14.56187,30.48653 24.24959,34.02872 5.46218,1.99717 12.38936,1.53545 17.65444,-1.17674 z m -16.62464,-16.0865 C 425.26626,344.26626 425.44343,340.59214 429,327.5 c 1.64353,-6.05 2.99088,-11.51141 2.99411,-12.13646 0.003,-0.62505 -2.02859,-1.44154 -4.51518,-1.81443 C 422.29724,312.77207 419,309.85782 419,306.05505 c 0,-1.4123 2.2588,-10.88995 5.01956,-21.06143 C 429.3724,265.27209 431.16283,262 436.60122,262 c 3.12641,0 7.40171,4.16818 7.3897,7.20455 -0.005,1.2625 -1.56083,7.88192 -3.45743,14.70982 -1.89659,6.8279 -3.21595,12.7904 -2.9319,13.25 0.28404,0.4596 2.18976,0.83563 4.23492,0.83563 4.60963,0 7.82099,2.14819 8.5976,5.75124 0.73814,3.42463 -8.69465,38.6516 -11.31303,42.24876 -2.46107,3.38103 -8.19251,3.92857 -11.06411,1.05697 z m 9.68702,-1.45864 c 2.00599,-2.5502 11.50601,-35.84691 11.50601,-40.32752 0,-3.6196 -3.54809,-6.27081 -8.39217,-6.27081 -2.43978,0 -4.1237,-0.52928 -4.45834,-1.40132 -0.29575,-0.77073 1.09256,-7.31505 3.08515,-14.54295 2.00003,-7.25491 3.34085,-14.0302 2.99327,-15.12532 -0.34628,-1.09103 -1.72312,-2.7002 -3.05965,-3.57593 -3.93345,-2.57729 -7.94508,-0.33173 -9.82133,5.49759 C 426.98902,277.95459 420,304.48025 420,306.27561 c 0,2.99036 3.68989,5.72312 7.75,5.7397 6.64901,0.0272 6.69906,0.28849 2.78798,14.5574 -4.16848,15.208 -4.33704,17.7542 -1.31547,19.87059 3.18969,2.23415 6.3456,1.92121 8.52148,-0.84497 z"
         id="path4949" />
      <path
         style="fill:#707984"
         d="M 127,364.5 V 231 H 72.45031 c -46.931776,0 -54.438013,-0.1991 -53.75,-1.42566 C 19.140139,228.79022 35.25,212.96389 54.5,194.40471 c 19.25,-18.55918 46.11297,-44.48014 59.69548,-57.60213 l 24.69549,-23.85816 14.30451,0.27779 L 167.5,113.5 l 0.28266,11.24065 0.28267,11.24064 -5.42193,5.25936 c -7.24674,7.02944 -7.8192,9.35568 -7.4465,30.25935 l 0.3031,17 h 20 20 l -0.006,-19 c -0.006,-21.08502 -0.43487,-22.86678 -6.70832,-27.89596 -1.80726,-1.4488 -3.84842,-3.09515 -4.53592,-3.65854 -0.87323,-0.7156 -1.25,-4.62946 -1.25,-12.98493 L 183,113 h 69.3 c 52.56667,0 69.58975,-0.28975 70.5,-1.2 0.89901,-0.89901 1.2,-12.89086 1.2,-47.80887 0,-38.672128 0.24167,-46.939414 1.41919,-48.55 1.38303,-1.891663 3.59969,-1.94792 86.98354,-2.207594 84.64367,-0.263597 85.58604,-0.244767 87.58081,1.75 2.57199,2.571998 2.57908,6.453841 0.0165,9.016464 -1.96665,1.966652 -3.33333,2 -81.96482,2 -78.03541,0 -79.98979,0.04667 -81,1.934259 -1.35913,2.539561 -1.41463,78.937511 -0.0599,82.500641 L 337.95057,113 h 78.52475 78.52475 v 134.26686 134.26685 l -47.16174,45.48315 C 377.88311,494.48213 374.17628,498 373.04226,498 372.32445,498 372,456.43911 372,364.49146 V 230.98292 l -54.75,0.25854 -54.75,0.25854 -0.25365,133.292 -0.25366,133.292 -7.74634,-0.292 L 246.5,497.5 246.24635,364.24092 245.9927,230.98184 194.74635,231.24092 143.5,231.5 143.24635,364.75 142.9927,498 H 134.99635 127 Z m 317.68161,-1.35653 C 454.97966,357.83864 463.246,344.6649 467.67488,326.5 c 2.58261,-10.59249 2.29657,-33.43182 -0.55106,-44 -6.18912,-22.96924 -18.15981,-36.53474 -32.18954,-36.47804 -11.02782,0.0446 -20.1806,7.31759 -26.87095,21.35229 -6.30671,13.22992 -7.56088,19.65338 -7.54158,38.62575 0.0143,14.06762 0.34685,17.6486 2.25583,24.29149 4.84091,16.8454 14.56187,30.48653 24.24959,34.02872 5.46218,1.99717 12.38936,1.53545 17.65444,-1.17674 z M 350,170.46788 c 0,-20.94374 -0.48976,-23.05301 -6.60104,-28.42891 l -3.89896,-3.42979 -0.53418,8.15123 c -0.44461,6.78456 -0.93491,8.57778 -2.92431,10.6954 -3.19721,3.40328 -8.23436,3.44225 -11.58696,0.0896 C 322.28564,155.37655 322,154.2197 322,147.60447 c 0,-4.11754 -0.45307,-7.76645 -1.00682,-8.10869 -1.5024,-0.92853 -6.54537,3.04357 -9.08864,7.15867 -2.03838,3.29817 -2.27781,5.19481 -2.70342,21.41453 -0.25683,9.78773 -0.19627,18.50127 0.13457,19.36344 0.51853,1.35125 3.36594,1.56758 20.63293,1.56758 H 350 Z M 39.923077,452.07692 37,449.15385 V 424 398.84615 L 39.923077,395.92308 42.846154,393 H 76 109.15385 l 2.92307,2.92308 L 115,398.84615 V 424 449.15385 l -2.92308,2.92307 L 109.15385,455 H 76 42.846154 Z M 97.5,424 V 410.5 H 76 54.5 l -0.28234,12.44453 c -0.155287,6.84449 -0.05346,13.04097 0.226273,13.76996 0.40485,1.05502 4.848738,1.27035 21.78234,1.05547 L 97.5,437.5 Z M 159.30576,452.58658 156.5,450.17317 V 424 397.82683 l 2.80576,-2.41341 L 162.11153,393 h 33.02116 33.02116 l 2.92307,2.92308 L 234,398.84615 V 424 449.15385 l -2.92308,2.92307 L 228.15385,455 H 195.13269 162.11153 Z M 216.5,424 V 410.5 H 195 173.5 l -0.28234,12.44453 c -0.15529,6.84449 -0.0535,13.04097 0.22627,13.76996 0.40485,1.05502 4.84874,1.27035 21.78234,1.05547 L 216.5,437.5 Z m 63.70557,29.9524 c -4.69963,-1.8861 -5.36176,-6.1133 -5.01994,-32.04843 0.30683,-23.2803 0.36895,-23.90672 2.59086,-26.12806 2.26117,-2.26059 2.49346,-2.27788 34.5,-2.56907 17.72293,-0.16124 33.22356,-0.0433 34.44583,0.2621 1.22228,0.3054 3.13478,1.53468 4.25,2.73173 1.92912,2.07066 2.02613,3.41891 1.99588,27.73789 -0.0334,26.81585 -0.13892,27.49417 -4.65246,29.8981 -2.67478,1.4246 -64.58673,1.52981 -68.11017,0.11574 z m 55.57278,-30.22198 0.27834,-13.76958 -21.77834,0.26958 L 292.5,410.5 l -0.28234,12.44453 c -0.15529,6.84449 -0.0535,13.04097 0.22627,13.76996 0.40485,1.05502 4.84874,1.27035 21.78234,1.05547 L 335.5,437.5 Z M 39.355764,341.62959 C 37.257172,339.82446 36.6,338.36272 36.6,335.5 c 0,-2.86272 0.657172,-4.32446 2.755764,-6.12959 L 42.111527,327 h 32.493897 c 34.047426,0 37.169836,0.36599 38.773396,4.5448 0.99037,2.58086 0.66264,6.81835 -0.66062,8.54186 C 109.88146,343.78141 107.75345,344 74.621505,344 H 42.111527 Z m 119.098786,-0.0841 C 156.75988,339.85079 156,337.97924 156,335.5 c 0,-2.47924 0.75988,-4.35079 2.45455,-6.04545 L 160.90909,327 H 194.5 228.09091 l 2.45454,2.45455 C 232.24012,331.14921 233,333.02076 233,335.5 c 0,2.47924 -0.75988,4.35079 -2.45455,6.04545 L 228.09091,344 H 194.5 160.90909 l -2.45454,-2.45455 z m 119,0 C 275.75988,339.85079 275,337.97924 275,335.5 c 0,-2.47924 0.75988,-4.35079 2.45455,-6.04545 L 279.90909,327 h 33.48969 c 33.43773,0 33.49381,0.004 36.14546,2.28439 3.73758,3.21494 3.73758,9.21628 0,12.43122 C 346.89259,343.99646 346.83651,344 313.39878,344 h -33.48969 l -2.45454,-2.45455 z M 41,316.70599 C 35.568791,313.95884 34.913936,306.78606 39.747236,302.98418 42.148694,301.0952 43.872686,301 75.680313,301 h 33.410597 l 2.45454,2.45455 c 3.61399,3.61398 3.35397,8.61085 -0.62218,11.95656 L 107.84655,318 75.673275,317.98526 C 51.747231,317.9743 42.859155,317.64637 41,316.70599 Z m 119.5,0.13928 c -3.24718,-1.77607 -4.5,-3.99324 -4.5,-7.96382 0,-2.8453 0.62833,-4.23053 2.63486,-5.80887 C 161.18106,301.06974 162.39391,301 194.68031,301 h 33.4106 l 2.45454,2.45455 c 1.50178,1.50177 2.45455,3.60493 2.45455,5.41821 0,8.91469 -0.92853,9.13295 -38.70034,9.09683 -21.07848,-0.0202 -32.47396,-0.39922 -33.79966,-1.12432 z m 119,-0.0531 c -5.12756,-2.94065 -6.10021,-9.28288 -2.04545,-13.33763 L 279.90909,301 h 33.4106 c 31.76966,0 33.53406,0.0971 35.92457,1.9775 1.38269,1.08762 2.72371,3.07462 2.98005,4.41555 0.68117,3.56331 -1.74147,8.47288 -4.74434,9.61456 -3.8209,1.45271 -65.41161,1.25752 -67.97997,-0.21543 z M 41.384345,290.58637 c -3.817424,-1.68697 -5.733459,-6.28645 -4.314468,-10.35698 1.920284,-5.50852 2.980712,-5.70068 33.430123,-6.05762 32.62277,-0.38242 37.80502,0.0423 41.13417,3.3715 3.08816,3.08815 3.06965,7.52659 -0.0465,11.15097 l -2.41232,2.80576 -32.337676,0.23161 c -25.678616,0.18392 -32.979258,-0.0519 -35.453329,-1.14524 z M 162,291.31398 c -6.25037,-2.36905 -8.06889,-10.02173 -3.41944,-14.38967 L 161.16113,274.5 H 194.5 227.83887 l 2.58057,2.42431 c 3.55501,3.33976 3.55561,8.81057 0.001,12.15138 l -2.57923,2.42431 -32.17077,0.19126 C 177.97685,291.79645 162.825,291.62667 162,291.31398 Z m 119,-0.0202 c -6.05916,-2.21496 -7.81684,-9.07005 -3.58658,-13.98801 l 2.41341,-2.80576 h 33.50602 33.50602 l 2.58057,2.42431 c 2.74409,2.57794 3.46605,7.55261 1.60167,11.03625 -1.91614,3.58034 -6.33613,4.04198 -37.92033,3.96049 C 296.27035,291.87763 281.825,291.59536 281,291.29377 Z"
         id="path4947" />
      <path
         style="fill:#626b76"
         d="m 129,364.62244 c 0,-110.34923 -0.23167,-133.56982 -1.34181,-134.49115 -0.93982,-0.77999 -17.27687,-1.19115 -54.532348,-1.37245 L 19.935301,228.5 l 59.141191,-57 59.141188,-57 14.39116,-0.27673 L 167,113.94653 v 10.81497 10.81498 l -4.59146,3.83798 c -8.25861,6.90334 -8.40055,7.40384 -8.4048,29.63554 -0.003,13.87663 0.3445,19.89824 1.19626,20.75 1.87631,1.87631 39.15859,1.67778 40.73103,-0.2169 0.82869,-0.9985 1.11837,-7.21781 0.98103,-21.06196 -0.22039,-22.21532 -0.4776,-23.08014 -8.62364,-28.99569 L 184.12221,136.5 184.0611,125.25 184,114 h 68.06574 c 45.00709,0 68.72101,-0.35069 70,-1.03518 C 323.93584,111.96397 324,110.37535 324,65.0756 c 0,-44.642229 0.0902,-46.965476 1.91165,-49.214816 L 327.82329,13.5 h 84.98337 c 82.16717,0 85.05312,0.06313 87.08835,1.904988 2.68701,2.431712 2.68714,5.758116 3.2e-4,8.190024 -2.02747,1.835114 -5.04261,1.914806 -82.2019,2.172655 -62.13564,0.207643 -80.27277,0.544014 -80.88002,1.5 -0.43053,0.677783 -0.78968,19.76269 -0.7981,42.410904 -0.0135,36.308099 0.17263,41.366509 1.57368,42.767559 1.42563,1.42564 9.57244,1.58346 79.25,1.5353 l 77.66101,-0.0537 0.25366,133.11839 c 0.13951,73.21511 -0.0855,133.67092 -0.5,134.34624 C 492.82488,383.72012 374.98718,497 373.99455,497 373.34014,497 373,451.58148 373,364.2 c 0,-101.95556 -0.27871,-133.07871 -1.2,-134 -0.90384,-0.90384 -14.41594,-1.19622 -54.75,-1.18469 -29.4525,0.008 -54.11085,0.37146 -54.79633,0.80675 -0.98285,0.62412 -1.29997,29.00282 -1.5,134.23469 L 260.5,497.5 l -6.25,0.29772 -6.25,0.29771 V 364.15471 C 248,242.94077 247.8497,230.1563 246.41821,229.60699 245.54823,229.27314 222.18037,229 194.48964,229 c -44.43647,0 -50.53126,0.18447 -51.91821,1.57143 C 141.15862,231.98424 141,245.56061 141,365.07143 V 498 h -6 -6 z m 312.30201,-0.0664 c 17.74247,-6.3286 30.00839,-33.8304 28.34628,-63.55606 -1.38971,-24.85404 -11.60726,-46.4449 -25.0616,-52.95804 -5.68737,-2.7532 -14.3031,-2.73745 -19.7397,0.0361 -10.37426,5.29255 -19.37391,19.95054 -22.97617,37.42194 -2.70503,13.11977 -2.22064,34.07816 1.04746,45.321 7.33681,25.23993 23.17496,39.15992 38.38373,33.73506 z m -90.53122,-194.9723 0.2708,-20.91625 -2.64187,-3.81221 c -2.74308,-3.95826 -8.22361,-8.08218 -9.60573,-7.22798 C 338.3573,137.89721 338,141.63079 338,145.92416 338,155.49922 335.9726,159 330.42742,159 c -5.53377,0 -7.42485,-2.73202 -7.44107,-10.75 -0.0144,-7.12159 -0.73187,-11.25 -1.9551,-11.25 -1.73286,0 -7.66407,4.81531 -9.75745,7.92168 -2.18304,3.23941 -2.2738,4.19975 -2.2738,24.05954 0,11.37699 0.30905,20.9945 0.68678,21.37222 0.37772,0.37773 9.71522,0.56523 20.75,0.41667 L 350.5,190.5 350.77079,169.58376 Z M 40.454545,451.54545 38,449.09091 V 424 398.90909 L 40.454545,396.45455 42.909091,394 H 76 109.09091 l 2.45454,2.45455 L 114,398.90909 V 424 449.09091 l -2.45455,2.45454 L 109.09091,454 H 76 42.909091 Z M 97.8,437.8 c 1.377084,-1.37708 1.694606,-25.47247 0.36331,-27.57 -0.620324,-0.97735 -5.859067,-1.20778 -22.734688,-1 L 53.5,409.5 53.219585,422.94955 c -0.154228,7.39725 -0.05585,14.03475 0.218615,14.75 0.690668,1.79985 42.567576,1.89467 44.3618,0.10045 z m 62.06078,14.28979 c -2.35452,-1.90514 -2.36157,-1.97808 -2.65887,-27.49737 l -0.29809,-25.58715 2.50264,-2.50264 L 161.90909,394 H 195 228.09091 l 2.45454,2.45455 L 233,398.90909 V 424 449.09091 l -2.45455,2.45454 L 228.09091,454 h -32.93467 c -30.92805,0 -33.07851,-0.11638 -35.29546,-1.91021 z M 217.5,424 v -14.5 l -21.37314,-0.27025 c -14.92258,-0.18868 -21.78869,0.0746 -22.75,0.87245 -1.84617,1.53219 -1.98499,25.88967 -0.15797,27.71669 0.90042,0.90042 6.84456,1.14864 22.75,0.95 L 217.5,438.5 Z m 62.86408,28.83041 c -1.17475,-0.56883 -2.63725,-2.13454 -3.25,-3.47937 -1.51788,-3.33139 -1.52119,-47.36343 -0.004,-50.69372 C 279.11263,394.26263 281.2443,394 314.91219,394 c 30.67531,0 31.91273,0.0744 34.45295,2.07258 L 352,398.14516 V 424 449.85484 l -2.63486,2.07258 c -2.54576,2.0025 -3.72081,2.07029 -34.75,2.0049 -19.93196,-0.042 -32.92542,-0.46003 -34.25106,-1.10191 z M 336.5,424 v -14.5 h -22 -22 l -0.28041,13.44955 c -0.15423,7.39725 -0.0525,14.04356 0.22612,14.76957 0.40256,1.04906 4.97595,1.26468 22.28041,1.05045 L 336.5,438.5 Z M 41.22896,342.33071 c -0.699072,-0.28127 -1.972025,-1.86696 -2.828784,-3.52375 -1.283875,-2.48274 -1.343969,-3.52844 -0.34181,-5.94787 0.668764,-1.61454 2.024633,-3.36833 3.013043,-3.89731 C 42.115905,328.40279 56.450259,328 75.2994,328 c 31.29525,0 32.52315,0.0726 35.06574,2.07258 3.64388,2.86628 3.64388,7.98856 0,10.85484 -2.54831,2.0045 -3.70619,2.06999 -35.249999,1.99363 -17.938327,-0.0434 -33.187109,-0.30907 -33.886181,-0.59034 z m 117.9596,-1.36967 C 157.76072,339.63081 157,337.73261 157,335.5 c 0,-2.23261 0.76072,-4.13081 2.18856,-5.46104 C 161.29977,328.07207 162.54834,328 194.51425,328 h 33.13712 l 2.17432,2.31445 c 2.88825,3.0744 2.82625,7.72446 -0.14014,10.51124 -2.27977,2.14172 -2.80897,2.17431 -35.31144,2.17431 -31.82488,0 -33.07473,-0.0724 -35.18555,-2.03896 z m 118.98575,-0.27549 c -3.07666,-3.27496 -2.87198,-7.9916 0.46055,-10.61297 2.54259,-2 3.77049,-2.07258 35.06574,-2.07258 18.84914,0 33.18349,0.40279 34.22799,0.96178 0.98841,0.52898 2.34428,2.28277 3.01304,3.89731 1.00041,2.4152 0.94265,3.464 -0.32586,5.91704 -0.84799,1.63983 -2.27025,3.26104 -3.16057,3.60269 C 346.56487,342.72047 331.10167,343 313.09253,343 h -32.7439 z M 41.321178,315.81127 C 36.512445,313.48644 36.241698,305.54657 40.886391,303.0608 42.168305,302.37474 54.487851,302 75.759945,302 h 32.891425 l 2.17432,2.31445 c 2.88427,3.07017 2.77173,7.17904 -0.28024,10.231 L 108.09091,317 75.795455,316.93232 C 55.360757,316.8895 42.699811,316.47778 41.321178,315.81127 Z M 159.63486,314.92742 C 156.33332,312.33043 156.02234,306.97766 159,304 c 1.9204,-1.9204 3.33333,-2 35.5,-2 32.16667,0 33.5796,0.0796 35.5,2 2.97766,2.97766 2.66668,8.33043 -0.63486,10.92742 C 226.82331,316.92682 225.59231,317 194.5,317 c -31.09231,0 -32.32331,-0.0732 -34.86514,-2.07258 z m 119,0 C 275.33332,312.33043 275.02234,306.97766 278,304 c 1.92013,-1.92013 3.33333,-2 35.38922,-2 30.95878,0 33.55499,0.13424 35.66666,1.84417 3.29606,2.66898 3.08587,7.77698 -0.44498,10.81409 L 345.88847,317 h -32.30938 c -31.17233,0 -32.4021,-0.0729 -34.94423,-2.07258 z M 42.356999,290.00842 C 39.795873,288.97488 37,285.23009 37,282.83326 c 0,-0.94695 1.085474,-2.98433 2.412165,-4.5275 L 41.824331,275.5 73.319437,275.19784 c 34.935633,-0.33518 37.958883,0.0786 39.288623,5.37669 0.92679,3.69263 -0.6331,7.62584 -3.62467,9.13947 -2.91761,1.47621 -63.039556,1.74189 -66.626391,0.29442 z M 162,290.31077 c -5.28032,-2.01267 -6.90953,-9.2713 -2.89671,-12.90578 1.95321,-1.76906 4.2544,-1.92713 32.25,-2.21523 16.58069,-0.17063 31.63431,-0.033 33.45249,0.30578 1.81817,0.33881 4.18067,1.49091 5.25,2.56024 2.63964,2.63964 2.55739,8.07896 -0.15937,10.53923 -1.96693,1.78124 -4.19192,1.91741 -34.25,2.09625 -17.68053,0.10519 -32.82141,-0.066 -33.64641,-0.38049 z m 118.01661,-0.57545 c -2.99444,-1.54078 -4.55027,-5.47291 -3.62467,-9.16079 1.3291,-5.29556 4.36252,-5.7119 39.17445,-5.37669 30.77664,0.29634 31.42317,0.34442 33.57394,2.4966 2.87322,2.87512 2.87314,7.73615 -1.8e-4,10.61112 -2.15583,2.15705 -2.74219,2.19881 -34.41667,2.45102 -24.60867,0.19594 -32.81034,-0.0454 -34.70687,-1.02126 z"
         id="path4945" />
      <path
         style="fill:#414751"
         d="M 374,362.21364 V 229.42727 l 47.6743,-45.96363 c 26.22087,-25.28 53.22087,-51.29769 60,-57.81707 L 494,113.79313 493.93779,247.64657 493.87559,381.5 434.98418,438.25 C 402.59391,469.4625 375.6219,495 375.04639,495 374.32312,495 374,453.99575 374,362.21364 Z m 70.78147,2.20797 c 10.11954,-5.04278 19.40843,-19.04317 23.83304,-35.92161 2.79377,-10.65732 2.54771,-36.11318 -0.45431,-47 -5.75538,-20.87189 -17.1619,-34.80395 -30.31409,-37.026 -14.28374,-2.41322 -30.10169,13.36487 -36.22741,36.13614 -0.90403,3.36057 -2.05728,10.48164 -2.56277,15.82459 -4.13087,43.66234 20.63733,80.48886 45.72554,67.98688 z M 43.315372,452.01371 C 39.347728,450.37754 39,448.09416 39,423.67653 c 0,-21.60365 0.150888,-23.6413 1.911647,-25.81575 L 42.823294,395.5 h 33.052639 c 30.397197,0 33.196107,0.14346 34.838357,1.78571 1.61877,1.61878 1.78571,4.11619 1.78571,26.71429 0,22.59091 -0.16733,25.09603 -1.78443,26.71429 -1.62881,1.62997 -4.55041,1.80379 -33.5,1.99301 -17.443563,0.11401 -32.698653,-0.1981 -33.900198,-0.69359 z M 99.5,424 V 408.5 H 76 52.5 l -0.278701,14.45401 c -0.153286,7.94971 -0.05172,15.04553 0.22571,15.76849 0.400886,1.0447 5.28124,1.25938 23.778702,1.04599 L 99.5,439.5 Z m 62.56281,27.75685 c -3.70437,-1.91033 -4.22663,-5.99848 -3.8801,-30.37243 0.28196,-19.83223 0.5161,-22.51549 2.103,-24.10066 1.64149,-1.63968 4.45539,-1.78376 34.83836,-1.78376 h 33.05264 l 1.91164,2.36078 C 231.85076,400.03727 232,402.07787 232,424 c 0,21.91707 -0.14956,23.96323 -1.91059,26.13922 l -1.91058,2.36078 -31.83942,0.25685 c -24.02907,0.19384 -32.43726,-0.0515 -34.2766,-1 z M 218.5,424 V 408.5 H 195 171.5 l -0.2787,14.45401 c -0.15329,7.94971 -0.0517,15.04553 0.22571,15.76849 0.40089,1.0447 5.28124,1.25938 23.7787,1.04599 L 218.5,439.5 Z m 63.5,28.32648 c -3.7546,-1.39308 -4,-3.13093 -4,-28.32648 0,-19.67421 0.28484,-25.00754 1.41843,-26.55887 1.346,-1.84202 3.08233,-1.9559 34.0061,-2.23048 l 32.58768,-0.28935 2.49389,2.4939 2.4939,2.49389 v 23.93467 c 0,22.07088 -0.14878,24.11851 -1.91059,26.29546 l -1.91058,2.36078 -31.83942,0.19152 C 297.82774,452.79685 282.825,452.63259 282,452.32648 Z M 337.5,424 v -15.5 l -22.9291,-0.26923 c -17.6763,-0.20756 -23.11364,0.0215 -23.73468,1 -0.93799,1.47782 -1.13098,26.83752 -0.22227,29.20559 0.5425,1.41372 3.30682,1.56873 23.75,1.33179 L 337.5,439.5 Z M 41.222506,340.4433 C 39.669787,339.35573 39,337.86599 39,335.5 c 0,-6.39649 0.574682,-6.5 36.087648,-6.5 30.497802,0 31.737962,0.075 34.277492,2.07258 3.29086,2.58859 3.34866,5.30453 0.18031,8.47287 L 107.09091,342 H 75.267961 c -27.183786,0 -32.146946,-0.22694 -34.045455,-1.5567 z m 120.057414,0.53661 c -4.37323,-1.75971 -4.11892,-9.33022 0.37075,-11.03719 3.7405,-1.42214 62.65227,-1.21744 65.82625,0.22872 4.60662,2.09892 4.58044,8.57013 -0.0432,10.6768 -3.0595,1.394 -62.72155,1.51275 -66.15381,0.13167 z m 118.35494,-1.05249 c -3.4175,-2.6882 -3.3982,-6.18181 0.0491,-8.89348 2.62403,-2.06406 3.40762,-2.10477 35.08157,-1.82258 30.73601,0.27384 32.47034,0.3882 33.81602,2.22977 1.99827,2.73464 1.76174,6.21556 -0.58157,8.55887 -1.91631,1.91631 -3.33333,2 -33.86514,2 -30.72291,0 -31.95959,-0.0743 -34.5,-2.07258 z M 43.02823,314.90775 C 39.957629,313.65632 39.034909,312.25346 39.015313,308.8067 38.983445,303.20163 40.25804,303 75.722506,303 c 30.944164,0 32.360114,0.0826 34.277494,2 2.51208,2.51208 2.54063,5.1104 0.0894,8.13922 L 108.17888,315.5 76.839438,315.70757 C 57.592174,315.83505 44.546279,315.52644 43.02823,314.90775 Z M 163,315.31129 c -5.05368,-1.92804 -6.48019,-6.8311 -3,-10.31129 1.91795,-1.91795 3.33333,-2 34.5,-2 31.16667,0 32.58205,0.082 34.5,2 2.59088,2.59088 2.54747,6.19422 -0.10353,8.59501 -1.96356,1.77824 -4.17595,1.91775 -33.25,2.09677 C 178.51591,315.79726 163.825,315.62604 163,315.31129 Z m 119,-0.0207 c -5.03463,-1.8512 -6.48033,-6.81023 -3,-10.29056 1.91738,-1.91738 3.33333,-2 34.27749,-2 35.46447,0 36.73906,0.20163 36.7072,5.8067 -0.0388,6.82151 -2.03183,7.20682 -36.79979,7.11435 C 296.85821,315.87763 282.825,315.59391 282,315.29056 Z M 40.654988,287.17126 c -2.185696,-2.41517 -2.103261,-6.4556 0.173753,-8.51627 1.623112,-1.4689 5.502373,-1.65499 34.5,-1.65499 31.337929,0 32.752879,0.0816 34.671259,2 2.40261,2.40261 2.53847,4.78621 0.4433,7.77749 C 108.88766,288.99848 108.86386,289 75.598284,289 44.619103,289 42.195173,288.87314 40.654988,287.17126 Z m 119.000002,0 c -2.1857,-2.41517 -2.10326,-6.4556 0.17375,-8.51627 1.62417,-1.46985 5.53318,-1.65499 34.9433,-1.65499 33.08602,0 33.11589,0.002 34.67126,2.22251 2.07224,2.95854 1.96716,6.09605 -0.27204,8.1225 -1.62393,1.46964 -5.52635,1.65499 -34.84501,1.65499 -30.71564,0 -33.1316,-0.12743 -34.67126,-1.82874 z M 278.5567,286.77749 C 276.46153,283.78621 276.59739,281.40261 279,279 c 1.91881,-1.91881 3.33333,-2 34.84501,-2 30.54972,0 32.96067,0.1278 34.5,1.82874 2.1857,2.41517 2.10326,6.4556 -0.17375,8.51627 -1.62417,1.46985 -5.53318,1.65499 -34.9433,1.65499 -33.08602,0 -33.11589,-0.002 -34.67126,-2.22251 z M 124.75,188.93539 c -1.01763,-0.60172 -1.75,-2.23184 -1.75,-3.89518 0,-2.37281 2.41409,-5.17705 14.16158,-16.45031 C 144.95045,161.11545 151.71107,155 152.18519,155 c 0.47412,0 0.73891,7.7625 0.58842,17.25 L 152.5,189.5 l -13,0.23508 c -7.61248,0.13766 -13.72524,-0.19376 -14.75,-0.79969 z m 73.91667,0.39794 C 198.3,188.96667 198,180.41667 198,170.33333 V 152 h 54.5 54.5 v 19 19 h -53.83333 c -29.60834,0 -54.13334,-0.3 -54.5,-0.66667 z M 352.79582,171.75 c -0.21914,-10.0375 -0.23629,-18.5875 -0.0381,-19 0.19818,-0.4125 7.89377,-0.75 17.10131,-0.75 18.00967,0 19.14098,0.30217 19.14098,5.11254 0,2.2056 -2.979,5.53217 -15.94024,17.8 C 363.64568,183.82298 356.31599,190 355.15689,190 c -1.86392,0 -1.98266,-0.91785 -2.36107,-18.25 z m -26.68366,-15.63784 c -1.64299,-1.64299 -1.98276,-4.16651 -2.61978,-19.45718 -0.40257,-9.66314 -0.38289,-19.05111 0.0437,-20.86216 0.42663,-1.81105 0.94341,-24.646618 1.14841,-50.745705 0.33051,-42.078993 0.5569,-47.656402 1.99909,-49.25 C 328.22441,14.094551 332.77013,14 413.08356,14 c 92.13018,0 87.94031,-0.25365 87.90113,5.321429 -0.0384,5.462707 4.72237,5.137767 -83.19802,5.678571 L 336.5,25.5 v 64.144889 c 0,61.675101 -0.0734,64.225941 -1.90499,66.250001 -2.36435,2.61273 -5.99441,2.70571 -8.48285,0.21727 z"
         id="path4943" />
    </g>
  </g>
</svg>
