<?xml version="1.0" encoding="UTF-8" standalone="no"?>
<!-- Created with Inkscape (http://www.inkscape.org/) -->

<svg
   version="1.1"
   id="svg2354"
   width="546.1333"
   height="546.1333"
   viewBox="0 0 546.1333 546.1333"
   xmlns="http://www.w3.org/2000/svg"
   xmlns:svg="http://www.w3.org/2000/svg">
  <defs
     id="defs2358" />
  <g
     id="g2360">
    <g
       id="g2364">
      <path
         style="fill:#e5e5e5;stroke-width:1.06667"
         d="M 21.333332,397.86664 V 270.93332 H 53.33333 85.333328 V 397.86664 524.79997 H 53.33333 21.333332 Z m 39.384613,-1.14871 3.282051,-3.28206 v -25.43589 -25.43589 l -3.282051,-3.28206 c -2.527179,-2.52718 -4.225641,-3.28205 -7.384615,-3.28205 -3.158974,0 -4.857435,0.75487 -7.384615,3.28205 l -3.282051,3.28206 v 25.43589 25.43589 l 3.282051,3.28206 c 2.52718,2.52718 4.225641,3.28205 7.384615,3.28205 3.158974,0 4.857436,-0.75487 7.384615,-3.28205 z m 0,-85.33333 c 4.578408,-4.57841 4.578408,-10.19083 0,-14.76924 -2.527179,-2.52718 -4.225641,-3.28204 -7.384615,-3.28204 -5.768455,0 -10.666666,4.8982 -10.666666,10.66666 0,5.76846 4.898211,10.66667 10.666666,10.66667 3.158974,0 4.857436,-0.75487 7.384615,-3.28205 z m 88.615375,86.48204 V 270.93332 h 32 32 v 126.93332 126.93333 h -32 -32 z m 39.38462,-1.14871 3.28205,-3.28206 v -25.43589 -25.43589 l -3.28205,-3.28206 c -2.52718,-2.52718 -4.22564,-3.28205 -7.38462,-3.28205 -3.15897,0 -4.85744,0.75487 -7.38462,3.28205 l -3.28204,3.28206 v 25.43589 25.43589 l 3.28204,3.28206 c 2.52718,2.52718 4.22565,3.28205 7.38462,3.28205 3.15898,0 4.85744,-0.75487 7.38462,-3.28205 z m 0,-85.33333 c 4.57841,-4.57841 4.57841,-10.19083 0,-14.76924 -2.52718,-2.52718 -4.22564,-3.28204 -7.38462,-3.28204 -5.76846,0 -10.66666,4.8982 -10.66666,10.66666 0,5.76846 4.8982,10.66667 10.66666,10.66667 3.15898,0 4.85744,-0.75487 7.38462,-3.28205 z m 88.61538,86.48204 V 270.93332 h 31.99999 32 v 126.93332 126.93333 h -32 -31.99999 z m 39.38461,-1.14871 3.28205,-3.28206 v -25.43589 -25.43589 l -3.28205,-3.28206 c -2.52718,-2.52718 -4.22564,-3.28205 -7.38462,-3.28205 -3.15897,0 -4.85744,0.75487 -7.38461,3.28205 l -3.28205,3.28206 v 25.43589 25.43589 l 3.28205,3.28206 c 2.52717,2.52718 4.22564,3.28205 7.38461,3.28205 3.15898,0 4.85744,-0.75487 7.38462,-3.28205 z m 0,-85.33333 c 2.52718,-2.52718 3.28205,-4.22564 3.28205,-7.38462 0,-5.76846 -4.89821,-10.66666 -10.66667,-10.66666 -5.76845,0 -10.66666,4.8982 -10.66666,10.66666 0,3.15898 0.75487,4.85744 3.28205,7.38462 2.52717,2.52718 4.22564,3.28205 7.38461,3.28205 3.15898,0 4.85744,-0.75487 7.38462,-3.28205 z m 73.14871,127.01537 c 1.06186,-1.17333 2.17065,-2.13333 2.46398,-2.13333 0.29333,0 -0.33545,0.96 -1.39731,2.13333 -1.06186,1.17334 -2.17065,2.13334 -2.46398,2.13334 -0.29333,0 0.33546,-0.96 1.39731,-2.13334 z m 149.23198,-0.26666 -2.03199,-2.4 2.4,2.03199 c 1.32,1.11759 2.4,2.19759 2.4,2.4 0,0.8536 -0.85844,0.22341 -2.76801,-2.03199 z m -139.63198,-10.4 c 1.06186,-1.17334 2.17065,-2.13334 2.46398,-2.13334 0.29333,0 -0.33546,0.96 -1.39731,2.13334 -1.06186,1.17333 -2.17065,2.13333 -2.46398,2.13333 -0.29333,0 0.33546,-0.96 1.39731,-2.13333 z m 130.03198,-0.26667 -2.03199,-2.4 2.4,2.03199 c 1.32,1.11759 2.4,2.19759 2.4,2.4 0,0.8536 -0.85844,0.22341 -2.76801,-2.03199 z m -120.43198,-10.4 c 1.06186,-1.17333 2.17065,-2.13333 2.46398,-2.13333 0.29333,0 -0.33546,0.96 -1.39731,2.13333 -1.06186,1.17333 -2.17065,2.13333 -2.46398,2.13333 -0.29333,0 0.33546,-0.96 1.39731,-2.13333 z m 110.83198,-0.26667 -2.03198,-2.4 2.39999,2.03199 c 2.25541,1.90957 2.88559,2.76801 2.03199,2.76801 -0.20241,0 -1.28241,-1.08 -2.4,-2.4 z M 418.66664,406.39998 c 1.06186,-1.17334 2.17065,-2.13334 2.46398,-2.13334 0.29333,0 -0.33546,0.96 -1.39731,2.13334 -1.06186,1.17333 -2.17065,2.13333 -2.46398,2.13333 -0.29333,0 0.33546,-0.96 1.39731,-2.13333 z m 91.63198,-0.26667 -2.03198,-2.4 2.4,2.03199 c 2.2554,1.90957 2.88558,2.76801 2.03198,2.76801 -0.20241,0 -1.28241,-1.08 -2.4,-2.4 z m -66.56531,-88.26666 v -78.93333 h 21.33333 21.33333 v 78.93333 78.93333 H 465.06664 443.73331 Z M 11.733333,205.53288 c 0,-0.18357 1.56,-1.74357 3.466666,-3.46666 l 3.466667,-3.1329 -3.132897,3.46667 c -2.9203,3.23142 -3.800436,3.95696 -3.800436,3.13289 z m 79.399559,-3.13289 -3.132897,-3.46667 3.466666,3.1329 c 3.231419,2.9203 3.956962,3.80043 3.132897,3.80043 -0.183573,0 -1.743573,-1.56 -3.466666,-3.46666 z m 48.600428,3.13289 c 0,-0.18357 1.56,-1.74357 3.46667,-3.46666 l 3.46667,-3.1329 -3.1329,3.46667 c -2.9203,3.23142 -3.80044,3.95696 -3.80044,3.13289 z m 79.39956,-3.13289 -3.13289,-3.46667 3.46666,3.1329 c 3.23143,2.9203 3.95696,3.80043 3.1329,3.80043 -0.18357,0 -1.74357,-1.56 -3.46667,-3.46666 z m 48.60044,3.13289 c 0,-0.18357 1.56,-1.74357 3.46666,-3.46666 l 3.46667,-3.1329 -3.1329,3.46667 c -2.92029,3.23142 -3.80043,3.95696 -3.80043,3.13289 z m 79.39955,-3.13289 -3.13289,-3.46667 3.46667,3.1329 c 3.23142,2.9203 3.95696,3.80043 3.13289,3.80043 -0.18357,0 -1.74357,-1.56 -3.46667,-3.46666 z"
         id="path2378" />
      <path
         style="fill:#70d6fd;stroke-width:1.06667"
         d="m 405.33331,492.79997 v -32 h 59.73333 59.73333 v 32 32 h -59.73333 -59.73333 z m 38.4,-315.84602 c 0,-44.06391 -0.37792,-47.72243 -6.09503,-59.0046 -3.51885,-6.94411 -15.31022,-18.735483 -22.25433,-22.254332 -11.04842,-5.598657 -15.41263,-6.095023 -53.58922,-6.095023 h -35.23064 l -3.28206,3.282051 -3.28205,3.282051 v 45.251273 45.25129 h -8.97942 c -4.93869,0 -9.73869,0.29134 -10.66667,0.64745 -1.52243,0.58421 -1.68724,-3.83587 -1.68724,-45.25128 V 96.164097 l -3.28205,-3.282051 -3.28206,-3.282051 h -46.76922 -46.76923 l -3.28205,3.282051 -3.28205,3.282051 v 45.180443 45.18043 l -10.66899,0.33751 -10.66899,0.33751 0.002,-45.51795 0.003,-45.517943 -3.28205,-3.282051 -3.28206,-3.282051 h -26.69731 c -36.30893,0 -43.655567,2.029631 -57.515589,15.889655 -13.713488,13.71349 -15.889655,21.38264 -15.889655,55.99764 v 25.17937 h -8.979427 c -4.938683,0 -9.795333,0.31308 -10.792554,0.69576 -1.686911,0.64733 -1.775066,-1.30183 -1.266363,-28 0.601545,-31.57083 1.204781,-35.3985 7.716413,-48.96243 9.136764,-19.032144 26.979431,-33.614478 48.521929,-39.65567 6.566546,-1.841467 15.312946,-1.944324 165.333326,-1.944324 150.02037,0 158.76677,0.102858 165.33332,1.944324 21.5425,6.041192 39.38516,20.623526 48.52193,39.65567 7.08182,14.75165 7.20829,15.79482 7.72616,63.73333 l 0.46958,43.46667 h -21.4255 -21.4255 z"
         id="path2376" />
      <path
         style="fill:#bcee7b;stroke-width:1.06667"
         d="m 423.06412,434.91086 c 2.27472,-2.50568 6.6205,-7.30568 9.65729,-10.66666 l 5.52144,-6.11089 h 26.82379 26.82378 l 5.52144,6.11089 c 3.03679,3.36098 7.38257,8.16098 9.65729,10.66666 l 4.13585,4.55578 H 465.06664 418.92827 Z M 21.678667,241.0214 c 0.799587,-10.36882 3.528984,-17.02664 9.466955,-23.09276 12.077207,-12.33786 32.298209,-12.33786 44.375417,0 5.93797,6.06612 8.667368,12.72394 9.466954,23.09276 l 0.661532,8.57858 H 53.33333 21.017135 Z m 127.999993,0 c 0.79958,-10.36882 3.52898,-17.02664 9.46695,-23.09276 12.07722,-12.33786 32.29821,-12.33786 44.37542,0 5.93798,6.06612 8.66737,12.72394 9.46696,23.09276 l 0.66152,8.57858 h -32.31619 -32.31619 z m 127.99999,0 c 0.79958,-10.36882 3.52898,-17.02664 9.46695,-23.09276 12.07722,-12.33786 32.29821,-12.33786 44.37543,0 5.93797,6.06612 8.66737,12.72394 9.46695,23.09276 l 0.66152,8.57858 h -32.31619 -32.31619 z"
         id="path2374" />
      <path
         style="fill:#8b8b98;stroke-width:1.06667"
         d="m 106.66666,514.1333 v -10.66666 h 10.66667 10.66666 v 10.66666 10.66667 h -10.66666 -10.66667 z m 127.99999,0 v -10.66666 h 10.66667 10.66666 v 10.66666 10.66667 h -10.66666 -10.66667 z m 127.99999,0 v -10.66666 h 10.66667 10.66667 v 10.66666 10.66667 h -10.66667 -10.66667 z m 29.86667,-78.26939 c 0,-0.22149 0.84,-1.06149 1.86667,-1.86667 1.69179,-1.32679 1.72952,-1.28906 0.40273,0.40273 -1.39346,1.7768 -2.2694,2.34185 -2.2694,1.46394 z m 142.79726,-1.46394 c -1.32679,-1.69179 -1.28907,-1.72952 0.40273,-0.40273 1.7768,1.39346 2.34185,2.2694 1.46394,2.2694 -0.2215,0 -1.0615,-0.84 -1.86667,-1.86667 z m -133.19726,-9.20273 c 0,-0.22149 0.84,-1.06149 1.86667,-1.86666 1.69179,-1.3268 1.72952,-1.28907 0.40273,0.40273 -1.39347,1.7768 -2.2694,2.34184 -2.2694,1.46393 z m 123.59726,-1.46393 c -1.32679,-1.6918 -1.28907,-1.72953 0.40273,-0.40273 1.7768,1.39346 2.34185,2.26939 1.46394,2.26939 -0.2215,0 -1.0615,-0.84 -1.86667,-1.86666 z m -113.99726,-9.20273 c 0,-0.2215 0.84,-1.0615 1.86666,-1.86667 1.6918,-1.32679 1.72953,-1.28907 0.40274,0.40273 -1.39347,1.7768 -2.2694,2.34185 -2.2694,1.46394 z m 104.39726,-1.46394 c -1.32679,-1.6918 -1.28907,-1.72952 0.40273,-0.40273 1.7768,1.39346 2.34185,2.2694 1.46394,2.2694 -0.2215,0 -1.0615,-0.84 -1.86667,-1.86667 z M 61.666663,187.00467 c 0.77,-0.30813 1.69,-0.27024 2.044445,0.0842 0.354443,0.35444 -0.275557,0.60655 -1.4,0.56024 -1.242606,-0.0512 -1.49536,-0.30394 -0.644445,-0.64444 z m 239.999987,0 c 0.76999,-0.30813 1.69,-0.27024 2.04445,0.0842 0.35444,0.35444 -0.27557,0.60655 -1.4,0.56024 -1.24262,-0.0512 -1.49536,-0.30394 -0.64445,-0.64444 z M 42.750874,136.97777 c 0.05118,-1.24261 0.303937,-1.49536 0.644445,-0.64444 0.308129,0.76999 0.270234,1.68999 -0.08421,2.04444 -0.354445,0.35445 -0.606551,-0.27556 -0.560235,-1.4 z m 442.666646,0 c 0.0512,-1.24261 0.30393,-1.49536 0.64443,-0.64444 0.30813,0.76999 0.27024,1.68999 -0.0842,2.04444 -0.35444,0.35445 -0.60654,-0.27556 -0.56023,-1.4 z M 43.733331,80.663936 c 0,-0.221499 0.84,-1.061499 1.866666,-1.866666 1.691793,-1.326796 1.729521,-1.289068 0.402726,0.402725 -1.393461,1.776798 -2.269392,2.341844 -2.269392,1.463941 z M 483.06391,79.199995 c -1.3268,-1.691793 -1.28907,-1.729521 0.40273,-0.402725 1.02666,0.805167 1.86666,1.645167 1.86666,1.866666 0,0.877903 -0.87593,0.312857 -2.26939,-1.463941 z M 52.266663,72.130604 c 0,-0.2215 0.84,-1.0615 1.866667,-1.866667 1.691793,-1.326796 1.729521,-1.289068 0.402725,0.402725 -1.39346,1.776798 -2.269392,2.341844 -2.269392,1.463942 z M 474.53057,70.666662 c -1.32679,-1.691793 -1.28906,-1.729521 0.40273,-0.402725 1.02667,0.805167 1.86667,1.645167 1.86667,1.866667 0,0.877902 -0.87594,0.312856 -2.2694,-1.463942 z M 110.73333,68.604674 c 0.76999,-0.308129 1.68999,-0.270233 2.04444,0.08421 0.35445,0.354444 -0.27556,0.60655 -1.4,0.560234 -1.24261,-0.05118 -1.49536,-0.303937 -0.64444,-0.644445 z m 306.13331,0 c 0.77,-0.308129 1.69001,-0.270233 2.04445,0.08421 0.35444,0.354444 -0.27556,0.60655 -1.4,0.560234 -1.24261,-0.05118 -1.49536,-0.303937 -0.64445,-0.644445 z"
         id="path2372" />
      <path
         style="fill:#73934c;stroke-width:1.06667"
         d="m 423.99997,433.06664 c 1.06186,-1.17333 2.17065,-2.13333 2.46398,-2.13333 0.29334,0 -0.33545,0.96 -1.39731,2.13333 -1.06186,1.17333 -2.17064,2.13333 -2.46398,2.13333 -0.29333,0 0.33546,-0.96 1.39731,-2.13333 z m 80.39727,-0.8 c -1.3268,-1.6918 -1.28907,-1.72952 0.40273,-0.40273 1.02667,0.80517 1.86667,1.64517 1.86667,1.86667 0,0.87791 -0.87594,0.31286 -2.2694,-1.46394 z m -70.79727,-9.86667 c 1.06186,-1.17333 2.17065,-2.13333 2.46398,-2.13333 0.29334,0 -0.33545,0.96 -1.39731,2.13333 -1.06186,1.17334 -2.17065,2.13334 -2.46398,2.13334 -0.29333,0 0.33546,-0.96 1.39731,-2.13334 z m 61.19727,-0.8 c -1.3268,-1.69179 -1.28907,-1.72952 0.40273,-0.40273 1.7768,1.39346 2.34184,2.2694 1.46394,2.2694 -0.2215,0 -1.0615,-0.84 -1.86667,-1.86667 z M 21.417542,236.17777 c 0.05118,-1.24262 0.303937,-1.49536 0.644445,-0.64445 0.308129,0.76999 0.270234,1.68999 -0.08421,2.04445 -0.354445,0.35444 -0.606551,-0.27557 -0.560235,-1.4 z m 62.93333,0 c 0.05118,-1.24262 0.303937,-1.49536 0.644444,-0.64445 0.308129,0.76999 0.270234,1.68999 -0.08421,2.04445 -0.354445,0.35444 -0.60655,-0.27557 -0.560234,-1.4 z m 65.066668,0 c 0.0512,-1.24262 0.30393,-1.49536 0.64443,-0.64445 0.30813,0.76999 0.27024,1.68999 -0.0842,2.04445 -0.35445,0.35444 -0.60654,-0.27557 -0.56023,-1.4 z m 62.93333,0 c 0.0512,-1.24262 0.30393,-1.49536 0.64443,-0.64445 0.30813,0.76999 0.27024,1.68999 -0.0842,2.04445 -0.35445,0.35444 -0.60654,-0.27557 -0.56023,-1.4 z m 65.06666,0 c 0.0512,-1.24262 0.30394,-1.49536 0.64444,-0.64445 0.30813,0.76999 0.27024,1.68999 -0.0842,2.04445 -0.35445,0.35444 -0.60655,-0.27557 -0.56024,-1.4 z m 62.93333,0 c 0.0512,-1.24262 0.30394,-1.49536 0.64444,-0.64445 0.30812,0.76999 0.27024,1.68999 -0.0842,2.04445 -0.35445,0.35444 -0.60655,-0.27557 -0.56024,-1.4 z M 30.399998,217.59999 c 1.061852,-1.17334 2.17064,-2.13334 2.463973,-2.13334 0.293334,0 -0.335455,0.96 -1.397306,2.13334 -1.061852,1.17333 -2.17064,2.13333 -2.463973,2.13333 -0.293334,0 0.335454,-0.96 1.397306,-2.13333 z m 44.698651,-0.26667 -2.031987,-2.4 2.4,2.03199 c 2.255408,1.90957 2.88559,2.76801 2.031987,2.76801 -0.202407,0 -1.282407,-1.08 -2.4,-2.4 z m 83.301341,0.26667 c 1.06186,-1.17334 2.17065,-2.13334 2.46398,-2.13334 0.29333,0 -0.33546,0.96 -1.39731,2.13334 -1.06186,1.17333 -2.17065,2.13333 -2.46398,2.13333 -0.29333,0 0.33545,-0.96 1.39731,-2.13333 z m 44.69865,-0.26667 -2.03199,-2.4 2.4,2.03199 c 1.32,1.11759 2.4,2.19759 2.4,2.4 0,0.8536 -0.85844,0.22341 -2.76801,-2.03199 z m 83.30134,0.26667 c 1.06186,-1.17334 2.17065,-2.13334 2.46398,-2.13334 0.29333,0 -0.33545,0.96 -1.39731,2.13334 -1.06186,1.17333 -2.17065,2.13333 -2.46398,2.13333 -0.29333,0 0.33546,-0.96 1.39731,-2.13333 z m 44.69866,-0.26667 -2.03199,-2.4 2.4,2.03199 c 1.32,1.11759 2.4,2.19759 2.4,2.4 0,0.8536 -0.85845,0.22341 -2.76801,-2.03199 z M 48.866664,208.338 c 0.77,-0.30812 1.69,-0.27024 2.044444,0.0842 0.354444,0.35445 -0.275556,0.60655 -1.4,0.56024 -1.242605,-0.0512 -1.495359,-0.30394 -0.644444,-0.64444 z m 7.466666,0 c 0.77,-0.30812 1.69,-0.27024 2.044445,0.0842 0.354443,0.35445 -0.275557,0.60655 -1.4,0.56024 -1.242606,-0.0512 -1.49536,-0.30394 -0.644445,-0.64444 z m 120.53333,0 c 0.76999,-0.30812 1.68999,-0.27024 2.04444,0.0842 0.35445,0.35445 -0.27556,0.60655 -1.4,0.56024 -1.24261,-0.0512 -1.49536,-0.30394 -0.64444,-0.64444 z m 7.46666,0 c 0.77,-0.30812 1.69,-0.27024 2.04445,0.0842 0.35444,0.35445 -0.27556,0.60655 -1.4,0.56024 -1.24261,-0.0512 -1.49536,-0.30394 -0.64445,-0.64444 z m 120.53333,0 c 0.76999,-0.30812 1.69,-0.27024 2.04445,0.0842 0.35444,0.35445 -0.27557,0.60655 -1.4,0.56024 -1.24262,-0.0512 -1.49536,-0.30394 -0.64445,-0.64444 z m 7.46666,0 c 0.77,-0.30812 1.69001,-0.27024 2.04445,0.0842 0.35444,0.35445 -0.27556,0.60655 -1.4,0.56024 -1.24261,-0.0512 -1.49536,-0.30394 -0.64445,-0.64444 z"
         id="path2370" />
      <path
         style="fill:#61615f;stroke-width:1.06667"
         d="m 386.13331,443.33058 c 0,-0.2215 0.84,-1.0615 1.86667,-1.86667 1.69179,-1.3268 1.72952,-1.28907 0.40273,0.40273 -1.39346,1.7768 -2.2694,2.34184 -2.2694,1.46394 z m 155.59726,-1.46394 c -1.32679,-1.6918 -1.28907,-1.72953 0.40273,-0.40273 1.7768,1.39346 2.34185,2.2694 1.46394,2.2694 -0.2215,0 -1.0615,-0.84 -1.86667,-1.86667 z m -34.13333,-6.4 c -1.3268,-1.6918 -1.28907,-1.72953 0.40273,-0.40273 1.7768,1.39346 2.34184,2.2694 1.46393,2.2694 -0.22149,0 -1.06149,-0.84 -1.86666,-1.86667 z m -111.86393,-2.80273 c 0,-0.22149 0.84,-1.06149 1.86667,-1.86667 1.69179,-1.32679 1.72952,-1.28906 0.40273,0.40273 -1.39346,1.7768 -2.2694,2.34185 -2.2694,1.46394 z m 136.39726,-1.46394 c -1.32679,-1.69179 -1.28907,-1.72952 0.40273,-0.40273 1.7768,1.39346 2.34185,2.2694 1.46394,2.2694 -0.2215,0 -1.0615,-0.84 -1.86667,-1.86667 z m -34.13333,-6.4 c -1.3268,-1.69179 -1.28907,-1.72952 0.40273,-0.40273 1.7768,1.39346 2.34184,2.2694 1.46394,2.2694 -0.2215,0 -1.0615,-0.84 -1.86667,-1.86667 z m -92.66393,-2.80273 c 0,-0.22149 0.84,-1.06149 1.86667,-1.86666 1.69179,-1.3268 1.72952,-1.28907 0.40273,0.40273 -1.39347,1.7768 -2.2694,2.34184 -2.2694,1.46393 z m 117.19726,-1.46393 c -1.32679,-1.6918 -1.28907,-1.72953 0.40273,-0.40273 1.7768,1.39346 2.34185,2.26939 1.46394,2.26939 -0.2215,0 -1.0615,-0.84 -1.86667,-1.86666 z m -107.59726,-9.20273 c 0,-0.2215 0.84,-1.0615 1.86666,-1.86667 1.6918,-1.32679 1.72953,-1.28907 0.40274,0.40273 -1.39347,1.7768 -2.2694,2.34185 -2.2694,1.46394 z m 97.99726,-1.46394 c -1.32679,-1.6918 -1.28907,-1.72952 0.40273,-0.40273 1.7768,1.39346 2.34185,2.2694 1.46394,2.2694 -0.2215,0 -1.0615,-0.84 -1.86667,-1.86667 z M 0.16842105,234.66665 c 0,-1.46666 0.24210524,-2.06666 0.53801165,-1.33333 0.2959064,0.73333 0.2959064,1.93333 0,2.66667 -0.29590641,0.73333 -0.53801165,0.13333 -0.53801165,-1.33334 z m 105.59998895,0 c 0,-1.46666 0.24211,-2.06666 0.53802,-1.33333 0.2959,0.73333 0.2959,1.93333 0,2.66667 -0.29591,0.73333 -0.53802,0.13333 -0.53802,-1.33334 z m 22.4,0 c 0,-1.46666 0.24211,-2.06666 0.53801,-1.33333 0.29591,0.73333 0.29591,1.93333 0,2.66667 -0.2959,0.73333 -0.53801,0.13333 -0.53801,-1.33334 z m 105.59999,0 c 0,-1.46666 0.24211,-2.06666 0.53802,-1.33333 0.2959,0.73333 0.2959,1.93333 0,2.66667 -0.29591,0.73333 -0.53802,0.13333 -0.53802,-1.33334 z m 22.4,0 c 0,-1.46666 0.24211,-2.06666 0.53802,-1.33333 0.2959,0.73333 0.2959,1.93333 0,2.66667 -0.29591,0.73333 -0.53802,0.13333 -0.53802,-1.33334 z m 105.59999,0 c 0,-1.46666 0.24212,-2.06666 0.53802,-1.33333 0.2959,0.73333 0.2959,1.93333 0,2.66667 -0.2959,0.73333 -0.53802,0.13333 -0.53802,-1.33334 z M 46.666664,187.02689 c 0.733333,-0.2959 1.933333,-0.2959 2.666666,0 0.733334,0.2959 0.133334,0.53802 -1.333333,0.53802 -1.466667,0 -2.066666,-0.24212 -1.333333,-0.53802 z m 10.153633,-0.0328 c 1.037832,-0.27044 2.477832,-0.25266 3.2,0.0396 0.722168,0.29219 -0.126967,0.51346 -1.886967,0.49172 -1.76,-0.0218 -2.350865,-0.2608 -1.313033,-0.53124 z m 248.533313,0 c 1.03784,-0.27044 2.47784,-0.25266 3.2,0.0396 0.72217,0.29219 -0.12696,0.51346 -1.88696,0.49172 -1.76,-0.0218 -2.35087,-0.2608 -1.31304,-0.53124 z M 21.541278,135.99999 c 0.02174,-1.76 0.260797,-2.35087 0.531244,-1.31303 0.270446,1.03783 0.252661,2.47783 -0.03952,3.2 -0.292188,0.72216 -0.513463,-0.12697 -0.491724,-1.88697 z m 485.333302,0 c 0.0218,-1.76 0.2608,-2.35087 0.53125,-1.31303 0.27044,1.03783 0.25266,2.47783 -0.0396,3.2 -0.29219,0.72216 -0.51346,-0.12697 -0.49172,-1.88697 z M 42.750874,133.77777 c 0.05118,-1.24261 0.303937,-1.49536 0.644445,-0.64444 0.308129,0.76999 0.270234,1.68999 -0.08421,2.04444 -0.354445,0.35445 -0.606551,-0.27556 -0.560235,-1.4 z m 442.666646,0 c 0.0512,-1.24261 0.30393,-1.49536 0.64443,-0.64444 0.30813,0.76999 0.27024,1.68999 -0.0842,2.04444 -0.35444,0.35445 -0.60654,-0.27556 -0.56023,-1.4 z M 63.999996,90.133328 c 1.377861,-1.466667 2.745203,-2.666667 3.038536,-2.666667 0.293334,0 -0.594008,1.2 -1.971869,2.666667 -1.377862,1.466666 -2.745203,2.666666 -3.038537,2.666666 -0.293333,0 0.594009,-1.2 1.97187,-2.666666 z m 399.919244,-0.266667 -2.58593,-2.933333 2.93333,2.585935 c 1.61333,1.422264 2.93333,2.742264 2.93333,2.933333 0,0.836559 -0.86379,0.155707 -3.28073,-2.585935 z M 49.066664,75.199995 c 1.377861,-1.466666 2.745203,-2.666666 3.038536,-2.666666 0.293333,0 -0.594008,1.2 -1.97187,2.666666 -1.377861,1.466667 -2.745203,2.666667 -3.038536,2.666667 -0.293333,0 0.594008,-1.2 1.97187,-2.666667 z m 429.785906,-0.266666 -2.58593,-2.933333 2.93333,2.585934 c 1.61333,1.422265 2.93333,2.742265 2.93333,2.933334 0,0.836558 -0.86378,0.155706 -3.28073,-2.585935 z M 107.53333,68.604674 c 0.76999,-0.308129 1.68999,-0.270233 2.04444,0.08421 0.35445,0.354444 -0.27556,0.60655 -1.4,0.560234 -1.24261,-0.05118 -1.49536,-0.303937 -0.64444,-0.644445 z m 312.53331,0 c 0.77,-0.308129 1.69001,-0.270233 2.04445,0.08421 0.35444,0.354444 -0.27556,0.60655 -1.4,0.560234 -1.24261,-0.05118 -1.49536,-0.303937 -0.64445,-0.644445 z M 109.08696,47.260807 c 1.03783,-0.270446 2.47783,-0.252661 3.2,0.03952 0.72216,0.292184 -0.12697,0.513459 -1.88697,0.49172 -1.76,-0.02174 -2.35087,-0.260798 -1.31303,-0.531245 z m 308.26665,0 c 1.03783,-0.270446 2.47783,-0.252661 3.2,0.03952 0.72216,0.292184 -0.12697,0.513459 -1.88697,0.49172 -1.76,-0.02174 -2.35087,-0.260798 -1.31303,-0.531245 z"
         id="path2368" />
      <path
         style="fill:#000000;stroke-width:1.06667"
         d="M 6.6267379,544.52625 C -0.48702635,541.43547 -0.08697764,551.57467 0.23918027,382.63418 0.53138749,231.2792 0.554478,229.81145 2.7364388,223.89701 5.8988913,215.32483 10.289312,208.27575 16.060306,202.50476 l 5.032587,-5.03259 0.503696,-33.93608 C 22.07255,131.46848 22.249291,129.03795 24.806616,119.39217 32.154211,91.678323 49.839348,70.008054 75.658844,57.081013 80.017878,54.898577 88.177877,51.852498 93.792177,50.31195 L 103.99999,47.510954 222.66665,47.178671 341.33331,46.84639 V 34.089861 21.333332 h -5.36759 c -2.95217,0 -7.04945,-0.702725 -9.10506,-1.561612 -8.20714,-3.429164 -8.20714,-14.7809439 0,-18.2101087 5.37035,-2.24387491 44.90829,-2.24387491 50.27863,0 8.20715,3.4291648 8.20715,14.7809447 0,18.2101087 -2.0556,0.858887 -6.15288,1.561612 -9.10505,1.561612 h -5.3676 v 12.674172 12.674172 l 31.2,0.518942 c 29.04228,0.483052 31.90595,0.705438 41.40782,3.215635 34.18792,9.031742 59.57149,34.374796 69.08619,68.975917 l 2.80698,10.20782 0.32071,137.1198 0.32073,137.1198 17.71211,19.68019 c 9.74168,10.82411 18.36462,21.22478 19.16213,23.1126 2.20421,5.21778 2.10528,87.33446 -0.11162,92.64024 -3.09939,7.41789 18.92848,6.86513 -271.73745,6.81893 C 47.594421,546.05575 9.6332932,545.83254 6.6267379,544.52625 Z M 85.333328,397.86664 V 270.93332 H 53.33333 21.333332 V 397.86664 524.79997 H 53.33333 85.333328 Z m -36.039926,0.52629 c -5.871719,-2.55115 -6.626738,-6.01397 -6.626738,-30.39295 0,-24.67949 0.723291,-27.87403 6.894945,-30.4527 3.327033,-1.39013 4.216409,-1.39013 7.543442,0 6.171654,2.57867 6.894945,5.77321 6.894945,30.4527 0,24.64647 -0.727911,27.87595 -6.860684,30.43839 -4.391419,1.83484 -3.50644,1.83997 -7.84591,-0.0454 z m 0,-85.33333 c -2.283744,-0.99224 -4.055629,-2.83757 -5.080981,-5.29159 -2.206227,-5.28023 0.02853,-10.66428 5.349188,-12.8874 3.327033,-1.39012 4.216409,-1.39012 7.543442,0 8.240453,3.44308 8.261778,14.78675 0.03426,18.22443 -4.391419,1.83484 -3.506439,1.83998 -7.845911,-0.0454 z m 78.706588,201.0737 v -10.66666 h -10.66666 -10.66667 v 10.66666 10.66667 h 10.66667 10.66666 z M 213.33332,397.86664 V 270.93332 h -32 -32 v 126.93332 126.93333 h 32 32 z m -36.03992,0.52629 c -5.87173,-2.55115 -6.62674,-6.01397 -6.62674,-30.39295 0,-24.67949 0.72329,-27.87403 6.89494,-30.4527 3.32704,-1.39013 4.2164,-1.39013 7.54344,0 6.17165,2.57867 6.89495,5.77321 6.89495,30.4527 0,24.64647 -0.72792,27.87595 -6.86068,30.43839 -4.39143,1.83484 -3.50645,1.83997 -7.84591,-0.0454 z m 0,-85.33333 c -2.28375,-0.99224 -4.05563,-2.83757 -5.08098,-5.29159 -2.20623,-5.28023 0.0285,-10.66428 5.34918,-12.8874 3.32704,-1.39012 4.2164,-1.39012 7.54344,0 8.24045,3.44308 8.26179,14.78675 0.0342,18.22443 -4.39142,1.83484 -3.50644,1.83998 -7.8459,-0.0454 z m 78.70658,201.0737 v -10.66666 h -10.66666 -10.66667 v 10.66666 10.66667 h 10.66667 10.66666 z M 341.33331,397.86664 V 270.93332 h -32 -31.99999 v 126.93332 126.93333 h 31.99999 32 z m -36.03992,0.52629 c -5.87172,-2.55115 -6.62674,-6.01397 -6.62674,-30.39295 0,-24.67949 0.72329,-27.87403 6.89494,-30.4527 3.32704,-1.39013 4.21641,-1.39013 7.54345,0 6.17164,2.57867 6.89494,5.77321 6.89494,30.4527 0,24.64647 -0.72791,27.87595 -6.86068,30.43839 -4.39143,1.83484 -3.50644,1.83997 -7.84591,-0.0454 z m 0,-85.33333 c -2.28374,-0.99224 -4.05563,-2.83757 -5.08098,-5.29159 -2.20623,-5.28023 0.0286,-10.66428 5.34918,-12.8874 3.32704,-1.39012 4.21641,-1.39012 7.54345,0 8.24044,3.44308 8.26178,14.78675 0.0342,18.22443 -4.39143,1.83484 -3.50645,1.83998 -7.84591,-0.0454 z m 78.70659,201.0737 v -10.66666 h -10.66667 -10.66667 v 10.66666 10.66667 h 10.66667 10.66667 z m 140.79999,-21.33333 v -32 h -59.73333 -59.73333 v 32 32 h 59.73333 59.73333 z M 128.23973,355.99998 c 0.30196,-124.30621 0.3382,-126.2198 2.5027,-132.10297 3.16747,-8.60925 7.54888,-15.62326 13.43808,-21.51247 l 5.15281,-5.15281 v -43.1492 -43.1492 l -19.46666,8.4e-4 c -19.25109,8.3e-4 -19.53754,0.0349 -25.86667,3.07034 -7.751618,3.71773 -12.309577,8.33407 -15.924825,16.12882 -2.716509,5.85699 -2.721013,5.91716 -2.731417,36.48253 l -0.01042,30.61587 5.152806,5.15281 c 5.889213,5.88921 10.270616,12.90322 13.438076,21.51247 2.1645,5.88317 2.20076,7.79676 2.50272,132.10297 l 0.3064,126.13332 h 10.6 10.6 z m 127.99999,0 c 0.30196,-124.30621 0.33821,-126.2198 2.50271,-132.10297 3.16746,-8.60925 7.54887,-15.62326 13.43808,-21.51247 l 5.15281,-5.15281 v -43.1492 -43.1492 h -32 -32 v 43.1492 43.1492 l 5.15281,5.15281 c 5.88921,5.88921 10.27061,12.90322 13.43808,21.51247 2.1645,5.88317 2.20075,7.79676 2.50271,132.10297 l 0.3064,126.13332 h 10.6 10.6 z m 127.76026,110.09906 c 0,-11.121 0.44431,-17.08602 1.44999,-19.46666 0.79751,-1.88782 9.4375,-12.30746 19.2,-23.15474 l 17.75,-19.72234 -0.0107,-133.87765 -0.0107,-133.87766 -2.72099,-5.86666 c -3.61525,-7.79475 -8.17321,-12.41109 -15.92483,-16.12882 l -6.4,-3.0695 -28,-8.4e-4 -27.99951,-8.4e-4 v 43.1492 43.1492 l 5.15281,5.15281 c 5.88921,5.88921 10.27062,12.90322 13.43808,21.51247 2.1645,5.88317 2.20075,7.79676 2.50271,132.10297 l 0.3064,126.13332 h 10.63333 10.63334 z m 126.26749,-27.96573 c -0.43545,-0.73334 -4.61106,-5.53334 -9.27914,-10.66667 l -8.4874,-9.33333 h -27.43429 -27.43429 l -8.48741,9.33333 c -4.66807,5.13333 -8.84369,9.93333 -9.27913,10.66667 -0.62842,1.05829 8.69563,1.33333 45.20083,1.33333 36.5052,0 45.82924,-0.27504 45.20083,-1.33333 z m -23.8675,-120.26666 v -78.93333 h -21.33333 -21.33333 v 78.93333 78.93333 h 21.33333 21.33333 z m -401.27844,-77.6 c -0.711442,-14.04584 -6.019817,-22.86259 -17.388201,-28.88027 -4.557697,-2.41256 -6.651914,-2.82345 -14.399999,-2.82529 -7.439675,-0.002 -9.928014,0.44684 -13.866666,2.50002 -11.738598,6.1192 -17.197558,15.01635 -17.919442,29.20554 l -0.474838,9.33333 H 53.33333 85.594276 Z m 127.99999,0 c -0.71144,-14.04584 -6.01982,-22.86259 -17.3882,-28.88027 -4.55769,-2.41256 -6.65191,-2.82345 -14.4,-2.82529 -7.43968,-0.002 -9.92801,0.44684 -13.86666,2.50002 -11.73861,6.1192 -17.19756,15.01635 -17.91945,29.20554 l -0.47484,9.33333 h 32.26095 32.26095 z m 128,0 c -0.71145,-14.04584 -6.01982,-22.86259 -17.38821,-28.88027 -4.55769,-2.41256 -6.65191,-2.82345 -14.4,-2.82529 -7.43968,-0.002 -9.92801,0.44684 -13.86666,2.50002 -11.7386,6.1192 -17.19756,15.01635 -17.91945,29.20554 l -0.47483,9.33333 h 32.26094 32.26095 z m 145.05347,-67.19999 -0.33323,-44.53333 -2.81711,-8.29659 C 475.17077,97.106473 457.60072,79.531936 434.42989,71.629541 l -8.29658,-2.829545 H 264.53332 102.93333 l -8.29659,2.829545 c -23.184598,7.907091 -40.80898,25.545151 -48.569507,48.607199 -2.695172,8.00928 -2.804956,9.31616 -3.170208,37.73851 l -0.378355,29.44192 10.649125,0.0374 10.649125,0.0374 0.43482,-27.34605 c 0.394904,-24.83567 0.648564,-27.92576 2.763174,-33.66082 6.247551,-16.94403 17.560985,-28.162375 34.202616,-33.915092 6.64418,-2.296776 8.6562,-2.43676 35.02423,-2.43676 h 27.9751 l 2.95823,2.956549 2.95823,2.956548 0.30907,45.580145 0.30907,45.58015 10.57927,-0.003 10.57927,-0.003 0.31166,-45.57679 0.31166,-45.577105 2.95758,-2.956548 2.95757,-2.956549 h 46.88485 46.88485 l 2.95757,2.956549 2.95758,2.956548 0.30985,45.852375 0.30987,45.85237 10.57534,-0.27559 10.57533,-0.27559 0.3148,-45.57679 0.3148,-45.576775 2.95802,-2.956548 2.95802,-2.956549 h 36.50864 c 35.25578,0 36.75056,0.08363 43.55778,2.43676 16.62344,5.746424 27.86652,16.884182 34.23592,33.915142 2.26494,6.05619 2.37706,8.05094 2.73805,48.71476 l 0.3764,42.4 h 21.32103 21.32103 z"
         id="path2366" />
    </g>
  </g>
</svg>
