<?xml version="1.0" encoding="UTF-8" standalone="no"?>
<!-- Created with Inkscape (http://www.inkscape.org/) -->

<svg
   version="1.1"
   id="svg2"
   width="682.66669"
   height="682.66669"
   viewBox="0 0 682.66669 682.66669"
   xmlns="http://www.w3.org/2000/svg"
   xmlns:svg="http://www.w3.org/2000/svg">
  <defs
     id="defs6" />
  <g
     id="g8">
    <g
       id="g170">
      <path
         style="fill:#fac724;stroke-width:1.33333"
         d="m 562.69546,236.4585 c -9.88417,-1.8094 -18.17447,-3.49308 -18.42289,-3.74151 -0.24843,-0.24841 2.21201,-15.64161 5.46764,-34.20709 4.51773,-25.76279 5.61302,-34.634 4.62578,-37.46599 -0.71142,-2.04081 -1.68481,-3.72965 -2.16308,-3.75297 -0.47825,-0.0233 -1.8306,-0.77443 -3.00521,-1.66911 -1.95781,-1.49125 -1.95316,-2.6754 0.0557,-14.22063 2.15718,-12.39708 2.25818,-12.61122 6.46204,-13.70055 5.91507,-1.53275 7.56643,-4.90869 10.28895,-21.03398 1.30003,-7.7 2.60671,-14.650087 2.90373,-15.444636 0.36872,-0.986343 6.54935,-0.400527 19.4826,1.846611 10.4184,1.810185 19.18583,3.503556 19.48318,3.763044 1.11936,0.976836 -24.59908,143.156091 -25.87396,143.039051 -0.73334,-0.0673 -9.42039,-1.60283 -19.30456,-3.41224 z"
         id="path184" />
      <path
         style="fill:#449fee;stroke-width:1.33333"
         d="m 592.66669,72.985314 c -33,-5.83259 -60.34759,-10.990345 -60.77243,-11.461677 -0.42483,-0.471332 0.7285,-9.406969 2.56296,-19.856969 2.62629,-14.960695 3.78263,-19.007641 5.43909,-19.035934 2.6311,-0.04495 119.21803,20.328674 120.03231,20.975698 0.73624,0.585007 -5.24517,36.502231 -6.41518,38.521916 -0.58412,1.008323 -19.45638,-1.827485 -60.84675,-9.143034 z"
         id="path182" />
      <path
         style="fill:#a57352;stroke-width:1.33333"
         d="m 28.92462,646.5363 c 5.520301,-9.46602 19.632307,-17.93831 32.397467,-19.45016 3.780783,-0.44777 10.93961,-0.0431 15.945225,0.90143 4.996201,0.9427 10.504958,1.35569 12.24168,0.91774 1.815406,-0.4578 5.708171,-4.3166 9.157678,-9.07777 11.67213,-16.11045 31.61114,-29.30195 51.13332,-33.82944 5.80184,-1.34553 14.47539,-2.03177 24.12027,-1.90835 9.02291,0.11547 16.18911,-0.41122 17.87556,-1.31378 1.80545,-0.96626 3.60281,-4.24443 5.01195,-9.14123 3.17366,-11.02863 6.62781,-17.19755 13.98528,-24.97699 16.19245,-17.12113 41.59719,-21.04605 62.86219,-9.71192 6.96686,3.71331 10.07004,6.58451 21.19121,19.60711 5.15787,6.03973 9.89852,5.56823 18.58773,-1.84875 8.17908,-6.98154 17.65307,-10.57136 27.89916,-10.57136 10.2461,0 19.72009,3.58982 27.89917,10.57136 8.73713,7.45787 13.26105,7.85718 19.03158,1.67979 l 4.00066,-4.28271 8.86762,3.04979 c 17.55058,6.03603 36.83848,20.40255 48.27115,35.95453 l 3.26316,4.43892 6.43396,-1.62254 c 22.90012,-5.77502 51.665,7.05502 61.67142,27.5074 5.02341,10.26746 2.7136,19.00464 -6.51115,24.62932 -4.18192,2.54988 -8.74108,2.59812 -246.00295,2.60301 l -241.742055,0.005 z m 363.58829,-9.59462 c 1.68208,-1.68208 3.45314,-5.52735 3.93569,-8.54503 2.59019,-16.19812 24.51264,-16.19812 27.10283,0 1.69357,10.59107 10.09602,14.64625 17.37424,8.38513 3.19916,-2.7521 3.7068,-4.12151 3.5048,-9.45463 -0.66708,-17.61233 -16.41467,-32.45758 -34.43046,-32.45758 -18.01578,0 -33.76337,14.84525 -34.43045,32.45758 -0.202,5.33312 0.30564,6.70253 3.5048,9.45463 4.70169,4.04467 9.49672,4.10172 13.43855,0.1599 z M 162.89502,621.79337 c 5.48341,-4.96242 1.41192,-13.79335 -6.35939,-13.79335 -4.53084,0 -8.53562,3.75348 -8.53562,8 0,1.14032 0.93402,3.40683 2.0756,5.03665 2.5184,3.59552 9.24388,3.99251 12.81941,0.7567 z m 74.77165,-11.27842 c 1.28334,-1.54569 2.33334,-4.28333 2.33334,-6.08364 0,-17.11464 24.50891,-18.48226 27.3734,-1.52746 1.75425,10.38332 9.90504,14.66954 17.11345,8.9994 4.89992,-3.85427 4.92515,-13.87947 0.0595,-23.64354 -13.72327,-27.53901 -55.14739,-23.91529 -63.90974,5.59074 -2.84162,9.56881 -2.48294,12.50838 2.08346,17.07478 3.39233,3.39232 4.75145,3.9186 8.33333,3.22676 2.35396,-0.45466 5.32992,-2.09133 6.61325,-3.63704 z M 21.333334,623.49661 c 0,-0.27687 1.05,-1.32687 2.333333,-2.33334 2.114742,-1.65849 2.161902,-1.61133 0.503407,0.50342 -1.741825,2.221 -2.83674,2.9273 -2.83674,1.82992 z m 637.163276,-1.82992 c -1.65849,-2.11475 -1.61133,-2.16191 0.50341,-0.50342 2.221,1.74183 2.92731,2.83675 1.82992,2.83675 -0.27686,0 -1.32686,-1.05 -2.33333,-2.33333 z m -595.496608,-15.955 c 2.016667,-0.30551 5.316667,-0.30551 7.333334,0 2.016666,0.30549 0.366666,0.55545 -3.666667,0.55545 -4.033334,0 -5.683334,-0.24996 -3.666667,-0.55545 z m 549.333348,0 c 2.01667,-0.30551 5.31667,-0.30551 7.33334,0 2.01666,0.30549 0.36666,0.55545 -3.66667,0.55545 -4.03333,0 -5.68333,-0.24996 -3.66667,-0.55545 z m -19.17008,-6.71167 c -1.65849,-2.11475 -1.61133,-2.16191 0.50342,-0.50341 1.28333,1.00646 2.33333,2.05646 2.33333,2.33333 0,1.09739 -1.09492,0.39108 -2.83675,-1.82992 z M 96.000003,591.49661 c 0,-0.27687 1.05,-1.32687 2.333334,-2.33334 2.114743,-1.65849 2.161903,-1.61133 0.503406,0.50342 -1.741825,2.221 -2.83674,2.9273 -2.83674,1.82992 z m 487.829937,-1.82992 c -1.65849,-2.11475 -1.61133,-2.16191 0.50341,-0.50342 2.221,1.74183 2.92731,2.83675 1.82992,2.83675 -0.27686,0 -1.32686,-1.05 -2.33333,-2.33333 z M 158.41667,563.08921 c 0.9625,-0.38516 2.1125,-0.3378 2.55556,0.1052 0.44306,0.44305 -0.34445,0.75818 -1.75,0.70029 -1.55326,-0.064 -1.8692,-0.37992 -0.80556,-0.80555 z m 365.33335,0 c 0.96249,-0.38516 2.1125,-0.3378 2.55556,0.1052 0.44305,0.44305 -0.34446,0.75818 -1.75,0.70029 -1.55327,-0.064 -1.8692,-0.37992 -0.80556,-0.80555 z m -38.58675,-30.75586 c -1.65849,-2.11475 -1.61133,-2.16191 0.50341,-0.50341 2.221,1.74182 2.92731,2.83674 1.82992,2.83674 -0.27686,0 -1.32686,-1.05 -2.33333,-2.33333 z m 142.17008,-4.33333 c 2.86432,-2.93334 5.50787,-5.33334 5.87454,-5.33334 0.36666,0 -1.67688,2.4 -4.5412,5.33334 -2.86432,2.93333 -5.50787,5.33333 -5.87454,5.33333 -0.36666,0 1.67688,-2.4 4.5412,-5.33333 z m -296.66845,-35.7314 0.66491,-34.2686 0.35892,33.24284 c 0.19741,18.28357 -0.10173,33.70444 -0.66489,34.2686 -0.56311,0.56416 -0.72463,-14.39512 -0.35894,-33.24284 z m 20.59307,32.68244 c -0.36209,-0.9436 -0.4914,-11.8936 -0.28734,-24.33334 l 0.37101,-22.6177 0.66252,24.33492 c 0.36439,13.38421 0.49369,24.33421 0.28735,24.33333 -0.20636,-8.7e-4 -0.67144,-0.77361 -1.03354,-1.71721 z m 14.01966,-62.61771 c 5.52528,-5.88692 6.72238,-6.94545 6.72238,-5.94428 0,0.21399 -2.85,3.06399 -6.33333,6.33333 l -6.33333,5.94428 z m 85.13905,3.42252 c 0.9625,-0.38516 2.11251,-0.3378 2.55556,0.1052 0.44306,0.44305 -0.34445,0.75819 -1.75,0.70029 -1.55326,-0.064 -1.8692,-0.37992 -0.80556,-0.80554 z m -56.97807,-11.86696 c 0.064,-1.55327 0.37992,-1.8692 0.80555,-0.80556 0.38516,0.96249 0.3378,2.11251 -0.1052,2.55556 -0.44305,0.44305 -0.75819,-0.34445 -0.70029,-1.75 z m -72.27535,-6.88889 c -1.65849,-2.11475 -1.61133,-2.16191 0.50342,-0.50342 1.28333,1.00647 2.33333,2.05647 2.33333,2.33334 0,1.09738 -1.09492,0.39108 -2.83675,-1.82992 z m 30.11473,-57.00001 c 3e-4,-31.53333 0.1747,-44.24274 0.38754,-28.24313 0.21286,15.99961 0.21259,41.79961 -5.7e-4,57.33333 -0.21315,15.53372 -0.38729,2.44314 -0.38697,-29.0902 z m 152.05536,51.33334 c 2.86432,-2.93334 5.50787,-5.33334 5.87453,-5.33334 0.36667,0 -1.67688,2.4 -4.5412,5.33334 -2.86432,2.93333 -5.50786,5.33333 -5.87453,5.33333 -0.36667,0 1.67688,-2.4 4.5412,-5.33333 z m -192.83675,-5 c -1.6585,-2.11475 -1.61134,-2.16191 0.50341,-0.50342 2.221,1.74183 2.92731,2.83675 1.82992,2.83675 -0.27687,0 -1.32687,-1.05 -2.33333,-2.33333 z m 332.27536,-7.77778 c 0.064,-1.55326 0.37992,-1.8692 0.80554,-0.80556 0.38516,0.9625 0.3378,2.11251 -0.1052,2.55556 -0.44305,0.44306 -0.75818,-0.34445 -0.70029,-1.75 z M 330.33985,396.33451 c 0.18691,-16.68398 0.50652,-37.8345 0.71023,-47.00116 0.2037,-9.16667 0.50078,4.48333 0.66016,30.33333 0.15937,25.85 -0.16023,47.00052 -0.71023,47.00116 -0.55,6.4e-4 -0.84707,-13.64936 -0.66016,-30.33333 z m 316.43211,9.5544 c 0.064,-1.55327 0.37992,-1.8692 0.80554,-0.80556 0.38516,0.96249 0.3378,2.1125 -0.1052,2.55556 -0.44305,0.44305 -0.75818,-0.34446 -0.70029,-1.75 z m -260.00001,-2.66667 c 0.064,-1.55327 0.37992,-1.8692 0.80554,-0.80556 0.38516,0.96249 0.3378,2.11251 -0.1052,2.55556 -0.44305,0.44305 -0.75818,-0.34445 -0.70029,-1.75 z m -92.00001,-20 c 0.064,-1.55327 0.37992,-1.8692 0.80555,-0.80556 0.38516,0.96249 0.3378,2.11251 -0.1052,2.55556 -0.44307,0.44305 -0.75819,-0.34445 -0.70029,-1.75 z m 356.00002,0 c 0.064,-1.55327 0.37992,-1.8692 0.80554,-0.80556 0.38516,0.96249 0.3378,2.11251 -0.1052,2.55556 -0.44305,0.44305 -0.75818,-0.34445 -0.70029,-1.75 z M 402.66668,363.4966 c 0,-0.27687 1.05,-1.32687 2.33333,-2.33333 2.11475,-1.6585 2.16191,-1.61134 0.50342,0.50341 -1.74183,2.221 -2.83675,2.92731 -2.83675,1.82992 z m 252.10528,-2.94103 c 0.064,-1.55326 0.37992,-1.8692 0.80554,-0.80556 0.38516,0.9625 0.3378,2.11251 -0.1052,2.55556 -0.44305,0.44306 -0.75818,-0.34445 -0.70029,-1.75 z m -109.60869,-6.88889 c -1.65849,-2.11475 -1.61133,-2.16191 0.50342,-0.50341 2.221,1.74182 2.9273,2.83674 1.82992,2.83674 -0.27687,0 -1.32687,-1.05 -2.33334,-2.33333 z m -81.46135,-15.978 c 3.13606,-0.28166 7.93606,-0.2777 10.66667,0.009 2.73061,0.28649 0.16476,0.51695 -5.70191,0.51211 -5.86666,-0.005 -8.10081,-0.23926 -4.96476,-0.52092 z m -260.0197,-19.96502 c 1.65855,-0.31892 4.05855,-0.30681 5.33333,0.0269 1.27479,0.33372 -0.0823,0.59466 -3.01554,0.57986 -2.93334,-0.0148 -3.97634,-0.28785 -2.31779,-0.60677 z m 15.31779,0.0239 c 1.28333,-0.33536 3.38333,-0.33536 4.66666,0 1.28334,0.33537 0.23334,0.60977 -2.33333,0.60977 -2.56667,0 -3.61667,-0.2744 -2.33333,-0.60977 z m 79.59489,-5.41419 -4.59489,-5 5,4.5949 c 4.65389,4.27681 5.61305,5.4051 4.59489,5.4051 -0.22281,0 -2.47281,-2.25 -5,-5 z m 84.07178,0.33334 c 2.48771,-2.56667 4.82311,-4.66667 5.18977,-4.66667 0.36667,0 -1.36873,2.1 -3.85644,4.66667 -2.4877,2.56666 -4.8231,4.66666 -5.18977,4.66666 -0.36667,0 1.36873,-2.1 3.85644,-4.66666 z m 43.75,-14.91082 c 0.96249,-0.38516 2.11251,-0.3378 2.55556,0.1052 0.44305,0.44306 -0.34445,0.75819 -1.75,0.7003 -1.55327,-0.064 -1.8692,-0.37992 -0.80556,-0.80555 z M 401.43861,257.8889 c 0.064,-1.55326 0.37992,-1.8692 0.80555,-0.80556 0.38516,0.9625 0.3378,2.1125 -0.1052,2.55556 -0.44305,0.44306 -0.75819,-0.34445 -0.70029,-1.75 z m -68.77193,-97.88889 c 1.32732,-1.46667 2.7133,-2.66667 3.07997,-2.66667 0.36667,0 -0.41932,1.2 -1.74664,2.66667 -1.32732,1.46666 -2.71331,2.66666 -3.07997,2.66666 -0.36667,0 0.41932,-1.2 1.74664,-2.66666 z m 15.87332,-0.33334 -2.53999,-3 3,2.53999 c 2.81926,2.38696 3.60699,3.46001 2.53999,3.46001 -0.25301,0 -1.60301,-1.35 -3,-3 z m 196.62327,-35.33333 c -1.65849,-2.11474 -1.61133,-2.1619 0.50342,-0.50341 2.221,1.74183 2.9273,2.83674 1.82992,2.83674 -0.27687,0 -1.32687,-1.05 -2.33334,-2.33333 z m -2.28606,-7 c 0,-1.83334 0.30264,-2.58334 0.67252,-1.66667 0.36988,0.91667 0.36988,2.41667 0,3.33333 -0.36988,0.91667 -0.67252,0.16667 -0.67252,-1.66666 z"
         id="path180" />
      <path
         style="fill:#6cbd2e;stroke-width:1.33333"
         d="m 427.26489,438.40519 c -9.35097,-5.31763 -10.59429,-6.18687 -9.87634,-6.90482 0.38481,-0.38481 11.82216,-6.04568 25.41635,-12.57969 21.08193,-10.13299 24.95681,-12.45971 26.34945,-15.82185 2.94211,-7.10288 -1.707,-13.76548 -9.60547,-13.76548 -1.8112,0 -13.92565,5.1 -26.921,11.33333 -12.99535,6.23333 -23.93623,11.33333 -24.31307,11.33333 -2.05896,0 1.24282,-17.01638 4.76024,-24.53298 9.13807,-19.52759 26.91669,-28.72823 55.59163,-28.76934 10.28844,-0.0148 36.35875,3.21663 37.83124,4.68912 1.05066,1.05066 -10.92984,24.64516 -18.14452,35.73402 -9.15741,14.07477 -27.06966,31.50425 -37.71944,36.70278 -12.01176,5.86339 -16.68937,6.38013 -23.36907,2.58158 z M 205.26841,416.23644 c -7.95363,-5.05609 -18.6172,-16.1452 -26.52318,-27.58157 -8.07005,-11.67375 -22.0264,-39.28608 -20.52562,-40.60952 1.82014,-1.60511 16.22188,-5.15027 29.7804,-7.33083 25.98902,-4.1797 54.99962,-1.51572 59.5774,5.47085 3.33559,5.09076 7.08927,20.27778 7.08927,28.68251 v 7.59224 l -15.95726,-7.32329 c -14.81739,-6.80018 -16.22137,-7.19671 -19.65453,-5.55124 -5.41767,2.59662 -7.75394,8.17449 -5.60092,13.37232 1.41437,3.41458 4.2178,5.2774 16.93466,11.2527 17.07358,8.02242 16.99801,7.81596 5.55052,15.16179 -5.79544,3.71892 -13.84661,7.30509 -22.00408,9.80112 -1.79662,0.54973 -4.76308,-0.45559 -8.66666,-2.93708 z M 307.13394,286.67468 c -3.8525,-1.5543 -5.99305,-8.66751 -5.95788,-19.79854 0.0492,-15.553 6.03867,-33.09019 18.12915,-53.08187 6.54928,-10.82925 20.85693,-31.013 22.02813,-31.07498 0.90807,-0.048 14.25225,18.33996 20.00001,27.55964 4.6027,7.38294 4.66666,7.6882 4.66666,22.26998 0,15.94015 -1.92218,22.51977 -9.46989,32.41533 l -3.38989,4.44438 -3.77172,-4.03764 c -4.79931,-5.13768 -10.76079,-5.43322 -15.4291,-0.7649 -2.80327,2.80325 -3.27273,4.51565 -3.27273,11.93732 v 8.6646 l -5,1.38857 c -5.94583,1.65124 -14.5437,1.68747 -18.53274,0.0781 z"
         id="path178" />
      <path
         style="fill:#905330;stroke-width:1.33333"
         d="m 22.068935,659.78282 c 1.69227,-5.33186 4.627339,-11.7828 5.360982,-11.7828 0.400104,0 0.356643,0.6 -0.09659,1.33334 -0.54821,0.88702 80.096003,1.33166 240.921323,1.32834 237.26514,-0.005 241.82432,-0.0532 246.00626,-2.60301 9.22474,-5.62468 11.53456,-14.36186 6.51114,-24.62932 -10.00641,-20.45238 -38.77129,-33.28242 -61.67141,-27.5074 l -6.43396,1.62254 -3.26316,-4.43892 c -6.21955,-8.46052 -20.77763,-21.9101 -29.28724,-27.05724 -4.70272,-2.84449 -13.23874,-6.79521 -18.96891,-8.7794 l -10.41851,-3.6076 7.29872,-6.90281 c 4.0143,-3.79655 10.7503,-8.51713 14.96891,-10.4902 6.71668,-3.1414 9.32771,-3.58826 21.00352,-3.59451 12.23644,-0.007 14.07272,0.34311 22.321,4.25036 15.02635,7.11807 26.9045,21.77491 29.68523,36.62958 0.50317,2.6879 2.3312,6.21768 4.06229,7.84396 2.89571,2.72037 3.9786,2.88516 13.53947,2.06034 18.73305,-1.6161 38.97377,2.95487 54.39202,12.28339 10.07489,6.09563 17.73484,13.103 27.01881,24.717 l 7.29441,9.12512 5.51006,-0.83564 c 16.51566,-2.50469 26.758,-2.34355 34.44556,0.54196 12.66282,4.75296 24.21816,17.1497 28.315,30.37679 l 0.9292,3 H 341.33334 21.153634 Z M 554.94389,643.66669 c 3.63577,-2.85804 4.00794,-6.94455 0.98272,-10.7905 -3.30407,-4.20044 -7.90962,-4.57822 -11.21994,-0.92036 -6.6568,7.35569 2.48051,17.8083 10.23722,11.71086 z M 374.77195,628.55558 c 0.064,-1.55327 0.37992,-1.8692 0.80554,-0.80556 0.38516,0.96249 0.3378,2.11251 -0.1052,2.55556 -0.44305,0.44305 -0.75818,-0.34445 -0.70029,-1.75 z m 69.33333,0 c 0.064,-1.55327 0.37992,-1.8692 0.80555,-0.80556 0.38516,0.96249 0.3378,2.11251 -0.1052,2.55556 -0.44305,0.44305 -0.75819,-0.34445 -0.70029,-1.75 z M 17.333334,627.49661 c 0,-0.27687 1.05,-1.32687 2.333333,-2.33334 2.114742,-1.65849 2.161902,-1.61133 0.503407,0.50342 -1.741825,2.221 -2.83674,2.9273 -2.83674,1.82992 z m 645.163276,-1.82992 c -1.65849,-2.11475 -1.61133,-2.16191 0.50341,-0.50342 1.28334,1.00647 2.33334,2.05647 2.33334,2.33334 0,1.09738 -1.09492,0.39108 -2.83675,-1.82992 z m -512.00002,-4 c -1.65849,-2.11475 -1.61133,-2.16191 0.50342,-0.50342 1.28333,1.00647 2.33333,2.05647 2.33333,2.33334 0,1.09738 -1.09492,0.39108 -2.83675,-1.82992 z m 248.83676,-1.66667 c 1.32732,-1.46667 2.7133,-2.66667 3.07997,-2.66667 0.36667,0 -0.41932,1.2 -1.74664,2.66667 -1.32732,1.46667 -2.71331,2.66667 -3.07997,2.66667 -0.36667,0 0.41932,-1.2 1.74664,-2.66667 z m 19.87332,-0.33333 -2.53999,-3 3,2.53998 c 2.81925,2.38696 3.60699,3.46002 2.53999,3.46002 -0.25302,0 -1.60302,-1.35 -3,-3 z m -255.78761,-0.0575 c 0.50071,-1.31496 1.24625,-2.05496 1.65677,-1.64444 0.41052,0.41052 8.6e-4,1.48639 -0.91037,2.39084 -1.31683,1.30701 -1.46997,1.15387 -0.7464,-0.7464 z m -64.75239,-1.44595 c 0,-0.27686 1.05,-1.32686 2.33333,-2.33333 2.11474,-1.65849 2.1619,-1.61133 0.50341,0.50341 -1.741825,2.221 -2.83674,2.92731 -2.83674,1.82992 z m 49.54386,-2.16325 c 0,-1.83333 0.30264,-2.58333 0.67252,-1.66667 0.36988,0.91667 0.36988,2.41667 0,3.33334 -0.36988,0.91666 -0.67252,0.16666 -0.67252,-1.66667 z m 15.20853,-3.60916 c -0.72357,-1.90027 -0.57043,-2.05341 0.7464,-0.7464 0.91123,0.90445 1.32089,1.98032 0.91037,2.39084 -0.41052,0.41052 -1.15606,-0.32948 -1.65677,-1.64444 z m 64.24761,1.39279 c 0.91667,-0.36988 2.41667,-0.36988 3.33334,0 0.91666,0.36988 0.16666,0.67252 -1.66667,0.67252 -1.83333,0 -2.58333,-0.30264 -1.66667,-0.67252 z m 48.69205,-0.0409 c 1.29729,-0.33805 3.09729,-0.31582 4,0.0495 0.9027,0.36524 -0.15871,0.64183 -2.35871,0.61465 -2.2,-0.0272 -2.93859,-0.326 -1.64129,-0.66405 z m -41.69205,-0.91277 c 0,-0.27687 1.05,-1.32687 2.33334,-2.33333 2.11474,-1.6585 2.1619,-1.61134 0.50341,0.50341 -1.74183,2.221 -2.83675,2.92731 -2.83675,1.82992 z m 35.82993,-1.82992 c -1.6585,-2.11475 -1.61134,-2.16191 0.50341,-0.50341 1.28333,1.00646 2.33333,2.05646 2.33333,2.33333 0,1.09739 -1.09492,0.39108 -2.83674,-1.82992 z m -121.16326,0.49659 c 0,-0.27687 1.05,-1.32687 2.33333,-2.33334 2.11475,-1.65849 2.16191,-1.61133 0.50342,0.50342 -1.74183,2.221 -2.83675,2.9273 -2.83675,1.82992 z m 235.33334,-6.16326 c 1.32732,-1.46666 2.71331,-2.66666 3.07997,-2.66666 0.36667,0 -0.41932,1.2 -1.74664,2.66666 -1.32732,1.46667 -2.7133,2.66667 -3.07997,2.66667 -0.36667,0 0.41932,-1.2 1.74664,-2.66667 z m 49.20665,-0.33333 -2.53998,-3 3,2.53999 c 1.65,1.39698 3,2.74698 3,3 0,1.067 -1.07306,0.27926 -3.46002,-2.53999 z M 218.97601,602.6667 c 0,-2.56667 0.2744,-3.61667 0.60977,-2.33334 0.33536,1.28334 0.33536,3.38334 0,4.66667 -0.33537,1.28333 -0.60977,0.23333 -0.60977,-2.33333 z M 112,604.82994 c 0,-0.27687 1.05,-1.32687 2.33334,-2.33333 2.11474,-1.6585 2.1619,-1.61134 0.5034,0.50341 -1.74182,2.221 -2.83674,2.92731 -2.83674,1.82992 z m -19.999997,-9.49659 c 1.722327,-1.83333 3.431504,-3.33333 3.798171,-3.33333 0.366667,0 -0.742511,1.5 -2.464837,3.33333 -1.722327,1.83334 -3.431505,3.33334 -3.798171,3.33334 -0.366667,0 0.74251,-1.5 2.464837,-3.33334 z m 171.206657,-1 -2.53998,-3 3,2.53999 c 2.81925,2.38696 3.60698,3.46001 2.53998,3.46001 -0.25301,0 -1.60301,-1.35 -3,-3 z m 325.33335,0 -2.53999,-3 3,2.53999 c 2.81925,2.38696 3.60699,3.46001 2.53999,3.46001 -0.25302,0 -1.60302,-1.35 -3,-3 z m -184.87333,0.78363 c 0.91667,-0.36988 2.41667,-0.36988 3.33333,0 0.91667,0.36988 0.16667,0.67252 -1.66666,0.67252 -1.83334,0 -2.58334,-0.30264 -1.66667,-0.67252 z m 9.33333,0 c 0.91667,-0.36988 2.41667,-0.36988 3.33334,0 0.91666,0.36988 0.16666,0.67252 -1.66667,0.67252 -1.83333,0 -2.58333,-0.30264 -1.66667,-0.67252 z M 252.35872,589.7427 c 1.29729,-0.33805 3.09729,-0.31583 4,0.0495 0.9027,0.36524 -0.15871,0.64182 -2.35871,0.61465 -2.2,-0.0272 -2.93859,-0.326 -1.64129,-0.66405 z m -99.27538,-5.32016 c 0.96249,-0.38516 2.11249,-0.3378 2.55556,0.1052 0.44305,0.44305 -0.34445,0.75819 -1.75,0.70029 -1.55327,-0.064 -1.8692,-0.37992 -0.80556,-0.80554 z m 11.88693,-1.38483 c 2.36698,-0.29454 6.56698,-0.29938 9.33334,-0.0107 2.76634,0.28864 0.82973,0.52962 -4.3036,0.53554 -5.13334,0.005 -7.39672,-0.23024 -5.02974,-0.52478 z m 60.36307,0.4589 c 0,-0.27687 1.05,-1.32687 2.33333,-2.33334 2.11475,-1.65849 2.16191,-1.61133 0.50342,0.50342 -1.74183,2.221 -2.83675,2.9273 -2.83675,1.82992 z m 51.89908,-4.49659 -3.23241,-3.66667 3.66667,3.23242 c 2.01666,1.77784 3.66666,3.42784 3.66666,3.66666 0,1.04571 -1.07973,0.19464 -4.10092,-3.23241 z m -46.56575,-0.83675 c 0,-0.27686 1.05,-1.32686 2.33334,-2.33333 2.11474,-1.65849 2.1619,-1.61133 0.50341,0.50341 -1.74183,2.221 -2.83675,2.92731 -2.83675,1.82992 z m 15.75001,-8.4074 c 0.96249,-0.38516 2.11249,-0.3378 2.55556,0.1052 0.44305,0.44306 -0.34446,0.75819 -1.75,0.7003 -1.55327,-0.064 -1.8692,-0.37992 -0.80556,-0.80555 z m -84.00001,-6.66666 c 0.9625,-0.38516 2.1125,-0.3378 2.55556,0.1052 0.44306,0.44305 -0.34445,0.75818 -1.75,0.70029 -1.55326,-0.064 -1.8692,-0.37992 -0.80556,-0.80555 z m 11.91667,0.0277 c 0.91667,-0.36988 2.41667,-0.36988 3.33333,0 0.91667,0.36988 0.16667,0.67252 -1.66666,0.67252 -1.83334,0 -2.58334,-0.30264 -1.66667,-0.67252 z m 344.00001,0 c 0.91667,-0.36988 2.41667,-0.36988 3.33333,0 0.91667,0.36988 0.16667,0.67252 -1.66666,0.67252 -1.83334,0 -2.58334,-0.30264 -1.66667,-0.67252 z M 294.4966,559.00002 c -1.6585,-2.11475 -1.61134,-2.16191 0.50341,-0.50341 1.28333,1.00646 2.33333,2.05646 2.33333,2.33333 0,1.09739 -1.09492,0.39108 -2.83674,-1.82992 z m 16.17008,-1 c 1.72233,-1.83333 3.4315,-3.33333 3.79817,-3.33333 0.36667,0 -0.74251,1.5 -2.46484,3.33333 -1.72233,1.83333 -3.43151,3.33333 -3.79817,3.33333 -0.36667,0 0.7425,-1.5 2.46484,-3.33333 z m 59.89908,-0.33333 -3.23241,-3.66667 3.66666,3.23241 c 3.42706,3.02119 4.27812,4.10092 3.23242,4.10092 -0.23883,0 -1.88883,-1.65 -3.66667,-3.66666 z m 14.76759,3.16325 c 0,-0.27687 1.05,-1.32687 2.33333,-2.33333 2.11475,-1.6585 2.16191,-1.61134 0.50341,0.50341 -1.74182,2.221 -2.83674,2.92731 -2.83674,1.82992 z m -178.66668,-9.24713 c 0,-0.22947 1.95,-2.17947 4.33334,-4.33334 l 4.33333,-3.91612 -3.91612,4.33334 c -3.65037,4.03928 -4.75055,4.9462 -4.75055,3.91612 z m 78.49659,-4.58279 c -1.65849,-2.11475 -1.61133,-2.16191 0.50342,-0.50341 2.221,1.74182 2.9273,2.83674 1.82992,2.83674 -0.27687,0 -1.32687,-1.05 -2.33334,-2.33333 z m 49.25342,-1.24415 c 0.96249,-0.38516 2.11249,-0.3378 2.55556,0.1052 0.44305,0.44306 -0.34446,0.75819 -1.75,0.7003 -1.55327,-0.064 -1.8692,-0.37992 -0.80556,-0.80555 z m 12,0 c 0.96249,-0.38516 2.11251,-0.3378 2.55556,0.1052 0.44305,0.44306 -0.34445,0.75819 -1.75,0.7003 -1.55327,-0.064 -1.8692,-0.37992 -0.80556,-0.80555 z M 239.75001,532.42254 c 0.96249,-0.38516 2.11249,-0.3378 2.55556,0.1052 0.44305,0.44305 -0.34446,0.75818 -1.75,0.70029 -1.55327,-0.064 -1.8692,-0.37992 -0.80556,-0.80555 z m 16,0 c 0.96249,-0.38516 2.11249,-0.3378 2.55556,0.1052 0.44305,0.44305 -0.34445,0.75818 -1.75,0.70029 -1.55327,-0.064 -1.8692,-0.37992 -0.80556,-0.80555 z m 137.35482,-85.75586 c -0.27974,-2.93333 -0.0428,-5.33333 0.52661,-5.33333 0.56939,0 1.03524,2.4 1.03524,5.33333 0,2.93334 -0.23697,5.33334 -0.52661,5.33334 -0.28966,0 -0.75551,-2.4 -1.03524,-5.33334 z M 274.4966,339.00001 c -1.6585,-2.11475 -1.61134,-2.16191 0.50341,-0.50341 1.28333,1.00646 2.33333,2.05646 2.33333,2.33333 0,1.09739 -1.09492,0.39108 -2.83674,-1.82992 z m -62.13789,-21.25732 c 1.2973,-0.33805 3.0973,-0.31583 4,0.0495 0.90271,0.36524 -0.1587,0.64182 -2.3587,0.61465 -2.2,-0.0272 -2.93859,-0.326 -1.6413,-0.66405 z m 364.72464,-78.6535 c 0.9625,-0.38516 2.11251,-0.3378 2.55556,0.1052 0.44306,0.44306 -0.34445,0.75819 -1.75,0.7003 -1.55326,-0.064 -1.8692,-0.37992 -0.80556,-0.80555 z m -8,-1.33333 c 0.9625,-0.38516 2.11251,-0.3378 2.55556,0.1052 0.44306,0.44305 -0.34445,0.75819 -1.75,0.70029 -1.55326,-0.064 -1.8692,-0.37992 -0.80556,-0.80554 z m -14.66666,-2.66667 c 0.96249,-0.38516 2.1125,-0.3378 2.55556,0.1052 0.44305,0.44306 -0.34446,0.75819 -1.75,0.7003 -1.55327,-0.064 -1.8692,-0.37992 -0.80556,-0.80555 z m 29.6886,-1.20029 c 0.064,-1.55327 0.37992,-1.8692 0.80554,-0.80556 0.38516,0.96249 0.3378,2.11249 -0.1052,2.55556 -0.44305,0.44305 -0.75818,-0.34445 -0.70029,-1.75 z m -37.6886,-0.13307 c 0.96249,-0.38516 2.1125,-0.3378 2.55556,0.1052 0.44305,0.44306 -0.34446,0.75819 -1.75,0.7003 -1.55327,-0.064 -1.8692,-0.37992 -0.80556,-0.80555 z m -2.3114,-7.86696 c 0.064,-1.55326 0.37992,-1.8692 0.80554,-0.80556 0.38516,0.9625 0.3378,2.1125 -0.1052,2.55556 -0.44305,0.44306 -0.75818,-0.34445 -0.70029,-1.75 z m 41.33333,0 c 0.064,-1.55326 0.37992,-1.8692 0.80555,-0.80556 0.38516,0.9625 0.3378,2.1125 -0.1052,2.55556 -0.44306,0.44306 -0.75819,-0.34445 -0.7003,-1.75 z m 2.66667,-14.66666 c 0.064,-1.55327 0.37992,-1.8692 0.80554,-0.80556 0.38516,0.96249 0.3378,2.11249 -0.1052,2.55556 -0.44305,0.44305 -0.75818,-0.34446 -0.70029,-1.75 z m 1.33333,-8 c 0.064,-1.55327 0.37992,-1.8692 0.80555,-0.80556 0.38516,0.96249 0.3378,2.11249 -0.1052,2.55556 -0.44306,0.44305 -0.75819,-0.34446 -0.7003,-1.75 z m 2.66667,-14.66667 c 0.064,-1.55327 0.37992,-1.8692 0.80554,-0.80556 0.38516,0.96249 0.3378,2.11249 -0.1052,2.55556 -0.44305,0.44305 -0.75818,-0.34445 -0.70029,-1.75 z m 1.33333,-8 c 0.064,-1.55327 0.37992,-1.8692 0.80555,-0.80556 0.38516,0.96249 0.3378,2.11249 -0.1052,2.55556 -0.44306,0.44305 -0.75819,-0.34445 -0.7003,-1.75 z m 2.66667,-14.66667 c 0.064,-1.55326 0.37992,-1.8692 0.80554,-0.80556 0.38516,0.9625 0.3378,2.1125 -0.1052,2.55556 -0.44305,0.44306 -0.75818,-0.34445 -0.70029,-1.75 z m 1.33333,-8 c 0.064,-1.55326 0.37992,-1.8692 0.80555,-0.80556 0.38516,0.9625 0.3378,2.1125 -0.1052,2.55556 -0.44306,0.44306 -0.75819,-0.34445 -0.7003,-1.75 z m 2.66667,-14.66667 c 0.064,-1.55326 0.37992,-1.8692 0.80554,-0.80556 0.38516,0.9625 0.3378,2.1125 -0.1052,2.55556 -0.44305,0.44306 -0.75818,-0.34445 -0.70029,-1.75 z m 1.33333,-8 c 0.064,-1.55326 0.37992,-1.8692 0.80555,-0.80556 0.38516,0.9625 0.3378,2.1125 -0.1052,2.55556 -0.44306,0.44306 -0.75819,-0.34445 -0.7003,-1.75 z m 2.66667,-14.66667 c 0.064,-1.55325 0.37992,-1.8692 0.80554,-0.80555 0.38516,0.9625 0.3378,2.1125 -0.1052,2.55555 -0.44305,0.44306 -0.75818,-0.34444 -0.70029,-1.75 z m 1.33333,-8 c 0.064,-1.55325 0.37992,-1.8692 0.80555,-0.80555 0.38516,0.9625 0.3378,2.1125 -0.1052,2.55555 -0.44306,0.44306 -0.75819,-0.34444 -0.7003,-1.75 z m 2.66667,-14.666664 c 0.064,-1.553257 0.37992,-1.8692 0.80554,-0.805556 0.38516,0.9625 0.3378,2.1125 -0.1052,2.555556 -0.44305,0.443054 -0.75818,-0.344445 -0.70029,-1.75 z m -13.6886,-4.133015 c 0.96249,-0.385161 2.1125,-0.337792 2.55556,0.105267 0.44305,0.443056 -0.34446,0.758188 -1.75,0.700293 -1.55327,-0.06397 -1.8692,-0.379921 -0.80556,-0.805556 z m -8,-1.333333 c 0.96249,-0.385162 2.1125,-0.337792 2.55556,0.105266 0.44305,0.443057 -0.34446,0.758189 -1.75,0.700294 -1.55327,-0.06397 -1.8692,-0.379921 -0.80556,-0.805556 z m -14.66667,-2.666667 c 0.96249,-0.385161 2.11251,-0.337792 2.55556,0.105267 0.44305,0.443056 -0.34445,0.758188 -1.75,0.700293 -1.55327,-0.06397 -1.8692,-0.379921 -0.80556,-0.805556 z"
         id="path176" />
      <path
         style="fill:#368800;stroke-width:1.33333"
         d="m 438.80077,443.81794 -5.86592,-1.38699 8.56338,-2.88213 c 22.52849,-7.58231 43.03319,-29.34509 59.44723,-63.09466 3.5097,-7.21645 6.4083,-13.24636 6.44134,-13.3998 0.14782,-0.68657 16.07543,3.951 17.15564,4.99513 1.62044,1.56632 -9.26973,23.89974 -18.73357,38.41854 -19.5476,29.98866 -42.95677,43.0368 -67.0081,37.34991 z M 219.64509,423.44399 c -7.1385,-1.92014 -8.90276,-3.07362 -6.16926,-4.03343 16.88784,-5.92987 31.59985,-14.46153 30.85155,-17.89121 -0.25896,-1.1869 19.81286,7.77161 22.14143,9.88222 1.1778,1.06756 -13.32635,8.87004 -20.94259,11.26602 -9.63072,3.02972 -16.71401,3.24221 -25.88113,0.7764 z m -23.1051,-13.11064 -2.53998,-3 3,2.53998 c 2.81925,2.38696 3.60698,3.46002 2.53998,3.46002 -0.25301,0 -1.60301,-1.35 -3,-3 z m 210.12669,-1 c 0,-2.2 0.23191,-4 0.51533,-4 0.28344,0 0.77952,1.8 1.10242,4 0.32289,2.2 0.0909,4 -0.51534,4 -0.60633,0 -1.10241,-1.8 -1.10241,-4 z m -218.76759,-7.66667 -3.23242,-3.66667 3.66667,3.23242 c 3.42705,3.02118 4.27812,4.10092 3.23241,4.10092 -0.23882,0 -1.88882,-1.65 -3.66666,-3.66667 z m 281.53953,-2.44444 c 0.064,-1.55327 0.37992,-1.8692 0.80554,-0.80556 0.38516,0.96249 0.3378,2.11251 -0.1052,2.55556 -0.44305,0.44305 -0.75818,-0.34445 -0.70029,-1.75 z m -2.94202,-6.88889 c -1.65849,-2.11475 -1.61133,-2.16191 0.50342,-0.50342 1.28333,1.00647 2.33333,2.05647 2.33333,2.33334 0,1.09738 -1.09492,0.39108 -2.83675,-1.82992 z m -201.43803,-4.18406 -10.27476,-4.81594 -0.0585,-7.80755 c -0.0685,-9.14129 -3.20798,-22.398 -6.74051,-28.463 l -2.48736,-4.27055 6.50264,4.00112 c 12.50272,7.693 19.83337,19.38906 22.73855,36.27934 0.85828,4.98997 1.34322,9.25716 1.07765,9.48261 -0.26557,0.22547 -5.10651,-1.75724 -10.75764,-4.40603 z m -52.9533,-8.92705 c 0.064,-1.55327 0.37992,-1.8692 0.80555,-0.80556 0.38516,0.96249 0.3378,2.11251 -0.1052,2.55556 -0.44307,0.44305 -0.75819,-0.34445 -0.70029,-1.75 z m 282.31141,-18.79971 c 0.9625,-0.38516 2.11251,-0.3378 2.55556,0.1052 0.44306,0.44306 -0.34445,0.75819 -1.75,0.7003 -1.55326,-0.064 -1.8692,-0.37992 -0.80556,-0.80555 z m -41.33333,-1.33333 c 0.96249,-0.38516 2.11251,-0.3378 2.55556,0.1052 0.44305,0.44305 -0.34445,0.75819 -1.75,0.70029 -1.55327,-0.064 -1.8692,-0.37992 -0.80556,-0.80554 z m 30.58333,0.0277 c 0.91667,-0.36988 2.41667,-0.36988 3.33334,0 0.91666,0.36988 0.16666,0.67252 -1.66667,0.67252 -1.83333,0 -2.58333,-0.30264 -1.66667,-0.67252 z M 185.08334,340.4225 c 0.96249,-0.38516 2.11249,-0.3378 2.55556,0.1052 0.44305,0.44305 -0.34445,0.75819 -1.75,0.70029 -1.55327,-0.064 -1.8692,-0.37992 -0.80556,-0.80554 z m 9.33333,-1.33333 c 0.9625,-0.38516 2.1125,-0.3378 2.55556,0.1052 0.44306,0.44305 -0.34445,0.75818 -1.75,0.70029 -1.55326,-0.064 -1.8692,-0.37992 -0.80556,-0.80555 z m 15.94055,-1.38883 c 2.39647,-0.29675 5.99647,-0.29063 8,0.0136 2.00353,0.30424 0.0428,0.54703 -4.35721,0.53955 -4.4,-0.008 -6.03926,-0.2564 -3.64279,-0.55315 z m 141.62459,-45.37935 c -0.0107,-10.07656 -0.38668,-19.69657 -0.83702,-21.3778 -0.57202,-2.13537 -0.28982,-2.93918 0.93618,-2.66666 2.59046,0.57582 10.286,-11.50186 12.76746,-20.03774 1.5871,-5.45945 1.97636,-10.61968 1.47042,-19.49296 l -0.68808,-12.06793 4.47503,8.66104 c 11.52879,22.31304 15.06341,45.51793 8.97105,58.89527 -3.59736,7.89892 -12.16452,17.23214 -20.55894,22.39729 l -6.5179,4.01049 -0.0181,-18.321 z m -29.38743,13.23626 c -6.04773,-3.85254 -14.52448,-12.44396 -17.18772,-17.42027 -1.3812,-2.58079 -1.2491,-2.67776 1.97676,-1.45129 4.46898,1.6991 11.97588,1.66249 18.28326,-0.0892 l 5,-1.38858 v -8.82621 c 0,-4.85443 0.33322,-8.493 0.74049,-8.08572 1.02861,1.0286 -0.93152,41.03728 -2.01052,41.03728 -0.48101,0 -3.54203,-1.69923 -6.80227,-3.77607 z m -22.33444,-34.22394 c 0.0272,-2.2 0.326,-2.93858 0.66406,-1.64129 0.33805,1.29729 0.31582,3.09729 -0.0495,4 -0.36524,0.90271 -0.64183,-0.15871 -0.61465,-2.35871 z m 0,-8 c 0.0272,-2.2 0.326,-2.93858 0.66406,-1.64129 0.33805,1.29729 0.31582,3.09729 -0.0495,4 -0.36524,0.90271 -0.64183,-0.15871 -0.61465,-2.35871 z"
         id="path174" />
      <path
         style="fill:#040403;stroke-width:1.33333"
         d="M 5.7615711,681.08172 C 0.43723011,678.50761 -0.64544865,673.14106 1.7285325,661.09106 4.5111,646.96712 9.2485632,637.61354 18.780539,627.42383 32.410392,612.85347 49.09354,606.11822 69.780377,606.83439 l 12.219626,0.42303 8.666667,-9.11428 c 20.88628,-21.96501 46.85521,-33.85943 75.38362,-34.52756 l 12.05028,-0.28223 5.05358,-10.48317 c 11.69398,-24.25802 38.01204,-40.81991 64.84586,-40.80731 17.73991,0.008 37.81584,7.82212 49.93671,19.43595 l 6.22974,5.96916 4.6834,-2.89451 c 2.57588,-1.59199 8.68843,-4.24307 13.58344,-5.89131 l 8.90004,-2.99681 0.35712,-33.06 0.35712,-33.06001 -3.6023,-5.19814 c -5.47468,-7.89997 -23.01042,-23.75125 -32.32854,-29.22313 l -8.30332,-4.87595 -8.68014,6.56999 c -49.10434,37.16693 -98.41285,16.62925 -133.40962,-55.56698 -4.27056,-8.8099 -8.92746,-19.43892 -10.34867,-23.62004 -2.57843,-7.58561 -2.57811,-7.60993 0.14893,-11.26251 5.66036,-7.58144 41.41737,-16.17978 71.96621,-17.30542 32.87201,-1.21124 50.84517,4.35074 67.27388,20.81862 13.27893,13.31058 18.93112,27.18427 20.71792,50.85355 l 0.8906,11.79774 8.53067,4.98892 c 4.69186,2.74389 12.39205,8.17396 17.11152,12.0668 4.71946,3.89284 8.89685,7.07789 9.28308,7.07789 0.38621,0 0.68592,-21.15 0.66602,-47 l -0.0363,-47 -10.74574,-5.0872 c -14.1461,-6.69698 -28.64849,-20.60674 -34.43425,-33.0271 -10.35591,-22.2312 -7.65484,-46.7394 8.70045,-78.94372 11.13568,-21.92667 35.85132,-55.72776 42.63431,-58.30664 5.10935,-1.94257 9.08996,0.43447 17.24912,10.30033 25.4778,30.80722 43.40106,66.40494 46.56511,92.48387 1.22977,10.13611 -1.21237,24.19811 -5.98573,34.46616 -5.7721,12.41647 -20.27038,26.32556 -34.4261,33.0271 l -10.74573,5.0872 -0.0363,57.63917 -0.0361,57.63918 10.33333,-8.33212 c 5.68334,-4.58266 13.69382,-10.2249 17.80108,-12.53831 l 7.46775,-4.20619 0.90327,-11.9654 c 1.52805,-20.24176 6.85768,-35.6725 16.0167,-46.37277 4.39596,-5.13568 4.80638,-6.55205 9.39102,-32.40927 2.63678,-14.87137 5.40233,-28.17525 6.14565,-29.56417 0.74333,-1.38892 2.8494,-2.90126 4.68017,-3.36075 1.85386,-0.46528 21.32271,2.29351 43.94138,6.22663 22.33699,3.88413 40.93073,6.74402 41.31944,6.35533 0.38869,-0.38871 6.6766,-34.50995 13.97312,-75.82499 14.42938,-81.70336 14.05859,-80.39745 22.82747,-80.39745 4.82975,0 9.21329,4.26289 9.17809,8.92548 -0.012,1.56876 -2.61933,17.55229 -5.79441,35.51896 -3.99901,22.62896 -5.32392,32.91761 -4.3118,33.48336 2.26815,1.26782 38.03656,7.05228 38.81215,6.27668 0.72961,-0.7296 26.03837,-142.815057 25.52938,-143.324043 -0.63482,-0.634816 -39.7313,-7.362344 -40.17126,-6.912469 -0.2562,0.262056 -1.7318,7.676465 -3.27902,16.476462 -2.40554,13.68179 -3.31968,16.44879 -6.30925,19.09745 -3.83237,3.39536 -8.49735,3.12492 -12.78751,-0.74131 -2.95218,-2.66047 -2.90876,-6.93893 0.24723,-24.35308 1.39516,-7.698316 2.36379,-14.169826 2.15248,-14.381133 -0.21131,-0.211307 -7.51269,-1.598724 -16.22528,-3.08315 -16.49503,-2.810368 -21.06612,-4.663253 -22.4779,-9.111353 -0.88648,-2.793052 9.09254,-62.615189 11.30772,-67.7875277 2.72147,-6.3544248 3.82667,-6.25621284 80.28602,7.1344737 39.80703,6.971592 73.73846,13.241999 75.40318,13.934239 5.77746,2.402433 5.87485,6.062983 0.91153,34.262092 -7.08959,40.279429 -7.06007,40.162529 -10.7528,42.582109 -3.04069,1.99234 -4.52923,1.93061 -20.63403,-0.85562 -9.5463,-1.65157 -17.5516,-2.784076 -17.78952,-2.51669 -0.23793,0.2674 -9.34017,51.06827 -20.22721,112.89084 -16.88496,95.88202 -19.50772,112.58198 -17.84283,113.61094 1.07348,0.66345 5.21712,1.61425 9.20809,2.11289 8.31944,1.03944 13.43332,5.05119 13.43332,10.53817 0,3.50005 -5.25786,10.00001 -8.08906,10.00001 -0.84899,0 -39.34391,-6.67596 -85.54427,-14.83547 -59.15496,-10.44744 -84.27306,-14.3947 -84.92166,-13.34524 -1.25235,2.02633 -4.48243,21.58773 -3.69475,22.37541 0.34638,0.34639 4.14427,-0.45573 8.43975,-1.78246 12.10518,-3.73889 48.30103,-3.37195 67.35903,0.68284 23.60621,5.02248 37.09578,9.70152 40.2853,13.97353 l 2.77978,3.72321 -3.10542,8.93743 c -13.44153,38.6848 -41.81239,77.02458 -65.5087,88.52703 -12.65695,6.14383 -23.24512,8.30733 -35.56915,7.26793 -9.03432,-0.76194 -25.44192,-5.82366 -29.32575,-9.04696 -4.19864,-3.48456 -0.3434,13.77126 5.85116,26.18942 1.82904,3.66666 7.44455,12.08912 12.4789,18.71656 8.93729,11.76545 9.32848,12.08662 16.57232,13.60602 19.63832,4.11919 38.37423,18.9809 48.06337,38.12487 l 5.26248,10.3977 14.8008,0.67854 c 11.54034,0.52908 15.88991,0.2235 19.74479,-1.38717 10.83248,-4.52609 64.20714,-39.01219 72.7192,-46.98487 9.7346,-9.11772 17.36667,-20.95511 21.33511,-33.09088 1.44976,-4.43343 7.17376,-33.81553 12.72003,-65.29358 10.62261,-60.28908 10.56257,-59.36492 3.85989,-59.41345 -1.5511,-0.0107 -4.43322,-1.28923 -6.4047,-2.84 -4.76196,-3.74575 -4.42639,-11.02144 0.68352,-14.81964 3.35893,-2.4967 3.8132,-2.50563 15.7597,-0.31016 12.46003,2.28984 17.4476,5.11033 17.44891,9.86747 10e-4,4.4655 -22.73275,130.50507 -24.78583,137.41525 -4.62309,15.5602 -14.66986,31.44588 -27.43217,43.37496 -4.68283,4.37711 -18.09962,13.92699 -29.81508,21.22195 -11.71546,7.29498 -24.50136,15.29574 -28.41314,17.77948 l -7.11229,4.51591 8.40088,4.88719 c 4.62049,2.68794 13.82103,10.23238 20.44564,16.7654 l 12.04475,11.87821 12.21962,-0.33921 c 20.78423,-0.57696 37.43527,6.17269 50.99985,20.67326 9.53197,10.18971 14.26944,19.54329 17.052,33.66723 2.42324,12.30003 1.28382,17.46852 -4.42432,20.06934 -4.532,2.06492 -666.479007,1.98726 -670.7522689,-0.0787 z M 660.58386,659.66669 c -4.09684,-13.22709 -15.65217,-25.62383 -28.315,-30.37679 -7.68756,-2.88551 -17.92989,-3.04665 -34.44556,-0.54196 l -5.51005,0.83564 -7.29442,-9.12512 c -9.28397,-11.614 -16.94392,-18.62137 -27.01881,-24.717 -15.41824,-9.32852 -35.65896,-13.89949 -54.39202,-12.28339 -9.56086,0.82482 -10.64376,0.66003 -13.53946,-2.06034 -1.7311,-1.62628 -3.55912,-5.15606 -4.0623,-7.84396 -2.78073,-14.85467 -14.65888,-29.51151 -29.68522,-36.62958 -8.24828,-3.90725 -10.08456,-4.25692 -22.32101,-4.25036 -18.30668,0.009 -25.29536,3.26305 -40.21406,18.71975 -6.45218,6.68484 -11.95555,11.27311 -13.5215,11.27311 -1.45241,0 -5.55608,-2.41486 -9.11926,-5.36635 -10.9369,-9.05937 -16.84883,-11.30032 -29.81185,-11.30032 -12.96301,0 -18.87494,2.24095 -29.81184,11.30032 -3.56318,2.95149 -7.67318,5.36635 -9.13333,5.36635 -1.46016,0 -4.54483,-2.04042 -6.85483,-4.53426 -2.31,-2.49384 -6.75876,-7.26054 -9.88612,-10.59269 -3.23278,-3.44447 -9.54877,-7.96003 -14.63862,-10.46575 -8.32572,-4.09873 -9.888,-4.40731 -22.31388,-4.40731 -11.77082,0 -14.28767,0.43395 -21.14257,3.64534 -15.73205,7.37015 -26.23322,19.48785 -30.70769,35.43472 -1.23101,4.38731 -3.21471,8.78733 -4.4082,9.77784 -1.57376,1.30609 -7.15235,1.82711 -20.30312,1.89619 -16.17457,0.0849 -19.28524,0.49201 -28.7998,3.76868 -5.86667,2.02037 -13.96667,5.54661 -18,7.83609 -6.75365,3.83361 -21.19144,17.34093 -31.641283,29.60209 -4.172847,4.89615 -4.486454,5.01783 -10.000001,3.88019 -3.130629,-0.64596 -11.392054,-1.15835 -18.35872,-1.13865 -11.039359,0.0312 -13.526537,0.48518 -19.35974,3.5336 -10.963168,5.72932 -20.035759,16.69023 -23.904661,28.88005 l -0.915301,2.88387 H 341.33334 661.51306 Z m -115.829,-16.10399 c -5.16793,-3.77888 -1.23503,-14.22935 5.35504,-14.22935 4.00399,0 8.87127,6.17959 7.77884,9.87618 -1.69423,5.73297 -8.26741,7.91163 -13.13388,4.35317 z m -163.00102,-4.90532 c -9.64357,-3.88548 -6.37949,-23.97836 5.60459,-34.50052 7.0147,-6.159 13.21457,-8.48144 22.64158,-8.48144 4.4,0 10.14364,0.89797 12.76364,1.99551 18.34731,7.68576 28.78789,35.84348 15.20518,41.00761 -6.91047,2.62736 -13.96882,-3.09941 -13.96882,-11.33357 0,-4.21299 -4.99769,-9.78522 -10,-11.1496 -8.28769,-2.26048 -18,3.81244 -18,11.25506 0,5.20106 -2.83145,9.6795 -7.04941,11.14989 -2.20835,0.76984 -4.07565,1.36168 -4.14955,1.31518 -0.0739,-0.0465 -1.44514,-0.61264 -3.04721,-1.25812 z M 151.53999,621.5617 c -4.49606,-4.96809 -1.16412,-13.59224 5.23167,-13.54127 3.33291,0.0265 5.13531,1.29503 7.07565,4.97959 3.90675,7.41857 -6.67804,14.78196 -12.30732,8.56168 z m 70.9569,-11.0648 c -2.43364,-2.43364 -2.73842,-3.91776 -2.14604,-10.45047 0.79892,-8.81064 3.01109,-13.61264 9.13062,-19.82005 12.84935,-13.03384 32.47437,-13.93832 46.26699,-2.13235 6.99754,5.98963 10.93464,13.45124 11.8243,22.40946 0.83729,8.43096 -2.39183,12.82986 -9.41804,12.82986 -5.57922,0 -8.48914,-3.16096 -10.55302,-11.46344 -4.15306,-16.70669 -23.96197,-16.06312 -27.77387,0.90236 -0.72354,3.22027 -2.27378,6.91388 -3.445,8.20806 -2.98409,3.29738 -10.36198,3.04053 -13.88594,-0.48343 z m 162.55162,-79.22324 c 6.3018,-6.07606 25.13148,-16.60698 29.69388,-16.60698 4.42648,0 4.11145,-2.53233 -1.19938,-9.64081 -11.29102,-15.11295 -17.38374,-31.82933 -18.50056,-50.75936 -0.86692,-14.69416 -0.26237,-14.31308 -11.40189,-7.18721 -9.07403,5.80457 -22.30461,18.07688 -28.31379,26.26301 l -4.72401,6.4354 0.36529,22.9444 0.3653,22.94441 8.98001,3.02315 c 4.939,1.66275 10.939,4.27767 13.33333,5.81096 2.39432,1.53329 4.52515,2.79791 4.73515,2.81026 0.21,0.012 3.21,-2.70441 6.66667,-6.03723 z m 86.63008,-91.3241 c 16.70357,-8.18595 33.86867,-28.94023 47.84505,-57.84937 3.69468,-7.64219 5.7361,-13.36136 5.0188,-14.06052 -1.54982,-1.51067 -19.85129,-6.14363 -31.67494,-8.01843 -12.05275,-1.91111 -35.68319,-1.86517 -44.86748,0.0872 -16.31746,3.46877 -28.97733,13.10263 -35.38086,26.924 -3.07133,6.62913 -7.01919,24.34529 -5.7156,25.64889 0.36663,0.36662 11.88729,-4.73669 25.60147,-11.3407 13.71419,-6.604 26.22224,-12.00728 27.79567,-12.00728 7.92068,0 12.14725,12.02473 5.9413,16.90322 -1.70024,1.33656 -13.7589,7.50707 -26.79705,13.71226 l -23.70571,11.28213 3.11767,2.52453 c 4.41788,3.57739 14.91448,8.72825 20.80433,10.20905 9.51684,2.39266 22.1836,0.80425 32.01735,-4.01498 z M 245.52622,422.66759 c 4.66059,-1.46616 11.47379,-4.57428 15.14046,-6.90692 l 6.66666,-4.24118 -24.86513,-12.09308 c -13.67583,-6.65118 -25.82583,-12.91653 -27,-13.92298 -5.33167,-4.57011 -0.66764,-16.17008 6.50152,-16.17008 1.81669,0 14.71669,5.34724 28.66667,11.88276 19.70753,9.23292 25.35845,11.38857 25.34046,9.66666 -0.0529,-5.06252 -3.96812,-20.30521 -6.48057,-25.23002 -10.92087,-21.40667 -34.92215,-30.73166 -69.54656,-27.02026 -18.94539,2.03077 -42.61639,7.68226 -42.61639,10.17472 0,2.87518 12.78388,27.7646 19.74935,38.45075 3.37304,5.1748 10.35932,13.67409 15.52506,18.88732 17.18831,17.34633 33.80623,22.53481 52.91847,16.52231 z M 570.53179,315.66668 c 3.88771,-19.61359 9.66194,-54.58408 9.10476,-55.14126 -0.86818,-0.86818 -39.64172,-7.66108 -40.12529,-7.02972 -0.58635,0.76555 -11.13859,61.77538 -10.76835,62.25928 0.50088,0.65466 32.81292,6.58276 36.82924,6.75686 3.2766,0.14202 3.68694,-0.42431 4.95964,-6.84516 z M 370.63672,296.54474 c 8.42405,-9.13902 11.24937,-16.4698 11.2582,-29.2114 0.009,-13.51189 -3.68169,-25.86179 -13.34963,-44.66667 -7.87497,-15.3174 -24.48734,-39.33333 -27.20777,-39.33333 -2.00378,0 -16.44688,19.72679 -24.34742,33.25437 -11.663,19.9698 -18.17856,41.84717 -16.55234,55.57794 1.03397,8.73027 4.85282,16.9646 11.07869,23.88816 4.606,5.12219 15.59292,13.27953 17.88584,13.27953 0.48411,0 1.30827,-9.3594 1.83147,-20.79866 0.52318,-11.43927 1.25274,-21.58434 1.62122,-22.5446 1.28098,-3.33816 8.06348,-5.15211 12.45803,-3.33183 5.48774,2.27309 6.67058,7.52592 6.67956,29.66277 l 0.008,18.321 6.5179,-4.01049 c 3.58484,-2.20577 9.0383,-6.74483 12.11881,-10.08679 z M 657.29053,63.729256 c 1.49023,-8.582245 2.70949,-16.706402 2.70949,-18.053685 0,-2.050043 -2.12046,-2.830608 -13,-4.785427 C 567.49277,26.604392 539.18733,21.812945 538.40783,22.508033 c -1.87074,1.66817 -7.42828,39.030921 -5.8868,39.576373 0.81344,0.287836 28.17899,5.250372 60.81232,11.027858 52.70683,9.331347 59.44025,10.265326 60.29051,8.362796 0.52646,-1.177948 2.17646,-9.16356 3.66667,-17.745804 z"
         id="path172" />
    </g>
  </g>
</svg>
