<?xml version="1.0" encoding="UTF-8" standalone="no"?>
<!-- Created with Inkscape (http://www.inkscape.org/) -->

<svg
   version="1.1"
   id="svg2"
   width="512"
   height="512"
   viewBox="0 0 512 512"
   xmlns="http://www.w3.org/2000/svg"
   xmlns:svg="http://www.w3.org/2000/svg">
  <defs
     id="defs6" />
  <g
     id="g8">
    <g
       id="g170">
      <path
         style="fill:#cbee9a"
         d="m 120.75627,438.12218 c -5.18781,-6.16535 -4.38958,-14.60292 1.9043,-20.12902 4.57634,-4.01808 8.34087,-3.81801 9.53705,0.50684 1.65864,5.99686 -1.3889,15.56088 -6.46874,20.30071 l -2.46575,2.30072 z M 54.982133,427.75 C 60.747306,421.8375 65.584806,417 65.732133,417 66.45434,417 65.234829,418.28184 55.25,428.01787 L 44.5,438.5 Z M 82.5,411 c 3.265566,-3.3 6.162393,-6 6.437393,-6 0.275,0 -2.171827,2.7 -5.437393,6 -3.265566,3.3 -6.162393,6 -6.437393,6 -0.275,0 2.171827,-2.7 5.437393,-6 z m 72.64998,-1.01101 c -1.22437,-1.65606 -3.96463,-4.16149 -6.08945,-5.56763 -4.38141,-2.89948 -5.56263,-6.539 -4.12919,-12.72268 1.99239,-8.59492 8.94997,-14.77551 17.42409,-15.47825 4.95173,-0.41063 5.29614,-0.28325 6.55132,2.42307 2.2336,4.81594 2.55209,14.45898 0.66519,20.13992 C 167.87035,403.90641 160.85415,413 158.60307,413 c -0.67482,0 -2.22871,-1.35495 -3.45309,-3.01101 z M 171,311.5 C 216.3725,266.125 253.72045,229 253.99545,229 254.27045,229 217.3725,266.125 172,311.5 126.6275,356.875 89.279545,394 89.004545,394 88.729545,394 125.6275,356.875 171,311.5 Z m 21.12485,61.67533 c -1.10624,-1.55357 -3.82664,-4.08267 -6.04534,-5.62023 -6.19386,-4.29235 -6.52197,-11.84145 -0.87752,-20.19022 C 187.99316,343.23643 196.04596,339 201.10234,339 c 3.52373,0 3.78954,0.23446 5.30366,4.67814 2.02328,5.93802 2.03015,12.68557 0.0189,18.58825 C 204.74726,367.18998 197.72818,376 195.48311,376 c -0.74081,0 -2.25203,-1.2711 -3.35826,-2.82467 z M 224.75,332.68395 c -5.71361,-5.78498 -6.75,-7.3651 -6.75,-10.29126 0,-10.05912 9.91974,-20.30395 19.72432,-20.37073 2.60773,-0.0178 3.53212,0.57325 4.83387,3.09056 4.21575,8.15237 2.35721,21.1215 -4.10947,28.67636 -5.69434,6.65255 -6.06661,6.62252 -13.69872,-1.10493 z m 37,-36.81985 c -6.01751,-5.96671 -6.74762,-7.10924 -6.72804,-10.52856 0.0601,-10.49779 10.08299,-20.30404 20.77907,-20.32996 1.70059,-0.004 2.69489,0.93708 3.81044,3.60696 3.93477,9.41723 2.209,20.73237 -4.3266,28.36776 -5.52431,6.45391 -5.93443,6.42009 -13.53487,-1.1162 z M 160.71463,269.85915 c -4.29715,-3.20507 -7.09966,-9.46822 -7.14348,-15.96453 C 153.49902,243.20276 162.28431,234 172.56328,234 c 4.16566,0 4.27988,0.0915 5.84272,4.67814 3.44837,10.12041 1.10198,20.72651 -6.27958,28.38474 -5.22541,5.42128 -7.23285,5.91317 -11.41179,2.79627 z m 140.2837,-8.69477 c -2.47592,-2.56541 -5.51342,-5.44748 -6.75,-6.40459 -2.57888,-1.99606 -2.96702,-6.62898 -1.08237,-12.91939 2.12334,-7.08708 11.67269,-13.81552 19.63507,-13.83482 5.53375,-0.0134 7.71933,17.29562 3.28227,25.99442 -2.13947,4.19439 -8.80485,12.10711 -10.03625,11.91438 -0.30088,-0.0471 -2.5728,-2.18459 -5.04872,-4.75 z m 38.65003,-35.57829 c -0.86991,-1.32765 -3.66715,-3.9116 -6.21608,-5.74211 l -4.63444,-3.3282 0.39092,-6.1393 c 0.62207,-9.76938 6.55737,-16.49839 16.40485,-18.59866 5.29315,-1.12892 6.42868,-0.42615 8.27504,5.1214 2.84899,8.56001 0.43102,19.20664 -6.02874,26.54531 -4.56467,5.18575 -5.95821,5.55006 -8.19155,2.14156 z M 370.75,183.51636 c -3.14179,-2.76526 -3.3694,-4.4088 -1.23384,-8.90917 1.60967,-3.39213 6.81577,-7.13812 8.48589,-6.10592 2.63178,1.62653 -0.43152,17.54822 -3.36063,17.46713 -0.62778,-0.0174 -2.37892,-1.1208 -3.89142,-2.45204 z M 189.83906,145.53661 c -8.29748,-5.63829 -10.37075,-19.07379 -4.27488,-27.70273 3.40156,-4.81503 8.13694,-7.55704 14.5747,-8.43944 l 4.55213,-0.62394 1.76419,4.36475 c 2.72332,6.73773 2.36698,15.66398 -0.89115,22.32336 C 203.29951,140.08717 196.03621,148 194.05214,148 c -0.32333,0 -2.21921,-1.10853 -4.21308,-2.46339 z M 226.87244,104.25 c -1.24387,-1.58606 -1.2085,-1.62143 0.37756,-0.37756 1.66575,1.30637 2.19548,2.12756 1.37244,2.12756 -0.20765,0 -0.99515,-0.7875 -1.75,-1.75 z m 1.69461,-33.175915 c -2.53346,-2.799442 -3.11462,-9.114524 -1.1826,-12.850633 C 229.20868,54.695785 232.60385,52 235.22251,52 c 3.98543,0 1.07288,16.020177 -3.62075,19.915548 -0.96183,0.798247 -1.7481,0.580231 -3.03471,-0.841463 z"
         id="path184" />
      <path
         style="fill:#a2a2a2"
         d="m 107.26903,488.30701 c 0.97297,-0.25354 2.32297,-0.23687 3,0.0371 0.67703,0.27393 -0.11903,0.48137 -1.76903,0.46099 -1.65,-0.0204 -2.20394,-0.2445 -1.23097,-0.49804 z m 10.98097,0.004 c 0.9625,-0.25152 2.5375,-0.25152 3.5,0 0.9625,0.25153 0.175,0.45733 -1.75,0.45733 -1.925,0 -2.7125,-0.2058 -1.75,-0.45733 z M 290.5,349 c 63.79822,-63.8 116.22177,-116 116.49677,-116 0.275,0 -51.69855,52.2 -115.49677,116 -63.79822,63.8 -116.22177,116 -116.49677,116 -0.275,0 51.69855,-52.2 115.49677,-116 z M 120,419.62244 c 0,-0.20765 0.7875,-0.99515 1.75,-1.75 1.58606,-1.24387 1.62143,-1.2085 0.37756,0.37756 C 120.82119,419.91575 120,420.44548 120,419.62244 Z M 189.40499,370.75 187.5,368.5 l 2.25,1.90499 c 2.11444,1.79022 2.70524,2.59501 1.90499,2.59501 -0.18976,0 -1.20226,-1.0125 -2.25,-2.25 z M 223.5,308 c 0.99549,-1.1 2.03498,-2 2.30998,-2 0.275,0 -0.31449,0.9 -1.30998,2 -0.99549,1.1 -2.03498,2 -2.30998,2 -0.275,0 0.31449,-0.9 1.30998,-2 z M 76.269032,303.30701 c 0.972967,-0.25354 2.322967,-0.23687 3,0.0371 0.677032,0.27393 -0.119032,0.48137 -1.769032,0.46099 -1.65,-0.0204 -2.203936,-0.2445 -1.230968,-0.49804 z m 14,0 c 0.972967,-0.25354 2.322967,-0.23687 3,0.0371 0.677032,0.27393 -0.119032,0.48137 -1.769032,0.46099 -1.65,-0.0204 -2.203936,-0.2445 -1.230968,-0.49804 z m 80.994718,-14.02459 c 1.52006,-0.22986 3.77006,-0.22371 5,0.0136 1.22994,0.23736 -0.0137,0.42542 -2.76375,0.41792 -2.75,-0.008 -3.75631,-0.20172 -2.23625,-0.43157 z M 14.872445,271.25 c -1.243871,-1.58606 -1.208501,-1.62143 0.377555,-0.37756 0.9625,0.75485 1.75,1.54235 1.75,1.75 0,0.82304 -0.821186,0.29331 -2.127555,-1.37244 z M 260.5,271 c 0.99549,-1.1 2.03498,-2 2.30998,-2 0.275,0 -0.31449,0.9 -1.30998,2 -0.99549,1.1 -2.03498,2 -2.30998,2 -0.275,0 0.31449,-0.9 1.30998,-2 z m 37,-37 c 0.99549,-1.1 2.03498,-2 2.30998,-2 0.275,0 -0.31449,0.9 -1.30998,2 -0.99549,1.1 -2.03498,2 -2.30998,2 -0.275,0 0.31449,-0.9 1.30998,-2 z M 3,232.62244 c 0,-0.20765 0.7875,-0.99515 1.75,-1.75 1.5860556,-1.24387 1.6214259,-1.2085 0.3775553,0.37756 C 3.8211855,232.91575 3,233.44548 3,232.62244 Z m 408,-5 c 0,-0.20765 0.7875,-0.99515 1.75,-1.75 1.58606,-1.24387 1.62143,-1.2085 0.37756,0.37756 C 411.82119,227.91575 411,228.44548 411,227.62244 Z M 336.92431,223.25 334.5,220.5 l 2.75,2.42431 c 2.57029,2.26589 3.20859,3.07569 2.42431,3.07569 -0.17912,0 -1.41662,-1.2375 -2.75,-2.75 z M 153.15789,160 c 0,-1.375 0.22698,-1.9375 0.50439,-1.25 0.27741,0.6875 0.27741,1.8125 0,2.5 -0.27741,0.6875 -0.50439,0.125 -0.50439,-1.25 z M 458.5,135 c 4.37419,-4.4 8.17808,-8 8.45308,-8 0.275,0 -3.07889,3.6 -7.45308,8 -4.37419,4.4 -8.17808,8 -8.45308,8 -0.275,0 3.07889,-3.6 7.45308,-8 z m -292.21399,-5.5 c 0.008,-2.75 0.20172,-3.75631 0.43157,-2.23625 0.22986,1.52006 0.22371,3.77006 -0.0136,5 -0.23736,1.22994 -0.42542,-0.0137 -0.41792,-2.76375 z M 176,104.5 c 1.29175,-1.375 2.57363,-2.5 2.84863,-2.5 0.275,0 -0.55688,1.125 -1.84863,2.5 -1.29175,1.375 -2.57363,2.5 -2.84863,2.5 -0.275,0 0.55688,-1.125 1.84863,-2.5 z m 60.25,-13.189326 c 0.9625,-0.251527 2.5375,-0.251527 3.5,0 0.9625,0.251528 0.175,0.457323 -1.75,0.457323 -1.925,0 -2.7125,-0.205795 -1.75,-0.457323 z M 210.19495,63.5 c 0.0204,-1.65 0.2445,-2.203936 0.49804,-1.230968 0.25354,0.972967 0.23687,2.322967 -0.0371,3 C 210.38201,65.946064 210.17457,65.15 210.19495,63.5 Z M 506.5,63 c 0.99549,-1.1 2.03498,-2 2.30998,-2 0.275,0 -0.31449,0.9 -1.30998,2 -0.99549,1.1 -2.03498,2 -2.30998,2 -0.275,0 0.31449,-0.9 1.30998,-2 z M 219,43.622445 c 0,-0.207656 0.7875,-0.995156 1.75,-1.75 1.58606,-1.243871 1.62143,-1.208501 0.37756,0.377555 C 219.82119,43.915748 219,44.445479 219,43.622445 Z m 176.8125,-4.305559 c 0.72187,-0.288871 1.58438,-0.253344 1.91667,0.07895 0.33229,0.332292 -0.25834,0.568641 -1.3125,0.52522 -1.16495,-0.04798 -1.4019,-0.284941 -0.60417,-0.604167 z m 9.4375,-1.006212 c 0.9625,-0.251527 2.5375,-0.251527 3.5,0 0.9625,0.251528 0.175,0.457323 -1.75,0.457323 -1.925,0 -2.7125,-0.205795 -1.75,-0.457323 z m 45.5625,-0.993788 c 0.72187,-0.288871 1.58438,-0.253344 1.91667,0.07895 0.33229,0.332292 -0.25834,0.568641 -1.3125,0.52522 -1.16495,-0.04798 -1.4019,-0.284941 -0.60417,-0.604167 z m 36,-14 c 0.72187,-0.288871 1.58438,-0.253344 1.91667,0.07895 0.33229,0.332292 -0.25834,0.568641 -1.3125,0.52522 -1.16495,-0.04798 -1.4019,-0.284941 -0.60417,-0.604167 z"
         id="path182" />
      <path
         style="fill:#a0e32b"
         d="m 125.6592,441.86909 c -1.74434,-1.01402 -1.71101,-1.20895 0.63584,-3.7196 5.2373,-5.60284 7.44846,-14.22132 5.46278,-21.29241 -0.71968,-2.56282 -0.64213,-2.62037 2.55857,-1.89849 13.12114,2.9593 15.87067,19.07912 4.44275,26.04681 -3.5438,2.16068 -10.12268,2.59443 -13.09994,0.86369 z m 33.59065,-26.69351 c -0.89218,-0.5665 0.13948,-2.23553 3.60285,-5.82871 7.60754,-7.89269 10.15982,-19.01693 6.61846,-28.84687 -0.79257,-2.2 -1.44782,-4.11854 -1.4561,-4.26342 -0.0559,-0.97884 8.01436,3.3724 10.32422,5.56647 4.25809,4.04465 5.97412,8.09122 6.02048,14.19695 0.0625,8.2276 -4.66499,15.42939 -12.19306,18.57482 -3.69458,1.54369 -10.90377,1.87898 -12.91685,0.60076 z m 36.41207,-36.91359 c -0.32461,-0.52522 1.57745,-3.20384 4.22679,-5.95249 7.59587,-7.88057 10.07045,-18.5052 6.60061,-28.33976 -0.83087,-2.35495 -1.38249,-4.4099 -1.22582,-4.56658 0.15668,-0.15667 2.07398,0.53178 4.26068,1.52989 14.42501,6.58425 15.9207,26.05654 2.69741,35.11728 -3.67662,2.51926 -15.40174,4.08523 -16.55967,2.21166 z m 37,-37 c -0.32461,-0.52522 1.62505,-3.25322 4.33256,-6.06222 3.65814,-3.79526 5.35003,-6.57702 6.58598,-10.82854 1.89402,-6.51522 1.48939,-14.4017 -0.98436,-19.1854 l -1.57164,-3.0392 3.09048,0.88633 c 4.64179,1.33125 9.64921,5.58441 12.00011,10.19257 2.84761,5.58176 2.34507,15.01981 -1.06472,19.99606 -3.84836,5.61632 -8.41696,8.14329 -15.54286,8.59704 -3.44045,0.21907 -6.52095,-0.0314 -6.84555,-0.55664 z m 37,-37 c -0.32461,-0.52522 1.54014,-3.16513 4.14388,-5.86646 7.70766,-7.99656 9.90737,-17.74867 6.33525,-28.08638 l -1.79367,-5.19084 3.57631,1.4676 c 5.52725,2.26822 8.2896,4.68167 10.8653,9.49295 1.92855,3.60243 2.29874,5.55656 1.99908,10.55256 -0.65134,10.85951 -7.31483,17.48896 -18.2806,18.18721 -3.44045,0.21907 -6.52095,-0.0314 -6.84555,-0.55664 z M 166.5,273.07768 c -1.94454,-0.76007 -1.93859,-0.80128 0.21438,-1.4858 1.21791,-0.38722 4.03249,-2.76953 6.25463,-5.29401 6.52319,-7.41073 8.71657,-18.26899 5.52031,-27.32813 -0.83087,-2.35495 -1.38249,-4.4099 -1.22582,-4.56658 0.15668,-0.15667 2.07398,0.53178 4.26068,1.52989 15.68291,7.15841 15.66837,28.90567 -0.0242,36.17109 -4.09309,1.89503 -11.42505,2.3709 -15,0.97354 z m 142.25,-4.79732 c -1.5125,-0.22726 -2.75,-0.74504 -2.75,-1.15062 0,-0.40557 1.61518,-2.28818 3.58929,-4.18357 7.64227,-7.33753 10.7091,-17.98938 8.04573,-27.94482 -0.80907,-3.02426 -1.25894,-5.71076 -0.99971,-5.97 1.13386,-1.13385 9.48372,4.53291 11.97395,8.12631 3.16881,4.57259 4.27619,12.62936 2.48278,18.06344 -1.26184,3.82342 -6.095,9.22809 -10.03125,11.21742 -3.12286,1.57825 -8.60571,2.39855 -12.31079,1.84184 z M 345,231.27111 c -2.92178,-1.11222 -2.57145,-2.33426 2.04104,-7.11964 7.38918,-7.66614 9.8877,-18.4334 6.50332,-28.02574 -1.55653,-4.41167 -1.24229,-4.71806 3.14054,-3.06211 6.62779,2.50415 12.25236,10.96404 12.29314,18.49004 0.065,11.99233 -13.96475,23.52915 -23.97804,19.71745 z m 32.58339,-41.35437 -2.46519,-2.92972 2.03084,-4.59104 c 1.39303,-3.14918 1.92407,-6.1309 1.6909,-9.49413 -0.32273,-4.65488 -0.21338,-4.90287 2.16006,-4.89873 3.91232,0.007 8.96389,3.66621 10.65797,7.7207 2.73594,6.54805 -1.23288,14.14669 -8.47355,16.22329 -2.78216,0.79791 -3.41387,0.56892 -5.60103,-2.03037 z M 199.5,149.28569 c -4.77347,-0.96134 -4.82545,-1.31526 -0.71055,-4.83746 5.87207,-5.02628 9.46139,-12.8878 9.45727,-20.71387 -0.002,-3.4289 -0.71009,-7.92186 -1.57397,-9.98436 -1.38211,-3.29976 -1.39076,-3.75 -0.0721,-3.75 6.85346,0 15.428,10.99486 15.37735,19.71788 -0.0654,11.25841 -12.02812,21.67234 -22.47804,19.56781 z m 33.75,-74.316852 c -2.81844,-1.132876 -2.8167,-1.155378 0.47519,-6.129763 2.14471,-3.240867 2.80872,-5.59621 3.11731,-11.057525 0.39094,-6.918721 0.39999,-6.937614 3.02481,-6.315388 4.03842,0.957329 7.44513,3.785599 9.47262,7.864224 1.64108,3.301292 1.69512,4.155695 0.5,7.905538 -2.22726,6.988355 -9.73545,10.488078 -16.58993,7.732914 z"
         id="path180" />
      <path
         style="fill:#88c526"
         d="m 73.5,460.97572 c -3.3,-2.26591 -8.133635,-6.2042 -10.741412,-8.75173 l -4.741411,-4.63189 10.631558,-10.78883 10.631558,-10.78882 -0.57479,-4.8532 c -0.572626,-4.83493 -0.553385,-4.87437 5.109854,-10.47395 4.333483,-4.28478 6.041172,-5.39461 7.184643,-4.66934 0.825,0.52328 2.843933,0.95831 4.486517,0.96673 2.63878,0.0135 17.367923,-14.34993 126.500003,-123.35938 83.75715,-83.66303 125.56646,-124.74253 129.89159,-127.62426 8.83094,-5.88382 18.17394,-9.98995 35.12189,-15.43561 7.975,-2.5625 16.32472,-5.2558 18.55494,-5.98511 l 4.05493,-1.326 -4.30031,12.62283 c -2.36517,6.94256 -4.44995,13.06551 -4.63284,13.60654 -0.18289,0.54104 -1.78989,-0.24259 -3.57112,-1.74139 -4.46926,-3.76064 -13.10501,-6.12539 -19.83318,-5.43098 -10.52461,1.08624 -20.91505,9.58491 -23.49029,19.21346 l -1.14201,4.26985 -6.63641,0.37499 c -16.67666,0.94232 -30.70873,14.26628 -32.59685,30.95188 l -0.63612,5.6215 -5.80356,0.52625 c -14.83453,1.34515 -26.97006,13.1464 -30.11353,29.28406 -0.6371,3.27067 -1.24154,6.06091 -1.34319,6.20053 -0.10166,0.13962 -2.8456,0.74125 -6.09765,1.33696 -15.79867,2.89397 -26.76886,14.00896 -29.58051,29.97093 l -1.01399,5.75657 -5.75657,1.01399 c -16.12673,2.84067 -27.3841,14.07622 -30.21691,30.15835 l -1.00148,5.68547 -6.01733,1.11904 c -16.2712,3.02595 -28.20356,15.24867 -29.56715,30.28665 -0.51431,5.67187 -0.65202,5.91819 -3.30866,5.91819 -4.60164,0 -14.35572,3.4949 -19.35628,6.93537 C 135.16372,372.73551 129,384.13505 129,393.92622 c 0,4.80607 -0.0346,4.85768 -3.71544,5.54822 -8.70875,1.63377 -16.16876,7.51361 -20.3762,16.06015 -2.95346,5.99932 -3.13159,6.96602 -2.70756,14.69361 0.31395,5.72158 1.09773,9.51887 2.54226,12.31675 2.4069,4.66191 10.01861,12.03374 13.98073,13.54013 3.48772,1.32603 2.3713,2.07657 -8.22379,5.52863 -6.12499,1.99563 -10.695329,2.70912 -19.5,3.0442 l -11.5,0.43767 z M 177.87244,381.25 c -1.24387,-1.58606 -1.2085,-1.62143 0.37756,-0.37756 0.9625,0.75485 1.75,1.54235 1.75,1.75 0,0.82304 -0.82119,0.29331 -2.12756,-1.37244 z m 96.94006,-75.93311 c 0.72187,-0.28887 1.58438,-0.25335 1.91667,0.0789 0.33229,0.33229 -0.25834,0.56864 -1.3125,0.52522 -1.16495,-0.048 -1.4019,-0.28494 -0.60417,-0.60416 z M 215.87244,115.25 c -1.24387,-1.58606 -1.2085,-1.62143 0.37756,-0.37756 1.66575,1.30637 2.19548,2.12756 1.37244,2.12756 -0.20765,0 -0.99515,-0.7875 -1.75,-1.75 z"
         id="path178" />
      <path
         style="fill:#7bb521"
         d="m 100,471.91575 c -2.475,-0.47581 -7.875,-2.11253 -12,-3.63714 l -7.5,-2.77202 11.019824,-0.64358 c 8.645876,-0.50494 12.954376,-1.32157 19.999996,-3.79082 10.19774,-3.57395 9.15464,-3.41666 16.61313,-2.50504 14.72766,1.80011 28.33912,-7.06357 32.42372,-21.11408 l 1.50427,-5.17453 6.21953,-0.63885 c 16.44448,-1.68913 30.03224,-14.96863 31.46319,-30.74939 l 0.51113,-5.63679 5.37558,-0.55481 c 6.73355,-0.69496 14.9083,-4.38368 20.09054,-9.06552 5.58187,-5.04289 10.35768,-14.40829 11.00873,-21.58824 l 0.52515,-5.79143 5.53972,-0.57175 c 7.24215,-0.74746 17.0093,-5.61532 21.71271,-10.82143 4.80173,-5.31494 8.4905,-13.43814 9.19295,-20.24416 l 0.55627,-5.38978 5.12178,-0.42505 c 6.46571,-0.53659 15.1508,-4.4776 20.48211,-9.29412 5.20611,-4.70341 10.07397,-14.47056 10.82143,-21.71271 l 0.57175,-5.53972 5.79143,-0.52515 c 7.17995,-0.65105 16.54535,-5.42686 21.58824,-11.00873 4.5605,-5.04793 8.27034,-13.1107 9.04603,-19.66013 0.64634,-5.45737 0.52183,-5.36228 8.38316,-6.40268 8.37764,-1.10874 18.93962,-8.39261 23.5315,-16.22806 2.99056,-5.10301 5.37722,-13.33234 5.39426,-18.59967 0.0113,-3.49817 0.23892,-3.74505 4.87116,-5.28363 10.55892,-3.50711 18.18479,-13.98241 18.32245,-25.16869 0.0903,-7.34026 -1.68306,-13.35625 -5.16748,-17.53003 l -2.6903,-3.22255 4.34285,-12.90041 c 2.38857,-7.09522 4.08223,-13.3221 3.76369,-13.83751 -0.31854,-0.51541 -0.20821,-0.83353 0.24517,-0.70694 1.34325,0.37506 9.89349,-3.78851 15.04099,-7.32427 2.63084,-1.80708 8.6394,-6.99966 13.35235,-11.53907 l 8.56902,-8.25347 4.8707,4.94506 c 2.67888,2.71978 4.67282,5.14528 4.43098,5.38999 -8.43455,8.53486 -18.29947,20.08627 -21.17196,24.79146 -2.38182,3.90149 -6.31345,13.92824 -10.86609,27.7116 -3.92362,11.87895 -8.37367,24.34505 -9.889,27.70245 -7.01578,15.54426 -7.97777,16.57367 -126.40032,135.25854 C 224.40055,394.2125 169.45,448.80112 164.5,453.17094 149.17259,466.70188 132.80585,473.10426 114.09004,472.89043 108.81552,472.83017 102.475,472.39157 100,471.91575 Z M 109.5,408 c 0.99549,-1.1 2.03498,-2 2.30998,-2 0.275,0 -0.31449,0.9 -1.30998,2 -0.99549,1.1 -2.03498,2 -2.30998,2 -0.275,0 0.31449,-0.9 1.30998,-2 z M 99,405.62244 c 0,-0.20765 0.7875,-0.99515 1.75,-1.75 1.58606,-1.24387 1.62143,-1.2085 0.37756,0.37756 C 99.821186,405.91575 99,406.44548 99,405.62244 Z m 4,-4 c 0,-0.20765 0.7875,-0.99515 1.75,-1.75 1.58606,-1.24387 1.62143,-1.2085 0.37756,0.37756 C 103.82119,401.91575 103,402.44548 103,401.62244 Z M 222,282.5 C 285.52321,218.975 337.72175,167 337.99675,167 338.27175,167 286.52321,218.975 223,282.5 159.47679,346.025 107.27825,398 107.00325,398 106.72825,398 158.47679,346.025 222,282.5 Z M 52.678629,271.98181 C 41.702619,270.6457 32.91948,267.55846 29.383443,263.79365 24.372625,258.45864 15.138232,243.52843 16.195439,242.47123 16.379668,242.287 43.298561,228.56594 76.015201,211.97999 108.73184,195.39403 136.0625,181.10237 136.75,180.22072 c 0.6875,-0.88164 1.25,-3.08695 1.25,-4.90069 0,-3.11705 0.43318,-3.51551 7.90707,-7.27331 6.63076,-3.33388 8.09464,-3.74959 9.0691,-2.57544 2.81215,3.38844 6.9132,2.92869 16.55022,-1.85538 l 9.26644,-4.6001 5.85358,2.72146 c 8.07867,3.75595 19.49782,4.31973 27.40144,1.35286 11.98714,-4.49973 19.61456,-13.24314 22.76004,-26.09012 l 1.83632,-7.5 34.07225,-17.28784 c 29.51176,-14.973909 34.23548,-17.681922 35.29178,-20.232043 0.67074,-1.619308 0.95673,-3.629021 0.63554,-4.466029 -0.43039,-1.12157 1.45175,-2.54538 7.15607,-5.413453 7.69956,-3.871266 7.75229,-3.881707 10.08088,-1.996128 C 327.16819,81.147028 329.04214,82 330.04506,82 c 1.00292,0 12.18918,-5.134247 24.85836,-11.409437 30.90311,-15.306675 40.46158,-17.477868 77.2925,-17.556888 L 447.89185,53 434.19592,71.708242 C 414.9226,98.035049 407.21035,105.88849 391.5,115.18576 c -3.3,1.95291 -51.06584,26.35327 -106.14632,54.223 l -100.14631,50.67225 -4.67031,-1.176 c -6.22832,-1.5683 -15.55077,-0.50316 -22.18695,2.53498 -6.71353,3.07356 -14.30124,10.5997 -17.2383,17.09843 l -2.26399,5.00946 -23.17391,11.61988 C 102.92826,261.5587 91.15,267.27889 89.5,267.87929 c -10.005093,3.64066 -25.98734,5.42135 -36.821371,4.10252 z M 273.8125,249.31689 c 0.72187,-0.28887 1.58438,-0.25335 1.91667,0.0789 0.33229,0.33229 -0.25834,0.56864 -1.3125,0.52522 -1.16495,-0.048 -1.4019,-0.28494 -0.60417,-0.60416 z"
         id="path176" />
      <path
         style="fill:#76a51e"
         d="m 112.25,488.31067 c 0.9625,-0.25152 2.5375,-0.25152 3.5,0 0.9625,0.25153 0.175,0.45733 -1.75,0.45733 -1.925,0 -2.7125,-0.2058 -1.75,-0.45733 z m -1.5,-15.03407 c 1.7875,-0.22182 4.7125,-0.22182 6.5,0 1.7875,0.22183 0.325,0.40333 -3.25,0.40333 -3.575,0 -5.0375,-0.1815 -3.25,-0.40333 z m -8.9375,-0.95971 c 0.72187,-0.28887 1.58437,-0.25335 1.91667,0.0789 0.33229,0.33229 -0.25834,0.56864 -1.3125,0.52522 -1.16495,-0.048 -1.4019,-0.28494 -0.60417,-0.60416 z m 24,0 c 0.72187,-0.28887 1.58438,-0.25335 1.91667,0.0789 0.33229,0.33229 -0.25834,0.56864 -1.3125,0.52522 -1.16495,-0.048 -1.4019,-0.28494 -0.60417,-0.60416 z M 156,460.62244 c 0,-0.20765 0.7875,-0.99515 1.75,-1.75 1.58606,-1.24387 1.62143,-1.2085 0.37756,0.37756 C 156.82119,460.91575 156,461.44548 156,460.62244 Z m -29.25,-2.28472 c 0.6875,-0.27741 1.8125,-0.27741 2.5,0 0.6875,0.27741 0.125,0.50439 -1.25,0.50439 -1.375,0 -1.9375,-0.22698 -1.25,-0.50439 z m 7,0 c 0.6875,-0.27741 1.8125,-0.27741 2.5,0 0.6875,0.27741 0.125,0.50439 -1.25,0.50439 -1.375,0 -1.9375,-0.22698 -1.25,-0.50439 z M 160,457.68709 c 0,-0.1721 1.4625,-1.6346 3.25,-3.25 l 3.25,-2.93709 -2.93709,3.25 C 160.82513,457.77946 160,458.45965 160,457.68709 Z m -98.840311,-6.02438 c -3.974066,-4.04928 -4.137299,-4.42789 -2.458208,-5.70177 1.539484,-1.16796 1.617619,-1.16172 0.542502,0.0433 -1.03445,1.15944 -0.512609,2.16526 2.958208,5.70177 2.317824,2.36169 3.989225,4.29398 3.714225,4.29398 -0.275,0 -2.415527,-1.95178 -4.756727,-4.33729 z M 112.87244,452.25 c -1.24387,-1.58606 -1.2085,-1.62143 0.37756,-0.37756 0.9625,0.75485 1.75,1.54235 1.75,1.75 0,0.82304 -0.82119,0.29331 -2.12756,-1.37244 z M 150,452.68709 c 0,-0.1721 1.4625,-1.6346 3.25,-3.25 l 3.25,-2.93709 -2.93709,3.25 C 150.82513,452.77946 150,453.45965 150,452.68709 Z M 107.87244,447.25 c -1.24387,-1.58606 -1.2085,-1.62143 0.37756,-0.37756 0.9625,0.75485 1.75,1.54235 1.75,1.75 0,0.82304 -0.82119,0.29331 -2.12756,-1.37244 z M 130.25,443.31067 c 0.9625,-0.25152 2.5375,-0.25152 3.5,0 0.9625,0.25153 0.175,0.45733 -1.75,0.45733 -1.925,0 -2.7125,-0.2058 -1.75,-0.45733 z M 120.87244,439.25 c -1.24387,-1.58606 -1.2085,-1.62143 0.37756,-0.37756 0.9625,0.75485 1.75,1.54235 1.75,1.75 0,0.82304 -0.82119,0.29331 -2.12756,-1.37244 z M 71.5,433 c 2.708649,-2.75 5.149816,-5 5.424816,-5 0.275,0 -1.716167,2.25 -4.424816,5 -2.708649,2.75 -5.149816,5 -5.424816,5 -0.275,0 1.716167,-2.25 4.424816,-5 z m 89.75159,0 c 0.27511,-1.02181 1.81365,-1.53716 4.82613,-1.61657 4.38879,-0.11569 4.39209,-0.11324 0.43526,0.32449 -2.19287,0.24259 -4.36463,0.97005 -4.82613,1.61658 -0.57666,0.80784 -0.7128,0.70634 -0.43526,-0.3245 z m -15.0937,-4 c 0,-1.375 0.22698,-1.9375 0.50439,-1.25 0.27741,0.6875 0.27741,1.8125 0,2.5 -0.27741,0.6875 -0.50439,0.125 -0.50439,-1.25 z M 189,421.5 c 1.86578,-1.925 3.61733,-3.5 3.89233,-3.5 0.275,0 -1.02655,1.575 -2.89233,3.5 -1.86578,1.925 -3.61733,3.5 -3.89233,3.5 -0.275,0 1.02655,-1.575 2.89233,-3.5 z m -25.73097,-5.19299 c 0.97297,-0.25354 2.32297,-0.23687 3,0.0371 0.67703,0.27393 -0.11903,0.48137 -1.76903,0.46099 -1.65,-0.0204 -2.20394,-0.2445 -1.23097,-0.49804 z m 32.29526,-3.60014 c 0.37553,-0.98622 0.93469,-1.54122 1.24258,-1.23333 0.30789,0.30789 6.4e-4,1.11479 -0.68278,1.79313 -0.98762,0.98026 -1.10248,0.8654 -0.5598,-0.5598 z M 204.75,394.33772 c 0.6875,-0.27741 1.8125,-0.27741 2.5,0 0.6875,0.27741 0.125,0.50439 -1.25,0.50439 -1.375,0 -1.9375,-0.22698 -1.25,-0.50439 z M 226,384.5 c 1.86578,-1.925 3.61733,-3.5 3.89233,-3.5 0.275,0 -1.02655,1.575 -2.89233,3.5 -1.86578,1.925 -3.61733,3.5 -3.89233,3.5 -0.275,0 1.02655,-1.575 2.89233,-3.5 z m -26.23834,-5.20726 c 1.24391,-0.23919 3.04391,-0.23011 4,0.0202 0.95609,0.25029 -0.0617,0.446 -2.26166,0.4349 -2.2,-0.0111 -2.98225,-0.21589 -1.73834,-0.45508 z m -36.49263,-3.98573 c 0.97297,-0.25354 2.32297,-0.23687 3,0.0371 0.67703,0.27393 -0.11903,0.48137 -1.76903,0.46099 -1.65,-0.0204 -2.20394,-0.2445 -1.23097,-0.49804 z m 72.80992,-9.89034 c 0.048,-1.16495 0.28494,-1.4019 0.60416,-0.60417 0.28887,0.72187 0.25335,1.58438 -0.0789,1.91667 -0.3323,0.33229 -0.56864,-0.25834 -0.52522,-1.3125 z m -54.62007,-0.4832 c -0.36253,-0.58659 -0.44468,-1.281 -0.18255,-1.54313 0.26212,-0.26213 0.74306,0.21781 1.06875,1.06653 0.67618,1.76211 0.0999,2.07206 -0.8862,0.4766 z M 161.25,360.31067 c 0.9625,-0.25152 2.5375,-0.25152 3.5,0 0.9625,0.25153 0.175,0.45733 -1.75,0.45733 -1.925,0 -2.7125,-0.2058 -1.75,-0.45733 z m 81.5625,-2.99378 c 0.72187,-0.28887 1.58437,-0.25335 1.91667,0.0789 0.33229,0.33229 -0.25834,0.56864 -1.3125,0.52522 -1.16495,-0.048 -1.4019,-0.28494 -0.60417,-0.60416 z M 263,347.5 c 1.86578,-1.925 3.61733,-3.5 3.89233,-3.5 0.275,0 -1.02655,1.575 -2.89233,3.5 -1.86578,1.925 -3.61733,3.5 -3.89233,3.5 -0.275,0 1.02655,-1.575 2.89233,-3.5 z m -28.1875,-5.18311 c 0.72187,-0.28887 1.58437,-0.25335 1.91667,0.0789 0.33229,0.33229 -0.25834,0.56864 -1.3125,0.52522 -1.16495,-0.048 -1.4019,-0.28494 -0.60417,-0.60416 z m 5,0 c 0.72187,-0.28887 1.58437,-0.25335 1.91667,0.0789 0.33229,0.33229 -0.25834,0.56864 -1.3125,0.52522 -1.16495,-0.048 -1.4019,-0.28494 -0.60417,-0.60416 z m -39,-4 c 0.72187,-0.28887 1.58437,-0.25335 1.91667,0.0789 0.33229,0.33229 -0.25834,0.56864 -1.3125,0.52522 -1.16495,-0.048 -1.4019,-0.28494 -0.60417,-0.60416 z m 72.26645,-10.90022 c 0.048,-1.16495 0.28494,-1.4019 0.60416,-0.60417 0.28887,0.72187 0.25335,1.58438 -0.0789,1.91667 -0.33229,0.33229 -0.56864,-0.25834 -0.52522,-1.3125 z m -15,-2 c 0.048,-1.16495 0.28494,-1.4019 0.60416,-0.60417 0.28887,0.72187 0.25335,1.58438 -0.0789,1.91667 -0.33229,0.33229 -0.56864,-0.25834 -0.52522,-1.3125 z m -58.39043,-2.11435 c 1.20368,-0.23392 2.38898,-1.18514 2.634,-2.11381 0.31563,-1.19634 0.47929,-1.03268 0.56148,0.56149 0.0952,1.84607 -0.37769,2.22555 -2.634,2.11382 -2.26388,-0.11211 -2.36314,-0.21137 -0.56148,-0.5615 z m 81.12398,-2.98543 c 0.72187,-0.28887 1.58438,-0.25335 1.91667,0.0789 0.33229,0.33229 -0.25834,0.56864 -1.3125,0.52522 -1.16495,-0.048 -1.4019,-0.28494 -0.60417,-0.60416 z M 300,310.5 c 1.86578,-1.925 3.61733,-3.5 3.89233,-3.5 0.275,0 -1.02655,1.575 -2.89233,3.5 -1.86578,1.925 -3.61733,3.5 -3.89233,3.5 -0.275,0 1.02655,-1.575 2.89233,-3.5 z m -47.59501,-2.75 -1.90499,-2.25 2.25,1.90499 c 2.11444,1.79022 2.70524,2.59501 1.90499,2.59501 -0.18976,0 -1.20226,-1.0125 -2.25,-2.25 z M 80.75,303.33772 c 0.6875,-0.27741 1.8125,-0.27741 2.5,0 0.6875,0.27741 0.125,0.50439 -1.25,0.50439 -1.375,0 -1.9375,-0.22698 -1.25,-0.50439 z m 5,0 c 0.6875,-0.27741 1.8125,-0.27741 2.5,0 0.6875,0.27741 0.125,0.50439 -1.25,0.50439 -1.375,0 -1.9375,-0.22698 -1.25,-0.50439 z M 310.15789,290 c 0,-1.375 0.22698,-1.9375 0.50439,-1.25 0.27741,0.6875 0.27741,1.8125 0,2.5 -0.27741,0.6875 -0.50439,0.125 -0.50439,-1.25 z M 71.5,287.59325 C 56.274111,284.6409 43.764028,278.3192 33.425211,268.35297 c -3.339483,-3.21913 -4.858516,-4.81109 -3.375628,-3.53768 6.145856,5.27768 26.676083,8.93113 40.405727,7.19038 9.809651,-1.24375 14.427621,-2.41609 22.54469,-5.72331 8.17554,-3.33104 45.20903,-22.28247 46.34433,-23.71613 0.48344,-0.6105 0.55067,-0.21138 0.15727,0.93377 -2.10105,6.11604 -1.62145,16.81218 1.0681,23.82105 0.47174,1.22933 -2.72254,3.24549 -14.43832,9.11315 -8.27424,4.14402 -18.30842,8.43919 -22.29817,9.5448 -9.57329,2.6529 -23.413243,3.34386 -32.33321,1.61425 z M 295.27236,285 c 0,-2.475 0.19502,-3.4875 0.43337,-2.25 0.23836,1.2375 0.23836,3.2625 0,4.5 -0.23835,1.2375 -0.43337,0.225 -0.43337,-2.25 z m -58.08384,1.32252 c 0.92868,-0.24502 1.88898,-1.20532 2.134,-2.134 0.31563,-1.19637 0.47929,-1.03271 0.56148,0.56148 0.0893,1.73204 -0.40196,2.2233 -2.134,2.134 -1.59419,-0.0822 -1.75785,-0.24585 -0.56148,-0.56148 z m 2.89043,-8.90585 c 0.048,-1.16495 0.28494,-1.4019 0.60416,-0.60417 0.28887,0.72187 0.25335,1.58438 -0.0789,1.91667 -0.3323,0.33229 -0.56864,-0.25834 -0.52522,-1.3125 z M 337,273.5 c 1.86578,-1.925 3.61733,-3.5 3.89233,-3.5 0.275,0 -1.02655,1.575 -2.89233,3.5 -1.86578,1.925 -3.61733,3.5 -3.89233,3.5 -0.275,0 1.02655,-1.575 2.89233,-3.5 z m -164.73097,0.80701 c 0.97297,-0.25354 2.32297,-0.23687 3,0.0371 0.67703,0.27393 -0.11903,0.48137 -1.76903,0.46099 -1.65,-0.0204 -2.20394,-0.2445 -1.23097,-0.49804 z M 299.40499,259.75 297.5,257.5 l 2.25,1.90499 c 2.11444,1.79022 2.70524,2.59501 1.90499,2.59501 -0.18976,0 -1.20226,-1.0125 -2.25,-2.25 z m 47.78996,-7.25 c 0.0204,-1.65 0.2445,-2.20394 0.49804,-1.23097 0.25354,0.97297 0.23687,2.32297 -0.0371,3 -0.27393,0.67703 -0.48137,-0.11903 -0.46099,-1.76903 z m -14.94277,-4 c 0.0111,-2.2 0.21589,-2.98225 0.45508,-1.73834 0.23919,1.24391 0.23011,3.04391 -0.0202,4 -0.25029,0.95609 -0.446,-0.0617 -0.4349,-2.26166 z M 276.232,247 c 0,-1.925 0.2058,-2.7125 0.45733,-1.75 0.25152,0.9625 0.25152,2.5375 0,3.5 -0.25153,0.9625 -0.45733,0.175 -0.45733,-1.75 z m 14.92589,1 c 0,-1.375 0.22698,-1.9375 0.50439,-1.25 0.27741,0.6875 0.27741,1.8125 0,2.5 -0.27741,0.6875 -0.50439,0.125 -0.50439,-1.25 z m 64.65461,-1.68311 c 0.72187,-0.28887 1.58438,-0.25335 1.91667,0.0789 0.33229,0.33229 -0.25834,0.56864 -1.3125,0.52522 -1.16495,-0.048 -1.4019,-0.28494 -0.60417,-0.60416 z M 364,243.60699 c 0,-0.21616 0.69837,-0.661 1.55194,-0.98855 0.88992,-0.34149 1.29132,-0.17385 0.94098,0.39301 C 365.90566,243.96166 364,244.4169 364,243.60699 Z M 374,236.5 c 1.86578,-1.925 3.61733,-3.5 3.89233,-3.5 0.275,0 -1.02655,1.575 -2.89233,3.5 -1.86578,1.925 -3.61733,3.5 -3.89233,3.5 -0.275,0 1.02655,-1.575 2.89233,-3.5 z m -351,2.03369 c 0,-0.275 2.25,-1.64016 5,-3.03369 2.75,-1.39353 5,-2.30869 5,-2.03369 0,0.275 -2.25,1.64016 -5,3.03369 -2.75,1.39353 -5,2.30869 -5,2.03369 z m 118,-0.47467 c 0,-0.51754 0.44485,-1.21592 0.98855,-1.55194 0.56686,-0.35034 0.7345,0.0511 0.39301,0.94098 C 141.71677,239.18048 141,239.49745 141,238.05902 Z m 61.93262,-3.68492 c -1.91827,-3.58433 -9.62044,-10.27437 -14.25309,-12.38011 l -3.82046,-1.73658 100.32046,-50.76045 C 340.35579,141.57872 388.2,117.13867 391.5,115.18576 407.10103,105.95318 415.4781,97.401933 434.74216,71.044489 L 447.5,53.588977 l 9,-1.759439 c 6.62401,-1.29495 12.21656,-3.334726 21.18401,-7.726468 8.98864,-4.402124 12.43247,-5.657045 13.13142,-4.78505 C 491.86637,40.629142 497,50.661205 497,51.403802 c 0,0.25866 -4.87643,3.003948 -10.83651,6.100641 -13.8994,7.22174 -21.08472,13.229382 -29.16349,24.383581 -6.36302,8.78529 -6.58819,8.975869 -10.6849,9.043198 -6.57405,0.108043 -9.22618,1.629334 -18.3151,10.505738 -13.04406,12.73906 -18.15681,15.57461 -41.75301,23.15635 -37.10876,11.92348 -42.03917,15.02601 -73.74699,46.40636 l -23,22.76247 -42.58389,21.61357 -42.58389,21.61357 z m -30.66359,-1.06709 c 0.97297,-0.25354 2.32297,-0.23687 3,0.0371 0.67703,0.27393 -0.11903,0.48137 -1.76903,0.46099 -1.65,-0.0204 -2.20394,-0.2445 -1.23097,-0.49804 z M 145,231.68709 c 0,-0.1721 1.4625,-1.6346 3.25,-3.25 l 3.25,-2.93709 -2.93709,3.25 C 145.82513,231.77946 145,232.45965 145,231.68709 Z m 249,-8 c 0,-0.1721 1.4625,-1.6346 3.25,-3.25 l 3.25,-2.93709 -2.93709,3.25 C 394.82513,223.77946 394,224.45965 394,223.68709 Z m -223.23209,-5.41182 c 1.79735,-0.22256 4.49735,-0.21797 6,0.0102 1.50265,0.22818 0.0321,0.41027 -3.26791,0.40466 -3.3,-0.006 -4.52944,-0.1923 -2.73209,-0.41486 z m 213.62443,-5.6971 c 0.0757,-3.46248 0.55242,-5.04171 1.60766,-5.32613 1.03708,-0.27953 1.1355,-0.14428 0.31891,0.43826 -0.6496,0.4634 -1.37305,2.86016 -1.60766,5.32613 L 384.28468,217.5 Z M 328.232,212 c 0,-1.925 0.2058,-2.7125 0.45733,-1.75 0.25152,0.9625 0.25152,2.5375 0,3.5 -0.25153,0.9625 -0.45733,0.175 -0.45733,-1.75 z m -23.4195,1.31689 c 0.72187,-0.28887 1.58438,-0.25335 1.91667,0.0789 0.33229,0.33229 -0.25834,0.56864 -1.3125,0.52522 -1.16495,-0.048 -1.4019,-0.28494 -0.60417,-0.60416 z M 369.19495,211.5 c 0.0204,-1.65 0.2445,-2.20394 0.49804,-1.23097 0.25354,0.97297 0.23687,2.32297 -0.0371,3 -0.27393,0.67703 -0.48137,-0.11903 -0.46099,-1.76903 z m -55.94277,-2 c 0.0111,-2.2 0.21589,-2.98225 0.45508,-1.73834 0.23919,1.24391 0.23011,3.04391 -0.0202,4 -0.25029,0.95609 -0.446,-0.0617 -0.4349,-2.26166 z M 94.733333,201.87591 c 0.678334,-0.68342 1.485241,-0.99067 1.793128,-0.68278 0.307888,0.30789 -0.247112,0.86705 -1.233333,1.24258 -1.425198,0.54268 -1.540062,0.42782 -0.559795,-0.5598 z M 397,202.68709 c 0,-0.1721 1.4625,-1.6346 3.25,-3.25 l 3.25,-2.93709 -2.93709,3.25 C 397.82513,202.77946 397,203.45965 397,202.68709 Z m -297,-3.13573 c 0,-0.275 1.35,-1.19811 3,-2.05136 1.65,-0.85325 3,-1.32636 3,-1.05136 0,0.275 -1.35,1.19811 -3,2.05136 -1.65,0.85325 -3,1.32636 -3,1.05136 z M 388.87244,171.25 c -1.24387,-1.58606 -1.2085,-1.62143 0.37756,-0.37756 1.66575,1.30637 2.19548,2.12756 1.37244,2.12756 -0.20765,0 -0.99515,-0.7875 -1.75,-1.75 z m 15.69185,-3.95687 c -0.54268,-1.4252 -0.42782,-1.54006 0.5598,-0.5598 0.68342,0.67834 0.99067,1.48524 0.68278,1.79313 -0.30789,0.30789 -0.86705,-0.24711 -1.24258,-1.23333 z M 159.75,167.33772 c 0.6875,-0.27741 1.8125,-0.27741 2.5,0 0.6875,0.27741 0.125,0.50439 -1.25,0.50439 -1.375,0 -1.9375,-0.22698 -1.25,-0.50439 z m 219,0 c 0.6875,-0.27741 1.8125,-0.27741 2.5,0 0.6875,0.27741 0.125,0.50439 -1.25,0.50439 -1.375,0 -1.9375,-0.22698 -1.25,-0.50439 z m -223.77006,-1.86189 c -0.69572,-0.83829 -1.07128,-1.71782 -0.83459,-1.95452 0.2367,-0.23669 0.97964,0.44918 1.65098,1.52417 1.45181,2.32472 0.96763,2.57996 -0.81639,0.43035 z M 340,164.5 c 1.29175,-1.375 2.57363,-2.5 2.84863,-2.5 0.275,0 -0.55688,1.125 -1.84863,2.5 -1.29175,1.375 -2.57363,2.5 -2.84863,2.5 -0.275,0 0.55688,-1.125 1.84863,-2.5 z m -173,1.02879 c 0,-0.275 2.7,-1.86296 6,-3.52879 3.3,-1.66583 6,-2.80379 6,-2.52879 0,0.275 -2.7,1.86296 -6,3.52879 -3.3,1.66583 -6,2.80379 -6,2.52879 z m 27.8125,-1.2119 c 0.72187,-0.28887 1.58437,-0.25335 1.91667,0.0789 0.33229,0.33229 -0.25834,0.56864 -1.3125,0.52522 -1.16495,-0.048 -1.4019,-0.28494 -0.60417,-0.60416 z m 13,0 c 0.72187,-0.28887 1.58437,-0.25335 1.91667,0.0789 0.33229,0.33229 -0.25834,0.56864 -1.3125,0.52522 -1.16495,-0.048 -1.4019,-0.28494 -0.60417,-0.60416 z M 359,161.62244 c 0,-0.20765 0.7875,-0.99515 1.75,-1.75 1.58606,-1.24387 1.62143,-1.2085 0.37756,0.37756 C 359.82119,161.91575 359,162.44548 359,161.62244 Z M 181,159 c -0.90129,-0.58246 -1.02463,-0.97549 -0.30902,-0.98469 0.65504,-0.008 1.4691,0.43469 1.80902,0.98469 0.7673,1.24153 0.42112,1.24153 -1.5,0 z m 45.5,-4 c 0.99549,-1.1 2.03498,-2 2.30998,-2 0.275,0 -0.31449,0.9 -1.30998,2 -0.99549,1.1 -2.03498,2 -2.30998,2 -0.275,0 0.31449,-0.9 1.30998,-2 z m 151.76375,-2.71758 c 1.52006,-0.22986 3.77006,-0.22371 5,0.0136 1.22994,0.23736 -0.0138,0.42542 -2.76375,0.41792 -2.75,-0.008 -3.75631,-0.20172 -2.23625,-0.43157 z M 233.08029,146 C 234.5381,142.93897 235,142.37166 235,143.6422 c 0,0.53655 -0.69982,1.84905 -1.55517,2.91667 -1.46637,1.83031 -1.48719,1.7984 -0.36454,-0.55887 z M 437,135.62244 c 0,-0.20765 0.7875,-0.99515 1.75,-1.75 1.58606,-1.24387 1.62143,-1.2085 0.37756,0.37756 C 437.82119,135.91575 437,136.44548 437,135.62244 Z m -200,-3.56342 c 0,-1.06754 0.38499,-2.17893 0.85554,-2.46974 0.47055,-0.29082 0.64309,0.58263 0.38343,1.94098 C 237.67495,134.48072 237,134.76877 237,132.05902 Z M 181.25218,129.5 c 0.0111,-2.2 0.21589,-2.98225 0.45508,-1.73834 0.23919,1.24391 0.23011,3.04391 -0.0202,4 -0.25029,0.95609 -0.446,-0.0617 -0.4349,-2.26166 z m 40.82677,-0.0833 c 0.048,-1.16495 0.28494,-1.4019 0.60416,-0.60417 0.28887,0.72187 0.25335,1.58437 -0.0789,1.91667 -0.3323,0.33229 -0.56864,-0.25834 -0.52522,-1.3125 z m 18.65438,-1.54076 c 0.67834,-0.68342 1.48524,-0.99067 1.79313,-0.68278 0.30789,0.30789 -0.24711,0.86705 -1.23333,1.24258 -1.4252,0.54268 -1.54006,0.42782 -0.5598,-0.5598 z M 444,127.62244 c 0,-0.20765 0.7875,-0.99515 1.75,-1.75 1.58606,-1.24387 1.62143,-1.2085 0.37756,0.37756 C 444.82119,127.91575 444,128.44548 444,127.62244 Z m -200,-1.07108 c 0,-0.275 1.35,-1.19811 3,-2.05136 1.65,-0.85325 3,-1.32636 3,-1.05136 0,0.275 -1.35,1.19811 -3,2.05136 -1.65,0.85325 -3,1.32636 -3,1.05136 z m 181,-1.92892 c 0,-0.20765 0.7875,-0.99515 1.75,-1.75 1.58606,-1.24387 1.62143,-1.2085 0.37756,0.37756 C 425.82119,124.91575 425,125.44548 425,124.62244 Z m 5,-3.89747 c 0,-0.15126 3.4875,-3.63876 7.75,-7.75 l 7.75,-7.47497 -7.47497,7.75 C 431.08244,120.44803 430,121.45627 430,120.72497 Z m 22.97111,-1.99477 2.41471,-2.76979 -4.92987,-5.23021 -4.92986,-5.2302 5.46964,5.24459 5.46964,5.24459 -2.95448,2.75541 -2.95448,2.75541 z M 463.92431,103.25 461.5,100.5 l 2.75,2.42431 c 2.57029,2.26589 3.20859,3.07569 2.42431,3.07569 -0.17912,0 -1.41662,-1.2375 -2.75,-2.75 z M 308.15789,89 c 0,-1.375 0.22698,-1.9375 0.50439,-1.25 0.27741,0.6875 0.27741,1.8125 0,2.5 -0.27741,0.6875 -0.50439,0.125 -0.50439,-1.25 z M 256,84.622445 c 0,-0.207656 0.7875,-0.995156 1.75,-1.75 1.58606,-1.243871 1.62143,-1.208501 0.37756,0.377555 C 256.82119,84.915748 256,85.445479 256,84.622445 Z m 73.26903,-3.315436 c 0.97297,-0.253543 2.32297,-0.236869 3,0.03705 0.67703,0.273923 -0.11903,0.481368 -1.76903,0.460988 -1.65,-0.02038 -2.20394,-0.244498 -1.23097,-0.498042 z M 324.87244,79.25 C 323.62857,77.663944 323.66394,77.628574 325.25,78.872445 326.91575,80.178814 327.44548,81 326.62244,81 c -0.20765,0 -0.99515,-0.7875 -1.75,-1.75 z M 246,73.622445 c 0,-0.207656 0.7875,-0.995156 1.75,-1.75 1.58606,-1.243871 1.62143,-1.208501 0.37756,0.377555 C 246.82119,73.915748 246,74.445479 246,73.622445 Z M 225.07895,63.416667 c 0.048,-1.164943 0.28494,-1.4019 0.60416,-0.604167 0.28887,0.721875 0.25335,1.584375 -0.0789,1.916667 -0.3323,0.332291 -0.56864,-0.258334 -0.52522,-1.3125 z M 391.8125,55.316886 c 0.72187,-0.288871 1.58438,-0.253344 1.91667,0.07895 0.33229,0.332292 -0.25834,0.568641 -1.3125,0.52522 -1.16495,-0.04798 -1.4019,-0.284941 -0.60417,-0.604167 z m 6,-1 c 0.72187,-0.288871 1.58438,-0.253344 1.91667,0.07895 0.33229,0.332292 -0.25834,0.568641 -1.3125,0.52522 -1.16495,-0.04798 -1.4019,-0.284941 -0.60417,-0.604167 z m 8.9375,-1.022619 c 1.2375,-0.238353 3.2625,-0.238353 4.5,0 1.2375,0.238353 0.225,0.433369 -2.25,0.433369 -2.475,0 -3.4875,-0.195016 -2.25,-0.433369 z"
         id="path174" />
      <path
         style="fill:#030401"
         d="M 92.208364,485.55976 C 76.380489,481.36882 64.401927,474.58921 50.818186,462.1338 c -3.672075,-3.36705 -6.289004,-6.79975 -7.398427,-9.70474 -2.886504,-7.5582 -1.221972,-10.88566 12.306229,-24.6006 6.331941,-6.41934 12.587817,-11.94139 13.901946,-12.27121 5.180956,-1.30034 10.442752,4.18844 8.736422,9.11329 -0.348623,1.0062 -5.329519,6.5932 -11.068657,12.41555 l -10.434796,10.5861 5.819549,5.33485 c 24.587853,22.53998 57.036388,26.94036 86.792178,11.76996 7.83765,-3.99587 10.87098,-6.9309 128.34382,-124.1848 C 343.9905,274.54149 400.36383,217.575 403.09051,214 c 7.58399,-9.94352 12.19894,-20.1073 19.97263,-43.98692 4.27693,-13.13809 8.5781,-24.36488 10.77719,-28.13034 2.01282,-3.44649 7.89729,-10.70081 13.0766,-16.12071 l 9.41693,-9.85437 -4.87934,-4.95383 C 448.77089,108.22922 446.097,106 445.51256,106 c -0.58444,0 -4.42635,3.40458 -8.53759,7.56573 -12.76626,12.92127 -18.68125,16.21604 -43.71362,24.34935 -23.30051,7.57062 -32.50229,11.50449 -42.50239,18.17028 -4.16435,2.77584 -47.4277,45.29187 -129.27644,127.04334 C 146.264,358.25785 97.694729,406.04604 96.482523,406.11848 90.817759,406.45703 88,404.12859 88,399.10901 c 0,-3.41209 3.950925,-7.53651 83.75,-87.42768 l 83.75,-83.84665 -23.05818,11.49085 -23.05819,11.49085 -1.0954,7.07693 c -2.03573,13.1519 -8.18618,21.96374 -19.06503,27.31469 -6.14614,3.02309 -7.4701,3.292 -16.20803,3.292 -9.11994,0 -9.79654,-0.15553 -16.28914,-3.74425 l -6.77397,-3.74426 -15.05415,7.53964 c -8.27979,4.1468 -17.20696,8.3882 -19.83815,9.42532 -14.3099,5.64043 -36.004178,6.74829 -52.115322,2.66136 C 35.962485,293.79328 15.36286,276.81739 3.3539583,251.53006 0.3473319,245.19895 -0.0822861,243.44652 0.51114026,239.93406 0.90379538,237.60996 2.3695239,234.5399 3.8551067,232.92993 6.8594669,229.67401 127.66033,168 131.03333,168 c 2.81663,0 6.96667,4.37467 6.96667,7.34376 0,4.97052 2.96302,3.32402 -94.710618,52.62883 l -28.210618,14.24047 2.852739,5.64347 c 7.254292,14.3509 19.086389,26.02321 33.485863,33.03366 11.515766,5.6065 19.908402,7.50491 33.082634,7.48327 14.500248,-0.0238 22.30951,-2.2622 41.60184,-11.92447 11.73946,-5.87952 14.93963,-7.89854 14.46786,-9.12794 -6.98668,-18.20702 2.26144,-39.6244 19.97115,-46.25045 6.68834,-2.50243 16.86203,-2.73406 24.21232,-0.55126 5.8429,1.73516 14.21663,7.93523 17.50939,12.96429 l 2.23744,3.41728 42.5,-21.56939 42.5,-21.56938 23,-22.76247 c 31.70782,-31.38035 36.63823,-34.48288 73.74699,-46.40636 23.5962,-7.58174 28.70895,-10.41729 41.75301,-23.15635 9.08892,-8.876404 11.74105,-10.397695 18.3151,-10.505738 4.09671,-0.06733 4.32188,-0.257908 10.6849,-9.043198 8.07877,-11.154199 15.26409,-17.161841 29.16349,-24.383581 C 492.12357,54.40775 497,51.662462 497,51.403802 c 0,-0.742597 -5.13363,-10.77466 -6.18457,-12.085782 -0.69903,-0.872102 -4.14167,0.377721 -13.13142,4.767266 -16.4152,8.015261 -21.06577,8.874576 -48.18401,8.903245 -36.27373,0.03835 -44.33137,1.91365 -75.7244,17.623768 C 341.9685,76.520962 331.78753,81 330.16408,81 c -5.37756,0 -8.61244,-7.344978 -5.09925,-11.57812 2.10431,-2.535529 43.906,-23.031938 51.66632,-25.333282 13.69982,-4.062715 23.96654,-5.236695 50.26885,-5.748148 29.37148,-0.571133 31.20162,-0.917264 47.15548,-8.918427 18.78727,-9.422168 25.09411,-7.456473 33.76925,10.52508 4.49225,9.311412 4.80373,11.37369 2.53713,16.798417 -2.30984,5.52824 -3.87786,6.825143 -15.642,12.937463 -6.30679,3.276831 -13.27059,7.843229 -16.71638,10.961493 C 472.56078,85.660333 462,98.734292 462,100.58015 c 0,0.45954 1.60919,2.48349 3.57599,4.49767 4.29586,4.39936 5.79116,9.75339 4.29293,15.37116 -0.7797,2.92357 -3.58191,6.5589 -10.79157,14 -5.35613,5.52806 -10.94325,12.12166 -12.41583,14.65244 -1.47258,2.53078 -6.2426,15.19998 -10.60005,28.15377 -14.37553,42.73548 -1.31329,27.28321 -142.90442,169.05193 C 227.34567,412.20103 170.575,468.28532 167,470.93886 c -8.14104,6.04269 -16.10164,10.04788 -27,13.58443 -7.38704,2.39711 -10.46405,2.80662 -23.5,3.1275 -13.45905,0.3313 -15.95453,0.11649 -24.291636,-2.09103 z M 178.43649,273.91168 c 16.13841,-4.0637 20.87855,-25.08783 8.04196,-35.66883 C 173.12418,227.23513 153,236.70098 153,253.99018 c 0,8.88396 5.81874,16.9208 14.1269,19.51208 5.49881,1.71505 6.04579,1.73485 11.30959,0.40942 z m -52.09274,184.01904 c -5.77459,-1.10375 -11.59734,-4.2613 -15.75766,-8.54504 -15.511435,-15.97162 -8.42669,-42.72482 12.96084,-48.94235 l 5.17453,-1.50427 0.63885,-6.21953 c 1.68913,-16.44448 14.96863,-30.03224 30.74939,-31.46319 l 5.63679,-0.51113 0.55481,-5.37558 c 0.69496,-6.73355 4.38368,-14.9083 9.06552,-20.09054 5.04289,-5.58187 14.40829,-10.35768 21.58824,-11.00873 l 5.79143,-0.52515 0.57175,-5.53972 c 0.74746,-7.24215 5.61532,-17.0093 10.82143,-21.71271 5.31148,-4.7986 13.43711,-8.4904 20.23054,-9.19154 l 5.37616,-0.55487 0.55487,-5.37616 c 0.70114,-6.79343 4.39294,-14.91906 9.19154,-20.23054 4.70341,-5.20611 14.47056,-10.07397 21.71271,-10.82143 l 5.53972,-0.57175 0.51113,-5.63679 c 1.40106,-15.45113 14.8446,-28.89044 30.69318,-30.6835 l 5.79349,-0.65546 0.53237,-5.87108 c 1.52398,-16.80672 17.36747,-30.8311 34.89425,-30.88779 3.49817,-0.0113 3.74505,-0.23892 5.28363,-4.87116 3.62306,-10.90799 13.85975,-18.17473 25.49308,-18.09682 3.60451,0.0241 8.20722,0.63445 10.22823,1.35623 13.31345,4.75477 20.88646,20.86791 16.299,34.67946 -2.42004,7.28607 -10.31341,15.23156 -17.08879,17.20166 l -4.88478,1.42037 -0.55232,6.98501 c -1.29978,16.43791 -14.39366,30.03921 -30.78773,31.98084 -5.20896,0.61693 -6.11302,1.65318 -6.1463,7.04503 -0.0274,4.44441 -4.23302,13.31519 -8.63258,18.20857 -5.32583,5.9236 -14.57561,10.8409 -22.05986,11.7273 l -5.16111,0.61126 -1.13502,6.51779 c -0.62427,3.58478 -2.04226,8.2961 -3.15109,10.4696 -5.02024,9.84047 -16.48403,17.93565 -27.3156,19.28896 l -5.39968,0.67465 -0.66777,5.14469 c -2.03011,15.64075 -13.76604,27.80317 -29.6528,30.73042 l -6.64647,1.22466 -0.66517,5.32384 c -1.96299,15.71124 -14.95561,28.3484 -31.64208,30.7764 l -4.61558,0.6716 -0.59644,5.03606 c -1.91321,16.154 -15.43103,29.40909 -31.42282,30.81208 l -6.49278,0.56963 -1.86773,6.09709 c -4.33995,14.16749 -19.07531,23.09939 -33.54532,20.33363 z m 11.05655,-15.32461 c 1.83483,-0.76665 4.60691,-3.06008 6.16019,-5.09652 9.26646,-12.14897 -4.80301,-28.66002 -18.54056,-21.75804 -10.69021,5.37095 -10.68092,20.51337 0.016,25.99845 5.08497,2.60744 7.73391,2.79085 12.36442,0.85611 z m 33.19547,-27.07871 c 15.36401,-4.56262 19.36921,-24.9921 6.91269,-35.25982 -13.40112,-11.04633 -33.40507,-1.5224 -33.4865,15.94299 -0.0121,2.5995 0.53824,5.15391 1.22804,5.69981 5.44409,4.30838 10.06774,8.81893 11.46533,11.18486 2.35665,3.98949 6.30606,4.68151 13.88044,2.43216 z m 36.72501,-36.59952 c 12.79147,-3.55199 18.72272,-20.29098 11.05541,-31.20023 -11.8231,-16.82223 -37.2648,-8.765 -37.35423,11.82985 -0.0211,4.86478 0.14912,5.17809 4.46767,8.22208 2.46929,1.74052 5.73179,4.9512 7.25,7.13484 3.62205,5.20961 6.96244,6.12905 14.58115,4.01346 z m 37,-37 c 8.65909,-2.4045 15.44516,-12.44009 14.44031,-21.3551 -1.21012,-10.73619 -8.45927,-17.70407 -19.1253,-18.38324 C 227.10033,301.39135 218,309.84616 218,322.29064 c 0,5.21067 0.13233,5.46535 4.45119,8.56692 2.44816,1.75814 5.44293,4.64692 6.65506,6.41952 4.11601,6.01921 7.05323,6.91706 15.21453,4.6508 z m 39.1878,-37.79286 c 7.41904,-3.3704 12.47059,-11.33608 12.48584,-19.68868 0.009,-4.8552 -4.55335,-12.86868 -9.13337,-16.04263 -5.24814,-3.63697 -14.73034,-4.53663 -19.95469,-1.89328 -7.75405,3.92331 -11.99795,10.52915 -12.06182,18.77482 -0.0327,4.22853 0.37583,5.46485 2.30783,6.98313 4.18805,3.29122 7.28429,6.24389 10.5123,10.02485 2.75746,3.22982 3.72249,3.70394 7.5,3.68481 2.38443,-0.0121 6.13919,-0.84144 8.34391,-1.84302 z m 37,-37 c 6.99856,-3.17938 12.48027,-11.36444 12.48027,-18.63502 0,-4.16644 -2.21181,-9.68434 -5.28482,-13.18431 -8.51632,-9.69956 -23.36477,-9.61649 -31.43645,0.17585 -3.4534,4.18958 -5.63039,11.21473 -4.66599,15.0572 0.34927,1.39162 4.0693,6.07786 8.26673,10.41387 7.26283,7.50262 7.84917,7.8863 12.13168,7.93856 2.475,0.0302 6.30386,-0.76457 8.50858,-1.76615 z m 36.79108,-36.74697 c 12.58589,-6.33929 16.10479,-21.37583 7.45749,-31.8665 -10.76724,-13.06253 -31.80012,-8.01632 -35.78271,8.58501 -1.52664,6.36374 -0.59948,10.093 3.04445,12.24552 1.61981,0.95685 5.06404,4.19407 7.65384,7.19382 4.49891,5.21108 4.92522,5.4541 9.56766,5.4541 2.67241,0 6.29908,-0.72538 8.05927,-1.61195 z m 31.97491,-41.20108 c 5.25631,-5.25631 4.66752,-14.97349 -1.15664,-19.08858 -7.59541,-5.36659 -17.6685,-2.00732 -20.07089,6.69342 -0.91852,3.32659 -0.74491,3.65016 5.25152,9.78761 5.65105,5.78395 6.50767,6.30886 9.65186,5.91428 2.04571,-0.25672 4.62036,-1.60294 6.32415,-3.30673 z M 155.5567,164.77749 c -1.63186,-2.32981 -1.98796,-5.49007 -0.92944,-8.24853 0.34499,-0.89903 4.20873,-3.43534 8.58609,-5.63623 6.42148,-3.22866 7.81961,-4.32915 7.23805,-5.69718 -3.08547,-7.2581 -3.62083,-10.2038 -3.2357,-17.80379 0.70498,-13.91174 7.74202,-24.22691 20.60915,-30.209702 7.69173,-3.576398 20.17172,-3.747003 27.59549,-0.377239 6.66944,3.027365 13.04552,8.427611 16.09566,13.632271 l 2.52723,4.3124 32.35858,-16.374746 C 284.19903,89.368635 299.86086,82 301.20588,82 c 5.15763,0 8.58221,7.172381 5.46201,11.439514 -0.73267,1.001976 -16.59517,9.525486 -35.25,18.941126 L 237.5,129.5 l -0.76042,5.37958 c -0.96741,6.84389 -5.89469,16.12439 -11.01867,20.7536 -6.86894,6.20567 -13.89133,8.82015 -23.7578,8.84517 -7.61674,0.0193 -9.23305,-0.32339 -14.99552,-3.17954 l -6.45862,-3.20119 -8.36737,4.45119 c -9.56612,5.08889 -14.15007,5.70488 -16.5849,2.22868 z m 57.65052,-18.35552 c 10.35277,-7.2762 12.24961,-20.85517 4.22313,-30.2323 -6.81762,-7.96486 -19.60528,-9.61739 -27.19019,-3.51376 -7.65421,6.15941 -10.5252,13.83809 -8.2848,22.15832 3.56009,13.22115 20.16674,19.37865 31.25186,11.58774 z m 16.10872,-56.687503 c -6.96453,-2.700168 -11.9923,-7.33164 -15.33918,-14.130108 -2.94069,-5.973397 -3.20059,-7.229844 -2.76133,-13.349198 0.58547,-8.156207 3.11898,-13.517678 8.82259,-18.670544 5.84531,-5.280891 10.22831,-6.930434 18.46198,-6.948179 10.83354,-0.02335 19.21722,5.025025 24.04062,14.476457 6.95681,13.631843 1.62064,30.148541 -11.99567,37.129477 -4.88304,2.503481 -16.51213,3.32084 -21.22901,1.492095 z m 15.91713,-15.391734 c 6.54253,-3.295322 7.62915,-13.942054 1.9977,-19.573502 -8.99576,-8.995758 -24.55854,-0.127637 -21.26179,12.115576 2.30925,8.575908 10.64068,11.801346 19.26409,7.457926 z"
         id="path172" />
    </g>
  </g>
</svg>
