<?xml version="1.0" encoding="UTF-8" standalone="no"?>
<!-- Created with Inkscape (http://www.inkscape.org/) -->

<svg
   version="1.1"
   id="svg2"
   width="512"
   height="512"
   viewBox="0 0 512 512"
   xmlns="http://www.w3.org/2000/svg"
   xmlns:svg="http://www.w3.org/2000/svg">
  <defs
     id="defs6" />
  <g
     id="g8">
    <g
       id="g170">
      <path
         style="fill:#67d4f1"
         d="M 80.429137,459.61923 C 77.640162,458.32055 73.914736,455.51245 72.150413,453.379 66.171697,446.14943 66,444.47276 66,393.3185 V 347 h 29 29 l -0.0174,7.75 c -0.0227,10.12865 -2.21228,20.20756 -6.11758,28.1599 -3.44992,7.02506 -13.01331,17.33466 -19.031225,20.51618 l -3.643213,1.92607 3.623974,7.32393 C 100.80778,416.70423 102.81151,420 103.26732,420 c 0.45582,0 3.39271,-1.64015 6.52644,-3.64477 11.80459,-7.5513 22.62606,-21.4994 27.08266,-34.90758 C 139.11388,374.71596 141,361.60173 141,352.77623 V 347 h 8 8 l 0.0148,23.25 c 0.017,26.7368 0.81273,31.71109 7.11588,44.48291 4.66133,9.44507 13.93843,20.12719 22.29988,25.6772 2.97651,1.9757 6.01935,3.8253 6.76186,4.11023 0.89995,0.34534 2.57889,-1.96543 5.03602,-6.9312 l 3.68599,-7.44926 -4.2072,-2.4663 c -5.73145,-3.35983 -14.92962,-13.20556 -18.00282,-19.27024 -3.4292,-6.7672 -5.8951,-15.61104 -5.51656,-19.78492 l 0.31217,-3.44205 7.45727,4.91906 c 11.74317,7.74618 26.89232,12.93922 42.29273,14.49768 l 6.75,0.68308 v -8.45607 -8.45607 l -8.45248,-1.13093 c -16.25064,-2.17432 -31.07258,-9.15781 -42.48437,-20.0169 L 174,361.44672 V 354.22336 347 h 82 82 v 7.22336 7.22336 l -6.06315,5.7695 c -11.41179,10.85909 -26.23373,17.84258 -42.48437,20.0169 L 281,388.36405 v 8.45607 8.45607 l 6.75,-0.68308 c 15.40041,-1.55846 30.54956,-6.7515 42.29273,-14.49768 l 7.45727,-4.91906 0.31217,3.44205 c 0.37854,4.17388 -2.08736,13.01772 -5.51656,19.78492 -3.0732,6.06468 -12.27137,15.91041 -18.00282,19.27024 l -4.2072,2.4663 3.68599,7.44926 c 2.45713,4.96577 4.13607,7.27654 5.03602,6.9312 0.74251,-0.28493 3.78535,-2.13453 6.76186,-4.11023 8.36145,-5.55001 17.63855,-16.23213 22.29988,-25.6772 6.30315,-12.77182 7.09888,-17.74611 7.11588,-44.48291 L 355,347 h 8 8 v 5.77623 c 0,8.8255 1.88612,21.93973 4.12358,28.67142 4.4566,13.40818 15.27807,27.35628 27.08266,34.90758 3.13373,2.00462 6.07062,3.64477 6.52644,3.64477 0.45581,0 2.44696,-3.27035 4.42478,-7.26744 l 3.59602,-7.26745 -4.9864,-2.98255 C 397.06197,393.68688 388.06408,375.60278 388.01736,354.75 L 388,347 h 29 29 v 46.3185 c 0,51.15426 -0.1717,52.83093 -6.15041,60.0605 -1.76433,2.13345 -5.48975,4.94155 -8.27873,6.24023 L 426.5,461.98046 H 256 85.5 Z m 49.116313,-16.07378 c 6.36407,-6.36406 -0.45585,-16.81121 -8.88285,-13.60727 -3.51802,1.33755 -6.04755,6.91912 -4.71915,10.41307 2.16888,5.70459 9.39475,7.40146 13.602,3.1942 z m 114.54121,1.17275 C 246.23913,443.06558 248,439.58762 248,436.98882 248,433.95122 242.73196,429 239.5,429 c -3.23196,0 -8.5,4.95122 -8.5,7.98882 0,4.92077 3.82538,8.94757 8.5,8.94757 1.65,0 3.714,-0.54819 4.58666,-1.21819 z M 393.38931,443.75 c 4.36185,-3.92436 3.59575,-10.67212 -1.5115,-13.31319 -8.37104,-4.32883 -16.10378,6.42813 -9.42326,13.10864 3.11901,3.11902 7.60216,3.20288 10.93476,0.20455 z M 96.545455,377.54545 c 6.315895,-6.31589 -0.445568,-16.81512 -8.786592,-13.64387 -1.464689,0.55687 -3.369172,2.37795 -4.232185,4.04683 -4.253056,8.2245 6.479561,16.13626 13.018777,9.59704 z M 278.07692,377.07692 C 279.83909,375.31475 281,373.09987 281,371.5 c 0,-1.59987 -1.16091,-3.81475 -2.92308,-5.57692 C 276.31475,364.16091 274.09987,363 272.5,363 c -3.508,0 -8.5,4.992 -8.5,8.5 0,1.59987 1.16091,3.81475 2.92308,5.57692 1.76217,1.76217 3.97705,2.92308 5.57692,2.92308 1.59987,0 3.81475,-1.16091 5.57692,-2.92308 z m 148.17584,0.9389 c 3.36713,-2.64858 4.1714,-6.29491 2.22056,-10.06741 C 424.4401,360.14901 413,362.94787 413,371.73402 c 0,6.92678 7.75793,10.60403 13.25276,6.2818 z"
         id="path184" />
      <path
         style="fill:#b2db7d"
         d="M 35.404988,492.75 33.5,490.5 l 2.25,1.90499 C 37.864445,494.19521 38.455241,495 37.654988,495 c -0.189757,0 -1.202257,-1.0125 -2.25,-2.25 z M 475,493.62244 c 0,-0.20765 0.7875,-0.99515 1.75,-1.75 1.58606,-1.24387 1.62143,-1.2085 0.37756,0.37756 C 475.82119,493.91575 475,494.44548 475,493.62244 Z M 46.924314,480.25 44.5,477.5 l 2.75,2.42431 C 49.820289,482.1902 50.458588,483 49.674314,483 c -0.179127,0 -1.416627,-1.2375 -2.75,-2.75 z M 463.5,481 c 0.99549,-1.1 2.03498,-2 2.30998,-2 0.275,0 -0.31449,0.9 -1.30998,2 -0.99549,1.1 -2.03498,2 -2.30998,2 -0.275,0 0.31449,-0.9 1.30998,-2 z M 16.078947,450.41667 c 0.04798,-1.16495 0.284941,-1.4019 0.604167,-0.60417 0.288871,0.72187 0.253344,1.58438 -0.07895,1.91667 -0.332292,0.33229 -0.568641,-0.25834 -0.52522,-1.3125 z m 479.000003,0 c 0.048,-1.16495 0.28494,-1.4019 0.60416,-0.60417 0.28887,0.72187 0.25335,1.58438 -0.0789,1.91667 -0.33229,0.33229 -0.56864,-0.25834 -0.52522,-1.3125 z m -462.000003,-1 c 0.04798,-1.16495 0.284941,-1.4019 0.604167,-0.60417 0.288871,0.72187 0.253344,1.58438 -0.07895,1.91667 -0.332292,0.33229 -0.568641,-0.25834 -0.52522,-1.3125 z m 445.000003,0 c 0.048,-1.16495 0.28494,-1.4019 0.60416,-0.60417 0.28887,0.72187 0.25335,1.58438 -0.0789,1.91667 -0.33229,0.33229 -0.56864,-0.25834 -0.52522,-1.3125 z m -429.000003,-8 c 0.04798,-1.16495 0.284941,-1.4019 0.604167,-0.60417 0.288871,0.72187 0.253344,1.58438 -0.07895,1.91667 -0.332292,0.33229 -0.568641,-0.25834 -0.52522,-1.3125 z m 413.000003,0 c 0.048,-1.16495 0.28494,-1.4019 0.60416,-0.60417 0.28887,0.72187 0.25335,1.58438 -0.0789,1.91667 -0.33229,0.33229 -0.56864,-0.25834 -0.52522,-1.3125 z M 42.179419,247.25084 c 14.67368,-0.15578 38.97368,-0.15591 54,-2.9e-4 C 111.20574,247.40618 99.2,247.53364 69.5,247.53379 39.8,247.53395 27.505739,247.40662 42.179419,247.25084 Z M 214.75,247.25031 c 22.6875,-0.14987 59.8125,-0.14987 82.5,0 22.6875,0.14987 4.125,0.27249 -41.25,0.27249 -45.375,0 -63.9375,-0.12262 -41.25,-0.27249 z m 200.42942,5.3e-4 c 14.67368,-0.15578 38.97368,-0.15591 54,-2.9e-4 15.02632,0.15563 3.02058,0.28309 -26.67942,0.28324 -29.7,1.6e-4 -41.99426,-0.12717 -27.32058,-0.28295 z M 97.5,211.60976 c -6.454543,-3.06035 -12.072218,-8.97208 -14.426519,-15.18166 -1.758575,-4.63833 -2.212569,-5.049 -7.72096,-6.98415 -8.625317,-3.03017 -11.487623,-4.78199 -16.2435,-9.9415 -5.420712,-5.88078 -8.184729,-12.10567 -8.831268,-19.88904 -0.494691,-5.95534 -0.68295,-6.2944 -7.28104,-13.11341 -3.725271,-3.85 -7.311005,-8.05299 -7.968299,-9.33997 -1.856937,-3.63588 -1.48509,-11.0714 0.700041,-13.99814 3.823148,-5.12069 6.987704,-6.66189 13.67893,-6.66189 6.152187,0 6.475967,0.14119 18.676669,8.14449 11.370778,7.45889 12.927117,8.18612 18.488338,8.63907 7.293972,0.59407 13.414434,3.47699 19.257818,9.07102 4.95153,4.74023 6.80777,7.88646 9.22606,15.63765 1.6504,5.28992 1.91869,5.5717 7.28335,7.64967 7.56557,2.93047 11.18447,5.68988 14.1915,10.821 4.90455,8.36897 4.33858,17.11411 -1.7318,26.75917 l -2.97197,4.72208 -5.30126,-10.72208 C 123.6104,191.32493 118.85364,183.125 115.95551,179 c -5.25107,-7.47402 -26.494055,-29.35535 -27.954822,-28.79486 -0.422658,0.16217 -3.097417,3.0927 -5.943909,6.51229 l -5.175439,6.21742 10.135471,9.72827 c 10.645622,10.21793 20.683739,23.88856 25.443029,34.65015 1.39709,3.15907 2.54016,5.95593 2.54016,6.21524 0,0.25932 -2.8125,0.46709 -6.25,0.46172 -4.48762,-0.007 -7.65991,-0.67826 -11.25,-2.38047 z m 85.47625,-0.0473 c 4.63769,-12.19805 14.41638,-26.22055 26.73503,-38.33766 l 10.44611,-10.2752 -5.22438,-6.43916 -5.22438,-6.43916 -3.10432,2.19648 c -12.02248,8.50662 -29.72855,31.05597 -37.35591,47.57416 l -3.79246,8.21313 -3.32498,-5.48619 c -1.82874,-3.01741 -3.74347,-7.34876 -4.25496,-9.62522 -2.5549,-11.37105 5.24996,-23.6746 17.45968,-27.52337 4.90687,-1.54676 5.56603,-2.08283 6.10702,-4.96655 1.02508,-5.46411 6.42462,-15.10114 10.54852,-18.82683 5.6844,-5.13552 11.52976,-7.78082 18.43639,-8.34334 5.55512,-0.45245 7.11996,-1.18169 18.37011,-8.56075 10.71611,-7.02879 12.987,-8.12334 17.65721,-8.51063 7.08929,-0.5879 12.69524,2.40085 15.54498,8.28764 3.73634,7.71823 2.47532,11.36186 -7.44095,21.50018 l -7.33573,7.5 -0.47876,6.52941 c -0.47611,6.49343 -2.75851,12.36542 -7.0764,18.20569 -3.04447,4.11785 -11.39214,9.42096 -17.66807,11.22417 -5.42565,1.5589 -5.54472,1.67546 -8.8086,8.62241 -4.99614,10.63399 -12.95782,15.69609 -24.91665,15.84224 -6.19555,0.0757 -6.22083,0.0644 -5.2985,-2.36145 z m 131.33969,1.11145 c -7.15477,-2.63787 -12.06325,-7.26114 -15.50734,-14.60625 -3.29938,-7.03648 -3.32467,-7.06072 -9.074,-8.698 -10.50928,-2.99282 -18.84551,-10.70468 -22.69605,-20.99618 C 265.91735,165.37681 265,162.4395 265,161.84614 c 0,-0.59335 2.41689,-3.68936 5.37087,-6.88 7.95071,-8.58772 10.12913,-13.66732 10.12913,-23.61891 0,-5.15313 0.36793,-7.94051 1,-7.57586 0.55,0.31731 3.7,2.3946 7,4.6162 4.91552,3.30919 7.20185,4.16849 12.64935,4.75418 7.60617,0.81778 13.16117,3.34034 19.05187,8.65156 4.1449,3.73716 9.30539,13.08302 10.38071,18.79988 0.51137,2.71868 1.24778,3.30311 6.08239,4.82709 12.20972,3.84877 20.01458,16.15232 17.45968,27.52337 -0.51149,2.27646 -2.42622,6.60781 -4.25496,9.62522 l -3.32498,5.48619 -3.79246,-8.21313 c -7.62736,-16.51819 -25.33343,-39.06754 -37.35591,-47.57416 l -3.10432,-2.19648 -5.22438,6.43916 -5.22438,6.43916 10.44611,10.2752 c 12.31865,12.11711 22.09734,26.13961 26.73503,38.33766 0.92233,2.4259 0.89705,2.43717 -5.2985,2.36145 -3.42389,-0.0418 -7.65808,-0.60434 -9.40931,-1.25 z M 397,213.52851 c 0,-0.25931 1.14307,-3.05617 2.54016,-6.21524 4.81561,-10.88894 14.85836,-24.53794 25.49905,-34.65547 l 10.1132,-9.61597 -5.32621,-6.45371 c -2.92941,-3.54954 -5.63237,-6.48395 -6.00657,-6.52091 -0.37421,-0.037 -5.5911,4.77029 -11.5931,10.68279 -12.75629,12.56608 -19.43414,21.67005 -26.75262,36.47207 l -5.30126,10.72208 -2.97197,-4.72208 c -6.07038,-9.64506 -6.63635,-18.3902 -1.7318,-26.75917 3.00703,-5.13112 6.62593,-7.89053 14.1915,-10.821 5.36466,-2.07797 5.63295,-2.35975 7.28335,-7.64967 2.41829,-7.75119 4.27453,-10.89742 9.22606,-15.63765 5.84338,-5.59403 11.96385,-8.47695 19.25782,-9.07102 5.56122,-0.45295 7.11756,-1.18018 18.48834,-8.63907 12.2007,-8.0033 12.52448,-8.14449 18.67667,-8.14449 6.69122,0 9.85578,1.5412 13.67892,6.66189 2.18514,2.92674 2.55698,10.36226 0.70005,13.99814 -0.6573,1.28698 -4.24303,5.48997 -7.9683,9.33997 -6.59809,6.81901 -6.78635,7.15807 -7.28104,13.11341 -0.64654,7.78337 -3.41056,14.00826 -8.83127,19.88904 -4.75588,5.15951 -7.61818,6.91133 -16.2435,9.9415 -5.50839,1.93515 -5.96239,2.34582 -7.72096,6.98415 -3.93104,10.36831 -14.42297,17.54454 -25.67652,17.56213 -3.4375,0.005 -6.25,-0.2024 -6.25,-0.46172 z M 46.924314,192.25 44.5,189.5 l 2.75,2.42431 C 49.820289,194.1902 50.458588,195 49.674314,195 c -0.179127,0 -1.416627,-1.2375 -2.75,-2.75 z M 464,192.5 c 1.29175,-1.375 2.57363,-2.5 2.84863,-2.5 0.275,0 -0.55688,1.125 -1.84863,2.5 -1.29175,1.375 -2.57363,2.5 -2.84863,2.5 -0.275,0 0.55688,-1.125 1.84863,-2.5 z M 142.37278,157.13181 136.24557,151.5 126.11878,104.07933 c -5.56973,-26.08137 -10.3454,-47.639287 -10.6126,-47.906484 -0.47376,-0.473762 -15.564098,2.551738 -16.275469,3.26311 -0.319659,0.319659 12.099529,59.638884 13.340189,63.718324 0.38051,1.25114 -1.08808,0.80935 -6.0265,-1.81297 -3.6451,-1.93555 -9.956521,-4.16225 -14.287011,-5.04052 C 76.422012,113.08922 67.017407,101.96387 67.065855,86.5 67.093925,77.540426 68.163227,74.728912 76.30619,62.204392 L 83,51.908784 83.02196,42.204392 c 0.01639,-7.244267 0.487334,-10.728905 1.857702,-13.745762 6.132458,-13.500571 24.652968,-15.217192 32.893348,-3.048806 1.15096,1.699597 3.05918,6.907313 4.24048,11.572703 1.79829,7.102089 2.8331,9.217697 6.35869,13 C 140.52874,63.024284 148,80.842298 148,96.792418 c 0,4.707952 0.42063,6.278272 2.08521,7.784692 8.78457,7.94993 13.91192,20.37656 14.61585,35.42289 l 0.49124,10.5 -4.24187,2.36373 c -2.33303,1.30005 -6.0888,4.05936 -8.34615,6.13181 L 148.5,162.76363 Z m 217.77456,2.5202 c -1.72005,-1.77464 -5.419,-4.55983 -8.21989,-6.18932 L 346.83493,150.5 347.31255,140 c 0.68398,-15.0367 5.80629,-27.46266 14.60224,-35.42289 1.66458,-1.50642 2.08521,-3.07674 2.08521,-7.784692 0,-15.95012 7.47126,-33.768134 19.62782,-46.809891 3.51511,-3.771061 4.56795,-5.916055 6.37206,-12.982047 2.58086,-10.108221 4.28888,-13.235589 9.01892,-16.513509 9.59529,-6.649537 23.21502,-2.785981 28.10154,7.971659 1.37083,3.017891 1.8413,6.501813 1.8577,13.756818 l 0.022,9.715447 6.66543,10.172987 c 8.08171,12.334561 9.24048,15.384552 9.26872,24.396118 0.0484,15.46387 -9.35616,26.58922 -25.19154,29.80079 -4.33049,0.87827 -10.64191,3.10497 -14.28701,5.04052 -4.93842,2.62232 -6.40701,3.06411 -6.0265,1.81297 1.24066,-4.07944 13.65985,-63.398665 13.34019,-63.718324 -0.7156,-0.715597 -15.80316,-3.735416 -16.28008,-3.258503 -0.26973,0.269731 -5.07402,21.901944 -10.67621,48.071587 l -10.18579,47.58116 -6.17625,5.52422 -6.17625,5.52422 -3.12737,-3.22663 z M 16.078947,133.41667 c 0.04798,-1.16495 0.284941,-1.4019 0.604167,-0.60417 0.288871,0.72187 0.253344,1.58437 -0.07895,1.91667 -0.332292,0.33229 -0.568641,-0.25834 -0.52522,-1.3125 z m 479.000003,0 c 0.048,-1.16495 0.28494,-1.4019 0.60416,-0.60417 0.28887,0.72187 0.25335,1.58437 -0.0789,1.91667 -0.33229,0.33229 -0.56864,-0.25834 -0.52522,-1.3125 z M 16.078947,86.416667 c 0.04798,-1.164943 0.284941,-1.4019 0.604167,-0.604167 0.288871,0.721875 0.253344,1.584375 -0.07895,1.916667 -0.332292,0.332291 -0.568641,-0.258334 -0.52522,-1.3125 z m 479.000003,0 c 0.048,-1.164943 0.28494,-1.4019 0.60416,-0.604167 0.28887,0.721875 0.25335,1.584375 -0.0789,1.916667 -0.33229,0.332291 -0.56864,-0.258334 -0.52522,-1.3125 z M 75,11.622445 C 75,11.414789 75.7875,10.627289 76.75,9.8724447 78.336056,8.6285741 78.371426,8.6639444 77.127555,10.25 75.821186,11.915748 75,12.445479 75,11.622445 Z M 434.87244,10.25 C 433.62857,8.6639444 433.66394,8.6285741 435.25,9.8724447 436.91575,11.178814 437.44548,12 436.62244,12 c -0.20765,0 -0.99515,-0.7875 -1.75,-1.75 z"
         id="path182" />
      <path
         style="fill:#fe816d"
         d="m 17,281 v -16 h 239 239 v 16 16 H 256 17 Z"
         id="path180" />
      <path
         style="fill:#9ed267"
         d="m 139.25166,238.26215 -1.1915,-8.73785 5.09599,-7.76215 C 145.95895,217.49297 148.4067,214 148.5956,214 c 0.1889,0 2.64622,3.41256 5.46072,7.58347 l 5.11728,7.58347 -1.0868,8.07553 C 157.48906,241.68402 157,245.69646 157,246.159 c 0,0.46255 -3.72529,0.841 -8.27842,0.841 h -8.27842 z M 355,246.159 c 0,-0.46254 -0.48906,-4.47498 -1.0868,-8.91653 l -1.0868,-8.07553 5.11728,-7.58347 C 360.75818,217.41256 363.2155,214 363.4044,214 c 0.1889,0 2.61384,3.4875 5.38876,7.75 l 5.04532,7.75 -1.11437,8.75 -1.11438,8.75 h -8.30486 C 358.73719,247 355,246.62155 355,246.159 Z M 88.404988,205.75 86.5,203.5 l 2.25,1.90499 C 90.864445,207.19521 91.455241,208 90.654988,208 c -0.189757,0 -1.202257,-1.0125 -2.25,-2.25 z M 422.5,206 c 0.99549,-1.1 2.03498,-2 2.30998,-2 0.275,0 -0.31449,0.9 -1.30998,2 -0.99549,1.1 -2.03498,2 -2.30998,2 -0.275,0 0.31449,-0.9 1.30998,-2 z M 58.872445,180.25 c -1.243871,-1.58606 -1.208501,-1.62143 0.377555,-0.37756 0.9625,0.75485 1.75,1.54235 1.75,1.75 0,0.82304 -0.821186,0.29331 -2.127555,-1.37244 z M 451,181.62244 c 0,-0.20765 0.7875,-0.99515 1.75,-1.75 1.58606,-1.24387 1.62143,-1.2085 0.37756,0.37756 C 451.82119,181.91575 451,182.44548 451,181.62244 Z M 89.452948,174.75 85.5,170.5 l 4.25,3.95295 c 3.952458,3.6762 4.709525,4.54705 3.952948,4.54705 -0.163379,0 -2.075879,-1.9125 -4.25,-4.25 z M 421.5,175 c 2.14824,-2.2 4.1309,-4 4.4059,-4 0.275,0 -1.25766,1.8 -3.4059,4 -2.14824,2.2 -4.1309,4 -4.4059,4 -0.275,0 1.25766,-1.8 3.4059,-4 z m -258,-3 c 0.99549,-1.1 2.03498,-2 2.30998,-2 0.275,0 -0.31449,0.9 -1.30998,2 -0.99549,1.1 -2.03498,2 -2.30998,2 -0.275,0 0.31449,-0.9 1.30998,-2 z m 183.90499,-0.25 -1.90499,-2.25 2.25,1.90499 c 2.11444,1.79022 2.70524,2.59501 1.90499,2.59501 -0.18976,0 -1.20226,-1.0125 -2.25,-2.25 z m -152.44678,-9 C 199.10217,158.33481 200,157.54091 200,158.29179 c 0,0.16049 -2.1375,2.29799 -4.75,4.75 L 190.5,167.5 Z M 316,162.5 c -2.42903,-2.475 -4.19142,-4.5 -3.91642,-4.5 0.275,0 2.48739,2.025 4.91642,4.5 2.42903,2.475 4.19142,4.5 3.91642,4.5 -0.275,0 -2.48739,-2.025 -4.91642,-4.5 z m -47.04179,-6.75 C 273.10217,151.33481 274,150.54091 274,151.29179 c 0,0.16049 -2.1375,2.29799 -4.75,4.75 L 264.5,160.5 Z m -173.085765,1.5 c -1.243871,-1.58606 -1.208501,-1.62143 0.377555,-0.37756 0.9625,0.75485 1.75,1.54235 1.75,1.75 0,0.82304 -0.821186,0.29331 -2.127555,-1.37244 z M 414,158.62244 c 0,-0.20765 0.7875,-0.99515 1.75,-1.75 1.58606,-1.24387 1.62143,-1.2085 0.37756,0.37756 C 414.82119,158.91575 414,159.44548 414,158.62244 Z M 87.014286,150.58571 c 0.647619,-0.64761 1.323809,-0.64761 1.971428,0 0.647619,0.64762 0.309524,0.98572 -0.985714,0.98572 -1.295238,0 -1.633333,-0.3381 -0.985714,-0.98572 z m 335.719044,0.2902 c 0.67834,-0.68342 1.48524,-0.99067 1.79313,-0.68278 0.30789,0.30789 -0.24711,0.86705 -1.23333,1.24258 -1.4252,0.54268 -1.54006,0.42782 -0.5598,-0.5598 z M 105.92431,142.25 103.5,139.5 l 2.75,2.42431 c 2.57029,2.26589 3.20859,3.07569 2.42431,3.07569 -0.17912,0 -1.41662,-1.2375 -2.75,-2.75 z M 405,142.5 c 1.29175,-1.375 2.57363,-2.5 2.84863,-2.5 0.275,0 -0.55688,1.125 -1.84863,2.5 -1.29175,1.375 -2.57363,2.5 -2.84863,2.5 -0.275,0 0.55688,-1.125 1.84863,-2.5 z M 81.269032,132.30701 c 0.972967,-0.25354 2.322967,-0.23687 3,0.0371 0.677032,0.27393 -0.119032,0.48137 -1.769032,0.46099 -1.65,-0.0204 -2.203936,-0.2445 -1.230968,-0.49804 z m 131.999998,0 c 0.97297,-0.25354 2.32297,-0.23687 3,0.0371 0.67703,0.27393 -0.11903,0.48137 -1.76903,0.46099 -1.65,-0.0204 -2.20394,-0.2445 -1.23097,-0.49804 z m 83,0 c 0.97297,-0.25354 2.32297,-0.23687 3,0.0371 0.67703,0.27393 -0.11903,0.48137 -1.76903,0.46099 -1.65,-0.0204 -2.20394,-0.2445 -1.23097,-0.49804 z m 132,0 c 0.97297,-0.25354 2.32297,-0.23687 3,0.0371 0.67703,0.27393 -0.11903,0.48137 -1.76903,0.46099 -1.65,-0.0204 -2.20394,-0.2445 -1.23097,-0.49804 z m -248.18601,-8.89157 c -0.62571,-2.48492 -0.8166,-5.05745 -0.4242,-5.71674 0.3924,-0.65928 4.22969,-5.55889 8.52731,-10.88802 C 192.48376,101.48156 196,96.680519 196,96.141702 c 0,-1.184143 -11.0852,-10.138931 -12.5,-10.097684 -0.55,0.01603 -3.25,2.963751 -6,6.550481 -6.96528,9.084571 -6.98985,9.098791 -9.93493,5.750171 -1.67993,-1.910111 -2.51225,-4.055178 -2.53347,-6.529294 -0.0472,-5.505002 -2.738,-17.285314 -5.52326,-24.180915 l -2.46265,-6.096923 3.69684,-3.785911 c 7.30055,-7.476445 16.53789,-9.661306 24.75747,-5.855764 5.70567,2.64164 9.33632,6.956734 11.96766,14.223799 1.25963,3.478774 2.90721,6.66235 3.66129,7.074613 0.75408,0.412263 5.0844,1.711732 9.62295,2.887709 13.70824,3.551927 19.15631,9.251666 20.04052,20.966254 l 0.41877,5.548242 -9.35559,6.15008 c -7.52479,4.94657 -10.77358,6.44304 -16.6016,7.64713 -7.52675,1.55505 -15.49305,5.04447 -20.89366,9.15191 l -3.13966,2.38786 z m 147.92002,2.3907 c -4.56808,-3.70772 -14.18248,-7.95132 -21.38603,-9.43935 -5.68097,-1.1735 -9.00475,-2.71109 -16.47261,-7.62023 l -9.35559,-6.15008 0.41877,-5.548242 c 0.88421,-11.714588 6.33228,-17.414327 20.04052,-20.966254 4.53855,-1.175977 8.86887,-2.475446 9.62295,-2.887709 0.75408,-0.412263 2.40166,-3.595839 3.66129,-7.074613 2.63134,-7.267065 6.26199,-11.582159 11.96766,-14.223799 8.21958,-3.805542 17.45692,-1.620681 24.75747,5.855764 l 3.69684,3.785911 -2.46265,6.096923 c -2.78526,6.895601 -5.47605,18.675913 -5.52326,24.180915 -0.0212,2.474116 -0.85354,4.619183 -2.53347,6.529294 -2.94508,3.34862 -2.96965,3.3344 -9.93493,-5.750171 -2.75,-3.58673 -5.45,-6.534447 -6,-6.550481 -1.39929,-0.04079 -12.5,8.907072 -12.5,10.075779 0,0.526769 3.84493,5.737343 8.5443,11.579053 7.72936,9.60827 8.48001,10.91601 7.87027,13.71122 -1.40041,6.41986 -1.63281,6.65145 -4.41153,4.39607 z M 35.552149,96.818995 C 30.12741,87.635644 36.796652,75.014476 47.079705,75.003738 L 50.659409,75 49.677994,80.414507 c -0.655673,3.617374 -0.637356,7.517324 0.05519,11.75 0.570131,3.484521 0.9759,6.386465 0.90171,6.448763 -0.07419,0.0623 -3.073924,0.402243 -6.666075,0.755432 l -6.531184,0.642158 -1.885483,-3.191865 z m 430.113211,2.442509 c -3.59221,-0.28086 -4.69912,-0.731155 -4.30729,-1.752229 1.21745,-3.172627 1.69326,-13.351257 0.83018,-17.759275 l -0.93004,-4.75 3.6209,0.0037 c 7.46799,0.0077 13.43878,6.47163 13.44906,14.559826 0.007,5.152569 -3.01557,10.502334 -5.79378,10.256188 -1.11891,-0.09914 -4.20998,-0.350348 -6.86903,-0.558248 z M 66.232003,86 c 0,-1.925 0.205795,-2.7125 0.457323,-1.75 0.251527,0.9625 0.251527,2.5375 0,3.5 -0.251528,0.9625 -0.457323,0.175 -0.457323,-1.75 z M 445.232,86 c 0,-1.925 0.2058,-2.7125 0.45733,-1.75 0.25152,0.9625 0.25152,2.5375 0,3.5 C 445.4378,88.7125 445.232,87.925 445.232,86 Z M 87,23.622445 c 0,-0.207656 0.7875,-0.995156 1.75,-1.75 C 90.336056,20.628574 90.371426,20.663944 89.127555,22.25 87.821186,23.915748 87,24.445479 87,23.622445 Z"
         id="path178" />
      <path
         style="fill:#ba5e50"
         d="m 16.462849,280.5 0.03715,-16 H 256 495.5 l 0.0383,16.25101 0.0384,16.25102 -0.31313,-16.00102 L 494.95046,265 H 256 17.049543 l -0.311923,15.75 -0.311922,15.75 z"
         id="path176" />
      <path
         style="fill:#72904e"
         d="m 74.8125,511.31689 c 0.721875,-0.28887 1.584375,-0.25335 1.916667,0.0789 0.332291,0.33229 -0.258334,0.56864 -1.3125,0.52522 -1.164943,-0.048 -1.4019,-0.28494 -0.604167,-0.60416 z m 361,0 c 0.72187,-0.28887 1.58438,-0.25335 1.91667,0.0789 0.33229,0.33229 -0.25834,0.56864 -1.3125,0.52522 -1.16495,-0.048 -1.4019,-0.28494 -0.60417,-0.60416 z M 166.75,495.25007 c 49.0875,-0.14345 129.4125,-0.14345 178.5,0 49.0875,0.14345 8.925,0.26082 -89.25,0.26082 -98.175,0 -138.3375,-0.11737 -89.25,-0.26082 z M 84.8125,478.31689 c 0.721875,-0.28887 1.584375,-0.25335 1.916667,0.0789 0.332291,0.33229 -0.258334,0.56864 -1.3125,0.52522 -1.164943,-0.048 -1.4019,-0.28494 -0.604167,-0.60416 z m 341,0 c 0.72187,-0.28887 1.58438,-0.25335 1.91667,0.0789 0.33229,0.33229 -0.25834,0.56864 -1.3125,0.52522 -1.16495,-0.048 -1.4019,-0.28494 -0.60417,-0.60416 z M 61.437091,466.75 58.5,463.5 l 3.25,2.93709 C 64.779455,469.17487 65.459652,470 64.687091,470 c -0.1721,0 -1.6346,-1.4625 -3.25,-3.25 z M 447,469.68709 c 0,-0.1721 1.4625,-1.6346 3.25,-3.25 l 3.25,-2.93709 -2.93709,3.25 C 447.82513,469.77946 447,470.45965 447,469.68709 Z m -274.75,-7.43701 c 46.0625,-0.14383 121.4375,-0.14383 167.5,0 46.0625,0.14382 8.375,0.2615 -83.75,0.2615 -92.125,0 -129.8125,-0.11768 -83.75,-0.2615 z M 33.078947,452.41667 c 0.04798,-1.16495 0.284941,-1.4019 0.604167,-0.60417 0.288871,0.72187 0.253344,1.58438 -0.07895,1.91667 -0.332292,0.33229 -0.568641,-0.25834 -0.52522,-1.3125 z m 445.000003,0 c 0.048,-1.16495 0.28494,-1.4019 0.60416,-0.60417 0.28887,0.72187 0.25335,1.58438 -0.0789,1.91667 -0.33229,0.33229 -0.56864,-0.25834 -0.52522,-1.3125 z M 16.242792,381.82332 C 16.015,318.32779 15.891883,314.11839 14.25,313.68933 c -1.640089,-0.4286 -1.638118,-0.46461 0.03139,-0.57333 0.979761,-0.0638 1.996302,0.4465 2.258978,1.134 0.262676,0.6875 0.357809,31.4 0.211407,68.25 l -0.266187,67 -0.242791,-67.67668 z m 479.246648,-1.3097 c 0.009,-58.82289 0.19336,-66.99978 1.51056,-67.09629 0.84802,-0.0621 0.95973,0.0719 0.25701,0.30835 -0.97043,0.32655 -1.30165,15.03883 -1.51055,67.09629 l -0.26757,66.67803 0.0106,-66.98638 z M 128,444.62244 c 0,-0.20765 0.7875,-0.99515 1.75,-1.75 1.58606,-1.24387 1.62143,-1.2085 0.37756,0.37756 C 128.82119,444.91575 128,445.44548 128,444.62244 Z M 49.470887,377 c 0,-34.925 0.125371,-49.2125 0.278603,-31.75 0.153233,17.4625 0.153233,46.0375 0,63.5 -0.153232,17.4625 -0.278603,3.175 -0.278603,-31.75 z m 412.999783,-0.5 c 1.2e-4,-34.65 0.12563,-48.67998 0.27892,-31.17773 0.15328,17.50225 0.15319,45.85225 -2.2e-4,63 -0.1534,17.14775 -0.27882,2.82773 -0.2787,-31.82227 z M 117,432.62244 c 0,-0.20765 0.7875,-0.99515 1.75,-1.75 1.58606,-1.24387 1.62143,-1.2085 0.37756,0.37756 C 117.82119,432.91575 117,433.44548 117,432.62244 Z m 5.75,-3.28472 c 0.6875,-0.27741 1.8125,-0.27741 2.5,0 0.6875,0.27741 0.125,0.50439 -1.25,0.50439 -1.375,0 -1.9375,-0.22698 -1.25,-0.50439 z m 115.51903,-0.0307 c 0.97297,-0.25354 2.32297,-0.23687 3,0.0371 0.67703,0.27393 -0.11903,0.48137 -1.76903,0.46099 -1.65,-0.0204 -2.20394,-0.2445 -1.23097,-0.49804 z m 148.48097,0.0307 c 0.6875,-0.27741 1.8125,-0.27741 2.5,0 0.6875,0.27741 0.125,0.50439 -1.25,0.50439 -1.375,0 -1.9375,-0.22698 -1.25,-0.50439 z M 187.94617,420.25 184.5,416.5 l 3.75,3.44617 c 3.49042,3.20761 4.20979,4.05383 3.44617,4.05383 -0.16711,0 -1.85461,-1.6875 -3.75,-3.75 z M 323,420.5 c 1.86578,-1.925 3.61733,-3.5 3.89233,-3.5 0.275,0 -1.02655,1.575 -2.89233,3.5 -1.86578,1.925 -3.61733,3.5 -3.89233,3.5 -0.275,0 1.02655,-1.575 2.89233,-3.5 z m -203,-13 c 1.86578,-1.925 3.61733,-3.5 3.89233,-3.5 0.275,0 -1.02655,1.575 -2.89233,3.5 -1.86578,1.925 -3.61733,3.5 -3.89233,3.5 -0.275,0 1.02655,-1.575 2.89233,-3.5 z m 270.94617,-0.25 -3.44617,-3.75 3.75,3.44617 c 2.0625,1.89539 3.75,3.58289 3.75,3.75 0,0.76362 -0.84622,0.0442 -4.05383,-3.44617 z M 224.75,404.29427 c 1.2375,-0.23836 3.2625,-0.23836 4.5,0 1.2375,0.23835 0.225,0.43337 -2.25,0.43337 -2.475,0 -3.4875,-0.19502 -2.25,-0.43337 z m 58,0 c 1.2375,-0.23836 3.2625,-0.23836 4.5,0 1.2375,0.23835 0.225,0.43337 -2.25,0.43337 -2.475,0 -3.4875,-0.19502 -2.25,-0.43337 z m -125.67105,-10.8776 c 0.048,-1.16495 0.28494,-1.4019 0.60416,-0.60417 0.28887,0.72187 0.25335,1.58438 -0.0789,1.91667 -0.3323,0.33229 -0.56864,-0.25834 -0.52522,-1.3125 z m 197,0 c 0.048,-1.16495 0.28494,-1.4019 0.60416,-0.60417 0.28887,0.72187 0.25335,1.58438 -0.0789,1.91667 -0.33229,0.33229 -0.56864,-0.25834 -0.52522,-1.3125 z M 173.13618,386.75 c -0.13922,-2.81148 1.17917,-3.6668 2.45931,-1.59549 0.42527,0.6881 0.276,0.8841 -0.36949,0.48517 -0.62476,-0.38613 -1.2672,0.28896 -1.51832,1.59549 -0.37674,1.96006 -0.45364,1.89477 -0.5715,-0.48517 z m 165,0.44098 c -0.0906,-1.53568 -0.55483,-2.07265 -1.38618,-1.60329 -0.99237,0.56026 -0.9958,0.43159 -0.0167,-0.62432 1.61823,-1.74511 2.54006,-0.72237 1.98365,2.20077 l -0.44462,2.33586 -0.13618,-2.30902 z m -116.32368,0.12591 c 0.72187,-0.28887 1.58437,-0.25335 1.91667,0.0789 0.33229,0.33229 -0.25834,0.56864 -1.3125,0.52522 -1.16495,-0.048 -1.4019,-0.28494 -0.60417,-0.60416 z m 67,0 c 0.72187,-0.28887 1.58438,-0.25335 1.91667,0.0789 0.33229,0.33229 -0.25834,0.56864 -1.3125,0.52522 -1.16495,-0.048 -1.4019,-0.28494 -0.60417,-0.60416 z M 95,378.62244 c 0,-0.20765 0.7875,-0.99515 1.75,-1.75 1.586056,-1.24387 1.621426,-1.2085 0.377555,0.37756 C 95.821186,378.91575 95,379.44548 95,378.62244 Z M 414.87244,377.25 c -1.24387,-1.58606 -1.2085,-1.62143 0.37756,-0.37756 1.66575,1.30637 2.19548,2.12756 1.37244,2.12756 -0.20765,0 -0.99515,-0.7875 -1.75,-1.75 z M 82.078947,371.41667 c 0.04798,-1.16495 0.284941,-1.4019 0.604167,-0.60417 0.288871,0.72187 0.253344,1.58438 -0.07895,1.91667 -0.332292,0.33229 -0.568641,-0.25834 -0.52522,-1.3125 z m 347.000003,0 c 0.048,-1.16495 0.28494,-1.4019 0.60416,-0.60417 0.28887,0.72187 0.25335,1.58438 -0.0789,1.91667 -0.33229,0.33229 -0.56864,-0.25834 -0.52522,-1.3125 z M 84,366.62244 c 0,-0.20765 0.7875,-0.99515 1.75,-1.75 1.586056,-1.24387 1.621426,-1.2085 0.377555,0.37756 C 84.821186,366.91575 84,367.44548 84,366.62244 Z m 39.07895,-1.20577 c 0.048,-1.16495 0.28494,-1.4019 0.60416,-0.60417 0.28887,0.72187 0.25335,1.58438 -0.0789,1.91667 -0.3323,0.33229 -0.56864,-0.25834 -0.52522,-1.3125 z m 265,0 c 0.048,-1.16495 0.28494,-1.4019 0.60416,-0.60417 0.28887,0.72187 0.25335,1.58438 -0.0789,1.91667 -0.33229,0.33229 -0.56864,-0.25834 -0.52522,-1.3125 z M 425.87244,365.25 c -1.24387,-1.58606 -1.2085,-1.62143 0.37756,-0.37756 1.66575,1.30637 2.19548,2.12756 1.37244,2.12756 -0.20765,0 -0.99515,-0.7875 -1.75,-1.75 z M 89.75,363.33772 c 0.6875,-0.27741 1.8125,-0.27741 2.5,0 0.6875,0.27741 0.125,0.50439 -1.25,0.50439 -1.375,0 -1.9375,-0.22698 -1.25,-0.50439 z m 181.51903,-0.0307 c 0.97297,-0.25354 2.32297,-0.23687 3,0.0371 0.67703,0.27393 -0.11903,0.48137 -1.76903,0.46099 -1.65,-0.0204 -2.20394,-0.2445 -1.23097,-0.49804 z m 148.48097,0.0307 c 0.6875,-0.27741 1.8125,-0.27741 2.5,0 0.6875,0.27741 0.125,0.50439 -1.25,0.50439 -1.375,0 -1.9375,-0.22698 -1.25,-0.50439 z M 140.34281,354.5 c 0.004,-4.4 0.17944,-6.07561 0.39069,-3.72357 0.21124,2.35204 0.20827,5.95204 -0.007,8 -0.21487,2.04796 -0.38771,0.12357 -0.38408,-4.27643 z m 33.07433,6.14467 c -0.28605,-0.74543 -0.37842,-4.23293 -0.20527,-7.75 l 0.31481,-6.39467 0.48666,7.75233 c 0.48701,7.75783 0.37766,8.93018 -0.5962,6.39234 z m 164.5727,-6.4399 0.48984,-7.70477 0.30929,6.90087 c 0.17011,3.79548 -0.0503,7.26263 -0.48984,7.70477 -0.43952,0.44215 -0.5787,-2.66324 -0.30929,-6.90087 z M 371.34281,354.5 c 0.004,-4.4 0.17944,-6.07561 0.39069,-3.72357 0.21124,2.35204 0.20827,5.95204 -0.007,8 -0.21487,2.04796 -0.38771,0.12357 -0.38408,-4.27643 z M 160.75,330.25006 c 52.3875,-0.14309 138.1125,-0.14309 190.5,0 52.3875,0.14309 9.525,0.26016 -95.25,0.26016 -104.775,0 -147.6375,-0.11707 -95.25,-0.26016 z M 506.5,309 c 0.99549,-1.1 2.03498,-2 2.30998,-2 0.275,0 -0.31449,0.9 -1.30998,2 -0.99549,1.1 -2.03498,2 -2.30998,2 -0.275,0 0.31449,-0.9 1.30998,-2 z M 3.8724447,308.25 C 2.6285741,306.66394 2.6639444,306.62857 4.25,307.87244 c 0.9625,0.75485 1.75,1.54235 1.75,1.75 0,0.82304 -0.8211855,0.29331 -2.1275553,-1.37244 z M 148.18725,247.27761 c 8.56065,-0.34849 8.69391,-0.39317 9.14474,-3.06563 0.42301,-2.50756 0.44659,-2.48585 0.31275,0.28802 l -0.14474,3 -9,0.0656 -9,0.0656 8.68725,-0.35365 z m 206.19679,-0.7192 c -0.30425,-0.79287 -0.34233,-2.25537 -0.0846,-3.25 0.31087,-1.19981 0.50761,-0.89603 0.58457,0.90266 0.11578,2.70582 0.13294,2.71171 8.866,3.04436 l 8.75,0.3333 -8.78138,0.20563 c -6.86368,0.16073 -8.9022,-0.10918 -9.33458,-1.23595 z M 139.19495,241.5 c 0.0204,-1.65 0.2445,-2.20394 0.49804,-1.23097 0.25354,0.97297 0.23687,2.32297 -0.0371,3 -0.27393,0.67703 -0.48137,-0.11903 -0.46099,-1.76903 z m 233,0 c 0.0204,-1.65 0.2445,-2.20394 0.49804,-1.23097 0.25354,0.97297 0.23687,2.32297 -0.0371,3 -0.27393,0.67703 -0.48137,-0.11903 -0.46099,-1.76903 z m -198.116,-1.08333 c 0.048,-1.16495 0.28494,-1.4019 0.60416,-0.60417 0.28887,0.72187 0.25335,1.58437 -0.0789,1.91667 -0.3323,0.33229 -0.56864,-0.25834 -0.52522,-1.3125 z m 163,0 c 0.048,-1.16495 0.28494,-1.4019 0.60416,-0.60417 0.28887,0.72187 0.25335,1.58437 -0.0789,1.91667 -0.33229,0.33229 -0.56864,-0.25834 -0.52522,-1.3125 z m -179,-5 c 0.048,-1.16495 0.28494,-1.4019 0.60416,-0.60417 0.28887,0.72187 0.25335,1.58437 -0.0789,1.91667 -0.3323,0.33229 -0.56864,-0.25834 -0.52522,-1.3125 z m 195,0 c 0.048,-1.16495 0.28494,-1.4019 0.60416,-0.60417 0.28887,0.72187 0.25335,1.58437 -0.0789,1.91667 -0.33229,0.33229 -0.56864,-0.25834 -0.52522,-1.3125 z m 20,-2 c 0.048,-1.16495 0.28494,-1.4019 0.60416,-0.60417 0.28887,0.72187 0.25335,1.58437 -0.0789,1.91667 -0.33229,0.33229 -0.56864,-0.25834 -0.52522,-1.3125 z M 217,220.68709 c 0,-0.1721 1.4625,-1.6346 3.25,-3.25 l 3.25,-2.93709 -2.93709,3.25 C 217.82513,220.77946 217,221.45965 217,220.68709 Z M 291.43709,217.75 288.5,214.5 l 3.25,2.93709 c 3.02946,2.73778 3.70965,3.56291 2.93709,3.56291 -0.1721,0 -1.6346,-1.4625 -3.25,-3.25 z M 105,214.4328 c 3.40839,-0.76167 11,-0.8928 11,-0.19001 0,0.41647 -2.8125,0.70501 -6.25,0.64121 -3.4375,-0.0638 -5.575,-0.26684 -4.75,-0.4512 z m 78.75,-0.1562 c 1.7875,-0.22182 4.7125,-0.22182 6.5,0 1.7875,0.22183 0.325,0.40333 -3.25,0.40333 -3.575,0 -5.0375,-0.1815 -3.25,-0.40333 z m 138,0 c 1.7875,-0.22182 4.7125,-0.22182 6.5,0 1.7875,0.22183 0.325,0.40333 -3.25,0.40333 -3.575,0 -5.0375,-0.1815 -3.25,-0.40333 z M 396,214.2428 c 0,-0.41646 2.1375,-0.6195 4.75,-0.4512 7.59898,0.48954 8.25464,0.96704 1.5,1.09241 -3.4375,0.0638 -6.25,-0.22474 -6.25,-0.64121 z m -230.43571,-6.53592 c 0.37553,-0.98622 0.93469,-1.54122 1.24258,-1.23333 0.30789,0.30789 6.4e-4,1.11479 -0.68278,1.79313 -0.98762,0.98026 -1.10248,0.8654 -0.5598,-0.5598 z m 179.89459,0.2266 c -0.36253,-0.58659 -0.44468,-1.281 -0.18255,-1.54313 0.26212,-0.26213 0.74306,0.21781 1.06875,1.06653 0.67618,1.76211 0.0999,2.07206 -0.8862,0.4766 z M 302.87244,206.25 c -1.24387,-1.58606 -1.2085,-1.62143 0.37756,-0.37756 1.66575,1.30637 2.19548,2.12756 1.37244,2.12756 -0.20765,0 -0.99515,-0.7875 -1.75,-1.75 z m -240.999995,-23 c -1.243871,-1.58606 -1.208501,-1.62143 0.377555,-0.37756 0.9625,0.75485 1.75,1.54235 1.75,1.75 0,0.82304 -0.821186,0.29331 -2.127555,-1.37244 z M 448,184.62244 c 0,-0.20765 0.7875,-0.99515 1.75,-1.75 1.58606,-1.24387 1.62143,-1.2085 0.37756,0.37756 C 448.82119,184.91575 448,185.44548 448,184.62244 Z M 94.872445,180.25 c -1.243871,-1.58606 -1.208501,-1.62143 0.377555,-0.37756 0.9625,0.75485 1.75,1.54235 1.75,1.75 0,0.82304 -0.821186,0.29331 -2.127555,-1.37244 z M 415,181.62244 c 0,-0.20765 0.7875,-0.99515 1.75,-1.75 1.58606,-1.24387 1.62143,-1.2085 0.37756,0.37756 C 415.82119,181.91575 415,182.44548 415,181.62244 Z M 207,174.5 c 2.98742,-3.025 5.65668,-5.5 5.93168,-5.5 0.275,0 -1.94426,2.475 -4.93168,5.5 -2.98742,3.025 -5.65668,5.5 -5.93168,5.5 -0.275,0 1.94426,-2.475 4.93168,-5.5 z m 96.96584,-0.25 -5.46584,-5.75 5.75,5.46584 c 5.34193,5.07794 6.20809,6.03416 5.46584,6.03416 -0.15629,0 -2.74379,-2.5875 -5.75,-5.75 z m -194.0934,-2 c -1.24387,-1.58606 -1.2085,-1.62143 0.37756,-0.37756 0.9625,0.75485 1.75,1.54235 1.75,1.75 0,0.82304 -0.82119,0.29331 -2.12756,-1.37244 z M 400,173.62244 c 0,-0.20765 0.7875,-0.99515 1.75,-1.75 1.58606,-1.24387 1.62143,-1.2085 0.37756,0.37756 C 400.82119,173.91575 400,174.44548 400,173.62244 Z m -213,-2 c 0,-0.20765 0.7875,-0.99515 1.75,-1.75 1.58606,-1.24387 1.62143,-1.2085 0.37756,0.37756 C 187.82119,171.91575 187,172.44548 187,171.62244 Z M 322.87244,170.25 c -1.24387,-1.58606 -1.2085,-1.62143 0.37756,-0.37756 0.9625,0.75485 1.75,1.54235 1.75,1.75 0,0.82304 -0.82119,0.29331 -2.12756,-1.37244 z M 83.404988,168.75 81.5,166.5 l 2.25,1.90499 C 85.864445,170.19521 86.455241,171 85.654988,171 c -0.189757,0 -1.202257,-1.0125 -2.25,-2.25 z M 427.5,169 c 0.99549,-1.1 2.03498,-2 2.30998,-2 0.275,0 -0.31449,0.9 -1.30998,2 -0.99549,1.1 -2.03498,2 -2.30998,2 -0.275,0 0.31449,-0.9 1.30998,-2 z M 101.45295,162.75 97.5,158.5 l 4.25,3.95295 c 3.95246,3.6762 4.70953,4.54705 3.95295,4.54705 -0.16338,0 -2.07588,-1.9125 -4.25,-4.25 z M 409.5,163 c 2.14824,-2.2 4.1309,-4 4.4059,-4 0.275,0 -1.25766,1.8 -3.4059,4 -2.14824,2.2 -4.1309,4 -4.4059,4 -0.275,0 1.25766,-1.8 3.4059,-4 z m -191.60914,1.7938 c 0.70473,-0.9384 0.95156,-2.2884 0.54853,-3 -0.59012,-1.04189 -0.4692,-1.04903 0.62105,-0.0367 1.13102,1.05023 1.04074,1.544 -0.54853,3 -1.71278,1.56917 -1.77468,1.57282 -0.62105,0.0367 z m 75.07397,-0.33618 c -1.04128,-1.25466 -1.03675,-1.76766 0.0243,-2.75 1.02652,-0.95042 1.14824,-0.93206 0.57152,0.0862 -0.40303,0.7116 -0.18895,1.9491 0.47574,2.75 0.6647,0.80091 0.98354,1.4562 0.70854,1.4562 -0.275,0 -1.07603,-0.69407 -1.78006,-1.54238 z M 33.078947,162.41667 c 0.04798,-1.16495 0.284941,-1.4019 0.604167,-0.60417 0.288871,0.72187 0.253344,1.58437 -0.07895,1.91667 -0.332292,0.33229 -0.568641,-0.25834 -0.52522,-1.3125 z m 83.379933,0.5168 c -0.36253,-0.58659 -0.44468,-1.281 -0.18255,-1.54313 0.26212,-0.26213 0.74306,0.21781 1.06875,1.06653 0.67618,1.76211 0.0999,2.07206 -0.8862,0.4766 z M 144.45295,159.75 140.5,155.5 l 4.25,3.95295 c 3.95246,3.6762 4.70953,4.54705 3.95295,4.54705 -0.16338,0 -2.07588,-1.9125 -4.25,-4.25 z M 366.5,160 c 2.14824,-2.2 4.1309,-4 4.4059,-4 0.275,0 -1.25766,1.8 -3.4059,4 -2.14824,2.2 -4.1309,4 -4.4059,4 -0.275,0 1.25766,-1.8 3.4059,-4 z m 28.06429,2.70687 c 0.37553,-0.98622 0.93469,-1.54122 1.24258,-1.23333 0.30789,0.30789 6.4e-4,1.11479 -0.68278,1.79313 -0.98762,0.98026 -1.10248,0.8654 -0.5598,-0.5598 z m 83.51466,-0.2902 c 0.048,-1.16495 0.28494,-1.4019 0.60416,-0.60417 0.28887,0.72187 0.25335,1.58437 -0.0789,1.91667 -0.33229,0.33229 -0.56864,-0.25834 -0.52522,-1.3125 z M 78,161.62244 c 0,-0.20765 0.7875,-0.99515 1.75,-1.75 1.586056,-1.24387 1.621426,-1.2085 0.377555,0.37756 C 78.821186,161.91575 78,162.44548 78,161.62244 Z M 152,159.5 c 1.29175,-1.375 2.57363,-2.5 2.84863,-2.5 0.275,0 -0.55688,1.125 -1.84863,2.5 -1.29175,1.375 -2.57363,2.5 -2.84863,2.5 -0.275,0 0.55688,-1.125 1.84863,-2.5 z m 95.27236,-1.5 c 0,-2.475 0.19502,-3.4875 0.43337,-2.25 0.23836,1.2375 0.23836,3.2625 0,4.5 -0.23835,1.2375 -0.43337,0.225 -0.43337,-2.25 z m 111.65195,1.25 -2.42431,-2.75 2.75,2.42431 c 2.57029,2.26589 3.20859,3.07569 2.42431,3.07569 -0.17912,0 -1.41662,-1.2375 -2.75,-2.75 z m 72.94813,1 c -1.24387,-1.58606 -1.2085,-1.62143 0.37756,-0.37756 0.9625,0.75485 1.75,1.54235 1.75,1.75 0,0.82304 -0.82119,0.29331 -2.12756,-1.37244 z M 27.462408,154.75 22.5,149.5 l 5.25,4.96241 c 2.8875,2.72932 5.25,5.09182 5.25,5.25 0,0.74619 -0.926434,-0.084 -5.537592,-4.96241 z m 21.697629,2.27691 c -0.128558,-2.78995 -1.387448,-4.75693 -6.400133,-10 L 36.519809,140.5 l 6.815765,6.58493 c 6.223006,6.01224 6.779619,6.88193 6.400133,10 L 49.320074,160.5 Z m 413.000003,-0.0558 c -0.14217,-3.13494 0.5935,-4.25129 6.58996,-10 L 475.5,140.5 469.31338,147 c -4.65352,4.88924 -6.28657,7.36733 -6.58996,10 l -0.40335,3.5 z M 483.5,155 c 2.70865,-2.75 5.14982,-5 5.42482,-5 0.275,0 -1.71617,2.25 -4.42482,5 -2.70865,2.75 -5.14982,5 -5.42482,5 -0.275,0 1.71617,-2.25 4.42482,-5 z m -269.62756,1.25 c -1.24387,-1.58606 -1.2085,-1.62143 0.37756,-0.37756 0.9625,0.75485 1.75,1.54235 1.75,1.75 0,0.82304 -0.82119,0.29331 -2.12756,-1.37244 z M 296,157.62244 c 0,-0.20765 0.7875,-0.99515 1.75,-1.75 1.58606,-1.24387 1.62143,-1.2085 0.37756,0.37756 C 296.82119,157.91575 296,158.44548 296,157.62244 Z m -94,-1 c 0,-0.20765 0.7875,-0.99515 1.75,-1.75 1.58606,-1.24387 1.62143,-1.2085 0.37756,0.37756 C 202.82119,156.91575 202,157.44548 202,156.62244 Z M 307.87244,155.25 c -1.24387,-1.58606 -1.2085,-1.62143 0.37756,-0.37756 0.9625,0.75485 1.75,1.54235 1.75,1.75 0,0.82304 -0.82119,0.29331 -2.12756,-1.37244 z M 83,155.62244 c 0,-0.20765 0.7875,-0.99515 1.75,-1.75 1.586056,-1.24387 1.621426,-1.2085 0.377555,0.37756 C 83.821186,155.91575 83,156.44548 83,155.62244 Z M 426.87244,154.25 c -1.24387,-1.58606 -1.2085,-1.62143 0.37756,-0.37756 0.9625,0.75485 1.75,1.54235 1.75,1.75 0,0.82304 -0.82119,0.29331 -2.12756,-1.37244 z m -335.999995,-1 c -1.243871,-1.58606 -1.208501,-1.62143 0.377555,-0.37756 0.9625,0.75485 1.75,1.54235 1.75,1.75 0,0.82304 -0.821186,0.29331 -2.127555,-1.37244 z M 419,154.62244 c 0,-0.20765 0.7875,-0.99515 1.75,-1.75 1.58606,-1.24387 1.62143,-1.2085 0.37756,0.37756 C 419.82119,154.91575 419,155.44548 419,154.62244 Z M 254.5,146 c 3.8205,-3.85 7.17136,-7 7.44636,-7 0.275,0 -2.62586,3.15 -6.44636,7 -3.8205,3.85 -7.17136,7 -7.44636,7 -0.275,0 2.62586,-3.15 6.44636,-7 z m -119.42105,3.41667 c 0.048,-1.16495 0.28494,-1.4019 0.60416,-0.60417 0.28887,0.72187 0.25335,1.58437 -0.0789,1.91667 -0.3323,0.33229 -0.56864,-0.25834 -0.52522,-1.3125 z m 241,0 c 0.048,-1.16495 0.28494,-1.4019 0.60416,-0.60417 0.28887,0.72187 0.25335,1.58437 -0.0789,1.91667 -0.33229,0.33229 -0.56864,-0.25834 -0.52522,-1.3125 z M 190,142.5 c 1.86578,-1.925 3.61733,-3.5 3.89233,-3.5 0.275,0 -1.02655,1.575 -2.89233,3.5 -1.86578,1.925 -3.61733,3.5 -3.89233,3.5 -0.275,0 1.02655,-1.575 2.89233,-3.5 z m 130.94617,-0.25 -3.44617,-3.75 3.75,3.44617 c 2.0625,1.89539 3.75,3.58289 3.75,3.75 0,0.76362 -0.84622,0.0443 -4.05383,-3.44617 z m -188.86722,-6.83333 c 0.048,-1.16495 0.28494,-1.4019 0.60416,-0.60417 0.28887,0.72187 0.25335,1.58437 -0.0789,1.91667 -0.3323,0.33229 -0.56864,-0.25834 -0.52522,-1.3125 z M 280.15789,135 c 0,-1.375 0.22698,-1.9375 0.50439,-1.25 0.27741,0.6875 0.27741,1.8125 0,2.5 -0.27741,0.6875 -0.50439,0.125 -0.50439,-1.25 z m 98.92106,0.41667 c 0.048,-1.16495 0.28494,-1.4019 0.60416,-0.60417 0.28887,0.72187 0.25335,1.58437 -0.0789,1.91667 -0.33229,0.33229 -0.56864,-0.25834 -0.52522,-1.3125 z M 85.75,132.33772 c 0.6875,-0.27741 1.8125,-0.27741 2.5,0 0.6875,0.27741 0.125,0.50439 -1.25,0.50439 -1.375,0 -1.9375,-0.22698 -1.25,-0.50439 z m 78.32895,-0.92105 c 0.048,-1.16495 0.28494,-1.4019 0.60416,-0.60417 0.28887,0.72187 0.25335,1.58437 -0.0789,1.91667 -0.3323,0.33229 -0.56864,-0.25834 -0.52522,-1.3125 z m 45.73355,0.90022 c 0.72187,-0.28887 1.58437,-0.25335 1.91667,0.0789 0.33229,0.33229 -0.25834,0.56864 -1.3125,0.52522 -1.16495,-0.048 -1.4019,-0.28494 -0.60417,-0.60416 z m 91,0 c 0.72187,-0.28887 1.58438,-0.25335 1.91667,0.0789 0.33229,0.33229 -0.25834,0.56864 -1.3125,0.52522 -1.16495,-0.048 -1.4019,-0.28494 -0.60417,-0.60416 z m 46.26645,-0.90022 c 0.048,-1.16495 0.28494,-1.4019 0.60416,-0.60417 0.28887,0.72187 0.25335,1.58437 -0.0789,1.91667 -0.33229,0.33229 -0.56864,-0.25834 -0.52522,-1.3125 z m 76.67105,0.92105 c 0.6875,-0.27741 1.8125,-0.27741 2.5,0 0.6875,0.27741 0.125,0.50439 -1.25,0.50439 -1.375,0 -1.9375,-0.22698 -1.25,-0.50439 z M 16.078947,130.41667 c 0.04798,-1.16495 0.284941,-1.4019 0.604167,-0.60417 0.288871,0.72187 0.253344,1.58437 -0.07895,1.91667 -0.332292,0.33229 -0.568641,-0.25834 -0.52522,-1.3125 z m 479.000003,0 c 0.048,-1.16495 0.28494,-1.4019 0.60416,-0.60417 0.28887,0.72187 0.25335,1.58437 -0.0789,1.91667 -0.33229,0.33229 -0.56864,-0.25834 -0.52522,-1.3125 z m -215,-3 c 0.048,-1.16495 0.28494,-1.4019 0.60416,-0.60417 0.28887,0.72187 0.25335,1.58437 -0.0789,1.91667 -0.33229,0.33229 -0.56864,-0.25834 -0.52522,-1.3125 z m -100,-1 c 0.048,-1.16495 0.28494,-1.4019 0.60416,-0.60417 0.28887,0.72187 0.25335,1.58438 -0.0789,1.91667 -0.3323,0.33229 -0.56864,-0.25834 -0.52522,-1.3125 z M 182,127.62244 c 0,-0.20765 0.7875,-0.99515 1.75,-1.75 1.58606,-1.24387 1.62143,-1.2085 0.37756,0.37756 C 182.82119,127.91575 182,128.44548 182,127.62244 Z M 327.87244,126.25 c -1.24387,-1.58606 -1.2085,-1.62143 0.37756,-0.37756 1.66575,1.30637 2.19548,2.12756 1.37244,2.12756 -0.20765,0 -0.99515,-0.7875 -1.75,-1.75 z m 3.20651,0.16667 c 0.048,-1.16495 0.28494,-1.4019 0.60416,-0.60417 0.28887,0.72187 0.25335,1.58438 -0.0789,1.91667 -0.33229,0.33229 -0.56864,-0.25834 -0.52522,-1.3125 z m -219.57187,-1.40522 c -0.35034,-0.56686 0.0511,-0.7345 0.94098,-0.39301 1.73242,0.66479 2.04939,1.38156 0.61096,1.38156 -0.51754,0 -1.21592,-0.44485 -1.55194,-0.98855 z M 398,125.60699 c 0,-0.21616 0.69837,-0.661 1.55194,-0.98855 0.88992,-0.34149 1.29132,-0.17385 0.94098,0.39301 C 399.90566,125.96166 398,126.4169 398,125.60699 Z M 280,123 c -0.90129,-0.58246 -1.02463,-0.97549 -0.30902,-0.98469 0.65504,-0.008 1.4691,0.43469 1.80902,0.98469 0.7673,1.24153 0.42112,1.24153 -1.5,0 z m -150.92105,-1.58333 c 0.048,-1.16495 0.28494,-1.4019 0.60416,-0.60417 0.28887,0.72187 0.25335,1.58437 -0.0789,1.91667 -0.3323,0.33229 -0.56864,-0.25834 -0.52522,-1.3125 z m 253,0 c 0.048,-1.16495 0.28494,-1.4019 0.60416,-0.60417 0.28887,0.72187 0.25335,1.58437 -0.0789,1.91667 -0.33229,0.33229 -0.56864,-0.25834 -0.52522,-1.3125 z m 17,0 c 0.048,-1.16495 0.28494,-1.4019 0.60416,-0.60417 0.28887,0.72187 0.25335,1.58437 -0.0789,1.91667 -0.33229,0.33229 -0.56864,-0.25834 -0.52522,-1.3125 z M 178,119.05902 c 0,-0.51754 0.44485,-1.21592 0.98855,-1.55194 0.56686,-0.35034 0.7345,0.0511 0.39301,0.94098 C 178.71677,120.18048 178,120.49745 178,119.05902 Z m 154.56429,-0.76589 c -0.54268,-1.4252 -0.42782,-1.54006 0.5598,-0.5598 0.68342,0.67834 0.99067,1.48524 0.68278,1.79313 -0.30789,0.30789 -0.86705,-0.24711 -1.24258,-1.23333 z M 47.75,115.33772 c 0.6875,-0.27741 1.8125,-0.27741 2.5,0 0.6875,0.27741 0.125,0.50439 -1.25,0.50439 -1.375,0 -1.9375,-0.22698 -1.25,-0.50439 z M 210,115.61663 c 0,-0.21085 0.90062,-0.61888 2.00138,-0.90674 1.10076,-0.28785 1.7492,-0.11534 1.44098,0.38337 C 212.90411,115.96417 210,116.4057 210,115.61663 Z m 36.75,-0.27891 c 0.6875,-0.27741 1.8125,-0.27741 2.5,0 0.6875,0.27741 0.125,0.50439 -1.25,0.50439 -1.375,0 -1.9375,-0.22698 -1.25,-0.50439 z m 51.80764,-0.24446 c -0.30822,-0.49871 0.34022,-0.67122 1.44098,-0.38337 2.33499,0.61061 2.63015,1.29011 0.5604,1.29011 -0.79254,0 -1.69316,-0.40803 -2.00138,-0.90674 z M 461.75,115.33772 c 0.6875,-0.27741 1.8125,-0.27741 2.5,0 0.6875,0.27741 0.125,0.50439 -1.25,0.50439 -1.375,0 -1.9375,-0.22698 -1.25,-0.50439 z M 181,114.62244 c 0,-0.20765 0.7875,-0.99515 1.75,-1.75 1.58606,-1.24387 1.62143,-1.2085 0.37756,0.37756 C 181.82119,114.91575 181,115.44548 181,114.62244 Z M 328.87244,113.25 c -1.24387,-1.58606 -1.2085,-1.62143 0.37756,-0.37756 0.9625,0.75485 1.75,1.54235 1.75,1.75 0,0.82304 -0.82119,0.29331 -2.12756,-1.37244 z M 74.404988,107.75 72.5,105.5 l 2.25,1.90499 C 76.864445,109.19521 77.455241,110 76.654988,110 c -0.189757,0 -1.202257,-1.0125 -2.25,-2.25 z M 185,109.62244 c 0,-0.20765 0.7875,-0.99515 1.75,-1.75 1.58606,-1.24387 1.62143,-1.2085 0.37756,0.37756 C 185.82119,109.91575 185,110.44548 185,109.62244 Z M 324.87244,108.25 c -1.24387,-1.58606 -1.2085,-1.62143 0.37756,-0.37756 1.66575,1.30637 2.19548,2.12756 1.37244,2.12756 -0.20765,0 -0.99515,-0.7875 -1.75,-1.75 z M 436.5,108 c 0.99549,-1.1 2.03498,-2 2.30998,-2 0.275,0 -0.31449,0.9 -1.30998,2 -0.99549,1.1 -2.03498,2 -2.30998,2 -0.275,0 0.31449,-0.9 1.30998,-2 z m -310.42105,-0.58333 c 0.048,-1.16495 0.28494,-1.4019 0.60416,-0.60417 0.28887,0.72187 0.25335,1.58437 -0.0789,1.91667 -0.3323,0.33229 -0.56864,-0.25834 -0.52522,-1.3125 z m 259,0 c 0.048,-1.16495 0.28494,-1.4019 0.60416,-0.60417 0.28887,0.72187 0.25335,1.58437 -0.0789,1.91667 -0.33229,0.33229 -0.56864,-0.25834 -0.52522,-1.3125 z m 17,0 c 0.048,-1.16495 0.28494,-1.4019 0.60416,-0.60417 0.28887,0.72187 0.25335,1.58437 -0.0789,1.91667 -0.33229,0.33229 -0.56864,-0.25834 -0.52522,-1.3125 z m -251.44883,-2.28085 c -2.43234,-2.53882 -2.7018,-3.476 -2.37207,-8.250003 L 148.63004,91.5 l 0.18498,5.445281 c 0.14946,4.399549 0.70102,5.983909 2.87207,8.249999 1.4779,1.5426 2.46209,2.80472 2.18709,2.80472 -0.275,0 -1.73483,-1.28888 -3.24406,-2.86418 z M 360.19199,105.5 c 2.07288,-2.31005 2.77778,-4.2649 3.06502,-8.5 l 0.37303,-5.5 0.18498,5.562909 c 0.17006,5.114111 -0.0772,5.799861 -3.06502,8.500001 L 357.5,108.5 Z M 189,104.62244 c 0,-0.20765 0.7875,-0.99515 1.75,-1.75 1.58606,-1.24387 1.62143,-1.2085 0.37756,0.37756 C 189.82119,104.91575 189,105.44548 189,104.62244 Z M 320.87244,103.25 c -1.24387,-1.58606 -1.2085,-1.62143 0.37756,-0.37756 0.9625,0.75485 1.75,1.54235 1.75,1.75 0,0.82304 -0.82119,0.29331 -2.12756,-1.37244 z M 169.08333,101.71703 C 169.3125,101.5614 170.4,100.7739 171.5,99.967032 c 1.85001,-1.357009 1.89707,-1.335787 0.62756,0.282968 -0.75485,0.9625 -1.84235,1.75 -2.41667,1.75 -0.57432,0 -0.85672,-0.12734 -0.62756,-0.28297 z M 339.87244,100.25 c -1.26951,-1.618755 -1.22245,-1.639977 0.62756,-0.282968 1.1,0.806868 2.1875,1.594368 2.41667,1.749998 0.22916,0.15563 -0.0532,0.28297 -0.62756,0.28297 -0.57432,0 -1.66182,-0.7875 -2.41667,-1.75 z m -173,-2 c -1.24387,-1.586056 -1.2085,-1.621426 0.37756,-0.377555 1.66575,1.306369 2.19548,2.127555 1.37244,2.127555 -0.20765,0 -0.99515,-0.7875 -1.75,-1.75 z M 193,99.622445 c 0,-0.207656 0.7875,-0.995156 1.75,-1.75 1.58606,-1.243871 1.62143,-1.208501 0.37756,0.377555 C 193.82119,99.915748 193,100.44548 193,99.622445 Z m 58.8125,-0.305559 c 0.72187,-0.288871 1.58437,-0.253344 1.91667,0.07895 0.33229,0.332292 -0.25834,0.568641 -1.3125,0.52522 -1.16495,-0.04798 -1.4019,-0.284941 -0.60417,-0.604167 z m 7,0 c 0.72187,-0.288871 1.58438,-0.253344 1.91667,0.07895 0.33229,0.332292 -0.25834,0.568641 -1.3125,0.52522 -1.16495,-0.04798 -1.4019,-0.284941 -0.60417,-0.604167 z M 316.87244,98.25 c -1.24387,-1.586056 -1.2085,-1.621426 0.37756,-0.377555 1.66575,1.306369 2.19548,2.127555 1.37244,2.127555 -0.20765,0 -0.99515,-0.7875 -1.75,-1.75 z M 343,99.622445 c 0,-0.207656 0.7875,-0.995156 1.75,-1.75 1.58606,-1.243871 1.62143,-1.208501 0.37756,0.377555 C 343.82119,99.915748 343,100.44548 343,99.622445 Z m 124.8125,-0.305559 c 0.72187,-0.288871 1.58438,-0.253344 1.91667,0.07895 0.33229,0.332292 -0.25834,0.568641 -1.3125,0.52522 -1.16495,-0.04798 -1.4019,-0.284941 -0.60417,-0.604167 z M 247.25218,95.5 c 0.0111,-2.2 0.21589,-2.982253 0.45508,-1.738341 0.23919,1.243913 0.23011,3.043913 -0.0202,4 -0.25029,0.956088 -0.446,-0.06166 -0.4349,-2.261659 z m 17,0 c 0.0111,-2.2 0.21589,-2.982253 0.45508,-1.738341 0.23919,1.243913 0.23011,3.043913 -0.0202,4 C 264.43679,98.717747 264.24108,97.7 264.25218,95.5 Z M 174,96.622445 c 0,-0.207656 0.7875,-0.995156 1.75,-1.75 1.58606,-1.243871 1.62143,-1.208501 0.37756,0.377555 C 174.82119,96.915748 174,97.445479 174,96.622445 Z M 335.87244,95.25 C 334.62857,93.663944 334.66394,93.628574 336.25,94.872445 337.91575,96.178814 338.44548,97 337.62244,97 c -0.20765,0 -0.99515,-0.7875 -1.75,-1.75 z M 106.07895,93.416667 c 0.048,-1.164943 0.28494,-1.4019 0.60416,-0.604167 0.28887,0.721875 0.25335,1.584375 -0.0789,1.916667 -0.3323,0.332291 -0.56864,-0.258334 -0.52522,-1.3125 z m 17,0 c 0.048,-1.164943 0.28494,-1.4019 0.60416,-0.604167 0.28887,0.721875 0.25335,1.584375 -0.0789,1.916667 -0.3323,0.332291 -0.56864,-0.258334 -0.52522,-1.3125 z M 192.87244,93.25 C 191.62857,91.663944 191.66394,91.628574 193.25,92.872445 194.91575,94.178814 195.44548,95 194.62244,95 c -0.20765,0 -0.99515,-0.7875 -1.75,-1.75 z M 317,94.622445 c 0,-0.207656 0.7875,-0.995156 1.75,-1.75 1.58606,-1.243871 1.62143,-1.208501 0.37756,0.377555 C 317.82119,94.915748 317,95.445479 317,94.622445 Z m 71.07895,-1.205778 c 0.048,-1.164943 0.28494,-1.4019 0.60416,-0.604167 0.28887,0.721875 0.25335,1.584375 -0.0789,1.916667 -0.33229,0.332291 -0.56864,-0.258334 -0.52522,-1.3125 z m -322.000003,-3 c 0.04798,-1.164943 0.284941,-1.4019 0.604167,-0.604167 0.288871,0.721875 0.253344,1.584375 -0.07895,1.916667 -0.332292,0.332291 -0.568641,-0.258334 -0.52522,-1.3125 z M 178,91.622445 c 0,-0.207656 0.7875,-0.995156 1.75,-1.75 1.58606,-1.243871 1.62143,-1.208501 0.37756,0.377555 C 178.82119,91.915748 178,92.445479 178,91.622445 Z M 331.87244,90.25 C 330.62857,88.663944 330.66394,88.628574 332.25,89.872445 333.91575,91.178814 334.44548,92 333.62244,92 c -0.20765,0 -0.99515,-0.7875 -1.75,-1.75 z m 113.20651,0.166667 c 0.048,-1.164943 0.28494,-1.4019 0.60416,-0.604167 0.28887,0.721875 0.25335,1.584375 -0.0789,1.916667 -0.33229,0.332291 -0.56864,-0.258334 -0.52522,-1.3125 z m -429.000003,-1 c 0.04798,-1.164943 0.284941,-1.4019 0.604167,-0.604167 0.288871,0.721875 0.253344,1.584375 -0.07895,1.916667 -0.332292,0.332291 -0.568641,-0.258334 -0.52522,-1.3125 z M 49.299664,86 c 0,-3.025 0.187466,-4.2625 0.41659,-2.75 0.229125,1.5125 0.229125,3.9875 0,5.5 -0.229124,1.5125 -0.41659,0.275 -0.41659,-2.75 z M 187.87244,89.25 C 186.62857,87.663944 186.66394,87.628574 188.25,88.872445 189.91575,90.178814 190.44548,91 189.62244,91 c -0.20765,0 -0.99515,-0.7875 -1.75,-1.75 z M 322,90.622445 c 0,-0.207656 0.7875,-0.995156 1.75,-1.75 1.58606,-1.243871 1.62143,-1.208501 0.37756,0.377555 C 322.82119,90.915748 322,91.445479 322,90.622445 Z M 462.28601,86.5 c 0.008,-2.75 0.20172,-3.756313 0.43157,-2.23625 0.22986,1.520062 0.22371,3.770062 -0.0136,5 C 462.46657,90.493687 462.27851,89.25 462.28601,86.5 Z m 32.79294,2.916667 c 0.048,-1.164943 0.28494,-1.4019 0.60416,-0.604167 0.28887,0.721875 0.25335,1.584375 -0.0789,1.916667 -0.33229,0.332291 -0.56864,-0.258334 -0.52522,-1.3125 z M 164.15789,88 c 0,-1.375 0.22698,-1.9375 0.50439,-1.25 0.27741,0.6875 0.27741,1.8125 0,2.5 -0.27741,0.6875 -0.50439,0.125 -0.50439,-1.25 z m 183,0 c 0,-1.375 0.22698,-1.9375 0.50439,-1.25 0.27741,0.6875 0.27741,1.8125 0,2.5 -0.27741,0.6875 -0.50439,0.125 -0.50439,-1.25 z M 33.078947,86.416667 c 0.04798,-1.164943 0.284941,-1.4019 0.604167,-0.604167 0.288871,0.721875 0.253344,1.584375 -0.07895,1.916667 -0.332292,0.332291 -0.568641,-0.258334 -0.52522,-1.3125 z m 114.000003,0 c 0.048,-1.164943 0.28494,-1.4019 0.60416,-0.604167 0.28887,0.721875 0.25335,1.584375 -0.0789,1.916667 -0.3323,0.332291 -0.56864,-0.258334 -0.52522,-1.3125 z m 217,0 c 0.048,-1.164943 0.28494,-1.4019 0.60416,-0.604167 0.28887,0.721875 0.25335,1.584375 -0.0789,1.916667 -0.33229,0.332291 -0.56864,-0.258334 -0.52522,-1.3125 z m 114,0 c 0.048,-1.164943 0.28494,-1.4019 0.60416,-0.604167 0.28887,0.721875 0.25335,1.584375 -0.0789,1.916667 -0.33229,0.332291 -0.56864,-0.258334 -0.52522,-1.3125 z m -412.000003,-5 c 0.04798,-1.164943 0.284941,-1.4019 0.604167,-0.604167 0.288871,0.721875 0.253344,1.584375 -0.07895,1.916667 -0.332292,0.332291 -0.568641,-0.258334 -0.52522,-1.3125 z m 379.000003,0 c 0.048,-1.164943 0.28494,-1.4019 0.60416,-0.604167 0.28887,0.721875 0.25335,1.584375 -0.0789,1.916667 -0.33229,0.332291 -0.56864,-0.258334 -0.52522,-1.3125 z m -342,-2 c 0.048,-1.164943 0.28494,-1.4019 0.60416,-0.604167 0.28887,0.721875 0.25335,1.584375 -0.0789,1.916667 -0.3323,0.332291 -0.56864,-0.258334 -0.52522,-1.3125 z m 17,0 c 0.048,-1.164943 0.28494,-1.4019 0.60416,-0.604167 0.28887,0.721875 0.25335,1.584375 -0.0789,1.916667 -0.3323,0.332291 -0.56864,-0.258334 -0.52522,-1.3125 z m 271,0 c 0.048,-1.164943 0.28494,-1.4019 0.60416,-0.604167 0.28887,0.721875 0.25335,1.584375 -0.0789,1.916667 -0.33229,0.332291 -0.56864,-0.258334 -0.52522,-1.3125 z m 17,0 c 0.048,-1.164943 0.28494,-1.4019 0.60416,-0.604167 0.28887,0.721875 0.25335,1.584375 -0.0789,1.916667 -0.33229,0.332291 -0.56864,-0.258334 -0.52522,-1.3125 z M 46.25,74.310674 c 0.9625,-0.251527 2.5375,-0.251527 3.5,0 0.9625,0.251528 0.175,0.457323 -1.75,0.457323 -1.925,0 -2.7125,-0.205795 -1.75,-0.457323 z m 416,0 c 0.9625,-0.251527 2.5375,-0.251527 3.5,0 0.9625,0.251528 0.175,0.457323 -1.75,0.457323 -1.925,0 -2.7125,-0.205795 -1.75,-0.457323 z M 235.92431,70.25 233.5,67.5 l 2.75,2.424314 C 238.82029,72.190201 239.45859,73 238.67431,73 c -0.17912,0 -1.41662,-1.2375 -2.75,-2.75 z M 275,70.5 c 1.29175,-1.375 2.57363,-2.5 2.84863,-2.5 0.275,0 -0.55688,1.125 -1.84863,2.5 -1.29175,1.375 -2.57363,2.5 -2.84863,2.5 -0.275,0 0.55688,-1.125 1.84863,-2.5 z M 25.5,67 c 0.995486,-1.1 2.034975,-2 2.309975,-2 0.275,0 -0.314489,0.9 -1.309975,2 -0.995486,1.1 -2.034975,2 -2.309975,2 -0.275,0 0.314489,-0.9 1.309975,-2 z M 485.40499,66.75 483.5,64.5 l 2.25,1.904988 C 487.86444,68.195206 488.45524,69 487.65499,69 c -0.18976,0 -1.20226,-1.0125 -2.25,-2.25 z M 100.07895,65.416667 c 0.048,-1.164943 0.28494,-1.4019 0.60416,-0.604167 0.28887,0.721875 0.25335,1.584375 -0.0789,1.916667 -0.3323,0.332291 -0.56864,-0.258334 -0.52522,-1.3125 z m 17,0 c 0.048,-1.164943 0.28494,-1.4019 0.60416,-0.604167 0.28887,0.721875 0.25335,1.584375 -0.0789,1.916667 -0.3323,0.332291 -0.56864,-0.258334 -0.52522,-1.3125 z m -18.000003,-5 c 0.04798,-1.164943 0.284941,-1.4019 0.604167,-0.604167 0.288871,0.721875 0.253344,1.584375 -0.07895,1.916667 -0.332292,0.332291 -0.568641,-0.258334 -0.52522,-1.3125 z m 313.000003,0 c 0.048,-1.164943 0.28494,-1.4019 0.60416,-0.604167 0.28887,0.721875 0.25335,1.584375 -0.0789,1.916667 -0.33229,0.332291 -0.56864,-0.258334 -0.52522,-1.3125 z M 157,60.687091 c 0,-0.1721 1.4625,-1.6346 3.25,-3.25 L 163.5,54.5 160.56291,57.75 C 157.82513,60.779455 157,61.459652 157,60.687091 Z M 351.92431,58.25 349.5,55.5 l 2.75,2.424314 c 1.5125,1.333373 2.75,2.570873 2.75,2.75 0,0.784274 -0.8098,0.145975 -3.07569,-2.424314 z m -139.41723,0.761454 c -0.35034,-0.56686 0.0511,-0.734507 0.94098,-0.393011 C 215.18048,59.283234 215.49745,60 214.05902,60 c -0.51754,0 -1.21592,-0.444846 -1.55194,-0.988546 z M 297,59.606989 c 0,-0.216156 0.69837,-0.661002 1.55194,-0.988546 0.88992,-0.341496 1.29132,-0.173849 0.94098,0.393011 C 298.90566,59.961658 297,60.416902 297,59.606989 Z M 107.8125,57.316886 c 0.72187,-0.288871 1.58437,-0.253344 1.91667,0.07895 0.33229,0.332292 -0.25834,0.568641 -1.3125,0.52522 -1.16495,-0.04798 -1.4019,-0.284941 -0.60417,-0.604167 z M 190.92431,55.25 188.5,52.5 l 2.75,2.424314 C 193.82029,57.190201 194.45859,58 193.67431,58 c -0.17912,0 -1.41662,-1.2375 -2.75,-2.75 z M 320,55.5 c 1.29175,-1.375 2.57363,-2.5 2.84863,-2.5 0.275,0 -0.55688,1.125 -1.84863,2.5 -1.29175,1.375 -2.57363,2.5 -2.84863,2.5 -0.275,0 0.55688,-1.125 1.84863,-2.5 z m 82.8125,1.816886 c 0.72187,-0.288871 1.58438,-0.253344 1.91667,0.07895 0.33229,0.332292 -0.25834,0.568641 -1.3125,0.52522 -1.16495,-0.04798 -1.4019,-0.284941 -0.60417,-0.604167 z M 81.993479,43.704402 82.486957,33.5 l 0.296169,9.410352 c 0.162893,5.175694 -0.05917,9.767675 -0.493478,10.204402 -0.434307,0.436728 -0.567583,-3.797931 -0.296169,-9.410352 z m 347.433711,8.966455 c -0.28052,-0.731029 -0.37511,-5.343529 -0.21019,-10.25 L 429.51686,33.5 l 0.49157,10.252179 c 0.48758,10.169024 0.40207,11.481144 -0.58124,8.918678 z M 127.51792,49.018356 c -2.13838,-2.189903 -3.69221,-4.130922 -3.45294,-4.313374 0.23926,-0.182451 2.181,1.609288 4.31497,3.981644 4.87241,5.416689 4.31337,5.631819 -0.86203,0.33173 z m 256.0377,-0.08173 c 2.16941,-2.509856 4.14732,-4.406915 4.39536,-4.215686 0.24804,0.191228 -1.52693,2.244746 -3.94438,4.563374 L 379.61124,53.5 Z m -207.74312,0.38026 c 0.72187,-0.288871 1.58437,-0.253344 1.91667,0.07895 0.33229,0.332292 -0.25834,0.568641 -1.3125,0.52522 -1.16495,-0.04798 -1.4019,-0.284941 -0.60417,-0.604167 z m 159,0 c 0.72187,-0.288871 1.58438,-0.253344 1.91667,0.07895 0.33229,0.332292 -0.25834,0.568641 -1.3125,0.52522 -1.16495,-0.04798 -1.4019,-0.284941 -0.60417,-0.604167 z M 147.08833,46.75 c 0.23191,-0.1375 1.99441,-1.6 3.91667,-3.25 l 3.495,-3 -2.93709,3.25 c -1.6154,1.7875 -3.3779,3.25 -3.91667,3.25 -0.53876,0 -0.78983,-0.1125 -0.55791,-0.25 z m 213.34876,-3 -2.93709,-3.25 3.495,3 c 1.92226,1.65 3.68476,3.1125 3.91667,3.25 0.23192,0.1375 -0.0192,0.25 -0.55791,0.25 -0.53877,0 -2.30127,-1.4625 -3.91667,-3.25 z m -217.56465,-2.5 c -1.24387,-1.586056 -1.2085,-1.621426 0.37756,-0.377555 0.9625,0.754844 1.75,1.542344 1.75,1.75 0,0.823034 -0.82119,0.293303 -2.12756,-1.372445 z M 368.5,41 c 0.99549,-1.1 2.03498,-2 2.30998,-2 0.275,0 -0.31449,0.9 -1.30998,2 -0.99549,1.1 -2.03498,2 -2.30998,2 -0.275,0 0.31449,-0.9 1.30998,-2 z M 181.8125,33.316886 c 0.72187,-0.288871 1.58437,-0.253344 1.91667,0.07895 0.33229,0.332292 -0.25834,0.568641 -1.3125,0.52522 -1.16495,-0.04798 -1.4019,-0.284941 -0.60417,-0.604167 z m 147,0 c 0.72187,-0.288871 1.58438,-0.253344 1.91667,0.07895 0.33229,0.332292 -0.25834,0.568641 -1.3125,0.52522 -1.16495,-0.04798 -1.4019,-0.284941 -0.60417,-0.604167 z M 66.078947,31.416667 c 0.04798,-1.164943 0.284941,-1.4019 0.604167,-0.604167 0.288871,0.721875 0.253344,1.584375 -0.07895,1.916667 -0.332292,0.332291 -0.568641,-0.258334 -0.52522,-1.3125 z m 379.000003,0 c 0.048,-1.164943 0.28494,-1.4019 0.60416,-0.604167 0.28887,0.721875 0.25335,1.584375 -0.0789,1.916667 -0.33229,0.332291 -0.56864,-0.258334 -0.52522,-1.3125 z M 100.75,16.337719 c 0.6875,-0.277412 1.8125,-0.277412 2.5,0 0.6875,0.277413 0.125,0.504386 -1.25,0.504386 -1.375,0 -1.9375,-0.226973 -1.25,-0.504386 z m 308,0 c 0.6875,-0.277412 1.8125,-0.277412 2.5,0 0.6875,0.277413 0.125,0.504386 -1.25,0.504386 -1.375,0 -1.9375,-0.226973 -1.25,-0.504386 z M 127.40499,10.75 125.5,8.5 l 2.25,1.904988 c 1.2375,1.047743 2.25,2.060243 2.25,2.25 0,0.800253 -0.80479,0.209457 -2.59501,-1.904988 z M 383.5,11 c 0.99549,-1.1 2.03498,-2 2.30998,-2 0.275,0 -0.31449,0.9 -1.30998,2 -0.99549,1.1 -2.03498,2 -2.30998,2 -0.275,0 0.31449,-0.9 1.30998,-2 z M 106.8125,0.31688596 c 0.72187,-0.28887061 1.58437,-0.25334429 1.91667,0.0789474 0.33229,0.33229167 -0.25834,0.56864035 -1.3125,0.5252193 -1.16495,-0.0479839 -1.4019,-0.2849403 -0.60417,-0.6041667 z m 297,0 c 0.72187,-0.28887061 1.58438,-0.25334429 1.91667,0.0789474 0.33229,0.33229167 -0.25834,0.56864035 -1.3125,0.5252193 -1.16495,-0.0479839 -1.4019,-0.2849403 -0.60417,-0.6041667 z"
         id="path174" />
      <path
         style="fill:#030303"
         d="M 74.5,511.29464 C 60.144044,509.26534 46.38497,502.45669 36.5,492.49042 28.529245,484.45411 24.034226,477.38807 20.179214,466.8346 L 17.5,459.5 17,386.54066 16.5,313.58132 13.122803,312.89095 C 9.2027994,312.08961 5.4819345,309.5261 2.5617886,305.61488 0.62774547,303.02444 0.5,301.51028 0.5,281.17667 0.5,256.1425 1.0072586,254.29356 8.9847677,250.25 L 13.42378,248 h 55.165273 55.165277 l -0.49074,-4.75 c -0.2699,-2.6125 -0.79592,-6.325 -1.16893,-8.25 l -0.6782,-3.5 -11.45823,-0.61779 C 97.536083,230.21245 91.288222,228.35844 83.578977,223.05434 78.403276,219.49336 72.439309,212.98909 70.369002,208.64762 69.176514,206.14694 67.18873,204.62684 61.871976,202.14977 48.026873,195.69933 35.955469,179.86306 34.313088,165.99573 33.734116,161.10721 33.075794,159.98347 26.870014,153.29053 19.324206,145.15236 17,139.7454 17,130.32923 c 0,-5.69516 2.789593,-14.33426 5.648729,-17.49357 1.685995,-1.86301 1.61873,-2.18566 -1.696564,-8.13779 C 17.727549,98.908531 17.500607,97.906767 17.509208,89.5 c 0.008,-7.806758 0.361133,-9.662912 2.663602,-14 6.062509,-11.41976 14.983348,-16.628445 29.648236,-17.310963 l 9.321045,-0.43381 3.323537,-5.127614 C 65.473404,47.987162 65.840827,46.597428 66.332936,38 66.96428,26.970027 68.704151,21.355834 73.535993,14.757263 80.550505,5.1779466 94.343017,-0.90710724 105.90061,0.47846821 121.57972,2.3581484 133.17978,13.19361 137.50533,30 c 1.12509,4.371405 2.87178,7.947857 5.3338,10.921259 2.01348,2.431692 3.95969,4.870668 4.32492,5.419946 0.37662,0.566413 2.8864,-0.999399 5.79837,-3.617507 7.10403,-6.387132 14.38716,-9.066454 24.70716,-9.089276 7.43174,-0.01644 8.84932,0.317884 15.69598,3.701685 8.45307,4.177732 13.53271,9.26829 17.29489,17.33205 2.15703,4.623318 2.81801,5.236882 6.26983,5.820064 6.73253,1.137453 15.29454,5.923635 20.39045,11.398293 5.96694,6.410437 8.78933,12.615538 9.44318,20.761043 l 0.50329,6.269966 4.3664,0.654782 c 2.40152,0.360131 6.33128,0.360131 8.7328,0 l 4.3664,-0.654782 0.51888,-6.464135 c 0.67539,-8.413991 4.35179,-15.873412 10.79242,-21.89787 5.27673,-4.935765 12.92208,-8.95886 19.18144,-10.093557 3.27617,-0.593904 4.01501,-1.29575 6.12539,-5.818664 3.75111,-8.039312 8.83805,-13.133217 17.28351,-17.30719 6.84666,-3.383801 8.26424,-3.71812 15.69598,-3.701685 10.27511,0.02272 17.59998,2.699305 24.59282,8.986468 l 5.01997,4.513386 3.27839,-3.719967 c 5.04749,-5.727343 5.50759,-6.578246 7.28545,-13.473777 4.31866,-16.750082 15.93728,-27.5852672 31.59234,-29.46206379 11.55759,-1.38557545 25.35011,4.69947839 32.36462,14.27879479 4.83184,6.598571 6.57171,12.212764 7.20305,23.242737 0.49211,8.597428 0.85954,9.987162 3.86731,14.627613 l 3.32354,5.127614 9.32104,0.43381 c 14.67037,0.682773 23.61283,5.906684 29.6335,17.310963 2.2483,4.258722 2.6432,6.267035 2.6636,13.546284 0.0218,7.763557 -0.28759,9.160604 -3.37759,15.253806 -3.22799,6.36528 -3.31456,6.80365 -1.69657,8.5915 2.81345,3.10883 5.59811,11.78281 5.59811,17.43764 0,9.41617 -2.32421,14.82313 -9.87001,22.9613 -6.23592,6.72544 -6.86158,7.79889 -7.44651,12.77591 -1.60189,13.63017 -13.88452,29.71404 -27.55546,36.08333 -5.31675,2.47707 -7.30453,3.99717 -8.49702,6.49785 -2.07031,4.34147 -8.03428,10.84574 -13.20998,14.40672 -7.70924,5.3041 -13.9571,7.15811 -26.37925,7.82787 l -11.45823,0.61779 -0.6782,3.5 c -0.37301,1.925 -0.89903,5.6375 -1.16893,8.25 l -0.49074,4.75 h 55.16528 55.16527 l 4.43901,2.25 c 7.97751,4.04356 8.48477,5.8925 8.48477,30.92667 0,20.33361 -0.12775,21.84777 -2.06179,24.43821 -2.92014,3.91122 -6.64101,6.47473 -10.56101,7.27607 l -3.3772,0.69037 -0.5,72.95934 -0.5,72.95934 -2.67921,7.3346 c -5.94863,16.28493 -17.2381,29.56765 -31.32079,36.85071 -16.43744,8.50085 2.79108,7.7471 -201.5,7.8987 -99.825,0.0741 -182.85,-0.0561 -184.5,-0.28937 z m 364.622,-16.73299 c 13.80464,-2.92609 27.72892,-13.18899 34.1042,-25.13651 C 479.01637,458.57412 479,458.81839 479,383.2899 V 314 h -8.47274 -8.47273 l -0.27727,66.75 -0.27726,66.75 -2.33479,5.78458 c -4.79788,11.88706 -17.8052,22.23795 -31.0517,24.71014 -7.39002,1.3792 -336.836996,1.3792 -344.22702,0 -13.2465,-2.47219 -26.253818,-12.82308 -31.051703,-24.71014 L 50.5,447.5 50.222736,380.75 49.945472,314 H 41.472736 33 v 69.2899 c 0,59.02598 0.22707,70.16168 1.532909,75.17514 4.568764,17.54067 19.90948,32.14147 37.87802,36.05109 9.307812,2.02521 357.167631,2.06838 366.711071,0.0455 z m -8.36426,-33.92333 c 5.33091,-2.33091 12.48692,-10.17385 14.05346,-15.4025 C 445.65666,442.41392 446,427.6552 446,394.13398 V 347 h -29 -29 v 9.2899 c 0,19.86698 7.96487,35.84007 22.90204,45.92872 2.52888,1.70802 4.73934,3.21144 4.91214,3.34095 0.1728,0.1295 -1.30541,3.45154 -3.28491,7.38231 l -3.59909,7.14685 -4.21509,-2.29437 c -2.3183,-1.2619 -8.09344,-6.13622 -12.83364,-10.83183 C 377.86315,393.07611 372.05342,378.5365 372.01736,357.25 L 372,347 h -8.5 -8.5 v 21.54216 c 0,25.81032 -1.16206,32.89793 -7.57277,46.18778 -3.49086,7.2368 -6.01518,10.80818 -11.68977,16.53853 -3.9806,4.01973 -9.71246,8.73313 -12.73746,10.47422 l -5.5,3.16562 -3.601,-7.12975 -3.601,-7.12975 5.8345,-3.89613 c 11.38672,-7.60375 18.69657,-18.98022 21.57126,-33.57178 0.88807,-4.50769 1.34785,-8.46263 1.02173,-8.78874 -0.32611,-0.32611 -2.31026,0.7658 -4.40921,2.42648 C 322.3707,396.26991 300.8282,404 286.43462,404 H 281 v -7.85326 -7.85327 l 7.5477,-0.63801 c 15.41146,-1.30275 31.10327,-8.64482 43.52953,-20.36713 L 339,360.75774 V 353.87887 347 h -83 -83 v 6.87887 6.87887 l 6.91541,6.52365 C 193.17339,379.78829 211.90789,388 227.18366,388 H 231 v 8 8 h -5.43462 c -14.3228,0 -35.92876,-7.72772 -47.75674,-17.08097 C 175.77839,385.31356 173.82366,384 173.4648,384 c -1.07019,0 0.52572,10.0502 2.63733,16.60856 3.47555,10.79454 10.32318,19.83887 19.82367,26.18306 l 5.7762,3.85719 -3.65229,7.25247 -3.65228,7.25247 -7.65181,-5.11784 C 176.66649,433.29458 169.90634,425.52831 164.51788,414.5 158.16872,401.50547 157,394.3609 157,368.54216 V 347 h -8.5 -8.5 l -0.0174,10.25 c -0.0224,13.18925 -1.91792,21.90423 -7.08731,32.58418 -3.39327,7.01047 -5.74373,10.16147 -12.77678,17.12835 -4.7402,4.69561 -10.51534,9.56993 -12.83364,10.83183 l -4.21509,2.29437 -3.59909,-7.14685 c -1.979502,-3.93077 -3.457712,-7.25281 -3.284912,-7.38231 0.1728,-0.12951 2.383264,-1.63293 4.912142,-3.34095 C 116.03513,392.12997 124,376.15688 124,356.2899 V 347 H 95 66 v 47.35078 c 0,33.17894 0.345735,48.36814 1.155164,50.75 2.762233,8.12823 9.307191,14.24846 17.654392,16.50873 3.718144,1.0068 39.619454,1.23074 173.190444,1.08029 161.90574,-0.18237 168.66663,-0.26266 172.75774,-2.05148 z M 120.5,444.84527 C 112.7593,440.61143 115.434,430 124.24187,430 c 2.71208,0 4.12977,0.657 5.68555,2.63486 2.87205,3.65122 2.59998,6.99159 -0.8505,10.44206 -3.09553,3.09554 -5.31413,3.55296 -8.57692,1.76835 z m 114.3466,-0.7513 c -3.40509,-2.67844 -4.28745,-6.34078 -2.4048,-9.98142 1.65631,-3.20295 3.3461,-4.11255 7.63999,-4.11255 4.82107,0 7.5187,3.68504 6.95445,9.5 -0.50798,5.23515 -7.85461,8.00391 -12.18964,4.59397 z m 149.51748,0.73644 C 382.0723,443.72071 380,440.04411 380,437.08781 c 0,-0.99995 0.93266,-3.00378 2.07258,-4.45295 4.21061,-5.35292 13.92742,-2.14515 13.92742,4.5978 0,3.96057 -0.96978,5.70035 -4.07152,7.30433 -3.25325,1.68231 -4.58901,1.73413 -7.5644,0.29342 z M 87.5,378.84527 C 79.759297,374.61143 82.433995,364 91.241871,364 c 2.712079,0 4.129764,0.657 5.685549,2.63486 2.872048,3.65122 2.599977,6.99159 -0.850497,10.44206 -3.095535,3.09554 -5.314131,3.55296 -8.576923,1.76835 z m 181.96528,0.22474 c -3.61526,-1.50367 -4.92007,-4.15862 -4.58043,-9.32001 0.297,-4.51357 7.35003,-7.30022 12.07571,-4.77111 3.97892,2.12946 4.50883,9.72681 0.88802,12.73181 -2.00776,1.6663 -6.06394,2.32398 -8.3833,1.35931 z m 146.4578,-1.99309 c -3.45048,-3.45047 -3.72255,-6.79084 -0.8505,-10.44206 4.21061,-5.35292 13.92742,-2.14515 13.92742,4.5978 0,3.96057 -0.96978,5.70035 -4.07152,7.30433 -4.06512,2.10215 -5.70985,1.83549 -9.0054,-1.46007 z M 446,322.5 V 314 H 256 66 v 8.5 8.5 H 256 446 Z M 495.77477,280.75 495.5,264.5 H 256 16.5 L 16.225229,280.75 15.950457,297 H 256 496.04954 Z M 158.2436,240 c 0.40898,-4.125 0.96359,-8.07876 1.23248,-8.78614 0.26889,-0.70737 -2.04832,-5.09868 -5.14934,-9.75847 l -5.63823,-8.47233 -5.4441,8.13153 c -5.93686,8.86752 -5.84379,8.27191 -3.62093,23.17297 l 0.56501,3.78756 8.65575,-0.28756 L 157.5,247.5 Z m 179.40082,1.08392 C 336.66995,230.599 337.08914,231 327.10311,231 c -9.38462,0 -17.74341,-1.75552 -24.31024,-5.10567 -5.35935,-2.73413 -14.31602,-11.2245 -17.40949,-16.50312 -1.88134,-3.21026 -3.93162,-4.87549 -9.15386,-7.43474 -4.38831,-2.15057 -9.07785,-5.63784 -13.47952,-10.02374 l -6.75,-6.72583 -6.75,6.72583 c -4.40167,4.3859 -9.09121,7.87317 -13.47952,10.02374 -5.22224,2.55925 -7.27252,4.22448 -9.15386,7.43474 -3.09347,5.27862 -12.05014,13.76899 -17.40949,16.50312 C 202.6403,229.24448 194.28151,231 184.89689,231 c -9.98603,0 -9.56684,-0.401 -10.54131,10.08392 L 173.7128,248 H 256 338.2872 Z m 34.73845,3.16608 c 2.21464,-14.86578 2.30802,-14.27021 -3.62728,-23.13541 l -5.4441,-8.13153 -5.55182,8.34249 c -5.35952,8.05354 -5.52229,8.49546 -4.6993,12.75848 0.46889,2.42878 0.87213,6.25347 0.89608,8.4993 0.0239,2.24584 0.34355,4.38334 0.71022,4.75 C 355.03333,247.7 359.04378,248 363.57877,248 h 8.24543 z M 116,214.47804 c 0,-0.28707 -1.32208,-3.43774 -2.93796,-7.00148 -5.34893,-11.79681 -13.780899,-23.49311 -24.715857,-34.28427 l -10.445063,-10.30772 4.79944,-5.93855 c 2.639692,-3.26621 5.078743,-5.94023 5.420114,-5.94229 0.34137,-0.002 4.734683,3.86903 9.762917,8.60239 11.891729,11.19438 20.758029,23.08704 28.049689,37.62398 l 5.88377,11.7301 3.0275,-4.7301 c 4.25878,-6.65383 5.32573,-9.91444 5.3416,-16.32392 0.0133,-5.35798 -1.93376,-10.73368 -5.41363,-14.94687 -2.45107,-2.9676 -8.3124,-6.71705 -12.75473,-8.15911 -4.20671,-1.36557 -4.60967,-1.81903 -6.55605,-7.3776 -3.03793,-8.67589 -4.78625,-11.54523 -9.91526,-16.273 -5.713122,-5.26616 -12.245715,-8.17274 -20.013143,-8.90453 -5.341162,-0.50321 -7.186885,-1.36837 -17.60639,-8.25283 -7.479201,-4.94172 -13.055515,-7.91709 -15.600614,-8.32407 -13.24439,-2.11786 -23.472098,10.39976 -17.674333,21.63149 0.908599,1.76019 4.453417,6.12534 7.877372,9.70034 5.844266,6.10208 6.268073,6.86731 6.922874,12.5 1.778948,15.30275 13.364797,28.31286 27.588628,30.98013 3.178232,0.59598 3.726638,1.19429 5.354697,5.84193 2.428623,6.93302 10.607466,15.00621 17.279342,17.05613 C 104.27096,214.79033 116,215.58053 116,214.47804 Z m 84.09145,-2.18949 c 6.06275,-2.68819 12.47657,-9.50522 14.79797,-15.72825 1.78661,-4.78943 2.12616,-5.0943 7.42595,-6.6676 7.1471,-2.12169 11.43599,-4.81442 16.61189,-10.42962 5.1681,-5.60672 7.9546,-11.9422 8.73933,-19.87002 0.58693,-5.92958 0.79899,-6.29613 7.90375,-13.66193 7.84837,-8.13673 8.95979,-10.53545 8.16181,-17.61517 -0.95288,-8.45393 -9.55373,-14.13218 -19.12576,-12.62677 -2.47946,0.38995 -8.11869,3.40398 -15.52665,8.29863 -10.26968,6.78546 -12.32338,7.75752 -17.52351,8.29422 -7.95628,0.82116 -17.39522,5.59208 -22.47024,11.35761 C 185.453,147.76694 181,157.00527 181,160.41507 c 0,1.82793 -1.62826,2.92472 -7.5,5.05196 -6.29373,2.28013 -13.57725,9.50975 -15.26888,15.15589 -2.54678,8.50041 -1.29599,15.29097 4.38073,23.78307 l 3.27951,4.906 1.74776,-4.406 c 6.71601,-16.93062 20.20647,-35.65475 34.63735,-48.07503 l 7.10668,-6.11652 3.36664,3.89278 c 7.40834,8.56613 7.73133,7.04205 -3.94372,18.60906 -12.38926,12.27461 -21.78503,26.07737 -26.8883,39.5 l -0.96953,2.55006 7.27588,-0.47098 c 4.18946,-0.27119 9.22357,-1.33457 11.86733,-2.50681 z m 129.94015,0.29456 c -5.05044,-13.28365 -14.49703,-27.14039 -26.83767,-39.36683 -11.68184,-11.57374 -11.36041,-10.03108 -3.89056,-18.67237 l 3.41979,-3.95609 6.79699,5.95609 c 14.79929,12.96837 28.15457,31.50671 34.84073,48.36208 l 1.74776,4.406 3.27951,-4.906 c 5.67672,-8.4921 6.92751,-15.28266 4.38073,-23.78307 -1.69163,-5.64614 -8.97515,-12.87576 -15.26888,-15.15589 -5.87174,-2.12724 -7.5,-3.22403 -7.5,-5.05196 0,-3.4098 -4.453,-12.64813 -8.08599,-16.77542 -5.09367,-5.78671 -14.51737,-10.54073 -22.49689,-11.3491 -4.88197,-0.49457 -7.17755,-1.44713 -13.12196,-5.44499 C 283.3325,124.1805 279.9031,122 279.67427,122 c -0.22883,0 -0.0368,2.03016 0.42677,4.51147 1.75589,9.39878 -1.93539,19.29642 -10.60802,28.44394 l -5.25675,5.54459 1.35595,5.22882 c 1.67841,6.47229 4.89823,11.67467 10.17755,16.44421 4.95902,4.48018 7.20911,5.72082 14.08697,7.76718 4.95683,1.4748 5.48562,1.93329 7.08297,6.14136 4.56667,12.03045 14.56066,18.69117 28.28554,18.85153 5.65087,0.066 5.71331,0.0355 4.80635,-2.34999 z m 81.87521,0.85192 c 7.11636,-2.11333 15.17189,-9.90274 17.69762,-17.11297 1.62806,-4.64764 2.17646,-5.24595 5.3547,-5.84193 14.22383,-2.66727 25.80968,-15.67738 27.58862,-30.98013 0.65481,-5.63269 1.07861,-6.39792 6.92288,-12.5 3.42395,-3.575 6.96877,-7.94015 7.87737,-9.70034 5.79777,-11.23173 -4.42994,-23.74935 -17.67433,-21.63149 -2.5451,0.40698 -8.12142,3.38235 -15.60062,8.32407 -10.4195,6.88446 -12.26523,7.74962 -17.60639,8.25283 -7.76743,0.73179 -14.30002,3.63837 -20.01314,8.90453 -5.12901,4.72777 -6.87733,7.59711 -9.91526,16.273 -1.94638,5.55857 -2.34934,6.01203 -6.55605,7.3776 -11.11051,3.60667 -18.19433,12.61568 -18.16836,23.10598 0.0159,6.40948 1.08282,9.67009 5.3416,16.32392 l 3.0275,4.7301 5.88377,-11.7301 c 7.29166,-14.53694 16.15796,-26.4296 28.04969,-37.62398 5.02823,-4.73336 9.42155,-8.60444 9.76292,-8.60239 0.34137,0.002 2.78042,2.67608 5.42011,5.94229 l 4.79944,5.93855 -10.41131,10.30772 c -11.15048,11.03953 -18.92958,21.72112 -24.32776,33.40476 -1.8479,3.99953 -3.35981,7.52636 -3.35981,7.83741 0,1.18135 10.86129,0.49893 15.90681,-0.99943 z M 161.44789,153.32346 165,151.62958 v -10.13329 c 0,-14.79461 -2.87708,-23.35662 -11.33977,-33.74653 -4.10019,-5.03392 -4.3745,-5.77164 -5.01876,-13.496848 -0.78355,-9.395459 -3.55603,-19.142769 -7.89391,-27.752912 -3.09969,-6.152475 -9.8458,-15.511354 -13.62994,-18.908804 -1.16933,-1.049843 -2.59849,-3.749843 -3.17592,-6 -0.57742,-2.250158 -1.71251,-6.451691 -2.52242,-9.336741 -4.44827,-15.845591 -21.745604,-20.980763 -32.945596,-9.780771 -4.987072,4.987072 -6.472633,9.969162 -6.47622,21.719136 L 81.994929,52.5 76.941655,60 C 69.349426,71.268283 66.83705,76.705487 66.254629,83.128524 c -1.469137,16.201904 9.095472,30.455666 24.789552,33.446036 7.49601,1.4283 14.284289,4.09902 19.057379,7.49776 1.65748,1.18022 3.14126,1.98427 3.29731,1.78677 0.15605,-0.1975 -2.7825,-14.53409 -6.5301,-31.85909 -3.74761,-17.325 -6.82619,-32.215431 -6.8413,-33.089847 -0.0205,-1.187735 1.73903,-1.905538 6.9568,-2.838006 3.84135,-0.686488 7.2914,-1.321057 7.66677,-1.410153 0.37537,-0.0891 5.28513,21.3385 10.91058,47.616886 l 10.22809,47.77887 6.35515,5.8595 6.35514,5.8595 4.69789,-4.3797 c 2.58384,-2.40884 6.29634,-5.14195 8.25,-6.07359 z m 214.75632,-2.20454 c 0.38731,-0.89041 5.0235,-22.09392 10.30263,-47.11892 5.27913,-25.025 9.75587,-45.984994 9.94831,-46.577765 0.57636,-1.775341 15.55147,1.648152 15.51738,3.547461 -0.0151,0.841667 -3.09369,15.705304 -6.8413,33.030304 -3.7476,17.325 -6.68615,31.66159 -6.5301,31.85909 0.15605,0.1975 1.63983,-0.60655 3.29731,-1.78677 4.77309,-3.39874 11.56137,-6.06946 19.05738,-7.49776 15.69408,-2.99037 26.25869,-17.244132 24.78955,-33.446036 C 445.16295,76.705487 442.65057,71.268283 435.05835,60 l -5.05328,-7.5 -0.003,-8.30718 c -0.004,-11.749974 -1.48915,-16.732064 -6.47622,-21.719136 -11.2,-11.199992 -28.49733,-6.06482 -32.9456,9.780771 -0.80991,2.88505 -1.945,7.086583 -2.52242,9.336741 -0.57743,2.250157 -2.00659,4.950157 -3.17592,6 -4.53759,4.073905 -11.19948,13.81429 -14.82804,21.680146 -4.45171,9.650252 -5.84061,14.898498 -6.73132,25.435606 -0.60919,7.206642 -0.94478,8.084652 -4.98682,13.047192 C 349.88952,118.12439 347,126.70895 347,141.43322 v 10.07021 l 4.36046,2.31322 c 2.39825,1.27227 6.07108,4.06505 8.16183,6.20618 l 3.80137,3.89295 6.08817,-5.58897 c 3.34849,-3.07394 6.40506,-6.31749 6.79238,-7.20789 z M 184.43555,126.07481 c 4.51814,-4.21336 19.15603,-10.03052 25.32165,-10.06294 1.24147,-0.007 6.51832,-2.82437 11.72634,-6.26187 l 9.46912,-6.25 0.0237,-5.789838 c 0.0266,-6.50479 -2.09985,-11.603034 -6.63475,-15.907114 -3.41479,-3.240987 -7.46716,-4.969362 -17.03115,-7.26395 l -7.18957,-1.724919 -2.03706,-6.032059 c -2.5188,-7.458556 -6.07044,-12.235317 -10.89173,-14.648753 -8.68828,-4.349169 -17.42376,-2.979052 -25.52949,4.004172 -5.40015,4.652323 -5.3516,4.084032 -1.32378,15.496349 1.3848,3.923638 3.04815,10.898638 3.69633,15.5 1.05334,7.477567 4.05969,14.836592 6.07038,14.859282 0.33303,0.004 3.42834,-3.583999 6.87847,-7.972789 3.63583,-4.625022 6.74444,-7.706566 7.39449,-7.330105 0.61684,0.357233 3.37153,2.463841 6.12153,4.681352 2.75,2.21751 5.16842,4.146977 5.37427,4.287704 0.20584,0.140727 -3.67811,5.337448 -8.63102,11.548268 L 178.238,118.5 l 1.10838,4.75 c 1.22194,5.23669 2.02491,5.68239 5.0892,2.82481 z m 148.2181,-2.82481 1.10838,-4.75 -9.00528,-11.2924 c -4.95291,-6.21082 -8.83686,-11.407541 -8.63102,-11.548268 0.20585,-0.140727 2.62427,-2.070194 5.37427,-4.287704 2.75,-2.217511 5.50469,-4.324119 6.12153,-4.681352 0.65005,-0.376461 3.75866,2.705083 7.39449,7.330105 3.45013,4.38879 6.54544,7.976549 6.87847,7.972789 2.01069,-0.0227 5.01704,-7.381715 6.07038,-14.859282 0.64818,-4.601362 2.31153,-11.576362 3.69633,-15.5 4.03833,-11.442094 4.10289,-10.807922 -1.58491,-15.570013 -8.37833,-7.014733 -16.56355,-8.28795 -25.26836,-3.930508 -4.82129,2.413436 -8.37293,7.190197 -10.89173,14.648753 l -2.03706,6.032059 -7.18957,1.724919 c -9.56399,2.294588 -13.61636,4.022963 -17.03115,7.26395 -4.5349,4.30408 -6.66134,9.402324 -6.63475,15.907114 l 0.0237,5.789838 9.46912,6.25 c 5.20802,3.4375 10.48487,6.25534 11.72634,6.26187 6.10603,0.0321 18.81261,4.98412 24.2572,9.45353 1.65,1.35447 3.46019,2.47886 4.02264,2.49864 0.56245,0.0198 1.52141,-2.10154 2.13101,-4.71404 z M 46,99.319306 50.5,98.780636 V 86.292181 73.803726 l -3.913425,0.5249 C 39.69633,75.252802 33,82.278159 33,88.582784 33,94.880632 36.938874,101.6271 39.936904,100.46426 40.796607,100.1308 43.525,99.615575 46,99.319306 Z M 476.32879,97.76144 c 1.07276,-1.436851 2.15275,-4.783478 2.39996,-7.436948 0.36266,-3.892556 -0.002,-5.482818 -1.88963,-8.232544 -3.23191,-4.708839 -6.81773,-7.145264 -11.4257,-7.763322 L 461.5,73.803726 v 12.474027 12.474028 l 5.5,0.971194 c 6.8879,1.216275 6.96894,1.199235 9.32879,-1.961535 z"
         id="path172" />
    </g>
  </g>
</svg>
