<?xml version="1.0" encoding="UTF-8" standalone="no"?>
<!-- Created with Inkscape (http://www.inkscape.org/) -->

<svg
   version="1.1"
   id="svg176"
   width="512"
   height="512"
   viewBox="0 0 512 512"
   sodipodi:docname="industrial-robot.png"
   xmlns:inkscape="http://www.inkscape.org/namespaces/inkscape"
   xmlns:sodipodi="http://sodipodi.sourceforge.net/DTD/sodipodi-0.dtd"
   xmlns="http://www.w3.org/2000/svg"
   xmlns:svg="http://www.w3.org/2000/svg">
  <defs
     id="defs180" />
  <sodipodi:namedview
     id="namedview178"
     pagecolor="#505050"
     bordercolor="#eeeeee"
     borderopacity="1"
     inkscape:showpageshadow="0"
     inkscape:pageopacity="0"
     inkscape:pagecheckerboard="0"
     inkscape:deskcolor="#505050"
     showgrid="false" />
  <g
     inkscape:groupmode="layer"
     inkscape:label="Image"
     id="g182">
    <g
       id="g312">
      <path
         style="fill:#8ba8ba"
         d="m 86.675602,477.25 c 2.964078,-10.8625 6.062215,-22.1125 6.88475,-25 L 95.05587,447 h 57.97206 C 184.91257,447 211,447.21604 211,447.4801 c 0,0.26405 2.66999,10.27655 5.93331,22.25 3.26332,11.97344 6.23711,23.0074 6.60841,24.5199 l 0.6751,2.75 H 152.75159 81.286371 Z m 5.100831,-45.9835 c 2.352038,-0.21124 5.952038,-0.20827 8,0.007 2.047957,0.21487 0.123567,0.38771 -4.276433,0.38408 -4.4,-0.004 -6.075605,-0.17944 -3.723567,-0.39069 z m 145.999997,0 c 2.35204,-0.21124 5.95204,-0.20827 8,0.007 2.04796,0.21487 0.12357,0.38771 -4.27643,0.38408 -4.4,-0.004 -6.07561,-0.17944 -3.72357,-0.39069 z M 62.078947,342.41667 c 0.04798,-1.16495 0.284941,-1.4019 0.604167,-0.60417 0.288871,0.72187 0.253344,1.58438 -0.07895,1.91667 -0.332292,0.33229 -0.568641,-0.25834 -0.52522,-1.3125 z M 62.194949,336.5 c 0.02038,-1.65 0.244498,-2.20394 0.498042,-1.23097 0.253543,0.97297 0.236869,2.32297 -0.03705,3 C 62.382014,338.94606 62.174569,338.15 62.194949,336.5 Z M 256,302.75252 c -11.92144,-6.37416 -14.64945,-21.6776 -5.63303,-31.59984 7.70047,-8.47408 22.45906,-8.09031 29.9213,0.77807 7.94504,9.44214 5.05728,24.85433 -5.6981,30.41117 -6.0945,3.14877 -13.17648,3.30519 -18.59017,0.4106 z m 155.23103,-147.48908 -30.26897,-10.5277 -4.96612,2.57651 c -4.81529,2.49826 -5.10333,2.52976 -9.48395,1.03714 l -4.51784,-1.53939 -14.06794,8.595 c -7.73738,4.72725 -14.50399,8.595 -15.03692,8.595 -2.21552,0 -8.63535,-4.08947 -12.03327,-7.66527 -7.17234,-7.54781 -10.2242,-17.56196 -7.93662,-26.04268 2.04175,-7.56937 6.48171,-11.8839 21.98092,-21.35993 7.92017,-4.8423 15.07107,-9.474937 15.89088,-10.294744 2.0448,-2.0448 5.40636,-23.987556 4.17213,-27.233815 -0.50774,-1.335478 -2.10546,-2.966828 -3.55048,-3.625222 -2.90798,-1.324967 -2.88709,-0.06615 -0.2993,-18.028339 1.0356,-7.188209 1.28942,-7.75 3.50149,-7.75 3.68625,0 6.08572,-3.18116 6.89498,-9.141198 1.11188,-8.188728 3.22621,-12.532101 7.34088,-15.080067 4.04786,-2.5066 3.70456,-2.489508 40.74723,-2.028735 l 20.09812,0.25 1.90188,4.224005 c 2.56319,5.69278 2.47988,14.244171 -0.18326,18.809265 L 429.39249,42.5 410.94625,43.009822 c -10.14544,0.280402 -19.1728,0.867658 -20.0608,1.305012 -0.888,0.437354 -2.06746,1.789228 -2.62103,3.004165 -0.55356,1.214936 -2.95734,15.977501 -5.34172,32.805699 -4.06011,28.654872 -4.23272,30.753202 -2.71975,33.062282 1.3137,2.00497 7.09666,4.36803 30.95627,12.64949 16.13743,5.60116 30.35328,10.17934 31.59078,10.17373 1.2375,-0.006 3.09924,-0.85944 4.13719,-1.89739 1.03796,-1.03796 6.70573,-11.36044 12.59504,-22.93885 13.49811,-26.537308 12.99984,-25.842927 14.27016,-19.886799 0.56935,2.669496 0.65368,6.504294 0.19667,8.943149 -0.44004,2.34833 -7.85646,17.99469 -16.48093,34.76969 -8.62447,16.775 -15.74549,30.56551 -15.82449,30.64557 -0.079,0.0801 -13.76468,-4.59189 -30.41261,-10.38213 z m -67.30361,-11.8983 C 348.16392,137.9793 344.8648,131 338.08241,131 c -4.75928,0 -7.28241,2.59852 -7.28241,7.5 0,4.90148 2.52313,7.5 7.28241,7.5 2.88435,0 4.26034,-0.62028 5.84501,-2.63486 z M 50.5,151.58836 c -10.132168,-4.50328 -11.391965,-18.02506 -2.201451,-23.62884 3.963602,-2.41675 9.949179,-2.51697 13.818401,-0.23136 3.996663,2.36088 7.282517,9.32896 6.461891,13.70327 -0.826425,4.40523 -4.105653,8.47291 -8.214623,10.18975 -4.050198,1.69228 -5.997389,1.6858 -9.864218,-0.0328 z m 1.25,-68.250641 c 0.6875,-0.277412 1.8125,-0.277412 2.5,0 0.6875,0.277413 0.125,0.504386 -1.25,0.504386 -1.375,0 -1.9375,-0.226973 -1.25,-0.504386 z M 502.87244,75.25 C 501.62857,73.663944 501.66394,73.628574 503.25,74.872445 504.91575,76.178814 505.44548,77 504.62244,77 c -0.20765,0 -0.99515,-0.7875 -1.75,-1.75 z"
         id="path326" />
      <path
         style="fill:#fde00c"
         d="M 110.48694,383.20123 C 86.785016,375.0053 73.787463,352.07552 79.479999,328.5 c 1.929372,-7.99045 1.910227,-8.20068 -1.013043,-11.12395 L 75.933911,314.843 78.1743,311.1715 c 1.232213,-2.01932 4.657142,-6.22394 7.610952,-9.34359 5.298003,-5.59546 5.396534,-5.64612 7.292656,-3.75 2.139667,2.13967 5.991137,2.49069 9.096012,0.82901 C 105.57934,297.08439 255.17453,240 256.54522,240 c 0.70135,0 3.67809,1.9125 6.61498,4.25 l 5.3398,4.25 -6.5,0.56093 c -12.81337,1.10575 -24.40274,9.16458 -29.82982,20.74257 C 229.86374,274.724 229.5,276.79412 229.5,285 c 0,8.30084 0.34139,10.1951 2.70453,15.00672 5.48456,11.16721 16.90153,19.22714 29.20759,20.61942 l 6.02116,0.68121 -4.8032,4.2266 c -2.64176,2.32463 -7.12675,5.39651 -9.96664,6.82639 -4.80003,2.41681 -135.29384,52.67918 -136.58111,52.60701 -0.32028,-0.0179 -2.83821,-0.81271 -5.59539,-1.76612 z M 153,138.89138 C 132.375,124.58303 115.0725,112.45406 114.55,111.9381 113.95837,111.35388 149.6731,111 209.22591,111 h 95.6259 l -3.30747,6.34544 c -6.84199,13.12648 -6.84307,28.18055 -0.003,41.3034 L 304.85181,165 247.67591,164.95327 190.5,164.90654 Z"
         id="path324" />
      <path
         style="fill:#f5d700"
         d="m 118,384.73784 c 0.275,-0.27021 29.075,-11.39402 64,-24.71958 34.925,-13.32556 66.23439,-25.55435 69.57642,-27.17509 3.34203,-1.62075 8.34796,-4.93391 11.12431,-7.36259 3.47041,-3.03583 6.55849,-4.7543 9.88175,-5.49906 10.86138,-2.43409 20.3184,-10.2313 25.23546,-20.80637 2.2033,-4.73861 2.63728,-7.07786 2.62978,-14.17515 -0.0116,-10.94968 -3.2417,-18.62353 -10.8799,-25.84741 -5.9543,-5.63133 -9.29683,-7.55195 -16.14319,-9.27589 -4.5457,-1.14462 -15.17837,-8.23556 -15.35059,-10.23732 -0.0407,-0.47335 4.7957,-0.69395 10.7476,-0.49023 10.0974,0.34561 11.32285,0.61811 18.3106,4.07164 9.4882,4.68933 17.67039,13.00656 22.12644,22.49161 2.77684,5.91074 3.23736,8.07945 3.56481,16.7876 0.4403,11.7097 -1.5883,19.2936 -7.57225,28.30882 -3.48578,5.25154 -10.81337,11.87915 -16.23157,14.68101 -1.45687,0.75338 -36.36979,14.29433 -77.58427,30.09101 L 136.5,384.30208 127,384.76561 c -5.225,0.25494 -9.275,0.24244 -9,-0.0278 z"
         id="path322" />
      <path
         style="fill:#7e9aab"
         d="m 34.078947,504.41667 c 0.04798,-1.16495 0.284941,-1.4019 0.604167,-0.60417 0.288871,0.72187 0.253344,1.58438 -0.07895,1.91667 -0.332292,0.33229 -0.568641,-0.25834 -0.52522,-1.3125 z M 218.02332,473.75 c -3.46942,-12.7875 -6.52146,-24.0375 -6.78231,-25 -0.43735,-1.61377 0.77734,-1.75 15.60381,-1.75 h 16.07809 l 1.12857,4.25 c 0.62071,2.3375 3.56306,13.14657 6.53854,24.02016 C 253.56551,486.14374 256,495.48124 256,496.02016 256,496.61869 249.83808,497 240.16567,497 H 224.33135 Z M 310,328.5 c 1.29175,-1.375 2.57363,-2.5 2.84863,-2.5 0.275,0 -0.55688,1.125 -1.84863,2.5 -1.29175,1.375 -2.57363,2.5 -2.84863,2.5 -0.275,0 0.55688,-1.125 1.84863,-2.5 z m -60.12756,-29.25 c -1.24387,-1.58606 -1.2085,-1.62143 0.37756,-0.37756 0.9625,0.75485 1.75,1.54235 1.75,1.75 0,0.82304 -0.82119,0.29331 -2.12756,-1.37244 z M 90.078947,291.41667 c 0.04798,-1.16495 0.284941,-1.4019 0.604167,-0.60417 0.288871,0.72187 0.253344,1.58438 -0.07895,1.91667 -0.332292,0.33229 -0.568641,-0.25834 -0.52522,-1.3125 z m 238.000003,-1 c 0.048,-1.16495 0.28494,-1.4019 0.60416,-0.60417 0.28887,0.72187 0.25335,1.58438 -0.0789,1.91667 -0.33229,0.33229 -0.56864,-0.25834 -0.52522,-1.3125 z M 244.232,285 c 0,-1.925 0.2058,-2.7125 0.45733,-1.75 0.25152,0.9625 0.25152,2.5375 0,3.5 -0.25153,0.9625 -0.45733,0.175 -0.45733,-1.75 z M 246,276.05902 c 0,-0.51754 0.44485,-1.21592 0.98855,-1.55194 0.56686,-0.35034 0.7345,0.0511 0.39301,0.94098 C 246.71677,277.18048 246,277.49745 246,276.05902 Z M 250,270.5 c 1.29175,-1.375 2.57363,-2.5 2.84863,-2.5 0.275,0 -0.55688,1.125 -1.84863,2.5 -1.29175,1.375 -2.57363,2.5 -2.84863,2.5 -0.275,0 0.55688,-1.125 1.84863,-2.5 z m 28.87244,-0.25 c -1.24387,-1.58606 -1.2085,-1.62143 0.37756,-0.37756 1.66575,1.30637 2.19548,2.12756 1.37244,2.12756 -0.20765,0 -0.99515,-0.7875 -1.75,-1.75 z m -24.13911,-3.37409 c 0.67834,-0.68342 1.48524,-0.99067 1.79313,-0.68278 0.30789,0.30789 -0.24711,0.86705 -1.23333,1.24258 -1.4252,0.54268 -1.54006,0.42782 -0.5598,-0.5598 z m 8.01667,-2.58164 c 1.2375,-0.23836 3.2625,-0.23836 4.5,0 1.2375,0.23835 0.225,0.43337 -2.25,0.43337 -2.475,0 -3.4875,-0.19502 -2.25,-0.43337 z m -18,-84.04378 c 17.7375,-0.15301 46.7625,-0.15301 64.5,0 17.7375,0.15301 3.225,0.27821 -32.25,0.27821 -35.475,0 -49.9875,-0.1252 -32.25,-0.27821 z m 200.5,-12.49724 c -1.7875,-0.57341 -3.25,-1.42074 -3.25,-1.88294 0,-0.4622 7.00852,-14.4596 15.57449,-31.10534 8.56597,-16.64573 15.93453,-32.18633 16.37457,-34.53466 0.96731,-5.162073 -0.55927,-13.569451 -2.28173,-12.566337 -0.64203,0.373898 -0.30657,-0.301423 0.74547,-1.500714 4.85764,-5.537546 14.5498,-4.892275 20.62231,1.372962 3.0753,3.17291 3.45827,4.15892 3.40603,8.769321 -0.0533,4.701218 -1.55835,8.090578 -15.85055,35.694458 -8.68543,16.775 -16.53289,31.33357 -17.43878,32.35238 -3.93695,4.42765 -10.69745,5.71197 -17.90181,3.40087 z M 336.2123,165.0289 c -3.15386,-0.50737 -2.69623,-0.8884 11.24091,-9.35945 14.41531,-8.76168 14.55793,-8.82118 18.2877,-7.6292 2.0675,0.66075 4.10926,1.51966 4.53725,1.90871 0.71258,0.64775 -11.24257,8.4636 -19.04186,12.44888 -4.19134,2.14169 -10.83441,3.30505 -15.024,2.63106 z M 320.43709,156.75 317.5,153.5 l 3.25,2.93709 c 3.02946,2.73778 3.70965,3.56291 2.93709,3.56291 -0.1721,0 -1.6346,-1.4625 -3.25,-3.25 z M 44.924314,148.25 42.5,145.5 l 2.75,2.42431 C 47.820289,150.1902 48.458588,151 47.674314,151 c -0.179127,0 -1.416627,-1.2375 -2.75,-2.75 z M 64.5,149 c 0.995486,-1.1 2.034975,-2 2.309975,-2 0.275,0 -0.314489,0.9 -1.309975,2 -0.995486,1.1 -2.034975,2 -2.309975,2 -0.275,0 0.314489,-0.9 1.309975,-2 z m 267.99445,-5.00613 c -2.5563,-2.82468 -1.4683,-3.08729 1.21982,-0.29442 1.21784,1.2653 1.85009,2.30055 1.40498,2.30055 -0.4451,0 -1.62626,-0.90276 -2.6248,-2.00613 z m 48.31805,1.32302 c 0.72187,-0.28887 1.58438,-0.25335 1.91667,0.0789 0.33229,0.33229 -0.25834,0.56864 -1.3125,0.52522 -1.16495,-0.048 -1.4019,-0.28494 -0.60417,-0.60416 z M 41.078947,139.41667 c 0.04798,-1.16495 0.284941,-1.4019 0.604167,-0.60417 0.288871,0.72187 0.253344,1.58437 -0.07895,1.91667 -0.332292,0.33229 -0.568641,-0.25834 -0.52522,-1.3125 z M 345.19495,138.5 c 0.0204,-1.65 0.2445,-2.20394 0.49804,-1.23097 0.25354,0.97297 0.23687,2.32297 -0.0371,3 -0.27393,0.67703 -0.48137,-0.11903 -0.46099,-1.76903 z m 97.61755,-3.18311 c 0.72187,-0.28887 1.58438,-0.25335 1.91667,0.0789 0.33229,0.33229 -0.25834,0.56864 -1.3125,0.52522 -1.16495,-0.048 -1.4019,-0.28494 -0.60417,-0.60416 z M 332.5,133 c 0.99549,-1.1 2.03498,-2 2.30998,-2 0.275,0 -0.31449,0.9 -1.30998,2 -0.99549,1.1 -2.03498,2 -2.30998,2 -0.275,0 0.31449,-0.9 1.30998,-2 z M 54.269032,125.30701 c 0.972967,-0.25354 2.322967,-0.23687 3,0.037 0.677032,0.27393 -0.119032,0.48137 -1.769032,0.46099 -1.65,-0.0204 -2.203936,-0.2445 -1.230968,-0.49804 z M 380.87244,114.25 c -1.24387,-1.58606 -1.2085,-1.62143 0.37756,-0.37756 0.9625,0.75485 1.75,1.54235 1.75,1.75 0,0.82304 -0.82119,0.29331 -2.12756,-1.37244 z m -1.79349,-8.83333 c 0.048,-1.16495 0.28494,-1.4019 0.60416,-0.60417 0.28887,0.72187 0.25335,1.58437 -0.0789,1.91667 -0.33229,0.33229 -0.56864,-0.25834 -0.52522,-1.3125 z M 13,101.62244 c 0,-0.20765 0.7875,-0.99515 1.75,-1.749995 1.586056,-1.243871 1.621426,-1.208501 0.377555,0.377555 C 13.821186,101.91575 13,102.44548 13,101.62244 Z M 349.5,99 c 0.99549,-1.1 2.03498,-2 2.30998,-2 0.275,0 -0.31449,0.9 -1.30998,2 -0.99549,1.1 -2.03498,2 -2.30998,2 -0.275,0 0.31449,-0.9 1.30998,-2 z m 30.57895,-0.583333 c 0.048,-1.164943 0.28494,-1.4019 0.60416,-0.604167 0.28887,0.721875 0.25335,1.584375 -0.0789,1.916667 -0.33229,0.332293 -0.56864,-0.258334 -0.52522,-1.3125 z M 17,97.622445 c 0,-0.207656 0.7875,-0.995156 1.75,-1.75 C 20.336056,94.628574 20.371426,94.663944 19.127555,96.25 17.821186,97.915748 17,98.445479 17,97.622445 Z M 467.5,94 c 0.85325,-1.65 1.77636,-3 2.05136,-3 0.275,0 -0.19811,1.35 -1.05136,3 -0.85325,1.65 -1.77636,3 -2.05136,3 -0.275,0 0.19811,-1.35 1.05136,-3 z m -319.25,1.25015 c 32.8625,-0.146237 86.6375,-0.146237 119.5,0 32.8625,0.146237 5.975,0.265886 -59.75,0.265886 -65.725,0 -92.6125,-0.119649 -59.75,-0.265886 z m 203.82895,-0.833483 c 0.048,-1.164943 0.28494,-1.4019 0.60416,-0.604167 0.28887,0.721875 0.25335,1.584375 -0.0789,1.916667 -0.33229,0.332291 -0.56864,-0.258334 -0.52522,-1.3125 z m 29,-3 c 0.048,-1.164943 0.28494,-1.4019 0.60416,-0.604167 0.28887,0.721875 0.25335,1.584375 -0.0789,1.916667 -0.33229,0.332291 -0.56864,-0.258334 -0.52522,-1.3125 z m -28,-4 c 0.048,-1.164943 0.28494,-1.4019 0.60416,-0.604167 0.28887,0.721875 0.25335,1.584375 -0.0789,1.916667 -0.33229,0.332291 -0.56864,-0.258334 -0.52522,-1.3125 z m 29,-3 c 0.048,-1.164943 0.28494,-1.4019 0.60416,-0.604167 0.28887,0.721875 0.25335,1.584375 -0.0789,1.916667 -0.33229,0.332291 -0.56864,-0.258334 -0.52522,-1.3125 z M 61.8125,84.316886 c 0.721875,-0.288871 1.584375,-0.253344 1.916667,0.07895 0.332291,0.332292 -0.258334,0.568641 -1.3125,0.52522 -1.164943,-0.04798 -1.4019,-0.284941 -0.604167,-0.604167 z M 354.15789,81 c 0,-1.375 0.22698,-1.9375 0.50439,-1.25 0.27741,0.6875 0.27741,1.8125 0,2.5 -0.27741,0.6875 -0.50439,0.125 -0.50439,-1.25 z m 28.92106,-3.583333 c 0.048,-1.164943 0.28494,-1.4019 0.60416,-0.604167 0.28887,0.721875 0.25335,1.584375 -0.0789,1.916667 -0.33229,0.332291 -0.56864,-0.258334 -0.52522,-1.3125 z m -28,-3 c 0.048,-1.164943 0.28494,-1.4019 0.60416,-0.604167 0.28887,0.721875 0.25335,1.584375 -0.0789,1.916667 -0.33229,0.332291 -0.56864,-0.258334 -0.52522,-1.3125 z m 29,-4 c 0.048,-1.164943 0.28494,-1.4019 0.60416,-0.604167 0.28887,0.721875 0.25335,1.584375 -0.0789,1.916667 -0.33229,0.332291 -0.56864,-0.258334 -0.52522,-1.3125 z M 352.87244,69.25 C 351.62857,67.663944 351.66394,67.628574 353.25,68.872445 354.91575,70.178814 355.44548,71 354.62244,71 c -0.20765,0 -0.99515,-0.7875 -1.75,-1.75 z m 32.20651,-5.833333 c 0.048,-1.164943 0.28494,-1.4019 0.60416,-0.604167 0.28887,0.721875 0.25335,1.584375 -0.0789,1.916667 -0.33229,0.332291 -0.56864,-0.258334 -0.52522,-1.3125 z m 1,-7 c 0.048,-1.164943 0.28494,-1.4019 0.60416,-0.604167 0.28887,0.721875 0.25335,1.584375 -0.0789,1.916667 -0.33229,0.332291 -0.56864,-0.258334 -0.52522,-1.3125 z M 410.94576,43.064922 429.39151,42.5 l 2.02287,-3.46673 c 2.65924,-4.557298 2.74709,-13.116135 0.19288,-18.789014 l -1.89274,-4.203754 -19.60726,-0.312706 c -11.65852,-0.185935 -8.18364,-0.295494 8.57152,-0.270251 26.98129,0.04065 28.29867,0.131269 31,2.13239 7.70784,5.709903 7.22798,19.143041 -0.87198,24.410065 -1.89912,1.234906 -7.07849,1.511474 -29.3068,1.564922 -24.40468,0.05868 -25.22694,0.01062 -8.55424,-0.5 z M 361.07895,31.416667 c 0.048,-1.164943 0.28494,-1.4019 0.60416,-0.604167 0.28887,0.721875 0.25335,1.584375 -0.0789,1.916667 -0.33229,0.332291 -0.56864,-0.258334 -0.52522,-1.3125 z M 363,23.059017 c 0,-0.517541 0.44485,-1.215913 0.98855,-1.551938 0.56686,-0.350339 0.7345,0.05106 0.39301,0.940983 C 363.71677,24.180479 363,24.497449 363,23.059017 Z m 9.8125,-7.742131 c 0.72187,-0.288871 1.58438,-0.253344 1.91667,0.07895 0.33229,0.332292 -0.25834,0.568641 -1.3125,0.52522 -1.16495,-0.04798 -1.4019,-0.284941 -0.60417,-0.604167 z M 354,9.6224447 c 0,-0.2076554 0.7875,-0.9951554 1.75,-1.75 C 357.33606,6.6285741 357.37143,6.6639444 356.12756,8.25 354.82119,9.915748 354,10.445479 354,9.6224447 Z M 461.40499,7.75 459.5,5.5 l 2.25,1.9049876 c 1.2375,1.0477431 2.25,2.0602431 2.25,2.25 0,0.8002534 -0.80479,0.2094572 -2.59501,-1.9049876 z"
         id="path320" />
      <path
         style="fill:#fcbc00"
         d="M 118.66667,431.33333 C 118.3,430.96667 118,423.99167 118,415.83333 V 401 h 7.2899 c 10.21197,0 14.31634,-1.25928 55.48047,-17.02218 C 200.84672,376.29002 217.66144,370 218.13641,370 218.61138,370 219,383.95 219,401 v 31 h -49.83333 c -27.40834,0 -50.13334,-0.3 -50.5,-0.66667 z m 4.09499,-46.04059 c 1.24391,-0.23919 3.04391,-0.23011 4,0.0202 0.95609,0.25029 -0.0617,0.446 -2.26166,0.4349 -2.2,-0.0111 -2.98225,-0.21589 -1.73834,-0.45508 z M 313.25218,284.5 c 0.0111,-2.2 0.21589,-2.98225 0.45508,-1.73834 0.23919,1.24391 0.23011,3.04391 -0.0202,4 -0.25029,0.95609 -0.446,-0.0617 -0.4349,-2.26166 z M 95.877917,214.415 C 60.470063,189.89324 29.413138,167.79754 26.862528,165.31342 7.6859145,146.63676 13.439769,114.21994 37.997135,102.58181 43.976813,99.747947 45.344776,99.5 55,99.5 c 8.613508,0 11.329703,0.383658 15.118034,2.13539 7.051118,3.26047 180.456016,123.6793 178.816936,124.17716 -1.96345,0.59639 -70.66873,26.71363 -79.711,30.30089 -4.00182,1.58761 -7.65676,2.88656 -8.12208,2.88656 -0.46533,0 -29.81612,-20.06325 -65.223973,-44.585 z m -27.24135,-49.25207 c 2.124888,-1.0964 5.528725,-3.71909 7.564083,-5.8282 13.397423,-13.88284 9.528777,-37.02708 -7.65848,-45.81697 -7.82764,-4.0032 -18.538662,-4.27024 -25.54217,-0.63678 -17.033453,8.83703 -21.981731,29.37806 -10.651661,44.2166 8.071771,10.57128 24.398769,14.20008 36.288228,8.06535 z M 298.92431,251.25 296.5,248.5 l 2.75,2.42431 c 2.57029,2.26589 3.20859,3.07569 2.42431,3.07569 -0.17912,0 -1.41662,-1.2375 -2.75,-2.75 z M 265.25,238.31067 c 0.9625,-0.25152 2.5375,-0.25152 3.5,0 0.9625,0.25153 0.175,0.45733 -1.75,0.45733 -1.925,0 -2.7125,-0.2058 -1.75,-0.45733 z M 296.232,138 c 0,-1.925 0.2058,-2.7125 0.45733,-1.75 0.25152,0.9625 0.25152,2.5375 0,3.5 -0.25153,0.9625 -0.45733,0.175 -0.45733,-1.75 z"
         id="path318" />
      <path
         style="fill:#907102"
         d="m 130.75,400.33772 c 0.6875,-0.27741 1.8125,-0.27741 2.5,0 0.6875,0.27741 0.125,0.50439 -1.25,0.50439 -1.375,0 -1.9375,-0.22698 -1.25,-0.50439 z m -13,-15 c 0.6875,-0.27741 1.8125,-0.27741 2.5,0 0.6875,0.27741 0.125,0.50439 -1.25,0.50439 -1.375,0 -1.9375,-0.22698 -1.25,-0.50439 z m 11,0 c 0.6875,-0.27741 1.8125,-0.27741 2.5,0 0.6875,0.27741 0.125,0.50439 -1.25,0.50439 -1.375,0 -1.9375,-0.22698 -1.25,-0.50439 z M 90.437091,371.75 87.5,368.5 l 3.25,2.93709 c 1.7875,1.6154 3.25,3.0779 3.25,3.25 0,0.77256 -0.825128,0.0924 -3.562909,-2.93709 z M 78.078947,348.41667 c 0.04798,-1.16495 0.284941,-1.4019 0.604167,-0.60417 0.288871,0.72187 0.253344,1.58438 -0.07895,1.91667 -0.332292,0.33229 -0.568641,-0.25834 -0.52522,-1.3125 z M 77.252183,339.5 c 0.0111,-2.2 0.215885,-2.98225 0.455078,-1.73834 0.239193,1.24391 0.230112,3.04391 -0.02018,4 C 77.436788,342.71775 77.241084,341.7 77.252183,339.5 Z m 0.826764,-9.08333 c 0.04798,-1.16495 0.284941,-1.4019 0.604167,-0.60417 0.288871,0.72187 0.253344,1.58438 -0.07895,1.91667 -0.332292,0.33229 -0.568641,-0.25834 -0.52522,-1.3125 z M 262.75,320.29427 c 1.2375,-0.23836 3.2625,-0.23836 4.5,0 1.2375,0.23835 0.225,0.43337 -2.25,0.43337 -2.475,0 -3.4875,-0.19502 -2.25,-0.43337 z M 299,318.62244 c 0,-0.20765 0.7875,-0.99515 1.75,-1.75 1.58606,-1.24387 1.62143,-1.2085 0.37756,0.37756 C 299.82119,318.91575 299,319.44548 299,318.62244 Z M 238.94617,309.25 235.5,305.5 l 3.75,3.44617 c 3.49042,3.20761 4.20979,4.05383 3.44617,4.05383 -0.16711,0 -1.85461,-1.6875 -3.75,-3.75 z M 287,312.68709 c 0,-0.1721 1.4625,-1.6346 3.25,-3.25 l 3.25,-2.93709 -2.93709,3.25 C 287.82513,312.77946 287,313.45965 287,312.68709 Z M 313.15789,290 c 0,-1.375 0.22698,-1.9375 0.50439,-1.25 0.27741,0.6875 0.27741,1.8125 0,2.5 -0.27741,0.6875 -0.50439,0.125 -0.50439,-1.25 z m -83.84802,-5.5 c 0.006,-3.3 0.1923,-4.52944 0.41486,-2.73209 0.22256,1.79735 0.21797,4.49735 -0.0102,6 -0.22818,1.50265 -0.41027,0.0321 -0.40466,-3.26791 z m 70.96249,0.5 c 0,-2.475 0.19502,-3.4875 0.43337,-2.25 0.23836,1.2375 0.23836,3.2625 0,4.5 -0.23835,1.2375 -0.43337,0.225 -0.43337,-2.25 z m 12.88553,-6 c 0,-1.375 0.22698,-1.9375 0.50439,-1.25 0.27741,0.6875 0.27741,1.8125 0,2.5 -0.27741,0.6875 -0.50439,0.125 -0.50439,-1.25 z m -10.28545,-23.75 c -1.24387,-1.58606 -1.2085,-1.62143 0.37756,-0.37756 1.66575,1.30637 2.19548,2.12756 1.37244,2.12756 -0.20765,0 -0.99515,-0.7875 -1.75,-1.75 z M 259.75,249.33772 c 0.6875,-0.27741 1.8125,-0.27741 2.5,0 0.6875,0.27741 0.125,0.50439 -1.25,0.50439 -1.375,0 -1.9375,-0.22698 -1.25,-0.50439 z m 8,0 c 0.6875,-0.27741 1.8125,-0.27741 2.5,0 0.6875,0.27741 0.125,0.50439 -1.25,0.50439 -1.375,0 -1.9375,-0.22698 -1.25,-0.50439 z m -7,-11 c 0.6875,-0.27741 1.8125,-0.27741 2.5,0 0.6875,0.27741 0.125,0.50439 -1.25,0.50439 -1.375,0 -1.9375,-0.22698 -1.25,-0.50439 z m 10.51903,-0.0307 c 0.97297,-0.25354 2.32297,-0.23687 3,0.0371 0.67703,0.27393 -0.11903,0.48137 -1.76903,0.46099 -1.65,-0.0204 -2.20394,-0.2445 -1.23097,-0.49804 z M 25.946167,165.25 22.5,161.5 l 3.75,3.44617 C 29.740419,168.15378 30.459787,169 29.696167,169 c -0.167108,0 -1.854608,-1.6875 -3.75,-3.75 z m 163.707803,0 c -0.42134,-0.68095 41.55781,-0.67068 95.84603,0.0234 11.55,0.14768 -5.18594,0.37157 -37.19098,0.49753 -32.00504,0.12596 -58.39981,-0.10848 -58.65505,-0.52098 z M 34.404988,159.75 32.5,157.5 l 2.25,1.90499 C 36.864445,161.19521 37.455241,162 36.654988,162 c -0.189757,0 -1.202257,-1.0125 -2.25,-2.25 z M 15.078947,143.41667 c 0.04798,-1.16495 0.284941,-1.4019 0.604167,-0.60417 0.288871,0.72187 0.253344,1.58437 -0.07895,1.91667 -0.332292,0.33229 -0.568641,-0.25834 -0.52522,-1.3125 z M 26.286014,139.5 c 0.0075,-2.75 0.201713,-3.75631 0.431567,-2.23625 0.229855,1.52006 0.223712,3.77006 -0.01365,5 -0.237362,1.22994 -0.425424,-0.0137 -0.417917,-2.76375 z m -11.207067,-7.08333 c 0.04798,-1.16495 0.284941,-1.4019 0.604167,-0.60417 0.288871,0.72187 0.253344,1.58437 -0.07895,1.91667 -0.332292,0.33229 -0.568641,-0.25834 -0.52522,-1.3125 z M 31,122.62244 c 0,-0.20765 0.7875,-0.99515 1.75,-1.75 1.586056,-1.24387 1.621426,-1.2085 0.377555,0.37756 C 31.821186,122.91575 31,123.44548 31,122.62244 Z M 74.924314,118.25 72.5,115.5 l 2.75,2.42431 C 77.820289,120.1902 78.458588,121 77.674314,121 c -0.179127,0 -1.416627,-1.2375 -2.75,-2.75 z M 36,117.62244 c 0,-0.20765 0.7875,-0.99515 1.75,-1.75 1.586056,-1.24387 1.621426,-1.2085 0.377555,0.37756 C 36.821186,117.91575 36,118.44548 36,117.62244 Z m -14,-3 c 0,-0.20765 0.7875,-0.99515 1.75,-1.75 1.586056,-1.24387 1.621426,-1.2085 0.377555,0.37756 C 22.821186,114.91575 22,115.44548 22,114.62244 Z M 111.99984,110.75 c 9e-5,-0.4125 43.76266,-0.64344 97.25016,-0.51321 53.4875,0.13024 81.5,0.35464 62.25,0.49868 -91.90778,0.68771 -159.50031,0.69387 -159.50016,0.0145 z M 52.25,110.28375 c 1.5125,-0.22913 3.9875,-0.22913 5.5,0 1.5125,0.22912 0.275,0.41659 -2.75,0.41659 -3.025,0 -4.2625,-0.18747 -2.75,-0.41659 z M 28,108.62244 c 0,-0.20765 0.7875,-0.99515 1.75,-1.75 1.586056,-1.24387 1.621426,-1.2085 0.377555,0.37756 C 28.821186,108.91575 28,109.44548 28,108.62244 Z M 52.25,98.283746 c 1.5125,-0.229125 3.9875,-0.229125 5.5,0 1.5125,0.229124 0.275,0.41659 -2.75,0.41659 -3.025,0 -4.2625,-0.187466 -2.75,-0.41659 z m 353,-40.012214 c 2.0625,-0.215745 5.4375,-0.215745 7.5,0 2.0625,0.215744 0.375,0.392262 -3.75,0.392262 -4.125,0 -5.8125,-0.176518 -3.75,-0.392262 z"
         id="path316" />
      <path
         style="fill:#080807"
         d="m 37.634859,509.92742 c -3.643879,-2.86628 -3.643879,-7.98856 0,-10.85484 C 39.984536,497.22432 41.636505,497 52.897796,497 h 12.628078 l 7.903194,-29.25 c 4.346756,-16.0875 8.486791,-30.43297 9.200077,-31.87882 C 84.332908,432.41761 85.676255,432 95.081787,432 H 103 v -17.42669 -17.4267 l -5.25,-2.42808 C 83.192712,387.98589 72.503422,376.11753 66.452124,359.96838 63.959435,353.31612 63.645231,351.13405 63.576812,340 c -0.09243,-15.04214 1.751228,-22.06481 6.285778,-23.94308 3.626562,-1.50217 7.766397,0.0347 9.328478,3.46308 0.909217,1.99552 0.862305,3.70921 -0.212705,7.77008 -4.743293,17.91787 2.020611,37.62734 16.767894,48.8603 9.592883,7.30687 15.633893,9.2512 28.753743,9.25455 l 11,0.003 75,-28.78525 c 41.25,-15.83189 77.1871,-29.97214 79.86023,-31.42279 6.24476,-3.3889 14.46022,-11.61648 17.88794,-17.91434 14.82422,-27.23698 -0.6098,-61.08135 -31.13808,-68.28086 -10.21862,-2.40987 -18.57691,-0.9855 -38.11009,6.49448 -9.625,3.68578 -24.925,9.53345 -34,12.99484 -72.06006,27.48516 -98.38554,37.65419 -101.06265,39.03858 -4.62394,2.39113 -8.923637,2.20276 -11.101142,-0.48635 -2.121756,-2.62025 -2.392419,-6.92518 -0.586208,-9.3237 1.86399,-2.47524 16.19572,-8.83113 34.5,-15.30019 8.9375,-3.15868 16.25,-6.03996 16.25,-6.40286 0,-0.3629 -27.5625,-19.74388 -61.25,-43.06885 C 42.956397,196.09005 18.56631,178.55055 15.225846,175.11131 2.678151,162.19258 -2.6056626,141.36325 2.1402257,123.52645 5.2596451,111.80252 14.875466,98.496895 24.858319,92.090916 33.659427,86.443261 40.205465,84.699504 53,84.594437 66.150275,84.486448 74.75061,86.671386 84.657797,92.637182 L 90.242308,96 H 208.60174 326.96117 l 5.5059,-3.522087 c 5.84643,-3.739913 5.84798,-3.743003 7.45673,-14.903243 1.10418,-7.659898 2.14274,-9.237979 6.67644,-10.144719 2.39138,-0.478276 3.71264,-0.06489 5.95363,1.86273 l 2.88018,2.477422 -1.69449,12.261307 c -1.10218,7.975372 -2.26594,12.89275 -3.3293,14.067754 -0.89915,0.993546 -7.66146,5.464476 -15.02737,9.935396 -7.3659,4.47092 -14.80828,9.54467 -16.53861,11.275 -15.6318,15.63181 -2.40793,45.71554 20.14253,45.82339 7.21126,0.0345 11.24803,-1.6739 27.46667,-11.62408 C 373.1851,149.37899 379.65051,146 380.82104,146 c 1.17053,0 17.05934,5.175 35.30847,11.5 18.24912,6.325 34.70788,11.5 36.57502,11.5 3.79022,0 7.95824,-1.85282 10.45508,-4.64762 C 466.71357,160.3743 496.25183,101.47283 496.68514,97.5 497.91601,86.214751 483.33542,77.98451 474.08658,84.743885 472.46934,85.925814 467.37765,94.690705 460.5,108.13195 446.55954,135.37631 446.81108,135 442.54039,135 c -3.41392,0 -57.83807,-18.34014 -60.39457,-20.35208 -3.05245,-2.40226 -2.96444,-5.58939 0.90478,-32.763767 4.98137,-34.985252 4.72253,-33.657278 7.00518,-35.93993 C 391.88208,44.117918 393.58291,44 418.09887,44 c 21.89614,0 26.64402,-0.25869 29.48424,-1.606462 9.18742,-4.359715 10.39499,-18.656445 2.09504,-24.803603 -2.72365,-2.017202 -4.09676,-2.099896 -39.45544,-2.376161 -25.16313,-0.196605 -37.47181,0.06098 -39.31067,0.822659 -5.41572,2.243265 -7.93761,6.150787 -9.39826,14.562048 -1.00781,5.80359 -1.93769,8.326363 -3.55039,9.632247 -3.07672,2.491374 -6.62468,2.198887 -9.61632,-0.792748 -2.35029,-2.350293 -2.50734,-3.032077 -1.90042,-8.25 C 348.14768,16.563515 353.77209,7.6075329 364.22057,2.8858049 369.49086,0.50412971 369.56664,0.5 408,0.5 c 43.23202,0 45.15311,0.24192588 52.3707,6.5950995 6.35532,5.5941785 9.10313,12.3997005 9.04625,22.4049005 -0.0526,9.259115 -2.46913,15.485514 -8.2558,21.272184 C 454.00751,57.925823 451.34561,58.5 425.33479,58.5 c -12.74086,0 -23.39043,0.225 -23.6657,0.5 -1.01654,1.015516 -6.77585,44.28978 -5.9869,44.98424 1.02819,0.90504 42.43606,15.2415 42.81399,14.8233 0.15286,-0.16915 3.75174,-7.28254 7.99751,-15.80754 10.6308,-21.345365 13.88835,-26.47875 19.06156,-30.038016 6.51024,-4.479157 15.63061,-6.480394 22.77458,-4.997312 15.35212,3.187089 25.83882,18.611628 22.83214,33.583028 -1.43629,7.15179 -33.08317,68.6625 -37.88759,73.6405 -4.40369,4.5628 -11.91099,7.88708 -19.22181,8.51153 -5.85659,0.50024 -8.69925,-0.35753 -56.14371,-16.94128 l -15.59114,-5.44973 -11.18118,6.78214 c -6.14966,3.73018 -13.75864,7.82322 -16.90887,9.09564 L 348.5,179.5 l -67.75,0.2769 c -37.2625,0.15229 -67.72716,0.60229 -67.69923,1 0.0279,0.3977 13.86542,10.21293 30.75,21.81161 27.03848,18.57379 31.4147,21.24198 36.69923,22.37556 22.02394,4.72434 40.12901,22.05304 46.0924,44.11589 2.22547,8.23361 2.24695,22.35692 0.0468,30.79569 -3.685,14.13421 -15.08363,29.80578 -26.79164,36.83486 -2.94117,1.76578 -16.59759,7.51768 -30.34759,12.78201 -13.75,5.26432 -27.3625,10.50935 -30.25,11.65563 l -5.25,2.08414 V 397.61614 432 h 8.38922 c 6.51553,0 8.86265,0.39085 10.50898,1.75 1.61994,1.33736 4.08858,8.94172 10.46948,32.25 l 8.34972,30.5 12.8913,0.52739 c 7.09021,0.29006 13.6376,0.8849 14.54974,1.32185 4.71515,2.25876 4.19482,10.25751 -0.81576,12.54049 C 296.59741,511.68492 259.63326,512 168.08781,512 40.291883,512 40.26926,511.99964 37.634859,509.92742 Z M 256,496.02016 c 0,-0.53892 -2.43449,-9.87642 -5.40998,-20.75 -2.97548,-10.87359 -5.91783,-21.68266 -6.53854,-24.02016 L 242.92291,447 H 168.64012 94.357321 l -6.316769,23.25 c -3.474223,12.7875 -6.532104,24.0375 -6.795292,25 -0.453091,1.65699 4.17807,1.75 87.13811,1.75 C 224.92623,497 256,496.65249 256,496.02016 Z m -37,-95.62715 c 0,-29.70144 -0.10551,-31.56486 -1.75,-30.90818 -0.9625,0.38434 -18.66145,7.16041 -39.331,15.05793 -36.73465,14.03576 -44.77506,16.43316 -55.169,16.44969 L 118,401 v 15.5 15.5 h 50.5 50.5 z m -5.7455,-160.65504 37.7545,-14.4322 -86.7545,-60.07042 C 116.53953,132.19661 75.495994,104.02733 73.046654,102.63694 54.677583,92.209561 28.286558,101.04177 18.872449,120.76726 c -7.622054,15.97058 -3.26105,36.59361 9.990023,47.24246 2.174058,1.74712 32.681889,23.09864 67.79518,47.44782 L 160.5,259.72878 l 7.5,-2.7793 c 4.125,-1.52862 24.48953,-9.27379 45.2545,-17.21151 z M 45.765638,166.35836 c -5.942021,-2.058 -11.989054,-7.17708 -15.445769,-13.07552 -3.993926,-6.81512 -4.484326,-18.05958 -1.109152,-25.43193 4.998248,-10.91761 14.237618,-16.82438 26.342939,-16.84114 5.593594,-0.008 8.12696,0.52508 12.238863,2.57413 14.662621,7.30669 20.370218,25.15979 12.604839,39.42735 C 75.467553,162.06893 67.44534,167.08771 57,167.64888 c -4.258246,0.22877 -8.132812,-0.21631 -11.234362,-1.29052 z m 16.328244,-14.90691 c 8.490916,-4.39082 9.214077,-17.13105 1.32465,-23.33687 -6.743365,-5.30433 -17.025033,-2.51905 -20.608916,5.58291 -5.333756,12.05784 7.482382,23.85695 19.284266,17.75396 z M 306,165.53442 c 0,-0.25606 -1.52613,-3.29356 -3.39141,-6.75 -7.15857,-13.26515 -7.47083,-26.71269 -0.92216,-39.7135 2.09746,-4.164 3.96357,-7.90842 4.1469,-8.32092 0.18334,-0.4125 -43.35416,-0.75 -96.75,-0.75 -53.39583,0 -97.06477,0.3375 -97.04208,0.75 0.0227,0.4125 17.68518,12.97883 39.25,27.92517 l 39.20875,27.17517 57.75,0.0748 c 31.7625,0.0412 57.75,-0.13468 57.75,-0.39075 z m -51.67582,153.0844 C 239.77452,313.86624 230,300.35569 230,284.99743 c 0,-20.40337 14.74392,-35.17543 35.17024,-35.23734 6.47903,-0.0196 8.67677,0.44776 14.15125,3.00958 7.97481,3.73186 14.04413,9.64601 17.53055,17.08237 2.28546,4.87476 2.64652,6.94849 2.63743,15.14796 -0.0126,11.37202 -1.86595,16.28093 -9.04421,23.95506 -6.74623,7.21228 -13.70409,10.34226 -23.83702,10.72306 -4.96226,0.18649 -9.72845,-0.22452 -12.28406,-1.0593 z m 20.44012,-15.50921 c 4.00904,-2.18377 8.54047,-8.1551 9.7619,-12.86383 2.58455,-9.96368 -1.80465,-19.60476 -10.84057,-23.81184 -8.67423,-4.03868 -16.50559,-2.65029 -23.2961,4.13006 -14.21326,14.19198 -1.4938,37.91663 18.37477,34.27307 2.34536,-0.4301 5.04536,-1.20746 6,-1.72746 z m 58.69025,-159.56416 c -3.14962,-3.14962 -3.20824,-7.48877 -0.1401,-10.37114 4.7208,-4.43495 11.70074,-1.3992 11.67024,5.07569 -0.0179,3.81 -0.70046,5.03781 -3.66895,6.6003 -3.27096,1.7217 -5.14586,1.41049 -7.86119,-1.30485 z"
         id="path314" />
    </g>
  </g>
</svg>
