<?xml version="1.0" encoding="UTF-8" standalone="no"?>
<!-- Created with Inkscape (http://www.inkscape.org/) -->

<svg
   version="1.1"
   id="svg415"
   width="512"
   height="512"
   viewBox="0 0 512 512"
   xmlns="http://www.w3.org/2000/svg"
   xmlns:svg="http://www.w3.org/2000/svg">
  <defs
     id="defs419" />
  <g
     id="g421">
    <g
       id="g425">
      <path
         style="fill:#a9b1b8"
         d="M 8.2722759,452.15032 C 7.0470277,451.79264 5.0772558,450.66787 3.8950051,449.65081 1.9857017,448.0083 1.8007109,447.0583 2.2398232,441.15081 2.6811525,435.2135 4.5946468,430.31609 20.076313,395.5 39.431569,351.97275 41.349702,348.87158 50.326707,346.59223 l 4.740339,-1.20362 -4.039822,-3.24649 c -2.221902,-1.78557 -5.049487,-5.13551 -6.283523,-7.44431 L 42.5,330.5 V 198 65.5 l 2.220978,-4.153273 C 47.417307,56.304535 53.262657,51.303177 58,49.985022 c 2.216831,-0.616829 75.17414,-0.967861 199,-0.957483 187.49779,0.01571 195.66373,0.09149 199.5,1.851301 5.09166,2.335691 9.28547,6.529501 11.62116,11.62116 1.75031,3.815557 1.83492,10.063568 1.83492,135.5 0,149.06578 0.7885,135.65368 -8.45338,143.78871 -4.00098,3.5218 -4.42852,4.21129 -2.61137,4.21129 3.26325,0 9.26485,2.77677 12.31401,5.69735 1.77817,1.70319 8.97527,16.67896 21,43.69696 17.13905,38.50919 18.28772,41.46755 18.18477,46.8344 -0.1273,6.63628 -1.22843,8.35426 -6.24835,9.7486 -4.05801,1.12715 -492.017766,1.29741 -495.8694841,0.17301 z M 307,430.22451 c 0,-0.42652 -2.19912,-8.18902 -4.88694,-17.25 L 297.22611,396.5 h -45.27534 -45.27534 l -4.74932,14.20928 c -2.61212,7.8151 -5.04985,15.5776 -5.41717,17.25 L 195.84109,431 h 55.57945 C 281.98925,431 307,430.65103 307,430.22451 Z M 345,265.5 V 257 h -55 -55 v 8.5 8.5 h 55 55 z M 341,129 v -9 h -77 -77 v 9 9 h 77 77 z"
         id="path439" />
      <path
         style="fill:#eec65c"
         d="M 59.640066,345.37321 C 53.22712,343.39673 45.464179,335.7931 44.316773,330.36439 43.867548,328.23898 43.5,268.225 43.5,197 43.5,93.237079 43.758573,66.770678 44.801049,63.830305 46.499482,59.039762 53.765187,52.409589 58.803092,51.053022 61.591458,50.302193 121.45163,50.058168 258.22227,50.240072 L 453.65709,50.5 l 4.92146,3.040972 c 3.14852,1.945474 5.82206,4.647317 7.42145,7.5 L 468.5,65.5 v 132.57842 132.57842 l -3,4.8155 c -2.08684,3.34973 -4.67412,5.76094 -8.5,7.92158 L 451.5,346.5 258,346.68552 C 88.595593,346.84795 63.894817,346.68453 59.640066,345.37321 Z M 347.78355,265.77747 c 0.27623,-10.44541 0.22454,-10.73684 -2,-11.27659 C 344.5276,254.19614 318.75,254.07128 288.5,254.22341 l -55,0.27659 -0.28837,9.92882 c -0.1586,5.46085 -0.0588,10.52707 0.22179,11.25827 0.41772,1.08856 10.79812,1.28265 57.28837,1.07118 L 347.5,276.5 Z m -5.71781,-125.81265 c 1.69941,-0.9095 1.9324,-2.15404 1.91895,-10.25 -0.008,-5.06815 -0.37419,-9.78008 -0.81281,-10.47096 -0.63128,-0.99432 -17.14638,-1.20275 -79.23469,-1 L 185.5,118.5 l -0.28684,10.41821 c -0.21094,7.66142 0.0537,10.63427 1,11.23469 1.96711,1.24809 153.51078,1.06521 155.85258,-0.18808 z"
         id="path437" />
      <path
         style="fill:#4ec8b8"
         d="M 59.640066,345.37321 C 53.22712,343.39673 45.464179,335.7931 44.316773,330.36439 43.867548,328.23898 43.5,268.225 43.5,197 43.5,93.237079 43.758573,66.770678 44.801049,63.830305 46.499482,59.039762 53.765187,52.409589 58.803092,51.053022 61.591458,50.302193 121.45163,50.058168 258.22227,50.240072 L 453.65709,50.5 l 4.92146,3.040972 c 3.14852,1.945474 5.82206,4.647317 7.42145,7.5 L 468.5,65.5 v 132.57842 132.57842 l -3,4.8155 c -2.08684,3.34973 -4.67412,5.76094 -8.5,7.92158 L 451.5,346.5 258,346.68552 C 88.595593,346.84795 63.894817,346.68453 59.640066,345.37321 Z M 347.78355,265.77747 c 0.27623,-10.44541 0.22454,-10.73684 -2,-11.27659 C 344.5276,254.19614 318.75,254.07128 288.5,254.22341 l -55,0.27659 -0.28837,9.92882 c -0.1586,5.46085 -0.0588,10.52707 0.22179,11.25827 0.41772,1.08856 10.79812,1.28265 57.28837,1.07118 L 347.5,276.5 Z M 143.78383,197.25 143.5,186.5 H 114 84.5 L 84.216168,197.25 83.932337,208 H 114 144.06766 Z m 198.28191,-57.28518 c 1.69941,-0.9095 1.9324,-2.15404 1.91895,-10.25 -0.008,-5.06815 -0.37419,-9.78008 -0.81281,-10.47096 -0.63128,-0.99432 -17.14638,-1.20275 -79.23469,-1 L 185.5,118.5 l -0.28684,10.41821 c -0.21094,7.66142 0.0537,10.63427 1,11.23469 1.96711,1.24809 153.51078,1.06521 155.85258,-0.18808 z M 430.5,129 V 118.5 H 399 367.5 l -0.28984,9.42498 c -0.15941,5.18374 -0.0586,10.02767 0.22409,10.76429 0.4173,1.08746 6.39499,1.2896 31.78985,1.07501 L 430.5,139.5 Z"
         id="path435" />
      <path
         style="fill:#f06d58"
         d="M 59.640066,345.37321 C 53.22712,343.39673 45.464179,335.7931 44.316773,330.36439 43.867548,328.23898 43.5,268.225 43.5,197 43.5,93.237079 43.758573,66.770678 44.801049,63.830305 46.499482,59.039762 53.765187,52.409589 58.803092,51.053022 61.591458,50.302193 121.45163,50.058168 258.22227,50.240072 L 453.65709,50.5 l 4.92146,3.040972 c 3.14852,1.945474 5.82206,4.647317 7.42145,7.5 L 468.5,65.5 v 132.57842 132.57842 l -3,4.8155 c -2.08684,3.34973 -4.67412,5.76094 -8.5,7.92158 L 451.5,346.5 258,346.68552 C 88.595593,346.84795 63.894817,346.68453 59.640066,345.37321 Z M 347.78355,265.77747 c 0.27623,-10.44541 0.22454,-10.73684 -2,-11.27659 C 344.5276,254.19614 318.75,254.07128 288.5,254.22341 l -55,0.27659 -0.28837,9.92882 c -0.1586,5.46085 -0.0588,10.52707 0.22179,11.25827 0.41772,1.08856 10.79812,1.28265 57.28837,1.07118 L 347.5,276.5 Z M 143.78383,197.25 143.5,186.5 H 114 84.5 L 84.216168,197.25 83.932337,208 H 114 144.06766 Z m 173.00503,0.89928 c 0.18643,-6.03498 -0.12294,-9.84689 -0.87245,-10.75 C 314.94103,186.22401 303.26115,186 242.95934,186 c -39.48767,0 -72.50757,0.27314 -73.37755,0.60699 -1.29236,0.49592 -1.58179,2.38667 -1.58179,10.33333 0,5.34949 0.30288,10.02923 0.67307,10.39942 0.37019,0.37018 33.78269,0.55768 74.25,0.41666 L 316.5,207.5 Z m 112.60415,8.26893 c 1.12389,-2.9288 0.65991,-17.96529 -0.59301,-19.21821 -0.89635,-0.89635 -12.14774,-1.2 -44.46482,-1.2 -41.7512,0 -43.30103,0.0677 -44.3,1.93426 -1.11188,2.07756 -1.43138,15.86968 -0.42819,18.48395 C 340.14784,207.82765 345.03943,208 384.5,208 c 39.46057,0 44.35216,-0.17235 44.89301,-1.58179 z m -87.32727,-66.45339 c 1.69941,-0.9095 1.9324,-2.15404 1.91895,-10.25 -0.008,-5.06815 -0.37419,-9.78008 -0.81281,-10.47096 -0.63128,-0.99432 -17.14638,-1.20275 -79.23469,-1 L 185.5,118.5 l -0.28684,10.41821 c -0.21094,7.66142 0.0537,10.63427 1,11.23469 1.96711,1.24809 153.51078,1.06521 155.85258,-0.18808 z M 430.5,129 V 118.5 H 399 367.5 l -0.28984,9.42498 c -0.15941,5.18374 -0.0586,10.02767 0.22409,10.76429 0.4173,1.08746 6.39499,1.2896 31.78985,1.07501 L 430.5,139.5 Z"
         id="path433" />
      <path
         style="fill:#577a85"
         d="M 59.640066,345.37321 C 53.22712,343.39673 45.464179,335.7931 44.316773,330.36439 43.867548,328.23898 43.5,268.225 43.5,197 43.5,93.237079 43.758573,66.770678 44.801049,63.830305 46.499482,59.039762 53.765187,52.409589 58.803092,51.053022 61.591458,50.302193 121.45163,50.058168 258.22227,50.240072 L 453.65709,50.5 l 4.92146,3.040972 c 3.14852,1.945474 5.82206,4.647317 7.42145,7.5 L 468.5,65.5 v 132.57842 132.57842 l -3,4.8155 c -2.08684,3.34973 -4.67412,5.76094 -8.5,7.92158 L 451.5,346.5 258,346.68552 C 88.595593,346.84795 63.894817,346.68453 59.640066,345.37321 Z M 208.78355,265.77747 c 0.27623,-10.44549 0.22456,-10.73683 -2,-11.27624 C 205.5276,254.19669 177.5,254.07183 144.5,254.22376 l -60,0.27624 -0.288369,9.92882 c -0.158603,5.46085 -0.05891,10.52679 0.221547,11.25764 0.417934,1.08912 11.653733,1.28234 62.288372,1.07118 L 208.5,276.5 Z m 139,0 c 0.27623,-10.44541 0.22454,-10.73684 -2,-11.27659 C 344.5276,254.19614 318.75,254.07128 288.5,254.22341 l -55,0.27659 -0.28837,9.92882 c -0.1586,5.46085 -0.0588,10.52707 0.22179,11.25827 0.41772,1.08856 10.79812,1.28265 57.28837,1.07118 L 347.5,276.5 Z M 428.8,275.8 c 1.62796,-1.62796 1.62796,-18.97204 0,-20.6 -0.87561,-0.87561 -8.69294,-1.2 -28.91821,-1.2 -15.24502,0 -28.43002,0.27314 -29.3,0.60699 -1.2997,0.49874 -1.58179,2.43073 -1.58179,10.83333 0,5.62449 0.3,10.52635 0.66667,10.89301 0.36666,0.36667 13.55166,0.66667 29.3,0.66667 20.93703,0 28.95588,-0.32255 29.83333,-1.2 z M 142.78684,208.1529 c 0.94633,-0.60042 1.21094,-3.57327 1,-11.23469 L 143.5,186.5 H 114 84.5 l -0.28684,10.41821 c -0.210939,7.66142 0.05367,10.63427 1,11.23469 0.707762,0.44906 13.66184,0.81647 28.78684,0.81647 15.125,0 28.07908,-0.36741 28.78684,-0.81647 z m 174.00202,-10.00362 c 0.18643,-6.03498 -0.12294,-9.84689 -0.87245,-10.75 C 314.94103,186.22401 303.26115,186 242.95934,186 c -39.48767,0 -72.50757,0.27314 -73.37755,0.60699 -1.29236,0.49592 -1.58179,2.38667 -1.58179,10.33333 0,5.34949 0.30288,10.02923 0.67307,10.39942 0.37019,0.37018 33.78269,0.55768 74.25,0.41666 L 316.5,207.5 Z m 112.60415,8.26893 c 1.12389,-2.9288 0.65991,-17.96529 -0.59301,-19.21821 -0.89635,-0.89635 -12.14774,-1.2 -44.46482,-1.2 -41.7512,0 -43.30103,0.0677 -44.3,1.93426 -1.11188,2.07756 -1.43138,15.86968 -0.42819,18.48395 C 340.14784,207.82765 345.03943,208 384.5,208 c 39.46057,0 44.35216,-0.17235 44.89301,-1.58179 z m -87.32727,-66.45339 c 1.69941,-0.9095 1.9324,-2.15404 1.91895,-10.25 -0.008,-5.06815 -0.37419,-9.78008 -0.81281,-10.47096 -0.63128,-0.99432 -17.14638,-1.20275 -79.23469,-1 L 185.5,118.5 l -0.28684,10.41821 c -0.21094,7.66142 0.0537,10.63427 1,11.23469 1.96711,1.24809 153.51078,1.06521 155.85258,-0.18808 z M 161.78383,129.25 161.5,118.5 l -39,-0.26362 c -35.776513,-0.24183 -39.103317,-0.12272 -40.25,1.44113 -1.289529,1.75866 -1.771314,15.80039 -0.643011,18.7407 C 82.146459,139.82405 86.655252,140 122.14082,140 h 39.92684 z M 430.5,129 V 118.5 H 399 367.5 l -0.28984,9.42498 c -0.15941,5.18374 -0.0586,10.02767 0.22409,10.76429 0.4173,1.08746 6.39499,1.2896 31.78985,1.07501 L 430.5,139.5 Z"
         id="path431" />
      <path
         style="fill:#3e5769"
         d="m 58.5,343.79345 c -4.797182,-1.67687 -9.343737,-5.58244 -11.759231,-10.10138 L 44.5,329.5 V 198 c 0,-126.219585 0.07473,-131.650338 1.861053,-135.243914 2.425834,-4.880093 7.628213,-9.381482 12.361613,-10.695958 5.278941,-1.465974 389.275724,-1.465974 394.554664,0 4.91571,1.365104 10.56739,6.389798 12.85769,11.431295 1.73112,3.810605 1.82187,10.40421 1.83744,133.508577 0.0111,87.34602 -0.32507,130.72957 -1.03259,133.27733 -1.3651,4.91571 -6.3898,10.56739 -11.43129,12.85769 -3.83481,1.74211 -12.4617,1.81859 -199.00858,1.76407 -133.3159,-0.039 -195.948986,-0.38871 -198,-1.10564 z m 149.91821,-66.40044 c 1.308,-0.50192 1.58179,-2.48639 1.58179,-11.46482 0,-9.71135 -0.20424,-10.96713 -1.93426,-11.89301 -2.66986,-1.42886 -120.461623,-1.42886 -123.131481,0 C 83.20384,254.96128 83,256.2171 83,265.95185 c 0,7.76951 0.357484,11.02573 1.25,11.38587 1.801764,0.72703 122.27789,0.78067 124.16821,0.0553 z M 348.5,265.5 v -12 l -57.3876,-0.25825 c -41.55249,-0.18699 -57.76352,0.0538 -58.75,0.87245 -0.9802,0.81349 -1.3624,3.87876 -1.3624,10.92646 0,5.38767 0.27453,10.51117 0.61006,11.38556 0.5495,1.43197 6.38197,1.56419 58.75,1.33179 L 348.5,277.5 Z m 80.92857,10.92857 c 1.2029,-1.2029 1.56784,-3.72398 1.55612,-10.75 -0.008,-5.04821 -0.44154,-9.85357 -0.96249,-10.67857 -0.79845,-1.26448 -5.42541,-1.54614 -29.46853,-1.79383 -19.04132,-0.19617 -29.19149,0.0648 -30.53751,0.78518 C 368.19273,254.96722 368,256.066 368,265.48549 c 0,8.86421 0.26059,10.56691 1.75,11.43441 1.07268,0.62478 12.65626,1.03105 29.92857,1.04969 24.31076,0.0262 28.39427,-0.18529 29.75,-1.54102 z M 144.8,208.8 c 1.64034,-1.64034 1.64034,-20.95966 0,-22.6 -1.71408,-1.71408 -59.885924,-1.71408 -61.6,0 -1.640336,1.64034 -1.640336,20.95966 0,22.6 1.714076,1.71408 59.88592,1.71408 61.6,0 z m 172.11246,-0.19452 c 0.76194,-0.91808 1.06001,-5.10324 0.87244,-12.25 L 317.5,185.5 h -75 -75 l -0.28572,10.93573 c -0.15714,6.01466 -0.0588,11.52716 0.21862,12.25 0.77306,2.01457 147.80653,1.93563 149.47956,-0.0803 z m 113,0 c 0.76194,-0.91808 1.06001,-5.10324 0.87244,-12.25 L 430.5,185.5 385.61498,185.23961 c -32.3079,-0.18743 -45.26749,0.057 -46.25,0.87244 -1.7996,1.49354 -1.94081,20.91212 -0.16498,22.68795 1.89626,1.89626 89.13252,1.7092 90.71246,-0.19452 z m -86,-68 c 0.76194,-0.91808 1.06001,-5.10324 0.87244,-12.25 L 344.5,117.5 264.56274,117.24397 c -63.28842,-0.2027 -80.10334,0.006 -80.73468,1 -1.17062,1.84384 -1.00245,19.56167 0.20712,21.82177 1.01002,1.88724 2.95187,1.93426 79.87756,1.93426 66.21161,0 79.02778,-0.22341 79.99972,-1.39452 z m 87,0 c 0.76194,-0.91808 1.06001,-5.10324 0.87244,-12.25 L 431.5,117.5 H 399 366.5 l -0.28434,11.41976 c -0.21073,8.46341 0.0481,11.63073 1,12.23469 0.70639,0.44821 15.06674,0.82182 31.9119,0.83024 24.98879,0.0125 30.84063,-0.24143 31.7849,-1.37921 z M 162.5,129 V 117.5 H 122 81.5 l -0.286997,10.4324 c -0.157848,5.73781 -0.05751,11.03043 0.222978,11.76136 0.414781,1.08091 8.028133,1.28019 40.786999,1.06761 L 162.5,140.5 Z"
         id="path429" />
      <path
         style="fill:#32495d"
         d="M 58.211408,342.87122 C 52.810698,341.3137 47.370849,335.04751 46.032597,328.84239 45.18725,324.92275 44.96291,289.10199 45.190204,194.33586 L 45.5,65.171728 48.513375,60.835864 C 50.275002,58.301107 53.374652,55.565356 55.975265,54.25 L 60.42378,52 255.96189,52.02196 c 187.9684,0.02111 195.69296,0.09343 199.53811,1.868081 4.84098,2.234255 7.8876,5.400024 9.95227,10.341486 1.37049,3.280038 1.54521,18.623669 1.52577,133.986353 -0.0209,124.23561 -0.10716,130.46968 -1.8577,134.32349 -2.24025,4.93188 -6.92692,9.03308 -11.90139,10.41462 -4.89303,1.35893 -390.288312,1.27622 -395.007542,-0.0848 z M 445.75391,198.87569 c 0.212,-103.220304 0.0295,-123.810537 -1.10561,-124.752611 -1.00118,-0.83091 -51.01512,-1.061718 -189.75391,-0.875689 L 66.5,73.5 66.246109,198.25258 65.992219,323.00517 255.74611,322.75258 445.5,322.5 Z"
         id="path427" />
    </g>
  </g>
</svg>
