<?xml version="1.0" encoding="UTF-8" standalone="no"?>
<!-- Created with Inkscape (http://www.inkscape.org/) -->

<svg
   version="1.1"
   id="svg4789"
   width="512"
   height="512"
   viewBox="0 0 512 512"
   xmlns="http://www.w3.org/2000/svg"
   xmlns:svg="http://www.w3.org/2000/svg">
  <defs
     id="defs4793" />
  <g
     id="g4795">
    <g
       id="g4799">
      <path
         style="fill:#fdde7b"
         d="M 244,510.57229 C 231.079,506.98637 222.46092,497.83623 218.03098,483 l -1.64225,-5.5 -9.44436,-0.53812 c -10.4971,-0.5981 -14.11526,-2.00331 -18.47679,-7.17596 -4.77296,-5.6606 -5.63716,-9.03756 -5.36217,-20.95347 l 0.25114,-10.88298 -3.62945,-3.72474 c -5.4343,-5.57697 -6.73055,-9.62561 -6.70514,-20.94261 0.0168,-7.49195 0.47361,-10.77712 1.95111,-14.03212 1.90553,-4.19797 1.90553,-4.30203 0,-8.5 -1.44528,-3.18402 -1.93465,-6.53264 -1.95111,-13.35078 -0.0251,-10.40509 1.01044,-14.34146 5.17906,-19.68692 l 2.95381,-3.78769 -0.32741,-18.71231 C 180.41368,311.56666 180.3954,311.52698 165.19934,301.29771 128.40931,276.53242 104.56622,241.92964 94.366417,198.5 c -2.66341,-11.34051 -2.817854,-13.26402 -2.810249,-35 0.007,-20.00821 0.2963,-24.32 2.224041,-33.14776 C 104.85273,79.647471 136.81249,38.275101 182.5,15.50316 202.18499,5.6916096 213.65549,2.3866281 235.04521,0.36337491 c 6.35491,-0.60111059 6.63615,-0.52816884 9.67308,2.50875699 C 247.69891,5.8527591 248.22139,6 255.81732,6 263.29384,6 263.98778,5.8138352 267,3 c 2.13482,-1.9942181 4.24825,-3 6.30386,-3 7.46069,0 21.0724,2.4503342 31.69614,5.7058331 47.84694,14.6620299 86.17422,50.4030109 105.07603,97.9855769 4.05501,10.20788 8.90343,29.22772 9.19245,36.06096 0.21833,5.16196 0.0259,5.65261 -3.37608,8.61075 l -3.6076,3.13688 0.48852,8.29202 c 0.46105,7.82581 0.64373,8.37229 3.24918,9.71962 3.90194,2.01777 4.8479,5.62143 3.80317,14.48836 -2.91587,24.74789 -14.0263,53.23425 -29.14383,74.72273 -9.51395,13.5234 -28.82766,32.262 -43.33232,42.042 C 330.93041,311.83558 331,311.68681 331,335.71524 v 18.08378 l 3.44055,5.11264 c 1.99183,2.95984 3.72847,7.03261 4.12432,9.67237 1.05727,7.05037 0.003,19.47486 -1.9749,23.26886 -1.68664,3.23566 -1.67506,3.52183 0.33115,8.18538 1.54318,3.58722 2.07888,6.94517 2.07888,13.03109 0,10.44567 -1.38194,14.94691 -6.30655,20.54156 l -3.95452,4.49257 -0.11946,11.69825 c -0.10722,10.49865 -0.37583,12.15516 -2.61947,16.15386 -1.375,2.45057 -4.44982,5.82557 -6.83294,7.5 -4.00248,2.81221 -5.08964,3.07062 -14.25451,3.38825 -9.81288,0.34008 -9.92795,0.37294 -10.5058,3 -3.59491,16.34356 -12.9931,27.07412 -26.88049,30.69133 -6.7115,1.74812 -17.30087,1.76483 -23.52626,0.0371 z m 66.39301,-53.15408 c 1.08379,-2.8243 0.64924,-13.97596 -0.59301,-15.21821 -0.90269,-0.90269 -14.13738,-1.2 -53.41821,-1.2 -28.72002,0 -52.93002,0.27314 -53.8,0.60699 -1.25353,0.48102 -1.58179,2.21041 -1.58179,8.33333 0,4.24949 0.3,8.02635 0.66667,8.39301 C 202.03333,458.7 226.51019,459 256.05968,459 c 48.06891,0 53.79026,-0.16656 54.33333,-1.58179 z m 9.03556,-35.98964 C 320.55319,420.30395 321,417.89714 321,412.96376 c 0,-5.79184 -0.30909,-7.05881 -1.93426,-7.92858 C 316.11618,403.45663 193.78445,403.61555 192.2,405.2 c -0.71265,0.71265 -1.2,4.14451 -1.2,8.45031 0,5.85009 0.33797,7.44716 1.75,8.26959 1.13577,0.66152 23.39857,1.02996 63.42857,1.04969 54.76454,0.027 61.85473,-0.14574 63.25,-1.54102 z m 0.49466,-36.83607 c 0.72425,-0.87267 1.05577,-4.19756 0.87245,-8.75 L 320.5,368.5 H 256 191.5 l -0.29568,7.3425 c -0.18332,4.55244 0.1482,7.87733 0.87245,8.75 1.74652,2.10443 126.09994,2.10443 127.84646,0 z M 43.913343,222.7182 C 39.652759,219.44702 38.953351,214.31749 42.25,210.51905 44.789741,207.59273 68.552196,198 73.261335,198 c 6.332113,0 10.137421,8.84437 5.988665,13.91896 -2.015069,2.46476 -26.805123,12.09797 -31.007438,12.04924 -1.508409,-0.0175 -3.456558,-0.58 -4.329219,-1.25 z M 447.57746,219.00437 C 432.96546,213.4581 430.6,211.70091 430.6,206.39263 430.6,202.02916 434.55392,198 438.8359,198 c 1.4984,0 8.5608,2.24465 15.69423,4.98812 17.44675,6.70989 20.86243,10.8266 14.88098,17.93515 -3.55291,4.2224 -6.28714,3.98209 -21.83365,-1.9189 z M 33.30236,166.98821 C 31.030627,166.07335 28,161.25921 28,158.56544 c 0,-0.84364 1.313087,-3.00349 2.917971,-4.79966 L 33.835942,150.5 h 15.508699 c 14.188847,0 15.748975,0.17862 18.332029,2.0989 4.767317,3.54408 4.410296,11.27053 -0.641497,13.88291 -2.24376,1.16029 -6.306833,1.50325 -17.235513,1.4548 -7.864813,-0.0349 -15.288598,-0.46164 -16.4973,-0.9484 z m 411.5537,-0.50461 c -3.15499,-1.71396 -5.13321,-6.63001 -3.93185,-9.77102 0.46545,-1.21692 1.84515,-3.11258 3.06601,-4.21258 2.02202,-1.82184 3.62634,-2 18.00978,-2 14.38344,0 15.98776,0.17816 18.00978,2 4.84584,4.36611 4.32212,11.24277 -1.06854,14.03038 -3.98123,2.05878 -30.27578,2.02268 -34.08518,-0.0468 z M 57.5,115.53917 c -8.090698,-3.15126 -14.738663,-6.36204 -15.75,-7.60681 -3.648456,-4.49058 -0.768611,-12.110451 5.060915,-13.39083 3.405836,-0.748047 28.449917,8.41543 31.926851,11.68184 3.077793,2.89144 3.083916,8.66103 0.01223,11.52819 -4.088121,3.81591 -6.38718,3.57655 -21.25,-2.21239 z m 377.35606,3.98485 c -3.73197,-2.08446 -5.19772,-6.77054 -3.43633,-10.98614 1.25153,-2.99535 2.57607,-3.7659 14.72774,-8.567847 7.34389,-2.902069 15.00409,-5.30981 17.02266,-5.350534 6.65136,-0.134191 10.51232,6.226321 7.41513,12.215621 -1.30889,2.53112 -3.54489,3.76051 -14.81342,8.14466 -15.68787,6.10355 -17.44177,6.48461 -20.91578,4.54424 z"
         id="path4813" />
      <path
         style="fill:#fdc14f"
         d="M 244,510.57229 C 231.079,506.98637 222.46092,497.83623 218.03098,483 l -1.64225,-5.5 -9.44436,-0.53812 c -10.4971,-0.5981 -14.11526,-2.00331 -18.47679,-7.17596 -4.77296,-5.6606 -5.63716,-9.03756 -5.36217,-20.95347 l 0.25114,-10.88298 -3.62945,-3.72474 c -5.4343,-5.57697 -6.73055,-9.62561 -6.70514,-20.94261 0.0168,-7.49195 0.47361,-10.77712 1.95111,-14.03212 1.90553,-4.19797 1.90553,-4.30203 0,-8.5 -1.44528,-3.18402 -1.93465,-6.53264 -1.95111,-13.35078 -0.0251,-10.40509 1.01044,-14.34146 5.17906,-19.68692 l 2.95381,-3.78769 -0.32741,-18.71231 C 180.41368,311.56666 180.3954,311.52698 165.19934,301.29771 128.40931,276.53242 104.56622,241.92964 94.366417,198.5 c -2.66341,-11.34051 -2.817854,-13.26402 -2.810249,-35 0.007,-20.00821 0.2963,-24.32 2.224041,-33.14776 C 104.85273,79.647471 136.81249,38.275101 182.5,15.50316 202.02867,5.7695201 212.88045,2.6169286 234.58763,0.37097686 241.50884,-0.34513181 245.56686,1.426035 246.62015,5.6227056 247.19242,7.9027858 247.58042,8 256.10841,8 264.22887,8 265,7.832453 265,6.0680942 265,3.5534937 270.03763,0 273.60247,0 280.77803,0 294.54349,2.5015795 305,5.7058331 359.73432,22.478405 401.58979,66.611638 416.08726,122.83842 c 3.95109,15.32386 4.18639,21.17539 0.98843,24.58035 -1.68214,1.79101 -3.46257,2.58123 -5.81575,2.58123 -6.77676,0 -8.03405,-1.8568 -10.74924,-15.87475 C 394.93267,105.32701 381.50485,80.362885 360.06842,58.9376 335.96427,34.845996 310.83658,22.500097 273.70578,16.505356 c -2.08683,-0.336916 -5.21724,-1.884035 -6.95647,-3.438041 l -3.16225,-2.825467 -6.57835,1.822955 c -51.7274,14.334396 -91.95499,52.604276 -108.41574,103.139607 -5.60485,17.20717 -7.10089,27.68982 -7.03523,49.29559 0.0636,20.93084 1.66471,31.32076 7.53745,48.91198 10.89239,32.62709 34.50006,62.93314 63.40481,81.39515 3.85,2.45907 8.6875,6.07477 10.75,8.0349 l 3.75,3.56387 -0.004,-9.45295 C 226.992,286.18703 226.9448,286.0773 216.4645,272.34201 207.18615,260.18162 207,259.25011 207,224.97901 v -28.65798 l -2.55196,-1.16275 c -2.89446,-1.3188 -5.73746,-7.13858 -4.81296,-9.85238 0.33836,-0.99325 2.11818,-3.3809 3.95515,-5.3059 1.83697,-1.925 4.67104,-4.9625 6.29793,-6.75 4.57762,-5.02951 11.80041,-3.82952 14.15021,2.35091 L 224.9505,178 h 30.95736 c 29.94274,0 30.9779,-0.0647 31.58386,-1.97391 C 288.40504,173.14847 292.85039,170 296,170 c 2.8538,0 8,3.36188 8,5.22619 0,0.59457 1.8,2.74278 4,4.77381 5.05441,4.66621 5.55311,9.65612 1.35398,13.54775 -1.45532,1.34874 -3.00599,2.45225 -3.44594,2.45225 -0.43996,0 -0.93675,13.6125 -1.10398,30.25 -0.35496,35.31363 0.11566,33.39199 -12.17308,49.70543 -9.03392,11.99263 -8.8744,11.08394 -8.43449,48.04457 l 0.30351,25.5 14.25,0.27746 14.25,0.27745 0.008,-13.77745 c 0.016,-29.10431 3.40264,-36.05411 24.32604,-49.91952 13.43831,-8.90521 32.05298,-27.38669 40.59514,-40.30465 13.72579,-20.75695 22.12532,-43.2488 24.66087,-66.03567 0.57755,-5.19041 1.27291,-7.03398 3.48893,-9.25 3.11034,-3.11034 5.69918,-3.45105 9.86271,-1.298 3.98355,2.05997 4.93458,5.61745 3.88443,14.53038 -2.91587,24.74789 -14.0263,53.23425 -29.14383,74.72273 -9.51395,13.5234 -28.82766,32.262 -43.33232,42.042 C 330.93041,311.83558 331,311.68681 331,335.71524 v 18.08378 l 3.44055,5.11264 c 1.99183,2.95984 3.72847,7.03261 4.12432,9.67237 1.05727,7.05037 0.003,19.47486 -1.9749,23.26886 -1.68664,3.23566 -1.67506,3.52183 0.33115,8.18538 1.54318,3.58722 2.07888,6.94517 2.07888,13.03109 0,10.44567 -1.38194,14.94691 -6.30655,20.54156 l -3.95452,4.49257 -0.11946,11.69825 c -0.10722,10.49865 -0.37583,12.15516 -2.61947,16.15386 -1.375,2.45057 -4.44982,5.82557 -6.83294,7.5 -4.00248,2.81221 -5.08964,3.07062 -14.25451,3.38825 -9.81288,0.34008 -9.92795,0.37294 -10.5058,3 -3.59491,16.34356 -12.9931,27.07412 -26.88049,30.69133 -6.7115,1.74812 -17.30087,1.76483 -23.52626,0.0371 z m 66.39301,-53.15408 c 1.08379,-2.8243 0.64924,-13.97596 -0.59301,-15.21821 -0.90269,-0.90269 -14.13738,-1.2 -53.41821,-1.2 -28.72002,0 -52.93002,0.27314 -53.8,0.60699 -1.25353,0.48102 -1.58179,2.21041 -1.58179,8.33333 0,4.24949 0.3,8.02635 0.66667,8.39301 C 202.03333,458.7 226.51019,459 256.05968,459 c 48.06891,0 53.79026,-0.16656 54.33333,-1.58179 z m 9.03556,-35.98964 C 320.55319,420.30395 321,417.89714 321,412.96376 c 0,-5.79184 -0.30909,-7.05881 -1.93426,-7.92858 C 316.11618,403.45663 193.78445,403.61555 192.2,405.2 c -0.71265,0.71265 -1.2,4.14451 -1.2,8.45031 0,5.85009 0.33797,7.44716 1.75,8.26959 1.13577,0.66152 23.39857,1.02996 63.42857,1.04969 54.76454,0.027 61.85473,-0.14574 63.25,-1.54102 z m 0.49466,-36.83607 c 0.72425,-0.87267 1.05577,-4.19756 0.87245,-8.75 L 320.5,368.5 H 256 191.5 l -0.29568,7.3425 c -0.18332,4.55244 0.1482,7.87733 0.87245,8.75 1.74652,2.10443 126.09994,2.10443 127.84646,0 z M 267,315.5 c 0.57363,-39.00708 -0.39205,-34.7809 11.59111,-50.72692 4.14554,-5.51649 7.56505,-11.14371 7.89973,-13 0.32457,-1.80019 0.45941,-14.97308 0.29964,-29.27308 l -0.29048,-26 -30.79273,-0.26451 -30.79273,-0.26452 0.29273,29.32504 0.29273,29.32505 8,10.65331 c 11.67496,15.54711 11.40908,14.34494 11.45841,51.80896 0.0229,17.37084 0.35634,31.89809 0.74104,32.28278 0.38469,0.3847 5.22219,0.5722 10.75,0.41667 L 266.5,349.5 Z M 43.913343,222.7182 C 39.652759,219.44702 38.953351,214.31749 42.25,210.51905 44.789741,207.59273 68.552196,198 73.261335,198 c 6.332113,0 10.137421,8.84437 5.988665,13.91896 -2.015069,2.46476 -26.805123,12.09797 -31.007438,12.04924 -1.508409,-0.0175 -3.456558,-0.58 -4.329219,-1.25 z M 447.57746,219.00437 C 432.96546,213.4581 430.6,211.70091 430.6,206.39263 430.6,202.02916 434.55392,198 438.8359,198 c 1.4984,0 8.5608,2.24465 15.69423,4.98812 17.44675,6.70989 20.86243,10.8266 14.88098,17.93515 -3.55291,4.2224 -6.28714,3.98209 -21.83365,-1.9189 z M 33.30236,166.98821 C 31.030627,166.07335 28,161.25921 28,158.56544 c 0,-0.84364 1.313087,-3.00349 2.917971,-4.79966 L 33.835942,150.5 h 15.508699 c 14.188847,0 15.748975,0.17862 18.332029,2.0989 4.767317,3.54408 4.410296,11.27053 -0.641497,13.88291 -2.24376,1.16029 -6.306833,1.50325 -17.235513,1.4548 -7.864813,-0.0349 -15.288598,-0.46164 -16.4973,-0.9484 z m 411.5537,-0.50461 c -3.15499,-1.71396 -5.13321,-6.63001 -3.93185,-9.77102 0.46545,-1.21692 1.84515,-3.11258 3.06601,-4.21258 2.02202,-1.82184 3.62634,-2 18.00978,-2 14.38344,0 15.98776,0.17816 18.00978,2 4.84584,4.36611 4.32212,11.24277 -1.06854,14.03038 -3.98123,2.05878 -30.27578,2.02268 -34.08518,-0.0468 z m -78.25665,-29.79328 c -1.27032,-1.27033 -3.33211,-5.43283 -4.58175,-9.25 -8.05873,-24.61643 -24.69082,-45.297798 -47.44043,-58.990355 -10.64566,-6.407425 -11.31686,-6.988006 -12.07638,-10.446074 -0.87818,-3.998356 1.70669,-8.531988 5.6479,-9.905902 2.81222,-0.980345 3.99602,-0.750797 9.56311,1.854357 C 332.71442,56.972893 351.41872,73.073406 361.9126,88 371.26609,101.30448 381,123.03158 381,130.60505 c 0,7.40928 -9.19222,11.29364 -14.40059,6.08527 z M 57.5,115.53917 c -8.090698,-3.15126 -14.738663,-6.36204 -15.75,-7.60681 -3.648456,-4.49058 -0.768611,-12.110451 5.060915,-13.39083 3.405836,-0.748047 28.449917,8.41543 31.926851,11.68184 3.077793,2.89144 3.083916,8.66103 0.01223,11.52819 -4.088121,3.81591 -6.38718,3.57655 -21.25,-2.21239 z m 377.35606,3.98485 c -3.73197,-2.08446 -5.19772,-6.77054 -3.43633,-10.98614 1.25153,-2.99535 2.57607,-3.7659 14.72774,-8.567847 7.34389,-2.902069 15.00409,-5.30981 17.02266,-5.350534 6.65136,-0.134191 10.51232,6.226321 7.41513,12.215621 -1.30889,2.53112 -3.54489,3.76051 -14.81342,8.14466 -15.68787,6.10355 -17.44177,6.48461 -20.91578,4.54424 z"
         id="path4811" />
      <path
         style="fill:#a2a1a0"
         d="M 244,510.57229 C 231.079,506.98637 222.46092,497.83623 218.03098,483 l -1.64225,-5.5 -9.44436,-0.53812 c -10.4971,-0.5981 -14.11526,-2.00331 -18.47679,-7.17596 -4.77296,-5.6606 -5.63716,-9.03756 -5.36217,-20.95347 l 0.25114,-10.88298 -3.62945,-3.72474 c -5.4343,-5.57697 -6.73055,-9.62561 -6.70514,-20.94261 0.0168,-7.49195 0.47361,-10.77712 1.95111,-14.03212 1.90553,-4.19797 1.90553,-4.30203 0,-8.5 -1.44528,-3.18402 -1.93465,-6.53264 -1.95111,-13.35078 -0.0251,-10.40509 1.01044,-14.34146 5.17906,-19.68692 l 2.95381,-3.78769 -0.32741,-18.71231 C 180.41368,311.56666 180.3954,311.52698 165.19934,301.29771 128.40931,276.53242 104.56622,241.92964 94.366417,198.5 c -2.66341,-11.34051 -2.817854,-13.26402 -2.810249,-35 0.007,-20.00821 0.2963,-24.32 2.224041,-33.14776 C 104.85273,79.647471 136.81249,38.275101 182.5,15.50316 202.18093,5.6936317 213.76882,2.3549396 235,0.37690357 c 6.01894,-0.5607636 6.70353,-0.41563021 9.25,1.96100803 3.56103,3.3235332 3.56103,7.0091296 0,10.5515954 -2.30338,2.291368 -4.42861,3.013241 -13.08576,4.444824 -52.7693,8.72615 -97.07941,46.07842 -115.04183,96.977259 -5.93541,16.81876 -7.51809,26.99413 -7.57303,48.68841 -0.0427,16.87976 0.26292,20.89484 2.2748,29.8805 8.8862,39.68841 31.1503,72.26266 64.74824,94.73211 12.0282,8.04416 15.85506,11.99847 19.73031,20.38739 1.81251,3.92362 2.13043,6.90492 2.48211,23.27619 l 0.40335,18.7762 14.6559,-0.2762 L 227.5,349.5 l 0.28965,-29 c 0.1593,-15.95 0.0391,-30.39477 -0.26708,-32.09948 -0.3062,-1.70472 -3.75336,-7.32972 -7.66037,-12.5 C 215.95519,270.73023 211.57537,264.025 210.12927,261 l -2.62927,-5.5 -0.33579,-30.03097 -0.3358,-30.03096 -2.87831,-1.65192 c -1.58307,-0.90856 -3.17044,-2.81586 -3.52748,-4.23845 -0.87146,-3.47215 1.15102,-8.03241 4.17303,-9.40933 1.35327,-0.61659 2.73991,-1.91246 3.08143,-2.87972 2.735,-7.7461 12.09263,-8.47223 15.83825,-1.22901 L 225.05136,179 h 31.0057 c 28.62729,0 31.05309,-0.13424 31.62334,-1.75 2.28211,-6.46619 10.5973,-8.62132 14.02292,-3.63446 0.98817,1.43854 3.70918,4.5484 6.04668,6.9108 2.3375,2.3624 4.25,5.03275 4.25,5.93412 0,2.87072 -2.76358,7.11079 -5.425,8.32342 L 304,195.95712 v 29.51071 c 0,34.39912 -0.0796,34.78404 -9.79803,47.35552 C 283.10196,287.18208 284.008,283.1018 284.00374,318.75 L 284,350 h 14.90633 14.90633 l 0.41171,-18.75 c 0.3355,-15.27866 0.7449,-19.49055 2.21134,-22.75 3.66112,-8.13751 7.77796,-12.41876 19.95744,-20.75449 13.4835,-9.2282 28.74203,-23.27879 37.00409,-34.07462 15.15162,-19.7983 25.36057,-44.12324 29.10685,-69.35313 1.70351,-11.47258 3.28338,-14.54563 8.09937,-15.75437 3.3231,-0.83405 7.97698,1.79058 9.14279,5.15623 1.94454,5.61377 -2.56747,29.575 -8.68874,46.14199 -4.38386,11.86473 -13.1635,28.60954 -20.37567,38.86112 -9.51395,13.5234 -28.82766,32.262 -43.33232,42.042 C 330.93041,311.83558 331,311.68681 331,335.71524 v 18.08378 l 3.44055,5.11264 c 1.99183,2.95984 3.72847,7.03261 4.12432,9.67237 1.05727,7.05037 0.003,19.47486 -1.9749,23.26886 -1.68664,3.23566 -1.67506,3.52183 0.33115,8.18538 1.54318,3.58722 2.07888,6.94517 2.07888,13.03109 0,10.44567 -1.38194,14.94691 -6.30655,20.54156 l -3.95452,4.49257 -0.11946,11.69825 c -0.10722,10.49865 -0.37583,12.15516 -2.61947,16.15386 -1.375,2.45057 -4.44982,5.82557 -6.83294,7.5 -4.00248,2.81221 -5.08964,3.07062 -14.25451,3.38825 -9.81288,0.34008 -9.92795,0.37294 -10.5058,3 -3.59491,16.34356 -12.9931,27.07412 -26.88049,30.69133 -6.7115,1.74812 -17.30087,1.76483 -23.52626,0.0371 z m 66.39301,-53.15408 c 1.08379,-2.8243 0.64924,-13.97596 -0.59301,-15.21821 -0.90269,-0.90269 -14.13738,-1.2 -53.41821,-1.2 -28.72002,0 -52.93002,0.27314 -53.8,0.60699 -1.25353,0.48102 -1.58179,2.21041 -1.58179,8.33333 0,4.24949 0.3,8.02635 0.66667,8.39301 C 202.03333,458.7 226.51019,459 256.05968,459 c 48.06891,0 53.79026,-0.16656 54.33333,-1.58179 z m 9.03556,-35.98964 C 320.55319,420.30395 321,417.89714 321,412.96376 c 0,-5.79184 -0.30909,-7.05881 -1.93426,-7.92858 C 316.11618,403.45663 193.78445,403.61555 192.2,405.2 c -0.71265,0.71265 -1.2,4.14451 -1.2,8.45031 0,5.85009 0.33797,7.44716 1.75,8.26959 1.13577,0.66152 23.39857,1.02996 63.42857,1.04969 54.76454,0.027 61.85473,-0.14574 63.25,-1.54102 z m 0.49466,-36.83607 c 0.72425,-0.87267 1.05577,-4.19756 0.87245,-8.75 L 320.5,368.5 H 256 191.5 l -0.29568,7.3425 c -0.18332,4.55244 0.1482,7.87733 0.87245,8.75 1.74652,2.10443 126.09994,2.10443 127.84646,0 z M 267.1888,316.75 267.5,283.5 l 2.60894,-5.05132 c 1.43492,-2.77823 5.5718,-8.88973 9.19308,-13.58112 4.19959,-5.44061 6.98001,-10.13016 7.6772,-12.94868 0.689,-2.78536 0.98729,-13.84545 0.80693,-29.91888 L 287.5,196.5 255.75,196.23595 224,195.97191 v 27.44894 c 0,16.90738 0.40729,28.53007 1.06053,30.26405 0.58329,1.54831 4.18657,6.92782 8.00729,11.95447 11.84393,15.58222 11.3798,13.54442 11.75484,51.61063 l 0.32266,32.75 h 10.86614 10.86615 z M 43.913343,222.7182 C 39.652759,219.44702 38.953351,214.31749 42.25,210.51905 44.789741,207.59273 68.552196,198 73.261335,198 c 6.332113,0 10.137421,8.84437 5.988665,13.91896 -2.015069,2.46476 -26.805123,12.09797 -31.007438,12.04924 -1.508409,-0.0175 -3.456558,-0.58 -4.329219,-1.25 z M 447.57746,219.00437 C 432.96546,213.4581 430.6,211.70091 430.6,206.39263 430.6,202.02916 434.55392,198 438.8359,198 c 1.4984,0 8.5608,2.24465 15.69423,4.98812 17.44675,6.70989 20.86243,10.8266 14.88098,17.93515 -3.55291,4.2224 -6.28714,3.98209 -21.83365,-1.9189 z M 33.30236,166.98821 C 31.030627,166.07335 28,161.25921 28,158.56544 c 0,-0.84364 1.313087,-3.00349 2.917971,-4.79966 L 33.835942,150.5 h 15.508699 c 14.188847,0 15.748975,0.17862 18.332029,2.0989 4.767317,3.54408 4.410296,11.27053 -0.641497,13.88291 -2.24376,1.16029 -6.306833,1.50325 -17.235513,1.4548 -7.864813,-0.0349 -15.288598,-0.46164 -16.4973,-0.9484 z m 411.5537,-0.50461 c -3.15499,-1.71396 -5.13321,-6.63001 -3.93185,-9.77102 0.46545,-1.21692 1.84515,-3.11258 3.06601,-4.21258 2.02202,-1.82184 3.62634,-2 18.00978,-2 14.38344,0 15.98776,0.17816 18.00978,2 4.84584,4.36611 4.32212,11.24277 -1.06854,14.03038 -3.98123,2.05878 -30.27578,2.02268 -34.08518,-0.0468 z m -38.03739,-18.01959 c -3.08405,-1.6746 -3.06277,-1.61885 -5.78333,-15.15242 C 395.32389,104.89969 381.59513,79.531199 360.53196,58.468035 339.4921,37.428167 314.97339,24.152439 285.77042,17.988169 280.67169,16.91191 275.22788,16.024285 273.67308,16.015668 269.78221,15.994103 265,11.102953 265,7.1450173 265,3.5513958 269.27582,0 273.60247,0 280.77803,0 294.54349,2.5015795 305,5.7058331 359.73432,22.478405 401.58979,66.611638 416.08726,122.83842 c 3.95109,15.32386 4.18639,21.17539 0.98843,24.58035 -2.72832,2.90491 -6.18363,3.25702 -10.25702,1.04524 z m -39.10609,-11.47545 c -1.60602,-1.2633 -3.38026,-4.51782 -4.77018,-8.75 C 356.92989,109.93085 348.39788,96.453292 334.25379,82.92066 327.7452,76.693446 321.254,71.644989 315.10475,68.02772 305.10453,62.145139 303,60.039028 303,55.913857 303,52.566221 307.46598,48 310.74013,48 c 3.56448,0 14.44028,6.000529 24.31063,13.412956 C 349.83938,72.518901 362.86735,87.962464 370.97657,104 375.19502,112.3428 381,128.07029 381,131.1566 c 0,2.79206 -5.33782,7.8434 -8.28822,7.8434 -1.34313,0 -3.59277,-0.90515 -4.9992,-2.01144 z M 57.5,115.53917 c -8.090698,-3.15126 -14.738663,-6.36204 -15.75,-7.60681 -3.648456,-4.49058 -0.768611,-12.110451 5.060915,-13.39083 3.405836,-0.748047 28.449917,8.41543 31.926851,11.68184 3.077793,2.89144 3.083916,8.66103 0.01223,11.52819 -4.088121,3.81591 -6.38718,3.57655 -21.25,-2.21239 z m 377.35606,3.98485 c -3.73197,-2.08446 -5.19772,-6.77054 -3.43633,-10.98614 1.25153,-2.99535 2.57607,-3.7659 14.72774,-8.567847 7.34389,-2.902069 15.00409,-5.30981 17.02266,-5.350534 6.65136,-0.134191 10.51232,6.226321 7.41513,12.215621 -1.30889,2.53112 -3.54489,3.76051 -14.81342,8.14466 -15.68787,6.10355 -17.44177,6.48461 -20.91578,4.54424 z"
         id="path4809" />
      <path
         style="fill:#6b5faf"
         d="m 246.73447,510.91195 c -5.58756,-1.31641 -11.38637,-4.54989 -16.32727,-9.10425 -5.72811,-5.27999 -8.22492,-9.4482 -10.88277,-18.16783 L 217.34812,476.5 207.33712,476 c -8.97002,-0.44801 -10.4428,-0.79934 -14.16346,-3.37865 -2.70921,-1.87814 -5.06279,-4.73932 -6.77166,-8.23213 -2.41625,-4.93864 -2.59469,-6.18789 -2.30271,-16.12135 l 0.3165,-10.76787 -4.15805,-4.23971 c -5.02512,-5.1238 -6.25169,-9.11256 -6.2302,-20.26029 0.0123,-6.36092 0.52395,-9.61886 2.03327,-12.94596 l 2.01688,-4.44597 -2.03885,-4.73941 C 174.48381,387.25388 174,383.97063 174,377.0325 c 0,-9.86272 1.23469,-14.14584 5.55942,-19.28548 l 2.58677,-3.07421 -0.3231,-19.5864 C 181.40159,309.53429 182.71175,311.90352 160.563,296.64062 127.63576,273.95017 103.77968,237.20054 94.828281,195.37811 92.788988,185.8502 92.505242,181.8314 92.542237,163 c 0.04651,-23.67663 1.424121,-33.03917 7.577743,-51.5 17.33762,-52.01282 61.17303,-93.145424 113.9307,-106.9059634 14.11216,-3.68081078 24.51296,-5.11388545 27.43901,-3.78068647 3.49833,1.59394507 5.99271,6.83248357 4.65321,9.77237187 -1.66341,3.650773 -4.93248,5.09176 -15.5727,6.864342 -52.29067,8.711244 -96.56197,46.179731 -114.44779,96.861526 -5.93541,16.81876 -7.51809,26.99413 -7.57303,48.68841 -0.0427,16.87976 0.26292,20.89484 2.2748,29.8805 8.8862,39.68841 31.1503,72.26266 64.74824,94.73211 12.0282,8.04416 15.85506,11.99847 19.73031,20.38739 1.81251,3.92362 2.13043,6.90492 2.48211,23.27619 l 0.40335,18.7762 14.6559,-0.2762 L 227.5,349.5 l 0.28965,-29 c 0.1593,-15.95 0.0391,-30.39477 -0.26708,-32.09948 -0.3062,-1.70472 -3.75336,-7.32972 -7.66037,-12.5 C 215.95519,270.73023 211.57537,264.025 210.12927,261 l -2.62927,-5.5 -0.33579,-30.03097 -0.3358,-30.03096 -2.87831,-1.65192 c -1.58307,-0.90856 -3.17044,-2.81586 -3.52748,-4.23845 -0.87146,-3.47215 1.15102,-8.03241 4.17303,-9.40933 1.35327,-0.61659 2.73991,-1.91246 3.08143,-2.87972 2.735,-7.7461 12.09263,-8.47223 15.83825,-1.22901 L 225.05136,179 h 31.0057 c 28.62729,0 31.05309,-0.13424 31.62334,-1.75 2.28211,-6.46619 10.5973,-8.62132 14.02292,-3.63446 0.98817,1.43854 3.70918,4.5484 6.04668,6.9108 2.3375,2.3624 4.25,5.03275 4.25,5.93412 0,2.87072 -2.76358,7.11079 -5.425,8.32342 L 304,195.95712 v 29.51071 c 0,34.39912 -0.0796,34.78404 -9.79803,47.35552 C 283.10196,287.18208 284.008,283.1018 284.00374,318.75 L 284,350 h 14.90633 14.90633 l 0.41171,-18.75 c 0.3355,-15.27866 0.7449,-19.49055 2.21134,-22.75 3.66112,-8.13751 7.77796,-12.41876 19.95744,-20.75449 13.4835,-9.2282 28.74203,-23.27879 37.00409,-34.07462 15.15162,-19.7983 25.36057,-44.12324 29.10685,-69.35313 1.20818,-8.13667 2.12773,-11.36139 3.7244,-13.06098 2.65048,-2.8213 6.69078,-2.89472 10.13665,-0.1842 2.27798,1.79186 2.63486,2.82028 2.63486,7.59292 0,13.22142 -6.80772,37.72394 -15.51292,55.8345 -12.94366,26.92836 -31.17846,47.87632 -56.97227,65.44915 C 330.00986,311.19367 330,311.2155 330,336.52652 v 18.59076 l 2.93985,3.69136 c 1.61691,2.03025 3.47391,5.84306 4.12666,8.47291 1.57849,6.3596 0.76156,19.20869 -1.52649,24.00944 -1.7493,3.67033 -1.74686,3.92412 0.0766,7.97389 1.46077,3.24429 1.88303,6.54488 1.88179,14.70901 -0.002,11.63724 -1.14014,15.02074 -6.84734,20.35207 l -3.05193,2.85093 -0.0515,12.16155 c -0.0559,13.21696 -0.80186,15.72302 -6.20836,20.85851 C 316.89789,474.4157 311.95444,476 303.23212,476 c -8.49385,0 -10.23164,0.84063 -10.23291,4.95 -0.001,3.5053 -5.07298,13.92549 -8.89914,18.28324 -8.80008,10.02274 -24.09869,14.80436 -37.3656,11.67871 z m 63.54335,-51.33263 c 2.04462,-2.04461 3.0291,-13.16657 1.45603,-16.44905 L 310.47333,440.5 256.48667,440.2294 202.5,439.9588 l -1.75,2.13138 c -1.26167,1.53664 -1.75,3.91426 -1.75,8.5206 C 199,461.85152 194.334,461 255.92857,461 c 44.40093,0 53.15747,-0.22889 54.34925,-1.42068 z m 10.58771,-36.91729 c 0.61073,-0.73589 1.22833,-4.81984 1.37244,-9.07545 0.22634,-6.68361 -0.002,-7.9315 -1.6791,-9.16203 C 318.92745,403.22729 308.52578,403 255.36557,403 h -63.25216 l -1.55671,2.22251 C 189.56386,406.63998 189,409.63823 189,413.5 c 0,3.86177 0.56386,6.86002 1.5567,8.27749 L 192.11341,424 h 63.82085 c 52.07471,0 64.02522,-0.24625 64.93127,-1.33797 z m -0.39426,-36.70428 c 1.05123,-1.05154 1.61927,-3.86191 1.78527,-8.83268 C 322.66155,364.99698 328.6902,366 255.38922,366 183.15588,366 189,365.11393 189,376.06574 c 0,6.81082 1.11274,9.63147 4.31537,10.93895 1.21703,0.49685 29.51875,0.80405 63.89936,0.69359 54.09958,-0.17381 61.90498,-0.38858 63.25654,-1.74053 z M 267.1888,316.75 267.5,283.5 l 2.60894,-5.05132 c 1.43492,-2.77823 5.5718,-8.88973 9.19308,-13.58112 4.19959,-5.44061 6.98001,-10.13016 7.6772,-12.94868 0.689,-2.78536 0.98729,-13.84545 0.80693,-29.91888 L 287.5,196.5 255.75,196.23595 224,195.97191 v 27.44894 c 0,16.90738 0.40729,28.53007 1.06053,30.26405 0.58329,1.54831 4.18657,6.92782 8.00729,11.95447 11.84393,15.58222 11.3798,13.54442 11.75484,51.61063 l 0.32266,32.75 h 10.86614 10.86615 z M 43.454545,220.54545 C 40.57092,217.66183 40.300729,214.05411 42.75,211.13803 44.652483,208.87295 69.513399,199 73.314588,199 c 5.520455,0 8.852942,8.72844 4.750103,12.44146 C 75.671861,213.60694 51.43371,223 48.238665,223 c -1.281266,0 -3.43412,-1.10455 -4.78412,-2.45455 z m 404.859165,-2.39446 c -6.70246,-2.59914 -13.11496,-5.56614 -14.25,-6.59334 C 429.73984,207.64461 432.83021,199 438.55295,199 c 2.10002,0 20.64076,6.60148 27.10479,9.65073 7.81652,3.68726 5.66292,14.51404 -2.842,14.28762 -1.27366,-0.0339 -7.79957,-2.18822 -14.50203,-4.78736 z M 32.468643,164.72669 C 28.858275,161.62118 28.613426,156.5412 31.944117,153.84417 33.943858,152.22488 36.15908,152 50.110784,152 64.666667,152 66.167829,152.16783 68,154 c 2.526245,2.52625 2.566915,7.0775 0.0906,10.13922 -1.834728,2.26846 -2.513787,2.37323 -17.36469,2.6792 -15.110047,0.31131 -15.517886,0.26459 -18.25727,-2.09173 z m 412.166217,0.20073 C 441.33332,162.33043 441.02234,156.97766 444,154 c 1.83333,-1.83333 3.33333,-2 18,-2 14.66667,0 16.16667,0.16667 18,2 2.97766,2.97766 2.66668,8.33043 -0.63486,10.92742 C 476.97038,166.81114 475.38803,167 462,167 c -13.38803,0 -14.97038,-0.18886 -17.36514,-2.07258 z m -37.81619,-16.46341 c -3.08405,-1.6746 -3.06277,-1.61885 -5.78333,-15.15242 C 395.32389,104.89969 381.59513,79.531199 360.53196,58.468035 338.84493,36.780998 312.15676,22.703165 283,17.570438 c -12.89552,-2.270115 -13.98967,-2.659381 -16.33698,-5.812233 -1.95788,-2.6297858 -1.97258,-2.8858482 -0.35975,-6.2679722 2.64683,-5.55047586 5.05685,-6.12485451 16.96824,-4.0440431 22.79979,3.9829144 45.53715,13.1655703 65.04043,26.2670773 11.37631,7.642138 27.06155,22.179987 36.04609,33.409269 16.10782,20.132293 28.7391,48.005194 33.02618,72.877464 1.52811,8.86557 0.69256,12.39182 -3.44297,14.53038 -3.43723,1.77747 -3.73187,1.77472 -7.12257,-0.0664 z m -39.00673,-11.3973 c -1.71482,-1.34888 -3.44097,-4.47827 -4.86954,-8.82815 -8.90745,-27.12259 -28.50636,-50.739921 -52.12279,-62.809674 -7.69112,-3.930737 -10.03081,-9.678319 -5.79193,-14.228219 3.18949,-3.423524 6.592,-3.781824 11.84563,-1.247401 15.84588,7.644275 35.85974,25.407073 46.37949,41.162944 10.13649,15.18186 18.85219,36.84726 16.89453,41.99629 -2.03506,5.3526 -8.09007,7.29358 -12.33539,3.95421 z M 57.5,114.41676 C 45.86019,110.07332 41,106.85515 41,103.49129 c 0,-2.87171 2.348298,-6.392919 4.994396,-7.488969 2.372878,-0.982878 4.341467,-0.531904 14.869674,3.406417 14.517884,5.430752 17.694366,6.998182 18.514749,9.136062 2.079285,5.41853 -1.153244,10.49129 -6.628819,10.4025 -1.7875,-0.029 -8.65,-2.06773 -15.25,-4.53054 z m 376.15499,2.7545 c -2.19695,-2.4276 -2.14219,-8.42927 0.095,-10.41306 0.9625,-0.85347 7.90513,-3.84939 15.42806,-6.65759 11.09303,-4.140862 14.15424,-4.924768 16.1977,-4.147847 5.39027,2.04938 6.89982,8.747827 2.7843,12.355097 C 465.52668,110.61605 442.41697,119 438.68803,119 c -2.00261,0 -4.05192,-0.74461 -5.03304,-1.82874 z"
         id="path4807" />
      <path
         style="fill:#8d753c"
         d="m 246.73447,510.91195 c -5.58756,-1.31641 -11.38637,-4.54989 -16.32727,-9.10425 -5.72811,-5.27999 -8.22492,-9.4482 -10.88277,-18.16783 L 217.34812,476.5 207.33712,476 c -8.97002,-0.44801 -10.4428,-0.79934 -14.16346,-3.37865 -2.70921,-1.87814 -5.06279,-4.73932 -6.77166,-8.23213 -2.41625,-4.93864 -2.59469,-6.18789 -2.30271,-16.12135 l 0.3165,-10.76787 -4.15805,-4.23971 c -5.02512,-5.1238 -6.25169,-9.11256 -6.2302,-20.26029 0.0123,-6.36092 0.52395,-9.61886 2.03327,-12.94596 l 2.01688,-4.44597 -2.03885,-4.73941 C 174.48381,387.25388 174,383.97063 174,377.0325 c 0,-9.86272 1.23469,-14.14584 5.55942,-19.28548 l 2.58677,-3.07421 -0.3231,-19.5864 C 181.40159,309.53429 182.71175,311.90352 160.563,296.64062 127.63576,273.95017 103.77968,237.20054 94.828281,195.37811 92.788988,185.8502 92.505242,181.8314 92.542237,163 c 0.04651,-23.67663 1.424121,-33.03917 7.577743,-51.5 17.33762,-52.01282 61.17303,-93.145424 113.9307,-106.9059634 14.11216,-3.68081078 24.51296,-5.11388545 27.43901,-3.78068647 3.49833,1.59394507 5.99271,6.83248357 4.65321,9.77237187 -1.66341,3.650773 -4.93248,5.09176 -15.5727,6.864342 -52.29067,8.711244 -96.56197,46.179731 -114.44779,96.861526 -5.93541,16.81876 -7.51809,26.99413 -7.57303,48.68841 -0.0427,16.87976 0.26292,20.89484 2.2748,29.8805 8.8862,39.68841 31.1503,72.26266 64.74824,94.73211 12.0282,8.04416 15.85506,11.99847 19.73031,20.38739 1.81251,3.92362 2.13043,6.90492 2.48211,23.27619 l 0.40335,18.7762 14.6559,-0.2762 L 227.5,349.5 l 0.28965,-29 c 0.1593,-15.95 0.0391,-30.39477 -0.26708,-32.09948 -0.3062,-1.70472 -3.75336,-7.32972 -7.66037,-12.5 C 215.95519,270.73023 211.57537,264.025 210.12927,261 l -2.62927,-5.5 -0.33579,-30.03097 -0.3358,-30.03096 -2.87831,-1.65192 c -1.58307,-0.90856 -3.17044,-2.81586 -3.52748,-4.23845 -0.87146,-3.47215 1.15102,-8.03241 4.17303,-9.40933 1.35327,-0.61659 2.73991,-1.91246 3.08143,-2.87972 2.735,-7.7461 12.09263,-8.47223 15.83825,-1.22901 L 225.05136,179 h 31.0057 c 28.62729,0 31.05309,-0.13424 31.62334,-1.75 2.28211,-6.46619 10.5973,-8.62132 14.02292,-3.63446 0.98817,1.43854 3.70918,4.5484 6.04668,6.9108 2.3375,2.3624 4.25,5.03275 4.25,5.93412 0,2.87072 -2.76358,7.11079 -5.425,8.32342 L 304,195.95712 v 29.51071 c 0,34.39912 -0.0796,34.78404 -9.79803,47.35552 C 283.10196,287.18208 284.008,283.1018 284.00374,318.75 L 284,350 h 14.90633 14.90633 l 0.41171,-18.75 c 0.3355,-15.27866 0.7449,-19.49055 2.21134,-22.75 3.66112,-8.13751 7.77796,-12.41876 19.95744,-20.75449 13.4835,-9.2282 28.74203,-23.27879 37.00409,-34.07462 15.15162,-19.7983 25.36057,-44.12324 29.10685,-69.35313 1.20818,-8.13667 2.12773,-11.36139 3.7244,-13.06098 2.65048,-2.8213 6.69078,-2.89472 10.13665,-0.1842 2.27798,1.79186 2.63486,2.82028 2.63486,7.59292 0,13.22142 -6.80772,37.72394 -15.51292,55.8345 -12.94366,26.92836 -31.17846,47.87632 -56.97227,65.44915 C 330.00986,311.19367 330,311.2155 330,336.52652 v 18.59076 l 2.93985,3.69136 c 1.61691,2.03025 3.47391,5.84306 4.12666,8.47291 1.57849,6.3596 0.76156,19.20869 -1.52649,24.00944 -1.7493,3.67033 -1.74686,3.92412 0.0766,7.97389 1.46077,3.24429 1.88303,6.54488 1.88179,14.70901 -0.002,11.63724 -1.14014,15.02074 -6.84734,20.35207 l -3.05193,2.85093 -0.0515,12.16155 c -0.0559,13.21696 -0.80186,15.72302 -6.20836,20.85851 C 316.89789,474.4157 311.95444,476 303.23212,476 c -8.49385,0 -10.23164,0.84063 -10.23291,4.95 -0.001,3.5053 -5.07298,13.92549 -8.89914,18.28324 -8.80008,10.02274 -24.09869,14.80436 -37.3656,11.67871 z m 19.81815,-17.53113 C 271.01518,491.09705 277,483.06923 277,479.3671 v -2.40688 l -21.25,0.26989 c -24.17349,0.30702 -23.29087,-0.12269 -17.92249,8.72567 3.88318,6.40039 11.63167,10.3635 19.22511,9.83304 3.05395,-0.21334 7.32895,-1.29694 9.5,-2.408 z m 43.7252,-33.8015 c 2.04462,-2.04461 3.0291,-13.16657 1.45603,-16.44905 L 310.47333,440.5 256.48667,440.2294 202.5,439.9588 l -1.75,2.13138 c -1.26167,1.53664 -1.75,3.91426 -1.75,8.5206 C 199,461.85152 194.334,461 255.92857,461 c 44.40093,0 53.15747,-0.22889 54.34925,-1.42068 z m 10.58771,-36.91729 c 0.61073,-0.73589 1.22833,-4.81984 1.37244,-9.07545 0.22634,-6.68361 -0.002,-7.9315 -1.6791,-9.16203 C 318.92745,403.22729 308.52578,403 255.36557,403 h -63.25216 l -1.55671,2.22251 C 189.56386,406.63998 189,409.63823 189,413.5 c 0,3.86177 0.56386,6.86002 1.5567,8.27749 L 192.11341,424 h 63.82085 c 52.07471,0 64.02522,-0.24625 64.93127,-1.33797 z m -0.39426,-36.70428 c 1.05123,-1.05154 1.61927,-3.86191 1.78527,-8.83268 C 322.66155,364.99698 328.6902,366 255.38922,366 183.15588,366 189,365.11393 189,376.06574 c 0,6.81082 1.11274,9.63147 4.31537,10.93895 1.21703,0.49685 29.51875,0.80405 63.89936,0.69359 54.09958,-0.17381 61.90498,-0.38858 63.25654,-1.74053 z M 267.1888,316.75 267.5,283.5 l 2.60894,-5.05132 c 1.43492,-2.77823 5.5718,-8.88973 9.19308,-13.58112 4.19959,-5.44061 6.98001,-10.13016 7.6772,-12.94868 0.689,-2.78536 0.98729,-13.84545 0.80693,-29.91888 L 287.5,196.5 255.75,196.23595 224,195.97191 v 27.44894 c 0,16.90738 0.40729,28.53007 1.06053,30.26405 0.58329,1.54831 4.18657,6.92782 8.00729,11.95447 11.84393,15.58222 11.3798,13.54442 11.75484,51.61063 l 0.32266,32.75 h 10.86614 10.86615 z M 43.454545,220.54545 C 40.57092,217.66183 40.300729,214.05411 42.75,211.13803 44.652483,208.87295 69.513399,199 73.314588,199 c 5.520455,0 8.852942,8.72844 4.750103,12.44146 C 75.671861,213.60694 51.43371,223 48.238665,223 c -1.281266,0 -3.43412,-1.10455 -4.78412,-2.45455 z m 404.859165,-2.39446 c -6.70246,-2.59914 -13.11496,-5.56614 -14.25,-6.59334 C 429.73984,207.64461 432.83021,199 438.55295,199 c 2.10002,0 20.64076,6.60148 27.10479,9.65073 7.81652,3.68726 5.66292,14.51404 -2.842,14.28762 -1.27366,-0.0339 -7.79957,-2.18822 -14.50203,-4.78736 z M 32.468643,164.72669 C 28.858275,161.62118 28.613426,156.5412 31.944117,153.84417 33.943858,152.22488 36.15908,152 50.110784,152 64.666667,152 66.167829,152.16783 68,154 c 2.526245,2.52625 2.566915,7.0775 0.0906,10.13922 -1.834728,2.26846 -2.513787,2.37323 -17.36469,2.6792 -15.110047,0.31131 -15.517886,0.26459 -18.25727,-2.09173 z m 412.166217,0.20073 C 441.33332,162.33043 441.02234,156.97766 444,154 c 1.83333,-1.83333 3.33333,-2 18,-2 14.66667,0 16.16667,0.16667 18,2 2.97766,2.97766 2.66668,8.33043 -0.63486,10.92742 C 476.97038,166.81114 475.38803,167 462,167 c -13.38803,0 -14.97038,-0.18886 -17.36514,-2.07258 z m -37.81619,-16.46341 c -3.08405,-1.6746 -3.06277,-1.61885 -5.78333,-15.15242 C 395.32389,104.89969 381.59513,79.531199 360.53196,58.468035 338.84493,36.780998 312.15676,22.703165 283,17.570438 c -12.89552,-2.270115 -13.98967,-2.659381 -16.33698,-5.812233 -1.95788,-2.6297858 -1.97258,-2.8858482 -0.35975,-6.2679722 2.64683,-5.55047586 5.05685,-6.12485451 16.96824,-4.0440431 22.79979,3.9829144 45.53715,13.1655703 65.04043,26.2670773 11.37631,7.642138 27.06155,22.179987 36.04609,33.409269 16.10782,20.132293 28.7391,48.005194 33.02618,72.877464 1.52811,8.86557 0.69256,12.39182 -3.44297,14.53038 -3.43723,1.77747 -3.73187,1.77472 -7.12257,-0.0664 z m -39.00673,-11.3973 c -1.71482,-1.34888 -3.44097,-4.47827 -4.86954,-8.82815 -8.90745,-27.12259 -28.50636,-50.739921 -52.12279,-62.809674 -7.69112,-3.930737 -10.03081,-9.678319 -5.79193,-14.228219 3.18949,-3.423524 6.592,-3.781824 11.84563,-1.247401 15.84588,7.644275 35.85974,25.407073 46.37949,41.162944 10.13649,15.18186 18.85219,36.84726 16.89453,41.99629 -2.03506,5.3526 -8.09007,7.29358 -12.33539,3.95421 z M 57.5,114.41676 C 45.86019,110.07332 41,106.85515 41,103.49129 c 0,-2.87171 2.348298,-6.392919 4.994396,-7.488969 2.372878,-0.982878 4.341467,-0.531904 14.869674,3.406417 14.517884,5.430752 17.694366,6.998182 18.514749,9.136062 2.079285,5.41853 -1.153244,10.49129 -6.628819,10.4025 -1.7875,-0.029 -8.65,-2.06773 -15.25,-4.53054 z m 376.15499,2.7545 c -2.19695,-2.4276 -2.14219,-8.42927 0.095,-10.41306 0.9625,-0.85347 7.90513,-3.84939 15.42806,-6.65759 11.09303,-4.140862 14.15424,-4.924768 16.1977,-4.147847 5.39027,2.04938 6.89982,8.747827 2.7843,12.355097 C 465.52668,110.61605 442.41697,119 438.68803,119 c -2.00261,0 -4.05192,-0.74461 -5.03304,-1.82874 z"
         id="path4805" />
      <path
         style="fill:#5e5d5d"
         d="m 246.73447,510.91195 c -5.58756,-1.31641 -11.38637,-4.54989 -16.32727,-9.10425 -5.72811,-5.27999 -8.22492,-9.4482 -10.88277,-18.16783 L 217.34812,476.5 207.33712,476 c -8.97002,-0.44801 -10.4428,-0.79934 -14.16346,-3.37865 -2.70921,-1.87814 -5.06279,-4.73932 -6.77166,-8.23213 -2.41625,-4.93864 -2.59469,-6.18789 -2.30271,-16.12135 l 0.3165,-10.76787 -4.15805,-4.23971 c -5.02512,-5.1238 -6.25169,-9.11256 -6.2302,-20.26029 0.0123,-6.36092 0.52395,-9.61886 2.03327,-12.94596 l 2.01688,-4.44597 -2.03885,-4.73941 C 174.48381,387.25388 174,383.97063 174,377.0325 c 0,-9.86272 1.23469,-14.14584 5.55942,-19.28548 l 2.58677,-3.07421 -0.3231,-19.5864 C 181.40159,309.53429 182.71175,311.90352 160.563,296.64062 127.63576,273.95017 103.77968,237.20054 94.828281,195.37811 92.788988,185.8502 92.505242,181.8314 92.542237,163 92.578556,144.51227 92.902198,140.02889 94.852223,131 102.33865,96.336767 117.53975,69.12011 143.21702,44.40573 168.1329,20.424187 201.77444,4.3348311 235.22153,0.40378259 c 5.18809,-0.60975768 5.81635,-0.45681211 8.29172,2.01855861 2.0864,2.0863993 2.53832,3.2749342 2.04488,5.377982 -0.84239,3.5902628 -5.02199,7.1959108 -8.36389,7.2153448 -4.20709,0.02447 -20.2744,3.629764 -28.88855,6.482219 -11.60734,3.84361 -28.63534,12.476043 -38.76792,19.653595 -11.22556,7.951779 -27.23598,23.826877 -34.84949,34.55493 C 102.21953,121.4575 97.495154,179.91216 122.25849,229.5 c 12.75105,25.53358 30.952,45.4565 56.4456,61.78585 7.79864,4.99523 13.14176,11.28132 15.90688,18.71415 1.25599,3.3762 1.79085,9.06385 2.14168,22.77483 l 0.46762,18.27484 15.63986,-0.27484 L 228.5,350.5 l 0.26445,-30.74754 c 0.30452,-35.40744 0.69075,-33.45055 -9.08104,-46.01142 C 208.85844,259.82638 209.57104,262.91629 209,227.41651 l -0.5,-31.08348 -3.75,-3.53459 C 202.64705,190.81629 201,188.30751 201,187.08647 201,184.92798 205.05647,180 206.83323,180 c 0.50827,0 1.49044,-1.3672 2.1826,-3.03822 2.93723,-7.0911 11.62252,-6.30889 14.30377,1.28822 0.57082,1.61737 3.04425,1.75 32.6356,1.75 h 32.01796 l 1.44752,-3.46441 c 2.51774,-6.02578 10.59171,-6.14351 13.07896,-0.1907 0.75231,1.80053 2.53169,3.80398 3.95418,4.45211 5.44235,2.4797 5.27457,9.12403 -0.3312,13.11569 l -3.01626,2.14776 -0.30318,30.71978 c -0.34927,35.38979 0.31947,32.59913 -11.53492,48.13528 -3.55624,4.66075 -6.87142,9.54072 -7.36707,10.84439 C 283.40553,287.06356 283,302.28733 283,319.59049 v 31.4603 l 15.75,-0.2754 L 314.5,350.5 315.01685,332 c 0.4806,-17.20277 0.69728,-18.88566 3.09016,-24 3.71972,-7.95022 6.85473,-11.1927 18.45852,-19.09129 5.6911,-3.87387 14.07953,-10.31342 18.64096,-14.3101 24.44699,-21.42023 42.50966,-53.77954 47.50125,-85.09861 2.66168,-16.7004 2.93728,-17.45373 7.00733,-19.15431 3.33249,-1.3924 3.78814,-1.36094 6.19108,0.42747 3.51337,2.61484 3.84666,9.66655 1.10333,23.34428 -8.83893,44.06938 -32.93363,80.24208 -70.49467,105.83171 C 330.00986,311.19367 330,311.2155 330,336.52652 v 18.59076 l 2.93985,3.69136 c 1.61691,2.03025 3.47391,5.84306 4.12666,8.47291 1.57849,6.3596 0.76156,19.20869 -1.52649,24.00944 -1.7493,3.67033 -1.74686,3.92412 0.0766,7.97389 1.46077,3.24429 1.88303,6.54488 1.88179,14.70901 -0.002,11.63724 -1.14014,15.02074 -6.84734,20.35207 l -3.05193,2.85093 -0.0515,12.16155 c -0.0559,13.21696 -0.80186,15.72302 -6.20836,20.85851 C 316.89789,474.4157 311.95444,476 303.23212,476 c -8.49385,0 -10.23164,0.84063 -10.23291,4.95 -0.001,3.5053 -5.07298,13.92549 -8.89914,18.28324 -8.80008,10.02274 -24.09869,14.80436 -37.3656,11.67871 z m 19.81815,-17.53113 C 271.01518,491.09705 277,483.06923 277,479.3671 v -2.40688 l -21.25,0.26989 c -24.17349,0.30702 -23.29087,-0.12269 -17.92249,8.72567 3.88318,6.40039 11.63167,10.3635 19.22511,9.83304 3.05395,-0.21334 7.32895,-1.29694 9.5,-2.408 z m 43.7252,-33.8015 c 2.04462,-2.04461 3.0291,-13.16657 1.45603,-16.44905 L 310.47333,440.5 256.48667,440.2294 202.5,439.9588 l -1.75,2.13138 c -1.26167,1.53664 -1.75,3.91426 -1.75,8.5206 C 199,461.85152 194.334,461 255.92857,461 c 44.40093,0 53.15747,-0.22889 54.34925,-1.42068 z m 10.58771,-36.91729 c 0.61073,-0.73589 1.22833,-4.81984 1.37244,-9.07545 0.22634,-6.68361 -0.002,-7.9315 -1.6791,-9.16203 C 318.92745,403.22729 308.52578,403 255.36557,403 h -63.25216 l -1.55671,2.22251 C 189.56386,406.63998 189,409.63823 189,413.5 c 0,3.86177 0.56386,6.86002 1.5567,8.27749 L 192.11341,424 h 63.82085 c 52.07471,0 64.02522,-0.24625 64.93127,-1.33797 z m -0.39426,-36.70428 c 1.05123,-1.05154 1.61927,-3.86191 1.78527,-8.83268 C 322.66155,364.99698 328.6902,366 255.38922,366 183.15588,366 189,365.11393 189,376.06574 c 0,6.81082 1.11274,9.63147 4.31537,10.93895 1.21703,0.49685 29.51875,0.80405 63.89936,0.69359 54.09958,-0.17381 61.90498,-0.38858 63.25654,-1.74053 z M 268.1888,317.75 c 0.36123,-38.59507 -0.0533,-36.73294 11.45779,-51.47451 3.67899,-4.71148 7.2688,-10.18839 7.97735,-12.17091 0.92653,-2.59242 1.3006,-11.24642 1.33217,-30.8194 0.0418,-25.90712 -0.0491,-27.26455 -1.89037,-28.25 -2.62207,-1.40329 -59.50941,-1.40329 -62.13148,0 C 223.09391,196.02011 223,197.40534 223,223.5673 c 0,22.16503 0.29052,28.19225 1.49823,31.0827 0.82402,1.97217 4.63053,7.69872 8.4589,12.72568 10.62793,13.95531 10.35699,12.68082 10.81539,50.87432 l 0.39307,32.75 h 11.85601 11.85601 z M 43.454545,220.54545 C 40.57092,217.66183 40.300729,214.05411 42.75,211.13803 44.652483,208.87295 69.513399,199 73.314588,199 c 5.520455,0 8.852942,8.72844 4.750103,12.44146 C 75.671861,213.60694 51.43371,223 48.238665,223 c -1.281266,0 -3.43412,-1.10455 -4.78412,-2.45455 z m 404.859165,-2.39446 c -6.70246,-2.59914 -13.11496,-5.56614 -14.25,-6.59334 C 429.73984,207.64461 432.83021,199 438.55295,199 c 2.10002,0 20.64076,6.60148 27.10479,9.65073 7.81652,3.68726 5.66292,14.51404 -2.842,14.28762 -1.27366,-0.0339 -7.79957,-2.18822 -14.50203,-4.78736 z M 32.468643,164.72669 C 28.858275,161.62118 28.613426,156.5412 31.944117,153.84417 33.943858,152.22488 36.15908,152 50.110784,152 64.666667,152 66.167829,152.16783 68,154 c 2.526245,2.52625 2.566915,7.0775 0.0906,10.13922 -1.834728,2.26846 -2.513787,2.37323 -17.36469,2.6792 -15.110047,0.31131 -15.517886,0.26459 -18.25727,-2.09173 z m 412.166217,0.20073 C 441.33332,162.33043 441.02234,156.97766 444,154 c 1.83333,-1.83333 3.33333,-2 18,-2 14.66667,0 16.16667,0.16667 18,2 2.97766,2.97766 2.66668,8.33043 -0.63486,10.92742 C 476.97038,166.81114 475.38803,167 462,167 c -13.38803,0 -14.97038,-0.18886 -17.36514,-2.07258 z m -38.06531,-18.26696 c -1.36636,-1.36636 -2.62696,-4.17415 -3.0305,-6.75 C 398.33982,106.72382 379.79622,72.978319 354.77051,51.161848 334.1805,33.212261 308.77405,20.950073 282.86417,16.456922 c -5.15029,-0.893136 -10.56307,-2.074921 -12.02838,-2.626189 -3.5206,-1.324486 -5.52091,-6.0316477 -3.9905,-9.3905206 2.02167,-4.43708567 5.02838,-4.98512141 16.42622,-2.9940227 22.79979,3.9829144 45.53715,13.1655703 65.04043,26.2670773 11.37631,7.642138 27.06155,22.179987 36.04609,33.409269 7.98925,9.985326 17.33298,25.721556 22.49057,37.877464 7.36874,17.36734 12.75629,39.77502 10.88469,45.27111 -1.72966,5.07927 -7.28485,6.26824 -11.16374,2.38935 z m -37.50433,-9.9252 c -1.8321,-0.92949 -3.21471,-3.48934 -5.58555,-10.34141 -9.14809,-26.439322 -25.88651,-46.647882 -50.30251,-60.73102 -8.40109,-4.845743 -10.11411,-7.135389 -8.69161,-11.6173 0.36637,-1.154347 1.7774,-2.826943 3.13562,-3.716879 3.57815,-2.344496 7.9433,-0.733517 20.52094,7.573352 23.20901,15.328325 40.409,37.844968 49.42469,64.702257 2.21844,6.60861 2.40204,8.05675 1.345,10.60866 -0.67327,1.62543 -2.30815,3.36747 -3.63307,3.87121 -3.04362,1.15718 -3.27004,1.14447 -6.21351,-0.34887 z M 57.5,114.41676 C 45.86019,110.07332 41,106.85515 41,103.49129 c 0,-2.87171 2.348298,-6.392919 4.994396,-7.488969 2.372878,-0.982878 4.341467,-0.531904 14.869674,3.406417 14.517884,5.430752 17.694366,6.998182 18.514749,9.136062 2.079285,5.41853 -1.153244,10.49129 -6.628819,10.4025 -1.7875,-0.029 -8.65,-2.06773 -15.25,-4.53054 z m 376.15499,2.7545 c -2.19695,-2.4276 -2.14219,-8.42927 0.095,-10.41306 0.9625,-0.85347 7.90513,-3.84939 15.42806,-6.65759 11.09303,-4.140862 14.15424,-4.924768 16.1977,-4.147847 5.39027,2.04938 6.89982,8.747827 2.7843,12.355097 C 465.52668,110.61605 442.41697,119 438.68803,119 c -2.00261,0 -4.05192,-0.74461 -5.03304,-1.82874 z"
         id="path4803" />
      <path
         style="fill:#060504"
         d="m 250.28062,511.34796 c -1.22066,-0.26347 -5.37188,-2.01327 -9.22494,-3.88844 C 229.54198,501.85614 223.4536,494.3325 220.04838,481.5 l -1.59216,-6 -9.97811,-0.53345 c -10.97186,-0.58658 -14.5813,-1.9236 -18.83269,-6.9761 -3.7844,-4.4975 -4.94893,-10.08306 -4.3763,-20.99045 l 0.49874,-9.5 -4.31361,-4.63198 c -2.63742,-2.83208 -4.77155,-6.3293 -5.49212,-9 -1.63404,-6.05639 -0.75884,-20.39339 1.52876,-25.04311 1.74862,-3.5542 1.74698,-3.8009 -0.0497,-7.5 -2.05995,-4.24124 -3.05925,-15.71802 -1.98965,-22.85066 0.42245,-2.81713 1.95009,-6.15735 4.11037,-8.98748 L 183,354.98269 182.978,336.24135 C 182.95881,319.83131 182.71684,317.00242 181.03289,313.5 178.22511,307.66013 177.51434,306.98537 166,299.22865 129.32449,274.52191 105.19018,238.6477 95.880383,195 92.816975,180.63764 92.552598,149.57882 95.365398,134.5 103.56108,90.564728 128.87367,52.040114 165.5,27.758327 181.8866,16.894671 199.79063,8.9802012 217,4.9927678 c 5.225,-1.210639 10.4,-2.5734174 11.5,-3.0283965 1.1,-0.4549791 4.09958,-1.10497683 6.66573,-1.44443935 4.02003,-0.53178786 4.95954,-0.30184362 6.7887,1.66153225 4.641,4.9815211 3.42401,10.1822738 -2.72144,11.6300348 C 237.17985,14.295184 231.45,15.463833 226.5,16.408496 197.42653,21.956909 172.3404,35.490667 150.46362,57.429486 128.17298,79.783338 115.43507,103.24809 108.89708,134 c -3.03229,14.26258 -3.28404,40.75617 -0.52738,55.5 4.94881,26.46837 16.13672,49.92646 33.91959,71.12036 8.97524,10.69682 18.47566,19.04247 31.90253,28.02479 10.88501,7.28187 16.03347,12.44694 19.17058,19.23245 1.88973,4.08745 2.1756,6.76311 2.47017,23.11976 0.1948,10.81731 0.76475,19.01744 1.37272,19.75 0.7474,0.90056 5.21131,1.25264 15.88197,1.25264 13.65076,0 14.92548,-0.15529 15.87756,-1.93426 1.44255,-2.69543 1.37069,-57.31705 -0.0823,-62.55078 -0.60848,-2.19177 -4.43548,-8.40453 -8.50446,-13.80614 -11.3947,-15.1266 -10.76353,-12.41447 -11.16291,-47.96685 l -0.34552,-30.75803 -2.92033,-1.51016 c -5.14092,-2.65847 -5.30523,-8.72849 -0.32375,-11.9604 1.70682,-1.10736 3.57359,-3.24653 4.14837,-4.75372 1.94778,-5.10744 10.16287,-5.68491 11.70602,-0.82286 1.6123,5.07992 1.50591,5.06428 34.34149,5.04789 16.87321,-0.008 31.21292,-0.35508 31.86601,-0.77035 0.65309,-0.41528 1.65752,-1.99146 2.23207,-3.50262 2.25205,-5.92334 9.90428,-5.46254 12.50121,0.75279 0.81248,1.94452 2.14967,3.53549 2.97155,3.53549 1.95291,0 4.60773,3.84396 4.60773,6.67161 0,1.35868 -1.33025,3.24124 -3.41266,4.82957 l -3.41265,2.60296 -0.3485,30.19793 c -0.40295,34.91699 -0.10369,33.61227 -10.98955,47.91253 C 281.36927,286.9651 282,284.02857 282,319.01144 c 0,22.45777 0.31897,30.90753 1.2,31.78856 1.67494,1.67494 29.92506,1.67494 31.6,0 0.83706,-0.83706 1.2,-6.22633 1.2,-17.8185 0,-27.76605 1.26988,-30.02398 26.94988,-47.91884 32.84324,-22.88649 55.32623,-60.0065 61.51488,-101.56266 1.66745,-11.19675 3.60812,-14.1762 8.47201,-13.0068 5.44405,1.30889 6.17483,5.61545 3.52421,20.76856 -7.64801,43.72223 -32.70742,81.91849 -70.89846,108.06542 C 328.90104,310.73421 329,310.51731 329,335.62805 v 19.31348 l 3.06429,4.34733 c 5.91084,8.38578 6.63705,21.46569 1.85094,33.33755 -1.07256,2.66046 -1.0021,3.67076 0.47278,6.77883 2.37539,5.00577 3.12924,15.79161 1.61414,23.09476 -1.00977,4.86734 -2.03859,6.79439 -5.44997,10.2081 l -4.20522,4.20809 0.0765,11.79191 c 0.0677,10.43116 -0.1854,12.28221 -2.19323,16.04078 -1.24837,2.33689 -4.13906,5.48689 -6.42377,7 -3.6774,2.43548 -5.25271,2.78819 -13.73024,3.07426 C 294.09547,475.15993 292,476.08487 292,480.15362 c 0,4.33419 -4.43548,13.16169 -9.2725,18.45417 -8.27838,9.05786 -22.90292,14.80014 -32.44688,12.74017 z M 265.5,495.13434 c 6.94739,-3.16408 15.17399,-14.61675 13.01208,-18.11479 C 278.11501,476.37708 269.78902,476 256,476 c -13.78902,0 -22.11501,0.37708 -22.51208,1.01955 -1.11886,1.81035 1.65554,8.13325 5.38277,12.26746 4.69686,5.20971 10.18998,7.66907 17.12931,7.66907 3.19013,0 7.1799,-0.76509 9.5,-1.82174 z M 312.02176,459.25 c 1.86785,-2.37045 2.11683,-3.74827 1.80401,-9.98285 C 313.23541,437.50108 318.61169,438.5 255.87593,438.5 h -54.05264 l -1.91164,2.36078 c -2.82799,3.49242 -2.74486,15.86775 0.12731,18.95066 L 202.07791,462 h 53.88846 53.88847 z m 8.57854,-35.01531 c 3.94919,-2.63695 4.79891,-15.18616 1.32712,-19.59983 L 319.85484,402 H 255.92742 C 181.3162,402 188,400.89034 188,413.27749 c 0,4.96824 0.49397,7.98273 1.5567,9.5 L 191.11341,425 255.3067,424.9847 c 35.30632,-0.008 64.68843,-0.34592 65.2936,-0.75 z m 0.514,-37.12616 c 1.995,-1.61546 2.39149,-2.99291 2.71702,-9.43923 0.35441,-7.01837 0.20154,-7.72735 -2.17963,-10.10852 L 319.09091,365 H 256 192.90909 l -2.45454,2.45455 C 188.31002,369.59907 188,370.80471 188,377 c 0,6.19529 0.31002,7.40093 2.45455,9.54545 L 192.90909,389 h 62.93467 c 60.24104,0 63.03465,-0.081 65.27054,-1.89147 z M 267.8,350.8 c 0.88192,-0.88192 1.2,-9.44856 1.2,-32.3185 0,-37.30429 0.007,-37.33924 9.99843,-50.4095 10.80524,-14.13475 10.07017,-10.80048 9.76671,-44.30161 L 288.5,194.5 l -32,-0.26541 c -29.19627,-0.24216 -32.10952,-0.11589 -33.25,1.44113 -1.48463,2.02686 -1.7619,50.41389 -0.32437,56.60571 0.4995,2.15145 3.8932,7.79298 7.87316,13.08796 12.50676,16.63912 11.65801,13.01669 11.97995,51.13061 0.1533,18.15 0.47668,33.5625 0.71861,34.25 0.60395,1.71624 22.59117,1.76148 24.30265,0.05 z M 44.07258,219.36514 C 41.544574,216.1513 41.486976,214.85008 43.75,212.07762 45.494887,209.93994 69.745441,200 73.215881,200 c 4.418829,0 7.293814,6.55311 4.532021,10.33009 C 76.425376,212.13875 51.343,222 48.065142,222 c -1.05599,0 -2.852643,-1.18569 -3.992562,-2.63486 z m 404.65989,-2.30255 c -7.02213,-2.66573 -13.43463,-5.40044 -14.25,-6.07713 -2.32442,-1.9291 -1.87982,-7.59374 0.74004,-9.42876 1.22237,-0.85618 2.92343,-1.5567 3.78013,-1.5567 2.42373,0 27.24653,9.8206 28.83313,11.4072 3.2628,3.2628 0.29446,10.64558 -4.24076,10.54749 -1.15225,-0.0249 -7.8404,-2.22636 -14.86254,-4.8921 z M 34,164.71245 c -3.176839,-1.59866 -3.956206,-6.99837 -1.415347,-9.80599 C 34.142105,153.18549 35.836576,153 50,153 c 13.930249,0 15.875646,0.20511 17.345012,1.82874 0.910244,1.00581 1.648097,2.91831 1.639675,4.25 -0.0367,5.80369 -3.146815,6.92426 -19.168946,6.90652 C 41.136872,165.97565 35.629438,165.53243 34,164.71245 Z m 413,0.59357 c -4.08293,-1.4592 -5.36714,-7.7588 -2.17126,-10.65103 1.53627,-1.39031 4.31028,-1.65499 17.34501,-1.65499 13.76192,0 15.7034,0.20677 17.17126,1.82874 0.91025,1.00581 1.6481,2.91831 1.63968,4.25 -0.0369,5.82824 -3.14399,6.93732 -19.16895,6.84231 C 454.49208,165.87763 447.825,165.60087 447,165.30602 Z m -40.27553,-19.05798 c -0.87203,-0.96358 -2.51191,-6.29791 -3.64418,-11.85406 C 396.88733,104.00463 383.69818,79.552137 361.57051,57.4355 338.7407,34.617061 315.94179,22.49821 283.53689,15.956414 269.04307,13.030449 267,11.977206 267,7.4313151 267,6.228781 267.67005,4.6888012 268.48899,4.0091379 269.30793,3.3294745 269.763,2.425535 269.50024,2.0003833 268.28453,0.03332165 277.629,0.00629328 282.5,1.9627822 c 1.1,0.4418264 5.6,1.5907159 10,2.5530876 19.61279,4.2897271 41.00189,13.8998532 58.47687,26.2736762 12.06967,8.54639 28.5971,25.054356 37.27748,37.233588 14.96294,20.994129 28.63396,55.534286 28.72401,72.571876 0.0346,6.54415 -6.2913,10.03164 -10.25389,5.65303 z M 368.77067,135.75 c -0.88637,-0.6875 -3.41741,-6.08858 -5.62452,-12.00239 C 353.82802,98.780266 337.95855,79.65907 315.53297,66.378258 311.11484,63.761764 306.9375,60.945264 306.25,60.119369 303.15166,56.397329 306.06431,50 310.85726,50 c 5.77335,0 24.0884,12.038452 35.38808,23.260525 9.51302,9.447691 16.49019,18.928887 22.59325,30.701695 5.08636,9.81157 10.16141,23.27446 10.16141,26.95575 0,4.65791 -6.49704,7.72691 -10.22933,4.83203 z M 56.559794,112.71236 c -11.232502,-4.52449 -13.059481,-5.5795 -13.844014,-7.9944 -1.322994,-4.07236 1.30328,-7.718674 5.557273,-7.715718 3.772001,0.0026 26.352235,8.348678 28.951515,10.700988 2.30142,2.08276 2.273951,6.53564 -0.05331,8.64178 -2.897811,2.62249 -6.78198,1.93792 -20.611464,-3.63265 z m 378.011636,3.71621 c -1.60734,-1.60734 -2.03796,-5.04923 -0.97748,-7.81281 0.90379,-2.35522 25.91091,-11.785305 30.27749,-11.417515 4.458,0.375491 6.4588,3.555985 4.95349,7.874125 -0.85988,2.46665 -2.62309,3.45993 -13.97958,7.87515 -13.74901,5.3454 -17.72661,6.02836 -20.27392,3.48105 z"
         id="path4801" />
    </g>
  </g>
</svg>
