<?xml version="1.0" encoding="UTF-8" standalone="no"?>
<!-- Created with Inkscape (http://www.inkscape.org/) -->

<svg
   version="1.1"
   id="svg835"
   width="546.1333"
   height="546.1333"
   viewBox="0 0 546.1333 546.1333"
   xmlns="http://www.w3.org/2000/svg"
   xmlns:svg="http://www.w3.org/2000/svg">
  <defs
     id="defs839" />
  <g
     id="g841">
    <g
       id="g845">
      <path
         style="fill:#eaecfd;stroke-width:1.06667"
         d="m 136.39726,413.06664 c -1.32679,-1.6918 -1.28907,-1.72952 0.40273,-0.40273 1.02667,0.80517 1.86667,1.64517 1.86667,1.86667 0,0.87791 -0.87594,0.31286 -2.2694,-1.46394 z m 76.93606,1.46394 c 0,-0.2215 0.84,-1.0615 1.86667,-1.86667 1.69179,-1.32679 1.72952,-1.28907 0.40273,0.40273 -1.39346,1.7768 -2.2694,2.34185 -2.2694,1.46394 z m 117.19726,-1.46394 c -1.32679,-1.6918 -1.28906,-1.72952 0.40273,-0.40273 1.7768,1.39346 2.34185,2.2694 1.46394,2.2694 -0.22149,0 -1.06149,-0.84 -1.86667,-1.86667 z m 76.93606,1.46394 c 0,-0.2215 0.84,-1.0615 1.86667,-1.86667 1.6918,-1.32679 1.72952,-1.28907 0.40273,0.40273 -1.39346,1.7768 -2.2694,2.34185 -2.2694,1.46394 z M 78.933329,335.99998 V 283.73332 H 273.06665 467.19997 v 52.26666 52.26666 H 273.06665 78.933329 Z m 41.866661,24.72969 2.93334,-2.72882 V 336.2517 314.50254 l -3.11796,-3.11794 c -2.44532,-2.44533 -4.07377,-3.11795 -7.54871,-3.11795 -3.47494,0 -5.10339,0.67262 -7.54872,3.11795 l -3.11795,3.11794 v 21.74916 21.74915 l 2.93334,2.76251 c 4.9743,4.68463 10.40747,4.6728 15.46666,-0.0337 z m 44.8,0 2.93333,-2.72882 V 336.2517 314.50254 l -3.11795,-3.11794 c -2.44532,-2.44533 -4.07377,-3.11795 -7.54871,-3.11795 -3.47495,0 -5.10339,0.67262 -7.54872,3.11795 l -3.11795,3.11794 v 21.74916 21.74915 l 2.93333,2.76251 c 4.97431,4.68463 10.40748,4.6728 15.46667,-0.0337 z m 44.8,0 2.93333,-2.72882 V 336.2517 314.50254 l -3.11795,-3.11794 c -2.44532,-2.44533 -4.07377,-3.11795 -7.54872,-3.11795 -3.47494,0 -5.10339,0.67262 -7.54871,3.11795 l -3.11795,3.11794 v 21.74916 21.74915 l 2.93333,2.76251 c 4.97431,4.68463 10.40748,4.6728 15.46667,-0.0337 z m 70.21537,-34.24764 c 6.87097,-6.87096 2.16968,-18.21538 -7.54871,-18.21538 -3.47494,0 -5.10339,0.67262 -7.54871,3.11795 -6.87097,6.87095 -2.16968,18.21538 7.54871,18.21538 3.47494,0 5.10339,-0.67262 7.54871,-3.11795 z m 149.11549,0.88218 c 5.18764,-4.83301 5.3718,-11.43732 0.456,-16.3531 l -2.74445,-2.74446 h -58.06993 -58.06993 l -3.11794,3.11795 c -2.44533,2.44532 -3.11795,4.07377 -3.11795,7.54871 0,3.47495 0.67262,5.1034 3.11795,7.54872 l 3.11794,3.11795 h 58.01426 c 57.42581,0 58.03859,-0.0227 60.41405,-2.23577 z M 261.83466,197.33332 c 0,-36.08 0.13413,-50.84 0.29808,-32.8 0.16394,18.04 0.16394,47.56 0,65.6 -0.16395,18.04 -0.29808,3.28 -0.29808,-32.8 z m 244.56531,-61.59474 c 5.42667,-0.19359 14.30666,-0.19359 19.73333,0 5.42667,0.19359 0.98667,0.35199 -9.86666,0.35199 -10.85334,0 -15.29334,-0.1584 -9.86667,-0.35199 z M 204.20998,66.133329 c 0,-19.066665 0.14464,-26.866665 0.32143,-17.333332 0.17678,9.533333 0.17678,25.133332 0,34.666665 -0.17679,9.533332 -0.32143,1.733333 -0.32143,-17.333333 z"
         id="path859" />
      <path
         style="fill:#dce0fd;stroke-width:1.06667"
         d="M 63.962844,211.81433 C 53.893407,209.70274 41.958493,204.80132 33.758191,199.40994 l -7.13626,-4.69182 62.665234,-62.67198 62.665235,-62.671995 2.398,2.912926 c 3.60734,4.381953 11.70256,21.258705 13.6767,28.512919 0.96031,3.52876 1.99562,12.62103 2.30769,20.26667 0.47763,11.70119 0.21932,15.31741 -1.65406,23.15654 -7.54261,31.56176 -29.92933,55.58087 -60.9474,65.39157 -11.164229,3.53114 -32.345052,4.59551 -43.770486,2.19956 z m 380.303796,-94.481 c 15.24487,-15.25334 27.95795,-27.733335 28.25128,-27.733335 0.29334,0 -11.93974,12.479995 -27.18461,27.733335 -15.24488,15.25333 -27.95795,27.73333 -28.25129,27.73333 -0.29333,0 11.93975,-12.48 27.18462,-27.73333 z"
         id="path857" />
      <path
         style="fill:#c7cffd;stroke-width:1.06667"
         d="m 283.73332,197.33332 v -65.06666 h 10.66666 10.66667 v 15.85455 c 0,15.70796 0.026,15.88053 2.81212,18.66666 2.35368,2.35368 4.67957,3.25012 7.85454,3.02732 0.29334,-0.0206 0.53334,3.42947 0.53334,7.66678 0,6.91662 -0.21616,7.72049 -2.11447,7.86349 -5.58848,0.42096 -9.08553,4.78923 -9.08553,11.34896 0,4.11359 3.73423,8.73024 7.90909,9.77806 2.67424,0.6712 2.75757,0.94652 2.75757,9.10981 0,7.81051 -0.15979,8.4177 -2.21538,8.4177 -1.21846,0 -3.61846,1.40307 -5.33333,3.11795 l -3.11795,3.11794 v 16.08206 16.08204 H 294.39998 283.73332 Z M 59.09055,116.26666 c 0,-8.50667 0.165654,-11.98667 0.368121,-7.73333 0.202465,4.25333 0.202465,11.21333 0,15.46666 -0.202467,4.25334 -0.368121,0.77334 -0.368121,-7.73333 z m 173.66951,-6.94038 c -6.29604,-2.73551 -6.62674,-4.89097 -6.62674,-43.192951 0,-27.614928 0.30075,-34.921647 1.56161,-37.939313 2.88774,-6.911343 2.40761,-6.861377 65.87079,-6.854735 36.19725,0.0038 58.29035,0.410321 60.84435,1.119589 7.72427,2.145105 7.72324,2.139338 7.72324,43.674459 0,41.535121 0.001,41.529351 -7.72324,43.674461 -2.56415,0.71209 -24.587,1.10073 -61.07675,1.07784 -47.0467,-0.0296 -57.68237,-0.30331 -60.57326,-1.55935 z m 71.56758,-8.06096 c 10.69738,-2.714028 22.15481,-14.185032 25.07551,-25.105207 4.08995,-15.291863 -1.83218,-31.413575 -14.7365,-40.116886 -7.02052,-4.734987 -14.34062,-6.600069 -23.57514,-6.006689 -12.26062,0.787829 -24.10283,8.989575 -29.78712,20.630126 -3.4009,6.964522 -4.16802,19.420854 -1.65426,26.861237 3.41182,10.098461 12.65827,19.545628 22.76329,23.257429 4.85091,1.78184 15.8347,2.02242 21.91422,0.47999 z"
         id="path855" />
      <path
         style="fill:#98a7fd;stroke-width:1.06667"
         d="m 70.147607,523.75376 c -21.894497,-3.927 -39.485409,-19.27587 -45.866302,-40.02046 -9.114054,-29.63021 8.212147,-61.98631 38.118691,-71.18536 36.285855,-11.16128 73.482054,16.50327 73.482054,54.65203 0,20.07302 -10.13475,38.05713 -27.61539,49.00348 -10.0726,6.30744 -26.693576,9.59959 -38.119053,7.55031 z m 23.87688,-23.67273 c 7.655573,-3.55389 14.212823,-10.10092 17.817683,-17.7899 4.05744,-8.65429 4.05744,-21.52802 0,-30.18231 -3.5969,-7.672 -10.14569,-14.22079 -17.817683,-17.81769 -5.035548,-2.36084 -7.512822,-2.82449 -15.091158,-2.82449 -7.578337,0 -10.055611,0.46365 -15.091159,2.82449 -20.475493,9.59963 -27.302763,34.4615 -14.69172,53.5007 3.901965,5.89089 9.073464,9.93982 16.898056,13.22998 8.167158,3.43422 19.362625,3.05774 27.975981,-0.94078 z m 170.256443,23.67273 c -21.8945,-3.927 -39.48541,-19.27587 -45.86631,-40.02046 -9.11405,-29.63021 8.21215,-61.98631 38.1187,-71.18536 14.70761,-4.52395 33.35064,-2.26929 45.59469,5.51418 36.70297,23.33184 37.43881,73.92444 1.41558,97.32802 -10.82323,7.03165 -27.21785,10.52398 -39.26266,8.36362 z m 23.87688,-23.67273 c 7.65557,-3.55389 14.21282,-10.10092 17.81768,-17.7899 2.36084,-5.03554 2.82449,-7.51282 2.82449,-15.09116 0,-10.88886 -2.99924,-18.46591 -10.13333,-25.6 -7.13409,-7.13409 -14.71114,-10.13333 -25.6,-10.13333 -7.57834,0 -10.05562,0.46365 -15.09116,2.82449 -20.47549,9.59963 -27.30276,34.4615 -14.69172,53.5007 3.90196,5.89089 9.07346,9.93982 16.89806,13.22998 8.16716,3.43422 19.36262,3.05774 27.97598,-0.94078 z m 170.25644,23.67273 c -16.74844,-3.004 -29.983,-11.77756 -39.38512,-26.10949 -20.29344,-30.93392 -4.2621,-74.05384 31.63751,-85.09633 14.70761,-4.52395 33.35064,-2.26929 45.5947,5.51418 36.70296,23.33184 37.4388,73.92444 1.41557,97.32802 -10.82323,7.03165 -27.21785,10.52398 -39.26266,8.36362 z m 23.87688,-23.67273 c 7.65557,-3.55389 14.21282,-10.10092 17.81768,-17.7899 2.36084,-5.03554 2.82449,-7.51282 2.82449,-15.09116 0,-10.88886 -2.99924,-18.46591 -10.13333,-25.6 -7.13409,-7.13409 -14.71114,-10.13333 -25.6,-10.13333 -7.57833,0 -10.05561,0.46365 -15.09115,2.82449 -20.4755,9.59963 -27.30277,34.4615 -14.69173,53.5007 3.90197,5.89089 9.07346,9.93982 16.89806,13.22998 8.16716,3.43422 19.36262,3.05774 27.97598,-0.94078 z M 118.39999,246.05942 v -16.34056 l 8.15764,-3.58503 c 9.65815,-4.24444 21.94781,-12.0769 28.66578,-18.26932 2.65112,-2.44371 4.99676,-4.25293 5.21255,-4.02048 0.7802,0.84043 29.4307,57.15169 29.4307,57.8447 0,0.39119 -16.08,0.71125 -35.73334,0.71125 H 118.39999 Z M 457.06664,135.46666 c 11.72233,-11.73333 21.55333,-21.33333 21.84666,-21.33333 0.29334,0 -9.05766,9.6 -20.77999,21.33333 -11.72234,11.73333 -21.55334,21.33333 -21.84667,21.33333 -0.29333,0 9.05766,-9.6 20.78,-21.33333 z m -286.09491,-11.2 c 0.009,-2.93333 0.21517,-4.00673 0.46034,-2.38533 0.24519,1.62139 0.23863,4.02139 -0.0145,5.33333 -0.25319,1.31193 -0.45378,-0.0147 -0.44578,-2.948 z M 290.35552,80.317497 c -1.34444,-0.262641 -4.03345,-2.066523 -5.97555,-4.008626 -6.05817,-6.058169 -6.08964,-14.261449 -0.0778,-20.273319 4.04714,-4.047132 8.29584,-5.161134 13.84277,-3.629551 9.57687,2.644301 13.19142,12.538623 8.07383,22.100942 -2.10336,3.930154 -10.23742,6.909576 -15.86328,5.810554 z"
         id="path853" />
      <path
         style="fill:#5f6798;stroke-width:1.06667"
         d="m 72.333329,524.07132 c 0.77,-0.30813 1.69,-0.27024 2.044445,0.0842 0.354443,0.35444 -0.275557,0.60655 -1.4,0.56023 -1.242606,-0.0512 -1.49536,-0.30393 -0.644445,-0.64444 z m 11.733333,0 c 0.769999,-0.30813 1.689999,-0.27024 2.044444,0.0842 0.354444,0.35444 -0.275556,0.60655 -1.4,0.56023 -1.242605,-0.0512 -1.49536,-0.30393 -0.644444,-0.64444 z m 182.399988,0 c 0.77,-0.30813 1.68999,-0.27024 2.04445,0.0842 0.35444,0.35444 -0.27556,0.60655 -1.4,0.56023 -1.24261,-0.0512 -1.49536,-0.30393 -0.64445,-0.64444 z m 11.73333,0 c 0.77,-0.30813 1.69001,-0.27024 2.04445,0.0842 0.35444,0.35444 -0.27556,0.60655 -1.4,0.56023 -1.24261,-0.0512 -1.49536,-0.30393 -0.64445,-0.64444 z m 182.39999,0 c 0.77,-0.30813 1.69001,-0.27024 2.04445,0.0842 0.35444,0.35444 -0.27556,0.60655 -1.4,0.56023 -1.24261,-0.0512 -1.49536,-0.30393 -0.64445,-0.64444 z m 11.73333,0 c 0.77,-0.30813 1.69001,-0.27024 2.04445,0.0842 0.35445,0.35444 -0.27556,0.60655 -1.4,0.56023 -1.24261,-0.0512 -1.49536,-0.30393 -0.64445,-0.64444 z m -434.567982,-16.60468 -2.031987,-2.4 2.4,2.03199 c 2.255408,1.90956 2.88559,2.76801 2.031987,2.76801 -0.202407,0 -1.282407,-1.08 -2.4,-2.4 z m 81.168012,0.26666 c 1.06185,-1.17333 2.17064,-2.13333 2.46397,-2.13333 0.29334,0 -0.33545,0.96 -1.39731,2.13333 -1.06185,1.17334 -2.17064,2.13334 -2.46398,2.13334 -0.29333,0 0.33546,-0.96 1.39732,-2.13334 z m 112.96531,-0.26666 -2.03199,-2.4 2.4,2.03199 c 2.25541,1.90956 2.88559,2.76801 2.03199,2.76801 -0.20241,0 -1.28241,-1.08 -2.4,-2.4 z m 81.16801,0.26666 c 1.06185,-1.17333 2.17064,-2.13333 2.46398,-2.13333 0.29333,0 -0.33546,0.96 -1.39732,2.13333 -1.06185,1.17334 -2.17064,2.13334 -2.46397,2.13334 -0.29334,0 0.33545,-0.96 1.39731,-2.13334 z m 112.96531,-0.26666 -2.03199,-2.4 2.4,2.03199 c 1.32,1.11758 2.4,2.19758 2.4,2.39999 0,0.8536 -0.85844,0.22342 -2.76801,-2.03198 z m 81.16801,0.26666 c 1.06185,-1.17333 2.17064,-2.13333 2.46398,-2.13333 0.29333,0 -0.33546,0.96 -1.39731,2.13333 -1.06186,1.17334 -2.17065,2.13334 -2.46398,2.13334 -0.29334,0 0.33545,-0.96 1.39731,-2.13334 z m -454.501319,-15.2 -2.031987,-2.4 2.399999,2.03199 c 2.255408,1.90957 2.885591,2.76801 2.031988,2.76801 -0.202408,0 -1.282408,-1.08 -2.4,-2.4 z m 51.301339,0.26667 c 1.06186,-1.17333 2.17064,-2.13333 2.46398,-2.13333 0.29334,0 -0.33546,0.96 -1.39731,2.13333 -1.06185,1.17333 -2.17064,2.13333 -2.46397,2.13333 -0.29334,0 0.33545,-0.96 1.3973,-2.13333 z m 142.83198,-0.26667 -2.03198,-2.4 2.39999,2.03199 c 2.25541,1.90957 2.88559,2.76801 2.03199,2.76801 -0.20241,0 -1.28241,-1.08 -2.4,-2.4 z m 51.30135,0.26667 c 1.06185,-1.17333 2.17064,-2.13333 2.46397,-2.13333 0.29334,0 -0.33545,0.96 -1.39731,2.13333 -1.06185,1.17333 -2.17064,2.13333 -2.46398,2.13333 -0.29333,0 0.33546,-0.96 1.39732,-2.13333 z m 142.83198,-0.26667 -2.03199,-2.4 2.4,2.03199 c 1.32,1.11759 2.4,2.19759 2.4,2.4 0,0.8536 -0.85845,0.22342 -2.76801,-2.03199 z m 51.30134,0.26667 c 1.06185,-1.17333 2.17064,-2.13333 2.46398,-2.13333 0.29333,0 -0.33546,0.96 -1.39732,2.13333 -1.06185,1.17333 -2.17064,2.13333 -2.46398,2.13333 -0.29333,0 0.33546,-0.96 1.39732,-2.13333 z M 21.417542,472.97775 c 0.05118,-1.24261 0.303937,-1.49536 0.644445,-0.64445 0.308129,0.77 0.270234,1.69001 -0.08421,2.04445 -0.354445,0.35445 -0.606551,-0.27556 -0.560235,-1.4 z m 114.133328,0 c 0.0512,-1.24261 0.30394,-1.49536 0.64444,-0.64445 0.30813,0.77 0.27024,1.69001 -0.0842,2.04445 -0.35444,0.35445 -0.60655,-0.27556 -0.56024,-1.4 z m 80,0 c 0.0512,-1.24261 0.30393,-1.49536 0.64443,-0.64445 0.30813,0.77 0.27024,1.69001 -0.0842,2.04445 -0.35445,0.35445 -0.60655,-0.27556 -0.56023,-1.4 z m 114.13332,0 c 0.0512,-1.24261 0.30394,-1.49536 0.64444,-0.64445 0.30813,0.77 0.27024,1.69001 -0.0842,2.04445 -0.35444,0.35445 -0.60655,-0.27556 -0.56023,-1.4 z m 80,0 c 0.0512,-1.24261 0.30393,-1.49536 0.64444,-0.64445 0.30812,0.77 0.27024,1.69001 -0.0842,2.04445 -0.35445,0.35445 -0.60655,-0.27556 -0.56024,-1.4 z m 114.13332,0 c 0.0512,-1.24261 0.30394,-1.49536 0.64444,-0.64445 0.30813,0.77 0.27024,1.69001 -0.0842,2.04445 -0.35444,0.35445 -0.60655,-0.27556 -0.56023,-1.4 z M 21.417542,461.24442 c 0.05118,-1.24261 0.303937,-1.49536 0.644445,-0.64445 0.308129,0.77 0.270234,1.69001 -0.08421,2.04445 -0.354445,0.35444 -0.606551,-0.27556 -0.560235,-1.4 z m 114.133328,0 c 0.0512,-1.24261 0.30394,-1.49536 0.64444,-0.64445 0.30813,0.77 0.27024,1.69001 -0.0842,2.04445 -0.35444,0.35444 -0.60655,-0.27556 -0.56024,-1.4 z m 80,0 c 0.0512,-1.24261 0.30393,-1.49536 0.64443,-0.64445 0.30813,0.77 0.27024,1.69001 -0.0842,2.04445 -0.35445,0.35444 -0.60655,-0.27556 -0.56023,-1.4 z m 114.13332,0 c 0.0512,-1.24261 0.30394,-1.49536 0.64444,-0.64445 0.30813,0.77 0.27024,1.69001 -0.0842,2.04445 -0.35444,0.35444 -0.60655,-0.27556 -0.56023,-1.4 z m 80,0 c 0.0512,-1.24261 0.30393,-1.49536 0.64444,-0.64445 0.30812,0.77 0.27024,1.69001 -0.0842,2.04445 -0.35445,0.35444 -0.60655,-0.27556 -0.56024,-1.4 z m 114.13332,0 c 0.0512,-1.24261 0.30394,-1.49536 0.64444,-0.64445 0.30813,0.77 0.27024,1.69001 -0.0842,2.04445 -0.35444,0.35444 -0.60655,-0.27556 -0.56023,-1.4 z M 52.799997,441.59997 c 1.061851,-1.17333 2.17064,-2.13333 2.463973,-2.13333 0.293333,0 -0.335455,0.96 -1.397307,2.13333 -1.061851,1.17334 -2.170639,2.13334 -2.463973,2.13334 -0.293333,0 0.335455,-0.96 1.397307,-2.13334 z m 51.098653,-0.26666 -2.03199,-2.4 2.4,2.03199 c 1.32,1.11759 2.4,2.19758 2.4,2.4 0,0.8536 -0.85845,0.22341 -2.76801,-2.03199 z m 143.03467,0.26666 c 1.06185,-1.17333 2.17064,-2.13333 2.46398,-2.13333 0.29333,0 -0.33546,0.96 -1.39732,2.13333 -1.06185,1.17334 -2.17064,2.13334 -2.46397,2.13334 -0.29334,0 0.33545,-0.96 1.39731,-2.13334 z m 51.09865,-0.26666 -2.03199,-2.4 2.4,2.03199 c 2.2554,1.90956 2.88559,2.76801 2.03199,2.76801 -0.20241,0 -1.28241,-1.08 -2.4,-2.4 z m 143.03467,0.26666 c 1.06186,-1.17333 2.17064,-2.13333 2.46398,-2.13333 0.29333,0 -0.33546,0.96 -1.39731,2.13333 -1.06186,1.17334 -2.17065,2.13334 -2.46398,2.13334 -0.29334,0 0.33545,-0.96 1.39731,-2.13334 z m 51.09865,-0.26666 -2.03199,-2.4 2.4,2.03199 c 2.25541,1.90956 2.88559,2.76801 2.03199,2.76801 -0.20241,0 -1.28241,-1.08 -2.4,-2.4 z M 37.866664,426.66664 c 1.061852,-1.17333 2.17064,-2.13333 2.463974,-2.13333 0.293333,0 -0.335455,0.96 -1.397307,2.13333 -1.061852,1.17333 -2.17064,2.13333 -2.463973,2.13333 -0.293334,0 0.335455,-0.96 1.397306,-2.13333 z m 80.965316,-0.26667 -2.03199,-2.4 2.4,2.03199 c 1.32,1.11759 2.4,2.19759 2.4,2.4 0,0.8536 -0.85844,0.22342 -2.76801,-2.03199 z m 113.16801,0.26667 c 1.06185,-1.17333 2.17064,-2.13333 2.46397,-2.13333 0.29334,0 -0.33545,0.96 -1.39731,2.13333 -1.06185,1.17333 -2.17064,2.13333 -2.46398,2.13333 -0.29333,0 0.33546,-0.96 1.39732,-2.13333 z m 80.96531,-0.26667 -2.03199,-2.4 2.4,2.03199 c 2.25541,1.90957 2.88559,2.76801 2.03199,2.76801 -0.20241,0 -1.28241,-1.08 -2.4,-2.4 z m 113.16801,0.26667 c 1.06185,-1.17333 2.17064,-2.13333 2.46398,-2.13333 0.29333,0 -0.33546,0.96 -1.39732,2.13333 -1.06185,1.17333 -2.17064,2.13333 -2.46397,2.13333 -0.29334,0 0.33545,-0.96 1.39731,-2.13333 z m 80.96532,-0.26667 -2.03199,-2.4 2.4,2.03199 c 2.2554,1.90957 2.88558,2.76801 2.03198,2.76801 -0.20241,0 -1.28241,-1.08 -2.39999,-2.4 z M 72.333329,409.93799 c 0.77,-0.30813 1.69,-0.27024 2.044445,0.0842 0.354443,0.35444 -0.275557,0.60655 -1.4,0.56024 -1.242606,-0.0512 -1.49536,-0.30394 -0.644445,-0.64444 z m 11.733333,0 c 0.769999,-0.30813 1.689999,-0.27024 2.044444,0.0842 0.354444,0.35444 -0.275556,0.60655 -1.4,0.56024 -1.242605,-0.0512 -1.49536,-0.30394 -0.644444,-0.64444 z m 182.399988,0 c 0.77,-0.30813 1.68999,-0.27024 2.04445,0.0842 0.35444,0.35444 -0.27556,0.60655 -1.4,0.56024 -1.24261,-0.0512 -1.49536,-0.30394 -0.64445,-0.64444 z m 11.73333,0 c 0.77,-0.30813 1.69001,-0.27024 2.04445,0.0842 0.35444,0.35444 -0.27556,0.60655 -1.4,0.56024 -1.24261,-0.0512 -1.49536,-0.30394 -0.64445,-0.64444 z m 182.39999,0 c 0.77,-0.30813 1.69001,-0.27024 2.04445,0.0842 0.35444,0.35444 -0.27556,0.60655 -1.4,0.56024 -1.24261,-0.0512 -1.49536,-0.30394 -0.64445,-0.64444 z m 11.73333,0 c 0.77,-0.30813 1.69001,-0.27024 2.04445,0.0842 0.35445,0.35444 -0.27556,0.60655 -1.4,0.56024 -1.24261,-0.0512 -1.49536,-0.30394 -0.64445,-0.64444 z M 414.36266,207.46665 c 1.8e-4,-30.50666 0.13669,-42.833 0.30335,-27.39186 0.16666,15.44116 0.16651,40.40115 -3.3e-4,55.46667 -0.16684,15.06552 -0.3032,2.43186 -0.30302,-28.07481 z M 74.399995,235.02689 c 0.733334,-0.29591 1.933334,-0.29591 2.666667,0 0.733333,0.2959 0.133333,0.53801 -1.333333,0.53801 -1.466667,0 -2.066667,-0.24211 -1.333334,-0.53801 z m 10.733333,-0.0222 c 0.77,-0.30813 1.69,-0.27024 2.044445,0.0842 0.354444,0.35444 -0.275556,0.60655 -1.4,0.56023 -1.242606,-0.0512 -1.49536,-0.30393 -0.644445,-0.64443 z m -8.046365,-21.34387 c 1.037831,-0.27044 2.477831,-0.25266 3.2,0.0396 0.722167,0.29219 -0.126968,0.51346 -1.886968,0.49173 -1.76,-0.0218 -2.350865,-0.2608 -1.313032,-0.53125 z m 5.846365,0.0327 c 0.733334,-0.29591 1.933333,-0.29591 2.666667,0 0.733333,0.2959 0.133333,0.53801 -1.333333,0.53801 -1.466667,0 -2.066667,-0.24211 -1.333334,-0.53801 z m 68.533332,-2.89632 c 0,-0.2215 0.84,-1.0615 1.86666,-1.86667 1.6918,-1.32679 1.72953,-1.28907 0.40273,0.40273 -1.39346,1.7768 -2.26939,2.34185 -2.26939,1.46394 z m -9.6,-20.26667 c 0,-0.22149 0.84,-1.06149 1.86666,-1.86667 1.6918,-1.32679 1.72953,-1.28906 0.40274,0.40274 -1.39347,1.7768 -2.2694,2.34184 -2.2694,1.46393 z M 19.199999,171.19999 c 9.666663,-9.68 17.815751,-17.6 18.109085,-17.6 0.293333,0 -7.375756,7.92 -17.042419,17.6 -9.666663,9.68 -17.8157505,17.6 -18.1090838,17.6 -0.2933333,0 7.3757546,-7.92 17.0424178,-17.6 z M 170.75087,130.57777 c 0.0512,-1.24261 0.30394,-1.49536 0.64444,-0.64444 0.30812,0.76999 0.27024,1.68999 -0.0842,2.04444 -0.35446,0.35445 -0.60655,-0.27556 -0.56024,-1.4 z M 74.133329,116.26666 c 8.197613,-8.21333 15.144752,-14.93333 15.438085,-14.93333 0.293334,0 -6.173805,6.72 -14.371419,14.93333 -8.197613,8.21333 -15.144752,14.93333 -15.438085,14.93333 -0.293333,0 6.173805,-6.72 14.371419,-14.93333 z M 192.0842,115.64444 c 0.0512,-1.24261 0.30394,-1.49536 0.64444,-0.64445 0.30813,0.77 0.27024,1.69 -0.0842,2.04445 -0.35445,0.35444 -0.60655,-0.27556 -0.56024,-1.4 z M 127.99999,62.399996 c 9.66667,-9.679999 17.81576,-17.599999 18.10909,-17.599999 0.29333,0 -7.37576,7.92 -17.04242,17.599999 -9.66667,9.68 -17.81575,17.599999 -18.10909,17.599999 -0.29333,0 7.37576,-7.919999 17.04242,-17.599999 z m 201.6842,9.511111 c 0.0512,-1.242606 0.30394,-1.49536 0.64444,-0.644445 0.30813,0.77 0.27024,1.69 -0.0842,2.044445 -0.35444,0.354444 -0.60655,-0.275556 -0.56023,-1.4 z m 0,-11.733333 c 0.0512,-1.242605 0.30394,-1.495359 0.64444,-0.644444 0.30813,0.77 0.27024,1.69 -0.0842,2.044444 -0.35444,0.354444 -0.60655,-0.275556 -0.56023,-1.4 z"
         id="path851" />
      <path
         style="fill:#5b5c64;stroke-width:1.06667"
         d="m 71.199996,545.42687 c 0.733333,-0.29591 1.933333,-0.29591 2.666666,0 0.733333,0.2959 0.133333,0.53801 -1.333333,0.53801 -1.466667,0 -2.066667,-0.24211 -1.333333,-0.53801 z m 12.799999,0 c 0.733333,-0.29591 1.933333,-0.29591 2.666666,0 0.733334,0.2959 0.133334,0.53801 -1.333333,0.53801 -1.466666,0 -2.066666,-0.24211 -1.333333,-0.53801 z m 181.333325,0 c 0.73333,-0.29591 1.93333,-0.29591 2.66666,0 0.73334,0.2959 0.13334,0.53801 -1.33333,0.53801 -1.46667,0 -2.06667,-0.24211 -1.33333,-0.53801 z m 12.8,0 c 0.73333,-0.29591 1.93333,-0.29591 2.66666,0 0.73334,0.2959 0.13334,0.53801 -1.33333,0.53801 -1.46667,0 -2.06667,-0.24211 -1.33333,-0.53801 z m 181.33332,0 c 0.73333,-0.29591 1.93333,-0.29591 2.66667,0 0.73333,0.2959 0.13333,0.53801 -1.33334,0.53801 -1.46666,0 -2.06666,-0.24211 -1.33333,-0.53801 z m 12.8,0 c 0.73333,-0.29591 1.93333,-0.29591 2.66666,0 0.73334,0.2959 0.13334,0.53801 -1.33333,0.53801 -1.46667,0 -2.06667,-0.24211 -1.33333,-0.53801 z M 26.530606,526.1333 c -1.326795,-1.6918 -1.289067,-1.72952 0.402726,-0.40273 1.026666,0.80517 1.866666,1.64517 1.866666,1.86667 0,0.87791 -0.875931,0.31286 -2.269392,-1.46394 z m 102.536054,1.46394 c 0,-0.2215 0.84,-1.0615 1.86667,-1.86667 1.69179,-1.32679 1.72952,-1.28907 0.40273,0.40273 -1.39347,1.7768 -2.2694,2.34185 -2.2694,1.46394 z m 91.59726,-1.46394 c -1.32679,-1.6918 -1.28906,-1.72952 0.40273,-0.40273 1.7768,1.39346 2.34185,2.2694 1.46394,2.2694 -0.22149,0 -1.06149,-0.84 -1.86667,-1.86667 z m 102.53606,1.46394 c 0,-0.2215 0.84,-1.0615 1.86667,-1.86667 1.69179,-1.32679 1.72952,-1.28907 0.40273,0.40273 -1.39346,1.7768 -2.2694,2.34185 -2.2694,1.46394 z m 91.59726,-1.46394 c -1.32679,-1.6918 -1.28906,-1.72952 0.40273,-0.40273 1.7768,1.39346 2.34185,2.2694 1.46394,2.2694 -0.22149,0 -1.06149,-0.84 -1.86667,-1.86667 z m 102.53606,1.46394 c 0,-0.2215 0.84,-1.0615 1.86667,-1.86667 1.6918,-1.32679 1.72952,-1.28907 0.40273,0.40273 -1.39346,1.7768 -2.2694,2.34185 -2.2694,1.46394 z m -498.26936,-8.9306 c -1.326795,-1.6918 -1.289067,-1.72953 0.402725,-0.40274 1.026667,0.80518 1.866667,1.64518 1.866667,1.86667 0,0.87791 -0.875932,0.31286 -2.269392,-1.46393 z m 117.46938,1.46393 c 0,-0.22149 0.84,-1.06149 1.86667,-1.86667 1.6918,-1.32679 1.72953,-1.28906 0.40273,0.40274 -1.39346,1.77679 -2.2694,2.34184 -2.2694,1.46393 z m 76.66394,-1.46393 c -1.3268,-1.6918 -1.28907,-1.72953 0.40273,-0.40274 1.7768,1.39347 2.34184,2.2694 1.46393,2.2694 -0.22149,0 -1.06149,-0.84 -1.86666,-1.86666 z m 117.46939,1.46393 c 0,-0.22149 0.84,-1.06149 1.86666,-1.86667 1.6918,-1.32679 1.72953,-1.28906 0.40273,0.40274 -1.39346,1.77679 -2.26939,2.34184 -2.26939,1.46393 z m 76.66393,-1.46393 c -1.3268,-1.6918 -1.28907,-1.72953 0.40273,-0.40274 1.7768,1.39347 2.34184,2.2694 1.46393,2.2694 -0.22149,0 -1.06149,-0.84 -1.86666,-1.86666 z m 117.46939,1.46393 c 0,-0.22149 0.84,-1.06149 1.86666,-1.86667 1.6918,-1.32679 1.72953,-1.28906 0.40274,0.40274 -1.39347,1.77679 -2.2694,2.34184 -2.2694,1.46393 z M 74.466662,502.73799 c 0.77,-0.30813 1.69,-0.27024 2.044445,0.0842 0.354444,0.35444 -0.275556,0.60654 -1.4,0.56023 -1.242606,-0.0512 -1.49536,-0.30394 -0.644445,-0.64444 z m 7.466666,0 c 0.77,-0.30813 1.69,-0.27024 2.044445,0.0842 0.354444,0.35444 -0.275556,0.60654 -1.4,0.56023 -1.242606,-0.0512 -1.49536,-0.30394 -0.644445,-0.64444 z m 186.666652,0 c 0.77,-0.30813 1.69,-0.27024 2.04445,0.0842 0.35444,0.35444 -0.27556,0.60654 -1.4,0.56023 -1.24261,-0.0512 -1.49536,-0.30394 -0.64445,-0.64444 z m 7.46667,0 c 0.76999,-0.30813 1.69001,-0.27024 2.04445,0.0842 0.35444,0.35444 -0.27556,0.60654 -1.4,0.56023 -1.24262,-0.0512 -1.49536,-0.30394 -0.64445,-0.64444 z m 186.66666,0 c 0.76999,-0.30813 1.69,-0.27024 2.04444,0.0842 0.35445,0.35444 -0.27556,0.60654 -1.4,0.56023 -1.24261,-0.0512 -1.49536,-0.30394 -0.64444,-0.64444 z m 7.46666,0 c 0.77,-0.30813 1.69001,-0.27024 2.04445,0.0842 0.35444,0.35444 -0.27556,0.60654 -1.4,0.56023 -1.24261,-0.0512 -1.49536,-0.30394 -0.64445,-0.64444 z M 0.16842105,473.59997 c 0,-1.46667 0.24210524,-2.06667 0.53801165,-1.33333 0.2959064,0.73333 0.2959064,1.93333 0,2.66666 -0.29590641,0.73334 -0.53801165,0.13334 -0.53801165,-1.33333 z m 156.79998895,0 c 0,-1.46667 0.24211,-2.06667 0.53801,-1.33333 0.29591,0.73333 0.29591,1.93333 0,2.66666 -0.2959,0.73334 -0.53801,0.13334 -0.53801,-1.33333 z m 37.33333,0 c 0,-1.46667 0.24211,-2.06667 0.53801,-1.33333 0.29591,0.73333 0.29591,1.93333 0,2.66666 -0.2959,0.73334 -0.53801,0.13334 -0.53801,-1.33333 z m 156.79999,0 c 0,-1.46667 0.24211,-2.06667 0.53801,-1.33333 0.29591,0.73333 0.29591,1.93333 0,2.66666 -0.2959,0.73334 -0.53801,0.13334 -0.53801,-1.33333 z m 37.33333,0 c 0,-1.46667 0.24211,-2.06667 0.53801,-1.33333 0.29591,0.73333 0.29591,1.93333 0,2.66666 -0.2959,0.73334 -0.53801,0.13334 -0.53801,-1.33333 z m 156.79999,0 c 0,-1.46667 0.24211,-2.06667 0.53802,-1.33333 0.2959,0.73333 0.2959,1.93333 0,2.66666 -0.29591,0.73334 -0.53802,0.13334 -0.53802,-1.33333 z M 42.750874,470.84442 c 0.05118,-1.24261 0.303937,-1.49536 0.644445,-0.64445 0.308129,0.77 0.270234,1.69001 -0.08421,2.04445 -0.354445,0.35444 -0.606551,-0.27556 -0.560235,-1.4 z m 71.466666,0 c 0.0512,-1.24261 0.30394,-1.49536 0.64444,-0.64445 0.30812,0.77 0.27024,1.69001 -0.0842,2.04445 -0.35446,0.35444 -0.60655,-0.27556 -0.56024,-1.4 z m 122.66666,0 c 0.0512,-1.24261 0.30393,-1.49536 0.64444,-0.64445 0.30812,0.77 0.27024,1.69001 -0.0842,2.04445 -0.35446,0.35444 -0.60655,-0.27556 -0.56024,-1.4 z m 71.46666,0 c 0.0512,-1.24261 0.30394,-1.49536 0.64444,-0.64445 0.30813,0.77 0.27024,1.69001 -0.0842,2.04445 -0.35444,0.35444 -0.60655,-0.27556 -0.56024,-1.4 z m 122.66666,0 c 0.0512,-1.24261 0.30394,-1.49536 0.64444,-0.64445 0.30813,0.77 0.27024,1.69001 -0.0842,2.04445 -0.35444,0.35444 -0.60655,-0.27556 -0.56024,-1.4 z m 71.46666,0 c 0.0512,-1.24261 0.30394,-1.49536 0.64444,-0.64445 0.30813,0.77 0.27024,1.69001 -0.0842,2.04445 -0.35444,0.35444 -0.60655,-0.27556 -0.56023,-1.4 z M 42.750874,463.37775 c 0.05118,-1.24261 0.303937,-1.49536 0.644445,-0.64444 0.308129,0.76999 0.270234,1.69 -0.08421,2.04444 -0.354445,0.35445 -0.606551,-0.27556 -0.560235,-1.4 z m 71.466666,0 c 0.0512,-1.24261 0.30394,-1.49536 0.64444,-0.64444 0.30812,0.76999 0.27024,1.69 -0.0842,2.04444 -0.35446,0.35445 -0.60655,-0.27556 -0.56024,-1.4 z m 122.66666,0 c 0.0512,-1.24261 0.30393,-1.49536 0.64444,-0.64444 0.30812,0.76999 0.27024,1.69 -0.0842,2.04444 -0.35446,0.35445 -0.60655,-0.27556 -0.56024,-1.4 z m 71.46666,0 c 0.0512,-1.24261 0.30394,-1.49536 0.64444,-0.64444 0.30813,0.76999 0.27024,1.69 -0.0842,2.04444 -0.35444,0.35445 -0.60655,-0.27556 -0.56024,-1.4 z m 122.66666,0 c 0.0512,-1.24261 0.30394,-1.49536 0.64444,-0.64444 0.30813,0.76999 0.27024,1.69 -0.0842,2.04444 -0.35444,0.35445 -0.60655,-0.27556 -0.56024,-1.4 z m 71.46666,0 c 0.0512,-1.24261 0.30394,-1.49536 0.64444,-0.64444 0.30813,0.76999 0.27024,1.69 -0.0842,2.04444 -0.35444,0.35445 -0.60655,-0.27556 -0.56023,-1.4 z M 0.16842105,460.79997 c 0,-1.46666 0.24210524,-2.06666 0.53801165,-1.33333 0.2959064,0.73333 0.2959064,1.93333 0,2.66667 -0.29590641,0.73333 -0.53801165,0.13333 -0.53801165,-1.33334 z m 156.79998895,0 c 0,-1.46666 0.24211,-2.06666 0.53801,-1.33333 0.29591,0.73333 0.29591,1.93333 0,2.66667 -0.2959,0.73333 -0.53801,0.13333 -0.53801,-1.33334 z m 37.33333,0 c 0,-1.46666 0.24211,-2.06666 0.53801,-1.33333 0.29591,0.73333 0.29591,1.93333 0,2.66667 -0.2959,0.73333 -0.53801,0.13333 -0.53801,-1.33334 z m 156.79999,0 c 0,-1.46666 0.24211,-2.06666 0.53801,-1.33333 0.29591,0.73333 0.29591,1.93333 0,2.66667 -0.2959,0.73333 -0.53801,0.13333 -0.53801,-1.33334 z m 37.33333,0 c 0,-1.46666 0.24211,-2.06666 0.53801,-1.33333 0.29591,0.73333 0.29591,1.93333 0,2.66667 -0.2959,0.73333 -0.53801,0.13333 -0.53801,-1.33334 z m 156.79999,0 c 0,-1.46666 0.24211,-2.06666 0.53802,-1.33333 0.2959,0.73333 0.2959,1.93333 0,2.66667 -0.29591,0.73333 -0.53802,0.13333 -0.53802,-1.33334 z M 74.466662,431.27132 c 0.77,-0.30812 1.69,-0.27024 2.044445,0.0842 0.354444,0.35445 -0.275556,0.60655 -1.4,0.56024 -1.242606,-0.0512 -1.49536,-0.30394 -0.644445,-0.64444 z m 7.466666,0 c 0.77,-0.30812 1.69,-0.27024 2.044445,0.0842 0.354444,0.35445 -0.275556,0.60655 -1.4,0.56024 -1.242606,-0.0512 -1.49536,-0.30394 -0.644445,-0.64444 z m 186.666652,0 c 0.77,-0.30812 1.69,-0.27024 2.04445,0.0842 0.35444,0.35445 -0.27556,0.60655 -1.4,0.56024 -1.24261,-0.0512 -1.49536,-0.30394 -0.64445,-0.64444 z m 7.46667,0 c 0.76999,-0.30812 1.69001,-0.27024 2.04445,0.0842 0.35444,0.35445 -0.27556,0.60655 -1.4,0.56024 -1.24262,-0.0512 -1.49536,-0.30394 -0.64445,-0.64444 z m 186.66666,0 c 0.76999,-0.30812 1.69,-0.27024 2.04444,0.0842 0.35445,0.35445 -0.27556,0.60655 -1.4,0.56024 -1.24261,-0.0512 -1.49536,-0.30394 -0.64444,-0.64444 z m 7.46666,0 c 0.77,-0.30812 1.69001,-0.27024 2.04445,0.0842 0.35444,0.35445 -0.27556,0.60655 -1.4,0.56024 -1.24261,-0.0512 -1.49536,-0.30394 -0.64445,-0.64444 z M 20.266665,414.53058 c 0,-0.2215 0.84,-1.0615 1.866667,-1.86667 1.691793,-1.32679 1.729521,-1.28907 0.402725,0.40273 -1.39346,1.7768 -2.269392,2.34185 -2.269392,1.46394 z m 503.330575,-1.46394 c -1.3268,-1.6918 -1.28907,-1.72952 0.40273,-0.40273 1.02666,0.80517 1.86666,1.64517 1.86666,1.86667 0,0.87791 -0.87593,0.31286 -2.26939,-1.46394 z m -87.9026,-203.46665 c 1.9e-4,-29.33333 0.13729,-41.1799 0.30465,-26.32571 0.16736,14.8542 0.1672,38.8542 -3.5e-4,53.33333 -0.16755,14.47914 -0.30449,2.32571 -0.3043,-27.00762 z M 79.199995,234.99803 c 1.026667,-0.26828 2.706667,-0.26828 3.733333,0 1.026667,0.2683 0.186667,0.48782 -1.866666,0.48782 -2.053333,0 -2.893333,-0.21952 -1.866667,-0.48782 z m -5.799999,-21.32669 c 0.769999,-0.30813 1.689999,-0.27024 2.044444,0.0842 0.354444,0.35444 -0.275556,0.60655 -1.4,0.56023 -1.242606,-0.0512 -1.49536,-0.30394 -0.644444,-0.64444 z m 14.353633,-0.0107 c 1.037831,-0.27044 2.477831,-0.25266 3.2,0.0396 0.722167,0.29219 -0.126968,0.51346 -1.886968,0.49173 -1.76,-0.0218 -2.350865,-0.2608 -1.313032,-0.53125 z m 66.913031,-6.06341 c 0,-0.2215 0.84,-1.0615 1.86666,-1.86667 1.6918,-1.32679 1.72953,-1.28907 0.40273,0.40273 -1.39346,1.7768 -2.26939,2.34185 -2.26939,1.46394 z M 89.066661,131.19999 C 123.67626,96.586661 152.23321,68.266662 152.52654,68.266662 c 0.29333,0 -27.78361,28.319999 -62.393212,62.933328 -34.609602,34.61333 -63.16655,62.93333 -63.459883,62.93333 -0.293334,0 27.783614,-28.32 62.393216,-62.93333 z m 49.599999,62.5306 c 0,-0.22149 0.84,-1.06149 1.86666,-1.86667 1.6918,-1.32679 1.72953,-1.28906 0.40274,0.40273 -1.39347,1.7768 -2.2694,2.34185 -2.2694,1.46394 z m 9.6,-9.6 c 0,-0.22149 0.84,-1.06149 1.86666,-1.86667 1.6918,-1.32679 1.72953,-1.28906 0.40273,0.40274 -1.39346,1.7768 -2.26939,2.34184 -2.26939,1.46393 z m 44.09195,-59.3306 c 0,-4.4 0.18828,-6.2 0.41841,-4 0.23013,2.2 0.23013,5.8 0,8 -0.23013,2.2 -0.41841,0.4 -0.41841,-4 z m 39.97471,6.73802 c 0.76999,-0.30813 1.68999,-0.27024 2.04445,0.0842 0.35444,0.35445 -0.27557,0.60655 -1.4,0.56023 -1.24262,-0.0512 -1.49536,-0.30393 -0.64445,-0.64443 z m -18.56801,-9.13802 -2.03199,-2.4 2.4,2.03199 c 2.2554,1.90957 2.88559,2.76801 2.03199,2.76801 -0.20241,0 -1.28241,-1.08 -2.4,-2.4 z m 158.50133,1.99727 c 0,-0.22149 0.84,-1.06149 1.86667,-1.86666 1.6918,-1.3268 1.72953,-1.28907 0.40273,0.40273 -1.39346,1.7768 -2.2694,2.34184 -2.2694,1.46393 z m -201.43157,-9.19727 c 0,-1.46666 0.24211,-2.06666 0.53802,-1.33333 0.2959,0.73333 0.2959,1.93333 0,2.66667 -0.29591,0.73333 -0.53802,0.13333 -0.53802,-1.33334 z m 34.04913,-11.28888 c 0.0512,-1.24261 0.30394,-1.49536 0.64444,-0.64445 0.30813,0.77 0.27024,1.69 -0.0842,2.04445 -0.35446,0.35444 -0.60655,-0.27556 -0.56024,-1.4 z m 178.13332,-1.06667 c 0.0512,-1.24261 0.30394,-1.49536 0.64444,-0.64445 0.30813,0.77 0.27024,1.69 -0.0842,2.04445 -0.35444,0.35444 -0.60655,-0.27556 -0.56023,-1.4 z m -93.0842,-1.1731 c 0.76999,-0.30813 1.69,-0.27023 2.04444,0.0842 0.35445,0.35445 -0.27556,0.60655 -1.4,0.56024 -1.24261,-0.0512 -1.49536,-0.30394 -0.64444,-0.64445 z m 7.46666,0 c 0.77,-0.30813 1.69001,-0.27023 2.04445,0.0842 0.35444,0.35445 -0.27556,0.60655 -1.4,0.56024 -1.24261,-0.0512 -1.49536,-0.30394 -0.64445,-0.64445 z m -39.18245,-30.8269 c 0.0512,-1.242605 0.30394,-1.495359 0.64444,-0.644444 0.30813,0.77 0.27024,1.69 -0.0842,2.044444 -0.35446,0.354444 -0.60655,-0.275556 -0.56024,-1.4 z m 0,-9.599999 c 0.0512,-1.242606 0.30394,-1.49536 0.64444,-0.644445 0.30813,0.77 0.27024,1.69 -0.0842,2.044445 -0.35446,0.354444 -0.60655,-0.275556 -0.56024,-1.4 z m -94.58555,-11.377777 -2.03199,-2.4 2.4,2.031987 c 2.2554,1.909566 2.88559,2.768012 2.03199,2.768012 -0.20241,0 -1.28241,-1.079999 -2.4,-2.399999 z M 289.93332,30.204677 c 0.76999,-0.308129 1.69,-0.270234 2.04444,0.08421 0.35445,0.354445 -0.27556,0.60655 -1.4,0.560235 -1.24261,-0.05118 -1.49536,-0.303938 -0.64444,-0.644445 z m 7.46666,0 c 0.77,-0.308129 1.69001,-0.270234 2.04445,0.08421 0.35444,0.354445 -0.27556,0.60655 -1.4,0.560235 -1.24261,-0.05118 -1.49536,-0.303938 -0.64445,-0.644445 z m 85.61754,-0.960234 c 0.0512,-1.242606 0.30394,-1.49536 0.64444,-0.644445 0.30813,0.77 0.27024,1.69 -0.0842,2.044445 -0.35444,0.354444 -0.60655,-0.275556 -0.56023,-1.4 z M 204.8842,28.177776 c 0.0512,-1.242605 0.30394,-1.495359 0.64444,-0.644444 0.30813,0.77 0.27024,1.69 -0.0842,2.044444 -0.35446,0.354444 -0.60655,-0.275556 -0.56024,-1.4 z m 168.8811,-18.8444432 -2.03199,-2.3999999 2.4,2.0319867 c 1.32,1.1175924 2.4,2.1975924 2.4,2.4000004 0,0.853603 -0.85844,0.223421 -2.76801,-2.0319872 z M 232.33332,0.33801167 c 0.76999,-0.30812863 1.68999,-0.27023389 2.04445,0.0842106 0.35444,0.35444443 -0.27557,0.60654963 -1.4,0.56023389 -1.24262,-0.0511828 -1.49536,-0.3039363 -0.64445,-0.64444449 z"
         id="path849" />
      <path
         style="fill:#000000;stroke-width:1.06667"
         d="M 68.433365,544.98508 C 39.512452,541.23371 14.217746,520.48929 4.7994401,492.79833 -6.1046987,460.73883 4.1195485,426.52298 30.888975,405.48867 c 6.712995,-5.2748 11.866505,-8.17629 20.311022,-11.43536 l 5.866666,-2.26418 0.533333,-60.69457 c 0.419822,-47.7767 0.835386,-61.22459 1.952524,-63.18488 2.47788,-4.34802 7.3441,-5.5097 23.079881,-5.5097 h 14.43426 l -0.0042,-14.13333 -0.0042,-14.13333 -16.79581,-0.0586 C 65.468188,234.02322 62.224473,233.67592 53.04282,231.1604 39.543311,227.46192 26.917404,221.37929 16.411073,213.51278 1.9721773,202.7018 -1.2366978,197.96382 1.5467386,191.56525 2.3359443,189.75103 10.710784,180.59228 20.157494,171.21249 l 17.175837,-17.05416 0.0602,-31.47917 c 0.06779,-35.443946 0.443973,-37.865548 6.339795,-40.810841 3.304707,-1.650886 7.402845,-1.865199 35.694801,-1.866666 l 31.961473,-0.0017 18.17185,-18.052548 c 11.18584,-11.112388 19.29404,-18.331709 21.09083,-18.778694 4.50941,-1.1218 9.47624,2.227726 17.24449,11.629307 8.13415,9.844429 16.44726,25.835884 20.58694,39.601934 2.69993,8.978308 2.88688,10.912468 2.88688,29.866668 0,18.94576 -0.18793,20.89236 -2.88357,29.86666 -1.58596,5.28 -5.27243,14.38034 -8.19214,20.22299 l -5.30856,10.62299 19.53355,38.44367 19.53356,38.44368 24.17328,0.28669 24.17326,0.2867 v -64.95699 -64.957 l -16.26666,-0.47441 c -19.24845,-0.56138 -24.49356,-2.25191 -32.04943,-10.32975 -8.64011,-9.23697 -8.75057,-9.94545 -8.75057,-56.121896 V 25.066665 l 2.75521,-5.873157 c 3.49537,-7.450937 8.45403,-12.4095911 15.90496,-15.9049658 l 5.87316,-2.7552089 h 64 c 60.52628,0 64.28783,0.11100982 69.30328,2.0452552 6.96732,2.6870008 14.6499,10.0000685 17.78198,16.9267285 2.50018,5.52916 2.51473,5.795945 2.51473,46.094679 0,46.176444 -0.11046,46.884924 -8.75057,56.121894 -7.54559,8.06684 -12.81088,9.76862 -31.95211,10.32714 l -16.16936,0.47179 -0.36397,15.25544 c -0.34207,14.33733 -0.51648,15.41764 -2.89794,17.95091 -5.16522,5.49449 -13.51561,4.49454 -16.5912,-1.9868 -1.25714,-2.64921 -1.67484,-7.0141 -1.67484,-17.50158 v -13.97213 h -10.66667 -10.66666 v 65.06666 65.06666 h 10.56883 10.56884 l 0.36449,-15.916 c 0.34217,-14.94056 0.51675,-16.07794 2.84875,-18.55842 3.14779,-3.34823 7.21243,-4.13665 11.6872,-2.26697 5.3951,2.25422 6.62855,6.50439 6.62855,22.84047 v 13.90092 h 44.26666 44.26667 V 206.104 c 0,-50.43673 0.1824,-56.57048 1.75249,-58.93333 0.96387,-1.45054 14.33331,-15.35734 29.70986,-30.90401 27.83053,-28.138402 27.98947,-28.325127 35.02802,-41.150376 3.88886,-7.08604 8.08872,-13.806039 9.33302,-14.933332 2.04044,-1.84858 4.32915,-2.083452 23.33319,-2.394515 24.46277,-0.400413 27.83667,0.341551 30.49611,6.706504 1.39013,3.327034 1.39013,4.216409 0,7.543443 -2.45609,5.878269 -6.19655,6.894945 -25.36722,6.894945 h -16.31636 l -4.55597,8.266666 c -2.50579,4.546666 -4.63239,8.679454 -4.7258,9.183974 -0.0934,0.504518 1.96374,4.703361 4.57142,9.330771 l 4.74123,8.41347 15.46667,0.009 c 8.50666,0.004 17.27121,0.50964 19.47675,1.12214 7.60171,2.11108 10.12241,11.35943 4.60133,16.88198 l -2.79176,2.79249 H 516.3562 c -26.92236,0 -25.25758,0.58273 -31.71049,-11.09984 -2.13674,-3.86843 -4.38073,-7.6646 -4.98666,-8.43594 -0.84758,-1.07897 -6.10178,3.5932 -22.78038,20.25691 l -21.6787,21.65932 v 52.54309 52.54309 h 21.3676 c 23.07201,0 27.31746,0.77936 30.01321,5.5097 1.11714,1.96029 1.5327,15.40818 1.95252,63.18488 l 0.53334,60.69457 5.86666,2.26418 c 8.44453,3.25907 13.59803,6.16056 20.31102,11.43536 17.11206,13.44595 27.15938,31.21508 29.83783,52.76954 4.4693,35.96597 -17.79718,71.34598 -52.28382,83.07564 -31.28264,10.63992 -65.80961,0.81872 -86.25029,-24.53388 -6.85301,-8.4998 -10.29147,-14.6212 -13.48195,-24.00164 -9.20279,-27.0573 -3.58205,-55.02164 15.7042,-78.13169 l 4.22834,-5.06667 h -42.86532 -42.86532 l 4.22834,5.06667 c 19.28625,23.11005 24.90699,51.07439 15.7042,78.13169 -7.68241,22.58724 -25.94828,40.85311 -48.53552,48.53552 -31.28264,10.63992 -65.80961,0.81872 -86.25029,-24.53388 -6.85302,-8.4998 -10.29147,-14.6212 -13.48195,-24.00164 -9.20279,-27.0573 -3.58205,-55.02164 15.7042,-78.13169 l 4.22834,-5.06667 h -42.86532 -42.86532 l 4.22834,5.06667 c 7.20673,8.63558 12.78727,18.17612 15.63414,26.72823 10.62186,31.90857 0.99497,65.93073 -24.46382,86.45703 -12.37543,9.97775 -24.71951,15.23554 -40.37976,17.19917 -9.523593,1.19416 -10.017884,1.1925 -19.720205,-0.066 z M 93.17936,523.11017 c 9.77001,-2.519 18.44696,-7.61525 26.24794,-15.41623 23.02446,-23.02444 23.02446,-57.96349 0,-80.98794 -11.42416,-11.42417 -24.874458,-17.10603 -40.493971,-17.10603 -15.619514,0 -29.069813,5.68186 -40.493975,17.10603 -18.333681,18.33367 -22.404913,44.94718 -10.34955,67.65461 4.180557,7.87448 15.426976,19.26391 23.163098,23.45765 12.385911,6.71437 28.513976,8.75004 41.926458,5.29191 z M 72.460384,502.39022 C 50.062355,498.5998 36.930201,473.55946 46.341854,452.5875 c 10.148987,-22.61495 40.052038,-28.19412 57.842596,-10.79199 13.73493,13.43504 13.73493,37.37388 0,50.80892 -8.009468,7.83459 -20.495281,11.68605 -31.724066,9.78579 z m 14.322227,-22.28133 c 4.656061,-3.06968 7.069993,-7.47722 7.069993,-12.90892 0,-8.58346 -6.335806,-14.91927 -14.919275,-14.91927 -8.58347,0 -14.919276,6.33581 -14.919276,14.91927 0,8.58347 6.335806,14.91928 14.919276,14.91928 2.912407,0 5.999126,-0.79058 7.849282,-2.01036 z m 200.530079,43.00128 c 9.77,-2.519 18.44695,-7.61525 26.24793,-15.41623 23.02446,-23.02444 23.02446,-57.96349 0,-80.98794 -11.42416,-11.42417 -24.87446,-17.10603 -40.49397,-17.10603 -15.61951,0 -29.06981,5.68186 -40.49397,17.10603 -23.03005,23.03004 -23.02419,57.99489 0.0136,80.98794 11.50178,11.47948 24.13975,16.88808 39.79312,17.03004 4.60865,0.0418 11.32865,-0.68443 14.93334,-1.61381 z M 266.5937,502.39022 c -22.39802,-3.79042 -35.53017,-28.83076 -26.11853,-49.80272 10.149,-22.61495 40.05204,-28.19412 57.8426,-10.79199 13.73494,13.43504 13.73494,37.37388 0,50.80892 -8.00947,7.83459 -20.49528,11.68605 -31.72407,9.78579 z m 14.32223,-22.28133 c 4.65606,-3.06968 7.06999,-7.47722 7.06999,-12.90892 0,-2.9124 -0.79057,-5.99912 -2.01035,-7.84928 -3.06968,-4.65606 -7.47722,-7.06999 -12.90892,-7.06999 -8.58347,0 -14.91927,6.33581 -14.91927,14.91927 0,8.58347 6.3358,14.91928 14.91927,14.91928 2.91241,0 5.99912,-0.79058 7.84928,-2.01036 z m 200.53008,43.00128 c 9.77,-2.519 18.44695,-7.61525 26.24793,-15.41623 23.02446,-23.02444 23.02446,-57.96349 0,-80.98794 -11.42416,-11.42417 -24.87446,-17.10603 -40.49397,-17.10603 -15.61951,0 -29.06981,5.68186 -40.49397,17.10603 -23.03005,23.03004 -23.02419,57.99489 0.0136,80.98794 11.50178,11.47948 24.13975,16.88808 39.79313,17.03004 4.60865,0.0418 11.32865,-0.68443 14.93333,-1.61381 z M 460.72702,502.39022 C 438.329,498.5998 425.19685,473.55946 434.6085,452.5875 c 10.14899,-22.61495 40.05204,-28.19412 57.8426,-10.79199 13.73493,13.43504 13.73493,37.37388 0,50.80892 -8.00948,7.83459 -20.49529,11.68605 -31.72408,9.78579 z m 14.32223,-22.28133 c 4.65606,-3.06968 7.07,-7.47722 7.07,-12.90892 0,-5.4317 -2.41394,-9.83924 -7.07,-12.90892 -6.45474,-4.25553 -16.17956,-1.88518 -20.7582,5.05964 -4.25553,6.45474 -1.88518,16.17956 5.05964,20.7582 1.85016,1.21978 4.93688,2.01036 7.84928,2.01036 2.91241,0 5.99913,-0.79058 7.84928,-2.01036 z M 467.19997,335.99998 V 283.73332 H 273.06665 78.933329 v 52.26666 52.26666 H 273.06665 467.19997 Z M 109.33333,362.7653 c -1.17334,-0.50244 -3.09334,-1.97948 -4.26667,-3.2823 -1.93221,-2.14545 -2.16639,-4.15284 -2.48396,-21.29255 -0.41,-22.12827 0.44894,-25.75954 6.71224,-28.37651 3.32704,-1.39012 4.2164,-1.39012 7.54344,0 6.26813,2.619 7.12211,6.2404 6.71224,28.46398 -0.34379,18.64038 -0.40265,19.06318 -3.01729,21.67414 -2.9632,2.95902 -7.94016,4.20914 -11.2,2.81324 z m 44.79999,0 c -1.17333,-0.50244 -3.09333,-1.97948 -4.26666,-3.2823 -1.93222,-2.14545 -2.16639,-4.15284 -2.48396,-21.29255 -0.41,-22.12827 0.44894,-25.75954 6.71223,-28.37651 3.32704,-1.39012 4.21641,-1.39012 7.54345,0 6.26813,2.619 7.12211,6.2404 6.71223,28.46398 -0.34378,18.64038 -0.40264,19.06318 -3.01729,21.67414 -2.9632,2.95902 -7.94016,4.20914 -11.2,2.81324 z m 44.8,0 c -1.17333,-0.50244 -3.09333,-1.97948 -4.26667,-3.2823 -1.93221,-2.14545 -2.16638,-4.15284 -2.48395,-21.29255 -0.41001,-22.12827 0.44894,-25.75954 6.71223,-28.37651 3.32704,-1.39012 4.21641,-1.39012 7.54345,0 6.26812,2.619 7.12211,6.2404 6.71223,28.46398 -0.34379,18.64038 -0.40264,19.06318 -3.01729,21.67414 -2.9632,2.95902 -7.94016,4.20914 -11.2,2.81324 z m 70.39958,-34.64362 c -4.58555,-1.99848 -6.15716,-4.35937 -6.15716,-9.24935 0,-11.01909 14.7534,-13.8989 19.01028,-3.71074 2.20143,5.26876 -0.0263,10.66772 -5.31339,12.87678 -4.37648,1.82861 -3.55588,1.81954 -7.53973,0.0833 z m 43.59964,0.76089 c -7.01751,-1.4326 -9.59943,-11.90057 -4.25377,-17.24623 l 2.83636,-2.83636 h 57.66326 57.66325 l 3.1125,3.4835 c 4.07924,4.56546 4.07945,8.73373 6.8e-4,13.29967 l -3.11182,3.4835 -55.82151,0.1394 c -30.70183,0.0767 -56.84186,-0.0689 -58.08895,-0.32348 z M 179.28297,239.19999 c -6.4128,-12.76 -13.2979,-26.22254 -15.30023,-29.91676 l -3.64058,-6.71677 -5.23775,4.68193 c -2.88076,2.57506 -8.18818,6.68594 -11.79427,9.13529 -6.37559,4.33044 -21.48549,11.88297 -23.77357,11.88297 -0.75697,0 -1.13658,5.70016 -1.13658,17.06667 v 17.06666 h 36.27131 36.2713 z M 98.282161,212.71372 c 34.312769,-6.48821 61.365599,-31.8916 70.903459,-66.5804 3.01005,-10.94743 2.7518,-34.14142 -0.50752,-45.58159 -2.67517,-9.389816 -8.8627,-22.405798 -13.61006,-28.629911 l -2.90621,-3.810251 -62.747585,62.740822 c -34.511169,34.50745 -62.74758,63.23004 -62.74758,63.82797 0,1.27532 7.875076,6.56247 15.466666,10.38397 16.833171,8.47359 37.151347,11.24162 56.14883,7.64939 z M 74.666662,116.79999 90.105733,101.33333 H 74.386198 58.666663 v 15.46666 c 0,8.50667 0.126209,15.46667 0.280464,15.46667 0.154255,0 7.228045,-6.96 15.719535,-15.46667 z m 284.717938,-9.14871 3.28204,-3.28206 V 66.133329 27.897434 l -3.28204,-3.282051 -3.28206,-3.282051 h -61.70256 -61.70255 l -3.28206,3.282051 -3.28205,3.282051 v 38.235895 38.235891 l 3.28205,3.28206 3.28206,3.28205 h 61.70255 61.70256 z M 287.92703,101.324 C 265.56519,97.537765 252.28505,72.398365 261.7259,51.725058 c 10.29556,-22.544881 38.63772,-28.374766 57.05486,-11.735984 17.86824,16.142879 13.56632,46.947679 -8.09988,58.000953 -3.43985,1.754878 -15.29771,4.695533 -17.2768,4.284503 -0.33226,-0.069 -2.79692,-0.49674 -5.47705,-0.95053 z m 15.67578,-23.570771 c 10.22191,-9.548829 5.58863,-25.065921 -7.83469,-26.23877 -6.35844,-0.555563 -11.59605,2.078491 -14.35238,7.217979 -3.91704,7.303718 -1.37027,16.604313 5.6,20.450779 4.98255,2.749567 12.83785,2.072354 16.58707,-1.429988 z m 6.04947,126.510121 c -3.71796,-2.60416 -5.06585,-8.26232 -3.00354,-12.60829 3.07433,-6.47868 10.23229,-7.9286 15.41144,-3.12174 6.9492,6.44968 3.02777,17.33333 -6.24529,17.33333 -2.13046,0 -4.90363,-0.72149 -6.16261,-1.6033 z"
         id="path847" />
    </g>
  </g>
</svg>
