<?xml version="1.0" encoding="UTF-8" standalone="no"?>
<!-- Created with Inkscape (http://www.inkscape.org/) -->

<svg
   version="1.1"
   id="svg2"
   width="512"
   height="512"
   viewBox="0 0 512 512"
   xmlns="http://www.w3.org/2000/svg"
   xmlns:svg="http://www.w3.org/2000/svg">
  <defs
     id="defs6" />
  <g
     id="g8">
    <g
       id="g116">
      <path
         style="fill:#d5ba9d"
         d="M 152.40499,486.75 150.5,484.5 l 2.25,1.90499 c 2.11444,1.79022 2.70524,2.59501 1.90499,2.59501 -0.18976,0 -1.20226,-1.0125 -2.25,-2.25 z M 294.5,487 c 0.99549,-1.1 2.03498,-2 2.30998,-2 0.275,0 -0.31449,0.9 -1.30998,2 -0.99549,1.1 -2.03498,2 -2.30998,2 -0.275,0 0.31449,-0.9 1.30998,-2 z m -105.64575,0.0119 c -20.52906,-2.63931 -36.14016,-20.55091 -36.04307,-41.35448 0.0255,-5.47061 4.42029,-27.30081 18.64754,-92.6285 10.23778,-47.00908 18.84312,-86.38408 19.12297,-87.5 0.49838,-1.98725 1.186,-2.02894 33.46287,-2.02894 18.12472,0 32.95435,0.0223 32.95474,0.0495 3.8e-4,0.0272 2.23714,10.29283 4.97056,22.81242 l 4.96986,22.7629 -6.32317,5.91502 c -4.42522,4.13957 -7.19263,7.79777 -9.21986,12.18757 -2.5843,5.59612 -2.89669,7.351 -2.89669,16.27257 0,8.68231 0.34275,10.73074 2.60111,15.54563 4.94436,10.54148 12.86156,17.34933 24.53451,21.09678 3.77541,1.21204 6.94796,2.24691 7.0501,2.29971 0.10215,0.0528 2.93582,12.68742 6.29704,28.07694 4.49573,20.58391 6.11055,29.98863 6.1084,35.57549 -0.008,20.99932 -15.5189,38.21895 -36.91197,40.97846 -7.94382,1.02468 -61.24496,0.97771 -69.32494,-0.0611 z M 208,464 v -8 h -8 -8 v 8 8 h 8 8 z m 48,0 v -8 h -8 -8 v 8 8 h 8 8 z m -72,-24 v -8 h -8 -8 v 8 8 h 8 8 z m 48,0 v -8 h -8 -8 v 8 8 h 8 8 z m -24,-32 v -8 h -8 -8 v 8 8 h 8 8 z m 143.45583,78.87476 c -4.74627,-1.06922 -10.83912,-5.78149 -13.08115,-10.1171 -3.16005,-6.11086 -2.32493,-10.56618 9.09237,-48.50766 L 358.37536,392 H 376 393.62464 l 10.60373,35.75 c 5.83206,19.6625 10.81754,36.73633 11.07886,37.94185 0.26131,1.20552 0.0246,4.30439 -0.52613,6.88639 -1.43294,6.71861 -7.68303,12.80608 -14.69133,14.30909 -6.14768,1.31844 -42.76759,1.30898 -48.63394,-0.0126 z M 368,464 v -8 h -8 -8 v 8 8 h 8 8 z m 32,0 v -8 h -8 -8 v 8 8 h 8 8 z m -16,-24 v -8 h -8 -8 v 8 8 h 8 8 z m 37.5,-219 c 0.99549,-1.1 2.03498,-2 2.30998,-2 0.275,0 -0.31449,0.9 -1.30998,2 -0.99549,1.1 -2.03498,2 -2.30998,2 -0.275,0 0.31449,-0.9 1.30998,-2 z M 25,133.5 c 1.291745,-1.375 2.573628,-2.5 2.848628,-2.5 0.275,0 -0.556883,1.125 -1.848628,2.5 -1.291745,1.375 -2.573628,2.5 -2.848628,2.5 -0.275,0 0.556883,-1.125 1.848628,-2.5 z m 396.40499,-0.75 -1.90499,-2.25 2.25,1.90499 c 1.2375,1.04774 2.25,2.06024 2.25,2.25 0,0.80025 -0.80479,0.20945 -2.59501,-1.90499 z"
         id="path130" />
      <path
         style="fill:#a3a09c"
         d="M 330.40499,493.75 328.5,491.5 l 2.25,1.90499 c 2.11444,1.79022 2.70524,2.59501 1.90499,2.59501 -0.18976,0 -1.20226,-1.0125 -2.25,-2.25 z M 420.5,494 c 0.99549,-1.1 2.03498,-2 2.30998,-2 0.275,0 -0.31449,0.9 -1.30998,2 -0.99549,1.1 -2.03498,2 -2.30998,2 -0.275,0 0.31449,-0.9 1.30998,-2 z m -228.6875,-6.68311 c 0.72187,-0.28887 1.58437,-0.25335 1.91667,0.0789 0.33229,0.33229 -0.25834,0.56864 -1.3125,0.52522 -1.16495,-0.048 -1.4019,-0.28494 -0.60417,-0.60416 z m 63,0 c 0.72187,-0.28887 1.58438,-0.25335 1.91667,0.0789 0.33229,0.33229 -0.25834,0.56864 -1.3125,0.52522 -1.16495,-0.048 -1.4019,-0.28494 -0.60417,-0.60416 z M 152.07895,448.41667 c 0.048,-1.16495 0.28494,-1.4019 0.60416,-0.60417 0.28887,0.72187 0.25335,1.58438 -0.0789,1.91667 -0.3323,0.33229 -0.56864,-0.25834 -0.52522,-1.3125 z m 143,-1 c 0.048,-1.16495 0.28494,-1.4019 0.60416,-0.60417 0.28887,0.72187 0.25335,1.58438 -0.0789,1.91667 -0.33229,0.33229 -0.56864,-0.25834 -0.52522,-1.3125 z m 0,-4 c 0.048,-1.16495 0.28494,-1.4019 0.60416,-0.60417 0.28887,0.72187 0.25335,1.58438 -0.0789,1.91667 -0.33229,0.33229 -0.56864,-0.25834 -0.52522,-1.3125 z m -143,-1 c 0.048,-1.16495 0.28494,-1.4019 0.60416,-0.60417 0.28887,0.72187 0.25335,1.58438 -0.0789,1.91667 -0.3323,0.33229 -0.56864,-0.25834 -0.52522,-1.3125 z M 251.8125,263.31689 c 0.72187,-0.28887 1.58437,-0.25335 1.91667,0.0789 0.33229,0.33229 -0.25834,0.56864 -1.3125,0.52522 -1.16495,-0.048 -1.4019,-0.28494 -0.60417,-0.60416 z"
         id="path128" />
      <path
         style="fill:#eec218"
         d="m 312,370.31712 c -7.78942,-1.27907 -28.97629,-5.58562 -31.74463,-6.45257 -2.79636,-0.87573 -3.10237,-1.28192 -2.21492,-2.94014 0.56634,-1.05821 3.37642,-3.26989 6.24463,-4.91483 11.25543,-6.45511 25.36458,-2.78085 31.69266,8.25329 1.65192,2.88042 3.00771,5.57463 3.01288,5.98713 0.01,0.76891 -2.56619,0.79364 -6.99062,0.0671 z m 129.71348,-35.7393 c -14.37923,-3.86686 -21.32619,-20.3321 -14.14517,-33.526 1.52258,-2.79747 3.35783,-5.57556 4.07834,-6.17353 1.00113,-0.83087 5.14666,1.68655 17.58168,10.67669 8.94942,6.47015 17.24463,12.63346 18.4338,13.69623 l 2.16213,1.93232 -2.07817,3.52224 c -2.83202,4.79992 -8.83461,8.93303 -14.84595,10.22223 -5.85979,1.2567 -5.12595,1.27967 -11.18666,-0.35018 z m -88.455,-7.29477 c -1.23283,-0.23096 -3.53865,-1.71707 -5.12405,-3.30246 -4.90377,-4.90378 -4.87738,-11.08379 0.0684,-16.02962 7.16462,-7.16462 19.117,-2.04458 18.97659,8.129 -0.1018,7.37653 -6.5683,12.58053 -13.92098,11.20308 z m -108.5742,-85.67513 c -9.61694,-19.64036 -2.06039,-42.12359 18.73731,-55.74966 18.48446,-12.1105 46.67236,-12.1105 65.15682,0 14.95568,9.79854 22.52869,22.50965 22.58911,37.91529 0.016,4.08638 -0.35261,7.79159 -0.81919,8.2338 -1.10959,1.05161 -26.33357,6.27539 -42.84833,8.87369 -13.55687,2.13294 -35.55182,4.55275 -51.05832,5.61726 l -9.05832,0.62186 z M 117.5,236.33802 c -23.342,-5.01826 -60.58568,-15.80681 -68.383107,-19.80886 -8.613297,-4.42079 -8.667353,-4.50204 -6.390694,-9.60598 3.893121,-8.72781 15.423867,-16.87374 28.945784,-20.44884 7.868881,-2.08048 24.252445,-2.06693 32.332167,0.0267 18.45459,4.78206 31.22662,16.76975 31.22662,29.30896 0,6.17311 -2.13256,11.04323 -7.28187,16.62957 -4.09183,4.43911 -5.49639,4.96314 -10.4489,3.89841 z M 163,126.94756 c -9.09448,-1.43687 -15.00595,-5.32421 -17.62362,-11.58918 C 141.56906,106.24618 153.08444,96.8 168,96.8 c 10.98317,0 19.54953,4.48429 22.62432,11.8433 4.33353,10.37159 -11.48623,20.85397 -27.62432,18.30426 z m 152.5,-16.05242 c -34.23425,-2.49538 -62.74739,-19.085343 -58.46504,-34.017038 2.21032,-7.706922 11.782,-15.348296 26.18105,-20.901159 6.92152,-2.669221 8.22678,-2.899685 9.64444,-1.70288 11.2419,9.49055 62.85066,53.192577 63.47424,53.749647 0.91747,0.81963 -11.83228,2.64799 -22.83469,3.27458 -3.85,0.21926 -11.95,0.0378 -18,-0.40315 z"
         id="path126" />
      <path
         style="fill:#daae18"
         d="m 293.75,352.29427 c 1.2375,-0.23836 3.2625,-0.23836 4.5,0 1.2375,0.23835 0.225,0.43337 -2.25,0.43337 -2.475,0 -3.4875,-0.19502 -2.25,-0.43337 z M 468.58203,320.13273 C 468.28723,319.65573 460.1364,313.53 450.46908,306.52 440.80176,299.51 433.09879,293.56788 433.35137,293.3153 433.99694,292.66972 470,318.96822 470,320.08536 c 0,1.1553 -0.7184,1.1793 -1.41797,0.0474 z m -101.50308,-2.71606 c 0.048,-1.16495 0.28494,-1.4019 0.60416,-0.60417 0.28887,0.72187 0.25335,1.58438 -0.0789,1.91667 -0.33229,0.33229 -0.56864,-0.25834 -0.52522,-1.3125 z m 57,-3 c 0.048,-1.16495 0.28494,-1.4019 0.60416,-0.60417 0.28887,0.72187 0.25335,1.58438 -0.0789,1.91667 -0.33229,0.33229 -0.56864,-0.25834 -0.52522,-1.3125 z m 0,-5 c 0.048,-1.16495 0.28494,-1.4019 0.60416,-0.60417 0.28887,0.72187 0.25335,1.58438 -0.0789,1.91667 -0.33229,0.33229 -0.56864,-0.25834 -0.52522,-1.3125 z M 256.25,246.31067 c 0.9625,-0.25152 2.5375,-0.25152 3.5,0 0.9625,0.25153 0.175,0.45733 -1.75,0.45733 -1.925,0 -2.7125,-0.2058 -1.75,-0.45733 z m 14.5,-0.97295 c 0.6875,-0.27741 1.8125,-0.27741 2.5,0 0.6875,0.27741 0.125,0.50439 -1.25,0.50439 -1.375,0 -1.9375,-0.22698 -1.25,-0.50439 z m 10.0625,-1.02083 c 0.72187,-0.28887 1.58438,-0.25335 1.91667,0.0789 0.33229,0.33229 -0.25834,0.56864 -1.3125,0.52522 -1.16495,-0.048 -1.4019,-0.28494 -0.60417,-0.60416 z m 9,-1 c 0.72187,-0.28887 1.58438,-0.25335 1.91667,0.0789 0.33229,0.33229 -0.25834,0.56864 -1.3125,0.52522 -1.16495,-0.048 -1.4019,-0.28494 -0.60417,-0.60416 z M 127,233.5 c 1.29175,-1.375 2.57363,-2.5 2.84863,-2.5 0.275,0 -0.55688,1.125 -1.84863,2.5 -1.29175,1.375 -2.57363,2.5 -2.84863,2.5 -0.275,0 0.55688,-1.125 1.84863,-2.5 z M 240.15789,227 c 0,-1.375 0.22698,-1.9375 0.50439,-1.25 0.27741,0.6875 0.27741,1.8125 0,2.5 -0.27741,0.6875 -0.50439,0.125 -0.50439,-1.25 z m 111,0 c 0,-1.375 0.22698,-1.9375 0.50439,-1.25 0.27741,0.6875 0.27741,1.8125 0,2.5 -0.27741,0.6875 -0.50439,0.125 -0.50439,-1.25 z m -111,-6 c 0,-1.375 0.22698,-1.9375 0.50439,-1.25 0.27741,0.6875 0.27741,1.8125 0,2.5 -0.27741,0.6875 -0.50439,0.125 -0.50439,-1.25 z m 111,0 c 0,-1.375 0.22698,-1.9375 0.50439,-1.25 0.27741,0.6875 0.27741,1.8125 0,2.5 -0.27741,0.6875 -0.50439,0.125 -0.50439,-1.25 z m -216.07894,-2.58333 c 0.048,-1.16495 0.28494,-1.4019 0.60416,-0.60417 0.28887,0.72187 0.25335,1.58437 -0.0789,1.91667 -0.3323,0.33229 -0.56864,-0.25834 -0.52522,-1.3125 z m 0,-5 c 0.048,-1.16495 0.28494,-1.4019 0.60416,-0.60417 0.28887,0.72187 0.25335,1.58437 -0.0789,1.91667 -0.3323,0.33229 -0.56864,-0.25834 -0.52522,-1.3125 z M 45,201.68709 c 0,-0.1721 1.4625,-1.6346 3.25,-3.25 L 51.5,195.5 48.562909,198.75 C 45.825128,201.77946 45,202.45965 45,201.68709 Z M 126.92431,198.25 124.5,195.5 l 2.75,2.42431 c 2.57029,2.26589 3.20859,3.07569 2.42431,3.07569 -0.17912,0 -1.41662,-1.2375 -2.75,-2.75 z M 250.5,196 c 0.99549,-1.1 2.03498,-2 2.30998,-2 0.275,0 -0.31449,0.9 -1.30998,2 -0.99549,1.1 -2.03498,2 -2.30998,2 -0.275,0 0.31449,-0.9 1.30998,-2 z m 89.90499,-0.25 -1.90499,-2.25 2.25,1.90499 c 2.11444,1.79022 2.70524,2.59501 1.90499,2.59501 -0.18976,0 -1.20226,-1.0125 -2.25,-2.25 z M 255.5,191 c 0.99549,-1.1 2.03498,-2 2.30998,-2 0.275,0 -0.31449,0.9 -1.30998,2 -0.99549,1.1 -2.03498,2 -2.30998,2 -0.275,0 0.31449,-0.9 1.30998,-2 z m 79.90499,-0.25 -1.90499,-2.25 2.25,1.90499 c 1.2375,1.04774 2.25,2.06024 2.25,2.25 0,0.80025 -0.80479,0.20945 -2.59501,-1.90499 z M 82.25,184.31067 c 0.9625,-0.25152 2.5375,-0.25152 3.5,0 0.9625,0.25153 0.175,0.45733 -1.75,0.45733 -1.925,0 -2.7125,-0.2058 -1.75,-0.45733 z m 8,0 c 0.9625,-0.25152 2.5375,-0.25152 3.5,0 0.9625,0.25153 0.175,0.45733 -1.75,0.45733 -1.925,0 -2.7125,-0.2058 -1.75,-0.45733 z m 200,-8 c 0.9625,-0.25152 2.5375,-0.25152 3.5,0 0.9625,0.25153 0.175,0.45733 -1.75,0.45733 -1.925,0 -2.7125,-0.2058 -1.75,-0.45733 z m 8,0 c 0.9625,-0.25152 2.5375,-0.25152 3.5,0 0.9625,0.25153 0.175,0.45733 -1.75,0.45733 -1.925,0 -2.7125,-0.2058 -1.75,-0.45733 z m -134.5,-48.97295 c 0.6875,-0.27741 1.8125,-0.27741 2.5,0 0.6875,0.27741 0.125,0.50439 -1.25,0.50439 -1.375,0 -1.9375,-0.22698 -1.25,-0.50439 z m 6,0 c 0.6875,-0.27741 1.8125,-0.27741 2.5,0 0.6875,0.27741 0.125,0.50439 -1.25,0.50439 -1.375,0 -1.9375,-0.22698 -1.25,-0.50439 z m 150,-16.04345 c 1.2375,-0.23836 3.2625,-0.23836 4.5,0 1.2375,0.23835 0.225,0.43337 -2.25,0.43337 -2.475,0 -3.4875,-0.19502 -2.25,-0.43337 z m 13,0 c 1.2375,-0.23836 3.2625,-0.23836 4.5,0 1.2375,0.23835 0.225,0.43337 -2.25,0.43337 -2.475,0 -3.4875,-0.19502 -2.25,-0.43337 z m 13.0625,-0.97738 c 0.72187,-0.28887 1.58438,-0.25335 1.91667,0.0789 0.33229,0.3323 -0.25834,0.56864 -1.3125,0.52522 -1.16495,-0.048 -1.4019,-0.28494 -0.60417,-0.60416 z M 324.61508,81.13157 C 306.72825,65.937737 292.43595,53.164048 292.85441,52.745594 c 0.41845,-0.418454 2.43338,-0.869898 4.47761,-1.00321 3.52823,-0.230088 5.36111,1.151704 36.1292,27.237464 17.82683,15.113917 32.31551,27.576762 32.19706,27.695202 -0.11844,0.11845 -2.08428,0.63528 -4.36853,1.14851 l -4.15318,0.93316 z M 163.75,96.337719 c 0.6875,-0.277412 1.8125,-0.277412 2.5,0 0.6875,0.277413 0.125,0.504386 -1.25,0.504386 -1.375,0 -1.9375,-0.226973 -1.25,-0.504386 z m 6,0 c 0.6875,-0.277412 1.8125,-0.277412 2.5,0 0.6875,0.277413 0.125,0.504386 -1.25,0.504386 -1.375,0 -1.9375,-0.226973 -1.25,-0.504386 z"
         id="path124" />
      <path
         style="fill:#867464"
         d="M 341.40499,481.75 339.5,479.5 l 2.25,1.90499 c 1.2375,1.04774 2.25,2.06024 2.25,2.25 0,0.80025 -0.80479,0.20945 -2.59501,-1.90499 z M 345.5,374.36571 c -8.81548,-0.68467 -9.20412,-0.90699 -9.919,-5.6741 -1.7414,-11.61254 -11.08974,-23.66526 -22.57814,-29.1098 C 307.02319,336.74795 305.65522,336.5 296,336.5 c -9.71028,0 -10.98887,0.23527 -17,3.12812 -3.575,1.72047 -8.14356,4.66591 -10.15235,6.54543 l -3.65236,3.41731 -0.51656,-3.1832 c -0.66072,-4.07153 0.8865,-10.96812 3.35768,-14.96657 3.00047,-4.85487 58.46907,-44.80354 69.52365,-50.07116 23.29671,-11.10113 51.4849,-11.6242 74.08939,-1.37484 3.70201,1.67857 6.90112,3.22215 7.10914,3.43016 0.20802,0.20802 -1.17943,2.41884 -3.08321,4.91293 -5.56672,7.2928 -7.17538,12.70968 -7.17538,24.16182 0,9.16665 0.26548,10.56041 3.18565,16.72477 3.98218,8.4062 10.73438,15.11447 19.31435,19.18869 5.98091,2.84005 7.33852,3.08654 17,3.08654 9.71028,0 10.98887,-0.23527 17,-3.12812 6.65371,-3.2021 11.51193,-7.19666 16.23819,-13.3515 l 2.67198,-3.47963 1.54491,3.69751 c 4.34969,10.41027 -0.26511,22.5034 -10.62022,27.83036 -4.5368,2.33385 -23.34093,6.19523 -43.83486,9.00138 -12.60714,1.72624 -21.56567,2.17477 -48,2.4032 -17.875,0.15446 -34.75,0.10609 -37.5,-0.10749 z m 22.96684,-32.86838 c 5.07264,-2.4693 10.56675,-7.96591 13.02457,-13.03049 1.1657,-2.40203 2.08432,-6.8471 2.32874,-11.26838 0.36638,-6.62737 0.10801,-7.90209 -2.7983,-13.80564 -5.34765,-10.86262 -14.64752,-16.05558 -27.23267,-15.20648 -7.41377,0.5002 -12.8741,2.89858 -17.78918,7.81366 -5.20582,5.20582 -7.35407,10.37074 -7.82015,18.80154 -0.36686,6.63596 -0.10982,7.89841 2.81974,13.8492 3.32595,6.75596 8.39426,11.41278 15.31635,14.07285 4.70335,1.80744 17.35796,1.10689 22.1509,-1.22626 z M 199.75,263.33772 c 0.6875,-0.27741 1.8125,-0.27741 2.5,0 0.6875,0.27741 0.125,0.50439 -1.25,0.50439 -1.375,0 -1.9375,-0.22698 -1.25,-0.50439 z m 49.0625,-0.0208 c 0.72187,-0.28887 1.58437,-0.25335 1.91667,0.0789 0.33229,0.33229 -0.25834,0.56864 -1.3125,0.52522 -1.16495,-0.048 -1.4019,-0.28494 -0.60417,-0.60416 z M 184,245.80419 c -13.19077,-1.047 -38.8654,-4.33626 -39.60278,-5.07363 -0.27284,-0.27284 0.66112,-2.20129 2.07545,-4.28543 6.45374,-9.51011 7.346,-25.71261 2.03455,-36.94513 -6.2115,-13.13591 -22.45953,-24.85254 -40.91718,-29.50584 -10.836356,-2.73192 -28.004611,-2.71981 -39.466166,0.0278 -14.527693,3.48269 -29.122043,12.47095 -36.269064,22.33713 l -2.840016,3.92052 -1.61532,-3.866 c -2.444938,-5.85156 -3.361772,-14.61477 -2.307735,-22.05761 1.061403,-7.49486 3.331546,-13.20401 7.877798,-19.81176 C 36.594476,145.27561 146.20064,51.683769 157.34099,44.344471 170.86927,35.432 188.31324,28.658188 204.85172,25.895185 c 9.92362,-1.657891 30.27858,-1.419088 40.21935,0.47185 9.46334,1.800122 19.63437,5.0423 28.99131,9.241447 l 6.12675,2.749522 -9.84456,4.767497 c -21.7474,10.531764 -31.11106,22.54349 -30.17462,38.70807 0.50288,8.680591 3.58695,14.959355 10.8537,22.096719 10.04798,9.86907 26.0672,17.28729 46.97635,21.75393 6.75069,1.44209 12.92473,1.80939 30,1.78471 22.30661,-0.0322 27.52153,-0.71421 46.60568,-6.09477 l 6.10567,-1.72143 13.89433,11.78632 c 17.36168,14.72761 19.67944,17.26884 24.22524,26.56095 3.57796,7.31374 3.66908,7.78561 3.66908,19 0,11.13588 -0.11359,11.73747 -3.58749,19 -3.84368,8.03559 -10.01533,15.146 -16.9412,19.51811 -2.35665,1.48769 -10.85178,4.8719 -18.87807,7.52046 L 368.5,227.85414 367.84877,219.17707 C 366.71479,204.06784 361.51433,193.35081 349.5659,181.5 c -9.31533,-9.23922 -16.03385,-13.47794 -28.30469,-17.85743 -8.47629,-3.02521 -9.2978,-3.12648 -25.26121,-3.11409 -15.47329,0.012 -16.9978,0.18676 -24.5,2.80841 -12.80274,4.47394 -20.13838,9.08976 -29.5,18.56235 -17.5509,17.75895 -22.36484,38.50456 -14.58428,62.85076 l 0.71906,2.25 -16.31739,-0.1415 C 202.84282,246.78067 190.325,246.30623 184,245.80419 Z m 3.23986,-105.53566 c 13.41717,-6.27865 20.76817,-16.27401 20.75037,-28.21487 C 207.97207,99.86777 200.83752,90.135073 187.17961,83.664521 180.78885,80.636847 179.95945,80.5 168,80.5 c -11.95945,0 -12.78885,0.136847 -19.17961,3.164521 C 135.17961,90.126957 128.01954,99.880595 128.01954,112 c 0,11.49383 6.74681,21.30074 18.88617,27.45222 7.46429,3.78244 11.41837,4.49806 23.15454,4.19057 9.39432,-0.24614 11.29108,-0.61868 17.17961,-3.37426 z"
         id="path122" />
      <path
         style="fill:#736659"
         d="M 163.43709,474.75 160.5,471.5 l 3.25,2.93709 c 3.02946,2.73778 3.70965,3.56291 2.93709,3.56291 -0.1721,0 -1.6346,-1.4625 -3.25,-3.25 z M 283,475.5 c 1.29175,-1.375 2.57363,-2.5 2.84863,-2.5 0.275,0 -0.55688,1.125 -1.84863,2.5 -1.29175,1.375 -2.57363,2.5 -2.84863,2.5 -0.275,0 0.55688,-1.125 1.84863,-2.5 z M 136.07895,451.41667 c 0.048,-1.16495 0.28494,-1.4019 0.60416,-0.60417 0.28887,0.72187 0.25335,1.58438 -0.0789,1.91667 -0.3323,0.33229 -0.56864,-0.25834 -0.52522,-1.3125 z m 0,-12 c 0.048,-1.16495 0.28494,-1.4019 0.60416,-0.60417 0.28887,0.72187 0.25335,1.58438 -0.0789,1.91667 -0.3323,0.33229 -0.56864,-0.25834 -0.52522,-1.3125 z M 359.25,391.31067 c 0.9625,-0.25152 2.5375,-0.25152 3.5,0 0.9625,0.25153 0.175,0.45733 -1.75,0.45733 -1.925,0 -2.7125,-0.2058 -1.75,-0.45733 z m 31.5,0.027 c 0.6875,-0.27741 1.8125,-0.27741 2.5,0 0.6875,0.27741 0.125,0.50439 -1.25,0.50439 -1.375,0 -1.9375,-0.22698 -1.25,-0.50439 z m -56.9375,-2.02083 c 0.72187,-0.28887 1.58438,-0.25335 1.91667,0.0789 0.33229,0.33229 -0.25834,0.56864 -1.3125,0.52522 -1.16495,-0.048 -1.4019,-0.28494 -0.60417,-0.60416 z m 86,0 c 0.72187,-0.28887 1.58438,-0.25335 1.91667,0.0789 0.33229,0.33229 -0.25834,0.56864 -1.3125,0.52522 -1.16495,-0.048 -1.4019,-0.28494 -0.60417,-0.60416 z m -137.24821,-7.02376 c -0.54268,-1.4252 -0.42782,-1.54006 0.5598,-0.5598 0.68342,0.67834 0.99067,1.48524 0.68278,1.79313 -0.30789,0.30789 -0.86705,-0.24711 -1.24258,-1.23333 z M 368.25,375.2545 c 5.3625,-0.17981 14.1375,-0.17981 19.5,0 5.3625,0.17981 0.975,0.32692 -9.75,0.32692 -10.725,0 -15.1125,-0.14711 -9.75,-0.32692 z m -23.48834,-0.96176 c 1.24391,-0.23919 3.04391,-0.23011 4,0.0202 0.95609,0.25029 -0.0617,0.446 -2.26166,0.4349 -2.2,-0.0111 -2.98225,-0.21589 -1.73834,-0.45508 z m 63,0 c 1.24391,-0.23919 3.04391,-0.23011 4,0.0202 0.95609,0.25029 -0.0617,0.446 -2.26166,0.4349 -2.2,-0.0111 -2.98225,-0.21589 -1.73834,-0.45508 z m 11.50737,-0.98573 c 0.97297,-0.25354 2.32297,-0.23687 3,0.0371 0.67703,0.27393 -0.11903,0.48137 -1.76903,0.46099 -1.65,-0.0204 -2.20394,-0.2445 -1.23097,-0.49804 z m 8.48097,-0.96929 c 0.6875,-0.27741 1.8125,-0.27741 2.5,0 0.6875,0.27741 0.125,0.50439 -1.25,0.50439 -1.375,0 -1.9375,-0.22698 -1.25,-0.50439 z M 258.40499,369.75 256.5,367.5 l 2.25,1.90499 c 1.2375,1.04774 2.25,2.06024 2.25,2.25 0,0.80025 -0.80479,0.20945 -2.59501,-1.90499 z M 435.75,371.33772 c 0.6875,-0.27741 1.8125,-0.27741 2.5,0 0.6875,0.27741 0.125,0.50439 -1.25,0.50439 -1.375,0 -1.9375,-0.22698 -1.25,-0.50439 z m -100.67105,-1.92105 c 0.048,-1.16495 0.28494,-1.4019 0.60416,-0.60417 0.28887,0.72187 0.25335,1.58438 -0.0789,1.91667 -0.33229,0.33229 -0.56864,-0.25834 -0.52522,-1.3125 z m 107.73355,0.90022 c 0.72187,-0.28887 1.58438,-0.25335 1.91667,0.0789 0.33229,0.33229 -0.25834,0.56864 -1.3125,0.52522 -1.16495,-0.048 -1.4019,-0.28494 -0.60417,-0.60416 z m 6,-1 c 0.72187,-0.28887 1.58438,-0.25335 1.91667,0.0789 0.33229,0.33229 -0.25834,0.56864 -1.3125,0.52522 -1.16495,-0.048 -1.4019,-0.28494 -0.60417,-0.60416 z m 20,-4 c 0.72187,-0.28887 1.58438,-0.25335 1.91667,0.0789 0.33229,0.33229 -0.25834,0.56864 -1.3125,0.52522 -1.16495,-0.048 -1.4019,-0.28494 -0.60417,-0.60416 z m 5.6875,-1.97354 c 4.26097,-2.23925 9.16121,-7.11122 10.56766,-10.5067 0.66085,-1.59543 1.39915,-2.70317 1.64068,-2.46165 0.8261,0.8261 -2.53464,6.12213 -5.87302,9.25501 -3.32889,3.12397 -6.9761,5.40571 -8.51958,5.32995 -0.44866,-0.022 0.53426,-0.74949 2.18426,-1.61661 z M 327.87244,352.25 c -1.24387,-1.58606 -1.2085,-1.62143 0.37756,-0.37756 1.66575,1.30637 2.19548,2.12756 1.37244,2.12756 -0.20765,0 -0.99515,-0.7875 -1.75,-1.75 z m 111.94006,-0.93311 c 0.72187,-0.28887 1.58438,-0.25335 1.91667,0.0789 0.33229,0.33229 -0.25834,0.56864 -1.3125,0.52522 -1.16495,-0.048 -1.4019,-0.28494 -0.60417,-0.60416 z M 266,348.62244 c 0,-0.20765 0.7875,-0.99515 1.75,-1.75 1.58606,-1.24387 1.62143,-1.2085 0.37756,0.37756 C 266.82119,348.91575 266,349.44548 266,348.62244 Z M 323.87244,347.25 c -1.24387,-1.58606 -1.2085,-1.62143 0.37756,-0.37756 1.66575,1.30637 2.19548,2.12756 1.37244,2.12756 -0.20765,0 -0.99515,-0.7875 -1.75,-1.75 z m -59.79349,-0.83333 c 0.048,-1.16495 0.28494,-1.4019 0.60416,-0.60417 0.28887,0.72187 0.25335,1.58438 -0.0789,1.91667 -0.33229,0.33229 -0.56864,-0.25834 -0.52522,-1.3125 z M 487.28601,343.5 c 0.008,-2.75 0.20172,-3.75631 0.43157,-2.23625 0.22986,1.52006 0.22371,3.77006 -0.0136,5 -0.23736,1.22994 -0.42542,-0.0138 -0.41792,-2.76375 z M 470,345.62244 c 0,-0.20765 0.7875,-0.99515 1.75,-1.75 1.58606,-1.24387 1.62143,-1.2085 0.37756,0.37756 C 470.82119,345.91575 470,346.44548 470,345.62244 Z m -199,-1 c 0,-0.20765 0.7875,-0.99515 1.75,-1.75 1.58606,-1.24387 1.62143,-1.2085 0.37756,0.37756 C 271.82119,344.91575 271,345.44548 271,344.62244 Z M 318.87244,343.25 c -1.24387,-1.58606 -1.2085,-1.62143 0.37756,-0.37756 1.66575,1.30637 2.19548,2.12756 1.37244,2.12756 -0.20765,0 -0.99515,-0.7875 -1.75,-1.75 z M 264.15789,340 c 0,-1.375 0.22698,-1.9375 0.50439,-1.25 0.27741,0.6875 0.27741,1.8125 0,2.5 -0.27741,0.6875 -0.50439,0.125 -0.50439,-1.25 z m 78.34919,1.01145 c -0.35034,-0.56686 0.0511,-0.7345 0.94098,-0.39301 1.73242,0.66479 2.04939,1.38156 0.61096,1.38156 -0.51754,0 -1.21592,-0.44485 -1.55194,-0.98855 z M 367,341.60699 c 0,-0.21616 0.69837,-0.661 1.55194,-0.98855 0.88992,-0.34149 1.29132,-0.17385 0.94098,0.39301 C 368.90566,341.96166 367,342.4169 367,341.60699 Z M 418.40499,339.75 416.5,337.5 l 2.25,1.90499 c 1.2375,1.04774 2.25,2.06024 2.25,2.25 0,0.80025 -0.80479,0.20945 -2.59501,-1.90499 z M 475,341.62244 c 0,-0.20765 0.7875,-0.99515 1.75,-1.75 1.58606,-1.24387 1.62143,-1.2085 0.37756,0.37756 C 475.82119,341.91575 475,342.44548 475,341.62244 Z M 335.40499,335.75 333.5,333.5 l 2.25,1.90499 c 1.2375,1.04774 2.25,2.06024 2.25,2.25 0,0.80025 -0.80479,0.20945 -2.59501,-1.90499 z M 375.5,336 c 0.99549,-1.1 2.03498,-2 2.30998,-2 0.275,0 -0.31449,0.9 -1.30998,2 -0.99549,1.1 -2.03498,2 -2.30998,2 -0.275,0 0.31449,-0.9 1.30998,-2 z m -87.6875,0.31689 c 0.72187,-0.28887 1.58438,-0.25335 1.91667,0.0789 0.33229,0.33229 -0.25834,0.56864 -1.3125,0.52522 -1.16495,-0.048 -1.4019,-0.28494 -0.60417,-0.60416 z m 15,0 c 0.72187,-0.28887 1.58438,-0.25335 1.91667,0.0789 0.33229,0.33229 -0.25834,0.56864 -1.3125,0.52522 -1.16495,-0.048 -1.4019,-0.28494 -0.60417,-0.60416 z M 414.87244,335.25 c -1.24387,-1.58606 -1.2085,-1.62143 0.37756,-0.37756 1.66575,1.30637 2.19548,2.12756 1.37244,2.12756 -0.20765,0 -0.99515,-0.7875 -1.75,-1.75 z M 479,336.62244 c 0,-0.20765 0.7875,-0.99515 1.75,-1.75 1.58606,-1.24387 1.62143,-1.2085 0.37756,0.37756 C 479.82119,336.91575 479,337.44548 479,336.62244 Z m 5.6306,-3.14269 c -0.34725,-0.90492 -1.12376,-1.293 -1.77805,-0.88862 -0.754,0.466 -0.8904,0.27913 -0.38873,-0.53258 0.59852,-0.96843 1.12743,-0.89587 2.34498,0.32168 0.86468,0.86468 1.31703,1.82727 1.00521,2.13909 -0.31181,0.31181 -0.84435,-0.15599 -1.18341,-1.03957 z M 430.40499,328.75 428.5,326.5 l 2.25,1.90499 c 2.11444,1.79022 2.70524,2.59501 1.90499,2.59501 -0.18976,0 -1.20226,-1.0125 -2.25,-2.25 z m -49.8407,-0.0431 c 0.37553,-0.98622 0.93469,-1.54122 1.24258,-1.23333 0.30789,0.30789 6.4e-4,1.11479 -0.68278,1.79313 -0.98762,0.98026 -1.10248,0.8654 -0.5598,-0.5598 z M 272,326.62244 c 0,-0.20765 0.7875,-0.99515 1.75,-1.75 1.58606,-1.24387 1.62143,-1.2085 0.37756,0.37756 C 272.82119,326.91575 272,327.44548 272,326.62244 Z M 346.87244,324.25 c -1.24387,-1.58606 -1.2085,-1.62143 0.37756,-0.37756 0.9625,0.75485 1.75,1.54235 1.75,1.75 0,0.82304 -0.82119,0.29331 -2.12756,-1.37244 z m 122.69185,-4.95687 c -0.54268,-1.4252 -0.42782,-1.54006 0.5598,-0.5598 0.68342,0.67834 0.99067,1.48524 0.68278,1.79313 -0.30789,0.30789 -0.86705,-0.24711 -1.24258,-1.23333 z m -61.48534,-0.87646 c 0.048,-1.16495 0.28494,-1.4019 0.60416,-0.60417 0.28887,0.72187 0.25335,1.58438 -0.0789,1.91667 -0.33229,0.33229 -0.56864,-0.25834 -0.52522,-1.3125 z M 489.87244,314.25 c -1.24387,-1.58606 -1.2085,-1.62143 0.37756,-0.37756 1.66575,1.30637 2.19548,2.12756 1.37244,2.12756 -0.20765,0 -0.99515,-0.7875 -1.75,-1.75 z M 346,308.62244 c 0,-0.20765 0.7875,-0.99515 1.75,-1.75 1.58606,-1.24387 1.62143,-1.2085 0.37756,0.37756 C 346.82119,308.91575 346,309.44548 346,308.62244 Z M 363.87244,307.25 c -1.24387,-1.58606 -1.2085,-1.62143 0.37756,-0.37756 1.66575,1.30637 2.19548,2.12756 1.37244,2.12756 -0.20765,0 -0.99515,-0.7875 -1.75,-1.75 z m 44.20651,-1.83333 c 0.048,-1.16495 0.28494,-1.4019 0.60416,-0.60417 0.28887,0.72187 0.25335,1.58438 -0.0789,1.91667 -0.33229,0.33229 -0.56864,-0.25834 -0.52522,-1.3125 z M 330,304.05902 c 0,-0.51754 0.44485,-1.21592 0.98855,-1.55194 0.56686,-0.35034 0.7345,0.0511 0.39301,0.94098 C 330.71677,305.18048 330,305.49745 330,304.05902 Z m -21,-4.43658 c 0,-0.20765 0.7875,-0.99515 1.75,-1.75 1.58606,-1.24387 1.62143,-1.2085 0.37756,0.37756 C 309.82119,299.91575 309,300.44548 309,299.62244 Z M 335.5,296 c 0.99549,-1.1 2.03498,-2 2.30998,-2 0.275,0 -0.31449,0.9 -1.30998,2 -0.99549,1.1 -2.03498,2 -2.30998,2 -0.275,0 0.31449,-0.9 1.30998,-2 z m 39.90499,-0.25 -1.90499,-2.25 2.25,1.90499 c 2.11444,1.79022 2.70524,2.59501 1.90499,2.59501 -0.18976,0 -1.20226,-1.0125 -2.25,-2.25 z M 320,291.62244 c 0,-0.20765 0.7875,-0.99515 1.75,-1.75 1.58606,-1.24387 1.62143,-1.2085 0.37756,0.37756 C 320.82119,291.91575 320,292.44548 320,291.62244 Z m 22.73333,-0.74653 c 0.67834,-0.68342 1.48524,-0.99067 1.79313,-0.68278 0.30789,0.30789 -0.24711,0.86705 -1.23333,1.24258 -1.4252,0.54268 -1.54006,0.42782 -0.5598,-0.5598 z M 368,291 c -0.90129,-0.58246 -1.02463,-0.97549 -0.30902,-0.98469 0.65504,-0.008 1.4691,0.43469 1.80902,0.98469 0.7673,1.24153 0.42112,1.24153 -1.5,0 z m -8.1875,-17.68311 c 0.72187,-0.28887 1.58438,-0.25335 1.91667,0.0789 0.33229,0.33229 -0.25834,0.56864 -1.3125,0.52522 -1.16495,-0.048 -1.4019,-0.28494 -0.60417,-0.60416 z m 7.94916,-1.02415 c 1.24391,-0.23919 3.04391,-0.23011 4,0.0202 0.95609,0.25029 -0.0617,0.446 -2.26166,0.4349 -2.2,-0.0111 -2.98225,-0.21589 -1.73834,-0.45508 z m 13,0 c 1.24391,-0.23919 3.04391,-0.23011 4,0.0202 0.95609,0.25029 -0.0617,0.446 -2.26166,0.4349 -2.2,-0.0111 -2.98225,-0.21589 -1.73834,-0.45508 z M 204.25,263.31067 c 0.9625,-0.25152 2.5375,-0.25152 3.5,0 0.9625,0.25153 0.175,0.45733 -1.75,0.45733 -1.925,0 -2.7125,-0.2058 -1.75,-0.45733 z m 38.51166,-0.0179 c 1.24391,-0.23919 3.04391,-0.23011 4,0.0202 0.95609,0.25029 -0.0617,0.446 -2.26166,0.4349 -2.2,-0.0111 -2.98225,-0.21589 -1.73834,-0.45508 z m 30.97167,-1.41683 c 0.67834,-0.68342 1.48524,-0.99067 1.79313,-0.68278 0.30789,0.30789 -0.24711,0.86705 -1.23333,1.24258 -1.4252,0.54268 -1.54006,0.42782 -0.5598,-0.5598 z M 366.75,256.33772 c 0.6875,-0.27741 1.8125,-0.27741 2.5,0 0.6875,0.27741 0.125,0.50439 -1.25,0.50439 -1.375,0 -1.9375,-0.22698 -1.25,-0.50439 z m 16,0 c 0.6875,-0.27741 1.8125,-0.27741 2.5,0 0.6875,0.27741 0.125,0.50439 -1.25,0.50439 -1.375,0 -1.9375,-0.22698 -1.25,-0.50439 z M 208.5,247.3447 c 9.59724,-0.73393 20.50451,-0.78431 20.50235,-0.0947 -0.001,0.4125 -5.51485,0.67138 -12.25235,0.57529 -6.7375,-0.0961 -10.45,-0.31235 -8.25,-0.48059 z m -19.75,-1.05043 c 1.2375,-0.23836 3.2625,-0.23836 4.5,0 1.2375,0.23835 0.225,0.43337 -2.25,0.43337 -2.475,0 -3.4875,-0.19502 -2.25,-0.43337 z m 73,0.0434 c 0.6875,-0.27741 1.8125,-0.27741 2.5,0 0.6875,0.27741 0.125,0.50439 -1.25,0.50439 -1.375,0 -1.9375,-0.22698 -1.25,-0.50439 z m -85.5,-1.02705 c 0.9625,-0.25152 2.5375,-0.25152 3.5,0 0.9625,0.25153 0.175,0.45733 -1.75,0.45733 -1.925,0 -2.7125,-0.2058 -1.75,-0.45733 z m -9.5,-0.97295 c 0.6875,-0.27741 1.8125,-0.27741 2.5,0 0.6875,0.27741 0.125,0.50439 -1.25,0.50439 -1.375,0 -1.9375,-0.22698 -1.25,-0.50439 z m 117.0625,-0.0208 c 0.72187,-0.28887 1.58438,-0.25335 1.91667,0.0789 0.33229,0.33229 -0.25834,0.56864 -1.3125,0.52522 -1.16495,-0.048 -1.4019,-0.28494 -0.60417,-0.60416 z M 158.75,243.33772 c 0.6875,-0.27741 1.8125,-0.27741 2.5,0 0.6875,0.27741 0.125,0.50439 -1.25,0.50439 -1.375,0 -1.9375,-0.22698 -1.25,-0.50439 z m -8,-1 c 0.6875,-0.27741 1.8125,-0.27741 2.5,0 0.6875,0.27741 0.125,0.50439 -1.25,0.50439 -1.375,0 -1.9375,-0.22698 -1.25,-0.50439 z m -7.19236,-1.24446 c -0.30822,-0.49871 0.34022,-0.67122 1.44098,-0.38337 2.33499,0.61061 2.63015,1.29011 0.5604,1.29011 -0.79254,0 -1.69316,-0.40803 -2.00138,-0.90674 z m 80.52131,-8.67659 c 0.048,-1.16495 0.28494,-1.4019 0.60416,-0.60417 0.28887,0.72187 0.25335,1.58437 -0.0789,1.91667 -0.3323,0.33229 -0.56864,-0.25834 -0.52522,-1.3125 z m -73,-10 c 0.048,-1.16495 0.28494,-1.4019 0.60416,-0.60417 0.28887,0.72187 0.25335,1.58437 -0.0789,1.91667 -0.3323,0.33229 -0.56864,-0.25834 -0.52522,-1.3125 z M 25.404988,219.75 23.5,217.5 l 2.25,1.90499 C 27.864445,221.19521 28.455241,222 27.654988,222 c -0.189757,0 -1.202257,-1.0125 -2.25,-2.25 z M 395,219 c 0.825,-0.53316 1.95,-0.96937 2.5,-0.96937 0.55,0 0.325,0.43621 -0.5,0.96937 -0.825,0.53316 -1.95,0.96937 -2.5,0.96937 -0.55,0 -0.325,-0.43621 0.5,-0.96937 z m 4,-1.42963 c 0,-0.275 0.9,-0.98167 2,-1.57037 1.1,-0.5887 2,-0.84537 2,-0.57037 0,0.275 -0.9,0.98167 -2,1.57037 -1.1,0.5887 -2,0.84537 -2,0.57037 z m -174.92105,-2.1537 c 0.048,-1.16495 0.28494,-1.4019 0.60416,-0.60417 0.28887,0.72187 0.25335,1.58437 -0.0789,1.91667 -0.3323,0.33229 -0.56864,-0.25834 -0.52522,-1.3125 z m 143,0 c 0.048,-1.16495 0.28494,-1.4019 0.60416,-0.60417 0.28887,0.72187 0.25335,1.58437 -0.0789,1.91667 -0.33229,0.33229 -0.56864,-0.25834 -0.52522,-1.3125 z M 405.5,213 c 0.99549,-1.1 2.03498,-2 2.30998,-2 0.275,0 -0.31449,0.9 -1.30998,2 -0.99549,1.1 -2.03498,2 -2.30998,2 -0.275,0 0.31449,-0.9 1.30998,-2 z m 3.5,-2.37756 c 0,-0.20765 0.7875,-0.99515 1.75,-1.75 1.58606,-1.24387 1.62143,-1.2085 0.37756,0.37756 C 409.82119,210.91575 409,211.44548 409,210.62244 Z M 413.5,205 c 0.99549,-1.1 2.03498,-2 2.30998,-2 0.275,0 -0.31449,0.9 -1.30998,2 -0.99549,1.1 -2.03498,2 -2.30998,2 -0.275,0 0.31449,-0.9 1.30998,-2 z m 4.7016,-7.47806 c 1.19659,-2.46293 2.34713,-4.30654 2.55677,-4.09691 0.45238,0.45239 -3.58827,8.57497 -4.2657,8.57497 -0.25667,0 0.51235,-2.01513 1.70893,-4.47806 z M 147.14426,198.25 c -1.0912,-2.55004 -1.06651,-2.60886 0.33949,-0.80887 0.83394,1.06762 1.51625,2.30512 1.51625,2.75 0,1.51991 -0.67833,0.81036 -1.85574,-1.94113 z M 229,199.05902 c 0,-0.51754 0.44485,-1.21592 0.98855,-1.55194 0.56686,-0.35034 0.7345,0.0511 0.39301,0.94098 C 229.71677,200.18048 229,200.49745 229,199.05902 Z m 132.56429,-0.76589 c -0.54268,-1.4252 -0.42782,-1.54006 0.5598,-0.5598 0.68342,0.67834 0.99067,1.48524 0.68278,1.79313 -0.30789,0.30789 -0.86705,-0.24711 -1.24258,-1.23333 z M 28,195.94098 c 0,-0.58246 0.45,-0.7809 1,-0.44098 0.55,0.33992 1,0.81648 1,1.05902 C 30,196.80156 29.55,197 29,197 c -0.55,0 -1,-0.47656 -1,-1.05902 z M 33.5,190 c 0.995486,-1.1 2.034975,-2 2.309975,-2 0.275,0 -0.314489,0.9 -1.309975,2 -0.995486,1.1 -2.034975,2 -2.309975,2 -0.275,0 0.314489,-0.9 1.309975,-2 z M 139,187.5 c -2.42903,-2.475 -4.19142,-4.5 -3.91642,-4.5 0.275,0 2.48739,2.025 4.91642,4.5 2.42903,2.475 4.19142,4.5 3.91642,4.5 -0.275,0 -2.48739,-2.025 -4.91642,-4.5 z m 283.07895,-0.0833 c 0.048,-1.16495 0.28494,-1.4019 0.60416,-0.60417 0.28887,0.72187 0.25335,1.58437 -0.0789,1.91667 -0.33229,0.33229 -0.56864,-0.25834 -0.52522,-1.3125 z M 236,187.62244 c 0,-0.20765 0.7875,-0.99515 1.75,-1.75 1.58606,-1.24387 1.62143,-1.2085 0.37756,0.37756 C 236.82119,187.91575 236,188.44548 236,187.62244 Z M 353.87244,186.25 c -1.24387,-1.58606 -1.2085,-1.62143 0.37756,-0.37756 1.66575,1.30637 2.19548,2.12756 1.37244,2.12756 -0.20765,0 -0.99515,-0.7875 -1.75,-1.75 z M 39,184.5 c 1.291745,-1.375 2.573628,-2.5 2.848628,-2.5 0.275,0 -0.556883,1.125 -1.848628,2.5 -1.291745,1.375 -2.573628,2.5 -2.848628,2.5 -0.275,0 0.556883,-1.125 1.848628,-2.5 z m 39.8125,-0.18311 c 0.721875,-0.28887 1.584375,-0.25335 1.916667,0.0789 0.332291,0.33229 -0.258334,0.56864 -1.3125,0.52522 -1.164943,-0.048 -1.4019,-0.28494 -0.604167,-0.60416 z m 17,0 c 0.721875,-0.28887 1.584375,-0.25335 1.916667,0.0789 0.332291,0.33229 -0.258334,0.56864 -1.3125,0.52522 -1.164943,-0.048 -1.4019,-0.28494 -0.604167,-0.60416 z M 8.0789474,182.41667 c 0.047984,-1.16495 0.2849403,-1.4019 0.6041666,-0.60417 0.2888706,0.72187 0.2533443,1.58437 -0.078947,1.91667 -0.3322917,0.33229 -0.5686404,-0.25834 -0.5252196,-1.3125 z M 24.194949,181.5 c 0.02038,-1.65 0.244498,-2.20394 0.498042,-1.23097 0.253543,0.97297 0.236869,2.32297 -0.03705,3 C 24.382014,183.94606 24.174569,183.15 24.194949,181.5 Z M 423.33621,177 c 0,-4.125 0.17651,-5.8125 0.39226,-3.75 0.21574,2.0625 0.21574,5.4375 0,7.5 -0.21575,2.0625 -0.39226,0.375 -0.39226,-3.75 z m -78.93122,-0.25 -1.90499,-2.25 2.25,1.90499 c 1.2375,1.04774 2.25,2.06024 2.25,2.25 0,0.80025 -0.80479,0.20945 -2.59501,-1.90499 z M 246,177.62244 c 0,-0.20765 0.7875,-0.99515 1.75,-1.75 1.58606,-1.24387 1.62143,-1.2085 0.37756,0.37756 C 246.82119,177.91575 246,178.44548 246,177.62244 Z M 24.194949,172.5 c 0.02038,-1.65 0.244498,-2.20394 0.498042,-1.23097 0.253543,0.97297 0.236869,2.32297 -0.03705,3 C 24.382014,174.94606 24.174569,174.15 24.194949,172.5 Z m 79.617551,-3.18311 c 0.72187,-0.28887 1.58437,-0.25335 1.91667,0.0789 0.33229,0.33229 -0.25834,0.56864 -1.3125,0.52522 -1.16495,-0.048 -1.4019,-0.28494 -0.60417,-0.60416 z M 75.75,168.33772 c 0.6875,-0.27741 1.8125,-0.27741 2.5,0 0.6875,0.27741 0.125,0.50439 -1.25,0.50439 -1.375,0 -1.9375,-0.22698 -1.25,-0.50439 z m 21.519032,-0.0307 c 0.972967,-0.25354 2.322967,-0.23687 2.999998,0.0371 0.67703,0.27393 -0.11903,0.48137 -1.76903,0.46099 -1.65,-0.0204 -2.203936,-0.2445 -1.230968,-0.49804 z m 324.809918,-1.89034 c 0.048,-1.16495 0.28494,-1.4019 0.60416,-0.60417 0.28887,0.72187 0.25335,1.58437 -0.0789,1.91667 -0.33229,0.33229 -0.56864,-0.25834 -0.52522,-1.3125 z M 278.8125,161.31689 c 0.72187,-0.28887 1.58438,-0.25335 1.91667,0.0789 0.33229,0.33229 -0.25834,0.56864 -1.3125,0.52522 -1.16495,-0.048 -1.4019,-0.28494 -0.60417,-0.60416 z m 33,0 c 0.72187,-0.28887 1.58438,-0.25335 1.91667,0.0789 0.33229,0.33229 -0.25834,0.56864 -1.3125,0.52522 -1.16495,-0.048 -1.4019,-0.28494 -0.60417,-0.60416 z M 284.75,160.33772 c 0.6875,-0.27741 1.8125,-0.27741 2.5,0 0.6875,0.27741 0.125,0.50439 -1.25,0.50439 -1.375,0 -1.9375,-0.22698 -1.25,-0.50439 z m 20,0 c 0.6875,-0.27741 1.8125,-0.27741 2.5,0 0.6875,0.27741 0.125,0.50439 -1.25,0.50439 -1.375,0 -1.9375,-0.22698 -1.25,-0.50439 z m 113.4516,-3.85966 C 417.00502,154.01513 416.236,152 416.49267,152 c 0.67743,0 4.71808,8.12258 4.2657,8.57497 -0.20964,0.20963 -1.36018,-1.63398 -2.55677,-4.09691 z M 413.40499,148.75 411.5,146.5 l 2.25,1.90499 c 2.11444,1.79022 2.70524,2.59501 1.90499,2.59501 -0.18976,0 -1.20226,-1.0125 -2.25,-2.25 z M 36.5,145 c 0.995486,-1.1 2.034975,-2 2.309975,-2 0.275,0 -0.314489,0.9 -1.309975,2 -0.995486,1.1 -2.034975,2 -2.309975,2 -0.275,0 0.314489,-0.9 1.309975,-2 z m 373.37244,-0.75 c -1.24387,-1.58606 -1.2085,-1.62143 0.37756,-0.37756 0.9625,0.75485 1.75,1.54235 1.75,1.75 0,0.82304 -0.82119,0.29331 -2.12756,-1.37244 z M 159.8125,143.31689 c 0.72187,-0.28887 1.58437,-0.25335 1.91667,0.0789 0.33229,0.33229 -0.25834,0.56864 -1.3125,0.52522 -1.16495,-0.048 -1.4019,-0.28494 -0.60417,-0.60416 z m 15,0 c 0.72187,-0.28887 1.58437,-0.25335 1.91667,0.0789 0.33229,0.33229 -0.25834,0.56864 -1.3125,0.52522 -1.16495,-0.048 -1.4019,-0.28494 -0.60417,-0.60416 z M 404.43709,139.75 401.5,136.5 l 3.25,2.93709 c 3.02946,2.73778 3.70965,3.56291 2.93709,3.56291 -0.1721,0 -1.6346,-1.4625 -3.25,-3.25 z M 43.5,139 c 0.995486,-1.1 2.034975,-2 2.309975,-2 0.275,0 -0.314489,0.9 -1.309975,2 -0.995486,1.1 -2.034975,2 -2.309975,2 -0.275,0 0.314489,-0.9 1.309975,-2 z m 353.93709,-5.25 -2.93709,-3.25 3.25,2.93709 c 3.02946,2.73778 3.70965,3.56291 2.93709,3.56291 -0.1721,0 -1.6346,-1.4625 -3.25,-3.25 z m -258.56465,0.5 c -1.24387,-1.58606 -1.2085,-1.62143 0.37756,-0.37756 0.9625,0.75485 1.75,1.54235 1.75,1.75 0,0.82304 -0.82119,0.29331 -2.12756,-1.37244 z M 50.5,133 c 0.995486,-1.1 2.034975,-2 2.309975,-2 0.275,0 -0.314489,0.9 -1.309975,2 -0.995486,1.1 -2.034975,2 -2.309975,2 -0.275,0 0.314489,-0.9 1.309975,-2 z m 82.90499,-4.25 -1.90499,-2.25 2.25,1.90499 c 2.11444,1.79022 2.70524,2.59501 1.90499,2.59501 -0.18976,0 -1.20226,-1.0125 -2.25,-2.25 z m 257.51932,-0.5 -2.42431,-2.75 2.75,2.42431 c 2.57029,2.26589 3.20859,3.07569 2.42431,3.07569 -0.17912,0 -1.41662,-1.2375 -2.75,-2.75 z M 57,127.5 c 1.291745,-1.375 2.573628,-2.5 2.848628,-2.5 0.275,0 -0.556883,1.125 -1.848628,2.5 -1.291745,1.375 -2.573628,2.5 -2.848628,2.5 -0.275,0 0.556883,-1.125 1.848628,-2.5 z m 254.25,-0.18933 c 0.9625,-0.25152 2.5375,-0.25152 3.5,0 0.9625,0.25153 0.175,0.45733 -1.75,0.45733 -1.925,0 -2.7125,-0.2058 -1.75,-0.45733 z m 29,0 c 0.9625,-0.25152 2.5375,-0.25152 3.5,0 0.9625,0.25153 0.175,0.45733 -1.75,0.45733 -1.925,0 -2.7125,-0.2058 -1.75,-0.45733 z m -36.5,-0.97295 c 0.6875,-0.27741 1.8125,-0.27741 2.5,0 0.6875,0.27741 0.125,0.50439 -1.25,0.50439 -1.375,0 -1.9375,-0.22698 -1.25,-0.50439 z m 46.0625,-0.0208 c 0.72187,-0.28887 1.58438,-0.25335 1.91667,0.0789 0.33229,0.3323 -0.25834,0.56864 -1.3125,0.52522 -1.16495,-0.048 -1.4019,-0.28494 -0.60417,-0.60416 z m -52,-1 c 0.72187,-0.28887 1.58438,-0.25335 1.91667,0.0789 0.33229,0.3323 -0.25834,0.56864 -1.3125,0.52522 -1.16495,-0.048 -1.4019,-0.28494 -0.60417,-0.60416 z M 384.43709,122.75 381.5,119.5 l 3.25,2.93709 c 3.02946,2.73778 3.70965,3.56291 2.93709,3.56291 -0.1721,0 -1.6346,-1.4625 -3.25,-3.25 z M 63.5,122 c 0.995486,-1.1 2.034975,-2 2.309975,-2 0.275,0 -0.314489,0.9 -1.309975,2 -0.995486,1.1 -2.034975,2 -2.309975,2 -0.275,0 0.314489,-0.9 1.309975,-2 z m 315.3125,-2.68311 c 0.72187,-0.28887 1.58438,-0.25335 1.91667,0.0789 0.33229,0.3323 -0.25834,0.56864 -1.3125,0.52522 -1.16495,-0.048 -1.4019,-0.28494 -0.60417,-0.60416 z m -171.73355,-1.90022 c 0.048,-1.16495 0.28494,-1.4019 0.60416,-0.60417 0.28887,0.72187 0.25335,1.58437 -0.0789,1.91667 -0.3323,0.33229 -0.56864,-0.25834 -0.52522,-1.3125 z M 70.5,116 c 0.995486,-1.1 2.034975,-2 2.309975,-2 0.275,0 -0.314489,0.9 -1.309975,2 -0.995486,1.1 -2.034975,2 -2.309975,2 -0.275,0 0.314489,-0.9 1.309975,-2 z m 198.5,0.5 c -1.375,-0.78602 -2.05,-1.42913 -1.5,-1.42913 0.55,0 2.125,0.64311 3.5,1.42913 1.375,0.78602 2.05,1.42913 1.5,1.42913 -0.55,0 -2.125,-0.64311 -3.5,-1.42913 z m -192,-6 c 1.291745,-1.375 2.573628,-2.5 2.848628,-2.5 0.275,0 -0.556883,1.125 -1.848628,2.5 -1.291745,1.375 -2.573628,2.5 -2.848628,2.5 -0.275,0 0.556883,-1.125 1.848628,-2.5 z m 237.75,0.83772 c 0.6875,-0.27741 1.8125,-0.27741 2.5,0 0.6875,0.27741 0.125,0.50439 -1.25,0.50439 -1.375,0 -1.9375,-0.22698 -1.25,-0.50439 z m 25.0625,-0.0208 c 0.72187,-0.28887 1.58438,-0.25335 1.91667,0.0789 0.33229,0.3323 -0.25834,0.56864 -1.3125,0.52522 -1.16495,-0.048 -1.4019,-0.28494 -0.60417,-0.60416 z M 255.87244,108.25 c -1.24387,-1.58606 -1.2085,-1.62143 0.37756,-0.37756 1.66575,1.30637 2.19548,2.12756 1.37244,2.12756 -0.20765,0 -0.99515,-0.7875 -1.75,-1.75 z m -48.79349,-1.83333 c 0.048,-1.16495 0.28494,-1.4019 0.60416,-0.60417 0.28887,0.72187 0.25335,1.58437 -0.0789,1.91667 -0.3323,0.33229 -0.56864,-0.25834 -0.52522,-1.3125 z M 83.5,105 c 0.995486,-1.1 2.034975,-2 2.309975,-2 0.275,0 -0.314489,0.9 -1.309975,2 -0.995486,1.1 -2.034975,2 -2.309975,2 -0.275,0 0.314489,-0.9 1.309975,-2 z m 166.42431,-1.75 -2.42431,-2.75 2.75,2.42431 c 2.57029,2.26589 3.20859,3.07569 2.42431,3.07569 -0.17912,0 -1.41662,-1.2375 -2.75,-2.75 z M 90.5,99 c 0.995486,-1.1 2.034975,-2 2.309975,-2 0.275,0 -0.314489,0.9 -1.309975,2 -0.995486,1.1 -2.034975,2 -2.309975,2 -0.275,0 0.314489,-0.9 1.309975,-2 z M 354.87244,97.25 C 353.62857,95.663944 353.66394,95.628574 355.25,96.872445 356.91575,98.178814 357.44548,99 356.62244,99 c -0.20765,0 -0.99515,-0.7875 -1.75,-1.75 z M 132,96.622445 c 0,-0.207656 0.7875,-0.995156 1.75,-1.75 1.58606,-1.243871 1.62143,-1.208501 0.37756,0.377555 C 132.82119,96.915748 132,97.445479 132,96.622445 Z M 201.87244,95.25 C 200.62857,93.663944 200.66394,93.628574 202.25,94.872445 203.91575,96.178814 204.44548,97 203.62244,97 c -0.20765,0 -0.99515,-0.7875 -1.75,-1.75 z M 97,93.5 C 98.291745,92.125 99.573628,91 99.848628,91 100.12363,91 99.291745,92.125 98,93.5 96.708255,94.875 95.426372,96 95.151372,96 94.876372,96 95.708255,94.875 97,93.5 Z m 278.87244,0.75 C 374.62857,92.663944 374.66394,92.628574 376.25,93.872445 377.91575,95.178814 378.44548,96 377.62244,96 c -0.20765,0 -0.99515,-0.7875 -1.75,-1.75 z m -113.94813,-2 -2.42431,-2.75 2.75,2.424314 C 264.82029,94.190201 265.45859,95 264.67431,95 c -0.17912,0 -1.41662,-1.2375 -2.75,-2.75 z M 138,90.622445 c 0,-0.207656 0.7875,-0.995156 1.75,-1.75 1.58606,-1.243871 1.62143,-1.208501 0.37756,0.377555 C 138.82119,90.915748 138,91.445479 138,90.622445 Z M 103.5,88 c 0.99549,-1.1 2.03498,-2 2.30998,-2 0.275,0 -0.31449,0.9 -1.30998,2 -0.99549,1.1 -2.03498,2 -2.30998,2 -0.275,0 0.31449,-0.9 1.30998,-2 z m 7,-6 c 0.99549,-1.1 2.03498,-2 2.30998,-2 0.275,0 -0.31449,0.9 -1.30998,2 -0.99549,1.1 -2.03498,2 -2.30998,2 -0.275,0 0.31449,-0.9 1.30998,-2 z M 334.87244,80.25 C 333.62857,78.663944 333.66394,78.628574 335.25,79.872445 336.91575,81.178814 337.44548,82 336.62244,82 c -0.20765,0 -0.99515,-0.7875 -1.75,-1.75 z M 159.8125,80.31689 c 0.72187,-0.288871 1.58437,-0.253344 1.91667,0.07895 0.33229,0.332292 -0.25834,0.568641 -1.3125,0.52522 -1.16495,-0.04798 -1.4019,-0.284941 -0.60417,-0.604167 z m 15,0 c 0.72187,-0.288871 1.58437,-0.253344 1.91667,0.07895 0.33229,0.332292 -0.25834,0.568641 -1.3125,0.52522 -1.16495,-0.04798 -1.4019,-0.284941 -0.60417,-0.604167 z M 116.5,77 c 0.99549,-1.1 2.03498,-2 2.30998,-2 0.275,0 -0.31449,0.9 -1.30998,2 -0.99549,1.1 -2.03498,2 -2.30998,2 -0.275,0 0.31449,-0.9 1.30998,-2 z m 7,-6 c 0.99549,-1.1 2.03498,-2 2.30998,-2 0.275,0 -0.31449,0.9 -1.30998,2 -0.99549,1.1 -2.03498,2 -2.30998,2 -0.275,0 0.31449,-0.9 1.30998,-2 z M 262,67.5 c 1.29175,-1.375 2.57363,-2.5 2.84863,-2.5 0.275,0 -0.55688,1.125 -1.84863,2.5 -1.29175,1.375 -2.57363,2.5 -2.84863,2.5 -0.275,0 0.55688,-1.125 1.84863,-2.5 z M 130.5,65 c 0.99549,-1.1 2.03498,-2 2.30998,-2 0.275,0 -0.31449,0.9 -1.30998,2 -0.99549,1.1 -2.03498,2 -2.30998,2 -0.275,0 0.31449,-0.9 1.30998,-2 z m 184.37244,-1.75 c -1.24387,-1.586056 -1.2085,-1.621426 0.37756,-0.377555 0.9625,0.754844 1.75,1.542344 1.75,1.75 0,0.823034 -0.82119,0.293303 -2.12756,-1.372445 z M 137,59.5 c 1.29175,-1.375 2.57363,-2.5 2.84863,-2.5 0.275,0 -0.55688,1.125 -1.84863,2.5 -1.29175,1.375 -2.57363,2.5 -2.84863,2.5 -0.275,0 0.55688,-1.125 1.84863,-2.5 z m 198.87244,0.75 C 334.62857,58.663944 334.66394,58.628574 336.25,59.872445 337.91575,61.178814 338.44548,62 337.62244,62 c -0.20765,0 -0.99515,-0.7875 -1.75,-1.75 z M 250.5,56 c 2.14824,-2.2 4.1309,-4 4.4059,-4 0.275,0 -1.25766,1.8 -3.4059,4 -2.14824,2.2 -4.1309,4 -4.4059,4 -0.275,0 1.25766,-1.8 3.4059,-4 z m -107,-2 c 0.99549,-1.1 2.03498,-2 2.30998,-2 0.275,0 -0.31449,0.9 -1.30998,2 -0.99549,1.1 -2.03498,2 -2.30998,2 -0.275,0 0.31449,-0.9 1.30998,-2 z m 4.5,-3.377555 c 0,-0.207656 0.7875,-0.995156 1.75,-1.75 1.58606,-1.243871 1.62143,-1.208501 0.37756,0.377555 C 148.82119,50.915748 148,51.445479 148,50.622445 Z M 278.81749,39.133961 c 0.95619,-0.60632 0.4675,-1.187486 -1.78207,-2.119289 -1.70475,-0.706132 -2.91583,-1.467592 -2.69129,-1.692134 0.22454,-0.224543 2.04134,0.370505 4.03733,1.322327 2.49737,1.190909 3.23763,1.979116 2.37381,2.527548 -0.6904,0.438329 -1.70527,0.796961 -2.25527,0.796961 -0.55,0 -0.40713,-0.375935 0.31749,-0.835413 z M 268,33 c -0.825,-0.533156 -1.05,-0.969374 -0.5,-0.969374 0.55,0 1.675,0.436218 2.5,0.969374 0.825,0.533156 1.05,0.969374 0.5,0.969374 -0.55,0 -1.675,-0.436218 -2.5,-0.969374 z m -21.1875,-6.683114 c 0.72187,-0.288871 1.58437,-0.253344 1.91667,0.07895 0.33229,0.332292 -0.25834,0.568641 -1.3125,0.52522 -1.16495,-0.04798 -1.4019,-0.284941 -0.60417,-0.604167 z M 204.75,25.337719 c 0.6875,-0.277412 1.8125,-0.277412 2.5,0 0.6875,0.277413 0.125,0.504386 -1.25,0.504386 -1.375,0 -1.9375,-0.226973 -1.25,-0.504386 z m 36.0625,-0.02083 c 0.72187,-0.288871 1.58437,-0.253344 1.91667,0.07895 0.33229,0.332292 -0.25834,0.568641 -1.3125,0.52522 -1.16495,-0.04798 -1.4019,-0.284941 -0.60417,-0.604167 z M 213.75,24.294267 c 1.2375,-0.238353 3.2625,-0.238353 4.5,0 1.2375,0.238353 0.225,0.433369 -2.25,0.433369 -2.475,0 -3.4875,-0.195016 -2.25,-0.433369 z m 16.01166,-0.0015 c 1.24391,-0.239193 3.04391,-0.230112 4,0.02018 0.95609,0.250292 -0.0617,0.445996 -2.26166,0.434897 -2.2,-0.0111 -2.98225,-0.215885 -1.73834,-0.455078 z M 213.75,8.3377193 c 0.6875,-0.2774123 1.8125,-0.2774123 2.5,0 0.6875,0.2774123 0.125,0.504386 -1.25,0.504386 -1.375,0 -1.9375,-0.2269737 -1.25,-0.504386 z m 18,0 c 0.6875,-0.2774123 1.8125,-0.2774123 2.5,0 0.6875,0.2774123 0.125,0.504386 -1.25,0.504386 -1.375,0 -1.9375,-0.2269737 -1.25,-0.504386 z"
         id="path120" />
      <path
         style="fill:#010100"
         d="m 185.51971,502.93234 c -21.38793,-3.57486 -39.58509,-19.06486 -46.13353,-39.27032 -2.08696,-6.43937 -2.65113,-10.16705 -2.6731,-17.66202 -0.0254,-8.65852 1.62391,-17.07334 18.61972,-95 10.25615,-47.025 18.87251,-86.46055 19.14746,-87.63457 0.46169,-1.97143 -0.0152,-2.18621 -6.24018,-2.81033 C 134.43328,257.16556 93.484254,248.50298 58.93566,237.43225 42.294793,232.09986 36.196928,228.92842 28.008481,221.34737 5.0631122,200.104 1.9367278,164.76003 20.784847,139.68373 24.639268,134.55565 131.64363,42.755831 144.61243,33.451141 159.73728,22.599554 180.79654,13.827513 200,10.379957 c 12.67799,-2.2760528 35.32201,-2.2760528 48,0 19.20346,3.447556 40.26272,12.219597 55.38757,23.071184 3.92175,2.813728 32.5514,26.738752 63.62144,53.166721 59.2642,50.409728 61.84552,52.922898 67.37681,65.598038 8.05748,18.464 6.73774,39.10447 -3.62416,56.68109 -4.73783,8.03666 -15.20696,18.03971 -23.34758,22.30815 C 395.50166,237.45129 354.656,248.92041 324.5,254.48674 309.93056,257.17602 282.05523,261 277.02077,261 c -1.5965,0 -3.09613,0.3375 -3.3325,0.75 -0.23637,0.4125 0.80927,6.375 2.32365,13.25 1.51437,6.875 3.28811,15.0875 3.94164,18.25 0.65353,3.1625 1.53673,5.75 1.96267,5.75 0.42594,0 8.60654,-5.66919 18.17911,-12.5982 20.65415,-14.95032 25.82871,-18.08179 37.55241,-22.72544 12.72224,-5.03917 23.5422,-7.01952 38.35225,-7.01952 19.83252,0 38.09225,4.92738 53.97888,14.56619 9.89178,6.00158 59.0943,42.0593 63.34799,46.42413 4.80988,4.93555 8.41305,12.30896 9.76464,19.98206 2.75937,15.66523 -6.01161,32.7813 -20.40784,39.82472 -8.34252,4.08161 -40.6392,10.1567 -64.45936,12.12497 -6.99099,0.57767 -8.19697,0.9351 -7.76855,2.30246 0.27893,0.89025 5.06412,16.69363 10.63376,35.11863 8.89991,29.44192 10.12992,34.40853 10.15383,41 0.0384,10.58212 -2.88875,17.8054 -10.16335,25.08 -3.81073,3.81073 -7.50563,6.36407 -11.58737,8.00737 C 403.66448,503.43378 402.74519,503.5 376,503.5 c -26.74519,0 -27.66448,-0.0662 -33.49263,-2.41263 -4.08174,-1.6433 -7.77664,-4.19664 -11.58737,-8.00737 -7.2746,-7.2746 -10.20174,-14.49788 -10.16335,-25.08 0.0239,-6.59147 1.25392,-11.55808 10.15383,-41 5.56964,-18.425 10.35899,-34.24149 10.64301,-35.14776 0.42829,-1.36665 -0.55581,-1.76299 -5.76855,-2.32322 -3.45672,-0.3715 -12.72963,-1.58532 -20.60647,-2.69737 -7.87685,-1.11205 -14.50439,-1.83907 -14.72787,-1.61558 -0.22349,0.22348 2.13026,11.85379 5.23055,25.84513 6.90871,31.1784 7.33698,39.30216 2.785,52.82827 -6.98979,20.77005 -24.58386,35.48941 -46.71314,39.08065 -7.38355,1.19824 -69.02111,1.16769 -76.2333,-0.0378 z m 80.68736,-16.91458 c 17.32505,-5.35116 29.83996,-22.32423 29.76866,-40.3731 -0.0147,-3.73048 -2.49819,-17.50599 -6.32096,-35.06191 l -6.29669,-28.91724 -6.03075,-1.65084 c -8.10376,-2.21828 -14.16866,-5.93209 -19.65781,-12.03735 -14.95456,-16.63307 -11.56951,-42.35496 7.43966,-56.53147 l 2.60917,-1.94585 -5.0013,-23 -5.00129,-23 -33.68457,-0.037 -33.68456,-0.037 -19.20199,88.53698 c -12.52122,57.73312 -19.19202,90.50089 -19.17332,94.18165 0.0889,17.48978 11.99856,33.78297 28.90704,39.54658 6.38614,2.17685 7.90715,2.25804 42.7663,2.28294 33.25485,0.0238 36.65778,-0.13266 42.56241,-1.95642 z M 192,464 v -8 h 8 8 v 8 8 h -8 -8 z m 48,0 v -8 h 8 8 v 8 8 h -8 -8 z m -72,-24 v -8 h 8 8 v 8 8 h -8 -8 z m 48,0 v -8 h 8 8 v 8 8 h -8 -8 z m -24,-32 v -8 h 8 8 v 8 8 h -8 -8 z m 212.5,78.10996 C 411.4925,482.88271 416,475.93134 416,468.3749 416,465.4541 403.02983,419.7994 395.43882,396 l -1.43531,-4.5 h -18.03624 -18.03624 l -2.90506,9.5 C 342.35667,442.43049 336,464.8755 336,468.17955 c 0,7.751 4.43846,14.6713 11.5,17.93041 3.54419,1.63574 6.79186,1.84612 28.5,1.84612 21.70814,0 24.95581,-0.21038 28.5,-1.84612 z M 352,464 v -8 h 8 8 v 8 8 h -8 -8 z m 32,0 v -8 h 8 8 v 8 8 h -8 -8 z m -16,-24 v -8 h 8 8 v 8 8 h -8 -8 z m 37.5,-65.0177 c 26.15895,-1.86876 63.60243,-7.91543 70.22611,-11.34066 9.39507,-4.85838 14.41568,-16.908 11.14254,-26.74242 -2.06322,-6.19912 -3.14002,-6.44172 -6.68457,-1.50602 -9.40258,13.09287 -26.4758,19.30112 -41.83389,15.21187 -27.82062,-7.40752 -39.21057,-40.16507 -21.86453,-62.88249 l 3.41488,-4.47234 -6.76721,-3.11922 c -12.74987,-5.87679 -20.91523,-7.49999 -37.63333,-7.48115 -13.36977,0.0151 -15.95443,0.30724 -23.78184,2.68836 -4.83001,1.46931 -12.25501,4.42236 -16.5,6.56235 -7.06599,3.56211 -57.87214,39.68712 -64.59426,45.92886 -3.83247,3.55858 -6.57498,9.72277 -6.60194,14.83877 -0.039,7.40317 0.56625,7.69021 6.32497,2.99967 8.54201,-6.95756 14.53833,-9.09239 25.65307,-9.13309 8.64756,-0.0317 10.10485,0.25173 16.24075,3.15834 11.92998,5.6513 20.10559,16.04478 22.79327,28.97663 l 1.07446,5.16977 7.19576,0.59215 c 13.33559,1.0974 16.14914,1.21842 32.19576,1.38483 8.8,0.0913 22.3,-0.28413 30,-0.83421 z M 349,343.12484 C 340.43419,340.30433 334.85328,335.64511 330.8832,328 c -3.45307,-6.64949 -3.31923,-17.62579 0.29875,-24.5 5.31599,-10.10046 13.37065,-14.95364 24.81805,-14.95364 11.4474,0 19.50206,4.85318 24.81805,14.95364 3.53862,6.72343 3.75011,17.89453 0.45657,24.11647 -3.4102,6.44232 -7.10641,10.2646 -12.6354,13.06635 -5.42794,2.75054 -15.06354,3.94867 -19.63922,2.44202 z m 12.96017,-16.76038 C 372.51254,320.13102 368.2136,304 356,304 c -9.22745,0 -14.82941,9.62785 -10.48743,18.02431 2.8678,5.5457 10.8438,7.65039 16.4476,4.34015 z m -43.00691,42.47258 c -4.87056,-16.98268 -27.0748,-22.42804 -39.78797,-9.75759 -2.9949,2.98483 -3.16637,3.44659 -1.68273,4.53146 0.90859,0.66437 8.03421,2.39227 15.83471,3.83977 7.8005,1.4475 16.20773,3.01395 18.68273,3.481 7.90089,1.49096 7.97518,1.46858 6.95326,-2.09464 z m 138.56893,-34.70812 c 2.21221,-1.00493 5.48785,-3.2928 7.2792,-5.08415 3.07979,-3.07979 6.72558,-8.85948 6.02235,-9.54724 -1.25323,-1.22565 -35.42574,-25.79131 -36.3947,-26.16314 -0.67265,-0.25811 -2.44001,0.79855 -3.92747,2.34815 -11.01827,11.47859 -7.64091,30.58424 6.66681,37.71408 6.36409,3.17136 14.35196,3.45875 20.35381,0.7323 z M 228.52154,246.25 c -2.0676,-5.22548 -4.51931,-17.28758 -4.50418,-22.15996 0.0462,-14.86993 6.83881,-30.79844 17.9146,-42.00927 11.61387,-11.75548 26.91279,-19.05565 44.62235,-21.29241 29.87505,-3.7733 61.21336,11.11393 73.79458,35.05603 4.83238,9.19604 6.53745,14.88496 7.31478,24.40561 0.34802,4.2625 0.97305,7.75 1.38895,7.75 2.92682,0 29.36639,-9.50665 33.18648,-11.93258 22.8287,-14.49726 28.62251,-45.49149 12.43374,-66.51483 -3.71228,-4.82091 -32.80318,-30.57206 -34.50062,-30.53982 -0.36972,0.007 -4.18165,1.13354 -8.47096,2.50338 -16.87209,5.38829 -41.16127,7.66033 -59.70126,5.58454 -34.38684,-3.85005 -60.34048,-16.94864 -69.12004,-34.884337 -3.49092,-7.13156 -3.31939,-17.803347 0.40815,-25.393926 4.88621,-9.950016 17.90696,-20.151486 33.15739,-25.978078 l 5.94551,-2.271543 -5.94551,-2.751811 C 236.73804,17.442825 191.03452,20.921874 155.5,45.027623 143.38089,53.248934 37.927997,143.43476 33.312204,149.52554 26.879883,158.01333 24.674259,164.70007 24.57959,176 c -0.105898,12.64018 3.840994,25.55166 5.863191,19.18028 0.317657,-1.00085 3.365058,-4.59861 6.772004,-7.99502 7.223091,-7.20076 17.635719,-13.00703 29.341802,-16.36151 10.940587,-3.13513 31.202993,-3.1347 42.743893,9e-4 23.12604,6.28322 40.75455,23.66252 42.39918,41.79977 0.66981,7.38675 -1.6676,17.1155 -5.67041,23.60139 -1.60411,2.59919 -2.59577,4.92406 -2.2037,5.16638 1.31236,0.81108 35.52085,4.67848 48.67445,5.50283 7.15,0.4481 18.33564,0.88003 24.85699,0.95985 10.9211,0.13367 11.80233,0.007 11.16455,-1.60487 z M 158.10833,142.98434 C 141.39937,139.45199 128,125.66276 128,112 c 0,-10.60761 8.12369,-21.82318 19.74666,-27.262222 30.16467,-14.115753 66.80284,7.253845 58.91081,34.360352 -2.94931,10.12991 -10.4369,17.43076 -22.50877,21.94742 -6.36499,2.38145 -19.36728,3.34951 -26.04037,1.93879 z m 21.27643,-17.02711 C 186.8473,123.16514 192,117.4643 192,112 c 0,-3.17678 -0.73221,-4.80471 -3.57772,-7.95435 -9.64224,-10.672808 -31.20232,-10.672808 -40.84456,0 -4.99465,5.52848 -4.99387,10.38108 0.003,15.91153 6.88874,7.62501 20.56533,10.20516 31.80448,6.00005 z M 285.5,244.52214 c 27.50059,-3.22271 64.13278,-10.34142 65.66905,-12.76143 1.26788,-1.99722 0.93787,-12.77 -0.56398,-18.41052 -2.1475,-8.06544 -6.453,-14.97863 -13.34225,-21.42318 -10.49214,-9.81488 -22.27795,-14.74866 -37.35059,-15.63571 -38.28894,-2.25335 -67.75929,28.18929 -57.94174,59.85336 1.08378,3.49544 2.73058,7.43392 3.65956,8.75218 1.67331,2.3745 1.8064,2.39102 14.2795,1.77278 6.92475,-0.34323 18.44045,-1.3096 25.59045,-2.14748 z M 126.93989,234.43534 C 132.1655,229.71432 136,221.91194 136,216 c 0,-6.18935 -3.9695,-13.92294 -9.76467,-19.02405 -25.07947,-22.07584 -74.844251,-14.80656 -85.205743,12.44623 -0.835891,2.19856 -0.460697,2.73438 3.852896,5.50241 5.547226,3.55964 10.859246,5.49581 32.117517,11.70643 12.499286,3.65167 41.95954,11.0108 45.24712,11.30265 0.41091,0.0365 2.52266,-1.53777 4.69277,-3.49833 z M 356,109.47074 c 4.125,-0.90997 8.09418,-1.98627 8.8204,-2.39177 0.89366,-0.49899 -8.90536,-9.43782 -30.31969,-27.65812 C 317.09866,64.614383 301.86214,52.109098 300.64178,51.631328 295.91252,49.779831 274.46533,57.736267 265.23303,64.767192 260.24247,68.567789 256,75.567092 256,80 c 0,12.895056 21.09984,25.83635 49.74184,30.50847 11.4664,1.87042 39.71979,1.28704 50.25816,-1.03773 z"
         id="path118" />
    </g>
  </g>
</svg>
