<?xml version="1.0" encoding="UTF-8" standalone="no"?>
<!-- Created with Inkscape (http://www.inkscape.org/) -->

<svg
   version="1.1"
   id="svg619"
   width="512"
   height="512"
   viewBox="0 0 512 512"
   xmlns="http://www.w3.org/2000/svg"
   xmlns:svg="http://www.w3.org/2000/svg">
  <defs
     id="defs623" />
  <g
     id="g625">
    <g
       id="g629">
      <path
         style="fill:#d5e5ef"
         d="M 212.5,457.39631 C 193.8,440.56399 176.1375,424.6016 173.25,421.92432 L 168,417.05656 V 404.02828 C 168,396.86273 167.75265,391 167.45034,391 c -2.36226,0 -6.45938,3.49736 -7.38588,6.3047 -1.35151,4.09511 -6.51999,9.26093 -10.73626,10.73073 -6.81915,2.37717 -16.50294,-2.62092 -20.1626,-10.40653 -1.15675,-2.46087 -3.00549,-4.76069 -4.10831,-5.11072 -1.10281,-0.35002 -2.91686,-1.79548 -4.0312,-3.21215 C 119.06275,386.81005 119,385.40038 119,343.78822 v -42.94207 l 2.78873,-2.67307 c 1.5338,-1.4702 3.62376,-3.14214 4.64435,-3.71543 1.65257,-0.92828 1.75776,-1.69426 0.96127,-7 L 126.5,281.5 l -9,-0.74564 C 70.152402,276.83168 30.427281,242.72318 17.855203,195.19808 15.219492,185.23453 14.247111,162.57549 15.954232,150.90043 22.97466,102.88744 62.347448,63.260726 110.20784,56.038962 c 12.42249,-1.874459 61.65394,-1.724831 70.90512,0.2155 5.46379,1.145969 8.71028,1.337807 11.5,0.679544 2.2419,-0.529001 55.35918,-0.930259 125.50239,-0.94807 141.62418,-0.03596 129.55758,1.043851 117.75171,-10.537322 C 427.50105,37.24183 425.55181,33.58413 427.13067,29.054998 429.10925,23.379249 431.13975,23 459.54921,23 c 28.41199,0 30.4399,0.372243 34.72048,6.373287 2.15146,3.016165 2.24083,4.061098 2.52791,29.554698 0.33118,29.410508 0.008,31.419723 -5.42204,33.688456 -4.45231,1.860294 -7.55979,0.564952 -14.12556,-5.888183 L 472,81.56832 v 90.07124 90.07123 l 6.47181,0.60435 c 3.5595,0.33239 7.78089,1.2813 9.38088,2.10869 3.63104,1.87768 7.9094,6.88002 8.8976,10.40324 0.97858,3.4889 0.97858,102.85696 0,106.34586 -0.9882,3.52322 -5.26656,8.52556 -8.8976,10.40324 -1.59999,0.82739 -5.79995,1.7743 -9.33324,2.10424 l -6.42418,0.5999 -0.29763,34.60985 L 471.5,463.5 l -2.61982,5.58648 c -3.33005,7.101 -8.6927,12.46365 -15.7937,15.7937 L 447.5,487.5 347,487.75027 246.5,488.00053 Z M 168,289.56739 c 0,-6.36662 -0.26664,-7.51724 -1.85912,-8.02268 -3.9148,-1.24251 -5.14088,0.31496 -5.14088,6.53034 0,5.36556 0.23249,5.98721 2.75,7.35298 1.5125,0.82054 3.0875,1.50991 3.5,1.53193 0.4125,0.022 0.75,-3.30464 0.75,-7.39257 z m -62.68288,-140.8601 c 9.74222,-7.43076 8.19573,-21.91433 -2.90224,-27.18066 -10.666762,-5.06171 -23.487882,4.26137 -22.152532,16.10856 1.361734,12.08127 15.525471,18.34045 25.054772,11.0721 z"
         id="path643" />
      <path
         style="fill:#a2cbe3"
         d="M 208.75,451.91694 C 187.9875,433.20053 171,417.43566 171,416.88391 c 0,-0.65365 9.32073,-0.89531 26.75,-0.69356 30.63998,0.35468 32.20365,0.71067 40.77632,9.28333 8.3791,8.37911 8.92672,10.5764 9.29017,37.27632 0.17407,12.7875 -0.0509,23.23802 -0.5,23.22339 -0.44907,-0.0146 -17.80399,-15.34004 -38.56649,-34.05645 z M 143.79569,400.25 143.5,393.5 l -8.50351,-0.5829 c -9.01074,-0.61767 -12.31175,-1.76913 -13.97357,-4.87428 C 120.37189,386.82637 120,370.73719 120,343.78825 c 0,-47.1528 -0.19097,-45.80793 6.77948,-47.74381 2.04629,-0.56831 6.53302,-1.0358 9.97052,-1.03886 4.74504,-0.004 6.25,-0.34929 6.25,-1.433 C 143,290.89968 137.98651,288 133.36514,288 129.25094,288 129,287.83904 129,285.2 c 0,-3.94889 -1.70079,-5.2 -7.06901,-5.2 -7.15735,0 -20.72763,-2.6438 -30.324203,-5.90784 C 56.541986,262.16571 29.047901,232.57196 19.246461,196.20581 16.86926,187.38572 16.63054,184.81176 16.63054,168 c 0,-16.81176 0.23872,-19.38572 2.615921,-28.20581 11.518168,-42.735697 46.450709,-74.774437 89.770509,-82.333953 5.94776,-1.037912 16.95828,-1.540131 36.5,-1.664863 24.94075,-0.159192 29.12458,0.05091 38.48303,1.932526 12.62468,2.538327 18.70706,4.757997 30.21299,11.025765 16.09993,8.770318 30.27238,21.763106 40.4759,37.106825 l 3.5647,5.3605 14.40625,-14.360495 C 281.27114,88.276533 287.26839,81.494371 287.56902,80 c 1.8954,-9.421571 3.62446,-12.988621 8.35969,-17.245996 10.19169,-9.163208 23.17785,-8.959074 32.84233,0.516261 4.03232,3.953401 5.95258,8.151501 7.65238,16.729735 0.56492,2.850926 37.34425,40 39.60188,40 C 377.53261,120 444,54.141334 444,52.647826 c 0,-0.490708 -3.6,-4.580435 -8,-9.088282 -7.00833,-7.180106 -8,-8.643471 -8,-11.805234 0,-2.727314 0.65773,-4.126519 2.69193,-5.726625 2.61231,-2.054842 3.48279,-2.108752 29.42894,-1.82258 37.6337,0.41508 35.87525,-1.393976 35.87758,36.910036 0.001,24.401205 -0.0967,25.740011 -2.07103,28.25 C 492.37236,91.342082 490.95364,92 488.24569,92 c -3.16176,0 -4.62513,-0.991671 -11.80523,-8 -4.50785,-4.4 -8.59758,-8 -9.08829,-8 -0.4907,0 -15.84569,14.978057 -34.12218,33.28457 C 408.46413,134.09111 400,143.16757 400,144.91855 c 0,8.26969 -7.6535,18.75318 -15.68989,21.49145 -9.21509,3.1399 -16.97303,1.49676 -24.3814,-5.164 -4.73531,-4.25745 -6.50077,-7.90288 -8.35213,-17.246 -0.56248,-2.83864 -37.33933,-40 -39.58612,-40 -0.76439,0 -10.34497,8.92366 -21.29018,19.83035 l -19.90038,19.83036 1.22973,7.62301 c 1.91149,11.84927 0.78837,32.93899 -2.40797,45.21628 -3.63183,13.95002 -12.61274,31.56749 -21.89947,42.95924 -19.15738,23.49976 -49.73879,39.60468 -78.15112,41.15628 -4.91091,0.26819 -9.29841,0.71597 -9.75,0.99506 -0.45159,0.2791 -0.82107,3.17175 -0.82107,6.42811 0,5.89235 0.019,5.93034 3.96656,7.94425 2.18161,1.11298 4.43161,2.89254 5,3.95458 1.41336,2.64088 1.41576,85.47958 0.003,88.12017 -0.56698,1.05942 -2.58711,2.72461 -4.48918,3.70043 -2.20467,1.13107 -4.27786,3.39669 -5.71913,6.24998 -2.45026,4.85082 -7.68332,8.9919 -11.363,8.9919 -2.15157,0 -2.32628,-0.4532 -2.60212,-6.75 z m 2.79435,-158.2659 C 181.13153,233.181 204,203.71045 204,168 204,125.14534 170.98002,92 128.28744,92 115.02816,92 105.81978,94.048288 94.5,99.515586 78.443444,107.27068 66.50643,119.35477 58.953557,135.5 54.009988,146.06751 52,155.54501 52,168.28744 c 0,35.09368 23.065997,64.90379 57,73.66587 10.49011,2.70864 27.02956,2.72219 37.59004,0.0308 z m 101.58959,149.33414 c -1.82621,-0.89991 -4.52621,-3.21714 -6,-5.14938 L 239.5,382.65568 V 328 273.34432 l 2.69355,-3.53144 c 5.56965,-7.30218 -3.32874,-6.81351 123.95758,-6.8073 79.92082,0.004 115.53906,0.33601 118.30195,1.10307 5.05501,1.40344 10.03483,6.38326 11.43827,11.43827 1.51502,5.45697 1.51502,99.44919 0,104.90616 -1.40344,5.05501 -6.38326,10.03483 -11.43827,11.43827 -2.76531,0.76773 -38.35673,1.09233 -118.45308,1.0803 -103.97293,-0.0156 -114.80527,-0.16762 -117.82037,-1.65341 z M 404.91667,372.4403 c 2.92758,-2.7796 1.7118,-7.23354 -3.38779,-12.41098 l -4.80446,-4.87781 1.13779,-4.51857 c 1.71387,-6.80638 1.48897,-40.14821 -0.31116,-46.12956 C 394.50888,294.39502 385.61738,289 372,289 c -13.61738,0 -22.50888,5.39502 -25.55105,15.50338 -2.04607,6.79856 -2.03138,40.17238 0.0207,47.08256 1.89522,6.38191 7.55685,12.01587 14.0337,13.96511 5.76913,1.73626 15.90405,1.87876 22.12956,0.31116 l 4.51857,-1.13779 4.67425,4.51902 c 2.57083,2.48547 5.34924,4.75744 6.17424,5.04884 1.95625,0.69097 5.13469,-0.16008 6.91667,-1.85198 z M 361.17431,350.68555 C 359.08779,348.46455 359,347.54292 359,327.85986 c 0,-20.14718 0.0411,-20.54982 2.31445,-22.68555 C 363.3165,303.29349 364.77776,303 372.14014,303 c 7.60372,0 8.74307,0.24678 10.68555,2.31445 2.08652,2.221 2.17431,3.14263 2.17431,22.82569 0,20.14718 -0.0411,20.54982 -2.31445,22.68555 C 380.6835,352.70651 379.22224,353 371.85986,353 c -7.60372,0 -8.74307,-0.24678 -10.68555,-2.31445 z m -49.58837,14.84477 c 15.55569,-4.61954 19.93535,-25.3409 7.55743,-35.75623 -1.61939,-1.36262 -8.85113,-4.84781 -16.07055,-7.74487 -7.8159,-3.13642 -13.72226,-6.11834 -14.59952,-7.3708 -2.09769,-2.99488 -1.82292,-6.65736 0.70101,-9.34397 1.94248,-2.06767 3.08183,-2.31445 10.68555,-2.31445 7.36238,0 8.82364,0.29349 10.82569,2.17431 1.27295,1.19588 2.31445,3.19158 2.31445,4.4349 0,6.3847 4.45497,10.30891 9.51793,8.38397 6.21268,-2.36205 5.27244,-14.01067 -1.74544,-21.62417 C 315.97438,291.16368 309.8752,289 300,289 c -9.36702,0 -15.75737,2.1431 -20.3185,6.81412 -6.6169,6.77633 -7.93055,15.67145 -3.59015,24.31009 2.81774,5.6081 6.6467,8.15266 20.83583,13.84657 7.8159,3.13642 13.72226,6.11834 14.59952,7.3708 2.09769,2.99488 1.82292,6.65736 -0.70101,9.34397 -1.94248,2.06767 -3.08183,2.31445 -10.68555,2.31445 -7.36238,0 -8.82364,-0.29349 -10.82569,-2.17431 C 288.0415,349.62981 287,347.63411 287,346.39079 c 0,-6.3847 -4.45497,-10.30891 -9.51793,-8.38397 -3.74101,1.42233 -4.90025,5.39167 -3.4682,11.87544 1.56053,7.06549 7.3384,13.54532 13.87216,15.55749 6.0965,1.87752 17.53542,1.92123 23.69991,0.0906 z M 467,365.70573 c 2.1015,-1.06319 2.5,-1.97268 2.5,-5.70573 0,-6.36523 -1.68689,-6.96717 -19.57569,-6.98526 -20.40546,-0.0206 -18.75324,2.76467 -19.12788,-32.24564 -0.32816,-30.66631 -0.42346,-31.10243 -6.79643,-31.10243 -6.3416,0 -6.46818,0.55775 -6.79707,29.94955 -0.34562,30.88636 0.23787,34.47889 6.61064,40.70174 2.14518,2.09471 5.8772,4.425 8.29338,5.17841 5.84958,1.82401 31.3985,1.97731 34.89305,0.20936 z"
         id="path641" />
      <path
         style="fill:#59d5fd"
         d="m 143.5,392 c -1.1,-0.47269 -5.63406,-0.89106 -10.07569,-0.92971 -7.0982,-0.0618 -8.33886,-0.35043 -10.25,-2.38474 C 121.01229,386.38418 121,386.13083 121,343.85986 v -42.51123 l 2.25,-2.08225 c 1.8019,-1.66756 4.04239,-2.19874 11.25,-2.66719 4.95,-0.32172 11.62184,-0.85679 14.82631,-1.18904 7.62615,-0.79071 11.93241,0.0952 15.64425,3.21853 L 168,301.17779 v 42.73679 42.73679 l -2.25,2.1077 c -1.2375,1.15924 -3.51679,2.58768 -5.0651,3.17432 -3.31581,1.25632 -14.31705,1.29897 -17.1849,0.0666 z m 105.95042,-1.4066 c -4.01996,-1.75098 -8.22651,-6.85788 -8.95595,-10.87284 -0.32182,-1.77131 -0.45222,-26.25045 -0.28979,-54.3981 0.2879,-49.89223 0.3471,-51.24687 2.35711,-53.93821 1.13398,-1.51837 3.30439,-3.68848 4.82313,-4.82246 2.74704,-2.05111 3.36331,-2.06315 119.00779,-2.32402 l 116.24645,-0.26224 4.37768,2.31498 c 3.02024,1.59713 5.1022,3.68506 6.71423,6.73344 l 2.33654,4.41847 -0.28381,51.52879 L 495.5,380.5 l -2.28771,3.67905 c -1.34291,2.15965 -4.05447,4.53432 -6.56572,5.75 -4.25229,2.0585 -4.96923,2.07071 -119.21229,2.03181 -93.29762,-0.0318 -115.50837,-0.2892 -117.98386,-1.36746 z m 155.6265,-17.51648 c 4.26561,-4.2656 3.72462,-7.36414 -2.41871,-13.85336 l -3.1018,-3.27644 0.31524,-23.79566 c 0.37012,-27.93909 -0.087,-30.42212 -6.84397,-37.17914 C 387.53232,289.47696 383.07798,288 372,288 c -11.07798,0 -15.53232,1.47696 -21.02768,6.97232 C 344.59864,301.34601 344,304.18174 344,328 c 0,23.81062 0.59834,26.64557 6.97569,33.05099 6.15554,6.18263 10.81561,7.40425 25.48817,6.68163 11.20655,-0.55193 11.38033,-0.52671 13.69337,1.98722 3.03432,3.29784 7.85283,6.27168 10.16969,6.27642 1.00481,0.002 3.14231,-1.31164 4.75,-2.91934 z M 362,350 c -1.86667,-1.86667 -2,-3.33333 -2,-22 0,-24.53561 -0.2678,-24 12,-24 12.2678,0 12,-0.53561 12,24 0,24.53561 0.2678,24 -12,24 -6.66667,0 -8.33333,-0.33333 -10,-2 z m -49.61602,16.77768 c 5.82101,-1.72865 12.8578,-8.99792 14.5456,-15.02615 2.34248,-8.36653 -0.75653,-18.22954 -7.29475,-23.21649 -1.86099,-1.41945 -8.91324,-4.81692 -15.67165,-7.54993 C 290.51298,315.54603 288,313.87102 288,310.34501 288,305.68463 291.18606,304 300,304 c 9.17581,0 12,1.66555 12,7.07692 0,3.66025 4.7184,8.92308 8,8.92308 3.35168,0 8,-5.26251 8,-9.05706 0,-5.99904 -2.32397,-11.32226 -6.97232,-15.97062 C 315.53232,289.47696 311.07798,288 300,288 c -11.06976,0 -15.52864,1.47754 -21.05099,6.97569 -7.62291,7.58951 -8.86566,17.37075 -3.39349,26.70896 3.30027,5.63189 6.36703,7.62261 20.62505,13.38837 C 309.48747,340.45415 312,342.13484 312,345.65499 312,350.31537 308.81394,352 300,352 c -9.17581,0 -12,-1.66555 -12,-7.07692 C 288,341.58917 283.37986,336 280.62398,336 275.82585,336 272,340.29479 272,345.68103 c 0,8.11676 7.50807,18.63078 15,21.00543 4.80724,1.52371 20.37191,1.57964 25.38398,0.0912 z m 156.69294,-1.70076 C 470.68462,363.46923 472,361.18462 472,360 c 0,-1.18462 -1.31538,-3.46923 -2.92308,-5.07692 L 466.15385,352 h -15.07693 c -13.74359,0 -15.25379,-0.17687 -17.07692,-2 -1.90152,-1.90152 -2,-3.33333 -2,-29.07692 v -27.07693 l -2.92308,-2.92307 C 427.46923,289.31538 425.4654,288 424.62398,288 c -2.8388,0 -6.39644,2.20518 -7.51371,4.65732 -1.60079,3.51336 -1.50555,54.27959 0.11205,59.72666 1.50253,5.05956 8.92446,12.7642 13.77768,14.30248 1.925,0.61015 10.62212,1.1553 19.32692,1.21145 L 466.15385,368 Z M 125.57059,279.47688 C 105.57416,277.71128 92.632775,274.50748 79.410792,268.04946 50.090818,253.72867 28.773235,227.84258 20.246461,196.20581 17.86926,187.38572 17.63054,184.81176 17.63054,168 c 0,-16.81176 0.23872,-19.38572 2.615921,-28.20581 C 28.769746,108.17036 50.092243,82.270639 79.381468,67.964868 95.977716,59.858743 105.11651,58.003351 134,56.876009 c 27.0274,-1.054897 36.91034,-0.625897 50.80523,2.205362 26.92199,5.485694 50.76723,21.61103 67.56103,45.688119 l 5.07047,7.2695 14.81453,-14.769497 C 281.13308,88.414662 287.26725,81.498838 287.56887,80 c 1.89629,-9.423157 3.62461,-12.988621 8.35984,-17.245996 10.19169,-9.163208 23.17785,-8.959074 32.84233,0.516261 4.03232,3.953401 5.95258,8.151501 7.65238,16.729735 0.56492,2.850926 37.34425,40 39.60188,40 C 377.53261,120 444,54.141334 444,52.647826 c 0,-0.490708 -3.6,-4.580435 -8,-9.088282 -7.00833,-7.180106 -8,-8.643471 -8,-11.805234 0,-2.727314 0.65773,-4.126519 2.69193,-5.726625 2.61231,-2.054842 3.48279,-2.108752 29.42894,-1.82258 37.6337,0.41508 35.87525,-1.393976 35.87758,36.910036 0.001,24.401205 -0.0967,25.740011 -2.07103,28.25 C 492.37236,91.342082 490.95364,92 488.24569,92 c -3.16176,0 -4.62513,-0.991671 -11.80523,-8 -4.50785,-4.4 -8.59758,-8 -9.08829,-8 -0.4907,0 -15.84569,14.978057 -34.12218,33.28457 C 408.46413,134.09111 400,143.16757 400,144.91855 c 0,8.26969 -7.6535,18.75318 -15.68989,21.49145 -9.21509,3.1399 -16.97303,1.49676 -24.3814,-5.164 -4.73531,-4.25745 -6.50077,-7.90288 -8.35213,-17.246 -0.55884,-2.82028 -37.332,-40 -39.56259,-40 -0.75145,0 -10.47603,8.8875 -21.61018,19.75 l -20.24392,19.75 0.43712,4 c 0.24041,2.2 0.71373,8.95 1.05181,15 3.21371,57.5088 -38.89209,108.47304 -96.20445,116.44445 -12.99071,1.80685 -33.01882,2.02066 -49.87378,0.53243 z M 147.5,243.46019 c 21.49061,-5.71798 40.80329,-21.71722 50.44391,-41.78932 5.95549,-12.39955 7.44788,-19.14646 7.44788,-33.67087 0,-14.52441 -1.49239,-21.27132 -7.44788,-33.67087 C 188.2197,114.08299 169.1442,98.371725 147,92.369922 138.01021,89.933395 117.93794,89.941613 109,92.385481 92.75418,96.827515 77.600699,106.70149 67.203189,119.62018 61.065022,127.24672 55.099004,139.07585 52.385481,149 c -2.443868,8.93794 -2.452086,29.01021 -0.01556,38 8.063549,29.7512 32.800753,52.55667 62.867629,57.95828 7.13797,1.28236 24.91474,0.4569 32.26245,-1.49809 z"
         id="path639" />
      <path
         style="fill:#5da8d3"
         d="m 144.03518,391.06574 c -1.42102,-2.6552 -1.42102,-91.47628 0,-94.13148 0.85791,-1.60302 2.13115,-1.93426 7.4349,-1.93426 7.1585,0 10.9569,1.12807 14.27992,4.24093 l 2.25,2.1077 V 344 386.65137 l -2.25,2.1077 C 162.42698,391.87193 158.62858,393 151.47008,393 c -5.30375,0 -6.57699,-0.33124 -7.4349,-1.93426 z m 105.41524,-0.47234 c -4.01996,-1.75098 -8.22651,-6.85788 -8.95595,-10.87284 -0.32182,-1.77131 -0.45222,-26.25045 -0.28979,-54.3981 0.2879,-49.89223 0.3471,-51.24687 2.35711,-53.93821 1.13398,-1.51837 3.30439,-3.68848 4.82313,-4.82246 2.74704,-2.05111 3.36331,-2.06315 119.00779,-2.32402 l 116.24645,-0.26224 4.37768,2.31498 c 3.02024,1.59713 5.1022,3.68506 6.71423,6.73344 l 2.33654,4.41847 -0.28381,51.52879 L 495.5,380.5 l -2.28771,3.67905 c -1.34291,2.15965 -4.05447,4.53432 -6.56572,5.75 -4.25229,2.0585 -4.96923,2.07071 -119.21229,2.03181 -93.29762,-0.0318 -115.50837,-0.2892 -117.98386,-1.36746 z m 155.6265,-17.51648 c 4.26561,-4.2656 3.72462,-7.36414 -2.41871,-13.85336 l -3.1018,-3.27644 0.31524,-23.79566 c 0.37012,-27.93909 -0.087,-30.42212 -6.84397,-37.17914 C 387.53232,289.47696 383.07798,288 372,288 c -11.07798,0 -15.53232,1.47696 -21.02768,6.97232 C 344.59864,301.34601 344,304.18174 344,328 c 0,23.81062 0.59834,26.64557 6.97569,33.05099 6.15554,6.18263 10.81561,7.40425 25.48817,6.68163 11.20655,-0.55193 11.38033,-0.52671 13.69337,1.98722 3.03432,3.29784 7.85283,6.27168 10.16969,6.27642 1.00481,0.002 3.14231,-1.31164 4.75,-2.91934 z M 362,350 c -1.86667,-1.86667 -2,-3.33333 -2,-22 0,-24.53561 -0.2678,-24 12,-24 12.2678,0 12,-0.53561 12,24 0,24.53561 0.2678,24 -12,24 -6.66667,0 -8.33333,-0.33333 -10,-2 z m -49.61602,16.77768 c 5.82101,-1.72865 12.8578,-8.99792 14.5456,-15.02615 2.34248,-8.36653 -0.75653,-18.22954 -7.29475,-23.21649 -1.86099,-1.41945 -8.91324,-4.81692 -15.67165,-7.54993 C 290.51298,315.54603 288,313.87102 288,310.34501 288,305.68463 291.18606,304 300,304 c 9.17581,0 12,1.66555 12,7.07692 0,3.66025 4.7184,8.92308 8,8.92308 3.35168,0 8,-5.26251 8,-9.05706 0,-5.99904 -2.32397,-11.32226 -6.97232,-15.97062 C 315.53232,289.47696 311.07798,288 300,288 c -11.06976,0 -15.52864,1.47754 -21.05099,6.97569 -7.62291,7.58951 -8.86566,17.37075 -3.39349,26.70896 3.30027,5.63189 6.36703,7.62261 20.62505,13.38837 C 309.48747,340.45415 312,342.13484 312,345.65499 312,350.31537 308.81394,352 300,352 c -9.17581,0 -12,-1.66555 -12,-7.07692 C 288,341.58917 283.37986,336 280.62398,336 275.82585,336 272,340.29479 272,345.68103 c 0,8.11676 7.50807,18.63078 15,21.00543 4.80724,1.52371 20.37191,1.57964 25.38398,0.0912 z m 156.69294,-1.70076 C 470.68462,363.46923 472,361.18462 472,360 c 0,-1.18462 -1.31538,-3.46923 -2.92308,-5.07692 L 466.15385,352 h -15.07693 c -13.74359,0 -15.25379,-0.17687 -17.07692,-2 -1.90152,-1.90152 -2,-3.33333 -2,-29.07692 v -27.07693 l -2.92308,-2.92307 C 427.46923,289.31538 425.4654,288 424.62398,288 c -2.8388,0 -6.39644,2.20518 -7.51371,4.65732 -1.60079,3.51336 -1.50555,54.27959 0.11205,59.72666 1.50253,5.05956 8.92446,12.7642 13.77768,14.30248 1.925,0.61015 10.62212,1.1553 19.32692,1.21145 L 466.15385,368 Z M 140,280.08289 c -1.24905,-0.87622 -1.14142,-1.05483 0.64332,-1.06758 4.95486,-0.0354 25.80878,-6.13096 33.82217,-9.88617 30.28993,-14.19434 52.29248,-40.28604 61.24653,-72.62914 2.56449,-9.26323 2.76846,-11.36303 2.76846,-28.5 0,-17.13697 -0.20397,-19.23677 -2.76846,-28.5 -10.90521,-39.39094 -40.84652,-68.954797 -80.42682,-79.412943 -9.37714,-2.477685 -10.4063,-2.949641 -7.883,-3.615003 4.536,-1.196081 26.07288,0.254469 36.90303,2.485489 27.53213,5.671643 51.15272,21.570687 68.06103,45.811947 l 5.07047,7.2695 14.81453,-14.769497 C 281.13308,88.414662 287.26725,81.498838 287.56887,80 c 1.89629,-9.423157 3.62461,-12.988621 8.35984,-17.245996 10.19169,-9.163208 23.17785,-8.959074 32.84233,0.516261 4.03232,3.953401 5.95258,8.151501 7.65238,16.729735 0.56492,2.850926 37.34425,40 39.60188,40 C 377.53261,120 444,54.141334 444,52.647826 c 0,-0.490708 -3.6,-4.580435 -8,-9.088282 -7.00833,-7.180106 -8,-8.643471 -8,-11.805234 0,-2.727314 0.65773,-4.126519 2.69193,-5.726625 2.61231,-2.054842 3.48279,-2.108752 29.42894,-1.82258 37.6337,0.41508 35.87525,-1.393976 35.87758,36.910036 0.001,24.401205 -0.0967,25.740011 -2.07103,28.25 C 492.37236,91.342082 490.95364,92 488.24569,92 c -3.16176,0 -4.62513,-0.991671 -11.80523,-8 -4.50785,-4.4 -8.59758,-8 -9.08829,-8 -0.4907,0 -15.84569,14.978057 -34.12218,33.28457 C 408.46413,134.09111 400,143.16757 400,144.91855 c 0,8.26969 -7.6535,18.75318 -15.68989,21.49145 -9.21509,3.1399 -16.97303,1.49676 -24.3814,-5.164 -4.73531,-4.25745 -6.50077,-7.90288 -8.35213,-17.246 -0.55884,-2.82028 -37.332,-40 -39.56259,-40 -0.75145,0 -10.47603,8.8875 -21.61018,19.75 l -20.24392,19.75 0.43712,4 c 0.24041,2.2 0.71373,8.95 1.05181,15 3.21371,57.5088 -38.89209,108.47304 -96.20445,116.44445 -12.03616,1.67408 -33.68941,2.36956 -35.44437,1.13844 z"
         id="path637" />
      <path
         style="fill:#fdcb06"
         d="M 144.49602,389.84925 C 144.21145,389.10716 144.09594,368.025 144.23932,343 L 144.5,297.5 h 9.34027 C 168.09873,297.5 167,293.61763 167,344 c 0,50.17299 1.06345,46.31214 -12.90431,46.84925 -6.9485,0.26719 -9.20384,0.0323 -9.59967,-1 z m 105.9544,-0.24706 c -4.02436,-1.76449 -8.22722,-6.87089 -8.9562,-10.88163 -0.32195,-1.77131 -0.45236,-25.80047 -0.28979,-53.39813 0.28794,-48.8818 0.34881,-50.24885 2.35736,-52.93821 1.13398,-1.51835 3.30451,-3.68845 4.8234,-4.82243 2.75234,-2.05487 3.15392,-2.06179 119.61495,-2.06179 116.46106,0 116.8626,0.007 119.61481,2.06179 1.51881,1.13398 3.68928,3.30448 4.82326,4.82333 2.02155,2.70764 2.06179,3.79316 2.06179,55.61488 0,51.82172 -0.0402,52.90724 -2.06179,55.61488 -1.13398,1.51885 -3.30436,3.68935 -4.82307,4.82333 -2.74757,2.05155 -3.33577,2.06288 -118.43821,2.28143 -94.74014,0.17989 -116.22888,-0.0224 -118.72651,-1.11745 z m 155.6265,-15.52527 c 4.29266,-4.29265 3.94912,-8.00848 -1.2632,-13.66318 l -4.18628,-4.54158 0.26835,-24.85634 c 0.25382,-23.51059 0.15297,-25.11715 -1.86257,-29.67362 -2.80319,-6.33708 -5.47322,-9.10702 -11.53322,-11.96478 -4.26987,-2.01357 -6.53328,-2.3561 -15.5,-2.34569 -15.27431,0.0177 -21.84786,3.34327 -26.62258,13.46827 -2.25917,4.79067 -2.35788,5.94199 -2.35788,27.5 0,21.51144 0.10313,22.72147 2.34733,27.54087 2.74089,5.88601 6.76901,9.5818 13.06345,11.98567 3.6808,1.40571 6.7656,1.63595 16.78949,1.25313 l 12.28019,-0.46899 4.70716,4.34466 c 5.83305,5.38384 9.52872,5.76263 13.86976,1.42158 z M 363,349 c -1.85965,-1.85965 -2,-3.33333 -2,-21 0,-23.10501 -0.0502,-23 11,-23 11.05022,0 11,-0.10501 11,23 0,23.10501 0.0502,23 -11,23 -5.66667,0 -7.38095,-0.38095 -9,-2 z m -48,17.91597 c 6.04775,-2.74179 8.81278,-5.45766 11.62258,-11.41597 2.88395,-6.11555 3.06687,-13.38526 0.4801,-19.08082 -3.27678,-7.21479 -7.94145,-10.66767 -21.64269,-16.02028 C 289.03161,313.98088 286.42991,311.57009 291,307 c 1.61905,-1.61905 3.33333,-2 9,-2 8.10135,0 11,1.86487 11,7.07692 0,4.22311 4.74049,8.92308 9,8.92308 2.1525,0 4.08193,-0.92808 6.07692,-2.92308 3.78972,-3.78971 3.99092,-10.27108 0.54566,-17.57692 C 321.84429,290.36743 315.2688,287.04392 300,287.04392 c -15.2688,0 -21.84429,3.32351 -26.62258,13.45608 -4.22396,8.95711 -2.52873,19.20346 4.3053,26.02219 3.66319,3.65499 5.05612,4.38885 18.62546,9.81275 C 311.15541,342.26962 313.4453,344.5547 309,349 c -1.61905,1.61905 -3.33333,2 -9,2 -8.10135,0 -11,-1.86487 -11,-7.07692 C 289,339.69997 284.25951,335 280,335 c -2.1525,0 -4.08193,0.92808 -6.07692,2.92308 -2.43303,2.43303 -2.9194,3.7323 -2.90112,7.75 0.0239,5.24429 2.80725,12.41693 6.29011,16.20927 1.20336,1.31028 4.43793,3.44339 7.18793,4.74023 6.89598,3.25198 23.61919,3.41285 30.5,0.29339 z m 155.07692,-0.83905 C 472.07192,364.08193 473,362.1525 473,360 c 0,-2.1525 -0.92808,-4.08193 -2.92308,-6.07692 L 467.15385,351 h -15.07693 c -13.74359,0 -15.25379,-0.17687 -17.07692,-2 -1.90152,-1.90152 -2,-3.33333 -2,-29.07692 v -27.07693 l -2.92308,-2.92307 C 428.08193,287.92808 426.1525,287 424,287 c -2.1525,0 -4.08193,0.92808 -6.07692,2.92308 L 415,292.84615 l 0.022,28.82693 c 0.0205,26.852 0.16173,29.13521 2.06207,33.32692 2.74179,6.04775 5.45766,8.81278 11.41597,11.62258 4.63148,2.1841 6.24021,2.3586 21.82692,2.36765 l 16.82693,0.01 2.92307,-2.92308 z M 152,278.75379 c 0,-0.28494 3.92741,-1.74258 8.72757,-3.23919 17.48339,-5.45104 31.91074,-14.12381 45.52306,-27.36543 C 228.75045,226.26206 240,199.54624 240,168 240,136.45376 228.75045,109.73794 206.25063,87.850835 192.87402,74.838497 179.16666,66.482533 162.14167,60.962148 c -4.75545,-1.541961 -7.85144,-3.023487 -7.18238,-3.436986 1.72472,-1.06594 18.16457,0.357244 28.54092,2.470765 21.9591,4.472766 40.53198,14.885111 56.61826,31.741374 25.88348,27.122409 35.95305,63.290009 27.91456,100.262699 -4.4954,20.6764 -13.29375,36.99133 -28.49438,52.83761 -15.50522,16.16381 -33.92742,26.50877 -55.53865,31.18765 -8.162,1.76709 -32,3.79968 -32,2.72853 z M 368.17255,166.73104 c -1.8301,-0.58563 -5.52885,-3.04403 -8.21945,-5.46312 -4.76154,-4.28103 -6.52243,-7.91106 -8.37652,-17.26792 -0.56145,-2.83345 -37.33726,-40 -39.57946,-40 -0.76072,0 -10.19815,8.775 -20.97206,19.5 -10.77391,10.725 -20.06328,19.5 -20.64304,19.5 -0.57977,0 -1.83146,-2.8125 -2.78154,-6.25 -0.95008,-3.4375 -3.56153,-10.44369 -5.80323,-15.56932 l -4.07581,-9.31932 15.13928,-15.253412 C 284.27222,85.110423 288,80.739168 288,78.855406 c 0,-5.446166 3.13964,-11.795616 7.98816,-16.154854 10.13091,-9.108555 23.14204,-8.882443 32.78288,0.569713 4.03232,3.953401 5.95258,8.151501 7.65238,16.729735 0.56492,2.850926 37.34425,40 39.60188,40 C 377.53261,120 444,54.141334 444,52.647826 c 0,-0.490708 -3.6,-4.580435 -8,-9.088282 -7.00833,-7.180106 -8,-8.643471 -8,-11.805234 0,-2.707953 0.65792,-4.126668 2.63486,-5.68173 2.50999,-1.974358 3.84879,-2.072506 28.25,-2.071026 28.1711,0.0017 30.17497,0.368297 34.54406,6.319508 1.9533,2.660631 2.08785,4.341576 2.36597,29.558067 0.28618,25.946154 0.23227,26.816629 -1.82258,29.428938 C 492.37221,91.342271 490.973,92 488.24569,92 c -3.16176,0 -4.62513,-0.991671 -11.80523,-8 -4.50785,-4.4 -8.59758,-8 -9.08829,-8 -0.4907,0 -15.84569,14.978057 -34.12218,33.28457 C 408.46413,134.09111 400,143.16757 400,144.91855 c 0,8.26969 -7.6535,18.75318 -15.68989,21.49145 -5.24428,1.78691 -11.18726,1.90514 -16.13756,0.32104 z"
         id="path635" />
      <path
         style="fill:#f8a019"
         d="M 144.49602,389.84925 C 144.21145,389.10716 144.09594,368.025 144.23932,343 L 144.5,297.5 h 9.34027 C 168.09873,297.5 167,293.61763 167,344 c 0,50.17299 1.06345,46.31214 -12.90431,46.84925 -6.9485,0.26719 -9.20384,0.0323 -9.59967,-1 z m 105.9544,-0.24706 c -4.02436,-1.76449 -8.22722,-6.87089 -8.9562,-10.88163 -0.32195,-1.77131 -0.45236,-25.80047 -0.28979,-53.39813 0.28794,-48.8818 0.34881,-50.24885 2.35736,-52.93821 1.13398,-1.51835 3.30451,-3.68845 4.8234,-4.82243 2.75234,-2.05487 3.15392,-2.06179 119.61495,-2.06179 116.46106,0 116.8626,0.007 119.61481,2.06179 1.51881,1.13398 3.68928,3.30448 4.82326,4.82333 2.02155,2.70764 2.06179,3.79316 2.06179,55.61488 0,51.82172 -0.0402,52.90724 -2.06179,55.61488 -1.13398,1.51885 -3.30436,3.68935 -4.82307,4.82333 -2.74757,2.05155 -3.33577,2.06288 -118.43821,2.28143 -94.74014,0.17989 -116.22888,-0.0224 -118.72651,-1.11745 z m 155.6265,-15.52527 c 4.29266,-4.29265 3.94912,-8.00848 -1.2632,-13.66318 l -4.18628,-4.54158 0.26835,-24.85634 c 0.25382,-23.51059 0.15297,-25.11715 -1.86257,-29.67362 -2.80319,-6.33708 -5.47322,-9.10702 -11.53322,-11.96478 -4.26987,-2.01357 -6.53328,-2.3561 -15.5,-2.34569 -15.27431,0.0177 -21.84786,3.34327 -26.62258,13.46827 -2.25917,4.79067 -2.35788,5.94199 -2.35788,27.5 0,21.51144 0.10313,22.72147 2.34733,27.54087 2.74089,5.88601 6.76901,9.5818 13.06345,11.98567 3.6808,1.40571 6.7656,1.63595 16.78949,1.25313 l 12.28019,-0.46899 4.70716,4.34466 c 5.83305,5.38384 9.52872,5.76263 13.86976,1.42158 z M 363,349 c -1.85965,-1.85965 -2,-3.33333 -2,-21 0,-23.10501 -0.0502,-23 11,-23 11.05022,0 11,-0.10501 11,23 0,23.10501 0.0502,23 -11,23 -5.66667,0 -7.38095,-0.38095 -9,-2 z m -48,17.91597 c 6.04775,-2.74179 8.81278,-5.45766 11.62258,-11.41597 2.88395,-6.11555 3.06687,-13.38526 0.4801,-19.08082 -3.27678,-7.21479 -7.94145,-10.66767 -21.64269,-16.02028 C 289.03161,313.98088 286.42991,311.57009 291,307 c 1.61905,-1.61905 3.33333,-2 9,-2 8.10135,0 11,1.86487 11,7.07692 0,4.22311 4.74049,8.92308 9,8.92308 2.1525,0 4.08193,-0.92808 6.07692,-2.92308 3.78972,-3.78971 3.99092,-10.27108 0.54566,-17.57692 C 321.84429,290.36743 315.2688,287.04392 300,287.04392 c -15.2688,0 -21.84429,3.32351 -26.62258,13.45608 -4.22396,8.95711 -2.52873,19.20346 4.3053,26.02219 3.66319,3.65499 5.05612,4.38885 18.62546,9.81275 C 311.15541,342.26962 313.4453,344.5547 309,349 c -1.61905,1.61905 -3.33333,2 -9,2 -8.10135,0 -11,-1.86487 -11,-7.07692 C 289,339.69997 284.25951,335 280,335 c -2.1525,0 -4.08193,0.92808 -6.07692,2.92308 -2.43303,2.43303 -2.9194,3.7323 -2.90112,7.75 0.0239,5.24429 2.80725,12.41693 6.29011,16.20927 1.20336,1.31028 4.43793,3.44339 7.18793,4.74023 6.89598,3.25198 23.61919,3.41285 30.5,0.29339 z m 155.07692,-0.83905 C 472.07192,364.08193 473,362.1525 473,360 c 0,-2.1525 -0.92808,-4.08193 -2.92308,-6.07692 L 467.15385,351 h -15.07693 c -13.74359,0 -15.25379,-0.17687 -17.07692,-2 -1.90152,-1.90152 -2,-3.33333 -2,-29.07692 v -27.07693 l -2.92308,-2.92307 C 428.08193,287.92808 426.1525,287 424,287 c -2.1525,0 -4.08193,0.92808 -6.07692,2.92308 L 415,292.84615 l 0.022,28.82693 c 0.0205,26.852 0.16173,29.13521 2.06207,33.32692 2.74179,6.04775 5.45766,8.81278 11.41597,11.62258 4.63148,2.1841 6.24021,2.3586 21.82692,2.36765 l 16.82693,0.01 2.92307,-2.92308 z M 152,278.75379 c 0,-0.28494 3.92741,-1.74258 8.72757,-3.23919 17.48339,-5.45104 31.91074,-14.12381 45.52306,-27.36543 C 228.75045,226.26206 240,199.54624 240,168 240,136.45376 228.75045,109.73794 206.25063,87.850835 192.87402,74.838497 179.16666,66.482533 162.14167,60.962148 c -4.75545,-1.541961 -7.85144,-3.023487 -7.18238,-3.436986 1.72472,-1.06594 18.16457,0.357244 28.54092,2.470765 21.9591,4.472766 40.53198,14.885111 56.61826,31.741374 25.88348,27.122409 35.95305,63.290009 27.91456,100.262699 -4.4954,20.6764 -13.29375,36.99133 -28.49438,52.83761 -15.50522,16.16381 -33.92742,26.50877 -55.53865,31.18765 -8.162,1.76709 -32,3.79968 -32,2.72853 z M 373.25,167.28375 c 1.5125,-0.22913 3.9875,-0.22913 5.5,0 1.5125,0.22912 0.275,0.41659 -2.75,0.41659 -3.025,0 -4.2625,-0.18747 -2.75,-0.41659 z m -8.74292,-2.2723 c -0.35034,-0.56686 0.0511,-0.7345 0.94098,-0.39301 1.73242,0.66479 2.04939,1.38156 0.61096,1.38156 -0.51754,0 -1.21592,-0.44485 -1.55194,-0.98855 z m 20.57625,0.68589 c 0.22917,-0.16646 1.76667,-1.09317 3.41667,-2.05935 l 3,-1.75669 -2.36078,2.05935 C 387.84078,165.07329 386.30328,166 385.72255,166 c -0.58074,0 -0.86838,-0.1362 -0.63922,-0.30266 z m -29.69574,-9.22855 c -0.91218,-1.39216 -1.4766,-2.71311 -1.25427,-2.93544 0.22233,-0.22233 1.16235,0.91671 2.08895,2.53121 2.06367,3.59573 1.45092,3.89249 -0.83468,0.40423 z m 41.1767,-1.76192 c 0.37553,-0.98622 0.93469,-1.54122 1.24258,-1.23333 0.30789,0.30789 6.4e-4,1.11479 -0.68278,1.79313 -0.98762,0.98026 -1.10248,0.8654 -0.5598,-0.5598 z M 352,145.77848 c 0,-2.85062 -2.21955,-5.44107 -19.27848,-22.5 C 322.11835,112.67532 312.8065,104 312.02851,104 c -0.77799,0 -10.22954,8.775 -21.00345,19.5 -10.77391,10.725 -20.06328,19.5 -20.64304,19.5 -0.57977,0 -1.83146,-2.8125 -2.78154,-6.25 -0.95008,-3.4375 -3.56552,-10.45278 -5.81208,-15.58951 l -4.08467,-9.33951 14.78998,-14.814681 c 12.15206,-12.172356 14.93714,-15.500608 15.61504,-18.660487 0.82274,-3.835 0.82388,-3.833161 0.4068,0.654188 -0.64798,6.971666 1.2984,11.88172 6.95057,17.533884 5.67031,5.670316 10.28707,7.463786 18.08953,7.027256 6.67332,-0.37336 11.65645,-2.85914 16.29462,-8.128381 C 334.30702,90.369633 336.06471,85.243092 335.48445,79 l -0.41826,-4.5 0.83149,3.885329 c 0.70153,3.27813 3.79114,6.833493 19.76973,22.750001 C 366.08345,111.5109 375.24133,120 376.01826,120 377.53024,120 444,54.145805 444,52.647826 c 0,-0.490708 -3.6,-4.580435 -8,-9.088282 -7.00833,-7.180106 -8,-8.643471 -8,-11.805234 0,-2.727314 0.65773,-4.126519 2.69193,-5.726625 2.61231,-2.054842 3.48279,-2.108752 29.42894,-1.82258 37.6337,0.41508 35.87525,-1.393976 35.87758,36.910036 0.001,24.401205 -0.0967,25.740011 -2.07103,28.25 C 492.37236,91.342082 490.95364,92 488.24569,92 c -3.16176,0 -4.62513,-0.991671 -11.80523,-8 -4.50785,-4.4 -8.59113,-8 -9.07396,-8 -0.48282,0 -15.67605,14.803286 -33.76273,32.89619 -28.32894,28.33871 -32.99934,33.4301 -33.71122,36.75 -0.82612,3.85268 -0.82623,3.85249 -0.4081,-0.64619 0.58026,-6.24309 -1.17743,-11.36963 -5.63418,-16.43276 -4.63817,-5.26924 -9.6213,-7.75502 -16.29462,-8.12838 -7.80246,-0.43653 -12.41922,1.35694 -18.08953,7.02726 -5.68896,5.68895 -7.68053,10.76162 -6.7858,17.28388 0.32066,2.3375 0.29877,4.25 -0.0487,4.25 C 352.28425,149 352,147.55032 352,145.77848 Z M 290,70.277451 c 0,-0.580736 0.92671,-2.118236 2.05935,-3.416667 L 294.1187,64.5 l -1.75669,3 C 290.04995,71.44843 290,71.50717 290,70.277451 Z M 331.73556,67.743677 329.97112,64.5 l 2.01444,2.360784 c 1.71413,2.008846 2.63029,4.154791 1.76444,4.132893 -0.1375,-0.0035 -1.044,-1.465977 -2.01444,-3.25 z M 323.5,59.932166 c -1.65,-1.0569 -2.48735,-1.924006 -1.86078,-1.926901 0.62656,-0.0029 2.20156,0.879764 3.5,1.961466 2.97306,2.476813 2.25793,2.461734 -1.63922,-0.03457 z m -22.76667,-1.056254 c 0.67834,-0.683418 1.48524,-0.990671 1.79313,-0.682784 0.30789,0.307887 -0.24711,0.867048 -1.23333,1.242579 -1.4252,0.542685 -1.54006,0.427821 -0.5598,-0.559795 z"
         id="path633" />
      <path
         style="fill:#2386c2"
         d="M 144.49602,389.84925 C 144.21145,389.10716 144.09594,368.025 144.23932,343 L 144.5,297.5 h 9.34027 C 168.09873,297.5 167,293.61763 167,344 c 0,50.17299 1.06345,46.31214 -12.90431,46.84925 -6.9485,0.26719 -9.20384,0.0323 -9.59967,-1 z m 105.9544,-0.24706 c -4.02436,-1.76449 -8.22722,-6.87089 -8.9562,-10.88163 -0.32195,-1.77131 -0.45236,-25.80047 -0.28979,-53.39813 0.28794,-48.8818 0.34881,-50.24885 2.35736,-52.93821 1.13398,-1.51835 3.30451,-3.68845 4.8234,-4.82243 2.75234,-2.05487 3.15392,-2.06179 119.61495,-2.06179 116.46106,0 116.8626,0.007 119.61481,2.06179 1.51881,1.13398 3.68928,3.30448 4.82326,4.82333 2.02155,2.70764 2.06179,3.79316 2.06179,55.61488 0,51.82172 -0.0402,52.90724 -2.06179,55.61488 -1.13398,1.51885 -3.30436,3.68935 -4.82307,4.82333 -2.74757,2.05155 -3.33577,2.06288 -118.43821,2.28143 -94.74014,0.17989 -116.22888,-0.0224 -118.72651,-1.11745 z m 155.6265,-15.52527 c 4.29266,-4.29265 3.94912,-8.00848 -1.2632,-13.66318 l -4.18628,-4.54158 0.26835,-24.85634 c 0.25382,-23.51059 0.15297,-25.11715 -1.86257,-29.67362 -2.80319,-6.33708 -5.47322,-9.10702 -11.53322,-11.96478 -4.26987,-2.01357 -6.53328,-2.3561 -15.5,-2.34569 -15.27431,0.0177 -21.84786,3.34327 -26.62258,13.46827 -2.25917,4.79067 -2.35788,5.94199 -2.35788,27.5 0,21.51144 0.10313,22.72147 2.34733,27.54087 2.74089,5.88601 6.76901,9.5818 13.06345,11.98567 3.6808,1.40571 6.7656,1.63595 16.78949,1.25313 l 12.28019,-0.46899 4.70716,4.34466 c 5.83305,5.38384 9.52872,5.76263 13.86976,1.42158 z M 363,349 c -1.85965,-1.85965 -2,-3.33333 -2,-21 0,-23.10501 -0.0502,-23 11,-23 11.05022,0 11,-0.10501 11,23 0,23.10501 0.0502,23 -11,23 -5.66667,0 -7.38095,-0.38095 -9,-2 z m -48,17.91597 c 6.04775,-2.74179 8.81278,-5.45766 11.62258,-11.41597 2.88395,-6.11555 3.06687,-13.38526 0.4801,-19.08082 -3.27678,-7.21479 -7.94145,-10.66767 -21.64269,-16.02028 C 289.03161,313.98088 286.42991,311.57009 291,307 c 1.61905,-1.61905 3.33333,-2 9,-2 8.10135,0 11,1.86487 11,7.07692 0,4.22311 4.74049,8.92308 9,8.92308 2.1525,0 4.08193,-0.92808 6.07692,-2.92308 3.78972,-3.78971 3.99092,-10.27108 0.54566,-17.57692 C 321.84429,290.36743 315.2688,287.04392 300,287.04392 c -15.2688,0 -21.84429,3.32351 -26.62258,13.45608 -4.22396,8.95711 -2.52873,19.20346 4.3053,26.02219 3.66319,3.65499 5.05612,4.38885 18.62546,9.81275 C 311.15541,342.26962 313.4453,344.5547 309,349 c -1.61905,1.61905 -3.33333,2 -9,2 -8.10135,0 -11,-1.86487 -11,-7.07692 C 289,339.69997 284.25951,335 280,335 c -2.1525,0 -4.08193,0.92808 -6.07692,2.92308 -2.43303,2.43303 -2.9194,3.7323 -2.90112,7.75 0.0239,5.24429 2.80725,12.41693 6.29011,16.20927 1.20336,1.31028 4.43793,3.44339 7.18793,4.74023 6.89598,3.25198 23.61919,3.41285 30.5,0.29339 z m 155.07692,-0.83905 C 472.07192,364.08193 473,362.1525 473,360 c 0,-2.1525 -0.92808,-4.08193 -2.92308,-6.07692 L 467.15385,351 h -15.07693 c -13.74359,0 -15.25379,-0.17687 -17.07692,-2 -1.90152,-1.90152 -2,-3.33333 -2,-29.07692 v -27.07693 l -2.92308,-2.92307 C 428.08193,287.92808 426.1525,287 424,287 c -2.1525,0 -4.08193,0.92808 -6.07692,2.92308 L 415,292.84615 l 0.022,28.82693 c 0.0205,26.852 0.16173,29.13521 2.06207,33.32692 2.74179,6.04775 5.45766,8.81278 11.41597,11.62258 4.63148,2.1841 6.24021,2.3586 21.82692,2.36765 l 16.82693,0.01 2.92307,-2.92308 z M 152,278.75379 c 0,-0.28494 3.92741,-1.74258 8.72757,-3.23919 17.48339,-5.45104 31.91074,-14.12381 45.52306,-27.36543 C 228.75045,226.26206 240,199.54624 240,168 240,136.45376 228.75045,109.73794 206.25063,87.850835 192.87402,74.838497 179.16666,66.482533 162.14167,60.962148 c -4.75545,-1.541961 -7.85144,-3.023487 -7.18238,-3.436986 1.72472,-1.06594 18.16457,0.357244 28.54092,2.470765 21.9591,4.472766 40.53198,14.885111 56.61826,31.741374 25.88348,27.122409 35.95305,63.290009 27.91456,100.262699 -4.4954,20.6764 -13.29375,36.99133 -28.49438,52.83761 -15.50522,16.16381 -33.92742,26.50877 -55.53865,31.18765 -8.162,1.76709 -32,3.79968 -32,2.72853 z"
         id="path631" />
    </g>
  </g>
</svg>
