<?xml version="1.0" encoding="UTF-8" standalone="no"?>
<!-- Created with Inkscape (http://www.inkscape.org/) -->

<svg
   version="1.1"
   id="svg3585"
   width="512"
   height="512"
   viewBox="0 0 512 512"
   xmlns="http://www.w3.org/2000/svg"
   xmlns:svg="http://www.w3.org/2000/svg">
  <defs
     id="defs3589" />
  <g
     id="g3591">
    <g
       id="g3595">
      <path
         style="fill:#c2e5e3"
         d="m 136.89124,510.64515 c -1.98481,-0.62983 -4.41863,-1.82015 -5.40847,-2.64515 -3.13999,-2.61706 -5.43753,-9.13919 -5.46081,-15.50186 -0.0219,-5.98012 -0.039,-6.01453 -4.72352,-9.5 -2.85871,-2.12699 -5.70045,-5.44575 -7.25,-8.46698 -2.49271,-4.86018 -2.5553,-5.49818 -2.86221,-29.17634 -0.34813,-26.85838 0.0392,-28.9629 5.76661,-31.33529 C 119.97871,412.76618 120,412.70316 120,405 c 0,-7.70316 -0.0213,-7.76618 -3.04716,-9.01953 C 110.72113,393.39921 111,398.05615 111,296.57066 c 0,-91.24429 0.0291,-92.61729 2.09603,-98.91362 2.05319,-6.25445 2.0583,-6.45416 0.25,-9.77099 -1.74608,-3.20271 -1.86078,-7.86979 -2.11847,-86.19587 -0.17761,-53.986542 0.0824,-84.127617 0.74705,-86.59588 0.56071,-2.082334 2.34508,-5.6160056 3.96527,-7.8526032 C 121.48228,-0.40936674 113.5648,0 256,0 c 140.75978,0 134.38106,-0.30016239 139.62129,6.5701347 5.08297,6.6641093 5.28767,8.3959403 5.33482,45.1328123 0.0473,36.878037 -0.13207,38.302446 -5.1508,40.897729 C 393.08852,94.005585 393,94.302175 393,102 c 0,7.73339 0.0774,7.98868 2.85915,9.42716 5.06947,2.62153 5.29352,4.43897 4.95363,40.18151 -0.2827,29.72804 -0.49032,33.21698 -2.15881,36.27738 -1.8083,3.31683 -1.80319,3.51654 0.25,9.77099 1.97699,6.02235 2.09603,8.51077 2.09603,43.81691 0,26.22926 -0.34656,38.19256 -1.15798,39.97343 -0.63689,1.39782 -2.66189,3.42882 -4.5,4.51333 C 392.05391,287.90074 392,288.04656 392,295 c 0,6.97486 0.0445,7.09368 3.39359,9.06972 1.86647,1.10124 3.90211,3.22996 4.52365,4.73047 0.81561,1.96907 1.05391,24.71411 0.85641,81.74158 l -0.27365,79.01337 -2.54844,4.97243 c -1.55128,3.0268 -4.38808,6.34119 -7.25,8.47057 -4.68453,3.48547 -4.70164,3.51988 -4.72352,9.5 -0.0235,6.42123 -2.33497,12.86697 -5.58681,15.57934 -4.6343,3.86548 -6.60725,3.92573 -125.00725,3.81767 -83.26728,-0.076 -115.87713,-0.42001 -118.49274,-1.25 z"
         id="path3609" />
      <path
         style="fill:#adc8c6"
         d="M 137.2187,510.74427 C 130.42702,508.56776 126,499.97795 126,488.97646 c 0,-3.31374 -0.44871,-4.15714 -2.88088,-5.41486 -3.5911,-1.85703 -7.73646,-6.71 -9.65614,-11.30445 -2.17029,-5.19422 -2.13623,-51.85094 0.0401,-54.95812 2.36683,-3.37911 7.73136,-4.74627 11.32725,-2.88676 4.59334,2.37531 5.16965,5.68241 5.16965,29.66552 0,18.49098 0.2379,22.01726 1.57567,23.35503 1.41877,1.41876 12.89546,1.55035 115.25,1.32143 L 360.5,468.5 360.75369,336.10691 c 0.18644,-97.29841 -0.0459,-132.75411 -0.8766,-133.75501 -0.94207,-1.13512 -17.05363,-1.31944 -96.75369,-1.1069 L 167.5,201.5 167,269 l -0.5,67.5 -2.68267,4.5 c -1.47547,2.475 -9.68797,11.46956 -18.25,19.9879 L 130,376.4758 v 5.61288 c 0,11.05778 -4.3401,16.2743 -11.55813,13.89214 C 111.56119,393.70999 112,400.50602 112,296.21288 c 0,-93.72522 0.0138,-94.37415 2.10718,-99.24038 l 2.10717,-4.89826 -2.12383,-4.38725 c -2.12077,-4.38092 -2.12344,-4.50974 -1.85717,-89.451361 L 112.5,13.17151 115.51867,8.8357548 C 117.17894,6.4510896 120.32894,3.6 122.51867,2.5 126.4387,0.53079192 128.49378,0.5 256,0.5 c 127.50622,0 129.5613,0.0307919 133.48133,2 2.18973,1.1 5.33973,3.9505278 7,6.3345061 l 3.01867,4.3345059 0.2911,36.165494 c 0.1601,19.891022 0.0331,37.201746 -0.2823,38.468277 -0.31537,1.26653 -2.13386,3.223479 -4.0411,4.348775 L 392,94.197552 v 7.875548 c 0,7.72172 0.058,7.90554 2.97036,9.41157 1.63369,0.84482 3.43369,2.40179 4,3.45994 0.64697,1.20888 1.02964,14.28139 1.02964,35.17392 0,31.76993 -0.0938,33.44378 -2.10718,37.60287 l -2.10717,4.35284 2.10717,4.89826 c 2.0242,4.70536 2.10718,6.44763 2.10718,44.24038 0,43.07956 0.10958,42.25645 -5.96017,44.77062 C 391.02284,287.23318 391,287.30094 391,295 c 0,7.69906 0.0228,7.76682 3.03983,9.0165 6.29685,2.60824 5.96017,-2.16817 5.96017,84.55678 0,56.49557 -0.32553,80.10054 -1.1381,82.5275 -1.58836,4.74401 -5.53188,9.77196 -9.50121,12.11391 -2.88945,1.70482 -3.36069,2.523 -3.36069,5.83486 0,10.945 -4.67309,19.52818 -11.89922,21.85561 -4.65833,1.50038 -232.1804,1.34585 -236.88208,-0.16089 z M 320.92308,236.07692 c -3.87952,-3.87951 -3.88121,-7.97303 -0.005,-12.31114 L 323.83605,220.5 h 13.16406 13.16406 l 3.02653,3.38728 c 2.55486,2.85939 2.93696,3.95031 2.45174,7 -0.33733,2.12015 -1.64465,4.54229 -3.16433,5.86272 -2.40027,2.08556 -3.5412,2.25 -15.61069,2.25 h -13.02116 l -2.92307,-2.92308 z"
         id="path3607" />
      <path
         style="fill:#2fa4f9"
         d="m 137.5,510.11927 c -7.16755,-3.29135 -10.37664,-9.15982 -10.45611,-19.12113 -0.0429,-5.37106 -0.15531,-5.58501 -4.73089,-9 -2.57785,-1.92398 -5.72785,-5.48142 -7,-7.90542 -2.23747,-4.26336 -2.313,-5.2207 -2.313,-29.31575 0,-14.56482 0.41208,-25.67843 0.99232,-26.76263 1.43944,-2.6896 7.33125,-4.44672 10.04337,-2.99524 4.27785,2.28943 4.96431,6.40932 4.96431,29.79379 0,19.98006 0.1597,22.02166 1.84164,23.54379 1.70129,1.53965 11.27142,1.64672 125.58071,1.40499 121.17644,-0.25625 123.76846,-0.30187 125.15836,-2.2028 C 382.77747,465.92209 383,453.48873 383,388.25921 c 0,-84.23711 -0.11878,-82.43834 5.5376,-83.858 3.04817,-0.76505 8.19001,1.22131 9.50062,3.6702 0.59269,1.10746 0.96178,32.4624 0.96178,81.70556 v 79.90846 l -2.313,4.40729 c -1.27215,2.424 -4.42215,5.98144 -7,7.90542 -4.57558,3.41499 -4.68804,3.62894 -4.73089,9 -0.0795,9.96131 -3.28856,15.82978 -10.45611,19.12113 -3.80753,1.74842 -9.50941,1.83681 -118.5,1.83681 -108.99059,0 -114.69247,-0.0884 -118.5,-1.83681 z M 117.39966,394.57206 c -1.70519,-0.74231 -3.39269,-2.1115 -3.75,-3.04265 C 113.29235,390.59827 113,347.21838 113,295.12965 c 0,-93.00561 0.0362,-94.77785 2.01746,-98.66389 l 2.01745,-3.95712 -2.03403,-4.72824 c -1.9996,-4.64819 -2.02953,-6.16642 -1.76746,-89.668569 L 113.5,13.17151 l 3,-4.2466965 c 1.65,-2.3356828 4.8,-5.1867725 7,-6.3357548 C 127.49635,0.50190421 127.61713,0.5 256,0.5 c 128.38287,0 128.50365,0.001904 132.5,2.0890587 2.2,1.1489823 5.35,3.9995101 7,6.3345062 l 3,4.2454471 0.2911,36.165494 c 0.1601,19.891022 0.0506,37.131756 -0.24326,38.312743 -0.2939,1.180987 -2.1124,3.078311 -4.0411,4.216275 L 391,93.932549 v 8.010671 c 0,7.65938 0.1206,8.08536 2.75,9.71376 5.38121,3.33259 5.25,2.38044 5.25,38.09877 0,31.25336 -0.12816,33.67141 -2.01746,38.06319 l -2.01745,4.6897 2.01745,3.95712 c 1.92334,3.77251 2.01746,5.81648 2.01746,43.81142 0,23.60144 -0.39222,40.58718 -0.96178,41.65141 -1.31061,2.44889 -6.45245,4.43525 -9.50062,3.6702 C 383.23868,284.26885 383,282.37696 383,241.70465 c 0,-36.7443 -0.0366,-37.42781 -2.10464,-39.29966 -2.04182,-1.84814 -5.27252,-1.90499 -108.25,-1.90499 H 166.5 L 166,268 c -0.49629,66.99885 -0.51618,67.5297 -2.67966,71.5 -1.19881,2.2 -9.41131,11.19473 -18.25,19.98828 L 129,375.47656 v 5.79384 c 0,6.65451 -1.93006,12.08662 -4.8496,13.64911 -2.50761,1.34203 -2.91834,1.32089 -6.75074,-0.34745 z M 321.80609,234.95994 c -2.54424,-2.54425 -2.93895,-3.56359 -2.42007,-6.25 C 320.51605,222.85941 322.71172,222 336.529,222 c 6.76908,0 13.03587,0.27953 13.9262,0.62118 2.43763,0.93541 4.68268,5.98127 3.95364,8.88601 -0.34848,1.38844 -1.76871,3.41732 -3.15608,4.50863 C 349.05682,237.74314 347.18436,238 336.78822,238 h -11.94207 z"
         id="path3605" />
      <path
         style="fill:#5588af"
         d="m 137.5,510.11927 c -7.16755,-3.29135 -10.37664,-9.15982 -10.45611,-19.12113 -0.0429,-5.37106 -0.15531,-5.58501 -4.73089,-9 -2.57785,-1.92398 -5.72785,-5.48142 -7,-7.90542 -2.23747,-4.26336 -2.313,-5.2207 -2.313,-29.31575 0,-14.56482 0.41208,-25.67843 0.99232,-26.76263 1.43944,-2.6896 7.33125,-4.44672 10.04337,-2.99524 4.27785,2.28943 4.96431,6.40932 4.96431,29.79379 0,19.98006 0.1597,22.02166 1.84164,23.54379 1.70129,1.53965 11.27142,1.64672 125.58071,1.40499 121.17644,-0.25625 123.76846,-0.30187 125.15836,-2.2028 C 382.77747,465.92209 383,453.48873 383,388.25921 c 0,-84.23711 -0.11878,-82.43834 5.5376,-83.858 3.04817,-0.76505 8.19001,1.22131 9.50062,3.6702 0.59269,1.10746 0.96178,32.4624 0.96178,81.70556 v 79.90846 l -2.313,4.40729 c -1.27215,2.424 -4.42215,5.98144 -7,7.90542 -4.57558,3.41499 -4.68804,3.62894 -4.73089,9 -0.0795,9.96131 -3.28856,15.82978 -10.45611,19.12113 -3.80753,1.74842 -9.50941,1.83681 -118.5,1.83681 -108.99059,0 -114.69247,-0.0884 -118.5,-1.83681 z M 117.39966,394.57206 c -1.70519,-0.74231 -3.39269,-2.1115 -3.75,-3.04265 C 113.29235,390.59827 113,347.21838 113,295.12965 c 0,-93.00561 0.0362,-94.77785 2.01746,-98.66389 l 2.01745,-3.95712 -2.03403,-4.72824 c -1.9996,-4.64819 -2.02953,-6.16642 -1.76746,-89.668569 L 113.5,13.17151 l 3,-4.2466965 c 1.65,-2.3356828 4.8,-5.1867725 7,-6.3357548 C 127.49635,0.50190421 127.61713,0.5 256,0.5 c 128.38287,0 128.50365,0.001904 132.5,2.0890587 2.2,1.1489823 5.35,3.9995101 7,6.3345062 l 3,4.2454471 0.2911,36.165494 c 0.1601,19.891022 0.0506,37.131756 -0.24326,38.312743 -0.2939,1.180987 -2.1124,3.078311 -4.0411,4.216275 L 391,93.932549 v 8.010671 c 0,7.65938 0.1206,8.08536 2.75,9.71376 5.38121,3.33259 5.25,2.38044 5.25,38.09877 0,31.25336 -0.12816,33.67141 -2.01746,38.06319 l -2.01745,4.6897 2.01745,3.95712 c 1.92334,3.77251 2.01746,5.81648 2.01746,43.81142 0,23.60144 -0.39222,40.58718 -0.96178,41.65141 -1.31061,2.44889 -6.45245,4.43525 -9.50062,3.6702 C 383.23868,284.26885 383,282.37696 383,241.70465 c 0,-36.7443 -0.0366,-37.42781 -2.10464,-39.29966 -2.04182,-1.84814 -5.27252,-1.90499 -108.25,-1.90499 H 166.5 L 166,268 c -0.49629,66.99885 -0.51618,67.5297 -2.67966,71.5 -1.19881,2.2 -9.41131,11.19473 -18.25,19.98828 L 129,375.47656 v 5.79384 c 0,6.65451 -1.93006,12.08662 -4.8496,13.64911 -2.50761,1.34203 -2.91834,1.32089 -6.75074,-0.34745 z m 22.48927,-53.11741 9.12542,-9.54535 -0.25718,-65.70465 L 148.5,200.5 l -7.92006,0.24892 C 127.71266,201.15332 129,192.60369 129,277.65499 129,319.32815 129.38076,351 129.88176,351 c 0.48497,0 4.9882,-4.29541 10.00717,-9.54535 z M 149,138.23124 V 93.462477 L 139,83.5 129,73.537523 V 126.3345 c 0,34.48195 0.3591,53.46797 1.03518,54.73124 0.90528,1.69152 2.16021,1.93426 10,1.93426 H 149 Z m 172.80609,96.7287 c -2.54424,-2.54425 -2.93895,-3.56359 -2.42007,-6.25 C 320.51605,222.85941 322.71172,222 336.529,222 c 6.76908,0 13.03587,0.27953 13.9262,0.62118 2.43763,0.93541 4.68268,5.98127 3.95364,8.88601 -0.34848,1.38844 -1.76871,3.41732 -3.15608,4.50863 C 349.05682,237.74314 347.18436,238 336.78822,238 h -11.94207 z"
         id="path3603" />
      <path
         style="fill:#3f729e"
         d="m 139,510.87927 c -3.19445,-1.27005 -7.77536,-5.60749 -9.58928,-9.07961 C 128.61425,500.27509 128,496.24323 128,492.53987 c 0,-5.58862 -0.3288,-6.817 -2.22156,-8.29966 -6.27194,-4.91299 -10.63384,-10.0553 -11.65774,-13.74351 -0.66574,-2.39805 -1.11178,-13.31472 -1.11512,-27.29215 L 113,419.90909 l 2.45455,-2.45454 c 3.34023,-3.34023 7.76351,-3.26408 10.47287,0.18031 1.95979,2.49147 2.07258,3.88162 2.07258,25.54545 v 22.9106 l 2.51511,2.51511 2.51511,2.51511 122.73489,-0.3318 c 67.50419,-0.18248 123.46144,-0.68449 124.34944,-1.11557 C 383.9131,467.82975 384,465.96855 384,386.45295 c 0,-76.11962 0.0344,-77.48738 2,-79.45295 2.77983,-2.77983 7.51519,-2.57572 10.54545,0.45455 l 2.45455,2.45454 -0.006,78.29546 c -0.004,54.1658 -0.34684,79.5282 -1.11292,82.29545 -0.99189,3.58294 -5.92644,9.34566 -12.23588,14.28943 -1.22694,0.96136 -1.64562,2.94578 -1.64562,7.79966 0,3.66099 -0.61741,7.69205 -1.41072,9.21057 -1.89416,3.6257 -6.45575,7.83374 -9.90438,9.13672 -3.77062,1.42464 -230.09712,1.36933 -233.6849,-0.0571 z m -23.56511,-118.35347 -2.47421,-2.47421 0.26966,-95.32021 c 0.2513,-88.82929 0.38883,-95.50206 2.01966,-97.99061 2.22236,-3.39119 2.19585,-4.5398 -0.22804,-9.88157 -1.91981,-4.23089 -1.97804,-6.80225 -1.97804,-87.3592 0,-78.681482 0.0964,-83.208121 1.85194,-87 2.26936,-4.9015796 6.39185,-8.8875008 11.32202,-10.9469521 C 129.51238,0.17685833 144.29173,0 256,0 c 138.07433,0 129.81268,-0.3515479 136.3761,5.8030479 6.42287,6.0228041 6.5777,7.0901771 6.60194,45.5126931 0.0131,20.727836 -0.37223,35.552286 -0.9522,36.63598 -0.53579,1.00113 -2.56079,2.75637 -4.5,3.900533 L 390,93.932549 V 102 v 8.06745 l 3.52584,2.0803 c 1.93921,1.14416 3.96421,2.8994 4.5,3.90053 0.57594,1.07615 0.96518,15.03043 0.9522,34.13598 -0.0204,30.03332 -0.16167,32.62363 -2,36.67494 -2.4239,5.34179 -2.45041,6.49071 -0.22804,9.88025 1.58038,2.41039 1.77836,6.57504 2.04262,42.96765 l 0.29263,40.29856 -2.49717,2.49717 c -3.1654,3.1654 -7.76233,3.29988 -10.54912,0.30861 C 384.06146,280.68885 384,279.48172 384,242.76598 v -37.85689 l -2.28929,-2.28929 c -2.11782,-2.11782 -3.44053,-2.33913 -17.659,-2.95455 -21.451,-0.92847 -195.281,-0.80664 -196.76744,0.1379 -0.92963,0.59073 -1.28263,16.41302 -1.5,67.23469 -0.2628,61.44359 -0.41996,66.7642 -2.08119,70.46216 -1.11196,2.47525 -8.25923,10.50489 -18.75,21.06478 L 128,375.62956 v 7.05036 c 0,5.61847 -0.42093,7.58549 -2.07258,9.68522 -2.71615,3.45303 -7.13254,3.52065 -10.49253,0.16066 z m 24.42535,-50.98836 9.15416,-9.46257 -0.2572,-65.78743 L 148.5,200.5 l -7.92006,0.24892 C 127.71266,201.15332 129,192.60369 129,277.65499 129,317.99474 129.38387,351 129.85303,351 c 0.46917,0 4.97241,-4.25815 10.00721,-9.46256 z M 149.5,138.26831 V 93.03662 l -9.96565,-10.002661 c -5.48111,-5.501464 -10.33034,-9.637966 -10.77608,-9.192225 -0.44574,0.44574 -0.6862,24.46675 -0.53436,53.380026 0.32732,62.32419 -0.86527,57.01832 12.71383,56.56443 L 149.5,183.5 Z M 359.02131,181 c 1.16113,-1.83711 1.30944,-160.930818 0.15172,-162.754276 -0.63246,-0.996148 -24.24462,-1.201946 -114.73469,-1 L 130.5,17.5 l -0.2766,15.352141 -0.27659,15.35214 15.77659,16.390257 c 9.56061,9.932486 16.8601,18.433906 18.5266,21.577174 L 167,91.35863 v 45.15402 c 0,24.83471 0.30667,45.46069 0.6815,45.83552 0.37482,0.37482 43.3663,0.56232 95.53662,0.41666 83.03327,-0.23182 94.97328,-0.45178 95.80319,-1.76483 z M 322,235 c -2.81236,-2.81236 -2.57542,-7.51549 0.53535,-10.62626 2.48569,-2.48569 2.78125,-2.52887 15.0906,-2.20454 11.79005,0.31064 12.67161,0.47468 14.46465,2.69158 2.5864,3.19783 2.41918,7.31168 -0.40505,9.96491 -2.1252,1.99652 -3.35175,2.17431 -15,2.17431 -11.35222,0 -12.89576,-0.21021 -14.68555,-2 z"
         id="path3601" />
      <path
         style="fill:#2b4f68"
         d="m 138.5,510.43426 c -7.65386,-3.99819 -10.5,-9.11842 -10.5,-18.8896 0,-6.49656 -0.0138,-6.5283 -3.9203,-8.99435 -4.5373,-2.86427 -8.31711,-7.5976 -9.9416,-12.44953 C 113.41659,467.9458 113,458.13766 113,443.30532 v -23.39623 l 2.45455,-2.45454 c 2.9438,-2.94381 6.4739,-3.14226 9.68467,-0.54445 2.34627,1.89836 2.36263,2.05796 2.66108,25.96698 l 0.3003,24.05689 2.59928,2.0446 c 2.59045,2.03765 3.01871,2.04371 126.03816,1.78301 L 380.17692,470.5 l 1.91154,-2.36078 C 383.93388,465.86009 384,463.08901 384,388.02407 c 0,-77.14779 0.0162,-77.77491 2.07258,-80.38921 2.70936,-3.44439 7.13264,-3.52054 10.47287,-0.18031 L 399,309.90909 v 78.39623 c 0,55.94832 -0.32588,79.36956 -1.1381,81.79546 -1.62449,4.85193 -5.4043,9.58526 -9.9416,12.44953 l -3.9203,2.47478 -0.002,6.73745 c -0.002,8.05219 -1.87025,12.29397 -7.34109,16.66636 l -3.84264,3.0711 -115.65736,0.2507 C 153.77425,511.97479 141.18162,511.83508 138.5,510.43426 Z M 367.8075,491.25 368.115,487 H 256.0575 144 v 3.83333 c 0,2.10834 0.30195,4.13528 0.67099,4.50433 0.36905,0.36905 50.65655,0.55655 111.75,0.41667 L 367.5,495.5 Z m -252.37271,-98.7243 -2.4743,-2.4743 0.26976,-94.7757 L 113.5,200.5 l 2.25233,-4.21473 2.25233,-4.21474 -2.25233,-4.28526 L 113.5,183.5 l -0.28782,-82 c -0.21938,-62.499779 0.004,-83.062297 0.94073,-86.467046 1.54878,-5.6313976 8.16596,-12.4724601 13.4958,-13.9524066 5.3874,-1.49592681 251.31518,-1.49592681 256.70258,0 5.05181,1.402747 11.83941,8.2493193 13.41887,13.5354726 1.61795,5.414957 1.75023,70.543112 0.14935,73.53438 -1.34912,2.520847 -7.41833,5.143443 -10.00388,4.322822 C 383.34136,91.021406 383,88.252881 383,52.606364 383,19.12931 382.99894,19.112669 380.77749,17.556704 378.79506,16.168153 365.20631,16 254.97749,16 160.195,16 131.12039,16.279614 130.2,17.2 129.36948,18.030517 129,23.191494 129,33.961722 v 15.561721 l 16.07034,15.988279 C 153.90903,74.305275 162.12153,83.3 163.32034,85.5 165.44877,89.405989 165.51175,90.592872 166,136 l 0.5,46.5 106.67406,0.25451 c 95.9907,0.22903 106.83188,0.0967 108.25,-1.32142 1.36676,-1.36676 1.57594,-5.68784 1.57594,-32.55418 0,-32.95075 0.39021,-35.91582 4.91563,-37.35213 2.61782,-0.83087 8.66127,1.81413 10.04267,4.39531 0.778,1.4537 1.03123,12.07535 0.8305,34.83466 -0.28,31.74557 -0.35743,32.87382 -2.54113,37.02852 l -2.25233,4.28526 2.25233,4.21474 c 2.21216,4.13956 2.25756,4.92375 2.54541,43.9671 l 0.29308,39.75238 -2.49763,2.49762 c -3.38354,3.38355 -7.79176,3.32602 -10.51595,-0.13723 C 384.05911,279.80543 384,278.65586 384,242.05627 c 0,-29.82741 -0.27786,-38.05401 -1.3341,-39.4985 -0.77792,-1.06388 -3.38348,-2.16093 -6.25,-2.63152 -2.70374,-0.44386 -50.8384,-0.83385 -106.9659,-0.86664 -78.10586,-0.0456 -102.33156,0.22195 -103.25,1.14039 -0.90916,0.90916 -1.2,17.23953 -1.2,67.37788 0,58.34675 -0.1891,66.63608 -1.59802,70.05 -1.02715,2.48889 -7.60263,9.94501 -18.4069,20.87212 l -16.8089,17 -0.368,7.85853 c -0.31767,6.78355 -0.68753,8.11726 -2.70388,9.75 -3.19277,2.58534 -6.72396,2.37272 -9.67951,-0.58283 z M 140.34895,342.05413 150,332.10826 v -65.98674 c 0,-75.90182 1.35968,-67.77075 -11.1269,-66.54036 C 126.85198,200.76569 128,192.48596 128,278 c 0,61.42848 0.22917,74 1.34895,74 0.74193,0 5.69193,-4.47564 11,-9.94587 z M 150,138.35992 V 92.719847 l -9.68718,-9.859924 C 134.98486,77.436966 130.03486,73 129.31282,73 128.24537,73 128,83.031289 128,126.67126 c 0,48.53835 0.15828,53.84615 1.65499,55.5 1.37841,1.52313 3.21669,1.82874 11,1.82874 H 150 Z m 172.07258,96.00522 c -3.59905,-4.57545 -2.29088,-9.39619 3.05553,-11.25996 4.02279,-1.40235 19.61591,-1.43898 23.58483,-0.0554 2.89992,1.01091 5.28706,4.4165 5.28706,7.54273 0,0.82412 -1.10455,2.60294 -2.45455,3.95294 -2.34367,2.34368 -3.01794,2.45455 -14.92742,2.45455 -12.28357,0 -12.50433,-0.04 -14.54545,-2.63486 z"
         id="path3599" />
      <path
         style="fill:#030405"
         d="m 141.59795,511.28977 c -1.04612,-0.27224 -2.39612,-0.90371 -3,-1.40326 -0.60387,-0.49955 -2.38998,-1.87893 -3.96913,-3.06529 C 130.70111,503.87046 129,499.26399 129,491.5788 c 0,-5.92341 -0.23259,-6.64113 -2.68399,-8.28212 -5.20335,-3.48317 -9.90432,-8.9792 -11.10336,-12.98127 C 114.41404,467.64989 114,458.3693 114,443.13398 c 0,-21.80065 0.11527,-23.24925 2,-25.13398 2.01583,-2.01583 5.56655,-2.59265 7.6003,-1.23469 2.95843,1.9754 3.3997,5.57262 3.3997,27.7144 v 22.6112 l 2.45455,2.45454 2.45454,2.45455 h 123.62238 123.62238 l 2.92307,-2.92308 L 385,466.15385 v -78.07693 c 0,-76.74359 0.0342,-78.11107 2,-80.07692 2.55698,-2.55698 6.44302,-2.55698 9,0 1.96587,1.96587 2,3.33333 2,80.13398 0,58.33173 -0.30733,79.15977 -1.21265,82.18143 -1.19904,4.00207 -5.90001,9.4981 -11.10336,12.98127 -2.45609,1.64413 -2.68399,2.35304 -2.68399,8.34888 0,7.43213 -1.89724,12.39431 -5.87685,15.37076 -1.44273,1.07905 -3.287,2.52931 -4.09837,3.2228 -1.1661,0.99668 -25.36762,1.29071 -115.5,1.40325 -62.71363,0.0783 -114.8807,-0.0804 -115.92683,-0.3526 z m 227.79506,-15.87156 c 1.32063,-3.44151 0.62822,-8.33648 -1.32727,-9.38303 C 366.76599,485.33958 330.00407,485 256,485 181.99593,485 145.23401,485.33958 143.93426,486.03518 142.60708,486.74547 142,488.13215 142,490.4534 142,497.63391 130.96133,497 256,497 c 101.92361,0 112.84448,-0.15234 113.39301,-1.58179 z M 116,392 c -1.9717,-1.9717 -1.99986,-3.32668 -1.99023,-95.75 l 0.01,-93.75 2.49888,-5.36797 2.49888,-5.36797 -2.25865,-3.63203 L 114.5,184.5 V 99.336142 14.172284 l 3,-4.1863228 c 1.65,-2.3024773 4.35,-4.9287411 6,-5.8361418 C 125.15,3.2424187 126.82109,2.05 127.21353,1.5 127.68284,0.84225286 171.76038,0.5 256,0.5 c 84.23962,0 128.31716,0.34225286 128.78647,1 0.39244,0.55 2.06353,1.7424187 3.71353,2.6498194 1.65,0.9074007 4.35,3.5328433 6,5.834317 l 3,4.1844976 0.29638,36.369304 c 0.2894,35.513053 0.2482,36.417482 -1.75,38.415683 -2.53948,2.539475 -7.19257,2.647307 -9.39139,0.217638 C 385.18512,87.547072 385,83.637411 385,54.218312 385,18.71926 384.72419,16.534055 380.07856,15.226023 378.66035,14.826711 321.99804,14.5 254.16232,14.5 H 130.82464 l -1.91232,2.360784 C 127.2182,18.952192 127,20.941625 127,34.296006 v 15.074438 l 16.89139,17.064778 C 153.18165,75.82085 161.61915,85.075 162.64139,87 c 1.71305,3.225898 1.89777,7.180796 2.35861,50.5 l 0.5,47 107.13367,0.25449 c 104.26146,0.24766 107.19712,0.20314 109.5,-1.66059 l 2.36633,-1.91507 0.29068,-32.30563 c 0.25248,-28.06014 0.50283,-32.54004 1.90499,-34.08941 2.16367,-2.39083 6.82969,-2.25843 9.35353,0.26541 1.99697,1.99697 2.04157,2.90813 1.75,35.75 -0.29289,32.98968 -0.34686,33.77744 -2.55785,37.33283 l -2.25865,3.63203 2.49888,5.36797 2.49888,5.36797 0.01,38.75 c 0.009,37.42351 -0.0587,38.81846 -1.99023,40.75 -2.55698,2.55698 -6.44302,2.55698 -9,0 -1.92972,-1.92972 -2,-3.33333 -2,-39.94424 V 204.11153 L 382.5871,201.30576 380.17397,198.5 273.34605,198.21941 c -100.10821,-0.26294 -106.90711,-0.17229 -108.08687,1.44113 -0.98131,1.34203 -1.26379,16.28962 -1.28091,67.78059 -0.0214,64.31363 -0.0758,66.17761 -2.06046,70.55311 -1.38084,3.04432 -7.34217,9.83124 -18.47804,21.03709 L 127,375.57419 v 6.27865 c 0,6.08573 -1.12906,9.8657 -3.3997,11.38185 C 121.56655,394.59265 118.01583,394.01583 116,392 Z M 140.30761,343.14944 151,332.29889 v -66.6304 -66.63039 l -2.52634,-0.63407 c -1.38949,-0.34874 -5.88683,-0.31916 -9.9941,0.0657 C 125.8537,199.65289 127,191.66459 127,278.46819 c 0,40.80916 0.3,74.49848 0.66667,74.86514 1.24039,1.24039 1.93325,0.6822 12.64094,-10.18389 z m 10.65721,-160.0837 c 1.37401,-2.56737 1.41013,-83.271581 0.0394,-88.051036 C 149.95046,91.340461 130.69276,71 128.26787,71 127.25941,71 127,82.253291 127,126 c 0,65.16682 -1.40737,59 13.46482,59 8.33413,0 9.58848,-0.23107 10.5,-1.93426 z M 323,234 c -2.59138,-2.59138 -2.54736,-6.19467 0.10499,-8.59501 1.82348,-1.65023 3.70754,-1.90499 14.08835,-1.90499 11.38731,0 12.07845,0.11743 13.89501,2.36078 2.45226,3.02841 2.42405,5.62682 -0.0883,8.13922 -1.77778,1.77778 -3.33333,2 -14,2 -10.66667,0 -12.22222,-0.22222 -14,-2 z"
         id="path3597" />
    </g>
  </g>
</svg>
