<?xml version="1.0" encoding="UTF-8" standalone="no"?>
<!-- Created with Inkscape (http://www.inkscape.org/) -->

<svg
   version="1.1"
   id="svg1080"
   width="512"
   height="512"
   viewBox="0 0 512 512"
   xmlns="http://www.w3.org/2000/svg"
   xmlns:svg="http://www.w3.org/2000/svg">
  <defs
     id="defs1084" />
  <g
     id="g1086">
    <g
       id="g1090"
       transform="translate(14.693239,2.8081987)">
      <path
         style="fill:#fbe6a4"
         d="m 302,502.91909 c -5.54822,-2.51148 -9.51599,-6.18268 -12.34158,-11.41909 -1.98214,-3.67332 -2.19926,-5.87842 -2.65842,-27 l -0.5,-23 -75.10479,-0.25629 -75.10479,-0.25629 -3.89521,5.2096 C 120.5012,462.10451 97.725873,460.1469 89.383291,442.5 84.199205,431.53421 87.552547,419.26897 97.837056,411.57937 l 5.243674,-3.92063 -0.29036,-7.07937 L 102.5,393.5 63.5,393 C 25.945654,392.51853 24.351728,392.41999 20.5,390.34158 15.263589,387.51599 11.592392,383.54822 9.080913,378 7.0942993,373.61129 7.043924,371.78125 7.043924,304 c 0,-67.78125 0.050375,-69.61129 2.036989,-74 2.511479,-5.54822 6.182676,-9.51599 11.419087,-12.34158 3.851728,-2.07841 5.445654,-2.17695 43,-2.65842 l 39,-0.5 V 200 185.5 L 63.5,185 C 25.945654,184.51853 24.351728,184.41999 20.5,182.34158 15.263589,179.51599 11.592392,175.54822 9.080913,170 7.0946991,165.61217 7.0436201,163.76761 7.0317309,96 l -0.012193,-69.5 2.363753,-5 C 12.224239,15.490598 15.956892,11.816412 22,9.080913 c 4.414636,-1.998348 6.121907,-2.036989 90,-2.036989 83.87809,0 85.58536,0.038641 90,2.036989 5.54822,2.511479 9.51599,6.182676 12.34158,11.419087 2.04308,3.786253 2.18514,5.656541 2.65842,35 l 0.5,31 h 30.5 30.5 l 0.5,-26 c 0.34018,-17.689322 0.88734,-26.675356 1.71179,-28.112856 0.66648,-1.162071 2.82059,-3.525408 4.78691,-5.25186 9.45154,-8.298563 27.33852,-13.689629 59.0013,-17.7827601 19.96354,-2.5807392 73.82686,-2.6029192 94.40349,-0.038874 38.71391,4.8241231 59.90636,12.8069891 64.74547,24.3886081 1.99272,4.769256 1.99272,151.826232 0,156.595482 -5.787,13.85023 -33.93513,22.40909 -85.64896,26.04286 l -16.5,1.1594 -0.27519,15.09069 -0.27519,15.0907 5.2285,3.9093 c 14.47479,10.82269 14.47479,29.99593 0,40.81862 l -5.2285,3.9093 0.27519,15.0907 L 401.5,326.5 l 39,0.5 c 37.55435,0.48147 39.14827,0.58001 43,2.65842 5.23641,2.82559 8.90761,6.79336 11.41909,12.34158 1.98661,4.38871 2.03699,6.21875 2.03699,74 0,67.78125 -0.0504,69.61129 -2.03699,74 -2.7355,6.04311 -6.40969,9.77576 -12.41909,12.61671 l -5,2.36375 -85.5,-0.0122 c -83.86461,-0.012 -85.58607,-0.0512 -90,-2.04918 z m 174.17126,-18.57408 c 1.70775,-1.54549 1.82874,-4.05953 1.82874,-38 L 478,410 h -86 -86 v 36.17126 c 0,32.25441 0.17921,36.36929 1.65499,38 1.57785,1.74351 5.50083,1.82874 84.17126,1.82874 75.37893,0 82.67445,-0.14315 84.34501,-1.65499 z M 339.3264,472.90239 C 319.46012,469.22763 311.77296,444.38089 326.07692,430.07692 341.94544,414.20841 369.2,425.53612 369.2,448 c 0,15.96813 -14.19654,27.80225 -29.8736,24.90239 z m 45.45634,0.44028 c -1.01222,-0.28099 -1.986,-1.90922 -2.37183,-3.96587 -0.73922,-3.94036 -0.078,-13.04303 1.02774,-14.14879 1.01744,-1.01743 48.20622,-0.91648 49.22802,0.10532 1.08458,1.08459 1.08631,16.24642 0.002,17.33334 -0.87422,0.87629 -44.9243,1.49815 -47.88591,0.676 z m 64,0.0243 c -1.00372,-0.29283 -1.98924,-1.95079 -2.37183,-3.99017 -0.73922,-3.94036 -0.078,-13.04303 1.02774,-14.14879 1.01091,-1.0109 16.20467,-0.91802 17.22802,0.10532 1.06831,1.06831 1.09431,16.23903 0.0297,17.30368 -0.91773,0.91773 -13.32003,1.48663 -15.91358,0.72996 z m -64,-32.03321 c -1.01533,-0.27659 -1.98482,-1.894 -2.37183,-3.95696 -0.73922,-3.94036 -0.078,-13.04303 1.02774,-14.14879 1.01881,-1.0188 80.20657,-0.91612 81.22802,0.10532 1.08518,1.08519 1.08602,16.24702 9.5e-4,17.33334 -0.86143,0.86242 -76.83875,1.49688 -79.88488,0.66709 z M 287,383.5 c 0.48147,-37.55435 0.58001,-39.14827 2.65842,-43 2.5256,-4.68047 6.44291,-8.52672 11.34158,-11.13584 3.19127,-1.69972 6.94017,-1.90826 42.5,-2.36416 l 39,-0.5 0.27569,-15.18428 0.27569,-15.18429 -4.49723,-3.09417 c -2.47348,-1.7018 -5.88361,-5.10921 -7.57807,-7.57203 l -3.08085,-4.47786 -75.19761,0.25632 L 217.5,281.5 l -0.5,47 c -0.48681,45.75997 -0.55695,47.10553 -2.65842,51 -2.5256,4.68047 -6.44291,8.52672 -11.34158,11.13584 -3.19127,1.69972 -6.94017,1.90826 -42.5,2.36416 l -39,0.5 -0.29225,7.17289 -0.29226,7.17289 4.5138,3.10557 c 2.48258,1.70806 5.90017,5.1206 7.59463,7.58342 l 3.08085,4.47786 75.19761,-0.25632 L 286.5,422.5 Z m -90.82874,-11.15499 c 1.70775,-1.54549 1.82874,-4.05953 1.82874,-38 L 198,298 H 112 26 v 36.17126 c 0,32.25441 0.179212,36.36929 1.654988,38 1.577853,1.74351 5.500828,1.82874 84.171262,1.82874 75.37893,0 82.67445,-0.14315 84.34501,-1.65499 z M 40.78274,361.32685 c -1.017731,-0.27315 -1.9839,-1.88221 -2.371831,-3.95005 -0.739215,-3.94036 -0.07801,-13.04303 1.027744,-14.14879 1.019726,-1.01972 144.206807,-0.91588 145.228017,0.10532 1.08554,1.08555 1.08585,16.24738 3.5e-4,17.33334 -0.85229,0.85265 -140.77502,1.49465 -143.88428,0.66018 z m 0,-31.95988 c -1.003722,-0.29283 -1.98924,-1.95079 -2.371831,-3.99017 -0.739215,-3.94036 -0.07801,-13.04303 1.027744,-14.14879 1.010906,-1.0109 16.204672,-0.91802 17.228014,0.10532 1.068308,1.06831 1.094308,16.23903 0.02966,17.30368 -0.91773,0.91773 -13.320032,1.48663 -15.913582,0.72996 z m 32,-0.0376 c -1.01684,-0.27442 -1.98424,-1.88658 -2.371831,-3.95261 -0.739215,-3.94036 -0.07801,-13.04303 1.027744,-14.14879 1.019395,-1.01939 112.206717,-0.91597 113.228017,0.10532 1.08543,1.08543 1.0859,16.24726 5.4e-4,17.33334 -0.85562,0.85619 -108.798449,1.49558 -111.88447,0.66274 z m 298.19768,-70.80095 c 1.69207,-2.45935 5.10025,-5.86392 7.57373,-7.56572 l 4.49723,-3.09417 -0.27569,-15.18429 L 382.5,217.5 l -17,-1.19623 c -27.56456,-1.93962 -42.74106,-4.26892 -58.49286,-8.9775 -13.32281,-3.9825 -22.82344,-9.65983 -26.29535,-15.71341 C 279.83886,190.09084 279.36018,177.7551 279,147.5 l -0.5,-42 H 248 217.5 l -0.5,31 c -0.44739,27.73817 -0.69615,31.36827 -2.36416,34.5 -2.60912,4.89867 -6.45537,8.81598 -11.13584,11.34158 -3.85173,2.07841 -5.44565,2.17695 -43,2.65842 l -39,0.5 v 14.5 14.5 l 39,0.5 c 37.55435,0.48147 39.14827,0.58001 43,2.65842 5.23641,2.82559 8.90761,6.79336 11.41909,12.34158 1.72386,3.80826 2.04036,6.58803 2.05895,18.08333 0.0121,7.47084 0.32196,13.88334 0.68863,14.25 C 218.03333,262.7 251.98672,263 293.11863,263 h 74.78529 l 3.0765,-4.47154 z M 196.17126,164.34501 c 1.70775,-1.54549 1.82874,-4.05953 1.82874,-38 V 90 H 112 26 v 36.17126 c 0,32.25441 0.179212,36.36929 1.654988,38 1.577853,1.74351 5.500828,1.82874 84.171262,1.82874 75.37893,0 82.67445,-0.14315 84.34501,-1.65499 z M 40.78274,153.34267 c -1.01222,-0.28099 -1.986001,-1.90922 -2.371831,-3.96587 -0.739215,-3.94036 -0.07801,-13.04303 1.027744,-14.14879 1.017436,-1.01743 48.206215,-0.91648 49.228014,0.10532 1.084585,1.08459 1.086317,16.24642 0.002,17.33334 -0.874215,0.87629 -44.924294,1.49815 -47.885907,0.676 z m 64,0.0243 c -1.00372,-0.29283 -1.98924,-1.95079 -2.37183,-3.99017 -0.73922,-3.94036 -0.078,-13.04303 1.02774,-14.14879 1.01091,-1.0109 16.20467,-0.91802 17.22802,0.10532 1.06831,1.06831 1.09431,16.23903 0.0297,17.30368 -0.91773,0.91773 -13.32003,1.48663 -15.91358,0.72996 z m 32,-0.0243 c -0.97075,-0.26948 -1.97548,-1.86038 -2.31126,-3.65969 -0.87199,-4.67258 -0.11513,-45.37742 0.86185,-46.35184 1.0898,-1.08693 48.24631,-1.08483 49.33334,0.002 1.08716,1.08716 1.08905,48.24368 0.002,49.33334 -0.87422,0.87629 -44.9243,1.49815 -47.88591,0.676 z m -96,-32.00891 c -1.015327,-0.27659 -1.984816,-1.894 -2.371831,-3.95696 -0.739215,-3.94036 -0.07801,-13.04303 1.027744,-14.14879 1.018803,-1.0188 80.206567,-0.91612 81.228017,0.10532 1.08518,1.08519 1.08602,16.24702 9.5e-4,17.33334 -0.86143,0.86242 -76.838745,1.49688 -79.88488,0.66709 z"
         id="path1104" />
      <path
         style="fill:#f0ca6b"
         d="m 303.24342,503.33553 c -5.71761,-2.0237 -12.6373,-9.10841 -14.64164,-14.99083 C 287.32981,484.61165 287,479.25356 287,462.32186 V 441 h -75.85499 -75.85499 l -2.84342,4.49842 C 128.09072,452.38961 119.90632,457 112.02892,457 98.962518,457 87,445.03748 87,431.97108 87,424.0647 91.977077,415.26982 98.671503,411.34662 L 103,408.80996 V 400.90498 393 H 65.678139 C 23.051224,393 22.002324,392.84443 14.578947,385.42105 6.7347902,377.5769 7,380.42606 7,304 7,227.57394 6.7347902,230.4231 14.578947,222.57895 22.002324,215.15557 23.051224,215 65.678139,215 H 103 V 200 185 H 65.678139 C 23.051224,185 22.002324,184.84443 14.578947,177.42105 6.7347902,169.5769 7,172.42606 7,96 7,19.573941 6.7347902,22.423105 14.578947,14.578947 22.534377,6.6235176 17.69501,7 112,7 206.30499,7 201.46562,6.6235176 209.42105,14.578947 216.62247,21.780366 217,23.927259 217,57.678139 V 87 h 31 31 V 62.157284 c 0,-24.00698 0.0776,-24.990982 2.3077,-29.25 C 286.69646,22.615736 304.15009,15.491301 334.91643,11.02462 390.23207,2.993852 461.88951,7.9282276 489.5,21.66934 c 7.53332,3.749162 11.07453,6.8203 13.39763,11.619196 C 504.97647,37.582837 505,38.465647 505,112.15844 v 74.52699 l -2.3077,4.40729 c -7.14014,13.63636 -38.26054,22.39858 -90.4423,25.46481 L 401,217.21859 v 15.79568 15.79569 l 4.3285,2.53666 C 412.03341,255.27597 417,264.06462 417,272 c 0,7.93538 -4.96659,16.72403 -11.6715,20.65338 L 401,295.19004 V 311.09502 327 h 37.32186 c 42.62692,0 43.67582,0.15557 51.09919,7.57895 C 497.26521,342.4231 497,339.57394 497,416 c 0,76.42606 0.26521,73.5769 -7.57895,81.42105 -7.96643,7.96643 -3.04265,7.58903 -97.84919,7.5 -72.20272,-0.0678 -84.6728,-0.29164 -88.32844,-1.58552 z m 171.14194,-17.46525 c 1.3637,-0.62135 2.96677,-2.30885 3.56238,-3.75 0.72492,-1.75407 0.9952,-14.19058 0.81759,-37.62028 L 478.5,409.5 H 392 305.5 l -0.28856,34 c -0.15871,18.7 -0.0266,35.45841 0.29361,37.24091 1.15546,6.43244 -2.41534,6.17482 86.1979,6.21905 57.55603,0.0287 80.90307,-0.27896 82.68241,-1.08968 z M 335,471.69264 c -4.90822,-1.54705 -13.27886,-10.21482 -14.78388,-15.30866 -2.98075,-10.0885 -0.88385,-18.78401 6.25,-25.91786 C 331.87682,425.05541 336.70388,423 344,423 c 7.29612,0 12.12318,2.05541 17.53388,7.46612 C 366.94459,435.87682 369,440.70388 369,448 c 0,7.29612 -2.05541,12.12318 -7.46612,17.53388 -7.08579,7.0858 -16.59221,9.29233 -26.53388,6.15876 z m 48.42849,-0.0184 c -0.28733,-0.74878 -0.38879,-4.69431 -0.22546,-8.76783 L 383.5,455.5 h 24.5 24.5 v 8.5 8.5 l -24.27454,0.26783 c -19.74129,0.21782 -24.3721,0.0136 -24.79697,-1.09358 z m 64.00878,0.0229 c -0.29216,-0.76135 -0.39757,-4.71717 -0.23424,-8.79069 L 447.5,455.5 h 8.5 8.5 v 8.5 8.5 l -8.26577,0.2907 c -6.32118,0.22231 -8.39073,-0.035 -8.79696,-1.09359 z m -64.01126,-32.02933 c -0.28597,-0.74522 -0.38631,-4.68784 -0.22298,-8.76136 L 383.5,423.5 h 40.5 40.5 v 8.5 8.5 l -40.27702,0.26137 c -33.14282,0.21507 -40.36912,0.0214 -40.79697,-1.09359 z M 287,385.67814 c 0,-42.62692 0.15557,-43.67582 7.57895,-51.09919 C 302.00232,327.15557 303.05122,327 345.67814,327 H 383 v -15.85499 -15.85499 l -4.59761,-2.89501 c -2.58447,-1.62738 -5.69115,-4.75595 -7.09502,-7.14501 L 368.80996,281 H 292.90498 217 v 45.32186 c 0,51.52681 9.7e-4,51.51928 -7.57895,59.09919 C 201.99768,392.84443 200.94878,393 158.32186,393 H 121 v 7.90498 7.90498 l 4.47342,2.6216 c 2.74365,1.60788 5.48714,4.35137 7.09502,7.09502 L 135.19004,423 H 211.09502 287 Z m -92.61464,-11.80786 c 1.3637,-0.62135 2.96677,-2.30885 3.56238,-3.75 0.72492,-1.75407 0.9952,-14.19058 0.81759,-37.62028 L 198.5,297.5 H 112 25.5 l -0.288558,34 c -0.158707,18.7 -0.02658,35.45841 0.293608,37.24091 1.155462,6.43244 -2.415339,6.17482 86.1979,6.21905 57.55603,0.0287 80.90307,-0.27896 82.68241,-1.08968 z M 39.424175,359.663 c -0.28496,-0.74259 -0.384473,-4.68306 -0.221142,-8.75658 L 39.5,343.5 h 72.5 72.5 v 8.5 8.5 l -72.27886,0.25658 c -59.936824,0.21277 -72.367327,0.026 -72.796965,-1.09358 z m 0.01309,-31.96589 c -0.292159,-0.76135 -0.397563,-4.71717 -0.234232,-8.79069 L 39.5,311.5 h 8.5 8.5 v 8.5 8.5 l -8.265768,0.2907 c -6.321186,0.22231 -8.390736,-0.035 -8.796967,-1.09359 z m 31.987583,-0.0324 c -0.28533,-0.74355 -0.385146,-4.68481 -0.221815,-8.75833 L 71.5,311.5 h 56.5 56.5 v 8.5 8.5 l -56.27818,0.25834 c -46.540528,0.21364 -56.367953,0.0244 -56.796972,-1.09359 z M 371.43156,258.52658 c 1.60788,-2.74365 4.35137,-5.48714 7.09502,-7.09502 L 383,248.80996 v -15.79569 -15.79568 l -11.25,-0.66106 C 322.17893,213.6447 291.29475,205.51878 282.5,193.07502 l -3,-4.24473 -0.28151,-41.91514 L 278.93699,105 H 247.96849 217 v 29.32186 c 0,33.75088 -0.37753,35.89777 -7.57895,43.09919 C 201.99768,184.84443 200.94878,185 158.32186,185 H 121 v 15 15 h 37.32186 c 42.62692,0 43.67582,0.15557 51.09919,7.57895 C 215.69369,228.85159 217,233.5224 217,249.67814 V 263 h 75.90498 75.90498 z m -177.0462,-92.6563 c 1.3637,-0.62135 2.96677,-2.30885 3.56238,-3.75 0.72492,-1.75407 0.9952,-14.19058 0.81759,-37.62028 L 198.5,89.5 H 112 25.5 l -0.288558,34 c -0.158707,18.7 -0.02658,35.45841 0.293608,37.24091 1.155462,6.43244 -2.415339,6.17482 86.1979,6.21905 57.55603,0.0287 80.90307,-0.27896 82.68241,-1.08968 z M 39.428492,151.67425 c -0.287334,-0.74878 -0.38879,-4.69431 -0.225459,-8.76783 L 39.5,135.5 H 64 88.5 v 8.5 8.5 l -24.274541,0.26783 c -19.74129,0.21782 -24.372104,0.0136 -24.796967,-1.09358 z m 64.008778,0.0229 c -0.29216,-0.76135 -0.39757,-4.71717 -0.23424,-8.79069 L 103.5,135.5 h 8.5 8.5 v 8.5 8.5 l -8.26577,0.2907 c -6.32118,0.22231 -8.39073,-0.035 -8.79696,-1.09359 z m 32.01919,0.05 c -0.27194,-0.70869 -0.3734,-11.85422 -0.22545,-24.76784 L 135.5,103.5 h 24.5 24.5 v 24.5 24.5 l -24.27454,0.26783 c -19.07904,0.21051 -24.38037,-0.008 -24.769,-1.02068 z M 39.426011,119.66778 c -0.285969,-0.74522 -0.386309,-4.68784 -0.222978,-8.76136 L 39.5,103.5 H 80 120.5 v 8.5 8.5 l -40.277023,0.26137 c -33.142813,0.21507 -40.369119,0.0214 -40.796966,-1.09359 z M 432.5,148.39215 c 24.0609,-2.35335 47.51586,-7.96334 52.42817,-12.53986 C 486.80983,134.09926 487,132.77834 487,121.46104 487,114.60747 486.62045,109 486.15655,109 c -0.4639,0 -3.3679,0.86854 -6.45334,1.93008 -7.54639,2.59634 -22.42363,5.61278 -38.20321,7.7459 -18.74126,2.53348 -80.25629,2.53427 -98.98306,0.001 -16.17754,-2.18819 -25.7133,-4.09528 -36.16155,-7.23206 C 301.87585,110.10033 297.93835,109 297.60539,109 297.27242,109 297,114.59286 297,121.42857 c 0,13.77759 0.22942,14.3535 6.84964,17.19421 6.5986,2.83145 25.41606,7.15871 38.65036,8.88804 25.79891,3.37116 61.01754,3.71604 90,0.88133 z m 0,-96.000005 c 24.55775,-2.401941 51,-8.826963 51,-12.392145 0,-1.901138 -12.3396,-6.1218 -26,-8.893092 -35.11015,-7.122816 -95.88985,-7.122816 -131,0 -12.02067,2.43864 -25.73824,6.931359 -26.26058,8.60075 -0.51988,1.661547 5.26158,3.970563 18.26058,7.292967 28.09763,7.18145 73.66558,9.336542 114,5.39152 z"
         id="path1102" />
      <path
         style="fill:#9d9ea0"
         d="m 303.24342,503.33553 c -5.71761,-2.0237 -12.6373,-9.10841 -14.64164,-14.99083 C 287.32981,484.61165 287,479.25356 287,462.32186 V 441 h -75.85499 -75.85499 l -2.84342,4.49842 C 128.09072,452.38961 119.90632,457 112.02892,457 98.962518,457 87,445.03748 87,431.97108 87,424.0647 91.977077,415.26982 98.671503,411.34662 L 103,408.80996 V 400.90498 393 H 65.678139 C 23.051224,393 22.002324,392.84443 14.578947,385.42105 6.7347902,377.5769 7,380.42606 7,304 7,227.57394 6.7347902,230.4231 14.578947,222.57895 22.002324,215.15557 23.051224,215 65.678139,215 H 103 V 200 185 H 65.678139 C 23.051224,185 22.002324,184.84443 14.578947,177.42105 6.7347902,169.5769 7,172.42606 7,96 7,19.573941 6.7347902,22.423105 14.578947,14.578947 22.534377,6.6235176 17.69501,7 112,7 206.30499,7 201.46562,6.6235176 209.42105,14.578947 216.62247,21.780366 217,23.927259 217,57.678139 V 87 h 31 31 V 62.157284 c 0,-24.00698 0.0776,-24.990982 2.3077,-29.25 C 286.69646,22.615736 304.15009,15.491301 334.91643,11.02462 390.23207,2.993852 461.88951,7.9282276 489.5,21.66934 c 7.53332,3.749162 11.07453,6.8203 13.39763,11.619196 C 504.97647,37.582837 505,38.465647 505,112.15844 v 74.52699 l -2.3077,4.40729 c -7.14014,13.63636 -38.26054,22.39858 -90.4423,25.46481 L 401,217.21859 v 15.79568 15.79569 l 4.3285,2.53666 C 412.03341,255.27597 417,264.06462 417,272 c 0,7.93538 -4.96659,16.72403 -11.6715,20.65338 L 401,295.19004 V 311.09502 327 h 37.32186 c 42.62692,0 43.67582,0.15557 51.09919,7.57895 C 497.26521,342.4231 497,339.57394 497,416 c 0,76.42606 0.26521,73.5769 -7.57895,81.42105 -7.96643,7.96643 -3.04265,7.58903 -97.84919,7.5 -72.20272,-0.0678 -84.6728,-0.29164 -88.32844,-1.58552 z m 171.14194,-17.46525 c 1.3637,-0.62135 2.96677,-2.30885 3.56238,-3.75 0.72492,-1.75407 0.9952,-14.19058 0.81759,-37.62028 L 478.5,409.5 H 392 305.5 l -0.28856,34 c -0.15871,18.7 -0.0266,35.45841 0.29361,37.24091 1.15546,6.43244 -2.41534,6.17482 86.1979,6.21905 57.55603,0.0287 80.90307,-0.27896 82.68241,-1.08968 z M 335,471.69264 c -4.90822,-1.54705 -13.27886,-10.21482 -14.78388,-15.30866 -2.98075,-10.0885 -0.88385,-18.78401 6.25,-25.91786 C 331.87682,425.05541 336.70388,423 344,423 c 7.29612,0 12.12318,2.05541 17.53388,7.46612 C 366.94459,435.87682 369,440.70388 369,448 c 0,7.29612 -2.05541,12.12318 -7.46612,17.53388 -7.08579,7.0858 -16.59221,9.29233 -26.53388,6.15876 z m 13.54545,-19.14719 C 349.89545,451.19545 351,449.15 351,448 c 0,-1.15 -1.10455,-3.19545 -2.45455,-4.54545 C 347.19545,442.10455 345.15,441 344,441 c -1.15,0 -3.19545,1.10455 -4.54545,2.45455 C 338.10455,444.80455 337,446.85 337,448 c 0,1.15 1.10455,3.19545 2.45455,4.54545 3.11461,3.11462 5.97629,3.11462 9.0909,0 z m 34.88304,19.1288 c -0.28733,-0.74878 -0.38879,-4.69431 -0.22546,-8.76783 L 383.5,455.5 h 24.5 24.5 v 8.5 8.5 l -24.27454,0.26783 c -19.74129,0.21782 -24.3721,0.0136 -24.79697,-1.09358 z m 64.00878,0.0229 c -0.29216,-0.76135 -0.39757,-4.71717 -0.23424,-8.79069 L 447.5,455.5 h 8.5 8.5 v 8.5 8.5 l -8.26577,0.2907 c -6.32118,0.22231 -8.39073,-0.035 -8.79696,-1.09359 z m -64.01126,-32.02933 c -0.28597,-0.74522 -0.38631,-4.68784 -0.22298,-8.76136 L 383.5,423.5 h 40.5 40.5 v 8.5 8.5 l -40.27702,0.26137 c -33.14282,0.21507 -40.36912,0.0214 -40.79697,-1.09359 z M 116.54545,436.54545 C 117.89545,435.19545 119,433.15 119,432 c 0,-2.698 -4.302,-7 -7,-7 -2.698,0 -7,4.302 -7,7 0,2.698 4.302,7 7,7 1.15,0 3.19545,-1.10455 4.54545,-2.45455 z M 287,385.67814 c 0,-42.62692 0.15557,-43.67582 7.57895,-51.09919 C 302.00232,327.15557 303.05122,327 345.67814,327 H 383 v -15.85499 -15.85499 l -4.59761,-2.89501 c -2.58447,-1.62738 -5.69115,-4.75595 -7.09502,-7.14501 L 368.80996,281 H 292.90498 217 v 45.32186 c 0,51.52681 9.7e-4,51.51928 -7.57895,59.09919 C 201.99768,392.84443 200.94878,393 158.32186,393 H 121 v 7.90498 7.90498 l 4.47342,2.6216 c 2.74365,1.60788 5.48714,4.35137 7.09502,7.09502 L 135.19004,423 H 211.09502 287 Z m -92.61464,-11.80786 c 1.3637,-0.62135 2.96677,-2.30885 3.56238,-3.75 0.72492,-1.75407 0.9952,-14.19058 0.81759,-37.62028 L 198.5,297.5 H 112 25.5 l -0.288558,34 c -0.158707,18.7 -0.02658,35.45841 0.293608,37.24091 1.155462,6.43244 -2.415339,6.17482 86.1979,6.21905 57.55603,0.0287 80.90307,-0.27896 82.68241,-1.08968 z M 39.424175,359.663 c -0.28496,-0.74259 -0.384473,-4.68306 -0.221142,-8.75658 L 39.5,343.5 h 72.5 72.5 v 8.5 8.5 l -72.27886,0.25658 c -59.936824,0.21277 -72.367327,0.026 -72.796965,-1.09358 z m 0.01309,-31.96589 c -0.292159,-0.76135 -0.397563,-4.71717 -0.234232,-8.79069 L 39.5,311.5 h 8.5 8.5 v 8.5 8.5 l -8.265768,0.2907 c -6.321186,0.22231 -8.390736,-0.035 -8.796967,-1.09359 z m 31.987583,-0.0324 c -0.28533,-0.74355 -0.385146,-4.68481 -0.221815,-8.75833 L 71.5,311.5 h 56.5 56.5 v 8.5 8.5 l -56.27818,0.25834 c -46.540528,0.21364 -56.367953,0.0244 -56.796972,-1.09359 z M 396.54545,276.54545 C 397.89545,275.19545 399,273.15 399,272 c 0,-1.15 -1.10455,-3.19545 -2.45455,-4.54545 C 395.19545,266.10455 393.15,265 392,265 c -1.15,0 -3.19545,1.10455 -4.54545,2.45455 C 386.10455,268.80455 385,270.85 385,272 c 0,1.15 1.10455,3.19545 2.45455,4.54545 3.11461,3.11462 5.97629,3.11462 9.0909,0 z m -25.11389,-18.01887 c 1.60788,-2.74365 4.35137,-5.48714 7.09502,-7.09502 L 383,248.80996 v -15.79569 -15.79568 l -11.25,-0.66106 C 322.17893,213.6447 291.29475,205.51878 282.5,193.07502 l -3,-4.24473 -0.28151,-41.91514 L 278.93699,105 H 247.96849 217 v 29.32186 c 0,33.75088 -0.37753,35.89777 -7.57895,43.09919 C 201.99768,184.84443 200.94878,185 158.32186,185 H 121 v 15 15 h 37.32186 c 42.62692,0 43.67582,0.15557 51.09919,7.57895 C 215.69369,228.85159 217,233.5224 217,249.67814 V 263 h 75.90498 75.90498 z m 53.17322,-60.55693 c 24.03517,-1.92046 44.93944,-6.0338 56.14522,-11.04772 l 6.25,-2.7965 v -14.17935 c 0,-13.05013 -0.13937,-14.13489 -1.75,-13.6211 -18.3134,5.84189 -28.27343,7.8243 -50.75246,10.10155 -47.23942,4.78562 -102.04061,1.1852 -130.40409,-8.5675 C 301.11985,156.83656 298.30735,156 297.84345,156 297.37955,156 297,162.29085 297,169.97968 v 13.97967 l 3.92765,2.00374 c 9.55915,4.87672 34.20855,10.1033 56.1318,11.90201 15.14317,1.24244 52.57905,1.30038 67.54533,0.10455 z M 194.38536,165.87028 c 1.3637,-0.62135 2.96677,-2.30885 3.56238,-3.75 0.72492,-1.75407 0.9952,-14.19058 0.81759,-37.62028 L 198.5,89.5 H 112 25.5 l -0.288558,34 c -0.158707,18.7 -0.02658,35.45841 0.293608,37.24091 1.155462,6.43244 -2.415339,6.17482 86.1979,6.21905 57.55603,0.0287 80.90307,-0.27896 82.68241,-1.08968 z M 39.428492,151.67425 c -0.287334,-0.74878 -0.38879,-4.69431 -0.225459,-8.76783 L 39.5,135.5 H 64 88.5 v 8.5 8.5 l -24.274541,0.26783 c -19.74129,0.21782 -24.372104,0.0136 -24.796967,-1.09358 z m 64.008778,0.0229 c -0.29216,-0.76135 -0.39757,-4.71717 -0.23424,-8.79069 L 103.5,135.5 h 8.5 8.5 v 8.5 8.5 l -8.26577,0.2907 c -6.32118,0.22231 -8.39073,-0.035 -8.79696,-1.09359 z m 32.01919,0.05 c -0.27194,-0.70869 -0.3734,-11.85422 -0.22545,-24.76784 L 135.5,103.5 h 24.5 24.5 v 24.5 24.5 l -24.27454,0.26783 c -19.07904,0.21051 -24.38037,-0.008 -24.769,-1.02068 z M 166.5,128 v -6.5 h -6.5 -6.5 l -0.3068,5.3808 c -0.45561,7.99094 -0.21388,8.26265 7.04386,7.91725 L 166.5,134.5 Z M 39.426011,119.66778 c -0.285969,-0.74522 -0.386309,-4.68784 -0.222978,-8.76136 L 39.5,103.5 H 80 120.5 v 8.5 8.5 l -40.277023,0.26137 c -33.142813,0.21507 -40.369119,0.0214 -40.796966,-1.09359 z M 421.5,149.94577 c 23.44672,-1.75196 45.56586,-5.69189 57,-10.15302 8.5304,-3.32821 8.5,-3.26184 8.5,-18.55473 0,-10.73796 -0.26658,-13.3497 -1.32131,-12.94496 -21.19339,8.13266 -51.56098,12.08467 -93.17869,12.12619 -41.74572,0.0416 -72.87896,-3.95272 -94.00965,-12.06133 C 297.2154,107.86868 297,109.73025 297,121.23802 c 0,15.29883 -0.0398,15.21213 8.54055,18.58581 6.10449,2.4002 24.82515,6.58669 36.45945,8.1534 21.70441,2.9228 55.52228,3.76018 79.5,1.96854 z m 3.10478,-47.97224 c 24.31335,-1.93537 48.42924,-6.889268 58.46757,-12.010443 L 487,87.959352 V 73.863045 c 0,-12.971052 -0.1397,-14.051745 -1.75,-13.538065 -27.2963,8.707402 -51.52204,11.863152 -91.75,11.951751 -35.68478,0.07859 -63.7782,-2.880728 -84,-8.848439 -4.95,-1.460808 -9.7875,-2.882262 -10.75,-3.158785 -1.60768,-0.461882 -1.75,0.643618 -1.75,13.593538 v 14.096307 l 3.92765,2.003735 c 9.37615,4.783357 34.74533,10.169343 56.07235,11.904393 15.22678,1.23877 52.63751,1.29746 67.60478,0.10605 z M 421,53.996458 c 22.30123,-1.649772 38.94504,-4.382609 52.69636,-8.652498 4.508,-1.399768 9.008,-3.174791 10,-3.944496 1.72871,-1.341324 1.72055,-1.463594 -0.19636,-2.943132 -4.68364,-3.614991 -28.47911,-9.084515 -50.5,-11.607709 -17.12073,-1.961726 -68.79759,-1.672687 -85.91689,0.480551 -22.90029,2.880362 -46.71958,9.080234 -47.8439,12.453188 -0.92344,2.770333 19.06048,8.673812 39.54988,11.683488 22.79372,3.348155 56.94788,4.399485 82.21091,2.530608 z"
         id="path1100" />
      <path
         style="fill:#5ad2af"
         d="M 305.99353,503.07682 C 299.09814,500.94863 293.86236,496.56794 290.36416,490 288.75086,486.97099 288.43272,483.40494 288,463.5 l -0.5,-23 -76.22286,-0.25624 -76.22286,-0.25624 -1.70928,2.75624 C 127.8776,451.56001 121.375,455.42457 112,455.42932 98.255491,455.43628 88.573976,445.7534 88.573976,432 c 0,-9.38634 3.858858,-15.87061 12.715674,-21.36689 2.73059,-1.69452 2.78352,-1.90481 2.5,-9.93214 L 103.5,392.5 64.5,392 C 26.945654,391.51853 25.351728,391.41999 21.5,389.34158 16.819527,386.81598 12.973278,382.89867 10.364162,378 8.5960044,374.68025 8.5,370.86925 8.5,304 8.5,233.67736 8.50543,233.48994 10.658417,229.5 13.184021,224.81953 17.101332,220.97328 22,218.36416 25.191266,216.66444 28.940175,216.4559 64.5,216 l 39,-0.5 V 200 184.5 L 64.5,184 C 26.945654,183.51853 25.351728,183.41999 21.5,181.34158 16.819527,178.81598 12.973278,174.89867 10.364162,170 8.5960044,166.68025 8.5,162.86925 8.5,96 8.5,25.677356 8.5054299,25.489937 10.658417,21.5 13.184021,16.819527 17.101332,12.973278 22,10.364162 25.337366,8.5866218 29.519386,8.5 112,8.5 c 82.48061,0 86.66263,0.086622 90,1.864162 4.89867,2.609116 8.81598,6.455365 11.34158,11.135838 2.04308,3.786253 2.18514,5.656541 2.65842,35 l 0.5,31 h 31.5 31.5 l 0.5,-26 c 0.34018,-17.689322 0.88734,-26.675356 1.71179,-28.112856 C 290.64414,17.812803 331.72217,8.5690306 392,8.5690306 c 62.25026,0 103.83333,9.8211504 110.64896,26.1332274 1.99232,4.7683 1.99232,149.827182 0,154.595482 -5.68774,13.61267 -34.87286,22.43939 -85.03977,25.71932 -8.73994,0.57143 -16.27744,1.27791 -16.75,1.56996 C 400.38664,216.87908 400,224.2811 400,233.03596 v 15.91793 l 2.75,1.7052 c 8.81183,5.46396 12.67602,11.96958 12.67602,21.34091 0,9.38065 -3.86087,15.873 -12.7006,21.35702 l -2.77459,1.7213 0.27459,16.21084 L 400.5,327.5 l 39,0.5 c 35.55983,0.4559 39.30873,0.66444 42.5,2.36416 4.89867,2.60912 8.81598,6.45537 11.34158,11.13584 2.15299,3.98994 2.15842,4.17736 2.15842,74.5 0,70.32264 -0.005,70.51006 -2.15842,74.5 -2.5256,4.68047 -6.44291,8.52672 -11.34158,11.13584 -3.32824,1.77268 -7.67141,1.87276 -88.5,2.03937 -46.75,0.0964 -86.12791,-0.17291 -87.50647,-0.59839 z m 171.09578,-18.01228 2.93546,-2.93547 -0.26238,-36.81453 L 479.5,408.5 H 392 304.5 l -0.26239,36.81454 -0.26238,36.81453 2.93546,2.93547 L 309.84615,488 H 392 474.15385 Z M 335.50463,470.39694 C 326.99797,467.28385 320,457.17506 320,448 c 0,-12.58719 11.41281,-24 24,-24 12.58719,0 24,11.41281 24,24 0,16.29665 -17.05114,28.04888 -32.49537,22.39694 z m 13.18092,-17.57125 c 2.90526,-2.72935 2.96094,-6.50863 0.14014,-9.51124 -2.72935,-2.90526 -6.50863,-2.96094 -9.51124,-0.14014 -2.90526,2.72935 -2.96094,6.50863 -0.14014,9.51124 2.72935,2.90526 6.50863,2.96094 9.51124,0.14014 z m 35.73869,17.83747 c -0.28995,-0.7556 -0.39152,-4.25142 -0.22571,-7.76849 L 384.5,456.5 h 23.5 23.5 v 7.5 7.5 l -23.27429,0.26849 c -18.99923,0.21917 -23.37112,0.0162 -23.80147,-1.10533 z m 64.00983,0.0256 c -0.29536,-0.76968 -0.40135,-4.27703 -0.23554,-7.7941 L 448.5,456.5 h 7.5 7.5 v 7.5 7.5 l -7.26446,0.2941 c -5.50779,0.22298 -7.39432,-0.0443 -7.80147,-1.10533 z M 384.42161,438.6563 c -0.28851,-0.75182 -0.38889,-4.24456 -0.22308,-7.76163 L 384.5,424.5 h 39.5 39.5 v 7.5 7.5 l -39.27692,0.26163 c -32.46982,0.21629 -39.36783,0.0247 -39.80147,-1.10533 z m -267.73606,-1.83061 c 2.90526,-2.72935 2.96094,-6.50863 0.14014,-9.51124 -2.72935,-2.90526 -6.50863,-2.96094 -9.51124,-0.14014 -2.90526,2.72935 -2.96094,6.50863 -0.14014,9.51124 2.72935,2.90526 6.50863,2.96094 9.51124,0.14014 z M 288,384.5 c 0.48147,-37.55435 0.58001,-39.14827 2.65842,-43 2.5256,-4.68047 6.44291,-8.52672 11.34158,-11.13584 3.19127,-1.69972 6.94017,-1.90826 42.5,-2.36416 l 39,-0.5 0.27464,-16.2219 0.27463,-16.22191 -3.77463,-2.40844 c -4.04919,-2.58363 -6.8838,-5.50278 -9.61716,-9.90399 l -1.71176,-2.75624 -76.22286,0.25624 L 216.5,280.5 l -0.5,47 c -0.48681,45.75997 -0.55695,47.10553 -2.65842,51 -2.5256,4.68047 -6.44291,8.52672 -11.34158,11.13584 -3.19127,1.69972 -6.94017,1.90826 -42.5,2.36416 l -39,0.5 -0.28983,8.21231 -0.28984,8.21231 3.78984,2.41804 c 4.06344,2.59262 6.89654,5.50843 9.63235,9.91358 l 1.71176,2.75624 76.22286,-0.25624 L 287.5,423.5 Z m -90.91069,-11.43546 2.93546,-2.93547 -0.26238,-36.81453 L 199.5,296.5 H 112 24.5 l -0.262387,36.81454 -0.262387,36.81453 2.935464,2.93547 L 29.846154,376 H 112 194.15385 Z M 40.419703,358.65134 c -0.287457,-0.7491 -0.386986,-4.2396 -0.221176,-7.75667 L 40.5,344.5 h 71.5 71.5 v 7.5 7.5 l -71.27882,0.25667 c -59.401487,0.2139 -71.36592,0.0297 -71.801477,-1.10533 z m 0.01436,-31.96257 c -0.295356,-0.76968 -0.401349,-4.27703 -0.235539,-7.7941 L 40.5,312.5 h 7.5 7.5 v 7.5 7.5 l -7.264461,0.2941 c -5.507794,0.22298 -7.39432,-0.0443 -7.801473,-1.10533 z m 31.986331,-0.0356 c -0.287838,-0.75009 -0.38768,-4.24141 -0.22187,-7.75848 L 72.5,312.5 h 55.5 55.5 v 7.5 7.5 l -55.27813,0.25848 c -45.936379,0.2148 -55.366574,0.028 -55.801473,-1.10533 z M 396.68555,276.82569 c 2.90526,-2.72935 2.96094,-6.50863 0.14014,-9.51124 -2.72935,-2.90526 -6.50863,-2.96094 -9.51124,-0.14014 -2.90526,2.72935 -2.96094,6.50863 -0.14014,9.51124 2.72935,2.90526 6.50863,2.96094 9.51124,0.14014 z M 371.36781,260.25 c 2.57189,-4.03051 5.49263,-6.86215 9.90677,-9.60454 l 2.77459,-1.72378 -0.27459,-16.21084 L 383.5,216.5 377,215.84396 c -3.575,-0.36083 -13.42471,-1.16925 -21.88824,-1.7965 -39.59165,-2.93422 -66.58525,-11.55253 -73.39997,-23.4346 C 280.83886,189.09084 280.36018,176.7551 280,146.5 l -0.5,-42 H 248 216.5 l -0.5,31 c -0.44739,27.73817 -0.69615,31.36827 -2.36416,34.5 -2.60912,4.89867 -6.45537,8.81598 -11.13584,11.34158 -3.85173,2.07841 -5.44565,2.17695 -43,2.65842 l -39,0.5 v 15.5 15.5 l 39,0.5 c 37.55435,0.48147 39.14827,0.58001 43,2.65842 4.69609,2.53403 8.54665,6.46367 11.11332,11.34158 1.47643,2.80592 1.90542,6.27631 2.16326,17.5 0.17688,7.7 0.5104,14.5625 0.74113,15.25 0.3307,0.98536 16.5137,1.25 76.43836,1.25 h 76.01884 z M 428,197.88167 c 25.97523,-2.10622 52.50676,-8.29752 57.66595,-13.45671 2.30931,-2.30931 2.38413,-2.8458 2.11404,-15.1595 L 487.5,156.5 485,156.70057 c -1.375,0.11032 -7.45,1.5299 -13.5,3.15462 -20.7922,5.58374 -45.65196,8.12418 -79.5,8.12418 -33.84804,0 -58.7078,-2.54044 -79.5,-8.12418 -6.05,-1.62472 -12.125,-3.0443 -13.5,-3.15462 l -2.5,-0.20057 -0.2818,12.377 c -0.33701,14.80198 0.19836,16.007 8.49997,19.13185 26.174,9.85226 75.15751,13.77503 123.28183,9.87282 z m -230.91069,-32.81713 2.93546,-2.93547 -0.26238,-36.81453 L 199.5,88.5 H 112 24.5 l -0.262387,36.81454 -0.262387,36.81453 2.935464,2.93547 L 29.846154,168 H 112 194.15385 Z M 40.424238,150.66316 c -0.289951,-0.7556 -0.391521,-4.25142 -0.225711,-7.76849 L 40.5,136.5 H 64 87.5 v 7.5 7.5 l -23.274289,0.26849 c -18.999233,0.21917 -23.371124,0.0161 -23.801473,-1.10533 z m 64.009832,0.0256 c -0.29536,-0.76968 -0.40135,-4.27703 -0.23554,-7.7941 L 104.5,136.5 h 7.5 7.5 v 7.5 7.5 l -7.26446,0.2941 c -5.50779,0.22298 -7.39432,-0.0443 -7.80147,-1.10533 z m 32.0219,0.0571 c -0.27249,-0.71011 -0.37406,-11.40594 -0.22571,-23.76849 L 136.5,104.5 h 23.5 23.5 v 23.5 23.5 l -23.27429,0.26849 c -18.28732,0.21096 -23.38045,-0.008 -23.76974,-1.02263 z M 167,128 v -7 h -7 -7 v 7 7 h 7 7 z M 40.421606,118.6563 c -0.288503,-0.75182 -0.388889,-4.24456 -0.223079,-7.76163 L 40.5,104.5 H 80 119.5 v 7.5 7.5 l -39.276921,0.26163 c -32.469822,0.21629 -39.367832,0.0247 -39.801473,-1.10533 z M 431,150.00923 c 27.1734,-2.74985 50.66269,-8.66406 55.45868,-13.96358 2.29117,-2.53171 1.86821,-28.66107 -0.45868,-28.33628 -0.825,0.11516 -5.29711,1.3624 -9.93801,2.77164 -21.13923,6.41909 -45.35362,9.01626 -84.06199,9.01626 -38.70837,0 -62.92276,-2.59717 -84.06199,-9.01626 -4.6409,-1.40924 -9.11301,-2.65648 -9.93801,-2.77164 -1.25888,-0.17571 -1.54462,1.98578 -1.77761,13.44634 l -0.2776,13.6557 2.6106,2.0535 c 7.80918,6.1427 34.14301,11.77933 65.94461,14.11513 14.38463,1.05654 51.87453,0.50924 66.5,-0.97081 z m -3,-48.12756 c 25.97523,-2.106222 52.50676,-8.297522 57.66595,-13.45671 2.30931,-2.309311 2.38413,-2.845802 2.11404,-15.159498 L 487.5,60.5 485,60.67481 c -1.375,0.09614 -6.55,1.346063 -11.5,2.777595 -19.20577,5.55428 -47.9398,8.553019 -81.80447,8.537278 C 358.11215,71.974072 333.20651,69.415913 312.5,63.855192 306.45,62.230468 300.375,60.81089 299,60.700574 L 296.5,60.5 296.2182,72.876997 c -0.33701,14.801986 0.19836,16.007007 8.49997,19.131851 26.174,9.852262 75.15751,13.775032 123.28183,9.872822 z M 417.51707,54.949599 c 32.07913,-2.108244 59.47899,-7.605277 67.04275,-13.450292 1.92024,-1.483899 1.92024,-1.514715 0,-2.998614 C 472.31078,29.035053 416.01944,22.247763 371.25,24.83844 c -35.69724,2.065696 -63.69679,7.39278 -71.80982,13.662253 -1.92024,1.483899 -1.92024,1.514715 0,2.998614 3.23424,2.499313 12.45899,5.571751 24.05982,8.013476 26.87368,5.656335 60.81313,7.618984 94.01707,5.436816 z"
         id="path1098" />
      <path
         style="fill:#3b8b74"
         d="M 305.99353,503.07682 C 299.09814,500.94863 293.86236,496.56794 290.36416,490 288.75086,486.97099 288.43272,483.40494 288,463.5 l -0.5,-23 -76.22286,-0.25624 -76.22286,-0.25624 -1.70928,2.75624 C 127.8776,451.56001 121.375,455.42457 112,455.42932 98.255491,455.43628 88.573976,445.7534 88.573976,432 c 0,-9.38634 3.858858,-15.87061 12.715674,-21.36689 2.73059,-1.69452 2.78352,-1.90481 2.5,-9.93214 L 103.5,392.5 64.5,392 C 26.945654,391.51853 25.351728,391.41999 21.5,389.34158 16.819527,386.81598 12.973278,382.89867 10.364162,378 8.5960044,374.68025 8.5,370.86925 8.5,304 8.5,233.67736 8.50543,233.48994 10.658417,229.5 13.184021,224.81953 17.101332,220.97328 22,218.36416 25.191266,216.66444 28.940175,216.4559 64.5,216 l 39,-0.5 V 200 184.5 L 64.5,184 C 26.945654,183.51853 25.351728,183.41999 21.5,181.34158 16.819527,178.81598 12.973278,174.89867 10.364162,170 8.5960044,166.68025 8.5,162.86925 8.5,96 8.5,25.677356 8.5054299,25.489937 10.658417,21.5 13.184021,16.819527 17.101332,12.973278 22,10.364162 25.337366,8.5866218 29.519386,8.5 112,8.5 c 82.48061,0 86.66263,0.086622 90,1.864162 4.89867,2.609116 8.81598,6.455365 11.34158,11.135838 2.04308,3.786253 2.18514,5.656541 2.65842,35 l 0.5,31 h 31.5 31.5 l 0.5,-26 c 0.34018,-17.689322 0.88734,-26.675356 1.71179,-28.112856 C 290.64414,17.812803 331.72217,8.5690306 392,8.5690306 c 62.25026,0 103.83333,9.8211504 110.64896,26.1332274 1.99232,4.7683 1.99232,149.827182 0,154.595482 -5.68774,13.61267 -34.87286,22.43939 -85.03977,25.71932 -8.73994,0.57143 -16.27744,1.27791 -16.75,1.56996 C 400.38664,216.87908 400,224.2811 400,233.03596 v 15.91793 l 2.75,1.7052 c 8.81183,5.46396 12.67602,11.96958 12.67602,21.34091 0,9.38065 -3.86087,15.873 -12.7006,21.35702 l -2.77459,1.7213 0.27459,16.21084 L 400.5,327.5 l 39,0.5 c 35.55983,0.4559 39.30873,0.66444 42.5,2.36416 4.89867,2.60912 8.81598,6.45537 11.34158,11.13584 2.15299,3.98994 2.15842,4.17736 2.15842,74.5 0,70.32264 -0.005,70.51006 -2.15842,74.5 -2.5256,4.68047 -6.44291,8.52672 -11.34158,11.13584 -3.32824,1.77268 -7.67141,1.87276 -88.5,2.03937 -46.75,0.0964 -86.12791,-0.17291 -87.50647,-0.59839 z m 171.09578,-18.01228 2.93546,-2.93547 -0.26238,-36.81453 L 479.5,408.5 H 392 304.5 l -0.26239,36.81454 -0.26238,36.81453 2.93546,2.93547 L 309.84615,488 H 392 474.15385 Z M 335.50463,470.39694 C 326.99797,467.28385 320,457.17506 320,448 c 0,-12.58719 11.41281,-24 24,-24 12.58719,0 24,11.41281 24,24 0,16.29665 -17.05114,28.04888 -32.49537,22.39694 z m 13.18092,-17.57125 c 2.90526,-2.72935 2.96094,-6.50863 0.14014,-9.51124 -2.72935,-2.90526 -6.50863,-2.96094 -9.51124,-0.14014 -2.90526,2.72935 -2.96094,6.50863 -0.14014,9.51124 2.72935,2.90526 6.50863,2.96094 9.51124,0.14014 z m 35.73869,17.83747 c -0.28995,-0.7556 -0.39152,-4.25142 -0.22571,-7.76849 L 384.5,456.5 h 23.5 23.5 v 7.5 7.5 l -23.27429,0.26849 c -18.99923,0.21917 -23.37112,0.0162 -23.80147,-1.10533 z m 64.00983,0.0256 c -0.29536,-0.76968 -0.40135,-4.27703 -0.23554,-7.7941 L 448.5,456.5 h 7.5 7.5 v 7.5 7.5 l -7.26446,0.2941 c -5.50779,0.22298 -7.39432,-0.0443 -7.80147,-1.10533 z M 384.42161,438.6563 c -0.28851,-0.75182 -0.38889,-4.24456 -0.22308,-7.76163 L 384.5,424.5 h 39.5 39.5 v 7.5 7.5 l -39.27692,0.26163 c -32.46982,0.21629 -39.36783,0.0247 -39.80147,-1.10533 z m -267.73606,-1.83061 c 2.90526,-2.72935 2.96094,-6.50863 0.14014,-9.51124 -2.72935,-2.90526 -6.50863,-2.96094 -9.51124,-0.14014 -2.90526,2.72935 -2.96094,6.50863 -0.14014,9.51124 2.72935,2.90526 6.50863,2.96094 9.51124,0.14014 z M 288,384.5 c 0.48147,-37.55435 0.58001,-39.14827 2.65842,-43 2.5256,-4.68047 6.44291,-8.52672 11.34158,-11.13584 3.19127,-1.69972 6.94017,-1.90826 42.5,-2.36416 l 39,-0.5 0.27464,-16.2219 0.27463,-16.22191 -3.77463,-2.40844 c -4.04919,-2.58363 -6.8838,-5.50278 -9.61716,-9.90399 l -1.71176,-2.75624 -76.22286,0.25624 L 216.5,280.5 l -0.5,47 c -0.48681,45.75997 -0.55695,47.10553 -2.65842,51 -2.5256,4.68047 -6.44291,8.52672 -11.34158,11.13584 -3.19127,1.69972 -6.94017,1.90826 -42.5,2.36416 l -39,0.5 -0.28983,8.21231 -0.28984,8.21231 3.78984,2.41804 c 4.06344,2.59262 6.89654,5.50843 9.63235,9.91358 l 1.71176,2.75624 76.22286,-0.25624 L 287.5,423.5 Z m 190.77078,-14.27467 0.27079,-20.27467 -2.47533,-2.47533 L 474.09091,345 H 392 309.90909 l -2.45454,2.45455 C 305.01312,349.89597 305,350.01534 305,369.78788 c 0,10.93333 0.30248,20.18127 0.67219,20.55097 0.3697,0.36971 39.4072,0.55721 86.75,0.41667 L 478.5,390.5 Z m -159.33351,5.47178 c -0.29216,-0.76135 -0.39757,-4.71717 -0.23424,-8.79069 L 319.5,359.5 h 8.5 8.5 v 8.5 8.5 l -8.26577,0.2907 c -6.32118,0.22231 -8.39073,-0.035 -8.79696,-1.09359 z m 32,0 c -0.29216,-0.76135 -0.39757,-4.71717 -0.23424,-8.79069 L 351.5,359.5 h 8.5 8.5 v 8.5 8.5 l -8.26577,0.2907 c -6.32118,0.22231 -8.39073,-0.035 -8.79696,-1.09359 z m 32,0 c -0.29216,-0.76135 -0.39757,-4.71717 -0.23424,-8.79069 L 383.5,359.5 h 8.5 8.5 v 8.5 8.5 l -8.26577,0.2907 c -6.32118,0.22231 -8.39073,-0.035 -8.79696,-1.09359 z m -186.34796,-2.63257 2.93546,-2.93547 -0.26238,-36.81453 L 199.5,296.5 H 112 24.5 l -0.262387,36.81454 -0.262387,36.81453 2.935464,2.93547 L 29.846154,376 H 112 194.15385 Z M 40.419703,358.65134 c -0.287457,-0.7491 -0.386986,-4.2396 -0.221176,-7.75667 L 40.5,344.5 h 71.5 71.5 v 7.5 7.5 l -71.27882,0.25667 c -59.401487,0.2139 -71.36592,0.0297 -71.801477,-1.10533 z m 0.01436,-31.96257 c -0.295356,-0.76968 -0.401349,-4.27703 -0.235539,-7.7941 L 40.5,312.5 h 7.5 7.5 v 7.5 7.5 l -7.264461,0.2941 c -5.507794,0.22298 -7.39432,-0.0443 -7.801473,-1.10533 z m 31.986331,-0.0356 c -0.287838,-0.75009 -0.38768,-4.24141 -0.22187,-7.75848 L 72.5,312.5 h 55.5 55.5 v 7.5 7.5 l -55.27813,0.25848 c -45.936379,0.2148 -55.366574,0.028 -55.801473,-1.10533 z m 126.350386,-68.42782 0.27079,-20.27467 -2.47533,-2.47533 L 194.09091,233 H 112 29.909091 l -2.454546,2.45455 C 25.013119,237.89597 25,238.01534 25,257.78788 c 0,10.93333 0.302484,20.18127 0.672187,20.55097 0.369702,0.36971 39.407202,0.55721 86.750003,0.41667 L 198.5,278.5 l 0.27078,-20.27467 z m -159.333518,5.47178 c -0.292159,-0.76135 -0.397563,-4.71717 -0.234232,-8.79069 L 39.5,247.5 h 8.5 8.5 v 8.5 8.5 l -8.265768,0.2907 c -6.321186,0.22231 -8.390736,-0.035 -8.796967,-1.09359 z m 32,0 c -0.292159,-0.76135 -0.397563,-4.71717 -0.234232,-8.79069 L 71.5,247.5 h 8.5 8.5 v 8.5 8.5 l -8.265768,0.2907 c -6.321186,0.22231 -8.390736,-0.035 -8.796967,-1.09359 z m 32.000008,0 c -0.29216,-0.76135 -0.39757,-4.71717 -0.23424,-8.79069 L 103.5,247.5 h 8.5 8.5 v 8.5 8.5 l -8.26577,0.2907 c -6.32118,0.22231 -8.39073,-0.035 -8.79696,-1.09359 z m 293.24828,13.12858 c 2.90526,-2.72935 2.96094,-6.50863 0.14014,-9.51124 -2.72935,-2.90526 -6.50863,-2.96094 -9.51124,-0.14014 -2.90526,2.72935 -2.96094,6.50863 -0.14014,9.51124 2.72935,2.90526 6.50863,2.96094 9.51124,0.14014 z M 371.36781,260.25 c 2.57189,-4.03051 5.49263,-6.86215 9.90677,-9.60454 l 2.77459,-1.72378 -0.27459,-16.21084 L 383.5,216.5 377,215.84396 c -3.575,-0.36083 -13.42471,-1.16925 -21.88824,-1.7965 -39.59165,-2.93422 -66.58525,-11.55253 -73.39997,-23.4346 C 280.83886,189.09084 280.36018,176.7551 280,146.5 l -0.5,-42 H 248 216.5 l -0.5,31 c -0.44739,27.73817 -0.69615,31.36827 -2.36416,34.5 -2.60912,4.89867 -6.45537,8.81598 -11.13584,11.34158 -3.85173,2.07841 -5.44565,2.17695 -43,2.65842 l -39,0.5 v 15.5 15.5 l 39,0.5 c 37.55435,0.48147 39.14827,0.58001 43,2.65842 4.69609,2.53403 8.54665,6.46367 11.11332,11.34158 1.47643,2.80592 1.90542,6.27631 2.16326,17.5 0.17688,7.7 0.5104,14.5625 0.74113,15.25 0.3307,0.98536 16.5137,1.25 76.43836,1.25 h 76.01884 z M 428,197.88167 c 25.97523,-2.10622 52.50676,-8.29752 57.66595,-13.45671 2.30931,-2.30931 2.38413,-2.8458 2.11404,-15.1595 L 487.5,156.5 485,156.70057 c -1.375,0.11032 -7.45,1.5299 -13.5,3.15462 -20.7922,5.58374 -45.65196,8.12418 -79.5,8.12418 -33.84804,0 -58.7078,-2.54044 -79.5,-8.12418 -6.05,-1.62472 -12.125,-3.0443 -13.5,-3.15462 l -2.5,-0.20057 -0.2818,12.377 c -0.33701,14.80198 0.19836,16.007 8.49997,19.13185 26.174,9.85226 75.15751,13.77503 123.28183,9.87282 z m -230.91069,-32.81713 2.93546,-2.93547 -0.26238,-36.81453 L 199.5,88.5 H 112 24.5 l -0.262387,36.81454 -0.262387,36.81453 2.935464,2.93547 L 29.846154,168 H 112 194.15385 Z M 40.424238,150.66316 c -0.289951,-0.7556 -0.391521,-4.25142 -0.225711,-7.76849 L 40.5,136.5 H 64 87.5 v 7.5 7.5 l -23.274289,0.26849 c -18.999233,0.21917 -23.371124,0.0161 -23.801473,-1.10533 z m 64.009832,0.0256 c -0.29536,-0.76968 -0.40135,-4.27703 -0.23554,-7.7941 L 104.5,136.5 h 7.5 7.5 v 7.5 7.5 l -7.26446,0.2941 c -5.50779,0.22298 -7.39432,-0.0443 -7.80147,-1.10533 z m 32.0219,0.0571 c -0.27249,-0.71011 -0.37406,-11.40594 -0.22571,-23.76849 L 136.5,104.5 h 23.5 23.5 v 23.5 23.5 l -23.27429,0.26849 c -18.28732,0.21096 -23.38045,-0.008 -23.76974,-1.02263 z M 167,128 v -7 h -7 -7 v 7 7 h 7 7 z M 40.421606,118.6563 c -0.288503,-0.75182 -0.388889,-4.24456 -0.223079,-7.76163 L 40.5,104.5 H 80 119.5 v 7.5 7.5 l -39.276921,0.26163 c -32.469822,0.21629 -39.367832,0.0247 -39.801473,-1.10533 z M 431,150.00923 c 27.1734,-2.74985 50.66269,-8.66406 55.45868,-13.96358 2.29117,-2.53171 1.86821,-28.66107 -0.45868,-28.33628 -0.825,0.11516 -5.29711,1.3624 -9.93801,2.77164 -21.13923,6.41909 -45.35362,9.01626 -84.06199,9.01626 -38.70837,0 -62.92276,-2.59717 -84.06199,-9.01626 -4.6409,-1.40924 -9.11301,-2.65648 -9.93801,-2.77164 -1.25888,-0.17571 -1.54462,1.98578 -1.77761,13.44634 l -0.2776,13.6557 2.6106,2.0535 c 7.80918,6.1427 34.14301,11.77933 65.94461,14.11513 14.38463,1.05654 51.87453,0.50924 66.5,-0.97081 z m -3,-48.12756 c 25.97523,-2.106222 52.50676,-8.297522 57.66595,-13.45671 2.30931,-2.309311 2.38413,-2.845802 2.11404,-15.159498 L 487.5,60.5 485,60.67481 c -1.375,0.09614 -6.55,1.346063 -11.5,2.777595 -19.20577,5.55428 -47.9398,8.553019 -81.80447,8.537278 C 358.11215,71.974072 333.20651,69.415913 312.5,63.855192 306.45,62.230468 300.375,60.81089 299,60.700574 L 296.5,60.5 296.2182,72.876997 c -0.33701,14.801986 0.19836,16.007007 8.49997,19.131851 26.174,9.852262 75.15751,13.775032 123.28183,9.872822 z M 198.77078,50.22533 199.04157,29.950659 196.56624,27.47533 194.09091,25 H 112 29.909091 l -2.454546,2.454545 C 25.013119,29.895972 25,30.015339 25,49.787879 c 0,10.933333 0.302484,20.181272 0.672187,20.550974 0.369702,0.369703 39.407202,0.557203 86.750003,0.416667 L 198.5,70.5 Z M 39.437265,55.697112 C 39.145106,54.935757 39.039702,50.979944 39.203033,46.906415 L 39.5,39.5 h 8.5 8.5 v 8.5 8.5 l -8.265768,0.290697 c -6.321186,0.222309 -8.390736,-0.03496 -8.796967,-1.093585 z m 32,0 C 71.145106,54.935757 71.039702,50.979944 71.203033,46.906415 L 71.5,39.5 h 8.5 8.5 v 8.5 8.5 l -8.265768,0.290697 c -6.321186,0.222309 -8.390736,-0.03496 -8.796967,-1.093585 z m 32.000005,0 c -0.29216,-0.761355 -0.39757,-4.717168 -0.23424,-8.790697 L 103.5,39.5 h 8.5 8.5 v 8.5 8.5 l -8.26577,0.290697 c -6.32118,0.222309 -8.39073,-0.03496 -8.79696,-1.093585 z m 314.0798,-0.747513 c 32.07913,-2.108244 59.47899,-7.605277 67.04275,-13.450292 1.92024,-1.483899 1.92024,-1.514715 0,-2.998614 C 472.31078,29.035053 416.01944,22.247763 371.25,24.83844 c -35.69724,2.065696 -63.69679,7.39278 -71.80982,13.662253 -1.92024,1.483899 -1.92024,1.514715 0,2.998614 3.23424,2.499313 12.45899,5.571751 24.05982,8.013476 26.87368,5.656335 60.81313,7.618984 94.01707,5.436816 z"
         id="path1096" />
      <path
         style="fill:#535354"
         d="M 305.99353,503.07682 C 299.09814,500.94863 293.86236,496.56794 290.36416,490 288.75086,486.97099 288.43272,483.40494 288,463.5 l -0.5,-23 -76.22286,-0.25624 -76.22286,-0.25624 -1.70928,2.75624 C 127.8776,451.56001 121.375,455.42457 112,455.42932 98.255491,455.43628 88.573976,445.7534 88.573976,432 c 0,-9.38634 3.858858,-15.87061 12.715674,-21.36689 2.73059,-1.69452 2.78352,-1.90481 2.5,-9.93214 L 103.5,392.5 64.5,392 C 26.945654,391.51853 25.351728,391.41999 21.5,389.34158 16.819527,386.81598 12.973278,382.89867 10.364162,378 8.5960044,374.68025 8.5,370.86925 8.5,304 8.5,233.67736 8.50543,233.48994 10.658417,229.5 13.184021,224.81953 17.101332,220.97328 22,218.36416 25.191266,216.66444 28.940175,216.4559 64.5,216 l 39,-0.5 V 200 184.5 L 64.5,184 C 26.945654,183.51853 25.351728,183.41999 21.5,181.34158 16.819527,178.81598 12.973278,174.89867 10.364162,170 8.5960044,166.68025 8.5,162.86925 8.5,96 8.5,25.677356 8.5054299,25.489937 10.658417,21.5 13.184021,16.819527 17.101332,12.973278 22,10.364162 25.337366,8.5866218 29.519386,8.5 112,8.5 c 82.48061,0 86.66263,0.086622 90,1.864162 4.89867,2.609116 8.81598,6.455365 11.34158,11.135838 2.04308,3.786253 2.18514,5.656541 2.65842,35 l 0.5,31 h 31.5 31.5 l 0.5,-26 c 0.34018,-17.689322 0.88734,-26.675356 1.71179,-28.112856 C 290.64414,17.812803 331.72217,8.5690306 392,8.5690306 c 62.25026,0 103.83333,9.8211504 110.64896,26.1332274 1.99232,4.7683 1.99232,149.827182 0,154.595482 -5.68774,13.61267 -34.87286,22.43939 -85.03977,25.71932 -8.73994,0.57143 -16.27744,1.27791 -16.75,1.56996 C 400.38664,216.87908 400,224.2811 400,233.03596 v 15.91793 l 2.75,1.7052 c 8.81183,5.46396 12.67602,11.96958 12.67602,21.34091 0,9.38065 -3.86087,15.873 -12.7006,21.35702 l -2.77459,1.7213 0.27459,16.21084 L 400.5,327.5 l 39,0.5 c 35.55983,0.4559 39.30873,0.66444 42.5,2.36416 4.89867,2.60912 8.81598,6.45537 11.34158,11.13584 2.15299,3.98994 2.15842,4.17736 2.15842,74.5 0,70.32264 -0.005,70.51006 -2.15842,74.5 -2.5256,4.68047 -6.44291,8.52672 -11.34158,11.13584 -3.32824,1.77268 -7.67141,1.87276 -88.5,2.03937 -46.75,0.0964 -86.12791,-0.17291 -87.50647,-0.59839 z m 169.39183,-16.20654 c 1.3637,-0.62135 2.96669,-2.30885 3.56219,-3.75 0.7261,-1.75721 0.9954,-14.478 0.81759,-38.62028 L 479.5,408.5 H 392 304.5 l -0.26514,36 c -0.27801,37.74728 -0.0294,40.32148 4.08632,42.31127 3.17798,1.53643 163.69716,1.59313 167.06418,0.059 z M 336,470.69264 c -4.90822,-1.54705 -13.27886,-10.21482 -14.78388,-15.30866 -2.77033,-9.37635 -0.81722,-16.85065 6.25,-23.91786 C 332.64532,426.28691 337.70974,424 344,424 c 12.39066,0 24,11.60934 24,24 0,6.29026 -2.28691,11.35468 -7.46612,16.53388 -7.03644,7.03645 -15.2265,9.09241 -24.53388,6.15876 z m 12.68555,-17.86695 c 2.90526,-2.72935 2.96094,-6.50863 0.14014,-9.51124 -2.72935,-2.90526 -6.50863,-2.96094 -9.51124,-0.14014 -2.90526,2.72935 -2.96094,6.50863 -0.14014,9.51124 2.72935,2.90526 6.50863,2.96094 9.51124,0.14014 z m 35.73869,17.83747 c -0.28995,-0.7556 -0.39152,-4.25142 -0.22571,-7.76849 L 384.5,456.5 h 23.5 23.5 v 7.5 7.5 l -23.27429,0.26849 c -18.99923,0.21917 -23.37112,0.0162 -23.80147,-1.10533 z m 64.00983,0.0256 c -0.29536,-0.76968 -0.40135,-4.27703 -0.23554,-7.7941 L 448.5,456.5 h 7.5 7.5 v 7.5 7.5 l -7.26446,0.2941 c -5.50779,0.22298 -7.39432,-0.0443 -7.80147,-1.10533 z M 384.42161,438.6563 c -0.28851,-0.75182 -0.38889,-4.24456 -0.22308,-7.76163 L 384.5,424.5 h 39.5 39.5 v 7.5 7.5 l -39.27692,0.26163 c -32.46982,0.21629 -39.36783,0.0247 -39.80147,-1.10533 z m -267.73606,-1.83061 c 2.90526,-2.72935 2.96094,-6.50863 0.14014,-9.51124 -2.72935,-2.90526 -6.50863,-2.96094 -9.51124,-0.14014 -2.90526,2.72935 -2.96094,6.50863 -0.14014,9.51124 2.72935,2.90526 6.50863,2.96094 9.51124,0.14014 z M 288,384.5 c 0.48147,-37.55435 0.58001,-39.14827 2.65842,-43 2.5256,-4.68047 6.44291,-8.52672 11.34158,-11.13584 3.19127,-1.69972 6.94017,-1.90826 42.5,-2.36416 l 39,-0.5 0.27464,-16.2219 0.27463,-16.22191 -3.77463,-2.40844 c -4.04919,-2.58363 -6.8838,-5.50278 -9.61716,-9.90399 l -1.71176,-2.75624 -76.22286,0.25624 L 216.5,280.5 l -0.5,47 c -0.48681,45.75997 -0.55695,47.10553 -2.65842,51 -2.5256,4.68047 -6.44291,8.52672 -11.34158,11.13584 -3.19127,1.69972 -6.94017,1.90826 -42.5,2.36416 l -39,0.5 -0.28983,8.21231 -0.28984,8.21231 3.78984,2.41804 c 4.06344,2.59262 6.89654,5.50843 9.63235,9.91358 l 1.71176,2.75624 76.22286,-0.25624 L 287.5,423.5 Z m 191.77194,-12.98992 c 0.29198,-21.46305 -0.20919,-24.47701 -4.38658,-26.38036 -3.48151,-1.58628 -163.24831,-1.60492 -166.72804,-0.0195 -1.34022,0.61065 -2.9364,2.20683 -3.54705,3.54705 -1.20807,2.65144 -1.607,41.51261 -0.43814,42.68147 0.36967,0.36967 39.85717,0.55717 87.75,0.41667 L 479.5,391.5 Z m -159.33787,3.17869 c -0.29536,-0.76968 -0.40135,-4.27703 -0.23554,-7.7941 L 320.5,360.5 h 7.5 7.5 v 7.5 7.5 l -7.26446,0.2941 c -5.50779,0.22298 -7.39432,-0.0443 -7.80147,-1.10533 z m 32,0 c -0.29536,-0.76968 -0.40135,-4.27703 -0.23554,-7.7941 L 352.5,360.5 h 7.5 7.5 v 7.5 7.5 l -7.26446,0.2941 c -5.50779,0.22298 -7.39432,-0.0443 -7.80147,-1.10533 z m 32,0 c -0.29536,-0.76968 -0.40135,-4.27703 -0.23554,-7.7941 L 384.5,360.5 h 7.5 7.5 v 7.5 7.5 l -7.26446,0.2941 c -5.50779,0.22298 -7.39432,-0.0443 -7.80147,-1.10533 z m -189.04871,0.18151 c 1.3637,-0.62135 2.96669,-2.30885 3.56219,-3.75 0.7261,-1.75721 0.9954,-14.478 0.81759,-38.62028 L 199.5,296.5 H 112 24.5 l -0.265142,36 c -0.278012,37.74728 -0.0294,40.32148 4.08632,42.31127 3.177985,1.53643 163.697162,1.59313 167.064182,0.059 z M 40.419703,358.65134 c -0.287457,-0.7491 -0.386986,-4.2396 -0.221176,-7.75667 L 40.5,344.5 h 71.5 71.5 v 7.5 7.5 l -71.27882,0.25667 c -59.401487,0.2139 -71.36592,0.0297 -71.801477,-1.10533 z m 0.01436,-31.96257 c -0.295356,-0.76968 -0.401349,-4.27703 -0.235539,-7.7941 L 40.5,312.5 h 7.5 7.5 v 7.5 7.5 l -7.264461,0.2941 c -5.507794,0.22298 -7.39432,-0.0443 -7.801473,-1.10533 z m 31.986331,-0.0356 c -0.287838,-0.75009 -0.38768,-4.24141 -0.22187,-7.75848 L 72.5,312.5 h 55.5 55.5 v 7.5 7.5 l -55.27813,0.25848 c -45.936379,0.2148 -55.366574,0.028 -55.801473,-1.10533 z M 199.77194,259.51008 c 0.29198,-21.46305 -0.20919,-24.47701 -4.38658,-26.38036 -3.48151,-1.58628 -163.248307,-1.60492 -166.728035,-0.0194 -1.34023,0.61065 -2.936404,2.20683 -3.547053,3.54705 -1.208076,2.65144 -1.607004,41.51261 -0.438146,42.68147 0.36967,0.36967 39.85717,0.55717 87.750004,0.41667 L 199.5,279.5 Z m -159.337874,3.17869 c -0.295356,-0.76968 -0.401349,-4.27703 -0.235539,-7.7941 L 40.5,248.5 h 7.5 7.5 v 7.5 7.5 l -7.264461,0.2941 c -5.507794,0.22298 -7.39432,-0.0443 -7.801473,-1.10533 z m 32,0 c -0.295356,-0.76968 -0.401349,-4.27703 -0.235539,-7.7941 L 72.5,248.5 h 7.5 7.5 v 7.5 7.5 l -7.264461,0.2941 c -5.507794,0.22298 -7.39432,-0.0443 -7.801473,-1.10533 z m 32.000004,0 c -0.29536,-0.76968 -0.40135,-4.27703 -0.23554,-7.7941 L 104.5,248.5 h 7.5 7.5 v 7.5 7.5 l -7.26446,0.2941 c -5.50779,0.22298 -7.39432,-0.0443 -7.80147,-1.10533 z m 292.25148,14.13692 c 2.90526,-2.72935 2.96094,-6.50863 0.14014,-9.51124 -2.72935,-2.90526 -6.50863,-2.96094 -9.51124,-0.14014 -2.90526,2.72935 -2.96094,6.50863 -0.14014,9.51124 2.72935,2.90526 6.50863,2.96094 9.51124,0.14014 z M 371.36781,260.25 c 2.57189,-4.03051 5.49263,-6.86215 9.90677,-9.60454 l 2.77459,-1.72378 -0.27459,-16.21084 L 383.5,216.5 377,215.84396 c -3.575,-0.36083 -13.42471,-1.16925 -21.88824,-1.7965 -39.59165,-2.93422 -66.58525,-11.55253 -73.39997,-23.4346 C 280.83886,189.09084 280.36018,176.7551 280,146.5 l -0.5,-42 H 248 216.5 l -0.5,31 c -0.44739,27.73817 -0.69615,31.36827 -2.36416,34.5 -2.60912,4.89867 -6.45537,8.81598 -11.13584,11.34158 -3.85173,2.07841 -5.44565,2.17695 -43,2.65842 l -39,0.5 v 15.5 15.5 l 39,0.5 c 37.55435,0.48147 39.14827,0.58001 43,2.65842 4.69609,2.53403 8.54665,6.46367 11.11332,11.34158 1.47643,2.80592 1.90542,6.27631 2.16326,17.5 0.17688,7.7 0.5104,14.5625 0.74113,15.25 0.3307,0.98536 16.5137,1.25 76.43836,1.25 h 76.01884 z M 428,197.88167 c 25.97523,-2.10622 52.50676,-8.29752 57.66595,-13.45671 2.30931,-2.30931 2.38413,-2.8458 2.11404,-15.1595 L 487.5,156.5 485,156.70057 c -1.375,0.11032 -7.45,1.5299 -13.5,3.15462 -20.7922,5.58374 -45.65196,8.12418 -79.5,8.12418 -33.84804,0 -58.7078,-2.54044 -79.5,-8.12418 -6.05,-1.62472 -12.125,-3.0443 -13.5,-3.15462 l -2.5,-0.20057 -0.2818,12.377 c -0.33701,14.80198 0.19836,16.007 8.49997,19.13185 26.174,9.85226 75.15751,13.77503 123.28183,9.87282 z M 195.38536,166.87028 c 1.3637,-0.62135 2.96669,-2.30885 3.56219,-3.75 0.7261,-1.75721 0.9954,-14.478 0.81759,-38.62028 L 199.5,88.5 H 112 24.5 l -0.265142,36 c -0.278012,37.74728 -0.0294,40.32148 4.08632,42.31127 3.177985,1.53643 163.697162,1.59313 167.064182,0.059 z M 40.424238,150.66316 c -0.289951,-0.7556 -0.391521,-4.25142 -0.225711,-7.76849 L 40.5,136.5 H 64 87.5 v 7.5 7.5 l -23.274289,0.26849 c -18.999233,0.21917 -23.371124,0.0161 -23.801473,-1.10533 z m 64.009832,0.0256 c -0.29536,-0.76968 -0.40135,-4.27703 -0.23554,-7.7941 L 104.5,136.5 h 7.5 7.5 v 7.5 7.5 l -7.26446,0.2941 c -5.50779,0.22298 -7.39432,-0.0443 -7.80147,-1.10533 z m 32.0219,0.0571 c -0.27249,-0.71011 -0.37406,-11.40594 -0.22571,-23.76849 L 136.5,104.5 h 23.5 23.5 v 23.5 23.5 l -23.27429,0.26849 c -18.28732,0.21096 -23.38045,-0.008 -23.76974,-1.02263 z M 167,128 v -7 h -7 -7 v 7 7 h 7 7 z M 40.421606,118.6563 c -0.288503,-0.75182 -0.388889,-4.24456 -0.223079,-7.76163 L 40.5,104.5 H 80 119.5 v 7.5 7.5 l -39.276921,0.26163 c -32.469822,0.21629 -39.367832,0.0247 -39.801473,-1.10533 z M 431,150.00923 c 27.1734,-2.74985 50.66269,-8.66406 55.45868,-13.96358 2.29117,-2.53171 1.86821,-28.66107 -0.45868,-28.33628 -0.825,0.11516 -5.29711,1.3624 -9.93801,2.77164 -21.13923,6.41909 -45.35362,9.01626 -84.06199,9.01626 -38.70837,0 -62.92276,-2.59717 -84.06199,-9.01626 -4.6409,-1.40924 -9.11301,-2.65648 -9.93801,-2.77164 -1.25888,-0.17571 -1.54462,1.98578 -1.77761,13.44634 l -0.2776,13.6557 2.6106,2.0535 c 7.80918,6.1427 34.14301,11.77933 65.94461,14.11513 14.38463,1.05654 51.87453,0.50924 66.5,-0.97081 z m -3,-48.12756 c 25.97523,-2.106222 52.50676,-8.297522 57.66595,-13.45671 2.30931,-2.309311 2.38413,-2.845802 2.11404,-15.159498 L 487.5,60.5 485,60.67481 c -1.375,0.09614 -6.55,1.346063 -11.5,2.777595 -19.20577,5.55428 -47.9398,8.553019 -81.80447,8.537278 C 358.11215,71.974072 333.20651,69.415913 312.5,63.855192 306.45,62.230468 300.375,60.81089 299,60.700574 L 296.5,60.5 296.2182,72.876997 c -0.33701,14.801986 0.19836,16.007007 8.49997,19.131851 26.174,9.852262 75.15751,13.775032 123.28183,9.872822 z M 199.77194,51.510076 C 200.06392,30.047027 199.56275,27.033068 195.38536,25.12972 191.90385,23.543437 32.137053,23.524801 28.657325,25.11027 c -1.34023,0.610649 -2.936404,2.206823 -3.547053,3.547053 -1.208076,2.651437 -1.607004,41.512609 -0.438146,42.681468 0.36967,0.369669 39.85717,0.557169 87.750004,0.416667 L 199.5,71.5 Z M 40.434066,54.688774 C 40.13871,53.919089 40.032717,50.411743 40.198527,46.894673 L 40.5,40.5 h 7.5 7.5 v 7.5 7.5 l -7.264461,0.294101 c -5.507794,0.222983 -7.39432,-0.0443 -7.801473,-1.105327 z m 32,0 C 72.13871,53.919089 72.032717,50.411743 72.198527,46.894673 L 72.5,40.5 h 7.5 7.5 v 7.5 7.5 l -7.264461,0.294101 c -5.507794,0.222983 -7.39432,-0.0443 -7.801473,-1.105327 z m 32.000004,0 c -0.29536,-0.769685 -0.40135,-4.277031 -0.23554,-7.794101 L 104.5,40.5 h 7.5 7.5 v 7.5 7.5 l -7.26446,0.294101 c -5.50779,0.222983 -7.39432,-0.0443 -7.80147,-1.105327 z m 313.083,0.260825 c 32.07913,-2.108244 59.47899,-7.605277 67.04275,-13.450292 1.92024,-1.483899 1.92024,-1.514715 0,-2.998614 C 472.31078,29.035053 416.01944,22.247763 371.25,24.83844 c -35.69724,2.065696 -63.69679,7.39278 -71.80982,13.662253 -1.92024,1.483899 -1.92024,1.514715 0,2.998614 3.23424,2.499313 12.45899,5.571751 24.05982,8.013476 26.87368,5.656335 60.81313,7.618984 94.01707,5.436816 z"
         id="path1094" />
      <path
         style="fill:#020302"
         d="m 305.22179,501.53028 c -6.09755,-1.90405 -10.65452,-5.73967 -13.36942,-11.25309 C 289.6447,485.79385 289.46924,484.08525 289,462.5 l -0.5,-23 -77.14181,-0.25614 -77.14181,-0.25615 -3.07825,4.75615 c -5.91708,9.14238 -15.35582,12.78831 -25.48426,9.8439 -18.993058,-5.52144 -22.088463,-30.3291 -5.12246,-41.05321 l 4.53921,-2.86921 -0.28531,-9.08267 L 104.5,391.5 65.5,391 c -38.431814,-0.49272 -39.069598,-0.53427 -43.777189,-2.85237 -5.655818,-2.78502 -9.360724,-7.29412 -11.307109,-13.76147 -2.091461,-6.9494 -2.091461,-133.82292 0,-140.77232 1.946385,-6.46735 5.651291,-10.97645 11.307109,-13.76147 C 26.430402,217.53427 27.068186,217.49272 65.5,217 l 39,-0.5 V 200 183.5 l -39,-0.5 c -38.431814,-0.49272 -39.069598,-0.53427 -43.777189,-2.85237 -2.627453,-1.2938 -5.927888,-3.86101 -7.334298,-5.70491 C 9.0267677,167.41311 9,167.02355 9,96.02257 9,22.055849 8.909493,23.090507 16,16 c 7.21238,-7.2123801 4.299054,-7 96.02257,-7 88.35707,0 87.27444,-0.061785 94.42015,5.388513 1.8439,1.40641 4.41111,4.706845 5.70491,7.334298 C 214.42525,26.348192 214.51589,27.485108 215,57.5 l 0.5,31 h 32.5 32.5 l 0.5,-26 c 0.57504,-29.902235 0.66966,-30.269091 9.28106,-35.984861 34.3664,-22.8105027 169.0754,-22.8165393 203.42586,-0.0091 9.86364,6.54909 9.24916,0.869106 9.24916,85.493981 0,70.10198 -0.0879,73.69368 -1.90196,77.68927 -5.76769,12.70398 -36.04725,21.39855 -84.22005,24.1832 -8.61626,0.49807 -16.15376,1.20707 -16.75,1.57557 C 399.37493,215.88631 399,221.92699 399,232.91401 v 16.79597 l 4.5039,2.84689 c 14.7446,9.31998 14.85901,29.11979 0.223,38.59214 l -4.77311,3.08913 0.27311,17.13093 0.2731,17.13093 39,0.5 c 38.43181,0.49272 39.0696,0.53427 43.77719,2.85237 2.62745,1.2938 5.92789,3.86101 7.3343,5.70491 5.36174,7.02961 5.38851,7.41917 5.38851,78.42015 0,73.96672 0.0905,72.93206 -7,80.02257 -7.22332,7.22332 -4.23203,7.00826 -96.4315,6.9331 -65.52067,-0.0534 -82.93113,-0.33626 -86.34671,-1.40282 z m 172.86722,-15.46545 2.93517,-2.93516 -0.26209,-37.81484 L 480.5,407.5 H 392 303.5 l -0.26209,37.81483 -0.26209,37.81484 2.93517,2.93516 L 308.84615,489 H 392 475.15385 Z M 336.88507,469.68007 c -5.68038,-2.12374 -9.64785,-5.42035 -12.63121,-10.49542 -2.25132,-3.82976 -2.75386,-5.88513 -2.75386,-11.26307 0,-5.57715 0.46064,-7.32349 3.02644,-11.47356 1.87587,-3.03415 4.88743,-6.04571 7.92158,-7.92158 C 336.61339,425.95118 338.33556,425.5 344,425.5 c 5.66444,0 7.38661,0.45118 11.55198,3.02644 3.03415,1.87587 6.04571,4.88743 7.92158,7.92158 2.57526,4.16537 3.02644,5.88754 3.02644,11.55198 0,5.66444 -0.45118,7.38661 -3.02644,11.55198 -5.57699,9.02057 -17.45195,13.54398 -26.58849,10.12809 z m 11.02374,-14.13291 c 1.54521,-0.79906 3.39083,-2.85633 4.10136,-4.5717 2.77264,-6.69376 -4.36698,-13.72716 -11.10242,-10.93725 -4.39427,1.82017 -6.63377,6.79481 -4.92072,10.93048 1.23289,2.97645 5.05338,5.90627 7.81263,5.99127 0.71481,0.022 2.56393,-0.61374 4.10915,-1.4128 z M 385.41919,469.65 c -0.29303,-0.76362 -0.39472,-3.80976 -0.22599,-6.7692 L 385.5,457.5 h 22.5 22.5 v 6.5 6.5 l -22.27402,0.2692 c -18.26316,0.22072 -22.36995,0.0192 -22.80679,-1.1192 z m 64.01107,0.0289 c -0.29912,-0.77948 -0.40579,-3.83861 -0.23706,-6.79805 L 449.5,457.5 h 6.5 6.5 v 6.5 6.5 l -6.26294,0.29805 c -4.68913,0.22316 -6.39961,-0.0581 -6.8068,-1.1192 z m -64.01387,-32.03614 c -0.29149,-0.75961 -0.39192,-3.80247 -0.22319,-6.76191 L 385.5,425.5 h 38.5 38.5 v 6.5 6.5 l -38.27682,0.26191 c -31.81376,0.21768 -38.3663,0.0287 -38.80679,-1.1192 z m -269.50758,1.90445 c 1.54521,-0.79906 3.39083,-2.85633 4.10136,-4.5717 2.77264,-6.69376 -4.36698,-13.72716 -11.10242,-10.93725 -4.39427,1.82017 -6.63377,6.79481 -4.92072,10.93048 1.23289,2.97645 5.05338,5.90627 7.81263,5.99127 0.71481,0.022 2.56393,-0.61374 4.10915,-1.4128 z M 289,385.5 c 0.49272,-38.43181 0.53427,-39.0696 2.85237,-43.77719 2.40818,-4.89053 6.34193,-8.57026 11.65206,-10.89964 2.23485,-0.98035 12.8996,-1.44218 41.99557,-1.81861 l 39,-0.50456 0.27283,-17.06679 0.27282,-17.0668 -4.77282,-3.09571 c -2.62506,-1.70264 -6.07733,-5.16284 -7.67172,-7.68934 l -2.89888,-4.59363 -77.10112,0.25614 L 215.5,279.5 l -0.5,47 c -0.38108,35.82158 -0.81362,47.71246 -1.81861,49.99557 -2.34061,5.31728 -6.01649,9.24527 -10.9042,11.65206 -4.70759,2.3181 -5.34538,2.35965 -43.77719,2.85237 l -39,0.5 -0.285,9.05891 -0.28499,9.05891 4.78499,3.10359 c 2.63175,1.70698 6.0895,5.17073 7.68389,7.69723 l 2.89888,4.59363 77.10112,-0.25614 L 288.5,424.5 Z m 190.8,6.3 c 0.85273,-0.85273 1.2,-6.94437 1.2,-21.04966 0,-21.60985 -0.55774,-24.31654 -5.47206,-26.55565 C 473.56408,343.29989 452.59701,343 392,343 c -60.59701,0 -81.56408,0.29989 -83.52794,1.19469 -4.91432,2.23911 -5.47206,4.9458 -5.47206,26.55565 0,14.10529 0.34727,20.19693 1.2,21.04966 1.73898,1.73898 173.86102,1.73898 175.6,0 z M 321,368 v -7 h 7 7 v 7 7 h -7 -7 z m 32,0 v -7 h 7 7 v 7 7 h -7 -7 z m 32,0 v -7 h 7 7 v 7 7 h -7 -7 z m -186.91099,6.06483 2.93517,-2.93516 -0.26209,-37.81484 L 200.5,295.5 H 112 23.5 l -0.262088,37.81483 -0.262089,37.81484 2.935166,2.93516 L 28.846154,377 H 112 195.15385 Z M 41.414414,357.63756 c -0.290403,-0.75678 -0.389948,-3.79732 -0.22121,-6.75676 L 41.5,345.5 h 70.5 70.5 v 6.5 6.5 l -70.27879,0.25676 c -58.904974,0.21521 -70.364242,0.0341 -70.806796,-1.1192 z m 0.01584,-31.95871 c -0.299118,-0.77948 -0.405793,-3.83861 -0.237055,-6.79805 L 41.5,313.5 h 6.5 6.5 v 6.5 6.5 l -6.262945,0.29805 c -4.689121,0.22316 -6.39961,-0.0581 -6.806796,-1.1192 z m 31.984871,-0.0394 c -0.290797,-0.75781 -0.390664,-3.79919 -0.221926,-6.75863 L 73.5,313.5 h 54.5 54.5 v 6.5 6.5 l -54.27807,0.25863 c -45.360124,0.21613 -54.364949,0.0322 -54.8068,-1.1192 z M 199.8,279.8 c 0.85273,-0.85273 1.2,-6.94437 1.2,-21.04966 0,-21.60985 -0.55774,-24.31654 -5.47206,-26.55565 -3.7737,-1.71942 -163.282183,-1.71942 -167.055882,0 C 23.55774,234.4338 23,237.14049 23,258.75034 c 0,14.10529 0.347273,20.19693 1.2,21.04966 1.73898,1.73898 173.86102,1.73898 175.6,0 z M 41,256 v -7 h 7 7 v 7 7 h -7 -7 z m 32,0 v -7 h 7 7 v 7 7 h -7 -7 z m 32,0 v -7 h 7 7 v 7 7 h -7 -7 z m 290.90881,23.54716 c 1.54521,-0.79906 3.39083,-2.85633 4.10136,-4.5717 2.77264,-6.69376 -4.36698,-13.72716 -11.10242,-10.93725 -4.39427,1.82017 -6.63377,6.79481 -4.92072,10.93048 1.23289,2.97645 5.05338,5.90627 7.81263,5.99127 0.71481,0.022 2.56393,-0.61374 4.10915,-1.4128 z m -23.30382,-19.13465 c 1.59226,-2.52313 5.03251,-5.97391 7.64501,-7.66842 L 385,249.66317 V 232.8906 c 0,-10.9516 -0.37555,-17.00467 -1.08212,-17.44135 -0.59517,-0.36784 -7.90767,-1.05908 -16.25,-1.5361 -36.7582,-2.10184 -64.61001,-8.02222 -77.38682,-16.44989 C 281.22522,191.48997 281.57051,193.42322 281,145.5 l -0.5,-42 H 248 215.5 l -0.5,31 c -0.48411,30.01489 -0.57475,31.15181 -2.85237,35.77719 -2.40818,4.89053 -6.34193,8.57026 -11.65206,10.89964 -2.23485,0.98035 -12.8996,1.44218 -41.99557,1.81861 l -39,0.50456 v 16.5 16.5 l 39,0.5 c 38.43181,0.49272 39.0696,0.53427 43.77719,2.85237 C 212.00031,224.6402 215,231.98213 215,250.99226 c 0,6.97093 0.3,12.97441 0.66667,13.34107 C 216.03333,264.7 250.84308,265 293.02166,265 h 76.68832 z M 421,199.99259 c 31.51841,-2.34068 59.40729,-8.52627 66.21346,-14.68577 1.55657,-1.40867 1.78654,-3.45577 1.78654,-15.90279 0,-8.32125 -0.41216,-14.54072 -0.98714,-14.89608 -0.54293,-0.33555 -5.15543,0.72193 -10.25,2.34994 -20.14347,6.43704 -47.76301,9.53971 -85.26286,9.5781 -38.00894,0.0389 -64.4289,-2.88341 -85.7822,-9.4884 -5.38022,-1.6642 -10.21772,-2.75666 -10.75,-2.42769 -0.55066,0.34033 -0.9678,6.75574 -0.9678,14.88413 0,12.44702 0.22997,14.49412 1.78654,15.90279 6.52213,5.90245 34.76999,12.36298 63.71346,14.57182 15.94464,1.21683 44.91443,1.27139 60.5,0.11395 z m -222.91099,-33.92776 2.93517,-2.93516 -0.26209,-37.81484 L 200.5,87.5 H 112 23.5 l -0.262088,37.81483 -0.262089,37.81484 2.935166,2.93516 L 28.846154,169 H 112 195.15385 Z M 41.419185,149.65 c -0.293027,-0.76362 -0.394719,-3.80976 -0.225981,-6.7692 L 41.5,137.5 H 64 86.5 v 6.5 6.5 l -22.274019,0.2692 C 45.96282,150.98992 41.856026,150.7884 41.419185,149.65 Z m 64.011075,0.0289 c -0.29912,-0.77948 -0.40579,-3.83861 -0.23706,-6.79805 L 105.5,137.5 h 6.5 6.5 v 6.5 6.5 l -6.26294,0.29805 c -4.68913,0.22316 -6.39961,-0.0581 -6.8068,-1.1192 z m 32.02518,0.0656 c -0.27309,-0.71166 -0.37478,-10.9578 -0.22598,-22.7692 L 137.5,105.5 h 22.5 22.5 v 22.5 22.5 l -22.27402,0.2692 c -17.49526,0.21144 -22.38054,-0.008 -22.77054,-1.02473 z M 167.8,135.8 c 1.58053,-1.58053 1.58053,-14.01947 0,-15.6 -0.69091,-0.69091 -4,-1.2 -7.8,-1.2 -3.8,0 -7.10909,0.50909 -7.8,1.2 -0.69091,0.69091 -1.2,4 -1.2,7.8 0,3.8 0.50909,7.10909 1.2,7.8 0.69091,0.69091 4,1.2 7.8,1.2 3.8,0 7.10909,-0.50909 7.8,-1.2 z M 41.416389,117.64271 C 41.1249,116.8831 41.024466,113.84024 41.193204,110.8808 L 41.5,105.5 H 80 118.5 v 6.5 6.5 l -38.276815,0.26191 c -31.813768,0.21768 -38.366303,0.0287 -38.806796,-1.1192 z m 382.027051,34.2769 c 26.96602,-2.07261 53.58951,-7.77382 61.64971,-13.2018 l 3.40685,-2.29427 0.27685,-14.73285 c 0.31316,-16.66481 0.12477,-17.06885 -6.68776,-14.34301 -20.48969,8.19834 -71.94363,13.15471 -112.06567,10.79487 -30.26942,-1.78034 -55.62699,-5.79916 -68.11251,-10.79487 -6.81253,-2.72584 -7.00092,-2.3218 -6.68776,14.34301 l 0.27685,14.73285 3.40685,2.29427 c 7.66938,5.16479 35.08657,11.20882 59.59315,13.13711 16.14704,1.27053 48.83113,1.30309 64.94344,0.0647 z M 421,103.99259 c 24.75477,-1.83838 48.31192,-6.18959 59.5,-10.990158 8.63157,-3.703622 8.5,-3.40027 8.5,-19.598403 0,-8.321252 -0.41216,-14.540721 -0.98714,-14.896082 -0.54293,-0.335548 -5.15543,0.721928 -10.25,2.349947 -20.14347,6.437039 -47.76301,9.53971 -85.26286,9.578098 -38.00894,0.03891 -64.4289,-2.883411 -85.7822,-9.488397 -5.38022,-1.664203 -10.21772,-2.756664 -10.75,-2.427692 C 295.41714,58.860225 295,65.275636 295,73.404029 295,89.83615 294.81141,89.442488 304.57968,93.40064 326.76881,102.39179 378.80551,107.1261 421,103.99259 Z M 199.8,71.8 c 0.85273,-0.852727 1.2,-6.944369 1.2,-21.04966 0,-21.609853 -0.55774,-24.316542 -5.47206,-26.555655 -3.7737,-1.719412 -163.282183,-1.719412 -167.055882,0 C 23.55774,26.433798 23,29.140487 23,50.75034 23,64.855631 23.347273,70.947273 24.2,71.8 c 1.73898,1.73898 173.86102,1.73898 175.6,0 z M 41,48 v -7 h 7 7 v 7 7 h -7 -7 z m 32,0 v -7 h 7 7 v 7 7 h -7 -7 z m 32,0 v -7 h 7 7 v 7 7 h -7 -7 z m 318.44344,7.919611 C 456.02809,53.41515 489.36042,45.022813 487.78401,39.720085 487.15687,37.610487 476.87773,33.098839 467,30.597715 c -40.02992,-10.135915 -109.97008,-10.135915 -150,0 -9.87773,2.501124 -20.15687,7.012772 -20.78401,9.12237 -1.50716,5.069808 32.0112,13.752828 62.28401,16.134838 16.14704,1.270527 48.83113,1.303082 64.94344,0.06469 z"
         id="path1092" />
    </g>
  </g>
</svg>
