<?xml version="1.0" encoding="UTF-8" standalone="no"?>
<!-- Created with Inkscape (http://www.inkscape.org/) -->

<svg
   version="1.1"
   id="svg1020"
   width="512"
   height="512"
   viewBox="0 0 512 512"
   xmlns="http://www.w3.org/2000/svg"
   xmlns:svg="http://www.w3.org/2000/svg">
  <defs
     id="defs1024" />
  <g
     id="g1026">
    <g
       id="g1030">
      <path
         style="fill:#b8f9fb"
         d="m 190.42228,495.58157 c -4.1854,-1.82247 -9.86427,-6.94737 -12.63394,-11.4015 C 175.5855,480.6375 175.48132,479.47251 175,453 l -0.5,-27.5 -5.5,-0.79208 C 141.33851,420.72427 126.06944,416.21125 107,406.38281 90.095154,397.67 77.676624,388.64008 64.517336,375.49227 32.064812,343.06806 15.01179,301.90693 15.01179,256 c 0,-45.95792 17.016974,-87.03204 49.505546,-119.49227 C 77.795448,123.2412 90.274518,114.1607 107,105.59488 126.21153,95.755854 141.4347,91.261876 169,87.292079 L 174.5,86.5 175,59 c 0.48132,-26.472515 0.5855,-27.637499 2.78834,-31.180072 2.84882,-4.581427 8.52662,-9.635754 12.85681,-11.445024 C 193.36636,15.237912 212.15156,15 299.20585,15 H 404.47594 L 450.73797,61.262032 497,107.52406 v 185.42225 c 0,185.1329 -0.003,185.42888 -2.05843,189.67439 -2.3785,4.91332 -8.66652,10.9486 -13.51989,12.97647 -4.88928,2.04287 -286.30665,2.02778 -290.9994,-0.0156 z"
         id="path1044" />
      <path
         style="fill:#fbe6a8"
         d="m 189.21981,494.42225 c -5.74603,-2.86337 -9.60951,-6.90506 -12.35247,-12.92225 -1.6146,-3.54193 -1.82593,-7.0061 -1.84538,-30.25 -0.0121,-14.4375 -0.22391,-26.25 -0.47074,-26.25 -0.24683,0 -5.59715,-0.67489 -11.8896,-1.49976 C 125.68693,418.65328 93.721298,403.27322 67.176429,377.55815 32.848952,344.30375 15.042564,302.61841 15.037843,255.5 15.033227,209.43563 33.125262,167.42857 67.176429,134.44185 93.773476,108.67623 125.61425,93.356245 162.66162,88.49976 168.95407,87.674892 174.30439,87 174.55122,87 174.79805,87 175,75.163355 175,60.696344 c 0,-26.264312 0.004,-26.311393 2.57775,-31.47653 2.86337,-5.746029 6.90506,-9.609513 12.92225,-12.352473 3.78825,-1.726888 9.52442,-1.82458 108.35547,-1.845379 L 403.21093,15 416.85547,28.168442 c 17.33252,16.727753 57.81395,57.221756 70.46214,70.484042 L 497,108.80497 496.978,293.15248 c -0.021,176.24133 -0.10214,184.52341 -1.84538,188.34752 -2.74296,6.01719 -6.60644,10.05888 -12.35247,12.92225 L 477.60731,497 H 336 194.39269 Z m 208.11218,-50.51876 c 11.36669,-7.52899 22.15199,-23.98568 25.16866,-38.40349 1.7494,-8.36105 1.97247,-21.08956 0.38678,-22.06957 -0.65092,-0.40229 -9.77409,7.96653 -21.9862,20.16825 -26.70142,26.67872 -23.65675,26.1053 -41.90955,7.89302 C 351.84626,404.36214 346,398.17481 346,397.74209 c 0,-1.17051 8.07435,-9.71151 10.31408,-10.91018 1.67249,-0.89509 3.16128,0.17832 10.8184,7.79996 l 8.87902,8.83788 19.99425,-19.9755 C 407.00259,372.50773 416,362.77654 416,361.86939 c 0,-2.41141 -7.86379,-12.69566 -13.56639,-17.74213 -7.90238,-6.99313 -10.04998,-7.70094 -19.09777,-6.29432 -27.87968,4.33436 -48.38318,30.44775 -46.00124,58.58747 1.84202,21.76117 16.75707,40.90718 36.97496,47.46368 12.35378,4.00623 16.99751,4.01014 23.02243,0.0194 z"
         id="path1042" />
      <path
         style="fill:#49e5ec"
         d="m 189.18856,493.40667 c -2.88447,-1.43739 -6.34298,-4.05363 -7.68558,-5.81388 C 176.26073,480.71985 176,478.9904 176,451.09114 c 0,-15.73897 -0.38302,-26.20982 -0.97206,-26.57387 -0.53463,-0.33042 -4.9039,-1.04753 -9.70948,-1.59358 C 98.944485,415.38176 43.334935,369.4899 23.635953,306 17.61729,286.60182 16.544105,279.0355 16.544105,256 c 0,-23.0355 1.073185,-30.60182 7.091848,-50 C 31.881881,179.42334 45.05112,157.82285 65.436987,137.43699 93.384431,109.48954 125.57116,93.907492 165.5,88.995073 c 4.95,-0.608996 9.31625,-1.420772 9.70278,-1.803948 0.38653,-0.383175 0.83653,-12.882047 1,-27.775269 L 176.5,32.337269 179.52644,27.44507 c 1.87398,-3.029277 4.89036,-6.044648 7.92126,-7.918634 L 192.34254,16.5 l 105.5531,-0.263595 105.55311,-0.263596 46.2835,46.28351 46.28351,46.283511 -0.25788,185.55861 -0.25788,185.55862 -3.02644,4.89503 c -1.8757,3.03382 -4.88763,6.04577 -7.9214,7.92147 l -4.89497,3.02644 -142.61208,0.26005 -142.61208,0.26006 z M 454.8,477.8 c 1.34914,-1.34914 1.78712,-48.82019 0.45,-48.77421 -0.4125,0.0142 -2.28671,2.29075 -4.16491,5.05904 -5.16949,7.61935 -16.12366,17.19211 -24.89482,21.75537 -22.1981,11.54872 -46.15486,11.51259 -68.63368,-0.1035 -11.18107,-5.7779 -23.51539,-18.11222 -29.29329,-29.29329 -11.6583,-22.56049 -11.6583,-46.32633 0,-68.88682 5.7779,-11.18107 18.11222,-23.51539 29.29329,-29.29329 22.47882,-11.61609 46.43558,-11.65222 68.63368,-0.1035 8.77116,4.56326 19.72533,14.13602 24.89482,21.75537 1.8782,2.76829 3.75241,5.04486 4.16491,5.05904 C 455.6625,354.9884 456,334.75 456,310 V 265 H 429.07143 C 397.83297,265 399,265.34928 399,256 c 0,-9.34928 -1.16703,-9 30.07143,-9 H 456 V 232 217 H 429.07143 C 397.83297,217 399,217.34928 399,208 c 0,-9.34928 -1.16703,-9 30.07143,-9 H 456 V 184 169 H 429.07143 C 397.83297,169 399,169.34928 399,160 c 0,-9.34928 -1.16703,-9 30.07143,-9 H 456 v -14.91815 -14.91816 l -22.75,-0.33184 c -21.41026,-0.31231 -23.02714,-0.46835 -27.45605,-2.64978 -2.58833,-1.27486 -6.13212,-3.94214 -7.8751,-5.92727 -6.36897,-7.25386 -6.38836,-7.38357 -6.7286,-45.0048 L 390.8805,33 H 293.94025 C 198.33333,33 196.97249,33.02751 195,35 c -1.9746,1.974599 -2,3.333333 -2,106.98183 v 104.98183 l 76.97758,0.26817 76.97758,0.26817 2.77242,2.78173 c 2.70994,2.71903 2.76595,3.00904 2.48529,12.8678 -1.04677,36.77037 -16.46241,75.03241 -42.00281,104.25215 -27.20027,31.11872 -68.81026,52.38723 -109.97625,56.21321 L 193,424.2872 v 25.3564 c 0,24.02307 0.10517,25.46157 2,27.3564 1.97922,1.97922 3.33333,2 130.3,2 98.45556,0 128.57914,-0.27914 129.5,-1.2 z M 213.5,232.06367 c -1.1,-0.45518 -2.9,-1.82797 -4,-3.05063 -1.96599,-2.18522 -2,-3.63069 -2,-85.01304 0,-81.383441 0.034,-82.827738 2,-85.009775 3.35467,-3.723271 5.92458,-4.115902 19.38503,-2.961658 22.41204,1.921849 41.36437,7.060533 60.60433,16.432087 54.14203,26.371945 89.54767,78.396426 94.4514,138.785346 1.09393,13.4717 0.71367,15.96999 -2.93068,19.254 -2.17736,1.96208 -3.76763,2.00371 -83.86476,2.19564 C 252.24039,232.80325 214.6,232.51886 213.5,232.06367 Z m 183.83199,211.83982 c 11.36669,-7.52899 22.15199,-23.98568 25.16866,-38.40349 1.7494,-8.36105 1.97247,-21.08956 0.38678,-22.06957 -0.65092,-0.40229 -9.77409,7.96653 -21.9862,20.16825 -26.70142,26.67872 -23.65675,26.1053 -41.90955,7.89302 C 351.84626,404.36214 346,398.17481 346,397.74209 c 0,-1.17051 8.07435,-9.71151 10.31408,-10.91018 1.67249,-0.89509 3.16128,0.17832 10.8184,7.79996 l 8.87902,8.83788 19.99425,-19.9755 C 407.00259,372.50773 416,362.77654 416,361.86939 c 0,-2.41141 -7.86379,-12.69566 -13.56639,-17.74213 -7.90238,-6.99313 -10.04998,-7.70094 -19.09777,-6.29432 -27.87968,4.33436 -48.38318,30.44775 -46.00124,58.58747 1.84202,21.76117 16.75707,40.90718 36.97496,47.46368 12.35378,4.00623 16.99751,4.01014 23.02243,0.0194 z"
         id="path1040" />
      <path
         style="fill:#f4c70f"
         d="m 189.18856,493.40667 c -2.88447,-1.43739 -6.34298,-4.05363 -7.68558,-5.81388 C 176.26073,480.71985 176,478.9904 176,451.09114 c 0,-15.73897 -0.38302,-26.20982 -0.97206,-26.57387 -0.53463,-0.33042 -4.9039,-1.04753 -9.70948,-1.59358 C 98.944485,415.38176 43.334935,369.4899 23.635953,306 17.61729,286.60182 16.544105,279.0355 16.544105,256 c 0,-23.0355 1.073185,-30.60182 7.091848,-50 C 31.881881,179.42334 45.05112,157.82285 65.436987,137.43699 93.384431,109.48954 125.57116,93.907492 165.5,88.995073 c 4.95,-0.608996 9.31625,-1.420772 9.70278,-1.803948 0.38653,-0.383175 0.83653,-12.882047 1,-27.775269 L 176.5,32.337269 179.52644,27.44507 c 1.87398,-3.029277 4.89036,-6.044648 7.92126,-7.918634 L 192.34254,16.5 l 105.5531,-0.263595 105.55311,-0.263596 46.2835,46.28351 46.28351,46.283511 -0.25788,185.55861 -0.25788,185.55862 -3.02644,4.89503 c -1.8757,3.03382 -4.88763,6.04577 -7.9214,7.92147 l -4.89497,3.02644 -142.61208,0.26005 -142.61208,0.26006 z M 454.8,477.8 c 1.34914,-1.34914 1.78712,-48.82019 0.45,-48.77421 -0.4125,0.0142 -2.28671,2.29075 -4.16491,5.05904 -5.16949,7.61935 -16.12366,17.19211 -24.89482,21.75537 -22.1981,11.54872 -46.15486,11.51259 -68.63368,-0.1035 -11.18107,-5.7779 -23.51539,-18.11222 -29.29329,-29.29329 -11.6583,-22.56049 -11.6583,-46.32633 0,-68.88682 5.7779,-11.18107 18.11222,-23.51539 29.29329,-29.29329 22.47882,-11.61609 46.43558,-11.65222 68.63368,-0.1035 8.77116,4.56326 19.72533,14.13602 24.89482,21.75537 1.8782,2.76829 3.75241,5.04486 4.16491,5.05904 C 455.6625,354.9884 456,334.75 456,310 V 265 H 429.07143 C 397.83297,265 399,265.34928 399,256 c 0,-9.34928 -1.16703,-9 30.07143,-9 H 456 V 232 217 H 429.07143 C 397.83297,217 399,217.34928 399,208 c 0,-9.34928 -1.16703,-9 30.07143,-9 H 456 V 184 169 H 429.07143 C 397.83297,169 399,169.34928 399,160 c 0,-9.34928 -1.16703,-9 30.07143,-9 H 456 v -14.91815 -14.91816 l -22.75,-0.33184 c -21.41026,-0.31231 -23.02714,-0.46835 -27.45605,-2.64978 -2.58833,-1.27486 -6.13212,-3.94214 -7.8751,-5.92727 -6.36897,-7.25386 -6.38836,-7.38357 -6.7286,-45.0048 L 390.8805,33 H 293.94025 C 198.33333,33 196.97249,33.02751 195,35 c -1.9746,1.974599 -2,3.333333 -2,106.98183 v 104.98183 l 76.97758,0.26817 76.97758,0.26817 2.77242,2.78173 c 2.70994,2.71903 2.76595,3.00904 2.48529,12.8678 -1.04677,36.77037 -16.46241,75.03241 -42.00281,104.25215 -27.20027,31.11872 -68.81026,52.38723 -109.97625,56.21321 L 193,424.2872 v 25.3564 c 0,24.02307 0.10517,25.46157 2,27.3564 1.97922,1.97922 3.33333,2 130.3,2 98.45556,0 128.57914,-0.27914 129.5,-1.2 z M 213.5,232.06367 c -1.1,-0.45518 -2.9,-1.82797 -4,-3.05063 -1.96599,-2.18522 -2,-3.63069 -2,-85.01304 0,-81.383441 0.034,-82.827738 2,-85.009775 3.35467,-3.723271 5.92458,-4.115902 19.38503,-2.961658 22.41204,1.921849 41.36437,7.060533 60.60433,16.432087 54.14203,26.371945 89.54767,78.396426 94.4514,138.785346 1.09393,13.4717 0.71367,15.96999 -2.93068,19.254 -2.17736,1.96208 -3.76763,2.00371 -83.86476,2.19564 C 252.24039,232.80325 214.6,232.51886 213.5,232.06367 Z m 193.78352,213.26004 c 9.23356,-2.7411 16.94357,-7.34391 23.81993,-14.22026 17.11815,-17.11815 21.21944,-41.95733 10.57289,-64.03393 -4.31041,-8.938 -15.80786,-20.43545 -24.74586,-24.74586 -22.06008,-10.63858 -46.92859,-6.53245 -64.03393,10.57289 -20.88948,20.88948 -21.87004,54.21731 -2.23822,76.07347 14.17948,15.78606 36.66351,22.27958 56.62519,16.35369 z m -47.44759,-34.0243 C 352.77617,404.31408 347,398.10966 347,397.51181 347,396.16214 356.20223,387 357.55781,387 c 0.54401,0 4.568,3.6 8.94219,8 4.37419,4.4 8.64286,8 9.48592,8 0.84306,0 10.52439,-9 21.51408,-20 10.98969,-11 20.45238,-20 21.02822,-20 1.32298,0 10.47178,9.22668 10.47178,10.56093 0,0.54572 -11.15818,12.11776 -24.79595,25.71565 C 381.64176,421.77287 379.10469,424 376.03998,424 c -2.97358,0 -4.87166,-1.4877 -16.20405,-12.70059 z"
         id="path1038" />
      <path
         style="fill:#f03541"
         d="m 189.18856,493.40667 c -2.88447,-1.43739 -6.34298,-4.05363 -7.68558,-5.81388 C 176.26073,480.71985 176,478.9904 176,451.09114 c 0,-15.73897 -0.38302,-26.20982 -0.97206,-26.57387 -0.53463,-0.33042 -4.9039,-1.04753 -9.70948,-1.59358 C 98.944485,415.38176 43.334935,369.4899 23.635953,306 17.61729,286.60182 16.544105,279.0355 16.544105,256 c 0,-23.0355 1.073185,-30.60182 7.091848,-50 C 31.881881,179.42334 45.05112,157.82285 65.436987,137.43699 93.384431,109.48954 125.57116,93.907492 165.5,88.995073 c 4.95,-0.608996 9.31625,-1.420772 9.70278,-1.803948 0.38653,-0.383175 0.83653,-12.882047 1,-27.775269 L 176.5,32.337269 179.52644,27.44507 c 1.87398,-3.029277 4.89036,-6.044648 7.92126,-7.918634 L 192.34254,16.5 l 105.5531,-0.263595 105.55311,-0.263596 46.2835,46.28351 46.28351,46.283511 -0.25788,185.55861 -0.25788,185.55862 -3.02644,4.89503 c -1.8757,3.03382 -4.88763,6.04577 -7.9214,7.92147 l -4.89497,3.02644 -142.61208,0.26005 -142.61208,0.26006 z M 477,477 c 1.98493,-1.98493 2,-3.33333 2,-178.94025 V 121.1195 l -34.25,-0.30975 c -33.48294,-0.30281 -34.3554,-0.36166 -38.95605,-2.62768 -2.58833,-1.27486 -6.13212,-3.94214 -7.8751,-5.92727 -6.36897,-7.25386 -6.38836,-7.38357 -6.7286,-45.0048 L 390.8805,33 H 293.94025 C 198.33333,33 196.97249,33.02751 195,35 c -1.9746,1.974599 -2,3.333333 -2,106.98183 v 104.98183 l 76.97758,0.26817 76.97758,0.26817 2.77242,2.78173 c 2.70994,2.71903 2.76595,3.00904 2.48529,12.8678 -1.04677,36.77037 -16.46241,75.03241 -42.00281,104.25215 -27.20027,31.11872 -68.81026,52.38723 -109.97625,56.21321 L 193,424.2872 v 25.3564 c 0,24.02307 0.10517,25.46157 2,27.3564 1.98082,1.98082 3.33333,2 141,2 137.66667,0 139.01918,-0.0192 141,-2 z M 383,464.06664 C 366.50698,461.7752 352.88912,454.96252 340.9633,443.0367 326.57549,428.64889 319.68892,412.12818 319.68892,392 c 0,-20.12818 6.88657,-36.64889 21.27438,-51.0367 14.38781,-14.38781 30.90852,-21.27438 51.0367,-21.27438 20.12818,0 36.64889,6.88657 51.0367,21.27438 9.74997,9.74997 15.41455,19.43212 19.06884,32.59329 3.04786,10.97707 3.04786,25.90975 0,36.88682 -7.00995,25.24682 -26.51054,44.85585 -51.16213,51.44664 -8.78629,2.34909 -20.26587,3.24326 -27.94341,2.17659 z m 24.28352,-18.74293 c 9.23356,-2.7411 16.94357,-7.34391 23.81993,-14.22026 17.11815,-17.11815 21.21944,-41.95733 10.57289,-64.03393 -4.31041,-8.938 -15.80786,-20.43545 -24.74586,-24.74586 -22.06008,-10.63858 -46.92859,-6.53245 -64.03393,10.57289 -20.88948,20.88948 -21.87004,54.21731 -2.23822,76.07347 14.17948,15.78606 36.66351,22.27958 56.62519,16.35369 z m -47.44759,-34.0243 C 352.77617,404.31408 347,398.10966 347,397.51181 347,396.16214 356.20223,387 357.55781,387 c 0.54401,0 4.568,3.6 8.94219,8 4.37419,4.4 8.64286,8 9.48592,8 0.84306,0 10.52439,-9 21.51408,-20 10.98969,-11 20.45238,-20 21.02822,-20 1.32298,0 10.47178,9.22668 10.47178,10.56093 0,0.54572 -11.15818,12.11776 -24.79595,25.71565 C 381.64176,421.77287 379.10469,424 376.03998,424 c -2.97358,0 -4.87166,-1.4877 -16.20405,-12.70059 z m 40.7355,-147.87084 C 399.50058,262.35772 399,259.99134 399,256 c 0,-9.42657 -1.58171,-9 33.37143,-9 22.17778,0 30.54817,0.3196 31.42857,1.2 0.69091,0.69091 1.2,4 1.2,7.8 0,3.8 -0.50909,7.10909 -1.2,7.8 -0.8804,0.8804 -9.25079,1.2 -31.42857,1.2 -26.14719,0 -30.44074,-0.21217 -31.8,-1.57143 z M 213.5,232.06367 c -1.1,-0.45518 -2.9,-1.82797 -4,-3.05063 -1.96599,-2.18522 -2,-3.63069 -2,-85.01304 0,-81.383441 0.034,-82.827738 2,-85.009775 3.35467,-3.723271 5.92458,-4.115902 19.38503,-2.961658 22.41204,1.921849 41.36437,7.060533 60.60433,16.432087 54.14203,26.371945 89.54767,78.396426 94.4514,138.785346 1.09393,13.4717 0.71367,15.96999 -2.93068,19.254 -2.17736,1.96208 -3.76763,2.00371 -83.86476,2.19564 C 252.24039,232.80325 214.6,232.51886 213.5,232.06367 Z m 187.07143,-16.6351 C 399.50058,214.35772 399,211.99134 399,208 c 0,-9.42657 -1.58171,-9 33.37143,-9 22.17778,0 30.54817,0.3196 31.42857,1.2 0.69091,0.69091 1.2,4 1.2,7.8 0,3.8 -0.50909,7.10909 -1.2,7.8 -0.8804,0.8804 -9.25079,1.2 -31.42857,1.2 -26.14719,0 -30.44074,-0.21217 -31.8,-1.57143 z m 0,-48 C 399.50058,166.35772 399,163.99134 399,160 c 0,-9.42657 -1.58171,-9 33.37143,-9 22.17778,0 30.54817,0.3196 31.42857,1.2 0.69091,0.69091 1.2,4 1.2,7.8 0,3.8 -0.50909,7.10909 -1.2,7.8 -0.8804,0.8804 -9.25079,1.2 -31.42857,1.2 -26.14719,0 -30.44074,-0.21217 -31.8,-1.57143 z M 123.24643,304.25361 175,252.50721 V 178.75361 105 h -2.40063 c -5.73756,0 -26.00054,4.16898 -35.68983,7.34296 C 114.02399,119.8397 95.554136,131.3731 77.463618,149.46362 55.88749,171.03975 43.321678,193.50585 36.333024,223 c -3.720531,15.70172 -4.351172,40.89083 -1.448882,57.87131 3.509088,20.53069 10.799452,39.41054 21.866899,56.62869 4.560458,7.09492 13.33624,18.48943 14.245387,18.49627 0.273036,0.002 23.785536,-23.28215 52.250002,-51.74266 z"
         id="path1036" />
      <path
         style="fill:#5caa22"
         d="m 189.18856,493.40667 c -2.88447,-1.43739 -6.34298,-4.05363 -7.68558,-5.81388 C 176.26073,480.71985 176,478.9904 176,451.09114 c 0,-15.73897 -0.38302,-26.20982 -0.97206,-26.57387 -0.53463,-0.33042 -4.9039,-1.04753 -9.70948,-1.59358 C 98.944485,415.38176 43.334935,369.4899 23.635953,306 17.61729,286.60182 16.544105,279.0355 16.544105,256 c 0,-23.0355 1.073185,-30.60182 7.091848,-50 C 31.881881,179.42334 45.05112,157.82285 65.436987,137.43699 93.384431,109.48954 125.57116,93.907492 165.5,88.995073 c 4.95,-0.608996 9.31625,-1.420772 9.70278,-1.803948 0.38653,-0.383175 0.83653,-12.882047 1,-27.775269 L 176.5,32.337269 179.52644,27.44507 c 1.87398,-3.029277 4.89036,-6.044648 7.92126,-7.918634 L 192.34254,16.5 l 105.5531,-0.263595 105.55311,-0.263596 46.2835,46.28351 46.28351,46.283511 -0.25788,185.55861 -0.25788,185.55862 -3.02644,4.89503 c -1.8757,3.03382 -4.88763,6.04577 -7.9214,7.92147 l -4.89497,3.02644 -142.61208,0.26005 -142.61208,0.26006 z M 477,477 c 1.98493,-1.98493 2,-3.33333 2,-178.94025 V 121.1195 l -34.25,-0.30975 c -33.48294,-0.30281 -34.3554,-0.36166 -38.95605,-2.62768 -2.58833,-1.27486 -6.13212,-3.94214 -7.8751,-5.92727 -6.36897,-7.25386 -6.38836,-7.38357 -6.7286,-45.0048 L 390.8805,33 H 293.94025 C 198.33333,33 196.97249,33.02751 195,35 c -1.9746,1.974599 -2,3.333333 -2,106.98183 v 104.98183 l 76.97758,0.26817 76.97758,0.26817 2.77242,2.78173 c 2.70994,2.71903 2.76595,3.00904 2.48529,12.8678 -1.04677,36.77037 -16.46241,75.03241 -42.00281,104.25215 -27.20027,31.11872 -68.81026,52.38723 -109.97625,56.21321 L 193,424.2872 v 25.3564 c 0,24.02307 0.10517,25.46157 2,27.3564 1.98082,1.98082 3.33333,2 141,2 137.66667,0 139.01918,-0.0192 141,-2 z M 383,464.06664 C 366.50698,461.7752 352.88912,454.96252 340.9633,443.0367 326.57549,428.64889 319.68892,412.12818 319.68892,392 c 0,-20.12818 6.88657,-36.64889 21.27438,-51.0367 14.38781,-14.38781 30.90852,-21.27438 51.0367,-21.27438 20.12818,0 36.64889,6.88657 51.0367,21.27438 9.74997,9.74997 15.41455,19.43212 19.06884,32.59329 3.04786,10.97707 3.04786,25.90975 0,36.88682 -7.00995,25.24682 -26.51054,44.85585 -51.16213,51.44664 -8.78629,2.34909 -20.26587,3.24326 -27.94341,2.17659 z m 24.28352,-18.74293 c 9.23356,-2.7411 16.94357,-7.34391 23.81993,-14.22026 17.11815,-17.11815 21.21944,-41.95733 10.57289,-64.03393 -4.31041,-8.938 -15.80786,-20.43545 -24.74586,-24.74586 -22.06008,-10.63858 -46.92859,-6.53245 -64.03393,10.57289 -20.88948,20.88948 -21.87004,54.21731 -2.23822,76.07347 14.17948,15.78606 36.66351,22.27958 56.62519,16.35369 z m -47.44759,-34.0243 C 352.77617,404.31408 347,398.10966 347,397.51181 347,396.16214 356.20223,387 357.55781,387 c 0.54401,0 4.568,3.6 8.94219,8 4.37419,4.4 8.64286,8 9.48592,8 0.84306,0 10.52439,-9 21.51408,-20 10.98969,-11 20.45238,-20 21.02822,-20 1.32298,0 10.47178,9.22668 10.47178,10.56093 0,0.54572 -11.15818,12.11776 -24.79595,25.71565 C 381.64176,421.77287 379.10469,424 376.03998,424 c -2.97358,0 -4.87166,-1.4877 -16.20405,-12.70059 z m 40.7355,-147.87084 C 399.50058,262.35772 399,259.99134 399,256 c 0,-9.42657 -1.58171,-9 33.37143,-9 22.17778,0 30.54817,0.3196 31.42857,1.2 0.69091,0.69091 1.2,4 1.2,7.8 0,3.8 -0.50909,7.10909 -1.2,7.8 -0.8804,0.8804 -9.25079,1.2 -31.42857,1.2 -26.14719,0 -30.44074,-0.21217 -31.8,-1.57143 z M 213.5,232.06367 c -1.1,-0.45518 -2.9,-1.82797 -4,-3.05063 -1.96599,-2.18522 -2,-3.63069 -2,-85.01304 0,-81.383441 0.034,-82.827738 2,-85.009775 3.35467,-3.723271 5.92458,-4.115902 19.38503,-2.961658 22.41204,1.921849 41.36437,7.060533 60.60433,16.432087 54.14203,26.371945 89.54767,78.396426 94.4514,138.785346 1.09393,13.4717 0.71367,15.96999 -2.93068,19.254 -2.17736,1.96208 -3.76763,2.00371 -83.86476,2.19564 C 252.24039,232.80325 214.6,232.51886 213.5,232.06367 Z m 136.84029,-16.72071 c 19.48177,-0.76834 17.74928,1.2291 14.65133,-16.89199 C 357.07087,152.11959 327.44682,111.49873 286,90.13674 273.02837,83.451064 264.38987,80.167623 249.98561,76.447889 c -9.72655,-2.511767 -22.60527,-4.408001 -24.85188,-3.659132 -1.24931,0.416438 -1.71094,141.300703 -0.46706,142.544573 0.86165,0.86165 103.86996,0.86954 125.67362,0.01 z m 50.23114,0.0856 C 399.50058,214.35772 399,211.99134 399,208 c 0,-9.42657 -1.58171,-9 33.37143,-9 22.17778,0 30.54817,0.3196 31.42857,1.2 0.69091,0.69091 1.2,4 1.2,7.8 0,3.8 -0.50909,7.10909 -1.2,7.8 -0.8804,0.8804 -9.25079,1.2 -31.42857,1.2 -26.14719,0 -30.44074,-0.21217 -31.8,-1.57143 z m 0,-48 C 399.50058,166.35772 399,163.99134 399,160 c 0,-9.42657 -1.58171,-9 33.37143,-9 22.17778,0 30.54817,0.3196 31.42857,1.2 0.69091,0.69091 1.2,4 1.2,7.8 0,3.8 -0.50909,7.10909 -1.2,7.8 -0.8804,0.8804 -9.25079,1.2 -31.42857,1.2 -26.14719,0 -30.44074,-0.21217 -31.8,-1.57143 z M 123.24643,304.25361 175,252.50721 V 178.75361 105 h -2.40063 c -5.73756,0 -26.00054,4.16898 -35.68983,7.34296 C 114.02399,119.8397 95.554136,131.3731 77.463618,149.46362 55.88749,171.03975 43.321678,193.50585 36.333024,223 c -3.720531,15.70172 -4.351172,40.89083 -1.448882,57.87131 3.509088,20.53069 10.799452,39.41054 21.866899,56.62869 4.560458,7.09492 13.33624,18.48943 14.245387,18.49627 0.273036,0.002 23.785536,-23.28215 52.250002,-51.74266 z M 466.37181,103.29485 c 0.89114,-0.89114 -56.45758,-58.359878 -57.55881,-57.679276 -1.28516,0.794273 -1.00459,50.869837 0.30108,53.735463 0.61275,1.344833 2.07525,2.910543 3.25,3.479373 2.41142,1.16763 52.87062,1.60156 54.00773,0.46444 z"
         id="path1034" />
      <path
         style="fill:#0e0d08"
         d="m 190.5,493.10015 c -2.2,-1.02076 -5.43969,-3.37338 -7.19932,-5.22804 -5.98433,-6.30754 -6.29909,-8.13102 -6.31599,-36.58999 -0.008,-14.18017 -0.34962,-26.30762 -0.75821,-26.9499 -0.40859,-0.64228 -6.1891,-1.87632 -12.84558,-2.74231 C 133.72621,417.73194 107.55153,407.27658 84,389.88157 73.363466,382.02549 57.323502,365.95249 49.664856,355.47569 19.938118,314.81044 9.8242956,263.69507 21.968898,215.5 29.50904,185.57743 43.749656,160.37785 65.5,138.46924 c 26.872097,-27.06763 59.43938,-43.058041 97.8809,-48.059154 6.65648,-0.865986 12.43699,-2.100022 12.84558,-2.742303 0.40859,-0.642281 0.74979,-12.769736 0.75821,-26.949902 0.0169,-28.458973 0.33166,-30.282452 6.31599,-36.589993 1.75963,-1.854661 4.99932,-4.207278 7.19932,-5.228038 3.81498,-1.770079 8.83312,-1.856942 108.48784,-1.877888 L 403.47568,17 449.23784,62.762162 495,108.52432 494.978,293.01216 c -0.0211,177.58503 -0.0914,184.6375 -1.87789,188.48784 -1.02076,2.2 -3.37338,5.43969 -5.22804,7.19932 -7.12207,6.75712 3.87907,6.30296 -152.08999,6.27872 -135.49715,-0.0211 -141.4459,-0.098 -145.28212,-1.87789 z M 477.41979,478.07569 480,475.65137 V 297.98309 120.3148 l -17.25,-0.65434 c -9.4875,-0.35989 -25.125,-0.6656 -34.75,-0.67936 -19.6052,-0.028 -22.71114,-0.79739 -28.69932,-7.10899 C 393.12324,105.36103 393,104.49518 393,67.603547 393,38.38687 392.79883,33.941684 391.41391,32.556769 389.98402,31.126881 380.33512,30.996745 293.43644,31.235341 L 197.04505,31.5 194.27252,34.272552 191.5,37.045103 191.2364,141.43753 c -0.23779,94.17333 -0.10843,104.54758 1.32143,105.97744 1.41905,1.41905 9.58826,1.58503 78.0136,1.58503 H 347 l 2.1381,2.1381 c 2.02432,2.02432 2.10832,2.80921 1.57866,14.75 -1.58439,35.71813 -16.54785,72.25045 -41.08241,100.30004 -26.96834,30.83205 -66.22005,51.36477 -106.70945,55.82012 -5.72071,0.6295 -10.74958,1.67266 -11.17526,2.31814 -0.42568,0.64548 -0.65599,12.26475 -0.5118,25.8206 0.24503,23.03655 0.39284,24.79213 2.26216,26.86803 1.1,1.22157 2.9,2.60513 4,3.07459 1.1,0.46945 63.9514,0.75384 139.66979,0.63197 L 474.83957,480.5 Z m -103.0982,-17.0674 c -13.34636,-3.49833 -24.14542,-9.9207 -33.87532,-20.1462 -7.50902,-7.8915 -12.46249,-16.00141 -16.1076,-26.37169 -2.58163,-7.34467 -2.8086,-9.1622 -2.8086,-22.4904 0,-13.31125 0.22962,-15.15586 2.8009,-22.5 3.78665,-10.8155 10.12851,-20.69373 18.34065,-28.56785 8.29787,-7.9563 16.24578,-12.87036 26.83798,-16.59348 7.34467,-2.58163 9.1622,-2.8086 22.4904,-2.8086 13.31125,0 15.15586,0.22962 22.5,2.8009 16.0998,5.63675 30.72037,17.61711 39.25837,32.16903 23.97231,40.85773 0.73301,93.97796 -45.92614,104.97764 -8.84341,2.0848 -24.60878,1.86398 -33.51064,-0.46935 z M 404.5,446.824 c 9.48987,-1.9786 19.26161,-7.48884 26.99529,-15.22252 11.31845,-11.31845 16.48097,-23.72326 16.48097,-39.60148 0,-15.83919 -5.18526,-28.3648 -16.39336,-39.60007 -15.1323,-15.16899 -37.23173,-20.59555 -56.93652,-13.98087 -23.75943,7.97578 -38.90953,28.83845 -38.90953,53.58094 0,16.26077 5.86119,29.70974 17.92911,41.13982 13.76919,13.04143 31.29236,17.75855 50.83404,13.68418 z M 360.33917,410.80123 C 353.55263,404.09191 348,398.1106 348,397.50944 348,396.15934 356.20385,388 357.56131,388 c 0.54209,0 4.5645,3.6 8.93869,8 4.37419,4.4 8.64286,8 9.48592,8 0.84306,0 10.52439,-9 21.51408,-20 10.98969,-11 20.45427,-20 21.03242,-20 1.32213,0 9.46758,8.22922 9.46758,9.56495 0,0.54409 -10.93359,11.88955 -24.29686,25.21215 C 381.62097,420.79205 379.09965,423 376.04232,423 c -2.96044,0 -4.84412,-1.46331 -15.70315,-12.19877 z M 429.25,263.25064 401,262.96885 v -6.91758 -6.91758 l 30.25,-0.31684 c 16.6375,-0.17427 30.8125,0.0757 31.5,0.55559 1.6183,1.1295 1.6581,11.81946 0.05,13.42756 -0.66,0.66 -2.1225,1.09479 -3.25,0.96621 -1.1275,-0.12858 -14.7625,-0.36059 -30.3,-0.51557 z M 211,229 c -1.96787,-1.96787 -2,-3.33333 -2,-85 V 61 l 2.14375,-2.143753 c 2.04256,-2.042555 2.76244,-2.114966 15.25,-1.533949 82.82781,3.853789 152.43016,73.456142 156.28395,156.283952 0.58102,12.48756 0.50861,13.20744 -1.53395,15.25 L 379,231 h -83 c -81.66667,0 -83.03213,-0.0321 -85,-2 z m 139.34029,-13.65704 c 19.48177,-0.76834 17.74928,1.2291 14.65133,-16.89199 C 357.07087,152.11959 327.44682,111.49873 286,90.13674 273.02837,83.451064 264.38987,80.167623 249.98561,76.447889 c -9.72655,-2.511767 -22.60527,-4.408001 -24.85188,-3.659132 -1.24931,0.416438 -1.71094,141.300703 -0.46706,142.544573 0.86165,0.86165 103.86996,0.86954 125.67362,0.01 z M 429.25,215.25066 401,214.96887 v -6.91758 -6.91758 l 30.25,-0.31684 c 16.6375,-0.17427 30.8125,0.0757 31.5,0.55559 1.6183,1.1295 1.6581,11.81946 0.05,13.42756 -0.66,0.66 -2.1225,1.09479 -3.25,0.96621 -1.1275,-0.12858 -14.7625,-0.36059 -30.3,-0.51557 z m 0,-48 -28.25,-0.28179 v -6.91758 -6.91758 l 30.25,-0.31684 c 16.6375,-0.17427 30.8125,0.0757 31.5,0.55559 1.6183,1.1295 1.6581,11.81946 0.05,13.42756 -0.66,0.66 -2.1225,1.09479 -3.25,0.96621 -1.1275,-0.12858 -14.7625,-0.36059 -30.3,-0.51557 z M 199.78941,406.95251 C 247.5571,401.79977 290.35999,374.38329 314.57339,333.43009 326.1045,313.927 334.22483,288.58808 334.42004,271.5 l 0.08,-7 -73.47345,-0.25655 -73.47344,-0.25655 -52.02656,51.9984 c -44.646982,44.62283 -51.875302,52.24779 -50.960241,53.75655 2.055501,3.38914 18.757641,15.12161 29.295001,20.57836 27.09646,14.03184 56.77709,19.77685 85.9281,16.6323 z M 124.26008,305.23996 176.01294,253.47992 175.75647,178.98996 175.5,104.5 169,104.73423 c -3.575,0.12883 -10.94623,1.17472 -16.3805,2.32419 C 93.375756,119.58982 47.894642,165.3962 34.522508,226 c -2.47516,11.21766 -3.113311,39.88607 -1.168636,52.5 2.879703,18.67888 9.189225,36.51462 19.015937,53.75417 C 57.98553,342.10615 69.352678,357 71.256094,357 71.944209,357 95.796,333.70798 124.26008,305.23996 Z M 467,103.25636 C 467,102.27585 409.73676,45 408.75647,45 408.34041,45 408,57.170455 408,72.045455 v 27.045454 l 2.45455,2.454541 2.45454,2.45455 h 27.04546 C 454.82955,104 467,103.66536 467,103.25636 Z"
         id="path1032" />
    </g>
  </g>
</svg>
