<?xml version="1.0" encoding="UTF-8" standalone="no"?>
<!-- Created with Inkscape (http://www.inkscape.org/) -->

<svg
   version="1.1"
   id="svg3236"
   width="512"
   height="512"
   viewBox="0 0 512 512"
   sodipodi:docname="natural-disaster.png"
   xmlns:inkscape="http://www.inkscape.org/namespaces/inkscape"
   xmlns:sodipodi="http://sodipodi.sourceforge.net/DTD/sodipodi-0.dtd"
   xmlns="http://www.w3.org/2000/svg"
   xmlns:svg="http://www.w3.org/2000/svg">
  <defs
     id="defs3240" />
  <sodipodi:namedview
     id="namedview3238"
     pagecolor="#505050"
     bordercolor="#eeeeee"
     borderopacity="1"
     inkscape:showpageshadow="0"
     inkscape:pageopacity="0"
     inkscape:pagecheckerboard="0"
     inkscape:deskcolor="#505050"
     showgrid="false" />
  <g
     inkscape:groupmode="layer"
     inkscape:label="Image"
     id="g3242">
    <g
       id="g3246">
      <path
         style="fill:#b9d5f9"
         d="M 2.4522511,477.35398 C 1.0197985,475.80834 0,473.50044 0,471.80432 0,468.23595 2.3647756,463.45774 4.5448023,462.62118 5.4351273,462.27953 11.006683,462 16.926038,462 h 10.762463 l 6.76484,-18.94243 6.764839,-18.94242 -2.177184,-3.05758 C 36.577318,417.59766 35.9925,417.52201 27,419.5 c -10.017524,2.20346 -14.638873,1.95204 -17.5454545,-0.95455 -3.9125906,-3.91259 -3.0514852,-11.08524 1.6317275,-13.59162 1.12224,-0.60061 7.402568,-2.14064 13.956283,-3.4223 12.022242,-2.3511 15.82315,-2.27932 20.816616,0.3931 2.693836,1.4417 2.324293,1.70731 4.995269,-3.59042 1.155154,-2.29118 3.572968,-5.21618 5.37292,-6.5 3.125034,-2.22893 4.050682,-2.33421 20.523074,-2.33421 11.85272,0 17.250298,-0.34332 17.25,-1.0972 C 94.000196,387.79933 89.5,368.76282 84,346.09943 78.5,323.43604 74,303.24063 74,301.22075 c 0,-5.82688 5.073266,-33.49628 6.581793,-35.89685 0.752108,-1.19685 2.950203,-2.74842 4.884657,-3.44793 2.897099,-1.0476 3.625303,-1.89807 4.130424,-4.8239 0.337279,-1.95364 0.988083,-5.32839 1.44623,-7.49944 0.767072,-3.63498 0.560911,-4.24854 -2.605055,-7.75288 -1.890927,-2.09303 -3.430644,-4.59172 -3.421593,-5.55263 0.0091,-0.96092 0.872583,-6.47109 1.918961,-12.24483 1.046378,-5.77373 1.763412,-10.63679 1.59341,-10.8068 -0.170002,-0.17 -7.623568,-1.62439 -16.56348,-3.23197 -8.939913,-1.60759 -17.351939,-3.64203 -18.693392,-4.52098 -1.341454,-0.87896 -3.093628,-3.16483 -3.893721,-5.07972 -1.354045,-3.24069 -1.110909,-5.44383 3.513429,-31.83633 2.732479,-15.59509 5.704575,-29.77881 6.604658,-31.51938 0.983314,-1.90152 3.106784,-3.78138 5.320097,-4.70976 3.433312,-1.44012 4.708049,-1.36683 18.762109,1.07878 20.544743,3.57507 19.085483,3.82677 19.928593,-3.43749 0.38692,-3.33375 0.43879,-6.32606 0.11527,-6.64959 -0.32353,-0.32352 -9.258419,-2.9951 -19.855312,-5.93683 -29.268726,-8.1251 -32.569215,-9.22347 -34.750148,-11.56442 -4.021706,-4.3168 -1.356215,-12.732877 4.498038,-14.202201 1.69085,-0.424376 11.134614,1.748662 28.103423,6.466683 14.056252,3.908208 25.750219,6.912438 25.986599,6.676058 0.75184,-0.75184 5.65008,-29.806601 5.11517,-30.34151 -0.28196,-0.281961 -12.46149,-2.643917 -27.065619,-5.248793 -19.260045,-3.435332 -27.10066,-5.231794 -28.547073,-6.54078 -4.551997,-4.119501 -3.06587,-12.129206 2.693056,-14.514631 2.458961,-1.018535 6.75548,-0.512746 28.534853,3.359146 C 102.43738,53.948797 114.59419,56 115.3505,56 c 0.94178,0 1.76609,-2.442153 2.61586,-7.75 1.46348,-9.141123 3.19587,-12.483891 7.73726,-14.929591 3.26933,-1.760649 3.70632,-1.738815 19.55322,0.977001 8.91503,1.527844 17.21994,3.440192 18.45534,4.249662 1.23541,0.80947 3.00053,2.930025 3.92248,4.712346 1.49489,2.889911 1.54074,4.198575 0.4237,12.093472 -0.68892,4.86909 -0.87138,9.183829 -0.40547,9.58831 0.46591,0.404481 12.09711,2.674699 25.84711,5.04493 13.75,2.37023 25.99081,4.755342 27.20181,5.300247 1.21099,0.544906 2.92755,2.520134 3.81458,4.389397 1.50347,3.168335 1.48979,3.64992 -0.20181,7.106269 -2.98381,6.096629 -4.04064,6.123034 -33.87997,0.846492 -14.67335,-2.594714 -26.81175,-4.584732 -26.97422,-4.422262 -0.57955,0.579553 -6.42161,35.165837 -6.00956,35.577897 0.23106,0.23106 12.22467,3.72466 26.65246,7.76357 18.03042,5.04742 26.87627,7.98738 28.29181,9.40291 2.66059,2.66059 2.78388,9.08911 0.22848,11.9128 -3.52045,3.89004 -6.22347,3.57668 -32.72848,-3.79431 -13.92721,-3.87312 -25.59922,-6.71064 -25.9378,-6.30559 -0.33858,0.40505 -6.99525,37.18645 -14.7926,81.73645 l -14.17699,81 11.99642,49.40694 c 6.59803,27.17382 12.18026,49.59079 12.40496,49.81548 0.58324,0.58324 12.61017,-5.6014 12.61455,-6.48682 0.002,-0.40458 -2.49676,-18.20335 -5.55279,-39.55282 -5.50951,-38.48941 -5.54086,-38.84388 -3.71257,-41.97435 3.35283,-5.74085 11.07963,-6.0068 14.64201,-0.50397 0.91271,1.40987 3.4425,15.99226 6.55686,37.79554 2.78894,19.525 5.06901,35.79483 5.06683,36.15517 -0.002,0.36035 2.63432,0.41594 5.85892,0.12355 4.20874,-0.38164 8.57505,0.1222 15.47569,1.78579 5.28705,1.27459 9.77724,2.11899 9.97822,1.87646 C 211.14053,387.94691 239,310.71878 239,309.42941 c 0,-1.11007 -1.21852,-1.27138 -5.90423,-0.78163 -7.26975,0.75984 -10.04247,0.10939 -14.10479,-3.30882 -4.33344,-3.64635 -4.87812,-5.53955 -6.52302,-22.67265 -1.52236,-15.85684 -1.31725,-18.53423 1.75671,-22.9314 3.43939,-4.91991 6.28105,-5.62001 31.47952,-7.75566 13.0877,-1.10923 25.19903,-2.2426 26.91407,-2.51861 2.95676,-0.47585 3.3252,-1.06888 7.11391,-11.45066 2.19762,-6.02185 3.7569,-11.18758 3.46508,-11.4794 C 282.90543,226.23876 281.14621,226 279.28788,226 c -7.32272,0 -10.95167,-8.79164 -6.00347,-14.54426 2.26839,-2.63715 2.50513,-2.67604 33.75,-5.54393 17.30607,-1.58849 36.53798,-3.18762 42.73758,-3.55364 10.87658,-0.64215 11.35891,-0.58383 13.75,1.66248 1.77488,1.66742 2.47801,3.38207 2.47801,6.04288 0,5.45872 -2.58863,8.01643 -9.51263,9.399 l -5.85694,1.16951 -3.94211,10.72375 c -2.16817,5.89806 -3.70636,10.9595 -3.41822,11.24764 0.28814,0.28814 9.68274,-0.23626 20.8769,-1.16533 l 20.353,-1.68924 6,2.24365 c 5.48623,2.05153 7.86066,4.11688 27.72956,24.12005 13.35203,13.44226 21.98907,22.91037 22.40267,24.55828 0.37021,1.47503 0.17508,4.00131 -0.43362,5.61395 -1.04115,2.7583 -0.80496,3.25116 3.98531,8.31616 l 5.09204,5.38409 5.4202,-0.63704 5.4202,-0.63704 24.50928,24.39452 c 14.28214,14.21527 25.10704,25.80163 25.94182,27.76664 3.66535,8.62804 1.19882,14.81053 -10.6656,26.73386 -15.19804,15.27349 -21.08719,16.64705 -31.31119,7.30289 C 465.63657,392.20899 462.97751,390 462.68164,390 c -0.29587,0 -1.48853,2.54067 -2.65036,5.64594 l -2.11242,5.64594 2.91499,2.84994 c 2.33335,2.28128 4.78355,8.32033 12.27959,30.26568 l 9.36459,27.41573 9.34874,0.33839 c 8.80969,0.31887 9.48783,0.50016 11.76099,3.14414 3.51066,4.08338 3.25118,8.81053 -0.66449,12.10535 L 499.84655,480 H 252.37553 4.9045022 Z M 412.5,406.66166 l 25,-5.16166 2.40527,-6.85569 2.40526,-6.85569 L 404.37811,349.89431 366.44568,312 l -5.47284,0.0183 c -7.05206,0.0235 -103.65539,8.66752 -104.80476,9.37787 -1.19018,0.73558 -26.53142,70.57388 -25.85396,71.25133 0.72965,0.72965 30.7094,8.29795 32.9908,8.32843 0.99271,0.0133 7.28506,-4.93368 13.98301,-10.99321 C 289.2341,379.17514 292.8885,376.99389 299,377.0231 c 5.18397,0.0248 65.77217,13.5976 68.40784,15.32456 2.30121,1.50781 5.78125,6.34228 13.22785,18.37616 1.06339,1.71845 1.99971,2.09607 4.12021,1.66166 1.50925,-0.30919 13.9941,-2.88491 27.7441,-5.72382 z m -72.88478,-28.30087 c -6.54553,-2.00986 -14.63293,-10.02969 -16.93893,-16.79742 -5.02038,-14.73402 0.77936,-30.55961 13.68586,-37.34415 4.47636,-2.35308 6.29659,-2.70107 14.13785,-2.70284 9.77089,-0.002 14.86465,1.79246 20.84325,7.34364 7.43373,6.90229 10.49395,20.30842 7.21248,31.59627 -2.17548,7.4834 -9.68207,15.37655 -16.99236,17.86742 -5.99049,2.04116 -15.3698,2.05701 -21.94815,0.0371 z M 91.474532,191.75 c 1.075335,-4.71973 6.485463,-36.1231 6.261083,-36.34278 -0.30765,-0.3012 -22.191762,-4.28024 -22.377956,-4.06884 -0.701785,0.79682 -6.559781,37.79283 -6.06285,38.28976 0.545717,0.54572 16.328214,3.82459 20.436139,4.24568 0.677021,0.0694 1.461634,-0.88632 1.743584,-2.12382 z"
         id="path3260" />
      <path
         style="fill:#928b95"
         d="M 3.399704,478.23469 C -0.47519071,475.64735 -0.97534386,468.88443 2.4545455,465.45455 4.7609883,463.1481 5.5681644,463 15.832101,463 c 8.057785,0 11.222896,-0.36134 12.066258,-1.37753 0.628787,-0.75764 4.015726,-9.42014 7.526532,-19.25 6.238042,-17.46581 6.345647,-17.93679 4.729196,-20.69935 -2.8641,-4.89484 -3.286355,-4.9742 -14.446103,-2.71522 -10.897779,2.20595 -13.881882,1.94735 -16.6990813,-1.44717 C 8.2340062,416.57703 7.6,414.27015 7.6,412.38433 c 0,-5.7107 2.519551,-7.21114 16.983889,-10.1142 13.625698,-2.73473 13.471364,-2.74269 22.581955,1.16479 1.287772,0.55232 2.202125,-0.3609 4.028781,-4.02379 2.863575,-5.74217 6.169364,-8.36585 11.947211,-9.48207 6.045642,-1.16796 19.533616,-1.12849 25.88353,0.0758 2.91409,0.55265 5.522399,0.78076 5.796242,0.50692 0.273843,-0.27385 -4.306703,-20.41351 -10.178989,-44.75482 L 73.965733,301.5 76.963015,284.60477 c 1.648505,-9.29238 3.683556,-17.94262 4.522336,-19.22276 0.838779,-1.28014 2.971821,-2.70242 4.740093,-3.16062 2.95567,-0.76589 3.314764,-1.31264 4.451163,-6.77725 1.862794,-8.95761 1.65774,-10.50397 -1.876397,-14.15027 l -3.199789,-3.30135 1.307865,-8.74626 c 0.719327,-4.81044 1.533467,-10.57635 1.809202,-12.81313 l 0.501335,-4.06688 -15.859411,-2.8181 c -8.722677,-1.54995 -17.11389,-3.4527 -18.64714,-4.22831 -1.533251,-0.77562 -3.530884,-2.96863 -4.439184,-4.87336 -1.59626,-3.34739 -1.490861,-4.39033 3.153572,-31.20481 2.642765,-15.25792 5.488578,-29.22399 6.324029,-31.03572 C 61.433262,134.55718 65.481811,132 69.575996,132 c 1.471424,0 9.386569,1.1822 17.589212,2.62711 8.202643,1.44492 15.132352,2.40866 15.399362,2.14165 1.06857,-1.06856 2.62716,-12.97703 1.80594,-13.79825 -0.4791,-0.4791 -12.345963,-4.07312 -26.370802,-7.9867 -27.984681,-7.80903 -30.388411,-9.01518 -30.213811,-15.160793 0.10838,-3.814807 3.983452,-7.835543 7.519867,-7.802539 1.20683,0.01126 13.427548,3.155452 27.157151,6.987086 13.729603,3.831636 25.264395,6.634916 25.632885,6.229526 1.12355,-1.23611 5.94196,-30.601177 5.14705,-31.367911 C 112.83428,73.475097 101.925,71.320721 89,69.081677 61.005728,64.232128 58.53157,63.59701 56.53618,60.748192 53.055301,55.778541 56.674008,48 62.466851,48 c 1.406768,0 14.096851,2.051396 28.200185,4.558657 19.455314,3.458726 25.823204,4.266149 26.391664,3.346358 0.41209,-0.666764 1.06136,-3.73066 1.44283,-6.808657 C 119.83218,38.359668 123.9673,33 130.9203,33 c 4.12606,0 24.88729,3.567771 29.81406,5.12348 6.90547,2.180515 8.45668,7.373252 6.15349,20.599125 -0.61168,3.512537 -0.94494,6.553633 -0.74059,6.757992 0.20436,0.204359 11.92365,2.425268 26.04287,4.935353 14.11921,2.510085 26.77786,5.067971 28.13031,5.684192 4.90456,2.234668 6.04679,8.62354 2.22501,12.445313 -3.33335,3.33335 -5.56857,3.20544 -34.04545,-1.948238 -17.77015,-3.216 -24.29445,-4.051926 -25.13434,-3.22034 -1.35184,1.338475 -7.4349,34.816063 -6.50793,35.815803 0.35325,0.38097 12.05159,3.8777 25.99632,7.7705 13.94472,3.8928 26.19691,7.52891 27.22708,8.08024 6.69456,3.58282 3.80525,14.98526 -3.78568,14.93986 -1.5375,-0.009 -13.82045,-3.1174 -27.29545,-6.90713 -13.475,-3.78972 -24.85664,-6.55306 -25.29254,-6.14074 -0.4359,0.41232 -7.23879,37.26835 -15.11753,81.90229 l -14.325,81.15263 12.06158,50.00483 C 146.11208,390.5641 148.69504,400 150.01473,400 c 0.89465,0 4.06983,-1.2375 7.05596,-2.75 3.90838,-1.97963 5.41446,-3.31027 5.37628,-4.75 -0.0292,-1.1 -2.48472,-19.14946 -5.45679,-40.10991 -5.1975,-36.65514 -5.33814,-38.21009 -3.68433,-40.73413 3.07192,-4.68833 10.26005,-4.77431 13.28419,-0.15889 1.08379,1.65408 3.31921,14.39998 6.79332,38.73413 2.84789,19.94784 5.61418,36.24536 6.14731,36.2167 0.53313,-0.0287 2.66012,-0.41685 4.72665,-0.86266 2.83197,-0.61094 6.47485,-0.13638 14.79181,1.92695 6.06897,1.50563 11.28993,2.48208 11.60213,2.16989 0.63182,-0.63183 28.07744,-75.75294 28.95742,-79.25907 0.53949,-2.14952 0.27881,-2.22871 -8.4616,-2.57043 -8.36985,-0.32723 -9.2369,-0.56216 -12.05955,-3.26753 -4.06193,-3.89317 -4.75424,-6.55067 -6.17362,-23.69799 -1.13592,-13.723 -1.09401,-14.84796 0.68825,-18.47216 3.36481,-6.84229 5.52532,-7.46249 35.2647,-10.12314 14.64279,-1.31003 26.89658,-2.6991 27.23065,-3.08682 C 277.16137,247.97023 284,228.41021 284,226.60205 c 0,-1.25969 -0.52927,-1.56884 -1.9266,-1.12535 -1.05962,0.33632 -3.4571,-0.028 -5.32772,-0.8096 -6.24894,-2.61098 -7.11101,-10.46434 -1.54031,-14.03211 3.03694,-1.94501 81.64384,-9.02302 85.19852,-7.67153 2.96322,1.12661 5.59611,4.7509 5.59611,7.70328 0,1.22195 -1.03898,3.42962 -2.30884,4.90592 -1.79688,2.089 -3.46928,2.79569 -7.54221,3.18705 -4.39807,0.4226 -5.4403,0.92084 -6.52985,3.12158 -2.24018,4.52489 -7.91111,21.16003 -7.39083,21.68032 0.27328,0.27327 7.64621,-0.18974 16.3843,-1.02892 33.34252,-3.20212 31.51252,-3.96719 60.24452,25.18678 l 21.35709,21.67075 -0.62979,5.56663 -0.62979,5.56663 5.48557,5.41744 c 5.41342,5.34616 5.53343,5.40275 9.12291,4.3011 2.19473,-0.67358 4.48995,-0.77597 5.78712,-0.25817 3.26293,1.30249 50.40336,49.10878 51.60237,52.33125 2.95828,7.95075 0.39867,13.1382 -12.80027,25.94176 C 487.86152,398.23936 485.12034,400 479.86916,400 c -4.02276,0 -6.49267,-1.38328 -12.02347,-6.73375 -2.55987,-2.47641 -5.10525,-4.22387 -5.65639,-3.88324 -1.08617,0.67128 -4.1893,9.0949 -4.1893,11.37205 0,0.76933 1.2375,2.64585 2.75,4.17003 2.12398,2.14039 4.65329,8.55381 11.11083,28.17308 4.59846,13.97101 8.99633,26.41433 9.77305,27.65183 1.28083,2.04066 2.18836,2.25 9.75431,2.25 6.92527,0 8.7896,0.35201 10.97695,2.07258 3.51943,2.76838 3.67836,8.59847 0.32041,11.75311 L 500.3711,479 252.43555,478.98469 C 116.071,478.97627 4.0048668,478.63877 3.399704,478.23469 Z M 463,461.27617 c 0,-2.44246 -13.72308,-41.60298 -14.71442,-41.98943 -0.95592,-0.37264 -92.18373,17.50494 -98.30241,19.26396 -0.83425,0.23983 -4.09428,5.61404 -7.24451,11.94268 L 337.01097,462 h 62.99452 C 434.65247,462 463,461.67428 463,461.27617 Z m -51.37325,-52.79304 c 14.70718,-3.03428 26.90311,-5.67966 27.10207,-5.87862 0.87432,-0.87432 9.23609,-25.2962 9.25271,-27.02402 0.0116,-1.20278 -14.07714,-16.07371 -37.73153,-39.8264 C 389.4875,314.9053 371.825,297.48792 371,297.0488 c -0.825,-0.43912 -25.8,1.377 -55.5,4.03583 -29.7,2.65882 -54.3628,4.85248 -54.80623,4.8748 -1.24341,0.0626 -3.42617,5.5954 -18.68112,47.35262 -7.79845,21.34663 -13.97014,39.35636 -13.71485,40.02161 0.39637,1.03294 32.94773,9.66634 36.44595,9.66634 0.67196,0 6.36898,-4.69507 12.66004,-10.43349 C 290.2291,380.86784 293.18112,379 298.84487,379 c 3.8683,0 63.21773,12.36503 65.49529,13.64547 3.1005,1.7431 6.25756,5.57044 10.80955,13.10453 3.99976,6.62008 5.45397,8.25 7.36062,8.25 1.30685,0 14.40924,-2.48259 29.11642,-5.51687 z M 344.5,378.11586 c -17.32772,-4.55003 -26.66418,-22.95055 -19.64825,-38.72326 6.2513,-14.05372 22.79476,-20.57756 36.75565,-14.49443 21.68924,9.45058 22.41378,39.83604 1.20833,50.67466 -5.10796,2.6108 -13.57869,3.78691 -18.31573,2.54303 z M 96.066541,175.13784 c 2.472023,-13.99917 3.239235,-20.45191 2.5,-21.02658 -1.438948,-1.11863 -23.460489,-4.55065 -24.234262,-3.77687 -0.827657,0.82766 -7.419808,37.77105 -7.077902,39.66561 0.194354,1.07695 3.510582,2.09734 11.758162,3.61795 6.318104,1.16487 11.937461,2.02781 12.487461,1.91765 0.55,-0.11016 2.604943,-9.28916 4.566541,-20.39776 z"
         id="path3258" />
      <path
         style="fill:#c8766c"
         d="m 4.5,477.84527 c -5.1431365,-2.81308 -5.9934515,-8.0935 -1.919651,-11.92096 2.3755147,-2.23186 3.5186789,-2.45228 14.400733,-2.77671 l 11.820385,-0.35239 6.599266,-18.427 C 39.03033,434.23336 42,425.15473 42,424.19347 c 0,-0.96126 -1.283053,-3.15251 -2.85123,-4.86944 l -2.851229,-3.1217 -8.898771,1.85942 c -4.894323,1.02268 -10.156725,1.87715 -11.694225,1.89883 C 12.168477,420.01044 8,415.97396 8,412.5 c 0,-4.7941 3.56451,-6.9336 15.518111,-9.31435 13.540511,-2.6968 17.081561,-2.7271 21.256059,-0.18191 1.800793,1.09794 3.600793,1.99457 4,1.99251 0.399206,-0.002 1.56461,-2.04327 2.589786,-4.53603 1.062134,-2.58261 3.393842,-5.69975 5.420403,-7.24625 3.39414,-2.59011 4.173257,-2.73006 17.071928,-3.06657 8.472241,-0.22102 14.97503,0.0847 17.426954,0.81931 2.15131,0.64455 4.146148,0.93723 4.432975,0.65041 0.286827,-0.28683 -4.329834,-20.61763 -10.259247,-45.17955 l -10.780751,-44.65805 2.787918,-16.13976 c 1.533355,-8.87687 3.184293,-17.18967 3.66875,-18.4729 0.514681,-1.36328 2.471692,-2.95805 4.707891,-3.83645 l 3.82706,-1.50331 1.621608,-9.14869 c 1.38608,-7.8199 1.417372,-9.26298 0.215445,-9.93561 -5.023894,-2.81151 -5.420309,-5.62467 -2.886928,-20.48701 1.201751,-7.0502 1.322608,-9.67449 0.469815,-10.20154 -0.631481,-0.39028 -7.097064,-1.71809 -14.367962,-2.9507 -7.270898,-1.2326 -14.883187,-2.671 -16.916197,-3.19643 C 53.103353,204.69233 50,200.80933 50,196.14301 c 0,-5.68947 8.99164,-55.22616 10.582918,-58.30336 3.038417,-5.87565 6.343246,-6.16093 27.320993,-2.3584 7.922151,1.43601 14.723859,2.25269 15.114909,1.81484 0.39104,-0.43785 1.25656,-3.67024 1.92336,-7.1831 0.98959,-5.21335 0.96848,-6.61319 -0.1149,-7.61791 -0.73001,-0.677 -12.318913,-4.26105 -25.75313,-7.96456 -13.434218,-3.7035 -25.422095,-7.18756 -26.639728,-7.74235 C 50.246401,105.79124 48,102.14366 48,99.587806 48,96.704217 52.098136,93 55.288375,93 c 1.728768,0 13.608427,2.925 26.399242,6.5 20.252133,5.66042 27.166003,7.23969 27.361853,6.25 3.28607,-16.604768 5.54018,-31.464376 4.87948,-32.166704 -0.4743,-0.504188 -12.83702,-3.053329 -27.472722,-5.664758 C 67.687022,64.569572 59.279243,62.657699 57.922932,61.430255 55.389496,59.137526 55.335073,52.911726 57.828741,50.654988 60.514927,48.224023 64.85142,48.57195 91.5,53.356517 c 13.2,2.369967 24.52771,4.124488 25.17269,3.898935 0.64498,-0.225553 1.70463,-3.637802 2.35477,-7.582774 1.56642,-9.504799 3.39135,-13.169001 7.53892,-15.137155 3.2211,-1.528509 4.26504,-1.470931 18.67273,1.029888 8.39349,1.456902 16.26403,3.279928 17.49008,4.051169 1.22605,0.77124 2.9502,2.796527 3.83143,4.500636 1.46232,2.827816 1.46628,3.892894 0.0454,12.196738 -1.02736,6.003914 -1.2132,9.310759 -0.5464,9.722864 0.55576,0.343479 12.13222,2.557837 25.72545,4.920796 13.59324,2.362959 26.16146,4.884507 27.92939,5.60344 5.57735,2.268051 5.63506,10.546279 0.092,13.202981 -2.27932,1.092451 -6.17595,0.641318 -28.05152,-3.247676 C 177.78246,84.032362 165.42037,82 164.28362,82 c -2.42354,0 -2.21367,-0.74129 -5.87904,20.76622 -1.6941,9.94056 -2.40901,16.58653 -1.83836,17.08989 0.51358,0.45301 12.6149,4.06069 26.89181,8.01706 14.27692,3.95636 26.76442,7.92316 27.75,8.8151 2.40602,2.17741 2.38432,8.46569 -0.0368,10.65674 -1.00581,0.91025 -3.31411,1.65499 -5.12957,1.65499 -1.81545,0 -14.02068,-2.98153 -27.12272,-6.62561 -13.10205,-3.64409 -24.42482,-6.39425 -25.16172,-6.11148 -0.92918,0.35656 -5.70358,25.29774 -15.57744,81.37562 -7.83069,44.47381 -14.22461,81.602 -14.20871,82.50709 0.0246,1.3993 22.12939,94.07282 23.63872,99.10438 0.73371,2.44592 2.55219,2.2018 9.4187,-1.2644 5.16712,-2.60835 5.97148,-3.39356 5.97148,-5.82926 0,-1.54818 -2.25,-18.49353 -5,-37.65634 -2.75,-19.16281 -5,-36.28978 -5,-38.05995 0,-4.50608 2.74191,-7.53805 6.92444,-7.65696 6.81015,-0.19363 7.15163,0.88637 12.58814,39.81203 2.68122,19.19769 5.22432,35.91135 5.65133,37.14148 0.67111,1.93328 1.1283,2.1028 3.37134,1.25 3.87964,-1.47504 7.94653,-1.17289 18.65766,1.38619 5.3311,1.27369 10.11182,2.04837 10.62382,1.72151 C 211.77992,389.47939 241,309.85199 241,307.84212 c 0,-0.79314 -2.13898,-0.95287 -7.14273,-0.53337 -7.98059,0.66906 -11.89491,-0.46335 -15.63415,-4.52294 -2.74853,-2.98399 -3.89953,-9.30279 -4.74942,-26.07349 -0.57132,-11.27386 -0.45793,-12.46669 1.47561,-15.5225 1.15196,-1.82059 3.54713,-3.91244 5.32259,-4.64856 1.77545,-0.73611 14.2531,-2.29477 27.7281,-3.46369 13.475,-1.16892 25.44047,-2.33006 26.58994,-2.58032 1.62973,-0.35481 3.00772,-2.93693 6.25784,-11.72613 2.29235,-6.19912 4.16437,-11.83362 4.16006,-12.52112 -0.005,-0.79272 -1.48778,-1.25 -4.05329,-1.25 -7.64197,0 -11.43852,-7.05358 -6.70455,-12.45634 2.23622,-2.55213 2.50275,-2.59033 43.51853,-6.23718 l 41.26853,-3.66931 2.73147,2.03029 C 367.49611,208.92474 364.3255,218 357.11055,218 c -6.59278,0 -7.505,1.03539 -11.97299,13.5897 -2.51415,7.06435 -3.79177,12.00598 -3.1988,12.37245 0.54301,0.3356 9.66643,-0.1606 20.27427,-1.10267 20.06047,-1.78155 24.63965,-1.51655 31.13907,1.80209 3.7882,1.93427 41.9356,39.47847 44.79248,44.0842 1.76192,2.84049 1.86385,3.69866 0.81632,6.8727 l -1.19699,3.62692 6.43793,6.43793 c 6.07205,6.07205 6.58606,6.37044 9.0443,5.25039 5.764,-2.62625 8.38204,-0.53327 38.16215,30.50851 11.17141,11.64471 19.7752,21.44069 20.15285,22.94534 1.48519,5.91749 -0.31301,9.44408 -9.8778,19.37206 C 489.13763,396.78172 485.94891,399 479.77572,399 c -4.60312,0 -5.30016,-0.35861 -10.69037,-5.5 -3.1714,-3.025 -6.21766,-5.5 -6.76947,-5.5 -0.55181,0 -2.06256,3.11138 -3.35721,6.91418 l -2.35392,6.91418 3.03267,2.83582 c 2.54663,2.38134 4.50856,7.26439 12.24173,30.46847 l 9.20907,27.63265 9.58717,0.41931 c 8.97714,0.39263 9.73788,0.59453 11.95589,3.17311 1.30279,1.5146 2.36872,3.38254 2.36872,4.15099 0,2.71678 -2.25137,6.28479 -4.65732,7.38102 C 496.90094,479.45789 7.3680909,479.41399 4.5,477.84527 Z m 458.91328,-15.70495 c 0.57458,-0.92969 -12.87494,-42.00198 -14.18195,-43.30899 -0.89771,-0.89771 -1.47019,-0.7925 -58.7072,10.78845 -23.08673,4.67121 -42.34406,9.03021 -42.79408,9.68667 -2.52624,3.68513 -11.53286,22.55741 -11.01328,23.07699 0.96327,0.96326 126.09933,0.72314 126.69651,-0.24312 z m -53.55774,-52.57504 c 14.65445,-2.98909 27.35048,-5.70597 28.21338,-6.0375 1.59184,-0.61159 11.38663,-26.66112 10.74666,-28.58104 -0.18402,-0.55205 -17.35475,-18.31661 -38.15718,-39.47679 -23.13309,-23.53092 -38.80633,-38.71996 -40.35549,-39.10877 -3.81271,-0.95693 -109.55128,8.5388 -111.02695,9.97064 -1.22553,1.18914 -32.23633,85.13642 -32.26222,87.33493 -0.008,0.69023 7.79082,3.05172 19.09526,5.78198 15.91022,3.84265 19.38336,4.40063 20.74794,3.33325 0.90142,-0.70509 6.71225,-5.8798 12.91297,-11.49935 7.94355,-7.19904 12.42756,-10.52799 15.17885,-11.26883 3.40067,-0.91571 7.94892,-0.19528 35.22803,5.58001 17.22777,3.6473 32.44821,7.21302 33.82321,7.92381 3.46616,1.7918 5.92636,4.74311 11.44724,13.73238 2.61787,4.2625 5.43568,7.75 6.2618,7.75 0.82612,0 13.49204,-2.44562 28.1465,-5.43472 z M 340.56463,375.9795 c -6.65071,-2.59667 -13.09438,-9.10671 -15.57419,-15.73461 -4.01225,-10.72367 -1.78188,-20.58388 6.53798,-28.90375 11.14039,-11.14039 26.84142,-11.10173 38.0368,0.0936 10.83332,10.83332 11.18989,25.94785 0.88259,37.41204 -7.68225,8.54452 -19.21613,11.29749 -29.88318,7.13268 z M 93.349983,194.25 c 2.038298,-7.35834 6.820237,-39.47978 5.999553,-40.30046 -1.471328,-1.47133 -24.330454,-5.36862 -25.37316,-4.32592 -1.470144,1.47015 -8.085536,40.66722 -7.039975,41.71278 1.020525,1.02053 17.63494,4.33477 22.746211,4.53742 2.249689,0.0892 3.324711,-0.3868 3.667371,-1.62382 z"
         id="path3256" />
      <path
         style="fill:#877c8a"
         d="m 4.5,477.84527 c -5.1431365,-2.81308 -5.9934515,-8.0935 -1.919651,-11.92096 2.3755147,-2.23186 3.5186789,-2.45228 14.400733,-2.77671 l 11.820385,-0.35239 6.599266,-18.427 C 39.03033,434.23336 42,425.15473 42,424.19347 c 0,-0.96126 -1.283053,-3.15251 -2.85123,-4.86944 l -2.851229,-3.1217 -8.898771,1.85942 c -4.894323,1.02268 -10.156725,1.87715 -11.694225,1.89883 C 12.168477,420.01044 8,415.97396 8,412.5 c 0,-4.7941 3.56451,-6.9336 15.518111,-9.31435 13.540511,-2.6968 17.081561,-2.7271 21.256059,-0.18191 1.800793,1.09794 3.600793,1.99457 4,1.99251 0.399206,-0.002 1.56461,-2.04327 2.589786,-4.53603 1.062134,-2.58261 3.393842,-5.69975 5.420403,-7.24625 3.39414,-2.59011 4.173257,-2.73006 17.071928,-3.06657 8.472241,-0.22102 14.97503,0.0847 17.426954,0.81931 2.15131,0.64455 4.146148,0.93723 4.432975,0.65041 0.286827,-0.28683 -4.327586,-20.60831 -10.25425,-45.15885 l -10.775754,-44.63735 2.813831,-16.40876 c 1.547608,-9.02481 3.310603,-17.40518 3.917769,-18.62303 0.607165,-1.21785 2.777556,-2.85126 4.823092,-3.6298 3.301472,-1.25655 4.000378,-1.23126 6.223248,0.22522 3.947422,2.58645 4.13185,5.80668 1.288334,22.49515 L 91.131969,301.25941 104.693,357.3797 c 7.45856,30.86617 13.71177,56.2907 13.89601,56.49897 0.42261,0.47771 13.35956,-4.98644 13.90839,-5.87446 0.22329,-0.36129 -5.39795,-24.66985 -12.49165,-54.01903 l -12.89762,-53.36213 14.37796,-81.56153 c 7.90788,-44.85883 14.52105,-82.88507 14.69593,-84.50275 0.30688,-2.8386 0.0809,-3.00981 -6.47576,-4.90626 -3.99072,-1.15427 -7.12547,-1.59111 -7.59774,-1.05877 -0.44219,0.49845 -4.97714,24.75626 -10.07766,53.90626 -5.10052,29.15 -9.85594,54.42628 -10.56761,56.16951 -2.329487,5.70611 -7.543507,6.6993 -12.233149,2.33023 -2.718803,-2.53295 -2.824376,-5.76563 -0.612139,-18.74395 1.201751,-7.0502 1.322608,-9.67449 0.469815,-10.20154 -0.631481,-0.39028 -7.097064,-1.71809 -14.367962,-2.9507 -7.270898,-1.2326 -14.883187,-2.671 -16.916197,-3.19643 C 53.103353,204.69233 50,200.80933 50,196.14301 c 0,-5.68947 8.99164,-55.22616 10.582918,-58.30336 3.038417,-5.87565 6.343246,-6.16093 27.320993,-2.3584 7.922151,1.43601 14.723859,2.25269 15.114909,1.81484 0.39104,-0.43785 1.25656,-3.67024 1.92336,-7.1831 0.98959,-5.21335 0.96848,-6.61319 -0.1149,-7.61791 -0.73001,-0.677 -12.318913,-4.26105 -25.75313,-7.96456 -13.434218,-3.7035 -25.422095,-7.18756 -26.639728,-7.74235 C 50.246401,105.79124 48,102.14366 48,99.587806 48,96.704217 52.098136,93 55.288375,93 c 1.728768,0 13.608427,2.925 26.399242,6.5 20.252133,5.66042 27.166003,7.23969 27.361853,6.25 3.28607,-16.604768 5.54018,-31.464376 4.87948,-32.166704 -0.4743,-0.504188 -12.83702,-3.053329 -27.472722,-5.664758 C 67.687022,64.569572 59.279243,62.657699 57.922932,61.430255 55.389496,59.137526 55.335073,52.911726 57.828741,50.654988 60.514927,48.224023 64.85142,48.57195 91.5,53.356517 c 13.2,2.369967 24.52771,4.124488 25.17269,3.898935 0.64498,-0.225553 1.70463,-3.637802 2.35477,-7.582774 1.56642,-9.504799 3.39135,-13.169001 7.53892,-15.137155 3.2211,-1.528509 4.26504,-1.470931 18.67273,1.029888 8.39349,1.456902 16.26403,3.279928 17.49008,4.051169 1.22605,0.77124 2.9502,2.796527 3.83143,4.500636 1.46232,2.827816 1.46628,3.892894 0.0454,12.196738 -1.02736,6.003914 -1.2132,9.310759 -0.5464,9.722864 0.55576,0.343479 12.13222,2.557837 25.72545,4.920796 13.59324,2.362959 26.16146,4.884507 27.92939,5.60344 5.57735,2.268051 5.63506,10.546279 0.092,13.202981 -2.27932,1.092451 -6.17595,0.641318 -28.05152,-3.247676 C 177.78246,84.032362 165.42037,82 164.28362,82 c -2.42354,0 -2.21367,-0.74129 -5.87904,20.76622 -1.6941,9.94056 -2.40901,16.58653 -1.83836,17.08989 0.51358,0.45301 12.6149,4.06069 26.89181,8.01706 14.27692,3.95636 26.76442,7.92316 27.75,8.8151 2.40602,2.17741 2.38432,8.46569 -0.0368,10.65674 -1.00581,0.91025 -3.31411,1.65499 -5.12957,1.65499 -1.81545,0 -14.02068,-2.98153 -27.12272,-6.62561 -13.10205,-3.64409 -24.42482,-6.39425 -25.16172,-6.11148 -0.92918,0.35656 -5.70358,25.29774 -15.57744,81.37562 -7.83069,44.47381 -14.22461,81.602 -14.20871,82.50709 0.0246,1.3993 22.12939,94.07282 23.63872,99.10438 0.73371,2.44592 2.55219,2.2018 9.4187,-1.2644 5.16712,-2.60835 5.97148,-3.39356 5.97148,-5.82926 0,-1.54818 -2.25,-18.49353 -5,-37.65634 -2.75,-19.16281 -5,-36.28978 -5,-38.05995 0,-4.50608 2.74191,-7.53805 6.92444,-7.65696 6.81015,-0.19363 7.15163,0.88637 12.58814,39.81203 2.68122,19.19769 5.22432,35.91135 5.65133,37.14148 0.67111,1.93328 1.1283,2.1028 3.37134,1.25 3.87964,-1.47504 7.94653,-1.17289 18.65766,1.38619 5.3311,1.27369 10.11182,2.04837 10.62382,1.72151 C 211.77992,389.47939 241,309.85199 241,307.84212 c 0,-0.79314 -2.13898,-0.95287 -7.14273,-0.53337 -7.98059,0.66906 -11.89491,-0.46335 -15.63415,-4.52294 -2.74853,-2.98399 -3.89953,-9.30279 -4.74942,-26.07349 -0.57132,-11.27386 -0.45793,-12.46669 1.47561,-15.5225 1.15196,-1.82059 3.54713,-3.91244 5.32259,-4.64856 1.77545,-0.73611 14.2531,-2.29477 27.7281,-3.46369 13.475,-1.16892 25.44047,-2.33006 26.58994,-2.58032 1.62973,-0.35481 3.00772,-2.93693 6.25784,-11.72613 2.29235,-6.19912 4.16437,-11.83362 4.16006,-12.52112 -0.005,-0.79272 -1.48778,-1.25 -4.05329,-1.25 -7.64197,0 -11.43852,-7.05358 -6.70455,-12.45634 2.23622,-2.55213 2.50275,-2.59033 43.51853,-6.23718 l 41.26853,-3.66931 2.73147,2.03029 C 367.49611,208.92474 364.3255,218 357.11055,218 c -6.59278,0 -7.505,1.03539 -11.97299,13.5897 -2.51415,7.06435 -3.79177,12.00598 -3.1988,12.37245 0.54301,0.3356 9.66643,-0.1606 20.27427,-1.10267 20.06047,-1.78155 24.63965,-1.51655 31.13907,1.80209 3.7882,1.93427 41.9356,39.47847 44.79248,44.0842 1.74126,2.80717 1.85669,3.72034 0.85428,6.75768 -1.28909,3.906 -3.497,5.49655 -7.62996,5.49655 -2.25872,0 -6.60244,-3.82004 -23.81574,-20.9445 -11.57924,-11.51948 -22.20476,-21.37568 -23.61228,-21.90268 -1.81402,-0.6792 -24.58406,0.99046 -78.20683,5.73467 -41.60625,3.68107 -75.92436,6.96949 -76.26247,7.3076 -0.33811,0.33811 -0.24504,4.82004 0.20683,9.95983 L 230.5,290.5 l 3,0.28143 c 1.65,0.15479 33.22291,-2.40737 70.16203,-5.69368 52.55282,-4.6754 67.99686,-5.7517 71,-4.948 3.20624,0.85804 12.1903,9.36352 54.58116,51.67361 l 50.74319,50.64651 7.00681,-6.95311 C 490.84694,371.68254 494,368.10419 494,367.55485 494,367.00552 483.875,356.39604 471.5,343.97822 450.45088,322.85628 449,321.16646 449,317.77277 c 0,-2.7279 0.65349,-4.14165 2.63486,-5.70019 3.55884,-2.79939 6.32676,-2.60826 10.9651,0.75714 4.5084,3.27113 46.29989,46.27055 48.1146,49.5053 1.51069,2.69282 1.6064,6.69059 0.24585,10.26911 -1.18102,3.10631 -16.46841,19.19067 -22.36045,23.52615 -3.04844,2.2431 -4.97527,2.86972 -8.82424,2.86972 -4.60312,0 -5.30016,-0.35861 -10.69037,-5.5 -3.1714,-3.025 -6.21766,-5.5 -6.76947,-5.5 -0.55181,0 -2.06256,3.11138 -3.35721,6.91418 l -2.35392,6.91418 3.03267,2.83582 c 2.54663,2.38134 4.50856,7.26439 12.24173,30.46847 l 9.20907,27.63265 9.58717,0.41931 c 8.97714,0.39263 9.73788,0.59453 11.95589,3.17311 1.30279,1.5146 2.36872,3.38254 2.36872,4.15099 0,2.71678 -2.25137,6.28479 -4.65732,7.38102 C 496.90094,479.45789 7.3680909,479.41399 4.5,477.84527 Z m 458.91328,-15.70495 c 0.57458,-0.92969 -12.87494,-42.00198 -14.18195,-43.30899 -0.89771,-0.89771 -1.47019,-0.7925 -58.7072,10.78845 -23.08673,4.67121 -42.34406,9.03021 -42.79408,9.68667 -2.52624,3.68513 -11.53286,22.55741 -11.01328,23.07699 0.96327,0.96326 126.09933,0.72314 126.69651,-0.24312 z m -53.55774,-52.57504 c 14.65445,-2.98909 27.35048,-5.70597 28.21338,-6.0375 1.59184,-0.61159 11.38663,-26.66112 10.74666,-28.58104 -0.18402,-0.55205 -17.35475,-18.31661 -38.15718,-39.47679 -23.13309,-23.53092 -38.80633,-38.71996 -40.35549,-39.10877 -3.81271,-0.95693 -109.55128,8.5388 -111.02695,9.97064 -1.22553,1.18914 -32.23633,85.13642 -32.26222,87.33493 -0.008,0.69023 7.79082,3.05172 19.09526,5.78198 15.91022,3.84265 19.38336,4.40063 20.74794,3.33325 0.90142,-0.70509 6.71225,-5.8798 12.91297,-11.49935 7.94355,-7.19904 12.42756,-10.52799 15.17885,-11.26883 3.40067,-0.91571 7.94892,-0.19528 35.22803,5.58001 17.22777,3.6473 32.44821,7.21302 33.82321,7.92381 3.46616,1.7918 5.92636,4.74311 11.44724,13.73238 2.61787,4.2625 5.43568,7.75 6.2618,7.75 0.82612,0 13.49204,-2.44562 28.1465,-5.43472 z M 340.56463,375.9795 c -6.65071,-2.59667 -13.09438,-9.10671 -15.57419,-15.73461 -4.01225,-10.72367 -1.78188,-20.58388 6.53798,-28.90375 11.14039,-11.14039 26.84142,-11.10173 38.0368,0.0936 10.83332,10.83332 11.18989,25.94785 0.88259,37.41204 -7.68225,8.54452 -19.21613,11.29749 -29.88318,7.13268 z M 93.349983,194.25 c 2.038298,-7.35834 6.820237,-39.47978 5.999553,-40.30046 -1.471328,-1.47133 -24.330454,-5.36862 -25.37316,-4.32592 -1.470144,1.47015 -8.085536,40.66722 -7.039975,41.71278 1.020525,1.02053 17.63494,4.33477 22.746211,4.53742 2.249689,0.0892 3.324711,-0.3868 3.667371,-1.62382 z m 47.078097,-83 c 2.01682,-9.4487 5.43899,-30.656065 5.04877,-31.287458 -0.7126,-1.153011 -13.67041,-3.183744 -14.46625,-2.267135 -1.23944,1.427522 -6.10441,31.610783 -5.23517,32.480023 1.09059,1.09059 9.0968,3.59824 11.89511,3.7257 1.5955,0.0727 2.32606,-0.6297 2.75754,-2.65113 z m 8.96493,-50.831787 c 1.09647,-2.857355 0.63484,-7.19355 -0.82549,-7.753928 -0.78786,-0.302331 -4.11441,-0.85312 -7.39233,-1.223975 l -5.95987,-0.674281 -0.70694,4.18437 c -0.38882,2.301403 -0.49941,4.391904 -0.24576,4.645556 0.61965,0.619651 8.58406,2.15783 11.88039,2.294479 1.56493,0.06487 2.8906,-0.535642 3.25,-1.472221 z"
         id="path3254" />
      <path
         style="fill:#637891"
         d="m 2.1885614,475.96104 c -2.88029387,-2.6834 -2.7744583,-6.46605 0.2659841,-9.50649 C 4.776275,464.13282 5.5319137,464 16.419362,464 26.77663,464 28.033351,463.8062 28.96504,462.06532 31.031175,458.20471 42,426.64761 42,424.56398 42,423.38724 40.752379,420.93 39.22751,419.10346 l -2.77249,-3.321 -10.876127,2.20157 C 13.41989,420.44528 10.716182,420.0139 8.9347645,415.32842 7.5646208,411.72467 9.3466664,407.50563 12.835786,406.09266 16.181909,404.73759 34.393438,401 37.649917,401 c 1.336368,0 4.193905,0.9 6.350083,2 2.156178,1.1 4.278384,2 4.716014,2 0.437629,0 1.813238,-2.21805 3.056909,-4.92899 3.622335,-7.89595 7.138833,-9.49641 21.793232,-9.91878 10.90524,-0.3143 15.431878,0.19918 20.683845,2.34631 1.330065,0.54376 1.75,0.22375 1.75,-1.33359 0,-1.12697 -4.752929,-21.76015 -10.562065,-45.85151 L 74.87587,301.51096 77.483805,286.50548 c 3.835848,-22.07061 3.855628,-22.11605 10.257162,-23.55983 2.964238,-0.66854 3.871842,-0.42375 5.882053,1.58646 3.024361,3.02436 3.007775,6.10268 -0.123748,22.96789 l -2.413832,13 13.58349,56.5 c 7.47092,31.075 13.7346,56.6704 13.91928,56.87867 0.4235,0.47757 13.36019,-4.98616 13.90919,-5.87446 0.22329,-0.36129 -5.39795,-24.66985 -12.49165,-54.01903 l -12.89762,-53.36213 14.37796,-81.56153 c 7.90788,-44.85883 14.52105,-82.88507 14.69593,-84.50275 0.30688,-2.8386 0.0809,-3.00981 -6.47576,-4.90626 -3.99072,-1.15427 -7.12547,-1.59111 -7.59774,-1.05877 -0.44219,0.49845 -4.96634,24.75626 -10.05367,53.90626 -5.08732,29.15 -9.99334,54.57267 -10.90227,56.49483 -2.447386,5.17565 -6.064761,6.07227 -10.585861,2.62386 -4.211721,-3.21244 -4.296038,-4.03368 -1.885701,-18.3665 1.085823,-6.45674 1.371111,-10.57583 0.771173,-11.1345 C 88.928486,211.63001 81.525,210.03284 73,208.56844 56.917108,205.80575 53.764421,204.53373 51.021787,199.7009 49.384067,196.81506 49.567,195.39764 56.532816,157 c 3.173595,-17.49379 3.52318,-18.64957 6.427435,-21.25 3.84488,-3.44265 5.512715,-3.4516 24.346234,-0.1306 9.538279,1.68192 15.199905,2.27421 15.819185,1.65493 1.43404,-1.43404 3.35346,-14.21251 2.27957,-15.17618 C 104.90736,121.65136 92.8,118.05036 78.5,114.09592 c -16.626138,-4.59769 -26.691022,-7.87398 -27.916667,-9.08735 -4.154231,-4.11261 -1.008308,-12.016946 4.777451,-12.003656 1.176569,0.0027 13.387269,3.138578 27.13489,6.968612 19.477676,5.426404 25.245776,6.694684 26.128616,5.745084 0.62312,-0.67023 2.30277,-7.962337 3.73255,-16.204669 2.04863,-11.809807 2.33929,-15.231182 1.37139,-16.142586 C 113.0527,72.735265 101.475,70.307799 88,67.976986 74.525,65.646172 62.053516,63.15249 60.285591,62.435469 56.63346,60.954267 55.175275,57.24727 56.624162,53.127384 c 1.72716,-4.911153 4.18982,-4.900188 33.02564,0.147044 14.653118,2.564784 26.996088,4.444422 27.428838,4.176971 0.43274,-0.26745 1.27696,-3.065926 1.87604,-6.218836 C 121.61004,37.257676 123.92148,34 131.1818,34 c 4.78966,0 26.29985,3.685503 30.01945,5.143459 5.65284,2.215717 6.84259,7.198566 4.68166,19.607535 -0.62986,3.616898 -0.7389,6.78348 -0.25,7.260049 0.4769,0.464876 12.79209,2.920344 27.36709,5.456595 24.07618,4.189588 26.7058,4.841516 28.75,7.127628 4.55896,5.098455 1.51296,11.410765 -5.5,11.397803 -2.0625,-0.0038 -14.775,-1.980811 -28.25,-4.393331 -14.33569,-2.566616 -24.89032,-4.019587 -25.44083,-3.502235 -0.51746,0.486292 -2.36821,8.875791 -4.11278,18.643327 -2.34116,13.10776 -2.88049,18.06986 -2.05917,18.94539 0.61203,0.65242 11.91278,4.16196 25.11278,7.79896 27.68595,7.62834 29.24432,8.16855 30.53822,10.58623 2.59791,4.85424 -0.54556,10.92859 -5.65554,10.92859 -2.16102,0 -28.60997,-6.93941 -47.48286,-12.45807 -2.5301,-0.73983 -5.08399,-1.04614 -5.67531,-0.68068 -1.08251,0.66902 -29.2119,158.12337 -29.2391,163.66591 -0.0252,5.1291 23.4009,100.67691 24.8178,101.22424 1.64285,0.63461 13.89135,-4.50727 14.4868,-6.08151 0.24337,-0.64344 -1.95773,-17.81989 -4.89134,-38.16989 -2.93361,-20.35 -5.34842,-38.4625 -5.36625,-40.25 -0.0624,-6.25969 6.97055,-9.49743 11.92163,-5.48829 1.95899,1.58629 2.70805,5.47727 7.52312,39.07901 2.94114,20.52451 5.55143,37.52121 5.80065,37.77043 0.24922,0.24922 2.42784,-0.075 4.84137,-0.72054 3.83727,-1.02632 5.82107,-0.83769 15.8001,1.50229 6.27652,1.47178 11.79376,2.29405 12.26053,1.82728 C 212.25684,389.14316 241,310.27367 241,308.39542 241,307.30646 239.05302,307 232.13486,307 c -14.54873,0 -16.26647,-2.41849 -18.20737,-25.63513 -2.10844,-25.22065 -2.71439,-24.72627 34.40909,-28.07366 16.43121,-1.48158 27.59013,-2.91194 28.24344,-3.62025 1.71012,-1.85412 8.59313,-21.54862 8.19629,-23.45224 -0.24165,-1.15923 -1.15065,-1.62819 -2.79238,-1.44063 -8.26009,0.9437 -13.25226,-8.97924 -6.65809,-13.2343 1.48753,-0.95987 15.06294,-2.55418 42.98541,-5.04824 37.67684,-3.36533 40.99734,-3.52337 43.23413,-2.05777 4.77215,3.12683 4.12004,10.59833 -1.09819,12.5823 -1.41756,0.53896 -4.11272,0.97992 -5.98924,0.97992 -2.43706,0 -3.8308,0.64284 -4.87824,2.25 -2.67273,4.10099 -8.90959,22.82012 -7.92971,23.8 0.57385,0.57385 6.85486,0.36045 16.39019,-0.55685 20.9938,-2.0196 27.4383,-1.90789 32.95981,0.57132 3.20833,1.44057 10.74307,8.24897 26.25,23.71951 22.96462,22.91074 23.60336,23.82641 20.6003,29.53176 -1.53706,2.92017 -2.79094,3.65073 -6.29714,3.66895 -2.50645,0.013 -6.09314,-3.11475 -24,-20.92919 -11.57924,-11.51948 -22.20476,-21.37568 -23.61228,-21.90268 -1.81402,-0.6792 -24.58406,0.99046 -78.20683,5.73467 -41.60625,3.68107 -75.92436,6.96949 -76.26247,7.3076 -0.33811,0.33811 -0.24504,4.82004 0.20683,9.95983 L 230.5,290.5 l 3,0.28143 c 1.65,0.15479 33.22291,-2.40737 70.16203,-5.69368 52.55282,-4.6754 67.99686,-5.7517 71,-4.948 3.20624,0.85804 12.1903,9.36352 54.58116,51.67361 l 50.74319,50.64651 7.00681,-6.95311 C 490.84694,371.68254 494,368.10419 494,367.55485 494,367.00552 483.875,356.39604 471.5,343.97822 450.25625,322.66097 449,321.19297 449,317.68549 c 0,-3.11277 0.52677,-4.04021 3.25,-5.72203 2.0776,-1.28309 4.15184,-1.79869 5.75,-1.4293 2.87403,0.6643 50.27552,47.34801 52.67624,51.87859 1.00614,1.89876 1.35618,4.30886 1.00553,6.92317 -0.4729,3.52571 -2.04072,5.51322 -12.97205,16.44455 -11.56468,11.56468 -12.74685,12.46939 -16.90621,12.93821 -5.40516,0.60924 -8.74702,-0.94637 -14.25646,-6.63626 C 465.37293,389.83709 463.07288,388 462.43583,388 461.23295,388 457,397.96079 457,400.79138 c 0,0.88737 1.2948,2.98483 2.87733,4.66101 2.21139,2.34226 4.67743,8.48657 10.65498,26.54761 4.27771,12.925 8.59192,25.4125 9.58713,27.75 l 1.80949,4.25 h 8.92475 c 7.18341,0 9.36912,0.35982 11.2022,1.84417 2.81084,2.27608 3.03622,7.29159 0.4558,10.14292 C 500.69545,477.994 499.95037,478 252.53357,478 H 4.3771229 Z M 463.41328,462.14032 c 0.57458,-0.92969 -12.87494,-42.00198 -14.18195,-43.30899 -0.90128,-0.90128 -1.80822,-0.7348 -58.44042,10.72709 C 367.8509,434.20129 348.84187,438 348.54861,438 c -0.94678,0 -12.4689,23.74638 -11.83143,24.38385 0.963,0.96299 126.09908,0.72246 126.6961,-0.24353 z M 59,450.86803 C 59,449.35088 55.033724,443 54.086222,443 c -0.990517,0 -3.147999,7.09103 -2.484245,8.165 C 52.383986,452.43032 59,452.16474 59,450.86803 Z M 216.99626,450.75 c -0.006,-2.10802 -3.76004,-7.54912 -6.40252,-9.28053 -1.60833,-1.05382 -6.4728,-1.99892 -13.62155,-2.64648 l -11.11981,-1.00728 -9.24287,5.59215 c -10.55149,6.38388 -14.26662,7.02594 -18.15496,3.13759 -3.25407,-3.25406 -3.33774,-8.75317 -0.18121,-11.9097 1.25034,-1.25034 6.75008,-4.94238 12.22164,-8.20455 l 9.9483,-5.9312 9.18798,0.18421 c 12.54219,0.25146 23.6717,1.91954 28.19134,4.22529 C 225.87321,429.01661 234,440.59621 234,447.96016 V 452 h 43.42857 c 38.77139,0 43.603,-0.17443 45.05511,-1.62653 0.89459,-0.8946 4.06583,-6.49037 7.0472,-12.43505 3.07758,-6.1365 6.53204,-11.59303 7.99179,-12.62346 7.52751,-5.3137 7.28463,-4.10642 2.45995,-12.22756 -2.37104,-3.99104 -5.31786,-7.91618 -6.5485,-8.72252 -1.23063,-0.80634 -9.35408,-2.99997 -18.05211,-4.87473 -15.00662,-3.23449 -15.91655,-3.32132 -17.81028,-1.6994 -1.09762,0.94009 -6.85204,6.07608 -12.78758,11.41332 -10.10713,9.08832 -14.60983,11.77115 -19.78819,11.79035 -0.82722,0.003 -18.07569,-4.04442 -38.32992,-8.99442 -20.25424,-4.95 -37.69597,-9 -38.75941,-9 -1.06343,0 -18.28581,7.425 -38.27195,16.5 -22.72293,10.31767 -37.53661,16.5 -39.53622,16.5 -7.17233,0 -10.459436,-3.22869 -18.116067,-17.79412 L 86.354619,407.5 76.280543,407.21616 66.206467,406.93231 64.103233,413.16033 C 62.946455,416.58574 62,420.19193 62,421.17408 c 0,2.09272 18.348709,28.34333 20.818659,29.78424 2.710256,1.58111 134.182341,1.37699 134.177601,-0.20832 z m 194.35928,-41.27155 c 15.55446,-3.16399 27.57384,-6.09172 28.15008,-6.85692 0.5531,-0.73446 2.99459,-7.22247 5.42555,-14.4178 l 4.41992,-13.08243 -18.09746,-18.81065 c -9.9536,-10.34586 -27.49457,-28.14815 -38.97992,-39.56065 -19.06007,-18.93916 -21.18316,-20.75018 -24.32809,-20.75208 -9.87703,-0.006 -107.5751,9.28421 -108.61202,10.32798 -0.64152,0.64575 -2.81491,5.4491 -4.82975,10.6741 C 247.18341,335.98384 227,392.09454 227,393.46184 c 0,0.77186 0.7875,1.64196 1.75,1.93356 3.28194,0.99428 35.48146,8.6046 36.40637,8.6046 0.50694,0 5.57389,-4.25107 11.25988,-9.44681 C 290.13556,382.01677 293.21455,380 298.63452,380 c 6.10853,0 63.97515,12.51423 66.98457,14.48607 2.26541,1.48436 3.92346,3.78062 11.7436,16.26393 1.75295,2.79824 3.37735,4.25 4.75539,4.25 1.15115,0 14.308,-2.4847 29.23746,-5.52155 z m -69.5899,-33.12042 c -6.32246,-2.18932 -12.26156,-7.44885 -15.49298,-13.72018 -5.21297,-10.11702 -2.83618,-24.14523 5.38409,-31.77783 8.55321,-7.94174 20.54074,-9.63082 30.86965,-4.34963 20.28726,10.3729 20.02656,38.21718 -0.45401,48.49052 -5.80323,2.91099 -14.19905,3.47209 -20.30675,1.35712 z M 319.64411,245.35814 c 2.98553,-0.51371 3.34882,-1.10195 7.20303,-11.66319 2.23242,-6.11722 3.87151,-11.30964 3.64243,-11.53872 -0.64178,-0.64177 -25.90564,1.88148 -26.61735,2.65844 C 303.07328,225.68686 296,244.97403 296,246.28036 c 0,0.94634 16.53193,0.30152 23.64411,-0.92222 z M 96.648478,177.5 c 3.989662,-22.402 4.065592,-24.11283 1.101522,-24.81995 -5.851817,-1.39601 -23.717089,-4.04629 -24.176803,-3.58658 -0.897596,0.8976 -7.866331,41.94673 -7.229267,42.58379 1.04769,1.04769 18.965918,4.12299 23.127461,3.96935 L 93.442783,195.5 Z m 43.779602,-66.25 c 2.01682,-9.4487 5.43899,-30.656065 5.04877,-31.287458 -0.7126,-1.153011 -13.67041,-3.183744 -14.46625,-2.267135 -1.23944,1.427522 -6.10441,31.610783 -5.23517,32.480023 1.09059,1.09059 9.0968,3.59824 11.89511,3.7257 1.5955,0.0727 2.32606,-0.6297 2.75754,-2.65113 z m 8.96493,-50.831787 c 1.09647,-2.857355 0.63484,-7.19355 -0.82549,-7.753928 -0.78786,-0.302331 -4.11441,-0.85312 -7.39233,-1.223975 l -5.95987,-0.674281 -0.70694,4.18437 c -0.38882,2.301403 -0.49941,4.391904 -0.24576,4.645556 0.61965,0.619651 8.58406,2.15783 11.88039,2.294479 1.56493,0.06487 2.8906,-0.535642 3.25,-1.472221 z"
         id="path3252" />
      <path
         style="fill:#686269"
         d="m 2.1885614,475.96104 c -2.88029387,-2.6834 -2.7744583,-6.46605 0.2659841,-9.50649 C 4.776275,464.13282 5.5319137,464 16.419362,464 26.77663,464 28.033351,463.8062 28.96504,462.06532 31.031175,458.20471 42,426.64761 42,424.56398 42,423.38724 40.752379,420.93 39.22751,419.10346 l -2.77249,-3.321 -10.876127,2.20157 C 13.41989,420.44528 10.716182,420.0139 8.9347645,415.32842 7.5646208,411.72467 9.3466664,407.50563 12.835786,406.09266 16.181909,404.73759 34.393438,401 37.649917,401 c 1.336368,0 4.193905,0.9 6.350083,2 2.156178,1.1 4.278384,2 4.716014,2 0.437629,0 1.813238,-2.21805 3.056909,-4.92899 3.622335,-7.89595 7.138833,-9.49641 21.793232,-9.91878 10.90524,-0.3143 15.431878,0.19918 20.683845,2.34631 1.330065,0.54376 1.75,0.22375 1.75,-1.33359 0,-1.12697 -4.752929,-21.76015 -10.562065,-45.85151 L 74.87587,301.51096 77.483805,286.50548 c 3.835848,-22.07061 3.855628,-22.11605 10.257162,-23.55983 2.964238,-0.66854 3.871842,-0.42375 5.882053,1.58646 3.024361,3.02436 3.007775,6.10268 -0.123748,22.96789 l -2.413832,13 13.58349,56.5 c 7.47092,31.075 13.7346,56.6704 13.91928,56.87867 0.4235,0.47757 13.36019,-4.98616 13.90919,-5.87446 0.22329,-0.36129 -5.39795,-24.66985 -12.49165,-54.01903 l -12.89762,-53.36213 14.37796,-81.56153 c 7.90788,-44.85883 14.52105,-82.88507 14.69593,-84.50275 0.30688,-2.8386 0.0809,-3.00981 -6.47576,-4.90626 -3.99072,-1.15427 -7.12547,-1.59111 -7.59774,-1.05877 -0.44219,0.49845 -4.96634,24.75626 -10.05367,53.90626 -5.08732,29.15 -9.99334,54.57267 -10.90227,56.49483 -2.447386,5.17565 -6.064761,6.07227 -10.585861,2.62386 -4.211721,-3.21244 -4.296038,-4.03368 -1.885701,-18.3665 1.085823,-6.45674 1.371111,-10.57583 0.771173,-11.1345 C 88.928486,211.63001 81.525,210.03284 73,208.56844 56.917108,205.80575 53.764421,204.53373 51.021787,199.7009 49.384067,196.81506 49.567,195.39764 56.532816,157 c 3.173595,-17.49379 3.52318,-18.64957 6.427435,-21.25 3.84488,-3.44265 5.512715,-3.4516 24.346234,-0.1306 9.538279,1.68192 15.199905,2.27421 15.819185,1.65493 1.43404,-1.43404 3.35346,-14.21251 2.27957,-15.17618 C 104.90736,121.65136 92.8,118.05036 78.5,114.09592 c -16.626138,-4.59769 -26.691022,-7.87398 -27.916667,-9.08735 -4.154231,-4.11261 -1.008308,-12.016946 4.777451,-12.003656 1.176569,0.0027 13.387269,3.138578 27.13489,6.968612 19.477676,5.426404 25.245776,6.694684 26.128616,5.745084 0.62312,-0.67023 2.30277,-7.962337 3.73255,-16.204669 2.04863,-11.809807 2.33929,-15.231182 1.37139,-16.142586 C 113.0527,72.735265 101.475,70.307799 88,67.976986 74.525,65.646172 62.053516,63.15249 60.285591,62.435469 56.63346,60.954267 55.175275,57.24727 56.624162,53.127384 c 1.72716,-4.911153 4.18982,-4.900188 33.02564,0.147044 14.653118,2.564784 26.996088,4.444422 27.428838,4.176971 0.43274,-0.26745 1.27696,-3.065926 1.87604,-6.218836 C 121.61004,37.257676 123.92148,34 131.1818,34 c 4.78966,0 26.29985,3.685503 30.01945,5.143459 5.65284,2.215717 6.84259,7.198566 4.68166,19.607535 -0.62986,3.616898 -0.7389,6.78348 -0.25,7.260049 0.4769,0.464876 12.79209,2.920344 27.36709,5.456595 24.07618,4.189588 26.7058,4.841516 28.75,7.127628 4.55896,5.098455 1.51296,11.410765 -5.5,11.397803 -2.0625,-0.0038 -14.775,-1.980811 -28.25,-4.393331 -14.33569,-2.566616 -24.89032,-4.019587 -25.44083,-3.502235 -0.51746,0.486292 -2.36821,8.875791 -4.11278,18.643327 -2.34116,13.10776 -2.88049,18.06986 -2.05917,18.94539 0.61203,0.65242 11.91278,4.16196 25.11278,7.79896 27.68595,7.62834 29.24432,8.16855 30.53822,10.58623 2.59791,4.85424 -0.54556,10.92859 -5.65554,10.92859 -2.16102,0 -28.60997,-6.93941 -47.48286,-12.45807 -2.5301,-0.73983 -5.08399,-1.04614 -5.67531,-0.68068 -1.08251,0.66902 -29.2119,158.12337 -29.2391,163.66591 -0.0252,5.1291 23.4009,100.67691 24.8178,101.22424 1.64285,0.63461 13.89135,-4.50727 14.4868,-6.08151 0.24337,-0.64344 -1.95773,-17.81989 -4.89134,-38.16989 -2.93361,-20.35 -5.34842,-38.4625 -5.36625,-40.25 -0.0624,-6.25969 6.97055,-9.49743 11.92163,-5.48829 1.95899,1.58629 2.70805,5.47727 7.52312,39.07901 2.94114,20.52451 5.55143,37.52121 5.80065,37.77043 0.24922,0.24922 2.42784,-0.075 4.84137,-0.72054 3.83727,-1.02632 5.82107,-0.83769 15.8001,1.50229 6.27652,1.47178 11.79376,2.29405 12.26053,1.82728 C 212.25684,389.14316 241,310.27367 241,308.39542 241,307.30646 239.05302,307 232.13486,307 c -14.54873,0 -16.26647,-2.41849 -18.20737,-25.63513 -2.10844,-25.22065 -2.71439,-24.72627 34.40909,-28.07366 16.43121,-1.48158 27.59013,-2.91194 28.24344,-3.62025 1.71012,-1.85412 8.59313,-21.54862 8.19629,-23.45224 -0.24165,-1.15923 -1.15065,-1.62819 -2.79238,-1.44063 -8.26009,0.9437 -13.25226,-8.97924 -6.65809,-13.2343 1.48753,-0.95987 15.06294,-2.55418 42.98541,-5.04824 37.67684,-3.36533 40.99734,-3.52337 43.23413,-2.05777 4.77215,3.12683 4.12004,10.59833 -1.09819,12.5823 -1.41756,0.53896 -4.11272,0.97992 -5.98924,0.97992 -2.43706,0 -3.8308,0.64284 -4.87824,2.25 -2.67273,4.10099 -8.90959,22.82012 -7.92971,23.8 0.57385,0.57385 6.85486,0.36045 16.39019,-0.55685 20.9938,-2.0196 27.4383,-1.90789 32.95981,0.57132 3.20833,1.44057 10.74307,8.24897 26.25,23.71951 22.96462,22.91074 23.60336,23.82641 20.6003,29.53176 -1.53706,2.92017 -2.79094,3.65073 -6.29714,3.66895 -2.50645,0.013 -6.09314,-3.11475 -24,-20.92919 -11.57924,-11.51948 -22.20476,-21.37568 -23.61228,-21.90268 -1.81402,-0.6792 -24.58406,0.99046 -78.20683,5.73467 -41.60625,3.68107 -75.92436,6.96949 -76.26247,7.3076 -0.33811,0.33811 -0.24504,4.82004 0.20683,9.95983 L 230.5,290.5 l 3,0.28143 c 1.65,0.15479 33.22291,-2.40737 70.16203,-5.69368 52.55282,-4.6754 67.99686,-5.7517 71,-4.948 3.20624,0.85804 12.1903,9.36352 54.58116,51.67361 l 50.74319,50.64651 7.00681,-6.95311 C 490.84694,371.68254 494,368.10419 494,367.55485 494,367.00552 483.875,356.39604 471.5,343.97822 450.25625,322.66097 449,321.19297 449,317.68549 c 0,-3.11277 0.52677,-4.04021 3.25,-5.72203 2.0776,-1.28309 4.15184,-1.79869 5.75,-1.4293 2.87403,0.6643 50.27552,47.34801 52.67624,51.87859 1.00614,1.89876 1.35618,4.30886 1.00553,6.92317 -0.4729,3.52571 -2.04072,5.51322 -12.97205,16.44455 -11.56468,11.56468 -12.74685,12.46939 -16.90621,12.93821 -5.40516,0.60924 -8.74702,-0.94637 -14.25646,-6.63626 C 465.37293,389.83709 463.07288,388 462.43583,388 461.23295,388 457,397.96079 457,400.79138 c 0,0.88737 1.2948,2.98483 2.87733,4.66101 2.21139,2.34226 4.67743,8.48657 10.65498,26.54761 4.27771,12.925 8.59192,25.4125 9.58713,27.75 l 1.80949,4.25 h 8.92475 c 7.18341,0 9.36912,0.35982 11.2022,1.84417 2.81084,2.27608 3.03622,7.29159 0.4558,10.14292 C 500.69545,477.994 499.95037,478 252.53357,478 H 4.3771229 Z M 463.73845,463.18281 c 0.92947,-0.59033 -0.539,-6.13757 -5.88601,-22.23469 -3.91845,-11.79647 -7.52368,-21.95679 -8.01162,-22.5785 -0.64225,-0.81832 -14.33924,1.59393 -49.61399,8.73778 -26.79976,5.4275 -49.72819,10.30894 -50.95207,10.84766 -2.58818,1.13926 -13.71498,22.45536 -12.87038,24.65636 0.4469,1.1646 10.65973,1.38611 63.31424,1.37327 34.52976,-0.008 63.33868,-0.36927 64.01983,-0.80188 z M 59,450.86803 C 59,449.35088 55.033724,443 54.086222,443 c -0.990517,0 -3.147999,7.09103 -2.484245,8.165 C 52.383986,452.43032 59,452.16474 59,450.86803 Z M 216.99626,450.75 c -0.006,-2.10802 -3.76004,-7.54912 -6.40252,-9.28053 -1.60833,-1.05382 -6.4728,-1.99892 -13.62155,-2.64648 l -11.11981,-1.00728 -9.24287,5.59215 c -10.55149,6.38388 -14.26662,7.02594 -18.15496,3.13759 -3.25407,-3.25406 -3.33774,-8.75317 -0.18121,-11.9097 1.25034,-1.25034 6.75008,-4.94238 12.22164,-8.20455 l 9.9483,-5.9312 9.18798,0.18421 c 12.54219,0.25146 23.6717,1.91954 28.19134,4.22529 C 225.87321,429.01661 234,440.59621 234,447.96016 V 452 h 43.42857 c 38.77139,0 43.603,-0.17443 45.05511,-1.62653 0.89459,-0.8946 4.06583,-6.49037 7.0472,-12.43505 3.07758,-6.1365 6.53204,-11.59303 7.99179,-12.62346 7.52751,-5.3137 7.28463,-4.10642 2.45995,-12.22756 -2.37104,-3.99104 -5.31786,-7.91618 -6.5485,-8.72252 -1.23063,-0.80634 -9.35408,-2.99997 -18.05211,-4.87473 -15.00662,-3.23449 -15.91655,-3.32132 -17.81028,-1.6994 -1.09762,0.94009 -6.85204,6.07608 -12.78758,11.41332 -10.10713,9.08832 -14.60983,11.77115 -19.78819,11.79035 -0.82722,0.003 -18.07569,-4.04442 -38.32992,-8.99442 -20.25424,-4.95 -37.69597,-9 -38.75941,-9 -1.06343,0 -18.28581,7.425 -38.27195,16.5 -22.72293,10.31767 -37.53661,16.5 -39.53622,16.5 -7.17233,0 -10.459436,-3.22869 -18.116067,-17.79412 L 86.354619,407.5 76.280543,407.21616 66.206467,406.93231 64.103233,413.16033 C 62.946455,416.58574 62,420.19193 62,421.17408 c 0,2.09272 18.348709,28.34333 20.818659,29.78424 2.710256,1.58111 134.182341,1.37699 134.177601,-0.20832 z m 221.71856,-46.74497 c 0.64603,-0.0151 2.88462,-5.45504 6.88269,-16.72536 l 4.48357,-12.6389 -38.79054,-38.88718 c -21.3348,-21.38795 -39.4977,-39.27996 -40.362,-39.76002 -1.86424,-1.03545 -110.71625,8.39414 -112.02672,9.70461 -1.19258,1.19258 -31.87101,85.3861 -31.88808,87.51328 -0.009,1.14054 1.23719,2.04042 3.73626,2.69762 13.95116,3.66887 32.41123,8.09092 33.77595,8.09092 0.89524,0 6.65563,-4.55698 12.80088,-10.12662 13.54887,-12.27981 15.98506,-13.86483 21.3177,-13.86964 6.84189,-0.006 64.15606,12.71808 67.26823,14.93414 1.50152,1.06918 4.4523,4.78304 6.55729,8.25304 2.10499,3.46999 4.87163,7.72354 6.14807,9.45233 l 2.32082,3.14325 28.78053,-5.88822 c 15.82929,-3.23852 28.8772,-5.89048 28.99535,-5.89325 z m -96.38237,-27.7989 c -10.14359,-3.61764 -16.28886,-10.70353 -18.51063,-21.34392 -0.92595,-4.43455 -0.8329,-6.34547 0.53789,-11.04577 4.90167,-16.80746 22.61993,-24.95364 37.95565,-17.45058 20.00341,9.78676 20.19848,38.38608 0.32814,48.10773 -7.13661,3.49162 -13.78788,4.05897 -20.31105,1.73254 z m 13.18915,-15.7834 c 6.93127,-3.28911 8.20173,-12.43943 2.48727,-17.91424 -2.36944,-2.27006 -3.8802,-2.84182 -7.50887,-2.84182 -8.39733,0 -13.59556,8.11501 -10.02207,15.64558 1.65432,3.48623 6.29692,6.62096 9.87094,6.66498 1.01688,0.0125 3.34461,-0.687 5.17273,-1.5545 z M 319.64411,245.35814 c 2.98553,-0.51371 3.34882,-1.10195 7.20303,-11.66319 2.23242,-6.11722 3.87151,-11.30964 3.64243,-11.53872 -0.64178,-0.64177 -25.90564,1.88148 -26.61735,2.65844 C 303.07328,225.68686 296,244.97403 296,246.28036 c 0,0.94634 16.53193,0.30152 23.64411,-0.92222 z M 92.748401,195.75 c 1.456564,-1.833 8.221419,-41.09841 7.254799,-42.10923 -0.907896,-0.94941 -19.959417,-4.59824 -24.144792,-4.62431 -3.116048,-0.0194 -2.621729,-1.66937 -6.9565,23.21958 -1.794734,10.30483 -2.947186,19.05202 -2.561004,19.4382 0.386181,0.38618 5.979962,1.68891 12.430622,2.89496 6.450661,1.20605 12.010874,2.24636 12.356029,2.31181 0.345156,0.0654 1.074536,-0.44351 1.620846,-1.13101 z m 47.679679,-84.5 c 2.01682,-9.4487 5.43899,-30.656065 5.04877,-31.287458 -0.7126,-1.153011 -13.67041,-3.183744 -14.46625,-2.267135 -1.23944,1.427522 -6.10441,31.610783 -5.23517,32.480023 1.09059,1.09059 9.0968,3.59824 11.89511,3.7257 1.5955,0.0727 2.32606,-0.6297 2.75754,-2.65113 z m 8.96493,-50.831787 c 1.09647,-2.857355 0.63484,-7.19355 -0.82549,-7.753928 -0.78786,-0.302331 -4.11441,-0.85312 -7.39233,-1.223975 l -5.95987,-0.674281 -0.70694,4.18437 c -0.38882,2.301403 -0.49941,4.391904 -0.24576,4.645556 0.61965,0.619651 8.58406,2.15783 11.88039,2.294479 1.56493,0.06487 2.8906,-0.535642 3.25,-1.472221 z"
         id="path3250" />
      <path
         style="fill:#060506"
         d="M 4.5228279,476.4397 C -0.58959302,473.76634 -1.4242783,470.40483 2.1885614,467.03896 4.1190235,465.24046 5.6885527,465 15.497432,465 c 7.355879,0 11.702732,-0.42588 12.840815,-1.25806 C 30.102588,462.45182 43,428.24426 43,424.85485 c 0,-2.2209 -3.947579,-8.5942 -5.764818,-9.3072 -0.69565,-0.27294 -5.582686,0.39218 -10.860079,1.47805 C 21.097709,418.11156 15.946907,419 14.928876,419 12.482525,419 9,415.17364 9,412.48575 c 0,-4.07585 3.85235,-6.08687 16.237404,-8.4763 12.618023,-2.43438 16.381356,-2.24109 20.573824,1.0567 l 2.649005,2.08371 1.769883,-2.18571 C 51.203552,403.762 52,402.16894 52,401.42401 c 0,-2.5166 6.118777,-8.36272 9.832266,-9.39414 5.789527,-1.60804 25.59549,-1.29581 29.821977,0.47013 C 96.439662,394.49948 97,394.40947 97,391.64135 97,390.3441 92.230211,369.55427 86.400469,345.44173 l -10.59953,-43.84097 3.019572,-16.88329 C 82.138888,266.16348 83.163475,264 88.631935,264 c 2.457673,0 3.756845,0.66372 4.993484,2.55107 1.580983,2.41288 1.521189,3.42852 -1.103878,18.75 L 89.746138,301.5 103.40869,357.963 c 7.51441,31.05465 14.15182,56.76538 14.74981,57.13496 1.53463,0.94845 15.27861,-5.48789 15.6401,-7.3243 0.16424,-0.83432 -5.34826,-24.83345 -12.25,-53.33141 -6.90173,-28.49796 -12.5615,-52.74322 -12.57726,-53.87836 -0.0158,-1.13514 6.57215,-39.55348 14.63981,-85.37408 9.27176,-52.65936 14.3187,-83.65996 13.71778,-84.26088 -0.52288,-0.52288 -4.07329,-1.82117 -7.88981,-2.88509 -5.38186,-1.50028 -7.20736,-1.66615 -8.1344,-0.73912 -0.6574,0.65741 -5.50392,25.70054 -10.77005,55.65141 -5.53647,31.48844 -10.20869,55.42361 -11.077777,56.75 -2.931506,4.47405 -11.446957,1.86536 -11.46686,-3.51283 -0.0055,-1.48132 0.761391,-7.55996 1.704163,-13.5081 1.330237,-8.39275 1.441919,-10.98304 0.498676,-11.566 C 89.524374,210.70605 81.895,209.14686 73.23871,207.65435 63.165609,205.91755 56.600052,204.28463 55,203.1182 c -4.757697,-3.46835 -4.734948,-5.00908 0.521984,-35.35245 6.557918,-37.85275 4.609281,-35.9766 32.310219,-31.10829 17.622717,3.09711 16.412017,3.55528 18.283917,-6.91927 0.88895,-4.97423 0.91846,-7.10361 0.10968,-7.91239 -0.60862,-0.60862 -12.945911,-4.41984 -27.416194,-8.46937 C 58.707573,107.73084 52.072581,105.47844 50.688469,103.81005 47.526958,99.999211 50.46118,94 55.486577,94 c 1.157375,0 13.516043,3.170324 27.463706,7.04516 16.453483,4.57099 25.701417,6.70314 26.333307,6.07125 0.53565,-0.53565 2.28861,-8.307966 3.89545,-17.271806 2.52485,-14.084922 2.72444,-16.442011 1.46997,-17.359305 C 113.85064,71.901521 102.01551,69.49404 88.348718,67.135342 74.681923,64.776643 62.715164,62.626791 61.75592,62.357891 54.597843,60.351306 55.93049,50 63.346897,50 c 1.479179,0 13.9507,2.003412 27.714491,4.452026 13.763792,2.448614 25.640102,4.216018 26.391802,3.927563 0.78674,-0.3019 1.84633,-3.358179 2.4969,-7.202026 2.95955,-17.48644 4.69003,-18.313086 28.87184,-13.791989 17.78727,3.325557 19.29743,5.353506 16.09774,21.61722 -1.00381,5.102266 -0.97236,6.359613 0.18639,7.45199 0.76667,0.722755 13.31894,3.398201 27.89394,5.945435 22.30068,3.89743 26.77731,4.963321 28.25,6.726342 3.66007,4.381646 0.6877,10.261325 -5.10419,10.096648 -1.57311,-0.04473 -13.21273,-1.913247 -25.86583,-4.152266 -19.95606,-3.53131 -29.27814,-4.747784 -29.28066,-3.820943 -3.7e-4,0.1375 -1.35007,7.9 -2.99932,17.25 -1.64925,9.35 -2.99895,18.2026 -2.99932,19.67245 -8e-4,3.14328 -1.96961,2.39596 28.49932,10.81775 12.1,3.34451 23.24322,6.57189 24.76272,7.17195 4.95169,1.95547 4.9871,10.23508 0.0491,11.47444 -3.01118,0.75576 -7.83772,-0.3416 -35.0568,-7.97047 -14.62755,-4.09976 -19.58076,-5.12666 -20.64444,-4.28002 C 151.23348,136.4822 123,293.18736 123,299.73452 c 0,1.621 5.16497,24.28137 11.47771,50.35638 6.31274,26.075 11.72131,48.4216 12.01905,49.6591 0.33786,1.40424 1.29423,2.25 2.54425,2.25 2.87729,0 14.54416,-5.47347 15.16658,-7.11534 0.2887,-0.76157 -1.87531,-18.03466 -4.80892,-38.38466 -2.93361,-20.35 -5.34842,-38.39276 -5.36625,-40.09501 -0.0382,-3.64935 2.58844,-6.40499 6.10519,-6.40499 5.62929,0 5.63162,0.008 11.34871,39.90452 2.94224,20.53223 5.76409,37.74589 6.27078,38.25258 0.56167,0.56167 2.69332,0.44729 5.46133,-0.29304 4.03256,-1.07854 5.80535,-0.91338 15.85853,1.47741 9.12667,2.17046 11.56084,2.44643 12.57017,1.42511 C 213.19767,389.19764 242,310.59122 242,307.92848 242,306.16112 241.21756,306 232.63486,306 c -14.39915,0 -15.74785,-1.68713 -17.58687,-22 -1.66104,-18.34688 -1.55105,-19.48043 2.29759,-23.68003 l 3.34557,-3.65065 27.40443,-2.43303 c 21.90456,-1.94474 27.72887,-2.7645 29.02108,-4.08466 0.88916,-0.9084 3.46045,-6.92259 5.71399,-13.36487 4.43241,-12.67117 4.35171,-13.34251 -1.55599,-12.94465 C 277.47104,224.09827 273,220.42584 273,217.04545 273,214.93899 276.24291,211 277.97712,211 c 0.53742,0 18.4186,-1.575 39.73595,-3.5 21.31735,-1.925 39.55265,-3.5 40.52288,-3.5 2.56692,0 5.76405,3.60534 5.76405,6.5 0,3.66703 -3.32675,6.48738 -7.75,6.57029 -6.67409,0.12509 -7.24272,0.76678 -11.89113,13.41911 -4.52794,12.32441 -4.93108,14.03892 -3.50786,14.91852 0.46806,0.28928 8.00556,-0.13233 16.75,-0.9369 8.74445,-0.80457 18.54678,-1.46469 21.78297,-1.46694 11.56681,-0.008 12.04473,0.31238 36.36602,24.38004 20.05415,19.84501 22.25,22.34354 22.25,25.31692 0,3.82302 -2.94164,7.29896 -6.17702,7.29896 -1.49545,0 -8.93097,-6.69345 -23.75,-21.37974 -11.86514,-11.75885 -22.59062,-21.69081 -23.83441,-22.07101 -2.05732,-0.62889 -151.87546,11.96466 -155.13721,13.04067 -1.13616,0.3748 -1.27308,2.37726 -0.7296,10.67042 0.38835,5.92599 1.1849,10.70335 1.89864,11.38729 0.94574,0.90625 16.35054,-0.17991 66.7296,-4.70499 36.025,-3.23579 68.10543,-5.89661 71.28984,-5.91295 3.82485,-0.0196 7.04901,0.62626 9.5,1.90306 2.04059,1.063 25.75844,24.013 52.70633,51 C 457.44407,360.91974 479.95533,383 480.5212,383 481.78566,383 496,368.80752 496,367.54501 496,367.04563 485.65,356.22538 473,343.5 c -22.97606,-23.11296 -24.71387,-25.38738 -22.23469,-29.1003 1.31254,-1.9657 5.36837,-3.58312 7.57783,-3.02195 1.18627,0.3013 13.63186,12.05965 27.65686,26.12966 l 25.5,25.58184 v 4.37973 c 0,4.26745 -0.32043,4.70269 -12.5,16.97839 -10.39782,10.4799 -13.12152,12.69941 -16.19571,13.19768 -5.53386,0.89695 -8.0828,-0.13295 -14.22705,-5.74845 -3.07312,-2.80866 -6.18064,-4.87903 -6.90561,-4.60083 C 460.20458,387.85872 456,398.09459 456,401.10308 c 0,1.05881 1.34656,3.15627 2.99236,4.66102 2.50573,2.29098 4.45913,7.12674 12.0118,29.7359 5.15141,15.42092 9.73963,27.53607 10.69877,28.25 1.02027,0.75943 4.86518,1.25 9.79707,1.25 4.95478,0 8.75534,0.48704 9.75414,1.25 2.71566,2.07443 3.12125,6.06484 0.89578,8.81323 L 500.17678,477.5 253.83839,477.74825 C 32.504817,477.9713 7.1977993,477.83848 4.5228279,476.4397 Z M 464.9417,463.45847 c 0.72184,-0.72196 -1.28364,-8.00918 -6.53611,-23.75 C 451.05326,417.67476 450.74893,417 448.16359,417 c -2.18754,0 -40.96384,7.6874 -89.90245,17.82315 -5.08138,1.05241 -9.95977,2.51178 -10.84088,3.24303 C 345.54504,439.62247 335,460.29087 335,462.41002 c 0,0.79383 0.7875,1.6726 1.75,1.95282 3.55469,1.0349 127.12436,0.16314 128.1917,-0.90437 z M 68.600339,462.59912 c 0.494662,-1.28907 -11.67985,-20.18906 -14.047384,-21.80748 -1.640857,-1.12167 -2.330591,0.1551 -6.049636,11.19851 -2.67614,7.94658 -3.206309,10.58036 -2.251786,11.18647 0.686657,0.43601 5.87509,0.79965 11.529852,0.80807 7.903813,0.0118 10.405697,-0.30864 10.818954,-1.38557 z m 249.516981,-0.24048 c 0.74922,-0.90275 5.24326,-9.10509 9.98675,-18.22742 4.7435,-9.12234 9.6981,-17.38013 11.01024,-18.35065 1.31213,-0.97053 7.2334,-2.8284 13.15839,-4.12861 5.92498,-1.30022 11.02716,-2.61848 11.33816,-2.92949 0.88654,-0.88654 -4.63655,-9.70174 -6.99318,-11.16157 C 354.26964,406.10641 304.52861,395 300.36255,395 c -1.93116,0 -5.31419,2.48541 -12.74575,9.36395 C 274.88708,416.14637 270.71362,419 266.21147,419 c -1.93019,0 -20.09933,-4.05 -40.37587,-9 -20.27654,-4.95 -37.46799,-9 -38.20323,-9 -0.73524,0 -17.2658,7.26006 -36.73458,16.13347 C 126.80716,428.1134 114.06256,433.4018 111,433.68914 c -7.3001,0.68491 -9.78177,-1.60311 -17.481537,-16.11735 L 86.849165,405 H 76.547027 c -7.066481,0 -10.601626,0.3926 -11.255692,1.25 C 63.964506,407.98932 60,419.33953 60,421.39887 c 0,1.67516 27.203026,40.41823 29.374567,41.83582 0.618988,0.40408 52.032833,0.74158 114.252993,0.75 103.67972,0.014 113.24132,-0.12177 114.48976,-1.62605 z m -96.26878,-9.3836 c -0.90831,-0.53027 -3.04203,-3.42808 -4.74161,-6.43957 -1.69958,-3.01148 -4.35584,-6.12995 -5.9028,-6.92991 -1.54696,-0.79997 -7.95602,-1.93471 -14.24234,-2.52166 l -11.42969,-1.06717 -8.03974,4.93034 c -10.98763,6.73813 -12.92629,7.39701 -16.43139,5.58446 -3.29673,-1.70481 -4.53432,-5.39853 -2.96373,-8.8456 1.50775,-3.30915 20.50474,-14.68873 25.68009,-15.38289 6.62643,-0.88879 26.96659,1.5312 32.35576,3.84956 8.93193,3.84241 17.80713,16.85182 15.67302,22.97374 -1.53229,4.39554 -6.03794,6.13702 -9.95757,3.8487 z m 189.79969,-42.51348 c 14.76847,-3.04614 27.41441,-6.09986 28.10209,-6.78604 2.20223,-2.19742 11.08532,-28.04488 10.19869,-29.67552 -0.44857,-0.825 -18.54668,-19.18781 -40.21803,-40.80623 l -39.40244,-39.30624 -4.91427,0.59857 c -2.70285,0.32921 -27.61703,2.59834 -55.36485,5.04252 -34.06822,3.00092 -50.85887,4.85431 -51.70796,5.70767 -1.62514,1.6333 -32.31428,85.57266 -32.32974,88.42663 -0.0107,1.98018 1.58138,2.5505 18.84329,6.75 10.37025,2.5229 19.48275,4.57379 20.25,4.55754 0.76724,-0.0163 6.34499,-4.56044 12.39499,-10.0982 13.42124,-12.28491 15.82933,-13.86373 21.15291,-13.86852 5.85233,-0.005 63.62971,12.48011 66.52161,14.37496 1.3128,0.86017 5.03954,5.85186 8.28164,11.09263 5.11103,8.26186 6.25671,9.52867 8.61751,9.52867 1.49754,0 14.80609,-2.4923 29.57456,-5.53844 z m -66.7854,-34.11393 c -1.45045,-0.25229 -5.04758,-1.89907 -7.99363,-3.65953 -20.18097,-12.05944 -14.66985,-42.8509 8.53162,-47.66751 22.89121,-4.7522 39.59143,21.07009 26.28035,40.63531 -5.3864,7.91717 -16.74206,12.44436 -26.81834,10.69173 z m 12.82647,-15.8797 c 5.86752,-3.84455 6.57902,-13.35345 1.38762,-18.54485 -9.71701,-9.71702 -25.65047,1.85959 -19.37477,14.07692 3.3477,6.5172 11.69507,8.59065 17.98715,4.46793 z M 310.94705,247.9029 c 6.35412,-0.60341 12.06619,-1.61591 12.69349,-2.25 1.92964,-1.95055 9.48937,-23.92299 8.55299,-24.85937 -0.49606,-0.49606 -6.76143,-0.35064 -14.53171,0.33728 -10.09243,0.89351 -14.01095,1.62193 -15.0048,2.78926 C 301.18418,225.65 294,245.28041 294,247.57495 c 0,1.73298 1.78721,1.76757 16.94705,0.32795 z M 92.93896,197.05889 c 2.21934,-1.40427 9.21331,-42.11029 7.54412,-43.90797 -1.750224,-1.88493 -26.103012,-5.93099 -27.47004,-4.56396 -0.573098,0.5731 -2.683978,10.36698 -4.690845,21.76419 -2.739459,15.55768 -3.36364,21.00741 -2.504473,21.86657 0.629406,0.62941 6.440403,2.13436 12.913326,3.34434 6.472924,1.20997 11.993952,2.24661 12.268952,2.30364 0.275,0.057 1.147532,-0.30605 1.93896,-0.80681 z M 140.71484,114.75 c 1.27334,-1.65846 6.64783,-33.362512 5.95965,-35.15588 -0.90194,-2.350432 -15.81111,-4.800111 -17.0467,-2.80089 C 128.88921,77.988272 124,106.02565 124,109.066 c 0,2.39902 0.63122,2.83739 6.75,4.68774 8.28832,2.50642 8.76851,2.55443 9.96484,0.99626 z m 9.06913,-52 c 0.56587,-0.6875 1.3404,-3.343073 1.72118,-5.901274 0.7888,-5.299427 1.18491,-5.00976 -9.3872,-6.864796 -7.61344,-1.335894 -8.2246,-0.929391 -8.88153,5.907423 -0.5351,5.568866 -1.06978,5.140179 8.76358,7.026353 6.39126,1.225932 6.64132,1.220545 7.78397,-0.167706 z"
         id="path3248" />
    </g>
  </g>
</svg>
