<?xml version="1.0" encoding="UTF-8" standalone="no"?>
<!-- Created with Inkscape (http://www.inkscape.org/) -->

<svg
   version="1.1"
   id="svg1246"
   width="512"
   height="512"
   viewBox="0 0 512 512"
   xmlns="http://www.w3.org/2000/svg"
   xmlns:svg="http://www.w3.org/2000/svg">
  <defs
     id="defs1250" />
  <g
     id="g1252">
    <g
       id="g1256"
       transform="translate(7.4882203,-3.1302395)">
      <path
         style="fill:#fdd446"
         d="m 124,494.25769 c -6.35231,-2.23659 -16.13089,-12.20575 -18.32861,-18.68583 -2.11609,-6.23935 -2.14622,-16.82203 -0.0653,-22.92922 2.10147,-6.16748 10.21981,-15.00472 16.38042,-17.83096 l 4.7972,-2.20076 0.37909,-13.80368 c 0.3707,-13.49868 0.43985,-13.86448 3.12948,-16.55546 L 133.04269,399.5 166.02134,399.18805 199,398.87611 V 367.93805 337 h -6.91261 -6.91262 l -0.33738,20.97874 -0.33739,20.97874 -2.77187,2.77126 -2.77187,2.77126 -49.75375,0.29308 -49.75374,0.29308 -2.230608,4.86226 c -2.856742,6.22711 -11.659778,14.33258 -17.860799,16.44548 -6.107198,2.08093 -16.68987,2.0508 -22.929224,-0.0653 -6.773934,-2.29738 -16.459364,-11.98282 -18.756754,-18.75675 -2.139654,-6.30885 -2.139654,-16.83487 0,-23.14372 2.29739,-6.77393 11.98282,-16.45937 18.756754,-18.75675 6.239354,-2.11609 16.822026,-2.14622 22.929224,-0.0653 6.223053,2.12041 15.003612,10.2174 17.880562,16.48856 L 79.488296,367 H 123.24415 167 v -15.03138 c 0,-11.16943 -0.32116,-15.12245 -1.25,-15.3858 -0.6875,-0.19492 -3.07035,-0.84626 -5.29522,-1.4474 -5.37691,-1.45281 -11.7568,-7.06214 -14.51674,-12.76342 -1.8966,-3.91784 -2.31141,-6.79109 -2.72062,-18.84492 l -0.48283,-14.22227 -21.1173,-0.58826 C 108.11328,288.34038 97.615811,287.53363 92.5,286.47883 54.918523,278.73014 25.083061,248.76254 17.459879,211.10638 15.106524,199.48153 15.857171,176.70652 18.946552,166 28.243879,133.7793 53.750007,108.33043 86.173635,98.92385 91.385069,97.411935 97.495414,96.64529 107.34057,96.268103 l 13.84058,-0.530258 4.54374,-7.118922 C 153.18319,45.598531 196.52142,19.284383 245.20707,16.071615 298.12508,12.579553 346.90246,35.164884 378.95338,78 c 8.14515,10.885746 17.38581,28.62058 21.49569,41.25486 l 2.82152,8.67371 12.1147,0.006 c 13.66744,0.007 22.85049,1.88518 34.05444,6.96529 18.43823,8.36029 34.14684,25.03255 41.46468,44.00834 4.20463,10.90297 5.43473,19.35509 4.87463,33.49379 -0.39906,10.07329 -0.98527,13.55872 -3.50288,20.82716 -9.20234,26.56746 -29.88126,45.71337 -57.18277,52.94359 -6.47119,1.71375 -11.89519,2.09147 -36.70163,2.55585 l -29.10825,0.54491 -0.53639,14.32981 c -0.44896,11.99389 -0.89392,15.06835 -2.72967,18.8605 -2.7197,5.61815 -9.12539,11.22678 -14.47223,12.67147 -2.22487,0.60114 -4.60772,1.25248 -5.29522,1.4474 -0.92884,0.26335 -1.25,4.21637 -1.25,15.3858 L 345,367 h 43.75585 43.75585 l 2.25037,-4.90534 c 2.87696,-6.27116 11.65751,-14.36815 17.88057,-16.48856 6.10719,-2.08093 16.68987,-2.0508 22.92922,0.0653 6.77393,2.29738 16.45937,11.98282 18.75675,18.75675 2.13966,6.30885 2.13966,16.83487 0,23.14372 -2.27504,6.70806 -11.91612,16.27947 -18.82861,18.69257 -6.26135,2.18579 -16.6497,2.24463 -22.85736,0.12947 -6.20102,-2.1129 -15.00406,-10.21837 -17.8608,-16.44548 l -2.23061,-4.86226 -49.75374,-0.29308 L 333.04374,384.5 330.27187,381.72874 327.5,378.95748 327.16261,357.97874 326.82523,337 H 319.91261 313 v 30.93805 30.93806 l 32.97866,0.31194 32.97865,0.31195 2.7504,2.75178 c 2.68963,2.69098 2.75878,3.05678 3.12948,16.55546 l 0.37909,13.80368 4.7972,2.20076 c 6.16061,2.82624 14.27895,11.66348 16.38042,17.83096 2.08093,6.10719 2.0508,16.68987 -0.0653,22.92922 -1.17278,3.45799 -3.48474,6.7415 -7.75,11.00675 C 391.44079,493.71644 385.96817,496 376,496 c -9.96817,0 -15.44079,-2.28356 -22.57861,-9.42139 -4.26526,-4.26525 -6.57722,-7.54876 -7.75,-11.00675 -2.11609,-6.23935 -2.14622,-16.82203 -0.0653,-22.92922 2.12041,-6.22306 10.2174,-15.00361 16.48856,-17.88057 L 367,432.5117 v -7.6939 -7.69391 L 334.02134,416.81195 301.04269,416.5 298.27134,413.72851 295.5,410.95703 295.19359,373.97851 294.88717,337 H 279.94359 265 v 39.75585 39.75585 l 4.90534,2.25037 c 6.27116,2.87696 14.36815,11.65751 16.48856,17.88057 2.08093,6.10719 2.0508,16.68987 -0.0653,22.92922 -1.17278,3.45799 -3.48474,6.7415 -7.75,11.00675 C 271.44079,477.71644 265.96817,480 256,480 c -9.96817,0 -15.44079,-2.28356 -22.57861,-9.42139 -4.26526,-4.26525 -6.57722,-7.54876 -7.75,-11.00675 -2.11609,-6.23935 -2.14622,-16.82203 -0.0653,-22.92922 2.12041,-6.22306 10.2174,-15.00361 16.48856,-17.88057 L 247,416.5117 V 376.75585 337 h -14.94359 -14.94358 l -0.30642,36.97851 -0.30641,36.97852 -2.77134,2.77148 -2.77135,2.77149 -32.97865,0.31195 L 145,417.12389 v 7.69391 7.6939 l 4.90534,2.25037 c 6.27116,2.87696 14.36815,11.65751 16.48856,17.88057 2.08093,6.10719 2.0508,16.68987 -0.0653,22.92922 -2.29738,6.77393 -11.98282,16.45937 -18.75675,18.75675 -6.1653,2.09098 -17.52882,2.05679 -23.57186,-0.0709 z"
         id="path1270" />
      <path
         style="fill:#f9af01"
         d="m 124,494.25769 c -6.35231,-2.23659 -16.13089,-12.20575 -18.32861,-18.68583 -2.11609,-6.23935 -2.14622,-16.82203 -0.0653,-22.92922 2.10147,-6.16748 10.21981,-15.00472 16.38042,-17.83096 l 4.7972,-2.20076 0.37909,-13.80368 c 0.3707,-13.49868 0.43985,-13.86448 3.12948,-16.55546 L 133.04269,399.5 166.02134,399.18805 199,398.87611 V 367.93805 337 h -6.91261 -6.91262 l -0.33738,20.97874 -0.33739,20.97874 -2.77187,2.77126 -2.77187,2.77126 -49.75375,0.29308 -49.75374,0.29308 -2.230608,4.86226 c -2.856742,6.22711 -11.659778,14.33258 -17.860799,16.44548 -6.107198,2.08093 -16.68987,2.0508 -22.929224,-0.0653 -6.773934,-2.29738 -16.459364,-11.98282 -18.756754,-18.75675 -2.139654,-6.30885 -2.139654,-16.83487 0,-23.14372 2.29739,-6.77393 11.98282,-16.45937 18.756754,-18.75675 6.239354,-2.11609 16.822026,-2.14622 22.929224,-0.0653 6.223053,2.12041 15.003612,10.2174 17.880562,16.48856 L 79.488296,367 H 123.24415 167 v -15.03138 c 0,-11.16943 -0.32116,-15.12245 -1.25,-15.3858 -0.6875,-0.19492 -3.07035,-0.84626 -5.29522,-1.4474 -5.37691,-1.45281 -11.7568,-7.06214 -14.51674,-12.76342 -1.8966,-3.91784 -2.31141,-6.79109 -2.72062,-18.84492 l -0.48283,-14.22227 -21.1173,-0.58826 C 108.11328,288.34038 97.615811,287.53363 92.5,286.47883 54.918523,278.73014 25.083061,248.76254 17.459879,211.10638 15.106524,199.48153 15.857171,176.70652 18.946552,166 28.243879,133.7793 53.750007,108.33043 86.173635,98.92385 91.385069,97.411935 97.495414,96.64529 107.34057,96.268103 l 13.84058,-0.530258 4.54374,-7.118922 C 153.18319,45.598531 196.52142,19.284383 245.20707,16.071615 298.12508,12.579553 346.90246,35.164884 378.95338,78 c 8.14515,10.885746 17.38581,28.62058 21.49569,41.25486 l 2.82152,8.67371 12.1147,0.006 c 13.66744,0.007 22.85049,1.88518 34.05444,6.96529 18.43823,8.36029 34.14684,25.03255 41.46468,44.00834 4.20463,10.90297 5.43473,19.35509 4.87463,33.49379 -0.39906,10.07329 -0.98527,13.55872 -3.50288,20.82716 -9.20234,26.56746 -29.88126,45.71337 -57.18277,52.94359 -6.47119,1.71375 -11.89519,2.09147 -36.70163,2.55585 l -29.10825,0.54491 -0.53639,14.32981 c -0.44896,11.99389 -0.89392,15.06835 -2.72967,18.8605 -2.7197,5.61815 -9.12539,11.22678 -14.47223,12.67147 -2.22487,0.60114 -4.60772,1.25248 -5.29522,1.4474 -0.92884,0.26335 -1.25,4.21637 -1.25,15.3858 L 345,367 h 43.75585 43.75585 l 2.25037,-4.90534 c 2.87696,-6.27116 11.65751,-14.36815 17.88057,-16.48856 6.10719,-2.08093 16.68987,-2.0508 22.92922,0.0653 6.77393,2.29738 16.45937,11.98282 18.75675,18.75675 2.13966,6.30885 2.13966,16.83487 0,23.14372 -2.27504,6.70806 -11.91612,16.27947 -18.82861,18.69257 -6.26135,2.18579 -16.6497,2.24463 -22.85736,0.12947 -6.20102,-2.1129 -15.00406,-10.21837 -17.8608,-16.44548 l -2.23061,-4.86226 -49.75374,-0.29308 L 333.04374,384.5 330.27187,381.72874 327.5,378.95748 327.16261,357.97874 326.82523,337 H 319.91261 313 v 30.93805 30.93806 l 32.97866,0.31194 32.97865,0.31195 2.7504,2.75178 c 2.68963,2.69098 2.75878,3.05678 3.12948,16.55546 l 0.37909,13.80368 4.7972,2.20076 c 6.16061,2.82624 14.27895,11.66348 16.38042,17.83096 2.08093,6.10719 2.0508,16.68987 -0.0653,22.92922 -1.17278,3.45799 -3.48474,6.7415 -7.75,11.00675 C 391.44079,493.71644 385.96817,496 376,496 c -9.96817,0 -15.44079,-2.28356 -22.57861,-9.42139 -4.26526,-4.26525 -6.57722,-7.54876 -7.75,-11.00675 -2.11609,-6.23935 -2.14622,-16.82203 -0.0653,-22.92922 2.12041,-6.22306 10.2174,-15.00361 16.48856,-17.88057 L 367,432.5117 v -7.6939 -7.69391 L 334.02134,416.81195 301.04269,416.5 298.27134,413.72851 295.5,410.95703 295.19359,373.97851 294.88717,337 H 279.94359 265 v 39.75585 39.75585 l 4.90534,2.25037 c 6.27116,2.87696 14.36815,11.65751 16.48856,17.88057 2.08093,6.10719 2.0508,16.68987 -0.0653,22.92922 -1.17278,3.45799 -3.48474,6.7415 -7.75,11.00675 C 271.44079,477.71644 265.96817,480 256,480 c -9.96817,0 -15.44079,-2.28356 -22.57861,-9.42139 -4.26526,-4.26525 -6.57722,-7.54876 -7.75,-11.00675 -2.11609,-6.23935 -2.14622,-16.82203 -0.0653,-22.92922 2.12041,-6.22306 10.2174,-15.00361 16.48856,-17.88057 L 247,416.5117 V 376.75585 337 h -14.94359 -14.94358 l -0.30642,36.97851 -0.30641,36.97852 -2.77134,2.77148 -2.77135,2.77149 -32.97865,0.31195 L 145,417.12389 v 7.69391 7.6939 l 4.90534,2.25037 c 6.27116,2.87696 14.36815,11.65751 16.48856,17.88057 2.08093,6.10719 2.0508,16.68987 -0.0653,22.92922 -2.29738,6.77393 -11.98282,16.45937 -18.75675,18.75675 -6.1653,2.09098 -17.52882,2.05679 -23.57186,-0.0709 z m 19.02638,-17.27115 C 147.46268,474.72331 151,468.96212 151,464 c 0,-7.60944 -7.39056,-15 -15,-15 -7.60944,0 -15,7.39056 -15,15 0,4.80861 3.53936,10.70869 7.76102,12.93757 4.825,2.54741 9.33764,2.56291 14.26536,0.049 z m 240,0 C 387.46268,474.72331 391,468.96212 391,464 c 0,-4.96212 -3.53732,-10.72331 -7.97362,-12.98654 C 380.85569,449.90606 377.69382,449 376,449 c -4.96212,0 -10.72331,3.53732 -12.98654,7.97362 -2.54939,4.99722 -2.5501,9.05416 -0.002,14.04798 3.69569,7.24414 12.41463,9.84255 20.01536,5.96494 z m -120,-16 C 267.46268,458.72331 271,452.96212 271,448 c 0,-4.96212 -3.53732,-10.72331 -7.97362,-12.98654 C 260.85569,433.90606 257.69382,433 256,433 c -4.96212,0 -10.72331,3.53732 -12.98654,7.97362 -2.54939,4.99722 -2.5501,9.05416 -0.002,14.04798 3.69569,7.24414 12.41463,9.84255 20.01536,5.96494 z m -208,-72 C 59.462682,386.72331 63,380.96212 63,376 c 0,-7.60944 -7.390558,-15 -15,-15 -7.609442,0 -15,7.39056 -15,15 0,4.80861 3.539356,10.70869 7.761021,12.93757 4.824997,2.54741 9.33764,2.56291 14.265359,0.049 z m 416,0 C 475.46268,386.72331 479,380.96212 479,376 c 0,-4.96212 -3.53732,-10.72331 -7.97362,-12.98654 C 468.85569,361.90606 465.69382,361 464,361 c -4.96212,0 -10.72331,3.53732 -12.98654,7.97362 -2.54939,4.99722 -2.5501,9.05416 -0.002,14.04798 3.69569,7.24414 12.41463,9.84255 20.01536,5.96494 z M 348.54545,316.54545 C 350.97061,314.1203 351,313.8743 351,296 c 0,-17.8743 -0.0294,-18.1203 -2.45455,-20.54545 L 346.09091,273 H 278.08064 C 200.71,273 208,272.07207 208,281.92041 v 5.05188 l 32.25,0.26386 32.25,0.26385 v 8.5 8.5 l -32.25,0.26385 -32.25,0.26386 v 5.05188 C 208,319.92793 200.71,319 278.08064,319 h 68.01027 z m -61.10818,-12.84834 c -0.29216,-0.76135 -0.39757,-4.71717 -0.23424,-8.79069 L 287.5,287.5 h 8.5 8.5 v 8.5 8.5 l -8.26577,0.2907 c -6.32118,0.22231 -8.39073,-0.035 -8.79696,-1.09359 z m 32,0 c -0.29216,-0.76135 -0.39757,-4.71717 -0.23424,-8.79069 L 319.5,287.5 h 8.5 8.5 v 8.5 8.5 l -8.26577,0.2907 c -6.32118,0.22231 -8.39073,-0.035 -8.79696,-1.09359 z m 29.10818,-51.15166 C 350.97061,250.1203 351,249.8743 351,232 c 0,-17.8743 -0.0294,-18.1203 -2.45455,-20.54545 L 346.09091,209 H 278.08064 C 200.71,209 208,208.07207 208,217.92041 v 5.05188 l 32.25,0.26386 32.25,0.26385 v 8.5 8.5 l -32.25,0.26385 -32.25,0.26386 v 5.05188 C 208,255.92793 200.71,255 278.08064,255 h 68.01027 z m -61.10818,-12.84834 c -0.29216,-0.76135 -0.39757,-4.71717 -0.23424,-8.79069 L 287.5,223.5 h 8.5 8.5 v 8.5 8.5 l -8.26577,0.2907 c -6.32118,0.22231 -8.39073,-0.035 -8.79696,-1.09359 z m 32,0 c -0.29216,-0.76135 -0.39757,-4.71717 -0.23424,-8.79069 L 319.5,223.5 h 8.5 8.5 v 8.5 8.5 l -8.26577,0.2907 c -6.32118,0.22231 -8.39073,-0.035 -8.79696,-1.09359 z m 29.10818,-51.15166 C 350.97061,186.1203 351,185.8743 351,168 c 0,-17.8743 -0.0294,-18.1203 -2.45455,-20.54545 L 346.09091,145 H 278.08064 C 200.71,145 208,144.07207 208,153.92041 v 5.05188 l 32.25,0.26386 32.25,0.26385 v 8.5 8.5 l -32.25,0.26385 -32.25,0.26386 v 5.05188 C 208,191.92793 200.71,191 278.08064,191 h 68.01027 z m -61.10818,-12.84834 c -0.29216,-0.76135 -0.39757,-4.71717 -0.23424,-8.79069 L 287.5,159.5 h 8.5 8.5 v 8.5 8.5 l -8.26577,0.2907 c -6.32118,0.22231 -8.39073,-0.035 -8.79696,-1.09359 z m 32,0 c -0.29216,-0.76135 -0.39757,-4.71717 -0.23424,-8.79069 L 319.5,159.5 h 8.5 8.5 v 8.5 8.5 l -8.26577,0.2907 c -6.32118,0.22231 -8.39073,-0.035 -8.79696,-1.09359 z"
         id="path1268" />
      <path
         style="fill:#00cecc"
         d="m 124,494.25769 c -6.35231,-2.23659 -16.13089,-12.20575 -18.32861,-18.68583 -2.11609,-6.23935 -2.14622,-16.82203 -0.0653,-22.92922 2.10147,-6.16748 10.21981,-15.00472 16.38042,-17.83096 l 4.7972,-2.20076 0.37909,-13.80368 c 0.3707,-13.49868 0.43985,-13.86448 3.12948,-16.55546 L 133.04269,399.5 166.02134,399.18805 199,398.87611 V 367.93805 337 h -6.91261 -6.91262 l -0.33738,20.97874 -0.33739,20.97874 -2.77187,2.77126 -2.77187,2.77126 -49.75375,0.29308 -49.75374,0.29308 -2.230608,4.86226 c -2.856742,6.22711 -11.659778,14.33258 -17.860799,16.44548 -6.107198,2.08093 -16.68987,2.0508 -22.929224,-0.0653 -6.773934,-2.29738 -16.459364,-11.98282 -18.756754,-18.75675 -2.139654,-6.30885 -2.139654,-16.83487 0,-23.14372 2.29739,-6.77393 11.98282,-16.45937 18.756754,-18.75675 6.239354,-2.11609 16.822026,-2.14622 22.929224,-0.0653 6.223053,2.12041 15.003612,10.2174 17.880562,16.48856 L 79.488296,367 H 123.24415 167 v -15.03138 c 0,-11.16943 -0.32116,-15.12245 -1.25,-15.3858 -0.6875,-0.19492 -3.07035,-0.84626 -5.29522,-1.4474 -5.37691,-1.45281 -11.7568,-7.06214 -14.51674,-12.76342 -1.8966,-3.91784 -2.31141,-6.79109 -2.72062,-18.84492 l -0.48283,-14.22227 -21.1173,-0.58826 C 108.11328,288.34038 97.615811,287.53363 92.5,286.47883 54.918523,278.73014 25.083061,248.76254 17.459879,211.10638 15.106524,199.48153 15.857171,176.70652 18.946552,166 28.243879,133.7793 53.750007,108.33043 86.173635,98.92385 91.385069,97.411935 97.495414,96.64529 107.34057,96.268103 l 13.84058,-0.530258 4.54374,-7.118922 C 153.18319,45.598531 196.52142,19.284383 245.20707,16.071615 298.12508,12.579553 346.90246,35.164884 378.95338,78 c 8.14515,10.885746 17.38581,28.62058 21.49569,41.25486 l 2.82152,8.67371 12.1147,0.006 c 13.66744,0.007 22.85049,1.88518 34.05444,6.96529 18.43823,8.36029 34.14684,25.03255 41.46468,44.00834 4.20463,10.90297 5.43473,19.35509 4.87463,33.49379 -0.39906,10.07329 -0.98527,13.55872 -3.50288,20.82716 -9.20234,26.56746 -29.88126,45.71337 -57.18277,52.94359 -6.47119,1.71375 -11.89519,2.09147 -36.70163,2.55585 l -29.10825,0.54491 -0.53639,14.32981 c -0.44896,11.99389 -0.89392,15.06835 -2.72967,18.8605 -2.7197,5.61815 -9.12539,11.22678 -14.47223,12.67147 -2.22487,0.60114 -4.60772,1.25248 -5.29522,1.4474 -0.92884,0.26335 -1.25,4.21637 -1.25,15.3858 L 345,367 h 43.75585 43.75585 l 2.25037,-4.90534 c 2.87696,-6.27116 11.65751,-14.36815 17.88057,-16.48856 6.10719,-2.08093 16.68987,-2.0508 22.92922,0.0653 6.77393,2.29738 16.45937,11.98282 18.75675,18.75675 2.13966,6.30885 2.13966,16.83487 0,23.14372 -2.27504,6.70806 -11.91612,16.27947 -18.82861,18.69257 -6.26135,2.18579 -16.6497,2.24463 -22.85736,0.12947 -6.20102,-2.1129 -15.00406,-10.21837 -17.8608,-16.44548 l -2.23061,-4.86226 -49.75374,-0.29308 L 333.04374,384.5 330.27187,381.72874 327.5,378.95748 327.16261,357.97874 326.82523,337 H 319.91261 313 v 30.93805 30.93806 l 32.97866,0.31194 32.97865,0.31195 2.7504,2.75178 c 2.68963,2.69098 2.75878,3.05678 3.12948,16.55546 l 0.37909,13.80368 4.7972,2.20076 c 6.16061,2.82624 14.27895,11.66348 16.38042,17.83096 2.08093,6.10719 2.0508,16.68987 -0.0653,22.92922 -1.17278,3.45799 -3.48474,6.7415 -7.75,11.00675 C 391.44079,493.71644 385.96817,496 376,496 c -9.96817,0 -15.44079,-2.28356 -22.57861,-9.42139 -4.26526,-4.26525 -6.57722,-7.54876 -7.75,-11.00675 -2.11609,-6.23935 -2.14622,-16.82203 -0.0653,-22.92922 2.12041,-6.22306 10.2174,-15.00361 16.48856,-17.88057 L 367,432.5117 v -7.6939 -7.69391 L 334.02134,416.81195 301.04269,416.5 298.27134,413.72851 295.5,410.95703 295.19359,373.97851 294.88717,337 H 279.94359 265 v 39.75585 39.75585 l 4.90534,2.25037 c 6.27116,2.87696 14.36815,11.65751 16.48856,17.88057 2.08093,6.10719 2.0508,16.68987 -0.0653,22.92922 -1.17278,3.45799 -3.48474,6.7415 -7.75,11.00675 C 271.44079,477.71644 265.96817,480 256,480 c -9.96817,0 -15.44079,-2.28356 -22.57861,-9.42139 -4.26526,-4.26525 -6.57722,-7.54876 -7.75,-11.00675 -2.11609,-6.23935 -2.14622,-16.82203 -0.0653,-22.92922 2.12041,-6.22306 10.2174,-15.00361 16.48856,-17.88057 L 247,416.5117 V 376.75585 337 h -14.94359 -14.94358 l -0.30642,36.97851 -0.30641,36.97852 -2.77134,2.77148 -2.77135,2.77149 -32.97865,0.31195 L 145,417.12389 v 7.69391 7.6939 l 4.90534,2.25037 c 6.27116,2.87696 14.36815,11.65751 16.48856,17.88057 2.08093,6.10719 2.0508,16.68987 -0.0653,22.92922 -2.29738,6.77393 -11.98282,16.45937 -18.75675,18.75675 -6.1653,2.09098 -17.52882,2.05679 -23.57186,-0.0709 z m 19.02638,-17.27115 C 147.46268,474.72331 151,468.96212 151,464 c 0,-7.60944 -7.39056,-15 -15,-15 -7.60944,0 -15,7.39056 -15,15 0,4.80861 3.53936,10.70869 7.76102,12.93757 4.825,2.54741 9.33764,2.56291 14.26536,0.049 z m 240,0 C 387.46268,474.72331 391,468.96212 391,464 c 0,-4.96212 -3.53732,-10.72331 -7.97362,-12.98654 C 380.85569,449.90606 377.69382,449 376,449 c -4.96212,0 -10.72331,3.53732 -12.98654,7.97362 -2.54939,4.99722 -2.5501,9.05416 -0.002,14.04798 3.69569,7.24414 12.41463,9.84255 20.01536,5.96494 z m -120,-16 C 267.46268,458.72331 271,452.96212 271,448 c 0,-4.96212 -3.53732,-10.72331 -7.97362,-12.98654 C 260.85569,433.90606 257.69382,433 256,433 c -4.96212,0 -10.72331,3.53732 -12.98654,7.97362 -2.54939,4.99722 -2.5501,9.05416 -0.002,14.04798 3.69569,7.24414 12.41463,9.84255 20.01536,5.96494 z m -208,-72 C 59.462682,386.72331 63,380.96212 63,376 c 0,-7.60944 -7.390558,-15 -15,-15 -7.609442,0 -15,7.39056 -15,15 0,4.80861 3.539356,10.70869 7.761021,12.93757 4.824997,2.54741 9.33764,2.56291 14.265359,0.049 z m 416,0 C 475.46268,386.72331 479,380.96212 479,376 c 0,-4.96212 -3.53732,-10.72331 -7.97362,-12.98654 C 468.85569,361.90606 465.69382,361 464,361 c -4.96212,0 -10.72331,3.53732 -12.98654,7.97362 -2.54939,4.99722 -2.5501,9.05416 -0.002,14.04798 3.69569,7.24414 12.41463,9.84255 20.01536,5.96494 z M 348.54545,316.54545 C 350.97061,314.1203 351,313.8743 351,296 c 0,-17.8743 -0.0294,-18.1203 -2.45455,-20.54545 L 346.09091,273 H 256 165.90909 l -2.45454,2.45455 C 161.02939,277.8797 161,278.1257 161,296 c 0,17.8743 0.0294,18.1203 2.45455,20.54545 L 165.90909,319 H 256 346.09091 Z M 175.42534,303.66604 c -0.2856,-0.74427 -0.38564,-4.6861 -0.22231,-8.75962 L 175.5,287.5 h 48.5 48.5 v 8.5 8.5 l -48.27769,0.25962 c -39.84193,0.21426 -48.36843,0.0232 -48.79697,-1.09358 z m 112.01193,0.0311 c -0.29216,-0.76135 -0.39757,-4.71717 -0.23424,-8.79069 L 287.5,287.5 h 8.5 8.5 v 8.5 8.5 l -8.26577,0.2907 c -6.32118,0.22231 -8.39073,-0.035 -8.79696,-1.09359 z m 32,0 c -0.29216,-0.76135 -0.39757,-4.71717 -0.23424,-8.79069 L 319.5,287.5 h 8.5 8.5 v 8.5 8.5 l -8.26577,0.2907 c -6.32118,0.22231 -8.39073,-0.035 -8.79696,-1.09359 z m 29.10818,-51.15166 C 350.97061,250.1203 351,249.8743 351,232 c 0,-17.8743 -0.0294,-18.1203 -2.45455,-20.54545 L 346.09091,209 H 256 165.90909 l -2.45454,2.45455 C 161.02939,213.8797 161,214.1257 161,232 c 0,17.8743 0.0294,18.1203 2.45455,20.54545 L 165.90909,255 H 256 346.09091 l 2.45454,-2.45455 z M 175.42534,239.66604 c -0.2856,-0.74427 -0.38564,-4.6861 -0.22231,-8.75962 L 175.5,223.5 h 48.5 48.5 v 8.5 8.5 l -48.27769,0.25962 c -39.84193,0.21426 -48.36843,0.0232 -48.79697,-1.09358 z m 112.01193,0.0311 c -0.29216,-0.76135 -0.39757,-4.71717 -0.23424,-8.79069 L 287.5,223.5 h 8.5 8.5 v 8.5 8.5 l -8.26577,0.2907 c -6.32118,0.22231 -8.39073,-0.035 -8.79696,-1.09359 z m 32,0 c -0.29216,-0.76135 -0.39757,-4.71717 -0.23424,-8.79069 L 319.5,223.5 h 8.5 8.5 v 8.5 8.5 l -8.26577,0.2907 c -6.32118,0.22231 -8.39073,-0.035 -8.79696,-1.09359 z m 29.10818,-51.15166 C 350.97061,186.1203 351,185.8743 351,168 c 0,-17.8743 -0.0294,-18.1203 -2.45455,-20.54545 L 346.09091,145 H 256 165.90909 l -2.45454,2.45455 C 161.02939,149.8797 161,150.1257 161,168 c 0,17.8743 0.0294,18.1203 2.45455,20.54545 L 165.90909,191 H 256 346.09091 l 2.45454,-2.45455 z M 175.42534,175.66604 c -0.2856,-0.74427 -0.38564,-4.6861 -0.22231,-8.75962 L 175.5,159.5 h 48.5 48.5 v 8.5 8.5 l -48.27769,0.25962 c -39.84193,0.21426 -48.36843,0.0232 -48.79697,-1.09358 z m 112.01193,0.0311 c -0.29216,-0.76135 -0.39757,-4.71717 -0.23424,-8.79069 L 287.5,159.5 h 8.5 8.5 v 8.5 8.5 l -8.26577,0.2907 c -6.32118,0.22231 -8.39073,-0.035 -8.79696,-1.09359 z m 32,0 c -0.29216,-0.76135 -0.39757,-4.71717 -0.23424,-8.79069 L 319.5,159.5 h 8.5 8.5 v 8.5 8.5 l -8.26577,0.2907 c -6.32118,0.22231 -8.39073,-0.035 -8.79696,-1.09359 z"
         id="path1266" />
      <path
         style="fill:#00a3aa"
         d="m 124,494.25769 c -6.35231,-2.23659 -16.13089,-12.20575 -18.32861,-18.68583 -2.11609,-6.23935 -2.14622,-16.82203 -0.0653,-22.92922 2.10147,-6.16748 10.21981,-15.00472 16.38042,-17.83096 l 4.7972,-2.20076 0.37909,-13.80368 c 0.3707,-13.49868 0.43985,-13.86448 3.12948,-16.55546 L 133.04269,399.5 166.02134,399.18805 199,398.87611 V 367.93805 337 h -6.91261 -6.91262 l -0.33738,20.97874 -0.33739,20.97874 -2.77187,2.77126 -2.77187,2.77126 -49.75375,0.29308 -49.75374,0.29308 -2.230608,4.86226 c -2.856742,6.22711 -11.659778,14.33258 -17.860799,16.44548 -6.107198,2.08093 -16.68987,2.0508 -22.929224,-0.0653 -6.773934,-2.29738 -16.459364,-11.98282 -18.756754,-18.75675 -2.139654,-6.30885 -2.139654,-16.83487 0,-23.14372 2.29739,-6.77393 11.98282,-16.45937 18.756754,-18.75675 6.239354,-2.11609 16.822026,-2.14622 22.929224,-0.0653 6.223053,2.12041 15.003612,10.2174 17.880562,16.48856 L 79.488296,367 H 123.24415 167 v -15.03138 c 0,-11.16943 -0.32116,-15.12245 -1.25,-15.3858 -0.6875,-0.19492 -3.07035,-0.84626 -5.29522,-1.4474 -5.37691,-1.45281 -11.7568,-7.06214 -14.51674,-12.76342 -1.8966,-3.91784 -2.31141,-6.79109 -2.72062,-18.84492 l -0.48283,-14.22227 -21.1173,-0.58826 C 108.11328,288.34038 97.615811,287.53363 92.5,286.47883 54.918523,278.73014 25.083061,248.76254 17.459879,211.10638 15.106524,199.48153 15.857171,176.70652 18.946552,166 28.243879,133.7793 53.750007,108.33043 86.173635,98.92385 91.385069,97.411935 97.495414,96.64529 107.34057,96.268103 l 13.84058,-0.530258 4.54374,-7.118922 C 153.18319,45.598531 196.52142,19.284383 245.20707,16.071615 298.12508,12.579553 346.90246,35.164884 378.95338,78 c 8.14515,10.885746 17.38581,28.62058 21.49569,41.25486 l 2.82152,8.67371 12.1147,0.006 c 13.66744,0.007 22.85049,1.88518 34.05444,6.96529 18.43823,8.36029 34.14684,25.03255 41.46468,44.00834 4.20463,10.90297 5.43473,19.35509 4.87463,33.49379 -0.39906,10.07329 -0.98527,13.55872 -3.50288,20.82716 -9.20234,26.56746 -29.88126,45.71337 -57.18277,52.94359 -6.47119,1.71375 -11.89519,2.09147 -36.70163,2.55585 l -29.10825,0.54491 -0.53639,14.32981 c -0.44896,11.99389 -0.89392,15.06835 -2.72967,18.8605 -2.7197,5.61815 -9.12539,11.22678 -14.47223,12.67147 -2.22487,0.60114 -4.60772,1.25248 -5.29522,1.4474 -0.92884,0.26335 -1.25,4.21637 -1.25,15.3858 L 345,367 h 43.75585 43.75585 l 2.25037,-4.90534 c 2.87696,-6.27116 11.65751,-14.36815 17.88057,-16.48856 6.10719,-2.08093 16.68987,-2.0508 22.92922,0.0653 6.77393,2.29738 16.45937,11.98282 18.75675,18.75675 2.13966,6.30885 2.13966,16.83487 0,23.14372 -2.27504,6.70806 -11.91612,16.27947 -18.82861,18.69257 -6.26135,2.18579 -16.6497,2.24463 -22.85736,0.12947 -6.20102,-2.1129 -15.00406,-10.21837 -17.8608,-16.44548 l -2.23061,-4.86226 -49.75374,-0.29308 L 333.04374,384.5 330.27187,381.72874 327.5,378.95748 327.16261,357.97874 326.82523,337 H 319.91261 313 v 30.93805 30.93806 l 32.97866,0.31194 32.97865,0.31195 2.7504,2.75178 c 2.68963,2.69098 2.75878,3.05678 3.12948,16.55546 l 0.37909,13.80368 4.7972,2.20076 c 6.16061,2.82624 14.27895,11.66348 16.38042,17.83096 2.08093,6.10719 2.0508,16.68987 -0.0653,22.92922 -1.17278,3.45799 -3.48474,6.7415 -7.75,11.00675 C 391.44079,493.71644 385.96817,496 376,496 c -9.96817,0 -15.44079,-2.28356 -22.57861,-9.42139 -4.26526,-4.26525 -6.57722,-7.54876 -7.75,-11.00675 -2.11609,-6.23935 -2.14622,-16.82203 -0.0653,-22.92922 2.12041,-6.22306 10.2174,-15.00361 16.48856,-17.88057 L 367,432.5117 v -7.6939 -7.69391 L 334.02134,416.81195 301.04269,416.5 298.27134,413.72851 295.5,410.95703 295.19359,373.97851 294.88717,337 H 279.94359 265 v 39.75585 39.75585 l 4.90534,2.25037 c 6.27116,2.87696 14.36815,11.65751 16.48856,17.88057 2.08093,6.10719 2.0508,16.68987 -0.0653,22.92922 -1.17278,3.45799 -3.48474,6.7415 -7.75,11.00675 C 271.44079,477.71644 265.96817,480 256,480 c -9.96817,0 -15.44079,-2.28356 -22.57861,-9.42139 -4.26526,-4.26525 -6.57722,-7.54876 -7.75,-11.00675 -2.11609,-6.23935 -2.14622,-16.82203 -0.0653,-22.92922 2.12041,-6.22306 10.2174,-15.00361 16.48856,-17.88057 L 247,416.5117 V 376.75585 337 h -14.94359 -14.94358 l -0.30642,36.97851 -0.30641,36.97852 -2.77134,2.77148 -2.77135,2.77149 -32.97865,0.31195 L 145,417.12389 v 7.69391 7.6939 l 4.90534,2.25037 c 6.27116,2.87696 14.36815,11.65751 16.48856,17.88057 2.08093,6.10719 2.0508,16.68987 -0.0653,22.92922 -2.29738,6.77393 -11.98282,16.45937 -18.75675,18.75675 -6.1653,2.09098 -17.52882,2.05679 -23.57186,-0.0709 z m 19.02638,-17.27115 C 147.46268,474.72331 151,468.96212 151,464 c 0,-7.60944 -7.39056,-15 -15,-15 -7.60944,0 -15,7.39056 -15,15 0,4.80861 3.53936,10.70869 7.76102,12.93757 4.825,2.54741 9.33764,2.56291 14.26536,0.049 z m 240,0 C 387.46268,474.72331 391,468.96212 391,464 c 0,-4.96212 -3.53732,-10.72331 -7.97362,-12.98654 C 380.85569,449.90606 377.69382,449 376,449 c -4.96212,0 -10.72331,3.53732 -12.98654,7.97362 -2.54939,4.99722 -2.5501,9.05416 -0.002,14.04798 3.69569,7.24414 12.41463,9.84255 20.01536,5.96494 z m -120,-16 C 267.46268,458.72331 271,452.96212 271,448 c 0,-4.96212 -3.53732,-10.72331 -7.97362,-12.98654 C 260.85569,433.90606 257.69382,433 256,433 c -4.96212,0 -10.72331,3.53732 -12.98654,7.97362 -2.54939,4.99722 -2.5501,9.05416 -0.002,14.04798 3.69569,7.24414 12.41463,9.84255 20.01536,5.96494 z m -208,-72 C 59.462682,386.72331 63,380.96212 63,376 c 0,-7.60944 -7.390558,-15 -15,-15 -7.609442,0 -15,7.39056 -15,15 0,4.80861 3.539356,10.70869 7.761021,12.93757 4.824997,2.54741 9.33764,2.56291 14.265359,0.049 z m 416,0 C 475.46268,386.72331 479,380.96212 479,376 c 0,-4.96212 -3.53732,-10.72331 -7.97362,-12.98654 C 468.85569,361.90606 465.69382,361 464,361 c -4.96212,0 -10.72331,3.53732 -12.98654,7.97362 -2.54939,4.99722 -2.5501,9.05416 -0.002,14.04798 3.69569,7.24414 12.41463,9.84255 20.01536,5.96494 z M 348.54545,316.54545 C 350.97061,314.1203 351,313.8743 351,296 c 0,-17.8743 -0.0294,-18.1203 -2.45455,-20.54545 L 346.09091,273 H 256 165.90909 l -2.45454,2.45455 C 161.02939,277.8797 161,278.1257 161,296 c 0,17.8743 0.0294,18.1203 2.45455,20.54545 L 165.90909,319 H 256 346.09091 Z M 175.42534,303.66604 c -0.2856,-0.74427 -0.38564,-4.6861 -0.22231,-8.75962 L 175.5,287.5 h 48.5 48.5 v 8.5 8.5 l -48.27769,0.25962 c -39.84193,0.21426 -48.36843,0.0232 -48.79697,-1.09358 z m 112.01193,0.0311 c -0.29216,-0.76135 -0.39757,-4.71717 -0.23424,-8.79069 L 287.5,287.5 h 8.5 8.5 v 8.5 8.5 l -8.26577,0.2907 c -6.32118,0.22231 -8.39073,-0.035 -8.79696,-1.09359 z m 32,0 c -0.29216,-0.76135 -0.39757,-4.71717 -0.23424,-8.79069 L 319.5,287.5 h 8.5 8.5 v 8.5 8.5 l -8.26577,0.2907 c -6.32118,0.22231 -8.39073,-0.035 -8.79696,-1.09359 z M 143.5231,270.23469 c 0.5627,-0.40408 1.7702,-1.91056 2.68332,-3.34774 1.58122,-2.4887 1.54442,-2.84179 -0.7731,-7.41948 C 143.06855,254.79644 143,254.02269 143,232 c 0,-21.8406 0.0856,-22.8301 2.36399,-27.33052 L 147.72798,200 l -2.36399,-4.66948 c -2.27999,-4.50355 -2.36321,-5.47185 -2.34203,-27.25 0.0248,-25.50806 0.45282,-27.43645 7.60883,-34.28169 C 158.18976,126.56814 151.4967,127 256,127 c 103.14152,0 97.44754,-0.32628 104.64902,5.9967 3.35665,2.94717 3.6255,3.0033 14.38578,3.0033 12.735,0 12.23599,0.63825 8.41059,-10.75743 C 369.87977,84.831315 337.97746,53.317818 297.25601,40.103655 283.68247,35.699024 270.98109,33.658732 265.80732,35.051883 254.64137,38.058562 234.86121,50.667349 221.33421,63.401099 211.01859,73.111789 203.55696,82.450515 195.68722,95.5 l -5.42761,9 -10.41406,-0.35094 c -31.15765,-1.04997 -59.72812,13.42108 -76.75515,38.87676 -23.497397,35.12899 -18.998824,81.39515 10.79596,111.03249 12.04522,11.98157 25.35877,19.24839 29.63674,16.17638 z m 279.42072,-0.28688 c 23.21812,-2.9113 42.58429,-17.80127 51.30657,-39.44781 3.11535,-7.73152 3.22353,-8.48662 3.22353,-22.5 0,-14.03668 -0.10352,-14.75562 -3.23975,-22.5 -7.65772,-18.9094 -23.4271,-32.94641 -42.73417,-38.03954 -6.505,-1.71599 -23.03547,-2.12163 -28,-0.68709 l -3,0.86688 -0.5,20.92987 c -0.47342,19.81741 -0.62215,21.10113 -2.79805,24.15173 -1.26392,1.77201 -3.62642,4.00653 -5.25,4.9656 -1.62357,0.95907 -2.94638,1.98424 -2.93957,2.27816 0.007,0.29391 1.57124,1.5441 3.47651,2.77819 6.64819,4.30617 7.51111,7.6741 7.51111,29.31523 0,21.75138 -0.64072,24.33795 -7.14094,28.82783 -2.08074,1.43723 -3.80024,2.85362 -3.82111,3.14753 -0.0358,0.50455 3.52906,2.94893 8.31416,5.70087 2.64333,1.52019 14.38534,1.61771 25.59171,0.21255 z M 348.54545,252.54545 C 350.97061,250.1203 351,249.8743 351,232 c 0,-17.8743 -0.0294,-18.1203 -2.45455,-20.54545 L 346.09091,209 H 256 165.90909 l -2.45454,2.45455 C 161.02939,213.8797 161,214.1257 161,232 c 0,17.8743 0.0294,18.1203 2.45455,20.54545 L 165.90909,255 H 256 346.09091 Z M 175.42534,239.66604 c -0.2856,-0.74427 -0.38564,-4.6861 -0.22231,-8.75962 L 175.5,223.5 h 48.5 48.5 v 8.5 8.5 l -48.27769,0.25962 c -39.84193,0.21426 -48.36843,0.0232 -48.79697,-1.09358 z m 112.01193,0.0311 c -0.29216,-0.76135 -0.39757,-4.71717 -0.23424,-8.79069 L 287.5,223.5 h 8.5 8.5 v 8.5 8.5 l -8.26577,0.2907 c -6.32118,0.22231 -8.39073,-0.035 -8.79696,-1.09359 z m 32,0 c -0.29216,-0.76135 -0.39757,-4.71717 -0.23424,-8.79069 L 319.5,223.5 h 8.5 8.5 v 8.5 8.5 l -8.26577,0.2907 c -6.32118,0.22231 -8.39073,-0.035 -8.79696,-1.09359 z m 29.10818,-51.15166 C 350.97061,186.1203 351,185.8743 351,168 c 0,-17.8743 -0.0294,-18.1203 -2.45455,-20.54545 L 346.09091,145 H 256 165.90909 l -2.45454,2.45455 C 161.02939,149.8797 161,150.1257 161,168 c 0,17.8743 0.0294,18.1203 2.45455,20.54545 L 165.90909,191 H 256 346.09091 l 2.45454,-2.45455 z M 175.42534,175.66604 c -0.2856,-0.74427 -0.38564,-4.6861 -0.22231,-8.75962 L 175.5,159.5 h 48.5 48.5 v 8.5 8.5 l -48.27769,0.25962 c -39.84193,0.21426 -48.36843,0.0232 -48.79697,-1.09358 z m 112.01193,0.0311 c -0.29216,-0.76135 -0.39757,-4.71717 -0.23424,-8.79069 L 287.5,159.5 h 8.5 8.5 v 8.5 8.5 l -8.26577,0.2907 c -6.32118,0.22231 -8.39073,-0.035 -8.79696,-1.09359 z m 32,0 c -0.29216,-0.76135 -0.39757,-4.71717 -0.23424,-8.79069 L 319.5,159.5 h 8.5 8.5 v 8.5 8.5 l -8.26577,0.2907 c -6.32118,0.22231 -8.39073,-0.035 -8.79696,-1.09359 z"
         id="path1264" />
      <path
         style="fill:#9e7526"
         d="m 124,494.25769 c -6.35231,-2.23659 -16.13089,-12.20575 -18.32861,-18.68583 -2.11609,-6.23935 -2.14622,-16.82203 -0.0653,-22.92922 2.10147,-6.16748 10.21981,-15.00472 16.38042,-17.83096 l 4.7972,-2.20076 0.37909,-13.80368 c 0.3707,-13.49868 0.43985,-13.86448 3.12948,-16.55546 L 133.04269,399.5 166.02134,399.18805 199,398.87611 V 367.93805 337 h -6.91261 -6.91262 l -0.33738,20.97874 -0.33739,20.97874 -2.77187,2.77126 -2.77187,2.77126 -49.75375,0.29308 -49.75374,0.29308 -2.230608,4.86226 c -2.856742,6.22711 -11.659778,14.33258 -17.860799,16.44548 -6.107198,2.08093 -16.68987,2.0508 -22.929224,-0.0653 -6.773934,-2.29738 -16.459364,-11.98282 -18.756754,-18.75675 -2.139654,-6.30885 -2.139654,-16.83487 0,-23.14372 2.29739,-6.77393 11.98282,-16.45937 18.756754,-18.75675 6.239354,-2.11609 16.822026,-2.14622 22.929224,-0.0653 6.223053,2.12041 15.003612,10.2174 17.880562,16.48856 L 79.488296,367 H 123.24415 167 v -15.03138 c 0,-11.16943 -0.32116,-15.12245 -1.25,-15.3858 -0.6875,-0.19492 -3.07035,-0.84626 -5.29522,-1.4474 -5.37691,-1.45281 -11.7568,-7.06214 -14.51674,-12.76342 -1.8966,-3.91784 -2.31141,-6.79109 -2.72062,-18.84492 l -0.48283,-14.22227 -21.1173,-0.58826 C 108.11328,288.34038 97.615811,287.53363 92.5,286.47883 54.918523,278.73014 25.083061,248.76254 17.459879,211.10638 15.106524,199.48153 15.857171,176.70652 18.946552,166 28.243879,133.7793 53.750007,108.33043 86.173635,98.92385 91.385069,97.411935 97.495414,96.64529 107.34057,96.268103 l 13.84058,-0.530258 4.54374,-7.118922 C 153.18319,45.598531 196.52142,19.284383 245.20707,16.071615 298.12508,12.579553 346.90246,35.164884 378.95338,78 c 8.14515,10.885746 17.38581,28.62058 21.49569,41.25486 l 2.82152,8.67371 12.1147,0.006 c 13.66744,0.007 22.85049,1.88518 34.05444,6.96529 18.43823,8.36029 34.14684,25.03255 41.46468,44.00834 4.20463,10.90297 5.43473,19.35509 4.87463,33.49379 -0.39906,10.07329 -0.98527,13.55872 -3.50288,20.82716 -9.20234,26.56746 -29.88126,45.71337 -57.18277,52.94359 -6.47119,1.71375 -11.89519,2.09147 -36.70163,2.55585 l -29.10825,0.54491 -0.53639,14.32981 c -0.44896,11.99389 -0.89392,15.06835 -2.72967,18.8605 -2.7197,5.61815 -9.12539,11.22678 -14.47223,12.67147 -2.22487,0.60114 -4.60772,1.25248 -5.29522,1.4474 -0.92884,0.26335 -1.25,4.21637 -1.25,15.3858 L 345,367 h 43.75585 43.75585 l 2.25037,-4.90534 c 2.87696,-6.27116 11.65751,-14.36815 17.88057,-16.48856 6.10719,-2.08093 16.68987,-2.0508 22.92922,0.0653 6.77393,2.29738 16.45937,11.98282 18.75675,18.75675 2.13966,6.30885 2.13966,16.83487 0,23.14372 -2.27504,6.70806 -11.91612,16.27947 -18.82861,18.69257 -6.26135,2.18579 -16.6497,2.24463 -22.85736,0.12947 -6.20102,-2.1129 -15.00406,-10.21837 -17.8608,-16.44548 l -2.23061,-4.86226 -49.75374,-0.29308 L 333.04374,384.5 330.27187,381.72874 327.5,378.95748 327.16261,357.97874 326.82523,337 H 319.91261 313 v 30.93805 30.93806 l 32.97866,0.31194 32.97865,0.31195 2.7504,2.75178 c 2.68963,2.69098 2.75878,3.05678 3.12948,16.55546 l 0.37909,13.80368 4.7972,2.20076 c 6.16061,2.82624 14.27895,11.66348 16.38042,17.83096 2.08093,6.10719 2.0508,16.68987 -0.0653,22.92922 -1.17278,3.45799 -3.48474,6.7415 -7.75,11.00675 C 391.44079,493.71644 385.96817,496 376,496 c -9.96817,0 -15.44079,-2.28356 -22.57861,-9.42139 -4.26526,-4.26525 -6.57722,-7.54876 -7.75,-11.00675 -2.11609,-6.23935 -2.14622,-16.82203 -0.0653,-22.92922 2.12041,-6.22306 10.2174,-15.00361 16.48856,-17.88057 L 367,432.5117 v -7.6939 -7.69391 L 334.02134,416.81195 301.04269,416.5 298.27134,413.72851 295.5,410.95703 295.19359,373.97851 294.88717,337 H 279.94359 265 v 39.75585 39.75585 l 4.90534,2.25037 c 6.27116,2.87696 14.36815,11.65751 16.48856,17.88057 2.08093,6.10719 2.0508,16.68987 -0.0653,22.92922 -1.17278,3.45799 -3.48474,6.7415 -7.75,11.00675 C 271.44079,477.71644 265.96817,480 256,480 c -9.96817,0 -15.44079,-2.28356 -22.57861,-9.42139 -4.26526,-4.26525 -6.57722,-7.54876 -7.75,-11.00675 -2.11609,-6.23935 -2.14622,-16.82203 -0.0653,-22.92922 2.12041,-6.22306 10.2174,-15.00361 16.48856,-17.88057 L 247,416.5117 V 376.75585 337 h -14.94359 -14.94358 l -0.30642,36.97851 -0.30641,36.97852 -2.77134,2.77148 -2.77135,2.77149 -32.97865,0.31195 L 145,417.12389 v 7.69391 7.6939 l 4.90534,2.25037 c 6.27116,2.87696 14.36815,11.65751 16.48856,17.88057 2.08093,6.10719 2.0508,16.68987 -0.0653,22.92922 -2.29738,6.77393 -11.98282,16.45937 -18.75675,18.75675 -6.1653,2.09098 -17.52882,2.05679 -23.57186,-0.0709 z m 19.02638,-17.27115 C 147.46268,474.72331 151,468.96212 151,464 c 0,-7.60944 -7.39056,-15 -15,-15 -7.60944,0 -15,7.39056 -15,15 0,4.80861 3.53936,10.70869 7.76102,12.93757 4.825,2.54741 9.33764,2.56291 14.26536,0.049 z m 240,0 C 387.46268,474.72331 391,468.96212 391,464 c 0,-4.96212 -3.53732,-10.72331 -7.97362,-12.98654 C 380.85569,449.90606 377.69382,449 376,449 c -4.96212,0 -10.72331,3.53732 -12.98654,7.97362 -2.54939,4.99722 -2.5501,9.05416 -0.002,14.04798 3.69569,7.24414 12.41463,9.84255 20.01536,5.96494 z m -120,-16 C 267.46268,458.72331 271,452.96212 271,448 c 0,-4.96212 -3.53732,-10.72331 -7.97362,-12.98654 C 260.85569,433.90606 257.69382,433 256,433 c -4.96212,0 -10.72331,3.53732 -12.98654,7.97362 -2.54939,4.99722 -2.5501,9.05416 -0.002,14.04798 3.69569,7.24414 12.41463,9.84255 20.01536,5.96494 z m -208,-72 C 59.462682,386.72331 63,380.96212 63,376 c 0,-7.60944 -7.390558,-15 -15,-15 -7.609442,0 -15,7.39056 -15,15 0,4.80861 3.539356,10.70869 7.761021,12.93757 4.824997,2.54741 9.33764,2.56291 14.265359,0.049 z m 416,0 C 475.46268,386.72331 479,380.96212 479,376 c 0,-4.96212 -3.53732,-10.72331 -7.97362,-12.98654 C 468.85569,361.90606 465.69382,361 464,361 c -4.96212,0 -10.72331,3.53732 -12.98654,7.97362 -2.54939,4.99722 -2.5501,9.05416 -0.002,14.04798 3.69569,7.24414 12.41463,9.84255 20.01536,5.96494 z M 348.54545,316.54545 C 350.97061,314.1203 351,313.8743 351,296 c 0,-17.8743 -0.0294,-18.1203 -2.45455,-20.54545 L 346.09091,273 H 256 165.90909 l -2.45454,2.45455 C 161.02939,277.8797 161,278.1257 161,296 c 0,17.8743 0.0294,18.1203 2.45455,20.54545 L 165.90909,319 H 256 346.09091 Z M 175.42534,303.66604 c -0.2856,-0.74427 -0.38564,-4.6861 -0.22231,-8.75962 L 175.5,287.5 h 48.5 48.5 v 8.5 8.5 l -48.27769,0.25962 c -39.84193,0.21426 -48.36843,0.0232 -48.79697,-1.09358 z m 112.01193,0.0311 c -0.29216,-0.76135 -0.39757,-4.71717 -0.23424,-8.79069 L 287.5,287.5 h 8.5 8.5 v 8.5 8.5 l -8.26577,0.2907 c -6.32118,0.22231 -8.39073,-0.035 -8.79696,-1.09359 z m 32,0 c -0.29216,-0.76135 -0.39757,-4.71717 -0.23424,-8.79069 L 319.5,287.5 h 8.5 8.5 v 8.5 8.5 l -8.26577,0.2907 c -6.32118,0.22231 -8.39073,-0.035 -8.79696,-1.09359 z m -171.97674,-35.86049 1.96249,-3.66337 -2.46151,-5.25543 C 144.58365,253.841 144.5,252.9262 144.5,232 c 0,-20.82788 0.0933,-21.86152 2.42094,-26.8312 l 2.42093,-5.1688 -2.42093,-5.17127 c -2.33201,-4.98131 -2.42094,-5.98235 -2.42094,-27.25 0,-20.71675 0.13315,-22.32548 2.15842,-26.07873 2.5256,-4.68047 6.44291,-8.52672 11.34158,-11.13584 3.34394,-1.78104 7.7137,-1.86416 98,-1.86416 h 94.5 l 4,2.16237 c 2.2,1.18931 5.43969,3.66431 7.19932,5.5 5.82513,6.07696 6.30172,8.50545 6.29091,32.05551 -0.009,20.46235 -0.10392,21.48435 -2.45399,26.53212 l -2.44423,5.25 2.44423,5.25 c 2.35372,5.0556 2.44422,6.04611 2.44422,26.75 0,20.7928 -0.0816,21.67536 -2.4819,26.83131 -2.01784,4.33448 -2.27245,5.73681 -1.36173,7.5 3.04017,5.8859 1.84662,5.67018 31.26816,5.65133 31.37183,-0.0201 36.71594,-0.78787 49.56116,-7.12017 16.55423,-8.16074 29.73534,-25.20484 33.5345,-43.36247 8.65844,-41.38199 -24.07037,-79.64761 -66.00065,-77.16615 -4.95,0.29295 -10.51014,1.0733 -12.35586,1.73412 -4.99864,1.78965 -9.71114,-0.68604 -10.99614,-5.77676 -3.86073,-15.29491 -5.93332,-21.24054 -11.09622,-31.83163 C 359.64723,70.704741 325.68725,44.0521 284.4789,35.021248 271.32283,32.138082 247.02638,31.829193 233,34.366778 192.68263,41.660802 158.21983,66.010106 137.98295,101.5 c -2.82257,4.95 -5.83281,9.54304 -6.68942,10.20675 -1.06372,0.82417 -6.19179,1.18491 -16.17551,1.13789 -11.91659,-0.0561 -16.096433,0.3257 -22.61802,2.06614 C 56.30409,124.57056 32.805757,154.91633 32.805757,192 c 0,40.59051 29.008455,73.64892 69.254823,78.9237 3.54168,0.46418 14.76398,0.78374 24.93844,0.71013 l 18.49902,-0.13383 1.96249,-3.66338 z m 201.08492,-15.2912 C 350.97061,250.1203 351,249.8743 351,232 c 0,-17.8743 -0.0294,-18.1203 -2.45455,-20.54545 L 346.09091,209 H 256 165.90909 l -2.45454,2.45455 C 161.02939,213.8797 161,214.1257 161,232 c 0,17.8743 0.0294,18.1203 2.45455,20.54545 L 165.90909,255 H 256 346.09091 Z M 175.42534,239.66604 c -0.2856,-0.74427 -0.38564,-4.6861 -0.22231,-8.75962 L 175.5,223.5 h 48.5 48.5 v 8.5 8.5 l -48.27769,0.25962 c -39.84193,0.21426 -48.36843,0.0232 -48.79697,-1.09358 z m 112.01193,0.0311 c -0.29216,-0.76135 -0.39757,-4.71717 -0.23424,-8.79069 L 287.5,223.5 h 8.5 8.5 v 8.5 8.5 l -8.26577,0.2907 c -6.32118,0.22231 -8.39073,-0.035 -8.79696,-1.09359 z m 32,0 c -0.29216,-0.76135 -0.39757,-4.71717 -0.23424,-8.79069 L 319.5,223.5 h 8.5 8.5 v 8.5 8.5 l -8.26577,0.2907 c -6.32118,0.22231 -8.39073,-0.035 -8.79696,-1.09359 z m 29.10818,-51.15166 C 350.97061,186.1203 351,185.8743 351,168 c 0,-17.8743 -0.0294,-18.1203 -2.45455,-20.54545 L 346.09091,145 H 256 165.90909 l -2.45454,2.45455 C 161.02939,149.8797 161,150.1257 161,168 c 0,17.8743 0.0294,18.1203 2.45455,20.54545 L 165.90909,191 H 256 346.09091 l 2.45454,-2.45455 z M 175.42534,175.66604 c -0.2856,-0.74427 -0.38564,-4.6861 -0.22231,-8.75962 L 175.5,159.5 h 48.5 48.5 v 8.5 8.5 l -48.27769,0.25962 c -39.84193,0.21426 -48.36843,0.0232 -48.79697,-1.09358 z m 112.01193,0.0311 c -0.29216,-0.76135 -0.39757,-4.71717 -0.23424,-8.79069 L 287.5,159.5 h 8.5 8.5 v 8.5 8.5 l -8.26577,0.2907 c -6.32118,0.22231 -8.39073,-0.035 -8.79696,-1.09359 z m 32,0 c -0.29216,-0.76135 -0.39757,-4.71717 -0.23424,-8.79069 L 319.5,159.5 h 8.5 8.5 v 8.5 8.5 l -8.26577,0.2907 c -6.32118,0.22231 -8.39073,-0.035 -8.79696,-1.09359 z"
         id="path1262" />
      <path
         style="fill:#46638c"
         d="m 124,494.25769 c -6.35231,-2.23659 -16.13089,-12.20575 -18.32861,-18.68583 -2.11609,-6.23935 -2.14622,-16.82203 -0.0653,-22.92922 2.10147,-6.16748 10.21981,-15.00472 16.38042,-17.83096 l 4.7972,-2.20076 0.37909,-13.80368 c 0.3707,-13.49868 0.43985,-13.86448 3.12948,-16.55546 L 133.04269,399.5 166.02134,399.18805 199,398.87611 V 367.93805 337 h -6.91261 -6.91262 l -0.33738,20.97874 -0.33739,20.97874 -2.77187,2.77126 -2.77187,2.77126 -49.75375,0.29308 -49.75374,0.29308 -2.230608,4.86226 c -2.856742,6.22711 -11.659778,14.33258 -17.860799,16.44548 -6.107198,2.08093 -16.68987,2.0508 -22.929224,-0.0653 -6.773934,-2.29738 -16.459364,-11.98282 -18.756754,-18.75675 -2.139654,-6.30885 -2.139654,-16.83487 0,-23.14372 2.29739,-6.77393 11.98282,-16.45937 18.756754,-18.75675 6.239354,-2.11609 16.822026,-2.14622 22.929224,-0.0653 6.223053,2.12041 15.003612,10.2174 17.880562,16.48856 L 79.488296,367 H 123.24415 167 v -15.03138 c 0,-11.16943 -0.32116,-15.12245 -1.25,-15.3858 -0.6875,-0.19492 -3.07035,-0.84626 -5.29522,-1.4474 -5.37691,-1.45281 -11.7568,-7.06214 -14.51674,-12.76342 -1.8966,-3.91784 -2.31141,-6.79109 -2.72062,-18.84492 l -0.48283,-14.22227 -21.1173,-0.58826 C 108.11328,288.34038 97.615811,287.53363 92.5,286.47883 54.918523,278.73014 25.083061,248.76254 17.459879,211.10638 15.106524,199.48153 15.857171,176.70652 18.946552,166 28.243879,133.7793 53.750007,108.33043 86.173635,98.92385 91.385069,97.411935 97.495414,96.64529 107.34057,96.268103 l 13.84058,-0.530258 4.54374,-7.118922 C 153.18319,45.598531 196.52142,19.284383 245.20707,16.071615 298.12508,12.579553 346.90246,35.164884 378.95338,78 c 8.14515,10.885746 17.38581,28.62058 21.49569,41.25486 l 2.82152,8.67371 12.1147,0.006 c 13.66744,0.007 22.85049,1.88518 34.05444,6.96529 18.43823,8.36029 34.14684,25.03255 41.46468,44.00834 4.20463,10.90297 5.43473,19.35509 4.87463,33.49379 -0.39906,10.07329 -0.98527,13.55872 -3.50288,20.82716 -9.20234,26.56746 -29.88126,45.71337 -57.18277,52.94359 -6.47119,1.71375 -11.89519,2.09147 -36.70163,2.55585 l -29.10825,0.54491 -0.53639,14.32981 c -0.44896,11.99389 -0.89392,15.06835 -2.72967,18.8605 -2.7197,5.61815 -9.12539,11.22678 -14.47223,12.67147 -2.22487,0.60114 -4.60772,1.25248 -5.29522,1.4474 -0.92884,0.26335 -1.25,4.21637 -1.25,15.3858 L 345,367 h 43.75585 43.75585 l 2.25037,-4.90534 c 2.87696,-6.27116 11.65751,-14.36815 17.88057,-16.48856 6.10719,-2.08093 16.68987,-2.0508 22.92922,0.0653 6.77393,2.29738 16.45937,11.98282 18.75675,18.75675 2.13966,6.30885 2.13966,16.83487 0,23.14372 -2.27504,6.70806 -11.91612,16.27947 -18.82861,18.69257 -6.26135,2.18579 -16.6497,2.24463 -22.85736,0.12947 -6.20102,-2.1129 -15.00406,-10.21837 -17.8608,-16.44548 l -2.23061,-4.86226 -49.75374,-0.29308 L 333.04374,384.5 330.27187,381.72874 327.5,378.95748 327.16261,357.97874 326.82523,337 H 319.91261 313 v 30.93805 30.93806 l 32.97866,0.31194 32.97865,0.31195 2.7504,2.75178 c 2.68963,2.69098 2.75878,3.05678 3.12948,16.55546 l 0.37909,13.80368 4.7972,2.20076 c 6.16061,2.82624 14.27895,11.66348 16.38042,17.83096 2.08093,6.10719 2.0508,16.68987 -0.0653,22.92922 -1.17278,3.45799 -3.48474,6.7415 -7.75,11.00675 C 391.44079,493.71644 385.96817,496 376,496 c -9.96817,0 -15.44079,-2.28356 -22.57861,-9.42139 -4.26526,-4.26525 -6.57722,-7.54876 -7.75,-11.00675 -2.11609,-6.23935 -2.14622,-16.82203 -0.0653,-22.92922 2.12041,-6.22306 10.2174,-15.00361 16.48856,-17.88057 L 367,432.5117 v -7.6939 -7.69391 L 334.02134,416.81195 301.04269,416.5 298.27134,413.72851 295.5,410.95703 295.19359,373.97851 294.88717,337 H 279.94359 265 v 39.75585 39.75585 l 4.90534,2.25037 c 6.27116,2.87696 14.36815,11.65751 16.48856,17.88057 2.08093,6.10719 2.0508,16.68987 -0.0653,22.92922 -1.17278,3.45799 -3.48474,6.7415 -7.75,11.00675 C 271.44079,477.71644 265.96817,480 256,480 c -9.96817,0 -15.44079,-2.28356 -22.57861,-9.42139 -4.26526,-4.26525 -6.57722,-7.54876 -7.75,-11.00675 -2.11609,-6.23935 -2.14622,-16.82203 -0.0653,-22.92922 2.12041,-6.22306 10.2174,-15.00361 16.48856,-17.88057 L 247,416.5117 V 376.75585 337 h -14.94359 -14.94358 l -0.30642,36.97851 -0.30641,36.97852 -2.77134,2.77148 -2.77135,2.77149 -32.97865,0.31195 L 145,417.12389 v 7.69391 7.6939 l 4.90534,2.25037 c 6.27116,2.87696 14.36815,11.65751 16.48856,17.88057 2.08093,6.10719 2.0508,16.68987 -0.0653,22.92922 -2.29738,6.77393 -11.98282,16.45937 -18.75675,18.75675 -6.1653,2.09098 -17.52882,2.05679 -23.57186,-0.0709 z m 20.07832,-16.53149 c 10.63999,-7.17029 10.63999,-20.28211 0,-27.4524 C 134.26556,443.66098 120,451.79327 120,464 c 0,8.66329 7.33671,16 16,16 3.23712,0 5.75651,-0.70913 8.07832,-2.2738 z m 240,0 C 389.2611,474.23353 392,469.48773 392,464 c 0,-5.48773 -2.7389,-10.23353 -7.92168,-13.7262 -6.96795,-4.6957 -16.49741,-2.22735 -21.80452,5.64788 -4.6957,6.96795 -2.22735,16.49741 5.64788,21.80452 2.32181,1.56467 4.8412,2.2738 8.07832,2.2738 3.23712,0 5.75651,-0.70913 8.07832,-2.2738 z m -120,-16 C 269.2611,458.23353 272,453.48773 272,448 c 0,-5.48773 -2.7389,-10.23353 -7.92168,-13.7262 C 254.26556,427.66098 240,435.79327 240,448 c 0,8.66329 7.33671,16 16,16 3.23712,0 5.75651,-0.70913 8.07832,-2.2738 z m -208,-72 c 10.639994,-7.17029 10.639994,-20.28211 0,-27.4524 C 46.26556,355.66098 32,363.79327 32,376 c 0,8.66329 7.336705,16 16,16 3.237119,0 5.756514,-0.70913 8.07832,-2.2738 z m 416,0 C 477.2611,386.23353 480,381.48773 480,376 c 0,-5.48773 -2.7389,-10.23353 -7.92168,-13.7262 -6.96795,-4.6957 -16.49741,-2.22735 -21.80452,5.64788 -4.6957,6.96795 -2.22735,16.49741 5.64788,21.80452 2.32181,1.56467 4.8412,2.2738 8.07832,2.2738 3.23712,0 5.75651,-0.70913 8.07832,-2.2738 z M 288.29545,320.00176 347.09091,320 l 2.45454,-2.45455 C 351.98009,315.11082 352,314.93603 352,296 c 0,-18.93603 -0.0199,-19.11082 -2.45455,-21.54545 L 347.09091,272 277.79545,271.75 c -38.1125,-0.1375 -79.07348,-0.25 -91.02441,-0.25 h -21.72896 l -2.77104,2.77273 -2.77104,2.77272 v 18.89671 c 0,18.51335 0.0482,18.94798 2.37427,21.42401 1.30585,1.39001 3.33085,2.75037 4.5,3.02301 1.16915,0.27264 15.85073,0.2974 32.62573,0.055 16.775,-0.24238 56.95795,-0.44148 89.29545,-0.44244 z M 192.75,303.2519 177,302.94921 v -6.81489 -6.81489 l 23.25,-0.65741 c 38.12057,-1.0779 69.1709,-0.84112 70.55,0.53798 1.55804,1.55804 1.55804,12.04196 0,13.6 -1.16512,1.16512 -31.73001,1.34209 -78.05,0.4519 z M 289.2,302.8 c -1.55804,-1.55804 -1.55804,-12.04196 0,-13.6 0.66,-0.66 3.72,-1.2 6.8,-1.2 3.08,0 6.14,0.54 6.8,1.2 0.66,0.66 1.2,3.72 1.2,6.8 0,3.08 -0.54,6.14 -1.2,6.8 -1.55804,1.55804 -12.04196,1.55804 -13.6,0 z m 32,0 c -1.55804,-1.55804 -1.55804,-12.04196 0,-13.6 0.66,-0.66 3.72,-1.2 6.8,-1.2 3.08,0 6.14,0.54 6.8,1.2 0.66,0.66 1.2,3.72 1.2,6.8 0,3.08 -0.54,6.14 -1.2,6.8 -1.55804,1.55804 -12.04196,1.55804 -13.6,0 z m -173.73947,-34.96338 1.96249,-3.66337 -2.46151,-5.25543 C 144.58365,253.841 144.5,252.9262 144.5,232 c 0,-20.82788 0.0933,-21.86152 2.42094,-26.8312 l 2.42093,-5.1688 -2.42093,-5.17127 c -2.33201,-4.98131 -2.42094,-5.98235 -2.42094,-27.25 0,-20.71675 0.13315,-22.32548 2.15842,-26.07873 2.5256,-4.68047 6.44291,-8.52672 11.34158,-11.13584 3.34394,-1.78104 7.7137,-1.86416 98,-1.86416 h 94.5 l 4,2.16237 c 2.2,1.18931 5.43969,3.66431 7.19932,5.5 5.82513,6.07696 6.30172,8.50545 6.29091,32.05551 -0.009,20.46235 -0.10392,21.48435 -2.45399,26.53212 l -2.44423,5.25 2.44423,5.25 c 2.35372,5.0556 2.44422,6.04611 2.44422,26.75 0,20.7928 -0.0816,21.67536 -2.4819,26.83131 -2.01784,4.33448 -2.27245,5.73681 -1.36173,7.5 3.04017,5.8859 1.84662,5.67018 31.26816,5.65133 31.37183,-0.0201 36.71594,-0.78787 49.56116,-7.12017 16.55423,-8.16074 29.73534,-25.20484 33.5345,-43.36247 8.65844,-41.38199 -24.07037,-79.64761 -66.00065,-77.16615 -4.95,0.29295 -10.51014,1.0733 -12.35586,1.73412 -4.99864,1.78965 -9.71114,-0.68604 -10.99614,-5.77676 -3.86073,-15.29491 -5.93332,-21.24054 -11.09622,-31.83163 C 359.64723,70.704741 325.68725,44.0521 284.4789,35.021248 271.32283,32.138082 247.02638,31.829193 233,34.366778 192.68263,41.660802 158.21983,66.010106 137.98295,101.5 c -2.82257,4.95 -5.83281,9.54304 -6.68942,10.20675 -1.06372,0.82417 -6.19179,1.18491 -16.17551,1.13789 -11.91659,-0.0561 -16.096433,0.3257 -22.61802,2.06614 C 56.30409,124.57056 32.805757,154.91633 32.805757,192 c 0,40.59051 29.008455,73.64892 69.254823,78.9237 3.54168,0.46418 14.76398,0.78374 24.93844,0.71013 L 145.49804,271.5 Z m 140.83492,-11.83486 58.79546,-0.002 2.45454,-2.45455 C 351.98009,251.11082 352,250.93603 352,232 c 0,-18.93603 -0.0199,-19.11082 -2.45455,-21.54545 L 347.09091,208 277.79545,207.75 c -38.1125,-0.1375 -79.07348,-0.25 -91.02441,-0.25 h -21.72896 l -2.77104,2.77273 -2.77104,2.77272 v 18.89671 c 0,18.51335 0.0482,18.94798 2.37427,21.42401 1.30585,1.39001 3.33085,2.75037 4.5,3.02301 1.16915,0.27264 15.85073,0.2974 32.62573,0.055 16.775,-0.24238 56.95795,-0.44148 89.29545,-0.44244 z M 192.75,239.2519 177,238.94921 v -6.81489 -6.81489 l 23.25,-0.65741 c 38.12057,-1.0779 69.1709,-0.84112 70.55,0.53798 1.55804,1.55804 1.55804,12.04196 0,13.6 -1.16512,1.16512 -31.73001,1.34209 -78.05,0.4519 z M 289.2,238.8 c -1.55804,-1.55804 -1.55804,-12.04196 0,-13.6 0.66,-0.66 3.72,-1.2 6.8,-1.2 3.08,0 6.14,0.54 6.8,1.2 0.66,0.66 1.2,3.72 1.2,6.8 0,3.08 -0.54,6.14 -1.2,6.8 -0.66,0.66 -3.72,1.2 -6.8,1.2 -3.08,0 -6.14,-0.54 -6.8,-1.2 z m 32,0 c -1.55804,-1.55804 -1.55804,-12.04196 0,-13.6 0.66,-0.66 3.72,-1.2 6.8,-1.2 3.08,0 6.14,0.54 6.8,1.2 0.66,0.66 1.2,3.72 1.2,6.8 0,3.08 -0.54,6.14 -1.2,6.8 -0.66,0.66 -3.72,1.2 -6.8,1.2 -3.08,0 -6.14,-0.54 -6.8,-1.2 z m -32.90455,-46.79824 58.79546,-0.002 2.45454,-2.45455 C 351.98009,187.11082 352,186.93603 352,168 c 0,-18.93603 -0.0199,-19.11082 -2.45455,-21.54545 L 347.09091,144 277.79545,143.75 c -38.1125,-0.1375 -79.07348,-0.25 -91.02441,-0.25 h -21.72896 l -2.77104,2.77273 -2.77104,2.77272 v 18.89671 c 0,18.51335 0.0482,18.94798 2.37427,21.42401 1.30585,1.39001 3.33085,2.75037 4.5,3.02301 1.16915,0.27264 15.85073,0.2974 32.62573,0.055 16.775,-0.24238 56.95795,-0.44148 89.29545,-0.44244 z M 192.75,175.2519 177,174.94921 v -6.81489 -6.81489 l 23.25,-0.65741 c 38.12057,-1.0779 69.1709,-0.84112 70.55,0.53798 1.55804,1.55804 1.55804,12.04196 0,13.6 -1.16512,1.16512 -31.73001,1.34209 -78.05,0.4519 z M 289.2,174.8 c -1.55804,-1.55804 -1.55804,-12.04196 0,-13.6 0.66,-0.66 3.72,-1.2 6.8,-1.2 3.08,0 6.14,0.54 6.8,1.2 0.66,0.66 1.2,3.72 1.2,6.8 0,3.08 -0.54,6.14 -1.2,6.8 -0.66,0.66 -3.72,1.2 -6.8,1.2 -3.08,0 -6.14,-0.54 -6.8,-1.2 z m 32,0 c -1.55804,-1.55804 -1.55804,-12.04196 0,-13.6 0.66,-0.66 3.72,-1.2 6.8,-1.2 3.08,0 6.14,0.54 6.8,1.2 0.66,0.66 1.2,3.72 1.2,6.8 0,3.08 -0.54,6.14 -1.2,6.8 -0.66,0.66 -3.72,1.2 -6.8,1.2 -3.08,0 -6.14,-0.54 -6.8,-1.2 z"
         id="path1260" />
      <path
         style="fill:#080e4f"
         d="m 127.95056,493.69731 c -13.79321,-3.89981 -22.31818,-15.2102 -22.38805,-29.70308 -0.0602,-12.48984 5.79789,-21.80487 17.51686,-27.85369 L 128.5,433.34265 129,419.20313 c 0.41734,-11.80201 0.795,-14.43409 2.28442,-15.92133 1.61978,-1.6174 4.89519,-1.82793 35.5,-2.2818 L 200.5,400.5 V 368 335.5 h -8.5 -8.5 l -0.5,21.71673 c -0.43973,19.0989 -0.71518,21.9317 -2.28504,23.5 -1.6513,1.64966 -5.54134,1.82073 -51.91866,2.28327 l -50.133609,0.5 -2.800563,5.42063 c -3.687247,7.13686 -8.110411,11.56449 -14.843868,14.85886 -11.58709,5.66904 -26.842853,2.69147 -35.541476,-6.93687 C 19.762925,390.51806 17.598695,384.79228 17.598695,376 c 0,-8.79228 2.16423,-14.51806 7.878089,-20.84262 8.698623,-9.62834 23.954386,-12.60591 35.541476,-6.93687 6.7332,3.29424 11.156328,7.72171 14.844312,14.85886 L 78.66358,368.5 H 123.58179 168.5 v -16.43465 -16.43466 l -4.82199,-1.2301 c -6.80285,-1.73542 -12.10965,-5.57697 -15.37273,-11.1282 C 145.63788,318.73457 145.47542,317.73815 145,303 l -0.5,-15.5 -23,-0.59614 C 98.476018,286.30711 94.13452,285.75089 82,281.84327 40.602234,268.51215 12.732983,225.23565 17.789828,182.13513 23.642726,132.24969 63.891591,97 114.99897,97 h 7.85425 l 3.17782,-5.554247 c 7.65492,-13.379418 20.44693,-28.507938 32.80932,-38.802082 24.10179,-20.069526 52.53098,-31.832191 84.07592,-34.78668 27.82906,-2.60646 55.9047,2.863977 81.38299,15.857183 30.38927,15.49767 53.06582,38.786679 67.69812,69.526566 2.6859,5.64259 5.88596,13.40926 7.11124,17.25926 1.22528,3.85 2.65593,7.56099 3.17923,8.24664 0.69325,0.90833 3.15779,1.08133 9.08179,0.63747 25.56947,-1.91578 53.1859,11.13861 68.27873,32.27561 10.02738,14.04301 14.70574,28.78532 14.70574,46.34028 0,31.75381 -16.96746,58.24889 -45.84783,71.59244 C 435.3578,285.66742 431.58725,286.212 398,286.88702 L 367.5,287.5 367,303 c -0.47542,14.73815 -0.63788,15.73457 -3.30528,20.27239 -3.26308,5.55123 -8.56988,9.39278 -15.37273,11.1282 L 343.5,335.63069 V 352.06535 368.5 h 44.91821 44.91821 l 2.80101,-5.42063 c 3.68798,-7.13715 8.11111,-11.56462 14.84431,-14.85886 11.58709,-5.66904 26.84285,-2.69147 35.54148,6.93687 5.71385,6.32456 7.87808,12.05034 7.87808,20.84262 0,8.79228 -2.16423,14.51806 -7.87808,20.84262 -8.69863,9.62834 -23.95439,12.60591 -35.54148,6.93687 -6.73346,-3.29437 -11.15662,-7.722 -14.84387,-14.85886 L 433.33731,383.5 383.2037,383 c -46.37732,-0.46254 -50.26736,-0.63361 -51.91866,-2.28327 -1.56986,-1.5683 -1.84531,-4.4011 -2.28504,-23.5 L 328.5,335.5 h -8.5 -8.5 v 32.5 32.5 l 33.71558,0.5 c 30.60481,0.45387 33.88022,0.6644 35.5,2.2818 1.48942,1.48724 1.86708,4.11932 2.28442,15.92133 l 0.5,14.13952 5.42063,2.79789 c 7.13509,3.68282 11.56374,8.1062 14.85886,14.8412 2.21398,4.5252 2.68774,6.84456 2.658,13.01249 -0.0424,8.79757 -2.22758,14.5539 -7.91427,20.84839 -11.72243,12.97533 -33.32401,12.97533 -45.04644,0 -5.68669,-6.29449 -7.87186,-12.05082 -7.91427,-20.84839 -0.0602,-12.48864 5.79468,-21.79959 17.51686,-27.8568 L 368.5,433.33642 V 424.41821 415.5 L 334.78442,415 c -30.62685,-0.45419 -33.87905,-0.66349 -35.5,-2.28463 -1.63071,-1.63091 -1.82749,-5.03342 -2.28442,-39.5 L 296.5,335.5 H 280 263.5 v 40.91821 40.91821 l 5.42063,2.80101 c 7.13715,3.68798 11.56462,8.11111 14.85886,14.84431 5.66904,11.58709 2.69147,26.84285 -6.93687,35.54148 -6.29449,5.68669 -12.05082,7.87186 -20.84839,7.91427 -6.21585,0.03 -8.47758,-0.43927 -13.16054,-2.73043 -11.1345,-5.4476 -17.21084,-15.19751 -17.27118,-27.71283 -0.0602,-12.48864 5.79468,-21.79959 17.51686,-27.8568 L 248.5,417.33642 V 376.41821 335.5 H 232 215.5 l -0.5,37.71537 c -0.45693,34.46658 -0.65371,37.86909 -2.28442,39.5 -1.62095,1.62114 -4.87315,1.83044 -35.5,2.28463 L 143.5,415.5 v 8.91821 8.91821 l 5.42063,2.80101 c 7.13715,3.68798 11.56462,8.11111 14.85886,14.84431 5.66904,11.58709 2.69147,26.84285 -6.93687,35.54148 -7.75653,7.00755 -19.32299,9.87958 -28.89206,7.17409 z m 14.62804,-14.59364 c 4.81372,-2.18629 7.98115,-5.90221 9.58011,-11.23907 2.36228,-7.88457 -3.30792,-17.33098 -11.95862,-19.9228 -11.47636,-3.4384 -23.75732,8.57955 -20.3588,19.9228 1.59896,5.33686 4.76639,9.05278 9.58011,11.23907 5.13686,2.33305 8.02034,2.33305 13.1572,0 z m 240,0 c 4.81372,-2.18629 7.98115,-5.90221 9.58011,-11.23907 3.39852,-11.34325 -8.88244,-23.3612 -20.3588,-19.9228 -8.6507,2.59182 -14.3209,12.03823 -11.95862,19.9228 1.59896,5.33686 4.76639,9.05278 9.58011,11.23907 5.13686,2.33305 8.02034,2.33305 13.1572,0 z m -120,-16 c 4.81372,-2.18629 7.98115,-5.90221 9.58011,-11.23907 2.36228,-7.88457 -3.30792,-17.33098 -11.95862,-19.9228 -11.47636,-3.4384 -23.75732,8.57955 -20.3588,19.9228 1.59896,5.33686 4.76639,9.05278 9.58011,11.23907 5.13686,2.33305 8.02034,2.33305 13.1572,0 z m -208.000001,-72 c 4.813722,-2.18629 7.981151,-5.90221 9.580114,-11.23907 3.39852,-11.34325 -8.882441,-23.3612 -20.358803,-19.9228 -8.650705,2.59182 -14.320897,12.03823 -11.958623,19.9228 1.598963,5.33686 4.766392,9.05278 9.580114,11.23907 5.136862,2.33305 8.020336,2.33305 13.157198,0 z m 416.000001,0 c 4.81372,-2.18629 7.98115,-5.90221 9.58011,-11.23907 3.39852,-11.34325 -8.88244,-23.3612 -20.3588,-19.9228 -8.6507,2.59182 -14.3209,12.03823 -11.95862,19.9228 1.59896,5.33686 4.76639,9.05278 9.58011,11.23907 5.13686,2.33305 8.02034,2.33305 13.1572,0 z M 347.85497,319.575 C 352.38692,317.23143 353,314.41073 353,295.90329 c 0,-18.74495 -0.71273,-21.71323 -5.71075,-23.78348 -2.07644,-0.86009 -26.10992,-1.09149 -92.52472,-0.89085 l -89.71966,0.27104 -2.77244,2.77273 -2.77243,2.77272 v 18.89671 c 0,18.51335 0.0482,18.94798 2.37427,21.42401 1.30585,1.39001 3.33085,2.71499 4.5,2.94438 1.16915,0.2294 41.86058,0.47837 90.42539,0.55327 74.65954,0.11514 88.72534,-0.0839 91.05531,-1.28882 z M 177,296 v -7 h 47 47 v 7 7 h -47 -47 z m 112,0 v -7 h 7 7 v 7 7 h -7 -7 z m 32,0 v -7 h 7 7 v 7 7 h -7 -7 z m -173.14495,-27.95589 2.22334,-3.9559 -2.78919,-5.2941 L 144.5,253.5 V 232 210.5 l 2.76685,-5.25 2.76684,-5.25 -2.76684,-5.25 L 144.5,189.5 V 168 146.5 l 3.09312,-5.5 c 4.28642,-7.62184 10.89951,-11.60503 20.73158,-12.48702 3.94641,-0.35402 46.3253,-0.50176 94.1753,-0.32832 82.69722,0.29974 87.1731,0.40773 90.5,2.18339 6.23888,3.32988 9.97235,6.66155 12.25923,10.93988 2.12679,3.97883 2.24077,5.31517 2.24077,26.2708 0,21.26765 -0.0889,22.26869 -2.42094,27.25 L 362.65813,200 l 2.42093,5.1688 c 2.32768,4.96968 2.42094,6.00332 2.42094,26.8312 0,20.9262 -0.0836,21.841 -2.46151,26.91782 l -2.46151,5.25543 1.9652,3.66337 1.9652,3.66338 31.99631,-0.0137 31.99631,-0.0137 6.74155,-2.60915 c 19.10992,-7.39601 32.27855,-20.57013 39.60547,-39.62196 2.36104,-6.13931 2.59265,-8.03687 2.59265,-21.24155 0,-13.20468 -0.23161,-15.10224 -2.59265,-21.24155 -7.33799,-19.08062 -20.64927,-32.37992 -39.60547,-39.56982 -5.92405,-2.24693 -8.31797,-2.56498 -19.74155,-2.62282 -7.15,-0.0362 -15.32937,0.32527 -18.17639,0.80326 -4.7492,0.79734 -5.37709,0.66836 -7.60841,-1.56296 -1.55431,-1.55431 -2.69451,-4.18248 -3.15937,-7.28236 C 387.61227,130.2316 382.70188,116.36716 378.27645,107.5 369.21838,89.350489 352.2032,69.227822 336.12719,57.653007 312.79971,40.857089 285.64779,31.992188 257.57378,32.005895 235.72507,32.016563 216.74029,36.186503 198.08891,45.071536 183.16366,52.181537 171.94926,60.057087 160.45604,71.5 149.84036,82.069216 143.97135,89.725369 137.07553,102 c -2.31741,4.125 -4.86088,8.16238 -5.65217,8.97196 -1.14198,1.16837 -4.68549,1.48165 -17.18103,1.51896 -18.00647,0.0538 -23.706883,1.22219 -36.91674,7.56689 -20.665491,9.92565 -36.686564,29.18702 -42.788181,51.44219 -2.609614,9.51836 -3.109372,25.55362 -1.107829,35.54584 5.299896,26.45844 22.742357,47.95053 47.565429,58.60871 12.057334,5.17702 18.902734,6.17256 43.070851,6.26392 l 21.56586,0.0815 2.22333,-3.95589 z M 347.85497,255.575 C 352.38692,253.23143 353,250.41073 353,231.90329 c 0,-18.74495 -0.71273,-21.71323 -5.71075,-23.78348 -2.07644,-0.86009 -26.10992,-1.09149 -92.52472,-0.89085 l -89.71966,0.27104 -2.77244,2.77273 -2.77243,2.77272 v 18.89671 c 0,18.51335 0.0482,18.94798 2.37427,21.42401 1.30585,1.39001 3.33085,2.71499 4.5,2.94438 1.16915,0.2294 41.86058,0.47837 90.42539,0.55327 74.65954,0.11514 88.72534,-0.0839 91.05531,-1.28882 z M 177,232 v -7 h 47 47 v 7 7 h -47 -47 z m 112,0 v -7 h 7 7 v 7 7 h -7 -7 z m 32,0 v -7 h 7 7 v 7 7 h -7 -7 z m 26.85497,-40.425 C 352.38692,189.23143 353,186.41073 353,167.90329 c 0,-18.74495 -0.71273,-21.71323 -5.71075,-23.78348 -2.07644,-0.86009 -26.10992,-1.09149 -92.52472,-0.89085 l -89.71966,0.27104 -2.77244,2.77273 -2.77243,2.77272 v 18.89671 c 0,18.51335 0.0482,18.94798 2.37427,21.42401 1.30585,1.39001 3.33085,2.71499 4.5,2.94438 1.16915,0.2294 41.86058,0.47837 90.42539,0.55327 74.65954,0.11514 88.72534,-0.084 91.05531,-1.28882 z M 177,168 v -7 h 47 47 v 7 7 h -47 -47 z m 112,0 v -7 h 7 7 v 7 7 h -7 -7 z m 32,0 v -7 h 7 7 v 7 7 h -7 -7 z"
         id="path1258" />
    </g>
  </g>
</svg>
