<?xml version="1.0" encoding="UTF-8" standalone="no"?>
<!-- Created with Inkscape (http://www.inkscape.org/) -->

<svg
   version="1.1"
   id="svg769"
   width="512"
   height="512"
   viewBox="0 0 512 512"
   xmlns="http://www.w3.org/2000/svg"
   xmlns:svg="http://www.w3.org/2000/svg">
  <defs
     id="defs773" />
  <g
     id="g775">
    <g
       id="g779">
      <path
         style="fill:#a5dcf5"
         d="M 17.923077,494.07692 C 16.017036,492.17088 15,490.1302 15,488.21178 c 0,-3.33233 3.076245,-7.78382 6.026085,-8.72006 C 22.959707,478.87801 23,477.74528 23,424 23,370.25472 22.959707,369.12199 21.026085,368.50828 18.076245,367.57204 15,363.12055 15,359.78822 15,356.56141 19.697514,351 22.423077,351 23.708791,351 24,349.70732 24,344 24,338.29268 23.708791,337 22.423077,337 19.697514,337 15,331.43859 15,328.21178 c 0,-3.33233 3.076245,-7.78382 6.026085,-8.72006 C 22.965378,318.87621 23,317.69242 23,252 23,186.30758 22.965378,185.12379 21.026085,184.50828 18.076245,183.57204 15,179.12055 15,175.78822 15,172.56141 19.697514,167 22.423077,167 23.708791,167 24,165.70732 24,160 24,154.29268 23.708791,153 22.423077,153 19.697514,153 15,147.43859 15,144.21178 c 0,-3.33233 3.076245,-7.78382 6.026085,-8.72006 C 22.959631,134.87804 23,133.74587 23,80.132612 23,38.896136 23.2959,25.1041 24.2,24.2 25.073481,23.326519 32.673914,23 52.132612,23 c 25.736596,0 26.755955,-0.07354 27.359109,-1.973915 0.344573,-1.085653 1.785584,-2.885653 3.202246,-4 C 85.072542,15.155098 86.703531,15 104,15 c 17.29647,0 18.92746,0.155098 21.30603,2.026085 1.41667,1.114347 2.85768,2.914347 3.20225,4 C 129.05187,22.738785 130.04328,23 136,23 c 5.95672,0 6.94813,-0.261215 7.49172,-1.973915 0.34457,-1.085653 1.78558,-2.885653 3.20225,-4 C 149.07254,15.155098 150.70353,15 168,15 c 17.29647,0 18.92746,0.155098 21.30603,2.026085 1.41667,1.114347 2.85768,2.914347 3.20225,4 C 193.10795,22.915486 194.11376,23 216,23 c 21.88624,0 22.89205,-0.08451 23.49172,-1.973915 0.34457,-1.085653 1.78558,-2.885653 3.20225,-4 C 245.07254,15.155098 246.70353,15 264,15 c 17.29647,0 18.92746,0.155098 21.30603,2.026085 1.41667,1.114347 2.85768,2.914347 3.20225,4 C 289.05187,22.738785 290.04328,23 296,23 c 5.95672,0 6.94813,-0.261215 7.49172,-1.973915 0.34457,-1.085653 1.78558,-2.885653 3.20225,-4 C 309.07254,15.155098 310.70353,15 328,15 c 17.29647,0 18.92746,0.155098 21.30603,2.026085 1.41667,1.114347 2.85768,2.914347 3.20225,4 C 353.095,22.874683 354.07852,23 368,23 c 13.92148,0 14.905,-0.125317 15.49172,-1.973915 0.34457,-1.085653 1.78558,-2.885653 3.20225,-4 C 389.20421,15.051528 390.56529,15 440.21178,15 h 50.94207 l 2.92307,2.923077 L 497,20.846154 v 46.854417 c 0,51.499889 0.22316,49.581309 -6.15052,52.877269 -3.01292,1.55804 -3.02534,1.59944 -2.3238,7.74429 0.38792,3.39783 1.21151,6.36393 1.8302,6.59133 C 493.34464,136.012 497,141.0111 497,144 c 0,3.4363 -4.58886,9 -7.42308,9 -1.28571,0 -1.57692,1.29268 -1.57692,7 0,5.70732 0.29121,7 1.57692,7 2.72557,0 7.42308,5.56141 7.42308,8.78822 0,3.33233 -3.07625,7.78382 -6.02609,8.72006 C 489.07581,185.11072 489,186.12682 489,210.9669 v 25.83212 l 3.44055,5.11264 c 1.8923,2.81194 3.72133,7.01966 4.06452,9.35048 0.48015,3.26106 0.1064,63.25654 -0.44067,70.73786 -0.0603,0.825 0.17321,3.17441 0.51897,5.22091 0.54713,3.23839 0.23584,4.11373 -2.40044,6.75 -1.66599,1.666 -3.7387,3.02909 -4.60601,3.02909 -1.28571,0 -1.57692,1.29268 -1.57692,7 0,5.70732 0.29121,7 1.57692,7 0.86731,0 2.89231,1.31538 4.5,2.92308 L 497,356.84615 V 424 491.15385 l -2.92308,2.92307 L 491.15385,497 H 256 20.846154 Z"
         id="path793" />
      <path
         style="fill:#58afdd"
         d="M 22,496.29706 C 15.421045,493.87767 13.852346,485.98492 19.076725,481.58889 20.768924,480.165 22.568924,479 23.076725,479 23.6299,479 24,456.95295 24,424 c 0,-32.95295 -0.3701,-55 -0.923275,-55 -0.507801,0 -2.307801,-1.165 -4,-2.58889 -4.355291,-3.66474 -4.355291,-9.15748 0,-12.82222 C 20.768924,352.165 22.568924,351 23.076725,351 23.584526,351 24,347.85 24,344 c 0,-3.85 -0.415474,-7 -0.923275,-7 -0.507801,0 -2.307801,-1.165 -4,-2.58889 -4.355291,-3.66474 -4.355291,-9.15748 0,-12.82222 C 20.768924,320.165 22.568924,319 23.076725,319 23.631905,319 24,292.28814 24,252 c 0,-40.28814 -0.368095,-67 -0.923275,-67 -0.507801,0 -2.307801,-1.165 -4,-2.58889 C 16.629283,180.35172 16,179.04045 16,176 c 0,-3.04045 0.629283,-4.35172 3.076725,-6.41111 C 20.768924,168.165 22.568924,167 23.076725,167 23.584526,167 24,163.85 24,160 c 0,-3.85 -0.415474,-7 -0.923275,-7 -0.507801,0 -2.307801,-1.165 -4,-2.58889 -4.355291,-3.66474 -4.355291,-9.15748 0,-12.82222 C 20.768924,136.165 22.565114,135 23.068258,135 c 0.538921,0 1.021011,-22.70182 1.173275,-55.25 L 24.5,24.5 l 27,-0.300529 27,-0.300529 2.001952,-3.170911 C 83.784899,15.528138 85.841109,15.029484 104,15.029484 c 18.16819,0 20.21991,0.498614 23.49805,5.710556 1.91548,3.045445 2.28269,3.18292 8.50195,3.18292 6.21926,0 6.58647,-0.137475 8.50195,-3.18292 3.27814,-5.211942 5.32986,-5.710556 23.49805,-5.710556 18.16819,0 20.21991,0.498614 23.49805,5.710556 L 193.5,23.92296 h 22.5 22.5 l 2.00195,-3.18292 c 3.27814,-5.211942 5.32986,-5.710556 23.49805,-5.710556 18.16819,0 20.21991,0.498614 23.49805,5.710556 1.91548,3.045445 2.28269,3.18292 8.50195,3.18292 6.21926,0 6.58647,-0.137475 8.50195,-3.18292 3.27814,-5.211942 5.32986,-5.710556 23.49805,-5.710556 18.16819,0 20.21991,0.498614 23.49805,5.710556 L 353.5,23.92296 h 14.5 14.5 l 2.00195,-3.18292 c 3.69688,-5.877698 2.50801,-5.762637 56.72597,-5.490052 L 490.95583,15.5 l 2.77209,2.772727 2.77208,2.772728 v 46.896708 46.896707 l -2.37558,2.52869 c -4.68849,4.99066 -11.60381,4.06393 -14.33047,-1.92045 L 478.67897,113 H 460.83948 C 451.02777,113 443,113.39985 443,113.88857 c 0,1.18436 14.19731,8.44037 20.54085,10.49808 2.77248,0.89933 9.07228,2.21714 13.99957,2.92846 8.74111,1.26189 8.971,1.3642 9.4643,4.21213 0.29131,1.68179 1.45406,3.3917 2.74354,4.03458 4.48916,2.23808 6.25174,4.63573 6.25174,8.50427 0,2.96665 -0.64667,4.30026 -3.07673,6.34502 -1.69219,1.42389 -3.49219,2.58889 -4,2.58889 -0.5078,0 -0.92327,3.15 -0.92327,7 0,3.85 0.41547,7 0.92327,7 0.50781,0 2.30781,1.165 4,2.58889 C 495.37072,171.64828 496,172.95955 496,176 c 0,3.04045 -0.62928,4.35172 -3.07673,6.41111 -1.69219,1.42389 -3.49219,2.58889 -4,2.58889 C 488.38259,185 488,195.77039 488,210.99135 v 25.99134 l 3.45897,4.53151 c 1.90244,2.49232 3.81494,6.20872 4.25,8.25865 0.68245,3.21555 0.90469,49.12045 0.35796,73.93619 -0.17202,7.80736 -0.32863,8.33338 -3.20062,10.75 -1.66087,1.39753 -3.43523,2.54096 -3.94304,2.54096 -0.5078,0 -0.90594,3.0375 -0.88475,6.75 0.037,6.48312 0.16436,6.82915 3.22144,8.75195 5.95144,3.74326 5.75553,1.14654 5.4868,72.72572 l -0.24676,65.72768 -2.77269,2.77232 -2.77269,2.77233 -233.72731,0.17434 C 128.67729,496.77022 22.825,496.60045 22,496.29706 Z M 239,466.94098 C 239,465.451 238.30293,465 236,465 c -3.53422,0 -3.85166,1.29006 -0.83703,3.40159 2.52274,1.767 3.83703,1.26671 3.83703,-1.46061 z M 478.5,424 v -39.5 h -39 -39 l 0.0291,5.5 c 0.0517,9.76007 -2.48324,9 30.01641,9 h 28.60831 l 2.92307,2.92308 L 465,404.84615 V 424 443.15385 l -2.92308,2.92307 c -2.90805,2.90805 -2.98515,2.92308 -15,2.92308 -6.6423,0 -12.07692,0.39426 -12.07692,0.87613 0,1.05178 12.14284,7.5436 18.19111,9.72535 6.35912,2.29388 16.74652,4.2815 21.30889,4.07743 l 4,-0.17891 z m -334.37176,28.43368 c 3.33364,-1.72389 6.8141,-8.18886 6.8498,-12.72352 0.0564,-7.16914 -7.51906,-14.74463 -14.6882,-14.6882 C 131.59266,425.05894 125,428.58549 125,431.06113 125,435.63461 137.1114,454 140.12747,454 c 0.53452,0 2.33487,-0.70484 4.00077,-1.56632 z M 239,439.95619 v -7.04381 l -7.25,0.29381 -7.25,0.29381 -0.3068,5.3808 C 223.74005,446.82847 223.90433,447 231.96862,447 H 239 Z M 95,407.97841 v -7.0216 l -19.25,0.2716 -19.25,0.27159 -0.306796,5.3808 c -0.168738,2.95944 -0.07036,5.99694 0.218615,6.75 C 56.831076,414.72337 60.782357,415 75.968615,415 H 95 Z M 478.79569,303.6703 479.09138,297 h -11.87902 c -6.53347,0 -12.15407,0.27505 -12.49024,0.61122 -0.63076,0.63075 2.34755,3.32632 8.04574,7.28191 3.57154,2.4793 13.13493,6.20484 14.73214,5.73908 0.55,-0.16038 1.13306,-3.29324 1.29569,-6.96191 z M 375,288.46617 v -15.53383 l -10.75,0.28383 -10.75,0.28383 0.28918,2.7585 c 0.44339,4.22951 3.54038,10.69673 7.8689,16.43208 C 365.45601,297.72289 372.38251,304 374.1375,304 374.61188,304 375,297.00978 375,288.46617 Z m 104,-22.01162 c 0,-12.01991 -0.10384,-12.6493 -2.47882,-15.02428 -2.46598,-2.46598 -2.56568,-2.4774 -19.25,-2.20454 L 440.5,249.5 440.509,262 c 0.0131,18.1327 -1.35457,17 20.52617,17 H 479 Z M 127,119.94098 V 113 h -13 c -7.15,0 -13,0.40338 -13,0.89641 0,1.27135 6.42202,6.75028 10.2635,8.75627 4.21303,2.20001 14.02385,5.26584 14.9865,4.68321 0.4125,-0.24966 0.75,-3.57737 0.75,-7.39491 z m 72,4.62641 c 0,-2.53924 -0.51374,-3.59567 -1.97391,-4.05911 -1.08566,-0.34457 -2.88566,-1.78558 -4,-3.20225 C 191.16765,114.94341 191,113.29075 191,97.333023 191,77.947452 190.60972,76.248406 184.49183,69 177.86957,61.154014 175.63073,54.955443 175.1715,43.195252 L 174.76911,32.890504 171.63455,33.195252 168.5,33.5 l -0.59885,9 c -0.6866,10.318715 -2.0846,14.189105 -7.40464,20.5 -5.75463,6.82642 -8.47523,13.42008 -8.48674,20.568499 -0.0181,11.268143 4.20388,21.605061 12.33665,30.204271 8.19277,8.66264 19.57287,14.05649 29.90358,14.17345 L 199,128 Z M 127,87.467881 C 127,78.761959 125.75902,75.240505 120.49183,69 113.86957,61.154014 111.63073,54.955443 111.1715,43.195252 L 110.76911,32.890504 107.63455,33.195252 104.5,33.5 l -0.59885,9 c -0.6866,10.318715 -2.0846,14.189105 -7.404642,20.5 -5.791471,6.870121 -8.475251,13.411351 -8.486739,20.6849 -0.0054,3.401696 0.429093,7.339196 0.96548,8.75 L 89.950498,95 H 108.47525 127 Z M 335,43.936642 V 32.873283 l -3.25,0.313359 -3.25,0.313358 -0.28984,9.424983 c -0.15941,5.183741 -0.061,10.021241 0.21861,10.75 C 328.70842,54.403743 330.30135,55 331.96862,55 H 335 Z M 479,39.987207 V 32.974415 L 443.75,33.237207 408.5,33.5 l -0.3068,5.380801 c -0.16873,2.95944 -0.0704,5.99694 0.21862,6.75 C 408.84271,46.753678 415.23947,47 443.96862,47 H 479 Z"
         id="path791" />
      <path
         style="fill:#929899"
         d="M 22,496.29706 C 15.421045,493.87767 13.852346,485.98492 19.076725,481.58889 20.768924,480.165 22.568924,479 23.076725,479 23.6299,479 24,456.95295 24,424 c 0,-32.95295 -0.3701,-55 -0.923275,-55 -0.507801,0 -2.307801,-1.165 -4,-2.58889 -4.355291,-3.66474 -4.355291,-9.15748 0,-12.82222 C 20.768924,352.165 22.568924,351 23.076725,351 23.584526,351 24,347.85 24,344 c 0,-3.85 -0.415474,-7 -0.923275,-7 -0.507801,0 -2.307801,-1.165 -4,-2.58889 -4.355291,-3.66474 -4.355291,-9.15748 0,-12.82222 C 20.768924,320.165 22.568924,319 23.076725,319 23.631905,319 24,292.28814 24,252 c 0,-40.28814 -0.368095,-67 -0.923275,-67 -0.507801,0 -2.307801,-1.165 -4,-2.58889 C 16.629283,180.35172 16,179.04045 16,176 c 0,-3.04045 0.629283,-4.35172 3.076725,-6.41111 C 20.768924,168.165 22.568924,167 23.076725,167 23.584526,167 24,163.85 24,160 c 0,-3.85 -0.415474,-7 -0.923275,-7 -0.507801,0 -2.307801,-1.165 -4,-2.58889 -4.355291,-3.66474 -4.355291,-9.15748 0,-12.82222 C 20.768924,136.165 22.565114,135 23.068258,135 c 0.538921,0 1.021011,-22.70182 1.173275,-55.25 L 24.5,24.5 l 27,-0.300529 27,-0.300529 2.001952,-3.170911 C 83.784899,15.528138 85.841109,15.029484 104,15.029484 c 18.16819,0 20.21991,0.498614 23.49805,5.710556 1.91548,3.045445 2.28269,3.18292 8.50195,3.18292 6.21926,0 6.58647,-0.137475 8.50195,-3.18292 3.27814,-5.211942 5.32986,-5.710556 23.49805,-5.710556 18.16819,0 20.21991,0.498614 23.49805,5.710556 L 193.5,23.92296 h 22.5 22.5 l 2.00195,-3.18292 c 3.27814,-5.211942 5.32986,-5.710556 23.49805,-5.710556 18.16819,0 20.21991,0.498614 23.49805,5.710556 1.91548,3.045445 2.28269,3.18292 8.50195,3.18292 6.21926,0 6.58647,-0.137475 8.50195,-3.18292 3.27814,-5.211942 5.32986,-5.710556 23.49805,-5.710556 18.16819,0 20.21991,0.498614 23.49805,5.710556 L 353.5,23.92296 h 14.5 14.5 l 2.00195,-3.18292 c 3.69688,-5.877698 2.50801,-5.762637 56.72597,-5.490052 L 490.95583,15.5 493.72792,18.272727 496.5,21.045455 V 68 114.95455 l -2.72273,2.72272 c -4.54272,4.54272 -11.66646,3.37459 -13.81048,-2.26461 -0.81939,-2.15516 -1.07707,-2.17445 -38.89849,-2.91133 -29.76033,-0.57982 -38.40057,-0.47046 -39.57097,0.50088 -2.06895,1.71708 -2.16346,20.20006 -0.112,21.90262 1.00133,0.83103 13.64777,1.12595 45.62326,1.06393 l 44.23793,-0.0858 2.37674,2.23283 c 3.60348,3.38529 3.28723,8.94029 -0.69999,12.29531 -1.69219,1.42389 -3.49219,2.58889 -4,2.58889 -0.5078,0 -0.92327,3.15 -0.92327,7 0,3.85 0.41547,7 0.92327,7 0.50781,0 2.30781,1.165 4,2.58889 C 495.37072,171.64828 496,172.95955 496,176 c 0,3.04045 -0.62928,4.35172 -3.07673,6.41111 -1.69219,1.42389 -3.49219,2.58889 -4,2.58889 C 488.38259,185 488,195.77039 488,210.99135 v 25.99134 l 3.45897,4.53151 c 1.90244,2.49232 3.81494,6.20872 4.25,8.25865 0.68245,3.21555 0.90469,49.12045 0.35796,73.93619 -0.17202,7.80736 -0.32863,8.33338 -3.20062,10.75 -1.66087,1.39753 -3.43523,2.54096 -3.94304,2.54096 -0.5078,0 -0.90594,3.0375 -0.88475,6.75 0.037,6.48312 0.16436,6.82915 3.22144,8.75195 5.95144,3.74326 5.75553,1.14654 5.4868,72.72572 l -0.24676,65.72768 -2.77269,2.77232 -2.77269,2.77233 -233.72731,0.17434 C 128.67729,496.77022 22.825,496.60045 22,496.29706 Z M 94.8,478.8 c 1.420385,-1.42039 1.580813,-10.64819 0.222531,-12.8 -0.78319,-1.24074 -4.680036,-1.55562 -22.545729,-1.82178 -15.686213,-0.2337 -21.992799,0.005 -23.037844,0.87244 -1.789191,1.4849 -1.972219,12.01608 -0.238958,13.74934 1.700001,1.7 43.899999,1.7 45.6,0 z m 144.17872,-0.27436 c 0.84666,-1.02016 1.01295,-3.2894 0.53979,-7.36618 l -0.68382,-5.89183 -6.06404,-0.63381 C 223.64402,463.6799 218.5343,463.8657 217.2,465.2 c -0.66,0.66 -1.2,3.72 -1.2,6.8 0,3.08 0.54,6.14 1.2,6.8 1.8526,1.8526 20.20537,1.62141 21.77872,-0.27436 z m 239.59501,0.35507 c 0.90395,-1.46263 0.90395,-108.29879 0,-109.76142 -0.74084,-1.19869 -113.91179,-1.69427 -116.99194,-0.5123 -2.43134,0.93299 -2.28319,14.20823 0.16821,15.07341 0.9625,0.33969 2.7625,1.52901 4,2.64293 l 2.25,2.0253 v 44.62568 c 0,33.37554 0.30252,44.92821 1.2,45.82569 1.66191,1.66191 108.34784,1.74063 109.37373,0.0807 z M 411.0435,448.28682 C 381.52525,447.85806 384,450.08054 384,424 v -19.65137 l 2.56888,-2.41334 2.56889,-2.41334 35.39827,-0.011 35.39828,-0.011 2.28284,2.27778 C 464.44184,403.99752 464.5,404.56372 464.5,424 c 0,25.77441 0.93944,24.47655 -17.77492,24.5565 -7.27379,0.0311 -23.33051,-0.0903 -35.68158,-0.26968 z m -266.91855,4.27424 c 12.97596,-8.81739 5.74354,-29.0462 -9.76014,-27.29871 -5.04865,0.56905 -10.99067,4.64568 -12.51467,8.58592 -0.5641,1.45845 -0.8358,5.02419 -0.60378,7.92386 0.32882,4.10947 1.06489,5.95174 3.33775,8.3539 3.64337,3.85064 5.73493,4.73063 11.43376,4.81058 3.21642,0.0451 5.55179,-0.63918 8.10708,-2.37555 z M 233.13957,447 H 239 v -6.85459 -6.85458 l -10.24499,-0.56453 c -6.47123,-0.35659 -10.70728,-0.18087 -11.5,0.47703 -1.64791,1.36763 -1.65179,11.98903 -0.005,13.68089 0.83698,0.85991 2.70037,1.09119 5.63957,0.7 C 225.30384,447.2629 229.91634,447 233.13957,447 Z M 77.139571,415 H 95 v -6.90207 -6.90207 l -22.25,-0.39461 c -12.651351,-0.22437 -22.78925,0.002 -23.5,0.52452 -0.745299,0.54801 -1.25,3.2115 -1.25,6.59667 0,7.14256 1.1534,8.42523 6.889571,7.66178 C 57.303835,415.2629 67.316335,415 77.139571,415 Z M 374.81561,318.72218 c 0.71697,-0.86391 0.86945,-8.43254 0.47072,-23.36559 l -0.58978,-22.08777 -14.09828,-0.52278 c -8.81104,-0.32672 -14.56705,-0.1437 -15.34827,0.48804 -1.74873,1.41411 -1.79526,43.82066 -0.05,45.56592 1.73708,1.73708 28.16701,1.66763 29.61561,-0.0778 z m 102.08167,-1.12717 C 478.74367,315.92225 479,314.56911 479,306.49489 v -9.19514 l -22.07229,-0.71232 c -17.30213,-0.55838 -22.40548,-0.4358 -23.61401,0.56719 -2.25524,1.87167 -1.40659,16.98027 1.10997,19.76104 2.4872,2.74832 3.86844,2.91116 23.22361,2.73787 15.33151,-0.13727 17.36994,-0.35525 19.25,-2.05852 z M 462.64669,279 H 479 v -12.54545 c 0,-11.98654 -0.10935,-12.65481 -2.45455,-15 C 474.11264,249.02173 473.92365,249 455.20044,249 c -23.76247,0 -22.54936,-0.8484 -23.05636,16.12463 -0.44246,14.81271 -0.12763,15.3676 8.22407,14.49468 C 443.62703,279.27869 453.65237,279 462.64669,279 Z M 126.79667,134.74499 c 0.65577,-0.79015 0.83559,-4.99293 0.48548,-11.34671 l -0.55608,-10.09171 -21.97849,-0.67991 C 88.772997,112.13248 82.39087,112.26064 81.384545,113.09582 79.572104,114.60001 79.415522,133.01552 81.2,134.8 c 1.749151,1.74915 44.1418,1.69801 45.59667,-0.055 z m 71.62154,0.64802 c 1.12006,-0.4298 1.54725,-1.81635 1.46348,-4.75 -0.19219,-6.72987 -1.21823,-9.63942 -3.86198,-10.95149 -4.38656,-2.17699 -4.98913,-4.94289 -5.00497,-22.973639 -0.0165,-18.800969 -0.61312,-21.31717 -6.63476,-27.982413 -6.18043,-6.840992 -8.66169,-13.690335 -9.17982,-25.340202 l -0.4521,-10.165437 -5.95121,-0.673303 C 160.51734,31.619806 160,32.240552 160,43.111718 c 0,10.752704 -1.99193,16.695864 -8.30037,24.76509 -7.51873,9.617334 -7.16557,7.83974 -7.5336,37.919552 -0.24793,20.26357 -0.0232,27.67088 0.87244,28.75 0.99709,1.20142 5.59554,1.45364 26.50219,1.45364 13.91267,0 26.00757,-0.27314 26.87755,-0.60699 z M 109.75,95.008692 127,95 v -7.532119 c 0,-8.782639 -1.52208,-13.089593 -6.62002,-18.732413 -6.18043,-6.840992 -8.66169,-13.690335 -9.17982,-25.340202 l -0.4521,-10.165437 -5.95121,-0.673303 C 96.517339,31.619806 96,32.240552 96,43.111718 c 0,10.752704 -1.991935,16.695864 -8.300372,24.76509 -6.128925,7.839608 -6.633989,9.044923 -7.352665,17.546856 -0.82379,9.745425 0.08302,11.044372 7.119779,10.198649 C 90.235034,95.289602 100.2625,95.013473 109.75,95.008692 Z M 333.13957,55 C 334.83938,55 335,54.061486 335,44.129166 V 33.258333 l -6.07718,-0.687555 C 320.40309,31.60688 320,32.119691 320,43.922445 c 0,11.469366 0.60762,12.497867 6.88957,11.661779 C 329.30384,55.262901 332.11634,55 333.13957,55 Z m 112,-8 H 479 v -6.935075 -6.935076 l -38.25,-0.314924 c -21.0375,-0.173209 -38.8125,0.07767 -39.5,0.55752 -0.75078,0.524011 -1.25,3.139926 -1.25,6.55 0,7.14255 1.1534,8.425227 6.88957,7.661779 C 409.30384,47.262901 426.51634,47 445.13957,47 Z"
         id="path789" />
      <path
         style="fill:#d8cc14"
         d="m 22.5,495.28499 c -3.597968,-0.88414 -5.5,-3.41472 -5.5,-7.31753 0,-3.74466 1.166703,-5.36903 5.356652,-7.45795 L 24.5,479.44093 V 424 368.55907 l -2.143348,-1.06858 C 18.166703,365.40157 17,363.7772 17,360.03254 c 0,-3.73944 1.672278,-6.08036 5.25,-7.34916 2.606344,-0.9243 2.606344,-16.44246 0,-17.36676 -3.577722,-1.2688 -5.25,-3.60972 -5.25,-7.34916 0,-3.74466 1.166703,-5.36903 5.356652,-7.45795 L 24.5,319.44093 V 252 184.55907 l -2.143348,-1.06858 C 18.166703,181.40157 17,179.7772 17,176.03254 c 0,-3.73944 1.672278,-6.08036 5.25,-7.34916 C 23.720653,168.16184 24,166.77574 24,160 c 0,-6.77574 -0.279347,-8.16184 -1.75,-8.68338 -3.577722,-1.2688 -5.25,-3.60972 -5.25,-7.34916 0,-3.74473 1.166968,-5.36942 5.356652,-7.45769 C 24.499528,135.44169 24.50011,135.42934 25,80.470728 L 25.5,25.5 52.487426,25 79.474853,24.5 80.730585,21.878123 C 83.228962,16.661692 83.928552,16.5 104,16.5 c 14.68009,0 19.05999,0.304899 20.40408,1.420394 3.37767,2.803218 4.59515,7.931537 4.61788,19.45173 0.017,8.592675 0.4365,12.039173 1.84152,15.127876 2.50849,5.514492 4.61282,7.178271 6.795,5.372445 3.79448,-3.140055 5.29672,-8.929347 5.31956,-20.500321 0.0227,-11.520193 1.24021,-16.648512 4.61788,-19.45173 2.4919,-2.068092 38.31626,-2.068092 40.80816,0 C 191.77318,20.7165 193,25.850711 193,37.154243 c 0,12.418278 1.05885,15.95473 6.62002,22.110289 1.98531,2.197495 4.79299,6.524451 6.23931,9.615457 2.4935,5.32902 2.64773,6.590842 2.97883,24.370011 l 0.34918,18.75 h 7.83537 7.83537 l 1.61485,-5.55488 c 0.88816,-3.05518 3.36864,-9.540246 5.51217,-14.411259 C 237.88379,78.629513 239,71.489868 239,47.164282 c 0,-21.775693 0.66038,-25.977678 4.59592,-29.243888 2.4919,-2.068092 38.31626,-2.068092 40.80816,0 3.93554,3.26621 4.59592,7.468195 4.59592,29.243888 0,21.259391 1.14376,31.148852 4.54355,39.285701 1.87116,4.47833 3.04174,4.47833 4.9129,0 C 301.85624,78.313134 303,68.423673 303,47.164282 c 0,-21.775693 0.66038,-25.977678 4.59592,-29.243888 2.4919,-2.068092 38.31626,-2.068092 40.80816,0 3.93554,3.26621 4.59592,7.468195 4.59592,29.243888 0,24.325586 1.11621,31.465231 7.0149,44.869579 2.14353,4.871013 4.62401,11.356079 5.51217,14.411259 L 367.14192,112 H 375.07096 383 V 69.122124 c 0,-35.088033 0.26202,-43.50497 1.44222,-46.329606 2.7697,-6.62882 -0.2063,-6.292518 55.6837,-6.292518 h 50.81852 l 2.27778,2.277778 2.27778,2.277778 V 68 c 0,45.62287 -0.0563,46.99976 -2,48.90917 -1.1,1.0806 -3.25706,2.27179 -4.79346,2.64709 -2.39962,0.58617 -3.32961,0.10161 -6.59639,-3.43694 L 478.30722,112 h -37.95361 c -28.18614,0 -38.26243,0.30882 -39.15361,1.2 -1.73138,1.73138 -1.63281,20.19591 0.11556,21.64693 0.89522,0.74296 15.39977,1.18148 45.39589,1.37244 41.72639,0.26564 44.1927,0.38236 46.18444,2.18562 4.12102,3.73102 2.35992,10.95906 -3.14589,12.91163 -1.47065,0.52154 -1.75,1.90764 -1.75,8.68338 0,6.77574 0.27935,8.16184 1.75,8.68338 3.57772,1.2688 5.25,3.60972 5.25,7.34916 0,3.74606 -1.17199,5.37666 -5.35665,7.45272 -1.74297,0.86471 -2.19177,2.0862 -2.40258,6.53904 -0.44532,9.40645 -0.74546,9.9757 -5.25982,9.9757 -2.18952,0 -3.98095,0.17356 -3.98095,0.38569 0,0.21213 0.67223,1.67463 1.49384,3.25 1.1051,2.11893 1.49544,6.31794 1.5,16.13575 0.006,13.06516 0.0438,13.28857 2.42553,14.37378 2.47598,1.12813 6.82818,6.61697 10.19277,12.85478 1.74405,3.23337 1.88111,5.93772 1.79926,35.5 -0.14358,51.86144 -0.0248,50.64213 -5.1203,52.57942 C 488.16486,335.88782 488,336.52972 488,344 c 0,7.47028 0.16486,8.11218 2.2911,8.92058 5.42937,2.06424 5.2089,-0.94963 5.2089,71.20534 v 66.81852 l -2.27773,2.27778 -2.27773,2.27778 -233.22227,0.13823 C 129.45002,495.71426 23.6,495.5553 22.5,495.28499 Z m 72.427539,-16.69768 c 0.705125,-0.84962 1.052862,-3.9386 0.872445,-7.75 L 95.5,464.5 73.125914,464.23054 c -15.662696,-0.18864 -22.786808,0.0731 -23.75,0.87244 C 47.646024,466.53866 47.51025,477.11025 49.2,478.8 c 1.880789,1.88079 44.153286,1.68417 45.727539,-0.21269 z m 144.000001,0 c 0.70512,-0.84962 1.05286,-3.9386 0.87244,-7.75 L 239.5,464.5 229.146,464.21387 c -6.7762,-0.18726 -10.83639,0.11421 -11.75,0.87244 -1.74878,1.45136 -1.89969,12.01 -0.196,13.71369 1.80595,1.80595 20.20167,1.62587 21.72754,-0.21269 z M 478.8,478.8 c 1.73103,-1.73103 1.73103,-107.86897 0,-109.6 -1.79836,-1.79836 -115.70215,-1.72325 -118.1654,0.0779 -1.39404,1.01935 -1.68564,2.48131 -1.44113,7.22527 0.25763,4.99851 0.6644,6.125 2.54964,7.06086 1.23372,0.61243 3.14622,1.9308 4.25,2.92972 1.9521,1.76662 2.00689,3.03513 2.00689,46.46122 0,33.39056 0.3025,44.94751 1.2,45.84501 1.73103,1.73103 107.86897,1.73103 109.6,0 z M 386.17431,445.68555 C 384.09527,443.47251 384,442.5162 384,423.85986 c 0,-19.10189 0.0486,-19.55685 2.31445,-21.68555 C 388.59912,400.02798 389.07624,400 423.39137,400 h 34.76248 l 2.92307,2.92308 L 464,405.84615 V 424 442.15385 l -2.92308,2.92307 L 458.15385,448 h -34.90261 -34.90261 z m -186.98743,-7.66029 c 0.29898,-17.16278 0.41601,-18.07751 2.5909,-20.25 L 204.05556,415.5 H 268 331.94444 l 2.27778,2.27526 c 2.17489,2.17249 2.29192,3.08722 2.5909,20.25 L 337.12625,456 H 344.06312 351 l 0.006,-32.75 c 0.005,-27.09741 0.264,-33.24437 1.5,-35.61431 0.82177,-1.57537 1.494,-3.03787 1.494,-3.25 C 354,384.17356 313.5,384 264,384 c -49.5,0 -90,0.17356 -90,0.38569 0,0.21213 0.67223,1.67463 1.49384,3.25 1.236,2.36994 1.4949,8.5169 1.5,35.61431 L 177,456 h 10.93688 10.93687 z m -52.15218,13.17533 c 6.57225,-6.57224 6.60652,-15.79466 0.083,-22.31824 -5.89329,-5.89328 -14.90688,-6.45492 -21.02146,-1.30983 -6.07074,5.10819 -6.84893,16.91217 -1.48849,22.57813 3.77417,3.98928 5.69473,4.70964 12.75995,4.78596 5.49688,0.0594 6.10772,-0.17669 9.66705,-3.73602 z M 239.5,440 v -7.5 l -10.354,-0.28613 c -6.7762,-0.18726 -10.83639,0.11421 -11.75,0.87244 -1.76889,1.46805 -1.89512,12.01457 -0.16452,13.74517 0.85803,0.85803 4.4213,1.14613 11.75,0.95 L 239.5,447.5 Z m -144,-32 v -7.5 l -22.374086,-0.26946 c -15.662696,-0.18864 -22.786808,0.0731 -23.75,0.87244 -1.740308,1.44433 -1.861805,12.01113 -0.157698,13.71524 0.902065,0.90206 7.065644,1.1486 23.75,0.95 L 95.5,415.5 Z m 279.39702,-89.37591 c 0.79938,-0.9632 1.06108,-8.08731 0.87244,-23.75 L 375.5,272.5 361.13638,272.22185 c -9.73987,-0.18861 -14.8099,0.0922 -15.75,0.87245 -1.87291,1.55437 -2.04537,43.84671 -0.18638,45.7057 1.81604,1.81604 28.17342,1.65991 29.69702,-0.17591 z m 102.31336,-1.38802 c 2.02006,-2.02185 2.26341,-3.25153 2.27577,-11.5 L 479.5,296.5 457.12591,296.23054 c -16.63606,-0.20036 -22.75618,0.0476 -23.864,0.96706 -2.20612,1.83091 -1.31337,16.98307 1.16176,19.71806 2.48815,2.74937 3.86457,2.91111 23.30056,2.73787 16.45766,-0.1467 17.32489,-0.25429 19.48615,-2.41746 z M 169,296 c 0,-3.23508 -0.45,-6.16008 -1,-6.5 -0.63089,-0.38991 -1,2.00929 -1,6.5 0,4.49071 0.36911,6.88991 1,6.5 0.55,-0.33992 1,-3.26492 1,-6.5 z m 22,-30.22465 c 0.48204,-20.94436 0.58181,-21.80636 2.77778,-24 L 196.05556,239.5 H 248 299.94444 l 2.27778,2.2757 c 2.21159,2.20957 2.28662,2.91429 2.58191,24.25 L 305.10825,288 H 316.05413 327 v -7.44543 c 0,-7.13011 -0.11608,-7.50108 -2.74089,-8.75911 -5.46342,-2.61855 -6.59007,-10.37599 -2.09744,-14.44177 C 324.07577,255.62145 326.55491,255.5 360,255.5 c 33.44509,0 35.92423,0.12145 37.83833,1.85369 4.49263,4.06578 3.36598,11.82322 -2.09744,14.44177 -2.62481,1.25803 -2.74089,1.629 -2.74089,8.75911 V 288 h 10.92354 10.92354 l 0.32646,-19.25 c 0.27886,-16.44352 0.59792,-19.76027 2.18841,-22.75 2.36646,-4.44834 7.34097,-9.75315 10.88805,-11.611 l 2.75,-1.44036 0.006,-13.22432 c 0.005,-9.776 0.39569,-13.9712 1.5,-16.08863 0.82177,-1.57537 1.494,-3.03787 1.494,-3.25 C 434,200.17356 371.9,200 296,200 c -75.9,0 -138,0.17356 -138,0.38569 0,0.21213 0.67223,1.67463 1.49384,3.25 1.09667,2.10277 1.49548,6.26274 1.5,15.64643 0.007,14.44596 0.88648,17.62925 6.62618,23.98241 1.98531,2.1975 4.78734,6.52445 6.22675,9.61546 2.36052,5.06904 2.61886,6.79646 2.63516,17.62001 0.01,6.6 -0.20693,12.88541 -0.48193,13.96758 -0.59324,2.3345 2.84961,3.43161 10,3.18661 L 190.5,287.5 Z m 288.77914,0.45833 c 0.27458,-13.04953 0.23757,-13.30788 -2.26501,-15.81045 l -2.54414,-2.54415 -18.95962,0.31046 c -24.3297,0.39839 -23.3574,-0.28839 -23.86629,16.85804 -0.25369,8.5481 0.001,12.42262 0.88774,13.49076 1.05037,1.26562 4.7578,1.45679 23.85591,1.23008 L 479.5,279.5 Z M 111.00616,218.75 c 0.004,-8.91159 0.41327,-13.03059 1.5,-15.11431 0.82161,-1.57537 1.49384,-3.06252 1.49384,-3.30479 0,-0.24226 -2.1375,-0.30333 -4.75,-0.13569 -4.60366,0.2954 -4.76002,0.40978 -5.07514,3.71278 -0.60443,6.33537 3.99844,27.09201 6.00776,27.09201 0.44956,0 0.82015,-5.5125 0.82354,-12.25 z m 15.90753,-84.146 c 0.75823,-0.91361 1.0597,-4.9738 0.87244,-11.75 L 127.5,112.5 105.12591,112.23054 C 89.463218,112.0419 82.339106,112.3036 81.375914,113.10298 79.571485,114.60052 79.422127,133.02213 81.2,134.8 c 1.866968,1.86697 44.15204,1.68567 45.71369,-0.196 z m 72.15205,0.36082 C 200.67065,134.1059 201,132.83323 201,127.4905 c 0,-6.11363 -0.14858,-6.51598 -2.9393,-7.95911 C 192.3832,116.59544 192,115.15475 192,96.745375 192,77.704241 191.69173,76.473015 184.65133,67.395145 178.61281,59.609095 176.8719,54.527307 176.12282,42.5 L 175.5,32.5 169.16269,32.200016 C 160.46703,31.788397 160,32.344572 160,43.111718 c 0,10.752704 -1.99193,16.695864 -8.30037,24.76509 -7.51873,9.617334 -7.16557,7.83974 -7.5336,37.919552 -0.24793,20.26357 -0.0232,27.67088 0.87244,28.75 0.99743,1.20182 5.61402,1.45364 26.64972,1.45364 15.62636,0 26.1896,-0.39941 27.37755,-1.03518 z M 127.79088,87.815724 c 0.34423,-9.093643 -0.7236,-12.147875 -7.13955,-20.420579 C 114.61281,59.609095 112.8719,54.527307 112.12282,42.5 L 111.5,32.5 105.16269,32.200016 C 96.467027,31.788397 96,32.344572 96,43.111718 c 0,10.752704 -1.991935,16.695864 -8.300372,24.76509 -6.128925,7.839608 -6.633989,9.044923 -7.352665,17.546856 -0.460439,5.446991 -0.282082,7.949586 0.64628,9.068194 1.099747,1.325114 4.50024,1.506786 23.894487,1.276564 L 127.5,95.5 Z M 335.5,44 V 32.5 l -6.33731,-0.299984 c -3.8114,-0.180417 -6.90038,0.16732 -7.75,0.872445 -1.87044,1.552329 -2.01601,19.924218 -0.17248,21.767753 0.80068,0.800678 3.54731,1.137361 7.75,0.95 L 335.5,55.5 Z m 144,-4 v -7.5 l -38.38307,-0.262009 c -27.50021,-0.187721 -38.77063,0.05965 -39.75,0.872445 -1.72772,1.43388 -1.84765,12.008845 -0.15538,13.701111 0.91608,0.916084 10.61003,1.147763 39.75,0.95 L 479.5,47.5 Z"
         id="path787" />
      <path
         style="fill:#e26551"
         d="m 22.5,495.28499 c -3.597968,-0.88414 -5.5,-3.41472 -5.5,-7.31753 0,-3.74466 1.166703,-5.36903 5.356652,-7.45795 L 24.5,479.44093 V 424 368.55907 l -2.143348,-1.06858 C 18.166703,365.40157 17,363.7772 17,360.03254 c 0,-3.76909 1.669562,-6.07671 5.3429,-7.3848 2.881359,-1.02607 465.16547,-0.78515 467.87188,0.24382 5.51792,2.09791 5.28522,-1.03841 5.28522,71.23436 v 66.81852 l -2.27773,2.27778 -2.27773,2.27778 -233.22227,0.13823 C 129.45002,495.71426 23.6,495.5553 22.5,495.28499 Z m 72.427539,-16.69768 c 0.705125,-0.84962 1.052862,-3.9386 0.872445,-7.75 L 95.5,464.5 73.125914,464.23054 c -15.662696,-0.18864 -22.786808,0.0731 -23.75,0.87244 C 47.646024,466.53866 47.51025,477.11025 49.2,478.8 c 1.880789,1.88079 44.153286,1.68417 45.727539,-0.21269 z m 144.000001,0 c 0.70512,-0.84962 1.05286,-3.9386 0.87244,-7.75 L 239.5,464.5 229.146,464.21387 c -6.7762,-0.18726 -10.83639,0.11421 -11.75,0.87244 -1.74878,1.45136 -1.89969,12.01 -0.196,13.71369 1.80595,1.80595 20.20167,1.62587 21.72754,-0.21269 z m 40,0 c 0.70512,-0.84962 1.05286,-3.9386 0.87244,-7.75 L 279.5,464.5 269.146,464.21387 c -6.7762,-0.18726 -10.83639,0.11421 -11.75,0.87244 -1.74878,1.45136 -1.89969,12.01 -0.196,13.71369 1.80595,1.80595 20.20167,1.62587 21.72754,-0.21269 z M 478.8,478.8 c 1.73103,-1.73103 1.73103,-107.86897 0,-109.6 -1.79836,-1.79836 -115.70215,-1.72325 -118.1654,0.0779 -1.39404,1.01935 -1.68564,2.48131 -1.44113,7.22527 0.25763,4.99851 0.6644,6.125 2.54964,7.06086 1.23372,0.61243 3.14622,1.9308 4.25,2.92972 1.9521,1.76662 2.00689,3.03513 2.00689,46.46122 0,33.39056 0.3025,44.94751 1.2,45.84501 1.73103,1.73103 107.86897,1.73103 109.6,0 z M 386.17431,445.68555 C 384.09527,443.47251 384,442.5162 384,423.85986 c 0,-19.10189 0.0486,-19.55685 2.31445,-21.68555 C 388.59912,400.02798 389.07624,400 423.39137,400 h 34.76248 l 2.92307,2.92308 L 464,405.84615 V 424 442.15385 l -2.92308,2.92307 L 458.15385,448 H 423.25124 388.34863 Z M 159.22926,471.75 c 0.25023,-3.9875 0.27451,-7.58741 0.054,-7.9998 -0.22055,-0.41238 -2.062,0.58227 -4.09211,2.21034 -10.2349,8.20802 -26.02879,8.64415 -36.97035,1.02091 C 115.86718,465.34165 113.72968,464 113.47076,464 113.21184,464 113,467.375 113,471.5 v 7.5 h 22.88715 22.88716 z m 160.13468,1.04211 c 0.90039,-8.61443 0.49931,-8.88288 -12.12253,-8.11392 L 297,465.30212 V 472.15106 479 h 10.85754 10.85755 z M 199.18688,438.02526 c 0.29898,-17.16278 0.41601,-18.07751 2.5909,-20.25 L 204.05556,415.5 H 268 331.94444 l 2.27778,2.27526 c 2.17489,2.17249 2.29192,3.08722 2.5909,20.25 L 337.12625,456 H 344.06312 351 l 0.006,-32.75 c 0.005,-27.09741 0.264,-33.24437 1.5,-35.61431 0.82177,-1.57537 1.494,-3.03787 1.494,-3.25 C 354,384.17356 313.5,384 264,384 c -49.5,0 -90,0.17356 -90,0.38569 0,0.21213 0.67223,1.67463 1.49384,3.25 1.236,2.36994 1.4949,8.5169 1.5,35.61431 L 177,456 h 10.93688 10.93687 z m -52.15218,13.17533 c 6.57225,-6.57224 6.60652,-15.79466 0.083,-22.31824 -5.89329,-5.89328 -14.90688,-6.45492 -21.02146,-1.30983 -6.07074,5.10819 -6.84893,16.91217 -1.48849,22.57813 3.77417,3.98928 5.69473,4.70964 12.75995,4.78596 5.49688,0.0594 6.10772,-0.17669 9.66705,-3.73602 z M 239.5,440 v -7.5 l -10.354,-0.28613 c -6.7762,-0.18726 -10.83639,0.11421 -11.75,0.87244 -1.76889,1.46805 -1.89512,12.01457 -0.16452,13.74517 0.85803,0.85803 4.4213,1.14613 11.75,0.95 L 239.5,447.5 Z m 40,0 v -7.5 l -10.354,-0.28613 c -6.7762,-0.18726 -10.83639,0.11421 -11.75,0.87244 -1.76889,1.46805 -1.89512,12.01457 -0.16452,13.74517 0.85803,0.85803 4.4213,1.14613 11.75,0.95 L 279.5,447.5 Z m 39.3,6.8 c 0.66,-0.66 1.2,-3.72 1.2,-6.8 0,-3.08 -0.54,-6.14 -1.2,-6.8 -1.3094,-1.3094 -8.30252,-1.54266 -16.55,-0.55202 l -5.25,0.6306 v 6.80035 6.80034 l 3.75,0.39226 c 8.59785,0.89936 16.89588,0.68259 18.05,-0.47153 z M 160,409.14098 c 0,-3.90965 -0.50402,-7.245 -1.2,-7.94098 -1.30743,-1.30743 -30.90626,-1.71037 -40.55,-0.55202 l -5.25,0.6306 v 7.36071 c 0,4.04839 0.26652,7.36071 0.59227,7.36071 0.32575,0 1.7131,-0.88164 3.08299,-1.9592 C 120.87172,410.73986 129.63665,408 136,408 c 6.67516,0 14.89989,2.69837 19.49951,6.39741 1.64972,1.32672 3.33722,2.20349 3.75,1.94839 C 159.66228,416.09069 160,412.84852 160,409.14098 Z M 95.5,408 v -7.5 l -22.374086,-0.26946 c -15.662696,-0.18864 -22.786808,0.0731 -23.75,0.87244 -1.740308,1.44433 -1.861805,12.01113 -0.157698,13.71524 0.902065,0.90206 7.065644,1.1486 23.75,0.95 L 95.5,415.5 Z M 22.297256,335.46096 C 18.159368,333.39784 17,331.76492 17,328 c 0,-3.77944 1.156339,-5.39641 5.356652,-7.49049 L 24.5,319.44093 V 252 184.55907 l -2.143348,-1.06858 C 18.166703,181.40157 17,179.7772 17,176.03254 c 0,-3.76909 1.669562,-6.07671 5.3429,-7.3848 2.409292,-0.85796 464.90491,-0.85796 467.3142,0 3.67334,1.30809 5.3429,3.61571 5.3429,7.3848 0,3.74606 -1.17199,5.37666 -5.35665,7.45272 -1.74297,0.86471 -2.19177,2.0862 -2.40258,6.53904 -0.44532,9.40645 -0.74546,9.9757 -5.25982,9.9757 -2.18952,0 -3.98095,0.17356 -3.98095,0.38569 0,0.21213 0.67223,1.67463 1.49384,3.25 1.1051,2.11893 1.49544,6.31794 1.5,16.13575 0.006,13.06516 0.0438,13.28857 2.42553,14.37378 2.47598,1.12813 6.82818,6.61697 10.19277,12.85478 1.74431,3.23387 1.88081,5.93322 1.7952,35.5 -0.13844,47.80937 -0.19883,49.00132 -2.59235,51.1675 -1.94759,1.7626 -10.9205,1.85157 -235.2293,2.3325 -160.276325,0.34364 -233.85618,0.17507 -235.288434,-0.53904 z M 374.89702,318.62409 c 0.79938,-0.9632 1.06108,-8.08731 0.87244,-23.75 L 375.5,272.5 361.13638,272.22185 c -9.73987,-0.18861 -14.8099,0.0922 -15.75,0.87245 -1.87291,1.55437 -2.04537,43.84671 -0.18638,45.7057 1.81604,1.81604 28.17342,1.65991 29.69702,-0.17591 z m 102.31336,-1.38802 c 2.02006,-2.02185 2.26341,-3.25153 2.27577,-11.5 L 479.5,296.5 457.12591,296.23054 c -16.63606,-0.20036 -22.75618,0.0476 -23.864,0.96706 -2.20612,1.83091 -1.31337,16.98307 1.16176,19.71806 2.48815,2.74937 3.86457,2.91111 23.30056,2.73787 16.45766,-0.1467 17.32489,-0.25429 19.48615,-2.41746 z m -237.70537,-12.3329 c 0.61906,-11.95626 0.49899,-14.32774 -0.79072,-15.61746 -1.28972,-1.28971 -3.6612,-1.40978 -15.61746,-0.79072 L 209,289.22487 V 304.11244 319 h 14.88756 14.88757 z M 287,312 v -7 h -15 -15 v 7 7 h 15 15 z M 169,296 c 0,-3.23508 -0.45,-6.16008 -1,-6.5 -0.63089,-0.38991 -1,2.00929 -1,6.5 0,4.49071 0.36911,6.88991 1,6.5 0.55,-0.33992 1,-3.26492 1,-6.5 z m 22,-30.22465 c 0.48204,-20.94436 0.58181,-21.80636 2.77778,-24 L 196.05556,239.5 H 248 299.94444 l 2.27778,2.2757 c 2.21159,2.20957 2.28662,2.91429 2.58191,24.25 L 305.10825,288 H 316.05413 327 v -7.44543 c 0,-7.13011 -0.11608,-7.50108 -2.74089,-8.75911 -5.46342,-2.61855 -6.59007,-10.37599 -2.09744,-14.44177 C 324.07577,255.62145 326.55491,255.5 360,255.5 c 33.44509,0 35.92423,0.12145 37.83833,1.85369 4.49263,4.06578 3.36598,11.82322 -2.09744,14.44177 -2.62481,1.25803 -2.74089,1.629 -2.74089,8.75911 V 288 h 10.92354 10.92354 l 0.32646,-19.25 c 0.27886,-16.44352 0.59792,-19.76027 2.18841,-22.75 2.36646,-4.44834 7.34097,-9.75315 10.88805,-11.611 l 2.75,-1.44036 0.006,-13.22432 c 0.005,-9.776 0.39569,-13.9712 1.5,-16.08863 0.82177,-1.57537 1.494,-3.03787 1.494,-3.25 C 434,200.17356 371.9,200 296,200 c -75.9,0 -138,0.17356 -138,0.38569 0,0.21213 0.67223,1.67463 1.49384,3.25 1.09667,2.10277 1.49548,6.26274 1.5,15.64643 0.007,14.44596 0.88648,17.62925 6.62618,23.98241 1.98531,2.1975 4.78734,6.52445 6.22675,9.61546 2.36052,5.06904 2.61886,6.79646 2.63516,17.62001 0.01,6.6 -0.20693,12.88541 -0.48193,13.96758 -0.59324,2.3345 2.84961,3.43161 10,3.18661 L 190.5,287.5 Z M 286.8,286.8 c 1.66924,-1.66924 1.66924,-27.93076 0,-29.6 -1.30903,-1.30903 -15.57667,-1.62984 -24.55,-0.55202 l -5.25,0.6306 v 14.81299 14.813 l 6.25,0.35503 c 15.00664,0.85247 22.38186,0.70854 23.55,-0.4596 z m 192.97914,-20.56632 c 0.27458,-13.04953 0.23757,-13.30788 -2.26501,-15.81045 l -2.54414,-2.54415 -18.95962,0.31046 c -24.3297,0.39839 -23.3574,-0.28839 -23.86629,16.85804 -0.25369,8.5481 0.001,12.42262 0.88774,13.49076 1.05037,1.26562 4.7578,1.45679 23.85591,1.23008 L 479.5,279.5 Z M 238.8,270.8 c 0.66,-0.66 1.2,-3.72 1.2,-6.8 0,-3.08 -0.54,-6.14 -1.2,-6.8 -1.30903,-1.30903 -15.57667,-1.62984 -24.55,-0.55202 l -5.25,0.6306 v 6.80035 6.80034 l 3.75,0.39226 c 9.25555,0.96816 24.89337,0.6851 26.05,-0.47153 z M 111.00616,218.75 c 0.004,-8.91159 0.41327,-13.03059 1.5,-15.11431 0.82161,-1.57537 1.49384,-3.06252 1.49384,-3.30479 0,-0.24226 -2.1375,-0.30333 -4.75,-0.13569 -4.60366,0.2954 -4.76002,0.40978 -5.07514,3.71278 -0.60443,6.33537 3.99844,27.09201 6.00776,27.09201 0.44956,0 0.82015,-5.5125 0.82354,-12.25 z m 352.78744,5.65863 c 0.36901,-7.65595 -0.62142,-8.61732 -8.45923,-8.21105 L 449.5,216.5 l -0.29471,7.29471 -0.29471,7.29471 7.29471,-0.29471 L 463.5,230.5 Z M 22.297256,151.46096 C 18.159368,149.39784 17,147.76492 17,144 c 0,-3.77951 1.156603,-5.39679 5.356652,-7.49023 C 24.499528,135.44169 24.50011,135.42934 25,80.470728 L 25.5,25.5 52.487426,25 79.474853,24.5 80.730585,21.878123 C 83.228962,16.661692 83.928552,16.5 104,16.5 c 14.68009,0 19.05999,0.304899 20.40408,1.420394 3.37767,2.803218 4.59515,7.931537 4.61788,19.45173 0.017,8.592675 0.4365,12.039173 1.84152,15.127876 2.50849,5.514492 4.61282,7.178271 6.795,5.372445 3.79448,-3.140055 5.29672,-8.929347 5.31956,-20.500321 0.0227,-11.520193 1.24021,-16.648512 4.61788,-19.45173 2.4919,-2.068092 38.31626,-2.068092 40.80816,0 C 191.77318,20.7165 193,25.850711 193,37.154243 c 0,12.418278 1.05885,15.95473 6.62002,22.110289 1.98531,2.197495 4.79299,6.524451 6.23931,9.615457 2.4935,5.32902 2.64773,6.590842 2.97883,24.370011 l 0.34918,18.75 h 7.83537 7.83537 l 1.61485,-5.55488 c 0.88816,-3.05518 3.36864,-9.540246 5.51217,-14.411259 C 237.88379,78.629513 239,71.489868 239,47.164282 c 0,-21.775693 0.66038,-25.977678 4.59592,-29.243888 2.4919,-2.068092 38.31626,-2.068092 40.80816,0 3.93554,3.26621 4.59592,7.468195 4.59592,29.243888 0,21.259391 1.14376,31.148852 4.54355,39.285701 1.87116,4.47833 3.04174,4.47833 4.9129,0 C 301.85624,78.313134 303,68.423673 303,47.164282 c 0,-21.775693 0.66038,-25.977678 4.59592,-29.243888 2.4919,-2.068092 38.31626,-2.068092 40.80816,0 3.93554,3.26621 4.59592,7.468195 4.59592,29.243888 0,24.325586 1.11621,31.465231 7.0149,44.869579 2.14353,4.871013 4.62401,11.356079 5.51217,14.411259 L 367.14192,112 H 375.07096 383 V 69.122124 c 0,-35.088033 0.26202,-43.50497 1.44222,-46.329606 2.7697,-6.62882 -0.2063,-6.292518 55.6837,-6.292518 h 50.81852 l 2.27778,2.277778 2.27778,2.277778 V 68 c 0,45.62287 -0.0563,46.99976 -2,48.90917 -1.1,1.0806 -3.25706,2.27179 -4.79346,2.64709 -2.39962,0.58617 -3.32961,0.10161 -6.59639,-3.43694 L 478.30722,112 h -37.95361 c -28.18614,0 -38.26243,0.30882 -39.15361,1.2 -1.73138,1.73138 -1.63281,20.19591 0.11556,21.64693 0.89522,0.74296 15.39977,1.18148 45.39589,1.37244 41.72639,0.26564 44.1927,0.38236 46.18444,2.18562 2.86103,2.59028 2.8606,8.6004 -8.1e-4,11.19002 -2.05389,1.85881 -7.75782,1.91711 -235.30939,2.40499 -160.276325,0.34364 -233.85618,0.17507 -235.288434,-0.53904 z M 126.91369,134.604 c 0.75823,-0.91361 1.0597,-4.9738 0.87244,-11.75 L 127.5,112.5 105.12591,112.23054 C 89.463218,112.0419 82.339106,112.3036 81.375914,113.10298 79.571485,114.60052 79.422127,133.02213 81.2,134.8 c 1.866968,1.86697 44.15204,1.68567 45.71369,-0.196 z m 72.15205,0.36082 C 200.67065,134.1059 201,132.83323 201,127.4905 c 0,-6.11363 -0.14858,-6.51598 -2.9393,-7.95911 C 192.3832,116.59544 192,115.15475 192,96.745375 192,77.704241 191.69173,76.473015 184.65133,67.395145 178.61281,59.609095 176.8719,54.527307 176.12282,42.5 L 175.5,32.5 169.16269,32.200016 C 160.46703,31.788397 160,32.344572 160,43.111718 c 0,10.752704 -1.99193,16.695864 -8.30037,24.76509 -7.51873,9.617334 -7.16557,7.83974 -7.5336,37.919552 -0.24793,20.26357 -0.0232,27.67088 0.87244,28.75 0.99743,1.20182 5.61402,1.45364 26.64972,1.45364 15.62636,0 26.1896,-0.39941 27.37755,-1.03518 z M 287.29588,131.75 c 0.28759,-1.7875 0.0795,-6.58628 -0.46252,-10.66395 -0.95604,-7.19299 -2.20391,-11.09281 -8.73721,-27.305243 C 273.08767,81.35224 272,74.086353 272,53.057069 c 0,-15.048434 -0.28466,-19.048428 -1.42282,-19.993013 -0.96728,-0.802777 -3.36849,-0.960706 -7.5,-0.493278 L 257,33.258333 v 15.147068 c 0,25.205928 -1.26012,31.51992 -11.49111,57.577829 -3.09761,7.88946 -3.81381,11.12464 -4.26154,19.25 L 240.70917,135 h 23.03192 23.03191 z m 64.11028,-0.10149 c 1.3854,-7.38478 -1.34116,-18.73344 -8.84225,-36.803774 -1.97607,-4.760395 -4.09756,-11.285395 -4.71444,-14.5 -1.57699,-8.217834 -2.23951,-8.7094 -10.60598,-7.869189 l -6.96151,0.699117 -2.04423,8.280605 c -1.12433,4.554333 -3.70652,12.052534 -5.73819,16.662668 C 307.64307,109.13795 305,119.72567 305,128.15996 V 135 h 22.88871 22.88871 z M 127.79088,87.815724 c 0.34423,-9.093643 -0.7236,-12.147875 -7.13955,-20.420579 C 114.61281,59.609095 112.8719,54.527307 112.12282,42.5 L 111.5,32.5 105.16269,32.200016 C 96.467027,31.788397 96,32.344572 96,43.111718 c 0,10.752704 -1.991935,16.695864 -8.300372,24.76509 -6.128925,7.839608 -6.633989,9.044923 -7.352665,17.546856 -0.460439,5.446991 -0.282082,7.949586 0.64628,9.068194 1.099747,1.325114 4.50024,1.506786 23.894487,1.276564 L 127.5,95.5 Z M 479.5,80 V 64.5 l -38.38307,-0.262009 c -27.50021,-0.187721 -38.77063,0.05965 -39.75,0.872445 -1.83705,1.524622 -1.97495,27.881549 -0.15538,29.701111 0.91608,0.916084 10.61003,1.147763 39.75,0.95 L 479.5,95.5 Z M 335.5,44 V 32.5 l -6.33731,-0.299984 c -3.8114,-0.180417 -6.90038,0.16732 -7.75,0.872445 -1.87044,1.552329 -2.01601,19.924218 -0.17248,21.767753 0.80068,0.800678 3.54731,1.137361 7.75,0.95 L 335.5,55.5 Z m 144,-4 v -7.5 l -38.38307,-0.262009 c -27.50021,-0.187721 -38.77063,0.05965 -39.75,0.872445 -1.72772,1.43388 -1.84765,12.008845 -0.15538,13.701111 0.91608,0.916084 10.61003,1.147763 39.75,0.95 L 479.5,47.5 Z"
         id="path785" />
      <path
         style="fill:#5f646c"
         d="m 22.5,495.28499 c -3.597968,-0.88414 -5.5,-3.41472 -5.5,-7.31753 0,-3.74466 1.166703,-5.36903 5.356652,-7.45795 L 24.5,479.44093 V 424 368.55907 l -2.143348,-1.06858 C 18.166703,365.40157 17,363.7772 17,360.03254 c 0,-2.51446 0.683142,-4.3408 2.104988,-5.62755 C 21.162402,352.54305 26.518017,352.5 256.07721,352.5 h 234.86723 l 2.27778,2.27778 2.27778,2.27778 V 424 490.94444 l -2.27773,2.27778 -2.27773,2.27778 -233.22227,0.13823 C 129.45002,495.71426 23.6,495.5553 22.5,495.28499 Z m 72.427539,-16.69768 c 0.705125,-0.84962 1.052862,-3.9386 0.872445,-7.75 L 95.5,464.5 73.125914,464.23054 c -15.662696,-0.18864 -22.786808,0.0731 -23.75,0.87244 C 47.646024,466.53866 47.51025,477.11025 49.2,478.8 c 1.880789,1.88079 44.153286,1.68417 45.727539,-0.21269 z m 144.000001,0 c 0.70512,-0.84962 1.05286,-3.9386 0.87244,-7.75 L 239.5,464.5 229.146,464.21387 c -6.7762,-0.18726 -10.83639,0.11421 -11.75,0.87244 -1.74878,1.45136 -1.89969,12.01 -0.196,13.71369 1.80595,1.80595 20.20167,1.62587 21.72754,-0.21269 z M 279.5,472 v -7.5 H 268 256.5 l -0.30147,6.39467 c -0.16581,3.51707 -0.0618,7.01939 0.23125,7.78293 0.42008,1.09472 2.91542,1.32843 11.80147,1.10533 L 279.5,479.5 Z m 199.3,6.8 c 1.73103,-1.73103 1.73103,-107.86897 0,-109.6 -1.79836,-1.79836 -115.70215,-1.72325 -118.1654,0.0779 -1.39404,1.01935 -1.68564,2.48131 -1.44113,7.22527 0.25763,4.99851 0.6644,6.125 2.54964,7.06086 1.23372,0.61243 3.14622,1.9308 4.25,2.92972 1.9521,1.76662 2.00689,3.03513 2.00689,46.46122 0,33.39056 0.3025,44.94751 1.2,45.84501 1.73103,1.73103 107.86897,1.73103 109.6,0 z M 386.17431,445.68555 C 384.09527,443.47251 384,442.5162 384,423.85986 c 0,-19.10189 0.0486,-19.55685 2.31445,-21.68555 C 388.59912,400.02798 389.07624,400 423.39137,400 h 34.76248 l 2.92307,2.92308 L 464,405.84615 V 424 442.15385 l -2.92308,2.92307 L 458.15385,448 H 423.25124 388.34863 Z M 447.5,424 v -7.5 H 424 400.5 l -0.30147,6.39467 c -0.16581,3.51707 -0.0642,7.01289 0.22571,7.76849 0.43035,1.12148 4.80224,1.3245 23.80147,1.10533 L 447.5,431.5 Z m -288.27074,47.75 c 0.25023,-3.9875 0.27451,-7.58741 0.054,-7.9998 -0.22055,-0.41238 -2.062,0.58227 -4.09211,2.21034 -10.2349,8.20802 -26.02879,8.64415 -36.97035,1.02091 C 115.86718,465.34165 113.72968,464 113.47076,464 113.21184,464 113,467.375 113,471.5 v 7.5 h 22.88715 22.88716 z m 160.13468,1.04211 c 0.90039,-8.61443 0.49931,-8.88288 -12.12253,-8.11392 L 297,465.30212 V 472.15106 479 h 10.85754 10.85755 z M 199.18688,438.02526 c 0.29898,-17.16278 0.41601,-18.07751 2.5909,-20.25 L 204.05556,415.5 H 268 331.94444 l 2.27778,2.27526 c 2.17489,2.17249 2.29192,3.08722 2.5909,20.25 L 337.12625,456 H 344.06312 351 l 0.006,-32.75 c 0.005,-27.09741 0.264,-33.24437 1.5,-35.61431 0.82177,-1.57537 1.494,-3.03787 1.494,-3.25 C 354,384.17356 313.5,384 264,384 c -49.5,0 -90,0.17356 -90,0.38569 0,0.21213 0.67223,1.67463 1.49384,3.25 1.236,2.36994 1.4949,8.5169 1.5,35.61431 L 177,456 h 10.93688 10.93687 z m -52.15218,13.17533 c 6.57225,-6.57224 6.60652,-15.79466 0.083,-22.31824 -5.89329,-5.89328 -14.90688,-6.45492 -21.02146,-1.30983 -6.07074,5.10819 -6.84893,16.91217 -1.48849,22.57813 3.77417,3.98928 5.69473,4.70964 12.75995,4.78596 5.49688,0.0594 6.10772,-0.17669 9.66705,-3.73602 z M 95.5,440 v -7.5 H 72 48.5 l -0.301473,6.39467 c -0.16581,3.51707 -0.06424,7.01289 0.225711,7.76849 0.430349,1.12148 4.80224,1.3245 23.801473,1.10533 L 95.5,447.5 Z m 144,0 v -7.5 l -10.354,-0.28613 c -6.7762,-0.18726 -10.83639,0.11421 -11.75,0.87244 -1.76889,1.46805 -1.89512,12.01457 -0.16452,13.74517 0.85803,0.85803 4.4213,1.14613 11.75,0.95 L 239.5,447.5 Z m 40,0 v -7.5 H 268 256.5 l -0.30147,6.39467 c -0.16581,3.51707 -0.0618,7.01939 0.23125,7.78293 0.42008,1.09472 2.91542,1.32843 11.80147,1.10533 L 279.5,447.5 Z m 39.3,6.8 c 0.66,-0.66 1.2,-3.72 1.2,-6.8 0,-3.08 -0.54,-6.14 -1.2,-6.8 -1.3094,-1.3094 -8.30252,-1.54266 -16.55,-0.55202 l -5.25,0.6306 v 6.80035 6.80034 l 3.75,0.39226 c 8.59785,0.89936 16.89588,0.68259 18.05,-0.47153 z M 160,409.14098 c 0,-3.90965 -0.50402,-7.245 -1.2,-7.94098 -1.30743,-1.30743 -30.90626,-1.71037 -40.55,-0.55202 l -5.25,0.6306 v 7.36071 c 0,4.04839 0.26652,7.36071 0.59227,7.36071 0.32575,0 1.7131,-0.88164 3.08299,-1.9592 C 120.87172,410.73986 129.63665,408 136,408 c 6.67516,0 14.89989,2.69837 19.49951,6.39741 1.64972,1.32672 3.33722,2.20349 3.75,1.94839 C 159.66228,416.09069 160,412.84852 160,409.14098 Z M 95.5,408 v -7.5 l -22.374086,-0.26946 c -15.662696,-0.18864 -22.786808,0.0731 -23.75,0.87244 -1.740308,1.44433 -1.861805,12.01113 -0.157698,13.71524 0.902065,0.90206 7.065644,1.1486 23.75,0.95 L 95.5,415.5 Z M 22,335.29385 c -3.33047,-1.23189 -5,-3.67821 -5,-7.32639 0,-3.74466 1.166703,-5.36903 5.356652,-7.45795 L 24.5,319.44093 V 252 184.55907 l -2.143348,-1.06858 C 18.166703,181.40157 17,179.7772 17,176.03254 c 0,-2.51446 0.683142,-4.3408 2.104988,-5.62755 C 21.162398,168.54306 26.516733,168.5 256,168.5 c 229.48327,0 234.8376,0.0431 236.89501,1.90499 1.42185,1.28675 2.10499,3.11309 2.10499,5.62755 0,3.74606 -1.17199,5.37666 -5.35665,7.45272 -1.74297,0.86471 -2.19177,2.0862 -2.40258,6.53904 -0.44532,9.40645 -0.74546,9.9757 -5.25982,9.9757 -2.18952,0 -3.98095,0.17356 -3.98095,0.38569 0,0.21213 0.67223,1.67463 1.49384,3.25 1.1051,2.11893 1.49544,6.31794 1.5,16.13575 0.006,13.06516 0.0438,13.28857 2.42553,14.37378 2.47598,1.12813 6.82818,6.61697 10.19277,12.85478 1.74431,3.23387 1.88081,5.93322 1.7952,35.5 -0.13844,47.80949 -0.19883,49.00132 -2.59238,51.1675 -1.94983,1.7646 -10.6816,1.83896 -235.66991,2.00684 C 128.64027,335.77022 22.825,335.599 22,335.29385 Z M 95.5,308 V 296.5 H 72 48.5 l -0.286997,10.4324 c -0.157848,5.73781 -0.05628,11.03363 0.225711,11.76849 0.411619,1.07266 5.101578,1.28315 23.786997,1.0676 L 95.5,319.5 Z m 64.26654,7.5 c 0.4632,-6.95112 1.17127,-8.43565 5.25236,-11.01193 3.92242,-2.47612 3.9811,-2.60191 3.9811,-8.53434 0,-5.82974 -0.1121,-6.08732 -3.52584,-8.10148 C 160.63833,284.99904 160,283.3758 160,273.93176 c 0,-10.36675 -1.28202,-14.59957 -6.23853,-20.59763 -7.32889,-8.86896 -9.06559,-13.49538 -9.69783,-25.83413 L 143.5,216.5 h -7.5 -7.5 l -0.54936,10.5 c -0.63365,12.11081 -2.87884,18.16812 -9.82244,26.5 -2.29179,2.75 -4.60567,6.575 -5.14197,8.5 -1.09422,3.92767 -1.36954,56.28335 -0.30159,57.35131 0.37656,0.37655 11.06406,0.56405 23.75,0.41667 L 159.5,319.5 Z m 215.13048,3.12409 c 0.79938,-0.9632 1.06108,-8.08731 0.87244,-23.75 L 375.5,272.5 361.13638,272.22185 c -9.73987,-0.18861 -14.8099,0.0922 -15.75,0.87245 -1.87291,1.55437 -2.04537,43.84671 -0.18638,45.7057 1.81604,1.81604 28.17342,1.65991 29.69702,-0.17591 z m 102.31336,-1.38802 c 2.02006,-2.02185 2.26341,-3.25153 2.27577,-11.5 L 479.5,296.5 457.12591,296.23054 c -16.63606,-0.20036 -22.75618,0.0476 -23.864,0.96706 -2.20612,1.83091 -1.31337,16.98307 1.16176,19.71806 2.48815,2.74937 3.86457,2.91111 23.30056,2.73787 16.45766,-0.1467 17.32489,-0.25429 19.48615,-2.41746 z m -237.70537,-12.3329 c 0.61906,-11.95626 0.49899,-14.32774 -0.79072,-15.61746 -1.28972,-1.28971 -3.6612,-1.40978 -15.61746,-0.79072 L 209,289.22487 V 304.11244 319 h 14.88756 14.88757 z M 287,312 v -7 h -15 -15 v 7 7 h 15 15 z m -96,-46.22465 c 0.48204,-20.94436 0.58181,-21.80636 2.77778,-24 L 196.05556,239.5 H 248 299.94444 l 2.27778,2.2757 c 2.21159,2.20957 2.28662,2.91429 2.58191,24.25 L 305.10825,288 H 316.05413 327 v -7.44543 c 0,-7.13011 -0.11608,-7.50108 -2.74089,-8.75911 -5.46342,-2.61855 -6.59007,-10.37599 -2.09744,-14.44177 C 324.07577,255.62145 326.55491,255.5 360,255.5 c 33.44509,0 35.92423,0.12145 37.83833,1.85369 4.49263,4.06578 3.36598,11.82322 -2.09744,14.44177 -2.62481,1.25803 -2.74089,1.629 -2.74089,8.75911 V 288 h 10.92354 10.92354 l 0.32646,-19.25 c 0.27886,-16.44352 0.59792,-19.76027 2.18841,-22.75 2.36646,-4.44834 7.34097,-9.75315 10.88805,-11.611 l 2.75,-1.44036 0.006,-13.22432 c 0.005,-9.776 0.39569,-13.9712 1.5,-16.08863 0.82177,-1.57537 1.494,-3.03787 1.494,-3.25 C 434,200.17356 371.9,200 296,200 c -75.9,0 -138,0.17356 -138,0.38569 0,0.21213 0.67223,1.67463 1.49384,3.25 1.09667,2.10277 1.49548,6.26274 1.5,15.64643 0.007,14.44596 0.88648,17.62925 6.62618,23.98241 1.98531,2.1975 4.78734,6.52445 6.22675,9.61546 2.36052,5.06904 2.61886,6.79646 2.63516,17.62001 0.01,6.6 -0.20693,12.88541 -0.48193,13.96758 -0.59324,2.3345 2.84961,3.43161 10,3.18661 L 190.5,287.5 Z M 286.8,286.8 c 1.66924,-1.66924 1.66924,-27.93076 0,-29.6 -1.30903,-1.30903 -15.57667,-1.62984 -24.55,-0.55202 l -5.25,0.6306 v 14.81299 14.813 l 6.25,0.35503 c 15.00664,0.85247 22.38186,0.70854 23.55,-0.4596 z M 95.806978,273 c 0.407077,-8.61949 -1.167163,-13.7624 -6.004535,-19.61629 -7.371752,-8.92083 -9.105767,-13.52949 -9.7388,-25.88371 L 79.5,216.5 H 72 64.5 L 63.950635,227 c -0.633642,12.11081 -2.878832,18.16812 -9.822433,26.5 -2.291787,2.75 -4.605672,6.575 -5.141967,8.5 -1.114732,4.00127 -1.328919,16.32398 -0.301592,17.35131 0.376554,0.37655 11.064054,0.56405 23.75,0.41667 L 95.5,279.5 Z m 383.972162,-6.76632 c 0.27458,-13.04953 0.23757,-13.30788 -2.26501,-15.81045 l -2.54414,-2.54415 -18.95962,0.31046 c -24.3297,0.39839 -23.3574,-0.28839 -23.86629,16.85804 -0.25369,8.5481 0.001,12.42262 0.88774,13.49076 1.05037,1.26562 4.7578,1.45679 23.85591,1.23008 L 479.5,279.5 Z M 238.8,270.8 c 0.66,-0.66 1.2,-3.72 1.2,-6.8 0,-3.08 -0.54,-6.14 -1.2,-6.8 -1.30903,-1.30903 -15.57667,-1.62984 -24.55,-0.55202 l -5.25,0.6306 v 6.80035 6.80034 l 3.75,0.39226 c 9.25555,0.96816 24.89337,0.6851 26.05,-0.47153 z M 111.00616,218.75 c 0.004,-8.91159 0.41327,-13.03059 1.5,-15.11431 0.82161,-1.57537 1.49384,-3.06252 1.49384,-3.30479 0,-0.24226 -2.1375,-0.30333 -4.75,-0.13569 -4.60366,0.2954 -4.76002,0.40978 -5.07514,3.71278 -0.60443,6.33537 3.99844,27.09201 6.00776,27.09201 0.44956,0 0.82015,-5.5125 0.82354,-12.25 z m 352.78744,5.65863 c 0.36901,-7.65595 -0.62142,-8.61732 -8.45923,-8.21105 L 449.5,216.5 l -0.29471,7.29471 -0.29471,7.29471 7.29471,-0.29471 L 463.5,230.5 Z M 22,151.29385 c -3.33047,-1.23189 -5,-3.67821 -5,-7.32639 0,-3.74473 1.166968,-5.36942 5.356652,-7.45769 C 24.499528,135.44169 24.50011,135.42934 25,80.470728 L 25.5,25.5 52.487426,25 79.474853,24.5 80.730585,21.878123 C 83.228962,16.661692 83.928552,16.5 104,16.5 c 14.68009,0 19.05999,0.304899 20.40408,1.420394 3.37767,2.803218 4.59515,7.931537 4.61788,19.45173 0.017,8.592675 0.4365,12.039173 1.84152,15.127876 2.50849,5.514492 4.61282,7.178271 6.795,5.372445 3.79448,-3.140055 5.29672,-8.929347 5.31956,-20.500321 0.0227,-11.520193 1.24021,-16.648512 4.61788,-19.45173 2.4919,-2.068092 38.31626,-2.068092 40.80816,0 C 191.77318,20.7165 193,25.850711 193,37.154243 c 0,12.418278 1.05885,15.95473 6.62002,22.110289 1.98531,2.197495 4.79299,6.524451 6.23931,9.615457 2.4935,5.32902 2.64773,6.590842 2.97883,24.370011 l 0.34918,18.75 h 7.83537 7.83537 l 1.61485,-5.55488 c 0.88816,-3.05518 3.36864,-9.540246 5.51217,-14.411259 C 237.88379,78.629513 239,71.489868 239,47.164282 c 0,-21.775693 0.66038,-25.977678 4.59592,-29.243888 2.4919,-2.068092 38.31626,-2.068092 40.80816,0 3.93554,3.26621 4.59592,7.468195 4.59592,29.243888 0,21.259391 1.14376,31.148852 4.54355,39.285701 1.87116,4.47833 3.04174,4.47833 4.9129,0 C 301.85624,78.313134 303,68.423673 303,47.164282 c 0,-21.775693 0.66038,-25.977678 4.59592,-29.243888 2.4919,-2.068092 38.31626,-2.068092 40.80816,0 3.93554,3.26621 4.59592,7.468195 4.59592,29.243888 0,24.325586 1.11621,31.465231 7.0149,44.869579 2.14353,4.871013 4.62401,11.356079 5.51217,14.411259 L 367.14192,112 H 375.07096 383 V 69.122124 c 0,-35.088033 0.26202,-43.50497 1.44222,-46.329606 2.7697,-6.62882 -0.2063,-6.292518 55.6837,-6.292518 h 50.81852 l 2.27778,2.277778 2.27778,2.277778 V 68 c 0,45.62287 -0.0563,46.99976 -2,48.90917 -1.1,1.0806 -3.25706,2.27179 -4.79346,2.64709 -2.39962,0.58617 -3.32961,0.10161 -6.59639,-3.43694 L 478.30722,112 h -37.95361 c -28.18614,0 -38.26243,0.30882 -39.15361,1.2 -1.73138,1.73138 -1.63281,20.19591 0.11556,21.64693 0.89522,0.74296 15.39977,1.18148 45.39589,1.37244 41.72639,0.26564 44.1927,0.38236 46.18444,2.18562 2.86105,2.59029 2.8606,8.60041 -8.4e-4,11.19002 -2.05613,1.86082 -7.52234,1.90903 -235.75,2.07933 C 128.64027,151.77022 22.825,151.599 22,151.29385 Z M 126.91369,134.604 c 0.75823,-0.91361 1.0597,-4.9738 0.87244,-11.75 L 127.5,112.5 105.12591,112.23054 C 89.463218,112.0419 82.339106,112.3036 81.375914,113.10298 79.571485,114.60052 79.422127,133.02213 81.2,134.8 c 1.866968,1.86697 44.15204,1.68567 45.71369,-0.196 z m 72.15205,0.36082 C 200.67065,134.1059 201,132.83323 201,127.4905 c 0,-6.11363 -0.14858,-6.51598 -2.9393,-7.95911 C 192.3832,116.59544 192,115.15475 192,96.745375 192,77.704241 191.69173,76.473015 184.65133,67.395145 178.61281,59.609095 176.8719,54.527307 176.12282,42.5 L 175.5,32.5 169.16269,32.200016 C 160.46703,31.788397 160,32.344572 160,43.111718 c 0,10.752704 -1.99193,16.695864 -8.30037,24.76509 -7.51873,9.617334 -7.16557,7.83974 -7.5336,37.919552 -0.24793,20.26357 -0.0232,27.67088 0.87244,28.75 0.99743,1.20182 5.61402,1.45364 26.64972,1.45364 15.62636,0 26.1896,-0.39941 27.37755,-1.03518 z M 287.29588,131.75 c 0.28759,-1.7875 0.0795,-6.58628 -0.46252,-10.66395 -0.95604,-7.19299 -2.20391,-11.09281 -8.73721,-27.305243 C 273.08767,81.35224 272,74.086353 272,53.057069 c 0,-15.048434 -0.28466,-19.048428 -1.42282,-19.993013 -0.96728,-0.802777 -3.36849,-0.960706 -7.5,-0.493278 L 257,33.258333 v 15.147068 c 0,25.205928 -1.26012,31.51992 -11.49111,57.577829 -3.09761,7.88946 -3.81381,11.12464 -4.26154,19.25 L 240.70917,135 h 23.03192 23.03191 z m 64.11028,-0.10149 c 1.3854,-7.38478 -1.34116,-18.73344 -8.84225,-36.803774 -1.97607,-4.760395 -4.09756,-11.285395 -4.71444,-14.5 -1.57699,-8.217834 -2.23951,-8.7094 -10.60598,-7.869189 l -6.96151,0.699117 -2.04423,8.280605 c -1.12433,4.554333 -3.70652,12.052534 -5.73819,16.662668 C 307.64307,109.13795 305,119.72567 305,128.15996 V 135 h 22.88871 22.88871 z M 127.79088,87.815724 c 0.34423,-9.093643 -0.7236,-12.147875 -7.13955,-20.420579 C 114.61281,59.609095 112.8719,54.527307 112.12282,42.5 L 111.5,32.5 105.16269,32.200016 C 96.467027,31.788397 96,32.344572 96,43.111718 c 0,10.752704 -1.991935,16.695864 -8.300372,24.76509 -6.128925,7.839608 -6.633989,9.044923 -7.352665,17.546856 -0.460439,5.446991 -0.282082,7.949586 0.64628,9.068194 1.099747,1.325114 4.50024,1.506786 23.894487,1.276564 L 127.5,95.5 Z M 479.5,80 V 64.5 H 440 400.5 l -0.2787,14.454015 c -0.15329,7.949708 -0.0529,15.042442 0.22308,15.761631 0.40381,1.052319 8.17019,1.256536 39.7787,1.045986 L 479.5,95.5 Z M 335.5,44 V 32.5 l -6.33731,-0.299984 c -3.8114,-0.180417 -6.90038,0.16732 -7.75,0.872445 -1.87044,1.552329 -2.01601,19.924218 -0.17248,21.767753 0.80068,0.800678 3.54731,1.137361 7.75,0.95 L 335.5,55.5 Z m 144,-4 v -7.5 l -38.38307,-0.262009 c -27.50021,-0.187721 -38.77063,0.05965 -39.75,0.872445 -1.72772,1.43388 -1.84765,12.008845 -0.15538,13.701111 0.91608,0.916084 10.61003,1.147763 39.75,0.95 L 479.5,47.5 Z"
         id="path783" />
      <path
         style="fill:#313131"
         d="m 21.747967,493.83704 c -2.984926,-1.09012 -4.335668,-4.35932 -3.377874,-8.17547 C 18.976919,483.24378 24.241081,480.33482 29,479.78752 L 31.5,479.5 32,434.16272 32.5,388.82544 35.305764,386.41272 38.111527,384 h 65.367513 65.36751 l 3.07672,2.58889 3.07673,2.5889 0.11813,31.6611 c 0.065,17.41361 0.40248,37.73611 0.75,45.16111 l 0.63187,13.5 10.9145,0.2855 c 6.00297,0.15703 11.26642,-0.068 11.69654,-0.5 0.43012,-0.43202 1.08792,-13.6105 1.46179,-29.2855 0.63944,-26.80913 0.80127,-28.63349 2.72778,-30.75 L 205.34863,417 H 268 330.65137 l 2.04802,2.25 c 1.92651,2.11651 2.08834,3.94087 2.72778,30.75 0.37387,15.675 1.03781,28.85961 1.47542,29.29913 0.43762,0.43952 3.90106,0.66452 7.69654,0.5 L 351.5,479.5 352.13187,466 c 0.34752,-7.425 0.68502,-27.70906 0.75,-45.07569 L 353,389.34863 l 2.31445,-2.17432 c 2.85359,-2.68081 5.73216,-2.7667 8.82477,-0.26331 L 366.5,388.82199 367,434.661 367.5,480.5 H 424 480.5 V 424 367.5 l -226.73721,0.40764 c -217.568534,0.39116 -226.900346,0.33408 -230.771499,-1.41157 -6.030008,-2.71915 -6.880522,-9.85862 -1.468215,-12.32463 3.649001,-1.6626 465.232244,-1.69568 468.880094,-0.0336 1.3735,0.62581 2.96968,2.49296 3.54705,4.14922 1.46748,4.20959 1.44617,127.27741 -0.0228,131.49118 -0.7165,2.05537 -2.09385,3.43272 -4.14922,4.14922 -4.161,1.45053 -464.054172,1.36168 -468.030273,-0.0904 z M 96.5,472 v -8.5 H 72 47.5 l -0.296967,7.40642 c -0.163331,4.07352 -0.06188,8.01905 0.225459,8.76783 0.424863,1.10717 5.055677,1.3114 24.796967,1.09358 L 96.5,480.5 Z m 62.92857,7.42857 C 160.57628,478.28086 161,475.84563 161,470.39719 c 0,-8.72566 -1.42975,-10.237 -5.8097,-6.14125 -4.43084,4.14334 -9.2913,6.04093 -16.6903,6.51613 -8.64738,0.55537 -13.83264,-0.78527 -20.56801,-5.31784 -2.86665,-1.92911 -5.47935,-3.24021 -5.806,-2.91355 -0.32666,0.32665 -0.75891,3.86121 -0.96057,7.85458 C 110.61106,481.37313 109.73725,481 136,481 c 18.5368,0 22.09586,-0.23872 23.42857,-1.57143 z M 240.5,472 v -8.5 H 228 215.5 l -0.29697,7.40642 c -0.16333,4.07352 -0.0596,8.02494 0.23049,8.78093 0.41617,1.08452 3.1161,1.31525 12.79697,1.09359 L 240.5,480.5 Z m 39.3,7.8 c 0.69091,-0.69091 1.2,-4 1.2,-7.8 0,-3.8 -0.50909,-7.10909 -1.2,-7.8 -1.64564,-1.64564 -21.95436,-1.64564 -23.6,0 -1.58053,1.58053 -1.58053,14.01947 0,15.6 0.78239,0.78239 4.88889,1.2 11.8,1.2 6.91111,0 11.01761,-0.41761 11.8,-1.2 z m 39.62857,-0.37143 C 321.34841,477.50873 321.62842,466.02842 319.8,464.2 319.02309,463.42309 314.99365,463 308.37143,463 295.85774,463 295,463.57732 295,472 c 0,8.37718 0.89963,9 13,9 7.62771,0 10.21256,-0.35542 11.42857,-1.57143 z M 144.03399,454.75 c 11.64952,-5.87993 11.90802,-22.97123 0.44563,-29.46317 -16.36887,-9.27081 -33.55594,11.30622 -21.19889,25.38012 5.78501,6.58877 12.9831,8.00494 20.75326,4.08305 z M 96.5,440 v -8.5 L 73.339639,431.23179 C 46.290135,430.91854 47,430.68223 47,440 c 0,9.31777 -0.709865,9.08146 26.339639,8.76821 L 96.5,448.5 Z m 144,0 v -8.5 H 228 215.5 l -0.29697,7.40642 c -0.16333,4.07352 -0.0596,8.02494 0.23049,8.78093 0.41617,1.08452 3.1161,1.31525 12.79697,1.09359 L 240.5,448.5 Z m 39.3,7.8 c 0.69091,-0.69091 1.2,-4 1.2,-7.8 0,-3.8 -0.50909,-7.10909 -1.2,-7.8 -1.64564,-1.64564 -21.95436,-1.64564 -23.6,0 -1.58053,1.58053 -1.58053,14.01947 0,15.6 0.78239,0.78239 4.88889,1.2 11.8,1.2 6.91111,0 11.01761,-0.41761 11.8,-1.2 z m 40,0 c 0.69091,-0.69091 1.2,-4 1.2,-7.8 0,-3.8 -0.50909,-7.10909 -1.2,-7.8 -0.77691,-0.77691 -4.80635,-1.2 -11.42857,-1.2 C 295.85774,431 295,431.57732 295,440 c 0,8.42268 0.85774,9 13.37143,9 6.62222,0 10.65166,-0.42309 11.42857,-1.2 z M 116.46216,415.46106 c 11.22779,-8.56385 29.42869,-8.20282 39.23696,0.7783 3.92713,3.59596 5.30088,1.77981 5.30088,-7.00798 0,-4.75774 -0.47097,-8.30235 -1.2,-9.03138 -0.86135,-0.86135 -7.47302,-1.2 -23.42857,-1.2 -25.8912,0 -25.37942,-0.17804 -25.35778,8.82143 0.0134,5.55451 0.77189,10.17857 1.6697,10.17857 0.24755,0 1.94802,-1.14252 3.77881,-2.53894 z M 96.5,408 v -8.5 H 72 47.5 l -0.296967,7.40642 c -0.163331,4.07352 -0.06188,8.01905 0.225459,8.76783 0.424863,1.10717 5.055677,1.3114 24.796967,1.09358 L 96.5,416.5 Z m 290.99195,36.58286 C 385.01968,442.11059 385,441.94805 385,424 c 0,-17.94805 0.0197,-18.11059 2.49195,-20.58286 l 2.49195,-2.49195 34.47349,0.28741 c 31.53412,0.26289 34.62564,0.43966 36.25805,2.07311 1.587,1.58803 1.78456,3.88118 1.78456,20.71429 0,16.83311 -0.19756,19.12626 -1.78456,20.71429 -1.63241,1.63345 -4.72393,1.81022 -36.25805,2.07311 l -34.47349,0.28741 z M 448.5,424 v -8.5 l -23.16036,-0.26821 C 398.29013,414.91854 399,414.68223 399,424 c 0,9.31777 -0.70987,9.08146 26.33964,8.76821 L 448.5,432.5 Z M 21.228264,333.76981 c -2.549523,-1.22871 -3.738362,-4.60128 -2.858171,-8.10824 0.606826,-2.41779 5.870988,-5.32675 10.629907,-5.87405 l 2.5,-0.28752 0.546558,-30 c 0.617296,-33.88267 0.794929,-34.82493 8.418311,-44.65504 C 47.788436,235.40145 48,234.68907 48,219.47274 V 205.84615 L 50.923077,202.92308 53.846154,200 H 72 90.153846 l 2.923077,2.92308 L 96,205.84615 v 13.61676 c 0,11.64759 0.28597,14.15331 1.977477,17.32693 5.206983,9.76939 6.964113,9.62841 12.546613,-1.0066 C 112.7882,231.46999 113,229.95915 113,218.12214 v -12.94435 l 3.07673,-2.5889 C 119.12028,200.02791 119.33505,200 136,200 c 16.66495,0 16.87972,0.0279 19.92327,2.58889 l 3.07673,2.5889 0.0439,13.1611 c 0.0506,15.18705 0.89653,18.35973 6.74381,25.29435 6.90689,8.19126 8.57871,13.12151 9.03043,26.6309 0.32284,9.65508 0.10135,12.2098 -1.23544,14.25 -2.18147,3.32934 -6.81579,3.34367 -10.12814,0.0313 -2.25,-2.24999 -2.45638,-3.2292 -2.47651,-11.75 -0.0253,-10.70744 -1.3481,-14.47533 -7.80999,-22.2461 -5.52277,-6.6414 -7.29455,-12.0507 -8.04098,-24.54934 L 144.5,215.5 l -7,-0.25717 c -3.85,-0.14144 -7.675,0.17925 -8.5,0.71264 -1.11303,0.71962 -1.65185,3.75274 -2.08862,11.75717 -0.67375,12.34749 -2.21952,16.52286 -9.32161,25.17904 -2.49917,3.04603 -4.89486,7.26288 -5.50673,9.69282 C 111.44649,265.11245 111,277.39241 111,292.37139 c 0,21.83553 0.22507,25.71082 1.57143,27.05718 C 113.90414,320.76128 117.4632,321 136,321 c 24.66239,0 25,-0.0961 25,-7.11688 0,-4.9149 3.48418,-8.88312 7.79956,-8.88312 4.10149,0 6.56335,3.19984 7.1805,9.33295 L 176.5,319.5 l 6.90087,0.29913 c 3.79548,0.16452 7.25345,-0.0605 7.68437,-0.5 0.43093,-0.43952 1.09337,-17.22413 1.47211,-37.29913 0.65837,-34.8979 0.77864,-36.59876 2.73994,-38.75 L 197.34863,241 H 248 298.65137 l 2.05134,2.25 c 1.9613,2.15124 2.08157,3.8521 2.73994,38.75 0.37874,20.075 1.03505,36.85348 1.45848,37.2855 0.42343,0.43203 5.6814,0.65703 11.68437,0.5 L 327.5,319.5 l 0.74901,-23 0.74901,-23 -3.99901,-3.33294 c -4.71648,-3.9309 -5.28091,-7.61415 -1.68456,-10.99275 2.284,-2.1457 2.7685,-2.17431 36.82569,-2.17431 h 34.51123 l 2.17432,2.31445 c 3.3801,3.59796 2.80977,6.99006 -1.8247,10.85261 l -3.99901,3.33294 0.74901,23 0.74901,23 h 11.75027 11.75026 l 0.51298,-33 c 0.31391,-20.19387 0.96446,-34.71401 1.6764,-37.41682 1.16272,-4.41413 6.28002,-10.48753 12.11616,-14.37986 L 433,232.90663 v -13.86442 -13.86442 l 3.07673,-2.5889 C 439.12028,200.02791 439.33505,200 456,200 c 16.66495,0 16.87972,0.0279 19.92327,2.58889 L 479,205.17779 v 13.86442 c 0,13.84 0.005,13.86758 2.62381,15.66111 4.15412,2.84457 8.34014,7.45971 10.69984,11.79668 2.10978,3.87765 2.17391,4.96347 2.09672,35.5 -0.0664,26.25795 -0.60391,47.39604 -1.27377,50.08948 -0.69912,2.81116 -8.90895,2.90945 -237.44365,2.84284 -166.032701,-0.0484 -232.850321,-0.37967 -234.474686,-1.16251 z m 74.232093,-14.37302 c 1.316786,-1.31679 1.552871,-3.59469 1.321429,-12.75 L 96.5,295.5 73.339639,295.23179 c -20.071752,-0.23244 -23.372352,-0.0562 -24.75,1.32143 -2.285042,2.28504 -2.299617,20.59394 -0.01821,22.87535 2.373877,2.37388 44.51183,2.34531 46.888928,-0.0318 z m 143.968213,0.0318 c 1.28132,-1.28131 1.57143,-4.19827 1.57143,-15.8 0,-9.73333 -0.37912,-14.60769 -1.2,-15.42857 -0.82088,-0.82088 -5.69524,-1.2 -15.42857,-1.2 -11.60173,0 -14.51869,0.29011 -15.8,1.57143 -2.31012,2.31012 -2.31012,28.54702 0,30.85714 C 209.8488,320.70594 212.73593,321 224,321 c 11.26407,0 14.1512,-0.29406 15.42857,-1.57143 z m 48,0 c 1.82451,-1.82451 2.17965,-11.42358 0.53625,-14.49431 C 287.01497,303.15945 285.74311,303 272.53624,303 255.37307,303 255,303.19147 255,312 c 0,8.7688 0.43671,9 17,9 11.26407,0 14.1512,-0.29406 15.42857,-1.57143 z M 376.5,296 V 271.5 H 360 343.5 l -0.26899,23.47931 c -0.14795,12.91362 -0.0453,24.06232 0.22816,24.77488 0.38498,1.00326 4.16839,1.23354 16.76899,1.02069 L 376.5,320.5 Z m 101.61362,22.04023 c 2.92601,-2.92601 2.9565,-3.07146 2.67308,-12.75 L 480.5,295.5 H 456 431.5 l -0.2867,9.79023 c -0.28342,9.67854 -0.25293,9.82399 2.67308,12.75 L 436.84615,321 H 456 475.15385 Z M 287.8,287.8 c 1.67494,-1.67494 1.67494,-29.92506 0,-31.6 -0.82088,-0.82088 -5.69524,-1.2 -15.42857,-1.2 -11.60173,0 -14.51869,0.29011 -15.8,1.57143 C 255.29406,257.8488 255,260.73593 255,272 c 0,11.26407 0.29406,14.1512 1.57143,15.42857 1.28131,1.28132 4.19827,1.57143 15.8,1.57143 9.73333,0 14.60769,-0.37912 15.42857,-1.2 z M 96.796286,272.51546 c 0.36054,-9.7161 -1.065238,-13.93135 -7.267126,-21.48494 C 83.616544,243.82925 81.883535,238.66647 81.127075,226 L 80.5,215.5 l -7,-0.25717 c -3.85,-0.14144 -7.675,0.17925 -8.5,0.71264 -1.113029,0.71962 -1.651852,3.75274 -2.088618,11.75717 -0.673748,12.34749 -2.219526,16.52286 -9.321617,25.17904 C 48.729651,258.81528 47,263.92823 47,272.37139 c 0,8.88831 -0.564394,8.70838 26.339639,8.39682 L 96.5,280.5 Z m 383.982244,-5.81385 0.27854,-13.79839 -2.95161,-2.95161 L 475.15385,247 H 456 436.84615 l -2.92307,2.92308 L 431,252.84615 v 13.41026 c 0,7.37564 0.30781,13.71807 0.68403,14.09428 0.37621,0.37622 11.51371,0.56372 24.75,0.41667 L 480.5,280.5 Z M 239.8,271.8 c 0.69091,-0.69091 1.2,-4 1.2,-7.8 0,-3.8 -0.50909,-7.10909 -1.2,-7.8 -0.82088,-0.82088 -5.69524,-1.2 -15.42857,-1.2 C 207.39266,255 207,255.20343 207,264 c 0,8.79657 0.39266,9 17.37143,9 9.73333,0 14.60769,-0.37912 15.42857,-1.2 z m 223.26574,-39.83518 c 1.61971,-0.86685 1.93426,-2.13528 1.93426,-7.8 0,-3.92819 -0.50318,-7.268 -1.2,-7.96482 -0.69682,-0.69682 -4.03663,-1.2 -7.96482,-1.2 -8.00611,0 -8.83518,0.87858 -8.83518,9.36283 0,7.18192 1.45525,8.63717 8.63717,8.63717 3.02187,0 6.36473,-0.46583 7.42857,-1.03518 z M 22.219944,182.24038 c -5.280892,-2.62704 -5.694591,-9.79183 -0.696868,-12.06894 3.714788,-1.69257 465.239064,-1.69257 468.953844,0 5.15347,2.34808 4.57751,9.47845 -0.97968,12.12849 -3.32469,1.58543 -19.0892,1.69576 -233.78117,1.63612 -210.808697,-0.0586 -230.492581,-0.20151 -233.496126,-1.69567 z m -0.99168,-32.47057 c -2.547001,-1.2275 -3.738523,-4.60064 -2.860649,-8.09837 C 19.456503,137.33297 23.05352,136.53709 44,136 l 19.5,-0.5 0.546558,-30 C 64.663201,71.653166 64.852616,70.643871 72.395711,61.011664 79.546781,51.880056 80,50.483732 80,37.583587 c 0,-12.738212 1.399105,-17.53314 5.685886,-19.486329 3.102542,-1.413612 31.998924,-1.451697 36.027054,-0.04748 4.33635,1.51166 5.28634,4.607438 5.29264,17.247278 0.007,13.481035 1.05747,17.736426 5.5675,22.547372 L 136,61.5 l 3.42692,-3.655575 c 4.51003,-4.810946 5.56079,-9.066337 5.5675,-22.547372 0.006,-12.148669 0.90887,-15.476328 4.6629,-17.186781 3.12995,-1.426099 31.9993,-1.474538 36.05562,-0.0605 4.35862,1.519423 5.28161,4.592165 5.33095,17.747278 0.0511,13.612223 1.02469,17.053561 6.74381,23.836189 7.98831,9.473776 8.66988,12.144923 9.0323,35.398423 0.30799,19.761538 0.24165,20.602568 -1.7686,22.421828 -1.73037,1.56595 -2.72435,1.73204 -5.79517,0.96833 -5.66196,-1.40812 -6.22458,-3.45471 -6.24149,-22.703942 C 192.99831,77.007493 192.57452,75.206697 186.49183,68 180.08981,60.414958 177.92001,54.418593 177.16439,42.223133 L 176.5,31.5 h -8.5 -8.5 l -0.62842,11 c -0.72514,12.693112 -2.23631,16.914475 -9.25802,25.861738 -2.53013,3.223955 -5.07506,7.498955 -5.65542,9.5 -0.66159,2.281183 -0.94383,13.895816 -0.75666,31.138262 l 0.29852,27.5 24,0.24785 c 13.2,0.13631 31.2,-0.0887 40,-0.5 l 16,-0.74785 0.76937,-9.5 c 0.82796,-10.22346 3.51001,-19.62198 9.90846,-34.721484 C 239.90387,77.765789 241,70.403931 241,45.459085 c 0,-22.703617 0.46582,-25.439038 4.65732,-27.348813 3.12995,-1.426099 31.9993,-1.474538 36.05562,-0.0605 C 286.54432,19.734 287,22.088106 287,45.363391 c 0,23.111452 0.71445,29.341164 4.6317,40.386606 3.46723,9.7765 5.2631,9.7765 8.75458,0 3.78003,-10.584498 4.59774,-17.854608 4.60617,-40.952947 0.008,-22.008075 0.49365,-24.786246 4.66487,-26.686781 3.12995,-1.426099 31.9993,-1.474538 36.05562,-0.0605 4.8343,1.685248 5.28706,4.032433 5.28706,27.40931 0,25.128151 1.09406,32.336975 7.00868,46.180536 6.18409,14.474285 8.83802,23.869845 9.70563,34.360375 l 0.78569,9.5 h 7.5 7.5 l 0.63187,-13.5 c 0.34752,-7.425 0.68502,-32.491322 0.75,-55.702943 0.0799,-28.558662 0.47708,-42.990762 1.2284,-44.639728 0.61065,-1.34023 2.20683,-2.936404 3.54705,-3.547053 3.32945,-1.516999 95.77755,-1.551841 100.12092,-0.03773 2.05537,0.716505 3.43272,2.093856 4.14922,4.149223 1.47333,4.226386 1.47333,87.330091 0,91.556481 -2.05319,5.8898 -9.41599,6.0453 -12.40663,0.26204 l -1.5839,-3.06291 -40.21846,0.26131 L 399.5,111.5 v 12.5 12.5 l 45,0.5 c 24.75,0.275 45.79138,0.88714 46.75863,1.3603 3.93146,1.92322 3.41106,9.55791 -0.78171,11.46826 -3.5627,1.62328 -465.878616,1.56539 -469.248656,-0.0588 z M 128.5,124 V 111.5 H 104 79.5 l -0.284517,11.43886 c -0.156485,6.29137 -0.05503,12.03689 0.225458,12.76783 0.408736,1.06515 5.32899,1.27581 24.784519,1.06114 L 128.5,136.5 Z m 159.06047,11.29667 c 1.44992,-1.44991 1.60674,-2.95992 1.05409,-10.14969 -0.64322,-8.36801 -3.33384,-17.60409 -8.9459,-30.708477 C 274.44742,82.246667 273.73251,77.850118 273.25568,55 272.99453,42.485069 272.37827,32.977612 271.78107,32.25 270.22852,30.358422 258.53736,30.605493 256.57143,32.571429 255.24885,33.894012 255,37.273337 255,53.911466 c 0,22.510941 -1.05632,28.45569 -7.90432,44.483898 -4.71584,11.037726 -6.70062,18.605916 -7.43291,28.342416 C 238.85973,137.41505 237.87542,137 264,137 c 19.25484,0 22.05994,-0.2028 23.56047,-1.70333 z m 64,0 c 1.44992,-1.44991 1.60674,-2.95992 1.05409,-10.14969 -0.64559,-8.39892 -3.32171,-17.56367 -9.0218,-30.896392 -1.46948,-3.437177 -3.36462,-9.287177 -4.21142,-13 C 338.53454,77.537765 337.49347,73.825 337.06786,73 c -0.84993,-1.647476 -9.33468,-2.542938 -14.65914,-1.547093 -2.94611,0.551016 -3.18906,0.974226 -5.1732,9.011385 -1.14505,4.638269 -3.88243,12.64746 -6.08307,17.798202 -4.77117,11.167236 -6.75528,18.710706 -7.48968,28.475286 C 302.85973,137.41505 301.87542,137 328,137 c 19.25484,0 22.05994,-0.2028 23.56047,-1.70333 z M 128.81419,88.5 c 0.39467,-10.049407 -0.69624,-13.725812 -5.93468,-20 -6.81904,-8.167306 -8.95022,-13.931581 -9.71512,-26.276867 L 112.5,31.5 H 104 95.5 l -0.636973,11 c -0.730634,12.617432 -2.040248,16.430807 -8.4855,24.708337 -2.444621,3.139586 -5.104636,7.287633 -5.911146,9.217882 -1.492394,3.571803 -2.08341,18.623418 -0.782353,19.924475 0.376215,0.376215 11.513715,0.563715 24.750002,0.416667 L 128.5,96.5 Z M 479.8,95.8 c 1.67494,-1.674942 1.67494,-29.925058 0,-31.6 -1.72291,-1.722914 -77.87709,-1.722914 -79.6,0 -0.82374,0.823744 -1.2,5.777778 -1.2,15.8 0,10.022222 0.37626,14.976256 1.2,15.8 1.72291,1.722914 77.87709,1.722914 79.6,0 z M 336.5,44 V 31.5 h -8.5 -8.5 l -0.28452,11.438857 c -0.15648,6.291372 -0.0511,12.047185 0.23423,12.790697 0.39101,1.018936 2.55428,1.280253 8.78452,1.061143 L 336.5,56.5 Z m 144,-4 V 31.5 H 440 399.5 l -0.29697,7.406415 c -0.16333,4.073529 -0.063,8.016144 0.22298,8.761368 0.42785,1.114952 7.65415,1.308657 40.79697,1.093585 L 480.5,48.5 Z"
         id="path781" />
    </g>
  </g>
</svg>
