<?xml version="1.0" encoding="UTF-8" standalone="no"?>
<!-- Created with Inkscape (http://www.inkscape.org/) -->

<svg
   version="1.1"
   id="svg2576"
   width="512"
   height="512"
   viewBox="0 0 512 512"
   xmlns="http://www.w3.org/2000/svg"
   xmlns:svg="http://www.w3.org/2000/svg">
  <defs
     id="defs2580" />
  <g
     id="g2582">
    <g
       id="g2586">
      <path
         style="fill:#d0f9f8"
         d="m 37.872445,509.25 c -1.243871,-1.58606 -1.208501,-1.62143 0.377555,-0.37756 0.9625,0.75485 1.75,1.54235 1.75,1.75 0,0.82304 -0.821186,0.29331 -2.127555,-1.37244 z M 235,510.62244 c 0,-0.20765 0.7875,-0.99515 1.75,-1.75 1.58606,-1.24387 1.62143,-1.2085 0.37756,0.37756 C 235.82119,510.91575 235,511.44548 235,510.62244 Z M 36.157895,504 c 0,-1.375 0.226973,-1.9375 0.504386,-1.25 0.277412,0.6875 0.277412,1.8125 0,2.5 -0.277413,0.6875 -0.504386,0.125 -0.504386,-1.25 z m 30.921052,0.41667 c 0.04798,-1.16495 0.284941,-1.4019 0.604167,-0.60417 0.288871,0.72187 0.253344,1.58438 -0.07895,1.91667 -0.332292,0.33229 -0.568641,-0.25834 -0.52522,-1.3125 z m 292.710243,-0.15808 c 3.45905,-0.19583 8.85905,-0.19422 12,0.004 3.14094,0.19781 0.31081,0.35803 -6.28919,0.35606 -6.6,-0.002 -9.16987,-0.16382 -5.71081,-0.35965 z M 112.8125,463.31689 c 0.72187,-0.28887 1.58437,-0.25335 1.91667,0.0789 0.33229,0.33229 -0.25834,0.56864 -1.3125,0.52522 -1.16495,-0.048 -1.4019,-0.28494 -0.60417,-0.60416 z M 152.87244,446.25 c -1.24387,-1.58606 -1.2085,-1.62143 0.37756,-0.37756 0.9625,0.75485 1.75,1.54235 1.75,1.75 0,0.82304 -0.82119,0.29331 -2.12756,-1.37244 z m -5.05994,-1.93311 c 0.72187,-0.28887 1.58437,-0.25335 1.91667,0.0789 0.33229,0.33229 -0.25834,0.56864 -1.3125,0.52522 -1.16495,-0.048 -1.4019,-0.28494 -0.60417,-0.60416 z m 106.26645,-14.90022 c 0.048,-1.16495 0.28494,-1.4019 0.60416,-0.60417 0.28887,0.72187 0.25335,1.58438 -0.0789,1.91667 -0.3323,0.33229 -0.56864,-0.25834 -0.52522,-1.3125 z M 123.75,425.33772 c 0.6875,-0.27741 1.8125,-0.27741 2.5,0 0.6875,0.27741 0.125,0.50439 -1.25,0.50439 -1.375,0 -1.9375,-0.22698 -1.25,-0.50439 z M 150.87244,417.25 c -1.24387,-1.58606 -1.2085,-1.62143 0.37756,-0.37756 0.9625,0.75485 1.75,1.54235 1.75,1.75 0,0.82304 -0.82119,0.29331 -2.12756,-1.37244 z m 59.20651,0.16667 c 0.048,-1.16495 0.28494,-1.4019 0.60416,-0.60417 0.28887,0.72187 0.25335,1.58438 -0.0789,1.91667 -0.3323,0.33229 -0.56864,-0.25834 -0.52522,-1.3125 z M 149.15789,412 c 0,-1.375 0.22698,-1.9375 0.50439,-1.25 0.27741,0.6875 0.27741,1.8125 0,2.5 -0.27741,0.6875 -0.50439,0.125 -0.50439,-1.25 z m -48.28545,-12.75 c -1.243866,-1.58606 -1.208496,-1.62143 0.37756,-0.37756 0.9625,0.75485 1.75,1.54235 1.75,1.75 0,0.82304 -0.82119,0.29331 -2.12756,-1.37244 z M 94.75,397.33772 c 0.6875,-0.27741 1.8125,-0.27741 2.5,0 0.6875,0.27741 0.125,0.50439 -1.25,0.50439 -1.375,0 -1.9375,-0.22698 -1.25,-0.50439 z M 260,392.62244 c 0,-0.20765 0.7875,-0.99515 1.75,-1.75 1.58606,-1.24387 1.62143,-1.2085 0.37756,0.37756 C 260.82119,392.91575 260,393.44548 260,392.62244 Z M 248.15789,386 c 0,-1.375 0.22698,-1.9375 0.50439,-1.25 0.27741,0.6875 0.27741,1.8125 0,2.5 -0.27741,0.6875 -0.50439,0.125 -0.50439,-1.25 z m -11.96294,-18.5 c 0.0204,-1.65 0.2445,-2.20394 0.49804,-1.23097 0.25354,0.97297 0.23687,2.32297 -0.0371,3 -0.27393,0.67703 -0.48137,-0.11903 -0.46099,-1.76903 z m -135.32251,-8.25 c -1.243866,-1.58606 -1.208496,-1.62143 0.37756,-0.37756 0.9625,0.75485 1.75,1.54235 1.75,1.75 0,0.82304 -0.82119,0.29331 -2.12756,-1.37244 z M 99.157895,354 c 0,-1.375 0.226973,-1.9375 0.504386,-1.25 0.277412,0.6875 0.277412,1.8125 0,2.5 -0.277413,0.6875 -0.504386,0.125 -0.504386,-1.25 z m -15,-3 c 0,-1.375 0.226973,-1.9375 0.504386,-1.25 0.277412,0.6875 0.277412,1.8125 0,2.5 -0.277413,0.6875 -0.504386,0.125 -0.504386,-1.25 z m -2.28545,-5.75 c -1.243871,-1.58606 -1.208501,-1.62143 0.377555,-0.37756 0.9625,0.75485 1.75,1.54235 1.75,1.75 0,0.82304 -0.821186,0.29331 -2.127555,-1.37244 z m 148.999995,-10 c -1.24387,-1.58606 -1.2085,-1.62143 0.37756,-0.37756 0.9625,0.75485 1.75,1.54235 1.75,1.75 0,0.82304 -0.82119,0.29331 -2.12756,-1.37244 z M 175.75,327.33772 c 0.6875,-0.27741 1.8125,-0.27741 2.5,0 0.6875,0.27741 0.125,0.50439 -1.25,0.50439 -1.375,0 -1.9375,-0.22698 -1.25,-0.50439 z M 170.87244,325.25 c -1.24387,-1.58606 -1.2085,-1.62143 0.37756,-0.37756 0.9625,0.75485 1.75,1.54235 1.75,1.75 0,0.82304 -0.82119,0.29331 -2.12756,-1.37244 z M 336.5,289 c 0.99549,-1.1 2.03498,-2 2.30998,-2 0.275,0 -0.31449,0.9 -1.30998,2 -0.99549,1.1 -2.03498,2 -2.30998,2 -0.275,0 0.31449,-0.9 1.30998,-2 z M 254,284.05902 c 0,-0.51754 0.44485,-1.21592 0.98855,-1.55194 0.56686,-0.35034 0.7345,0.0511 0.39301,0.94098 C 254.71677,285.18048 254,285.49745 254,284.05902 Z M 90.078947,248.41667 c 0.04798,-1.16495 0.284941,-1.4019 0.604167,-0.60417 0.288871,0.72187 0.253344,1.58437 -0.07895,1.91667 -0.332292,0.33229 -0.568641,-0.25834 -0.52522,-1.3125 z M 93,159.62244 c 0,-0.20765 0.7875,-0.99515 1.75,-1.75 1.586056,-1.24387 1.621426,-1.2085 0.377555,0.37756 C 93.821186,159.91575 93,160.44548 93,159.62244 Z M 429.29966,138 c 0,-3.025 0.18747,-4.2625 0.41659,-2.75 0.22913,1.5125 0.22913,3.9875 0,5.5 -0.22912,1.5125 -0.41659,0.275 -0.41659,-2.75 z M 185.25,114.31067 c 0.9625,-0.25152 2.5375,-0.25152 3.5,0 0.9625,0.25153 0.175,0.45733 -1.75,0.45733 -1.925,0 -2.7125,-0.2058 -1.75,-0.45733 z m 11,0 c 0.9625,-0.25152 2.5375,-0.25152 3.5,0 0.9625,0.25153 0.175,0.45733 -1.75,0.45733 -1.925,0 -2.7125,-0.2058 -1.75,-0.45733 z M 434.94617,40.25 431.5,36.5 l 3.75,3.446167 c 2.0625,1.895392 3.75,3.582892 3.75,3.75 0,0.76362 -0.84622,0.04425 -4.05383,-3.446167 z"
         id="path2600" />
      <path
         style="fill:#aff9f6"
         d="m 48,510.62244 c 0,-0.20765 0.7875,-0.99515 1.75,-1.75 1.586056,-1.24387 1.621426,-1.2085 0.377555,0.37756 C 48.821186,510.91575 48,511.44548 48,510.62244 Z m 31,0 c 0,-0.20765 0.7875,-0.99515 1.75,-1.75 1.586056,-1.24387 1.621426,-1.2085 0.377555,0.37756 C 79.821186,510.91575 79,511.44548 79,510.62244 Z M 193.87244,509.25 c -1.24387,-1.58606 -1.2085,-1.62143 0.37756,-0.37756 0.9625,0.75485 1.75,1.54235 1.75,1.75 0,0.82304 -0.82119,0.29331 -2.12756,-1.37244 z M 192.15789,504 c 0,-1.375 0.22698,-1.9375 0.50439,-1.25 0.27741,0.6875 0.27741,1.8125 0,2.5 -0.27741,0.6875 -0.50439,0.125 -0.50439,-1.25 z m 30.92106,0.41667 c 0.048,-1.16495 0.28494,-1.4019 0.60416,-0.60417 0.28887,0.72187 0.25335,1.58438 -0.0789,1.91667 -0.3323,0.33229 -0.56864,-0.25834 -0.52522,-1.3125 z M 48,450.62244 c 0,-0.20765 0.7875,-0.99515 1.75,-1.75 1.586056,-1.24387 1.621426,-1.2085 0.377555,0.37756 C 48.821186,450.91575 48,451.44548 48,450.62244 Z M 214.87244,449.25 c -1.24387,-1.58606 -1.2085,-1.62143 0.37756,-0.37756 1.66575,1.30637 2.19548,2.12756 1.37244,2.12756 -0.20765,0 -0.99515,-0.7875 -1.75,-1.75 z M 240,425.62244 c 0,-0.20765 0.7875,-0.99515 1.75,-1.75 1.58606,-1.24387 1.62143,-1.2085 0.37756,0.37756 C 240.82119,425.91575 240,426.44548 240,425.62244 Z m -18,-2 c 0,-0.20765 0.7875,-0.99515 1.75,-1.75 1.58606,-1.24387 1.62143,-1.2085 0.37756,0.37756 C 222.82119,423.91575 222,424.44548 222,423.62244 Z M 117.15789,418 c 0,-1.375 0.22698,-1.9375 0.50439,-1.25 0.27741,0.6875 0.27741,1.8125 0,2.5 -0.27741,0.6875 -0.50439,0.125 -0.50439,-1.25 z M 58.194949,402.5 c 0.02038,-1.65 0.244498,-2.20394 0.498042,-1.23097 0.253543,0.97297 0.236869,2.32297 -0.03705,3 C 58.382014,404.94606 58.174569,404.15 58.194949,402.5 Z M 222,363.62244 c 0,-0.20765 0.7875,-0.99515 1.75,-1.75 1.58606,-1.24387 1.62143,-1.2085 0.37756,0.37756 C 222.82119,363.91575 222,364.44548 222,363.62244 Z M 175.15789,360 c 0,-1.375 0.22698,-1.9375 0.50439,-1.25 0.27741,0.6875 0.27741,1.8125 0,2.5 -0.27741,0.6875 -0.50439,0.125 -0.50439,-1.25 z M 111,360.62244 c 0,-0.20765 0.7875,-0.99515 1.75,-1.75 1.58606,-1.24387 1.62143,-1.2085 0.37756,0.37756 C 111.82119,360.91575 111,361.44548 111,360.62244 Z m 55.75,-8.28472 c 0.6875,-0.27741 1.8125,-0.27741 2.5,0 0.6875,0.27741 0.125,0.50439 -1.25,0.50439 -1.375,0 -1.9375,-0.22698 -1.25,-0.50439 z M 70,346.62244 c 0,-0.20765 0.7875,-0.99515 1.75,-1.75 1.586056,-1.24387 1.621426,-1.2085 0.377555,0.37756 C 70.821186,346.91575 70,347.44548 70,346.62244 Z M 143.87244,342.25 c -1.24387,-1.58606 -1.2085,-1.62143 0.37756,-0.37756 0.9625,0.75485 1.75,1.54235 1.75,1.75 0,0.82304 -0.82119,0.29331 -2.12756,-1.37244 z m -5.05994,-1.93311 c 0.72187,-0.28887 1.58437,-0.25335 1.91667,0.0789 0.33229,0.33229 -0.25834,0.56864 -1.3125,0.52522 -1.16495,-0.048 -1.4019,-0.28494 -0.60417,-0.60416 z m 97,-3 c 0.72187,-0.28887 1.58437,-0.25335 1.91667,0.0789 0.33229,0.33229 -0.25834,0.56864 -1.3125,0.52522 -1.16495,-0.048 -1.4019,-0.28494 -0.60417,-0.60416 z M 229.15789,330 c 0,-1.375 0.22698,-1.9375 0.50439,-1.25 0.27741,0.6875 0.27741,1.8125 0,2.5 -0.27741,0.6875 -0.50439,0.125 -0.50439,-1.25 z M 155,300.62244 c 0,-0.20765 0.7875,-0.99515 1.75,-1.75 1.58606,-1.24387 1.62143,-1.2085 0.37756,0.37756 C 155.82119,300.91575 155,301.44548 155,300.62244 Z m -74.921053,-2.20577 c 0.04798,-1.16495 0.284941,-1.4019 0.604167,-0.60417 0.288871,0.72187 0.253344,1.58438 -0.07895,1.91667 -0.332292,0.33229 -0.568641,-0.25834 -0.52522,-1.3125 z m 63.000003,-4 c 0.048,-1.16495 0.28494,-1.4019 0.60416,-0.60417 0.28887,0.72187 0.25335,1.58438 -0.0789,1.91667 -0.3323,0.33229 -0.56864,-0.25834 -0.52522,-1.3125 z"
         id="path2598" />
      <path
         style="fill:#86f7f3"
         d="m 41.016607,510.714 c -4.765517,-2.41118 -4.683564,-4.46905 1.300494,-32.6555 5.519512,-25.99833 6.674093,-29.29992 10.605868,-30.3281 2.966094,-0.77566 7.94581,1.89859 8.632879,4.63609 0.371107,1.47861 -1.655894,13.19795 -4.983544,28.81293 -4.94393,23.19936 -5.909976,26.5874 -8.146457,28.57058 -2.90498,2.57597 -3.953653,2.71241 -7.40924,0.964 z m 31.225267,0.25183 c -5.336407,-2.14436 -5.329199,-2.20944 6.321059,-57.07804 7.577127,-35.68559 11.425126,-51.87419 12.72242,-53.52343 3.081203,-3.91711 9.881677,-2.68543 11.708967,2.1207 0.66741,1.75543 -1.90809,15.56755 -10.01128,53.6892 -10.050246,47.28164 -11.114123,51.50302 -13.502216,53.57574 -2.807748,2.43695 -3.789677,2.60187 -7.23895,1.21583 z m 31.073496,0.0272 C 98.502814,509.054 98.443296,507.02048 102.61706,487.13441 106.83532,467.03636 108.21356,464 113.11803,464 c 2.93404,0 7.88197,3.74413 7.88197,5.96433 0,2.04076 -7.10134,34.56667 -8.1122,37.15595 -0.56264,1.44115 -2.13874,3.12865 -3.50244,3.75 -2.85655,1.30153 -3.13054,1.30707 -6.06999,0.12274 z m 31.00581,-0.18175 c -4.84072,-2.3403 -4.74381,-4.35122 1.65355,-34.31127 6.37176,-29.84016 7.03999,-31.5 12.68151,-31.5 2.63416,0 7.34376,4.04149 7.34376,6.30197 0,1.25414 -9.96349,48.72008 -11.57205,55.12907 -0.36731,1.46349 -1.92416,3.29132 -3.49546,4.10387 -3.2599,1.68576 -3.66136,1.70254 -6.61131,0.27636 z m 31.0429,0.0411 c -5.18226,-2.56253 -5.88959,1.67806 20.27941,-121.57959 13.51893,-63.67502 24.68689,-115.89254 24.81769,-116.03893 0.30585,-0.3423 13.56699,2.42792 13.91055,2.90588 0.74114,1.03109 -49.24033,232.15349 -50.46327,233.35031 -1.99872,1.95602 -6.04051,2.60045 -8.54438,1.36233 z m 30.34264,-0.86841 C 193.70318,508.40796 193,506.96266 193,504.42062 c 0,-3.67098 9.45913,-49.4863 10.95187,-53.04544 1.23338,-2.94072 6.09968,-4.53238 9.17328,-3.00037 5.2444,2.61402 5.20338,3.96244 -1.00075,32.89748 -3.2164,15.00077 -6.37444,27.39309 -7.1824,28.18419 -2.66661,2.61096 -6.32119,2.81969 -9.23528,0.52746 z m 30.92814,-0.0565 c -1.86416,-1.46635 -2.63232,-3.00198 -2.62617,-5.25 0.005,-1.74758 3.6141,-20.04925 8.02073,-40.67037 8.63605,-40.41307 8.97411,-41.34038 15.07086,-41.34038 3.48436,0 6.89972,3.1553 6.89972,6.37435 0,3.0663 -15.97147,77.03715 -17.08127,79.11084 -0.92705,1.73221 -4.69301,3.84814 -6.84897,3.84814 -0.44002,0 -1.98573,-0.93266 -3.4349,-2.07258 z M 120.22251,423.4433 c -1.6167,-1.13238 -2.22114,-2.56343 -2.21748,-5.25 0.009,-6.58605 14.73608,-73.24975 16.64905,-75.36355 2.54694,-2.81434 8.06755,-2.10951 10.64627,1.35923 l 1.99903,2.68898 -7.76264,36.81102 C 131.27215,422.88019 130.5287,425 125.04819,425 c -1.43175,0 -3.60331,-0.70052 -4.82568,-1.5567 z m 94.7941,0.2707 c -4.7413,-2.39893 -4.65577,-4.4265 1.38172,-32.75647 4.9715,-23.32799 5.93858,-26.72367 8.17582,-28.70753 1.39556,-1.2375 3.3516,-2.25 4.34676,-2.25 2.88539,0 7.07909,3.87996 7.07909,6.54948 0,1.32238 -2.46073,14.00222 -5.4683,28.17742 -4.87255,22.96525 -5.75019,26.01823 -8.05576,28.0231 -2.96289,2.57646 -4.00601,2.71127 -7.45933,0.964 z m -61,-5.00714 c -4.85563,-2.44281 -4.76487,-4.44646 1.55521,-34.33271 4.08656,-19.32443 6.42699,-28.37296 7.65687,-29.60284 2.33072,-2.33072 7.98412,-2.29863 10.11632,0.0574 0.91025,1.00581 1.65499,3.25184 1.65499,4.99118 0,6.25599 -11.01425,55.61087 -12.79302,57.32557 -2.51536,2.42476 -5.38631,2.97206 -8.19037,1.56137 z M 61,408 c -1.203368,-1.20337 -2,-3.33333 -2,-5.34743 0,-1.84108 2.476167,-15.00358 5.502594,-29.25 C 69.368325,350.49793 70.300688,347.23959 72.558357,345.25 73.962601,344.0125 76.006888,343 77.101218,343 79.66576,343 84,347.32826 84,349.88926 84,351.88968 74.77769,396.34288 72.937318,403.21339 71.240344,409.54856 65.036262,412.03626 61,408 Z m 190,-17 c -1.1,-1.1 -1.9858,-3.2375 -1.96844,-4.75 0.0368,-3.20627 20.36181,-98.9767 21.17886,-99.79376 0.7133,-0.71329 13.78958,1.68729 13.78958,2.53153 0,2.23834 -21.11069,99.35053 -21.9301,100.88162 C 260.11392,393.52418 254.13484,394.13484 251,391 Z M 104.01661,360.714 c -5.043715,-2.55194 -4.978672,-3.13304 6.28533,-56.15429 5.81506,-27.3723 10.7724,-49.96738 11.01631,-50.21129 0.50856,-0.50857 12.49708,2.13358 13.29317,2.92967 0.28937,0.28937 -4.23272,22.95768 -10.04909,50.37402 -9.64822,45.47833 -10.79869,50.04512 -13.12454,52.09789 -2.91879,2.57609 -3.96614,2.71214 -7.42118,0.964 z M 231.65499,335.17126 C 230.74474,334.16545 230,331.94775 230,330.24303 c 0,-2.5624 9.65704,-50.2334 10.30799,-50.88435 0.29134,-0.29134 13.0987,2.71468 13.56874,3.18472 0.21517,0.21517 -2.01428,11.75115 -4.95434,25.6355 -3.70595,17.50125 -5.89412,25.79283 -7.13398,27.03269 -2.34735,2.34735 -7.99294,2.32488 -10.13342,-0.0403 z m -59.6042,-9.92905 c -1.30563,-1.05723 -2.19935,-2.95032 -2.24247,-4.75 -0.0613,-2.55941 10.00675,-52.35174 10.78633,-53.34453 0.15216,-0.19377 3.46266,0.21706 7.35667,0.91296 5.64535,1.00888 6.98972,1.58686 6.63443,2.85231 -0.24508,0.87288 -2.79064,12.83705 -5.65681,26.58705 -5.58004,26.76938 -6.69011,29.5 -11.99247,29.5 -1.4932,0 -3.69175,-0.79101 -4.88568,-1.75779 z M 83.634859,303.92742 C 81.850739,302.52403 81,300.90103 81,298.90076 c 0,-3.00833 9.696987,-49.93108 10.480631,-50.71472 0.236204,-0.23621 3.374691,0.12626 6.974415,0.80548 4.354024,0.82154 6.544954,1.70344 6.544954,2.63449 0,0.76975 -2.28465,12.3063 -5.076992,25.63677 -4.401154,21.01082 -5.40696,24.53673 -7.555764,26.48722 -3.080271,2.79599 -5.344924,2.842 -8.732385,0.17742 z m 62.553701,-3.96638 C 144.90436,298.76462 144,296.71801 144,295.0082 c 0,-2.41362 5.00381,-27.56599 6.59097,-33.13046 0.41901,-1.46903 1.09225,-1.49031 7.12729,-0.22526 3.66551,0.76836 6.80719,1.53964 6.98151,1.71396 0.17432,0.17432 -1.30103,7.92568 -3.27857,17.22525 C 157.56269,298.73679 155.97638,302 151.01425,302 c -1.45042,0 -3.62198,-0.91753 -4.82569,-2.03896 z"
         id="path2596" />
      <path
         style="fill:#b0bac3"
         d="m 382.75,504.2596 c 3.4375,-0.19527 9.0625,-0.19527 12.5,0 3.4375,0.19527 0.625,0.35504 -6.25,0.35504 -6.875,0 -9.6875,-0.15977 -6.25,-0.35504 z m -18.67105,-48.84293 c 0.048,-1.16495 0.28494,-1.4019 0.60416,-0.60417 0.28887,0.72187 0.25335,1.58438 -0.0789,1.91667 -0.33229,0.33229 -0.56864,-0.25834 -0.52522,-1.3125 z m -21,-181 c 0.048,-1.16495 0.28494,-1.4019 0.60416,-0.60417 0.28887,0.72187 0.25335,1.58438 -0.0789,1.91667 -0.33229,0.33229 -0.56864,-0.25834 -0.52522,-1.3125 z m 0,-4 c 0.048,-1.16495 0.28494,-1.4019 0.60416,-0.60417 0.28887,0.72187 0.25335,1.58438 -0.0789,1.91667 -0.33229,0.33229 -0.56864,-0.25834 -0.52522,-1.3125 z M 323.15789,248 c 0,-1.375 0.22698,-1.9375 0.50439,-1.25 0.27741,0.6875 0.27741,1.8125 0,2.5 -0.27741,0.6875 -0.50439,0.125 -0.50439,-1.25 z m 0.0943,-7.5 c 0.0111,-2.2 0.21589,-2.98225 0.45508,-1.73834 0.23919,1.24391 0.23011,3.04391 -0.0202,4 -0.25029,0.95609 -0.446,-0.0617 -0.4349,-2.26166 z m -282.057231,-22 c 0.02038,-1.65 0.244498,-2.20394 0.498042,-1.23097 0.253543,0.97297 0.236869,2.32297 -0.03705,3 C 41.382014,220.94606 41.174569,220.15 41.194949,218.5 Z m 22.074083,-23.19299 c 0.972967,-0.25354 2.322967,-0.23687 3,0.0371 0.677032,0.27393 -0.119032,0.48137 -1.769032,0.46099 -1.65,-0.0204 -2.203936,-0.2445 -1.230968,-0.49804 z M 90,163.62244 c 0,-0.20765 0.7875,-0.99515 1.75,-1.75 1.586056,-1.24387 1.621426,-1.2085 0.377555,0.37756 C 90.821186,163.91575 90,164.44548 90,163.62244 Z M 99.958208,152.75 c 2.452012,-2.6125 4.589512,-4.75 4.750002,-4.75 0.75088,0 -0.043,0.89783 -4.45821,5.04179 L 95.5,157.5 Z m 177.914232,-6.5 c -1.24387,-1.58606 -1.2085,-1.62143 0.37756,-0.37756 0.9625,0.75485 1.75,1.54235 1.75,1.75 0,0.82304 -0.82119,0.29331 -2.12756,-1.37244 z m 151.32251,-0.75 c 0.0204,-1.65 0.2445,-2.20394 0.49804,-1.23097 0.25354,0.97297 0.23687,2.32297 -0.0371,3 -0.27393,0.67703 -0.48137,-0.11903 -0.46099,-1.76903 z M 108,145.62244 c 0,-0.20765 0.7875,-0.99515 1.75,-1.75 1.58606,-1.24387 1.62143,-1.2085 0.37756,0.37756 C 108.82119,145.91575 108,146.44548 108,145.62244 Z M 475.34941,138 c 0,-4.675 0.17226,-6.5875 0.3828,-4.25 0.21053,2.3375 0.21053,6.1625 0,8.5 -0.21054,2.3375 -0.3828,0.425 -0.3828,-4.25 z m -46.15446,-7.5 c 0.0204,-1.65 0.2445,-2.20394 0.49804,-1.23097 0.25354,0.97297 0.23687,2.32297 -0.0371,3 -0.27393,0.67703 -0.48137,-0.11903 -0.46099,-1.76903 z m -183.73607,-4.56653 c -0.36253,-0.58659 -0.44468,-1.281 -0.18255,-1.54313 0.26212,-0.26213 0.74306,0.21781 1.06875,1.06653 0.67618,1.76211 0.0999,2.07206 -0.8862,0.4766 z m -75.64638,-9.61658 c 0.72187,-0.28887 1.58437,-0.25335 1.91667,0.0789 0.33229,0.3323 -0.25834,0.56864 -1.3125,0.52522 -1.16495,-0.048 -1.4019,-0.28494 -0.60417,-0.60416 z m 6.9375,-0.97917 c 0.6875,-0.27741 1.8125,-0.27741 2.5,0 0.6875,0.27741 0.125,0.50439 -1.25,0.50439 -1.375,0 -1.9375,-0.22698 -1.25,-0.50439 z m 14.51903,-1.03071 c 0.97297,-0.25354 2.32297,-0.23687 3,0.037 0.67703,0.27393 -0.11903,0.48137 -1.76903,0.46099 -1.65,-0.0204 -2.20394,-0.2445 -1.23097,-0.49804 z M 271.5,73 c 3.26557,-3.3 6.16239,-6 6.43739,-6 0.275,0 -2.17182,2.7 -5.43739,6 -3.26557,3.3 -6.16239,6 -6.43739,6 -0.275,0 2.17182,-2.7 5.43739,-6 z M 402,72.5 c -2.42903,-2.475 -4.19142,-4.5 -3.91642,-4.5 0.275,0 2.48739,2.025 4.91642,4.5 2.42903,2.475 4.19142,4.5 3.91642,4.5 -0.275,0 -2.48739,-2.025 -4.91642,-4.5 z M 233.5,47 c 0.99549,-1.1 2.03498,-2 2.30998,-2 0.275,0 -0.31449,0.9 -1.30998,2 -0.99549,1.1 -2.03498,2 -2.30998,2 -0.275,0 0.31449,-0.9 1.30998,-2 z m 90.3125,-0.683114 c 0.72187,-0.288871 1.58438,-0.253344 1.91667,0.07895 0.33229,0.332292 -0.25834,0.568641 -1.3125,0.52522 -1.16495,-0.04798 -1.4019,-0.284941 -0.60417,-0.604167 z m 26,0 c 0.72187,-0.288871 1.58438,-0.253344 1.91667,0.07895 0.33229,0.332292 -0.25834,0.568641 -1.3125,0.52522 -1.16495,-0.04798 -1.4019,-0.284941 -0.60417,-0.604167 z m -15.04459,-1.041617 c 1.79735,-0.222562 4.49735,-0.217969 6,0.0102 1.50265,0.228174 0.0321,0.41027 -3.26791,0.404657 -3.3,-0.0056 -4.52944,-0.192301 -2.73209,-0.414862 z M 245,35.5 c 1.29175,-1.375 2.57363,-2.5 2.84863,-2.5 0.275,0 -0.55688,1.125 -1.84863,2.5 -1.29175,1.375 -2.57363,2.5 -2.84863,2.5 -0.275,0 0.55688,-1.125 1.84863,-2.5 z M 349.8125,0.31688596 c 0.72187,-0.28887061 1.58438,-0.25334429 1.91667,0.0789474 0.33229,0.33229167 -0.25834,0.56864035 -1.3125,0.5252193 -1.16495,-0.0479839 -1.4019,-0.2849403 -0.60417,-0.6041667 z"
         id="path2594" />
      <path
         style="fill:#8a9aa8"
         d="m 355,502.63435 c 0,-0.78713 16.68494,-79.88937 37.07765,-175.78275 28.23762,-132.78278 37.21104,-176.64022 37.6371,-183.95074 2.54665,-43.695839 -26.53904,-83.30455 -69.44659,-94.571934 -13.92883,-3.657667 -31.60749,-3.657667 -45.53632,0 -10.02507,2.632551 -21.93878,8.013591 -30.42895,13.743784 -7.44087,5.021997 -21.36327,19.817548 -25.87393,27.496634 C 253.4715,98.00908 248.6566,109.59809 247.0323,117 c -0.66381,3.025 -1.41583,6.26502 -1.67114,7.20003 -0.34533,1.26466 0.80449,2.24582 4.48971,3.83116 4.57733,1.96912 5.19247,2.6646 8.09174,9.1487 7.17514,16.04687 10.86515,31.07813 11.77299,47.95722 0.51821,9.63489 0.36203,11.07107 -1.65757,15.24302 -2.60062,5.37216 -6.04448,8.11037 -12.16351,9.67116 -4.03035,1.02804 -8.12359,0.32324 -49.39452,-8.50496 -61.02304,-13.05334 -89.19085,-19.03848 -107,-22.73551 -8.25,-1.71263 -15.364273,-3.43246 -15.809497,-3.82184 -1.303481,-1.14 10.591342,-16.10562 19.349027,-24.34423 13.72326,-12.90986 31.01621,-23.34365 48.16413,-29.06009 11.50092,-3.83395 22.22543,-5.71099 36.70472,-6.4242 L 201.31676,114.5 204.06298,104 c 3.0437,-11.637381 5.3637,-17.927828 10.0495,-27.248221 18.4446,-36.687629 53.43971,-64.047392 93.54648,-73.1362121 l 6.15897,-1.3957173 1.05519,4.1905606 c 1.44914,5.7550498 6.12621,11.8839198 10.76066,14.1008488 2.58745,1.237725 7.5624,2.101486 15.04117,2.611476 13.65542,0.931187 21.28177,2.267796 31.78087,5.569973 16.7469,5.267234 31.24684,14.000658 44.37785,26.72911 23.50127,22.780791 35.16877,50.140192 35.16496,82.459172 -7.5e-4,6.39046 -0.63836,15.21901 -1.41692,19.61901 -0.77855,4.4 -14.76534,70.775 -31.08174,147.5 -16.31641,76.725 -32.48136,152.775 -35.92211,169 l -6.25591,29.5 -11.16098,0.28275 C 357.01371,504.01449 355,503.80729 355,502.63435 Z M 319.8125,295.31689 c 0.72187,-0.28887 1.58438,-0.25335 1.91667,0.0789 0.33229,0.33229 -0.25834,0.56864 -1.3125,0.52522 -1.16495,-0.048 -1.4019,-0.28494 -0.60417,-0.60416 z M 176,242.05982 C 109.175,227.90474 51.65246,215.68806 48.172133,214.91165 L 41.844265,213.5 l 2.872089,-5.48456 c 4.002987,-7.64413 9.769832,-11.13627 19.736417,-11.95148 4.059445,-0.33204 7.234346,-0.36672 7.055337,-0.0771 -0.17901,0.28964 29.220932,6.79242 65.333212,14.45061 36.11227,7.65819 75.78368,16.07751 88.15868,18.7096 12.375,2.63209 40.11269,8.51816 61.63932,13.08015 l 39.13932,8.29454 -2.35863,4.64101 C 319.12708,263.60986 311.57603,268.09742 302,267.8926 299.525,267.83966 242.825,256.21491 176,242.05982 Z M 287.87244,156.25 c -1.24387,-1.58606 -1.2085,-1.62143 0.37756,-0.37756 1.66575,1.30637 2.19548,2.12756 1.37244,2.12756 -0.20765,0 -0.99515,-0.7875 -1.75,-1.75 z m -7,-7 c -1.24387,-1.58606 -1.2085,-1.62143 0.37756,-0.37756 1.66575,1.30637 2.19548,2.12756 1.37244,2.12756 -0.20765,0 -0.99515,-0.7875 -1.75,-1.75 z M 325.8125,0.31688596 c 0.72187,-0.28887061 1.58438,-0.25334429 1.91667,0.0789474 0.33229,0.33229167 -0.25834,0.56864035 -1.3125,0.5252193 -1.16495,-0.0479839 -1.4019,-0.2849403 -0.60417,-0.6041667 z"
         id="path2592" />
      <path
         style="fill:#788694"
         d="m 379.07895,494.41667 c 0.048,-1.16495 0.28494,-1.4019 0.60416,-0.60417 0.28887,0.72187 0.25335,1.58438 -0.0789,1.91667 -0.33229,0.33229 -0.56864,-0.25834 -0.52522,-1.3125 z m 1,-5 c 0.048,-1.16495 0.28494,-1.4019 0.60416,-0.60417 0.28887,0.72187 0.25335,1.58438 -0.0789,1.91667 -0.33229,0.33229 -0.56864,-0.25834 -0.52522,-1.3125 z m 3,-14 c 0.048,-1.16495 0.28494,-1.4019 0.60416,-0.60417 0.28887,0.72187 0.25335,1.58438 -0.0789,1.91667 -0.33229,0.33229 -0.56864,-0.25834 -0.52522,-1.3125 z m 3,-14 c 0.048,-1.16495 0.28494,-1.4019 0.60416,-0.60417 0.28887,0.72187 0.25335,1.58438 -0.0789,1.91667 -0.33229,0.33229 -0.56864,-0.25834 -0.52522,-1.3125 z m 1,-5 c 0.048,-1.16495 0.28494,-1.4019 0.60416,-0.60417 0.28887,0.72187 0.25335,1.58438 -0.0789,1.91667 -0.33229,0.33229 -0.56864,-0.25834 -0.52522,-1.3125 z m 3,-14 c 0.048,-1.16495 0.28494,-1.4019 0.60416,-0.60417 0.28887,0.72187 0.25335,1.58438 -0.0789,1.91667 -0.33229,0.33229 -0.56864,-0.25834 -0.52522,-1.3125 z m 3,-14 c 0.048,-1.16495 0.28494,-1.4019 0.60416,-0.60417 0.28887,0.72187 0.25335,1.58438 -0.0789,1.91667 -0.33229,0.33229 -0.56864,-0.25834 -0.52522,-1.3125 z m 3,-14 c 0.048,-1.16495 0.28494,-1.4019 0.60416,-0.60417 0.28887,0.72187 0.25335,1.58438 -0.0789,1.91667 -0.33229,0.33229 -0.56864,-0.25834 -0.52522,-1.3125 z m 4,-19 c 0.048,-1.16495 0.28494,-1.4019 0.60416,-0.60417 0.28887,0.72187 0.25335,1.58438 -0.0789,1.91667 -0.33229,0.33229 -0.56864,-0.25834 -0.52522,-1.3125 z m 3,-14 c 0.048,-1.16495 0.28494,-1.4019 0.60416,-0.60417 0.28887,0.72187 0.25335,1.58438 -0.0789,1.91667 -0.33229,0.33229 -0.56864,-0.25834 -0.52522,-1.3125 z m 4,-19 c 0.048,-1.16495 0.28494,-1.4019 0.60416,-0.60417 0.28887,0.72187 0.25335,1.58438 -0.0789,1.91667 -0.33229,0.33229 -0.56864,-0.25834 -0.52522,-1.3125 z m 3,-14 c 0.048,-1.16495 0.28494,-1.4019 0.60416,-0.60417 0.28887,0.72187 0.25335,1.58438 -0.0789,1.91667 -0.33229,0.33229 -0.56864,-0.25834 -0.52522,-1.3125 z m 3,-14 c 0.048,-1.16495 0.28494,-1.4019 0.60416,-0.60417 0.28887,0.72187 0.25335,1.58438 -0.0789,1.91667 -0.33229,0.33229 -0.56864,-0.25834 -0.52522,-1.3125 z m 4,-19 c 0.048,-1.16495 0.28494,-1.4019 0.60416,-0.60417 0.28887,0.72187 0.25335,1.58438 -0.0789,1.91667 -0.33229,0.33229 -0.56864,-0.25834 -0.52522,-1.3125 z m 3,-14 c 0.048,-1.16495 0.28494,-1.4019 0.60416,-0.60417 0.28887,0.72187 0.25335,1.58438 -0.0789,1.91667 -0.33229,0.33229 -0.56864,-0.25834 -0.52522,-1.3125 z m 4,-19 c 0.048,-1.16495 0.28494,-1.4019 0.60416,-0.60417 0.28887,0.72187 0.25335,1.58438 -0.0789,1.91667 -0.33229,0.33229 -0.56864,-0.25834 -0.52522,-1.3125 z m 3,-14 c 0.048,-1.16495 0.28494,-1.4019 0.60416,-0.60417 0.28887,0.72187 0.25335,1.58438 -0.0789,1.91667 -0.33229,0.33229 -0.56864,-0.25834 -0.52522,-1.3125 z M 301.25,268.31067 c 0.9625,-0.25152 2.5375,-0.25152 3.5,0 0.9625,0.25153 0.175,0.45733 -1.75,0.45733 -1.925,0 -2.7125,-0.2058 -1.75,-0.45733 z m -15.4375,-2.99378 c 0.72187,-0.28887 1.58438,-0.25335 1.91667,0.0789 0.33229,0.33229 -0.25834,0.56864 -1.3125,0.52522 -1.16495,-0.048 -1.4019,-0.28494 -0.60417,-0.60416 z M 318.5,262 c 0.99549,-1.1 2.03498,-2 2.30998,-2 0.275,0 -0.31449,0.9 -1.30998,2 -0.99549,1.1 -2.03498,2 -2.30998,2 -0.275,0 0.31449,-0.9 1.30998,-2 z m -51.6875,-0.68311 c 0.72187,-0.28887 1.58438,-0.25335 1.91667,0.0789 0.33229,0.33229 -0.25834,0.56864 -1.3125,0.52522 -1.16495,-0.048 -1.4019,-0.28494 -0.60417,-0.60416 z m -5,-1 c 0.72187,-0.28887 1.58438,-0.25335 1.91667,0.0789 0.33229,0.33229 -0.25834,0.56864 -1.3125,0.52522 -1.16495,-0.048 -1.4019,-0.28494 -0.60417,-0.60416 z m -14,-3 c 0.72187,-0.28887 1.58437,-0.25335 1.91667,0.0789 0.33229,0.33229 -0.25834,0.56864 -1.3125,0.52522 -1.16495,-0.048 -1.4019,-0.28494 -0.60417,-0.60416 z m -5,-1 c 0.72187,-0.28887 1.58437,-0.25335 1.91667,0.0789 0.33229,0.33229 -0.25834,0.56864 -1.3125,0.52522 -1.16495,-0.048 -1.4019,-0.28494 -0.60417,-0.60416 z m 187.26645,-1.90022 c 0.048,-1.16495 0.28494,-1.4019 0.60416,-0.60417 0.28887,0.72187 0.25335,1.58437 -0.0789,1.91667 -0.33229,0.33229 -0.56864,-0.25834 -0.52522,-1.3125 z M 228.8125,253.31689 c 0.72187,-0.28887 1.58437,-0.25335 1.91667,0.0789 0.33229,0.33229 -0.25834,0.56864 -1.3125,0.52522 -1.16495,-0.048 -1.4019,-0.28494 -0.60417,-0.60416 z m -19,-4 c 0.72187,-0.28887 1.58437,-0.25335 1.91667,0.0789 0.33229,0.33229 -0.25834,0.56864 -1.3125,0.52522 -1.16495,-0.048 -1.4019,-0.28494 -0.60417,-0.60416 z m 102,-2 c 0.72187,-0.28887 1.58438,-0.25335 1.91667,0.0789 0.33229,0.33229 -0.25834,0.56864 -1.3125,0.52522 -1.16495,-0.048 -1.4019,-0.28494 -0.60417,-0.60416 z m -116,-1 c 0.72187,-0.28887 1.58437,-0.25335 1.91667,0.0789 0.33229,0.33229 -0.25834,0.56864 -1.3125,0.52522 -1.16495,-0.048 -1.4019,-0.28494 -0.60417,-0.60416 z m -5,-1 c 0.72187,-0.28887 1.58437,-0.25335 1.91667,0.0789 0.33229,0.33229 -0.25834,0.56864 -1.3125,0.52522 -1.16495,-0.048 -1.4019,-0.28494 -0.60417,-0.60416 z m 107,-1 c 0.72187,-0.28887 1.58438,-0.25335 1.91667,0.0789 0.33229,0.33229 -0.25834,0.56864 -1.3125,0.52522 -1.16495,-0.048 -1.4019,-0.28494 -0.60417,-0.60416 z m -121,-2 c 0.72187,-0.28887 1.58437,-0.25335 1.91667,0.0789 0.33229,0.33229 -0.25834,0.56864 -1.3125,0.52522 -1.16495,-0.048 -1.4019,-0.28494 -0.60417,-0.60416 z m -5,-1 c 0.72187,-0.28887 1.58437,-0.25335 1.91667,0.0789 0.33229,0.33229 -0.25834,0.56864 -1.3125,0.52522 -1.16495,-0.048 -1.4019,-0.28494 -0.60417,-0.60416 z m 107,-1 c 0.72187,-0.28887 1.58438,-0.25335 1.91667,0.0789 0.33229,0.33229 -0.25834,0.56864 -1.3125,0.52522 -1.16495,-0.048 -1.4019,-0.28494 -0.60417,-0.60416 z m -121,-2 c 0.72187,-0.28887 1.58437,-0.25335 1.91667,0.0789 0.33229,0.33229 -0.25834,0.56864 -1.3125,0.52522 -1.16495,-0.048 -1.4019,-0.28494 -0.60417,-0.60416 z m -5,-1 c 0.72187,-0.28887 1.58437,-0.25335 1.91667,0.0789 0.33229,0.33229 -0.25834,0.56864 -1.3125,0.52522 -1.16495,-0.048 -1.4019,-0.28494 -0.60417,-0.60416 z m 112,0 c 0.72187,-0.28887 1.58438,-0.25335 1.91667,0.0789 0.33229,0.33229 -0.25834,0.56864 -1.3125,0.52522 -1.16495,-0.048 -1.4019,-0.28494 -0.60417,-0.60416 z m -5,-1 c 0.72187,-0.28887 1.58438,-0.25335 1.91667,0.0789 0.33229,0.33229 -0.25834,0.56864 -1.3125,0.52522 -1.16495,-0.048 -1.4019,-0.28494 -0.60417,-0.60416 z m 174.26645,-0.90022 c 0.048,-1.16495 0.28494,-1.4019 0.60416,-0.60417 0.28887,0.72187 0.25335,1.58437 -0.0789,1.91667 -0.33229,0.33229 -0.56864,-0.25834 -0.52522,-1.3125 z M 133.8125,233.31689 c 0.72187,-0.28887 1.58437,-0.25335 1.91667,0.0789 0.33229,0.33229 -0.25834,0.56864 -1.3125,0.52522 -1.16495,-0.048 -1.4019,-0.28494 -0.60417,-0.60416 z m -19,-4 c 0.72187,-0.28887 1.58437,-0.25335 1.91667,0.0789 0.33229,0.33229 -0.25834,0.56864 -1.3125,0.52522 -1.16495,-0.048 -1.4019,-0.28494 -0.60417,-0.60416 z m 103,-2 c 0.72187,-0.28887 1.58437,-0.25335 1.91667,0.0789 0.33229,0.33229 -0.25834,0.56864 -1.3125,0.52522 -1.16495,-0.048 -1.4019,-0.28494 -0.60417,-0.60416 z m -117,-1 c 0.72187,-0.28887 1.58437,-0.25335 1.91667,0.0789 0.33229,0.33229 -0.25834,0.56864 -1.3125,0.52522 -1.16495,-0.048 -1.4019,-0.28494 -0.60417,-0.60416 z m 112,0 c 0.72187,-0.28887 1.58437,-0.25335 1.91667,0.0789 0.33229,0.33229 -0.25834,0.56864 -1.3125,0.52522 -1.16495,-0.048 -1.4019,-0.28494 -0.60417,-0.60416 z m -117,-1 c 0.721875,-0.28887 1.584375,-0.25335 1.916667,0.0789 0.332291,0.33229 -0.258334,0.56864 -1.3125,0.52522 -1.164943,-0.048 -1.4019,-0.28494 -0.604167,-0.60416 z m -14,-3 c 0.721875,-0.28887 1.584375,-0.25335 1.916667,0.0789 0.332291,0.33229 -0.258334,0.56864 -1.3125,0.52522 -1.164943,-0.048 -1.4019,-0.28494 -0.604167,-0.60416 z m 355.26645,-0.90022 c 0.048,-1.16495 0.28494,-1.4019 0.60416,-0.60417 0.28887,0.72187 0.25335,1.58437 -0.0789,1.91667 -0.33229,0.33229 -0.56864,-0.25834 -0.52522,-1.3125 z M 76.8125,221.31689 c 0.721875,-0.28887 1.584375,-0.25335 1.916667,0.0789 0.332291,0.33229 -0.258334,0.56864 -1.3125,0.52522 -1.164943,-0.048 -1.4019,-0.28494 -0.604167,-0.60416 z m -14,-3 c 0.721875,-0.28887 1.584375,-0.25335 1.916667,0.0789 0.332291,0.33229 -0.258334,0.56864 -1.3125,0.52522 -1.164943,-0.048 -1.4019,-0.28494 -0.604167,-0.60416 z m -5,-1 c 0.721875,-0.28887 1.584375,-0.25335 1.916667,0.0789 0.332291,0.33229 -0.258334,0.56864 -1.3125,0.52522 -1.164943,-0.048 -1.4019,-0.28494 -0.604167,-0.60416 z m 113,0 c 0.72187,-0.28887 1.58437,-0.25335 1.91667,0.0789 0.33229,0.33229 -0.25834,0.56864 -1.3125,0.52522 -1.16495,-0.048 -1.4019,-0.28494 -0.60417,-0.60416 z m -122,-2 c 0.721875,-0.28887 1.584375,-0.25335 1.916667,0.0789 0.332291,0.33229 -0.258334,0.56864 -1.3125,0.52522 -1.164943,-0.048 -1.4019,-0.28494 -0.604167,-0.60416 z m -5,-1 c 0.721875,-0.28887 1.584375,-0.25335 1.916667,0.0789 0.332291,0.33229 -0.258334,0.56864 -1.3125,0.52522 -1.164943,-0.048 -1.4019,-0.28494 -0.604167,-0.60416 z m 94,-4 c 0.72187,-0.28887 1.58437,-0.25335 1.91667,0.0789 0.33229,0.33229 -0.25834,0.56864 -1.3125,0.52522 -1.16495,-0.048 -1.4019,-0.28494 -0.60417,-0.60416 z m 109,0 c 0.72187,-0.28887 1.58437,-0.25335 1.91667,0.0789 0.33229,0.33229 -0.25834,0.56864 -1.3125,0.52522 -1.16495,-0.048 -1.4019,-0.28494 -0.60417,-0.60416 z m -114,-1 c 0.72187,-0.28887 1.58437,-0.25335 1.91667,0.0789 0.33229,0.33229 -0.25834,0.56864 -1.3125,0.52522 -1.16495,-0.048 -1.4019,-0.28494 -0.60417,-0.60416 z m 307.26645,-1.90022 c 0.048,-1.16495 0.28494,-1.4019 0.60416,-0.60417 0.28887,0.72187 0.25335,1.58437 -0.0789,1.91667 -0.33229,0.33229 -0.56864,-0.25834 -0.52522,-1.3125 z m -207.26645,-0.0998 c 0.72187,-0.28887 1.58437,-0.25335 1.91667,0.0789 0.33229,0.33229 -0.25834,0.56864 -1.3125,0.52522 -1.16495,-0.048 -1.4019,-0.28494 -0.60417,-0.60416 z m -114,-1 c 0.72187,-0.28887 1.58437,-0.25335 1.91667,0.0789 0.33229,0.33229 -0.25834,0.56864 -1.3125,0.52522 -1.16495,-0.048 -1.4019,-0.28494 -0.60417,-0.60416 z m 100,-2 c 0.72187,-0.28887 1.58437,-0.25335 1.91667,0.0789 0.33229,0.33229 -0.25834,0.56864 -1.3125,0.52522 -1.16495,-0.048 -1.4019,-0.28494 -0.60417,-0.60416 z m 222.26645,-1.90022 c 0.048,-1.16495 0.28494,-1.4019 0.60416,-0.60417 0.28887,0.72187 0.25335,1.58437 -0.0789,1.91667 -0.33229,0.33229 -0.56864,-0.25834 -0.52522,-1.3125 z M 204.8125,201.31689 c 0.72187,-0.28887 1.58437,-0.25335 1.91667,0.0789 0.33229,0.33229 -0.25834,0.56864 -1.3125,0.52522 -1.16495,-0.048 -1.4019,-0.28494 -0.60417,-0.60416 z m -5,-1 c 0.72187,-0.28887 1.58437,-0.25335 1.91667,0.0789 0.33229,0.33229 -0.25834,0.56864 -1.3125,0.52522 -1.16495,-0.048 -1.4019,-0.28494 -0.60417,-0.60416 z m -114,-1 c 0.721875,-0.28887 1.584375,-0.25335 1.916667,0.0789 0.332291,0.33229 -0.258334,0.56864 -1.3125,0.52522 -1.164943,-0.048 -1.4019,-0.28494 -0.604167,-0.60416 z m 100,-2 c 0.72187,-0.28887 1.58437,-0.25335 1.91667,0.0789 0.33229,0.33229 -0.25834,0.56864 -1.3125,0.52522 -1.16495,-0.048 -1.4019,-0.28494 -0.60417,-0.60416 z m -114,-1 c 0.721875,-0.28887 1.584375,-0.25335 1.916667,0.0789 0.332291,0.33229 -0.258334,0.56864 -1.3125,0.52522 -1.164943,-0.048 -1.4019,-0.28494 -0.604167,-0.60416 z M 270.27236,191 c 0,-2.475 0.19502,-3.4875 0.43337,-2.25 0.23836,1.2375 0.23836,3.2625 0,4.5 -0.23835,1.2375 -0.43337,0.225 -0.43337,-2.25 z m -103.45986,2.31689 c 0.72187,-0.28887 1.58437,-0.25335 1.91667,0.0789 0.33229,0.33229 -0.25834,0.56864 -1.3125,0.52522 -1.16495,-0.048 -1.4019,-0.28494 -0.60417,-0.60416 z m -9,-2 c 0.72187,-0.28887 1.58437,-0.25335 1.91667,0.0789 0.33229,0.33229 -0.25834,0.56864 -1.3125,0.52522 -1.16495,-0.048 -1.4019,-0.28494 -0.60417,-0.60416 z m -5,-1 c 0.72187,-0.28887 1.58437,-0.25335 1.91667,0.0789 0.33229,0.33229 -0.25834,0.56864 -1.3125,0.52522 -1.16495,-0.048 -1.4019,-0.28494 -0.60417,-0.60416 z m 291.26645,-1.90022 c 0.048,-1.16495 0.28494,-1.4019 0.60416,-0.60417 0.28887,0.72187 0.25335,1.58437 -0.0789,1.91667 -0.33229,0.33229 -0.56864,-0.25834 -0.52522,-1.3125 z M 138.8125,187.31689 c 0.72187,-0.28887 1.58437,-0.25335 1.91667,0.0789 0.33229,0.33229 -0.25834,0.56864 -1.3125,0.52522 -1.16495,-0.048 -1.4019,-0.28494 -0.60417,-0.60416 z m -19,-4 c 0.72187,-0.28887 1.58437,-0.25335 1.91667,0.0789 0.33229,0.33229 -0.25834,0.56864 -1.3125,0.52522 -1.16495,-0.048 -1.4019,-0.28494 -0.60417,-0.60416 z m -9,-2 c 0.72187,-0.28887 1.58437,-0.25335 1.91667,0.0789 0.33229,0.33229 -0.25834,0.56864 -1.3125,0.52522 -1.16495,-0.048 -1.4019,-0.28494 -0.60417,-0.60416 z m -5,-1 c 0.72187,-0.28887 1.58437,-0.25335 1.91667,0.0789 0.33229,0.33229 -0.25834,0.56864 -1.3125,0.52522 -1.16495,-0.048 -1.4019,-0.28494 -0.60417,-0.60416 z M 269.19495,177.5 c 0.0204,-1.65 0.2445,-2.20394 0.49804,-1.23097 0.25354,0.97297 0.23687,2.32297 -0.0371,3 -0.27393,0.67703 -0.48137,-0.11903 -0.46099,-1.76903 z M 91.8125,177.31689 c 0.721875,-0.28887 1.584375,-0.25335 1.916667,0.0789 0.332291,0.33229 -0.258334,0.56864 -1.3125,0.52522 -1.164943,-0.048 -1.4019,-0.28494 -0.604167,-0.60416 z m -10.079167,-1.44098 c 0.678334,-0.68342 1.485241,-0.99067 1.793128,-0.68278 0.307888,0.30789 -0.247112,0.86705 -1.233333,1.24258 -1.425198,0.54268 -1.540062,0.42782 -0.559795,-0.5598 z m 5.079167,0.44098 c 0.721875,-0.28887 1.584375,-0.25335 1.916667,0.0789 0.332291,0.33229 -0.258334,0.56864 -1.3125,0.52522 -1.164943,-0.048 -1.4019,-0.28494 -0.604167,-0.60416 z m 360.26645,-1.90022 c 0.048,-1.16495 0.28494,-1.4019 0.60416,-0.60417 0.28887,0.72187 0.25335,1.58437 -0.0789,1.91667 -0.33229,0.33229 -0.56864,-0.25834 -0.52522,-1.3125 z m -179,-4 c 0.048,-1.16495 0.28494,-1.4019 0.60416,-0.60417 0.28887,0.72187 0.25335,1.58437 -0.0789,1.91667 -0.33229,0.33229 -0.56864,-0.25834 -0.52522,-1.3125 z m 182,-11 c 0.048,-1.16495 0.28494,-1.4019 0.60416,-0.60417 0.28887,0.72187 0.25335,1.58437 -0.0789,1.91667 -0.33229,0.33229 -0.56864,-0.25834 -0.52522,-1.3125 z M 451.15789,154 c 0,-1.375 0.22698,-1.9375 0.50439,-1.25 0.27741,0.6875 0.27741,1.8125 0,2.5 -0.27741,0.6875 -0.50439,0.125 -0.50439,-1.25 z m -166.7529,-1.25 -1.90499,-2.25 2.25,1.90499 c 2.11444,1.79022 2.70524,2.59501 1.90499,2.59501 -0.18976,0 -1.20226,-1.0125 -2.25,-2.25 z M 452.3605,138 c 0,-5.225 0.16854,-7.3625 0.37454,-4.75 0.206,2.6125 0.206,6.8875 0,9.5 -0.206,2.6125 -0.37454,0.475 -0.37454,-4.75 z m -1.20261,-16 c 0,-1.375 0.22698,-1.9375 0.50439,-1.25 0.27741,0.6875 0.27741,1.8125 0,2.5 -0.27741,0.6875 -0.50439,0.125 -0.50439,-1.25 z M 417.97111,56.25 411.5,49.5 l 6.75,6.471112 C 424.51969,61.981756 425.45713,63 424.72111,63 c -0.15339,0 -3.19089,-3.0375 -6.75,-6.75 z M 437.40499,43.75 435.5,41.5 l 2.25,1.904988 c 1.2375,1.047743 2.25,2.060243 2.25,2.25 0,0.800253 -0.80479,0.209457 -2.59501,-1.904988 z m -7.53255,-7.5 c -1.24387,-1.586056 -1.2085,-1.621426 0.37756,-0.377555 0.9625,0.754844 1.75,1.542344 1.75,1.75 0,0.823034 -0.82119,0.293303 -2.12756,-1.372445 z M 386,34 c -0.90129,-0.58246 -1.02463,-0.975486 -0.30902,-0.984687 0.65504,-0.0084 1.4691,0.434687 1.80902,0.984687 0.7673,1.241525 0.42112,1.241525 -1.5,0 z m -20.1875,-7.683114 c 0.72187,-0.288871 1.58438,-0.253344 1.91667,0.07895 0.33229,0.332292 -0.25834,0.568641 -1.3125,0.52522 -1.16495,-0.04798 -1.4019,-0.284941 -0.60417,-0.604167 z m -10,-2 c 0.72187,-0.288871 1.58438,-0.253344 1.91667,0.07895 0.33229,0.332292 -0.25834,0.568641 -1.3125,0.52522 -1.16495,-0.04798 -1.4019,-0.284941 -0.60417,-0.604167 z m -7.54347,-1.009877 c 0.97297,-0.253543 2.32297,-0.236869 3,0.03705 0.67703,0.273923 -0.11903,0.481368 -1.76903,0.460988 -1.65,-0.02038 -2.20394,-0.244498 -1.23097,-0.498042 z M 331.75,22.337719 c 0.6875,-0.277412 1.8125,-0.277412 2.5,0 0.6875,0.277413 0.125,0.504386 -1.25,0.504386 -1.375,0 -1.9375,-0.226973 -1.25,-0.504386 z M 320.40499,16.75 318.5,14.5 l 2.25,1.904988 c 1.2375,1.047743 2.25,2.060243 2.25,2.25 0,0.800253 -0.80479,0.209457 -2.59501,-1.904988 z M 314.07895,3.4166667 c 0.048,-1.164943 0.28494,-1.4018994 0.60416,-0.6041667 0.28887,0.721875 0.25335,1.584375 -0.0789,1.9166667 -0.33229,0.3322916 -0.56864,-0.2583334 -0.52522,-1.3125 z M 328.8125,0.31688596 c 0.72187,-0.28887061 1.58438,-0.25334429 1.91667,0.0789474 0.33229,0.33229167 -0.25834,0.56864035 -1.3125,0.5252193 -1.16495,-0.0479839 -1.4019,-0.2849403 -0.60417,-0.6041667 z M 343.75,0.3377193 c 0.6875,-0.27741228 1.8125,-0.27741228 2.5,0 0.6875,0.27741228 0.125,0.50438596 -1.25,0.50438596 -1.375,0 -1.9375,-0.22697368 -1.25,-0.50438596 z"
         id="path2590" />
      <path
         style="fill:#6b7987"
         d="M 378.3044,501.25 C 378.60932,499.7375 395.11985,422 414.99446,328.5 434.86907,235 451.60499,154.675 452.18538,150 457.66955,105.82559 433.27048,59.111106 393.22904,37.122099 377.92464,28.717593 357.83182,23 343.60103,23 334.08564,23 326.99319,21.337172 323.00959,18.172325 319.19875,15.144735 315,7.9041326 315,4.3600666 315,2.4217481 315.72087,2.0434149 320.75,1.3422929 323.9125,0.90140211 332.125,0.59190226 339,0.6545155 416.80627,1.3631268 478.46246,66.723514 474.69326,144.5 c -0.6477,13.3653 0.017,9.9589 -23.61105,121 -8.77744,41.25 -23.74921,111.78395 -33.27059,156.74212 L 400.5,503.98424 l -11.375,0.008 -11.375,0.008 0.5544,-2.75 z M 312,293.81289 C 305.67493,292.44538 213.57789,272.88133 129.5,255.04466 90.45,246.76042 56.774335,239.2258 54.665188,238.30108 47.258269,235.05362 41.330233,225.11737 42.172632,217.36173 L 42.5,214.34778 172,241.72939 c 124.05559,26.23043 129.73123,27.33748 135,26.33198 8.72857,-1.66578 14.04145,-6.47339 18.632,-16.86004 0.50426,-1.14094 6.0638,1.65899 9.76764,4.91924 11.72187,10.31801 9.52115,28.87578 -4.27927,36.08521 -5.74293,3.00014 -10.73612,3.41983 -19.12037,1.60711 z m -37,-54.40928 c -23.925,-5.14254 -54.075,-11.59621 -67,-14.3415 -12.925,-2.74529 -31.825,-6.76111 -42,-8.92406 -10.175,-2.16294 -35.02566,-7.43247 -55.2237,-11.71006 -20.198034,-4.2776 -37.221919,-8.08536 -37.830855,-8.46171 -1.302818,-0.80518 7.353096,-18.75987 9.427933,-19.55606 0.720205,-0.27637 38.618322,7.43339 84.218042,17.1328 62.81092,13.36037 84.06956,17.52715 87.69795,17.18915 5.46869,-0.50943 10.94927,-4.30371 14.21063,-9.83819 5.20602,-8.83456 -0.88712,-45.99397 -10.70526,-65.28671 -2.46125,-4.83639 -1.66971,-4.63799 8.56686,2.14725 10.98556,7.28171 27.25498,23.96528 35.10221,35.99578 C 315.02797,194.54537 323,220.02117 323,242.57236 c 0,6.03552 -0.13726,6.42013 -2.25,6.30448 -1.2375,-0.0677 -21.825,-4.33069 -45.75,-9.47323 z"
         id="path2588" />
    </g>
  </g>
</svg>
