<?xml version="1.0" encoding="UTF-8" standalone="no"?>
<!-- Created with Inkscape (http://www.inkscape.org/) -->

<svg
   version="1.1"
   id="svg2"
   width="512"
   height="512"
   viewBox="0 0 512 512"
   xmlns="http://www.w3.org/2000/svg"
   xmlns:svg="http://www.w3.org/2000/svg">
  <defs
     id="defs6" />
  <g
     id="g8">
    <g
       id="g170">
      <path
         style="fill:#f7988f"
         d="M 165.12375,437.45386 C 149.83034,433.25096 133.85826,420.14013 124.36907,404 c -2.74855,-4.675 -5.31366,-9.34428 -5.70025,-10.37617 -0.65043,-1.73617 -0.53372,-1.7665 1.56415,-0.40644 18.27088,11.84508 35.33948,18.42488 52.71513,20.32123 5.13917,0.56088 7.00195,1.25758 9.17646,3.4321 3.75027,3.75027 4.5922,8.91508 2.22857,13.67126 -3.53689,7.11708 -9.9073,9.37375 -19.22938,6.81188 z m 4.14528,-85.14685 c 0.97297,-0.25354 2.32297,-0.23687 3,0.0371 0.67703,0.27393 -0.11903,0.48137 -1.76903,0.46099 -1.65,-0.0204 -2.20394,-0.2445 -1.23097,-0.49804 z m 7.48097,-0.96929 c 0.6875,-0.27741 1.8125,-0.27741 2.5,0 0.6875,0.27741 0.125,0.50439 -1.25,0.50439 -1.375,0 -1.9375,-0.22698 -1.25,-0.50439 z M 98,344.65635 c -4.125,-1.23006 -10.207918,-3.6879 -13.517595,-5.46187 -7.317651,-3.92221 -17.746003,-11.95895 -17.027105,-13.12215 0.287435,-0.46508 2.160371,-1.15285 4.16208,-1.52837 2.001709,-0.37553 6.112673,-1.77654 9.135476,-3.11337 3.022803,-1.33682 5.777511,-2.43013 6.121574,-2.42957 0.344064,5.6e-4 1.929918,2.3233 3.524122,5.16164 1.594204,2.83835 5.222683,7.90039 8.063287,11.24899 6.052061,7.13436 9.118631,11.61006 7.903171,11.53477 -0.47576,-0.0295 -4.24001,-1.06 -8.36501,-2.29007 z m -22.393383,-68.1317 c -2.141361,-0.76316 -6.712082,-3.299 -10.157157,-5.6352 -5.787229,-3.92448 -6.191702,-4.43721 -5.316454,-6.73928 1.400022,-3.68234 7.028611,-10.97419 12.852296,-16.65017 4.379941,-4.26886 5.266456,-4.75966 6.062535,-3.35643 1.879384,3.31277 8.180352,10.47811 13.249052,15.06656 l 5.203111,4.71014 -2.595245,4.78986 c -4.574372,8.44261 -10.641826,10.89954 -19.298138,7.81452 z M 157.6763,242.57911 c -9.22279,-2.49964 -17.56258,-13.77977 -22.97786,-31.07911 -1.37735,-4.4 -2.82443,-10.14003 -3.21574,-12.75563 l -0.71148,-4.75563 4.36439,-1.91546 C 141.38972,189.32846 153.75372,187 162.07447,187 c 6.96973,0 7.13986,0.0594 6.44173,2.25 -0.39439,1.2375 -0.93986,7.875 -1.21216,14.75 -0.55213,13.93981 0.79265,22.06444 5.1456,31.08767 1.37538,2.85102 2.28171,5.538 2.01406,5.97107 -0.45867,0.74214 -2.82756,1.3552 -9.2137,2.38449 -1.5125,0.24378 -4.92067,-0.14507 -7.5737,-0.86412 z"
         id="path184" />
      <path
         style="fill:#a0a0a0"
         d="m 145.8125,456.31689 c 0.72187,-0.28887 1.58437,-0.25335 1.91667,0.0789 0.33229,0.33229 -0.25834,0.56864 -1.3125,0.52522 -1.16495,-0.048 -1.4019,-0.28494 -0.60417,-0.60416 z m 15,0 c 0.72187,-0.28887 1.58437,-0.25335 1.91667,0.0789 0.33229,0.33229 -0.25834,0.56864 -1.3125,0.52522 -1.16495,-0.048 -1.4019,-0.28494 -0.60417,-0.60416 z M 106.40499,438.75 104.5,436.5 l 2.25,1.90499 c 2.11444,1.79022 2.70524,2.59501 1.90499,2.59501 -0.18976,0 -1.20226,-1.0125 -2.25,-2.25 z m -6,-6 -1.90499,-2.25 2.25,1.90499 c 2.11444,1.79022 2.70524,2.59501 1.90499,2.59501 -0.18976,0 -1.20226,-1.0125 -2.25,-2.25 z m 129.55322,-42 c 2.45201,-2.6125 4.58951,-4.75 4.75,-4.75 0.75088,0 -0.043,0.89783 -4.45821,5.04179 L 225.5,395.5 Z M 35.404988,351.75 33.5,349.5 l 2.25,1.90499 c 1.2375,1.04774 2.25,2.06024 2.25,2.25 0,0.80025 -0.804794,0.20945 -2.595012,-1.90499 z M 181.15789,349 c 0,-1.375 0.22698,-1.9375 0.50439,-1.25 0.27741,0.6875 0.27741,1.8125 0,2.5 -0.27741,0.6875 -0.50439,0.125 -0.50439,-1.25 z m -48.88886,-3.69299 c 0.97297,-0.25354 2.32297,-0.23687 3,0.0371 0.67703,0.27393 -0.11903,0.48137 -1.76903,0.46099 -1.65,-0.0204 -2.20394,-0.2445 -1.23097,-0.49804 z m 80.54347,-9.99012 c 0.72187,-0.28887 1.58437,-0.25335 1.91667,0.0789 0.33229,0.33229 -0.25834,0.56864 -1.3125,0.52522 -1.16495,-0.048 -1.4019,-0.28494 -0.60417,-0.60416 z M 113.87244,330.25 c -1.24387,-1.58606 -1.2085,-1.62143 0.37756,-0.37756 0.9625,0.75485 1.75,1.54235 1.75,1.75 0,0.82304 -0.82119,0.29331 -2.12756,-1.37244 z m 266.94006,-0.93311 c 0.72187,-0.28887 1.58438,-0.25335 1.91667,0.0789 0.33229,0.33229 -0.25834,0.56864 -1.3125,0.52522 -1.16495,-0.048 -1.4019,-0.28494 -0.60417,-0.60416 z m -235,-11 c 0.72187,-0.28887 1.58437,-0.25335 1.91667,0.0789 0.33229,0.33229 -0.25834,0.56864 -1.3125,0.52522 -1.16495,-0.048 -1.4019,-0.28494 -0.60417,-0.60416 z M 0.07894737,292.41667 c 0.04798392,-1.16495 0.2849403,-1.4019 0.60416667,-0.60417 0.28887061,0.72187 0.25334429,1.58438 -0.0789474,1.91667 -0.33229167,0.33229 -0.56864035,-0.25834 -0.52521927,-1.3125 z M 435.87244,288.25 c -1.24387,-1.58606 -1.2085,-1.62143 0.37756,-0.37756 1.66575,1.30637 2.19548,2.12756 1.37244,2.12756 -0.20765,0 -0.99515,-0.7875 -1.75,-1.75 z M 118.15789,285 c 0,-1.375 0.22698,-1.9375 0.50439,-1.25 0.27741,0.6875 0.27741,1.8125 0,2.5 -0.27741,0.6875 -0.50439,0.125 -0.50439,-1.25 z m 14.92106,-4.58333 c 0.048,-1.16495 0.28494,-1.4019 0.60416,-0.60417 0.28887,0.72187 0.25335,1.58438 -0.0789,1.91667 -0.3323,0.33229 -0.56864,-0.25834 -0.52522,-1.3125 z M 117.15789,274 c 0,-1.375 0.22698,-1.9375 0.50439,-1.25 0.27741,0.6875 0.27741,1.8125 0,2.5 -0.27741,0.6875 -0.50439,0.125 -0.50439,-1.25 z m 15,-4 c 0,-1.375 0.22698,-1.9375 0.50439,-1.25 0.27741,0.6875 0.27741,1.8125 0,2.5 -0.27741,0.6875 -0.50439,0.125 -0.50439,-1.25 z m -18.34539,-0.68311 c 0.72187,-0.28887 1.58437,-0.25335 1.91667,0.0789 0.33229,0.33229 -0.25834,0.56864 -1.3125,0.52522 -1.16495,-0.048 -1.4019,-0.28494 -0.60417,-0.60416 z m 100.9152,-6.03862 c 1.77523,-0.22091 4.92523,-0.22454 7,-0.008 2.07476,0.21648 0.6223,0.39722 -3.2277,0.40166 -3.85,0.004 -5.54754,-0.17268 -3.7723,-0.39359 z m 18.0848,-0.96138 c 0.72187,-0.28887 1.58437,-0.25335 1.91667,0.0789 0.33229,0.33229 -0.25834,0.56864 -1.3125,0.52522 -1.16495,-0.048 -1.4019,-0.28494 -0.60417,-0.60416 z M 276.87244,246.25 c -1.24387,-1.58606 -1.2085,-1.62143 0.37756,-0.37756 0.9625,0.75485 1.75,1.54235 1.75,1.75 0,0.82304 -0.82119,0.29331 -2.12756,-1.37244 z M 14.078947,228.41667 c 0.04798,-1.16495 0.284941,-1.4019 0.604167,-0.60417 0.288871,0.72187 0.253344,1.58437 -0.07895,1.91667 -0.332292,0.33229 -0.568641,-0.25834 -0.52522,-1.3125 z M 386.25,204.31067 c 0.9625,-0.25152 2.5375,-0.25152 3.5,0 0.9625,0.25153 0.175,0.45733 -1.75,0.45733 -1.925,0 -2.7125,-0.2058 -1.75,-0.45733 z m 31.01903,-0.004 c 0.97297,-0.25354 2.32297,-0.23687 3,0.0371 0.67703,0.27393 -0.11903,0.48137 -1.76903,0.46099 -1.65,-0.0204 -2.20394,-0.2445 -1.23097,-0.49804 z m 11.54347,-0.99012 c 0.72187,-0.28887 1.58438,-0.25335 1.91667,0.0789 0.33229,0.33229 -0.25834,0.56864 -1.3125,0.52522 -1.16495,-0.048 -1.4019,-0.28494 -0.60417,-0.60416 z M 421.75,188.33772 c 0.6875,-0.27741 1.8125,-0.27741 2.5,0 0.6875,0.27741 0.125,0.50439 -1.25,0.50439 -1.375,0 -1.9375,-0.22698 -1.25,-0.50439 z M 481,168.68709 c 0,-0.1721 1.4625,-1.6346 3.25,-3.25 l 3.25,-2.93709 -2.93709,3.25 C 481.82513,168.77946 481,169.45965 481,168.68709 Z m 15.07895,-29.27042 c 0.048,-1.16495 0.28494,-1.4019 0.60416,-0.60417 0.28887,0.72187 0.25335,1.58437 -0.0789,1.91667 -0.33229,0.33229 -0.56864,-0.25834 -0.52522,-1.3125 z M 339.8125,131.31689 c 0.72187,-0.28887 1.58438,-0.25335 1.91667,0.0789 0.33229,0.33229 -0.25834,0.56864 -1.3125,0.52522 -1.16495,-0.048 -1.4019,-0.28494 -0.60417,-0.60416 z M 328.75,130.33772 c 0.6875,-0.27741 1.8125,-0.27741 2.5,0 0.6875,0.27741 0.125,0.50439 -1.25,0.50439 -1.375,0 -1.9375,-0.22698 -1.25,-0.50439 z m -9.9375,-1.02083 c 0.72187,-0.28887 1.58438,-0.25335 1.91667,0.0789 0.33229,0.33229 -0.25834,0.56864 -1.3125,0.52522 -1.16495,-0.048 -1.4019,-0.28494 -0.60417,-0.60416 z m -11,-1 c 0.72187,-0.28887 1.58438,-0.25335 1.91667,0.0789 0.33229,0.33229 -0.25834,0.56864 -1.3125,0.52522 -1.16495,-0.048 -1.4019,-0.28494 -0.60417,-0.60416 z M 296.75,127.33772 c 0.6875,-0.27741 1.8125,-0.27741 2.5,0 0.6875,0.27741 0.125,0.50439 -1.25,0.50439 -1.375,0 -1.9375,-0.22698 -1.25,-0.50439 z m 199.32895,-0.92105 c 0.048,-1.16495 0.28494,-1.4019 0.60416,-0.60417 0.28887,0.72187 0.25335,1.58438 -0.0789,1.91667 -0.33229,0.33229 -0.56864,-0.25834 -0.52522,-1.3125 z m -209.26645,-0.0998 c 0.72187,-0.28887 1.58438,-0.25335 1.91667,0.0789 0.33229,0.3323 -0.25834,0.56864 -1.3125,0.52522 -1.16495,-0.048 -1.4019,-0.28494 -0.60417,-0.60416 z m -11,-1 c 0.72187,-0.28887 1.58438,-0.25335 1.91667,0.0789 0.33229,0.3323 -0.25834,0.56864 -1.3125,0.52522 -1.16495,-0.048 -1.4019,-0.28494 -0.60417,-0.60416 z M 264.75,124.33772 c 0.6875,-0.27741 1.8125,-0.27741 2.5,0 0.6875,0.27741 0.125,0.50439 -1.25,0.50439 -1.375,0 -1.9375,-0.22698 -1.25,-0.50439 z m -9.9375,-1.02083 c 0.72187,-0.28887 1.58438,-0.25335 1.91667,0.0789 0.33229,0.3323 -0.25834,0.56864 -1.3125,0.52522 -1.16495,-0.048 -1.4019,-0.28494 -0.60417,-0.60416 z m 256.26645,-0.90022 c 0.048,-1.16495 0.28494,-1.4019 0.60416,-0.60417 0.28887,0.72187 0.25335,1.58437 -0.0789,1.91667 -0.33229,0.33229 -0.56864,-0.25834 -0.52522,-1.3125 z m -267.26645,-0.0998 c 0.72187,-0.28887 1.58437,-0.25335 1.91667,0.0789 0.33229,0.3323 -0.25834,0.56864 -1.3125,0.52522 -1.16495,-0.048 -1.4019,-0.28494 -0.60417,-0.60416 z m -16.04459,-1.04162 c 1.79735,-0.22256 4.49735,-0.21797 6,0.0102 1.50265,0.22818 0.0321,0.41027 -3.26791,0.40466 -3.3,-0.006 -4.52944,-0.1923 -2.73209,-0.41486 z m -74.95541,-0.95838 c 0.72187,-0.28887 1.58437,-0.25335 1.91667,0.0789 0.33229,0.3323 -0.25834,0.56864 -1.3125,0.52522 -1.16495,-0.048 -1.4019,-0.28494 -0.60417,-0.60416 z m 12.4375,-1.03314 c 1.5125,-0.22913 3.9875,-0.22913 5.5,0 1.5125,0.22912 0.275,0.41659 -2.75,0.41659 -3.025,0 -4.2625,-0.18747 -2.75,-0.41659 z m 15.51791,-0.008 c 1.79735,-0.22256 4.49735,-0.21797 6,0.0102 1.50265,0.22818 0.0321,0.41027 -3.26791,0.40466 -3.3,-0.006 -4.52944,-0.1923 -2.73209,-0.41486 z m 183.99375,0.0175 c 1.24391,-0.23919 3.04391,-0.23011 4,0.0202 0.95609,0.25029 -0.0617,0.446 -2.26166,0.4349 -2.2,-0.0111 -2.98225,-0.21589 -1.73834,-0.45508 z M 480.43709,91.75 477.5,88.5 l 3.25,2.937091 C 483.77946,94.174872 484.45965,95 483.68709,95 c -0.1721,0 -1.6346,-1.4625 -3.25,-3.25 z M 428.8125,71.316886 c 0.72187,-0.288871 1.58438,-0.253344 1.91667,0.07895 0.33229,0.332292 -0.25834,0.568641 -1.3125,0.52522 -1.16495,-0.04798 -1.4019,-0.284941 -0.60417,-0.604167 z m -16.54875,-1.034467 c 1.52006,-0.229855 3.77006,-0.223712 5,0.01365 1.22994,0.237362 -0.0138,0.425424 -2.76375,0.417917 -2.75,-0.0075 -3.75631,-0.201713 -2.23625,-0.431567 z m 8.00528,-14.97541 c 0.97297,-0.253543 2.32297,-0.236869 3,0.03705 0.67703,0.273923 -0.11903,0.481368 -1.76903,0.460988 -1.65,-0.02038 -2.20394,-0.244498 -1.23097,-0.498042 z"
         id="path182" />
      <path
         style="fill:#f67a66"
         d="M 138.47768,439.13241 C 117.81654,433.214 101.80208,414.50901 90.633385,383.25 l -2.590389,-7.25 4.728502,0.0179 c 4.359965,0.0165 5.468357,0.60102 14.221172,7.5 5.22097,4.11517 9.80315,7.48213 10.18261,7.48213 0.37947,0 1.00134,0.98113 1.38194,2.18029 0.3806,1.19916 2.96837,6.03666 5.75061,10.75 7.23996,12.26511 18.68875,23.44992 29.57763,28.89567 4.61201,2.30655 10.12451,4.47181 12.25,4.81169 8.91812,1.42607 0.7387,3.4164 -13.52503,3.29111 -4.46336,-0.0392 -10.81853,-0.84698 -14.13275,-1.79635 z M 184.3918,383.54695 C 173.34953,380.69223 161.27494,375.0571 149.569,367.2954 l -8.74043,-5.7954 8.83148,-0.5 8.83147,-0.5 2.42178,-3.75 c 2.12688,-3.29336 2.9189,-3.75903 6.50424,-3.82412 2.24535,-0.0408 6.10746,-0.39025 8.58246,-0.77663 4.07234,-0.63574 4.75196,-0.43862 7.15121,2.07413 3.40576,3.56687 5.44697,3.53411 20.57863,-0.33024 8.17632,-2.08809 13.33853,-2.9153 15.57484,-2.49576 6.43158,1.20657 11.0414,9.10328 9.3194,15.96429 -0.76874,3.0629 -8.43565,12.20132 -13.32991,15.88833 -3.37349,2.54136 -4.33873,2.74627 -12.72231,2.70083 -6.1433,-0.0333 -12.01215,-0.80931 -18.18006,-2.40388 z M 79,358.44497 C 67.592202,355.99486 56.582229,349.77633 47.400367,340.59721 42.945568,336.14375 38.767235,331.4875 38.115183,330.25 c -1.1842,-2.24744 -1.17611,-2.25001 7.099633,-2.25755 4.556851,-0.004 11.085631,-0.46204 14.508401,-1.01753 l 6.223216,-1.00997 6.159548,4.96342 c 9.221685,7.43092 18.229204,11.85588 30.644019,15.05392 3.99299,1.02859 4.25,1.30878 4.25,4.63318 0,2.5775 -0.79378,4.33216 -2.92308,6.46145 -2.75123,2.75123 -3.38322,2.91841 -10.749997,2.84358 C 89.022115,359.87678 82.575,359.21278 79,358.44497 Z M 55.019757,308.13112 c -1.223704,-4.40551 -1.357784,-22.80417 -0.171528,-23.53732 0.466525,-0.28833 3.88131,1.08634 7.588411,3.05482 7.503008,3.98411 15.165632,6.32159 20.781975,6.33951 3.107288,0.01 3.617265,0.29956 3.102118,1.76187 -2.447949,6.94879 -10.918187,12.32066 -23.081198,14.63822 l -7.211174,1.37403 z M 48.317717,256.25 C 42.915,250.8875 36.695811,243.85776 34.497298,240.62835 c -3.591379,-5.27539 -3.996931,-6.49397 -3.993684,-12 0.0029,-4.95395 0.561929,-7.08652 2.917057,-11.12835 3.337429,-5.72764 13.395523,-16.01397 18.744706,-19.17007 l 3.628552,-2.14089 3.272162,9.15548 c 3.480027,9.73708 12.230566,27.84849 16.257641,33.64921 l 2.425476,3.49372 -7.28781,7.74699 c -4.008295,4.26084 -8.114367,9.53956 -9.124604,11.73048 -1.010237,2.19091 -2.142605,3.99509 -2.516375,4.00928 -0.373769,0.0142 -5.099986,-4.3617 -10.502702,-9.7242 z M 108.5,251.11257 C 102.71098,247.79121 95.878925,240.7991 90.485519,232.67604 l -3.78094,-5.69451 1.859479,-4.12358 c 2.644393,-5.86422 9.526832,-12.32869 16.739252,-15.72268 10.37388,-4.88171 10.42636,-4.88142 11.69914,0.0639 3.65727,14.21014 8.72871,26.25759 14.42733,34.27283 4.04776,5.69326 3.85567,6.2102 -3.70833,9.9795 -6.98092,3.47874 -12.74448,3.3771 -19.22145,-0.33895 z m 145.66383,-4.8385 c -2.00677,-2.16018 -2.96406,-2.44398 -6.78941,-2.0128 -4.08125,0.46001 -4.6526,0.24034 -6.83971,-2.62966 -3.59882,-4.72251 -8.32573,-15.3101 -9.62857,-21.56662 -1.58769,-7.62441 -0.56019,-24.77625 2.02558,-33.81248 3.68224,-12.86798 12.35599,-30.45818 20.2184,-41.00251 4.77141,-6.39898 1.23148,-6.21806 44.00749,-2.24918 45.50155,4.22177 40.23028,2.97296 41.65449,9.86832 5.12833,24.82891 37.0343,31.13925 51.46983,10.17966 l 1.68822,-2.4512 9.76493,3.9512 c 5.3707,2.17316 9.72598,4.4012 9.67838,4.9512 -0.12692,1.46654 -27.46066,16.74597 -54.41346,30.41686 -25.10511,12.73371 -45.26363,21.94457 -66.02977,30.1704 -7.08597,2.80688 -13.41828,5.74768 -14.07179,6.53512 -0.65352,0.78744 -1.23552,2.77548 -1.29333,4.41787 -0.10018,2.84609 -0.48714,3.1028 -8.24972,5.47295 -9.75482,2.97844 -10.21014,2.97019 -13.19156,-0.23913 z M 128.93829,183.75 c -1.98327,-15.799 -1.83777,-32.51931 0.31728,-36.46111 2.24217,-4.10115 8.51442,-7.76897 16.75796,-9.79954 7.57947,-1.86699 39.73796,-3.18503 44.8114,-1.83663 l 3.32494,0.88369 -3.01994,3.80009 c -7.35079,9.24977 -16.78737,28.06794 -20.51653,40.9135 l -1.66927,5.75 h -7.01422 c -8.19861,0 -20.57956,2.34572 -26.80703,5.07891 -2.40741,1.0566 -4.49429,1.92109 -4.6375,1.92109 -0.14321,0 -0.8394,-4.6125 -1.54709,-10.25 z"
         id="path180" />
      <path
         style="fill:#ea615d"
         d="m 174.8125,413.31689 c 0.72187,-0.28887 1.58437,-0.25335 1.91667,0.0789 0.33229,0.33229 -0.25834,0.56864 -1.3125,0.52522 -1.16495,-0.048 -1.4019,-0.28494 -0.60417,-0.60416 z m -10.403,-16.80105 c -12.34941,-2.68696 -28.8654,-11.02615 -43.48821,-21.95789 l -6.57871,-4.91812 3.57871,-4.82076 3.57871,-4.82075 9.5,0.64069 9.5,0.6407 8.83034,5.87005 c 19.34808,12.86182 37.80594,19.18013 54.47562,18.64755 9.21174,-0.2943 9.28265,-0.27847 7.00304,1.56296 -3.76613,3.04223 -13.39227,7.5566 -19.51219,9.15064 -6.91857,1.80206 -18.61777,1.8042 -26.88731,0.005 z M 214,384.62244 c 0,-0.20765 0.7875,-0.99515 1.75,-1.75 1.58606,-1.24387 1.62143,-1.2085 0.37756,0.37756 C 214.82119,384.91575 214,385.44548 214,384.62244 Z M 222.5,376 c 0.99549,-1.1 2.03498,-2 2.30998,-2 0.275,0 -0.31449,0.9 -1.30998,2 -0.99549,1.1 -2.03498,2 -2.30998,2 -0.275,0 0.31449,-0.9 1.30998,-2 z M 94.25,360.31067 c 0.9625,-0.25152 2.5375,-0.25152 3.5,0 0.9625,0.25153 0.175,0.45733 -1.75,0.45733 -1.925,0 -2.7125,-0.2058 -1.75,-0.45733 z M 224.87244,354.25 c -1.24387,-1.58606 -1.2085,-1.62143 0.37756,-0.37756 1.66575,1.30637 2.19548,2.12756 1.37244,2.12756 -0.20765,0 -0.99515,-0.7875 -1.75,-1.75 z M 46.452948,340.75 42.5,336.5 l 4.25,3.95295 c 2.3375,2.17412 4.25,4.08662 4.25,4.25 0,0.75658 -0.87085,-4.9e-4 -4.547052,-3.95295 z M 53.8125,327.31689 c 0.721875,-0.28887 1.584375,-0.25335 1.916667,0.0789 0.332291,0.33229 -0.258334,0.56864 -1.3125,0.52522 -1.164943,-0.048 -1.4019,-0.28494 -0.604167,-0.60416 z M 36.3264,311.9381 c -16.197853,-3.1348 -24.209995,-18.74163 -19.941521,-38.84404 0.864903,-4.07326 2.92139,-10.28834 4.569972,-13.81127 l 2.997421,-6.40535 7.273864,8.24455 c 4.000625,4.53449 11.202855,11.51577 16.004956,15.51394 4.8021,3.99818 8.2896,7.54226 7.75,7.87576 -1.275046,0.78802 -1.273643,18.98145 0.0018,23.42868 0.540595,1.88494 0.878095,3.50667 0.75,3.60384 -0.96547,0.7324 -16.072966,1.03903 -19.406498,0.39389 z m 42.4861,-18.62121 c 0.721875,-0.28887 1.584375,-0.25335 1.916667,0.0789 0.332291,0.33229 -0.258334,0.56864 -1.3125,0.52522 -1.164943,-0.048 -1.4019,-0.28494 -0.604167,-0.60416 z m 6,0 c 0.721875,-0.28887 1.584375,-0.25335 1.916667,0.0789 0.332291,0.33229 -0.258334,0.56864 -1.3125,0.52522 -1.164943,-0.048 -1.4019,-0.28494 -0.604167,-0.60416 z M 53.404988,261.75 51.5,259.5 l 2.25,1.90499 C 55.864445,263.19521 56.455241,264 55.654988,264 c -0.189757,0 -1.202257,-1.0125 -2.25,-2.25 z m 35,-6 L 86.5,253.5 l 2.25,1.90499 C 90.864445,257.19521 91.455241,258 90.654988,258 c -0.189757,0 -1.202257,-1.0125 -2.25,-2.25 z m -48.532543,-7.5 c -1.243871,-1.58606 -1.208501,-1.62143 0.377555,-0.37756 0.9625,0.75485 1.75,1.54235 1.75,1.75 0,0.82304 -0.821186,0.29331 -2.127555,-1.37244 z m 94.460885,-1.70601 c 0,-0.80081 0.38234,-1.21971 0.84965,-0.9309 0.4673,0.28881 0.59075,0.94401 0.27431,1.45601 -0.80862,1.30838 -1.12396,1.16106 -1.12396,-0.52511 z m 71.60611,0.0912 c -7.22933,-1.94949 -11.01822,-4.72707 -15.61897,-11.45004 -6.1773,-9.02674 -7.8376,-15.28862 -7.73827,-29.18516 0.072,-10.0757 0.471,-12.6766 3.22137,-21 5.26237,-15.92538 16.5722,-36.01972 22.8612,-40.61779 5.03189,-3.67896 11.17199,-6.3981 15.9159,-7.04832 2.52288,-0.3458 12.08682,-0.006 21.25319,0.75607 9.16638,0.76164 15.42002,1.5337 13.89699,1.71569 -6.07813,0.72629 -21.23101,26.98846 -26.79913,46.44686 -2.58577,9.03623 -3.61327,26.18807 -2.02558,33.81248 1.31644,6.32182 6.03956,16.85704 9.72587,21.69418 2.86761,3.76285 3.00024,3.66895 -7.32356,5.18486 -9.37046,1.37591 -21.63462,1.23752 -27.36901,-0.30883 z m 69.13951,-5.21853 c 0.048,-1.16495 0.28494,-1.4019 0.60416,-0.60417 0.28887,0.72187 0.25335,1.58437 -0.0789,1.91667 -0.33229,0.33229 -0.56864,-0.25834 -0.52522,-1.3125 z M 80.163503,215.15013 C 68.156005,190.42265 68.247055,177.99439 80.51482,167.19587 85.541283,162.7714 98.240544,157.5676 106.77398,156.4356 l 4.90949,-0.65127 0.6291,13.85783 c 0.56515,12.44902 2.64314,29.00281 4.2662,33.98549 0.43893,1.34748 0.3448,1.50275 -0.33578,0.55387 -0.76273,-1.06343 -2.13019,-0.83717 -7.06893,1.16962 C 98.447291,209.70982 92.514416,214.9966 87.685039,224.5 l -1.524522,3 z m 47.915447,-33.73346 c 0.048,-1.16495 0.28494,-1.4019 0.60416,-0.60417 0.28887,0.72187 0.25335,1.58437 -0.0789,1.91667 -0.3323,0.33229 -0.56864,-0.25834 -0.52522,-1.3125 z M 127.15789,170 c 0,-1.375 0.22698,-1.9375 0.50439,-1.25 0.27741,0.6875 0.27741,1.8125 0,2.5 -0.27741,0.6875 -0.50439,0.125 -0.50439,-1.25 z m 218.71455,-2.75 c -1.24387,-1.58606 -1.2085,-1.62143 0.37756,-0.37756 0.9625,0.75485 1.75,1.54235 1.75,1.75 0,0.82304 -0.82119,0.29331 -2.12756,-1.37244 z M 385,168.62244 c 0,-0.20765 0.7875,-0.99515 1.75,-1.75 1.58606,-1.24387 1.62143,-1.2085 0.37756,0.37756 C 385.82119,168.91575 385,169.44548 385,168.62244 Z m -61.1875,-23.30555 c 0.72187,-0.28887 1.58438,-0.25335 1.91667,0.0789 0.33229,0.33229 -0.25834,0.56864 -1.3125,0.52522 -1.16495,-0.048 -1.4019,-0.28494 -0.60417,-0.60416 z m -11,-1 c 0.72187,-0.28887 1.58438,-0.25335 1.91667,0.0789 0.33229,0.33229 -0.25834,0.56864 -1.3125,0.52522 -1.16495,-0.048 -1.4019,-0.28494 -0.60417,-0.60416 z m -21,-2 c 0.72187,-0.28887 1.58438,-0.25335 1.91667,0.0789 0.33229,0.33229 -0.25834,0.56864 -1.3125,0.52522 -1.16495,-0.048 -1.4019,-0.28494 -0.60417,-0.60416 z m -11,-1 c 0.72187,-0.28887 1.58438,-0.25335 1.91667,0.0789 0.33229,0.33229 -0.25834,0.56864 -1.3125,0.52522 -1.16495,-0.048 -1.4019,-0.28494 -0.60417,-0.60416 z m -123,-6 c 0.72187,-0.28887 1.58437,-0.25335 1.91667,0.0789 0.33229,0.33229 -0.25834,0.56864 -1.3125,0.52522 -1.16495,-0.048 -1.4019,-0.28494 -0.60417,-0.60416 z"
         id="path178" />
      <path
         style="fill:#3d6b8c"
         d="M 357.88235,156.11765 C 354.49001,152.72531 354,151.65062 354,147.60296 c 0,-3.83227 0.56142,-5.24494 3.2506,-8.17935 C 365.21326,130.73484 379,135.85439 379,147.5 c 0,7.30095 -5.41614,12.5 -13.02194,12.5 -3.56097,0 -4.81449,-0.60114 -8.09571,-3.88235 z"
         id="path176" />
      <path
         style="fill:#615f5f"
         d="m 150.75,456.2766 c 1.7875,-0.22182 4.7125,-0.22182 6.5,0 1.7875,0.22183 0.325,0.40333 -3.25,0.40333 -3.575,0 -5.0375,-0.1815 -3.25,-0.40333 z m -0.5,-15.00507 c 2.0625,-0.21574 5.4375,-0.21574 7.5,0 2.0625,0.21575 0.375,0.39226 -3.75,0.39226 -4.125,0 -5.8125,-0.17651 -3.75,-0.39226 z M 181.5,435 c 0.99549,-1.1 2.03498,-2 2.30998,-2 0.275,0 -0.31449,0.9 -1.30998,2 -0.99549,1.1 -2.03498,2 -2.30998,2 -0.275,0 0.31449,-0.9 1.30998,-2 z m -67.62756,-9.75 c -1.24387,-1.58606 -1.2085,-1.62143 0.37756,-0.37756 0.9625,0.75485 1.75,1.54235 1.75,1.75 0,0.82304 -0.82119,0.29331 -2.12756,-1.37244 z m 68,-9 c -1.24387,-1.58606 -1.2085,-1.62143 0.37756,-0.37756 1.66575,1.30637 2.19548,2.12756 1.37244,2.12756 -0.20765,0 -0.99515,-0.7875 -1.75,-1.75 z m -15.05994,-3.93311 c 0.72187,-0.28887 1.58437,-0.25335 1.91667,0.0789 0.33229,0.33229 -0.25834,0.56864 -1.3125,0.52522 -1.16495,-0.048 -1.4019,-0.28494 -0.60417,-0.60416 z M 235,384.62244 c 0,-0.20765 0.7875,-0.99515 1.75,-1.75 1.58606,-1.24387 1.62143,-1.2085 0.37756,0.37756 C 235.82119,384.91575 235,385.44548 235,384.62244 Z M 89.269032,375.30701 c 0.972967,-0.25354 2.322967,-0.23687 3,0.0371 0.677032,0.27393 -0.119032,0.48137 -1.769032,0.46099 -1.65,-0.0204 -2.203936,-0.2445 -1.230968,-0.49804 z M 229.232,364 c 0,-1.925 0.2058,-2.7125 0.45733,-1.75 0.25152,0.9625 0.25152,2.5375 0,3.5 -0.25153,0.9625 -0.45733,0.175 -0.45733,-1.75 z m 15,0 c 0,-1.925 0.2058,-2.7125 0.45733,-1.75 0.25152,0.9625 0.25152,2.5375 0,3.5 -0.25153,0.9625 -0.45733,0.175 -0.45733,-1.75 z M 89.269032,360.30701 c 0.972967,-0.25354 2.322967,-0.23687 3,0.0371 0.677032,0.27393 -0.119032,0.48137 -1.769032,0.46099 -1.65,-0.0204 -2.203936,-0.2445 -1.230968,-0.49804 z m 39.999998,0 c 0.97297,-0.25354 2.32297,-0.23687 3,0.0371 0.67703,0.27393 -0.11903,0.48137 -1.76903,0.46099 -1.65,-0.0204 -2.20394,-0.2445 -1.23097,-0.49804 z M 103,358.62244 c 0,-0.20765 0.7875,-0.99515 1.75,-1.75 1.58606,-1.24387 1.62143,-1.2085 0.37756,0.37756 C 103.82119,358.91575 103,359.44548 103,358.62244 Z m 112.26903,-8.31543 c 0.97297,-0.25354 2.32297,-0.23687 3,0.0371 0.67703,0.27393 -0.11903,0.48137 -1.76903,0.46099 -1.65,-0.0204 -2.20394,-0.2445 -1.23097,-0.49804 z M 127.75,345.33772 c 0.6875,-0.27741 1.8125,-0.27741 2.5,0 0.6875,0.27741 0.125,0.50439 -1.25,0.50439 -1.375,0 -1.9375,-0.22698 -1.25,-0.50439 z M 100.87244,338.25 c -1.243866,-1.58606 -1.208496,-1.62143 0.37756,-0.37756 0.9625,0.75485 1.75,1.54235 1.75,1.75 0,0.82304 -0.82119,0.29331 -2.12756,-1.37244 z M 215.75,335.33772 c 0.6875,-0.27741 1.8125,-0.27741 2.5,0 0.6875,0.27741 0.125,0.50439 -1.25,0.50439 -1.375,0 -1.9375,-0.22698 -1.25,-0.50439 z M 95.872445,332.25 c -1.243871,-1.58606 -1.208501,-1.62143 0.377555,-0.37756 0.9625,0.75485 1.75,1.54235 1.75,1.75 0,0.82304 -0.821186,0.29331 -2.127555,-1.37244 z M 36,327.86133 C 36,327.3876 37.125,327 38.5,327 c 1.375,0 2.5,0.17254 2.5,0.38342 0,0.21089 -1.125,0.59848 -2.5,0.86133 -1.375,0.26285 -2.5,0.0903 -2.5,-0.38342 z m 11.761659,-0.56859 c 1.243913,-0.23919 3.043913,-0.23011 4,0.0202 0.956088,0.25029 -0.06166,0.446 -2.261659,0.4349 -2.2,-0.0111 -2.982253,-0.21589 -1.738341,-0.45508 z M 37.8125,312.31689 c 0.721875,-0.28887 1.584375,-0.25335 1.916667,0.0789 0.332291,0.33229 -0.258334,0.56864 -1.3125,0.52522 -1.164943,-0.048 -1.4019,-0.28494 -0.604167,-0.60416 z m 8.949159,-0.0242 c 1.243913,-0.23919 3.043913,-0.23011 4,0.0202 0.956088,0.25029 -0.06166,0.446 -2.261659,0.4349 -2.2,-0.0111 -2.982253,-0.21589 -1.738341,-0.45508 z M 150.87244,305.25 c -1.24387,-1.58606 -1.2085,-1.62143 0.37756,-0.37756 0.9625,0.75485 1.75,1.54235 1.75,1.75 0,0.82304 -0.82119,0.29331 -2.12756,-1.37244 z M 81,303.62244 c 0,-0.20765 0.7875,-0.99515 1.75,-1.75 1.586056,-1.24387 1.621426,-1.2085 0.377555,0.37756 C 81.821186,303.91575 81,304.44548 81,303.62244 Z m 0.8125,-10.30555 c 0.721875,-0.28887 1.584375,-0.25335 1.916667,0.0789 0.332291,0.33229 -0.258334,0.56864 -1.3125,0.52522 -1.164943,-0.048 -1.4019,-0.28494 -0.604167,-0.60416 z m 37.26645,-0.90022 c 0.048,-1.16495 0.28494,-1.4019 0.60416,-0.60417 0.28887,0.72187 0.25335,1.58438 -0.0789,1.91667 -0.3323,0.33229 -0.56864,-0.25834 -0.52522,-1.3125 z m -119.00000263,-3 c 0.04798392,-1.16495 0.2849403,-1.4019 0.60416667,-0.60417 0.28887061,0.72187 0.25334429,1.58438 -0.0789474,1.91667 -0.33229167,0.33229 -0.56864035,-0.25834 -0.52521927,-1.3125 z M 133.15789,284 c 0,-1.375 0.22698,-1.9375 0.50439,-1.25 0.27741,0.6875 0.27741,1.8125 0,2.5 -0.27741,0.6875 -0.50439,0.125 -0.50439,-1.25 z m -15.07894,-2.58333 c 0.048,-1.16495 0.28494,-1.4019 0.60416,-0.60417 0.28887,0.72187 0.25335,1.58438 -0.0789,1.91667 -0.3323,0.33229 -0.56864,-0.25834 -0.52522,-1.3125 z m -118.00000263,-5 c 0.04798392,-1.16495 0.2849403,-1.4019 0.60416667,-0.60417 0.28887061,0.72187 0.25334429,1.58438 -0.0789474,1.91667 -0.33229167,0.33229 -0.56864035,-0.25834 -0.52521927,-1.3125 z m 14.99999963,0 c 0.04798,-1.16495 0.284941,-1.4019 0.604167,-0.60417 0.288871,0.72187 0.253344,1.58438 -0.07895,1.91667 -0.332292,0.33229 -0.568641,-0.25834 -0.52522,-1.3125 z M 90,275.62244 c 0,-0.20765 0.7875,-0.99515 1.75,-1.75 1.586056,-1.24387 1.621426,-1.2085 0.377555,0.37756 C 90.821186,275.91575 90,276.44548 90,275.62244 Z m 42.07895,-2.20577 c 0.048,-1.16495 0.28494,-1.4019 0.60416,-0.60417 0.28887,0.72187 0.25335,1.58438 -0.0789,1.91667 -0.3323,0.33229 -0.56864,-0.25834 -0.52522,-1.3125 z M 37.468697,267.75 31.5,261.5 l 6.25,5.9687 c 5.805717,5.54441 6.707599,6.5313 5.968697,6.5313 -0.154717,0 -2.967217,-2.8125 -6.25,-6.25 z m 79.095593,2.54313 c -0.54268,-1.4252 -0.42782,-1.54006 0.5598,-0.5598 0.68342,0.67834 0.99067,1.48524 0.68278,1.79313 -0.30789,0.30789 -0.86705,-0.24711 -1.24258,-1.23333 z M 46.437091,255.75 43.5,252.5 l 3.25,2.93709 C 49.779455,258.17487 50.459652,259 49.687091,259 c -0.1721,0 -1.6346,-1.4625 -3.25,-3.25 z M 116.25,254.31067 c 0.9625,-0.25152 2.5375,-0.25152 3.5,0 0.9625,0.25153 0.175,0.45733 -1.75,0.45733 -1.925,0 -2.7125,-0.2058 -1.75,-0.45733 z m 139.82895,-2.894 c 0.048,-1.16495 0.28494,-1.4019 0.60416,-0.60417 0.28887,0.72187 0.25335,1.58437 -0.0789,1.91667 -0.33229,0.33229 -0.56864,-0.25834 -0.52522,-1.3125 z M 82.872445,249.25 c -1.243871,-1.58606 -1.208501,-1.62143 0.377555,-0.37756 0.9625,0.75485 1.75,1.54235 1.75,1.75 0,0.82304 -0.821186,0.29331 -2.127555,-1.37244 z M 99.452948,244.75 95.5,240.5 l 4.25,3.95295 c 3.95246,3.6762 4.70953,4.54705 3.95295,4.54705 -0.16338,0 -2.07588,-1.9125 -4.250002,-4.25 z m 130.359552,2.56689 c 0.72187,-0.28887 1.58437,-0.25335 1.91667,0.0789 0.33229,0.33229 -0.25834,0.56864 -1.3125,0.52522 -1.16495,-0.048 -1.4019,-0.28494 -0.60417,-0.60416 z m 17.9375,-2.97917 c 0.6875,-0.27741 1.8125,-0.27741 2.5,0 0.6875,0.27741 0.125,0.50439 -1.25,0.50439 -1.375,0 -1.9375,-0.22698 -1.25,-0.50439 z m -79.9375,-1.02083 c 0.72187,-0.28887 1.58437,-0.25335 1.91667,0.0789 0.33229,0.33229 -0.25834,0.56864 -1.3125,0.52522 -1.16495,-0.048 -1.4019,-0.28494 -0.60417,-0.60416 z M 407.87244,226.25 c -1.24387,-1.58606 -1.2085,-1.62143 0.37756,-0.37756 1.66575,1.30637 2.19548,2.12756 1.37244,2.12756 -0.20765,0 -0.99515,-0.7875 -1.75,-1.75 z m -240.79349,-9.83333 c 0.048,-1.16495 0.28494,-1.4019 0.60416,-0.60417 0.28887,0.72187 0.25335,1.58437 -0.0789,1.91667 -0.3323,0.33229 -0.56864,-0.25834 -0.52522,-1.3125 z m 15,0 c 0.048,-1.16495 0.28494,-1.4019 0.60416,-0.60417 0.28887,0.72187 0.25335,1.58437 -0.0789,1.91667 -0.3323,0.33229 -0.56864,-0.25834 -0.52522,-1.3125 z M 39,208.68709 c 0,-0.1721 1.4625,-1.6346 3.25,-3.25 L 45.5,202.5 42.562909,205.75 C 39.825128,208.77946 39,209.45965 39,208.68709 Z m 354.7277,-4.40882 c 1.77523,-0.22091 4.92523,-0.22454 7,-0.008 2.07476,0.21648 0.6223,0.39722 -3.2277,0.40166 -3.85,0.004 -5.54754,-0.17268 -3.7723,-0.39359 z m 15.53605,0.004 c 1.52006,-0.22986 3.77006,-0.22371 5,0.0136 1.22994,0.23736 -0.0138,0.42542 -2.76375,0.41792 -2.75,-0.008 -3.75631,-0.20172 -2.23625,-0.43157 z m 16.54875,-0.96553 c 0.72187,-0.28887 1.58438,-0.25335 1.91667,0.0789 0.33229,0.33229 -0.25834,0.56864 -1.3125,0.52522 -1.16495,-0.048 -1.4019,-0.28494 -0.60417,-0.60416 z m -258.73355,-4.90022 c 0.048,-1.16495 0.28494,-1.4019 0.60416,-0.60417 0.28887,0.72187 0.25335,1.58437 -0.0789,1.91667 -0.3323,0.33229 -0.56864,-0.25834 -0.52522,-1.3125 z M 31,195.5 c 1.865783,-1.925 3.617334,-3.5 3.892334,-3.5 0.275,0 -1.026551,1.575 -2.892334,3.5 -1.865783,1.925 -3.617334,3.5 -3.892334,3.5 -0.275,0 1.026551,-1.575 2.892334,-3.5 z m 380.76166,-6.20726 c 1.24391,-0.23919 3.04391,-0.23011 4,0.0202 0.95609,0.25029 -0.0617,0.446 -2.26166,0.4349 -2.2,-0.0111 -2.98225,-0.21589 -1.73834,-0.45508 z m 14.05084,-0.97585 c 0.72187,-0.28887 1.58438,-0.25335 1.91667,0.0789 0.33229,0.33229 -0.25834,0.56864 -1.3125,0.52522 -1.16495,-0.048 -1.4019,-0.28494 -0.60417,-0.60416 z m -312.73355,-3.90022 c 0.048,-1.16495 0.28494,-1.4019 0.60416,-0.60417 0.28887,0.72187 0.25335,1.58437 -0.0789,1.91667 -0.3323,0.33229 -0.56864,-0.25834 -0.52522,-1.3125 z M 490,180.62244 c 0,-0.20765 0.7875,-0.99515 1.75,-1.75 1.58606,-1.24387 1.62143,-1.2085 0.37756,0.37756 C 490.82119,180.91575 490,181.44548 490,180.62244 Z M 127.19495,174.5 c 0.0204,-1.65 0.2445,-2.20394 0.49804,-1.23097 0.25354,0.97297 0.23687,2.32297 -0.037,3 -0.27393,0.67703 -0.48137,-0.11903 -0.46099,-1.76903 z m -15,-1 c 0.0204,-1.65 0.2445,-2.20394 0.49804,-1.23097 0.25354,0.97297 0.23687,2.32297 -0.037,3 -0.27393,0.67703 -0.48137,-0.11903 -0.46099,-1.76903 z m 253.07408,1.80701 c 0.97297,-0.25354 2.32297,-0.23687 3,0.0371 0.67703,0.27393 -0.11903,0.48137 -1.76903,0.46099 -1.65,-0.0204 -2.20394,-0.2445 -1.23097,-0.49804 z M 78,168.5 c 1.291745,-1.375 2.573628,-2.5 2.848628,-2.5 0.275,0 -0.556883,1.125 -1.848628,2.5 -1.291745,1.375 -2.573628,2.5 -2.848628,2.5 -0.275,0 0.556883,-1.125 1.848628,-2.5 z m -13,-7.81291 c 0,-0.1721 1.4625,-1.6346 3.25,-3.25 L 71.5,154.5 68.562909,157.75 C 65.825128,160.77946 65,161.45965 65,160.68709 Z M 356.87244,156.25 c -1.24387,-1.58606 -1.2085,-1.62143 0.37756,-0.37756 0.9625,0.75485 1.75,1.54235 1.75,1.75 0,0.82304 -0.82119,0.29331 -2.12756,-1.37244 z M 338,148.75 c 0,-0.87083 -0.5625,-1.81031 -1.25,-2.08772 -0.97906,-0.39506 -0.97226,-0.5215 0.0314,-0.58333 1.42594,-0.0879 2.81771,2.65529 1.84216,3.63084 C 338.28059,150.05274 338,149.62083 338,148.75 Z m -11.25,-3.41228 c 0.6875,-0.27741 1.8125,-0.27741 2.5,0 0.6875,0.27741 0.125,0.50439 -1.25,0.50439 -1.375,0 -1.9375,-0.22698 -1.25,-0.50439 z m -11,-1 c 0.6875,-0.27741 1.8125,-0.27741 2.5,0 0.6875,0.27741 0.125,0.50439 -1.25,0.50439 -1.375,0 -1.9375,-0.22698 -1.25,-0.50439 z m -11,-1 c 0.6875,-0.27741 1.8125,-0.27741 2.5,0 0.6875,0.27741 0.125,0.50439 -1.25,0.50439 -1.375,0 -1.9375,-0.22698 -1.25,-0.50439 z m -10,-1 c 0.6875,-0.27741 1.8125,-0.27741 2.5,0 0.6875,0.27741 0.125,0.50439 -1.25,0.50439 -1.375,0 -1.9375,-0.22698 -1.25,-0.50439 z m -11,-1 c 0.6875,-0.27741 1.8125,-0.27741 2.5,0 0.6875,0.27741 0.125,0.50439 -1.25,0.50439 -1.375,0 -1.9375,-0.22698 -1.25,-0.50439 z m 227.32895,-0.92105 c 0.048,-1.16495 0.28494,-1.4019 0.60416,-0.60417 0.28887,0.72187 0.25335,1.58437 -0.0789,1.91667 -0.33229,0.33229 -0.56864,-0.25834 -0.52522,-1.3125 z m -401.26645,-0.0998 c 0.72187,-0.28887 1.58437,-0.25335 1.91667,0.0789 0.33229,0.33229 -0.25834,0.56864 -1.3125,0.52522 -1.16495,-0.048 -1.4019,-0.28494 -0.60417,-0.60416 z m 162.9375,0.0208 c 0.6875,-0.27741 1.8125,-0.27741 2.5,0 0.6875,0.27741 0.125,0.50439 -1.25,0.50439 -1.375,0 -1.9375,-0.22698 -1.25,-0.50439 z m -10,-1 c 0.6875,-0.27741 1.8125,-0.27741 2.5,0 0.6875,0.27741 0.125,0.50439 -1.25,0.50439 -1.375,0 -1.9375,-0.22698 -1.25,-0.50439 z m 93.25,0.28472 c 0,-0.20765 0.7875,-0.99515 1.75,-1.75 1.58606,-1.24387 1.62143,-1.2085 0.37756,0.37756 -1.30637,1.6658 -2.12756,2.19553 -2.12756,1.37249 z m -104.25,-1.28472 c 0.6875,-0.27741 1.8125,-0.27741 2.5,0 0.6875,0.27741 0.125,0.50439 -1.25,0.50439 -1.375,0 -1.9375,-0.22698 -1.25,-0.50439 z m -11,-1 c 0.6875,-0.27741 1.8125,-0.27741 2.5,0 0.6875,0.27741 0.125,0.50439 -1.25,0.50439 -1.375,0 -1.9375,-0.22698 -1.25,-0.50439 z m -12.5,-1.02705 c 0.9625,-0.25152 2.5375,-0.25152 3.5,0 0.9625,0.25153 0.175,0.45733 -1.75,0.45733 -1.925,0 -2.7125,-0.2058 -1.75,-0.45733 z M 119.5,134 c 0.99549,-1.1 2.03498,-2 2.30998,-2 0.275,0 -0.31449,0.9 -1.30998,2 -0.99549,1.1 -2.03498,2 -2.30998,2 -0.275,0 0.31449,-0.9 1.30998,-2 z m 35.3125,1.31689 c 0.72187,-0.28887 1.58437,-0.25335 1.91667,0.0789 0.33229,0.33229 -0.25834,0.56864 -1.3125,0.52522 -1.16495,-0.048 -1.4019,-0.28494 -0.60417,-0.60416 z m 15.97669,-1.0583 c 3.45905,-0.19583 8.85905,-0.19422 12,0.004 3.14094,0.19781 0.31081,0.35803 -6.28919,0.35606 -6.6,-0.002 -9.16987,-0.16382 -5.71081,-0.35965 z m 166.02331,-2.9417 c 0.72187,-0.28887 1.58438,-0.25335 1.91667,0.0789 0.33229,0.33229 -0.25834,0.56864 -1.3125,0.52522 -1.16495,-0.048 -1.4019,-0.28494 -0.60417,-0.60416 z m -11,-1 c 0.72187,-0.28887 1.58438,-0.25335 1.91667,0.0789 0.33229,0.33229 -0.25834,0.56864 -1.3125,0.52522 -1.16495,-0.048 -1.4019,-0.28494 -0.60417,-0.60416 z M 314.75,129.33772 c 0.6875,-0.27741 1.8125,-0.27741 2.5,0 0.6875,0.27741 0.125,0.50439 -1.25,0.50439 -1.375,0 -1.9375,-0.22698 -1.25,-0.50439 z m -9.9375,-1.02083 c 0.72187,-0.28887 1.58438,-0.25335 1.91667,0.0789 0.33229,0.33229 -0.25834,0.56864 -1.3125,0.52522 -1.16495,-0.048 -1.4019,-0.28494 -0.60417,-0.60416 z m -11,-1 c 0.72187,-0.28887 1.58438,-0.25335 1.91667,0.0789 0.33229,0.3323 -0.25834,0.56864 -1.3125,0.52522 -1.16495,-0.048 -1.4019,-0.28494 -0.60417,-0.60416 z M 511.15789,126 c 0,-1.375 0.22698,-1.9375 0.50439,-1.25 0.27741,0.6875 0.27741,1.8125 0,2.5 -0.27741,0.6875 -0.50439,0.125 -0.50439,-1.25 z M 282.75,126.33772 c 0.6875,-0.27741 1.8125,-0.27741 2.5,0 0.6875,0.27741 0.125,0.50439 -1.25,0.50439 -1.375,0 -1.9375,-0.22698 -1.25,-0.50439 z m -9.9375,-1.02083 c 0.72187,-0.28887 1.58438,-0.25335 1.91667,0.0789 0.33229,0.3323 -0.25834,0.56864 -1.3125,0.52522 -1.16495,-0.048 -1.4019,-0.28494 -0.60417,-0.60416 z m -11,-1 c 0.72187,-0.28887 1.58438,-0.25335 1.91667,0.0789 0.33229,0.3323 -0.25834,0.56864 -1.3125,0.52522 -1.16495,-0.048 -1.4019,-0.28494 -0.60417,-0.60416 z M 250.75,123.33772 c 0.6875,-0.27741 1.8125,-0.27741 2.5,0 0.6875,0.27741 0.125,0.50439 -1.25,0.50439 -1.375,0 -1.9375,-0.22698 -1.25,-0.50439 z m -9.9375,-1.02083 c 0.72187,-0.28887 1.58437,-0.25335 1.91667,0.0789 0.33229,0.3323 -0.25834,0.56864 -1.3125,0.52522 -1.16495,-0.048 -1.4019,-0.28494 -0.60417,-0.60416 z m -85,-2 c 0.72187,-0.28887 1.58437,-0.25335 1.91667,0.0789 0.33229,0.3323 -0.25834,0.56864 -1.3125,0.52522 -1.16495,-0.048 -1.4019,-0.28494 -0.60417,-0.60416 z m 18.45653,-1.00988 c 0.97297,-0.25354 2.32297,-0.23687 3,0.037 0.67703,0.27393 -0.11903,0.48137 -1.76903,0.46099 -1.65,-0.0204 -2.20394,-0.2445 -1.23097,-0.49804 z M 487.87244,78.25 c -1.24387,-1.586056 -1.2085,-1.621426 0.37756,-0.377555 0.9625,0.754844 1.75,1.542344 1.75,1.75 0,0.823034 -0.82119,0.293303 -2.12756,-1.372445 z M 431.8125,71.316886 c 0.72187,-0.288871 1.58438,-0.253344 1.91667,0.07895 0.33229,0.332292 -0.25834,0.568641 -1.3125,0.52522 -1.16495,-0.04798 -1.4019,-0.284941 -0.60417,-0.604167 z m -11.54347,-1.009877 c 0.97297,-0.253543 2.32297,-0.236869 3,0.03705 0.67703,0.273923 -0.11903,0.481368 -1.76903,0.460988 -1.65,-0.02038 -2.20394,-0.244498 -1.23097,-0.498042 z M 404,58.622445 c 0,-0.207656 0.7875,-0.995156 1.75,-1.75 1.58606,-1.243871 1.62143,-1.208501 0.37756,0.377555 C 404.82119,58.915748 404,59.445479 404,58.622445 Z m 24.75,-2.284726 c 0.6875,-0.277412 1.8125,-0.277412 2.5,0 0.6875,0.277413 0.125,0.504386 -1.25,0.504386 -1.375,0 -1.9375,-0.226973 -1.25,-0.504386 z m -17.5,-1.053973 c 1.5125,-0.229125 3.9875,-0.229125 5.5,0 1.5125,0.229124 0.275,0.41659 -2.75,0.41659 -3.025,0 -4.2625,-0.187466 -2.75,-0.41659 z"
         id="path174" />
      <path
         style="fill:#010000"
         d="M 136.91637,454.47765 C 108.59312,447.60069 85.35105,420.2381 73.898666,380.2877 l -2.249498,-7.84712 -7.074584,-2.69363 C 44.198415,361.98879 28.118213,346.52373 18.2743,325.21787 16.361849,321.07862 13.204611,316.07377 11.258216,314.09598 6.2291987,308.98585 2.0033116,299.42235 0.80211406,290.43303 -1.0377502,276.66418 2.9875027,259.33287 11.229634,245.53583 c 4.139474,-6.92934 4.203601,-7.17994 4.236729,-16.55673 0.03074,-8.70127 0.315752,-10.09397 3.310685,-16.17766 5.782633,-11.74642 22.207548,-27.06231 34.472952,-32.14532 2.0625,-0.85474 3.75,-2.19157 3.75,-2.97074 0,-0.77916 1.572099,-4.55911 3.493554,-8.39987 4.005236,-8.006 11.583707,-15.7743 19.08912,-19.56729 6.746244,-3.40933 19.421203,-7.27626 28.353946,-8.65033 6.86062,-1.05533 7.70458,-1.45699 10.89616,-5.18564 9.88099,-11.5437 29.09105,-16.50216 60.79063,-15.69113 14.56603,0.37267 16.43661,0.63599 22.66084,3.18987 6.69159,2.74565 6.84867,2.76121 11.5,1.13923 9.14215,-3.188 16.55473,-2.94114 73.90889,2.46129 l 55.19314,5.19888 3.58342,-3.58342 c 4.90097,-4.90097 10.82426,-7.72356 17.45791,-8.3191 13.52546,-1.21427 24.63407,6.37869 29.02133,19.83666 l 1.64571,5.04824 11.83906,4.89297 c 14.73977,6.0918 15.84515,6.82314 18.45199,12.20814 4.03656,8.33842 1.49746,16.69736 -6.58119,21.6659 -9.76508,6.00573 -9.79167,6.18798 -0.80451,5.51449 41.4215,-3.1041 67.85524,-16.24641 76.63345,-38.1006 2.04174,-5.0831 2.34783,-7.53565 2.35185,-18.84367 0.004,-10.12674 -0.41162,-14.21561 -1.87862,-18.5 -3.36007,-9.81311 -6.76247,-15.364138 -13.49711,-22.020576 -13.27761,-13.123442 -33.17108,-20.139303 -61.41046,-21.657721 -12.77725,-0.687027 -15.08916,-1.59465 -16.21299,-6.364984 -0.41402,-1.757386 0.0587,-3.379681 1.52994,-5.25 2.02254,-2.571248 2.5634,-2.706578 10.80652,-2.703902 18.87352,0.0061 39.35744,4.173645 53.81555,10.948943 25.58644,11.990211 38.47581,30.091055 41.49593,58.27374 3.87271,36.13864 -16.94139,62.25352 -58.41544,73.29228 -15.20486,4.04694 -29.27961,5.58768 -50.76517,5.55721 l -19.54654,-0.0277 -7.79515,4.08467 c -4.28734,2.24657 -7.41639,4.41484 -6.95346,4.81838 0.46294,0.40354 9.1667,3.11234 19.3417,6.01956 10.175,2.90722 19.28747,5.97304 20.24994,6.81292 0.96247,0.83989 10.82497,13.63768 21.91667,28.43954 16.0598,21.43179 20.16672,27.54142 20.16672,30.0009 0,5.47216 -6.34328,8.60332 -10.86082,5.3611 C 437.38763,288.80573 427.95,276.72302 417.5,262.73388 l -19,-25.43482 -25.86324,-7.544 -25.86325,-7.544 -6.41677,3.00277 -6.41677,3.00277 18.97192,14.1417 c 11.05333,8.23917 19.4108,15.18516 20.02341,16.6417 0.57832,1.375 4.39822,16.16539 8.48866,32.86753 5.5013,22.46296 7.20741,30.97185 6.55447,32.6892 -1.72622,4.54031 -8.3101,5.94423 -11.47513,2.44692 -1.1494,-1.27007 -4.46231,-12.77287 -9.10625,-31.61793 -4.01476,-16.29186 -7.434,-29.73575 -7.59831,-29.8753 -0.16431,-0.13955 -9.47266,-7.04186 -20.68523,-15.33847 l -20.38648,-15.08473 -3.61352,1.55559 c -1.98743,0.85557 -10.06496,4.07892 -17.95007,7.16299 -13.54075,5.29615 -14.48367,5.52484 -16.9868,4.11987 -3.6891,-2.07064 -5.04078,-6.2954 -3.11303,-9.72992 1.07646,-1.91786 3.59789,-3.46373 8.96698,-5.49757 4.10817,-1.5562 14.44441,-5.78309 22.96941,-9.39308 34.96972,-14.80827 102.5,-50.22562 102.5,-53.7578 0,-1.20305 -2.87589,-2.87372 -9.94111,-5.77502 l -9.94111,-4.08227 -1.53107,2.405 c -2.44635,3.8427 -7.57331,8.4266 -11.73686,10.49367 -5.43497,2.69828 -18.32325,2.66824 -23.81669,-0.0555 -8.22015,-4.07571 -14.33413,-12.58778 -15.31928,-21.32796 -0.27123,-2.40632 -0.99281,-4.54776 -1.60351,-4.75875 -0.6107,-0.21099 -25.41037,-2.62608 -55.11037,-5.36687 -57.38038,-5.29519 -59.17873,-5.32477 -67.44164,-1.10935 -5.96051,3.04082 -10.48994,7.41362 -14.88103,14.36642 -19.91027,31.52568 -23.71881,59.84368 -10.77075,80.08476 C 196.16899,244.99276 202.85447,248 219.59353,248 c 5.62679,0 13.75762,-0.67492 18.0685,-1.49983 10.47458,-2.00435 14.64606,-1.9222 16.68298,0.32857 2.22427,2.45779 2.10267,7.72358 -0.23228,10.05853 -5.29283,5.29283 -43.72877,7.67733 -55.24191,3.42712 -3.09605,-1.14295 -7.28528,-3.20344 -9.30941,-4.57887 l -3.68024,-2.50079 -6.69058,2.36154 c -3.67983,1.29885 -7.52623,2.37104 -8.54758,2.38264 -1.35474,0.0154 -1.67524,0.4944 -1.18502,1.77109 0.36959,0.9625 1.65523,4.63301 2.85699,8.15669 l 2.18502,6.4067 11.17602,5.27081 c 6.65044,3.13647 11.63787,6.13379 12.31657,7.40196 1.85677,3.4694 0.28184,7.995 -3.30753,9.50421 -3.60447,1.51557 -5.59774,0.8821 -21.85374,-6.94525 l -9.66868,-4.65552 -2.74759,-7.6948 c -6.95736,-19.48446 -7.04454,-19.67163 -9.5833,-20.57487 -2.05533,-0.73125 -3.30718,-0.24353 -7.40269,2.88407 -2.71098,2.07028 -6.43124,4.48108 -8.26723,5.35733 l -3.33818,1.59319 0.69874,9.02274 c 1.24046,16.01807 0.9591,15.40304 10.72176,23.43676 11.65816,9.59354 12.88375,12.04899 8.3013,16.63143 -4.10297,4.10297 -6.48778,3.26274 -18.76915,-6.61286 -6.20197,-4.98708 -11.61585,-9.82458 -12.03086,-10.75 -0.41501,-0.92542 -1.31501,-7.75759 -2,-15.18259 L 117.5,269.5 l -3.13313,-0.30464 c -2.73213,-0.26565 -3.27445,0.10076 -4.23736,2.86299 -0.60734,1.74219 -2.68493,5.36782 -4.61688,8.05695 -3.01959,4.20306 -3.51877,5.69608 -3.5564,10.63701 -0.0241,3.16123 -0.84016,7.99769 -1.81351,10.74769 l -1.769746,5 3.312046,6.5 c 1.82162,3.575 6.64365,10.63477 10.71562,15.68838 4.07197,5.05361 7.91397,10.73488 8.53779,12.62505 1.40407,4.25439 3.28518,4.66013 21.67671,4.67556 11.74437,0.01 13.39053,0.22763 15.75,2.08359 3.69519,2.90664 3.64202,7.97732 -0.11514,10.98012 -2.66523,2.13011 -3.28945,2.18014 -20.25,1.62309 l -17.5,-0.57476 -3.17628,4.95213 -3.17629,4.95213 7.86704,5.68981 c 20.87279,15.09617 35.98426,21.32246 53.56872,22.07162 17.93322,0.76401 29.00162,-3.61167 43.00858,-17.00264 11.98871,-11.46146 14.05457,-18.2772 7.79474,-25.71658 -4.55481,-5.4131 -8.00573,-5.65076 -23.6047,-1.62565 -13.68207,3.53047 -15.72274,3.61316 -19.03181,0.77116 -2.33878,-2.00866 -2.2597,-7.42176 0.14015,-9.59359 1.03958,-0.94081 7.90208,-3.28775 15.25,-5.21543 19.58866,-5.13896 28.1809,-4.06294 36.85985,4.61601 5.17967,5.17967 7.3544,10.37833 7.81397,18.67919 0.56742,10.2487 -2.09217,15.59149 -13.46694,27.05348 -9.21745,9.28813 -18.65399,15.6394 -28.11192,18.92074 -3.97086,1.37765 -5.10378,2.19774 -4.60941,3.3366 6.90271,15.90133 1.42177,32.03069 -13.11961,38.60847 -11.24233,5.08546 -34.73476,7.00039 -47.58972,3.87917 z m 35.15189,-14.85166 c 7.37268,-1.80216 9.65486,-3.12403 11.98151,-6.93981 3.5347,-5.79703 1.95202,-14.50858 -3.24866,-17.88164 C 179.5355,413.98369 175.35,413.02186 171.5,412.66713 151.42593,410.81757 127.55695,399.23274 101.83709,378.85619 97.624124,375.51847 88,373.84062 88,376.44386 c 0,2.25445 6.077523,17.7842 10.018776,25.60073 10.499914,20.82409 25.920904,34.55386 43.256974,38.51299 7.20506,1.64546 22.09233,1.19506 30.79251,-0.93159 z M 102.03273,359.48307 C 105.29981,357.7936 108,353.36188 108,349.68921 108,347.01658 104.89254,342.0569 98.483285,334.5 96.15092,331.75 92.758904,327.025 90.945473,324 c -1.813432,-3.025 -3.374497,-5.61898 -3.469035,-5.76439 -0.09454,-0.14542 -2.72384,0.90393 -5.842896,2.33188 -8.002561,3.6637 -22.300262,6.3889 -34.883542,6.64895 -5.9125,0.12219 -10.75,0.40069 -10.75,0.61888 0,0.2182 1.583567,2.55398 3.519039,5.19062 4.796746,6.53447 14.255346,15.12892 20.672663,18.78397 13.123349,7.47453 34.606479,11.4143 41.841028,7.67316 z M 65.913368,310.46375 c 8.43281,-1.99435 15.745414,-6.06771 18.7008,-10.41695 3.959464,-5.82688 3.397316,-6.70569 -4.658068,-7.28205 C 66.741696,291.81926 53.144885,283.20959 34.75334,264.14181 28.842677,258.01381 23.841631,253 23.639904,253 c -0.809548,0 -5.641363,11.90802 -7.092625,17.47979 -1.985574,7.62314 -1.974041,17.72014 0.02794,24.46155 2.068269,6.96462 9.199855,14.28864 16.064846,16.49834 5.885016,1.89427 23.296497,1.38357 33.273303,-0.97593 z M 89.500484,276.1627 c 1.650266,-1.0064 4.258893,-4.14194 5.796948,-6.96785 l 2.796465,-5.13803 -7.832705,-7.77841 C 85.953204,252.00029 80.216948,245.15391 77.513955,241.06424 71.094363,231.3513 62.903802,214.78246 59.354897,204.32993 57.799371,199.74847 56.002756,196 55.362418,196 c -2.003369,0 -12.925365,8.76065 -16.767315,13.44924 -6.642509,8.10631 -8.569763,12.41455 -8.583058,19.18681 -0.01083,5.5156 0.397244,6.74896 4.035711,12.19761 4.88536,7.31588 18.241298,20.94884 27.038,27.5988 12.191189,9.21606 21.72521,11.8098 28.414728,7.73024 z M 128.2532,251.90218 c 8.12481,-4.08499 8.17558,-4.25645 3.34814,-11.30766 -10.74641,-15.69673 -17.57318,-41.51116 -19.21816,-72.67069 l -0.67654,-12.81516 -3.10332,0.52484 c -5.83783,0.9873 -17.049512,4.5589 -21.685542,6.90815 -14.953336,7.57743 -19.414031,20.43236 -13.286857,38.29037 8.47926,24.71329 26.476479,49.15186 39.210479,53.24423 3.83434,1.23225 10.50972,0.29059 15.4118,-2.17408 z m 43.84758,-9.05064 c 1.86957,-0.63165 3.51952,-1.23945 3.66656,-1.35067 0.14704,-0.11122 -1.10328,-3.13117 -2.77849,-6.711 -6.37387,-13.62066 -7.40647,-30.34261 -3.00032,-48.58728 3.56434,-14.75895 12.29354,-33.12515 21.58569,-45.41625 l 3.56356,-4.71365 -2.81889,-0.78635 C 190.7685,134.85385 182.075,134.57081 173,134.65735 c -24.40171,0.23271 -35.48043,2.9232 -42.5,10.32123 l -3,3.16174 0.0567,16.67984 c 0.12919,37.99023 11.35262,70.23704 26.90456,77.30137 4.60056,2.08976 12.63118,2.42211 17.63949,0.73001 z M 373.03273,158.48307 C 376.63996,156.6177 379,152.27393 379,147.5 c 0,-9.86075 -10.02075,-15.64335 -19.03273,-10.98307 -7.79941,4.03323 -7.9273,17.72744 -0.2047,21.91768 3.56642,1.93512 9.57931,1.95708 13.27016,0.0485 z"
         id="path172" />
    </g>
  </g>
</svg>
