<?xml version="1.0" encoding="UTF-8" standalone="no"?>
<!-- Created with Inkscape (http://www.inkscape.org/) -->

<svg
   version="1.1"
   id="svg1370"
   width="512"
   height="512"
   viewBox="0 0 512 512"
   xmlns="http://www.w3.org/2000/svg"
   xmlns:svg="http://www.w3.org/2000/svg">
  <defs
     id="defs1374" />
  <g
     id="g1376">
    <g
       id="g1380"
       transform="translate(-5.3782164,-0.53689714)">
      <path
         style="fill:#9fd2fd"
         d="m 147.31382,510.04977 c -1.7524,-1.06851 -3.6649,-2.83724 -4.25,-3.93052 -0.60259,-1.12596 -1.0543,-7.76089 -1.04186,-15.30351 0.025,-15.18652 1.27962,-19.40193 7.78275,-26.15047 6.00814,-6.23487 10.31797,-7.94189 21.69529,-8.59299 l 10,-0.57228 0.52433,-8.5 c 0.61487,-9.96773 3.21101,-16.24342 8.72087,-21.08115 5.53259,-4.85767 9.76897,-6.25919 20.7548,-6.86626 L 221.5,418.5 V 407 395.5 L 124,395 C 16.77363,394.45012 23.963502,394.88763 15.450841,388.39471 6.8812903,381.85839 4.5791562,372.12041 7.4378741,354.5 12.794077,321.48574 38.321603,181.76023 39.666402,178.09641 c 2.115942,-5.76476 7.315385,-11.41537 13.147172,-14.28798 4.342877,-2.13921 5.943063,-2.30843 21.828479,-2.30843 15.734483,0 17.324564,0.16422 19.364763,2 1.222491,1.1 2.609929,3.0125 3.083196,4.25 0.7923,2.07171 1.488557,2.25 8.786458,2.25 h 7.92598 l 2.07412,-3.51538 c 1.14077,-1.93346 3.23951,-3.95846 4.66388,-4.5 C 122.05253,161.40973 137.04343,161 156.5651,161 174.95429,161 190,160.78447 190,160.52105 c 0,-0.26342 -1.22221,-3.97592 -2.71601,-8.25 -2.45165,-7.01462 -2.71726,-9.13379 -2.72879,-21.77105 -0.012,-13.14329 0.17776,-14.53613 3.10075,-22.76121 4.29785,-12.093832 8.57584,-18.919331 17.36968,-27.713164 7.97538,-7.975384 14.98661,-12.647382 25.1257,-16.74274 32.03016,-12.937557 69.9157,0.303034 87.89142,30.717114 10.61911,17.96704 12.89373,41.58574 5.82649,60.5 -1.02753,2.75 -1.86846,5.32223 -1.86874,5.71606 -2.7e-4,0.39384 29.812,0.84384 66.2495,1 l 66.25,0.28394 4.68643,2.30843 c 5.83464,2.87402 11.03372,8.52618 13.14262,14.28798 1.34046,3.66229 26.85761,143.31925 32.23124,176.40359 2.86153,17.61784 0.55952,27.35755 -8.01113,33.89471 -8.24389,6.28792 -6.15872,6.07554 -63.04916,6.42162 -35.90705,0.21844 -53.15875,-0.0256 -55.74418,-0.78839 -6.62563,-1.95492 -8.62609,-10.11758 -3.59629,-14.67425 1.82726,-1.65538 4.62947,-1.92269 26.19332,-2.49868 13.28093,-0.35475 37.3301,-0.69225 53.4426,-0.75 L 483.09091,376 l 2.58782,-2.58782 c 2.38381,-2.38381 2.5389,-3.05592 1.96722,-8.5254 -0.34132,-3.26567 -0.90032,-7.05211 -1.24222,-8.41431 l -0.62162,-2.47674 -230.14105,0.25214 L 25.5,354.5 l -1.135747,6.92852 c -0.7725,4.71257 -0.817783,7.84064 -0.141583,9.78039 C 26.369751,377.36803 15.864534,377 189.52726,377 h 158.62659 l 2.92307,2.92308 c 4.3372,4.33719 3.72151,10.40541 -1.34984,13.304 C 348.12985,394.14 339.43974,394.64141 319,395 l -28.5,0.5 v 11.5 11.5 l 10,0.55259 c 10.98583,0.60707 15.22221,2.00859 20.7548,6.86626 5.50986,4.83773 8.106,11.11342 8.72087,21.08115 l 0.52433,8.5 10,0.57228 c 11.37732,0.6511 15.68715,2.35812 21.69529,8.59299 6.52661,6.7729 7.75771,10.94298 7.78275,26.36222 0.024,14.81212 -0.54506,16.66301 -5.98908,19.47822 -2.51013,1.29804 -16.71931,1.4938 -108.1893,1.49055 -102.50183,-0.004 -105.38432,-0.0554 -108.48584,-1.94649 z M 300.75,455.34266 312,454.69442 v -5.92413 c 0,-5.2144 -0.3502,-6.27434 -2.92308,-8.84721 L 306.15385,437 h -50.62238 -50.62238 l -2.45454,2.45455 C 200.313,441.59609 200,442.80752 200,448.95455 V 456 l 44.75,-0.005 c 24.6125,-0.002 49.8125,-0.29625 56,-0.65279 z M 128.6563,137.86747 c -2.78109,-1.61662 -4.83458,-7.26835 -3.71285,-10.21872 1.92733,-5.06927 4.15581,-5.64875 21.72329,-5.64875 15.62497,0 16.32311,0.0872 18.9775,2.37041 2.09859,1.80513 2.75576,3.26687 2.75576,6.12959 0,2.86272 -0.65717,4.32446 -2.75576,6.12959 -2.65765,2.28601 -3.33236,2.36933 -18.95,2.34 -9.64757,-0.0181 -16.93957,-0.46366 -18.03794,-1.10212 z m 217.69946,-1.23788 c -3.86163,-3.32163 -3.86163,-8.93755 0,-12.25918 C 349.01264,122.08506 349.6996,122 365.5,122 c 15.8004,0 16.48736,0.0851 19.14424,2.37041 2.09859,1.80513 2.75576,3.26687 2.75576,6.12959 0,2.86272 -0.65717,4.32446 -2.75576,6.12959 C 381.98736,138.91494 381.3004,139 365.5,139 c -15.8004,0 -16.48736,-0.0851 -19.14424,-2.37041 z M 172.63112,59.081454 C 161.5587,48.112641 160.6,46.867191 160.6,43.451862 160.6,38.832566 164.52769,35 169.26165,35 c 2.696,0 4.92241,1.772291 15.44423,12.294118 13.78839,13.788387 14.58928,15.564571 9.37104,20.782805 C 192.04692,70.10693 190.16218,71 187.90805,71 185.1015,71 183.03408,69.387073 172.63112,59.081454 Z m 145.29196,8.995469 c -5.21824,-5.218234 -4.41735,-6.994418 9.37104,-20.782805 C 337.81594,36.772291 340.04235,35 342.73835,35 c 4.73396,0 8.66165,3.832566 8.66165,8.451862 0,3.415329 -0.9587,4.660779 -12.03112,15.629592 C 328.96592,69.387073 326.8985,71 324.09195,71 c -2.25413,0 -4.13887,-0.89307 -6.16887,-2.923077 z M 250.30576,40.586584 247.5,38.173167 V 21.005972 c 0,-16.0129221 0.13447,-17.2655504 2,-18.6300126 4.09879,-2.99788856 8.90121,-2.99788856 13,0 1.86553,1.3644622 2,2.6170905 2,18.6300126 v 17.167195 l -2.80576,2.413417 C 260.12869,41.933206 257.61169,43 256,43 c -1.61169,0 -4.12869,-1.066794 -5.69424,-2.413416 z"
         id="path1394" />
      <path
         style="fill:#fdd570"
         d="m 148.18982,509.97437 c -5.25789,-3.20565 -6.49157,-7.52575 -5.98737,-20.96657 0.49272,-13.1346 2.24144,-18.38502 8.06197,-24.20556 5.61036,-5.61035 10.98766,-7.67174 22.27104,-8.53759 L 182.5,455.5 l 0.54641,-9 c 0.61565,-10.14039 2.7715,-15.4861 8.02962,-19.91052 6.00406,-5.05209 8.89728,-6.00474 19.92397,-6.56038 L 221.5,419.5 V 407 394.5 l -98,-0.5 C 30.259268,393.52428 25.330026,393.40928 22,391.63195 15.520569,388.17368 11.983791,384.9019 9.629156,380.18799 6.1831981,373.28929 5.9184739,369.30929 8.0030515,355.74031 11.811703,330.94894 39.2117,180.42909 40.459673,177.44227 c 1.886063,-4.51398 7.257993,-10.2441 11.945647,-12.74216 3.645694,-1.9428 5.936352,-2.21979 20.890443,-2.52611 14.365271,-0.29426 17.162999,-0.10343 19.333526,1.31876 3.388994,2.22055 5.76611,7.89991 4.385936,10.47879 C 94.645281,178.39983 92.297264,179 77.342593,179 62.2783,179 58.778882,179.67613 57.041531,182.9224 56.21476,184.46723 50,215.84373 50,218.47302 50,218.76286 71.309693,219 97.354873,219 h 47.354877 l 2.18737,-16.25 c 1.20306,-8.9375 2.45088,-17.9375 2.77294,-20 l 0.58556,-3.75 h -15.17327 c -14.96699,0 -15.20824,-0.035 -17.74673,-2.57347 -2.14255,-2.14255 -2.47548,-3.18908 -1.9883,-6.25 0.34743,-2.18292 1.63716,-4.5906 3.17468,-5.92653 2.57917,-2.241 2.72923,-2.25 37.53376,-2.25 C 175.27509,162 191,161.78447 191,161.52105 c 0,-0.26342 -1.19655,-3.97592 -2.65901,-8.25 -3.55998,-10.40417 -4.38759,-27.46918 -1.87902,-38.74473 5.31717,-23.899635 24.0235,-44.243129 48.03803,-52.24226 7.08415,-2.359698 9.5455,-2.664765 21.5,-2.664765 11.9545,0 14.41585,0.305067 21.5,2.664765 11.4643,3.818707 19.84251,9.06878 29.0695,18.21594 6.46014,6.404248 8.98703,9.832664 12.66809,17.18771 6.28461,12.55715 8.12549,21.38153 7.54152,36.1509 -0.362,9.15539 -1.0325,13.33137 -3.1201,19.43244 -1.46246,4.27408 -2.65901,7.9744 -2.65901,8.22292 0,0.24853 30.2625,0.57656 67.25,0.72895 67.03387,0.27619 67.26316,0.28412 71.34468,2.46817 4.68721,2.50815 10.06156,8.24192 11.94065,12.73921 1.25662,3.00752 30.00325,161.29971 32.88313,181.0697 1.64642,11.30243 1.12675,15.96464 -2.51785,22.58906 -2.66718,4.84786 -9.79329,10.2314 -15.7233,11.87843 -2.28793,0.63546 -23.6247,1.02346 -56.47276,1.02693 l -52.79546,0.006 -2.45454,-2.45455 c -3.1748,-3.17479 -3.24572,-7.84519 -0.16589,-10.92502 2.25227,-2.25227 2.77152,-2.29924 32.66289,-2.95454 C 423.65738,377.29965 447.35631,377 459.61584,377 c 24.16137,0 26.48646,-0.41855 28.43321,-5.11841 1.22099,-2.94774 0.60773,-12.02392 -1.11936,-16.56652 L 486.0495,353 H 256.1472 c -185.385898,0 -230.107681,0.24746 -230.962935,1.27797 -0.583344,0.70289 -1.37426,4.73906 -1.757592,8.96927 -0.833778,9.20107 0.493858,12.08129 6.313871,13.69757 2.538226,0.70489 54.797083,1.04585 160.874596,1.04961 l 157.11514,0.006 2.63486,2.07258 c 3.53887,2.78368 3.62136,8.03183 0.18031,11.47287 L 348.09091,394 h -29.07533 -29.07533 l 0.27987,12.75 0.27988,12.75 10.5,0.53241 c 11.4715,0.58166 16.1761,2.27913 21.13584,7.62601 4.72497,5.09378 6.2447,9.29169 6.82102,18.84158 l 0.54314,9 9.96454,0.76465 c 11.28338,0.86585 16.66068,2.92724 22.27104,8.53759 5.82053,5.82054 7.56925,11.07096 8.06197,24.20556 0.5042,13.44082 -0.72948,17.76092 -5.98737,20.96657 -3.26435,1.99021 -4.7569,2.01815 -107.81018,2.01815 -103.05328,0 -104.54583,-0.0279 -107.81018,-2.01815 z M 313,449.95034 c 0,-7.12715 -1.82635,-11.22156 -5.726,-12.83684 -2.05492,-0.85118 -16.47475,-1.09294 -53.1343,-0.89086 l -50.31398,0.27736 -2.41286,2.80576 C 199.36338,441.68897 199,443.15735 199,449.05576 V 456 h 57 57 z M 130.67413,320 c 1.19577,-8.525 2.46084,-17.4125 2.81127,-19.75 L 134.12255,296 H 85.132171 36.141796 l -1.045223,5.25 C 33.399612,309.77359 29,334.25359 29,335.1721 c 0,0.46561 22.3875,0.72987 49.75,0.58724 L 128.5,335.5 Z m 116.09704,-4.25981 0.27118,-19.7598 -47.27118,0.2598 L 152.5,296.5 l -2.67107,18.9732 c -1.46909,10.43526 -2.45242,19.32699 -2.18518,19.75939 0.26724,0.4324 22.61922,0.66946 49.67107,0.5268 L 246.5,335.5 Z m 58.5077,19.00981 c 3.36411,-2.53149 16.51901,-35.64999 15.08321,-37.97316 C 320.09802,296.34958 307.53352,296 292.44098,296 H 265 v 19.33333 c 0,10.63334 0.3,19.63334 0.66667,20 1.29383,1.29384 37.83268,0.75576 39.6122,-0.58333 z M 138.68007,262 c 1.19904,-8.525 2.46411,-17.4125 2.81127,-19.75 L 142.12255,238 H 94.262642 46.402739 l -3.516763,19.51794 c -1.934219,10.73487 -3.295562,19.73914 -3.025206,20.0095 0.270357,0.27035 22.124784,0.37478 48.565394,0.23206 L 136.5,277.5 Z m 108.09107,-4.25 0.27114,-19.75 h -43.31914 -43.31913 l -2.60415,19.25 c -1.43228,10.5875 -2.39381,19.59207 -2.13672,20.01015 0.25709,0.41808 20.80056,0.64308 45.65215,0.5 L 246.5,277.5 Z m 76.2946,19.21482 c 1.78302,-0.95425 1.9334,-2.2248 1.92325,-16.25 -0.006,-8.36815 -0.28993,-16.90232 -0.63084,-18.96482 L 323.73832,238 H 294.36916 265 v 19.33333 c 0,10.63334 0.3,19.63334 0.66667,20 1.12426,1.12426 55.25922,0.7767 57.39907,-0.36851 z M 246.77114,199.25 246.5,179.5 h -38.97898 -38.97898 l -2.16322,15.87512 c -1.18977,8.73132 -2.44205,17.61882 -2.78284,19.75 L 162.97636,219 h 42.03296 42.03296 z M 320,218.59678 c 0,-0.22177 -1.61656,-5.05927 -3.59235,-10.75 -4.86203,-14.00373 -11.98749,-27.7063 -14.76266,-28.38926 -1.17975,-0.29033 -9.79499,-0.39954 -19.14499,-0.2427 l -17,0.28518 -0.27114,19.75 -0.27114,19.75 h 27.52114 C 307.61549,219 320,218.81855 320,218.59678 Z M 131.26993,138.34056 C 128.4217,137.73461 125,133.4126 125,130.42091 c 0,-1.27016 1.08604,-3.57198 2.41342,-5.11515 L 129.82683,122.5 H 146.5 163.17317 l 2.41341,2.80576 c 3.06198,3.55977 3.06241,6.82779 0.001,10.38848 l -2.41206,2.80576 -14.83794,0.1575 c -8.16087,0.0866 -15.84148,-0.056 -17.06802,-0.31694 z m 219,0 C 347.4217,137.73461 344,133.4126 344,130.42091 c 0,-1.27016 1.08604,-3.57198 2.41342,-5.11515 L 348.82683,122.5 H 365.5 382.17317 l 2.41341,2.80576 c 3.06198,3.55977 3.06241,6.82779 10e-4,10.38848 l -2.41206,2.80576 -14.83794,0.1575 c -8.16087,0.0866 -15.84148,-0.056 -17.06802,-0.31694 z M 186.39715,70.244293 c -1.15656,-0.189655 -7.34406,-5.651409 -13.75,-12.13723 C 160.07322,45.376324 159.18718,43.574345 163.07258,38.634859 164.71142,36.551413 166.0059,36 169.25808,36 c 3.91578,0 4.65526,0.546883 15.42742,11.409303 C 194.67055,57.478018 196,59.220029 196,62.234989 c 0,4.972521 -4.62054,8.826309 -9.60285,8.009304 z m 134.41079,-0.652726 c -3.08495,-1.538012 -5.24892,-5.705448 -4.49722,-8.660861 C 316.65075,59.593818 321.79626,53.4375 327.74519,47.25 338.11507,36.464261 338.73256,36 342.70814,36 c 3.28868,0 4.57555,0.545197 6.21928,2.634859 3.88323,4.936726 2.99666,6.744199 -9.52809,19.425138 -11.74403,11.890492 -14.47446,13.58408 -18.59139,11.53157 z M 250.07258,39.365141 C 248.17305,36.950283 248,35.401812 248,20.819687 c 0,-15.5593983 0.0542,-15.9647758 2.45455,-18.3651415 3.24734,-3.24734608 7.84356,-3.24734608 11.0909,0 C 263.94582,4.8549112 264,5.2602887 264,20.819687 264,35.401812 263.82695,36.950283 261.92742,39.365141 260.32876,41.397502 258.97338,42 256,42 c -2.97338,0 -4.32876,-0.602498 -5.92742,-2.634859 z"
         id="path1392" />
      <path
         style="fill:#71c3eb"
         d="m 148.18982,509.97437 c -5.25789,-3.20565 -6.49157,-7.52575 -5.98737,-20.96657 0.49272,-13.1346 2.24144,-18.38502 8.06197,-24.20556 5.61036,-5.61035 10.98766,-7.67174 22.27104,-8.53759 L 182.5,455.5 l 0.54641,-9 c 0.61565,-10.14039 2.7715,-15.4861 8.02962,-19.91052 6.00406,-5.05209 8.89728,-6.00474 19.92397,-6.56038 L 221.5,419.5 V 407 394.5 l -98,-0.5 C 30.259268,393.52428 25.330026,393.40928 22,391.63195 15.520569,388.17368 11.983791,384.9019 9.629156,380.18799 6.1831981,373.28929 5.9184739,369.30929 8.0030515,355.74031 11.811703,330.94894 39.2117,180.42909 40.459673,177.44227 c 1.886063,-4.51398 7.257993,-10.2441 11.945647,-12.74216 3.645694,-1.9428 5.936352,-2.21979 20.890443,-2.52611 14.365271,-0.29426 17.162999,-0.10343 19.333526,1.31876 3.388994,2.22055 5.76611,7.89991 4.385936,10.47879 C 94.645281,178.39983 92.297264,179 77.342593,179 62.2783,179 58.778882,179.67613 57.041531,182.9224 56.21476,184.46723 50,215.84373 50,218.47302 50,218.76286 71.309693,219 97.354873,219 h 47.354877 l 2.18737,-16.25 c 1.20306,-8.9375 2.45088,-17.9375 2.77294,-20 l 0.58556,-3.75 h -15.17327 c -14.96699,0 -15.20824,-0.035 -17.74673,-2.57347 -2.14255,-2.14255 -2.47548,-3.18908 -1.9883,-6.25 0.34743,-2.18292 1.63716,-4.5906 3.17468,-5.92653 2.57917,-2.241 2.72923,-2.25 37.53376,-2.25 C 175.27509,162 191,161.78447 191,161.52105 c 0,-0.26342 -1.19655,-3.97592 -2.65901,-8.25 -3.55998,-10.40417 -4.38759,-27.46918 -1.87902,-38.74473 5.31717,-23.899635 24.0235,-44.243129 48.03803,-52.24226 7.08415,-2.359698 9.5455,-2.664765 21.5,-2.664765 11.9545,0 14.41585,0.305067 21.5,2.664765 11.4643,3.818707 19.84251,9.06878 29.0695,18.21594 6.46014,6.404248 8.98703,9.832664 12.66809,17.18771 6.28461,12.55715 8.12549,21.38153 7.54152,36.1509 -0.362,9.15539 -1.0325,13.33137 -3.1201,19.43244 -1.46246,4.27408 -2.65901,7.9744 -2.65901,8.22292 0,0.24853 30.2625,0.57656 67.25,0.72895 67.03387,0.27619 67.26316,0.28412 71.34468,2.46817 4.68721,2.50815 10.06156,8.24192 11.94065,12.73921 1.25662,3.00752 30.00325,161.29971 32.88313,181.0697 1.64642,11.30243 1.12675,15.96464 -2.51785,22.58906 -2.66718,4.84786 -9.79329,10.2314 -15.7233,11.87843 -2.28793,0.63546 -23.6247,1.02346 -56.47276,1.02693 l -52.79546,0.006 -2.45454,-2.45455 c -3.1748,-3.17479 -3.24572,-7.84519 -0.16589,-10.92502 2.25227,-2.25227 2.77152,-2.29924 32.66289,-2.95454 C 423.65738,377.29965 447.35631,377 459.61584,377 c 24.16137,0 26.48646,-0.41855 28.43321,-5.11841 1.22099,-2.94774 0.60773,-12.02392 -1.11936,-16.56652 L 486.0495,353 H 256.1472 c -185.385898,0 -230.107681,0.24746 -230.962935,1.27797 -0.583344,0.70289 -1.37426,4.73906 -1.757592,8.96927 -0.833778,9.20107 0.493858,12.08129 6.313871,13.69757 2.538226,0.70489 54.797083,1.04585 160.874596,1.04961 l 157.11514,0.006 2.63486,2.07258 c 3.53887,2.78368 3.62136,8.03183 0.18031,11.47287 L 348.09091,394 h -29.07533 -29.07533 l 0.27987,12.75 0.27988,12.75 10.5,0.53241 c 11.4715,0.58166 16.1761,2.27913 21.13584,7.62601 4.72497,5.09378 6.2447,9.29169 6.82102,18.84158 l 0.54314,9 9.96454,0.76465 c 11.28338,0.86585 16.66068,2.92724 22.27104,8.53759 5.82053,5.82054 7.56925,11.07096 8.06197,24.20556 0.5042,13.44082 -0.72948,17.76092 -5.98737,20.96657 -3.26435,1.99021 -4.7569,2.01815 -107.81018,2.01815 -103.05328,0 -104.54583,-0.0279 -107.81018,-2.01815 z M 313,449.95034 c 0,-7.12715 -1.82635,-11.22156 -5.726,-12.83684 -2.05492,-0.85118 -16.47475,-1.09294 -53.1343,-0.89086 l -50.31398,0.27736 -2.41286,2.80576 C 199.36338,441.68897 199,443.15735 199,449.05576 V 456 h 57 57 z M 130.67413,320 c 1.19577,-8.525 2.46084,-17.4125 2.81127,-19.75 L 134.12255,296 H 85.132171 36.141796 l -1.045223,5.25 C 33.399612,309.77359 29,334.25359 29,335.1721 c 0,0.46561 22.3875,0.72987 49.75,0.58724 L 128.5,335.5 Z m 116.09704,-4.25981 0.27118,-19.7598 -47.27118,0.2598 L 152.5,296.5 l -2.67107,18.9732 c -1.46909,10.43526 -2.45242,19.32699 -2.18518,19.75939 0.26724,0.4324 22.61922,0.66946 49.67107,0.5268 L 246.5,335.5 Z m 58.5077,19.00981 c 3.36411,-2.53149 16.51901,-35.64999 15.08321,-37.97316 C 320.09802,296.34958 307.53352,296 292.44098,296 H 265 v 19.33333 c 0,10.63334 0.3,19.63334 0.66667,20 1.29383,1.29384 37.83268,0.75576 39.6122,-0.58333 z M 138.68007,262 c 1.19904,-8.525 2.46411,-17.4125 2.81127,-19.75 L 142.12255,238 H 94.262642 46.402739 l -3.516763,19.51794 c -1.934219,10.73487 -3.295562,19.73914 -3.025206,20.0095 0.270357,0.27035 22.124784,0.37478 48.565394,0.23206 L 136.5,277.5 Z m 108.09107,-4.25 0.27114,-19.75 h -43.31914 -43.31913 l -2.60415,19.25 c -1.43228,10.5875 -2.39381,19.59207 -2.13672,20.01015 0.25709,0.41808 20.80056,0.64308 45.65215,0.5 L 246.5,277.5 Z m 76.2946,19.21482 c 1.78302,-0.95425 1.9334,-2.2248 1.92325,-16.25 -0.006,-8.36815 -0.28993,-16.90232 -0.63084,-18.96482 L 323.73832,238 H 294.36916 265 v 19.33333 c 0,10.63334 0.3,19.63334 0.66667,20 1.12426,1.12426 55.25922,0.7767 57.39907,-0.36851 z M 246.77114,199.25 246.5,179.5 h -38.97898 -38.97898 l -2.16322,15.87512 c -1.18977,8.73132 -2.44205,17.61882 -2.78284,19.75 L 162.97636,219 h 42.03296 42.03296 z M 320,218.59678 c 0,-0.22177 -1.61656,-5.05927 -3.59235,-10.75 -4.86203,-14.00373 -11.98749,-27.7063 -14.76266,-28.38926 -1.17975,-0.29033 -9.79499,-0.39954 -19.14499,-0.2427 l -17,0.28518 -0.27114,19.75 -0.27114,19.75 h 27.52114 C 307.61549,219 320,218.81855 320,218.59678 Z m -44.96845,-59.13479 c 2.19957,-2.65033 2.50592,-20.34943 0.49707,-28.71717 -4.98527,-20.76571 -22.61032,-40.346014 -41.22683,-45.800354 -5.65355,-1.656398 -8.57824,-0.348021 -16.1519,7.225649 -16.7225,16.722495 -20.76967,41.792215 -10.14471,62.840155 L 211.02879,161 h 31.36316 c 27.00294,0 31.54062,-0.21382 32.6396,-1.53801 z M 131.26993,138.34056 C 128.4217,137.73461 125,133.4126 125,130.42091 c 0,-1.27016 1.08604,-3.57198 2.41342,-5.11515 L 129.82683,122.5 H 146.5 163.17317 l 2.41341,2.80576 c 3.06198,3.55977 3.06241,6.82779 0.001,10.38848 l -2.41206,2.80576 -14.83794,0.1575 c -8.16087,0.0866 -15.84148,-0.056 -17.06802,-0.31694 z m 219,0 C 347.4217,137.73461 344,133.4126 344,130.42091 c 0,-1.27016 1.08604,-3.57198 2.41342,-5.11515 L 348.82683,122.5 H 365.5 382.17317 l 2.41341,2.80576 c 3.06198,3.55977 3.06241,6.82779 10e-4,10.38848 l -2.41206,2.80576 -14.83794,0.1575 c -8.16087,0.0866 -15.84148,-0.056 -17.06802,-0.31694 z M 186.39715,70.244293 c -1.15656,-0.189655 -7.34406,-5.651409 -13.75,-12.13723 C 160.07322,45.376324 159.18718,43.574345 163.07258,38.634859 164.71142,36.551413 166.0059,36 169.25808,36 c 3.91578,0 4.65526,0.546883 15.42742,11.409303 C 194.67055,57.478018 196,59.220029 196,62.234989 c 0,4.972521 -4.62054,8.826309 -9.60285,8.009304 z m 134.41079,-0.652726 c -3.08495,-1.538012 -5.24892,-5.705448 -4.49722,-8.660861 C 316.65075,59.593818 321.79626,53.4375 327.74519,47.25 338.11507,36.464261 338.73256,36 342.70814,36 c 3.28868,0 4.57555,0.545197 6.21928,2.634859 3.88323,4.936726 2.99666,6.744199 -9.52809,19.425138 -11.74403,11.890492 -14.47446,13.58408 -18.59139,11.53157 z M 250.07258,39.365141 C 248.17305,36.950283 248,35.401812 248,20.819687 c 0,-15.5593983 0.0542,-15.9647758 2.45455,-18.3651415 3.24734,-3.24734608 7.84356,-3.24734608 11.0909,0 C 263.94582,4.8549112 264,5.2602887 264,20.819687 264,35.401812 263.82695,36.950283 261.92742,39.365141 260.32876,41.397502 258.97338,42 256,42 c -2.97338,0 -4.32876,-0.602498 -5.92742,-2.634859 z"
         id="path1390" />
      <path
         style="fill:#f6b756"
         d="m 148.31382,510.04977 c -1.7524,-1.06851 -3.6649,-2.83724 -4.25,-3.93052 -0.60259,-1.12596 -1.0543,-7.76089 -1.04186,-15.30351 0.0246,-14.91581 1.29648,-19.39482 7.28462,-25.65337 5.65215,-5.90738 10.00071,-7.53708 21.69342,-8.12996 l 10.5,-0.53241 0.56196,-9 c 0.66505,-10.65086 2.3294,-14.94109 7.88954,-20.33703 C 196.40342,421.87207 202.21243,420 213.17814,420 H 222 v -12.97622 -12.97621 l -97.75,-0.27379 C 26.956479,393.50128 26.478986,393.49008 22,391.37584 16.362104,388.71456 11.243708,383.69488 8.8709327,378.5 6.3581481,372.99858 6.5226023,365.5982 9.5568041,347.63603 17.783407,298.93535 39.263017,181.81581 40.654386,178.07361 c 2.372189,-6.38019 8.979274,-12.59037 15.434578,-14.50739 6.714779,-1.99407 32.126043,-2.1867 35.911036,-0.27221 3.775297,1.90958 5.477811,6.13824 3.953224,9.81892 -0.675139,1.62993 -2.036223,3.39631 -3.024633,3.92529 C 91.940182,177.5672 84.831194,178 77.130841,178 61.986483,178 58.940269,178.63533 56.543092,182.29389 55.248217,184.27012 49,214.44442 49,218.72149 c 0,1.04928 9.236985,1.24802 48.25,1.03811 l 48.25,-0.2596 2.76315,-19.49454 c 1.51973,-10.72199 2.54636,-20.05949 2.28139,-20.75 C 150.18792,178.32613 146.20334,178 135.2057,178 c -14.23695,0 -14.94783,-0.0966 -17.03139,-2.31445 -2.70296,-2.87718 -2.81959,-7.66672 -0.26357,-10.82477 l 1.91073,-2.36078 35.58927,-0.28647 C 176.81948,162.0412 191,161.55153 191,160.98458 c 0,-0.51836 -1.18203,-4.43945 -2.62674,-8.71353 -3.80902,-11.26874 -4.41586,-26.68172 -1.50761,-38.29107 5.52387,-22.05057 19.02222,-38.402913 39.63435,-48.014359 10.85642,-5.062351 17.12834,-6.42926 29.5,-6.42926 12.37166,0 18.64358,1.366909 29.5,6.42926 20.51063,9.564116 34.17001,26.108835 39.64083,48.014359 2.90079,11.61499 2.29112,27.0336 -1.51409,38.29107 -1.44471,4.27408 -2.62674,8.21158 -2.62674,8.75 0,0.62853 23.20218,0.97895 64.8185,0.97895 73.60759,0 72.09362,-0.14051 79.62397,7.38983 2.34156,2.34157 4.99702,6.24927 5.90102,8.68378 1.38894,3.7405 22.84653,120.73685 31.09841,169.56242 3.03546,17.96054 3.20025,25.3619 0.68717,30.86397 -2.37278,5.19488 -7.49117,10.21456 -13.12907,12.87584 -4.38597,2.07033 -5.85225,2.13155 -57.86227,2.41561 -58.15765,0.31763 -56.70489,0.44741 -59.32325,-5.29928 -1.4478,-3.17757 0.44146,-7.83212 3.80016,-9.36245 C 378.35282,378.33775 394.18769,378 429.57917,378 c 54.21729,0 55.81964,-0.13963 58.47186,-5.09535 1.20183,-2.24565 0.77393,-14.59125 -0.63279,-18.25713 C 486.83364,353.12408 469.40152,353 255.95203,353 c -130.6877,0 -231.068426,0.37932 -231.374349,0.87431 -0.967023,1.56468 -1.86377,14.84969 -1.184933,17.55439 0.36351,1.44833 2.11135,3.5177 3.884089,4.59858 3.168367,1.93183 5.922786,1.96531 162.018613,1.96898 l 158.79546,0.004 2.45454,2.45455 c 3.94165,3.94164 3.18447,9.59951 -1.61697,12.08244 -2.28575,1.182 -8.2168,1.46301 -30.87882,1.46301 L 290,394 v 13 13 h 8.82186 c 10.96571,0 16.77472,1.87207 22.22664,7.16297 5.56014,5.39594 7.22449,9.68617 7.88954,20.33703 l 0.56196,9 10.5,0.53241 c 11.69271,0.59288 16.04127,2.22258 21.69342,8.12996 6.01084,6.28227 7.26003,10.7177 7.28462,25.86512 0.024,14.81212 -0.54506,16.66301 -5.98908,19.47822 -2.50961,1.29777 -16.60649,1.4938 -107.1893,1.49055 -101.51165,-0.004 -104.38483,-0.0557 -107.48584,-1.94649 z M 302.34444,456.34803 313,455.69607 v -6.92496 c 0,-6.32057 -0.25512,-7.18007 -2.92308,-9.84803 L 307.15385,436 H 256 204.84615 l -2.92307,2.92308 C 199.25632,441.58984 199,442.45209 199,448.75641 c 0,3.80064 0.3,7.21026 0.66667,7.57692 0.85954,0.85955 88.66438,0.87212 102.67777,0.0147 z M 129.39302,335.25 C 129.88476,333.61954 135,297.65539 135,295.82852 135,295.37283 112.53575,295 85.079455,295 H 35.158911 l -0.563952,2.75 C 31.908064,310.85213 28.03363,335.2454 28.515618,336.02527 28.893787,336.63716 47.683246,337 78.991629,337 c 46.630931,0 49.907911,-0.11378 50.401391,-1.75 z M 247.5,316 v -20.5 h -47.99659 -47.9966 l -2.72173,19.5 c -1.49695,10.725 -2.5235,20.06667 -2.28123,20.75926 0.34787,0.99449 11.01209,1.20476 50.71832,1 L 247.5,336.5 Z m 117.89975,20.16221 c 0.46209,-0.74768 -3.65978,-33.26399 -4.93386,-38.92189 l -0.50885,-2.25969 -47.72852,0.25969 L 264.5,295.5 l -0.27236,19.47053 c -0.14981,10.70879 -0.0514,20.04629 0.21861,20.75 0.38975,1.01568 10.794,1.27947 50.46335,1.27947 27.4848,0 50.20537,-0.37701 50.49015,-0.83779 z m 118.06802,-0.11006 c 0.59601,-0.96436 -5.93767,-38.38541 -7.00302,-40.10919 -0.70789,-1.14539 -98.12236,-1.30597 -98.82881,-0.16292 -0.74181,1.20027 4.51924,38.55222 5.62979,39.96996 1.21625,1.55267 99.24648,1.84827 100.20204,0.30215 z M 136.76842,277.75 c 0.7718,-0.95208 6.24026,-36.05416 6.23298,-40.00951 -7.7e-4,-0.41773 -21.9389,-0.64273 -48.7514,-0.5 L 45.5,237.5 41.920743,257 c -2.350396,12.8051 -3.25251,19.92916 -2.627555,20.75 C 40.031148,278.71926 50.970152,279 88,279 c 36.99699,0 47.98339,-0.2816 48.76842,-1.25 z m 109.64979,0.64301 C 247.78908,277.86696 248,275.06536 248,257.38261 V 236.9792 l -44.24533,0.2604 -44.24533,0.2604 -2.7492,19.94436 c -2.15563,15.63824 -2.48049,20.11501 -1.50467,20.73469 1.44345,0.91665 88.7973,1.12167 91.16274,0.21396 z m 111.23071,-0.7086 c 0.2996,-0.2996 -4.33305,-34.66877 -5.1806,-38.43441 L 351.9619,237 H 307.98095 264 v 20.41667 c 0,15.35312 0.31001,20.56247 1.25,21.00455 1.19715,0.56304 91.82174,-0.15963 92.39892,-0.73681 z M 472.93448,275.25 c -0.036,-1.5125 -1.50056,-10.625 -3.25451,-20.25 l -3.18899,-17.5 -48.835,-0.25957 -48.83501,-0.25956 0.57033,3.75956 c 0.31369,2.06777 1.51208,10.73457 2.66311,19.25957 1.15103,8.525 2.27054,16.0625 2.4878,16.75 0.30895,0.97763 11.07864,1.25 49.42641,1.25 H 473 l -0.0655,-2.75 z M 247.5,199 v -20.5 l -39.11802,-0.26149 c -30.54558,-0.20418 -39.33526,0.015 -40.10931,1 -0.54521,0.69382 -1.99734,8.91149 -3.22695,18.26149 -1.22962,9.35 -2.47515,18.24238 -2.76786,19.76083 l -0.53219,2.76084 42.87716,-0.26084 L 247.5,219.5 Z m 101.82048,20.25 c 0.73607,-1.25894 -4.85286,-39.18238 -5.93376,-40.26328 -0.65528,-0.65528 -14.69996,-0.91847 -39.94864,-0.74864 L 264.5,178.5 l -0.27236,19.47053 c -0.14981,10.70879 -0.0514,20.04629 0.21861,20.75 0.38803,1.01117 9.29228,1.27947 42.46335,1.27947 23.0848,0 42.1697,-0.3375 42.41088,-0.75 z M 463,218.85913 c 0,-3.98838 -6.3963,-34.77718 -7.61473,-36.65376 -0.81943,-1.26205 -2.62063,-2.72455 -4.00267,-3.25 -3.28783,-1.25004 -89.06387,-1.28011 -89.83555,-0.0315 -0.51046,0.82594 3.98519,36.74432 4.98475,39.82613 0.56156,1.73139 96.4682,1.83988 96.4682,0.10913 z M 275.03155,159.46199 c 2.19957,-2.65033 2.50592,-20.34943 0.49707,-28.71717 -4.98527,-20.76571 -22.61032,-40.346014 -41.22683,-45.800354 -5.65355,-1.656398 -8.57824,-0.348021 -16.1519,7.225649 -16.7225,16.722495 -20.76967,41.792215 -10.14471,62.840155 L 211.02879,161 h 31.36316 c 27.00294,0 31.54062,-0.21382 32.6396,-1.53801 z M 129.22896,137.33071 c -2.15663,-0.86772 -4.3183,-6.12658 -3.63591,-8.84541 1.23033,-4.90206 3.4652,-5.4853 21.01867,-5.4853 14.30569,0 16.43272,0.2154 18.4775,1.87116 3.21091,2.60004 3.21091,8.65764 0,11.25768 -2.05465,1.66375 -4.09975,1.86241 -18.45,1.79221 -8.87657,-0.0434 -16.71119,-0.30907 -17.41026,-0.59034 z m 217.68182,-1.20187 C 345.23834,134.77458 344.6,133.21964 344.6,130.5 c 0,-2.71964 0.63834,-4.27458 2.31078,-5.62884 2.04478,-1.65576 4.17181,-1.87116 18.4775,-1.87116 17.55347,0 19.78834,0.58324 21.01867,5.4853 0.73097,2.9124 -1.51042,7.95669 -3.95175,8.89352 C 381.56487,137.72047 373.72308,138 365.029,138 c -13.95465,0 -16.07828,-0.21932 -18.11822,-1.87116 z M 173.13435,58.582604 C 162.54458,48.10021 161.6,46.861267 161.6,43.453763 161.6,38.97819 164.68251,36 169.31487,36 c 2.61624,0 4.91249,1.8192 14.88921,11.795918 C 193.54511,57.136945 196,60.164053 196,62.341373 196,66.1617 191.93038,70 187.87981,70 185.126,70 183.0261,68.374049 173.13435,58.582604 Z m 145.3202,8.962851 c -4.63653,-4.636529 -3.61777,-6.790398 9.34137,-19.749537 C 337.77264,37.8192 340.06889,36 342.68513,36 c 4.63236,0 7.71487,2.97819 7.71487,7.453763 0,3.407504 -0.94458,4.646447 -11.53435,15.128841 C 328.9739,68.374049 326.874,70 324.12019,70 c -2.07598,0 -4.07878,-0.867676 -5.66564,-2.454545 z M 250.86078,40.088353 C 248.54556,38.2136 248.5,37.845209 248.5,21 c 0,-16.8452088 0.0456,-17.2135996 2.36078,-19.0883531 3.01497,-2.44136762 7.26347,-2.44136762 10.27844,0 C 263.45444,3.7864004 263.5,4.1547912 263.5,21 c 0,16.845209 -0.0456,17.2136 -2.36078,19.088353 C 259.84078,41.139759 257.52814,42 256,42 c -1.52814,0 -3.84078,-0.860241 -5.13922,-1.911647 z"
         id="path1388" />
      <path
         style="fill:#5d6369"
         d="m 148.31382,510.04977 c -1.7524,-1.06851 -3.6649,-2.83724 -4.25,-3.93052 -0.60259,-1.12596 -1.0543,-7.76089 -1.04186,-15.30351 0.0246,-14.91581 1.29648,-19.39482 7.28462,-25.65337 5.65215,-5.90738 10.00071,-7.53708 21.69342,-8.12996 l 10.5,-0.53241 0.56196,-9 c 0.66505,-10.65086 2.3294,-14.94109 7.88954,-20.33703 C 196.40342,421.87207 202.21243,420 213.17814,420 H 222 v -12.97622 -12.97621 l -97.75,-0.27379 C 26.956479,393.50128 26.478986,393.49008 22,391.37584 16.362104,388.71456 11.243708,383.69488 8.8709327,378.5 6.3581481,372.99858 6.5226023,365.5982 9.5568041,347.63603 17.783407,298.93535 39.263017,181.81581 40.654386,178.07361 c 2.372189,-6.38019 8.979274,-12.59037 15.434578,-14.50739 6.714779,-1.99407 32.126043,-2.1867 35.911036,-0.27221 3.775297,1.90958 5.477811,6.13824 3.953224,9.81892 -0.675139,1.62993 -2.036223,3.39631 -3.024633,3.92529 C 91.940182,177.5672 84.831194,178 77.130841,178 61.986483,178 58.940269,178.63533 56.543092,182.29389 55.248217,184.27012 49,214.44442 49,218.72149 c 0,1.04928 9.236985,1.24802 48.25,1.03811 l 48.25,-0.2596 2.76315,-19.49454 c 1.51973,-10.72199 2.54636,-20.05949 2.28139,-20.75 C 150.18792,178.32613 146.20334,178 135.2057,178 c -14.23695,0 -14.94783,-0.0966 -17.03139,-2.31445 -2.70296,-2.87718 -2.81959,-7.66672 -0.26357,-10.82477 l 1.91073,-2.36078 35.58927,-0.28647 C 176.81948,162.0412 191,161.55153 191,160.98458 c 0,-0.51836 -1.18203,-4.43945 -2.62674,-8.71353 -3.80902,-11.26874 -4.41586,-26.68172 -1.50761,-38.29107 5.52387,-22.05057 19.02222,-38.402913 39.63435,-48.014359 10.85642,-5.062351 17.12834,-6.42926 29.5,-6.42926 12.37166,0 18.64358,1.366909 29.5,6.42926 20.51063,9.564116 34.17001,26.108835 39.64083,48.014359 2.90079,11.61499 2.29112,27.0336 -1.51409,38.29107 -1.44471,4.27408 -2.62674,8.21158 -2.62674,8.75 0,0.62853 23.20218,0.97895 64.8185,0.97895 73.60759,0 72.09362,-0.14051 79.62397,7.38983 2.34156,2.34157 4.99702,6.24927 5.90102,8.68378 1.38894,3.7405 22.84653,120.73685 31.09841,169.56242 3.03546,17.96054 3.20025,25.3619 0.68717,30.86397 -2.37278,5.19488 -7.49117,10.21456 -13.12907,12.87584 -4.38597,2.07033 -5.85225,2.13155 -57.86227,2.41561 -58.15765,0.31763 -56.70489,0.44741 -59.32325,-5.29928 -1.4478,-3.17757 0.44146,-7.83212 3.80016,-9.36245 C 378.35282,378.33775 394.18769,378 429.57917,378 c 54.21729,0 55.81964,-0.13963 58.47186,-5.09535 1.20183,-2.24565 0.77393,-14.59125 -0.63279,-18.25713 C 486.83364,353.12408 469.40152,353 255.95203,353 c -130.6877,0 -231.068426,0.37932 -231.374349,0.87431 -0.967023,1.56468 -1.86377,14.84969 -1.184933,17.55439 0.36351,1.44833 2.11135,3.5177 3.884089,4.59858 3.168367,1.93183 5.922786,1.96531 162.018613,1.96898 l 158.79546,0.004 2.45454,2.45455 c 3.94165,3.94164 3.18447,9.59951 -1.61697,12.08244 -2.28575,1.182 -8.2168,1.46301 -30.87882,1.46301 L 290,394 v 13 13 h 8.82186 c 10.96571,0 16.77472,1.87207 22.22664,7.16297 5.56014,5.39594 7.22449,9.68617 7.88954,20.33703 l 0.56196,9 10.5,0.53241 c 11.69271,0.59288 16.04127,2.22258 21.69342,8.12996 6.01084,6.28227 7.26003,10.7177 7.28462,25.86512 0.024,14.81212 -0.54506,16.66301 -5.98908,19.47822 -2.50961,1.29777 -16.60649,1.4938 -107.1893,1.49055 -101.51165,-0.004 -104.38483,-0.0557 -107.48584,-1.94649 z M 302.34444,456.34803 313,455.69607 v -6.92496 c 0,-6.32057 -0.25512,-7.18007 -2.92308,-9.84803 L 307.15385,436 H 256 204.84615 l -2.92307,2.92308 C 199.25632,441.58984 199,442.45209 199,448.75641 c 0,3.80064 0.3,7.21026 0.66667,7.57692 0.85954,0.85955 88.66438,0.87212 102.67777,0.0147 z M 129.39302,335.25 C 129.88476,333.61954 135,297.65539 135,295.82852 135,295.37283 112.53575,295 85.079455,295 H 35.158911 l -0.563952,2.75 C 31.908064,310.85213 28.03363,335.2454 28.515618,336.02527 28.893787,336.63716 47.683246,337 78.991629,337 c 46.630931,0 49.907911,-0.11378 50.401391,-1.75 z M 247.5,316 v -20.5 h -47.99659 -47.9966 l -2.72173,19.5 c -1.49695,10.725 -2.5235,20.06667 -2.28123,20.75926 0.34787,0.99449 11.01209,1.20476 50.71832,1 L 247.5,336.5 Z m 117.89975,20.16221 c 0.46209,-0.74768 -3.65978,-33.26399 -4.93386,-38.92189 l -0.50885,-2.25969 -47.72852,0.25969 L 264.5,295.5 l -0.27236,19.47053 c -0.14981,10.70879 -0.0514,20.04629 0.21861,20.75 0.38975,1.01568 10.794,1.27947 50.46335,1.27947 27.4848,0 50.20537,-0.37701 50.49015,-0.83779 z m 118.06802,-0.11006 c 0.59601,-0.96436 -5.93767,-38.38541 -7.00302,-40.10919 -0.70789,-1.14539 -98.12236,-1.30597 -98.82881,-0.16292 -0.74181,1.20027 4.51924,38.55222 5.62979,39.96996 1.21625,1.55267 99.24648,1.84827 100.20204,0.30215 z M 136.76842,277.75 c 0.7718,-0.95208 6.24026,-36.05416 6.23298,-40.00951 -7.7e-4,-0.41773 -21.9389,-0.64273 -48.7514,-0.5 L 45.5,237.5 41.920743,257 c -2.350396,12.8051 -3.25251,19.92916 -2.627555,20.75 C 40.031148,278.71926 50.970152,279 88,279 c 36.99699,0 47.98339,-0.2816 48.76842,-1.25 z m 109.64979,0.64301 C 247.78908,277.86696 248,275.06536 248,257.38261 V 236.9792 l -44.24533,0.2604 -44.24533,0.2604 -2.7492,19.94436 c -2.15563,15.63824 -2.48049,20.11501 -1.50467,20.73469 1.44345,0.91665 88.7973,1.12167 91.16274,0.21396 z m 111.23071,-0.7086 c 0.2996,-0.2996 -4.33305,-34.66877 -5.1806,-38.43441 L 351.9619,237 H 307.98095 264 v 20.41667 c 0,15.35312 0.31001,20.56247 1.25,21.00455 1.19715,0.56304 91.82174,-0.15963 92.39892,-0.73681 z M 472.93448,275.25 c -0.036,-1.5125 -1.50056,-10.625 -3.25451,-20.25 l -3.18899,-17.5 -48.835,-0.25957 -48.83501,-0.25956 0.57033,3.75956 c 0.31369,2.06777 1.51208,10.73457 2.66311,19.25957 1.15103,8.525 2.27054,16.0625 2.4878,16.75 0.30895,0.97763 11.07864,1.25 49.42641,1.25 H 473 l -0.0655,-2.75 z M 247.5,199 v -20.5 l -39.11802,-0.26149 c -30.54558,-0.20418 -39.33526,0.015 -40.10931,1 -0.54521,0.69382 -1.99734,8.91149 -3.22695,18.26149 -1.22962,9.35 -2.47515,18.24238 -2.76786,19.76083 l -0.53219,2.76084 42.87716,-0.26084 L 247.5,219.5 Z m 101.82048,20.25 c 0.73607,-1.25894 -4.85286,-39.18238 -5.93376,-40.26328 -0.65528,-0.65528 -14.69996,-0.91847 -39.94864,-0.74864 L 264.5,178.5 l -0.27236,19.47053 c -0.14981,10.70879 -0.0514,20.04629 0.21861,20.75 0.38803,1.01117 9.29228,1.27947 42.46335,1.27947 23.0848,0 42.1697,-0.3375 42.41088,-0.75 z M 463,218.85913 c 0,-3.98838 -6.3963,-34.77718 -7.61473,-36.65376 -0.81943,-1.26205 -2.62063,-2.72455 -4.00267,-3.25 -3.28783,-1.25004 -89.06387,-1.28011 -89.83555,-0.0315 -0.51046,0.82594 3.98519,36.74432 4.98475,39.82613 0.56156,1.73139 96.4682,1.83988 96.4682,0.10913 z M 302.30451,160.21601 c 0.88797,-0.98119 2.69909,-4.24369 4.02472,-7.25 C 319.4128,123.29462 304.46477,89.133974 273.60204,78.174774 263.84155,74.708871 248.61745,74.599928 239,77.927163 c -18.12504,6.27051 -31.83753,20.833713 -36.51091,38.776027 -2.98686,11.46733 -1.44068,27.50566 3.62266,37.57731 C 210.3396,162.69026 205.87869,162 256,162 c 41.61626,0 44.80107,-0.1227 46.30451,-1.78399 z m -173.07555,-22.8853 c -2.15663,-0.86772 -4.3183,-6.12658 -3.63591,-8.84541 1.23033,-4.90206 3.4652,-5.4853 21.01867,-5.4853 14.30569,0 16.43272,0.2154 18.4775,1.87116 3.21091,2.60004 3.21091,8.65764 0,11.25768 -2.05465,1.66375 -4.09975,1.86241 -18.45,1.79221 -8.87657,-0.0434 -16.71119,-0.30907 -17.41026,-0.59034 z m 217.68182,-1.20187 C 345.23834,134.77458 344.6,133.21964 344.6,130.5 c 0,-2.71964 0.63834,-4.27458 2.31078,-5.62884 2.04478,-1.65576 4.17181,-1.87116 18.4775,-1.87116 17.55347,0 19.78834,0.58324 21.01867,5.4853 0.73097,2.9124 -1.51042,7.95669 -3.95175,8.89352 C 381.56487,137.72047 373.72308,138 365.029,138 c -13.95465,0 -16.07828,-0.21932 -18.11822,-1.87116 z M 173.13435,58.582604 C 162.54458,48.10021 161.6,46.861267 161.6,43.453763 161.6,38.97819 164.68251,36 169.31487,36 c 2.61624,0 4.91249,1.8192 14.88921,11.795918 C 193.54511,57.136945 196,60.164053 196,62.341373 196,66.1617 191.93038,70 187.87981,70 185.126,70 183.0261,68.374049 173.13435,58.582604 Z m 145.3202,8.962851 c -4.63653,-4.636529 -3.61777,-6.790398 9.34137,-19.749537 C 337.77264,37.8192 340.06889,36 342.68513,36 c 4.63236,0 7.71487,2.97819 7.71487,7.453763 0,3.407504 -0.94458,4.646447 -11.53435,15.128841 C 328.9739,68.374049 326.874,70 324.12019,70 c -2.07598,0 -4.07878,-0.867676 -5.66564,-2.454545 z M 250.86078,40.088353 C 248.54556,38.2136 248.5,37.845209 248.5,21 c 0,-16.8452088 0.0456,-17.2135996 2.36078,-19.0883531 3.01497,-2.44136762 7.26347,-2.44136762 10.27844,0 C 263.45444,3.7864004 263.5,4.1547912 263.5,21 c 0,16.845209 -0.0456,17.2136 -2.36078,19.088353 C 259.84078,41.139759 257.52814,42 256,42 c -1.52814,0 -3.84078,-0.860241 -5.13922,-1.911647 z"
         id="path1386" />
      <path
         style="fill:#335771"
         d="m 151.125,511.30314 c -1.8325,-0.73719 -4.72054,-3.67889 -6.04931,-6.1617 C 144.46795,504.00585 144,497.53306 144,490.26209 c 0,-11.82747 0.20877,-13.28834 2.57859,-18.04396 C 151.44012,462.46232 159.89035,458 173.50328,458 c 5.39941,0 8.59883,-0.43209 9.25568,-1.25 0.55212,-0.6875 1.20308,-5.075 1.44659,-9.75 0.47167,-9.05539 2.03224,-13.3541 6.65861,-18.34158 4.88827,-5.26983 9.67219,-6.99926 20.63584,-7.46006 5.5,-0.23116 10.5625,-0.87546 11.25,-1.43177 1.40796,-1.1393 1.79205,-23.36517 0.44053,-25.49254 -0.60424,-0.95112 -22.62601,-1.28738 -98.23468,-1.5 L 27.5,392.5 22.512457,390.20115 C 15.953185,387.17787 13.232628,384.55458 10.377424,378.5 7.5732233,372.55357 7.4085049,367.67547 9.5582136,354.23923 12.652437,334.89954 39.964793,183.40791 41.028004,179.68783 c 1.358833,-4.75443 7.050039,-11.16013 12.403782,-13.96099 3.456523,-1.80831 6.232577,-2.1906 18.462883,-2.54253 16.371372,-0.47108 21.156101,0.43694 22.940621,4.35354 1.516742,3.32888 1.468792,4.66333 -0.252282,7.02102 -1.273813,1.74499 -3.084952,1.99433 -17.924282,2.46762 -14.556788,0.46428 -16.763501,0.75836 -18.675632,2.48881 -1.192588,1.07928 -2.542376,2.66121 -2.999527,3.51541 -1.261242,2.35665 -7.109676,35.95622 -6.445654,37.03063 0.950656,1.5382 96.154527,1.23309 97.148707,-0.31134 0.44256,-0.6875 2.0185,-10.00976 3.50208,-20.71614 1.9337,-13.95463 2.39575,-19.82964 1.63192,-20.75 C 150.04102,177.3445 145.78243,177 134.95014,177 c -14.54756,0 -14.83872,-0.0429 -16.74526,-2.46667 -2.29341,-2.91559 -1.89227,-6.60077 1.00399,-9.22349 1.83527,-1.66194 4.86981,-1.83335 37.13256,-2.09753 19.32367,-0.15823 35.4928,-0.64654 35.93139,-1.08513 0.4386,-0.4386 -0.0981,-2.88666 -1.19265,-5.44015 -2.86553,-6.68502 -5.08288,-18.46412 -5.06281,-26.89487 0.0255,-10.72063 2.34774,-20.09525 7.62697,-30.789596 3.88995,-7.880023 6.15017,-10.952906 13.27203,-18.043937 6.8445,-6.814883 10.30584,-9.386912 17.08364,-12.694397 12.13707,-5.92274 19.38285,-7.605293 32.5,-7.546868 19.85462,0.08843 34.9014,6.447654 49.11954,20.759382 16.83914,16.949987 23.652,39.769056 18.83542,63.087576 -0.84977,4.114 -2.44058,9.56922 -3.53513,12.12271 -1.09455,2.55349 -1.62962,5.00318 -1.18903,5.44377 0.44058,0.44058 30.94389,0.92889 67.78513,1.08513 66.62608,0.28255 67.00581,0.29571 71.05228,2.46165 5.39085,2.88555 11.05528,9.28679 12.39761,14.01025 1.06841,3.75954 28.45834,155.63788 31.47883,174.5514 2.14653,13.44108 1.98135,18.31599 -0.82207,24.26077 -2.85521,6.05458 -5.57577,8.67787 -12.13504,11.70115 L 484.5,392.5 h -53.71386 c -58.589,0 -55.85267,0.27211 -57.31611,-5.69968 -0.51482,-2.10076 -0.0958,-3.26545 1.88874,-5.25 L 377.90909,379 h 51.64433 c 44.50658,0 52.09438,-0.21357 54.90069,-1.54525 3.31883,-1.57488 5.34978,-4.36883 5.78241,-7.95475 0.40564,-3.36216 -1.32516,-14.90188 -2.43579,-16.2401 C 486.96537,352.25334 440.24249,352 255.44494,352 c -219.426439,0 -231.337446,0.0899 -231.841175,1.75 -0.292055,0.9625 -1.005297,4.783 -1.584981,8.49001 -0.856751,5.47881 -0.776731,7.40354 0.427633,10.28599 C 25.33841,379.44751 13.836974,379 188.83302,379 h 157.89726 l 2.63486,2.07258 c 3.12208,2.45582 3.38736,5.77597 0.72443,9.06664 l -1.91043,2.36078 -29.30793,0.29429 c -21.5069,0.21596 -29.5119,0.61522 -30.07425,1.5 -1.34257,2.11233 -0.94725,24.33921 0.45304,25.4723 0.6875,0.55631 5.75,1.20061 11.25,1.43177 10.96365,0.4608 15.74757,2.19023 20.63584,7.46006 4.62637,4.98748 6.18694,9.28619 6.65861,18.34158 0.24351,4.675 0.89447,9.0625 1.44659,9.75 0.65591,0.81675 3.84579,1.25 9.20327,1.25 13.88111,0 22.02934,4.28927 26.96546,14.19477 2.38353,4.78312 2.59023,6.2249 2.59023,18.06732 0,13.21539 -0.5356,15.57762 -4.36195,19.23791 -2.06098,1.97153 -3.57842,2.00254 -106.61439,2.17814 -57.48801,0.098 -105.14241,-0.0708 -105.89866,-0.375 z m 161.29321,-53.91013 c 1.2557,-0.48185 1.58179,-2.21832 1.58179,-8.42308 0,-7.39463 -0.16591,-7.982 -3.07692,-10.89301 L 307.84615,435 h -51.86731 -51.86731 l -2.60812,2.25 c -3.85591,3.32647 -5.88025,14.30884 -3.46823,18.81574 1.0045,1.87692 2.69176,1.93426 56.91822,1.93426 30.73566,0 56.59483,-0.27314 57.46481,-0.60699 z M 128.83995,337.12008 c 1.56966,-0.9949 7.55896,-41.12117 6.32237,-42.35776 -0.42967,-0.42967 -23.25446,-0.66446 -50.721764,-0.52176 L 34.5,294.5 30.670962,315.39213 c -3.109306,16.96511 -3.579223,21.05051 -2.5,21.73469 1.74308,1.10504 98.925188,1.09853 100.668988,-0.007 z M 247.8,336.8 c 1.26721,-1.26721 1.79686,-38.08104 0.59301,-41.21821 C 247.85122,294.16991 242.64788,294 199.95203,294 c -36.17831,0 -48.01507,0.29299 -48.57711,1.20239 -1.51167,2.44592 -6.19334,40.25537 -5.14454,41.54761 1.44133,1.7759 99.7953,1.82432 101.56962,0.05 z m 118.09706,-0.41602 c 0.60424,-0.52466 -4.91681,-39.783 -5.70697,-40.58039 -0.37955,-0.38302 -21.99438,-1.01696 -48.03295,-1.40876 -40.18667,-0.60467 -47.47767,-0.49941 -48.23469,0.69641 -1.45291,2.29507 -1.15918,40.27203 0.32295,41.75416 0.97901,0.97901 11.94101,1.09973 51.25,0.56437 27.50253,-0.37455 50.18328,-0.83616 50.40166,-1.02579 z M 484,334.85913 c 0,-1.85155 -5.10947,-31.26488 -6.53318,-37.60913 L 476.9619,295 h -49.98095 c -46.9345,0 -49.98091,0.10667 -49.98025,1.75 0.001,2.50227 4.90928,37.50161 5.46932,39 0.3653,0.97734 11.48933,1.25 50.9986,1.25 H 484 Z M 138.43734,276.75 c 1.30136,-6.15857 5.40515,-39.19585 4.95854,-39.91847 C 143.11323,236.37419 120.8671,236 93.960035,236 H 45.038104 l -0.495574,2.25 C 43.106209,244.77117 38,274.82 38,276.75124 V 279 H 87.980948 137.9619 Z m 109.95567,0.66821 c 0.79138,-2.06231 0.79138,-37.77411 0,-39.83642 C 247.85229,236.17269 243.00041,236 203.95203,236 c -33.06279,0 -44.0166,0.29546 -44.57711,1.20239 -0.95044,1.53783 -6.30303,40.04787 -5.7053,41.04761 0.24663,0.4125 21.52371,0.75 47.28241,0.75 41.78398,0 46.89944,-0.17056 47.44098,-1.58179 z m 109.1279,0.54795 c 0.95868,-1.55117 -4.59246,-40.35149 -5.89458,-41.20085 -0.61948,-0.40408 -20.54069,-0.74158 -44.26934,-0.75 -38.42735,-0.0136 -43.20936,0.15758 -43.75,1.56648 C 263.27314,238.45177 263,247.41497 263,257.5 c 0,10.08503 0.27314,19.04823 0.60699,19.91821 0.54141,1.41089 5.61293,1.58179 46.94098,1.58179 30.82175,0 46.54791,-0.34612 46.97294,-1.03384 z m 115.89245,0.17403 c 0.86493,-1.39949 -6.46205,-40.55032 -7.74116,-41.36394 -0.64471,-0.41009 -22.44882,-0.75252 -48.45358,-0.76094 -40.62444,-0.0131 -47.36058,0.19106 -47.84386,1.45046 -0.55911,1.45702 4.30579,39.20833 5.24942,40.73515 0.66985,1.08384 98.11882,1.02394 98.78918,-0.0607 z M 248.39301,219.41821 C 248.72686,218.54823 249,209.11406 249,198.4534 c 0,-18.13998 -0.12405,-19.44942 -1.93426,-20.41822 -2.30956,-1.23603 -76.89766,-1.42866 -78.82752,-0.20357 -1.27187,0.80739 -7.49696,40.92944 -6.58138,42.41839 0.25366,0.4125 19.73649,0.75 43.29519,0.75 38.13651,0 42.90056,-0.17347 43.44098,-1.58179 z m 100.46537,0.69048 c 1.128,-0.71472 0.87359,-4.3162 -1.5,-21.23469 L 344.5,178.5 306.08113,177.66643 c -26.6734,-0.57873 -39.13155,-0.50886 -40.75,0.22856 -2.32514,1.0594 -2.33113,1.11211 -2.33113,20.50178 0,10.69181 0.27314,20.15146 0.60699,21.02144 0.54018,1.40769 5.19045,1.5801 42.25,1.56648 22.90365,-0.008 42.25428,-0.40263 43.00139,-0.876 z m 113.78513,-0.62206 c 0.77806,-2.02761 -4.48267,-32.16235 -6.30178,-36.09807 -0.79096,-1.7113 -2.5626,-3.6238 -3.93697,-4.25 C 450.65584,178.3417 436.56489,178 405.45295,178 H 361 v 2.32852 c 0,6.01817 5.25332,39.2123 6.31233,39.88567 0.65322,0.41535 22.23929,0.76208 47.96905,0.7705 40.85416,0.0134 46.85497,-0.17644 47.36213,-1.49806 z m -158.1468,-60.30229 c 6.37277,-9.62991 9.32892,-28.20597 6.54001,-41.09657 C 306.67761,97.939542 289.24086,80.332933 268.89689,75.53744 239.7053,68.656383 209.9602,86.274005 201.4252,115.5 c -3.47476,11.89847 -1.88585,28.68563 3.78317,39.9699 4.11707,8.19509 -0.38085,7.5301 50.93243,7.5301 h 45.83082 z m -175.96672,-24.1512 c -0.979,-1.08178 -1.77999,-3.12169 -1.77999,-4.53314 0,-1.41145 0.80099,-3.45136 1.77999,-4.53314 C 130.16106,124.16455 131.67135,124 146.58241,124 h 16.27243 l 2.0901,2.65713 c 2.23411,2.84022 2.01329,5.48224 -0.71821,8.59287 -1.34469,1.53133 -3.55974,1.75 -17.72673,1.75 -14.82912,0 -16.33965,-0.16533 -17.97001,-1.96686 z M 347.77327,135.25 c -2.7315,-3.11063 -2.95232,-5.75265 -0.71821,-8.59287 L 349.14516,124 h 16.27243 c 14.91106,0 16.42135,0.16455 18.05242,1.96686 0.979,1.08178 1.77999,3.12169 1.77999,4.53314 0,1.41145 -0.80099,3.45136 -1.77999,4.53314 C 381.83965,136.83467 380.32912,137 365.5,137 c -14.16699,0 -16.38204,-0.21867 -17.72673,-1.75 z M 177.08985,61.402577 C 163.0784,48.221618 160.43226,43.494802 164.52999,38.966864 168.2849,34.817735 171.493,36.228542 182.22846,46.75 c 13.06453,12.804111 14.70886,16.16982 10.1346,20.74408 -3.28199,3.281989 -6.80113,1.87843 -15.27321,-6.091503 z m 141.98273,4.962564 C 317.93266,64.915969 317,63.318622 317,62.815481 317,60.303489 320.73059,55.610733 329.77154,46.75 340.507,36.228542 343.7151,34.817735 347.47001,38.966864 c 4.13474,4.568837 2.15445,8.290006 -11.32871,21.287816 -10.23047,9.862196 -13.26351,10.948 -17.06872,6.110461 z m -68,-28 C 249.19283,35.975422 249,34.384889 249,21.269433 249,5.9760069 250.05757,1.7512791 254.21637,0.43132804 256.99703,-0.4512198 259.41243,0.73530469 261.28363,3.9030078 262.69238,6.2878198 263,9.4003914 263,21.269433 263,34.384889 262.80717,35.975422 260.92742,38.365141 259.55308,40.112331 257.89306,41 256,41 c -1.89306,0 -3.55308,-0.887669 -4.92742,-2.634859 z"
         id="path1384" />
      <path
         style="fill:#050506"
         d="m 152.0271,511.27057 c -0.8101,-0.32221 -2.8351,-1.8596 -4.5,-3.41642 L 144.5,505.02357 v -14.26178 c 0,-15.9115 0.93252,-19.01014 7.66237,-25.46111 5.05194,-4.84258 10.11715,-6.55499 21.33763,-7.21366 l 10,-0.58702 0.64004,-9.08703 c 0.90141,-12.79771 4.34242,-19.18063 12.83087,-23.80062 4.33572,-2.3598 6.75459,-2.88702 15.82359,-3.44898 L 223.5,420.5 l 0.27801,-13.10431 c 0.21445,-10.10823 -0.0336,-13.36292 -1.08492,-14.23544 -0.98862,-0.82049 -28.25349,-1.20379 -99.27801,-1.39569 C 31.111505,391.51516 25.290838,391.39591 21.850339,389.68367 15.785112,386.66519 11.118267,381.21406 9.3258801,375.05441 7.2405701,367.88811 7.0345668,369.2621 26.126326,263 42.320066,172.86788 42.030712,174.0471 49.272296,168.67199 54.670459,164.66517 58.403785,164 75.494236,164 c 14.420225,0 16.377227,0.20049 17.850776,1.82874 1.729283,1.91084 2.162294,5.82526 0.869323,7.8587 C 92.648426,176.15012 87.449531,177 73.950677,177 c -13.852816,0 -13.934147,0.0134 -17.072715,2.81773 -3.00268,2.6829 -3.314104,3.69535 -6.50779,21.15716 -2.506938,13.70694 -3.07269,18.67863 -2.239741,19.68227 C 49.034953,221.74704 58.3469,222 97.563428,222 c 33.038562,0 48.526262,-0.33611 48.975412,-1.06285 1.12204,-1.8155 6.48022,-42.31909 5.69925,-43.08179 -0.40595,-0.39645 -7.55477,-0.86359 -15.88626,-1.03809 -13.22187,-0.27693 -15.41544,-0.55951 -17.25,-2.22226 C 116.4524,172.19371 116.4097,168.5903 119,166 c 1.92495,-1.92495 3.33333,-2 37.53138,-2 29.75717,0 35.61987,-0.23057 36.07583,-1.4188 0.29945,-0.78034 -0.56857,-4.50434 -1.92892,-8.27556 -12.40522,-34.39016 2.98159,-71.563602 35.99007,-86.94946 9.73538,-4.537837 18.0217,-6.323828 29.42168,-6.341399 48.49367,-0.07474 81.75274,47.490609 65.23167,93.290859 -1.36035,3.77122 -2.22837,7.49522 -1.92892,8.27556 0.46252,1.20533 10.59218,1.42027 67.32583,1.42857 l 66.78138,0.01 5.11703,2.38262 c 4.72289,2.1991 8.54597,6.01364 11.20036,11.17536 1.0755,2.09141 29.56304,158.99155 32.75836,180.42248 1.58869,10.65527 1.59592,11.908 0.0984,17.05441 -1.79239,6.15965 -6.45923,11.61078 -12.52446,14.62926 -3.37004,1.67717 -7.81704,1.83741 -58.04311,2.0915 -49.7749,0.2518 -54.55109,0.1325 -56.25,-1.40499 -2.26765,-2.05219 -2.41718,-6.66669 -0.28512,-8.79875 1.26155,-1.26156 4.26874,-1.59631 15.25,-1.69761 7.52321,-0.0694 31.7557,-0.4069 53.84997,-0.75 l 40.1714,-0.62382 2.56329,-2.40993 c 3.36694,-3.1655 4.0565,-7.41884 2.60138,-16.04577 -0.84612,-5.01638 -1.72855,-7.35984 -3.03452,-8.05878 -2.97904,-1.59433 -460.119283,-1.3328 -462.287492,0.26448 -1.143162,0.84214 -2.091139,3.96565 -2.905374,9.57295 -1.359441,9.36193 -0.677063,11.7021 4.54299,15.57989 l 2.823073,2.09716 160.147523,0.5 160.14751,0.5 1.25753,2.5 c 1.43084,2.84457 0.83961,5.91808 -1.49081,7.75 -1.18816,0.934 -8.84219,1.25 -30.27658,1.25 -23.26477,0 -28.90437,0.2626 -29.83958,1.38946 -0.7737,0.93225 -1.06078,5.62128 -0.87244,14.25 L 288.5,420.5 l 10.7055,0.66337 c 9.069,0.56196 11.48787,1.08918 15.82359,3.44898 8.48845,4.61999 11.92946,11.00291 12.83087,23.80062 L 328.5,457.5 l 10,0.58702 c 11.22048,0.65867 16.28569,2.37108 21.33763,7.21366 6.72985,6.45097 7.66237,9.54961 7.66237,25.46111 v 14.26178 l -3.46308,3.23822 -3.46307,3.23821 -103.53693,0.17821 c -56.9453,0.098 -104.19973,-0.0854 -105.00982,-0.40764 z m 200.83824,-15.16619 c 2.23356,-1.41503 1.14472,-15.2702 -1.47772,-18.80365 -4.03585,-5.43784 -2.4167,-5.35421 -98.09194,-5.06661 l -88.4498,0.26588 -3.42294,3.73531 c -3.28918,3.58935 -3.42294,4.042 -3.42294,11.58334 0,4.31641 0.3,8.14802 0.66667,8.51468 0.99945,0.99946 192.61628,0.77355 194.19867,-0.22895 z m -38.47233,-39.68617 c 1.37344,-3.57912 0.5883,-12.9366 -1.35253,-16.11966 -3.97286,-6.51572 -2.67933,-6.38144 -58.52393,-6.07529 L 204.0372,434.5 l -3.23511,3.23574 c -2.91384,2.91441 -3.27438,3.93095 -3.63069,10.23669 -0.21757,3.85053 -0.13427,7.68195 0.18512,8.51426 0.50921,1.32698 7.71289,1.51331 58.50511,1.51331 51.89698,0 57.98755,-0.1646 58.53138,-1.58179 z M 273.5,407 v -12.5 l -15.22798,-0.86393 c -8.37539,-0.47517 -16.36289,-0.5791 -17.75,-0.23095 L 238,394.0381 v 12.31429 c 0,6.77285 0.31026,12.62454 0.68947,13.00374 0.3792,0.37921 8.3667,0.56671 17.75,0.41667 L 273.5,419.5 Z M 130.52724,336.95593 c 1.44875,-2.34414 6.25317,-41.4659 5.24458,-42.70593 C 134.98315,293.28037 123.59518,293 85,293 c -38.608516,0 -49.97728,0.28004 -50.746809,1.25 -1.220109,1.5379 -8.396077,41.70979 -7.662665,42.89647 0.79318,1.2834 103.141734,1.09576 103.936714,-0.19054 z M 249.36971,335.75 c 0.99553,-3.71479 0.70619,-37.42017 -0.34496,-40.1849 L 248.0495,293 h -47.9023 c -40.79571,0 -48.08223,0.21679 -49.11506,1.46128 -1.30725,1.57514 -7.04636,40.21833 -6.28053,42.28872 0.36174,0.97795 11.73091,1.25 52.23875,1.25 h 51.77638 z m 117.61687,-1.5 c -0.0233,-6.50627 -4.90336,-38.4448 -6.09327,-39.87856 C 359.95798,293.24445 351.21696,293 311.8528,293 h -47.9023 l -0.97525,2.5651 c -1.05115,2.76473 -1.34049,36.47011 -0.34496,40.1849 l 0.60297,2.25 H 315.11663 367 l -0.0134,-3.75 z m 118.4216,2.89857 c 1.004,-1.62451 -6.9603,-42.25268 -8.47002,-43.20795 -0.81279,-0.51429 -22.83257,-0.91665 -50.63847,-0.92531 -43.19759,-0.0134 -49.30509,0.17192 -50.05912,1.5193 -0.83297,1.48844 4.00877,40.44179 5.28302,42.50356 0.74744,1.20938 103.13813,1.31819 103.88459,0.1104 z M 138.52724,278.95593 c 0.96939,-1.56852 6.30654,-41.22552 5.74513,-42.68852 C 143.88881,235.26786 133.34195,235 94.36826,235 H 44.950498 l -0.815678,2.25 c -1.538544,4.24398 -7.372895,39.6872 -6.785103,41.21897 0.516682,1.34645 6.612286,1.53103 50.559881,1.53103 33.642542,0 50.183232,-0.34118 50.617642,-1.04407 z m 110.43758,-0.89019 c 1.37511,-2.56942 1.37511,-38.56206 0,-41.13148 C 247.96517,235.0664 246.40207,235 203.43343,235 c -37.47615,0 -44.58201,0.22361 -45.04008,1.41733 -0.96148,2.50558 -6.07707,41.03727 -5.62021,42.33267 0.34427,0.9762 10.81418,1.25 47.79867,1.25 45.79784,0 47.39192,-0.0637 48.39301,-1.93426 z m 109.74559,0.24653 c 0.9618,-2.50641 -4.55145,-41.59197 -5.9963,-42.51012 -0.66776,-0.42434 -20.88578,-0.77842 -44.92893,-0.78684 -42.20439,-0.0148 -43.75058,0.0515 -44.75,1.91895 C 262.42786,238.06906 262,246.56919 262,257.5 c 0,10.93081 0.42786,19.43094 1.03518,20.56574 1.00092,1.87022 2.59108,1.93426 48.03139,1.93426 43.17527,0 47.04885,-0.13722 47.64384,-1.68773 z m 115.94514,0.14297 c 0.55935,-1.45763 -6.13796,-40.80875 -7.25223,-42.61168 C 467.11657,235.3796 444.91362,235 418.06343,235 c -37.85696,0 -49.04218,0.28067 -49.81455,1.25 -0.96635,1.21277 3.88083,40.53283 5.27471,42.78817 0.36774,0.59501 19.65273,0.96183 50.56681,0.96183 44.14099,0 50.04154,-0.18026 50.56515,-1.54476 z m -225.69073,-58.3895 c 1.10477,-2.06429 1.45049,-36.91413 0.40489,-40.81574 L 248.76674,177 h -40.82435 c -22.4534,0 -41.06369,0.38725 -41.35621,0.86056 C 165.8731,179.01435 161,213.66011 161,217.57603 c 0,1.69985 0.3,3.39064 0.66667,3.7573 C 162.03333,221.7 181.5925,222 205.13148,222 c 41.28982,0 42.83464,-0.0682 43.83334,-1.93426 z m 101.74559,0.24653 c 0.6338,-1.65164 -4.24279,-40.74663 -5.29496,-42.44908 C 345.12203,177.38843 326.51101,177 304.05761,177 h -40.82435 l -0.60297,2.25 c -1.0456,3.90161 -0.69988,38.75145 0.40489,40.81574 0.99882,1.8663 2.54576,1.93426 44.03139,1.93426 39.42196,0 43.05004,-0.1403 43.64384,-1.68773 z m 113.11928,0.39294 c 0.7789,-0.93852 0.27277,-5.73287 -1.83944,-17.42406 -3.82554,-21.17456 -3.74071,-20.89339 -7.17612,-23.7841 L 451.84655,177 h -45.81629 c -35.73176,0 -45.92136,0.27513 -46.29365,1.25 -0.8694,2.27652 5.15016,42.06078 6.49295,42.91304 0.69874,0.44348 22.70284,0.81323 48.898,0.82165 37.77554,0.0121 47.84983,-0.25252 48.70213,-1.27948 z M 304.49671,159.18434 c 6.37277,-9.62991 9.32892,-28.20597 6.54001,-41.09657 C 306.67761,97.939542 289.24086,80.332933 268.89689,75.53744 239.7053,68.656383 209.9602,86.274005 201.4252,115.5 c -3.47476,11.89847 -1.88585,28.68563 3.78317,39.9699 4.11707,8.19509 -0.38085,7.5301 50.93243,7.5301 h 45.83082 z M 131,136.34114 c -4.18882,-1.59512 -5.25148,-7.08966 -2,-10.34114 1.82545,-1.82545 3.33333,-2 17.27749,-2 12.20886,0 15.72391,0.31268 17.5,1.5567 2.57174,1.80132 2.95274,6.06091 0.80521,9.00217 -1.28386,1.75837 -2.86089,1.96054 -16.75,2.1473 -8.43299,0.1134 -16.0077,-0.0509 -16.8327,-0.36503 z m 219,0 c -4.34923,-1.65621 -5.43187,-8.22481 -1.77749,-10.78444 C 349.99512,124.31512 353.49253,124 365.5,124 c 12.00747,0 15.50488,0.31512 17.27749,1.5567 2.57174,1.80132 2.95274,6.06091 0.80521,9.00217 -1.28386,1.75837 -2.86089,1.96054 -16.75,2.1473 -8.43299,0.1134 -16.0077,-0.0509 -16.8327,-0.36503 z M 174.29787,57.702128 C 162.17017,45.574421 160.92671,43.073288 165,39 c 3.65205,-3.652053 5.72915,-2.570217 17.65355,9.194682 C 192.48969,57.899255 194,59.821783 194,62.637978 194,66.161259 191.13332,69 187.57537,69 c -1.18935,0 -6.48978,-4.510159 -13.2775,-11.297872 z m 145.92464,9.741168 C 318.70138,66.377861 318,64.861386 318,62.637978 318,59.821783 319.51031,57.899255 329.34645,48.194682 341.27085,36.429783 343.34795,35.347947 347,39 c 4.07329,4.073288 2.82983,6.574421 -9.29787,18.702128 C 330.91441,64.489841 325.61398,69 324.42463,69 c -1.08879,0 -2.97975,-0.700517 -4.20212,-1.556704 z M 254,40.296016 C 250.44212,39.048188 250,36.859853 250,20.497432 250,5.6567103 250.16185,4.2034007 252.03896,2.1885614 253.16038,0.98485265 254.94285,0 256,0 c 1.05715,0 2.83962,0.98485265 3.96104,2.1885614 C 261.83815,4.2034007 262,5.6567103 262,20.497432 c 0,11.381498 -0.36746,16.587759 -1.25,17.710463 -1.46235,1.860293 -4.61704,2.836199 -6.75,2.088121 z"
         id="path1382" />
    </g>
  </g>
</svg>
