<?xml version="1.0" encoding="UTF-8" standalone="no"?>
<!-- Created with Inkscape (http://www.inkscape.org/) -->

<svg
   version="1.1"
   id="svg2465"
   width="682.66669"
   height="682.66669"
   viewBox="0 0 682.66669 682.66669"
   xmlns="http://www.w3.org/2000/svg"
   xmlns:svg="http://www.w3.org/2000/svg">
  <defs
     id="defs2469" />
  <g
     id="g2471">
    <g
       id="g2475">
      <path
         style="fill:#dceaef;stroke-width:1.33333"
         d="m 311.64822,617.00002 c -2.7454,-2.08477 -4.98154,-7.95927 -4.98154,-13.0868 v -3.9132 h 18.66666 18.66667 v 9.33333 9.33334 h -15.07849 c -10.00335,0 -15.81723,-0.56098 -17.2733,-1.66667 z m 257.01847,-157 c 1.32732,-1.46667 2.7133,-2.66667 3.07997,-2.66667 0.36667,0 -0.41932,1.2 -1.74664,2.66667 -1.32732,1.46666 -2.71331,2.66666 -3.07997,2.66666 -0.36667,0 0.41932,-1.2 1.74664,-2.66666 z M 124.92417,441.61788 c -4.7522,-5.25112 -6.2575,-11.86367 -6.2575,-27.48824 0,-17.67469 -0.94357,-21.09237 -6.45335,-23.3746 -3.88322,-1.60848 -4.02487,-1.97633 -4.4455,-11.54467 -0.41309,-9.39657 -0.29153,-9.88308 2.46874,-9.88013 1.59678,10e-4 4.14678,-1.57781 5.66667,-3.51004 2.75159,-3.49808 2.76344,-4.05559 2.76344,-130.00001 V 109.33334 h 16.64413 16.64413 l 0.35588,149.44902 0.35586,149.449 3.74102,3.21767 c 4.58825,3.94636 8.79198,4.08872 13.4125,0.45421 l 3.51315,-2.76344 v -26.56989 -26.5699 h 41.92076 41.92078 l 0.41256,26.11815 0.41257,26.11813 3.74101,3.2152 c 4.58902,3.94399 8.79284,4.08558 13.41251,0.45175 l 3.51315,-2.76344 V 259.23657 109.33334 h 97.39393 97.39395 l 3.27272,-3.27273 c 1.8,-1.8 3.27274,-4.2 3.27274,-5.33333 0,-1.675425 1.86928,-2.06061 10,-2.06061 8.13072,0 10,0.385185 10,2.06061 0,1.13333 1.47273,3.53333 3.27273,5.33333 3.04103,3.04103 4.22243,3.27273 16.68752,3.27273 h 13.41481 l -0.3542,161.66667 c -0.33786,154.21035 -0.46849,161.92803 -2.8323,167.33334 l -2.47811,5.66667 H 327.39522 c -190.64632,0 -200.41931,-0.11499 -202.47105,-2.38214 z m 48.40917,-139.61787 v -32.66667 h 42 42 v 32.66667 32.66667 h -42 -42 z m 0,-86.66667 v -32.66667 h 42 42 v 32.66667 32.66667 h -42 -42 z m 0,-80 v -26 h 42 42 v 26 26 h -42 -42 z M 73.163263,99.000003 c -1.658495,-2.114741 -1.611335,-2.161901 0.503406,-0.503406 1.283334,1.006458 2.333334,2.056463 2.333334,2.333333 0,1.09738 -1.094915,0.39107 -2.83674,-1.829927 z m 22.58674,-54.577487 c 0.9625,-0.385161 2.1125,-0.337792 2.555556,0.105267 0.443055,0.443056 -0.344445,0.758188 -1.75,0.700293 -1.553257,-0.06397 -1.8692,-0.379921 -0.805556,-0.805556 z M 583.41021,44.124347 c -0.41096,-0.664944 0.45362,-0.894966 1.9213,-0.511159 3.11332,0.814151 3.50687,1.720147 0.7472,1.720147 -1.05672,0 -2.25754,-0.544045 -2.6685,-1.208988 z M 121.33334,43.267121 c 0,-4.670146 11.48732,-16.673612 19.33333,-20.202018 5.03884,-2.266 15.52456,-2.418356 189.89842,-2.759202 l 184.56507,-0.360767 3.90222,3.6941 c 4.15266,3.931195 11.6009,15.911982 11.6218,18.694101 0.01,1.326149 -41.80304,1.666667 -204.65417,1.666667 -112.56667,0 -204.66667,-0.329797 -204.66667,-0.732881 z m -12,-22.437194 c 0,-0.276874 1.05,-1.326874 2.33333,-2.333333 2.11474,-1.658495 2.1619,-1.611335 0.50341,0.503407 -1.74183,2.220997 -2.83674,2.927305 -2.83674,1.829926 z m 457.87333,-5.16326 -2.53998,-3 3,2.539984 c 1.65,1.396991 3,2.746991 3,3 0,1.067004 -1.07306,0.279276 -3.46002,-2.539984 z"
         id="path2489" />
      <path
         style="fill:#a8d1d6;stroke-width:1.33333"
         d="m 385.33335,631.49661 c 0,-0.27687 1.05,-1.32687 2.33333,-2.33334 2.11475,-1.65849 2.16191,-1.61133 0.50341,0.50342 -1.74182,2.221 -2.83674,2.9273 -2.83674,1.82992 z m -41.33334,-22.16326 v -9.33333 h 15.33334 15.33333 v 6.43425 c 0,5.00168 -0.68707,7.07972 -3.08593,9.33334 -2.70603,2.54217 -4.59372,2.89908 -15.33334,2.89908 h -12.2474 z M 528.6843,441.66668 c 4.66653,-11.23009 4.64905,-10.57871 4.64905,-173.21191 V 109.33334 h 15.33334 15.33333 v 159.13438 c 0,165.70557 0.066,163.68935 -5.62807,171.86563 -2.51164,3.60652 -2.784,3.66667 -16.60537,3.66667 -12.8632,0 -13.96984,-0.19738 -13.08228,-2.33334 z m -270.79518,-61 c 0.001,-13.93333 0.19886,-19.45217 0.43906,-12.26408 0.2402,7.18809 0.23915,18.58809 -0.003,25.33333 -0.24148,6.74524 -0.43802,0.86408 -0.43674,-13.06925 z m -105.24539,-124 c 5e-5,-81.40001 0.16029,-114.50389 0.35609,-73.56419 0.1958,40.93969 0.19576,107.53969 -9e-5,148 -0.19586,40.46031 -0.35606,6.96419 -0.356,-74.43581 z m 105.26768,45.33333 c -8.1e-4,-18.33333 0.18697,-26.01827 0.41731,-17.07763 0.23033,8.94066 0.231,23.94066 0.001,33.33334 -0.22952,9.39269 -0.41797,2.07762 -0.41879,-16.25571 z m 0,-86.66667 c -8.1e-4,-18.33333 0.18697,-26.01827 0.41731,-17.07763 0.23033,8.94066 0.231,23.94066 0.001,33.33334 -0.22952,9.39269 -0.41797,2.07762 -0.41879,-16.25571 z m -0.0179,-80 c -10e-4,-14.66667 0.19363,-20.84859 0.4329,-13.73759 0.23926,7.11099 0.24024,19.11099 0.003,26.66667 -0.23809,7.55567 -0.43386,1.73759 -0.43504,-12.92908 z M 325.66668,44.3725 c 140.36759,-0.260834 205,-0.816727 205,-1.763168 0,-2.784751 -5.58012,-12.208552 -10.39108,-17.548639 l -4.94225,-5.485815 11.12675,0.920997 c 15.95041,1.320266 25.29477,6.590686 32.88127,18.545737 1.29426,2.039553 1.9221,4.139553 1.39518,4.666667 -0.5269,0.527115 -99.75817,0.977912 -220.51394,1.001773 l -219.55594,0.04338 z M 128.66667,30.666668 c 1.32732,-1.466667 2.7133,-2.666667 3.07997,-2.666667 0.36666,0 -0.41932,1.2 -1.74664,2.666667 -1.32731,1.466666 -2.7133,2.666666 -3.07996,2.666666 -0.36667,0 0.41932,-1.2 1.74663,-2.666666 z"
         id="path2487" />
      <path
         style="fill:#8cb8c3;stroke-width:1.33333"
         d="m 226.97722,522.2571 -72.35611,-56.25708 87.35611,-0.34292 c 48.04587,-0.1886 126.67138,-0.1886 174.72337,0 l 87.36724,0.34292 -72.58782,56.33333 -72.5878,56.33334 -29.77944,-0.0763 -29.77943,-0.0763 z m 357.668,-254.92376 c 5e-5,-87.26667 0.15964,-122.77031 0.35464,-78.89697 0.195,43.87334 0.19497,115.27335 -8e-5,158.66667 -0.19505,43.39333 -0.35461,7.49697 -0.35456,-79.7697 z M 480.00002,96.096777 c 0,-1.413442 -1.58092,-3.813442 -3.51315,-5.333334 l -3.51315,-2.76344 H 283.22789 93.482039 l -3.334447,-3 c -3.689565,-3.3195 -4.503554,-6.49948 -3.065468,-11.975749 2.154516,-8.204449 -14.822099,-7.690918 254.251216,-7.690918 262.01377,0 251.41601,-0.252995 253.83844,6.059736 1.77991,4.63838 0.77619,10.113535 -2.44449,13.334204 l -3.27272,3.272727 h -41.21414 c -39.67629,0 -41.34521,0.10312 -44.72727,2.76344 -1.93222,1.519892 -3.51314,3.919892 -3.51314,5.333334 0,2.3092 -1.01442,2.569893 -10,2.569893 -8.98559,0 -10,-0.260693 -10,-2.569893 z m 59,-51.748759 c 4.21667,-0.264602 11.11667,-0.264602 15.33333,0 4.21667,0.2646 0.76667,0.481092 -7.66666,0.481092 -8.43334,0 -11.88334,-0.216492 -7.66667,-0.481092 z"
         id="path2485" />
      <path
         style="fill:#779ba9;stroke-width:1.33333"
         d="m 294.4966,629.66669 c -1.6585,-2.11475 -1.61134,-2.16191 0.50341,-0.50342 1.28333,1.00647 2.33333,2.05647 2.33333,2.33334 0,1.09738 -1.09492,0.39108 -2.83674,-1.82992 z m 80.50632,-25 c 0.0148,-2.93334 0.28785,-3.97634 0.60677,-2.31779 0.31892,1.65855 0.30682,4.05855 -0.0269,5.33333 -0.33372,1.27479 -0.59467,-0.0823 -0.57987,-3.01554 z m -14.26957,-27.23094 c 0.69666,-0.677 33.36666,-26.16086 72.6,-56.6308 l 71.33333,-55.39988 12,0.007 c 9.67867,0.005 11.59922,0.32074 9.92818,1.6308 -1.1395,0.89334 -33.93912,26.37426 -72.88806,56.62426 l -70.81623,55.00001 h -11.71194 c -7.1842,0 -11.22227,-0.47587 -10.44528,-1.23094 z M 194.4173,268.33533 c 11.96285,-0.2212 31.16285,-0.22076 42.66667,9.7e-4 11.50383,0.22174 1.71604,0.40272 -21.75063,0.40219 -23.46667,-5.3e-4 -32.87888,-0.18196 -20.91604,-0.40316 z m 0,-86.66667 c 11.96285,-0.2212 31.16285,-0.22076 42.66667,9.7e-4 11.50383,0.22174 1.71604,0.40272 -21.75063,0.40219 -23.46667,-5.3e-4 -32.87888,-0.18196 -20.91604,-0.40316 z M 553.16327,31.000001 c -1.65849,-2.114741 -1.61133,-2.161901 0.50342,-0.503407 2.221,1.741826 2.9273,2.83674 1.82992,2.83674 -0.27687,0 -1.32687,-1.05 -2.33334,-2.333333 z"
         id="path2483" />
      <path
         style="fill:#547881;stroke-width:1.33333"
         d="m 124,659.817 c 0,-4.11582 18.63783,-174.89925 19.14202,-175.40344 0.76036,-0.76037 44.19625,33.85303 44.00761,35.06898 -0.10106,0.65128 -8.79057,33.13415 -19.31006,72.18415 l -19.12635,71 h -12.3566 C 124.62436,662.66669 124,662.5227 124,659.817 Z m 411.41055,-4.15031 c -3.43535,-12.04 -36.48164,-134.87485 -36.95801,-137.37491 -0.32794,-1.72103 5.6047,-7.10406 21.54748,-19.55127 21.77188,-16.99827 22.00996,-17.13955 22.95997,-13.62509 0.52799,1.9532 4.90574,40.75126 9.72832,86.21793 4.8226,45.46667 9.10739,84.61667 9.52175,87.00001 l 0.7534,4.33333 h -12.7778 -12.77781 z M 328.33334,639.00602 c 7.15,-0.23974 18.85001,-0.23974 26.00001,0 7.15,0.23975 1.3,0.4359 -13.00001,0.4359 -14.3,0 -20.15,-0.19615 -13,-0.4359 z m -3.95132,-19.99277 c 4.24344,-0.2654 10.84344,-0.26294 14.66667,0.005 3.82323,0.26841 0.35132,0.48556 -7.71535,0.48255 -8.06666,-0.003 -11.19476,-0.22262 -6.95132,-0.48802 z m -4.04868,-40.0107 c 11.55,-0.22197 30.45001,-0.22197 42.00001,0 11.55,0.22198 2.1,0.40359 -21.00001,0.40359 -23.1,0 -32.55,-0.18161 -21,-0.40359 z M 153.33323,465.00002 c 6e-5,-0.55 84.75011,-0.85563 188.33345,-0.67916 103.58334,0.17646 158.03334,0.476 121,0.66562 -178.11786,0.91208 -309.33354,0.91783 -309.33345,0.0136 z m -35.51292,-52.33334 c 0.003,-7.33333 0.22738,-10.16323 0.49757,-6.28864 0.27019,3.87459 0.26735,9.87459 -0.006,13.33333 -0.27371,3.45875 -0.49477,0.28864 -0.4913,-7.04469 z m 0.16938,-178.00001 0.0103,-126 17.00203,-0.0622 17.00203,-0.0622 -16.66191,0.43536 -16.66189,0.43535 -0.35044,125.62689 -0.35044,125.62688 0.0103,-126 z M 194.4173,355.002 c 11.96285,-0.2212 31.16285,-0.22076 42.66667,9.7e-4 11.50383,0.22174 1.71604,0.40272 -21.75063,0.40219 -23.46667,-5.3e-4 -32.87888,-0.18196 -20.91604,-0.40316 z m 0,-246.66667 c 11.96285,-0.2212 31.16285,-0.22077 42.66667,9.7e-4 11.50383,0.22173 1.71604,0.40272 -21.75063,0.40218 -23.46667,-5.3e-4 -32.87888,-0.18195 -20.91604,-0.40315 z m 132.01414,-0.002 c 26.63728,-0.20198 69.83728,-0.20188 96,2.2e-4 26.16272,0.2021 4.36857,0.36735 -48.43143,0.36723 -52.8,-1.3e-4 -74.20585,-0.16548 -47.56857,-0.36745 z m 189.94214,0.0179 c 3.50546,-0.27557 8.90546,-0.27225 12,0.007 3.09454,0.27963 0.22644,0.5051 -6.37356,0.50103 -6.6,-0.004 -9.1319,-0.23285 -5.62644,-0.50842 z"
         id="path2481" />
      <path
         style="fill:#5c6467;stroke-width:1.33333"
         d="m 107.82993,676.33336 c -1.65849,-2.11475 -1.61133,-2.16191 0.50341,-0.50342 1.28333,1.00647 2.33333,2.05647 2.33333,2.33334 0,1.09738 -1.09491,0.39108 -2.83674,-1.82992 z m 14.942,-15.77778 c 0.064,-1.55326 0.37992,-1.8692 0.80556,-0.80556 0.38516,0.9625 0.33779,2.11251 -0.10527,2.55556 -0.44305,0.44306 -0.75819,-0.34445 -0.70029,-1.75 z m -20,-1.33333 c 0.064,-1.55327 0.37992,-1.8692 0.80556,-0.80556 0.38516,0.96249 0.33779,2.11251 -0.10527,2.55556 -0.44305,0.44305 -0.75819,-0.34445 -0.70029,-1.75 z m 458.77194,-4.55556 c 0,-1.83333 0.30264,-2.58333 0.67252,-1.66667 0.36988,0.91667 0.36988,2.41667 0,3.33334 -0.36988,0.91666 -0.67252,0.16666 -0.67252,-1.66667 z m 19.89475,-0.77777 c 0.064,-1.55327 0.37992,-1.8692 0.80555,-0.80556 0.38516,0.96249 0.3378,2.1125 -0.1052,2.55556 -0.44306,0.44305 -0.75819,-0.34446 -0.7003,-1.75 z m -457.22809,-5.8889 c 0,-1.83333 0.30263,-2.58333 0.67252,-1.66666 0.36988,0.91666 0.36988,2.41666 0,3.33333 -0.36989,0.91667 -0.67252,0.16667 -0.67252,-1.66667 z m -20.10526,-0.77777 c 0.064,-1.55327 0.37992,-1.8692 0.80555,-0.80556 0.38516,0.96249 0.33779,2.11251 -0.10526,2.55556 -0.44306,0.44305 -0.75819,-0.34445 -0.7003,-1.75 z m 456.10527,-4.55556 c 0,-1.83333 0.30264,-2.58333 0.67252,-1.66667 0.36988,0.91667 0.36988,2.41667 0,3.33334 -0.36988,0.91666 -0.67252,0.16666 -0.67252,-1.66667 z m 19.89475,-0.77777 c 0.064,-1.55327 0.37992,-1.8692 0.80554,-0.80556 0.38516,0.96249 0.3378,2.1125 -0.1052,2.55556 -0.44305,0.44305 -0.75818,-0.34446 -0.70029,-1.75 z m -454.56143,-5.8889 c 0,-1.83333 0.30263,-2.58333 0.67252,-1.66666 0.36988,0.91666 0.36988,2.41666 0,3.33333 -0.36989,0.91667 -0.67252,0.16667 -0.67252,-1.66667 z m -20.10526,-0.77777 c 0.064,-1.55327 0.37992,-1.8692 0.80556,-0.80556 0.38516,0.96249 0.33779,2.11251 -0.10527,2.55556 -0.44306,0.44305 -0.75819,-0.34445 -0.70029,-1.75 z m 453.43861,-4.55556 c 0,-1.83334 0.30264,-2.58334 0.67252,-1.66667 0.36988,0.91667 0.36988,2.41667 0,3.33333 -0.36988,0.91667 -0.67252,0.16667 -0.67252,-1.66666 z M 126.8772,624.00002 c 0,-1.83333 0.30263,-2.58333 0.67251,-1.66667 0.36989,0.91667 0.36989,2.41667 0,3.33334 -0.36988,0.91666 -0.67251,0.16666 -0.67251,-1.66667 z m 430.66667,-5.33333 c 0,-1.83334 0.30264,-2.58334 0.67252,-1.66667 0.36988,0.91667 0.36988,2.41667 0,3.33333 -0.36988,0.91667 -0.67252,0.16667 -0.67252,-1.66666 z m -206.50363,0.35164 c 3.50547,-0.27558 8.90547,-0.27224 12,0.008 3.09455,0.27962 0.22644,0.50509 -6.37356,0.50102 -6.6,-0.004 -9.13189,-0.23285 -5.62644,-0.50841 z m -222.82971,-7.01831 c 0,-1.83333 0.30263,-2.58333 0.67252,-1.66667 0.36988,0.91667 0.36988,2.41667 0,3.33334 -0.36989,0.91666 -0.67252,0.16666 -0.67252,-1.66667 z m 266.89367,-8.66667 c 0.005,-5.13333 0.24691,-7.06994 0.53555,-4.3036 0.28862,2.76636 0.28378,6.96636 -0.0107,9.33334 -0.29455,2.36698 -0.53071,0.1036 -0.52479,-5.02974 z m 161.10634,3.33334 c 0,-1.83334 0.30264,-2.58334 0.67252,-1.66667 0.36988,0.91667 0.36988,2.41667 0,3.33333 -0.36988,0.91667 -0.67252,0.16667 -0.67252,-1.66666 z m 19.89475,-2.11111 c 0.064,-1.55327 0.37992,-1.8692 0.80554,-0.80556 0.38516,0.96249 0.3378,2.11251 -0.1052,2.55556 -0.44305,0.44305 -0.75818,-0.34445 -0.70029,-1.75 z m -446.56143,-5.88889 c 0,-1.83334 0.30264,-2.58334 0.67252,-1.66667 0.36988,0.91667 0.36988,2.41667 0,3.33333 -0.36988,0.91667 -0.67252,0.16667 -0.67252,-1.66666 z m -20.10526,-0.77778 c 0.064,-1.55326 0.37992,-1.8692 0.80556,-0.80556 0.38516,0.9625 0.33779,2.11251 -0.10527,2.55556 -0.44306,0.44306 -0.75819,-0.34445 -0.70029,-1.75 z m 213.4827,1.11542 c 9.30672,-0.22888 24.90673,-0.2295 34.66667,-10e-4 9.75996,0.22812 2.14538,0.41539 -16.92129,0.41615 -19.06667,7.6e-4 -27.05208,-0.18588 -17.74538,-0.41476 z m 231.95591,-5.67098 c 0,-1.83333 0.30264,-2.58333 0.67252,-1.66666 0.36988,0.91666 0.36988,2.41666 0,3.33333 -0.36988,0.91667 -0.67252,0.16667 -0.67252,-1.66667 z m 19.89474,-0.77777 c 0.064,-1.55327 0.37992,-1.8692 0.80555,-0.80556 0.38516,0.96249 0.3378,2.11251 -0.1052,2.55556 -0.44305,0.44305 -0.75819,-0.34445 -0.70029,-1.75 z M 130.8772,586.66669 c 0,-1.83334 0.30263,-2.58334 0.67251,-1.66667 0.36989,0.91667 0.36989,2.41667 0,3.33333 -0.36988,0.91667 -0.67251,0.16667 -0.67251,-1.66666 z m -20.10527,-0.77778 c 0.064,-1.55326 0.37992,-1.8692 0.80556,-0.80556 0.38516,0.9625 0.33779,2.11251 -0.10527,2.55556 -0.44305,0.44306 -0.75819,-0.34445 -0.70029,-1.75 z m 442.77194,-4.55556 c 0,-1.83333 0.30264,-2.58333 0.67252,-1.66666 0.36988,0.91666 0.36988,2.41666 0,3.33333 -0.36988,0.91667 -0.67252,0.16667 -0.67252,-1.66667 z m -421.33334,-6.66666 c 0,-1.83334 0.30263,-2.58334 0.67252,-1.66667 0.36988,0.91667 0.36988,2.41667 0,3.33333 -0.36989,0.91667 -0.67252,0.16667 -0.67252,-1.66666 z m 420.00001,-5.33334 c 0,-1.83333 0.30264,-2.58333 0.67252,-1.66666 0.36988,0.91666 0.36988,2.41666 0,3.33333 -0.36988,0.91667 -0.67252,0.16667 -0.67252,-1.66667 z m -418.66668,-6.66666 c 0,-1.83334 0.30264,-2.58334 0.67252,-1.66667 0.36988,0.91667 0.36988,2.41667 0,3.33333 -0.36988,0.91667 -0.67252,0.16667 -0.67252,-1.66666 z m 417.33335,-5.33334 c 0,-1.83333 0.30264,-2.58333 0.67252,-1.66666 0.36988,0.91666 0.36988,2.41666 0,3.33333 -0.36988,0.91667 -0.67252,0.16667 -0.67252,-1.66667 z m -416.00002,-6.66666 c 0,-1.83334 0.30264,-2.58334 0.67252,-1.66667 0.36988,0.91667 0.36988,2.41667 0,3.33333 -0.36988,0.91667 -0.67252,0.16667 -0.67252,-1.66666 z m -20.10526,-2.11111 c 0.064,-1.55327 0.37992,-1.8692 0.80556,-0.80556 0.38516,0.96249 0.33779,2.11251 -0.10527,2.55556 -0.44305,0.44305 -0.75819,-0.34445 -0.70029,-1.75 z m 434.77194,-4.55556 c 0,-1.83333 0.30264,-2.58333 0.67252,-1.66667 0.36988,0.91667 0.36988,2.41667 0,3.33334 -0.36988,0.91666 -0.67252,0.16666 -0.67252,-1.66667 z m 19.89475,-0.77777 c 0.064,-1.55327 0.37992,-1.8692 0.80555,-0.80556 0.38516,0.96249 0.3378,2.1125 -0.1052,2.55556 -0.44306,0.44305 -0.75819,-0.34446 -0.7003,-1.75 z m -433.2281,-5.8889 c 0,-1.83333 0.30264,-2.58333 0.67252,-1.66667 0.36988,0.91667 0.36988,2.41667 0,3.33334 -0.36988,0.91667 -0.67252,0.16667 -0.67252,-1.66667 z m -20.10525,-0.77777 c 0.064,-1.55327 0.37992,-1.8692 0.80555,-0.80556 0.38516,0.96249 0.33779,2.11251 -0.10526,2.55556 -0.44306,0.44305 -0.75819,-0.34445 -0.7003,-1.75 z m 432.10527,-4.55556 c 0,-1.83334 0.30264,-2.58334 0.67252,-1.66667 0.36988,0.91667 0.36988,2.41667 0,3.33333 -0.36988,0.91667 -0.67252,0.16667 -0.67252,-1.66666 z m 19.89475,-0.77778 c 0.064,-1.55326 0.37992,-1.8692 0.80554,-0.80556 0.38516,0.9625 0.3378,2.11251 -0.1052,2.55556 -0.44305,0.44306 -0.75818,-0.34445 -0.70029,-1.75 z m -430.56143,-5.88889 c 0,-1.83333 0.30264,-2.58333 0.67252,-1.66667 0.36988,0.91667 0.36988,2.41667 0,3.33334 -0.36988,0.91666 -0.67252,0.16666 -0.67252,-1.66667 z m -20.10526,-0.77777 c 0.064,-1.55327 0.37992,-1.8692 0.80556,-0.80556 0.38516,0.96249 0.33779,2.1125 -0.10527,2.55556 -0.44306,0.44305 -0.75819,-0.34446 -0.70029,-1.75 z m 429.43861,-4.55556 c 0,-1.83334 0.30264,-2.58334 0.67252,-1.66667 0.36988,0.91667 0.36988,2.41667 0,3.33333 -0.36988,0.91667 -0.67252,0.16667 -0.67252,-1.66666 z m -361.71395,-3.66667 c -1.65849,-2.11475 -1.61133,-2.16191 0.50341,-0.50341 1.28334,1.00646 2.33334,2.05646 2.33334,2.33333 0,1.09739 -1.09492,0.39108 -2.83675,-1.82992 z m -46.28607,-3 c 0,-1.83333 0.30264,-2.58333 0.67252,-1.66667 0.36988,0.91667 0.36988,2.41667 0,3.33334 -0.36988,0.91666 -0.67252,0.16666 -0.67252,-1.66667 z m 362.45616,-0.50341 c 0,-0.27687 1.05,-1.32687 2.33333,-2.33334 2.11475,-1.65849 2.16191,-1.61133 0.50342,0.50342 -1.74183,2.221 -2.83675,2.9273 -2.83675,1.82992 z m 44.21052,-4.82992 c 0,-1.83334 0.30264,-2.58334 0.67252,-1.66667 0.36988,0.91667 0.36988,2.41667 0,3.33333 -0.36988,0.91667 -0.67252,0.16667 -0.67252,-1.66666 z m -372.38061,-1 c -1.65849,-2.11475 -1.61133,-2.16191 0.50341,-0.50342 1.28334,1.00647 2.33334,2.05647 2.33334,2.33334 0,1.09738 -1.09492,0.39108 -2.83675,-1.82992 z m -32.95274,-5.66667 c 0,-1.83333 0.30264,-2.58333 0.67252,-1.66667 0.36988,0.91667 0.36988,2.41667 0,3.33334 -0.36988,0.91666 -0.67252,0.16666 -0.67252,-1.66667 z m 373.12283,2.16325 c 0,-0.27686 1.05,-1.32686 2.33333,-2.33333 2.11475,-1.65849 2.16191,-1.61133 0.50342,0.50341 -1.74183,2.221 -2.83675,2.92731 -2.83675,1.82992 z m -352.17009,-5.82992 c -1.65849,-2.11474 -1.61133,-2.1619 0.50341,-0.50341 1.28334,1.00647 2.33334,2.05647 2.33334,2.33333 0,1.09739 -1.09492,0.39108 -2.83675,-1.82992 z m 383.04728,-3 c 0,-1.83333 0.30264,-2.58333 0.67252,-1.66666 0.36988,0.91666 0.36988,2.41666 0,3.33333 -0.36988,0.91667 -0.67252,0.16667 -0.67252,-1.66667 z m 19.89475,-0.77777 c 0.064,-1.55327 0.37992,-1.8692 0.80554,-0.80556 0.38516,0.96249 0.3378,2.11251 -0.1052,2.55556 -0.44305,0.44305 -0.75818,-0.34445 -0.70029,-1.75 z m -422.56143,-5.88889 c 0,-1.83334 0.30264,-2.58334 0.67252,-1.66667 0.36988,0.91667 0.36988,2.41667 0,3.33333 -0.36988,0.91667 -0.67252,0.16667 -0.67252,-1.66666 z m 7.6194,0.33333 c -1.65849,-2.11475 -1.61133,-2.16191 0.50341,-0.50341 1.28334,1.00646 2.33334,2.05646 2.33334,2.33333 0,1.09739 -1.09492,0.39108 -2.83675,-1.82992 z m -27.72466,-1.11111 c 0.064,-1.55326 0.37992,-1.8692 0.80556,-0.80556 0.38516,0.9625 0.33779,2.11251 -0.10527,2.55556 -0.44306,0.44306 -0.75819,-0.34445 -0.70029,-1.75 z m 421.33335,-4 c 0.064,-1.55326 0.37992,-1.8692 0.80555,-0.80556 0.38516,0.9625 0.3378,2.11251 -0.1052,2.55556 -0.44305,0.44306 -0.75819,-0.34445 -0.70029,-1.75 z m 20,-1.33333 c 0.064,-1.55327 0.37992,-1.8692 0.80555,-0.80556 0.38516,0.96249 0.3378,2.11251 -0.1052,2.55556 -0.44305,0.44305 -0.75819,-0.34445 -0.70029,-1.75 z m -440.00002,-6.66667 c 0.064,-1.55326 0.37992,-1.8692 0.80556,-0.80556 0.38516,0.9625 0.33779,2.11251 -0.10527,2.55556 -0.44305,0.44306 -0.75819,-0.34445 -0.70029,-1.75 z m 403.89475,-7.72564 c 0,-0.27686 1.05,-1.32686 2.33334,-2.33333 2.11474,-1.65849 2.1619,-1.61133 0.50341,0.50341 -1.74183,2.221 -2.83675,2.92731 -2.83675,1.82992 z M 233.66667,444.33346 c 59.21667,-0.19207 156.11668,-0.19207 215.33335,0 59.21666,0.19206 10.76666,0.34922 -107.66668,0.34922 -118.43333,0 -166.88333,-0.15716 -107.66667,-0.34922 z M 564.32782,267.709 l -0.3278,-158.29103 -15.66667,-0.42228 -15.66667,-0.42227 15.70851,-0.28671 c 11.55762,-0.21094 15.87622,0.1537 16.34316,1.37996 0.34904,0.91667 0.47772,72.46667 0.28595,159.00001 l -0.34869,157.33333 z M 97.813998,412.00001 c 0,-6.96666 0.224727,-9.81666 0.499391,-6.33333 0.274665,3.48333 0.274665,9.18333 0,12.66667 -0.274664,3.48333 -0.499391,0.63333 -0.499391,-6.33334 z m 0.159395,-178 c -7.2e-5,-69.66667 0.16173,-98.36217 0.359564,-63.76776 0.197833,34.5944 0.197893,91.5944 1.33e-4,126.66667 -0.19776,35.07226 -0.359624,6.76776 -0.359697,-62.89891 z M 194.33334,335.0024 c 11.91667,-0.22098 31.41667,-0.22098 43.33333,0 11.91667,0.22098 2.16667,0.40178 -21.66666,0.40178 -23.83334,0 -33.58334,-0.1808 -21.66667,-0.40178 z m 0,-86.66667 c 11.91667,-0.22097 31.41667,-0.22097 43.33333,0 11.91667,0.22099 2.16667,0.40179 -21.66666,0.40179 -23.83334,0 -33.58334,-0.1808 -21.66667,-0.40179 z m 0,-86.66667 c 11.91667,-0.22097 31.41667,-0.22097 43.33333,0 11.91667,0.22099 2.16667,0.40179 -21.66666,0.40179 -23.83334,0 -33.58334,-0.1808 -21.66667,-0.40179 z M 607.33335,98.66667 c 1.32732,-1.466667 2.71331,-2.666667 3.07998,-2.666667 0.36666,0 -0.41932,1.2 -1.74664,2.666667 -1.32732,1.46667 -2.71331,2.66667 -3.07998,2.66667 -0.36666,0 0.41932,-1.2 1.74664,-2.66667 z M 475.82994,91.000003 c -1.6585,-2.114741 -1.61134,-2.161901 0.50341,-0.503407 2.221,1.741826 2.92731,2.836741 1.82992,2.836741 -0.27687,0 -1.32687,-1.050001 -2.33333,-2.333334 z m 25.50341,1.829927 c 0,-0.276875 1.05,-1.326875 2.33333,-2.333334 2.11475,-1.658494 2.16191,-1.611334 0.50342,0.503407 -1.74183,2.220998 -2.83675,2.927306 -2.83675,1.829927 z m -313.1043,-4.49642 c 51.82596,-0.193234 137.02596,-0.193262 189.33334,-6.2e-5 52.30736,0.1932 9.90429,0.3513 -94.22905,0.351335 -104.13333,3.3e-5 -146.93027,-0.158039 -95.10429,-0.351273 z m 339.52005,0.0021 c 11.22865,-0.223257 29.22865,-0.222769 40,0.0011 10.77133,0.223791 1.58425,0.406455 -20.41575,0.405859 -22,-5.97e-4 -30.81292,-0.183751 -19.58425,-0.407007 z m 64.25092,-2.17238 c 0,-0.276875 1.05,-1.326875 2.33333,-2.333333 2.11475,-1.658495 2.16191,-1.611335 0.50342,0.503406 -1.74183,2.220998 -2.83675,2.927306 -2.83675,1.829927 z m 24.33624,-9.496594 c 0.0148,-2.933333 0.28785,-3.976337 0.60677,-2.317788 0.31892,1.658551 0.30682,4.058551 -0.0269,5.333334 -0.33369,1.274784 -0.59464,-0.08221 -0.57984,-3.015546 z M 86.66667,70.163262 c 0,-0.276874 1.05,-1.326874 2.333333,-2.333333 2.114741,-1.658495 2.161901,-1.611335 0.503407,0.503407 -1.741826,2.220997 -2.83674,2.927305 -2.83674,1.829926 z M 73.333336,55.496595 c 0,-0.276874 1.05,-1.326874 2.333333,-2.333333 2.114742,-1.658495 2.161902,-1.611335 0.503407,0.503407 -1.741825,2.220997 -2.83674,2.927305 -2.83674,1.829926 z"
         id="path2479" />
      <path
         style="fill:#010101;stroke-width:1.33333"
         d="m 116.61659,681.24838 c -5.37798,-1.56397 -11.25756,-7.88189 -12.50087,-13.43284 -0.65346,-2.91748 2.69856,-38.60992 9.60208,-102.24325 l 10.606,-97.76107 -3.1619,-2.21267 c -7.93413,-5.55224 -13.47183,-11.90036 -17.48232,-20.04079 -4.23795,-8.60213 -4.357475,-9.32652 -4.797018,-29.07241 -0.424669,-19.0777 -0.28954,-20.41168 2.333338,-23.03456 3.21525,-3.21526 9.12096,-3.6261 12.8626,-0.89483 2.27726,1.66233 2.67569,4.10491 3.31677,20.33333 0.7385,18.69464 2.00441,23.68459 7.63884,30.11073 1.93252,2.20406 13.92189,2.33333 216.40912,2.33333 h 214.36324 l 2.68754,-3.41664 c 6.3346,-8.05315 6.17268,-3.50851 6.17268,-173.25003 V 108.66667 l -29.48266,-0.35835 c -27.51088,-0.33439 -29.64359,-0.53617 -31.88889,-3.01721 -3.09395,-3.41877 -3.08299,-9.842219 0.0227,-13.2739 2.33079,-2.575526 4.03704,-2.683874 42.26503,-2.683874 43.60479,0 47.86535,-0.621493 50.42567,-7.355641 2.06044,-5.419359 1.60459,-8.107312 -2.127,-12.542059 l -3.45187,-4.1023 H 341.15421 91.878791 l -3.272728,3.272726 c -3.499183,3.499184 -4.320707,9.611083 -1.899868,14.134462 3.692393,6.899299 -5.528708,6.592812 198.354285,6.592812 187.9039,0 189.20946,0.01828 191.62178,2.683874 3.11408,3.441019 3.11408,9.8579 0,13.29892 C 474.29026,107.95926 472.76902,108 376.47697,108 h -97.7764 l -0.35028,149.86025 c -0.33947,145.23423 -0.42868,149.94688 -2.89027,152.66667 -1.55205,1.71487 -4.14505,2.79848 -6.66666,2.78601 -9.24959,-0.0458 -10.12668,-2.92348 -10.12668,-33.22526 v -25.42099 h -42.58895 -42.58896 l -0.41104,26.53009 c -0.36998,23.87872 -0.6649,26.81026 -2.95104,29.33334 -3.70958,4.09405 -10.52227,3.74933 -14.02991,-0.70991 -2.75829,-3.5066 -2.76344,-3.79099 -2.76344,-152.66667 V 108 H 135.34 117.34667 l -0.34,128.18953 -0.34,128.18952 -3.5506,2.65082 c -3.91066,2.91965 -8.75094,2.47813 -12.35616,-1.1271 -1.873003,-1.873 -2.09324,-15.55061 -2.09324,-129.998 V 108 l -4.333333,-0.0293 C 84.886908,107.90689 73.498008,99.855135 68.575804,89.7606 65.152192,82.739404 65.346174,70.359333 68.989889,63.333335 73.998732,53.675031 83.014014,47.29906 93.740278,45.828862 c 5.444052,-0.746191 5.873824,-1.119402 7.267392,-6.310977 2.04208,-7.607503 10.82345,-20.770691 17.25429,-25.864011 7.74017,-6.1303281 17.26871,-10.5497818 26.31626,-12.2057908 10.58272,-1.93699842 382.62432,-2.03601865 392.80893,-0.104548 8.81578,1.6718769 19.9319,6.6848131 26.10266,11.7712788 7.14921,5.892979 14.83286,16.892797 17.32698,24.80508 2.18195,6.921904 2.38867,7.124824 8.04895,7.900651 11.2926,1.547823 21.05589,8.92208 25.33633,19.136631 2.55962,6.108095 2.21375,18.667912 -0.6896,25.042827 -4.51885,9.922056 -16.36445,17.967287 -26.49182,17.992567 l -2.97939,0.007 -0.35395,163.66668 -0.35396,163.66667 -4.1394,8.73528 c -2.45768,5.18637 -6.9017,11.45435 -10.93853,15.42801 l -6.79915,6.69274 10.83375,100.05017 10.83373,100.05018 -2.63913,5.18848 c -4.44692,8.7426 -11.13357,11.19441 -30.43379,11.1592 -17.65155,-0.0323 -25.27287,-2.17565 -29.23461,-8.22204 -1.13208,-1.72779 -10.54607,-34.62807 -20.91995,-73.11172 -10.37388,-38.48367 -19.27409,-70.41999 -19.77824,-70.96962 -0.50416,-0.54963 -19.93696,13.7529 -43.184,31.78338 l -42.26735,32.78269 v 10.79565 c 0,12.67594 -2.89948,20.10394 -10.19475,26.11731 -7.40721,6.10566 -12.24582,6.85363 -44.33611,6.85363 -31.8665,0 -34.38348,-0.43199 -42.52761,-7.299 -6.8658,-5.78916 -9.78699,-12.90296 -10.75611,-26.19383 l -0.85209,-11.68588 -39.63103,-30.74397 c -21.79707,-16.9092 -40.09707,-30.73734 -40.66667,-30.72922 -0.5696,0.008 -9.43564,31.34396 -19.7023,69.63518 -20.41308,76.13395 -20.6491,76.73813 -31.1097,79.64356 -5.89208,1.63653 -32.59934,1.60503 -38.27372,-0.0452 z m 34.51866,-25.58169 c 11.07256,-38.9267 36.89421,-137.41683 36.20865,-138.10875 -0.48568,-0.49019 -10.58675,-8.47204 -22.44681,-17.73744 -17.25135,-13.47723 -21.74013,-16.41032 -22.44569,-14.66667 -0.48506,1.19873 -4.84438,39.67952 -9.68737,85.51286 -4.84299,45.83333 -9.12331,85.28333 -9.51182,87.66667 l -0.70637,4.33333 h 13.29914 13.29913 z m 411.53144,4.91393 c 0,-1.14733 -4.2,-40.75113 -9.33334,-88.00843 -5.13333,-47.25731 -9.33333,-87.11859 -9.33333,-88.58061 0,-1.46203 -0.53184,-2.65823 -1.18187,-2.65823 -0.84549,0 -40.03151,29.49836 -45.30651,34.10575 -0.26861,0.23461 8.43008,33.45679 19.33043,73.82708 l 19.8188,73.40051 h 13.00291 c 10.90767,0 13.00291,-0.33613 13.00291,-2.08607 z m -190.4899,-44.55225 c 3.47061,-3.47062 3.92024,-4.77419 3.5641,-10.33334 l -0.40754,-6.36168 -34.33334,-0.35584 -34.33333,-0.35584 0.0424,7.02251 c 0.0807,13.36252 2.29106,14.26504 35.06016,14.31529 l 26.43591,0.0405 3.97164,-3.97166 z m 84.28781,-93.69502 74.33119,-57.66667 -94.73122,-0.34221 c -52.10217,-0.18823 -137.43261,-0.18823 -189.6232,0 l -94.89198,0.34221 74.37511,57.66667 74.3751,57.66667 h 40.9169 40.91691 z M 258.66668,302.00001 v -34 h -42.66667 -42.66667 v 34 34 h 42.66667 42.66667 z m 0,-86.66667 v -34 h -42.66667 -42.66667 v 34 34 h 42.66667 42.66667 z m 0,-80 V 108 h -42.66667 -42.66667 v 27.33334 27.33333 h 42.66667 42.66667 z M 562.66669,44.613551 c 0,-0.395881 -1.16466,-3.00269 -2.58812,-5.792907 -2.82039,-5.528435 -9.64079,-12.085575 -16.42988,-15.79571 C 539.5857,20.804574 527.87171,20.645162 343.33335,20.298906 127.9441,19.894763 141.65726,19.411894 131.74888,27.749249 126.7655,31.942485 120,41.031655 120,43.533385 c 0,1.503815 36.41465,1.79995 221.33334,1.79995 121.73334,0 221.33335,-0.323903 221.33335,-0.719784 z"
         id="path2477" />
    </g>
  </g>
</svg>
