<?xml version="1.0" encoding="UTF-8" standalone="no"?>
<!-- Created with Inkscape (http://www.inkscape.org/) -->

<svg
   version="1.1"
   id="svg1353"
   width="682.66669"
   height="682.66669"
   viewBox="0 0 682.66669 682.66669"
   xmlns="http://www.w3.org/2000/svg"
   xmlns:svg="http://www.w3.org/2000/svg">
  <defs
     id="defs1357" />
  <g
     id="g1359">
    <g
       id="g1363">
      <path
         style="fill:#9ea7d8;stroke-width:1.33333"
         d="m 295.82276,679.53665 c -9.16556,-3.50236 -11.83487,-5.63947 -11.4505,-9.16752 0.26182,-2.40301 -1.4776,-3.11692 -15.70558,-6.446 -8.8,-2.05903 -19,-4.67756 -22.66667,-5.81897 -9.93375,-3.09228 -10.72243,-2.82983 -15.24395,5.07297 -6.3482,11.09549 -6.67345,11.202 -16.37631,5.3624 -9.51968,-5.72935 -10.30062,-6.55408 -9.41454,-9.94243 0.51986,-1.98797 -2.38528,-3.95677 -15.65156,-10.60694 C 155.47998,631.02985 129.10387,611.88061 101.25527,584.05917 73.241276,556.07247 53.973682,529.89092 37.431792,497.33335 7.6157893,438.64981 -3.0967548,382.61301 1.8588822,311.25317 4.0689272,279.42913 7.4894529,261.58854 16.670415,234.00001 33.306474,184.00913 59.652817,140.79975 96.636989,102.85065 125.82978,72.896205 153.1979,52.820684 189.43255,34.781689 218.62519,20.248478 250.05372,9.6343002 280.00001,4.1948515 c 24.36345,-4.42538183 76.13791,-5.17366711 112,-1.6187126 15.5048,1.5369676 39.40076,7.0211458 58.44573,13.4134341 87.84804,29.485483 159.81269,92.526167 200.15434,175.334237 5.66246,11.62316 7.11546,13.65993 9.3314,13.08045 2.07905,-0.54368 3.7421,1.0752 8.00058,7.78803 2.95678,4.66092 5.38166,9.23184 5.38863,10.15761 0.007,0.92577 -3.43733,3.87416 -7.654,6.55197 -4.21667,2.6778 -8.05417,5.45464 -8.52779,6.17075 -0.47361,0.71611 -0.0868,3.76772 0.85972,6.78136 0.94646,3.01366 3.72959,13.72936 6.18472,23.8127 4.31511,17.72228 4.57968,18.33333 7.93779,18.33333 3.59275,0 5.23444,2.61067 9.35288,14.87323 1.81977,5.41834 1.03744,6.82104 -5.75948,10.32648 l -3.61883,1.86637 0.79198,18.80029 c 0.93085,22.09707 -1.09627,49.27817 -5.42827,72.78582 l -3.06867,16.65219 7.47131,8.01448 c 7.30037,7.83112 10.80464,12.75624 10.80464,15.18552 0,1.83376 -12.03565,14.82896 -13.73401,14.82896 -0.81779,0 -3.7613,-2.22089 -6.54112,-4.93532 -3.09014,-3.01744 -5.50803,-4.44232 -6.22202,-3.66667 -0.64229,0.69776 -3.00116,6.06866 -5.24194,11.93532 -7.70204,20.16498 -20.12605,44.69999 -29.91119,59.06882 -2.14823,3.15452 -5.86622,11.55452 -8.2622,18.66667 -7.5368,22.3719 -15.84118,35.63416 -31.03863,49.56929 -11.97241,10.97796 -24.39917,18.18887 -40.60756,23.56343 -8.5023,2.81929 -18.575,7.58889 -27.92955,13.22512 -16.13161,9.71949 -39.7672,21.26577 -53.17845,25.97835 -12.68744,4.45822 -12.95443,4.83848 -7.39475,10.5321 2.60044,2.6631 4.72808,5.5065 4.72808,6.31866 0,1.70881 -14.27835,15.07757 -16.10343,15.07757 -0.67202,0 -5.74431,-4.29587 -11.27173,-9.54639 l -10.04986,-9.54638 -16.28749,2.90738 c -24.84983,4.43579 -39.39224,5.65463 -65.62083,5.49983 -13.2,-0.0779 -24.70957,-0.10547 -25.57681,-0.0613 -0.86726,0.0441 -1.93507,1.209 -2.37292,2.58856 -0.7982,2.51492 -5.24923,8.27232 -6.20667,8.02833 -0.28064,-0.0715 -3.89003,-1.42152 -8.02085,-3 z M 235.2553,608.12847 c 2.60959,-4.29584 4.74471,-8.63853 4.74471,-9.65044 0,-1.01189 -2.77454,-5.97568 -6.16564,-11.03062 -8.80811,-13.12982 -22.22656,-39.16882 -21.35498,-41.44012 0.57666,-1.50275 4.32898,-2.00638 17.12951,-2.2991 l 16.39111,-0.37484 0.39913,-9.21397 c 0.28026,-6.46968 -0.1168,-9.5413 -1.33333,-10.31292 -0.95285,-0.60442 -10.86706,-1.10814 -22.03156,-1.11936 l -20.2991,-0.0204 -1.98317,-3.83502 c -6.361,-12.30083 -21.74972,-76.57555 -22.41783,-93.63354 l -0.33414,-8.53144 34,-0.66667 34,-0.66666 v -10 -10 l -35.64672,-0.35508 -35.64672,-0.35507 -1.01995,-3.64493 c -0.56097,-2.00471 -1.01995,-25.00278 -1.01995,-51.10683 0,-38.37906 0.3519,-47.88588 1.83879,-49.67734 1.68145,-2.02588 8.46913,-2.186 79.33334,-1.87142 l 77.49454,0.344 0.34739,58.38916 0.34739,58.38917 10.31928,-0.38917 10.31928,-0.38916 0.66667,-122 0.66666,-122.00001 64.3101,-0.34612 64.31009,-0.34613 2.1086,5.0128 c 4.20958,10.00747 13.70531,45.50636 17.74718,66.34612 6.90136,35.58326 10.78316,75.01947 10.89318,110.66667 0.0305,9.8792 0.45731,13.96146 1.30758,12.50622 1.77248,-3.03366 16.8078,-45.12394 17.90744,-50.13058 0.49848,-2.26959 -0.0388,-13.17999 -1.19392,-24.24533 -3.6494,-34.9585 -10.356,-69.26645 -19.05244,-97.46365 -2.60098,-8.43333 -5.00911,-16.98333 -5.35142,-19 l -0.62238,-3.66666 h 48.15133 c 27.46223,0 48.15134,-0.51298 48.15134,-1.19388 0,-0.65663 -3.17572,-5.30663 -7.05716,-10.33334 l -7.05715,-9.13945 -45.50631,-0.35072 -45.50629,-0.35071 -9.99515,-20.31596 C 475.85867,94.563274 460.37767,70.614389 446.40055,54.666669 432.87868,39.238395 427.90349,35.141881 419.68547,32.66979 c -9.25086,-2.782778 -35.82179,-7.336456 -42.80859,-7.336456 -5.40501,0 -5.23123,0.144027 8.01405,6.64196 25.93888,12.72522 48.86594,34.998592 68.33109,66.382875 9.61614,15.504421 20.50009,37.786411 19.12766,39.158831 -0.65681,0.65682 -27.10028,1.0243 -59.76387,0.83054 L 354.00001,138 l -0.34762,-56.978184 -0.34764,-56.978187 -3.05696,-0.76725 c -1.68134,-0.421986 -6.3249,-0.581802 -10.31905,-0.355146 l -7.26206,0.412101 -0.66667,57.333335 L 331.33334,138 l -59.66666,0.34707 c -52.90789,0.30775 -59.66667,0.1152 -59.66667,-1.69996 0,-1.12585 2.17693,-6.38203 4.83762,-11.68039 24.00348,-47.799187 54.63773,-81.099491 88.16837,-95.841551 l 8.99401,-3.954299 -10,0.642983 c -13.05279,0.839272 -38.07068,5.900175 -44,8.900818 -6.07952,3.076653 -22.7681,20.387623 -32.97831,34.208233 -11.66505,15.789891 -19.02231,28.008147 -29.99248,49.808806 L 187.33334,138 l -44.60022,0.35164 c -44.097394,0.34768 -44.636157,0.38526 -47.787861,3.33334 -4.270864,3.99493 -12.27859,14.96899 -12.27859,16.827 0,1.06716 13.365342,1.48803 47.254651,1.48803 29.6545,0 47.55761,0.49021 48.06809,1.31618 0.4474,0.72391 -1.06044,7.16611 -3.35076,14.316 -6.02535,18.80991 -12.59983,46.44916 -15.95703,67.0837 -1.60631,9.87293 -3.17671,19.29475 -3.48979,20.93735 l -0.56922,2.98657 -60.968765,0.34676 -60.968768,0.34677 -1.547876,6.66667 c -0.851331,3.66667 -1.605473,8.31061 -1.675871,10.31988 l -0.128,3.65321 60.860844,0.34679 60.860836,0.34679 0.13916,53.00008 0.13916,53.00008 -60.999998,-8e-5 -60.999998,-8e-5 0.02572,3.66667 c 0.01415,2.01666 0.803251,6.66666 1.753566,10.33333 l 1.727848,6.66667 59.860359,0.34725 c 32.923193,0.191 60.379403,0.86631 61.013793,1.50069 0.63439,0.63439 2.88088,11.40703 4.99219,23.93922 3.93581,23.36184 11.12682,53.37639 16.74712,69.90071 1.74137,5.11986 2.84121,9.83458 2.44409,10.47716 -0.39713,0.64257 -21.98665,1.1683 -47.9767,1.1683 -36.921669,0 -47.251848,0.36444 -47.241833,1.66667 0.0071,0.91667 3.054835,5.71667 6.772856,10.66667 l 6.760039,9 44.227138,0.0204 c 24.32494,0.0107 44.87397,0.46123 45.66453,1 0.79054,0.53877 5.70134,9.67959 10.91288,20.31292 10.17589,20.76232 30.18574,52.65016 32.24121,51.37981 0.68885,-0.42573 3.38759,-4.28885 5.99716,-8.58469 z M 177.88593,257.67881 c 2.23889,-21.85295 17.03497,-82.5677 22.87266,-93.85656 l 1.98978,-3.8478 64.29249,0.3461 64.29248,0.34612 v 52.66667 52.66667 l -77.18524,0.34424 -77.18525,0.34425 z"
         id="path1377" />
      <path
         style="fill:#fc8a64;stroke-width:1.33333"
         d="m 430.47428,672.55624 c -24.94201,-23.30039 -63.8076,-62.6659 -63.8076,-64.62835 0,-1.15343 4.49641,-12.51264 9.99201,-25.24271 5.49562,-12.73007 9.817,-23.32059 9.60308,-23.53451 -0.2139,-0.21392 -9.4914,8.73968 -20.61665,19.89687 l -20.22771,20.28581 -16.05185,34.28859 c -8.82852,18.85874 -17.39744,36.33426 -19.04204,38.83451 -1.64459,2.50025 -3.63983,5.64543 -4.43383,6.98928 -1.28408,2.17325 -2.02104,2.26752 -6.66667,0.85273 -2.87266,-0.87484 -7.21677,-2.81766 -9.6536,-4.31741 -3.9747,-2.44621 -4.33752,-3.16859 -3.52602,-7.02057 0.49752,-2.36159 9.26677,-22.29379 19.48725,-44.29379 l 18.58268,-40 24.26316,-24.33334 c 13.34474,-13.38333 23.71874,-24.33333 23.05335,-24.33333 -0.99552,0 -70.64124,24.30248 -78.44579,27.37321 -1.29211,0.50839 -14.39473,20.80739 -29.11693,45.1089 -24.66997,40.72197 -36.48659,59.33737 -39.71589,62.56667 -0.80418,0.80418 -3.98786,-0.28531 -8.68234,-2.97122 -8.02492,-4.5914 -9.46888,-6.09682 -9.46888,-9.87198 0,-1.81199 -4.74743,-4.91278 -18,-11.75672 C 90.879983,596.29379 24.450677,505.9618 5.1294052,397.77751 2.3918787,382.44947 2.0734811,376.49907 2.0734811,340.66668 c 0,-35.81339 0.319315,-41.78775 3.0508148,-57.08058 C 17.445523,214.60334 48.797618,153.28245 97.097739,103.69721 172.30202,26.491973 271.73012,-9.1316738 380.98551,1.9843351 c 52.2731,5.318441 105.34357,24.6022409 150.26321,54.5999629 22.31858,14.904534 34.48763,24.957789 54.08463,44.681082 26.07415,26.2422 46.86062,55.17485 62.79283,87.40129 6.7251,13.60299 8.44432,16.09988 11.47574,16.66667 2.57224,0.48093 4.79441,2.70971 7.97634,8 2.4259,4.03333 4.41322,8.09811 4.41624,9.03283 0.003,0.93472 -2.79014,3.33472 -6.20706,5.33333 -3.41692,1.99861 -8.06692,5.18389 -10.33334,7.07841 -2.26641,1.89452 -23.02075,14.72658 -46.12075,28.51569 -23.1,13.78909 -42.72789,25.73904 -43.61754,26.55541 -1.82826,1.67768 -29.75674,79.81946 -28.86254,80.7552 0.31755,0.3323 11.20547,-10.00792 24.19539,-22.97826 l 23.61803,-23.58247 41.2992,-19.35507 c 25.79936,-12.09099 42.87671,-19.35507 45.50248,-19.35507 3.74965,0 4.49231,0.6835 6.88149,6.33334 4.80083,11.35277 4.83063,11.95365 0.71647,14.45029 -2.05313,1.24592 -5.23297,3.28151 -7.06631,4.52352 -1.83333,1.24201 -18.63333,9.32745 -37.33333,17.96764 l -34,15.70943 -21.33334,21.23604 c -11.97981,11.92519 -19.87184,20.67995 -18,19.96771 1.83334,-0.69759 10.53334,-4.38008 19.33334,-8.18331 8.8,-3.80323 18.92672,-8.08163 22.50382,-9.50755 l 6.50384,-2.5926 17.30959,17.04775 c 21.51158,21.18615 55.68275,57.34322 55.68275,58.91879 0,1.75323 -12.02768,14.79563 -13.64451,14.79563 -2.27878,0 -11.76112,-8.54316 -38.84765,-35.00001 -14.07727,-13.75 -26.1754,-25.01117 -26.88476,-25.02484 -1.89418,-0.0365 -40.6235,16.46622 -40.6207,17.3086 10e-4,0.39394 2.78123,2.4719 6.1776,4.61771 8.99916,5.68559 21.187,17.3928 27.76628,26.6713 13.20056,18.61618 19.18403,35.95306 20.33431,58.91788 0.69568,13.88912 0.47687,15.72465 -3.4698,29.1056 -6.78331,22.99836 -16.61392,39.963 -30.983,53.46716 -13.68672,12.86289 -25.15011,19.30345 -46.51526,26.13403 -12.55196,4.01294 -15.47661,4.45616 -28.64585,4.34112 -22.48725,-0.19642 -41.524,-6.17263 -60.16252,-18.88683 -8.86532,-6.04745 -23.52583,-20.81344 -29.16242,-29.37224 -2.07205,-3.14628 -4.2354,-5.24628 -4.80744,-4.66667 -0.57204,0.57963 -4.72737,9.68242 -9.23405,20.22843 l -8.19399,19.17457 24.44688,24.9397 c 24.61817,25.11444 35.78021,37.47877 35.78021,39.63421 0,0.64243 -3.23659,4.36442 -7.1924,8.2711 l -7.1924,7.10306 z M 223.38337,627.00002 c 2.00021,-3.48333 4.96044,-7.83333 6.57826,-9.66667 3.68703,-4.17814 10.70904,-15.81165 12.00102,-19.88228 1.56192,-4.92118 28.71381,-49.84969 31.92755,-52.83082 1.63165,-1.51358 23.07529,-9.76665 48.50086,-18.66667 25.06685,-8.77447 45.58347,-16.31387 45.59251,-16.75424 0.009,-0.44038 -14.43964,-5.2346 -32.10819,-10.65384 -23.08449,-7.08042 -32.49574,-10.54663 -33.44344,-12.3174 -2.74986,-5.1382 -38.43193,-98.95029 -38.43193,-101.04182 0,-2.96632 1.88585,-4.22264 11.75629,-7.83185 7.19695,-2.63162 8.68507,-2.80879 10.22362,-1.21716 0.99036,1.0245 9.38802,21.66274 18.66149,45.86274 9.27345,24.20001 17.33293,44.48011 17.90996,45.06693 0.57703,0.5868 17.18903,6.0408 36.91556,12.11998 19.72652,6.0792 37.16175,11.47216 38.74494,11.98438 2.58993,0.83794 3.02436,0.25125 4.33333,-5.85228 1.99368,-9.29626 2.11808,-8.92643 -4.06345,-12.08002 -8.44943,-4.31057 -18.11116,-14.82789 -22.8909,-24.91798 -3.98658,-8.41574 -4.2575,-9.92277 -4.2575,-23.68238 0,-13.87009 0.24204,-15.18636 4.3132,-23.45605 16.06154,-32.62563 56.26762,-41.55582 85.09809,-18.90118 4.14903,3.26026 14.17224,16.4692 15.48452,20.40606 0.32592,0.97773 2.72035,0.9132 7.7874,-0.20988 4.02423,-0.89194 7.5422,-1.78968 7.81771,-1.995 0.62757,-0.46768 -22.62867,-76.76941 -23.83115,-78.18794 -0.48428,-0.57129 -21.22313,-8.86247 -46.08633,-18.42485 -24.86322,-9.56238 -45.61923,-18.05502 -46.12447,-18.87252 -1.06939,-1.7303 4.81119,-18.14371 7.45313,-20.80262 1.50714,-1.51681 9.11559,1.00767 47.60752,15.79622 45.10521,17.32936 58.48038,22.6694 58.48038,23.3483 0,0.52958 18.60505,61.05753 19.46559,63.3275 0.51666,1.36291 1.72872,0.0887 3.80497,-4 3.38235,-6.66083 18.17883,-48.9314 24.7363,-70.66667 2.32308,-7.7 5.02314,-15.25452 6.00016,-16.78781 0.97702,-1.5333 21.69513,-14.7333 46.04026,-29.33334 24.34512,-14.60004 44.54641,-27.26517 44.89174,-28.14475 0.87392,-2.22594 -9.60046,-23.88618 -18.89208,-39.06744 -4.26394,-6.96666 -8.84648,-14.84144 -10.18344,-17.49949 -6.70516,-13.33065 -34.36083,-42.99322 -60.53016,-64.922678 -40.48794,-33.928203 -99.81751,-61.358381 -151.74036,-70.154968 -9.68422,-1.640669 -39.69437,-3.814448 -51.59299,-3.737128 -30.72333,0.199647 -69.03722,5.695083 -85.19382,12.219517 -3.37674,1.363605 -12.69642,4.74612 -20.71041,7.516698 -33.2415,11.492179 -71.91748,33.99743 -100.09577,58.244959 -21.09948,18.15617 -55.333337,55.14699 -55.333337,59.78948 0,0.53613 -4.310368,8.07777 -9.578595,16.7592 -14.427319,23.77455 -25.286278,48.48849 -33.655199,76.596 -1.832222,6.15363 -4.288908,13.84783 -5.459301,17.09823 -2.077774,5.77036 -2.998215,13.42156 -6.168003,51.27176 -1.536191,18.34353 -0.862824,35.45232 2.839745,72.15176 1.16271,11.52464 6.334794,29.91654 16.310494,58.00001 5.473839,15.40988 19.181692,43.46389 28.24758,57.81052 4.104803,6.49578 7.463279,12.27977 7.463279,12.85332 0,6.19136 48.814837,56.29965 70.666667,72.53915 21.77627,16.18333 60.04032,37.98004 66.87331,38.09365 1.25443,0.0208 3.77596,-2.69625 5.84339,-6.29664 z"
         id="path1375" />
      <path
         style="fill:#7c83aa;stroke-width:1.33333"
         d="m 430.47428,672.55624 c -24.94201,-23.30039 -63.8076,-62.6659 -63.8076,-64.62835 0,-1.15343 4.49641,-12.51264 9.99201,-25.24271 5.49562,-12.73007 9.817,-23.32059 9.60308,-23.53451 -0.2139,-0.21392 -9.4914,8.73968 -20.61665,19.89687 l -20.22771,20.28581 -16.05185,34.28859 c -8.82852,18.85874 -17.39744,36.33426 -19.04204,38.83451 -1.64459,2.50025 -3.63983,5.64543 -4.43383,6.98928 -1.28408,2.17325 -2.02104,2.26752 -6.66667,0.85273 -2.87266,-0.87484 -7.21677,-2.81766 -9.6536,-4.31741 -3.9747,-2.44621 -4.33752,-3.16859 -3.52602,-7.02057 0.49752,-2.36159 9.26677,-22.29379 19.48725,-44.29379 l 18.58268,-40 24.26316,-24.33334 c 13.34474,-13.38333 23.71874,-24.33333 23.05335,-24.33333 -0.99552,0 -70.64124,24.30248 -78.44579,27.37321 -1.29211,0.50839 -14.39473,20.80739 -29.11693,45.1089 -24.66997,40.72197 -36.48659,59.33737 -39.71589,62.56667 -0.80418,0.80418 -3.98786,-0.28531 -8.68234,-2.97122 -8.02492,-4.5914 -9.46888,-6.09682 -9.46888,-9.87198 0,-1.81199 -4.74743,-4.91278 -18,-11.75672 C 90.879983,596.29379 24.450677,505.9618 5.1294052,397.77751 2.3918787,382.44947 2.0734811,376.49907 2.0734811,340.66668 c 0,-35.81339 0.319315,-41.78775 3.0508148,-57.08058 C 17.445523,214.60334 48.797618,153.28245 97.097739,103.69721 172.30202,26.491973 271.73012,-9.1316738 380.98551,1.9843351 c 52.2731,5.318441 105.34357,24.6022409 150.26321,54.5999629 22.31858,14.904534 34.48763,24.957789 54.08463,44.681082 26.07415,26.2422 46.86062,55.17485 62.79283,87.40129 6.7251,13.60299 8.44432,16.09988 11.47574,16.66667 2.57224,0.48093 4.79441,2.70971 7.97634,8 2.4259,4.03333 4.41322,8.09811 4.41624,9.03283 0.003,0.93472 -2.79014,3.33472 -6.20706,5.33333 -3.41692,1.99861 -8.06692,5.18389 -10.33334,7.07841 -2.26641,1.89452 -23.02075,14.72658 -46.12075,28.51569 -23.1,13.78909 -42.72789,25.73904 -43.61754,26.55541 -1.82826,1.67768 -29.75674,79.81946 -28.86254,80.7552 0.31755,0.3323 11.20547,-10.00792 24.19539,-22.97826 l 23.61803,-23.58247 41.2992,-19.35507 c 25.79936,-12.09099 42.87671,-19.35507 45.50248,-19.35507 3.74965,0 4.49231,0.6835 6.88149,6.33334 4.80083,11.35277 4.83063,11.95365 0.71647,14.45029 -2.05313,1.24592 -5.23297,3.28151 -7.06631,4.52352 -1.83333,1.24201 -18.63333,9.32745 -37.33333,17.96764 l -34,15.70943 -21.33334,21.23604 c -11.97981,11.92519 -19.87184,20.67995 -18,19.96771 1.83334,-0.69759 10.53334,-4.38008 19.33334,-8.18331 8.8,-3.80323 18.92672,-8.08163 22.50382,-9.50755 l 6.50384,-2.5926 17.30959,17.04775 c 21.51158,21.18615 55.68275,57.34322 55.68275,58.91879 0,1.75323 -12.02768,14.79563 -13.64451,14.79563 -2.27878,0 -11.76112,-8.54316 -38.84765,-35.00001 -14.07727,-13.75 -26.1754,-25.01117 -26.88476,-25.02484 -1.89418,-0.0365 -40.6235,16.46622 -40.6207,17.3086 10e-4,0.39394 2.78123,2.4719 6.1776,4.61771 8.99916,5.68559 21.187,17.3928 27.76628,26.6713 13.20056,18.61618 19.18403,35.95306 20.33431,58.91788 0.69568,13.88912 0.47687,15.72465 -3.4698,29.1056 -6.78331,22.99836 -16.61392,39.963 -30.983,53.46716 -13.68672,12.86289 -25.15011,19.30345 -46.51526,26.13403 -12.55196,4.01294 -15.47661,4.45616 -28.64585,4.34112 -22.48725,-0.19642 -41.524,-6.17263 -60.16252,-18.88683 -8.86532,-6.04745 -23.52583,-20.81344 -29.16242,-29.37224 -2.07205,-3.14628 -4.2354,-5.24628 -4.80744,-4.66667 -0.57204,0.57963 -4.72737,9.68242 -9.23405,20.22843 l -8.19399,19.17457 24.44688,24.9397 c 24.61817,25.11444 35.78021,37.47877 35.78021,39.63421 0,0.64243 -3.23659,4.36442 -7.1924,8.2711 l -7.1924,7.10306 z M 223.38337,627.00002 c 2.00021,-3.48333 4.96044,-7.83333 6.57826,-9.66667 3.68703,-4.17814 10.70904,-15.81165 12.00102,-19.88228 1.56192,-4.92118 28.71381,-49.84969 31.92755,-52.83082 1.63165,-1.51358 23.07529,-9.76665 48.50086,-18.66667 25.06685,-8.77447 45.58347,-16.31387 45.59251,-16.75424 0.009,-0.44038 -14.43964,-5.2346 -32.10819,-10.65384 -23.08449,-7.08042 -32.49574,-10.54663 -33.44344,-12.3174 -2.74986,-5.1382 -38.43193,-98.95029 -38.43193,-101.04182 0,-2.96632 1.88585,-4.22264 11.75629,-7.83185 7.19695,-2.63162 8.68507,-2.80879 10.22362,-1.21716 0.99036,1.0245 9.38802,21.66274 18.66149,45.86274 9.27345,24.20001 17.33293,44.48011 17.90996,45.06693 0.57703,0.5868 17.18903,6.0408 36.91556,12.11998 19.72652,6.0792 37.16175,11.47216 38.74494,11.98438 2.58993,0.83794 3.02436,0.25125 4.33333,-5.85228 1.99368,-9.29626 2.11808,-8.92643 -4.06345,-12.08002 -8.44943,-4.31057 -18.11116,-14.82789 -22.8909,-24.91798 -3.98658,-8.41574 -4.2575,-9.92277 -4.2575,-23.68238 0,-13.87009 0.24204,-15.18636 4.3132,-23.45605 16.06154,-32.62563 56.26762,-41.55582 85.09809,-18.90118 4.14903,3.26026 14.17224,16.4692 15.48452,20.40606 0.32592,0.97773 2.72035,0.9132 7.7874,-0.20988 4.02423,-0.89194 7.5422,-1.78968 7.81771,-1.995 0.62757,-0.46768 -22.62867,-76.76941 -23.83115,-78.18794 -0.48428,-0.57129 -21.22313,-8.86247 -46.08633,-18.42485 -24.86322,-9.56238 -45.61923,-18.05502 -46.12447,-18.87252 -1.06939,-1.7303 4.81119,-18.14371 7.45313,-20.80262 1.50714,-1.51681 9.11559,1.00767 47.60752,15.79622 45.10521,17.32936 58.48038,22.6694 58.48038,23.3483 0,0.52958 18.60505,61.05753 19.46559,63.3275 0.51666,1.36291 1.72872,0.0887 3.80497,-4 3.38235,-6.66083 18.17883,-48.9314 24.7363,-70.66667 2.32308,-7.7 5.02314,-15.25452 6.00016,-16.78781 0.97702,-1.5333 21.69513,-14.7333 46.04026,-29.33334 24.34512,-14.60004 44.54641,-27.26517 44.89174,-28.14475 0.87392,-2.22594 -9.60046,-23.88618 -18.89208,-39.06744 -4.26394,-6.96666 -8.84648,-14.84144 -10.18344,-17.49949 -6.70516,-13.33065 -34.36083,-42.99322 -60.53016,-64.922678 -40.48794,-33.928203 -99.81751,-61.358381 -151.74036,-70.154968 -9.68422,-1.640669 -39.69437,-3.814448 -51.59299,-3.737128 -30.72333,0.199647 -69.03722,5.695083 -85.19382,12.219517 -3.37674,1.363605 -12.69642,4.74612 -20.71041,7.516698 -33.2415,11.492179 -71.91748,33.99743 -100.09577,58.244959 -21.09948,18.15617 -55.333337,55.14699 -55.333337,59.78948 0,0.53613 -4.310368,8.07777 -9.578595,16.7592 -14.427319,23.77455 -25.286278,48.48849 -33.655199,76.596 -1.832222,6.15363 -4.288908,13.84783 -5.459301,17.09823 -2.077774,5.77036 -2.998215,13.42156 -6.168003,51.27176 -1.536191,18.34353 -0.862824,35.45232 2.839745,72.15176 1.16271,11.52464 6.334794,29.91654 16.310494,58.00001 5.473839,15.40988 19.181692,43.46389 28.24758,57.81052 4.104803,6.49578 7.463279,12.27977 7.463279,12.85332 0,6.19136 48.814837,56.29965 70.666667,72.53915 21.77627,16.18333 60.04032,37.98004 66.87331,38.09365 1.25443,0.0208 3.77596,-2.69625 5.84339,-6.29664 z m 311.75295,-39.99675 c 47.98293,-15.79626 70.60163,-70.90999 47.88338,-116.67469 -6.76436,-13.62643 -22.73947,-29.49035 -36.35301,-36.09997 -13.46327,-6.53665 -23.5391,-8.89526 -38.00001,-8.89526 -23.23582,0 -41.62218,7.5625 -57.9979,23.85515 -11.22204,11.1651 -15.78547,18.42421 -21.04605,33.47818 -3.03302,8.67948 -3.48978,12.11283 -3.45894,26 0.0307,13.78982 0.51525,17.35096 3.50841,25.7799 15.74998,44.35293 61.35267,67.07845 105.46412,52.55669 z M 421.72187,445.00002 c 6.72758,-9.41303 17.19989,-19.68686 26.68085,-26.17519 l 6.40271,-4.38172 -3.24821,-5.55488 c -4.61434,-7.89114 -13.70685,-13.25088 -23.70643,-13.97419 -10.6427,-0.76981 -18.29719,2.24513 -24.9826,9.84017 -9.16782,10.41518 -10.49304,24.15947 -3.48287,36.12143 3.22841,5.5089 11.48776,12.45771 14.80717,12.45771 0.8654,0 4.25362,-3.75 7.52938,-8.33333 z"
         id="path1373" />
      <path
         style="fill:#6a7092;stroke-width:1.33333"
         d="m 404.9178,646.57672 c -21.54243,-21.09574 -36.91779,-37.16193 -36.91779,-38.57653 0,-1.33333 4.72582,-13.42882 10.50182,-26.87888 5.776,-13.45004 10.2544,-24.72622 9.95198,-25.0582 -0.3024,-0.33196 -10.3487,9.18183 -22.32512,21.14174 l -21.77529,21.7453 -8.34486,18.1916 c -14.51238,31.63674 -30.89986,64.19161 -32.31278,64.19161 -0.74926,0 -4.88732,-1.58194 -9.19568,-3.51542 -6.68027,-2.99792 -7.8334,-4.03188 -7.8334,-7.02377 0,-1.92959 8.69522,-22.08711 19.32273,-44.79447 l 19.32273,-41.28613 24.99745,-25.02344 c 14.25724,-14.27207 24.04137,-25.02345 22.77222,-25.02345 -3.44126,0 -81.55516,27.88877 -83.2328,29.71634 -0.81637,0.88935 -12.75319,20.517 -26.52624,43.617 -13.77305,23.1 -26.06822,43.2 -27.32259,44.66667 -1.25436,1.46667 -4.30773,6.11667 -6.78525,10.33333 -2.47754,4.21667 -5.34139,7.66667 -6.36412,7.66667 -1.02275,0 -5.08256,-1.84404 -9.02183,-4.09785 -5.98172,-3.42239 -7.16231,-4.71366 -7.16231,-7.83378 0,-3.38176 -1.106,-4.2659 -11.66666,-9.32641 C 93.42793,600.73689 22.43331,504.1616 4.3431203,390.05459 0.98449899,368.86949 1.0540361,312.18368 4.4650406,290.66668 22.763001,175.2411 97.305402,76.981711 202.10525,30.143738 231.59898,16.962169 266.38028,7.1330625 300.00001,2.4789304 c 16.46857,-2.27981871 68.83568,-2.31328674 84.66667,-0.054111 41.80988,5.9665199 77.52612,17.0356336 112.39234,34.8324296 34.21241,17.46308 57.07369,34.191712 85.71157,62.719036 29.34308,29.229815 48.81882,56.123935 66.15742,91.357055 5.21811,10.60352 7.89381,14.6786 9.65844,14.70972 3.50864,0.0619 5.81637,2.35927 9.89203,9.84757 2.8703,5.27371 3.25108,6.90319 1.89108,8.09282 -3.5995,3.14857 -20.33959,13.63218 -62.83341,39.34989 l -44.06178,26.66667 -14.37032,40.66667 c -7.90367,22.36667 -14.38541,41.56089 -14.40385,42.65384 -0.0184,1.09295 11.51649,-9.49305 25.63315,-23.52444 l 25.66667,-25.51162 40,-18.63008 c 22,-10.24654 41.96456,-19.06141 44.3657,-19.58861 4.3312,-0.95095 4.39705,-0.88937 8.33333,7.79192 2.1822,4.81273 3.96764,9.00937 3.96764,9.32587 0,1.2536 -20.89497,11.82142 -51.37634,25.98402 l -32.043,14.88819 -21.94184,21.97212 c -12.06801,12.08467 -21.34866,21.98627 -20.62366,22.00355 0.72498,0.0173 12.90058,-4.89136 27.05688,-10.90812 l 25.7387,-10.93956 16.6879,16.5748 c 9.17833,9.11613 25.74487,26.05572 36.81452,37.64353 l 20.12664,21.06874 -7.10516,7.19452 c -6.01059,6.08619 -7.501,6.98267 -9.67472,5.81932 -1.41328,-0.75636 -15.93077,-14.52483 -32.26112,-30.59659 -16.33034,-16.07177 -30.25302,-29.2214 -30.93928,-29.2214 -2.41302,0 -41.06532,17.15073 -41.48418,18.40729 -0.23316,0.69948 2.152,2.78335 5.30036,4.63083 9.60283,5.63499 23.30366,19.24955 30.92718,30.73243 12.68266,19.10319 18.07866,36.82424 18.11074,59.47773 0.0557,39.31635 -23.51016,77.72647 -58.49462,95.34077 -34.94994,17.59692 -71.27694,16.57297 -104.58423,-2.94791 -10.41906,-6.10644 -26.35906,-21.38459 -33.25657,-31.87569 -3.04205,-4.62696 -5.96934,-7.96703 -6.50509,-7.42239 -0.98464,1.00099 -18.47312,41.30908 -18.47312,42.57751 0,0.377 13.81261,14.73997 30.69471,31.91772 34.13983,34.73775 32.47579,31.64259 22.32565,41.52621 l -5.85146,5.69783 z M 228.91587,620.33335 c 5.165,-7.88333 10.74435,-17.03333 12.39855,-20.33333 4.76128,-9.49835 31.75872,-54.13121 33.64607,-55.62453 0.9384,-0.7425 22.70619,-8.72965 48.37285,-17.74923 25.66667,-9.01959 46.91667,-16.60032 47.22223,-16.84608 1.28995,-1.0375 -2.45418,-2.37048 -33.36511,-11.87859 -17.86372,-5.49484 -32.88696,-10.42057 -33.38497,-10.94609 -0.87791,-0.92639 -32.29213,-81.9323 -37.18043,-95.87485 -1.85077,-5.27886 -2.05056,-7.2309 -0.84264,-8.2334 2.68951,-2.23208 16.91067,-7.1224 18.70728,-6.43298 0.93466,0.35866 9.37623,20.66218 18.75904,45.11893 9.38282,24.45675 17.74027,45.17368 18.57214,46.03763 1.62506,1.68776 74.26844,24.42919 78.0346,24.42919 1.67453,0 2.6828,-1.98788 3.8886,-7.66667 1.83555,-8.64471 2.22763,-8.02237 -9.75476,-15.48359 -7.32979,-4.56412 -15.87949,-15.46529 -19.40379,-24.74049 -7.92146,-20.84762 -2.34888,-43.4001 14.60163,-59.09327 25.62981,-23.72868 66.7804,-16.87197 83.7088,13.94797 1.59278,2.8998 3.15739,5.53382 3.47692,5.85335 0.5919,0.59189 15.59498,-3.00736 16.56048,-3.97288 0.7015,-0.70149 -23.26156,-78.37779 -24.57873,-79.67203 -0.56171,-0.55193 -20.82128,-8.59088 -45.02128,-17.86433 -24.2,-9.27347 -44.76518,-17.59807 -45.70039,-18.49912 -1.37405,-1.32388 -1.08317,-3.28007 1.51575,-10.19336 1.76886,-4.7053 4.03404,-9.06756 5.0337,-9.69392 2.1282,-1.33346 99.17302,35.41577 102.70461,38.89249 1.22117,1.20221 6.52674,16.28584 11.79014,33.51917 5.2634,17.23334 10.04782,31.8369 10.63203,32.45237 1.45059,1.52817 9.95873,-20.65786 22.61325,-58.96682 5.81515,-17.60415 11.21659,-33.21012 12.00323,-34.67996 0.78663,-1.46984 21.5661,-14.75996 46.17658,-29.53361 24.61048,-14.77366 45.04377,-27.63631 45.40731,-28.58369 1.45217,-3.78429 -27.93351,-57.11336 -39.31841,-71.35496 -19.26388,-24.09758 -48.7346,-51.344529 -74.8578,-69.20925 -39.66693,-27.1268 -92.73147,-47.507471 -138.66667,-53.258178 -30.14292,-3.773644 -67.78927,-2.815084 -97.33334,2.478324 -21.81048,3.907782 -59.30327,16.781274 -83.39392,28.634069 -52.694,25.925866 -100.06311,68.031515 -128.585615,114.297705 -16.312548,26.46049 -28.621167,54.04539 -37.898189,84.93379 -6.496952,21.63199 -7.62698,26.32844 -8.207907,34.11245 -0.219373,2.93944 -1.034928,10.74443 -1.812344,17.34443 -1.778231,15.09657 -1.854759,56.65364 -0.1302,70.70164 0.717841,5.84744 1.630731,14.2317 2.028644,18.6317 0.743111,8.2171 1.522988,11.39784 8.620714,35.15964 8.455021,28.30579 18.89436,51.66747 35.528294,79.50703 13.963523,23.3702 18.649771,29.26519 42.253763,53.15235 21.27325,21.52848 30.74305,29.52677 51.59676,43.57921 13.34324,8.99145 48.52713,27.83226 52.09581,27.89706 1.21433,0.022 6.04555,-5.99042 11.48672,-14.29529 z m 306.22045,-33.33008 c 47.98293,-15.79626 70.60163,-70.90999 47.88338,-116.67469 -6.76436,-13.62643 -22.73947,-29.49035 -36.35301,-36.09997 -13.46327,-6.53665 -23.5391,-8.89526 -38.00001,-8.89526 -23.23582,0 -41.62218,7.5625 -57.9979,23.85515 -11.22204,11.1651 -15.78547,18.42421 -21.04605,33.47818 -3.03302,8.67948 -3.48978,12.11283 -3.45894,26 0.0307,13.78982 0.51525,17.35096 3.50841,25.7799 15.74998,44.35293 61.35267,67.07845 105.46412,52.55669 z M 421.72187,445.00002 c 6.72758,-9.41303 17.19989,-19.68686 26.68085,-26.17519 l 6.40271,-4.38172 -3.24821,-5.55488 c -4.61434,-7.89114 -13.70685,-13.25088 -23.70643,-13.97419 -10.6427,-0.76981 -18.29719,2.24513 -24.9826,9.84017 -9.16782,10.41518 -10.49304,24.15947 -3.48287,36.12143 3.22841,5.5089 11.48776,12.45771 14.80717,12.45771 0.8654,0 4.25362,-3.75 7.52938,-8.33333 z"
         id="path1371" />
      <path
         style="fill:#bb664a;stroke-width:1.33333"
         d="m 405.59155,647.19509 c -19.85568,-19.3967 -36.43638,-36.32263 -36.84599,-37.61319 -0.43023,-1.35556 4.05789,-13.52363 10.62771,-28.81355 6.25485,-14.55689 11.03297,-26.80656 10.61804,-27.22149 -0.41494,-0.41492 -10.87132,9.34935 -23.23643,21.6984 l -22.482,22.45283 -9.00324,19.48429 c -10.06335,21.77851 -29.95539,63.15979 -30.80466,64.0827 -1.2564,1.36536 -17.7983,-8.00791 -17.7983,-10.08519 0,-1.19811 8.51317,-20.55371 18.91817,-43.01246 l 18.91817,-40.83408 26.08183,-26.5785 c 16.5211,-16.83572 25.3487,-26.74373 24.08183,-27.02922 -1.59017,-0.35835 -51.26048,16.50602 -79.50603,26.99438 -5.31444,1.9734 -6.46421,3.63186 -33.04311,47.66228 -33.69921,55.82589 -37.15177,61.29581 -39.09897,61.94488 -0.84759,0.28253 -4.86834,-1.61475 -8.93499,-4.21616 -5.76072,-3.68508 -7.32285,-5.39387 -7.07209,-7.73607 0.27874,-2.60364 -2.11602,-4.2762 -17.8817,-12.48908 C 156.13273,628.69655 132.20532,611.68313 107.14313,587.58977 87.346184,568.55811 73.439024,551.93698 58.456215,529.40162 21.450941,473.74267 1.3333334,407.50856 1.3333334,341.33334 c 0,-91.3153 36.2011916,-177.69745 101.5386966,-242.288467 53.40911,-52.798897 116.18875,-83.755271 194.46131,-95.888057 21.24662,-3.2933716 69.3673,-3.32749341 90.00001,-0.063817 79.34109,12.550147 142.28044,43.76007 195.35624,96.87187 27.90126,27.920181 45.54214,52.130141 63.33227,86.915831 8.71962,17.04979 10.55438,19.78597 13.26754,19.78597 2.3437,0 4.2003,1.7093 7.26293,6.6867 2.26289,3.67769 4.11436,7.47954 4.11436,8.44858 0,2.2679 -14.93413,11.88287 -66.13471,42.57923 l -41.46803,24.86139 -15.05825,42.74132 c -8.28204,23.50774 -14.6642,43.13538 -14.18258,43.617 0.48162,0.48163 12.47501,-10.66832 26.65198,-24.77764 l 25.77629,-25.65332 40.86904,-19.16692 c 22.47799,-10.54181 42.22143,-19.35504 43.87433,-19.58496 2.46828,-0.34335 3.77285,1.0114 7.3011,7.58196 2.36272,4.4 4.31272,8.40544 4.33334,8.90099 0.0415,0.99612 -22.24443,12.00349 -60.02637,29.64803 l -24.73052,11.54941 -22.5881,22.61745 c -12.42346,12.4396 -21.6284,22.61746 -20.45542,22.61746 1.17298,0 13.32599,-4.8 27.00668,-10.66667 13.68071,-5.86667 25.61847,-10.66667 26.52838,-10.66667 0.90989,0 18.13688,16.4907 38.28217,36.64599 l 36.62782,36.646 -6.58679,6.68734 c -3.62273,3.67804 -7.35629,6.68734 -8.29683,6.68734 -0.94052,0 -15.75517,-13.80338 -32.92144,-30.6742 -24.83859,-24.41107 -31.71411,-30.48228 -33.67341,-29.73425 -13.20343,5.04081 -41.12868,17.85253 -41.12868,18.86926 0,0.71331 3.70796,3.77302 8.23992,6.79934 32.23116,21.52313 52.17148,65.81807 45.88373,101.92496 -4.27437,24.54534 -14.61412,44.86619 -31.34263,61.59816 -12.6296,12.63223 -24.85242,20.17132 -42.03726,25.92878 -19.95025,6.68394 -38.91386,7.4979 -59.41761,2.55033 -8.53033,-2.05837 -26.60122,-10.38697 -34.89056,-16.08052 -8.83051,-6.06525 -22.93709,-20.79904 -27.76893,-29.00356 -2.2,-3.73563 -4.68144,-6.80395 -5.51431,-6.81851 -1.46099,-0.0255 -19.15236,39.42202 -19.15236,42.7052 0,0.88836 13.5,15.35122 30,32.13969 16.5,16.78848 29.97714,31.26044 29.94918,32.15992 -0.028,0.89948 -2.9471,4.7393 -6.48696,8.53296 l -6.43612,6.89756 z M 227.6167,623.60591 c 4.42907,-6.81676 10.02632,-15.96676 12.43833,-20.33333 10.12621,-18.33197 33.26051,-56.16608 35.51105,-58.07521 1.33866,-1.13558 23.59916,-9.47387 49.46777,-18.52953 25.8686,-9.05565 46.84187,-17.04069 46.60726,-17.74454 -0.23462,-0.70384 -15.09984,-5.76354 -33.03383,-11.24376 -17.934,-5.48023 -33.27612,-10.65004 -34.09362,-11.48846 -0.81748,-0.83842 -10.06236,-23.90809 -20.54417,-51.26593 -21.37957,-55.80134 -20.75464,-51.28183 -7.74887,-56.03983 5.80064,-2.12211 7.85884,-2.39083 8.86758,-1.15775 0.7225,0.88318 8.91124,21.40578 18.19717,45.60578 9.28595,24.2 17.3756,44.50007 17.97701,45.11127 1.10951,1.12753 76.82942,24.78088 79.55306,24.85072 1.55408,0.0399 6.02443,-15.88279 4.95465,-17.64771 -0.33972,-0.56048 -3.004,-2.23647 -5.92062,-3.72441 -24.32078,-12.40754 -34.73127,-44.23831 -22.8043,-69.72566 7.58174,-16.2018 22.18902,-27.15417 40.3103,-30.22421 21.39213,-3.62418 44.96644,7.97576 54.74189,26.9362 1.39218,2.70024 3.19588,5.32033 4.00827,5.8224 0.81237,0.50208 5.02095,0.1608 9.35239,-0.75839 5.64621,-1.19821 7.88184,-2.28015 7.89834,-3.8224 0.0376,-3.51675 -23.07601,-77.68104 -24.71897,-79.31531 -0.83077,-0.82639 -21.76636,-9.26592 -46.52352,-18.75453 l -45.01304,-17.25202 0.77357,-3.86789 c 1.38409,-6.92048 5.89476,-15.62807 8.09557,-15.62807 2.31395,0 99.42998,36.998 100.98553,38.47215 0.52552,0.49801 5.46014,15.55015 10.96582,33.44916 5.5057,17.89903 10.56086,33.09419 11.2337,33.76703 1.56701,1.56701 6.55886,-11.27748 22.41984,-57.68834 6.89199,-20.16666 13.4262,-37.56666 14.52047,-38.66666 1.09426,-1.1 21.92048,-14.00246 46.28046,-28.67214 36.21266,-21.80739 44.20913,-27.14164 43.84254,-29.24637 -1.50887,-8.6631 -26.82032,-53.49076 -39.7192,-70.34442 C 585.78014,132.39834 549.69611,97.190755 534.66668,86.073138 505.54719,64.532774 477.05559,49.784579 440.43386,37.295121 360.78463,10.131578 272.59545,17.570599 195.01755,57.996722 148.80495,82.078272 104.903,120.56985 79.43706,159.33334 c -29.096134,44.28925 -47.578064,91.13987 -53.650152,136 -3.211377,23.7254 -3.239317,68.29141 -0.05788,92.32617 4.589562,34.67276 20.081659,79.40008 38.449296,111.00717 18.725148,32.22231 26.581548,42.61375 50.237956,66.44834 19.46161,19.6082 32.84169,30.60459 54.2504,44.58555 12.55736,8.20058 46.28766,26.09675 49.44858,26.23575 0.79672,0.0351 5.07236,-5.51365 9.50145,-12.33041 z m 307.51962,-36.60264 c 47.98293,-15.79626 70.60163,-70.90999 47.88338,-116.67469 -6.76436,-13.62643 -22.73947,-29.49035 -36.35301,-36.09997 -13.46327,-6.53665 -23.5391,-8.89526 -38.00001,-8.89526 -23.23582,0 -41.62218,7.5625 -57.9979,23.85515 -11.22204,11.1651 -15.78547,18.42421 -21.04605,33.47818 -3.03302,8.67948 -3.48978,12.11283 -3.45894,26 0.0307,13.78982 0.51525,17.35096 3.50841,25.7799 15.74998,44.35293 61.35267,67.07845 105.46412,52.55669 z M 421.72187,445.00002 c 6.72758,-9.41303 17.19989,-19.68686 26.68085,-26.17519 l 6.40271,-4.38172 -3.24821,-5.55488 c -4.61434,-7.89114 -13.70685,-13.25088 -23.70643,-13.97419 -10.6427,-0.76981 -18.29719,2.24513 -24.9826,9.84017 -9.16782,10.41518 -10.49304,24.15947 -3.48287,36.12143 3.22841,5.5089 11.48776,12.45771 14.80717,12.45771 0.8654,0 4.25362,-3.75 7.52938,-8.33333 z"
         id="path1369" />
      <path
         style="fill:#545765;stroke-width:1.33333"
         d="m 405.59155,647.19509 c -19.85568,-19.3967 -36.43638,-36.32263 -36.84599,-37.61319 -0.43023,-1.35556 4.05789,-13.52363 10.62771,-28.81355 6.25485,-14.55689 11.03297,-26.80656 10.61804,-27.22149 -0.41494,-0.41492 -10.87132,9.34935 -23.23643,21.6984 l -22.482,22.45283 -9.00324,19.48429 c -10.06335,21.77851 -29.95539,63.15979 -30.80466,64.0827 -1.2564,1.36536 -17.7983,-8.00791 -17.7983,-10.08519 0,-1.19811 8.51317,-20.55371 18.91817,-43.01246 l 18.91817,-40.83408 26.08183,-26.5785 c 16.5211,-16.83572 25.3487,-26.74373 24.08183,-27.02922 -1.59017,-0.35835 -51.26048,16.50602 -79.50603,26.99438 -5.31444,1.9734 -6.46421,3.63186 -33.04311,47.66228 -33.69921,55.82589 -37.15177,61.29581 -39.09897,61.94488 -0.84759,0.28253 -4.86834,-1.61475 -8.93499,-4.21616 -5.76072,-3.68508 -7.32285,-5.39387 -7.07209,-7.73607 0.27874,-2.60364 -2.11602,-4.2762 -17.8817,-12.48908 C 156.13273,628.69655 132.20532,611.68313 107.14313,587.58977 87.346184,568.55811 73.439024,551.93698 58.456215,529.40162 21.450941,473.74267 1.3333334,407.50856 1.3333334,341.33334 c 0,-91.3153 36.2011916,-177.69745 101.5386966,-242.288467 53.40911,-52.798897 116.18875,-83.755271 194.46131,-95.888057 21.24662,-3.2933716 69.3673,-3.32749341 90.00001,-0.063817 79.34109,12.550147 142.28044,43.76007 195.35624,96.87187 27.90126,27.920181 45.54214,52.130141 63.33227,86.915831 8.71962,17.04979 10.55438,19.78597 13.26754,19.78597 2.3437,0 4.2003,1.7093 7.26293,6.6867 2.26289,3.67769 4.11436,7.47954 4.11436,8.44858 0,2.2679 -14.93413,11.88287 -66.13471,42.57923 l -41.46803,24.86139 -15.05825,42.74132 c -8.28204,23.50774 -14.6642,43.13538 -14.18258,43.617 0.48162,0.48163 12.47501,-10.66832 26.65198,-24.77764 l 25.77629,-25.65332 40.86904,-19.16692 c 22.47799,-10.54181 42.22143,-19.35504 43.87433,-19.58496 2.46828,-0.34335 3.77285,1.0114 7.3011,7.58196 2.36272,4.4 4.31272,8.40544 4.33334,8.90099 0.0415,0.99612 -22.24443,12.00349 -60.02637,29.64803 l -24.73052,11.54941 -22.5881,22.61745 c -12.42346,12.4396 -21.6284,22.61746 -20.45542,22.61746 1.17298,0 13.32599,-4.8 27.00668,-10.66667 13.68071,-5.86667 25.61847,-10.66667 26.52838,-10.66667 0.90989,0 18.13688,16.4907 38.28217,36.64599 l 36.62782,36.646 -6.58679,6.68734 c -3.62273,3.67804 -7.35629,6.68734 -8.29683,6.68734 -0.94052,0 -15.75517,-13.80338 -32.92144,-30.6742 -24.83859,-24.41107 -31.71411,-30.48228 -33.67341,-29.73425 -13.20343,5.04081 -41.12868,17.85253 -41.12868,18.86926 0,0.71331 3.70796,3.77302 8.23992,6.79934 32.23116,21.52313 52.17148,65.81807 45.88373,101.92496 -4.27437,24.54534 -14.61412,44.86619 -31.34263,61.59816 -12.6296,12.63223 -24.85242,20.17132 -42.03726,25.92878 -19.95025,6.68394 -38.91386,7.4979 -59.41761,2.55033 -8.53033,-2.05837 -26.60122,-10.38697 -34.89056,-16.08052 -8.83051,-6.06525 -22.93709,-20.79904 -27.76893,-29.00356 -2.2,-3.73563 -4.68144,-6.80395 -5.51431,-6.81851 -1.46099,-0.0255 -19.15236,39.42202 -19.15236,42.7052 0,0.88836 13.5,15.35122 30,32.13969 16.5,16.78848 29.97714,31.26044 29.94918,32.15992 -0.028,0.89948 -2.9471,4.7393 -6.48696,8.53296 l -6.43612,6.89756 z M 227.6167,623.60591 c 4.42907,-6.81676 10.02632,-15.96676 12.43833,-20.33333 10.12621,-18.33197 33.26051,-56.16608 35.51105,-58.07521 1.33866,-1.13558 23.59916,-9.47387 49.46777,-18.52953 25.8686,-9.05565 46.84187,-17.04069 46.60726,-17.74454 -0.23462,-0.70384 -15.09984,-5.76354 -33.03383,-11.24376 -17.934,-5.48023 -33.27612,-10.65004 -34.09362,-11.48846 -0.81748,-0.83842 -10.06236,-23.90809 -20.54417,-51.26593 -21.37957,-55.80134 -20.75464,-51.28183 -7.74887,-56.03983 5.80064,-2.12211 7.85884,-2.39083 8.86758,-1.15775 0.7225,0.88318 8.91124,21.40578 18.19717,45.60578 9.28595,24.2 17.3756,44.50007 17.97701,45.11127 1.10951,1.12753 76.82942,24.78088 79.55306,24.85072 1.55408,0.0399 6.02443,-15.88279 4.95465,-17.64771 -0.33972,-0.56048 -3.004,-2.23647 -5.92062,-3.72441 -24.32078,-12.40754 -34.73127,-44.23831 -22.8043,-69.72566 7.58174,-16.2018 22.18902,-27.15417 40.3103,-30.22421 21.39213,-3.62418 44.96644,7.97576 54.74189,26.9362 1.39218,2.70024 3.19588,5.32033 4.00827,5.8224 0.81237,0.50208 5.02095,0.1608 9.35239,-0.75839 5.64621,-1.19821 7.88184,-2.28015 7.89834,-3.8224 0.0376,-3.51675 -23.07601,-77.68104 -24.71897,-79.31531 -0.83077,-0.82639 -21.76636,-9.26592 -46.52352,-18.75453 l -45.01304,-17.25202 0.77357,-3.86789 c 1.38409,-6.92048 5.89476,-15.62807 8.09557,-15.62807 2.31395,0 99.42998,36.998 100.98553,38.47215 0.52552,0.49801 5.46014,15.55015 10.96582,33.44916 5.5057,17.89903 10.56086,33.09419 11.2337,33.76703 1.56701,1.56701 6.55886,-11.27748 22.41984,-57.68834 6.89199,-20.16666 13.4262,-37.56666 14.52047,-38.66666 1.09426,-1.1 21.92048,-14.00246 46.28046,-28.67214 36.21266,-21.80739 44.20913,-27.14164 43.84254,-29.24637 -1.50887,-8.6631 -26.82032,-53.49076 -39.7192,-70.34442 C 585.78014,132.39834 549.69611,97.190755 534.66668,86.073138 505.54719,64.532774 477.05559,49.784579 440.43386,37.295121 360.78463,10.131578 272.59545,17.570599 195.01755,57.996722 148.80495,82.078272 104.903,120.56985 79.43706,159.33334 c -29.096134,44.28925 -47.578064,91.13987 -53.650152,136 -3.211377,23.7254 -3.239317,68.29141 -0.05788,92.32617 4.589562,34.67276 20.081659,79.40008 38.449296,111.00717 18.725148,32.22231 26.581548,42.61375 50.237956,66.44834 19.46161,19.6082 32.84169,30.60459 54.2504,44.58555 12.55736,8.20058 46.28766,26.09675 49.44858,26.23575 0.79672,0.0351 5.07236,-5.51365 9.50145,-12.33041 z m 308.16321,-34.71944 c 25.04459,-8.61684 43.72938,-27.06197 53.24736,-52.56439 4.48523,-12.01769 5.67326,-35.50292 2.44616,-48.35645 -7.43049,-29.59571 -31.5301,-54.1957 -60.80675,-62.06924 -10.54668,-2.83638 -31.0878,-3.20431 -41.33333,-0.74034 -30.38085,7.30634 -56.23115,33.06889 -63.30991,63.09502 -2.55881,10.85377 -2.53456,28.74633 0.0539,39.72872 3.77861,16.03234 10.3788,27.47364 23.09809,40.04016 12.71152,12.55883 22.37684,18.17532 39.0601,22.69772 13.59168,3.68435 33.77281,2.90707 47.54442,-1.8312 z M 423.06019,445.00002 c 7.62452,-10.28643 14.24345,-16.77606 24.97057,-24.48271 3.64976,-2.6221 6.63592,-5.82114 6.63592,-7.10899 0,-4.46688 -7.60426,-12.97257 -14.80634,-16.56152 -13.66179,-6.80796 -27.89619,-3.94089 -38.12437,7.67892 -9.12737,10.36924 -10.67565,24.25937 -4.02161,36.07895 3.06159,5.43829 13.08037,14.06201 16.33683,14.06201 1.01412,0 5.06817,-4.35 9.009,-9.66666 z"
         id="path1367" />
      <path
         style="fill:#040405;stroke-width:1.33333"
         d="m 301.33334,680.22794 c 0,-0.60798 -3,-2.51054 -6.66666,-4.22792 -3.66667,-1.71737 -6.66667,-3.88561 -6.66667,-4.81832 0,-0.9327 8.73557,-20.48013 19.4124,-43.43875 l 19.4124,-41.74293 25.92094,-26.0122 c 23.71221,-23.79571 28.34698,-29.32114 24.59482,-29.32114 -3.32566,0 -86.26196,29.91255 -88.26381,31.83403 -1.24114,1.19128 -13.6047,21.06598 -27.47458,44.16598 -33.16912,55.24243 -37.80385,62.66667 -39.12105,62.66667 -0.60926,0 -4.11546,-1.85067 -7.79156,-4.1126 -5.6664,-3.48658 -6.56483,-4.5868 -5.90202,-7.22768 0.72,-2.8687 -0.73021,-3.88214 -18.33618,-12.81364 C 104.20651,601.42745 40.39902,523.86967 15.216293,432.18184 -1.1578979,372.56503 -1.9725298,316.68885 12.686161,258.63838 36.338659,164.97118 99.315715,85.002362 184.35089,40.657016 220.53123,21.789173 262.86425,8.4306466 298.66668,4.5837422 c 4.76666,-0.5121695 9.26666,-1.3838074 10,-1.936973 2.29273,-1.72944438 39.357,-2.72483995 53.33333,-1.4323166 53.72248,4.9682241 104.17683,19.9011734 145.07229,42.9369794 61.20961,34.478467 107.15388,82.469788 138.66496,144.843198 8.50096,16.82691 9.97762,18.99524 12.93914,19 2.53812,0.004 4.22354,1.46311 7,6.05972 2.01133,3.32988 3.65036,6.77988 3.64228,7.66667 -0.0175,1.91968 -3.84542,4.34432 -59.98533,37.99524 -23.83333,14.28599 -44.406,26.98342 -45.71702,28.21652 -1.95674,1.84044 -32.94965,86.18802 -32.94965,89.67287 0,3.46734 6.02417,-1.64924 29.32114,-24.90366 l 26.0122,-25.96469 42.96281,-20.03532 c 23.62955,-11.01941 43.26735,-20.0353 43.63958,-20.0353 0.37221,0 1.96955,2.55 3.54963,5.66666 1.58008,3.11667 3.28604,5.96667 3.79102,6.33334 0.50498,0.36666 1.30555,1.71666 1.77904,3 0.60888,1.65029 0.19011,2.33478 -1.43058,2.33832 -1.26032,0.003 -4.0915,1.0951 -6.2915,2.42748 -2.2,1.33237 -19.9,9.77509 -39.33333,18.76161 l -35.33334,16.33912 -24.33333,24.21988 c -13.38333,13.32095 -24.33333,24.67598 -24.33333,25.2334 0,2.22506 4.88292,0.55619 30.19457,-10.31981 14.50681,-6.23333 27.086,-11.33333 27.95373,-11.33333 0.86774,0 17.0224,15.75 35.89926,35 18.87684,19.25 34.98849,35 35.80365,35 0.81518,0 1.48212,0.6 1.48212,1.33333 0,1.73835 -11.86162,12.66667 -13.74842,12.66667 -0.79763,0 -15.60726,-13.89768 -32.91028,-30.88374 l -31.46007,-30.88372 -22.94062,9.88372 c -12.61733,5.43606 -22.94061,10.59691 -22.94061,11.46856 0,0.87166 3.6,3.93488 8,6.80715 27.19633,17.75348 43.52089,44.2576 47.57421,77.24018 1.85606,15.10296 0.20594,28.91538 -5.39601,45.16773 -10.79537,31.31952 -34.83892,55.17286 -66.4684,65.94255 -11.43055,3.89205 -15.12762,4.50772 -29.90316,4.97965 -13.97787,0.44646 -18.75626,0.0589 -27.95252,-2.26654 -26.64551,-6.73808 -47.82989,-21.77074 -63.69591,-45.1993 -3.1326,-4.62574 -6.34623,-8.19357 -7.14142,-7.9285 -1.84054,0.61352 -19.68346,41.97566 -19.68346,45.62876 0,1.78512 10.4005,13.1252 30,32.71017 16.5,16.48778 29.98609,30.58278 29.96909,31.32223 -0.0305,1.32681 -12.0844,14.59636 -12.44809,13.70348 -0.1032,-0.25341 -16.29454,-16.69885 -35.9807,-36.54541 l -35.79304,-36.08469 12.16992,-28.42092 c 6.69346,-15.6315 11.68236,-28.90848 11.08647,-29.50437 -0.59591,-0.59591 -12.21812,10.15451 -25.82716,23.88979 l -24.74371,24.97322 -11.08805,24 c -6.09843,13.20001 -14.38406,30.90001 -18.41251,39.33334 -4.02844,8.43333 -7.33619,16.08333 -7.35056,17 -0.0144,0.91667 -0.82611,1.66667 -1.80389,1.66667 -0.97778,0 -1.77778,-0.49744 -1.77778,-1.10542 z m -69.83968,-60.56125 c 5.90568,-9.71667 18.12936,-30.14576 27.16376,-45.39799 9.03439,-15.25221 17.38236,-28.22529 18.55104,-28.82904 1.16868,-0.60375 23.12488,-8.46675 48.79155,-17.47334 25.66667,-9.00658 47.23667,-16.88352 47.93334,-17.50429 0.79457,-0.70801 0.73857,-1.65677 -0.15026,-2.5456 -0.7793,-0.77931 -16.0493,-5.92364 -33.93333,-11.43187 -17.88403,-5.50822 -33.22936,-10.72061 -34.10072,-11.58308 -0.87138,-0.86248 -10.08704,-23.69213 -20.47927,-50.73259 -15.00945,-39.05442 -18.52221,-49.40462 -17.08236,-50.33236 2.58973,-1.66864 15.68787,-5.75729 16.25764,-5.07492 0.26257,0.31446 7.24231,18.27174 15.51053,39.90507 15.31499,40.07078 20.07578,52 20.75248,52 0.20883,0 17.95651,5.4 39.43931,12 21.4828,6.6 40.08834,12 41.34566,12 1.67725,0 2.68446,-1.85793 3.78228,-6.97682 0.82294,-3.83727 1.81704,-8.25494 2.2091,-9.81707 0.58904,-2.34691 -0.58281,-3.57147 -6.74684,-7.05021 -10.11186,-5.70679 -17.65878,-13.77054 -22.60768,-24.1559 -3.77053,-7.91256 -4.12834,-9.82683 -4.11218,-22 0.0155,-11.62785 0.4725,-14.30853 3.5734,-20.95743 4.95822,-10.63129 14.32346,-20.17701 24.90753,-25.38753 8.21307,-4.04328 9.68239,-4.32171 22.80667,-4.32171 12.40373,0 14.9042,0.41074 21.59491,3.54722 9.64886,4.52321 19.00933,13.15162 24.15106,22.26225 l 4.03262,7.1454 6.79138,-0.89949 c 8.26643,-1.09486 13.51132,-3.50476 13.30223,-6.11208 -0.43397,-5.41192 -23.76556,-78.24158 -25.65107,-80.06993 -1.2062,-1.16964 -21.47156,-9.49001 -45.03413,-18.48972 -23.56256,-8.99972 -43.6068,-16.83638 -44.54274,-17.41482 -1.33465,-0.82487 -1.04629,-2.80422 1.33695,-9.17694 1.67124,-4.46888 3.75072,-8.12522 4.62105,-8.12522 2.26824,0 98.28455,36.9921 99.70613,38.41368 0.65145,0.65145 5.8653,16.2853 11.58634,34.7419 5.72104,18.45659 10.84052,33.99607 11.37662,34.53217 0.53609,0.5361 1.69553,-0.0107 2.57652,-1.21586 1.53313,-2.09669 15.06446,-39.62387 28.51097,-79.071 l 6.33995,-18.59911 45.64412,-27.38585 c 25.10425,-15.06222 45.96923,-28.23308 46.36659,-29.2686 0.39736,-1.03551 -2.81608,-9.14228 -7.14099,-18.01504 C 595.89506,129.03837 535.80186,73.229489 461.33335,43.345856 423.9472,28.343082 392.89172,21.751595 353.33335,20.422985 318.41734,19.250293 288.54818,22.748617 258.00001,31.588577 200.05478,48.356635 156.25538,74.110364 114.62795,115.89031 103.97332,126.58397 91.646588,140.13334 87.235207,146 63.694658,177.30643 45.103002,214.20643 34.164183,251.33334 c -9.893501,33.57904 -12.06342,49.90251 -12.052552,90.66667 0.0071,26.28646 0.521779,35.21387 2.883085,50 6.752442,42.28274 22.505258,83.28298 47.165258,122.75815 22.652891,36.26225 57.653576,71.32738 96.565686,96.7435 13.36672,8.73069 46.32519,25.8317 49.78501,25.8317 1.45175,0 6.0407,-6.24445 12.98299,-17.66667 z m 299.47761,-28.40296 c 29.52699,-7.61838 54.59023,-33.3504 61.61946,-63.26371 3.88006,-16.51191 2.19466,-37.57626 -4.21399,-52.66667 -10.34901,-24.36873 -33.21244,-44.11262 -58.56918,-50.57783 -10.67865,-2.72275 -31.69698,-2.70875 -42.25897,0.0281 -45.4324,11.77272 -73.71803,58.90759 -62.25258,103.73706 4.07987,15.95212 10.96164,27.84904 23.30817,40.29419 8.65206,8.72119 12.92324,11.86121 22.0625,16.21969 6.23334,2.97266 14.63334,6.05006 18.66667,6.83867 4.03333,0.78861 8.53333,1.70921 10,2.04577 4.76255,1.09287 23.06412,-0.44314 31.63792,-2.6553 z M 422.03125,448.33335 c 6.21222,-9.38376 17.93266,-21.05807 27.11434,-27.00759 8.12692,-5.26607 8.60456,-7.84299 2.91064,-15.70321 -10.18477,-14.05967 -30.15507,-17.66146 -44.65887,-8.05454 -7.12761,4.72114 -13.55973,14.82551 -14.83011,23.29696 -1.7224,11.4858 5.55116,26.25291 16.09939,32.68569 6.13867,3.74361 7.88319,3.06258 13.36461,-5.21731 z"
         id="path1365" />
    </g>
  </g>
</svg>
